G04 #@! TF.GenerationSoftware,KiCad,Pcbnew,(5.1.4)-1*
G04 #@! TF.CreationDate,2019-11-24T21:52:42+08:00*
G04 #@! TF.ProjectId,FH26W-45S-0.3SHW,46483236-572d-4343-9553-2d302e335348,rev?*
G04 #@! TF.SameCoordinates,Original*
G04 #@! TF.FileFunction,Legend,Bot*
G04 #@! TF.FilePolarity,Positive*
%FSLAX46Y46*%
G04 Gerber Fmt 4.6, Leading zero omitted, Abs format (unit mm)*
G04 Created by KiCad (PCBNEW (5.1.4)-1) date 2019-11-24 21:52:42*
%MOMM*%
%LPD*%
G04 APERTURE LIST*
%ADD10C,0.130000*%
%ADD11C,0.150000*%
%ADD12C,0.120000*%
G04 APERTURE END LIST*
D10*
X104100000Y-104020000D02*
X145780000Y-103950000D01*
D11*
X133557619Y-110968095D02*
X134557619Y-110968095D01*
X134557619Y-110730000D01*
X134510000Y-110587142D01*
X134414761Y-110491904D01*
X134319523Y-110444285D01*
X134129047Y-110396666D01*
X133986190Y-110396666D01*
X133795714Y-110444285D01*
X133700476Y-110491904D01*
X133605238Y-110587142D01*
X133557619Y-110730000D01*
X133557619Y-110968095D01*
X134557619Y-110063333D02*
X134557619Y-109444285D01*
X134176666Y-109777619D01*
X134176666Y-109634761D01*
X134129047Y-109539523D01*
X134081428Y-109491904D01*
X133986190Y-109444285D01*
X133748095Y-109444285D01*
X133652857Y-109491904D01*
X133605238Y-109539523D01*
X133557619Y-109634761D01*
X133557619Y-109920476D01*
X133605238Y-110015714D01*
X133652857Y-110063333D01*
X130897619Y-107208095D02*
X131897619Y-107208095D01*
X131897619Y-106970000D01*
X131850000Y-106827142D01*
X131754761Y-106731904D01*
X131659523Y-106684285D01*
X131469047Y-106636666D01*
X131326190Y-106636666D01*
X131135714Y-106684285D01*
X131040476Y-106731904D01*
X130945238Y-106827142D01*
X130897619Y-106970000D01*
X130897619Y-107208095D01*
X131897619Y-105779523D02*
X131897619Y-105970000D01*
X131850000Y-106065238D01*
X131802380Y-106112857D01*
X131659523Y-106208095D01*
X131469047Y-106255714D01*
X131088095Y-106255714D01*
X130992857Y-106208095D01*
X130945238Y-106160476D01*
X130897619Y-106065238D01*
X130897619Y-105874761D01*
X130945238Y-105779523D01*
X130992857Y-105731904D01*
X131088095Y-105684285D01*
X131326190Y-105684285D01*
X131421428Y-105731904D01*
X131469047Y-105779523D01*
X131516666Y-105874761D01*
X131516666Y-106065238D01*
X131469047Y-106160476D01*
X131421428Y-106208095D01*
X131326190Y-106255714D01*
X144975000Y-111246190D02*
X144975000Y-110246190D01*
X143702857Y-110436666D02*
X143655238Y-110484285D01*
X143607619Y-110627142D01*
X143607619Y-110722380D01*
X143655238Y-110865238D01*
X143750476Y-110960476D01*
X143845714Y-111008095D01*
X144036190Y-111055714D01*
X144179047Y-111055714D01*
X144369523Y-111008095D01*
X144464761Y-110960476D01*
X144560000Y-110865238D01*
X144607619Y-110722380D01*
X144607619Y-110627142D01*
X144560000Y-110484285D01*
X144512380Y-110436666D01*
X144975000Y-110246190D02*
X144975000Y-109293809D01*
X143655238Y-110055714D02*
X143607619Y-109912857D01*
X143607619Y-109674761D01*
X143655238Y-109579523D01*
X143702857Y-109531904D01*
X143798095Y-109484285D01*
X143893333Y-109484285D01*
X143988571Y-109531904D01*
X144036190Y-109579523D01*
X144083809Y-109674761D01*
X144131428Y-109865238D01*
X144179047Y-109960476D01*
X144226666Y-110008095D01*
X144321904Y-110055714D01*
X144417142Y-110055714D01*
X144512380Y-110008095D01*
X144560000Y-109960476D01*
X144607619Y-109865238D01*
X144607619Y-109627142D01*
X144560000Y-109484285D01*
X138497619Y-110437619D02*
X138973809Y-110770952D01*
X138497619Y-111009047D02*
X139497619Y-111009047D01*
X139497619Y-110628095D01*
X139450000Y-110532857D01*
X139402380Y-110485238D01*
X139307142Y-110437619D01*
X139164285Y-110437619D01*
X139069047Y-110485238D01*
X139021428Y-110532857D01*
X138973809Y-110628095D01*
X138973809Y-111009047D01*
X138545238Y-110056666D02*
X138497619Y-109913809D01*
X138497619Y-109675714D01*
X138545238Y-109580476D01*
X138592857Y-109532857D01*
X138688095Y-109485238D01*
X138783333Y-109485238D01*
X138878571Y-109532857D01*
X138926190Y-109580476D01*
X138973809Y-109675714D01*
X139021428Y-109866190D01*
X139069047Y-109961428D01*
X139116666Y-110009047D01*
X139211904Y-110056666D01*
X139307142Y-110056666D01*
X139402380Y-110009047D01*
X139450000Y-109961428D01*
X139497619Y-109866190D01*
X139497619Y-109628095D01*
X139450000Y-109485238D01*
X139497619Y-109199523D02*
X139497619Y-108628095D01*
X138497619Y-108913809D02*
X139497619Y-108913809D01*
X138487619Y-107208095D02*
X139487619Y-107208095D01*
X139487619Y-106970000D01*
X139440000Y-106827142D01*
X139344761Y-106731904D01*
X139249523Y-106684285D01*
X139059047Y-106636666D01*
X138916190Y-106636666D01*
X138725714Y-106684285D01*
X138630476Y-106731904D01*
X138535238Y-106827142D01*
X138487619Y-106970000D01*
X138487619Y-107208095D01*
X139487619Y-106017619D02*
X139487619Y-105922380D01*
X139440000Y-105827142D01*
X139392380Y-105779523D01*
X139297142Y-105731904D01*
X139106666Y-105684285D01*
X138868571Y-105684285D01*
X138678095Y-105731904D01*
X138582857Y-105779523D01*
X138535238Y-105827142D01*
X138487619Y-105922380D01*
X138487619Y-106017619D01*
X138535238Y-106112857D01*
X138582857Y-106160476D01*
X138678095Y-106208095D01*
X138868571Y-106255714D01*
X139106666Y-106255714D01*
X139297142Y-106208095D01*
X139392380Y-106160476D01*
X139440000Y-106112857D01*
X139487619Y-106017619D01*
X142087619Y-111028571D02*
X141087619Y-110790476D01*
X141801904Y-110600000D01*
X141087619Y-110409523D01*
X142087619Y-110171428D01*
X141087619Y-109219047D02*
X141563809Y-109552380D01*
X141087619Y-109790476D02*
X142087619Y-109790476D01*
X142087619Y-109409523D01*
X142040000Y-109314285D01*
X141992380Y-109266666D01*
X141897142Y-109219047D01*
X141754285Y-109219047D01*
X141659047Y-109266666D01*
X141611428Y-109314285D01*
X141563809Y-109409523D01*
X141563809Y-109790476D01*
X141217619Y-106680476D02*
X141693809Y-107013809D01*
X141217619Y-107251904D02*
X142217619Y-107251904D01*
X142217619Y-106870952D01*
X142170000Y-106775714D01*
X142122380Y-106728095D01*
X142027142Y-106680476D01*
X141884285Y-106680476D01*
X141789047Y-106728095D01*
X141741428Y-106775714D01*
X141693809Y-106870952D01*
X141693809Y-107251904D01*
X141217619Y-106251904D02*
X142217619Y-106251904D01*
X142217619Y-106013809D01*
X142170000Y-105870952D01*
X142074761Y-105775714D01*
X141979523Y-105728095D01*
X141789047Y-105680476D01*
X141646190Y-105680476D01*
X141455714Y-105728095D01*
X141360476Y-105775714D01*
X141265238Y-105870952D01*
X141217619Y-106013809D01*
X141217619Y-106251904D01*
X143637619Y-106656666D02*
X144113809Y-106990000D01*
X143637619Y-107228095D02*
X144637619Y-107228095D01*
X144637619Y-106847142D01*
X144590000Y-106751904D01*
X144542380Y-106704285D01*
X144447142Y-106656666D01*
X144304285Y-106656666D01*
X144209047Y-106704285D01*
X144161428Y-106751904D01*
X144113809Y-106847142D01*
X144113809Y-107228095D01*
X143685238Y-106275714D02*
X143637619Y-106132857D01*
X143637619Y-105894761D01*
X143685238Y-105799523D01*
X143732857Y-105751904D01*
X143828095Y-105704285D01*
X143923333Y-105704285D01*
X144018571Y-105751904D01*
X144066190Y-105799523D01*
X144113809Y-105894761D01*
X144161428Y-106085238D01*
X144209047Y-106180476D01*
X144256666Y-106228095D01*
X144351904Y-106275714D01*
X144447142Y-106275714D01*
X144542380Y-106228095D01*
X144590000Y-106180476D01*
X144637619Y-106085238D01*
X144637619Y-105847142D01*
X144590000Y-105704285D01*
X136117619Y-111008095D02*
X137117619Y-111008095D01*
X137117619Y-110770000D01*
X137070000Y-110627142D01*
X136974761Y-110531904D01*
X136879523Y-110484285D01*
X136689047Y-110436666D01*
X136546190Y-110436666D01*
X136355714Y-110484285D01*
X136260476Y-110531904D01*
X136165238Y-110627142D01*
X136117619Y-110770000D01*
X136117619Y-111008095D01*
X136117619Y-109484285D02*
X136117619Y-110055714D01*
X136117619Y-109770000D02*
X137117619Y-109770000D01*
X136974761Y-109865238D01*
X136879523Y-109960476D01*
X136831904Y-110055714D01*
X136077619Y-107248095D02*
X137077619Y-107248095D01*
X137077619Y-107010000D01*
X137030000Y-106867142D01*
X136934761Y-106771904D01*
X136839523Y-106724285D01*
X136649047Y-106676666D01*
X136506190Y-106676666D01*
X136315714Y-106724285D01*
X136220476Y-106771904D01*
X136125238Y-106867142D01*
X136077619Y-107010000D01*
X136077619Y-107248095D01*
X136982380Y-106295714D02*
X137030000Y-106248095D01*
X137077619Y-106152857D01*
X137077619Y-105914761D01*
X137030000Y-105819523D01*
X136982380Y-105771904D01*
X136887142Y-105724285D01*
X136791904Y-105724285D01*
X136649047Y-105771904D01*
X136077619Y-106343333D01*
X136077619Y-105724285D01*
X133507619Y-107248095D02*
X134507619Y-107248095D01*
X134507619Y-107010000D01*
X134460000Y-106867142D01*
X134364761Y-106771904D01*
X134269523Y-106724285D01*
X134079047Y-106676666D01*
X133936190Y-106676666D01*
X133745714Y-106724285D01*
X133650476Y-106771904D01*
X133555238Y-106867142D01*
X133507619Y-107010000D01*
X133507619Y-107248095D01*
X134174285Y-105819523D02*
X133507619Y-105819523D01*
X134555238Y-106057619D02*
X133840952Y-106295714D01*
X133840952Y-105676666D01*
X130897619Y-110988095D02*
X131897619Y-110988095D01*
X131897619Y-110750000D01*
X131850000Y-110607142D01*
X131754761Y-110511904D01*
X131659523Y-110464285D01*
X131469047Y-110416666D01*
X131326190Y-110416666D01*
X131135714Y-110464285D01*
X131040476Y-110511904D01*
X130945238Y-110607142D01*
X130897619Y-110750000D01*
X130897619Y-110988095D01*
X131897619Y-109511904D02*
X131897619Y-109988095D01*
X131421428Y-110035714D01*
X131469047Y-109988095D01*
X131516666Y-109892857D01*
X131516666Y-109654761D01*
X131469047Y-109559523D01*
X131421428Y-109511904D01*
X131326190Y-109464285D01*
X131088095Y-109464285D01*
X130992857Y-109511904D01*
X130945238Y-109559523D01*
X130897619Y-109654761D01*
X130897619Y-109892857D01*
X130945238Y-109988095D01*
X130992857Y-110035714D01*
X128367619Y-111008095D02*
X129367619Y-111008095D01*
X129367619Y-110770000D01*
X129320000Y-110627142D01*
X129224761Y-110531904D01*
X129129523Y-110484285D01*
X128939047Y-110436666D01*
X128796190Y-110436666D01*
X128605714Y-110484285D01*
X128510476Y-110531904D01*
X128415238Y-110627142D01*
X128367619Y-110770000D01*
X128367619Y-111008095D01*
X129367619Y-110103333D02*
X129367619Y-109436666D01*
X128367619Y-109865238D01*
X128407619Y-107208095D02*
X129407619Y-107208095D01*
X129407619Y-106970000D01*
X129360000Y-106827142D01*
X129264761Y-106731904D01*
X129169523Y-106684285D01*
X128979047Y-106636666D01*
X128836190Y-106636666D01*
X128645714Y-106684285D01*
X128550476Y-106731904D01*
X128455238Y-106827142D01*
X128407619Y-106970000D01*
X128407619Y-107208095D01*
X128979047Y-106065238D02*
X129026666Y-106160476D01*
X129074285Y-106208095D01*
X129169523Y-106255714D01*
X129217142Y-106255714D01*
X129312380Y-106208095D01*
X129360000Y-106160476D01*
X129407619Y-106065238D01*
X129407619Y-105874761D01*
X129360000Y-105779523D01*
X129312380Y-105731904D01*
X129217142Y-105684285D01*
X129169523Y-105684285D01*
X129074285Y-105731904D01*
X129026666Y-105779523D01*
X128979047Y-105874761D01*
X128979047Y-106065238D01*
X128931428Y-106160476D01*
X128883809Y-106208095D01*
X128788571Y-106255714D01*
X128598095Y-106255714D01*
X128502857Y-106208095D01*
X128455238Y-106160476D01*
X128407619Y-106065238D01*
X128407619Y-105874761D01*
X128455238Y-105779523D01*
X128502857Y-105731904D01*
X128598095Y-105684285D01*
X128788571Y-105684285D01*
X128883809Y-105731904D01*
X128931428Y-105779523D01*
X128979047Y-105874761D01*
X125797619Y-110968095D02*
X126797619Y-110968095D01*
X126797619Y-110730000D01*
X126750000Y-110587142D01*
X126654761Y-110491904D01*
X126559523Y-110444285D01*
X126369047Y-110396666D01*
X126226190Y-110396666D01*
X126035714Y-110444285D01*
X125940476Y-110491904D01*
X125845238Y-110587142D01*
X125797619Y-110730000D01*
X125797619Y-110968095D01*
X125797619Y-109920476D02*
X125797619Y-109730000D01*
X125845238Y-109634761D01*
X125892857Y-109587142D01*
X126035714Y-109491904D01*
X126226190Y-109444285D01*
X126607142Y-109444285D01*
X126702380Y-109491904D01*
X126750000Y-109539523D01*
X126797619Y-109634761D01*
X126797619Y-109825238D01*
X126750000Y-109920476D01*
X126702380Y-109968095D01*
X126607142Y-110015714D01*
X126369047Y-110015714D01*
X126273809Y-109968095D01*
X126226190Y-109920476D01*
X126178571Y-109825238D01*
X126178571Y-109634761D01*
X126226190Y-109539523D01*
X126273809Y-109491904D01*
X126369047Y-109444285D01*
X125797619Y-107214285D02*
X126797619Y-107214285D01*
X126797619Y-106976190D01*
X126750000Y-106833333D01*
X126654761Y-106738095D01*
X126559523Y-106690476D01*
X126369047Y-106642857D01*
X126226190Y-106642857D01*
X126035714Y-106690476D01*
X125940476Y-106738095D01*
X125845238Y-106833333D01*
X125797619Y-106976190D01*
X125797619Y-107214285D01*
X125797619Y-105690476D02*
X125797619Y-106261904D01*
X125797619Y-105976190D02*
X126797619Y-105976190D01*
X126654761Y-106071428D01*
X126559523Y-106166666D01*
X126511904Y-106261904D01*
X126797619Y-105071428D02*
X126797619Y-104976190D01*
X126750000Y-104880952D01*
X126702380Y-104833333D01*
X126607142Y-104785714D01*
X126416666Y-104738095D01*
X126178571Y-104738095D01*
X125988095Y-104785714D01*
X125892857Y-104833333D01*
X125845238Y-104880952D01*
X125797619Y-104976190D01*
X125797619Y-105071428D01*
X125845238Y-105166666D01*
X125892857Y-105214285D01*
X125988095Y-105261904D01*
X126178571Y-105309523D01*
X126416666Y-105309523D01*
X126607142Y-105261904D01*
X126702380Y-105214285D01*
X126750000Y-105166666D01*
X126797619Y-105071428D01*
X123267619Y-110964285D02*
X124267619Y-110964285D01*
X124267619Y-110726190D01*
X124220000Y-110583333D01*
X124124761Y-110488095D01*
X124029523Y-110440476D01*
X123839047Y-110392857D01*
X123696190Y-110392857D01*
X123505714Y-110440476D01*
X123410476Y-110488095D01*
X123315238Y-110583333D01*
X123267619Y-110726190D01*
X123267619Y-110964285D01*
X123267619Y-109440476D02*
X123267619Y-110011904D01*
X123267619Y-109726190D02*
X124267619Y-109726190D01*
X124124761Y-109821428D01*
X124029523Y-109916666D01*
X123981904Y-110011904D01*
X123267619Y-108488095D02*
X123267619Y-109059523D01*
X123267619Y-108773809D02*
X124267619Y-108773809D01*
X124124761Y-108869047D01*
X124029523Y-108964285D01*
X123981904Y-109059523D01*
X123227619Y-107214285D02*
X124227619Y-107214285D01*
X124227619Y-106976190D01*
X124180000Y-106833333D01*
X124084761Y-106738095D01*
X123989523Y-106690476D01*
X123799047Y-106642857D01*
X123656190Y-106642857D01*
X123465714Y-106690476D01*
X123370476Y-106738095D01*
X123275238Y-106833333D01*
X123227619Y-106976190D01*
X123227619Y-107214285D01*
X123227619Y-105690476D02*
X123227619Y-106261904D01*
X123227619Y-105976190D02*
X124227619Y-105976190D01*
X124084761Y-106071428D01*
X123989523Y-106166666D01*
X123941904Y-106261904D01*
X124132380Y-105309523D02*
X124180000Y-105261904D01*
X124227619Y-105166666D01*
X124227619Y-104928571D01*
X124180000Y-104833333D01*
X124132380Y-104785714D01*
X124037142Y-104738095D01*
X123941904Y-104738095D01*
X123799047Y-104785714D01*
X123227619Y-105357142D01*
X123227619Y-104738095D01*
X120777619Y-111004285D02*
X121777619Y-111004285D01*
X121777619Y-110766190D01*
X121730000Y-110623333D01*
X121634761Y-110528095D01*
X121539523Y-110480476D01*
X121349047Y-110432857D01*
X121206190Y-110432857D01*
X121015714Y-110480476D01*
X120920476Y-110528095D01*
X120825238Y-110623333D01*
X120777619Y-110766190D01*
X120777619Y-111004285D01*
X120777619Y-109480476D02*
X120777619Y-110051904D01*
X120777619Y-109766190D02*
X121777619Y-109766190D01*
X121634761Y-109861428D01*
X121539523Y-109956666D01*
X121491904Y-110051904D01*
X121777619Y-109147142D02*
X121777619Y-108528095D01*
X121396666Y-108861428D01*
X121396666Y-108718571D01*
X121349047Y-108623333D01*
X121301428Y-108575714D01*
X121206190Y-108528095D01*
X120968095Y-108528095D01*
X120872857Y-108575714D01*
X120825238Y-108623333D01*
X120777619Y-108718571D01*
X120777619Y-109004285D01*
X120825238Y-109099523D01*
X120872857Y-109147142D01*
X120817619Y-107214285D02*
X121817619Y-107214285D01*
X121817619Y-106976190D01*
X121770000Y-106833333D01*
X121674761Y-106738095D01*
X121579523Y-106690476D01*
X121389047Y-106642857D01*
X121246190Y-106642857D01*
X121055714Y-106690476D01*
X120960476Y-106738095D01*
X120865238Y-106833333D01*
X120817619Y-106976190D01*
X120817619Y-107214285D01*
X120817619Y-105690476D02*
X120817619Y-106261904D01*
X120817619Y-105976190D02*
X121817619Y-105976190D01*
X121674761Y-106071428D01*
X121579523Y-106166666D01*
X121531904Y-106261904D01*
X121484285Y-104833333D02*
X120817619Y-104833333D01*
X121865238Y-105071428D02*
X121150952Y-105309523D01*
X121150952Y-104690476D01*
X118227619Y-111054285D02*
X119227619Y-111054285D01*
X119227619Y-110816190D01*
X119180000Y-110673333D01*
X119084761Y-110578095D01*
X118989523Y-110530476D01*
X118799047Y-110482857D01*
X118656190Y-110482857D01*
X118465714Y-110530476D01*
X118370476Y-110578095D01*
X118275238Y-110673333D01*
X118227619Y-110816190D01*
X118227619Y-111054285D01*
X118227619Y-109530476D02*
X118227619Y-110101904D01*
X118227619Y-109816190D02*
X119227619Y-109816190D01*
X119084761Y-109911428D01*
X118989523Y-110006666D01*
X118941904Y-110101904D01*
X119227619Y-108625714D02*
X119227619Y-109101904D01*
X118751428Y-109149523D01*
X118799047Y-109101904D01*
X118846666Y-109006666D01*
X118846666Y-108768571D01*
X118799047Y-108673333D01*
X118751428Y-108625714D01*
X118656190Y-108578095D01*
X118418095Y-108578095D01*
X118322857Y-108625714D01*
X118275238Y-108673333D01*
X118227619Y-108768571D01*
X118227619Y-109006666D01*
X118275238Y-109101904D01*
X118322857Y-109149523D01*
X118227619Y-107174285D02*
X119227619Y-107174285D01*
X119227619Y-106936190D01*
X119180000Y-106793333D01*
X119084761Y-106698095D01*
X118989523Y-106650476D01*
X118799047Y-106602857D01*
X118656190Y-106602857D01*
X118465714Y-106650476D01*
X118370476Y-106698095D01*
X118275238Y-106793333D01*
X118227619Y-106936190D01*
X118227619Y-107174285D01*
X118227619Y-105650476D02*
X118227619Y-106221904D01*
X118227619Y-105936190D02*
X119227619Y-105936190D01*
X119084761Y-106031428D01*
X118989523Y-106126666D01*
X118941904Y-106221904D01*
X119227619Y-104793333D02*
X119227619Y-104983809D01*
X119180000Y-105079047D01*
X119132380Y-105126666D01*
X118989523Y-105221904D01*
X118799047Y-105269523D01*
X118418095Y-105269523D01*
X118322857Y-105221904D01*
X118275238Y-105174285D01*
X118227619Y-105079047D01*
X118227619Y-104888571D01*
X118275238Y-104793333D01*
X118322857Y-104745714D01*
X118418095Y-104698095D01*
X118656190Y-104698095D01*
X118751428Y-104745714D01*
X118799047Y-104793333D01*
X118846666Y-104888571D01*
X118846666Y-105079047D01*
X118799047Y-105174285D01*
X118751428Y-105221904D01*
X118656190Y-105269523D01*
X115677619Y-111094285D02*
X116677619Y-111094285D01*
X116677619Y-110856190D01*
X116630000Y-110713333D01*
X116534761Y-110618095D01*
X116439523Y-110570476D01*
X116249047Y-110522857D01*
X116106190Y-110522857D01*
X115915714Y-110570476D01*
X115820476Y-110618095D01*
X115725238Y-110713333D01*
X115677619Y-110856190D01*
X115677619Y-111094285D01*
X115677619Y-109570476D02*
X115677619Y-110141904D01*
X115677619Y-109856190D02*
X116677619Y-109856190D01*
X116534761Y-109951428D01*
X116439523Y-110046666D01*
X116391904Y-110141904D01*
X116677619Y-109237142D02*
X116677619Y-108570476D01*
X115677619Y-108999047D01*
X115707619Y-107184285D02*
X116707619Y-107184285D01*
X116707619Y-106946190D01*
X116660000Y-106803333D01*
X116564761Y-106708095D01*
X116469523Y-106660476D01*
X116279047Y-106612857D01*
X116136190Y-106612857D01*
X115945714Y-106660476D01*
X115850476Y-106708095D01*
X115755238Y-106803333D01*
X115707619Y-106946190D01*
X115707619Y-107184285D01*
X115707619Y-105660476D02*
X115707619Y-106231904D01*
X115707619Y-105946190D02*
X116707619Y-105946190D01*
X116564761Y-106041428D01*
X116469523Y-106136666D01*
X116421904Y-106231904D01*
X116279047Y-105089047D02*
X116326666Y-105184285D01*
X116374285Y-105231904D01*
X116469523Y-105279523D01*
X116517142Y-105279523D01*
X116612380Y-105231904D01*
X116660000Y-105184285D01*
X116707619Y-105089047D01*
X116707619Y-104898571D01*
X116660000Y-104803333D01*
X116612380Y-104755714D01*
X116517142Y-104708095D01*
X116469523Y-104708095D01*
X116374285Y-104755714D01*
X116326666Y-104803333D01*
X116279047Y-104898571D01*
X116279047Y-105089047D01*
X116231428Y-105184285D01*
X116183809Y-105231904D01*
X116088571Y-105279523D01*
X115898095Y-105279523D01*
X115802857Y-105231904D01*
X115755238Y-105184285D01*
X115707619Y-105089047D01*
X115707619Y-104898571D01*
X115755238Y-104803333D01*
X115802857Y-104755714D01*
X115898095Y-104708095D01*
X116088571Y-104708095D01*
X116183809Y-104755714D01*
X116231428Y-104803333D01*
X116279047Y-104898571D01*
X113157619Y-111034285D02*
X114157619Y-111034285D01*
X114157619Y-110796190D01*
X114110000Y-110653333D01*
X114014761Y-110558095D01*
X113919523Y-110510476D01*
X113729047Y-110462857D01*
X113586190Y-110462857D01*
X113395714Y-110510476D01*
X113300476Y-110558095D01*
X113205238Y-110653333D01*
X113157619Y-110796190D01*
X113157619Y-111034285D01*
X113157619Y-109510476D02*
X113157619Y-110081904D01*
X113157619Y-109796190D02*
X114157619Y-109796190D01*
X114014761Y-109891428D01*
X113919523Y-109986666D01*
X113871904Y-110081904D01*
X113157619Y-109034285D02*
X113157619Y-108843809D01*
X113205238Y-108748571D01*
X113252857Y-108700952D01*
X113395714Y-108605714D01*
X113586190Y-108558095D01*
X113967142Y-108558095D01*
X114062380Y-108605714D01*
X114110000Y-108653333D01*
X114157619Y-108748571D01*
X114157619Y-108939047D01*
X114110000Y-109034285D01*
X114062380Y-109081904D01*
X113967142Y-109129523D01*
X113729047Y-109129523D01*
X113633809Y-109081904D01*
X113586190Y-109034285D01*
X113538571Y-108939047D01*
X113538571Y-108748571D01*
X113586190Y-108653333D01*
X113633809Y-108605714D01*
X113729047Y-108558095D01*
X113147619Y-107154285D02*
X114147619Y-107154285D01*
X114147619Y-106916190D01*
X114100000Y-106773333D01*
X114004761Y-106678095D01*
X113909523Y-106630476D01*
X113719047Y-106582857D01*
X113576190Y-106582857D01*
X113385714Y-106630476D01*
X113290476Y-106678095D01*
X113195238Y-106773333D01*
X113147619Y-106916190D01*
X113147619Y-107154285D01*
X114052380Y-106201904D02*
X114100000Y-106154285D01*
X114147619Y-106059047D01*
X114147619Y-105820952D01*
X114100000Y-105725714D01*
X114052380Y-105678095D01*
X113957142Y-105630476D01*
X113861904Y-105630476D01*
X113719047Y-105678095D01*
X113147619Y-106249523D01*
X113147619Y-105630476D01*
X114147619Y-105011428D02*
X114147619Y-104916190D01*
X114100000Y-104820952D01*
X114052380Y-104773333D01*
X113957142Y-104725714D01*
X113766666Y-104678095D01*
X113528571Y-104678095D01*
X113338095Y-104725714D01*
X113242857Y-104773333D01*
X113195238Y-104820952D01*
X113147619Y-104916190D01*
X113147619Y-105011428D01*
X113195238Y-105106666D01*
X113242857Y-105154285D01*
X113338095Y-105201904D01*
X113528571Y-105249523D01*
X113766666Y-105249523D01*
X113957142Y-105201904D01*
X114052380Y-105154285D01*
X114100000Y-105106666D01*
X114147619Y-105011428D01*
X110647619Y-111094285D02*
X111647619Y-111094285D01*
X111647619Y-110856190D01*
X111600000Y-110713333D01*
X111504761Y-110618095D01*
X111409523Y-110570476D01*
X111219047Y-110522857D01*
X111076190Y-110522857D01*
X110885714Y-110570476D01*
X110790476Y-110618095D01*
X110695238Y-110713333D01*
X110647619Y-110856190D01*
X110647619Y-111094285D01*
X111552380Y-110141904D02*
X111600000Y-110094285D01*
X111647619Y-109999047D01*
X111647619Y-109760952D01*
X111600000Y-109665714D01*
X111552380Y-109618095D01*
X111457142Y-109570476D01*
X111361904Y-109570476D01*
X111219047Y-109618095D01*
X110647619Y-110189523D01*
X110647619Y-109570476D01*
X110647619Y-108618095D02*
X110647619Y-109189523D01*
X110647619Y-108903809D02*
X111647619Y-108903809D01*
X111504761Y-108999047D01*
X111409523Y-109094285D01*
X111361904Y-109189523D01*
X110617619Y-107184285D02*
X111617619Y-107184285D01*
X111617619Y-106946190D01*
X111570000Y-106803333D01*
X111474761Y-106708095D01*
X111379523Y-106660476D01*
X111189047Y-106612857D01*
X111046190Y-106612857D01*
X110855714Y-106660476D01*
X110760476Y-106708095D01*
X110665238Y-106803333D01*
X110617619Y-106946190D01*
X110617619Y-107184285D01*
X111522380Y-106231904D02*
X111570000Y-106184285D01*
X111617619Y-106089047D01*
X111617619Y-105850952D01*
X111570000Y-105755714D01*
X111522380Y-105708095D01*
X111427142Y-105660476D01*
X111331904Y-105660476D01*
X111189047Y-105708095D01*
X110617619Y-106279523D01*
X110617619Y-105660476D01*
X111522380Y-105279523D02*
X111570000Y-105231904D01*
X111617619Y-105136666D01*
X111617619Y-104898571D01*
X111570000Y-104803333D01*
X111522380Y-104755714D01*
X111427142Y-104708095D01*
X111331904Y-104708095D01*
X111189047Y-104755714D01*
X110617619Y-105327142D01*
X110617619Y-104708095D01*
X107987619Y-111134285D02*
X108987619Y-111134285D01*
X108987619Y-110896190D01*
X108940000Y-110753333D01*
X108844761Y-110658095D01*
X108749523Y-110610476D01*
X108559047Y-110562857D01*
X108416190Y-110562857D01*
X108225714Y-110610476D01*
X108130476Y-110658095D01*
X108035238Y-110753333D01*
X107987619Y-110896190D01*
X107987619Y-111134285D01*
X108892380Y-110181904D02*
X108940000Y-110134285D01*
X108987619Y-110039047D01*
X108987619Y-109800952D01*
X108940000Y-109705714D01*
X108892380Y-109658095D01*
X108797142Y-109610476D01*
X108701904Y-109610476D01*
X108559047Y-109658095D01*
X107987619Y-110229523D01*
X107987619Y-109610476D01*
X108987619Y-109277142D02*
X108987619Y-108658095D01*
X108606666Y-108991428D01*
X108606666Y-108848571D01*
X108559047Y-108753333D01*
X108511428Y-108705714D01*
X108416190Y-108658095D01*
X108178095Y-108658095D01*
X108082857Y-108705714D01*
X108035238Y-108753333D01*
X107987619Y-108848571D01*
X107987619Y-109134285D01*
X108035238Y-109229523D01*
X108082857Y-109277142D01*
X108441428Y-106813333D02*
X108393809Y-106670476D01*
X108346190Y-106622857D01*
X108250952Y-106575238D01*
X108108095Y-106575238D01*
X108012857Y-106622857D01*
X107965238Y-106670476D01*
X107917619Y-106765714D01*
X107917619Y-107146666D01*
X108917619Y-107146666D01*
X108917619Y-106813333D01*
X108870000Y-106718095D01*
X108822380Y-106670476D01*
X108727142Y-106622857D01*
X108631904Y-106622857D01*
X108536666Y-106670476D01*
X108489047Y-106718095D01*
X108441428Y-106813333D01*
X108441428Y-107146666D01*
X107917619Y-105670476D02*
X107917619Y-106146666D01*
X108917619Y-106146666D01*
D10*
X104100000Y-107900000D02*
X145830000Y-107950000D01*
D11*
X106008571Y-111165714D02*
X106008571Y-110403809D01*
X105627619Y-110784761D02*
X106389523Y-110784761D01*
X106627619Y-109451428D02*
X106627619Y-109927619D01*
X106151428Y-109975238D01*
X106199047Y-109927619D01*
X106246666Y-109832380D01*
X106246666Y-109594285D01*
X106199047Y-109499047D01*
X106151428Y-109451428D01*
X106056190Y-109403809D01*
X105818095Y-109403809D01*
X105722857Y-109451428D01*
X105675238Y-109499047D01*
X105627619Y-109594285D01*
X105627619Y-109832380D01*
X105675238Y-109927619D01*
X105722857Y-109975238D01*
X106627619Y-109118095D02*
X105627619Y-108784761D01*
X106627619Y-108451428D01*
X106500000Y-106641904D02*
X106547619Y-106737142D01*
X106547619Y-106880000D01*
X106500000Y-107022857D01*
X106404761Y-107118095D01*
X106309523Y-107165714D01*
X106119047Y-107213333D01*
X105976190Y-107213333D01*
X105785714Y-107165714D01*
X105690476Y-107118095D01*
X105595238Y-107022857D01*
X105547619Y-106880000D01*
X105547619Y-106784761D01*
X105595238Y-106641904D01*
X105642857Y-106594285D01*
X105976190Y-106594285D01*
X105976190Y-106784761D01*
X105547619Y-106165714D02*
X106547619Y-106165714D01*
X105547619Y-105594285D01*
X106547619Y-105594285D01*
X105547619Y-105118095D02*
X106547619Y-105118095D01*
X106547619Y-104880000D01*
X106500000Y-104737142D01*
X106404761Y-104641904D01*
X106309523Y-104594285D01*
X106119047Y-104546666D01*
X105976190Y-104546666D01*
X105785714Y-104594285D01*
X105690476Y-104641904D01*
X105595238Y-104737142D01*
X105547619Y-104880000D01*
X105547619Y-105118095D01*
D12*
X104846267Y-39890000D02*
X104503733Y-39890000D01*
X104846267Y-40910000D02*
X104503733Y-40910000D01*
X97296267Y-113870000D02*
X96953733Y-113870000D01*
X97296267Y-112850000D02*
X96953733Y-112850000D01*
X140893733Y-41340000D02*
X141236267Y-41340000D01*
X140893733Y-42360000D02*
X141236267Y-42360000D01*
X101090000Y-107503733D02*
X101090000Y-107846267D01*
X102110000Y-107503733D02*
X102110000Y-107846267D01*
X140923733Y-45740000D02*
X141266267Y-45740000D01*
X140923733Y-44720000D02*
X141266267Y-44720000D01*
X107287500Y-28665000D02*
X111347500Y-28665000D01*
X111347500Y-28665000D02*
X111347500Y-30935000D01*
X111347500Y-30935000D02*
X107287500Y-30935000D01*
X148900000Y-57960000D02*
X148900000Y-58730000D01*
X148900000Y-58730000D02*
X148900000Y-58830000D01*
X148900000Y-58830000D02*
X148900000Y-58860000D01*
X148900000Y-58860000D02*
X148520000Y-58860000D01*
X148520000Y-58860000D02*
X147680000Y-58860000D01*
X147760000Y-58860000D02*
X147520000Y-58860000D01*
X147520000Y-58860000D02*
X147090000Y-58860000D01*
X147090000Y-58860000D02*
X145980000Y-58860000D01*
X145980000Y-58860000D02*
X145900000Y-58860000D01*
X145900000Y-58860000D02*
X145690000Y-58860000D01*
X145690000Y-58860000D02*
X145690000Y-57670000D01*
X145690000Y-57670000D02*
X145690000Y-57660000D01*
X145690000Y-57660000D02*
X145690000Y-57640000D01*
X148880000Y-43170000D02*
X148880000Y-42350000D01*
X148880000Y-42350000D02*
X148880000Y-42300000D01*
X148880000Y-42300000D02*
X148440000Y-42300000D01*
X148440000Y-42300000D02*
X146230000Y-42300000D01*
X146230000Y-42300000D02*
X145700000Y-42300000D01*
X145700000Y-42300000D02*
X145700000Y-43510000D01*
X149000000Y-56190000D02*
X149540000Y-56190000D01*
X148970000Y-52940000D02*
X149530000Y-52940000D01*
X148970000Y-49700000D02*
X149550000Y-49700000D01*
X148930000Y-46400000D02*
X149540000Y-46400000D01*
X149540000Y-46400000D02*
X149510000Y-46400000D01*
X148870000Y-43170000D02*
X149530000Y-43170000D01*
X149396301Y-58160000D02*
G75*
G03X149396301Y-58160000I-106301J0D01*
G01*
X145390000Y-54550000D02*
X144940000Y-54550000D01*
X145390000Y-51300000D02*
X144940000Y-51300000D01*
X145390000Y-44800000D02*
X144930000Y-44800000D01*
X145390000Y-48050000D02*
X144930000Y-48050000D01*
X108846267Y-39890000D02*
X108503733Y-39890000D01*
X108846267Y-40910000D02*
X108503733Y-40910000D01*
X111290000Y-36496267D02*
X111290000Y-36153733D01*
X112310000Y-36496267D02*
X112310000Y-36153733D01*
X141266267Y-44140000D02*
X140923733Y-44140000D01*
X141266267Y-43120000D02*
X140923733Y-43120000D01*
X146410000Y-120433733D02*
X146410000Y-120776267D01*
X147430000Y-120433733D02*
X147430000Y-120776267D01*
X109303733Y-32710000D02*
X109646267Y-32710000D01*
X109303733Y-31690000D02*
X109646267Y-31690000D01*
X155610000Y-36860000D02*
X158510000Y-36860000D01*
X158510000Y-36860000D02*
X158510000Y-33960000D01*
X158510000Y-33960000D02*
X155610000Y-33960000D01*
X155610000Y-33960000D02*
X155610000Y-36860000D01*
X148550000Y-61390000D02*
X148550000Y-64290000D01*
X151450000Y-61390000D02*
X148550000Y-61390000D01*
X151450000Y-64290000D02*
X151450000Y-61390000D01*
X148550000Y-64290000D02*
X151450000Y-64290000D01*
X114540000Y-30130000D02*
X117440000Y-30130000D01*
X117440000Y-30130000D02*
X117440000Y-27230000D01*
X117440000Y-27230000D02*
X114540000Y-27230000D01*
X114540000Y-27230000D02*
X114540000Y-30130000D01*
X119100000Y-27250000D02*
X119100000Y-30150000D01*
X122000000Y-27250000D02*
X119100000Y-27250000D01*
X122000000Y-30150000D02*
X122000000Y-27250000D01*
X119100000Y-30150000D02*
X122000000Y-30150000D01*
X99640000Y-27210000D02*
X99640000Y-30110000D01*
X102540000Y-27210000D02*
X99640000Y-27210000D01*
X102540000Y-30110000D02*
X102540000Y-27210000D01*
X99640000Y-30110000D02*
X102540000Y-30110000D01*
X124830000Y-27220000D02*
X124830000Y-30120000D01*
X127730000Y-27220000D02*
X124830000Y-27220000D01*
X127730000Y-30120000D02*
X127730000Y-27220000D01*
X124830000Y-30120000D02*
X127730000Y-30120000D01*
X130610000Y-30140000D02*
X133510000Y-30140000D01*
X133510000Y-30140000D02*
X133510000Y-27240000D01*
X133510000Y-27240000D02*
X130610000Y-27240000D01*
X130610000Y-27240000D02*
X130610000Y-30140000D01*
X110160000Y-34750000D02*
X110160000Y-36550000D01*
X106940000Y-36550000D02*
X106940000Y-33600000D01*
X93690000Y-103740000D02*
X94950000Y-103740000D01*
X100510000Y-103740000D02*
X99250000Y-103740000D01*
X93690000Y-107500000D02*
X93690000Y-103740000D01*
X100510000Y-109750000D02*
X100510000Y-103740000D01*
X145380000Y-119800000D02*
X145380000Y-114600000D01*
X104620000Y-119800000D02*
X104620000Y-114600000D01*
X144810000Y-121240000D02*
X144810000Y-119800000D01*
X145380000Y-119800000D02*
X144810000Y-119800000D01*
X145380000Y-114600000D02*
X144810000Y-114600000D01*
X105190000Y-119800000D02*
X104620000Y-119800000D01*
X105190000Y-114600000D02*
X104620000Y-114600000D01*
X143290000Y-119800000D02*
X142270000Y-119800000D01*
X143290000Y-114600000D02*
X142270000Y-114600000D01*
X140750000Y-119800000D02*
X139730000Y-119800000D01*
X140750000Y-114600000D02*
X139730000Y-114600000D01*
X138210000Y-119800000D02*
X137190000Y-119800000D01*
X138210000Y-114600000D02*
X137190000Y-114600000D01*
X135670000Y-119800000D02*
X134650000Y-119800000D01*
X135670000Y-114600000D02*
X134650000Y-114600000D01*
X133130000Y-119800000D02*
X132110000Y-119800000D01*
X133130000Y-114600000D02*
X132110000Y-114600000D01*
X130590000Y-119800000D02*
X129570000Y-119800000D01*
X130590000Y-114600000D02*
X129570000Y-114600000D01*
X128050000Y-119800000D02*
X127030000Y-119800000D01*
X128050000Y-114600000D02*
X127030000Y-114600000D01*
X125510000Y-119800000D02*
X124490000Y-119800000D01*
X125510000Y-114600000D02*
X124490000Y-114600000D01*
X122970000Y-119800000D02*
X121950000Y-119800000D01*
X122970000Y-114600000D02*
X121950000Y-114600000D01*
X120430000Y-119800000D02*
X119410000Y-119800000D01*
X120430000Y-114600000D02*
X119410000Y-114600000D01*
X117890000Y-119800000D02*
X116870000Y-119800000D01*
X117890000Y-114600000D02*
X116870000Y-114600000D01*
X115350000Y-119800000D02*
X114330000Y-119800000D01*
X115350000Y-114600000D02*
X114330000Y-114600000D01*
X112810000Y-119800000D02*
X111790000Y-119800000D01*
X112810000Y-114600000D02*
X111790000Y-114600000D01*
X110270000Y-119800000D02*
X109250000Y-119800000D01*
X110270000Y-114600000D02*
X109250000Y-114600000D01*
X107730000Y-119800000D02*
X106710000Y-119800000D01*
X107730000Y-114600000D02*
X106710000Y-114600000D01*
X140898733Y-40350000D02*
X141241267Y-40350000D01*
X140898733Y-39330000D02*
X141241267Y-39330000D01*
X106160000Y-36202064D02*
X106160000Y-34997936D01*
X103440000Y-36202064D02*
X103440000Y-34997936D01*
D11*
X104841666Y-39327142D02*
X104889285Y-39374761D01*
X105032142Y-39422380D01*
X105127380Y-39422380D01*
X105270238Y-39374761D01*
X105365476Y-39279523D01*
X105413095Y-39184285D01*
X105460714Y-38993809D01*
X105460714Y-38850952D01*
X105413095Y-38660476D01*
X105365476Y-38565238D01*
X105270238Y-38470000D01*
X105127380Y-38422380D01*
X105032142Y-38422380D01*
X104889285Y-38470000D01*
X104841666Y-38517619D01*
X103889285Y-39422380D02*
X104460714Y-39422380D01*
X104175000Y-39422380D02*
X104175000Y-38422380D01*
X104270238Y-38565238D01*
X104365476Y-38660476D01*
X104460714Y-38708095D01*
X99986666Y-113717142D02*
X100034285Y-113764761D01*
X100177142Y-113812380D01*
X100272380Y-113812380D01*
X100415238Y-113764761D01*
X100510476Y-113669523D01*
X100558095Y-113574285D01*
X100605714Y-113383809D01*
X100605714Y-113240952D01*
X100558095Y-113050476D01*
X100510476Y-112955238D01*
X100415238Y-112860000D01*
X100272380Y-112812380D01*
X100177142Y-112812380D01*
X100034285Y-112860000D01*
X99986666Y-112907619D01*
X99605714Y-112907619D02*
X99558095Y-112860000D01*
X99462857Y-112812380D01*
X99224761Y-112812380D01*
X99129523Y-112860000D01*
X99081904Y-112907619D01*
X99034285Y-113002857D01*
X99034285Y-113098095D01*
X99081904Y-113240952D01*
X99653333Y-113812380D01*
X99034285Y-113812380D01*
X143926666Y-42227142D02*
X143974285Y-42274761D01*
X144117142Y-42322380D01*
X144212380Y-42322380D01*
X144355238Y-42274761D01*
X144450476Y-42179523D01*
X144498095Y-42084285D01*
X144545714Y-41893809D01*
X144545714Y-41750952D01*
X144498095Y-41560476D01*
X144450476Y-41465238D01*
X144355238Y-41370000D01*
X144212380Y-41322380D01*
X144117142Y-41322380D01*
X143974285Y-41370000D01*
X143926666Y-41417619D01*
X143593333Y-41322380D02*
X142974285Y-41322380D01*
X143307619Y-41703333D01*
X143164761Y-41703333D01*
X143069523Y-41750952D01*
X143021904Y-41798571D01*
X142974285Y-41893809D01*
X142974285Y-42131904D01*
X143021904Y-42227142D01*
X143069523Y-42274761D01*
X143164761Y-42322380D01*
X143450476Y-42322380D01*
X143545714Y-42274761D01*
X143593333Y-42227142D01*
X103526666Y-107327142D02*
X103574285Y-107374761D01*
X103717142Y-107422380D01*
X103812380Y-107422380D01*
X103955238Y-107374761D01*
X104050476Y-107279523D01*
X104098095Y-107184285D01*
X104145714Y-106993809D01*
X104145714Y-106850952D01*
X104098095Y-106660476D01*
X104050476Y-106565238D01*
X103955238Y-106470000D01*
X103812380Y-106422380D01*
X103717142Y-106422380D01*
X103574285Y-106470000D01*
X103526666Y-106517619D01*
X102669523Y-106755714D02*
X102669523Y-107422380D01*
X102907619Y-106374761D02*
X103145714Y-107089047D01*
X102526666Y-107089047D01*
X143886666Y-45627142D02*
X143934285Y-45674761D01*
X144077142Y-45722380D01*
X144172380Y-45722380D01*
X144315238Y-45674761D01*
X144410476Y-45579523D01*
X144458095Y-45484285D01*
X144505714Y-45293809D01*
X144505714Y-45150952D01*
X144458095Y-44960476D01*
X144410476Y-44865238D01*
X144315238Y-44770000D01*
X144172380Y-44722380D01*
X144077142Y-44722380D01*
X143934285Y-44770000D01*
X143886666Y-44817619D01*
X142981904Y-44722380D02*
X143458095Y-44722380D01*
X143505714Y-45198571D01*
X143458095Y-45150952D01*
X143362857Y-45103333D01*
X143124761Y-45103333D01*
X143029523Y-45150952D01*
X142981904Y-45198571D01*
X142934285Y-45293809D01*
X142934285Y-45531904D01*
X142981904Y-45627142D01*
X143029523Y-45674761D01*
X143124761Y-45722380D01*
X143362857Y-45722380D01*
X143458095Y-45674761D01*
X143505714Y-45627142D01*
X113128095Y-30242380D02*
X113128095Y-29242380D01*
X112890000Y-29242380D01*
X112747142Y-29290000D01*
X112651904Y-29385238D01*
X112604285Y-29480476D01*
X112556666Y-29670952D01*
X112556666Y-29813809D01*
X112604285Y-30004285D01*
X112651904Y-30099523D01*
X112747142Y-30194761D01*
X112890000Y-30242380D01*
X113128095Y-30242380D01*
X111604285Y-30242380D02*
X112175714Y-30242380D01*
X111890000Y-30242380D02*
X111890000Y-29242380D01*
X111985238Y-29385238D01*
X112080476Y-29480476D01*
X112175714Y-29528095D01*
X150293333Y-59982380D02*
X150293333Y-60696666D01*
X150340952Y-60839523D01*
X150436190Y-60934761D01*
X150579047Y-60982380D01*
X150674285Y-60982380D01*
X149293333Y-60982380D02*
X149864761Y-60982380D01*
X149579047Y-60982380D02*
X149579047Y-59982380D01*
X149674285Y-60125238D01*
X149769523Y-60220476D01*
X149864761Y-60268095D01*
X108841666Y-39422380D02*
X109175000Y-38946190D01*
X109413095Y-39422380D02*
X109413095Y-38422380D01*
X109032142Y-38422380D01*
X108936904Y-38470000D01*
X108889285Y-38517619D01*
X108841666Y-38612857D01*
X108841666Y-38755714D01*
X108889285Y-38850952D01*
X108936904Y-38898571D01*
X109032142Y-38946190D01*
X109413095Y-38946190D01*
X107889285Y-39422380D02*
X108460714Y-39422380D01*
X108175000Y-39422380D02*
X108175000Y-38422380D01*
X108270238Y-38565238D01*
X108365476Y-38660476D01*
X108460714Y-38708095D01*
X113726666Y-36562380D02*
X114060000Y-36086190D01*
X114298095Y-36562380D02*
X114298095Y-35562380D01*
X113917142Y-35562380D01*
X113821904Y-35610000D01*
X113774285Y-35657619D01*
X113726666Y-35752857D01*
X113726666Y-35895714D01*
X113774285Y-35990952D01*
X113821904Y-36038571D01*
X113917142Y-36086190D01*
X114298095Y-36086190D01*
X113345714Y-35657619D02*
X113298095Y-35610000D01*
X113202857Y-35562380D01*
X112964761Y-35562380D01*
X112869523Y-35610000D01*
X112821904Y-35657619D01*
X112774285Y-35752857D01*
X112774285Y-35848095D01*
X112821904Y-35990952D01*
X113393333Y-36562380D01*
X112774285Y-36562380D01*
X143926666Y-44202380D02*
X144260000Y-43726190D01*
X144498095Y-44202380D02*
X144498095Y-43202380D01*
X144117142Y-43202380D01*
X144021904Y-43250000D01*
X143974285Y-43297619D01*
X143926666Y-43392857D01*
X143926666Y-43535714D01*
X143974285Y-43630952D01*
X144021904Y-43678571D01*
X144117142Y-43726190D01*
X144498095Y-43726190D01*
X143593333Y-43202380D02*
X142974285Y-43202380D01*
X143307619Y-43583333D01*
X143164761Y-43583333D01*
X143069523Y-43630952D01*
X143021904Y-43678571D01*
X142974285Y-43773809D01*
X142974285Y-44011904D01*
X143021904Y-44107142D01*
X143069523Y-44154761D01*
X143164761Y-44202380D01*
X143450476Y-44202380D01*
X143545714Y-44154761D01*
X143593333Y-44107142D01*
X148836666Y-120252380D02*
X149170000Y-119776190D01*
X149408095Y-120252380D02*
X149408095Y-119252380D01*
X149027142Y-119252380D01*
X148931904Y-119300000D01*
X148884285Y-119347619D01*
X148836666Y-119442857D01*
X148836666Y-119585714D01*
X148884285Y-119680952D01*
X148931904Y-119728571D01*
X149027142Y-119776190D01*
X149408095Y-119776190D01*
X147979523Y-119585714D02*
X147979523Y-120252380D01*
X148217619Y-119204761D02*
X148455714Y-119919047D01*
X147836666Y-119919047D01*
X112296666Y-32782380D02*
X112630000Y-32306190D01*
X112868095Y-32782380D02*
X112868095Y-31782380D01*
X112487142Y-31782380D01*
X112391904Y-31830000D01*
X112344285Y-31877619D01*
X112296666Y-31972857D01*
X112296666Y-32115714D01*
X112344285Y-32210952D01*
X112391904Y-32258571D01*
X112487142Y-32306190D01*
X112868095Y-32306190D01*
X111391904Y-31782380D02*
X111868095Y-31782380D01*
X111915714Y-32258571D01*
X111868095Y-32210952D01*
X111772857Y-32163333D01*
X111534761Y-32163333D01*
X111439523Y-32210952D01*
X111391904Y-32258571D01*
X111344285Y-32353809D01*
X111344285Y-32591904D01*
X111391904Y-32687142D01*
X111439523Y-32734761D01*
X111534761Y-32782380D01*
X111772857Y-32782380D01*
X111868095Y-32734761D01*
X111915714Y-32687142D01*
X158321904Y-37010380D02*
X157750476Y-37010380D01*
X158036190Y-38010380D02*
X158036190Y-37010380D01*
X157417142Y-38010380D02*
X157417142Y-37010380D01*
X157036190Y-37010380D01*
X156940952Y-37058000D01*
X156893333Y-37105619D01*
X156845714Y-37200857D01*
X156845714Y-37343714D01*
X156893333Y-37438952D01*
X156940952Y-37486571D01*
X157036190Y-37534190D01*
X157417142Y-37534190D01*
X155893333Y-38010380D02*
X156464761Y-38010380D01*
X156179047Y-38010380D02*
X156179047Y-37010380D01*
X156274285Y-37153238D01*
X156369523Y-37248476D01*
X156464761Y-37296095D01*
X151261904Y-64440380D02*
X150690476Y-64440380D01*
X150976190Y-65440380D02*
X150976190Y-64440380D01*
X150357142Y-65440380D02*
X150357142Y-64440380D01*
X149976190Y-64440380D01*
X149880952Y-64488000D01*
X149833333Y-64535619D01*
X149785714Y-64630857D01*
X149785714Y-64773714D01*
X149833333Y-64868952D01*
X149880952Y-64916571D01*
X149976190Y-64964190D01*
X150357142Y-64964190D01*
X149404761Y-64535619D02*
X149357142Y-64488000D01*
X149261904Y-64440380D01*
X149023809Y-64440380D01*
X148928571Y-64488000D01*
X148880952Y-64535619D01*
X148833333Y-64630857D01*
X148833333Y-64726095D01*
X148880952Y-64868952D01*
X149452380Y-65440380D01*
X148833333Y-65440380D01*
X117251904Y-30280380D02*
X116680476Y-30280380D01*
X116966190Y-31280380D02*
X116966190Y-30280380D01*
X116347142Y-31280380D02*
X116347142Y-30280380D01*
X115966190Y-30280380D01*
X115870952Y-30328000D01*
X115823333Y-30375619D01*
X115775714Y-30470857D01*
X115775714Y-30613714D01*
X115823333Y-30708952D01*
X115870952Y-30756571D01*
X115966190Y-30804190D01*
X116347142Y-30804190D01*
X115442380Y-30280380D02*
X114823333Y-30280380D01*
X115156666Y-30661333D01*
X115013809Y-30661333D01*
X114918571Y-30708952D01*
X114870952Y-30756571D01*
X114823333Y-30851809D01*
X114823333Y-31089904D01*
X114870952Y-31185142D01*
X114918571Y-31232761D01*
X115013809Y-31280380D01*
X115299523Y-31280380D01*
X115394761Y-31232761D01*
X115442380Y-31185142D01*
X121811904Y-30300380D02*
X121240476Y-30300380D01*
X121526190Y-31300380D02*
X121526190Y-30300380D01*
X120907142Y-31300380D02*
X120907142Y-30300380D01*
X120526190Y-30300380D01*
X120430952Y-30348000D01*
X120383333Y-30395619D01*
X120335714Y-30490857D01*
X120335714Y-30633714D01*
X120383333Y-30728952D01*
X120430952Y-30776571D01*
X120526190Y-30824190D01*
X120907142Y-30824190D01*
X119478571Y-30633714D02*
X119478571Y-31300380D01*
X119716666Y-30252761D02*
X119954761Y-30967047D01*
X119335714Y-30967047D01*
X102351904Y-30260380D02*
X101780476Y-30260380D01*
X102066190Y-31260380D02*
X102066190Y-30260380D01*
X101447142Y-31260380D02*
X101447142Y-30260380D01*
X101066190Y-30260380D01*
X100970952Y-30308000D01*
X100923333Y-30355619D01*
X100875714Y-30450857D01*
X100875714Y-30593714D01*
X100923333Y-30688952D01*
X100970952Y-30736571D01*
X101066190Y-30784190D01*
X101447142Y-30784190D01*
X99970952Y-30260380D02*
X100447142Y-30260380D01*
X100494761Y-30736571D01*
X100447142Y-30688952D01*
X100351904Y-30641333D01*
X100113809Y-30641333D01*
X100018571Y-30688952D01*
X99970952Y-30736571D01*
X99923333Y-30831809D01*
X99923333Y-31069904D01*
X99970952Y-31165142D01*
X100018571Y-31212761D01*
X100113809Y-31260380D01*
X100351904Y-31260380D01*
X100447142Y-31212761D01*
X100494761Y-31165142D01*
X127541904Y-30270380D02*
X126970476Y-30270380D01*
X127256190Y-31270380D02*
X127256190Y-30270380D01*
X126637142Y-31270380D02*
X126637142Y-30270380D01*
X126256190Y-30270380D01*
X126160952Y-30318000D01*
X126113333Y-30365619D01*
X126065714Y-30460857D01*
X126065714Y-30603714D01*
X126113333Y-30698952D01*
X126160952Y-30746571D01*
X126256190Y-30794190D01*
X126637142Y-30794190D01*
X125208571Y-30270380D02*
X125399047Y-30270380D01*
X125494285Y-30318000D01*
X125541904Y-30365619D01*
X125637142Y-30508476D01*
X125684761Y-30698952D01*
X125684761Y-31079904D01*
X125637142Y-31175142D01*
X125589523Y-31222761D01*
X125494285Y-31270380D01*
X125303809Y-31270380D01*
X125208571Y-31222761D01*
X125160952Y-31175142D01*
X125113333Y-31079904D01*
X125113333Y-30841809D01*
X125160952Y-30746571D01*
X125208571Y-30698952D01*
X125303809Y-30651333D01*
X125494285Y-30651333D01*
X125589523Y-30698952D01*
X125637142Y-30746571D01*
X125684761Y-30841809D01*
X133321904Y-30290380D02*
X132750476Y-30290380D01*
X133036190Y-31290380D02*
X133036190Y-30290380D01*
X132417142Y-31290380D02*
X132417142Y-30290380D01*
X132036190Y-30290380D01*
X131940952Y-30338000D01*
X131893333Y-30385619D01*
X131845714Y-30480857D01*
X131845714Y-30623714D01*
X131893333Y-30718952D01*
X131940952Y-30766571D01*
X132036190Y-30814190D01*
X132417142Y-30814190D01*
X131512380Y-30290380D02*
X130845714Y-30290380D01*
X131274285Y-31290380D01*
X112771904Y-33302380D02*
X112771904Y-34111904D01*
X112724285Y-34207142D01*
X112676666Y-34254761D01*
X112581428Y-34302380D01*
X112390952Y-34302380D01*
X112295714Y-34254761D01*
X112248095Y-34207142D01*
X112200476Y-34111904D01*
X112200476Y-33302380D01*
X111200476Y-34302380D02*
X111771904Y-34302380D01*
X111486190Y-34302380D02*
X111486190Y-33302380D01*
X111581428Y-33445238D01*
X111676666Y-33540476D01*
X111771904Y-33588095D01*
X102491904Y-101902380D02*
X102491904Y-102711904D01*
X102444285Y-102807142D01*
X102396666Y-102854761D01*
X102301428Y-102902380D01*
X102110952Y-102902380D01*
X102015714Y-102854761D01*
X101968095Y-102807142D01*
X101920476Y-102711904D01*
X101920476Y-101902380D01*
X101491904Y-101997619D02*
X101444285Y-101950000D01*
X101349047Y-101902380D01*
X101110952Y-101902380D01*
X101015714Y-101950000D01*
X100968095Y-101997619D01*
X100920476Y-102092857D01*
X100920476Y-102188095D01*
X100968095Y-102330952D01*
X101539523Y-102902380D01*
X100920476Y-102902380D01*
X147103333Y-113512380D02*
X147103333Y-114226666D01*
X147150952Y-114369523D01*
X147246190Y-114464761D01*
X147389047Y-114512380D01*
X147484285Y-114512380D01*
X146674761Y-113607619D02*
X146627142Y-113560000D01*
X146531904Y-113512380D01*
X146293809Y-113512380D01*
X146198571Y-113560000D01*
X146150952Y-113607619D01*
X146103333Y-113702857D01*
X146103333Y-113798095D01*
X146150952Y-113940952D01*
X146722380Y-114512380D01*
X146103333Y-114512380D01*
X143886666Y-40217142D02*
X143934285Y-40264761D01*
X144077142Y-40312380D01*
X144172380Y-40312380D01*
X144315238Y-40264761D01*
X144410476Y-40169523D01*
X144458095Y-40074285D01*
X144505714Y-39883809D01*
X144505714Y-39740952D01*
X144458095Y-39550476D01*
X144410476Y-39455238D01*
X144315238Y-39360000D01*
X144172380Y-39312380D01*
X144077142Y-39312380D01*
X143934285Y-39360000D01*
X143886666Y-39407619D01*
X143029523Y-39312380D02*
X143220000Y-39312380D01*
X143315238Y-39360000D01*
X143362857Y-39407619D01*
X143458095Y-39550476D01*
X143505714Y-39740952D01*
X143505714Y-40121904D01*
X143458095Y-40217142D01*
X143410476Y-40264761D01*
X143315238Y-40312380D01*
X143124761Y-40312380D01*
X143029523Y-40264761D01*
X142981904Y-40217142D01*
X142934285Y-40121904D01*
X142934285Y-39883809D01*
X142981904Y-39788571D01*
X143029523Y-39740952D01*
X143124761Y-39693333D01*
X143315238Y-39693333D01*
X143410476Y-39740952D01*
X143458095Y-39788571D01*
X143505714Y-39883809D01*
X104936666Y-33162380D02*
X105412857Y-33162380D01*
X105412857Y-32162380D01*
X104079523Y-33162380D02*
X104650952Y-33162380D01*
X104365238Y-33162380D02*
X104365238Y-32162380D01*
X104460476Y-32305238D01*
X104555714Y-32400476D01*
X104650952Y-32448095D01*
M02*
