G04 #@! TF.GenerationSoftware,KiCad,Pcbnew,(5.1.4)-1*
G04 #@! TF.CreationDate,2019-11-24T21:52:42+08:00*
G04 #@! TF.ProjectId,FH26W-45S-0.3SHW,46483236-572d-4343-9553-2d302e335348,rev?*
G04 #@! TF.SameCoordinates,Original*
G04 #@! TF.FileFunction,Soldermask,Bot*
G04 #@! TF.FilePolarity,Negative*
%FSLAX46Y46*%
G04 Gerber Fmt 4.6, Leading zero omitted, Abs format (unit mm)*
G04 Created by KiCad (PCBNEW (5.1.4)-1) date 2019-11-24 21:52:42*
%MOMM*%
%LPD*%
G04 APERTURE LIST*
%ADD10C,0.100000*%
G04 APERTURE END LIST*
D10*
G36*
X157217021Y-116906640D02*
G01*
X157726769Y-117117785D01*
X157726771Y-117117786D01*
X158185534Y-117424321D01*
X158575679Y-117814466D01*
X158765798Y-118099000D01*
X158882215Y-118273231D01*
X159093360Y-118782979D01*
X159201000Y-119324124D01*
X159201000Y-119875876D01*
X159093360Y-120417021D01*
X158891646Y-120904000D01*
X158882214Y-120926771D01*
X158575679Y-121385534D01*
X158185534Y-121775679D01*
X157726771Y-122082214D01*
X157726770Y-122082215D01*
X157726769Y-122082215D01*
X157217021Y-122293360D01*
X156675876Y-122401000D01*
X156124124Y-122401000D01*
X155582979Y-122293360D01*
X155073231Y-122082215D01*
X155073230Y-122082215D01*
X155073229Y-122082214D01*
X154614466Y-121775679D01*
X154224321Y-121385534D01*
X153917786Y-120926771D01*
X153908354Y-120904000D01*
X153706640Y-120417021D01*
X153599000Y-119875876D01*
X153599000Y-119324124D01*
X153706640Y-118782979D01*
X153917785Y-118273231D01*
X154034202Y-118099000D01*
X154224321Y-117814466D01*
X154614466Y-117424321D01*
X155073229Y-117117786D01*
X155073231Y-117117785D01*
X155582979Y-116906640D01*
X156124124Y-116799000D01*
X156675876Y-116799000D01*
X157217021Y-116906640D01*
X157217021Y-116906640D01*
G37*
G36*
X92817021Y-116906640D02*
G01*
X93326769Y-117117785D01*
X93326771Y-117117786D01*
X93785534Y-117424321D01*
X94175679Y-117814466D01*
X94365798Y-118099000D01*
X94482215Y-118273231D01*
X94693360Y-118782979D01*
X94801000Y-119324124D01*
X94801000Y-119875876D01*
X94693360Y-120417021D01*
X94491646Y-120904000D01*
X94482214Y-120926771D01*
X94175679Y-121385534D01*
X93785534Y-121775679D01*
X93326771Y-122082214D01*
X93326770Y-122082215D01*
X93326769Y-122082215D01*
X92817021Y-122293360D01*
X92275876Y-122401000D01*
X91724124Y-122401000D01*
X91182979Y-122293360D01*
X90673231Y-122082215D01*
X90673230Y-122082215D01*
X90673229Y-122082214D01*
X90214466Y-121775679D01*
X89824321Y-121385534D01*
X89517786Y-120926771D01*
X89508354Y-120904000D01*
X89306640Y-120417021D01*
X89199000Y-119875876D01*
X89199000Y-119324124D01*
X89306640Y-118782979D01*
X89517785Y-118273231D01*
X89634202Y-118099000D01*
X89824321Y-117814466D01*
X90214466Y-117424321D01*
X90673229Y-117117786D01*
X90673231Y-117117785D01*
X91182979Y-116906640D01*
X91724124Y-116799000D01*
X92275876Y-116799000D01*
X92817021Y-116906640D01*
X92817021Y-116906640D01*
G37*
G36*
X147284499Y-120908445D02*
G01*
X147321995Y-120919820D01*
X147356554Y-120938292D01*
X147386847Y-120963153D01*
X147411708Y-120993446D01*
X147430180Y-121028005D01*
X147441555Y-121065501D01*
X147446000Y-121110638D01*
X147446000Y-121849362D01*
X147441555Y-121894499D01*
X147430180Y-121931995D01*
X147411708Y-121966554D01*
X147386847Y-121996847D01*
X147356554Y-122021708D01*
X147321995Y-122040180D01*
X147284499Y-122051555D01*
X147239362Y-122056000D01*
X146600638Y-122056000D01*
X146555501Y-122051555D01*
X146518005Y-122040180D01*
X146483446Y-122021708D01*
X146453153Y-121996847D01*
X146428292Y-121966554D01*
X146409820Y-121931995D01*
X146398445Y-121894499D01*
X146394000Y-121849362D01*
X146394000Y-121110638D01*
X146398445Y-121065501D01*
X146409820Y-121028005D01*
X146428292Y-120993446D01*
X146453153Y-120963153D01*
X146483446Y-120938292D01*
X146518005Y-120919820D01*
X146555501Y-120908445D01*
X146600638Y-120904000D01*
X147239362Y-120904000D01*
X147284499Y-120908445D01*
X147284499Y-120908445D01*
G37*
G36*
X121741000Y-121351000D02*
G01*
X120639000Y-121351000D01*
X120639000Y-118099000D01*
X121741000Y-118099000D01*
X121741000Y-121351000D01*
X121741000Y-121351000D01*
G37*
G36*
X111581000Y-121351000D02*
G01*
X110479000Y-121351000D01*
X110479000Y-118099000D01*
X111581000Y-118099000D01*
X111581000Y-121351000D01*
X111581000Y-121351000D01*
G37*
G36*
X114121000Y-121351000D02*
G01*
X113019000Y-121351000D01*
X113019000Y-118099000D01*
X114121000Y-118099000D01*
X114121000Y-121351000D01*
X114121000Y-121351000D01*
G37*
G36*
X116661000Y-121351000D02*
G01*
X115559000Y-121351000D01*
X115559000Y-118099000D01*
X116661000Y-118099000D01*
X116661000Y-121351000D01*
X116661000Y-121351000D01*
G37*
G36*
X119201000Y-121351000D02*
G01*
X118099000Y-121351000D01*
X118099000Y-118099000D01*
X119201000Y-118099000D01*
X119201000Y-121351000D01*
X119201000Y-121351000D01*
G37*
G36*
X124281000Y-121351000D02*
G01*
X123179000Y-121351000D01*
X123179000Y-118099000D01*
X124281000Y-118099000D01*
X124281000Y-121351000D01*
X124281000Y-121351000D01*
G37*
G36*
X126821000Y-121351000D02*
G01*
X125719000Y-121351000D01*
X125719000Y-118099000D01*
X126821000Y-118099000D01*
X126821000Y-121351000D01*
X126821000Y-121351000D01*
G37*
G36*
X106501000Y-121351000D02*
G01*
X105399000Y-121351000D01*
X105399000Y-118099000D01*
X106501000Y-118099000D01*
X106501000Y-121351000D01*
X106501000Y-121351000D01*
G37*
G36*
X134441000Y-121351000D02*
G01*
X133339000Y-121351000D01*
X133339000Y-118099000D01*
X134441000Y-118099000D01*
X134441000Y-121351000D01*
X134441000Y-121351000D01*
G37*
G36*
X136981000Y-121351000D02*
G01*
X135879000Y-121351000D01*
X135879000Y-118099000D01*
X136981000Y-118099000D01*
X136981000Y-121351000D01*
X136981000Y-121351000D01*
G37*
G36*
X129361000Y-121351000D02*
G01*
X128259000Y-121351000D01*
X128259000Y-118099000D01*
X129361000Y-118099000D01*
X129361000Y-121351000D01*
X129361000Y-121351000D01*
G37*
G36*
X139521000Y-121351000D02*
G01*
X138419000Y-121351000D01*
X138419000Y-118099000D01*
X139521000Y-118099000D01*
X139521000Y-121351000D01*
X139521000Y-121351000D01*
G37*
G36*
X142061000Y-121351000D02*
G01*
X140959000Y-121351000D01*
X140959000Y-118099000D01*
X142061000Y-118099000D01*
X142061000Y-121351000D01*
X142061000Y-121351000D01*
G37*
G36*
X144601000Y-121351000D02*
G01*
X143499000Y-121351000D01*
X143499000Y-118099000D01*
X144601000Y-118099000D01*
X144601000Y-121351000D01*
X144601000Y-121351000D01*
G37*
G36*
X109041000Y-121351000D02*
G01*
X107939000Y-121351000D01*
X107939000Y-118099000D01*
X109041000Y-118099000D01*
X109041000Y-121351000D01*
X109041000Y-121351000D01*
G37*
G36*
X131901000Y-121351000D02*
G01*
X130799000Y-121351000D01*
X130799000Y-118099000D01*
X131901000Y-118099000D01*
X131901000Y-121351000D01*
X131901000Y-121351000D01*
G37*
G36*
X147284499Y-119158445D02*
G01*
X147321995Y-119169820D01*
X147356554Y-119188292D01*
X147386847Y-119213153D01*
X147411708Y-119243446D01*
X147430180Y-119278005D01*
X147441555Y-119315501D01*
X147446000Y-119360638D01*
X147446000Y-120099362D01*
X147441555Y-120144499D01*
X147430180Y-120181995D01*
X147411708Y-120216554D01*
X147386847Y-120246847D01*
X147356554Y-120271708D01*
X147321995Y-120290180D01*
X147284499Y-120301555D01*
X147239362Y-120306000D01*
X146600638Y-120306000D01*
X146555501Y-120301555D01*
X146518005Y-120290180D01*
X146483446Y-120271708D01*
X146453153Y-120246847D01*
X146428292Y-120216554D01*
X146409820Y-120181995D01*
X146398445Y-120144499D01*
X146394000Y-120099362D01*
X146394000Y-119360638D01*
X146398445Y-119315501D01*
X146409820Y-119278005D01*
X146428292Y-119243446D01*
X146453153Y-119213153D01*
X146483446Y-119188292D01*
X146518005Y-119169820D01*
X146555501Y-119158445D01*
X146600638Y-119154000D01*
X147239362Y-119154000D01*
X147284499Y-119158445D01*
X147284499Y-119158445D01*
G37*
G36*
X126821000Y-116301000D02*
G01*
X125719000Y-116301000D01*
X125719000Y-113049000D01*
X126821000Y-113049000D01*
X126821000Y-116301000D01*
X126821000Y-116301000D01*
G37*
G36*
X106501000Y-116301000D02*
G01*
X105399000Y-116301000D01*
X105399000Y-113049000D01*
X106501000Y-113049000D01*
X106501000Y-116301000D01*
X106501000Y-116301000D01*
G37*
G36*
X111581000Y-116301000D02*
G01*
X110479000Y-116301000D01*
X110479000Y-113049000D01*
X111581000Y-113049000D01*
X111581000Y-116301000D01*
X111581000Y-116301000D01*
G37*
G36*
X109041000Y-116301000D02*
G01*
X107939000Y-116301000D01*
X107939000Y-113049000D01*
X109041000Y-113049000D01*
X109041000Y-116301000D01*
X109041000Y-116301000D01*
G37*
G36*
X119201000Y-116301000D02*
G01*
X118099000Y-116301000D01*
X118099000Y-113049000D01*
X119201000Y-113049000D01*
X119201000Y-116301000D01*
X119201000Y-116301000D01*
G37*
G36*
X144601000Y-116301000D02*
G01*
X143499000Y-116301000D01*
X143499000Y-113049000D01*
X144601000Y-113049000D01*
X144601000Y-116301000D01*
X144601000Y-116301000D01*
G37*
G36*
X114121000Y-116301000D02*
G01*
X113019000Y-116301000D01*
X113019000Y-113049000D01*
X114121000Y-113049000D01*
X114121000Y-116301000D01*
X114121000Y-116301000D01*
G37*
G36*
X142061000Y-116301000D02*
G01*
X140959000Y-116301000D01*
X140959000Y-113049000D01*
X142061000Y-113049000D01*
X142061000Y-116301000D01*
X142061000Y-116301000D01*
G37*
G36*
X139521000Y-116301000D02*
G01*
X138419000Y-116301000D01*
X138419000Y-113049000D01*
X139521000Y-113049000D01*
X139521000Y-116301000D01*
X139521000Y-116301000D01*
G37*
G36*
X136981000Y-116301000D02*
G01*
X135879000Y-116301000D01*
X135879000Y-113049000D01*
X136981000Y-113049000D01*
X136981000Y-116301000D01*
X136981000Y-116301000D01*
G37*
G36*
X116661000Y-116301000D02*
G01*
X115559000Y-116301000D01*
X115559000Y-113049000D01*
X116661000Y-113049000D01*
X116661000Y-116301000D01*
X116661000Y-116301000D01*
G37*
G36*
X134441000Y-116301000D02*
G01*
X133339000Y-116301000D01*
X133339000Y-113049000D01*
X134441000Y-113049000D01*
X134441000Y-116301000D01*
X134441000Y-116301000D01*
G37*
G36*
X131901000Y-116301000D02*
G01*
X130799000Y-116301000D01*
X130799000Y-113049000D01*
X131901000Y-113049000D01*
X131901000Y-116301000D01*
X131901000Y-116301000D01*
G37*
G36*
X121741000Y-116301000D02*
G01*
X120639000Y-116301000D01*
X120639000Y-113049000D01*
X121741000Y-113049000D01*
X121741000Y-116301000D01*
X121741000Y-116301000D01*
G37*
G36*
X129361000Y-116301000D02*
G01*
X128259000Y-116301000D01*
X128259000Y-113049000D01*
X129361000Y-113049000D01*
X129361000Y-116301000D01*
X129361000Y-116301000D01*
G37*
G36*
X124281000Y-116301000D02*
G01*
X123179000Y-116301000D01*
X123179000Y-113049000D01*
X124281000Y-113049000D01*
X124281000Y-116301000D01*
X124281000Y-116301000D01*
G37*
G36*
X96664499Y-112838445D02*
G01*
X96701995Y-112849820D01*
X96736554Y-112868292D01*
X96766847Y-112893153D01*
X96791708Y-112923446D01*
X96810180Y-112958005D01*
X96821555Y-112995501D01*
X96826000Y-113040638D01*
X96826000Y-113679362D01*
X96821555Y-113724499D01*
X96810180Y-113761995D01*
X96791708Y-113796554D01*
X96766847Y-113826847D01*
X96736554Y-113851708D01*
X96701995Y-113870180D01*
X96664499Y-113881555D01*
X96619362Y-113886000D01*
X95880638Y-113886000D01*
X95835501Y-113881555D01*
X95798005Y-113870180D01*
X95763446Y-113851708D01*
X95733153Y-113826847D01*
X95708292Y-113796554D01*
X95689820Y-113761995D01*
X95678445Y-113724499D01*
X95674000Y-113679362D01*
X95674000Y-113040638D01*
X95678445Y-112995501D01*
X95689820Y-112958005D01*
X95708292Y-112923446D01*
X95733153Y-112893153D01*
X95763446Y-112868292D01*
X95798005Y-112849820D01*
X95835501Y-112838445D01*
X95880638Y-112834000D01*
X96619362Y-112834000D01*
X96664499Y-112838445D01*
X96664499Y-112838445D01*
G37*
G36*
X98414499Y-112838445D02*
G01*
X98451995Y-112849820D01*
X98486554Y-112868292D01*
X98516847Y-112893153D01*
X98541708Y-112923446D01*
X98560180Y-112958005D01*
X98571555Y-112995501D01*
X98576000Y-113040638D01*
X98576000Y-113679362D01*
X98571555Y-113724499D01*
X98560180Y-113761995D01*
X98541708Y-113796554D01*
X98516847Y-113826847D01*
X98486554Y-113851708D01*
X98451995Y-113870180D01*
X98414499Y-113881555D01*
X98369362Y-113886000D01*
X97630638Y-113886000D01*
X97585501Y-113881555D01*
X97548005Y-113870180D01*
X97513446Y-113851708D01*
X97483153Y-113826847D01*
X97458292Y-113796554D01*
X97439820Y-113761995D01*
X97428445Y-113724499D01*
X97424000Y-113679362D01*
X97424000Y-113040638D01*
X97428445Y-112995501D01*
X97439820Y-112958005D01*
X97458292Y-112923446D01*
X97483153Y-112893153D01*
X97513446Y-112868292D01*
X97548005Y-112849820D01*
X97585501Y-112838445D01*
X97630638Y-112834000D01*
X98369362Y-112834000D01*
X98414499Y-112838445D01*
X98414499Y-112838445D01*
G37*
G36*
X95601000Y-109851000D02*
G01*
X93999000Y-109851000D01*
X93999000Y-107749000D01*
X95601000Y-107749000D01*
X95601000Y-109851000D01*
X95601000Y-109851000D01*
G37*
G36*
X100201000Y-109851000D02*
G01*
X98599000Y-109851000D01*
X98599000Y-107749000D01*
X100201000Y-107749000D01*
X100201000Y-109851000D01*
X100201000Y-109851000D01*
G37*
G36*
X97901000Y-109851000D02*
G01*
X96299000Y-109851000D01*
X96299000Y-107749000D01*
X97901000Y-107749000D01*
X97901000Y-109851000D01*
X97901000Y-109851000D01*
G37*
G36*
X101964499Y-107978445D02*
G01*
X102001995Y-107989820D01*
X102036554Y-108008292D01*
X102066847Y-108033153D01*
X102091708Y-108063446D01*
X102110180Y-108098005D01*
X102121555Y-108135501D01*
X102126000Y-108180638D01*
X102126000Y-108919362D01*
X102121555Y-108964499D01*
X102110180Y-109001995D01*
X102091708Y-109036554D01*
X102066847Y-109066847D01*
X102036554Y-109091708D01*
X102001995Y-109110180D01*
X101964499Y-109121555D01*
X101919362Y-109126000D01*
X101280638Y-109126000D01*
X101235501Y-109121555D01*
X101198005Y-109110180D01*
X101163446Y-109091708D01*
X101133153Y-109066847D01*
X101108292Y-109036554D01*
X101089820Y-109001995D01*
X101078445Y-108964499D01*
X101074000Y-108919362D01*
X101074000Y-108180638D01*
X101078445Y-108135501D01*
X101089820Y-108098005D01*
X101108292Y-108063446D01*
X101133153Y-108033153D01*
X101163446Y-108008292D01*
X101198005Y-107989820D01*
X101235501Y-107978445D01*
X101280638Y-107974000D01*
X101919362Y-107974000D01*
X101964499Y-107978445D01*
X101964499Y-107978445D01*
G37*
G36*
X101964499Y-106228445D02*
G01*
X102001995Y-106239820D01*
X102036554Y-106258292D01*
X102066847Y-106283153D01*
X102091708Y-106313446D01*
X102110180Y-106348005D01*
X102121555Y-106385501D01*
X102126000Y-106430638D01*
X102126000Y-107169362D01*
X102121555Y-107214499D01*
X102110180Y-107251995D01*
X102091708Y-107286554D01*
X102066847Y-107316847D01*
X102036554Y-107341708D01*
X102001995Y-107360180D01*
X101964499Y-107371555D01*
X101919362Y-107376000D01*
X101280638Y-107376000D01*
X101235501Y-107371555D01*
X101198005Y-107360180D01*
X101163446Y-107341708D01*
X101133153Y-107316847D01*
X101108292Y-107286554D01*
X101089820Y-107251995D01*
X101078445Y-107214499D01*
X101074000Y-107169362D01*
X101074000Y-106430638D01*
X101078445Y-106385501D01*
X101089820Y-106348005D01*
X101108292Y-106313446D01*
X101133153Y-106283153D01*
X101163446Y-106258292D01*
X101198005Y-106239820D01*
X101235501Y-106228445D01*
X101280638Y-106224000D01*
X101919362Y-106224000D01*
X101964499Y-106228445D01*
X101964499Y-106228445D01*
G37*
G36*
X99051000Y-103551000D02*
G01*
X95149000Y-103551000D01*
X95149000Y-101449000D01*
X99051000Y-101449000D01*
X99051000Y-103551000D01*
X99051000Y-103551000D01*
G37*
G36*
X151301000Y-64141000D02*
G01*
X148699000Y-64141000D01*
X148699000Y-61539000D01*
X151301000Y-61539000D01*
X151301000Y-64141000D01*
X151301000Y-64141000D01*
G37*
G36*
X148801000Y-43079001D02*
G01*
X148803402Y-43103387D01*
X148810515Y-43126836D01*
X148822066Y-43148447D01*
X148837611Y-43167389D01*
X148856553Y-43182934D01*
X148878164Y-43194485D01*
X148901613Y-43201598D01*
X148925999Y-43204000D01*
X149061000Y-43204000D01*
X149061000Y-57936000D01*
X148925999Y-57936000D01*
X148901613Y-57938402D01*
X148878164Y-57945515D01*
X148856553Y-57957066D01*
X148837611Y-57972611D01*
X148822066Y-57991553D01*
X148810515Y-58013164D01*
X148803402Y-58036613D01*
X148801000Y-58060999D01*
X148801000Y-58826000D01*
X147699000Y-58826000D01*
X147699000Y-58174000D01*
X147984001Y-58174000D01*
X148008387Y-58171598D01*
X148031836Y-58164485D01*
X148053447Y-58152934D01*
X148072389Y-58137389D01*
X148087934Y-58118447D01*
X148099485Y-58096836D01*
X148106598Y-58073387D01*
X148109000Y-58049001D01*
X148109000Y-43090999D01*
X148106598Y-43066613D01*
X148099485Y-43043164D01*
X148087934Y-43021553D01*
X148072389Y-43002611D01*
X148053447Y-42987066D01*
X148031836Y-42975515D01*
X148008387Y-42968402D01*
X147984001Y-42966000D01*
X147699000Y-42966000D01*
X147699000Y-42314000D01*
X148801000Y-42314000D01*
X148801000Y-43079001D01*
X148801000Y-43079001D01*
G37*
G36*
X146101000Y-57611000D02*
G01*
X145299000Y-57611000D01*
X145299000Y-43529000D01*
X146101000Y-43529000D01*
X146101000Y-57611000D01*
X146101000Y-57611000D01*
G37*
G36*
X140634499Y-44708445D02*
G01*
X140671995Y-44719820D01*
X140706554Y-44738292D01*
X140736847Y-44763153D01*
X140761708Y-44793446D01*
X140780180Y-44828005D01*
X140791555Y-44865501D01*
X140796000Y-44910638D01*
X140796000Y-45549362D01*
X140791555Y-45594499D01*
X140780180Y-45631995D01*
X140761708Y-45666554D01*
X140736847Y-45696847D01*
X140706554Y-45721708D01*
X140671995Y-45740180D01*
X140634499Y-45751555D01*
X140589362Y-45756000D01*
X139850638Y-45756000D01*
X139805501Y-45751555D01*
X139768005Y-45740180D01*
X139733446Y-45721708D01*
X139703153Y-45696847D01*
X139678292Y-45666554D01*
X139659820Y-45631995D01*
X139648445Y-45594499D01*
X139644000Y-45549362D01*
X139644000Y-44910638D01*
X139648445Y-44865501D01*
X139659820Y-44828005D01*
X139678292Y-44793446D01*
X139703153Y-44763153D01*
X139733446Y-44738292D01*
X139768005Y-44719820D01*
X139805501Y-44708445D01*
X139850638Y-44704000D01*
X140589362Y-44704000D01*
X140634499Y-44708445D01*
X140634499Y-44708445D01*
G37*
G36*
X142384499Y-44708445D02*
G01*
X142421995Y-44719820D01*
X142456554Y-44738292D01*
X142486847Y-44763153D01*
X142511708Y-44793446D01*
X142530180Y-44828005D01*
X142541555Y-44865501D01*
X142546000Y-44910638D01*
X142546000Y-45549362D01*
X142541555Y-45594499D01*
X142530180Y-45631995D01*
X142511708Y-45666554D01*
X142486847Y-45696847D01*
X142456554Y-45721708D01*
X142421995Y-45740180D01*
X142384499Y-45751555D01*
X142339362Y-45756000D01*
X141600638Y-45756000D01*
X141555501Y-45751555D01*
X141518005Y-45740180D01*
X141483446Y-45721708D01*
X141453153Y-45696847D01*
X141428292Y-45666554D01*
X141409820Y-45631995D01*
X141398445Y-45594499D01*
X141394000Y-45549362D01*
X141394000Y-44910638D01*
X141398445Y-44865501D01*
X141409820Y-44828005D01*
X141428292Y-44793446D01*
X141453153Y-44763153D01*
X141483446Y-44738292D01*
X141518005Y-44719820D01*
X141555501Y-44708445D01*
X141600638Y-44704000D01*
X142339362Y-44704000D01*
X142384499Y-44708445D01*
X142384499Y-44708445D01*
G37*
G36*
X142384499Y-43108445D02*
G01*
X142421995Y-43119820D01*
X142456554Y-43138292D01*
X142486847Y-43163153D01*
X142511708Y-43193446D01*
X142530180Y-43228005D01*
X142541555Y-43265501D01*
X142546000Y-43310638D01*
X142546000Y-43949362D01*
X142541555Y-43994499D01*
X142530180Y-44031995D01*
X142511708Y-44066554D01*
X142486847Y-44096847D01*
X142456554Y-44121708D01*
X142421995Y-44140180D01*
X142384499Y-44151555D01*
X142339362Y-44156000D01*
X141600638Y-44156000D01*
X141555501Y-44151555D01*
X141518005Y-44140180D01*
X141483446Y-44121708D01*
X141453153Y-44096847D01*
X141428292Y-44066554D01*
X141409820Y-44031995D01*
X141398445Y-43994499D01*
X141394000Y-43949362D01*
X141394000Y-43310638D01*
X141398445Y-43265501D01*
X141409820Y-43228005D01*
X141428292Y-43193446D01*
X141453153Y-43163153D01*
X141483446Y-43138292D01*
X141518005Y-43119820D01*
X141555501Y-43108445D01*
X141600638Y-43104000D01*
X142339362Y-43104000D01*
X142384499Y-43108445D01*
X142384499Y-43108445D01*
G37*
G36*
X140634499Y-43108445D02*
G01*
X140671995Y-43119820D01*
X140706554Y-43138292D01*
X140736847Y-43163153D01*
X140761708Y-43193446D01*
X140780180Y-43228005D01*
X140791555Y-43265501D01*
X140796000Y-43310638D01*
X140796000Y-43949362D01*
X140791555Y-43994499D01*
X140780180Y-44031995D01*
X140761708Y-44066554D01*
X140736847Y-44096847D01*
X140706554Y-44121708D01*
X140671995Y-44140180D01*
X140634499Y-44151555D01*
X140589362Y-44156000D01*
X139850638Y-44156000D01*
X139805501Y-44151555D01*
X139768005Y-44140180D01*
X139733446Y-44121708D01*
X139703153Y-44096847D01*
X139678292Y-44066554D01*
X139659820Y-44031995D01*
X139648445Y-43994499D01*
X139644000Y-43949362D01*
X139644000Y-43310638D01*
X139648445Y-43265501D01*
X139659820Y-43228005D01*
X139678292Y-43193446D01*
X139703153Y-43163153D01*
X139733446Y-43138292D01*
X139768005Y-43119820D01*
X139805501Y-43108445D01*
X139850638Y-43104000D01*
X140589362Y-43104000D01*
X140634499Y-43108445D01*
X140634499Y-43108445D01*
G37*
G36*
X140604499Y-41328445D02*
G01*
X140641995Y-41339820D01*
X140676554Y-41358292D01*
X140706847Y-41383153D01*
X140731708Y-41413446D01*
X140750180Y-41448005D01*
X140761555Y-41485501D01*
X140766000Y-41530638D01*
X140766000Y-42169362D01*
X140761555Y-42214499D01*
X140750180Y-42251995D01*
X140731708Y-42286554D01*
X140706847Y-42316847D01*
X140676554Y-42341708D01*
X140641995Y-42360180D01*
X140604499Y-42371555D01*
X140559362Y-42376000D01*
X139820638Y-42376000D01*
X139775501Y-42371555D01*
X139738005Y-42360180D01*
X139703446Y-42341708D01*
X139673153Y-42316847D01*
X139648292Y-42286554D01*
X139629820Y-42251995D01*
X139618445Y-42214499D01*
X139614000Y-42169362D01*
X139614000Y-41530638D01*
X139618445Y-41485501D01*
X139629820Y-41448005D01*
X139648292Y-41413446D01*
X139673153Y-41383153D01*
X139703446Y-41358292D01*
X139738005Y-41339820D01*
X139775501Y-41328445D01*
X139820638Y-41324000D01*
X140559362Y-41324000D01*
X140604499Y-41328445D01*
X140604499Y-41328445D01*
G37*
G36*
X142354499Y-41328445D02*
G01*
X142391995Y-41339820D01*
X142426554Y-41358292D01*
X142456847Y-41383153D01*
X142481708Y-41413446D01*
X142500180Y-41448005D01*
X142511555Y-41485501D01*
X142516000Y-41530638D01*
X142516000Y-42169362D01*
X142511555Y-42214499D01*
X142500180Y-42251995D01*
X142481708Y-42286554D01*
X142456847Y-42316847D01*
X142426554Y-42341708D01*
X142391995Y-42360180D01*
X142354499Y-42371555D01*
X142309362Y-42376000D01*
X141570638Y-42376000D01*
X141525501Y-42371555D01*
X141488005Y-42360180D01*
X141453446Y-42341708D01*
X141423153Y-42316847D01*
X141398292Y-42286554D01*
X141379820Y-42251995D01*
X141368445Y-42214499D01*
X141364000Y-42169362D01*
X141364000Y-41530638D01*
X141368445Y-41485501D01*
X141379820Y-41448005D01*
X141398292Y-41413446D01*
X141423153Y-41383153D01*
X141453446Y-41358292D01*
X141488005Y-41339820D01*
X141525501Y-41328445D01*
X141570638Y-41324000D01*
X142309362Y-41324000D01*
X142354499Y-41328445D01*
X142354499Y-41328445D01*
G37*
G36*
X108214499Y-39878445D02*
G01*
X108251995Y-39889820D01*
X108286554Y-39908292D01*
X108316847Y-39933153D01*
X108341708Y-39963446D01*
X108360180Y-39998005D01*
X108371555Y-40035501D01*
X108376000Y-40080638D01*
X108376000Y-40719362D01*
X108371555Y-40764499D01*
X108360180Y-40801995D01*
X108341708Y-40836554D01*
X108316847Y-40866847D01*
X108286554Y-40891708D01*
X108251995Y-40910180D01*
X108214499Y-40921555D01*
X108169362Y-40926000D01*
X107430638Y-40926000D01*
X107385501Y-40921555D01*
X107348005Y-40910180D01*
X107313446Y-40891708D01*
X107283153Y-40866847D01*
X107258292Y-40836554D01*
X107239820Y-40801995D01*
X107228445Y-40764499D01*
X107224000Y-40719362D01*
X107224000Y-40080638D01*
X107228445Y-40035501D01*
X107239820Y-39998005D01*
X107258292Y-39963446D01*
X107283153Y-39933153D01*
X107313446Y-39908292D01*
X107348005Y-39889820D01*
X107385501Y-39878445D01*
X107430638Y-39874000D01*
X108169362Y-39874000D01*
X108214499Y-39878445D01*
X108214499Y-39878445D01*
G37*
G36*
X109964499Y-39878445D02*
G01*
X110001995Y-39889820D01*
X110036554Y-39908292D01*
X110066847Y-39933153D01*
X110091708Y-39963446D01*
X110110180Y-39998005D01*
X110121555Y-40035501D01*
X110126000Y-40080638D01*
X110126000Y-40719362D01*
X110121555Y-40764499D01*
X110110180Y-40801995D01*
X110091708Y-40836554D01*
X110066847Y-40866847D01*
X110036554Y-40891708D01*
X110001995Y-40910180D01*
X109964499Y-40921555D01*
X109919362Y-40926000D01*
X109180638Y-40926000D01*
X109135501Y-40921555D01*
X109098005Y-40910180D01*
X109063446Y-40891708D01*
X109033153Y-40866847D01*
X109008292Y-40836554D01*
X108989820Y-40801995D01*
X108978445Y-40764499D01*
X108974000Y-40719362D01*
X108974000Y-40080638D01*
X108978445Y-40035501D01*
X108989820Y-39998005D01*
X109008292Y-39963446D01*
X109033153Y-39933153D01*
X109063446Y-39908292D01*
X109098005Y-39889820D01*
X109135501Y-39878445D01*
X109180638Y-39874000D01*
X109919362Y-39874000D01*
X109964499Y-39878445D01*
X109964499Y-39878445D01*
G37*
G36*
X105964499Y-39878445D02*
G01*
X106001995Y-39889820D01*
X106036554Y-39908292D01*
X106066847Y-39933153D01*
X106091708Y-39963446D01*
X106110180Y-39998005D01*
X106121555Y-40035501D01*
X106126000Y-40080638D01*
X106126000Y-40719362D01*
X106121555Y-40764499D01*
X106110180Y-40801995D01*
X106091708Y-40836554D01*
X106066847Y-40866847D01*
X106036554Y-40891708D01*
X106001995Y-40910180D01*
X105964499Y-40921555D01*
X105919362Y-40926000D01*
X105180638Y-40926000D01*
X105135501Y-40921555D01*
X105098005Y-40910180D01*
X105063446Y-40891708D01*
X105033153Y-40866847D01*
X105008292Y-40836554D01*
X104989820Y-40801995D01*
X104978445Y-40764499D01*
X104974000Y-40719362D01*
X104974000Y-40080638D01*
X104978445Y-40035501D01*
X104989820Y-39998005D01*
X105008292Y-39963446D01*
X105033153Y-39933153D01*
X105063446Y-39908292D01*
X105098005Y-39889820D01*
X105135501Y-39878445D01*
X105180638Y-39874000D01*
X105919362Y-39874000D01*
X105964499Y-39878445D01*
X105964499Y-39878445D01*
G37*
G36*
X104214499Y-39878445D02*
G01*
X104251995Y-39889820D01*
X104286554Y-39908292D01*
X104316847Y-39933153D01*
X104341708Y-39963446D01*
X104360180Y-39998005D01*
X104371555Y-40035501D01*
X104376000Y-40080638D01*
X104376000Y-40719362D01*
X104371555Y-40764499D01*
X104360180Y-40801995D01*
X104341708Y-40836554D01*
X104316847Y-40866847D01*
X104286554Y-40891708D01*
X104251995Y-40910180D01*
X104214499Y-40921555D01*
X104169362Y-40926000D01*
X103430638Y-40926000D01*
X103385501Y-40921555D01*
X103348005Y-40910180D01*
X103313446Y-40891708D01*
X103283153Y-40866847D01*
X103258292Y-40836554D01*
X103239820Y-40801995D01*
X103228445Y-40764499D01*
X103224000Y-40719362D01*
X103224000Y-40080638D01*
X103228445Y-40035501D01*
X103239820Y-39998005D01*
X103258292Y-39963446D01*
X103283153Y-39933153D01*
X103313446Y-39908292D01*
X103348005Y-39889820D01*
X103385501Y-39878445D01*
X103430638Y-39874000D01*
X104169362Y-39874000D01*
X104214499Y-39878445D01*
X104214499Y-39878445D01*
G37*
G36*
X142359499Y-39318445D02*
G01*
X142396995Y-39329820D01*
X142431554Y-39348292D01*
X142461847Y-39373153D01*
X142486708Y-39403446D01*
X142505180Y-39438005D01*
X142516555Y-39475501D01*
X142521000Y-39520638D01*
X142521000Y-40159362D01*
X142516555Y-40204499D01*
X142505180Y-40241995D01*
X142486708Y-40276554D01*
X142461847Y-40306847D01*
X142431554Y-40331708D01*
X142396995Y-40350180D01*
X142359499Y-40361555D01*
X142314362Y-40366000D01*
X141575638Y-40366000D01*
X141530501Y-40361555D01*
X141493005Y-40350180D01*
X141458446Y-40331708D01*
X141428153Y-40306847D01*
X141403292Y-40276554D01*
X141384820Y-40241995D01*
X141373445Y-40204499D01*
X141369000Y-40159362D01*
X141369000Y-39520638D01*
X141373445Y-39475501D01*
X141384820Y-39438005D01*
X141403292Y-39403446D01*
X141428153Y-39373153D01*
X141458446Y-39348292D01*
X141493005Y-39329820D01*
X141530501Y-39318445D01*
X141575638Y-39314000D01*
X142314362Y-39314000D01*
X142359499Y-39318445D01*
X142359499Y-39318445D01*
G37*
G36*
X140609499Y-39318445D02*
G01*
X140646995Y-39329820D01*
X140681554Y-39348292D01*
X140711847Y-39373153D01*
X140736708Y-39403446D01*
X140755180Y-39438005D01*
X140766555Y-39475501D01*
X140771000Y-39520638D01*
X140771000Y-40159362D01*
X140766555Y-40204499D01*
X140755180Y-40241995D01*
X140736708Y-40276554D01*
X140711847Y-40306847D01*
X140681554Y-40331708D01*
X140646995Y-40350180D01*
X140609499Y-40361555D01*
X140564362Y-40366000D01*
X139825638Y-40366000D01*
X139780501Y-40361555D01*
X139743005Y-40350180D01*
X139708446Y-40331708D01*
X139678153Y-40306847D01*
X139653292Y-40276554D01*
X139634820Y-40241995D01*
X139623445Y-40204499D01*
X139619000Y-40159362D01*
X139619000Y-39520638D01*
X139623445Y-39475501D01*
X139634820Y-39438005D01*
X139653292Y-39403446D01*
X139678153Y-39373153D01*
X139708446Y-39348292D01*
X139743005Y-39329820D01*
X139780501Y-39318445D01*
X139825638Y-39314000D01*
X140564362Y-39314000D01*
X140609499Y-39318445D01*
X140609499Y-39318445D01*
G37*
G36*
X109876000Y-37831000D02*
G01*
X107224000Y-37831000D01*
X107224000Y-36169000D01*
X109876000Y-36169000D01*
X109876000Y-37831000D01*
X109876000Y-37831000D01*
G37*
G36*
X112164499Y-36628445D02*
G01*
X112201995Y-36639820D01*
X112236554Y-36658292D01*
X112266847Y-36683153D01*
X112291708Y-36713446D01*
X112310180Y-36748005D01*
X112321555Y-36785501D01*
X112326000Y-36830638D01*
X112326000Y-37569362D01*
X112321555Y-37614499D01*
X112310180Y-37651995D01*
X112291708Y-37686554D01*
X112266847Y-37716847D01*
X112236554Y-37741708D01*
X112201995Y-37760180D01*
X112164499Y-37771555D01*
X112119362Y-37776000D01*
X111480638Y-37776000D01*
X111435501Y-37771555D01*
X111398005Y-37760180D01*
X111363446Y-37741708D01*
X111333153Y-37716847D01*
X111308292Y-37686554D01*
X111289820Y-37651995D01*
X111278445Y-37614499D01*
X111274000Y-37569362D01*
X111274000Y-36830638D01*
X111278445Y-36785501D01*
X111289820Y-36748005D01*
X111308292Y-36713446D01*
X111333153Y-36683153D01*
X111363446Y-36658292D01*
X111398005Y-36639820D01*
X111435501Y-36628445D01*
X111480638Y-36624000D01*
X112119362Y-36624000D01*
X112164499Y-36628445D01*
X112164499Y-36628445D01*
G37*
G36*
X106018604Y-36328347D02*
G01*
X106055144Y-36339432D01*
X106088821Y-36357433D01*
X106118341Y-36381659D01*
X106142567Y-36411179D01*
X106160568Y-36444856D01*
X106171653Y-36481396D01*
X106176000Y-36525538D01*
X106176000Y-37474462D01*
X106171653Y-37518604D01*
X106160568Y-37555144D01*
X106142567Y-37588821D01*
X106118341Y-37618341D01*
X106088821Y-37642567D01*
X106055144Y-37660568D01*
X106018604Y-37671653D01*
X105974462Y-37676000D01*
X103625538Y-37676000D01*
X103581396Y-37671653D01*
X103544856Y-37660568D01*
X103511179Y-37642567D01*
X103481659Y-37618341D01*
X103457433Y-37588821D01*
X103439432Y-37555144D01*
X103428347Y-37518604D01*
X103424000Y-37474462D01*
X103424000Y-36525538D01*
X103428347Y-36481396D01*
X103439432Y-36444856D01*
X103457433Y-36411179D01*
X103481659Y-36381659D01*
X103511179Y-36357433D01*
X103544856Y-36339432D01*
X103581396Y-36328347D01*
X103625538Y-36324000D01*
X105974462Y-36324000D01*
X106018604Y-36328347D01*
X106018604Y-36328347D01*
G37*
G36*
X158361000Y-36711000D02*
G01*
X155759000Y-36711000D01*
X155759000Y-34109000D01*
X158361000Y-34109000D01*
X158361000Y-36711000D01*
X158361000Y-36711000D01*
G37*
G36*
X112164499Y-34878445D02*
G01*
X112201995Y-34889820D01*
X112236554Y-34908292D01*
X112266847Y-34933153D01*
X112291708Y-34963446D01*
X112310180Y-34998005D01*
X112321555Y-35035501D01*
X112326000Y-35080638D01*
X112326000Y-35819362D01*
X112321555Y-35864499D01*
X112310180Y-35901995D01*
X112291708Y-35936554D01*
X112266847Y-35966847D01*
X112236554Y-35991708D01*
X112201995Y-36010180D01*
X112164499Y-36021555D01*
X112119362Y-36026000D01*
X111480638Y-36026000D01*
X111435501Y-36021555D01*
X111398005Y-36010180D01*
X111363446Y-35991708D01*
X111333153Y-35966847D01*
X111308292Y-35936554D01*
X111289820Y-35901995D01*
X111278445Y-35864499D01*
X111274000Y-35819362D01*
X111274000Y-35080638D01*
X111278445Y-35035501D01*
X111289820Y-34998005D01*
X111308292Y-34963446D01*
X111333153Y-34933153D01*
X111363446Y-34908292D01*
X111398005Y-34889820D01*
X111435501Y-34878445D01*
X111480638Y-34874000D01*
X112119362Y-34874000D01*
X112164499Y-34878445D01*
X112164499Y-34878445D01*
G37*
G36*
X109876000Y-35131000D02*
G01*
X107224000Y-35131000D01*
X107224000Y-33469000D01*
X109876000Y-33469000D01*
X109876000Y-35131000D01*
X109876000Y-35131000D01*
G37*
G36*
X106018604Y-33528347D02*
G01*
X106055144Y-33539432D01*
X106088821Y-33557433D01*
X106118341Y-33581659D01*
X106142567Y-33611179D01*
X106160568Y-33644856D01*
X106171653Y-33681396D01*
X106176000Y-33725538D01*
X106176000Y-34674462D01*
X106171653Y-34718604D01*
X106160568Y-34755144D01*
X106142567Y-34788821D01*
X106118341Y-34818341D01*
X106088821Y-34842567D01*
X106055144Y-34860568D01*
X106018604Y-34871653D01*
X105974462Y-34876000D01*
X103625538Y-34876000D01*
X103581396Y-34871653D01*
X103544856Y-34860568D01*
X103511179Y-34842567D01*
X103481659Y-34818341D01*
X103457433Y-34788821D01*
X103439432Y-34755144D01*
X103428347Y-34718604D01*
X103424000Y-34674462D01*
X103424000Y-33725538D01*
X103428347Y-33681396D01*
X103439432Y-33644856D01*
X103457433Y-33611179D01*
X103481659Y-33581659D01*
X103511179Y-33557433D01*
X103544856Y-33539432D01*
X103581396Y-33528347D01*
X103625538Y-33524000D01*
X105974462Y-33524000D01*
X106018604Y-33528347D01*
X106018604Y-33528347D01*
G37*
G36*
X109014499Y-31678445D02*
G01*
X109051995Y-31689820D01*
X109086554Y-31708292D01*
X109116847Y-31733153D01*
X109141708Y-31763446D01*
X109160180Y-31798005D01*
X109171555Y-31835501D01*
X109176000Y-31880638D01*
X109176000Y-32519362D01*
X109171555Y-32564499D01*
X109160180Y-32601995D01*
X109141708Y-32636554D01*
X109116847Y-32666847D01*
X109086554Y-32691708D01*
X109051995Y-32710180D01*
X109014499Y-32721555D01*
X108969362Y-32726000D01*
X108230638Y-32726000D01*
X108185501Y-32721555D01*
X108148005Y-32710180D01*
X108113446Y-32691708D01*
X108083153Y-32666847D01*
X108058292Y-32636554D01*
X108039820Y-32601995D01*
X108028445Y-32564499D01*
X108024000Y-32519362D01*
X108024000Y-31880638D01*
X108028445Y-31835501D01*
X108039820Y-31798005D01*
X108058292Y-31763446D01*
X108083153Y-31733153D01*
X108113446Y-31708292D01*
X108148005Y-31689820D01*
X108185501Y-31678445D01*
X108230638Y-31674000D01*
X108969362Y-31674000D01*
X109014499Y-31678445D01*
X109014499Y-31678445D01*
G37*
G36*
X110764499Y-31678445D02*
G01*
X110801995Y-31689820D01*
X110836554Y-31708292D01*
X110866847Y-31733153D01*
X110891708Y-31763446D01*
X110910180Y-31798005D01*
X110921555Y-31835501D01*
X110926000Y-31880638D01*
X110926000Y-32519362D01*
X110921555Y-32564499D01*
X110910180Y-32601995D01*
X110891708Y-32636554D01*
X110866847Y-32666847D01*
X110836554Y-32691708D01*
X110801995Y-32710180D01*
X110764499Y-32721555D01*
X110719362Y-32726000D01*
X109980638Y-32726000D01*
X109935501Y-32721555D01*
X109898005Y-32710180D01*
X109863446Y-32691708D01*
X109833153Y-32666847D01*
X109808292Y-32636554D01*
X109789820Y-32601995D01*
X109778445Y-32564499D01*
X109774000Y-32519362D01*
X109774000Y-31880638D01*
X109778445Y-31835501D01*
X109789820Y-31798005D01*
X109808292Y-31763446D01*
X109833153Y-31733153D01*
X109863446Y-31708292D01*
X109898005Y-31689820D01*
X109935501Y-31678445D01*
X109980638Y-31674000D01*
X110719362Y-31674000D01*
X110764499Y-31678445D01*
X110764499Y-31678445D01*
G37*
G36*
X157017021Y-26306640D02*
G01*
X157526769Y-26517785D01*
X157526771Y-26517786D01*
X157985534Y-26824321D01*
X158375679Y-27214466D01*
X158498980Y-27399000D01*
X158682215Y-27673231D01*
X158893360Y-28182979D01*
X159001000Y-28724124D01*
X159001000Y-29275876D01*
X158893360Y-29817021D01*
X158821295Y-29991000D01*
X158682214Y-30326771D01*
X158375679Y-30785534D01*
X157985534Y-31175679D01*
X157526771Y-31482214D01*
X157526770Y-31482215D01*
X157526769Y-31482215D01*
X157017021Y-31693360D01*
X156475876Y-31801000D01*
X155924124Y-31801000D01*
X155382979Y-31693360D01*
X154873231Y-31482215D01*
X154873230Y-31482215D01*
X154873229Y-31482214D01*
X154414466Y-31175679D01*
X154024321Y-30785534D01*
X153717786Y-30326771D01*
X153578705Y-29991000D01*
X153506640Y-29817021D01*
X153399000Y-29275876D01*
X153399000Y-28724124D01*
X153506640Y-28182979D01*
X153717785Y-27673231D01*
X153901020Y-27399000D01*
X154024321Y-27214466D01*
X154414466Y-26824321D01*
X154873229Y-26517786D01*
X154873231Y-26517785D01*
X155382979Y-26306640D01*
X155924124Y-26199000D01*
X156475876Y-26199000D01*
X157017021Y-26306640D01*
X157017021Y-26306640D01*
G37*
G36*
X92817021Y-26306640D02*
G01*
X93326769Y-26517785D01*
X93326771Y-26517786D01*
X93785534Y-26824321D01*
X94175679Y-27214466D01*
X94298980Y-27399000D01*
X94482215Y-27673231D01*
X94693360Y-28182979D01*
X94801000Y-28724124D01*
X94801000Y-29275876D01*
X94693360Y-29817021D01*
X94621295Y-29991000D01*
X94482214Y-30326771D01*
X94175679Y-30785534D01*
X93785534Y-31175679D01*
X93326771Y-31482214D01*
X93326770Y-31482215D01*
X93326769Y-31482215D01*
X92817021Y-31693360D01*
X92275876Y-31801000D01*
X91724124Y-31801000D01*
X91182979Y-31693360D01*
X90673231Y-31482215D01*
X90673230Y-31482215D01*
X90673229Y-31482214D01*
X90214466Y-31175679D01*
X89824321Y-30785534D01*
X89517786Y-30326771D01*
X89378705Y-29991000D01*
X89306640Y-29817021D01*
X89199000Y-29275876D01*
X89199000Y-28724124D01*
X89306640Y-28182979D01*
X89517785Y-27673231D01*
X89701020Y-27399000D01*
X89824321Y-27214466D01*
X90214466Y-26824321D01*
X90673229Y-26517786D01*
X90673231Y-26517785D01*
X91182979Y-26306640D01*
X91724124Y-26199000D01*
X92275876Y-26199000D01*
X92817021Y-26306640D01*
X92817021Y-26306640D01*
G37*
G36*
X108013062Y-28878181D02*
G01*
X108047981Y-28888774D01*
X108080163Y-28905976D01*
X108108373Y-28929127D01*
X108131524Y-28957337D01*
X108148726Y-28989519D01*
X108159319Y-29024438D01*
X108163500Y-29066895D01*
X108163500Y-30533105D01*
X108159319Y-30575562D01*
X108148726Y-30610481D01*
X108131524Y-30642663D01*
X108108373Y-30670873D01*
X108080163Y-30694024D01*
X108047981Y-30711226D01*
X108013062Y-30721819D01*
X107970605Y-30726000D01*
X106829395Y-30726000D01*
X106786938Y-30721819D01*
X106752019Y-30711226D01*
X106719837Y-30694024D01*
X106691627Y-30670873D01*
X106668476Y-30642663D01*
X106651274Y-30610481D01*
X106640681Y-30575562D01*
X106636500Y-30533105D01*
X106636500Y-29066895D01*
X106640681Y-29024438D01*
X106651274Y-28989519D01*
X106668476Y-28957337D01*
X106691627Y-28929127D01*
X106719837Y-28905976D01*
X106752019Y-28888774D01*
X106786938Y-28878181D01*
X106829395Y-28874000D01*
X107970605Y-28874000D01*
X108013062Y-28878181D01*
X108013062Y-28878181D01*
G37*
G36*
X110988062Y-28878181D02*
G01*
X111022981Y-28888774D01*
X111055163Y-28905976D01*
X111083373Y-28929127D01*
X111106524Y-28957337D01*
X111123726Y-28989519D01*
X111134319Y-29024438D01*
X111138500Y-29066895D01*
X111138500Y-30533105D01*
X111134319Y-30575562D01*
X111123726Y-30610481D01*
X111106524Y-30642663D01*
X111083373Y-30670873D01*
X111055163Y-30694024D01*
X111022981Y-30711226D01*
X110988062Y-30721819D01*
X110945605Y-30726000D01*
X109804395Y-30726000D01*
X109761938Y-30721819D01*
X109727019Y-30711226D01*
X109694837Y-30694024D01*
X109666627Y-30670873D01*
X109643476Y-30642663D01*
X109626274Y-30610481D01*
X109615681Y-30575562D01*
X109611500Y-30533105D01*
X109611500Y-29066895D01*
X109615681Y-29024438D01*
X109626274Y-28989519D01*
X109643476Y-28957337D01*
X109666627Y-28929127D01*
X109694837Y-28905976D01*
X109727019Y-28888774D01*
X109761938Y-28878181D01*
X109804395Y-28874000D01*
X110945605Y-28874000D01*
X110988062Y-28878181D01*
X110988062Y-28878181D01*
G37*
G36*
X121851000Y-30001000D02*
G01*
X119249000Y-30001000D01*
X119249000Y-27399000D01*
X121851000Y-27399000D01*
X121851000Y-30001000D01*
X121851000Y-30001000D01*
G37*
G36*
X133361000Y-29991000D02*
G01*
X130759000Y-29991000D01*
X130759000Y-27389000D01*
X133361000Y-27389000D01*
X133361000Y-29991000D01*
X133361000Y-29991000D01*
G37*
G36*
X117291000Y-29981000D02*
G01*
X114689000Y-29981000D01*
X114689000Y-27379000D01*
X117291000Y-27379000D01*
X117291000Y-29981000D01*
X117291000Y-29981000D01*
G37*
G36*
X127581000Y-29971000D02*
G01*
X124979000Y-29971000D01*
X124979000Y-27369000D01*
X127581000Y-27369000D01*
X127581000Y-29971000D01*
X127581000Y-29971000D01*
G37*
G36*
X102391000Y-29961000D02*
G01*
X99789000Y-29961000D01*
X99789000Y-27359000D01*
X102391000Y-27359000D01*
X102391000Y-29961000D01*
X102391000Y-29961000D01*
G37*
M02*
