G04 #@! TF.GenerationSoftware,KiCad,Pcbnew,(5.1.4)-1*
G04 #@! TF.CreationDate,2019-11-27T14:10:42+08:00*
G04 #@! TF.ProjectId,FH26W-45S-0.3SHW,46483236-572d-4343-9553-2d302e335348,rev?*
G04 #@! TF.SameCoordinates,Original*
G04 #@! TF.FileFunction,Soldermask,Bot*
G04 #@! TF.FilePolarity,Negative*
%FSLAX46Y46*%
G04 Gerber Fmt 4.6, Leading zero omitted, Abs format (unit mm)*
G04 Created by KiCad (PCBNEW (5.1.4)-1) date 2019-11-27 14:10:42*
%MOMM*%
%LPD*%
G04 APERTURE LIST*
%ADD10C,0.100000*%
G04 APERTURE END LIST*
D10*
G36*
X157217021Y-116906640D02*
G01*
X157726769Y-117117785D01*
X157726771Y-117117786D01*
X158185534Y-117424321D01*
X158575679Y-117814466D01*
X158882214Y-118273229D01*
X158882215Y-118273231D01*
X159093360Y-118782979D01*
X159201000Y-119324124D01*
X159201000Y-119875876D01*
X159093360Y-120417021D01*
X158882215Y-120926769D01*
X158882214Y-120926771D01*
X158575679Y-121385534D01*
X158185534Y-121775679D01*
X157726771Y-122082214D01*
X157726770Y-122082215D01*
X157726769Y-122082215D01*
X157217021Y-122293360D01*
X156675876Y-122401000D01*
X156124124Y-122401000D01*
X155582979Y-122293360D01*
X155073231Y-122082215D01*
X155073230Y-122082215D01*
X155073229Y-122082214D01*
X154614466Y-121775679D01*
X154224321Y-121385534D01*
X153917786Y-120926771D01*
X153917785Y-120926769D01*
X153706640Y-120417021D01*
X153599000Y-119875876D01*
X153599000Y-119324124D01*
X153706640Y-118782979D01*
X153917785Y-118273231D01*
X153917786Y-118273229D01*
X154224321Y-117814466D01*
X154614466Y-117424321D01*
X155073229Y-117117786D01*
X155073231Y-117117785D01*
X155582979Y-116906640D01*
X156124124Y-116799000D01*
X156675876Y-116799000D01*
X157217021Y-116906640D01*
X157217021Y-116906640D01*
G37*
G36*
X92817021Y-116906640D02*
G01*
X93326769Y-117117785D01*
X93326771Y-117117786D01*
X93785534Y-117424321D01*
X94175679Y-117814466D01*
X94482214Y-118273229D01*
X94482215Y-118273231D01*
X94693360Y-118782979D01*
X94801000Y-119324124D01*
X94801000Y-119875876D01*
X94693360Y-120417021D01*
X94482215Y-120926769D01*
X94482214Y-120926771D01*
X94175679Y-121385534D01*
X93785534Y-121775679D01*
X93326771Y-122082214D01*
X93326770Y-122082215D01*
X93326769Y-122082215D01*
X92817021Y-122293360D01*
X92275876Y-122401000D01*
X91724124Y-122401000D01*
X91182979Y-122293360D01*
X90673231Y-122082215D01*
X90673230Y-122082215D01*
X90673229Y-122082214D01*
X90214466Y-121775679D01*
X89824321Y-121385534D01*
X89517786Y-120926771D01*
X89517785Y-120926769D01*
X89306640Y-120417021D01*
X89199000Y-119875876D01*
X89199000Y-119324124D01*
X89306640Y-118782979D01*
X89517785Y-118273231D01*
X89517786Y-118273229D01*
X89824321Y-117814466D01*
X90214466Y-117424321D01*
X90673229Y-117117786D01*
X90673231Y-117117785D01*
X91182979Y-116906640D01*
X91724124Y-116799000D01*
X92275876Y-116799000D01*
X92817021Y-116906640D01*
X92817021Y-116906640D01*
G37*
G36*
X148566000Y-93951000D02*
G01*
X145914000Y-93951000D01*
X145914000Y-92289000D01*
X148566000Y-92289000D01*
X148566000Y-93951000D01*
X148566000Y-93951000D01*
G37*
G36*
X150854499Y-92748445D02*
G01*
X150891995Y-92759820D01*
X150926554Y-92778292D01*
X150956847Y-92803153D01*
X150981708Y-92833446D01*
X151000180Y-92868005D01*
X151011555Y-92905501D01*
X151016000Y-92950638D01*
X151016000Y-93689362D01*
X151011555Y-93734499D01*
X151000180Y-93771995D01*
X150981708Y-93806554D01*
X150956847Y-93836847D01*
X150926554Y-93861708D01*
X150891995Y-93880180D01*
X150854499Y-93891555D01*
X150809362Y-93896000D01*
X150170638Y-93896000D01*
X150125501Y-93891555D01*
X150088005Y-93880180D01*
X150053446Y-93861708D01*
X150023153Y-93836847D01*
X149998292Y-93806554D01*
X149979820Y-93771995D01*
X149968445Y-93734499D01*
X149964000Y-93689362D01*
X149964000Y-92950638D01*
X149968445Y-92905501D01*
X149979820Y-92868005D01*
X149998292Y-92833446D01*
X150023153Y-92803153D01*
X150053446Y-92778292D01*
X150088005Y-92759820D01*
X150125501Y-92748445D01*
X150170638Y-92744000D01*
X150809362Y-92744000D01*
X150854499Y-92748445D01*
X150854499Y-92748445D01*
G37*
G36*
X152554499Y-92738445D02*
G01*
X152591995Y-92749820D01*
X152626554Y-92768292D01*
X152656847Y-92793153D01*
X152681708Y-92823446D01*
X152700180Y-92858005D01*
X152711555Y-92895501D01*
X152716000Y-92940638D01*
X152716000Y-93679362D01*
X152711555Y-93724499D01*
X152700180Y-93761995D01*
X152681708Y-93796554D01*
X152656847Y-93826847D01*
X152626554Y-93851708D01*
X152591995Y-93870180D01*
X152554499Y-93881555D01*
X152509362Y-93886000D01*
X151870638Y-93886000D01*
X151825501Y-93881555D01*
X151788005Y-93870180D01*
X151753446Y-93851708D01*
X151723153Y-93826847D01*
X151698292Y-93796554D01*
X151679820Y-93761995D01*
X151668445Y-93724499D01*
X151664000Y-93679362D01*
X151664000Y-92940638D01*
X151668445Y-92895501D01*
X151679820Y-92858005D01*
X151698292Y-92823446D01*
X151723153Y-92793153D01*
X151753446Y-92768292D01*
X151788005Y-92749820D01*
X151825501Y-92738445D01*
X151870638Y-92734000D01*
X152509362Y-92734000D01*
X152554499Y-92738445D01*
X152554499Y-92738445D01*
G37*
G36*
X141114499Y-92658445D02*
G01*
X141151995Y-92669820D01*
X141186554Y-92688292D01*
X141216847Y-92713153D01*
X141241708Y-92743446D01*
X141260180Y-92778005D01*
X141271555Y-92815501D01*
X141276000Y-92860638D01*
X141276000Y-93599362D01*
X141271555Y-93644499D01*
X141260180Y-93681995D01*
X141241708Y-93716554D01*
X141216847Y-93746847D01*
X141186554Y-93771708D01*
X141151995Y-93790180D01*
X141114499Y-93801555D01*
X141069362Y-93806000D01*
X140430638Y-93806000D01*
X140385501Y-93801555D01*
X140348005Y-93790180D01*
X140313446Y-93771708D01*
X140283153Y-93746847D01*
X140258292Y-93716554D01*
X140239820Y-93681995D01*
X140228445Y-93644499D01*
X140224000Y-93599362D01*
X140224000Y-92860638D01*
X140228445Y-92815501D01*
X140239820Y-92778005D01*
X140258292Y-92743446D01*
X140283153Y-92713153D01*
X140313446Y-92688292D01*
X140348005Y-92669820D01*
X140385501Y-92658445D01*
X140430638Y-92654000D01*
X141069362Y-92654000D01*
X141114499Y-92658445D01*
X141114499Y-92658445D01*
G37*
G36*
X144708604Y-92448347D02*
G01*
X144745144Y-92459432D01*
X144778821Y-92477433D01*
X144808341Y-92501659D01*
X144832567Y-92531179D01*
X144850568Y-92564856D01*
X144861653Y-92601396D01*
X144866000Y-92645538D01*
X144866000Y-93594462D01*
X144861653Y-93638604D01*
X144850568Y-93675144D01*
X144832567Y-93708821D01*
X144808341Y-93738341D01*
X144778821Y-93762567D01*
X144745144Y-93780568D01*
X144708604Y-93791653D01*
X144664462Y-93796000D01*
X142315538Y-93796000D01*
X142271396Y-93791653D01*
X142234856Y-93780568D01*
X142201179Y-93762567D01*
X142171659Y-93738341D01*
X142147433Y-93708821D01*
X142129432Y-93675144D01*
X142118347Y-93638604D01*
X142114000Y-93594462D01*
X142114000Y-92645538D01*
X142118347Y-92601396D01*
X142129432Y-92564856D01*
X142147433Y-92531179D01*
X142171659Y-92501659D01*
X142201179Y-92477433D01*
X142234856Y-92459432D01*
X142271396Y-92448347D01*
X142315538Y-92444000D01*
X144664462Y-92444000D01*
X144708604Y-92448347D01*
X144708604Y-92448347D01*
G37*
G36*
X139294499Y-92648445D02*
G01*
X139331995Y-92659820D01*
X139366554Y-92678292D01*
X139396847Y-92703153D01*
X139421708Y-92733446D01*
X139440180Y-92768005D01*
X139451555Y-92805501D01*
X139456000Y-92850638D01*
X139456000Y-93589362D01*
X139451555Y-93634499D01*
X139440180Y-93671995D01*
X139421708Y-93706554D01*
X139396847Y-93736847D01*
X139366554Y-93761708D01*
X139331995Y-93780180D01*
X139294499Y-93791555D01*
X139249362Y-93796000D01*
X138610638Y-93796000D01*
X138565501Y-93791555D01*
X138528005Y-93780180D01*
X138493446Y-93761708D01*
X138463153Y-93736847D01*
X138438292Y-93706554D01*
X138419820Y-93671995D01*
X138408445Y-93634499D01*
X138404000Y-93589362D01*
X138404000Y-92850638D01*
X138408445Y-92805501D01*
X138419820Y-92768005D01*
X138438292Y-92733446D01*
X138463153Y-92703153D01*
X138493446Y-92678292D01*
X138528005Y-92659820D01*
X138565501Y-92648445D01*
X138610638Y-92644000D01*
X139249362Y-92644000D01*
X139294499Y-92648445D01*
X139294499Y-92648445D01*
G37*
G36*
X150854499Y-90998445D02*
G01*
X150891995Y-91009820D01*
X150926554Y-91028292D01*
X150956847Y-91053153D01*
X150981708Y-91083446D01*
X151000180Y-91118005D01*
X151011555Y-91155501D01*
X151016000Y-91200638D01*
X151016000Y-91939362D01*
X151011555Y-91984499D01*
X151000180Y-92021995D01*
X150981708Y-92056554D01*
X150956847Y-92086847D01*
X150926554Y-92111708D01*
X150891995Y-92130180D01*
X150854499Y-92141555D01*
X150809362Y-92146000D01*
X150170638Y-92146000D01*
X150125501Y-92141555D01*
X150088005Y-92130180D01*
X150053446Y-92111708D01*
X150023153Y-92086847D01*
X149998292Y-92056554D01*
X149979820Y-92021995D01*
X149968445Y-91984499D01*
X149964000Y-91939362D01*
X149964000Y-91200638D01*
X149968445Y-91155501D01*
X149979820Y-91118005D01*
X149998292Y-91083446D01*
X150023153Y-91053153D01*
X150053446Y-91028292D01*
X150088005Y-91009820D01*
X150125501Y-90998445D01*
X150170638Y-90994000D01*
X150809362Y-90994000D01*
X150854499Y-90998445D01*
X150854499Y-90998445D01*
G37*
G36*
X152554499Y-90988445D02*
G01*
X152591995Y-90999820D01*
X152626554Y-91018292D01*
X152656847Y-91043153D01*
X152681708Y-91073446D01*
X152700180Y-91108005D01*
X152711555Y-91145501D01*
X152716000Y-91190638D01*
X152716000Y-91929362D01*
X152711555Y-91974499D01*
X152700180Y-92011995D01*
X152681708Y-92046554D01*
X152656847Y-92076847D01*
X152626554Y-92101708D01*
X152591995Y-92120180D01*
X152554499Y-92131555D01*
X152509362Y-92136000D01*
X151870638Y-92136000D01*
X151825501Y-92131555D01*
X151788005Y-92120180D01*
X151753446Y-92101708D01*
X151723153Y-92076847D01*
X151698292Y-92046554D01*
X151679820Y-92011995D01*
X151668445Y-91974499D01*
X151664000Y-91929362D01*
X151664000Y-91190638D01*
X151668445Y-91145501D01*
X151679820Y-91108005D01*
X151698292Y-91073446D01*
X151723153Y-91043153D01*
X151753446Y-91018292D01*
X151788005Y-90999820D01*
X151825501Y-90988445D01*
X151870638Y-90984000D01*
X152509362Y-90984000D01*
X152554499Y-90988445D01*
X152554499Y-90988445D01*
G37*
G36*
X141114499Y-90908445D02*
G01*
X141151995Y-90919820D01*
X141186554Y-90938292D01*
X141216847Y-90963153D01*
X141241708Y-90993446D01*
X141260180Y-91028005D01*
X141271555Y-91065501D01*
X141276000Y-91110638D01*
X141276000Y-91849362D01*
X141271555Y-91894499D01*
X141260180Y-91931995D01*
X141241708Y-91966554D01*
X141216847Y-91996847D01*
X141186554Y-92021708D01*
X141151995Y-92040180D01*
X141114499Y-92051555D01*
X141069362Y-92056000D01*
X140430638Y-92056000D01*
X140385501Y-92051555D01*
X140348005Y-92040180D01*
X140313446Y-92021708D01*
X140283153Y-91996847D01*
X140258292Y-91966554D01*
X140239820Y-91931995D01*
X140228445Y-91894499D01*
X140224000Y-91849362D01*
X140224000Y-91110638D01*
X140228445Y-91065501D01*
X140239820Y-91028005D01*
X140258292Y-90993446D01*
X140283153Y-90963153D01*
X140313446Y-90938292D01*
X140348005Y-90919820D01*
X140385501Y-90908445D01*
X140430638Y-90904000D01*
X141069362Y-90904000D01*
X141114499Y-90908445D01*
X141114499Y-90908445D01*
G37*
G36*
X139294499Y-90898445D02*
G01*
X139331995Y-90909820D01*
X139366554Y-90928292D01*
X139396847Y-90953153D01*
X139421708Y-90983446D01*
X139440180Y-91018005D01*
X139451555Y-91055501D01*
X139456000Y-91100638D01*
X139456000Y-91839362D01*
X139451555Y-91884499D01*
X139440180Y-91921995D01*
X139421708Y-91956554D01*
X139396847Y-91986847D01*
X139366554Y-92011708D01*
X139331995Y-92030180D01*
X139294499Y-92041555D01*
X139249362Y-92046000D01*
X138610638Y-92046000D01*
X138565501Y-92041555D01*
X138528005Y-92030180D01*
X138493446Y-92011708D01*
X138463153Y-91986847D01*
X138438292Y-91956554D01*
X138419820Y-91921995D01*
X138408445Y-91884499D01*
X138404000Y-91839362D01*
X138404000Y-91100638D01*
X138408445Y-91055501D01*
X138419820Y-91018005D01*
X138438292Y-90983446D01*
X138463153Y-90953153D01*
X138493446Y-90928292D01*
X138528005Y-90909820D01*
X138565501Y-90898445D01*
X138610638Y-90894000D01*
X139249362Y-90894000D01*
X139294499Y-90898445D01*
X139294499Y-90898445D01*
G37*
G36*
X148566000Y-91251000D02*
G01*
X145914000Y-91251000D01*
X145914000Y-89589000D01*
X148566000Y-89589000D01*
X148566000Y-91251000D01*
X148566000Y-91251000D01*
G37*
G36*
X144708604Y-89648347D02*
G01*
X144745144Y-89659432D01*
X144778821Y-89677433D01*
X144808341Y-89701659D01*
X144832567Y-89731179D01*
X144850568Y-89764856D01*
X144861653Y-89801396D01*
X144866000Y-89845538D01*
X144866000Y-90794462D01*
X144861653Y-90838604D01*
X144850568Y-90875144D01*
X144832567Y-90908821D01*
X144808341Y-90938341D01*
X144778821Y-90962567D01*
X144745144Y-90980568D01*
X144708604Y-90991653D01*
X144664462Y-90996000D01*
X142315538Y-90996000D01*
X142271396Y-90991653D01*
X142234856Y-90980568D01*
X142201179Y-90962567D01*
X142171659Y-90938341D01*
X142147433Y-90908821D01*
X142129432Y-90875144D01*
X142118347Y-90838604D01*
X142114000Y-90794462D01*
X142114000Y-89845538D01*
X142118347Y-89801396D01*
X142129432Y-89764856D01*
X142147433Y-89731179D01*
X142171659Y-89701659D01*
X142201179Y-89677433D01*
X142234856Y-89659432D01*
X142271396Y-89648347D01*
X142315538Y-89644000D01*
X144664462Y-89644000D01*
X144708604Y-89648347D01*
X144708604Y-89648347D01*
G37*
G36*
X149454499Y-87798445D02*
G01*
X149491995Y-87809820D01*
X149526554Y-87828292D01*
X149556847Y-87853153D01*
X149581708Y-87883446D01*
X149600180Y-87918005D01*
X149611555Y-87955501D01*
X149616000Y-88000638D01*
X149616000Y-88639362D01*
X149611555Y-88684499D01*
X149600180Y-88721995D01*
X149581708Y-88756554D01*
X149556847Y-88786847D01*
X149526554Y-88811708D01*
X149491995Y-88830180D01*
X149454499Y-88841555D01*
X149409362Y-88846000D01*
X148670638Y-88846000D01*
X148625501Y-88841555D01*
X148588005Y-88830180D01*
X148553446Y-88811708D01*
X148523153Y-88786847D01*
X148498292Y-88756554D01*
X148479820Y-88721995D01*
X148468445Y-88684499D01*
X148464000Y-88639362D01*
X148464000Y-88000638D01*
X148468445Y-87955501D01*
X148479820Y-87918005D01*
X148498292Y-87883446D01*
X148523153Y-87853153D01*
X148553446Y-87828292D01*
X148588005Y-87809820D01*
X148625501Y-87798445D01*
X148670638Y-87794000D01*
X149409362Y-87794000D01*
X149454499Y-87798445D01*
X149454499Y-87798445D01*
G37*
G36*
X147704499Y-87798445D02*
G01*
X147741995Y-87809820D01*
X147776554Y-87828292D01*
X147806847Y-87853153D01*
X147831708Y-87883446D01*
X147850180Y-87918005D01*
X147861555Y-87955501D01*
X147866000Y-88000638D01*
X147866000Y-88639362D01*
X147861555Y-88684499D01*
X147850180Y-88721995D01*
X147831708Y-88756554D01*
X147806847Y-88786847D01*
X147776554Y-88811708D01*
X147741995Y-88830180D01*
X147704499Y-88841555D01*
X147659362Y-88846000D01*
X146920638Y-88846000D01*
X146875501Y-88841555D01*
X146838005Y-88830180D01*
X146803446Y-88811708D01*
X146773153Y-88786847D01*
X146748292Y-88756554D01*
X146729820Y-88721995D01*
X146718445Y-88684499D01*
X146714000Y-88639362D01*
X146714000Y-88000638D01*
X146718445Y-87955501D01*
X146729820Y-87918005D01*
X146748292Y-87883446D01*
X146773153Y-87853153D01*
X146803446Y-87828292D01*
X146838005Y-87809820D01*
X146875501Y-87798445D01*
X146920638Y-87794000D01*
X147659362Y-87794000D01*
X147704499Y-87798445D01*
X147704499Y-87798445D01*
G37*
G36*
X146703062Y-84998181D02*
G01*
X146737981Y-85008774D01*
X146770163Y-85025976D01*
X146798373Y-85049127D01*
X146821524Y-85077337D01*
X146838726Y-85109519D01*
X146849319Y-85144438D01*
X146853500Y-85186895D01*
X146853500Y-86653105D01*
X146849319Y-86695562D01*
X146838726Y-86730481D01*
X146821524Y-86762663D01*
X146798373Y-86790873D01*
X146770163Y-86814024D01*
X146737981Y-86831226D01*
X146703062Y-86841819D01*
X146660605Y-86846000D01*
X145519395Y-86846000D01*
X145476938Y-86841819D01*
X145442019Y-86831226D01*
X145409837Y-86814024D01*
X145381627Y-86790873D01*
X145358476Y-86762663D01*
X145341274Y-86730481D01*
X145330681Y-86695562D01*
X145326500Y-86653105D01*
X145326500Y-85186895D01*
X145330681Y-85144438D01*
X145341274Y-85109519D01*
X145358476Y-85077337D01*
X145381627Y-85049127D01*
X145409837Y-85025976D01*
X145442019Y-85008774D01*
X145476938Y-84998181D01*
X145519395Y-84994000D01*
X146660605Y-84994000D01*
X146703062Y-84998181D01*
X146703062Y-84998181D01*
G37*
G36*
X149678062Y-84998181D02*
G01*
X149712981Y-85008774D01*
X149745163Y-85025976D01*
X149773373Y-85049127D01*
X149796524Y-85077337D01*
X149813726Y-85109519D01*
X149824319Y-85144438D01*
X149828500Y-85186895D01*
X149828500Y-86653105D01*
X149824319Y-86695562D01*
X149813726Y-86730481D01*
X149796524Y-86762663D01*
X149773373Y-86790873D01*
X149745163Y-86814024D01*
X149712981Y-86831226D01*
X149678062Y-86841819D01*
X149635605Y-86846000D01*
X148494395Y-86846000D01*
X148451938Y-86841819D01*
X148417019Y-86831226D01*
X148384837Y-86814024D01*
X148356627Y-86790873D01*
X148333476Y-86762663D01*
X148316274Y-86730481D01*
X148305681Y-86695562D01*
X148301500Y-86653105D01*
X148301500Y-85186895D01*
X148305681Y-85144438D01*
X148316274Y-85109519D01*
X148333476Y-85077337D01*
X148356627Y-85049127D01*
X148384837Y-85025976D01*
X148417019Y-85008774D01*
X148451938Y-84998181D01*
X148494395Y-84994000D01*
X149635605Y-84994000D01*
X149678062Y-84998181D01*
X149678062Y-84998181D01*
G37*
G36*
X147801000Y-83161000D02*
G01*
X143899000Y-83161000D01*
X143899000Y-81059000D01*
X147801000Y-81059000D01*
X147801000Y-83161000D01*
X147801000Y-83161000D01*
G37*
G36*
X157751000Y-82091000D02*
G01*
X155149000Y-82091000D01*
X155149000Y-79489000D01*
X157751000Y-79489000D01*
X157751000Y-82091000D01*
X157751000Y-82091000D01*
G37*
G36*
X157751000Y-77931000D02*
G01*
X155149000Y-77931000D01*
X155149000Y-75329000D01*
X157751000Y-75329000D01*
X157751000Y-77931000D01*
X157751000Y-77931000D01*
G37*
G36*
X151484499Y-76533445D02*
G01*
X151521995Y-76544820D01*
X151556554Y-76563292D01*
X151586847Y-76588153D01*
X151611708Y-76618446D01*
X151630180Y-76653005D01*
X151641555Y-76690501D01*
X151646000Y-76735638D01*
X151646000Y-77474362D01*
X151641555Y-77519499D01*
X151630180Y-77556995D01*
X151611708Y-77591554D01*
X151586847Y-77621847D01*
X151556554Y-77646708D01*
X151521995Y-77665180D01*
X151484499Y-77676555D01*
X151439362Y-77681000D01*
X150800638Y-77681000D01*
X150755501Y-77676555D01*
X150718005Y-77665180D01*
X150683446Y-77646708D01*
X150653153Y-77621847D01*
X150628292Y-77591554D01*
X150609820Y-77556995D01*
X150598445Y-77519499D01*
X150594000Y-77474362D01*
X150594000Y-76735638D01*
X150598445Y-76690501D01*
X150609820Y-76653005D01*
X150628292Y-76618446D01*
X150653153Y-76588153D01*
X150683446Y-76563292D01*
X150718005Y-76544820D01*
X150755501Y-76533445D01*
X150800638Y-76529000D01*
X151439362Y-76529000D01*
X151484499Y-76533445D01*
X151484499Y-76533445D01*
G37*
G36*
X141184499Y-76498445D02*
G01*
X141221995Y-76509820D01*
X141256554Y-76528292D01*
X141286847Y-76553153D01*
X141311708Y-76583446D01*
X141330180Y-76618005D01*
X141341555Y-76655501D01*
X141346000Y-76700638D01*
X141346000Y-77439362D01*
X141341555Y-77484499D01*
X141330180Y-77521995D01*
X141311708Y-77556554D01*
X141286847Y-77586847D01*
X141256554Y-77611708D01*
X141221995Y-77630180D01*
X141184499Y-77641555D01*
X141139362Y-77646000D01*
X140500638Y-77646000D01*
X140455501Y-77641555D01*
X140418005Y-77630180D01*
X140383446Y-77611708D01*
X140353153Y-77586847D01*
X140328292Y-77556554D01*
X140309820Y-77521995D01*
X140298445Y-77484499D01*
X140294000Y-77439362D01*
X140294000Y-76700638D01*
X140298445Y-76655501D01*
X140309820Y-76618005D01*
X140328292Y-76583446D01*
X140353153Y-76553153D01*
X140383446Y-76528292D01*
X140418005Y-76509820D01*
X140455501Y-76498445D01*
X140500638Y-76494000D01*
X141139362Y-76494000D01*
X141184499Y-76498445D01*
X141184499Y-76498445D01*
G37*
G36*
X139334499Y-76498445D02*
G01*
X139371995Y-76509820D01*
X139406554Y-76528292D01*
X139436847Y-76553153D01*
X139461708Y-76583446D01*
X139480180Y-76618005D01*
X139491555Y-76655501D01*
X139496000Y-76700638D01*
X139496000Y-77439362D01*
X139491555Y-77484499D01*
X139480180Y-77521995D01*
X139461708Y-77556554D01*
X139436847Y-77586847D01*
X139406554Y-77611708D01*
X139371995Y-77630180D01*
X139334499Y-77641555D01*
X139289362Y-77646000D01*
X138650638Y-77646000D01*
X138605501Y-77641555D01*
X138568005Y-77630180D01*
X138533446Y-77611708D01*
X138503153Y-77586847D01*
X138478292Y-77556554D01*
X138459820Y-77521995D01*
X138448445Y-77484499D01*
X138444000Y-77439362D01*
X138444000Y-76700638D01*
X138448445Y-76655501D01*
X138459820Y-76618005D01*
X138478292Y-76583446D01*
X138503153Y-76553153D01*
X138533446Y-76528292D01*
X138568005Y-76509820D01*
X138605501Y-76498445D01*
X138650638Y-76494000D01*
X139289362Y-76494000D01*
X139334499Y-76498445D01*
X139334499Y-76498445D01*
G37*
G36*
X146651000Y-76861000D02*
G01*
X145049000Y-76861000D01*
X145049000Y-74759000D01*
X146651000Y-74759000D01*
X146651000Y-76861000D01*
X146651000Y-76861000D01*
G37*
G36*
X148951000Y-76861000D02*
G01*
X147349000Y-76861000D01*
X147349000Y-74759000D01*
X148951000Y-74759000D01*
X148951000Y-76861000D01*
X148951000Y-76861000D01*
G37*
G36*
X144351000Y-76861000D02*
G01*
X142749000Y-76861000D01*
X142749000Y-74759000D01*
X144351000Y-74759000D01*
X144351000Y-76861000D01*
X144351000Y-76861000D01*
G37*
G36*
X151484499Y-74783445D02*
G01*
X151521995Y-74794820D01*
X151556554Y-74813292D01*
X151586847Y-74838153D01*
X151611708Y-74868446D01*
X151630180Y-74903005D01*
X151641555Y-74940501D01*
X151646000Y-74985638D01*
X151646000Y-75724362D01*
X151641555Y-75769499D01*
X151630180Y-75806995D01*
X151611708Y-75841554D01*
X151586847Y-75871847D01*
X151556554Y-75896708D01*
X151521995Y-75915180D01*
X151484499Y-75926555D01*
X151439362Y-75931000D01*
X150800638Y-75931000D01*
X150755501Y-75926555D01*
X150718005Y-75915180D01*
X150683446Y-75896708D01*
X150653153Y-75871847D01*
X150628292Y-75841554D01*
X150609820Y-75806995D01*
X150598445Y-75769499D01*
X150594000Y-75724362D01*
X150594000Y-74985638D01*
X150598445Y-74940501D01*
X150609820Y-74903005D01*
X150628292Y-74868446D01*
X150653153Y-74838153D01*
X150683446Y-74813292D01*
X150718005Y-74794820D01*
X150755501Y-74783445D01*
X150800638Y-74779000D01*
X151439362Y-74779000D01*
X151484499Y-74783445D01*
X151484499Y-74783445D01*
G37*
G36*
X141184499Y-74748445D02*
G01*
X141221995Y-74759820D01*
X141256554Y-74778292D01*
X141286847Y-74803153D01*
X141311708Y-74833446D01*
X141330180Y-74868005D01*
X141341555Y-74905501D01*
X141346000Y-74950638D01*
X141346000Y-75689362D01*
X141341555Y-75734499D01*
X141330180Y-75771995D01*
X141311708Y-75806554D01*
X141286847Y-75836847D01*
X141256554Y-75861708D01*
X141221995Y-75880180D01*
X141184499Y-75891555D01*
X141139362Y-75896000D01*
X140500638Y-75896000D01*
X140455501Y-75891555D01*
X140418005Y-75880180D01*
X140383446Y-75861708D01*
X140353153Y-75836847D01*
X140328292Y-75806554D01*
X140309820Y-75771995D01*
X140298445Y-75734499D01*
X140294000Y-75689362D01*
X140294000Y-74950638D01*
X140298445Y-74905501D01*
X140309820Y-74868005D01*
X140328292Y-74833446D01*
X140353153Y-74803153D01*
X140383446Y-74778292D01*
X140418005Y-74759820D01*
X140455501Y-74748445D01*
X140500638Y-74744000D01*
X141139362Y-74744000D01*
X141184499Y-74748445D01*
X141184499Y-74748445D01*
G37*
G36*
X139334499Y-74748445D02*
G01*
X139371995Y-74759820D01*
X139406554Y-74778292D01*
X139436847Y-74803153D01*
X139461708Y-74833446D01*
X139480180Y-74868005D01*
X139491555Y-74905501D01*
X139496000Y-74950638D01*
X139496000Y-75689362D01*
X139491555Y-75734499D01*
X139480180Y-75771995D01*
X139461708Y-75806554D01*
X139436847Y-75836847D01*
X139406554Y-75861708D01*
X139371995Y-75880180D01*
X139334499Y-75891555D01*
X139289362Y-75896000D01*
X138650638Y-75896000D01*
X138605501Y-75891555D01*
X138568005Y-75880180D01*
X138533446Y-75861708D01*
X138503153Y-75836847D01*
X138478292Y-75806554D01*
X138459820Y-75771995D01*
X138448445Y-75734499D01*
X138444000Y-75689362D01*
X138444000Y-74950638D01*
X138448445Y-74905501D01*
X138459820Y-74868005D01*
X138478292Y-74833446D01*
X138503153Y-74803153D01*
X138533446Y-74778292D01*
X138568005Y-74759820D01*
X138605501Y-74748445D01*
X138650638Y-74744000D01*
X139289362Y-74744000D01*
X139334499Y-74748445D01*
X139334499Y-74748445D01*
G37*
G36*
X157751000Y-73711000D02*
G01*
X155149000Y-73711000D01*
X155149000Y-71109000D01*
X157751000Y-71109000D01*
X157751000Y-73711000D01*
X157751000Y-73711000D01*
G37*
G36*
X157791000Y-69381000D02*
G01*
X155189000Y-69381000D01*
X155189000Y-66779000D01*
X157791000Y-66779000D01*
X157791000Y-69381000D01*
X157791000Y-69381000D01*
G37*
G36*
X157801000Y-65081000D02*
G01*
X155199000Y-65081000D01*
X155199000Y-62479000D01*
X157801000Y-62479000D01*
X157801000Y-65081000D01*
X157801000Y-65081000D01*
G37*
G36*
X148801000Y-44179001D02*
G01*
X148803402Y-44203387D01*
X148810515Y-44226836D01*
X148822066Y-44248447D01*
X148837611Y-44267389D01*
X148856553Y-44282934D01*
X148878164Y-44294485D01*
X148901613Y-44301598D01*
X148925999Y-44304000D01*
X149061000Y-44304000D01*
X149061000Y-57936000D01*
X148925999Y-57936000D01*
X148901613Y-57938402D01*
X148878164Y-57945515D01*
X148856553Y-57957066D01*
X148837611Y-57972611D01*
X148822066Y-57991553D01*
X148810515Y-58013164D01*
X148803402Y-58036613D01*
X148801000Y-58060999D01*
X148801000Y-58826000D01*
X147699000Y-58826000D01*
X147699000Y-58174000D01*
X147984001Y-58174000D01*
X148008387Y-58171598D01*
X148031836Y-58164485D01*
X148053447Y-58152934D01*
X148072389Y-58137389D01*
X148087934Y-58118447D01*
X148099485Y-58096836D01*
X148106598Y-58073387D01*
X148109000Y-58049001D01*
X148109000Y-44190999D01*
X148106598Y-44166613D01*
X148099485Y-44143164D01*
X148087934Y-44121553D01*
X148072389Y-44102611D01*
X148053447Y-44087066D01*
X148031836Y-44075515D01*
X148008387Y-44068402D01*
X147984001Y-44066000D01*
X147699000Y-44066000D01*
X147699000Y-43414000D01*
X148801000Y-43414000D01*
X148801000Y-44179001D01*
X148801000Y-44179001D01*
G37*
G36*
X146101000Y-57616000D02*
G01*
X145299000Y-57616000D01*
X145299000Y-44584000D01*
X146101000Y-44584000D01*
X146101000Y-57616000D01*
X146101000Y-57616000D01*
G37*
G36*
X148574499Y-40428445D02*
G01*
X148611995Y-40439820D01*
X148646554Y-40458292D01*
X148676847Y-40483153D01*
X148701708Y-40513446D01*
X148720180Y-40548005D01*
X148731555Y-40585501D01*
X148736000Y-40630638D01*
X148736000Y-41269362D01*
X148731555Y-41314499D01*
X148720180Y-41351995D01*
X148701708Y-41386554D01*
X148676847Y-41416847D01*
X148646554Y-41441708D01*
X148611995Y-41460180D01*
X148574499Y-41471555D01*
X148529362Y-41476000D01*
X147790638Y-41476000D01*
X147745501Y-41471555D01*
X147708005Y-41460180D01*
X147673446Y-41441708D01*
X147643153Y-41416847D01*
X147618292Y-41386554D01*
X147599820Y-41351995D01*
X147588445Y-41314499D01*
X147584000Y-41269362D01*
X147584000Y-40630638D01*
X147588445Y-40585501D01*
X147599820Y-40548005D01*
X147618292Y-40513446D01*
X147643153Y-40483153D01*
X147673446Y-40458292D01*
X147708005Y-40439820D01*
X147745501Y-40428445D01*
X147790638Y-40424000D01*
X148529362Y-40424000D01*
X148574499Y-40428445D01*
X148574499Y-40428445D01*
G37*
G36*
X146824499Y-40428445D02*
G01*
X146861995Y-40439820D01*
X146896554Y-40458292D01*
X146926847Y-40483153D01*
X146951708Y-40513446D01*
X146970180Y-40548005D01*
X146981555Y-40585501D01*
X146986000Y-40630638D01*
X146986000Y-41269362D01*
X146981555Y-41314499D01*
X146970180Y-41351995D01*
X146951708Y-41386554D01*
X146926847Y-41416847D01*
X146896554Y-41441708D01*
X146861995Y-41460180D01*
X146824499Y-41471555D01*
X146779362Y-41476000D01*
X146040638Y-41476000D01*
X145995501Y-41471555D01*
X145958005Y-41460180D01*
X145923446Y-41441708D01*
X145893153Y-41416847D01*
X145868292Y-41386554D01*
X145849820Y-41351995D01*
X145838445Y-41314499D01*
X145834000Y-41269362D01*
X145834000Y-40630638D01*
X145838445Y-40585501D01*
X145849820Y-40548005D01*
X145868292Y-40513446D01*
X145893153Y-40483153D01*
X145923446Y-40458292D01*
X145958005Y-40439820D01*
X145995501Y-40428445D01*
X146040638Y-40424000D01*
X146779362Y-40424000D01*
X146824499Y-40428445D01*
X146824499Y-40428445D01*
G37*
G36*
X121551000Y-37301000D02*
G01*
X120449000Y-37301000D01*
X120449000Y-34049000D01*
X121551000Y-34049000D01*
X121551000Y-37301000D01*
X121551000Y-37301000D01*
G37*
G36*
X113931000Y-37301000D02*
G01*
X112829000Y-37301000D01*
X112829000Y-34049000D01*
X113931000Y-34049000D01*
X113931000Y-37301000D01*
X113931000Y-37301000D01*
G37*
G36*
X111391000Y-37301000D02*
G01*
X110289000Y-37301000D01*
X110289000Y-34049000D01*
X111391000Y-34049000D01*
X111391000Y-37301000D01*
X111391000Y-37301000D01*
G37*
G36*
X108851000Y-37301000D02*
G01*
X107749000Y-37301000D01*
X107749000Y-34049000D01*
X108851000Y-34049000D01*
X108851000Y-37301000D01*
X108851000Y-37301000D01*
G37*
G36*
X106311000Y-37301000D02*
G01*
X105209000Y-37301000D01*
X105209000Y-34049000D01*
X106311000Y-34049000D01*
X106311000Y-37301000D01*
X106311000Y-37301000D01*
G37*
G36*
X116471000Y-37301000D02*
G01*
X115369000Y-37301000D01*
X115369000Y-34049000D01*
X116471000Y-34049000D01*
X116471000Y-37301000D01*
X116471000Y-37301000D01*
G37*
G36*
X141871000Y-37301000D02*
G01*
X140769000Y-37301000D01*
X140769000Y-34049000D01*
X141871000Y-34049000D01*
X141871000Y-37301000D01*
X141871000Y-37301000D01*
G37*
G36*
X119011000Y-37301000D02*
G01*
X117909000Y-37301000D01*
X117909000Y-34049000D01*
X119011000Y-34049000D01*
X119011000Y-37301000D01*
X119011000Y-37301000D01*
G37*
G36*
X144411000Y-37301000D02*
G01*
X143309000Y-37301000D01*
X143309000Y-34049000D01*
X144411000Y-34049000D01*
X144411000Y-37301000D01*
X144411000Y-37301000D01*
G37*
G36*
X139331000Y-37301000D02*
G01*
X138229000Y-37301000D01*
X138229000Y-34049000D01*
X139331000Y-34049000D01*
X139331000Y-37301000D01*
X139331000Y-37301000D01*
G37*
G36*
X136791000Y-37301000D02*
G01*
X135689000Y-37301000D01*
X135689000Y-34049000D01*
X136791000Y-34049000D01*
X136791000Y-37301000D01*
X136791000Y-37301000D01*
G37*
G36*
X134251000Y-37301000D02*
G01*
X133149000Y-37301000D01*
X133149000Y-34049000D01*
X134251000Y-34049000D01*
X134251000Y-37301000D01*
X134251000Y-37301000D01*
G37*
G36*
X131711000Y-37301000D02*
G01*
X130609000Y-37301000D01*
X130609000Y-34049000D01*
X131711000Y-34049000D01*
X131711000Y-37301000D01*
X131711000Y-37301000D01*
G37*
G36*
X129171000Y-37301000D02*
G01*
X128069000Y-37301000D01*
X128069000Y-34049000D01*
X129171000Y-34049000D01*
X129171000Y-37301000D01*
X129171000Y-37301000D01*
G37*
G36*
X124091000Y-37301000D02*
G01*
X122989000Y-37301000D01*
X122989000Y-34049000D01*
X124091000Y-34049000D01*
X124091000Y-37301000D01*
X124091000Y-37301000D01*
G37*
G36*
X126631000Y-37301000D02*
G01*
X125529000Y-37301000D01*
X125529000Y-34049000D01*
X126631000Y-34049000D01*
X126631000Y-37301000D01*
X126631000Y-37301000D01*
G37*
G36*
X116471000Y-32251000D02*
G01*
X115369000Y-32251000D01*
X115369000Y-28999000D01*
X116471000Y-28999000D01*
X116471000Y-32251000D01*
X116471000Y-32251000D01*
G37*
G36*
X144411000Y-32251000D02*
G01*
X143309000Y-32251000D01*
X143309000Y-28999000D01*
X144411000Y-28999000D01*
X144411000Y-32251000D01*
X144411000Y-32251000D01*
G37*
G36*
X141871000Y-32251000D02*
G01*
X140769000Y-32251000D01*
X140769000Y-28999000D01*
X141871000Y-28999000D01*
X141871000Y-32251000D01*
X141871000Y-32251000D01*
G37*
G36*
X139331000Y-32251000D02*
G01*
X138229000Y-32251000D01*
X138229000Y-28999000D01*
X139331000Y-28999000D01*
X139331000Y-32251000D01*
X139331000Y-32251000D01*
G37*
G36*
X136791000Y-32251000D02*
G01*
X135689000Y-32251000D01*
X135689000Y-28999000D01*
X136791000Y-28999000D01*
X136791000Y-32251000D01*
X136791000Y-32251000D01*
G37*
G36*
X134251000Y-32251000D02*
G01*
X133149000Y-32251000D01*
X133149000Y-28999000D01*
X134251000Y-28999000D01*
X134251000Y-32251000D01*
X134251000Y-32251000D01*
G37*
G36*
X129171000Y-32251000D02*
G01*
X128069000Y-32251000D01*
X128069000Y-28999000D01*
X129171000Y-28999000D01*
X129171000Y-32251000D01*
X129171000Y-32251000D01*
G37*
G36*
X131711000Y-32251000D02*
G01*
X130609000Y-32251000D01*
X130609000Y-28999000D01*
X131711000Y-28999000D01*
X131711000Y-32251000D01*
X131711000Y-32251000D01*
G37*
G36*
X126631000Y-32251000D02*
G01*
X125529000Y-32251000D01*
X125529000Y-28999000D01*
X126631000Y-28999000D01*
X126631000Y-32251000D01*
X126631000Y-32251000D01*
G37*
G36*
X106311000Y-32251000D02*
G01*
X105209000Y-32251000D01*
X105209000Y-28999000D01*
X106311000Y-28999000D01*
X106311000Y-32251000D01*
X106311000Y-32251000D01*
G37*
G36*
X124091000Y-32251000D02*
G01*
X122989000Y-32251000D01*
X122989000Y-28999000D01*
X124091000Y-28999000D01*
X124091000Y-32251000D01*
X124091000Y-32251000D01*
G37*
G36*
X108851000Y-32251000D02*
G01*
X107749000Y-32251000D01*
X107749000Y-28999000D01*
X108851000Y-28999000D01*
X108851000Y-32251000D01*
X108851000Y-32251000D01*
G37*
G36*
X111391000Y-32251000D02*
G01*
X110289000Y-32251000D01*
X110289000Y-28999000D01*
X111391000Y-28999000D01*
X111391000Y-32251000D01*
X111391000Y-32251000D01*
G37*
G36*
X121551000Y-32251000D02*
G01*
X120449000Y-32251000D01*
X120449000Y-28999000D01*
X121551000Y-28999000D01*
X121551000Y-32251000D01*
X121551000Y-32251000D01*
G37*
G36*
X113931000Y-32251000D02*
G01*
X112829000Y-32251000D01*
X112829000Y-28999000D01*
X113931000Y-28999000D01*
X113931000Y-32251000D01*
X113931000Y-32251000D01*
G37*
G36*
X119011000Y-32251000D02*
G01*
X117909000Y-32251000D01*
X117909000Y-28999000D01*
X119011000Y-28999000D01*
X119011000Y-32251000D01*
X119011000Y-32251000D01*
G37*
G36*
X92817021Y-26306640D02*
G01*
X93326769Y-26517785D01*
X93326771Y-26517786D01*
X93785534Y-26824321D01*
X94175679Y-27214466D01*
X94482214Y-27673229D01*
X94482215Y-27673231D01*
X94693360Y-28182979D01*
X94801000Y-28724124D01*
X94801000Y-29275876D01*
X94693360Y-29817021D01*
X94482215Y-30326769D01*
X94482214Y-30326771D01*
X94175679Y-30785534D01*
X93785534Y-31175679D01*
X93326771Y-31482214D01*
X93326770Y-31482215D01*
X93326769Y-31482215D01*
X92817021Y-31693360D01*
X92275876Y-31801000D01*
X91724124Y-31801000D01*
X91182979Y-31693360D01*
X90673231Y-31482215D01*
X90673230Y-31482215D01*
X90673229Y-31482214D01*
X90214466Y-31175679D01*
X89824321Y-30785534D01*
X89517786Y-30326771D01*
X89517785Y-30326769D01*
X89306640Y-29817021D01*
X89199000Y-29275876D01*
X89199000Y-28724124D01*
X89306640Y-28182979D01*
X89517785Y-27673231D01*
X89517786Y-27673229D01*
X89824321Y-27214466D01*
X90214466Y-26824321D01*
X90673229Y-26517786D01*
X90673231Y-26517785D01*
X91182979Y-26306640D01*
X91724124Y-26199000D01*
X92275876Y-26199000D01*
X92817021Y-26306640D01*
X92817021Y-26306640D01*
G37*
G36*
X157017021Y-26306640D02*
G01*
X157526769Y-26517785D01*
X157526771Y-26517786D01*
X157985534Y-26824321D01*
X158375679Y-27214466D01*
X158682214Y-27673229D01*
X158682215Y-27673231D01*
X158893360Y-28182979D01*
X159001000Y-28724124D01*
X159001000Y-29275876D01*
X158893360Y-29817021D01*
X158682215Y-30326769D01*
X158682214Y-30326771D01*
X158375679Y-30785534D01*
X157985534Y-31175679D01*
X157526771Y-31482214D01*
X157526770Y-31482215D01*
X157526769Y-31482215D01*
X157017021Y-31693360D01*
X156475876Y-31801000D01*
X155924124Y-31801000D01*
X155382979Y-31693360D01*
X154873231Y-31482215D01*
X154873230Y-31482215D01*
X154873229Y-31482214D01*
X154414466Y-31175679D01*
X154024321Y-30785534D01*
X153717786Y-30326771D01*
X153717785Y-30326769D01*
X153506640Y-29817021D01*
X153399000Y-29275876D01*
X153399000Y-28724124D01*
X153506640Y-28182979D01*
X153717785Y-27673231D01*
X153717786Y-27673229D01*
X154024321Y-27214466D01*
X154414466Y-26824321D01*
X154873229Y-26517786D01*
X154873231Y-26517785D01*
X155382979Y-26306640D01*
X155924124Y-26199000D01*
X156475876Y-26199000D01*
X157017021Y-26306640D01*
X157017021Y-26306640D01*
G37*
M02*
