G04 #@! TF.GenerationSoftware,KiCad,Pcbnew,(5.1.4)-1*
G04 #@! TF.CreationDate,2019-11-28T17:08:10+08:00*
G04 #@! TF.ProjectId,FH26W-45S-0.3SHW,46483236-572d-4343-9553-2d302e335348,rev?*
G04 #@! TF.SameCoordinates,Original*
G04 #@! TF.FileFunction,Copper,L2,Bot*
G04 #@! TF.FilePolarity,Positive*
%FSLAX46Y46*%
G04 Gerber Fmt 4.6, Leading zero omitted, Abs format (unit mm)*
G04 Created by KiCad (PCBNEW (5.1.4)-1) date 2019-11-28 17:08:10*
%MOMM*%
%LPD*%
G04 APERTURE LIST*
%ADD10C,0.100000*%
%ADD11C,0.950000*%
%ADD12R,1.000000X3.150000*%
%ADD13R,0.300000X1.300000*%
%ADD14R,1.800000X2.200000*%
%ADD15R,1.000000X0.550000*%
%ADD16R,0.700000X0.330000*%
%ADD17R,0.850000X0.330000*%
%ADD18C,1.425000*%
%ADD19R,2.500000X2.500000*%
%ADD20R,0.650000X1.560000*%
%ADD21R,3.800000X2.000000*%
%ADD22R,1.500000X2.000000*%
%ADD23C,5.500000*%
%ADD24C,1.250000*%
%ADD25C,0.800000*%
%ADD26C,0.150000*%
%ADD27C,0.130000*%
%ADD28C,0.200000*%
%ADD29C,0.250000*%
%ADD30C,0.180000*%
%ADD31C,0.254000*%
G04 APERTURE END LIST*
D10*
G36*
X150200779Y-30606144D02*
G01*
X150223834Y-30609563D01*
X150246443Y-30615227D01*
X150268387Y-30623079D01*
X150289457Y-30633044D01*
X150309448Y-30645026D01*
X150328168Y-30658910D01*
X150345438Y-30674562D01*
X150361090Y-30691832D01*
X150374974Y-30710552D01*
X150386956Y-30730543D01*
X150396921Y-30751613D01*
X150404773Y-30773557D01*
X150410437Y-30796166D01*
X150413856Y-30819221D01*
X150415000Y-30842500D01*
X150415000Y-31317500D01*
X150413856Y-31340779D01*
X150410437Y-31363834D01*
X150404773Y-31386443D01*
X150396921Y-31408387D01*
X150386956Y-31429457D01*
X150374974Y-31449448D01*
X150361090Y-31468168D01*
X150345438Y-31485438D01*
X150328168Y-31501090D01*
X150309448Y-31514974D01*
X150289457Y-31526956D01*
X150268387Y-31536921D01*
X150246443Y-31544773D01*
X150223834Y-31550437D01*
X150200779Y-31553856D01*
X150177500Y-31555000D01*
X149602500Y-31555000D01*
X149579221Y-31553856D01*
X149556166Y-31550437D01*
X149533557Y-31544773D01*
X149511613Y-31536921D01*
X149490543Y-31526956D01*
X149470552Y-31514974D01*
X149451832Y-31501090D01*
X149434562Y-31485438D01*
X149418910Y-31468168D01*
X149405026Y-31449448D01*
X149393044Y-31429457D01*
X149383079Y-31408387D01*
X149375227Y-31386443D01*
X149369563Y-31363834D01*
X149366144Y-31340779D01*
X149365000Y-31317500D01*
X149365000Y-30842500D01*
X149366144Y-30819221D01*
X149369563Y-30796166D01*
X149375227Y-30773557D01*
X149383079Y-30751613D01*
X149393044Y-30730543D01*
X149405026Y-30710552D01*
X149418910Y-30691832D01*
X149434562Y-30674562D01*
X149451832Y-30658910D01*
X149470552Y-30645026D01*
X149490543Y-30633044D01*
X149511613Y-30623079D01*
X149533557Y-30615227D01*
X149556166Y-30609563D01*
X149579221Y-30606144D01*
X149602500Y-30605000D01*
X150177500Y-30605000D01*
X150200779Y-30606144D01*
X150200779Y-30606144D01*
G37*
D11*
X149890000Y-31080000D03*
D10*
G36*
X148450779Y-30606144D02*
G01*
X148473834Y-30609563D01*
X148496443Y-30615227D01*
X148518387Y-30623079D01*
X148539457Y-30633044D01*
X148559448Y-30645026D01*
X148578168Y-30658910D01*
X148595438Y-30674562D01*
X148611090Y-30691832D01*
X148624974Y-30710552D01*
X148636956Y-30730543D01*
X148646921Y-30751613D01*
X148654773Y-30773557D01*
X148660437Y-30796166D01*
X148663856Y-30819221D01*
X148665000Y-30842500D01*
X148665000Y-31317500D01*
X148663856Y-31340779D01*
X148660437Y-31363834D01*
X148654773Y-31386443D01*
X148646921Y-31408387D01*
X148636956Y-31429457D01*
X148624974Y-31449448D01*
X148611090Y-31468168D01*
X148595438Y-31485438D01*
X148578168Y-31501090D01*
X148559448Y-31514974D01*
X148539457Y-31526956D01*
X148518387Y-31536921D01*
X148496443Y-31544773D01*
X148473834Y-31550437D01*
X148450779Y-31553856D01*
X148427500Y-31555000D01*
X147852500Y-31555000D01*
X147829221Y-31553856D01*
X147806166Y-31550437D01*
X147783557Y-31544773D01*
X147761613Y-31536921D01*
X147740543Y-31526956D01*
X147720552Y-31514974D01*
X147701832Y-31501090D01*
X147684562Y-31485438D01*
X147668910Y-31468168D01*
X147655026Y-31449448D01*
X147643044Y-31429457D01*
X147633079Y-31408387D01*
X147625227Y-31386443D01*
X147619563Y-31363834D01*
X147616144Y-31340779D01*
X147615000Y-31317500D01*
X147615000Y-30842500D01*
X147616144Y-30819221D01*
X147619563Y-30796166D01*
X147625227Y-30773557D01*
X147633079Y-30751613D01*
X147643044Y-30730543D01*
X147655026Y-30710552D01*
X147668910Y-30691832D01*
X147684562Y-30674562D01*
X147701832Y-30658910D01*
X147720552Y-30645026D01*
X147740543Y-30633044D01*
X147761613Y-30623079D01*
X147783557Y-30615227D01*
X147806166Y-30609563D01*
X147829221Y-30606144D01*
X147852500Y-30605000D01*
X148427500Y-30605000D01*
X148450779Y-30606144D01*
X148450779Y-30606144D01*
G37*
D11*
X148140000Y-31080000D03*
D10*
G36*
X150220779Y-28516144D02*
G01*
X150243834Y-28519563D01*
X150266443Y-28525227D01*
X150288387Y-28533079D01*
X150309457Y-28543044D01*
X150329448Y-28555026D01*
X150348168Y-28568910D01*
X150365438Y-28584562D01*
X150381090Y-28601832D01*
X150394974Y-28620552D01*
X150406956Y-28640543D01*
X150416921Y-28661613D01*
X150424773Y-28683557D01*
X150430437Y-28706166D01*
X150433856Y-28729221D01*
X150435000Y-28752500D01*
X150435000Y-29227500D01*
X150433856Y-29250779D01*
X150430437Y-29273834D01*
X150424773Y-29296443D01*
X150416921Y-29318387D01*
X150406956Y-29339457D01*
X150394974Y-29359448D01*
X150381090Y-29378168D01*
X150365438Y-29395438D01*
X150348168Y-29411090D01*
X150329448Y-29424974D01*
X150309457Y-29436956D01*
X150288387Y-29446921D01*
X150266443Y-29454773D01*
X150243834Y-29460437D01*
X150220779Y-29463856D01*
X150197500Y-29465000D01*
X149622500Y-29465000D01*
X149599221Y-29463856D01*
X149576166Y-29460437D01*
X149553557Y-29454773D01*
X149531613Y-29446921D01*
X149510543Y-29436956D01*
X149490552Y-29424974D01*
X149471832Y-29411090D01*
X149454562Y-29395438D01*
X149438910Y-29378168D01*
X149425026Y-29359448D01*
X149413044Y-29339457D01*
X149403079Y-29318387D01*
X149395227Y-29296443D01*
X149389563Y-29273834D01*
X149386144Y-29250779D01*
X149385000Y-29227500D01*
X149385000Y-28752500D01*
X149386144Y-28729221D01*
X149389563Y-28706166D01*
X149395227Y-28683557D01*
X149403079Y-28661613D01*
X149413044Y-28640543D01*
X149425026Y-28620552D01*
X149438910Y-28601832D01*
X149454562Y-28584562D01*
X149471832Y-28568910D01*
X149490552Y-28555026D01*
X149510543Y-28543044D01*
X149531613Y-28533079D01*
X149553557Y-28525227D01*
X149576166Y-28519563D01*
X149599221Y-28516144D01*
X149622500Y-28515000D01*
X150197500Y-28515000D01*
X150220779Y-28516144D01*
X150220779Y-28516144D01*
G37*
D11*
X149910000Y-28990000D03*
D10*
G36*
X148470779Y-28516144D02*
G01*
X148493834Y-28519563D01*
X148516443Y-28525227D01*
X148538387Y-28533079D01*
X148559457Y-28543044D01*
X148579448Y-28555026D01*
X148598168Y-28568910D01*
X148615438Y-28584562D01*
X148631090Y-28601832D01*
X148644974Y-28620552D01*
X148656956Y-28640543D01*
X148666921Y-28661613D01*
X148674773Y-28683557D01*
X148680437Y-28706166D01*
X148683856Y-28729221D01*
X148685000Y-28752500D01*
X148685000Y-29227500D01*
X148683856Y-29250779D01*
X148680437Y-29273834D01*
X148674773Y-29296443D01*
X148666921Y-29318387D01*
X148656956Y-29339457D01*
X148644974Y-29359448D01*
X148631090Y-29378168D01*
X148615438Y-29395438D01*
X148598168Y-29411090D01*
X148579448Y-29424974D01*
X148559457Y-29436956D01*
X148538387Y-29446921D01*
X148516443Y-29454773D01*
X148493834Y-29460437D01*
X148470779Y-29463856D01*
X148447500Y-29465000D01*
X147872500Y-29465000D01*
X147849221Y-29463856D01*
X147826166Y-29460437D01*
X147803557Y-29454773D01*
X147781613Y-29446921D01*
X147760543Y-29436956D01*
X147740552Y-29424974D01*
X147721832Y-29411090D01*
X147704562Y-29395438D01*
X147688910Y-29378168D01*
X147675026Y-29359448D01*
X147663044Y-29339457D01*
X147653079Y-29318387D01*
X147645227Y-29296443D01*
X147639563Y-29273834D01*
X147636144Y-29250779D01*
X147635000Y-29227500D01*
X147635000Y-28752500D01*
X147636144Y-28729221D01*
X147639563Y-28706166D01*
X147645227Y-28683557D01*
X147653079Y-28661613D01*
X147663044Y-28640543D01*
X147675026Y-28620552D01*
X147688910Y-28601832D01*
X147704562Y-28584562D01*
X147721832Y-28568910D01*
X147740552Y-28555026D01*
X147760543Y-28543044D01*
X147781613Y-28533079D01*
X147803557Y-28525227D01*
X147826166Y-28519563D01*
X147849221Y-28516144D01*
X147872500Y-28515000D01*
X148447500Y-28515000D01*
X148470779Y-28516144D01*
X148470779Y-28516144D01*
G37*
D11*
X148160000Y-28990000D03*
D12*
X143860000Y-35675000D03*
X143860000Y-30625000D03*
X141320000Y-35675000D03*
X141320000Y-30625000D03*
X138780000Y-35675000D03*
X138780000Y-30625000D03*
X136240000Y-35675000D03*
X136240000Y-30625000D03*
X133700000Y-35675000D03*
X133700000Y-30625000D03*
X131160000Y-35675000D03*
X131160000Y-30625000D03*
X128620000Y-35675000D03*
X128620000Y-30625000D03*
X126080000Y-35675000D03*
X126080000Y-30625000D03*
X123540000Y-35675000D03*
X123540000Y-30625000D03*
X121000000Y-35675000D03*
X121000000Y-30625000D03*
X118460000Y-35675000D03*
X118460000Y-30625000D03*
X115920000Y-35675000D03*
X115920000Y-30625000D03*
X113380000Y-35675000D03*
X113380000Y-30625000D03*
X110840000Y-35675000D03*
X110840000Y-30625000D03*
X108300000Y-35675000D03*
X108300000Y-30625000D03*
X105760000Y-35675000D03*
X105760000Y-30625000D03*
D13*
X112150000Y-73544000D03*
X112650000Y-73544000D03*
X113150000Y-73544000D03*
X113650000Y-73544000D03*
X114150000Y-73544000D03*
X114650000Y-73544000D03*
X115150000Y-73544000D03*
X115650000Y-73544000D03*
X116150000Y-73544000D03*
X116650000Y-73544000D03*
X117150000Y-73544000D03*
X117650000Y-73544000D03*
X118150000Y-73544000D03*
X118650000Y-73544000D03*
X119150000Y-73544000D03*
X119650000Y-73544000D03*
X120150000Y-73544000D03*
X120650000Y-73544000D03*
X121150000Y-73544000D03*
X121650000Y-73544000D03*
X122150000Y-73544000D03*
X122650000Y-73544000D03*
X123150000Y-73544000D03*
X123650000Y-73544000D03*
X124150000Y-73544000D03*
X124650000Y-73544000D03*
X125150000Y-73544000D03*
X125650000Y-73544000D03*
X126150000Y-73544000D03*
X126650000Y-73544000D03*
X127150000Y-73544000D03*
X127650000Y-73544000D03*
X128150000Y-73544000D03*
X128650000Y-73544000D03*
X129150000Y-73544000D03*
X129650000Y-73544000D03*
X130150000Y-73544000D03*
X130650000Y-73544000D03*
X131150000Y-73544000D03*
X131650000Y-73544000D03*
D14*
X133550000Y-76794000D03*
X110250000Y-76794000D03*
D15*
X148250000Y-43740000D03*
X148250000Y-58500000D03*
D16*
X145700000Y-44800000D03*
X145700000Y-45400000D03*
X145700000Y-46000000D03*
X145700000Y-46600000D03*
X145700000Y-47200000D03*
X145700000Y-47800000D03*
X145700000Y-48400000D03*
X145700000Y-49000000D03*
X145700000Y-49600000D03*
X145700000Y-50200000D03*
X145700000Y-50800000D03*
X145700000Y-51400000D03*
X145700000Y-52000000D03*
X145700000Y-52600000D03*
X145700000Y-53200000D03*
X145700000Y-53800000D03*
X145700000Y-54400000D03*
X145700000Y-55000000D03*
X145700000Y-55600000D03*
X145700000Y-56200000D03*
X145700000Y-56800000D03*
X145700000Y-57400000D03*
D17*
X148585000Y-44520000D03*
X148585000Y-45120000D03*
X148585000Y-45720000D03*
X148585000Y-46320000D03*
X148585000Y-46920000D03*
X148585000Y-47520000D03*
X148585000Y-48120000D03*
X148585000Y-48720000D03*
X148585000Y-49320000D03*
X148585000Y-49920000D03*
X148585000Y-50520000D03*
X148585000Y-51120000D03*
X148585000Y-51720000D03*
X148585000Y-52320000D03*
X148585000Y-52920000D03*
X148585000Y-53520000D03*
X148585000Y-54120000D03*
X148585000Y-54720000D03*
X148585000Y-55320000D03*
X148585000Y-55920000D03*
X148585000Y-56520000D03*
X148585000Y-57120000D03*
X148585000Y-57720000D03*
D10*
G36*
X141010779Y-92706144D02*
G01*
X141033834Y-92709563D01*
X141056443Y-92715227D01*
X141078387Y-92723079D01*
X141099457Y-92733044D01*
X141119448Y-92745026D01*
X141138168Y-92758910D01*
X141155438Y-92774562D01*
X141171090Y-92791832D01*
X141184974Y-92810552D01*
X141196956Y-92830543D01*
X141206921Y-92851613D01*
X141214773Y-92873557D01*
X141220437Y-92896166D01*
X141223856Y-92919221D01*
X141225000Y-92942500D01*
X141225000Y-93517500D01*
X141223856Y-93540779D01*
X141220437Y-93563834D01*
X141214773Y-93586443D01*
X141206921Y-93608387D01*
X141196956Y-93629457D01*
X141184974Y-93649448D01*
X141171090Y-93668168D01*
X141155438Y-93685438D01*
X141138168Y-93701090D01*
X141119448Y-93714974D01*
X141099457Y-93726956D01*
X141078387Y-93736921D01*
X141056443Y-93744773D01*
X141033834Y-93750437D01*
X141010779Y-93753856D01*
X140987500Y-93755000D01*
X140512500Y-93755000D01*
X140489221Y-93753856D01*
X140466166Y-93750437D01*
X140443557Y-93744773D01*
X140421613Y-93736921D01*
X140400543Y-93726956D01*
X140380552Y-93714974D01*
X140361832Y-93701090D01*
X140344562Y-93685438D01*
X140328910Y-93668168D01*
X140315026Y-93649448D01*
X140303044Y-93629457D01*
X140293079Y-93608387D01*
X140285227Y-93586443D01*
X140279563Y-93563834D01*
X140276144Y-93540779D01*
X140275000Y-93517500D01*
X140275000Y-92942500D01*
X140276144Y-92919221D01*
X140279563Y-92896166D01*
X140285227Y-92873557D01*
X140293079Y-92851613D01*
X140303044Y-92830543D01*
X140315026Y-92810552D01*
X140328910Y-92791832D01*
X140344562Y-92774562D01*
X140361832Y-92758910D01*
X140380552Y-92745026D01*
X140400543Y-92733044D01*
X140421613Y-92723079D01*
X140443557Y-92715227D01*
X140466166Y-92709563D01*
X140489221Y-92706144D01*
X140512500Y-92705000D01*
X140987500Y-92705000D01*
X141010779Y-92706144D01*
X141010779Y-92706144D01*
G37*
D11*
X140750000Y-93230000D03*
D10*
G36*
X141010779Y-90956144D02*
G01*
X141033834Y-90959563D01*
X141056443Y-90965227D01*
X141078387Y-90973079D01*
X141099457Y-90983044D01*
X141119448Y-90995026D01*
X141138168Y-91008910D01*
X141155438Y-91024562D01*
X141171090Y-91041832D01*
X141184974Y-91060552D01*
X141196956Y-91080543D01*
X141206921Y-91101613D01*
X141214773Y-91123557D01*
X141220437Y-91146166D01*
X141223856Y-91169221D01*
X141225000Y-91192500D01*
X141225000Y-91767500D01*
X141223856Y-91790779D01*
X141220437Y-91813834D01*
X141214773Y-91836443D01*
X141206921Y-91858387D01*
X141196956Y-91879457D01*
X141184974Y-91899448D01*
X141171090Y-91918168D01*
X141155438Y-91935438D01*
X141138168Y-91951090D01*
X141119448Y-91964974D01*
X141099457Y-91976956D01*
X141078387Y-91986921D01*
X141056443Y-91994773D01*
X141033834Y-92000437D01*
X141010779Y-92003856D01*
X140987500Y-92005000D01*
X140512500Y-92005000D01*
X140489221Y-92003856D01*
X140466166Y-92000437D01*
X140443557Y-91994773D01*
X140421613Y-91986921D01*
X140400543Y-91976956D01*
X140380552Y-91964974D01*
X140361832Y-91951090D01*
X140344562Y-91935438D01*
X140328910Y-91918168D01*
X140315026Y-91899448D01*
X140303044Y-91879457D01*
X140293079Y-91858387D01*
X140285227Y-91836443D01*
X140279563Y-91813834D01*
X140276144Y-91790779D01*
X140275000Y-91767500D01*
X140275000Y-91192500D01*
X140276144Y-91169221D01*
X140279563Y-91146166D01*
X140285227Y-91123557D01*
X140293079Y-91101613D01*
X140303044Y-91080543D01*
X140315026Y-91060552D01*
X140328910Y-91041832D01*
X140344562Y-91024562D01*
X140361832Y-91008910D01*
X140380552Y-90995026D01*
X140400543Y-90983044D01*
X140421613Y-90973079D01*
X140443557Y-90965227D01*
X140466166Y-90959563D01*
X140489221Y-90956144D01*
X140512500Y-90955000D01*
X140987500Y-90955000D01*
X141010779Y-90956144D01*
X141010779Y-90956144D01*
G37*
D11*
X140750000Y-91480000D03*
D10*
G36*
X151380779Y-74831144D02*
G01*
X151403834Y-74834563D01*
X151426443Y-74840227D01*
X151448387Y-74848079D01*
X151469457Y-74858044D01*
X151489448Y-74870026D01*
X151508168Y-74883910D01*
X151525438Y-74899562D01*
X151541090Y-74916832D01*
X151554974Y-74935552D01*
X151566956Y-74955543D01*
X151576921Y-74976613D01*
X151584773Y-74998557D01*
X151590437Y-75021166D01*
X151593856Y-75044221D01*
X151595000Y-75067500D01*
X151595000Y-75642500D01*
X151593856Y-75665779D01*
X151590437Y-75688834D01*
X151584773Y-75711443D01*
X151576921Y-75733387D01*
X151566956Y-75754457D01*
X151554974Y-75774448D01*
X151541090Y-75793168D01*
X151525438Y-75810438D01*
X151508168Y-75826090D01*
X151489448Y-75839974D01*
X151469457Y-75851956D01*
X151448387Y-75861921D01*
X151426443Y-75869773D01*
X151403834Y-75875437D01*
X151380779Y-75878856D01*
X151357500Y-75880000D01*
X150882500Y-75880000D01*
X150859221Y-75878856D01*
X150836166Y-75875437D01*
X150813557Y-75869773D01*
X150791613Y-75861921D01*
X150770543Y-75851956D01*
X150750552Y-75839974D01*
X150731832Y-75826090D01*
X150714562Y-75810438D01*
X150698910Y-75793168D01*
X150685026Y-75774448D01*
X150673044Y-75754457D01*
X150663079Y-75733387D01*
X150655227Y-75711443D01*
X150649563Y-75688834D01*
X150646144Y-75665779D01*
X150645000Y-75642500D01*
X150645000Y-75067500D01*
X150646144Y-75044221D01*
X150649563Y-75021166D01*
X150655227Y-74998557D01*
X150663079Y-74976613D01*
X150673044Y-74955543D01*
X150685026Y-74935552D01*
X150698910Y-74916832D01*
X150714562Y-74899562D01*
X150731832Y-74883910D01*
X150750552Y-74870026D01*
X150770543Y-74858044D01*
X150791613Y-74848079D01*
X150813557Y-74840227D01*
X150836166Y-74834563D01*
X150859221Y-74831144D01*
X150882500Y-74830000D01*
X151357500Y-74830000D01*
X151380779Y-74831144D01*
X151380779Y-74831144D01*
G37*
D11*
X151120000Y-75355000D03*
D10*
G36*
X151380779Y-76581144D02*
G01*
X151403834Y-76584563D01*
X151426443Y-76590227D01*
X151448387Y-76598079D01*
X151469457Y-76608044D01*
X151489448Y-76620026D01*
X151508168Y-76633910D01*
X151525438Y-76649562D01*
X151541090Y-76666832D01*
X151554974Y-76685552D01*
X151566956Y-76705543D01*
X151576921Y-76726613D01*
X151584773Y-76748557D01*
X151590437Y-76771166D01*
X151593856Y-76794221D01*
X151595000Y-76817500D01*
X151595000Y-77392500D01*
X151593856Y-77415779D01*
X151590437Y-77438834D01*
X151584773Y-77461443D01*
X151576921Y-77483387D01*
X151566956Y-77504457D01*
X151554974Y-77524448D01*
X151541090Y-77543168D01*
X151525438Y-77560438D01*
X151508168Y-77576090D01*
X151489448Y-77589974D01*
X151469457Y-77601956D01*
X151448387Y-77611921D01*
X151426443Y-77619773D01*
X151403834Y-77625437D01*
X151380779Y-77628856D01*
X151357500Y-77630000D01*
X150882500Y-77630000D01*
X150859221Y-77628856D01*
X150836166Y-77625437D01*
X150813557Y-77619773D01*
X150791613Y-77611921D01*
X150770543Y-77601956D01*
X150750552Y-77589974D01*
X150731832Y-77576090D01*
X150714562Y-77560438D01*
X150698910Y-77543168D01*
X150685026Y-77524448D01*
X150673044Y-77504457D01*
X150663079Y-77483387D01*
X150655227Y-77461443D01*
X150649563Y-77438834D01*
X150646144Y-77415779D01*
X150645000Y-77392500D01*
X150645000Y-76817500D01*
X150646144Y-76794221D01*
X150649563Y-76771166D01*
X150655227Y-76748557D01*
X150663079Y-76726613D01*
X150673044Y-76705543D01*
X150685026Y-76685552D01*
X150698910Y-76666832D01*
X150714562Y-76649562D01*
X150731832Y-76633910D01*
X150750552Y-76620026D01*
X150770543Y-76608044D01*
X150791613Y-76598079D01*
X150813557Y-76590227D01*
X150836166Y-76584563D01*
X150859221Y-76581144D01*
X150882500Y-76580000D01*
X151357500Y-76580000D01*
X151380779Y-76581144D01*
X151380779Y-76581144D01*
G37*
D11*
X151120000Y-77105000D03*
D10*
G36*
X139190779Y-92696144D02*
G01*
X139213834Y-92699563D01*
X139236443Y-92705227D01*
X139258387Y-92713079D01*
X139279457Y-92723044D01*
X139299448Y-92735026D01*
X139318168Y-92748910D01*
X139335438Y-92764562D01*
X139351090Y-92781832D01*
X139364974Y-92800552D01*
X139376956Y-92820543D01*
X139386921Y-92841613D01*
X139394773Y-92863557D01*
X139400437Y-92886166D01*
X139403856Y-92909221D01*
X139405000Y-92932500D01*
X139405000Y-93507500D01*
X139403856Y-93530779D01*
X139400437Y-93553834D01*
X139394773Y-93576443D01*
X139386921Y-93598387D01*
X139376956Y-93619457D01*
X139364974Y-93639448D01*
X139351090Y-93658168D01*
X139335438Y-93675438D01*
X139318168Y-93691090D01*
X139299448Y-93704974D01*
X139279457Y-93716956D01*
X139258387Y-93726921D01*
X139236443Y-93734773D01*
X139213834Y-93740437D01*
X139190779Y-93743856D01*
X139167500Y-93745000D01*
X138692500Y-93745000D01*
X138669221Y-93743856D01*
X138646166Y-93740437D01*
X138623557Y-93734773D01*
X138601613Y-93726921D01*
X138580543Y-93716956D01*
X138560552Y-93704974D01*
X138541832Y-93691090D01*
X138524562Y-93675438D01*
X138508910Y-93658168D01*
X138495026Y-93639448D01*
X138483044Y-93619457D01*
X138473079Y-93598387D01*
X138465227Y-93576443D01*
X138459563Y-93553834D01*
X138456144Y-93530779D01*
X138455000Y-93507500D01*
X138455000Y-92932500D01*
X138456144Y-92909221D01*
X138459563Y-92886166D01*
X138465227Y-92863557D01*
X138473079Y-92841613D01*
X138483044Y-92820543D01*
X138495026Y-92800552D01*
X138508910Y-92781832D01*
X138524562Y-92764562D01*
X138541832Y-92748910D01*
X138560552Y-92735026D01*
X138580543Y-92723044D01*
X138601613Y-92713079D01*
X138623557Y-92705227D01*
X138646166Y-92699563D01*
X138669221Y-92696144D01*
X138692500Y-92695000D01*
X139167500Y-92695000D01*
X139190779Y-92696144D01*
X139190779Y-92696144D01*
G37*
D11*
X138930000Y-93220000D03*
D10*
G36*
X139190779Y-90946144D02*
G01*
X139213834Y-90949563D01*
X139236443Y-90955227D01*
X139258387Y-90963079D01*
X139279457Y-90973044D01*
X139299448Y-90985026D01*
X139318168Y-90998910D01*
X139335438Y-91014562D01*
X139351090Y-91031832D01*
X139364974Y-91050552D01*
X139376956Y-91070543D01*
X139386921Y-91091613D01*
X139394773Y-91113557D01*
X139400437Y-91136166D01*
X139403856Y-91159221D01*
X139405000Y-91182500D01*
X139405000Y-91757500D01*
X139403856Y-91780779D01*
X139400437Y-91803834D01*
X139394773Y-91826443D01*
X139386921Y-91848387D01*
X139376956Y-91869457D01*
X139364974Y-91889448D01*
X139351090Y-91908168D01*
X139335438Y-91925438D01*
X139318168Y-91941090D01*
X139299448Y-91954974D01*
X139279457Y-91966956D01*
X139258387Y-91976921D01*
X139236443Y-91984773D01*
X139213834Y-91990437D01*
X139190779Y-91993856D01*
X139167500Y-91995000D01*
X138692500Y-91995000D01*
X138669221Y-91993856D01*
X138646166Y-91990437D01*
X138623557Y-91984773D01*
X138601613Y-91976921D01*
X138580543Y-91966956D01*
X138560552Y-91954974D01*
X138541832Y-91941090D01*
X138524562Y-91925438D01*
X138508910Y-91908168D01*
X138495026Y-91889448D01*
X138483044Y-91869457D01*
X138473079Y-91848387D01*
X138465227Y-91826443D01*
X138459563Y-91803834D01*
X138456144Y-91780779D01*
X138455000Y-91757500D01*
X138455000Y-91182500D01*
X138456144Y-91159221D01*
X138459563Y-91136166D01*
X138465227Y-91113557D01*
X138473079Y-91091613D01*
X138483044Y-91070543D01*
X138495026Y-91050552D01*
X138508910Y-91031832D01*
X138524562Y-91014562D01*
X138541832Y-90998910D01*
X138560552Y-90985026D01*
X138580543Y-90973044D01*
X138601613Y-90963079D01*
X138623557Y-90955227D01*
X138646166Y-90949563D01*
X138669221Y-90946144D01*
X138692500Y-90945000D01*
X139167500Y-90945000D01*
X139190779Y-90946144D01*
X139190779Y-90946144D01*
G37*
D11*
X138930000Y-91470000D03*
D10*
G36*
X141080779Y-76546144D02*
G01*
X141103834Y-76549563D01*
X141126443Y-76555227D01*
X141148387Y-76563079D01*
X141169457Y-76573044D01*
X141189448Y-76585026D01*
X141208168Y-76598910D01*
X141225438Y-76614562D01*
X141241090Y-76631832D01*
X141254974Y-76650552D01*
X141266956Y-76670543D01*
X141276921Y-76691613D01*
X141284773Y-76713557D01*
X141290437Y-76736166D01*
X141293856Y-76759221D01*
X141295000Y-76782500D01*
X141295000Y-77357500D01*
X141293856Y-77380779D01*
X141290437Y-77403834D01*
X141284773Y-77426443D01*
X141276921Y-77448387D01*
X141266956Y-77469457D01*
X141254974Y-77489448D01*
X141241090Y-77508168D01*
X141225438Y-77525438D01*
X141208168Y-77541090D01*
X141189448Y-77554974D01*
X141169457Y-77566956D01*
X141148387Y-77576921D01*
X141126443Y-77584773D01*
X141103834Y-77590437D01*
X141080779Y-77593856D01*
X141057500Y-77595000D01*
X140582500Y-77595000D01*
X140559221Y-77593856D01*
X140536166Y-77590437D01*
X140513557Y-77584773D01*
X140491613Y-77576921D01*
X140470543Y-77566956D01*
X140450552Y-77554974D01*
X140431832Y-77541090D01*
X140414562Y-77525438D01*
X140398910Y-77508168D01*
X140385026Y-77489448D01*
X140373044Y-77469457D01*
X140363079Y-77448387D01*
X140355227Y-77426443D01*
X140349563Y-77403834D01*
X140346144Y-77380779D01*
X140345000Y-77357500D01*
X140345000Y-76782500D01*
X140346144Y-76759221D01*
X140349563Y-76736166D01*
X140355227Y-76713557D01*
X140363079Y-76691613D01*
X140373044Y-76670543D01*
X140385026Y-76650552D01*
X140398910Y-76631832D01*
X140414562Y-76614562D01*
X140431832Y-76598910D01*
X140450552Y-76585026D01*
X140470543Y-76573044D01*
X140491613Y-76563079D01*
X140513557Y-76555227D01*
X140536166Y-76549563D01*
X140559221Y-76546144D01*
X140582500Y-76545000D01*
X141057500Y-76545000D01*
X141080779Y-76546144D01*
X141080779Y-76546144D01*
G37*
D11*
X140820000Y-77070000D03*
D10*
G36*
X141080779Y-74796144D02*
G01*
X141103834Y-74799563D01*
X141126443Y-74805227D01*
X141148387Y-74813079D01*
X141169457Y-74823044D01*
X141189448Y-74835026D01*
X141208168Y-74848910D01*
X141225438Y-74864562D01*
X141241090Y-74881832D01*
X141254974Y-74900552D01*
X141266956Y-74920543D01*
X141276921Y-74941613D01*
X141284773Y-74963557D01*
X141290437Y-74986166D01*
X141293856Y-75009221D01*
X141295000Y-75032500D01*
X141295000Y-75607500D01*
X141293856Y-75630779D01*
X141290437Y-75653834D01*
X141284773Y-75676443D01*
X141276921Y-75698387D01*
X141266956Y-75719457D01*
X141254974Y-75739448D01*
X141241090Y-75758168D01*
X141225438Y-75775438D01*
X141208168Y-75791090D01*
X141189448Y-75804974D01*
X141169457Y-75816956D01*
X141148387Y-75826921D01*
X141126443Y-75834773D01*
X141103834Y-75840437D01*
X141080779Y-75843856D01*
X141057500Y-75845000D01*
X140582500Y-75845000D01*
X140559221Y-75843856D01*
X140536166Y-75840437D01*
X140513557Y-75834773D01*
X140491613Y-75826921D01*
X140470543Y-75816956D01*
X140450552Y-75804974D01*
X140431832Y-75791090D01*
X140414562Y-75775438D01*
X140398910Y-75758168D01*
X140385026Y-75739448D01*
X140373044Y-75719457D01*
X140363079Y-75698387D01*
X140355227Y-75676443D01*
X140349563Y-75653834D01*
X140346144Y-75630779D01*
X140345000Y-75607500D01*
X140345000Y-75032500D01*
X140346144Y-75009221D01*
X140349563Y-74986166D01*
X140355227Y-74963557D01*
X140363079Y-74941613D01*
X140373044Y-74920543D01*
X140385026Y-74900552D01*
X140398910Y-74881832D01*
X140414562Y-74864562D01*
X140431832Y-74848910D01*
X140450552Y-74835026D01*
X140470543Y-74823044D01*
X140491613Y-74813079D01*
X140513557Y-74805227D01*
X140536166Y-74799563D01*
X140559221Y-74796144D01*
X140582500Y-74795000D01*
X141057500Y-74795000D01*
X141080779Y-74796144D01*
X141080779Y-74796144D01*
G37*
D11*
X140820000Y-75320000D03*
D10*
G36*
X149552004Y-85046204D02*
G01*
X149576273Y-85049804D01*
X149600071Y-85055765D01*
X149623171Y-85064030D01*
X149645349Y-85074520D01*
X149666393Y-85087133D01*
X149686098Y-85101747D01*
X149704277Y-85118223D01*
X149720753Y-85136402D01*
X149735367Y-85156107D01*
X149747980Y-85177151D01*
X149758470Y-85199329D01*
X149766735Y-85222429D01*
X149772696Y-85246227D01*
X149776296Y-85270496D01*
X149777500Y-85295000D01*
X149777500Y-86545000D01*
X149776296Y-86569504D01*
X149772696Y-86593773D01*
X149766735Y-86617571D01*
X149758470Y-86640671D01*
X149747980Y-86662849D01*
X149735367Y-86683893D01*
X149720753Y-86703598D01*
X149704277Y-86721777D01*
X149686098Y-86738253D01*
X149666393Y-86752867D01*
X149645349Y-86765480D01*
X149623171Y-86775970D01*
X149600071Y-86784235D01*
X149576273Y-86790196D01*
X149552004Y-86793796D01*
X149527500Y-86795000D01*
X148602500Y-86795000D01*
X148577996Y-86793796D01*
X148553727Y-86790196D01*
X148529929Y-86784235D01*
X148506829Y-86775970D01*
X148484651Y-86765480D01*
X148463607Y-86752867D01*
X148443902Y-86738253D01*
X148425723Y-86721777D01*
X148409247Y-86703598D01*
X148394633Y-86683893D01*
X148382020Y-86662849D01*
X148371530Y-86640671D01*
X148363265Y-86617571D01*
X148357304Y-86593773D01*
X148353704Y-86569504D01*
X148352500Y-86545000D01*
X148352500Y-85295000D01*
X148353704Y-85270496D01*
X148357304Y-85246227D01*
X148363265Y-85222429D01*
X148371530Y-85199329D01*
X148382020Y-85177151D01*
X148394633Y-85156107D01*
X148409247Y-85136402D01*
X148425723Y-85118223D01*
X148443902Y-85101747D01*
X148463607Y-85087133D01*
X148484651Y-85074520D01*
X148506829Y-85064030D01*
X148529929Y-85055765D01*
X148553727Y-85049804D01*
X148577996Y-85046204D01*
X148602500Y-85045000D01*
X149527500Y-85045000D01*
X149552004Y-85046204D01*
X149552004Y-85046204D01*
G37*
D18*
X149065000Y-85920000D03*
D10*
G36*
X146577004Y-85046204D02*
G01*
X146601273Y-85049804D01*
X146625071Y-85055765D01*
X146648171Y-85064030D01*
X146670349Y-85074520D01*
X146691393Y-85087133D01*
X146711098Y-85101747D01*
X146729277Y-85118223D01*
X146745753Y-85136402D01*
X146760367Y-85156107D01*
X146772980Y-85177151D01*
X146783470Y-85199329D01*
X146791735Y-85222429D01*
X146797696Y-85246227D01*
X146801296Y-85270496D01*
X146802500Y-85295000D01*
X146802500Y-86545000D01*
X146801296Y-86569504D01*
X146797696Y-86593773D01*
X146791735Y-86617571D01*
X146783470Y-86640671D01*
X146772980Y-86662849D01*
X146760367Y-86683893D01*
X146745753Y-86703598D01*
X146729277Y-86721777D01*
X146711098Y-86738253D01*
X146691393Y-86752867D01*
X146670349Y-86765480D01*
X146648171Y-86775970D01*
X146625071Y-86784235D01*
X146601273Y-86790196D01*
X146577004Y-86793796D01*
X146552500Y-86795000D01*
X145627500Y-86795000D01*
X145602996Y-86793796D01*
X145578727Y-86790196D01*
X145554929Y-86784235D01*
X145531829Y-86775970D01*
X145509651Y-86765480D01*
X145488607Y-86752867D01*
X145468902Y-86738253D01*
X145450723Y-86721777D01*
X145434247Y-86703598D01*
X145419633Y-86683893D01*
X145407020Y-86662849D01*
X145396530Y-86640671D01*
X145388265Y-86617571D01*
X145382304Y-86593773D01*
X145378704Y-86569504D01*
X145377500Y-86545000D01*
X145377500Y-85295000D01*
X145378704Y-85270496D01*
X145382304Y-85246227D01*
X145388265Y-85222429D01*
X145396530Y-85199329D01*
X145407020Y-85177151D01*
X145419633Y-85156107D01*
X145434247Y-85136402D01*
X145450723Y-85118223D01*
X145468902Y-85101747D01*
X145488607Y-85087133D01*
X145509651Y-85074520D01*
X145531829Y-85064030D01*
X145554929Y-85055765D01*
X145578727Y-85049804D01*
X145602996Y-85046204D01*
X145627500Y-85045000D01*
X146552500Y-85045000D01*
X146577004Y-85046204D01*
X146577004Y-85046204D01*
G37*
D18*
X146090000Y-85920000D03*
D10*
G36*
X152450779Y-92786144D02*
G01*
X152473834Y-92789563D01*
X152496443Y-92795227D01*
X152518387Y-92803079D01*
X152539457Y-92813044D01*
X152559448Y-92825026D01*
X152578168Y-92838910D01*
X152595438Y-92854562D01*
X152611090Y-92871832D01*
X152624974Y-92890552D01*
X152636956Y-92910543D01*
X152646921Y-92931613D01*
X152654773Y-92953557D01*
X152660437Y-92976166D01*
X152663856Y-92999221D01*
X152665000Y-93022500D01*
X152665000Y-93597500D01*
X152663856Y-93620779D01*
X152660437Y-93643834D01*
X152654773Y-93666443D01*
X152646921Y-93688387D01*
X152636956Y-93709457D01*
X152624974Y-93729448D01*
X152611090Y-93748168D01*
X152595438Y-93765438D01*
X152578168Y-93781090D01*
X152559448Y-93794974D01*
X152539457Y-93806956D01*
X152518387Y-93816921D01*
X152496443Y-93824773D01*
X152473834Y-93830437D01*
X152450779Y-93833856D01*
X152427500Y-93835000D01*
X151952500Y-93835000D01*
X151929221Y-93833856D01*
X151906166Y-93830437D01*
X151883557Y-93824773D01*
X151861613Y-93816921D01*
X151840543Y-93806956D01*
X151820552Y-93794974D01*
X151801832Y-93781090D01*
X151784562Y-93765438D01*
X151768910Y-93748168D01*
X151755026Y-93729448D01*
X151743044Y-93709457D01*
X151733079Y-93688387D01*
X151725227Y-93666443D01*
X151719563Y-93643834D01*
X151716144Y-93620779D01*
X151715000Y-93597500D01*
X151715000Y-93022500D01*
X151716144Y-92999221D01*
X151719563Y-92976166D01*
X151725227Y-92953557D01*
X151733079Y-92931613D01*
X151743044Y-92910543D01*
X151755026Y-92890552D01*
X151768910Y-92871832D01*
X151784562Y-92854562D01*
X151801832Y-92838910D01*
X151820552Y-92825026D01*
X151840543Y-92813044D01*
X151861613Y-92803079D01*
X151883557Y-92795227D01*
X151906166Y-92789563D01*
X151929221Y-92786144D01*
X151952500Y-92785000D01*
X152427500Y-92785000D01*
X152450779Y-92786144D01*
X152450779Y-92786144D01*
G37*
D11*
X152190000Y-93310000D03*
D10*
G36*
X152450779Y-91036144D02*
G01*
X152473834Y-91039563D01*
X152496443Y-91045227D01*
X152518387Y-91053079D01*
X152539457Y-91063044D01*
X152559448Y-91075026D01*
X152578168Y-91088910D01*
X152595438Y-91104562D01*
X152611090Y-91121832D01*
X152624974Y-91140552D01*
X152636956Y-91160543D01*
X152646921Y-91181613D01*
X152654773Y-91203557D01*
X152660437Y-91226166D01*
X152663856Y-91249221D01*
X152665000Y-91272500D01*
X152665000Y-91847500D01*
X152663856Y-91870779D01*
X152660437Y-91893834D01*
X152654773Y-91916443D01*
X152646921Y-91938387D01*
X152636956Y-91959457D01*
X152624974Y-91979448D01*
X152611090Y-91998168D01*
X152595438Y-92015438D01*
X152578168Y-92031090D01*
X152559448Y-92044974D01*
X152539457Y-92056956D01*
X152518387Y-92066921D01*
X152496443Y-92074773D01*
X152473834Y-92080437D01*
X152450779Y-92083856D01*
X152427500Y-92085000D01*
X151952500Y-92085000D01*
X151929221Y-92083856D01*
X151906166Y-92080437D01*
X151883557Y-92074773D01*
X151861613Y-92066921D01*
X151840543Y-92056956D01*
X151820552Y-92044974D01*
X151801832Y-92031090D01*
X151784562Y-92015438D01*
X151768910Y-91998168D01*
X151755026Y-91979448D01*
X151743044Y-91959457D01*
X151733079Y-91938387D01*
X151725227Y-91916443D01*
X151719563Y-91893834D01*
X151716144Y-91870779D01*
X151715000Y-91847500D01*
X151715000Y-91272500D01*
X151716144Y-91249221D01*
X151719563Y-91226166D01*
X151725227Y-91203557D01*
X151733079Y-91181613D01*
X151743044Y-91160543D01*
X151755026Y-91140552D01*
X151768910Y-91121832D01*
X151784562Y-91104562D01*
X151801832Y-91088910D01*
X151820552Y-91075026D01*
X151840543Y-91063044D01*
X151861613Y-91053079D01*
X151883557Y-91045227D01*
X151906166Y-91039563D01*
X151929221Y-91036144D01*
X151952500Y-91035000D01*
X152427500Y-91035000D01*
X152450779Y-91036144D01*
X152450779Y-91036144D01*
G37*
D11*
X152190000Y-91560000D03*
D10*
G36*
X150750779Y-91046144D02*
G01*
X150773834Y-91049563D01*
X150796443Y-91055227D01*
X150818387Y-91063079D01*
X150839457Y-91073044D01*
X150859448Y-91085026D01*
X150878168Y-91098910D01*
X150895438Y-91114562D01*
X150911090Y-91131832D01*
X150924974Y-91150552D01*
X150936956Y-91170543D01*
X150946921Y-91191613D01*
X150954773Y-91213557D01*
X150960437Y-91236166D01*
X150963856Y-91259221D01*
X150965000Y-91282500D01*
X150965000Y-91857500D01*
X150963856Y-91880779D01*
X150960437Y-91903834D01*
X150954773Y-91926443D01*
X150946921Y-91948387D01*
X150936956Y-91969457D01*
X150924974Y-91989448D01*
X150911090Y-92008168D01*
X150895438Y-92025438D01*
X150878168Y-92041090D01*
X150859448Y-92054974D01*
X150839457Y-92066956D01*
X150818387Y-92076921D01*
X150796443Y-92084773D01*
X150773834Y-92090437D01*
X150750779Y-92093856D01*
X150727500Y-92095000D01*
X150252500Y-92095000D01*
X150229221Y-92093856D01*
X150206166Y-92090437D01*
X150183557Y-92084773D01*
X150161613Y-92076921D01*
X150140543Y-92066956D01*
X150120552Y-92054974D01*
X150101832Y-92041090D01*
X150084562Y-92025438D01*
X150068910Y-92008168D01*
X150055026Y-91989448D01*
X150043044Y-91969457D01*
X150033079Y-91948387D01*
X150025227Y-91926443D01*
X150019563Y-91903834D01*
X150016144Y-91880779D01*
X150015000Y-91857500D01*
X150015000Y-91282500D01*
X150016144Y-91259221D01*
X150019563Y-91236166D01*
X150025227Y-91213557D01*
X150033079Y-91191613D01*
X150043044Y-91170543D01*
X150055026Y-91150552D01*
X150068910Y-91131832D01*
X150084562Y-91114562D01*
X150101832Y-91098910D01*
X150120552Y-91085026D01*
X150140543Y-91073044D01*
X150161613Y-91063079D01*
X150183557Y-91055227D01*
X150206166Y-91049563D01*
X150229221Y-91046144D01*
X150252500Y-91045000D01*
X150727500Y-91045000D01*
X150750779Y-91046144D01*
X150750779Y-91046144D01*
G37*
D11*
X150490000Y-91570000D03*
D10*
G36*
X150750779Y-92796144D02*
G01*
X150773834Y-92799563D01*
X150796443Y-92805227D01*
X150818387Y-92813079D01*
X150839457Y-92823044D01*
X150859448Y-92835026D01*
X150878168Y-92848910D01*
X150895438Y-92864562D01*
X150911090Y-92881832D01*
X150924974Y-92900552D01*
X150936956Y-92920543D01*
X150946921Y-92941613D01*
X150954773Y-92963557D01*
X150960437Y-92986166D01*
X150963856Y-93009221D01*
X150965000Y-93032500D01*
X150965000Y-93607500D01*
X150963856Y-93630779D01*
X150960437Y-93653834D01*
X150954773Y-93676443D01*
X150946921Y-93698387D01*
X150936956Y-93719457D01*
X150924974Y-93739448D01*
X150911090Y-93758168D01*
X150895438Y-93775438D01*
X150878168Y-93791090D01*
X150859448Y-93804974D01*
X150839457Y-93816956D01*
X150818387Y-93826921D01*
X150796443Y-93834773D01*
X150773834Y-93840437D01*
X150750779Y-93843856D01*
X150727500Y-93845000D01*
X150252500Y-93845000D01*
X150229221Y-93843856D01*
X150206166Y-93840437D01*
X150183557Y-93834773D01*
X150161613Y-93826921D01*
X150140543Y-93816956D01*
X150120552Y-93804974D01*
X150101832Y-93791090D01*
X150084562Y-93775438D01*
X150068910Y-93758168D01*
X150055026Y-93739448D01*
X150043044Y-93719457D01*
X150033079Y-93698387D01*
X150025227Y-93676443D01*
X150019563Y-93653834D01*
X150016144Y-93630779D01*
X150015000Y-93607500D01*
X150015000Y-93032500D01*
X150016144Y-93009221D01*
X150019563Y-92986166D01*
X150025227Y-92963557D01*
X150033079Y-92941613D01*
X150043044Y-92920543D01*
X150055026Y-92900552D01*
X150068910Y-92881832D01*
X150084562Y-92864562D01*
X150101832Y-92848910D01*
X150120552Y-92835026D01*
X150140543Y-92823044D01*
X150161613Y-92813079D01*
X150183557Y-92805227D01*
X150206166Y-92799563D01*
X150229221Y-92796144D01*
X150252500Y-92795000D01*
X150727500Y-92795000D01*
X150750779Y-92796144D01*
X150750779Y-92796144D01*
G37*
D11*
X150490000Y-93320000D03*
D10*
G36*
X146720779Y-40476144D02*
G01*
X146743834Y-40479563D01*
X146766443Y-40485227D01*
X146788387Y-40493079D01*
X146809457Y-40503044D01*
X146829448Y-40515026D01*
X146848168Y-40528910D01*
X146865438Y-40544562D01*
X146881090Y-40561832D01*
X146894974Y-40580552D01*
X146906956Y-40600543D01*
X146916921Y-40621613D01*
X146924773Y-40643557D01*
X146930437Y-40666166D01*
X146933856Y-40689221D01*
X146935000Y-40712500D01*
X146935000Y-41187500D01*
X146933856Y-41210779D01*
X146930437Y-41233834D01*
X146924773Y-41256443D01*
X146916921Y-41278387D01*
X146906956Y-41299457D01*
X146894974Y-41319448D01*
X146881090Y-41338168D01*
X146865438Y-41355438D01*
X146848168Y-41371090D01*
X146829448Y-41384974D01*
X146809457Y-41396956D01*
X146788387Y-41406921D01*
X146766443Y-41414773D01*
X146743834Y-41420437D01*
X146720779Y-41423856D01*
X146697500Y-41425000D01*
X146122500Y-41425000D01*
X146099221Y-41423856D01*
X146076166Y-41420437D01*
X146053557Y-41414773D01*
X146031613Y-41406921D01*
X146010543Y-41396956D01*
X145990552Y-41384974D01*
X145971832Y-41371090D01*
X145954562Y-41355438D01*
X145938910Y-41338168D01*
X145925026Y-41319448D01*
X145913044Y-41299457D01*
X145903079Y-41278387D01*
X145895227Y-41256443D01*
X145889563Y-41233834D01*
X145886144Y-41210779D01*
X145885000Y-41187500D01*
X145885000Y-40712500D01*
X145886144Y-40689221D01*
X145889563Y-40666166D01*
X145895227Y-40643557D01*
X145903079Y-40621613D01*
X145913044Y-40600543D01*
X145925026Y-40580552D01*
X145938910Y-40561832D01*
X145954562Y-40544562D01*
X145971832Y-40528910D01*
X145990552Y-40515026D01*
X146010543Y-40503044D01*
X146031613Y-40493079D01*
X146053557Y-40485227D01*
X146076166Y-40479563D01*
X146099221Y-40476144D01*
X146122500Y-40475000D01*
X146697500Y-40475000D01*
X146720779Y-40476144D01*
X146720779Y-40476144D01*
G37*
D11*
X146410000Y-40950000D03*
D10*
G36*
X148470779Y-40476144D02*
G01*
X148493834Y-40479563D01*
X148516443Y-40485227D01*
X148538387Y-40493079D01*
X148559457Y-40503044D01*
X148579448Y-40515026D01*
X148598168Y-40528910D01*
X148615438Y-40544562D01*
X148631090Y-40561832D01*
X148644974Y-40580552D01*
X148656956Y-40600543D01*
X148666921Y-40621613D01*
X148674773Y-40643557D01*
X148680437Y-40666166D01*
X148683856Y-40689221D01*
X148685000Y-40712500D01*
X148685000Y-41187500D01*
X148683856Y-41210779D01*
X148680437Y-41233834D01*
X148674773Y-41256443D01*
X148666921Y-41278387D01*
X148656956Y-41299457D01*
X148644974Y-41319448D01*
X148631090Y-41338168D01*
X148615438Y-41355438D01*
X148598168Y-41371090D01*
X148579448Y-41384974D01*
X148559457Y-41396956D01*
X148538387Y-41406921D01*
X148516443Y-41414773D01*
X148493834Y-41420437D01*
X148470779Y-41423856D01*
X148447500Y-41425000D01*
X147872500Y-41425000D01*
X147849221Y-41423856D01*
X147826166Y-41420437D01*
X147803557Y-41414773D01*
X147781613Y-41406921D01*
X147760543Y-41396956D01*
X147740552Y-41384974D01*
X147721832Y-41371090D01*
X147704562Y-41355438D01*
X147688910Y-41338168D01*
X147675026Y-41319448D01*
X147663044Y-41299457D01*
X147653079Y-41278387D01*
X147645227Y-41256443D01*
X147639563Y-41233834D01*
X147636144Y-41210779D01*
X147635000Y-41187500D01*
X147635000Y-40712500D01*
X147636144Y-40689221D01*
X147639563Y-40666166D01*
X147645227Y-40643557D01*
X147653079Y-40621613D01*
X147663044Y-40600543D01*
X147675026Y-40580552D01*
X147688910Y-40561832D01*
X147704562Y-40544562D01*
X147721832Y-40528910D01*
X147740552Y-40515026D01*
X147760543Y-40503044D01*
X147781613Y-40493079D01*
X147803557Y-40485227D01*
X147826166Y-40479563D01*
X147849221Y-40476144D01*
X147872500Y-40475000D01*
X148447500Y-40475000D01*
X148470779Y-40476144D01*
X148470779Y-40476144D01*
G37*
D11*
X148160000Y-40950000D03*
D10*
G36*
X147600779Y-87846144D02*
G01*
X147623834Y-87849563D01*
X147646443Y-87855227D01*
X147668387Y-87863079D01*
X147689457Y-87873044D01*
X147709448Y-87885026D01*
X147728168Y-87898910D01*
X147745438Y-87914562D01*
X147761090Y-87931832D01*
X147774974Y-87950552D01*
X147786956Y-87970543D01*
X147796921Y-87991613D01*
X147804773Y-88013557D01*
X147810437Y-88036166D01*
X147813856Y-88059221D01*
X147815000Y-88082500D01*
X147815000Y-88557500D01*
X147813856Y-88580779D01*
X147810437Y-88603834D01*
X147804773Y-88626443D01*
X147796921Y-88648387D01*
X147786956Y-88669457D01*
X147774974Y-88689448D01*
X147761090Y-88708168D01*
X147745438Y-88725438D01*
X147728168Y-88741090D01*
X147709448Y-88754974D01*
X147689457Y-88766956D01*
X147668387Y-88776921D01*
X147646443Y-88784773D01*
X147623834Y-88790437D01*
X147600779Y-88793856D01*
X147577500Y-88795000D01*
X147002500Y-88795000D01*
X146979221Y-88793856D01*
X146956166Y-88790437D01*
X146933557Y-88784773D01*
X146911613Y-88776921D01*
X146890543Y-88766956D01*
X146870552Y-88754974D01*
X146851832Y-88741090D01*
X146834562Y-88725438D01*
X146818910Y-88708168D01*
X146805026Y-88689448D01*
X146793044Y-88669457D01*
X146783079Y-88648387D01*
X146775227Y-88626443D01*
X146769563Y-88603834D01*
X146766144Y-88580779D01*
X146765000Y-88557500D01*
X146765000Y-88082500D01*
X146766144Y-88059221D01*
X146769563Y-88036166D01*
X146775227Y-88013557D01*
X146783079Y-87991613D01*
X146793044Y-87970543D01*
X146805026Y-87950552D01*
X146818910Y-87931832D01*
X146834562Y-87914562D01*
X146851832Y-87898910D01*
X146870552Y-87885026D01*
X146890543Y-87873044D01*
X146911613Y-87863079D01*
X146933557Y-87855227D01*
X146956166Y-87849563D01*
X146979221Y-87846144D01*
X147002500Y-87845000D01*
X147577500Y-87845000D01*
X147600779Y-87846144D01*
X147600779Y-87846144D01*
G37*
D11*
X147290000Y-88320000D03*
D10*
G36*
X149350779Y-87846144D02*
G01*
X149373834Y-87849563D01*
X149396443Y-87855227D01*
X149418387Y-87863079D01*
X149439457Y-87873044D01*
X149459448Y-87885026D01*
X149478168Y-87898910D01*
X149495438Y-87914562D01*
X149511090Y-87931832D01*
X149524974Y-87950552D01*
X149536956Y-87970543D01*
X149546921Y-87991613D01*
X149554773Y-88013557D01*
X149560437Y-88036166D01*
X149563856Y-88059221D01*
X149565000Y-88082500D01*
X149565000Y-88557500D01*
X149563856Y-88580779D01*
X149560437Y-88603834D01*
X149554773Y-88626443D01*
X149546921Y-88648387D01*
X149536956Y-88669457D01*
X149524974Y-88689448D01*
X149511090Y-88708168D01*
X149495438Y-88725438D01*
X149478168Y-88741090D01*
X149459448Y-88754974D01*
X149439457Y-88766956D01*
X149418387Y-88776921D01*
X149396443Y-88784773D01*
X149373834Y-88790437D01*
X149350779Y-88793856D01*
X149327500Y-88795000D01*
X148752500Y-88795000D01*
X148729221Y-88793856D01*
X148706166Y-88790437D01*
X148683557Y-88784773D01*
X148661613Y-88776921D01*
X148640543Y-88766956D01*
X148620552Y-88754974D01*
X148601832Y-88741090D01*
X148584562Y-88725438D01*
X148568910Y-88708168D01*
X148555026Y-88689448D01*
X148543044Y-88669457D01*
X148533079Y-88648387D01*
X148525227Y-88626443D01*
X148519563Y-88603834D01*
X148516144Y-88580779D01*
X148515000Y-88557500D01*
X148515000Y-88082500D01*
X148516144Y-88059221D01*
X148519563Y-88036166D01*
X148525227Y-88013557D01*
X148533079Y-87991613D01*
X148543044Y-87970543D01*
X148555026Y-87950552D01*
X148568910Y-87931832D01*
X148584562Y-87914562D01*
X148601832Y-87898910D01*
X148620552Y-87885026D01*
X148640543Y-87873044D01*
X148661613Y-87863079D01*
X148683557Y-87855227D01*
X148706166Y-87849563D01*
X148729221Y-87846144D01*
X148752500Y-87845000D01*
X149327500Y-87845000D01*
X149350779Y-87846144D01*
X149350779Y-87846144D01*
G37*
D11*
X149040000Y-88320000D03*
D19*
X156500000Y-63780000D03*
X156490000Y-68080000D03*
X156450000Y-76630000D03*
X156450000Y-80790000D03*
X156450000Y-72410000D03*
D20*
X146290000Y-90420000D03*
X147240000Y-90420000D03*
X148190000Y-90420000D03*
X148190000Y-93120000D03*
X146290000Y-93120000D03*
X147240000Y-93120000D03*
D21*
X145850000Y-82110000D03*
D22*
X145850000Y-75810000D03*
X148150000Y-75810000D03*
X143550000Y-75810000D03*
D23*
X92000000Y-29000000D03*
X156400000Y-119600000D03*
X92000000Y-119600000D03*
X156200000Y-29000000D03*
D10*
G36*
X139230779Y-76546144D02*
G01*
X139253834Y-76549563D01*
X139276443Y-76555227D01*
X139298387Y-76563079D01*
X139319457Y-76573044D01*
X139339448Y-76585026D01*
X139358168Y-76598910D01*
X139375438Y-76614562D01*
X139391090Y-76631832D01*
X139404974Y-76650552D01*
X139416956Y-76670543D01*
X139426921Y-76691613D01*
X139434773Y-76713557D01*
X139440437Y-76736166D01*
X139443856Y-76759221D01*
X139445000Y-76782500D01*
X139445000Y-77357500D01*
X139443856Y-77380779D01*
X139440437Y-77403834D01*
X139434773Y-77426443D01*
X139426921Y-77448387D01*
X139416956Y-77469457D01*
X139404974Y-77489448D01*
X139391090Y-77508168D01*
X139375438Y-77525438D01*
X139358168Y-77541090D01*
X139339448Y-77554974D01*
X139319457Y-77566956D01*
X139298387Y-77576921D01*
X139276443Y-77584773D01*
X139253834Y-77590437D01*
X139230779Y-77593856D01*
X139207500Y-77595000D01*
X138732500Y-77595000D01*
X138709221Y-77593856D01*
X138686166Y-77590437D01*
X138663557Y-77584773D01*
X138641613Y-77576921D01*
X138620543Y-77566956D01*
X138600552Y-77554974D01*
X138581832Y-77541090D01*
X138564562Y-77525438D01*
X138548910Y-77508168D01*
X138535026Y-77489448D01*
X138523044Y-77469457D01*
X138513079Y-77448387D01*
X138505227Y-77426443D01*
X138499563Y-77403834D01*
X138496144Y-77380779D01*
X138495000Y-77357500D01*
X138495000Y-76782500D01*
X138496144Y-76759221D01*
X138499563Y-76736166D01*
X138505227Y-76713557D01*
X138513079Y-76691613D01*
X138523044Y-76670543D01*
X138535026Y-76650552D01*
X138548910Y-76631832D01*
X138564562Y-76614562D01*
X138581832Y-76598910D01*
X138600552Y-76585026D01*
X138620543Y-76573044D01*
X138641613Y-76563079D01*
X138663557Y-76555227D01*
X138686166Y-76549563D01*
X138709221Y-76546144D01*
X138732500Y-76545000D01*
X139207500Y-76545000D01*
X139230779Y-76546144D01*
X139230779Y-76546144D01*
G37*
D11*
X138970000Y-77070000D03*
D10*
G36*
X139230779Y-74796144D02*
G01*
X139253834Y-74799563D01*
X139276443Y-74805227D01*
X139298387Y-74813079D01*
X139319457Y-74823044D01*
X139339448Y-74835026D01*
X139358168Y-74848910D01*
X139375438Y-74864562D01*
X139391090Y-74881832D01*
X139404974Y-74900552D01*
X139416956Y-74920543D01*
X139426921Y-74941613D01*
X139434773Y-74963557D01*
X139440437Y-74986166D01*
X139443856Y-75009221D01*
X139445000Y-75032500D01*
X139445000Y-75607500D01*
X139443856Y-75630779D01*
X139440437Y-75653834D01*
X139434773Y-75676443D01*
X139426921Y-75698387D01*
X139416956Y-75719457D01*
X139404974Y-75739448D01*
X139391090Y-75758168D01*
X139375438Y-75775438D01*
X139358168Y-75791090D01*
X139339448Y-75804974D01*
X139319457Y-75816956D01*
X139298387Y-75826921D01*
X139276443Y-75834773D01*
X139253834Y-75840437D01*
X139230779Y-75843856D01*
X139207500Y-75845000D01*
X138732500Y-75845000D01*
X138709221Y-75843856D01*
X138686166Y-75840437D01*
X138663557Y-75834773D01*
X138641613Y-75826921D01*
X138620543Y-75816956D01*
X138600552Y-75804974D01*
X138581832Y-75791090D01*
X138564562Y-75775438D01*
X138548910Y-75758168D01*
X138535026Y-75739448D01*
X138523044Y-75719457D01*
X138513079Y-75698387D01*
X138505227Y-75676443D01*
X138499563Y-75653834D01*
X138496144Y-75630779D01*
X138495000Y-75607500D01*
X138495000Y-75032500D01*
X138496144Y-75009221D01*
X138499563Y-74986166D01*
X138505227Y-74963557D01*
X138513079Y-74941613D01*
X138523044Y-74920543D01*
X138535026Y-74900552D01*
X138548910Y-74881832D01*
X138564562Y-74864562D01*
X138581832Y-74848910D01*
X138600552Y-74835026D01*
X138620543Y-74823044D01*
X138641613Y-74813079D01*
X138663557Y-74805227D01*
X138686166Y-74799563D01*
X138709221Y-74796144D01*
X138732500Y-74795000D01*
X139207500Y-74795000D01*
X139230779Y-74796144D01*
X139230779Y-74796144D01*
G37*
D11*
X138970000Y-75320000D03*
D10*
G36*
X144589504Y-92496204D02*
G01*
X144613773Y-92499804D01*
X144637571Y-92505765D01*
X144660671Y-92514030D01*
X144682849Y-92524520D01*
X144703893Y-92537133D01*
X144723598Y-92551747D01*
X144741777Y-92568223D01*
X144758253Y-92586402D01*
X144772867Y-92606107D01*
X144785480Y-92627151D01*
X144795970Y-92649329D01*
X144804235Y-92672429D01*
X144810196Y-92696227D01*
X144813796Y-92720496D01*
X144815000Y-92745000D01*
X144815000Y-93495000D01*
X144813796Y-93519504D01*
X144810196Y-93543773D01*
X144804235Y-93567571D01*
X144795970Y-93590671D01*
X144785480Y-93612849D01*
X144772867Y-93633893D01*
X144758253Y-93653598D01*
X144741777Y-93671777D01*
X144723598Y-93688253D01*
X144703893Y-93702867D01*
X144682849Y-93715480D01*
X144660671Y-93725970D01*
X144637571Y-93734235D01*
X144613773Y-93740196D01*
X144589504Y-93743796D01*
X144565000Y-93745000D01*
X142415000Y-93745000D01*
X142390496Y-93743796D01*
X142366227Y-93740196D01*
X142342429Y-93734235D01*
X142319329Y-93725970D01*
X142297151Y-93715480D01*
X142276107Y-93702867D01*
X142256402Y-93688253D01*
X142238223Y-93671777D01*
X142221747Y-93653598D01*
X142207133Y-93633893D01*
X142194520Y-93612849D01*
X142184030Y-93590671D01*
X142175765Y-93567571D01*
X142169804Y-93543773D01*
X142166204Y-93519504D01*
X142165000Y-93495000D01*
X142165000Y-92745000D01*
X142166204Y-92720496D01*
X142169804Y-92696227D01*
X142175765Y-92672429D01*
X142184030Y-92649329D01*
X142194520Y-92627151D01*
X142207133Y-92606107D01*
X142221747Y-92586402D01*
X142238223Y-92568223D01*
X142256402Y-92551747D01*
X142276107Y-92537133D01*
X142297151Y-92524520D01*
X142319329Y-92514030D01*
X142342429Y-92505765D01*
X142366227Y-92499804D01*
X142390496Y-92496204D01*
X142415000Y-92495000D01*
X144565000Y-92495000D01*
X144589504Y-92496204D01*
X144589504Y-92496204D01*
G37*
D24*
X143490000Y-93120000D03*
D10*
G36*
X144589504Y-89696204D02*
G01*
X144613773Y-89699804D01*
X144637571Y-89705765D01*
X144660671Y-89714030D01*
X144682849Y-89724520D01*
X144703893Y-89737133D01*
X144723598Y-89751747D01*
X144741777Y-89768223D01*
X144758253Y-89786402D01*
X144772867Y-89806107D01*
X144785480Y-89827151D01*
X144795970Y-89849329D01*
X144804235Y-89872429D01*
X144810196Y-89896227D01*
X144813796Y-89920496D01*
X144815000Y-89945000D01*
X144815000Y-90695000D01*
X144813796Y-90719504D01*
X144810196Y-90743773D01*
X144804235Y-90767571D01*
X144795970Y-90790671D01*
X144785480Y-90812849D01*
X144772867Y-90833893D01*
X144758253Y-90853598D01*
X144741777Y-90871777D01*
X144723598Y-90888253D01*
X144703893Y-90902867D01*
X144682849Y-90915480D01*
X144660671Y-90925970D01*
X144637571Y-90934235D01*
X144613773Y-90940196D01*
X144589504Y-90943796D01*
X144565000Y-90945000D01*
X142415000Y-90945000D01*
X142390496Y-90943796D01*
X142366227Y-90940196D01*
X142342429Y-90934235D01*
X142319329Y-90925970D01*
X142297151Y-90915480D01*
X142276107Y-90902867D01*
X142256402Y-90888253D01*
X142238223Y-90871777D01*
X142221747Y-90853598D01*
X142207133Y-90833893D01*
X142194520Y-90812849D01*
X142184030Y-90790671D01*
X142175765Y-90767571D01*
X142169804Y-90743773D01*
X142166204Y-90719504D01*
X142165000Y-90695000D01*
X142165000Y-89945000D01*
X142166204Y-89920496D01*
X142169804Y-89896227D01*
X142175765Y-89872429D01*
X142184030Y-89849329D01*
X142194520Y-89827151D01*
X142207133Y-89806107D01*
X142221747Y-89786402D01*
X142238223Y-89768223D01*
X142256402Y-89751747D01*
X142276107Y-89737133D01*
X142297151Y-89724520D01*
X142319329Y-89714030D01*
X142342429Y-89705765D01*
X142366227Y-89699804D01*
X142390496Y-89696204D01*
X142415000Y-89695000D01*
X144565000Y-89695000D01*
X144589504Y-89696204D01*
X144589504Y-89696204D01*
G37*
D24*
X143490000Y-90320000D03*
D25*
X154590000Y-72410000D03*
X151390010Y-68819990D03*
X150490000Y-90440000D03*
X148160000Y-77420000D03*
X145090000Y-35710000D03*
X147240000Y-87430000D03*
X139670000Y-91480000D03*
X151120000Y-78460000D03*
X143550000Y-74310000D03*
X144350000Y-43860000D03*
X149660000Y-48100000D03*
X144610000Y-55600000D03*
X129650126Y-74592108D03*
X126150126Y-74592108D03*
X122590000Y-74590000D03*
X118650000Y-74600000D03*
X114650000Y-74600000D03*
X150190000Y-71420000D03*
X152350001Y-71420000D03*
X147230000Y-94320000D03*
X149070000Y-87030000D03*
X154580000Y-76620000D03*
X149800000Y-41420000D03*
X149668796Y-45620066D03*
X147010000Y-43350000D03*
X149890000Y-32080000D03*
X146630000Y-48654298D03*
X138664000Y-39326000D03*
X150660000Y-72650000D03*
X152650011Y-72640000D03*
X154540000Y-80800000D03*
X149469999Y-94940001D03*
X149885000Y-88320000D03*
X154410000Y-63820000D03*
X149680000Y-46550000D03*
X105760000Y-37840000D03*
X149731604Y-49670145D03*
X108300000Y-38465000D03*
X147540000Y-49844299D03*
X149700756Y-50839298D03*
X110840000Y-38775010D03*
X147540000Y-51059996D03*
X113380000Y-39184000D03*
X154430000Y-68070000D03*
X149690000Y-61870000D03*
X107060000Y-46610000D03*
X136886000Y-47708000D03*
X137648000Y-48694230D03*
X110390000Y-48620000D03*
X138323943Y-49643819D03*
X112060000Y-49620000D03*
X138318404Y-50593805D03*
X114710000Y-50480000D03*
X153490000Y-69980000D03*
X150760000Y-70010000D03*
X136105000Y-42908233D03*
X139784383Y-46587617D03*
X137002207Y-43805441D03*
X146470000Y-47210000D03*
X140647233Y-41946188D03*
X138320357Y-51543805D03*
X117290000Y-51520000D03*
X114720000Y-51530000D03*
X119635001Y-52504999D03*
X138336534Y-52493669D03*
X116550000Y-52500000D03*
X138310000Y-53430000D03*
X122100000Y-53250000D03*
X119090000Y-53258574D03*
X138363436Y-54378498D03*
X125110000Y-54160000D03*
X122100000Y-54180003D03*
X138311381Y-55327073D03*
X127540000Y-55360000D03*
X125120000Y-55360000D03*
X138250000Y-56260000D03*
X129620000Y-56220000D03*
X127518870Y-56289762D03*
X138275641Y-57222846D03*
X132692846Y-57222846D03*
X129620000Y-57230000D03*
X138269163Y-58172826D03*
X134410000Y-58122000D03*
X132689961Y-58152843D03*
X147819999Y-46915000D03*
X139295000Y-40596000D03*
X142650000Y-41830000D03*
X147012858Y-46453018D03*
X140530000Y-40938000D03*
X149740729Y-52079271D03*
X115920000Y-39804000D03*
X147580108Y-52249997D03*
X118460000Y-40200000D03*
X149674252Y-53212794D03*
X121000000Y-40510010D03*
X147570000Y-53439998D03*
X123540000Y-42215000D03*
X126080000Y-42840000D03*
X149581330Y-54330526D03*
X128620000Y-43465000D03*
X147574335Y-54629999D03*
X131160000Y-44090000D03*
X149550000Y-55260000D03*
X133700000Y-44715000D03*
X147530000Y-55820000D03*
D26*
X144510000Y-30625000D02*
X144545000Y-30590000D01*
X143860000Y-30625000D02*
X144510000Y-30625000D01*
D27*
X150665000Y-75810000D02*
X151120000Y-75355000D01*
X148150000Y-75810000D02*
X150665000Y-75810000D01*
D28*
X143490000Y-93120000D02*
X146290000Y-93120000D01*
X146680000Y-91570000D02*
X150490000Y-91570000D01*
X146290000Y-93120000D02*
X146290000Y-91960000D01*
X146290000Y-91960000D02*
X146680000Y-91570000D01*
D26*
X143380000Y-93230000D02*
X143490000Y-93120000D01*
X140750000Y-93230000D02*
X143380000Y-93230000D01*
X144510000Y-30625000D02*
X151032500Y-37147500D01*
D27*
X151610020Y-39504027D02*
X151610020Y-57810000D01*
X151610020Y-57810000D02*
X151610020Y-63299980D01*
X151390010Y-72179808D02*
X151380000Y-72189818D01*
X151390010Y-72090010D02*
X151390010Y-74459990D01*
X151390010Y-72090010D02*
X151390010Y-72179808D01*
D26*
X151610020Y-37725020D02*
X151032500Y-37147500D01*
X151610020Y-39504027D02*
X151610020Y-37725020D01*
D27*
X151390010Y-70460010D02*
X151390010Y-72090010D01*
D26*
X156450000Y-72410000D02*
X154590000Y-72410000D01*
D27*
X151390010Y-68819990D02*
X151390010Y-70460010D01*
D26*
X150490000Y-91570000D02*
X150490000Y-90440000D01*
X148150000Y-76844315D02*
X148150000Y-75810000D01*
X148160000Y-76854315D02*
X148150000Y-76844315D01*
X148160000Y-77420000D02*
X148160000Y-76854315D01*
D28*
X151618000Y-68592000D02*
X151390010Y-68819990D01*
X151618000Y-63309308D02*
X151618000Y-68592000D01*
X151610020Y-63299980D02*
X151610020Y-63301328D01*
X151610020Y-63301328D02*
X151618000Y-63309308D01*
X151120000Y-75355000D02*
X151120000Y-75130000D01*
X151390010Y-74859990D02*
X151390010Y-74459990D01*
X151120000Y-75130000D02*
X151390010Y-74859990D01*
D29*
X147240000Y-88370000D02*
X147290000Y-88320000D01*
X147240000Y-90420000D02*
X147240000Y-88370000D01*
D26*
X144510000Y-35675000D02*
X144545000Y-35710000D01*
X143860000Y-35675000D02*
X144510000Y-35675000D01*
X144545000Y-35710000D02*
X145090000Y-35710000D01*
D27*
X143060000Y-75320000D02*
X143550000Y-75810000D01*
X140820000Y-75320000D02*
X143060000Y-75320000D01*
D26*
X147290000Y-88320000D02*
X147290000Y-87480000D01*
X147290000Y-87480000D02*
X147240000Y-87430000D01*
X140175000Y-91480000D02*
X140155000Y-91460000D01*
X140750000Y-91480000D02*
X140175000Y-91480000D01*
X140750000Y-91480000D02*
X139670000Y-91480000D01*
X139545000Y-75320000D02*
X140820000Y-75320000D01*
X138970000Y-75320000D02*
X139545000Y-75320000D01*
X151120000Y-77105000D02*
X151120000Y-78460000D01*
X143550000Y-75810000D02*
X143550000Y-74660000D01*
X143550000Y-74660000D02*
X143550000Y-74310000D01*
X144350000Y-43880000D02*
X144350000Y-43860000D01*
X144350000Y-45380000D02*
X144970000Y-46000000D01*
X144970000Y-46000000D02*
X145700000Y-46000000D01*
X144350000Y-43860000D02*
X144350000Y-45380000D01*
X148010000Y-45120000D02*
X148585000Y-45120000D01*
X147449990Y-45680010D02*
X148010000Y-45120000D01*
X146519990Y-45680010D02*
X147449990Y-45680010D01*
X146200000Y-46000000D02*
X146519990Y-45680010D01*
X145700000Y-46000000D02*
X146200000Y-46000000D01*
X148585000Y-48120000D02*
X149640000Y-48120000D01*
X149640000Y-48120000D02*
X149660000Y-48100000D01*
X145700000Y-55600000D02*
X144610000Y-55600000D01*
X139660000Y-91470000D02*
X139670000Y-91480000D01*
X138930000Y-91470000D02*
X139660000Y-91470000D01*
D30*
X129650000Y-73544000D02*
X129650000Y-74591982D01*
X129650000Y-74591982D02*
X129650126Y-74592108D01*
X126150000Y-73544000D02*
X126150000Y-74591982D01*
X126150000Y-74591982D02*
X126150126Y-74592108D01*
X122150000Y-73544000D02*
X122650000Y-73544000D01*
X122650000Y-73544000D02*
X122650000Y-74530000D01*
X122650000Y-74530000D02*
X122590000Y-74590000D01*
X118150000Y-73544000D02*
X118650000Y-73544000D01*
X118650000Y-73544000D02*
X118650000Y-74600000D01*
X114150000Y-73544000D02*
X114650000Y-73544000D01*
X114650000Y-73544000D02*
X114650000Y-74600000D01*
X113150000Y-72714000D02*
X113146000Y-72710000D01*
X113150000Y-73544000D02*
X113150000Y-72714000D01*
X113146000Y-72710000D02*
X113466000Y-72390000D01*
X114326000Y-72390000D02*
X114150000Y-72390000D01*
X114650000Y-72714000D02*
X114326000Y-72390000D01*
X114650000Y-73544000D02*
X114650000Y-72714000D01*
X113466000Y-72390000D02*
X114150000Y-72390000D01*
X114150000Y-72390000D02*
X114300000Y-72390000D01*
D26*
X152350001Y-71420000D02*
X152350000Y-71420000D01*
X152350000Y-71420000D02*
X152025011Y-71744989D01*
X152025011Y-83772489D02*
X152025011Y-82365011D01*
X149877500Y-85920000D02*
X152025011Y-83772489D01*
X149065000Y-85920000D02*
X149877500Y-85920000D01*
X152025011Y-71744989D02*
X152025011Y-82365011D01*
X147240000Y-93120000D02*
X147240000Y-94310000D01*
X147240000Y-94310000D02*
X147230000Y-94320000D01*
X149070000Y-85925000D02*
X149065000Y-85920000D01*
X149070000Y-87030000D02*
X149070000Y-85925000D01*
X139449072Y-93719072D02*
X140050000Y-94320000D01*
X139429072Y-93719072D02*
X139449072Y-93719072D01*
X138930000Y-93220000D02*
X139429072Y-93719072D01*
X140050000Y-94320000D02*
X147230000Y-94320000D01*
X156450000Y-76630000D02*
X154590000Y-76630000D01*
X154590000Y-76630000D02*
X154580000Y-76620000D01*
X145700000Y-44800000D02*
X145700000Y-43600000D01*
X145700000Y-43745000D02*
X145700000Y-43600000D01*
X150140000Y-71370000D02*
X150190000Y-71420000D01*
X150140000Y-63864414D02*
X150140000Y-71370000D01*
X145700000Y-43600000D02*
X145700000Y-43430000D01*
X145700000Y-43430000D02*
X146445000Y-42685000D01*
X149475002Y-42685000D02*
X151040000Y-44249998D01*
X146445000Y-42685000D02*
X149475002Y-42685000D01*
X151040000Y-44249998D02*
X151040000Y-62964414D01*
X151040000Y-62964414D02*
X150140000Y-63864414D01*
D30*
X138355000Y-93220000D02*
X138930000Y-93220000D01*
X131496000Y-93220000D02*
X138355000Y-93220000D01*
X112650000Y-74374000D02*
X131496000Y-93220000D01*
X112650000Y-73544000D02*
X112650000Y-74374000D01*
D27*
X140820000Y-77070000D02*
X140820000Y-80840000D01*
X140820000Y-80840000D02*
X142090000Y-82110000D01*
X145850000Y-76940000D02*
X145850000Y-82110000D01*
X145850000Y-75810000D02*
X145850000Y-76940000D01*
D26*
X148785000Y-40950000D02*
X148805000Y-40930000D01*
X148160000Y-40950000D02*
X148785000Y-40950000D01*
X148785000Y-40950000D02*
X149330000Y-40950000D01*
X149330000Y-40950000D02*
X149800000Y-41420000D01*
X138970000Y-77070000D02*
X140820000Y-77070000D01*
X145850000Y-67305858D02*
X145850000Y-67770000D01*
X150350000Y-62805858D02*
X145850000Y-67305858D01*
D27*
X145850000Y-67770000D02*
X145850000Y-75810000D01*
D26*
X150347245Y-52007757D02*
X150350000Y-52010512D01*
X150350000Y-52010512D02*
X150350000Y-62805858D01*
X148585000Y-45720000D02*
X149568862Y-45720000D01*
X149568862Y-45720000D02*
X149668796Y-45620066D01*
X150347245Y-45732830D02*
X150347245Y-45852755D01*
X150234481Y-45620066D02*
X150347245Y-45732830D01*
X149668796Y-45620066D02*
X150234481Y-45620066D01*
X150347245Y-45852755D02*
X150347245Y-52007757D01*
X145700000Y-45400000D02*
X146880000Y-45400000D01*
X147010000Y-45270000D02*
X147010000Y-43350000D01*
X146880000Y-45400000D02*
X147010000Y-45270000D01*
D30*
X132550000Y-82110000D02*
X143150000Y-82110000D01*
X127150000Y-76710000D02*
X132550000Y-82110000D01*
X127150000Y-73544000D02*
X127150000Y-76710000D01*
D27*
X142090000Y-82110000D02*
X143150000Y-82110000D01*
X143150000Y-82110000D02*
X145850000Y-82110000D01*
D30*
X127150000Y-74374000D02*
X127150000Y-73544000D01*
X127150000Y-74509836D02*
X127150000Y-74374000D01*
X126439835Y-75220001D02*
X127150000Y-74509836D01*
X114069999Y-75220001D02*
X126439835Y-75220001D01*
X113650000Y-74800002D02*
X114069999Y-75220001D01*
X113650000Y-73544000D02*
X113650000Y-74800002D01*
D28*
X149890000Y-31080000D02*
X149890000Y-32080000D01*
D26*
X136890000Y-30625000D02*
X136240000Y-30625000D01*
X137586942Y-31321942D02*
X136890000Y-30625000D01*
X146630000Y-48230000D02*
X146630000Y-48654298D01*
X145700000Y-47800000D02*
X146200000Y-47800000D01*
X146200000Y-47800000D02*
X146630000Y-48230000D01*
D28*
X137586942Y-38248942D02*
X137586942Y-36216942D01*
X138664000Y-39326000D02*
X137586942Y-38248942D01*
D26*
X137586942Y-36216942D02*
X137586942Y-31321942D01*
D28*
X148160000Y-31060000D02*
X148140000Y-31080000D01*
X148160000Y-28990000D02*
X148160000Y-31060000D01*
X136240000Y-29550000D02*
X136240000Y-30625000D01*
X137299072Y-28490928D02*
X136240000Y-29550000D01*
X147660928Y-28490928D02*
X137299072Y-28490928D01*
X148160000Y-28990000D02*
X147660928Y-28490928D01*
D26*
X146090000Y-90220000D02*
X146290000Y-90420000D01*
X146090000Y-85920000D02*
X146090000Y-90220000D01*
X146190000Y-90320000D02*
X146290000Y-90420000D01*
X143490000Y-90320000D02*
X146190000Y-90320000D01*
D29*
X148765000Y-90420000D02*
X148190000Y-90420000D01*
X149040000Y-90145000D02*
X148765000Y-90420000D01*
X149040000Y-88320000D02*
X149040000Y-90145000D01*
D26*
X152650011Y-72640000D02*
X152650011Y-85119989D01*
X152650011Y-85119989D02*
X152650011Y-86289989D01*
X152650011Y-86989989D02*
X152650011Y-85119989D01*
X151320000Y-88320000D02*
X152650011Y-86989989D01*
X149040000Y-88320000D02*
X151320000Y-88320000D01*
X150660000Y-72650000D02*
X149340000Y-72650000D01*
X149340000Y-72650000D02*
X148650000Y-71960000D01*
X148650000Y-71960000D02*
X148650000Y-64930136D01*
X148650000Y-64930136D02*
X150682139Y-62897997D01*
X156450000Y-80790000D02*
X154550000Y-80790000D01*
X154550000Y-80790000D02*
X154540000Y-80800000D01*
X150682139Y-45325752D02*
X150682139Y-45522139D01*
X149876387Y-44520000D02*
X150682139Y-45325752D01*
X148585000Y-44520000D02*
X149876387Y-44520000D01*
X150682139Y-62897997D02*
X150682139Y-45522139D01*
D30*
X132716001Y-94940001D02*
X149469999Y-94940001D01*
X112150000Y-73544000D02*
X112150000Y-74374000D01*
X112150000Y-74374000D02*
X132716001Y-94940001D01*
D26*
X156500000Y-63780000D02*
X154450000Y-63780000D01*
X154450000Y-63780000D02*
X154410000Y-63820000D01*
X148585000Y-46320000D02*
X149450000Y-46320000D01*
X149450000Y-46320000D02*
X149680000Y-46550000D01*
X105760000Y-37840000D02*
X105760000Y-35675000D01*
D27*
X149680000Y-49260000D02*
X149680000Y-49800000D01*
X148585000Y-48720000D02*
X149140000Y-48720000D01*
X149140000Y-48720000D02*
X149680000Y-49260000D01*
D26*
X108300000Y-38180000D02*
X108300000Y-38465000D01*
X108300000Y-38180000D02*
X108300000Y-35675000D01*
D27*
X148585000Y-49320000D02*
X148064299Y-49320000D01*
X148064299Y-49320000D02*
X147540000Y-49844299D01*
D26*
X110840000Y-38990000D02*
X110840000Y-39090000D01*
X110840000Y-38990000D02*
X110840000Y-35675000D01*
D27*
X149700756Y-50480756D02*
X149700756Y-50839298D01*
X148585000Y-49920000D02*
X149140000Y-49920000D01*
X149140000Y-49920000D02*
X149700756Y-50480756D01*
D26*
X113380000Y-39490000D02*
X113380000Y-39715000D01*
X113380000Y-39490000D02*
X113380000Y-35675000D01*
D27*
X148585000Y-50520000D02*
X148079996Y-50520000D01*
X148079996Y-50520000D02*
X147540000Y-51059996D01*
D26*
X156490000Y-68080000D02*
X154440000Y-68080000D01*
X154440000Y-68080000D02*
X154430000Y-68070000D01*
D28*
X148585000Y-55920000D02*
X149210000Y-55920000D01*
D26*
X149690000Y-57300000D02*
X149690000Y-61870000D01*
D28*
X149210000Y-55920000D02*
X149690000Y-56400000D01*
X149690000Y-56400000D02*
X149690000Y-57300000D01*
D26*
X105760000Y-32350000D02*
X107060000Y-33650000D01*
X105760000Y-30625000D02*
X105760000Y-32350000D01*
X107060000Y-33650000D02*
X107060000Y-46610000D01*
D30*
X138919335Y-48400000D02*
X139356000Y-48400000D01*
D26*
X138999058Y-48400000D02*
X139356000Y-48400000D01*
X139356000Y-48400000D02*
X145700000Y-48400000D01*
D30*
X138227334Y-47708000D02*
X138699667Y-48180333D01*
X136886000Y-47708000D02*
X138227334Y-47708000D01*
X138699667Y-48180333D02*
X138919335Y-48400000D01*
D26*
X108300000Y-30625000D02*
X108300000Y-31700000D01*
X108300000Y-31700000D02*
X110114999Y-33514999D01*
X110149314Y-48154999D02*
X110114999Y-48154999D01*
X110114999Y-33514999D02*
X110114999Y-48154999D01*
X110114999Y-48344999D02*
X110114999Y-48154999D01*
X110390000Y-48620000D02*
X110114999Y-48344999D01*
X145200000Y-49000000D02*
X145700000Y-49000000D01*
X139167418Y-49000000D02*
X145200000Y-49000000D01*
D30*
X138213685Y-48694230D02*
X137648000Y-48694230D01*
X138519455Y-49000000D02*
X138213685Y-48694230D01*
X139167418Y-49000000D02*
X138519455Y-49000000D01*
D26*
X112060000Y-33570000D02*
X112060000Y-34414998D01*
X110840000Y-30625000D02*
X110840000Y-32350000D01*
X110840000Y-32350000D02*
X112060000Y-33570000D01*
X112060000Y-34414998D02*
X112060000Y-49620000D01*
X145656181Y-49643819D02*
X145700000Y-49600000D01*
X138323943Y-49643819D02*
X145656181Y-49643819D01*
X114030000Y-30625000D02*
X114710000Y-31305000D01*
X113380000Y-30625000D02*
X114030000Y-30625000D01*
X114710000Y-31305000D02*
X114710000Y-50480000D01*
X145200000Y-50200000D02*
X145700000Y-50200000D01*
X139277894Y-50200000D02*
X145200000Y-50200000D01*
X138884089Y-50593805D02*
X139277894Y-50200000D01*
X138318404Y-50593805D02*
X138884089Y-50593805D01*
X141320000Y-33950000D02*
X142180000Y-33090000D01*
X141320000Y-35675000D02*
X141320000Y-33950000D01*
X142180000Y-33090000D02*
X144890000Y-33090000D01*
X144890000Y-33090000D02*
X144890000Y-33180000D01*
X153490000Y-90835000D02*
X153490000Y-90580000D01*
X152765000Y-91560000D02*
X153490000Y-90835000D01*
X152190000Y-91560000D02*
X152765000Y-91560000D01*
X153490000Y-90580000D02*
X153490000Y-69980000D01*
X144890000Y-33180000D02*
X149895000Y-38185000D01*
D27*
X151330010Y-39620010D02*
X151330010Y-63149990D01*
X149895000Y-38185000D02*
X151330010Y-39620010D01*
D26*
X150760000Y-63720000D02*
X151175000Y-63305000D01*
X150760000Y-70010000D02*
X150760000Y-63720000D01*
D27*
X151330010Y-63149990D02*
X151175000Y-63305000D01*
D28*
X148390000Y-93320000D02*
X148190000Y-93120000D01*
X150490000Y-93320000D02*
X148390000Y-93320000D01*
D26*
X150500000Y-93310000D02*
X150490000Y-93320000D01*
X152190000Y-93310000D02*
X150500000Y-93310000D01*
X136240000Y-42690000D02*
X136240000Y-35675000D01*
D30*
X136240000Y-42690000D02*
X136240000Y-42773233D01*
X136240000Y-42773233D02*
X136105000Y-42908233D01*
X145687617Y-46587617D02*
X145700000Y-46600000D01*
X139784383Y-46587617D02*
X145687617Y-46587617D01*
X127650000Y-68248982D02*
X135480000Y-60418982D01*
X127650000Y-73544000D02*
X127650000Y-68248982D01*
X135480000Y-60418982D02*
X135480000Y-45327648D01*
X135480000Y-45327648D02*
X137002207Y-43805441D01*
D26*
X145700000Y-47200000D02*
X146460000Y-47200000D01*
X146460000Y-47200000D02*
X146470000Y-47210000D01*
D28*
X140647233Y-41946188D02*
X139899999Y-41198954D01*
D26*
X139900000Y-31095000D02*
X139430000Y-30625000D01*
X139430000Y-30625000D02*
X138780000Y-30625000D01*
D28*
X139900000Y-41138000D02*
X139900000Y-40884000D01*
D26*
X139900000Y-41138000D02*
X139900000Y-31095000D01*
D30*
X126650000Y-73544000D02*
X126650000Y-68810562D01*
X126650000Y-68810562D02*
X135030001Y-60430561D01*
X138903812Y-41946188D02*
X140647233Y-41946188D01*
X138903812Y-41946188D02*
X137984647Y-41946188D01*
X135330835Y-44600000D02*
X137984647Y-41946188D01*
X135330835Y-44600000D02*
X135130000Y-44800835D01*
X135130000Y-44800835D02*
X135129165Y-44800835D01*
X135129165Y-60331397D02*
X134020009Y-61440553D01*
X135129165Y-44800835D02*
X135129165Y-60331397D01*
D26*
X115920000Y-30625000D02*
X115920000Y-32350000D01*
X115920000Y-32350000D02*
X117290000Y-33720000D01*
X117290000Y-33720000D02*
X117290000Y-51520000D01*
X117290000Y-51520000D02*
X117290000Y-51750000D01*
X138886042Y-51543805D02*
X138892237Y-51550000D01*
X138320357Y-51543805D02*
X138886042Y-51543805D01*
X145200000Y-50800000D02*
X145700000Y-50800000D01*
X143364008Y-50800000D02*
X145200000Y-50800000D01*
X142614008Y-51550000D02*
X143364008Y-50800000D01*
X138892237Y-51550000D02*
X142614008Y-51550000D01*
D30*
X115150000Y-51960000D02*
X114720000Y-51530000D01*
X115150000Y-73544000D02*
X115150000Y-51960000D01*
D26*
X119635001Y-32875001D02*
X119635001Y-52504999D01*
X118460000Y-30625000D02*
X118460000Y-31700000D01*
X118460000Y-31700000D02*
X119635001Y-32875001D01*
X138336534Y-52493669D02*
X142066331Y-52493669D01*
X143160000Y-51400000D02*
X145700000Y-51400000D01*
X142066331Y-52493669D02*
X143160000Y-51400000D01*
D30*
X116240010Y-52809990D02*
X116550000Y-52500000D01*
X116240010Y-72623990D02*
X116240010Y-52809990D01*
X116150000Y-73544000D02*
X116150000Y-72714000D01*
X116150000Y-72714000D02*
X116240010Y-72623990D01*
D26*
X122100000Y-33450000D02*
X122100000Y-34294998D01*
X121000000Y-30625000D02*
X121000000Y-32350000D01*
X121000000Y-32350000D02*
X122100000Y-33450000D01*
X122100000Y-53250000D02*
X122100000Y-52550000D01*
X122100000Y-34294998D02*
X122100000Y-52550000D01*
X122100000Y-52550000D02*
X122100000Y-52990000D01*
X145200000Y-52000000D02*
X145700000Y-52000000D01*
X142978016Y-52000000D02*
X145200000Y-52000000D01*
X141548016Y-53430000D02*
X142978016Y-52000000D01*
X138310000Y-53430000D02*
X141548016Y-53430000D01*
D30*
X117150000Y-73544000D02*
X117150000Y-72714000D01*
X117150000Y-72714000D02*
X117150000Y-71452562D01*
X117150000Y-71452562D02*
X119090000Y-69512562D01*
X119090000Y-69512562D02*
X119090000Y-53258574D01*
D26*
X123540000Y-32350000D02*
X125120000Y-33930000D01*
X123540000Y-30625000D02*
X123540000Y-32350000D01*
X125120000Y-53584315D02*
X125120000Y-53080000D01*
X125110000Y-53594315D02*
X125120000Y-53584315D01*
X125110000Y-54160000D02*
X125110000Y-53594315D01*
X125120000Y-33930000D02*
X125120000Y-53080000D01*
X125120000Y-53080000D02*
X125120000Y-53290000D01*
X138929121Y-54378498D02*
X138930623Y-54380000D01*
X138363436Y-54378498D02*
X138929121Y-54378498D01*
X145200000Y-52600000D02*
X145700000Y-52600000D01*
X142774008Y-52600000D02*
X145200000Y-52600000D01*
X140994008Y-54380000D02*
X142774008Y-52600000D01*
X138930623Y-54380000D02*
X140994008Y-54380000D01*
D28*
X119650000Y-73544000D02*
X119650000Y-70500000D01*
X119650000Y-70500000D02*
X122100000Y-68050000D01*
X122100000Y-68050000D02*
X122100000Y-54180003D01*
D26*
X126080000Y-30625000D02*
X126730000Y-30625000D01*
X126730000Y-30625000D02*
X127525001Y-31420001D01*
X138362927Y-55327073D02*
X138311381Y-55327073D01*
X127525001Y-54779316D02*
X127525001Y-53615001D01*
X127540000Y-54794315D02*
X127525001Y-54779316D01*
X127540000Y-55360000D02*
X127540000Y-54794315D01*
X127525001Y-31420001D02*
X127525001Y-53615001D01*
X127525001Y-53615001D02*
X127525001Y-53824999D01*
X138311381Y-55327073D02*
X140442927Y-55327073D01*
X142570000Y-53200000D02*
X145700000Y-53200000D01*
X140442927Y-55327073D02*
X142570000Y-53200000D01*
D28*
X125120000Y-66290704D02*
X125120000Y-55360000D01*
X120650000Y-73544000D02*
X120650000Y-70760704D01*
X120650000Y-70760704D02*
X125120000Y-66290704D01*
D26*
X128620000Y-32350000D02*
X129630000Y-33360000D01*
X128620000Y-30625000D02*
X128620000Y-32350000D01*
X129630000Y-55644315D02*
X129630000Y-54180000D01*
X129620000Y-55654315D02*
X129630000Y-55644315D01*
X129620000Y-56220000D02*
X129620000Y-55654315D01*
X129630000Y-33360000D02*
X129630000Y-54180000D01*
X129630000Y-54180000D02*
X129630000Y-54560000D01*
D27*
X145220000Y-53800000D02*
X145700000Y-53800000D01*
X142370000Y-53800000D02*
X145220000Y-53800000D01*
X139910000Y-56260000D02*
X142370000Y-53800000D01*
X138250000Y-56260000D02*
X139910000Y-56260000D01*
D28*
X121650000Y-73544000D02*
X121650000Y-70910000D01*
X127518870Y-64990426D02*
X127518870Y-56289762D01*
X121650000Y-70910000D02*
X121650000Y-70859296D01*
X121650000Y-70859296D02*
X127518870Y-64990426D01*
D26*
X131160000Y-32350000D02*
X132680000Y-33870000D01*
X131160000Y-30625000D02*
X131160000Y-32350000D01*
X132680000Y-33870000D02*
X132680000Y-55150000D01*
X132692846Y-56502846D02*
X132692846Y-57222846D01*
X132680000Y-56490000D02*
X132692846Y-56502846D01*
X132680000Y-56490000D02*
X132680000Y-56650000D01*
X132680000Y-55150000D02*
X132680000Y-56490000D01*
D27*
X138841326Y-57222846D02*
X138844172Y-57220000D01*
X138275641Y-57222846D02*
X138841326Y-57222846D01*
X145220000Y-54400000D02*
X145700000Y-54400000D01*
X142239966Y-54400000D02*
X145220000Y-54400000D01*
X139419966Y-57220000D02*
X142239966Y-54400000D01*
X138844172Y-57220000D02*
X139419966Y-57220000D01*
D28*
X129620000Y-63822704D02*
X129620000Y-57230000D01*
X123650000Y-73544000D02*
X123650000Y-69792704D01*
X123650000Y-69792704D02*
X129620000Y-63822704D01*
D27*
X145220000Y-55000000D02*
X145700000Y-55000000D01*
X142007674Y-55000000D02*
X145220000Y-55000000D01*
X138834848Y-58172826D02*
X142007674Y-55000000D01*
X138269163Y-58172826D02*
X138834848Y-58172826D01*
D30*
X133700000Y-32380000D02*
X133700000Y-30625000D01*
X134420001Y-33100001D02*
X133700000Y-32380000D01*
X134410000Y-57260000D02*
X134420001Y-57249999D01*
X134410000Y-58122000D02*
X134410000Y-57260000D01*
X134420001Y-57466314D02*
X134420001Y-57249999D01*
X134420001Y-57249999D02*
X134420001Y-33100001D01*
D28*
X124650000Y-73544000D02*
X124650000Y-69808704D01*
X124650000Y-69808704D02*
X132689961Y-61768743D01*
X132689961Y-61768743D02*
X132689961Y-58152843D01*
D26*
X148585000Y-46920000D02*
X147824999Y-46920000D01*
X147824999Y-46920000D02*
X147819999Y-46915000D01*
D28*
X139295000Y-36190000D02*
X138780000Y-35675000D01*
X139295000Y-40596000D02*
X139295000Y-36190000D01*
D30*
X128650000Y-73544000D02*
X128650000Y-72714000D01*
X128650000Y-72714000D02*
X128650000Y-68125822D01*
X136265999Y-60509823D02*
X136265999Y-46054001D01*
X128650000Y-68125822D02*
X136265999Y-60509823D01*
X136265999Y-46054001D02*
X139330000Y-42990000D01*
X139330000Y-42990000D02*
X141490000Y-42990000D01*
X141490000Y-42990000D02*
X142650000Y-41830000D01*
D26*
X140670000Y-30625000D02*
X141320000Y-30625000D01*
X140530000Y-30765000D02*
X140670000Y-30625000D01*
X148585000Y-47520000D02*
X147280000Y-47520000D01*
X147280000Y-47520000D02*
X147214999Y-47454999D01*
X147214999Y-47454999D02*
X147214999Y-46655159D01*
X147214999Y-46655159D02*
X147012858Y-46453018D01*
X140530000Y-40938000D02*
X140530000Y-30765000D01*
D28*
X146398000Y-40938000D02*
X146410000Y-40950000D01*
D30*
X142528000Y-40983023D02*
X142528000Y-40938000D01*
X140944834Y-42566189D02*
X142528000Y-40983023D01*
X139173811Y-42566189D02*
X140944834Y-42566189D01*
X138010000Y-43730000D02*
X139173811Y-42566189D01*
X137995250Y-43730000D02*
X138010000Y-43730000D01*
D28*
X142528000Y-40938000D02*
X146398000Y-40938000D01*
X140530000Y-40938000D02*
X142528000Y-40938000D01*
D30*
X128150000Y-73544000D02*
X128150000Y-68187402D01*
X128150000Y-68187402D02*
X135790010Y-60547392D01*
X135790010Y-60547392D02*
X135790010Y-45935240D01*
X135790010Y-45935240D02*
X137995250Y-43730000D01*
D26*
X115920000Y-40020000D02*
X115920000Y-40340000D01*
X115920000Y-40020000D02*
X115920000Y-35675000D01*
D27*
X148585000Y-51120000D02*
X149140000Y-51120000D01*
X149140000Y-51120000D02*
X149330000Y-51310000D01*
X149330000Y-51668542D02*
X149740729Y-52079271D01*
X149330000Y-51310000D02*
X149330000Y-51668542D01*
D28*
X115920000Y-40340000D02*
X115920000Y-71214000D01*
X115650000Y-71484000D02*
X115650000Y-73544000D01*
X115920000Y-71214000D02*
X115650000Y-71484000D01*
D26*
X118460000Y-40710000D02*
X118460000Y-40965000D01*
X118460000Y-40710000D02*
X118460000Y-35675000D01*
D27*
X148585000Y-51720000D02*
X148110105Y-51720000D01*
X148110105Y-51720000D02*
X147580108Y-52249997D01*
D28*
X118460000Y-40965000D02*
X118460000Y-69690000D01*
X116650000Y-71500000D02*
X116650000Y-73544000D01*
X118460000Y-69690000D02*
X116650000Y-71500000D01*
D29*
X121000000Y-37500000D02*
X121010000Y-37510000D01*
X121000000Y-37370000D02*
X121000000Y-37500000D01*
X121000000Y-35675000D02*
X121000000Y-37370000D01*
D26*
X121000000Y-41330000D02*
X121000000Y-41590000D01*
X121000000Y-35675000D02*
X121000000Y-41330000D01*
D27*
X149674252Y-52854252D02*
X149674252Y-53212794D01*
X148585000Y-52320000D02*
X149140000Y-52320000D01*
X149140000Y-52320000D02*
X149674252Y-52854252D01*
D30*
X119150000Y-71032000D02*
X119150000Y-70610000D01*
X119150000Y-70610000D02*
X119150000Y-70150000D01*
X121000000Y-68300000D02*
X121000000Y-68180000D01*
D28*
X121000000Y-67920000D02*
X121000000Y-68300000D01*
X121000000Y-67920000D02*
X121000000Y-68180000D01*
X121000000Y-41590000D02*
X121000000Y-67920000D01*
X119150000Y-70150000D02*
X119210000Y-70090000D01*
X119150000Y-71670000D02*
X119150000Y-70150000D01*
X121000000Y-68300000D02*
X119210000Y-70090000D01*
X119150000Y-71670000D02*
X119150000Y-73544000D01*
X119150000Y-71032000D02*
X119150000Y-71670000D01*
D27*
X148585000Y-52920000D02*
X148089998Y-52920000D01*
X148089998Y-52920000D02*
X147570000Y-53439998D01*
D26*
X123540000Y-35675000D02*
X123540000Y-41890000D01*
X123540000Y-41890000D02*
X123540000Y-42215000D01*
D28*
X123540000Y-67404000D02*
X123540000Y-42215000D01*
X120150000Y-70794000D02*
X123540000Y-67404000D01*
X120150000Y-73544000D02*
X120150000Y-70794000D01*
D26*
X126080000Y-42490000D02*
X126080000Y-42840000D01*
X126080000Y-35675000D02*
X126080000Y-42490000D01*
D27*
X149581330Y-53961330D02*
X149581330Y-54330526D01*
X148585000Y-53520000D02*
X149140000Y-53520000D01*
X149140000Y-53520000D02*
X149581330Y-53961330D01*
D28*
X121150000Y-72694000D02*
X121150000Y-73544000D01*
X121150000Y-70768704D02*
X121150000Y-72694000D01*
X126080000Y-65838704D02*
X121150000Y-70768704D01*
X126080000Y-42840000D02*
X126080000Y-65838704D01*
D26*
X128620000Y-43060000D02*
X128620000Y-43465000D01*
X128620000Y-35675000D02*
X128620000Y-43060000D01*
D27*
X148585000Y-54120000D02*
X148084334Y-54120000D01*
X148084334Y-54120000D02*
X147574335Y-54629999D01*
D28*
X128620000Y-43465000D02*
X128620000Y-64356000D01*
X123150000Y-69826000D02*
X123150000Y-73544000D01*
X128620000Y-64356000D02*
X123150000Y-69826000D01*
D26*
X131160000Y-43700000D02*
X131160000Y-44090000D01*
X131160000Y-35675000D02*
X131160000Y-43700000D01*
D27*
X149010000Y-54720000D02*
X149550000Y-55260000D01*
X148585000Y-54720000D02*
X149010000Y-54720000D01*
D28*
X131160000Y-44090000D02*
X131160000Y-62832000D01*
X124150000Y-69842000D02*
X124150000Y-73544000D01*
X131160000Y-62832000D02*
X124150000Y-69842000D01*
D26*
X133700000Y-44370000D02*
X133700000Y-44715000D01*
X133700000Y-35675000D02*
X133700000Y-44370000D01*
D27*
X148030000Y-55320000D02*
X147530000Y-55820000D01*
X148585000Y-55320000D02*
X148030000Y-55320000D01*
D28*
X133700000Y-44715000D02*
X133700000Y-61308000D01*
X125150000Y-69858000D02*
X125150000Y-73544000D01*
X133700000Y-61308000D02*
X125150000Y-69858000D01*
D31*
G36*
X90115738Y-26168228D02*
G01*
X90104859Y-26175497D01*
X89798677Y-26619072D01*
X92000000Y-28820395D01*
X94201323Y-26619072D01*
X93895141Y-26175497D01*
X93680057Y-26060000D01*
X154519158Y-26060000D01*
X154315738Y-26168228D01*
X154304859Y-26175497D01*
X153998677Y-26619072D01*
X156200000Y-28820395D01*
X158401323Y-26619072D01*
X158095141Y-26175497D01*
X157880057Y-26060000D01*
X158740000Y-26060000D01*
X158740000Y-26908478D01*
X158580928Y-26798677D01*
X156379605Y-29000000D01*
X158580928Y-31201323D01*
X158740000Y-31091522D01*
X158740001Y-40032419D01*
X158740257Y-40035021D01*
X158730252Y-40338748D01*
X158663259Y-40626940D01*
X158541563Y-40896637D01*
X158369801Y-41137558D01*
X158154515Y-41340527D01*
X157903905Y-41497817D01*
X157612692Y-41609098D01*
X157469369Y-41640739D01*
X152310020Y-42420981D01*
X152310020Y-39640439D01*
X152320020Y-39538904D01*
X152320020Y-37759895D01*
X152323455Y-37725020D01*
X152320020Y-37690143D01*
X152309747Y-37585836D01*
X152269148Y-37452000D01*
X152203220Y-37328657D01*
X152114495Y-37220545D01*
X152087399Y-37198308D01*
X151559212Y-36670121D01*
X151559207Y-36670115D01*
X145201894Y-30312803D01*
X145138199Y-30193637D01*
X145049474Y-30085526D01*
X144998072Y-30043341D01*
X144998072Y-29225928D01*
X146996928Y-29225928D01*
X146996928Y-29227500D01*
X147013752Y-29398316D01*
X147063577Y-29562567D01*
X147144488Y-29713942D01*
X147253377Y-29846623D01*
X147386058Y-29955512D01*
X147425000Y-29976327D01*
X147425001Y-30082983D01*
X147366058Y-30114488D01*
X147233377Y-30223377D01*
X147124488Y-30356058D01*
X147043577Y-30507433D01*
X146993752Y-30671684D01*
X146976928Y-30842500D01*
X146976928Y-31317500D01*
X146993752Y-31488316D01*
X147043577Y-31652567D01*
X147124488Y-31803942D01*
X147233377Y-31936623D01*
X147366058Y-32045512D01*
X147517433Y-32126423D01*
X147681684Y-32176248D01*
X147852500Y-32193072D01*
X148427500Y-32193072D01*
X148598316Y-32176248D01*
X148762567Y-32126423D01*
X148855000Y-32077017D01*
X148855000Y-32181939D01*
X148894774Y-32381898D01*
X148972795Y-32570256D01*
X149086063Y-32739774D01*
X149230226Y-32883937D01*
X149399744Y-32997205D01*
X149588102Y-33075226D01*
X149788061Y-33115000D01*
X149991939Y-33115000D01*
X150191898Y-33075226D01*
X150380256Y-32997205D01*
X150549774Y-32883937D01*
X150693937Y-32739774D01*
X150807205Y-32570256D01*
X150885226Y-32381898D01*
X150925000Y-32181939D01*
X150925000Y-31978061D01*
X150893321Y-31818797D01*
X150905512Y-31803942D01*
X150986423Y-31652567D01*
X151036248Y-31488316D01*
X151046824Y-31380928D01*
X153998677Y-31380928D01*
X154304859Y-31824503D01*
X154892306Y-32139954D01*
X155530008Y-32334740D01*
X156193457Y-32401372D01*
X156857158Y-32337292D01*
X157495605Y-32144962D01*
X158084262Y-31831772D01*
X158095141Y-31824503D01*
X158401323Y-31380928D01*
X156200000Y-29179605D01*
X153998677Y-31380928D01*
X151046824Y-31380928D01*
X151053072Y-31317500D01*
X151053072Y-30842500D01*
X151036248Y-30671684D01*
X150986423Y-30507433D01*
X150905512Y-30356058D01*
X150796623Y-30223377D01*
X150663942Y-30114488D01*
X150597864Y-30079169D01*
X150679180Y-30054502D01*
X150789494Y-29995537D01*
X150886185Y-29916185D01*
X150965537Y-29819494D01*
X151024502Y-29709180D01*
X151060812Y-29589482D01*
X151073072Y-29465000D01*
X151070000Y-29275750D01*
X150911250Y-29117000D01*
X150037000Y-29117000D01*
X150037000Y-29137000D01*
X149783000Y-29137000D01*
X149783000Y-29117000D01*
X149763000Y-29117000D01*
X149763000Y-28993457D01*
X152798628Y-28993457D01*
X152862708Y-29657158D01*
X153055038Y-30295605D01*
X153368228Y-30884262D01*
X153375497Y-30895141D01*
X153819072Y-31201323D01*
X156020395Y-29000000D01*
X153819072Y-26798677D01*
X153375497Y-27104859D01*
X153060046Y-27692306D01*
X152865260Y-28330008D01*
X152798628Y-28993457D01*
X149763000Y-28993457D01*
X149763000Y-28863000D01*
X149783000Y-28863000D01*
X149783000Y-28038750D01*
X150037000Y-28038750D01*
X150037000Y-28863000D01*
X150911250Y-28863000D01*
X151070000Y-28704250D01*
X151073072Y-28515000D01*
X151060812Y-28390518D01*
X151024502Y-28270820D01*
X150965537Y-28160506D01*
X150886185Y-28063815D01*
X150789494Y-27984463D01*
X150679180Y-27925498D01*
X150559482Y-27889188D01*
X150435000Y-27876928D01*
X150195750Y-27880000D01*
X150037000Y-28038750D01*
X149783000Y-28038750D01*
X149624250Y-27880000D01*
X149385000Y-27876928D01*
X149260518Y-27889188D01*
X149140820Y-27925498D01*
X149030506Y-27984463D01*
X148957839Y-28044099D01*
X148933942Y-28024488D01*
X148782567Y-27943577D01*
X148618316Y-27893752D01*
X148447500Y-27876928D01*
X148071354Y-27876928D01*
X148071248Y-27876841D01*
X147943561Y-27808591D01*
X147805013Y-27766563D01*
X147697033Y-27755928D01*
X147660928Y-27752372D01*
X147624823Y-27755928D01*
X137335177Y-27755928D01*
X137299072Y-27752372D01*
X137154986Y-27766563D01*
X137112958Y-27779312D01*
X137016439Y-27808591D01*
X136888752Y-27876841D01*
X136776834Y-27968690D01*
X136753818Y-27996735D01*
X136338625Y-28411928D01*
X135740000Y-28411928D01*
X135615518Y-28424188D01*
X135495820Y-28460498D01*
X135385506Y-28519463D01*
X135288815Y-28598815D01*
X135209463Y-28695506D01*
X135150498Y-28805820D01*
X135114188Y-28925518D01*
X135101928Y-29050000D01*
X135101928Y-32200000D01*
X135114188Y-32324482D01*
X135150498Y-32444180D01*
X135209463Y-32554494D01*
X135288815Y-32651185D01*
X135385506Y-32730537D01*
X135495820Y-32789502D01*
X135615518Y-32825812D01*
X135740000Y-32838072D01*
X136740000Y-32838072D01*
X136864482Y-32825812D01*
X136876943Y-32822032D01*
X136876943Y-33477968D01*
X136864482Y-33474188D01*
X136740000Y-33461928D01*
X135740000Y-33461928D01*
X135615518Y-33474188D01*
X135495820Y-33510498D01*
X135385506Y-33569463D01*
X135288815Y-33648815D01*
X135209463Y-33745506D01*
X135150498Y-33855820D01*
X135145001Y-33873941D01*
X135145001Y-33135597D01*
X135148507Y-33100000D01*
X135145001Y-33064403D01*
X135145001Y-33064394D01*
X135134510Y-32957876D01*
X135093054Y-32821213D01*
X135025732Y-32695264D01*
X135024397Y-32693637D01*
X134957831Y-32612526D01*
X134957829Y-32612524D01*
X134935133Y-32584869D01*
X134907478Y-32562173D01*
X134789496Y-32444191D01*
X134789502Y-32444180D01*
X134825812Y-32324482D01*
X134838072Y-32200000D01*
X134838072Y-29050000D01*
X134825812Y-28925518D01*
X134789502Y-28805820D01*
X134730537Y-28695506D01*
X134651185Y-28598815D01*
X134554494Y-28519463D01*
X134444180Y-28460498D01*
X134324482Y-28424188D01*
X134200000Y-28411928D01*
X133200000Y-28411928D01*
X133075518Y-28424188D01*
X132955820Y-28460498D01*
X132845506Y-28519463D01*
X132748815Y-28598815D01*
X132669463Y-28695506D01*
X132610498Y-28805820D01*
X132574188Y-28925518D01*
X132561928Y-29050000D01*
X132561928Y-32200000D01*
X132574188Y-32324482D01*
X132610498Y-32444180D01*
X132669463Y-32554494D01*
X132748815Y-32651185D01*
X132845506Y-32730537D01*
X132955820Y-32789502D01*
X133075518Y-32825812D01*
X133132592Y-32831433D01*
X133153411Y-32856800D01*
X133184868Y-32895131D01*
X133212524Y-32917828D01*
X133695002Y-33400307D01*
X133695002Y-33461928D01*
X133263591Y-33461928D01*
X133184474Y-33365525D01*
X133157383Y-33343292D01*
X132251543Y-32437452D01*
X132285812Y-32324482D01*
X132298072Y-32200000D01*
X132298072Y-29050000D01*
X132285812Y-28925518D01*
X132249502Y-28805820D01*
X132190537Y-28695506D01*
X132111185Y-28598815D01*
X132014494Y-28519463D01*
X131904180Y-28460498D01*
X131784482Y-28424188D01*
X131660000Y-28411928D01*
X130660000Y-28411928D01*
X130535518Y-28424188D01*
X130415820Y-28460498D01*
X130305506Y-28519463D01*
X130208815Y-28598815D01*
X130129463Y-28695506D01*
X130070498Y-28805820D01*
X130034188Y-28925518D01*
X130021928Y-29050000D01*
X130021928Y-32200000D01*
X130034188Y-32324482D01*
X130070498Y-32444180D01*
X130129463Y-32554494D01*
X130208815Y-32651185D01*
X130305506Y-32730537D01*
X130415820Y-32789502D01*
X130535518Y-32825812D01*
X130640487Y-32836150D01*
X130655526Y-32854475D01*
X130682617Y-32876708D01*
X131267837Y-33461928D01*
X130660000Y-33461928D01*
X130535518Y-33474188D01*
X130415820Y-33510498D01*
X130340000Y-33551025D01*
X130340000Y-33394875D01*
X130343435Y-33360000D01*
X130339854Y-33323638D01*
X130329727Y-33220816D01*
X130289128Y-33086980D01*
X130223200Y-32963637D01*
X130134474Y-32855525D01*
X130107383Y-32833292D01*
X129711543Y-32437452D01*
X129745812Y-32324482D01*
X129758072Y-32200000D01*
X129758072Y-29050000D01*
X129745812Y-28925518D01*
X129709502Y-28805820D01*
X129650537Y-28695506D01*
X129571185Y-28598815D01*
X129474494Y-28519463D01*
X129364180Y-28460498D01*
X129244482Y-28424188D01*
X129120000Y-28411928D01*
X128120000Y-28411928D01*
X127995518Y-28424188D01*
X127875820Y-28460498D01*
X127765506Y-28519463D01*
X127668815Y-28598815D01*
X127589463Y-28695506D01*
X127530498Y-28805820D01*
X127494188Y-28925518D01*
X127481928Y-29050000D01*
X127481928Y-30372837D01*
X127256712Y-30147621D01*
X127234475Y-30120525D01*
X127218072Y-30107063D01*
X127218072Y-29050000D01*
X127205812Y-28925518D01*
X127169502Y-28805820D01*
X127110537Y-28695506D01*
X127031185Y-28598815D01*
X126934494Y-28519463D01*
X126824180Y-28460498D01*
X126704482Y-28424188D01*
X126580000Y-28411928D01*
X125580000Y-28411928D01*
X125455518Y-28424188D01*
X125335820Y-28460498D01*
X125225506Y-28519463D01*
X125128815Y-28598815D01*
X125049463Y-28695506D01*
X124990498Y-28805820D01*
X124954188Y-28925518D01*
X124941928Y-29050000D01*
X124941928Y-32200000D01*
X124954188Y-32324482D01*
X124990498Y-32444180D01*
X125049463Y-32554494D01*
X125128815Y-32651185D01*
X125225506Y-32730537D01*
X125335820Y-32789502D01*
X125455518Y-32825812D01*
X125580000Y-32838072D01*
X126580000Y-32838072D01*
X126704482Y-32825812D01*
X126815001Y-32792286D01*
X126815001Y-33507714D01*
X126704482Y-33474188D01*
X126580000Y-33461928D01*
X125654350Y-33461928D01*
X125646707Y-33452615D01*
X125646704Y-33452612D01*
X125624474Y-33425525D01*
X125597389Y-33403297D01*
X124631543Y-32437452D01*
X124665812Y-32324482D01*
X124678072Y-32200000D01*
X124678072Y-29050000D01*
X124665812Y-28925518D01*
X124629502Y-28805820D01*
X124570537Y-28695506D01*
X124491185Y-28598815D01*
X124394494Y-28519463D01*
X124284180Y-28460498D01*
X124164482Y-28424188D01*
X124040000Y-28411928D01*
X123040000Y-28411928D01*
X122915518Y-28424188D01*
X122795820Y-28460498D01*
X122685506Y-28519463D01*
X122588815Y-28598815D01*
X122509463Y-28695506D01*
X122450498Y-28805820D01*
X122414188Y-28925518D01*
X122401928Y-29050000D01*
X122401928Y-32200000D01*
X122414188Y-32324482D01*
X122450498Y-32444180D01*
X122509463Y-32554494D01*
X122588815Y-32651185D01*
X122685506Y-32730537D01*
X122795820Y-32789502D01*
X122915518Y-32825812D01*
X123020487Y-32836150D01*
X123035526Y-32854475D01*
X123062617Y-32876708D01*
X123647837Y-33461928D01*
X123040000Y-33461928D01*
X122915518Y-33474188D01*
X122810000Y-33506197D01*
X122810000Y-33484875D01*
X122813435Y-33450000D01*
X122810000Y-33415123D01*
X122799727Y-33310816D01*
X122759128Y-33176980D01*
X122693200Y-33053637D01*
X122604474Y-32945525D01*
X122577383Y-32923292D01*
X122091543Y-32437452D01*
X122125812Y-32324482D01*
X122138072Y-32200000D01*
X122138072Y-29050000D01*
X122125812Y-28925518D01*
X122089502Y-28805820D01*
X122030537Y-28695506D01*
X121951185Y-28598815D01*
X121854494Y-28519463D01*
X121744180Y-28460498D01*
X121624482Y-28424188D01*
X121500000Y-28411928D01*
X120500000Y-28411928D01*
X120375518Y-28424188D01*
X120255820Y-28460498D01*
X120145506Y-28519463D01*
X120048815Y-28598815D01*
X119969463Y-28695506D01*
X119910498Y-28805820D01*
X119874188Y-28925518D01*
X119861928Y-29050000D01*
X119861928Y-32097836D01*
X119598072Y-31833980D01*
X119598072Y-29050000D01*
X119585812Y-28925518D01*
X119549502Y-28805820D01*
X119490537Y-28695506D01*
X119411185Y-28598815D01*
X119314494Y-28519463D01*
X119204180Y-28460498D01*
X119084482Y-28424188D01*
X118960000Y-28411928D01*
X117960000Y-28411928D01*
X117835518Y-28424188D01*
X117715820Y-28460498D01*
X117605506Y-28519463D01*
X117508815Y-28598815D01*
X117429463Y-28695506D01*
X117370498Y-28805820D01*
X117334188Y-28925518D01*
X117321928Y-29050000D01*
X117321928Y-32200000D01*
X117334188Y-32324482D01*
X117370498Y-32444180D01*
X117429463Y-32554494D01*
X117508815Y-32651185D01*
X117605506Y-32730537D01*
X117715820Y-32789502D01*
X117835518Y-32825812D01*
X117960000Y-32838072D01*
X118593980Y-32838072D01*
X118925001Y-33169093D01*
X118925001Y-33461928D01*
X117960000Y-33461928D01*
X117953846Y-33462534D01*
X117949128Y-33446980D01*
X117913046Y-33379475D01*
X117883200Y-33323637D01*
X117794474Y-33215525D01*
X117767383Y-33193292D01*
X117011543Y-32437452D01*
X117045812Y-32324482D01*
X117058072Y-32200000D01*
X117058072Y-29050000D01*
X117045812Y-28925518D01*
X117009502Y-28805820D01*
X116950537Y-28695506D01*
X116871185Y-28598815D01*
X116774494Y-28519463D01*
X116664180Y-28460498D01*
X116544482Y-28424188D01*
X116420000Y-28411928D01*
X115420000Y-28411928D01*
X115295518Y-28424188D01*
X115175820Y-28460498D01*
X115065506Y-28519463D01*
X114968815Y-28598815D01*
X114889463Y-28695506D01*
X114830498Y-28805820D01*
X114794188Y-28925518D01*
X114781928Y-29050000D01*
X114781928Y-30372837D01*
X114556712Y-30147621D01*
X114534475Y-30120525D01*
X114518072Y-30107063D01*
X114518072Y-29050000D01*
X114505812Y-28925518D01*
X114469502Y-28805820D01*
X114410537Y-28695506D01*
X114331185Y-28598815D01*
X114234494Y-28519463D01*
X114124180Y-28460498D01*
X114004482Y-28424188D01*
X113880000Y-28411928D01*
X112880000Y-28411928D01*
X112755518Y-28424188D01*
X112635820Y-28460498D01*
X112525506Y-28519463D01*
X112428815Y-28598815D01*
X112349463Y-28695506D01*
X112290498Y-28805820D01*
X112254188Y-28925518D01*
X112241928Y-29050000D01*
X112241928Y-32200000D01*
X112254188Y-32324482D01*
X112290498Y-32444180D01*
X112349463Y-32554494D01*
X112428815Y-32651185D01*
X112525506Y-32730537D01*
X112635820Y-32789502D01*
X112755518Y-32825812D01*
X112880000Y-32838072D01*
X113880000Y-32838072D01*
X114000000Y-32826253D01*
X114000000Y-33473747D01*
X113880000Y-33461928D01*
X112880000Y-33461928D01*
X112763917Y-33473361D01*
X112759727Y-33430815D01*
X112719128Y-33296980D01*
X112695960Y-33253636D01*
X112653200Y-33173637D01*
X112564474Y-33065525D01*
X112537383Y-33043292D01*
X111931543Y-32437452D01*
X111965812Y-32324482D01*
X111978072Y-32200000D01*
X111978072Y-29050000D01*
X111965812Y-28925518D01*
X111929502Y-28805820D01*
X111870537Y-28695506D01*
X111791185Y-28598815D01*
X111694494Y-28519463D01*
X111584180Y-28460498D01*
X111464482Y-28424188D01*
X111340000Y-28411928D01*
X110340000Y-28411928D01*
X110215518Y-28424188D01*
X110095820Y-28460498D01*
X109985506Y-28519463D01*
X109888815Y-28598815D01*
X109809463Y-28695506D01*
X109750498Y-28805820D01*
X109714188Y-28925518D01*
X109701928Y-29050000D01*
X109701928Y-32097837D01*
X109438072Y-31833981D01*
X109438072Y-29050000D01*
X109425812Y-28925518D01*
X109389502Y-28805820D01*
X109330537Y-28695506D01*
X109251185Y-28598815D01*
X109154494Y-28519463D01*
X109044180Y-28460498D01*
X108924482Y-28424188D01*
X108800000Y-28411928D01*
X107800000Y-28411928D01*
X107675518Y-28424188D01*
X107555820Y-28460498D01*
X107445506Y-28519463D01*
X107348815Y-28598815D01*
X107269463Y-28695506D01*
X107210498Y-28805820D01*
X107174188Y-28925518D01*
X107161928Y-29050000D01*
X107161928Y-32200000D01*
X107174188Y-32324482D01*
X107210498Y-32444180D01*
X107269463Y-32554494D01*
X107348815Y-32651185D01*
X107445506Y-32730537D01*
X107555820Y-32789502D01*
X107675518Y-32825812D01*
X107800000Y-32838072D01*
X108433981Y-32838072D01*
X109215151Y-33619243D01*
X109154494Y-33569463D01*
X109044180Y-33510498D01*
X108924482Y-33474188D01*
X108800000Y-33461928D01*
X107800000Y-33461928D01*
X107746495Y-33467198D01*
X107719128Y-33376980D01*
X107653200Y-33253637D01*
X107564474Y-33145525D01*
X107537383Y-33123292D01*
X106851543Y-32437452D01*
X106885812Y-32324482D01*
X106898072Y-32200000D01*
X106898072Y-29050000D01*
X106885812Y-28925518D01*
X106849502Y-28805820D01*
X106790537Y-28695506D01*
X106711185Y-28598815D01*
X106614494Y-28519463D01*
X106504180Y-28460498D01*
X106384482Y-28424188D01*
X106260000Y-28411928D01*
X105260000Y-28411928D01*
X105135518Y-28424188D01*
X105015820Y-28460498D01*
X104905506Y-28519463D01*
X104808815Y-28598815D01*
X104729463Y-28695506D01*
X104670498Y-28805820D01*
X104634188Y-28925518D01*
X104621928Y-29050000D01*
X104621928Y-32200000D01*
X104634188Y-32324482D01*
X104670498Y-32444180D01*
X104729463Y-32554494D01*
X104808815Y-32651185D01*
X104905506Y-32730537D01*
X105015820Y-32789502D01*
X105135518Y-32825812D01*
X105240487Y-32836150D01*
X105255526Y-32854475D01*
X105282617Y-32876708D01*
X105867837Y-33461928D01*
X105260000Y-33461928D01*
X105135518Y-33474188D01*
X105015820Y-33510498D01*
X104905506Y-33569463D01*
X104808815Y-33648815D01*
X104729463Y-33745506D01*
X104670498Y-33855820D01*
X104634188Y-33975518D01*
X104621928Y-34100000D01*
X104621928Y-37250000D01*
X104634188Y-37374482D01*
X104670498Y-37494180D01*
X104729463Y-37604494D01*
X104747255Y-37626174D01*
X104725000Y-37738061D01*
X104725000Y-37941939D01*
X104764774Y-38141898D01*
X104842795Y-38330256D01*
X104956063Y-38499774D01*
X105100226Y-38643937D01*
X105269744Y-38757205D01*
X105458102Y-38835226D01*
X105658061Y-38875000D01*
X105861939Y-38875000D01*
X106061898Y-38835226D01*
X106250256Y-38757205D01*
X106350000Y-38690558D01*
X106350001Y-45856288D01*
X106256063Y-45950226D01*
X106142795Y-46119744D01*
X106064774Y-46308102D01*
X106025000Y-46508061D01*
X106025000Y-46711939D01*
X106064774Y-46911898D01*
X106142795Y-47100256D01*
X106256063Y-47269774D01*
X106400226Y-47413937D01*
X106569744Y-47527205D01*
X106758102Y-47605226D01*
X106958061Y-47645000D01*
X107161939Y-47645000D01*
X107361898Y-47605226D01*
X107550256Y-47527205D01*
X107719774Y-47413937D01*
X107863937Y-47269774D01*
X107977205Y-47100256D01*
X108055226Y-46911898D01*
X108095000Y-46711939D01*
X108095000Y-46508061D01*
X108055226Y-46308102D01*
X107977205Y-46119744D01*
X107863937Y-45950226D01*
X107770000Y-45856289D01*
X107770000Y-39355649D01*
X107809744Y-39382205D01*
X107998102Y-39460226D01*
X108198061Y-39500000D01*
X108401939Y-39500000D01*
X108601898Y-39460226D01*
X108790256Y-39382205D01*
X108959774Y-39268937D01*
X109103937Y-39124774D01*
X109217205Y-38955256D01*
X109295226Y-38766898D01*
X109335000Y-38566939D01*
X109335000Y-38363061D01*
X109295226Y-38163102D01*
X109217205Y-37974744D01*
X109105086Y-37806946D01*
X109154494Y-37780537D01*
X109251185Y-37701185D01*
X109330537Y-37604494D01*
X109389502Y-37494180D01*
X109404999Y-37443092D01*
X109405000Y-48120112D01*
X109401564Y-48154999D01*
X109404999Y-48189876D01*
X109404999Y-48293417D01*
X109394774Y-48318102D01*
X109355000Y-48518061D01*
X109355000Y-48721939D01*
X109394774Y-48921898D01*
X109472795Y-49110256D01*
X109586063Y-49279774D01*
X109730226Y-49423937D01*
X109899744Y-49537205D01*
X110088102Y-49615226D01*
X110288061Y-49655000D01*
X110491939Y-49655000D01*
X110691898Y-49615226D01*
X110880256Y-49537205D01*
X111042795Y-49428600D01*
X111025000Y-49518061D01*
X111025000Y-49721939D01*
X111064774Y-49921898D01*
X111142795Y-50110256D01*
X111256063Y-50279774D01*
X111400226Y-50423937D01*
X111569744Y-50537205D01*
X111758102Y-50615226D01*
X111958061Y-50655000D01*
X112161939Y-50655000D01*
X112361898Y-50615226D01*
X112550256Y-50537205D01*
X112719774Y-50423937D01*
X112863937Y-50279774D01*
X112977205Y-50110256D01*
X113055226Y-49921898D01*
X113095000Y-49721939D01*
X113095000Y-49518061D01*
X113055226Y-49318102D01*
X112977205Y-49129744D01*
X112863937Y-48960226D01*
X112770000Y-48866289D01*
X112770000Y-40079932D01*
X112786800Y-40111363D01*
X112875526Y-40219475D01*
X112983638Y-40308200D01*
X113106981Y-40374128D01*
X113240817Y-40414727D01*
X113380000Y-40428435D01*
X113519184Y-40414727D01*
X113653020Y-40374128D01*
X113776363Y-40308200D01*
X113884475Y-40219475D01*
X113973200Y-40111363D01*
X114000000Y-40061222D01*
X114000001Y-49726288D01*
X113906063Y-49820226D01*
X113792795Y-49989744D01*
X113714774Y-50178102D01*
X113675000Y-50378061D01*
X113675000Y-50581939D01*
X113714774Y-50781898D01*
X113792795Y-50970256D01*
X113821010Y-51012483D01*
X113802795Y-51039744D01*
X113724774Y-51228102D01*
X113685000Y-51428061D01*
X113685000Y-51631939D01*
X113724774Y-51831898D01*
X113802795Y-52020256D01*
X113916063Y-52189774D01*
X114060226Y-52333937D01*
X114229744Y-52447205D01*
X114418102Y-52525226D01*
X114425001Y-52526598D01*
X114425000Y-72263752D01*
X114400000Y-72266499D01*
X114331750Y-72259000D01*
X114299205Y-72291545D01*
X114246182Y-72308584D01*
X114150899Y-72361542D01*
X114044180Y-72304498D01*
X114000497Y-72291247D01*
X113968250Y-72259000D01*
X113903465Y-72266118D01*
X113800000Y-72255928D01*
X113500000Y-72255928D01*
X113396535Y-72266118D01*
X113331750Y-72259000D01*
X113299503Y-72291247D01*
X113255820Y-72304498D01*
X113150000Y-72361061D01*
X113044180Y-72304498D01*
X113000497Y-72291247D01*
X112968250Y-72259000D01*
X112903465Y-72266118D01*
X112800000Y-72255928D01*
X112500000Y-72255928D01*
X112400000Y-72265777D01*
X112300000Y-72255928D01*
X112000000Y-72255928D01*
X111875518Y-72268188D01*
X111755820Y-72304498D01*
X111645506Y-72363463D01*
X111548815Y-72442815D01*
X111469463Y-72539506D01*
X111410498Y-72649820D01*
X111374188Y-72769518D01*
X111361928Y-72894000D01*
X111361928Y-74194000D01*
X111374188Y-74318482D01*
X111410498Y-74438180D01*
X111431726Y-74477895D01*
X111435492Y-74516125D01*
X111444842Y-74546948D01*
X111476947Y-74652787D01*
X111544269Y-74778736D01*
X111612170Y-74861474D01*
X111612173Y-74861477D01*
X111634869Y-74889132D01*
X111662524Y-74911828D01*
X132178173Y-95427478D01*
X132200869Y-95455133D01*
X132228524Y-95477829D01*
X132228526Y-95477831D01*
X132311264Y-95545733D01*
X132412370Y-95599775D01*
X132437213Y-95613054D01*
X132573876Y-95654510D01*
X132680394Y-95665001D01*
X132680401Y-95665001D01*
X132716001Y-95668507D01*
X132751601Y-95665001D01*
X148731288Y-95665001D01*
X148810225Y-95743938D01*
X148979743Y-95857206D01*
X149168101Y-95935227D01*
X149368060Y-95975001D01*
X149571938Y-95975001D01*
X149771897Y-95935227D01*
X149960255Y-95857206D01*
X150129773Y-95743938D01*
X150273936Y-95599775D01*
X150387204Y-95430257D01*
X150465225Y-95241899D01*
X150504999Y-95041940D01*
X150504999Y-94838062D01*
X150465225Y-94638103D01*
X150401009Y-94483072D01*
X150727500Y-94483072D01*
X150898316Y-94466248D01*
X151062567Y-94416423D01*
X151213942Y-94335512D01*
X151346092Y-94227058D01*
X151466058Y-94325512D01*
X151617433Y-94406423D01*
X151781684Y-94456248D01*
X151952500Y-94473072D01*
X152427500Y-94473072D01*
X152598316Y-94456248D01*
X152762567Y-94406423D01*
X152913942Y-94325512D01*
X153046623Y-94216623D01*
X153155512Y-94083942D01*
X153236423Y-93932567D01*
X153286248Y-93768316D01*
X153303072Y-93597500D01*
X153303072Y-93022500D01*
X153286248Y-92851684D01*
X153236423Y-92687433D01*
X153155512Y-92536058D01*
X153072575Y-92435000D01*
X153155512Y-92333942D01*
X153236423Y-92182567D01*
X153273871Y-92059119D01*
X153291712Y-92037379D01*
X153967383Y-91361708D01*
X153994474Y-91339475D01*
X154083200Y-91231363D01*
X154149128Y-91108020D01*
X154189727Y-90974184D01*
X154200000Y-90869877D01*
X154200000Y-90869875D01*
X154203435Y-90835000D01*
X154200000Y-90800125D01*
X154200000Y-81779444D01*
X154238102Y-81795226D01*
X154438061Y-81835000D01*
X154561928Y-81835000D01*
X154561928Y-82040000D01*
X154574188Y-82164482D01*
X154610498Y-82284180D01*
X154669463Y-82394494D01*
X154748815Y-82491185D01*
X154845506Y-82570537D01*
X154955820Y-82629502D01*
X155075518Y-82665812D01*
X155200000Y-82678072D01*
X157700000Y-82678072D01*
X157824482Y-82665812D01*
X157944180Y-82629502D01*
X158054494Y-82570537D01*
X158151185Y-82491185D01*
X158230537Y-82394494D01*
X158289502Y-82284180D01*
X158325812Y-82164482D01*
X158338072Y-82040000D01*
X158338072Y-79540000D01*
X158325812Y-79415518D01*
X158289502Y-79295820D01*
X158230537Y-79185506D01*
X158151185Y-79088815D01*
X158054494Y-79009463D01*
X157944180Y-78950498D01*
X157824482Y-78914188D01*
X157700000Y-78901928D01*
X155200000Y-78901928D01*
X155075518Y-78914188D01*
X154955820Y-78950498D01*
X154845506Y-79009463D01*
X154748815Y-79088815D01*
X154669463Y-79185506D01*
X154610498Y-79295820D01*
X154574188Y-79415518D01*
X154561928Y-79540000D01*
X154561928Y-79765000D01*
X154438061Y-79765000D01*
X154238102Y-79804774D01*
X154200000Y-79820556D01*
X154200000Y-77582875D01*
X154278102Y-77615226D01*
X154478061Y-77655000D01*
X154561928Y-77655000D01*
X154561928Y-77880000D01*
X154574188Y-78004482D01*
X154610498Y-78124180D01*
X154669463Y-78234494D01*
X154748815Y-78331185D01*
X154845506Y-78410537D01*
X154955820Y-78469502D01*
X155075518Y-78505812D01*
X155200000Y-78518072D01*
X157700000Y-78518072D01*
X157824482Y-78505812D01*
X157944180Y-78469502D01*
X158054494Y-78410537D01*
X158151185Y-78331185D01*
X158230537Y-78234494D01*
X158289502Y-78124180D01*
X158325812Y-78004482D01*
X158338072Y-77880000D01*
X158338072Y-75380000D01*
X158325812Y-75255518D01*
X158289502Y-75135820D01*
X158230537Y-75025506D01*
X158151185Y-74928815D01*
X158054494Y-74849463D01*
X157944180Y-74790498D01*
X157824482Y-74754188D01*
X157700000Y-74741928D01*
X155200000Y-74741928D01*
X155075518Y-74754188D01*
X154955820Y-74790498D01*
X154845506Y-74849463D01*
X154748815Y-74928815D01*
X154669463Y-75025506D01*
X154610498Y-75135820D01*
X154574188Y-75255518D01*
X154561928Y-75380000D01*
X154561928Y-75585000D01*
X154478061Y-75585000D01*
X154278102Y-75624774D01*
X154200000Y-75657125D01*
X154200000Y-73368733D01*
X154288102Y-73405226D01*
X154488061Y-73445000D01*
X154561928Y-73445000D01*
X154561928Y-73660000D01*
X154574188Y-73784482D01*
X154610498Y-73904180D01*
X154669463Y-74014494D01*
X154748815Y-74111185D01*
X154845506Y-74190537D01*
X154955820Y-74249502D01*
X155075518Y-74285812D01*
X155200000Y-74298072D01*
X157700000Y-74298072D01*
X157824482Y-74285812D01*
X157944180Y-74249502D01*
X158054494Y-74190537D01*
X158151185Y-74111185D01*
X158230537Y-74014494D01*
X158289502Y-73904180D01*
X158325812Y-73784482D01*
X158338072Y-73660000D01*
X158338072Y-71160000D01*
X158325812Y-71035518D01*
X158289502Y-70915820D01*
X158230537Y-70805506D01*
X158151185Y-70708815D01*
X158054494Y-70629463D01*
X157944180Y-70570498D01*
X157824482Y-70534188D01*
X157700000Y-70521928D01*
X155200000Y-70521928D01*
X155075518Y-70534188D01*
X154955820Y-70570498D01*
X154845506Y-70629463D01*
X154748815Y-70708815D01*
X154669463Y-70805506D01*
X154610498Y-70915820D01*
X154574188Y-71035518D01*
X154561928Y-71160000D01*
X154561928Y-71375000D01*
X154488061Y-71375000D01*
X154288102Y-71414774D01*
X154200000Y-71451267D01*
X154200000Y-70733711D01*
X154293937Y-70639774D01*
X154407205Y-70470256D01*
X154485226Y-70281898D01*
X154525000Y-70081939D01*
X154525000Y-69878061D01*
X154485226Y-69678102D01*
X154407205Y-69489744D01*
X154293937Y-69320226D01*
X154149774Y-69176063D01*
X153980256Y-69062795D01*
X153791898Y-68984774D01*
X153591939Y-68945000D01*
X153388061Y-68945000D01*
X153188102Y-68984774D01*
X152999744Y-69062795D01*
X152830226Y-69176063D01*
X152686063Y-69320226D01*
X152572795Y-69489744D01*
X152494774Y-69678102D01*
X152455000Y-69878061D01*
X152455000Y-70081939D01*
X152494774Y-70281898D01*
X152545161Y-70403543D01*
X152451940Y-70385000D01*
X152248062Y-70385000D01*
X152090010Y-70416438D01*
X152090010Y-69583701D01*
X152193947Y-69479764D01*
X152307215Y-69310246D01*
X152385236Y-69121888D01*
X152425010Y-68921929D01*
X152425010Y-68718051D01*
X152385236Y-68518092D01*
X152353000Y-68440268D01*
X152353000Y-67968061D01*
X153395000Y-67968061D01*
X153395000Y-68171939D01*
X153434774Y-68371898D01*
X153512795Y-68560256D01*
X153626063Y-68729774D01*
X153770226Y-68873937D01*
X153939744Y-68987205D01*
X154128102Y-69065226D01*
X154328061Y-69105000D01*
X154531939Y-69105000D01*
X154601928Y-69091078D01*
X154601928Y-69330000D01*
X154614188Y-69454482D01*
X154650498Y-69574180D01*
X154709463Y-69684494D01*
X154788815Y-69781185D01*
X154885506Y-69860537D01*
X154995820Y-69919502D01*
X155115518Y-69955812D01*
X155240000Y-69968072D01*
X157740000Y-69968072D01*
X157864482Y-69955812D01*
X157984180Y-69919502D01*
X158094494Y-69860537D01*
X158191185Y-69781185D01*
X158270537Y-69684494D01*
X158329502Y-69574180D01*
X158365812Y-69454482D01*
X158378072Y-69330000D01*
X158378072Y-66830000D01*
X158365812Y-66705518D01*
X158329502Y-66585820D01*
X158270537Y-66475506D01*
X158191185Y-66378815D01*
X158094494Y-66299463D01*
X157984180Y-66240498D01*
X157864482Y-66204188D01*
X157740000Y-66191928D01*
X155240000Y-66191928D01*
X155115518Y-66204188D01*
X154995820Y-66240498D01*
X154885506Y-66299463D01*
X154788815Y-66378815D01*
X154709463Y-66475506D01*
X154650498Y-66585820D01*
X154614188Y-66705518D01*
X154601928Y-66830000D01*
X154601928Y-67048922D01*
X154531939Y-67035000D01*
X154328061Y-67035000D01*
X154128102Y-67074774D01*
X153939744Y-67152795D01*
X153770226Y-67266063D01*
X153626063Y-67410226D01*
X153512795Y-67579744D01*
X153434774Y-67768102D01*
X153395000Y-67968061D01*
X152353000Y-67968061D01*
X152353000Y-63718061D01*
X153375000Y-63718061D01*
X153375000Y-63921939D01*
X153414774Y-64121898D01*
X153492795Y-64310256D01*
X153606063Y-64479774D01*
X153750226Y-64623937D01*
X153919744Y-64737205D01*
X154108102Y-64815226D01*
X154308061Y-64855000D01*
X154511939Y-64855000D01*
X154611928Y-64835111D01*
X154611928Y-65030000D01*
X154624188Y-65154482D01*
X154660498Y-65274180D01*
X154719463Y-65384494D01*
X154798815Y-65481185D01*
X154895506Y-65560537D01*
X155005820Y-65619502D01*
X155125518Y-65655812D01*
X155250000Y-65668072D01*
X157750000Y-65668072D01*
X157874482Y-65655812D01*
X157994180Y-65619502D01*
X158104494Y-65560537D01*
X158201185Y-65481185D01*
X158280537Y-65384494D01*
X158339502Y-65274180D01*
X158375812Y-65154482D01*
X158388072Y-65030000D01*
X158388072Y-62530000D01*
X158375812Y-62405518D01*
X158339502Y-62285820D01*
X158280537Y-62175506D01*
X158201185Y-62078815D01*
X158104494Y-61999463D01*
X157994180Y-61940498D01*
X157874482Y-61904188D01*
X157750000Y-61891928D01*
X155250000Y-61891928D01*
X155125518Y-61904188D01*
X155005820Y-61940498D01*
X154895506Y-61999463D01*
X154798815Y-62078815D01*
X154719463Y-62175506D01*
X154660498Y-62285820D01*
X154624188Y-62405518D01*
X154611928Y-62530000D01*
X154611928Y-62804889D01*
X154511939Y-62785000D01*
X154308061Y-62785000D01*
X154108102Y-62824774D01*
X153919744Y-62902795D01*
X153750226Y-63016063D01*
X153606063Y-63160226D01*
X153492795Y-63329744D01*
X153414774Y-63518102D01*
X153375000Y-63718061D01*
X152353000Y-63718061D01*
X152353000Y-63345402D01*
X152356555Y-63309307D01*
X152353000Y-63273212D01*
X152353000Y-63273203D01*
X152342365Y-63165223D01*
X152310020Y-63058596D01*
X152310020Y-58736119D01*
X157460422Y-59804162D01*
X157782391Y-59897350D01*
X158045297Y-60033291D01*
X158276785Y-60217701D01*
X158468047Y-60443567D01*
X158611800Y-60702285D01*
X158702558Y-60983986D01*
X158740000Y-61304749D01*
X158740001Y-117130595D01*
X158714899Y-117105493D01*
X158601322Y-117219070D01*
X158295141Y-116775497D01*
X157707694Y-116460046D01*
X157069992Y-116265260D01*
X156406543Y-116198628D01*
X155742842Y-116262708D01*
X155104395Y-116455038D01*
X154515738Y-116768228D01*
X154504859Y-116775497D01*
X154198677Y-117219072D01*
X156400000Y-119420395D01*
X156414143Y-119406253D01*
X156593748Y-119585858D01*
X156579605Y-119600000D01*
X156593748Y-119614143D01*
X156414143Y-119793748D01*
X156400000Y-119779605D01*
X154198677Y-121980928D01*
X154504859Y-122424503D01*
X154719943Y-122540000D01*
X93680842Y-122540000D01*
X93884262Y-122431772D01*
X93895141Y-122424503D01*
X94201323Y-121980928D01*
X92000000Y-119779605D01*
X89798677Y-121980928D01*
X90104859Y-122424503D01*
X90319943Y-122540000D01*
X89560000Y-122540000D01*
X89560000Y-121760548D01*
X89619072Y-121801323D01*
X91820395Y-119600000D01*
X92179605Y-119600000D01*
X94380928Y-121801323D01*
X94824503Y-121495141D01*
X95139954Y-120907694D01*
X95334740Y-120269992D01*
X95401372Y-119606543D01*
X95400109Y-119593457D01*
X152998628Y-119593457D01*
X153062708Y-120257158D01*
X153255038Y-120895605D01*
X153568228Y-121484262D01*
X153575497Y-121495141D01*
X154019072Y-121801323D01*
X156220395Y-119600000D01*
X154019072Y-117398677D01*
X153575497Y-117704859D01*
X153260046Y-118292306D01*
X153065260Y-118930008D01*
X152998628Y-119593457D01*
X95400109Y-119593457D01*
X95337292Y-118942842D01*
X95144962Y-118304395D01*
X94831772Y-117715738D01*
X94824503Y-117704859D01*
X94380928Y-117398677D01*
X92179605Y-119600000D01*
X91820395Y-119600000D01*
X89619072Y-117398677D01*
X89560000Y-117439452D01*
X89560000Y-117219072D01*
X89798677Y-117219072D01*
X92000000Y-119420395D01*
X94201323Y-117219072D01*
X93895141Y-116775497D01*
X93307694Y-116460046D01*
X92669992Y-116265260D01*
X92006543Y-116198628D01*
X91342842Y-116262708D01*
X90704395Y-116455038D01*
X90115738Y-116768228D01*
X90104859Y-116775497D01*
X89798677Y-117219072D01*
X89560000Y-117219072D01*
X89560000Y-75694000D01*
X108711928Y-75694000D01*
X108711928Y-77894000D01*
X108724188Y-78018482D01*
X108760498Y-78138180D01*
X108819463Y-78248494D01*
X108898815Y-78345185D01*
X108995506Y-78424537D01*
X109105820Y-78483502D01*
X109225518Y-78519812D01*
X109350000Y-78532072D01*
X111150000Y-78532072D01*
X111274482Y-78519812D01*
X111394180Y-78483502D01*
X111504494Y-78424537D01*
X111601185Y-78345185D01*
X111680537Y-78248494D01*
X111739502Y-78138180D01*
X111775812Y-78018482D01*
X111788072Y-77894000D01*
X111788072Y-75694000D01*
X111775812Y-75569518D01*
X111739502Y-75449820D01*
X111680537Y-75339506D01*
X111601185Y-75242815D01*
X111504494Y-75163463D01*
X111394180Y-75104498D01*
X111274482Y-75068188D01*
X111150000Y-75055928D01*
X109350000Y-75055928D01*
X109225518Y-75068188D01*
X109105820Y-75104498D01*
X108995506Y-75163463D01*
X108898815Y-75242815D01*
X108819463Y-75339506D01*
X108760498Y-75449820D01*
X108724188Y-75569518D01*
X108711928Y-75694000D01*
X89560000Y-75694000D01*
X89560000Y-31380928D01*
X89798677Y-31380928D01*
X90104859Y-31824503D01*
X90692306Y-32139954D01*
X91330008Y-32334740D01*
X91993457Y-32401372D01*
X92657158Y-32337292D01*
X93295605Y-32144962D01*
X93884262Y-31831772D01*
X93895141Y-31824503D01*
X94201323Y-31380928D01*
X92000000Y-29179605D01*
X89798677Y-31380928D01*
X89560000Y-31380928D01*
X89560000Y-31160548D01*
X89619072Y-31201323D01*
X91820395Y-29000000D01*
X92179605Y-29000000D01*
X94380928Y-31201323D01*
X94824503Y-30895141D01*
X95139954Y-30307694D01*
X95334740Y-29669992D01*
X95401372Y-29006543D01*
X95337292Y-28342842D01*
X95144962Y-27704395D01*
X94831772Y-27115738D01*
X94824503Y-27104859D01*
X94380928Y-26798677D01*
X92179605Y-29000000D01*
X91820395Y-29000000D01*
X89619072Y-26798677D01*
X89560000Y-26839452D01*
X89560000Y-26060000D01*
X90319158Y-26060000D01*
X90115738Y-26168228D01*
X90115738Y-26168228D01*
G37*
X90115738Y-26168228D02*
X90104859Y-26175497D01*
X89798677Y-26619072D01*
X92000000Y-28820395D01*
X94201323Y-26619072D01*
X93895141Y-26175497D01*
X93680057Y-26060000D01*
X154519158Y-26060000D01*
X154315738Y-26168228D01*
X154304859Y-26175497D01*
X153998677Y-26619072D01*
X156200000Y-28820395D01*
X158401323Y-26619072D01*
X158095141Y-26175497D01*
X157880057Y-26060000D01*
X158740000Y-26060000D01*
X158740000Y-26908478D01*
X158580928Y-26798677D01*
X156379605Y-29000000D01*
X158580928Y-31201323D01*
X158740000Y-31091522D01*
X158740001Y-40032419D01*
X158740257Y-40035021D01*
X158730252Y-40338748D01*
X158663259Y-40626940D01*
X158541563Y-40896637D01*
X158369801Y-41137558D01*
X158154515Y-41340527D01*
X157903905Y-41497817D01*
X157612692Y-41609098D01*
X157469369Y-41640739D01*
X152310020Y-42420981D01*
X152310020Y-39640439D01*
X152320020Y-39538904D01*
X152320020Y-37759895D01*
X152323455Y-37725020D01*
X152320020Y-37690143D01*
X152309747Y-37585836D01*
X152269148Y-37452000D01*
X152203220Y-37328657D01*
X152114495Y-37220545D01*
X152087399Y-37198308D01*
X151559212Y-36670121D01*
X151559207Y-36670115D01*
X145201894Y-30312803D01*
X145138199Y-30193637D01*
X145049474Y-30085526D01*
X144998072Y-30043341D01*
X144998072Y-29225928D01*
X146996928Y-29225928D01*
X146996928Y-29227500D01*
X147013752Y-29398316D01*
X147063577Y-29562567D01*
X147144488Y-29713942D01*
X147253377Y-29846623D01*
X147386058Y-29955512D01*
X147425000Y-29976327D01*
X147425001Y-30082983D01*
X147366058Y-30114488D01*
X147233377Y-30223377D01*
X147124488Y-30356058D01*
X147043577Y-30507433D01*
X146993752Y-30671684D01*
X146976928Y-30842500D01*
X146976928Y-31317500D01*
X146993752Y-31488316D01*
X147043577Y-31652567D01*
X147124488Y-31803942D01*
X147233377Y-31936623D01*
X147366058Y-32045512D01*
X147517433Y-32126423D01*
X147681684Y-32176248D01*
X147852500Y-32193072D01*
X148427500Y-32193072D01*
X148598316Y-32176248D01*
X148762567Y-32126423D01*
X148855000Y-32077017D01*
X148855000Y-32181939D01*
X148894774Y-32381898D01*
X148972795Y-32570256D01*
X149086063Y-32739774D01*
X149230226Y-32883937D01*
X149399744Y-32997205D01*
X149588102Y-33075226D01*
X149788061Y-33115000D01*
X149991939Y-33115000D01*
X150191898Y-33075226D01*
X150380256Y-32997205D01*
X150549774Y-32883937D01*
X150693937Y-32739774D01*
X150807205Y-32570256D01*
X150885226Y-32381898D01*
X150925000Y-32181939D01*
X150925000Y-31978061D01*
X150893321Y-31818797D01*
X150905512Y-31803942D01*
X150986423Y-31652567D01*
X151036248Y-31488316D01*
X151046824Y-31380928D01*
X153998677Y-31380928D01*
X154304859Y-31824503D01*
X154892306Y-32139954D01*
X155530008Y-32334740D01*
X156193457Y-32401372D01*
X156857158Y-32337292D01*
X157495605Y-32144962D01*
X158084262Y-31831772D01*
X158095141Y-31824503D01*
X158401323Y-31380928D01*
X156200000Y-29179605D01*
X153998677Y-31380928D01*
X151046824Y-31380928D01*
X151053072Y-31317500D01*
X151053072Y-30842500D01*
X151036248Y-30671684D01*
X150986423Y-30507433D01*
X150905512Y-30356058D01*
X150796623Y-30223377D01*
X150663942Y-30114488D01*
X150597864Y-30079169D01*
X150679180Y-30054502D01*
X150789494Y-29995537D01*
X150886185Y-29916185D01*
X150965537Y-29819494D01*
X151024502Y-29709180D01*
X151060812Y-29589482D01*
X151073072Y-29465000D01*
X151070000Y-29275750D01*
X150911250Y-29117000D01*
X150037000Y-29117000D01*
X150037000Y-29137000D01*
X149783000Y-29137000D01*
X149783000Y-29117000D01*
X149763000Y-29117000D01*
X149763000Y-28993457D01*
X152798628Y-28993457D01*
X152862708Y-29657158D01*
X153055038Y-30295605D01*
X153368228Y-30884262D01*
X153375497Y-30895141D01*
X153819072Y-31201323D01*
X156020395Y-29000000D01*
X153819072Y-26798677D01*
X153375497Y-27104859D01*
X153060046Y-27692306D01*
X152865260Y-28330008D01*
X152798628Y-28993457D01*
X149763000Y-28993457D01*
X149763000Y-28863000D01*
X149783000Y-28863000D01*
X149783000Y-28038750D01*
X150037000Y-28038750D01*
X150037000Y-28863000D01*
X150911250Y-28863000D01*
X151070000Y-28704250D01*
X151073072Y-28515000D01*
X151060812Y-28390518D01*
X151024502Y-28270820D01*
X150965537Y-28160506D01*
X150886185Y-28063815D01*
X150789494Y-27984463D01*
X150679180Y-27925498D01*
X150559482Y-27889188D01*
X150435000Y-27876928D01*
X150195750Y-27880000D01*
X150037000Y-28038750D01*
X149783000Y-28038750D01*
X149624250Y-27880000D01*
X149385000Y-27876928D01*
X149260518Y-27889188D01*
X149140820Y-27925498D01*
X149030506Y-27984463D01*
X148957839Y-28044099D01*
X148933942Y-28024488D01*
X148782567Y-27943577D01*
X148618316Y-27893752D01*
X148447500Y-27876928D01*
X148071354Y-27876928D01*
X148071248Y-27876841D01*
X147943561Y-27808591D01*
X147805013Y-27766563D01*
X147697033Y-27755928D01*
X147660928Y-27752372D01*
X147624823Y-27755928D01*
X137335177Y-27755928D01*
X137299072Y-27752372D01*
X137154986Y-27766563D01*
X137112958Y-27779312D01*
X137016439Y-27808591D01*
X136888752Y-27876841D01*
X136776834Y-27968690D01*
X136753818Y-27996735D01*
X136338625Y-28411928D01*
X135740000Y-28411928D01*
X135615518Y-28424188D01*
X135495820Y-28460498D01*
X135385506Y-28519463D01*
X135288815Y-28598815D01*
X135209463Y-28695506D01*
X135150498Y-28805820D01*
X135114188Y-28925518D01*
X135101928Y-29050000D01*
X135101928Y-32200000D01*
X135114188Y-32324482D01*
X135150498Y-32444180D01*
X135209463Y-32554494D01*
X135288815Y-32651185D01*
X135385506Y-32730537D01*
X135495820Y-32789502D01*
X135615518Y-32825812D01*
X135740000Y-32838072D01*
X136740000Y-32838072D01*
X136864482Y-32825812D01*
X136876943Y-32822032D01*
X136876943Y-33477968D01*
X136864482Y-33474188D01*
X136740000Y-33461928D01*
X135740000Y-33461928D01*
X135615518Y-33474188D01*
X135495820Y-33510498D01*
X135385506Y-33569463D01*
X135288815Y-33648815D01*
X135209463Y-33745506D01*
X135150498Y-33855820D01*
X135145001Y-33873941D01*
X135145001Y-33135597D01*
X135148507Y-33100000D01*
X135145001Y-33064403D01*
X135145001Y-33064394D01*
X135134510Y-32957876D01*
X135093054Y-32821213D01*
X135025732Y-32695264D01*
X135024397Y-32693637D01*
X134957831Y-32612526D01*
X134957829Y-32612524D01*
X134935133Y-32584869D01*
X134907478Y-32562173D01*
X134789496Y-32444191D01*
X134789502Y-32444180D01*
X134825812Y-32324482D01*
X134838072Y-32200000D01*
X134838072Y-29050000D01*
X134825812Y-28925518D01*
X134789502Y-28805820D01*
X134730537Y-28695506D01*
X134651185Y-28598815D01*
X134554494Y-28519463D01*
X134444180Y-28460498D01*
X134324482Y-28424188D01*
X134200000Y-28411928D01*
X133200000Y-28411928D01*
X133075518Y-28424188D01*
X132955820Y-28460498D01*
X132845506Y-28519463D01*
X132748815Y-28598815D01*
X132669463Y-28695506D01*
X132610498Y-28805820D01*
X132574188Y-28925518D01*
X132561928Y-29050000D01*
X132561928Y-32200000D01*
X132574188Y-32324482D01*
X132610498Y-32444180D01*
X132669463Y-32554494D01*
X132748815Y-32651185D01*
X132845506Y-32730537D01*
X132955820Y-32789502D01*
X133075518Y-32825812D01*
X133132592Y-32831433D01*
X133153411Y-32856800D01*
X133184868Y-32895131D01*
X133212524Y-32917828D01*
X133695002Y-33400307D01*
X133695002Y-33461928D01*
X133263591Y-33461928D01*
X133184474Y-33365525D01*
X133157383Y-33343292D01*
X132251543Y-32437452D01*
X132285812Y-32324482D01*
X132298072Y-32200000D01*
X132298072Y-29050000D01*
X132285812Y-28925518D01*
X132249502Y-28805820D01*
X132190537Y-28695506D01*
X132111185Y-28598815D01*
X132014494Y-28519463D01*
X131904180Y-28460498D01*
X131784482Y-28424188D01*
X131660000Y-28411928D01*
X130660000Y-28411928D01*
X130535518Y-28424188D01*
X130415820Y-28460498D01*
X130305506Y-28519463D01*
X130208815Y-28598815D01*
X130129463Y-28695506D01*
X130070498Y-28805820D01*
X130034188Y-28925518D01*
X130021928Y-29050000D01*
X130021928Y-32200000D01*
X130034188Y-32324482D01*
X130070498Y-32444180D01*
X130129463Y-32554494D01*
X130208815Y-32651185D01*
X130305506Y-32730537D01*
X130415820Y-32789502D01*
X130535518Y-32825812D01*
X130640487Y-32836150D01*
X130655526Y-32854475D01*
X130682617Y-32876708D01*
X131267837Y-33461928D01*
X130660000Y-33461928D01*
X130535518Y-33474188D01*
X130415820Y-33510498D01*
X130340000Y-33551025D01*
X130340000Y-33394875D01*
X130343435Y-33360000D01*
X130339854Y-33323638D01*
X130329727Y-33220816D01*
X130289128Y-33086980D01*
X130223200Y-32963637D01*
X130134474Y-32855525D01*
X130107383Y-32833292D01*
X129711543Y-32437452D01*
X129745812Y-32324482D01*
X129758072Y-32200000D01*
X129758072Y-29050000D01*
X129745812Y-28925518D01*
X129709502Y-28805820D01*
X129650537Y-28695506D01*
X129571185Y-28598815D01*
X129474494Y-28519463D01*
X129364180Y-28460498D01*
X129244482Y-28424188D01*
X129120000Y-28411928D01*
X128120000Y-28411928D01*
X127995518Y-28424188D01*
X127875820Y-28460498D01*
X127765506Y-28519463D01*
X127668815Y-28598815D01*
X127589463Y-28695506D01*
X127530498Y-28805820D01*
X127494188Y-28925518D01*
X127481928Y-29050000D01*
X127481928Y-30372837D01*
X127256712Y-30147621D01*
X127234475Y-30120525D01*
X127218072Y-30107063D01*
X127218072Y-29050000D01*
X127205812Y-28925518D01*
X127169502Y-28805820D01*
X127110537Y-28695506D01*
X127031185Y-28598815D01*
X126934494Y-28519463D01*
X126824180Y-28460498D01*
X126704482Y-28424188D01*
X126580000Y-28411928D01*
X125580000Y-28411928D01*
X125455518Y-28424188D01*
X125335820Y-28460498D01*
X125225506Y-28519463D01*
X125128815Y-28598815D01*
X125049463Y-28695506D01*
X124990498Y-28805820D01*
X124954188Y-28925518D01*
X124941928Y-29050000D01*
X124941928Y-32200000D01*
X124954188Y-32324482D01*
X124990498Y-32444180D01*
X125049463Y-32554494D01*
X125128815Y-32651185D01*
X125225506Y-32730537D01*
X125335820Y-32789502D01*
X125455518Y-32825812D01*
X125580000Y-32838072D01*
X126580000Y-32838072D01*
X126704482Y-32825812D01*
X126815001Y-32792286D01*
X126815001Y-33507714D01*
X126704482Y-33474188D01*
X126580000Y-33461928D01*
X125654350Y-33461928D01*
X125646707Y-33452615D01*
X125646704Y-33452612D01*
X125624474Y-33425525D01*
X125597389Y-33403297D01*
X124631543Y-32437452D01*
X124665812Y-32324482D01*
X124678072Y-32200000D01*
X124678072Y-29050000D01*
X124665812Y-28925518D01*
X124629502Y-28805820D01*
X124570537Y-28695506D01*
X124491185Y-28598815D01*
X124394494Y-28519463D01*
X124284180Y-28460498D01*
X124164482Y-28424188D01*
X124040000Y-28411928D01*
X123040000Y-28411928D01*
X122915518Y-28424188D01*
X122795820Y-28460498D01*
X122685506Y-28519463D01*
X122588815Y-28598815D01*
X122509463Y-28695506D01*
X122450498Y-28805820D01*
X122414188Y-28925518D01*
X122401928Y-29050000D01*
X122401928Y-32200000D01*
X122414188Y-32324482D01*
X122450498Y-32444180D01*
X122509463Y-32554494D01*
X122588815Y-32651185D01*
X122685506Y-32730537D01*
X122795820Y-32789502D01*
X122915518Y-32825812D01*
X123020487Y-32836150D01*
X123035526Y-32854475D01*
X123062617Y-32876708D01*
X123647837Y-33461928D01*
X123040000Y-33461928D01*
X122915518Y-33474188D01*
X122810000Y-33506197D01*
X122810000Y-33484875D01*
X122813435Y-33450000D01*
X122810000Y-33415123D01*
X122799727Y-33310816D01*
X122759128Y-33176980D01*
X122693200Y-33053637D01*
X122604474Y-32945525D01*
X122577383Y-32923292D01*
X122091543Y-32437452D01*
X122125812Y-32324482D01*
X122138072Y-32200000D01*
X122138072Y-29050000D01*
X122125812Y-28925518D01*
X122089502Y-28805820D01*
X122030537Y-28695506D01*
X121951185Y-28598815D01*
X121854494Y-28519463D01*
X121744180Y-28460498D01*
X121624482Y-28424188D01*
X121500000Y-28411928D01*
X120500000Y-28411928D01*
X120375518Y-28424188D01*
X120255820Y-28460498D01*
X120145506Y-28519463D01*
X120048815Y-28598815D01*
X119969463Y-28695506D01*
X119910498Y-28805820D01*
X119874188Y-28925518D01*
X119861928Y-29050000D01*
X119861928Y-32097836D01*
X119598072Y-31833980D01*
X119598072Y-29050000D01*
X119585812Y-28925518D01*
X119549502Y-28805820D01*
X119490537Y-28695506D01*
X119411185Y-28598815D01*
X119314494Y-28519463D01*
X119204180Y-28460498D01*
X119084482Y-28424188D01*
X118960000Y-28411928D01*
X117960000Y-28411928D01*
X117835518Y-28424188D01*
X117715820Y-28460498D01*
X117605506Y-28519463D01*
X117508815Y-28598815D01*
X117429463Y-28695506D01*
X117370498Y-28805820D01*
X117334188Y-28925518D01*
X117321928Y-29050000D01*
X117321928Y-32200000D01*
X117334188Y-32324482D01*
X117370498Y-32444180D01*
X117429463Y-32554494D01*
X117508815Y-32651185D01*
X117605506Y-32730537D01*
X117715820Y-32789502D01*
X117835518Y-32825812D01*
X117960000Y-32838072D01*
X118593980Y-32838072D01*
X118925001Y-33169093D01*
X118925001Y-33461928D01*
X117960000Y-33461928D01*
X117953846Y-33462534D01*
X117949128Y-33446980D01*
X117913046Y-33379475D01*
X117883200Y-33323637D01*
X117794474Y-33215525D01*
X117767383Y-33193292D01*
X117011543Y-32437452D01*
X117045812Y-32324482D01*
X117058072Y-32200000D01*
X117058072Y-29050000D01*
X117045812Y-28925518D01*
X117009502Y-28805820D01*
X116950537Y-28695506D01*
X116871185Y-28598815D01*
X116774494Y-28519463D01*
X116664180Y-28460498D01*
X116544482Y-28424188D01*
X116420000Y-28411928D01*
X115420000Y-28411928D01*
X115295518Y-28424188D01*
X115175820Y-28460498D01*
X115065506Y-28519463D01*
X114968815Y-28598815D01*
X114889463Y-28695506D01*
X114830498Y-28805820D01*
X114794188Y-28925518D01*
X114781928Y-29050000D01*
X114781928Y-30372837D01*
X114556712Y-30147621D01*
X114534475Y-30120525D01*
X114518072Y-30107063D01*
X114518072Y-29050000D01*
X114505812Y-28925518D01*
X114469502Y-28805820D01*
X114410537Y-28695506D01*
X114331185Y-28598815D01*
X114234494Y-28519463D01*
X114124180Y-28460498D01*
X114004482Y-28424188D01*
X113880000Y-28411928D01*
X112880000Y-28411928D01*
X112755518Y-28424188D01*
X112635820Y-28460498D01*
X112525506Y-28519463D01*
X112428815Y-28598815D01*
X112349463Y-28695506D01*
X112290498Y-28805820D01*
X112254188Y-28925518D01*
X112241928Y-29050000D01*
X112241928Y-32200000D01*
X112254188Y-32324482D01*
X112290498Y-32444180D01*
X112349463Y-32554494D01*
X112428815Y-32651185D01*
X112525506Y-32730537D01*
X112635820Y-32789502D01*
X112755518Y-32825812D01*
X112880000Y-32838072D01*
X113880000Y-32838072D01*
X114000000Y-32826253D01*
X114000000Y-33473747D01*
X113880000Y-33461928D01*
X112880000Y-33461928D01*
X112763917Y-33473361D01*
X112759727Y-33430815D01*
X112719128Y-33296980D01*
X112695960Y-33253636D01*
X112653200Y-33173637D01*
X112564474Y-33065525D01*
X112537383Y-33043292D01*
X111931543Y-32437452D01*
X111965812Y-32324482D01*
X111978072Y-32200000D01*
X111978072Y-29050000D01*
X111965812Y-28925518D01*
X111929502Y-28805820D01*
X111870537Y-28695506D01*
X111791185Y-28598815D01*
X111694494Y-28519463D01*
X111584180Y-28460498D01*
X111464482Y-28424188D01*
X111340000Y-28411928D01*
X110340000Y-28411928D01*
X110215518Y-28424188D01*
X110095820Y-28460498D01*
X109985506Y-28519463D01*
X109888815Y-28598815D01*
X109809463Y-28695506D01*
X109750498Y-28805820D01*
X109714188Y-28925518D01*
X109701928Y-29050000D01*
X109701928Y-32097837D01*
X109438072Y-31833981D01*
X109438072Y-29050000D01*
X109425812Y-28925518D01*
X109389502Y-28805820D01*
X109330537Y-28695506D01*
X109251185Y-28598815D01*
X109154494Y-28519463D01*
X109044180Y-28460498D01*
X108924482Y-28424188D01*
X108800000Y-28411928D01*
X107800000Y-28411928D01*
X107675518Y-28424188D01*
X107555820Y-28460498D01*
X107445506Y-28519463D01*
X107348815Y-28598815D01*
X107269463Y-28695506D01*
X107210498Y-28805820D01*
X107174188Y-28925518D01*
X107161928Y-29050000D01*
X107161928Y-32200000D01*
X107174188Y-32324482D01*
X107210498Y-32444180D01*
X107269463Y-32554494D01*
X107348815Y-32651185D01*
X107445506Y-32730537D01*
X107555820Y-32789502D01*
X107675518Y-32825812D01*
X107800000Y-32838072D01*
X108433981Y-32838072D01*
X109215151Y-33619243D01*
X109154494Y-33569463D01*
X109044180Y-33510498D01*
X108924482Y-33474188D01*
X108800000Y-33461928D01*
X107800000Y-33461928D01*
X107746495Y-33467198D01*
X107719128Y-33376980D01*
X107653200Y-33253637D01*
X107564474Y-33145525D01*
X107537383Y-33123292D01*
X106851543Y-32437452D01*
X106885812Y-32324482D01*
X106898072Y-32200000D01*
X106898072Y-29050000D01*
X106885812Y-28925518D01*
X106849502Y-28805820D01*
X106790537Y-28695506D01*
X106711185Y-28598815D01*
X106614494Y-28519463D01*
X106504180Y-28460498D01*
X106384482Y-28424188D01*
X106260000Y-28411928D01*
X105260000Y-28411928D01*
X105135518Y-28424188D01*
X105015820Y-28460498D01*
X104905506Y-28519463D01*
X104808815Y-28598815D01*
X104729463Y-28695506D01*
X104670498Y-28805820D01*
X104634188Y-28925518D01*
X104621928Y-29050000D01*
X104621928Y-32200000D01*
X104634188Y-32324482D01*
X104670498Y-32444180D01*
X104729463Y-32554494D01*
X104808815Y-32651185D01*
X104905506Y-32730537D01*
X105015820Y-32789502D01*
X105135518Y-32825812D01*
X105240487Y-32836150D01*
X105255526Y-32854475D01*
X105282617Y-32876708D01*
X105867837Y-33461928D01*
X105260000Y-33461928D01*
X105135518Y-33474188D01*
X105015820Y-33510498D01*
X104905506Y-33569463D01*
X104808815Y-33648815D01*
X104729463Y-33745506D01*
X104670498Y-33855820D01*
X104634188Y-33975518D01*
X104621928Y-34100000D01*
X104621928Y-37250000D01*
X104634188Y-37374482D01*
X104670498Y-37494180D01*
X104729463Y-37604494D01*
X104747255Y-37626174D01*
X104725000Y-37738061D01*
X104725000Y-37941939D01*
X104764774Y-38141898D01*
X104842795Y-38330256D01*
X104956063Y-38499774D01*
X105100226Y-38643937D01*
X105269744Y-38757205D01*
X105458102Y-38835226D01*
X105658061Y-38875000D01*
X105861939Y-38875000D01*
X106061898Y-38835226D01*
X106250256Y-38757205D01*
X106350000Y-38690558D01*
X106350001Y-45856288D01*
X106256063Y-45950226D01*
X106142795Y-46119744D01*
X106064774Y-46308102D01*
X106025000Y-46508061D01*
X106025000Y-46711939D01*
X106064774Y-46911898D01*
X106142795Y-47100256D01*
X106256063Y-47269774D01*
X106400226Y-47413937D01*
X106569744Y-47527205D01*
X106758102Y-47605226D01*
X106958061Y-47645000D01*
X107161939Y-47645000D01*
X107361898Y-47605226D01*
X107550256Y-47527205D01*
X107719774Y-47413937D01*
X107863937Y-47269774D01*
X107977205Y-47100256D01*
X108055226Y-46911898D01*
X108095000Y-46711939D01*
X108095000Y-46508061D01*
X108055226Y-46308102D01*
X107977205Y-46119744D01*
X107863937Y-45950226D01*
X107770000Y-45856289D01*
X107770000Y-39355649D01*
X107809744Y-39382205D01*
X107998102Y-39460226D01*
X108198061Y-39500000D01*
X108401939Y-39500000D01*
X108601898Y-39460226D01*
X108790256Y-39382205D01*
X108959774Y-39268937D01*
X109103937Y-39124774D01*
X109217205Y-38955256D01*
X109295226Y-38766898D01*
X109335000Y-38566939D01*
X109335000Y-38363061D01*
X109295226Y-38163102D01*
X109217205Y-37974744D01*
X109105086Y-37806946D01*
X109154494Y-37780537D01*
X109251185Y-37701185D01*
X109330537Y-37604494D01*
X109389502Y-37494180D01*
X109404999Y-37443092D01*
X109405000Y-48120112D01*
X109401564Y-48154999D01*
X109404999Y-48189876D01*
X109404999Y-48293417D01*
X109394774Y-48318102D01*
X109355000Y-48518061D01*
X109355000Y-48721939D01*
X109394774Y-48921898D01*
X109472795Y-49110256D01*
X109586063Y-49279774D01*
X109730226Y-49423937D01*
X109899744Y-49537205D01*
X110088102Y-49615226D01*
X110288061Y-49655000D01*
X110491939Y-49655000D01*
X110691898Y-49615226D01*
X110880256Y-49537205D01*
X111042795Y-49428600D01*
X111025000Y-49518061D01*
X111025000Y-49721939D01*
X111064774Y-49921898D01*
X111142795Y-50110256D01*
X111256063Y-50279774D01*
X111400226Y-50423937D01*
X111569744Y-50537205D01*
X111758102Y-50615226D01*
X111958061Y-50655000D01*
X112161939Y-50655000D01*
X112361898Y-50615226D01*
X112550256Y-50537205D01*
X112719774Y-50423937D01*
X112863937Y-50279774D01*
X112977205Y-50110256D01*
X113055226Y-49921898D01*
X113095000Y-49721939D01*
X113095000Y-49518061D01*
X113055226Y-49318102D01*
X112977205Y-49129744D01*
X112863937Y-48960226D01*
X112770000Y-48866289D01*
X112770000Y-40079932D01*
X112786800Y-40111363D01*
X112875526Y-40219475D01*
X112983638Y-40308200D01*
X113106981Y-40374128D01*
X113240817Y-40414727D01*
X113380000Y-40428435D01*
X113519184Y-40414727D01*
X113653020Y-40374128D01*
X113776363Y-40308200D01*
X113884475Y-40219475D01*
X113973200Y-40111363D01*
X114000000Y-40061222D01*
X114000001Y-49726288D01*
X113906063Y-49820226D01*
X113792795Y-49989744D01*
X113714774Y-50178102D01*
X113675000Y-50378061D01*
X113675000Y-50581939D01*
X113714774Y-50781898D01*
X113792795Y-50970256D01*
X113821010Y-51012483D01*
X113802795Y-51039744D01*
X113724774Y-51228102D01*
X113685000Y-51428061D01*
X113685000Y-51631939D01*
X113724774Y-51831898D01*
X113802795Y-52020256D01*
X113916063Y-52189774D01*
X114060226Y-52333937D01*
X114229744Y-52447205D01*
X114418102Y-52525226D01*
X114425001Y-52526598D01*
X114425000Y-72263752D01*
X114400000Y-72266499D01*
X114331750Y-72259000D01*
X114299205Y-72291545D01*
X114246182Y-72308584D01*
X114150899Y-72361542D01*
X114044180Y-72304498D01*
X114000497Y-72291247D01*
X113968250Y-72259000D01*
X113903465Y-72266118D01*
X113800000Y-72255928D01*
X113500000Y-72255928D01*
X113396535Y-72266118D01*
X113331750Y-72259000D01*
X113299503Y-72291247D01*
X113255820Y-72304498D01*
X113150000Y-72361061D01*
X113044180Y-72304498D01*
X113000497Y-72291247D01*
X112968250Y-72259000D01*
X112903465Y-72266118D01*
X112800000Y-72255928D01*
X112500000Y-72255928D01*
X112400000Y-72265777D01*
X112300000Y-72255928D01*
X112000000Y-72255928D01*
X111875518Y-72268188D01*
X111755820Y-72304498D01*
X111645506Y-72363463D01*
X111548815Y-72442815D01*
X111469463Y-72539506D01*
X111410498Y-72649820D01*
X111374188Y-72769518D01*
X111361928Y-72894000D01*
X111361928Y-74194000D01*
X111374188Y-74318482D01*
X111410498Y-74438180D01*
X111431726Y-74477895D01*
X111435492Y-74516125D01*
X111444842Y-74546948D01*
X111476947Y-74652787D01*
X111544269Y-74778736D01*
X111612170Y-74861474D01*
X111612173Y-74861477D01*
X111634869Y-74889132D01*
X111662524Y-74911828D01*
X132178173Y-95427478D01*
X132200869Y-95455133D01*
X132228524Y-95477829D01*
X132228526Y-95477831D01*
X132311264Y-95545733D01*
X132412370Y-95599775D01*
X132437213Y-95613054D01*
X132573876Y-95654510D01*
X132680394Y-95665001D01*
X132680401Y-95665001D01*
X132716001Y-95668507D01*
X132751601Y-95665001D01*
X148731288Y-95665001D01*
X148810225Y-95743938D01*
X148979743Y-95857206D01*
X149168101Y-95935227D01*
X149368060Y-95975001D01*
X149571938Y-95975001D01*
X149771897Y-95935227D01*
X149960255Y-95857206D01*
X150129773Y-95743938D01*
X150273936Y-95599775D01*
X150387204Y-95430257D01*
X150465225Y-95241899D01*
X150504999Y-95041940D01*
X150504999Y-94838062D01*
X150465225Y-94638103D01*
X150401009Y-94483072D01*
X150727500Y-94483072D01*
X150898316Y-94466248D01*
X151062567Y-94416423D01*
X151213942Y-94335512D01*
X151346092Y-94227058D01*
X151466058Y-94325512D01*
X151617433Y-94406423D01*
X151781684Y-94456248D01*
X151952500Y-94473072D01*
X152427500Y-94473072D01*
X152598316Y-94456248D01*
X152762567Y-94406423D01*
X152913942Y-94325512D01*
X153046623Y-94216623D01*
X153155512Y-94083942D01*
X153236423Y-93932567D01*
X153286248Y-93768316D01*
X153303072Y-93597500D01*
X153303072Y-93022500D01*
X153286248Y-92851684D01*
X153236423Y-92687433D01*
X153155512Y-92536058D01*
X153072575Y-92435000D01*
X153155512Y-92333942D01*
X153236423Y-92182567D01*
X153273871Y-92059119D01*
X153291712Y-92037379D01*
X153967383Y-91361708D01*
X153994474Y-91339475D01*
X154083200Y-91231363D01*
X154149128Y-91108020D01*
X154189727Y-90974184D01*
X154200000Y-90869877D01*
X154200000Y-90869875D01*
X154203435Y-90835000D01*
X154200000Y-90800125D01*
X154200000Y-81779444D01*
X154238102Y-81795226D01*
X154438061Y-81835000D01*
X154561928Y-81835000D01*
X154561928Y-82040000D01*
X154574188Y-82164482D01*
X154610498Y-82284180D01*
X154669463Y-82394494D01*
X154748815Y-82491185D01*
X154845506Y-82570537D01*
X154955820Y-82629502D01*
X155075518Y-82665812D01*
X155200000Y-82678072D01*
X157700000Y-82678072D01*
X157824482Y-82665812D01*
X157944180Y-82629502D01*
X158054494Y-82570537D01*
X158151185Y-82491185D01*
X158230537Y-82394494D01*
X158289502Y-82284180D01*
X158325812Y-82164482D01*
X158338072Y-82040000D01*
X158338072Y-79540000D01*
X158325812Y-79415518D01*
X158289502Y-79295820D01*
X158230537Y-79185506D01*
X158151185Y-79088815D01*
X158054494Y-79009463D01*
X157944180Y-78950498D01*
X157824482Y-78914188D01*
X157700000Y-78901928D01*
X155200000Y-78901928D01*
X155075518Y-78914188D01*
X154955820Y-78950498D01*
X154845506Y-79009463D01*
X154748815Y-79088815D01*
X154669463Y-79185506D01*
X154610498Y-79295820D01*
X154574188Y-79415518D01*
X154561928Y-79540000D01*
X154561928Y-79765000D01*
X154438061Y-79765000D01*
X154238102Y-79804774D01*
X154200000Y-79820556D01*
X154200000Y-77582875D01*
X154278102Y-77615226D01*
X154478061Y-77655000D01*
X154561928Y-77655000D01*
X154561928Y-77880000D01*
X154574188Y-78004482D01*
X154610498Y-78124180D01*
X154669463Y-78234494D01*
X154748815Y-78331185D01*
X154845506Y-78410537D01*
X154955820Y-78469502D01*
X155075518Y-78505812D01*
X155200000Y-78518072D01*
X157700000Y-78518072D01*
X157824482Y-78505812D01*
X157944180Y-78469502D01*
X158054494Y-78410537D01*
X158151185Y-78331185D01*
X158230537Y-78234494D01*
X158289502Y-78124180D01*
X158325812Y-78004482D01*
X158338072Y-77880000D01*
X158338072Y-75380000D01*
X158325812Y-75255518D01*
X158289502Y-75135820D01*
X158230537Y-75025506D01*
X158151185Y-74928815D01*
X158054494Y-74849463D01*
X157944180Y-74790498D01*
X157824482Y-74754188D01*
X157700000Y-74741928D01*
X155200000Y-74741928D01*
X155075518Y-74754188D01*
X154955820Y-74790498D01*
X154845506Y-74849463D01*
X154748815Y-74928815D01*
X154669463Y-75025506D01*
X154610498Y-75135820D01*
X154574188Y-75255518D01*
X154561928Y-75380000D01*
X154561928Y-75585000D01*
X154478061Y-75585000D01*
X154278102Y-75624774D01*
X154200000Y-75657125D01*
X154200000Y-73368733D01*
X154288102Y-73405226D01*
X154488061Y-73445000D01*
X154561928Y-73445000D01*
X154561928Y-73660000D01*
X154574188Y-73784482D01*
X154610498Y-73904180D01*
X154669463Y-74014494D01*
X154748815Y-74111185D01*
X154845506Y-74190537D01*
X154955820Y-74249502D01*
X155075518Y-74285812D01*
X155200000Y-74298072D01*
X157700000Y-74298072D01*
X157824482Y-74285812D01*
X157944180Y-74249502D01*
X158054494Y-74190537D01*
X158151185Y-74111185D01*
X158230537Y-74014494D01*
X158289502Y-73904180D01*
X158325812Y-73784482D01*
X158338072Y-73660000D01*
X158338072Y-71160000D01*
X158325812Y-71035518D01*
X158289502Y-70915820D01*
X158230537Y-70805506D01*
X158151185Y-70708815D01*
X158054494Y-70629463D01*
X157944180Y-70570498D01*
X157824482Y-70534188D01*
X157700000Y-70521928D01*
X155200000Y-70521928D01*
X155075518Y-70534188D01*
X154955820Y-70570498D01*
X154845506Y-70629463D01*
X154748815Y-70708815D01*
X154669463Y-70805506D01*
X154610498Y-70915820D01*
X154574188Y-71035518D01*
X154561928Y-71160000D01*
X154561928Y-71375000D01*
X154488061Y-71375000D01*
X154288102Y-71414774D01*
X154200000Y-71451267D01*
X154200000Y-70733711D01*
X154293937Y-70639774D01*
X154407205Y-70470256D01*
X154485226Y-70281898D01*
X154525000Y-70081939D01*
X154525000Y-69878061D01*
X154485226Y-69678102D01*
X154407205Y-69489744D01*
X154293937Y-69320226D01*
X154149774Y-69176063D01*
X153980256Y-69062795D01*
X153791898Y-68984774D01*
X153591939Y-68945000D01*
X153388061Y-68945000D01*
X153188102Y-68984774D01*
X152999744Y-69062795D01*
X152830226Y-69176063D01*
X152686063Y-69320226D01*
X152572795Y-69489744D01*
X152494774Y-69678102D01*
X152455000Y-69878061D01*
X152455000Y-70081939D01*
X152494774Y-70281898D01*
X152545161Y-70403543D01*
X152451940Y-70385000D01*
X152248062Y-70385000D01*
X152090010Y-70416438D01*
X152090010Y-69583701D01*
X152193947Y-69479764D01*
X152307215Y-69310246D01*
X152385236Y-69121888D01*
X152425010Y-68921929D01*
X152425010Y-68718051D01*
X152385236Y-68518092D01*
X152353000Y-68440268D01*
X152353000Y-67968061D01*
X153395000Y-67968061D01*
X153395000Y-68171939D01*
X153434774Y-68371898D01*
X153512795Y-68560256D01*
X153626063Y-68729774D01*
X153770226Y-68873937D01*
X153939744Y-68987205D01*
X154128102Y-69065226D01*
X154328061Y-69105000D01*
X154531939Y-69105000D01*
X154601928Y-69091078D01*
X154601928Y-69330000D01*
X154614188Y-69454482D01*
X154650498Y-69574180D01*
X154709463Y-69684494D01*
X154788815Y-69781185D01*
X154885506Y-69860537D01*
X154995820Y-69919502D01*
X155115518Y-69955812D01*
X155240000Y-69968072D01*
X157740000Y-69968072D01*
X157864482Y-69955812D01*
X157984180Y-69919502D01*
X158094494Y-69860537D01*
X158191185Y-69781185D01*
X158270537Y-69684494D01*
X158329502Y-69574180D01*
X158365812Y-69454482D01*
X158378072Y-69330000D01*
X158378072Y-66830000D01*
X158365812Y-66705518D01*
X158329502Y-66585820D01*
X158270537Y-66475506D01*
X158191185Y-66378815D01*
X158094494Y-66299463D01*
X157984180Y-66240498D01*
X157864482Y-66204188D01*
X157740000Y-66191928D01*
X155240000Y-66191928D01*
X155115518Y-66204188D01*
X154995820Y-66240498D01*
X154885506Y-66299463D01*
X154788815Y-66378815D01*
X154709463Y-66475506D01*
X154650498Y-66585820D01*
X154614188Y-66705518D01*
X154601928Y-66830000D01*
X154601928Y-67048922D01*
X154531939Y-67035000D01*
X154328061Y-67035000D01*
X154128102Y-67074774D01*
X153939744Y-67152795D01*
X153770226Y-67266063D01*
X153626063Y-67410226D01*
X153512795Y-67579744D01*
X153434774Y-67768102D01*
X153395000Y-67968061D01*
X152353000Y-67968061D01*
X152353000Y-63718061D01*
X153375000Y-63718061D01*
X153375000Y-63921939D01*
X153414774Y-64121898D01*
X153492795Y-64310256D01*
X153606063Y-64479774D01*
X153750226Y-64623937D01*
X153919744Y-64737205D01*
X154108102Y-64815226D01*
X154308061Y-64855000D01*
X154511939Y-64855000D01*
X154611928Y-64835111D01*
X154611928Y-65030000D01*
X154624188Y-65154482D01*
X154660498Y-65274180D01*
X154719463Y-65384494D01*
X154798815Y-65481185D01*
X154895506Y-65560537D01*
X155005820Y-65619502D01*
X155125518Y-65655812D01*
X155250000Y-65668072D01*
X157750000Y-65668072D01*
X157874482Y-65655812D01*
X157994180Y-65619502D01*
X158104494Y-65560537D01*
X158201185Y-65481185D01*
X158280537Y-65384494D01*
X158339502Y-65274180D01*
X158375812Y-65154482D01*
X158388072Y-65030000D01*
X158388072Y-62530000D01*
X158375812Y-62405518D01*
X158339502Y-62285820D01*
X158280537Y-62175506D01*
X158201185Y-62078815D01*
X158104494Y-61999463D01*
X157994180Y-61940498D01*
X157874482Y-61904188D01*
X157750000Y-61891928D01*
X155250000Y-61891928D01*
X155125518Y-61904188D01*
X155005820Y-61940498D01*
X154895506Y-61999463D01*
X154798815Y-62078815D01*
X154719463Y-62175506D01*
X154660498Y-62285820D01*
X154624188Y-62405518D01*
X154611928Y-62530000D01*
X154611928Y-62804889D01*
X154511939Y-62785000D01*
X154308061Y-62785000D01*
X154108102Y-62824774D01*
X153919744Y-62902795D01*
X153750226Y-63016063D01*
X153606063Y-63160226D01*
X153492795Y-63329744D01*
X153414774Y-63518102D01*
X153375000Y-63718061D01*
X152353000Y-63718061D01*
X152353000Y-63345402D01*
X152356555Y-63309307D01*
X152353000Y-63273212D01*
X152353000Y-63273203D01*
X152342365Y-63165223D01*
X152310020Y-63058596D01*
X152310020Y-58736119D01*
X157460422Y-59804162D01*
X157782391Y-59897350D01*
X158045297Y-60033291D01*
X158276785Y-60217701D01*
X158468047Y-60443567D01*
X158611800Y-60702285D01*
X158702558Y-60983986D01*
X158740000Y-61304749D01*
X158740001Y-117130595D01*
X158714899Y-117105493D01*
X158601322Y-117219070D01*
X158295141Y-116775497D01*
X157707694Y-116460046D01*
X157069992Y-116265260D01*
X156406543Y-116198628D01*
X155742842Y-116262708D01*
X155104395Y-116455038D01*
X154515738Y-116768228D01*
X154504859Y-116775497D01*
X154198677Y-117219072D01*
X156400000Y-119420395D01*
X156414143Y-119406253D01*
X156593748Y-119585858D01*
X156579605Y-119600000D01*
X156593748Y-119614143D01*
X156414143Y-119793748D01*
X156400000Y-119779605D01*
X154198677Y-121980928D01*
X154504859Y-122424503D01*
X154719943Y-122540000D01*
X93680842Y-122540000D01*
X93884262Y-122431772D01*
X93895141Y-122424503D01*
X94201323Y-121980928D01*
X92000000Y-119779605D01*
X89798677Y-121980928D01*
X90104859Y-122424503D01*
X90319943Y-122540000D01*
X89560000Y-122540000D01*
X89560000Y-121760548D01*
X89619072Y-121801323D01*
X91820395Y-119600000D01*
X92179605Y-119600000D01*
X94380928Y-121801323D01*
X94824503Y-121495141D01*
X95139954Y-120907694D01*
X95334740Y-120269992D01*
X95401372Y-119606543D01*
X95400109Y-119593457D01*
X152998628Y-119593457D01*
X153062708Y-120257158D01*
X153255038Y-120895605D01*
X153568228Y-121484262D01*
X153575497Y-121495141D01*
X154019072Y-121801323D01*
X156220395Y-119600000D01*
X154019072Y-117398677D01*
X153575497Y-117704859D01*
X153260046Y-118292306D01*
X153065260Y-118930008D01*
X152998628Y-119593457D01*
X95400109Y-119593457D01*
X95337292Y-118942842D01*
X95144962Y-118304395D01*
X94831772Y-117715738D01*
X94824503Y-117704859D01*
X94380928Y-117398677D01*
X92179605Y-119600000D01*
X91820395Y-119600000D01*
X89619072Y-117398677D01*
X89560000Y-117439452D01*
X89560000Y-117219072D01*
X89798677Y-117219072D01*
X92000000Y-119420395D01*
X94201323Y-117219072D01*
X93895141Y-116775497D01*
X93307694Y-116460046D01*
X92669992Y-116265260D01*
X92006543Y-116198628D01*
X91342842Y-116262708D01*
X90704395Y-116455038D01*
X90115738Y-116768228D01*
X90104859Y-116775497D01*
X89798677Y-117219072D01*
X89560000Y-117219072D01*
X89560000Y-75694000D01*
X108711928Y-75694000D01*
X108711928Y-77894000D01*
X108724188Y-78018482D01*
X108760498Y-78138180D01*
X108819463Y-78248494D01*
X108898815Y-78345185D01*
X108995506Y-78424537D01*
X109105820Y-78483502D01*
X109225518Y-78519812D01*
X109350000Y-78532072D01*
X111150000Y-78532072D01*
X111274482Y-78519812D01*
X111394180Y-78483502D01*
X111504494Y-78424537D01*
X111601185Y-78345185D01*
X111680537Y-78248494D01*
X111739502Y-78138180D01*
X111775812Y-78018482D01*
X111788072Y-77894000D01*
X111788072Y-75694000D01*
X111775812Y-75569518D01*
X111739502Y-75449820D01*
X111680537Y-75339506D01*
X111601185Y-75242815D01*
X111504494Y-75163463D01*
X111394180Y-75104498D01*
X111274482Y-75068188D01*
X111150000Y-75055928D01*
X109350000Y-75055928D01*
X109225518Y-75068188D01*
X109105820Y-75104498D01*
X108995506Y-75163463D01*
X108898815Y-75242815D01*
X108819463Y-75339506D01*
X108760498Y-75449820D01*
X108724188Y-75569518D01*
X108711928Y-75694000D01*
X89560000Y-75694000D01*
X89560000Y-31380928D01*
X89798677Y-31380928D01*
X90104859Y-31824503D01*
X90692306Y-32139954D01*
X91330008Y-32334740D01*
X91993457Y-32401372D01*
X92657158Y-32337292D01*
X93295605Y-32144962D01*
X93884262Y-31831772D01*
X93895141Y-31824503D01*
X94201323Y-31380928D01*
X92000000Y-29179605D01*
X89798677Y-31380928D01*
X89560000Y-31380928D01*
X89560000Y-31160548D01*
X89619072Y-31201323D01*
X91820395Y-29000000D01*
X92179605Y-29000000D01*
X94380928Y-31201323D01*
X94824503Y-30895141D01*
X95139954Y-30307694D01*
X95334740Y-29669992D01*
X95401372Y-29006543D01*
X95337292Y-28342842D01*
X95144962Y-27704395D01*
X94831772Y-27115738D01*
X94824503Y-27104859D01*
X94380928Y-26798677D01*
X92179605Y-29000000D01*
X91820395Y-29000000D01*
X89619072Y-26798677D01*
X89560000Y-26839452D01*
X89560000Y-26060000D01*
X90319158Y-26060000D01*
X90115738Y-26168228D01*
G36*
X126425001Y-75947046D02*
G01*
X126425001Y-76674393D01*
X126421494Y-76710000D01*
X126435492Y-76852124D01*
X126476947Y-76988787D01*
X126544269Y-77114736D01*
X126612170Y-77197474D01*
X126612173Y-77197477D01*
X126634869Y-77225132D01*
X126662523Y-77247827D01*
X132012172Y-82597477D01*
X132034868Y-82625132D01*
X132062523Y-82647828D01*
X132062525Y-82647830D01*
X132099375Y-82678072D01*
X132145263Y-82715731D01*
X132271212Y-82783053D01*
X132407875Y-82824509D01*
X132514393Y-82835000D01*
X132514402Y-82835000D01*
X132549999Y-82838506D01*
X132585596Y-82835000D01*
X143185607Y-82835000D01*
X143292125Y-82824509D01*
X143311928Y-82818502D01*
X143311928Y-83110000D01*
X143324188Y-83234482D01*
X143360498Y-83354180D01*
X143419463Y-83464494D01*
X143498815Y-83561185D01*
X143595506Y-83640537D01*
X143705820Y-83699502D01*
X143825518Y-83735812D01*
X143950000Y-83748072D01*
X147750000Y-83748072D01*
X147874482Y-83735812D01*
X147994180Y-83699502D01*
X148104494Y-83640537D01*
X148201185Y-83561185D01*
X148280537Y-83464494D01*
X148339502Y-83354180D01*
X148375812Y-83234482D01*
X148388072Y-83110000D01*
X148388072Y-81110000D01*
X148375812Y-80985518D01*
X148339502Y-80865820D01*
X148280537Y-80755506D01*
X148201185Y-80658815D01*
X148104494Y-80579463D01*
X147994180Y-80520498D01*
X147874482Y-80484188D01*
X147750000Y-80471928D01*
X146550000Y-80471928D01*
X146550000Y-77448072D01*
X146600000Y-77448072D01*
X146724482Y-77435812D01*
X146844180Y-77399502D01*
X146954494Y-77340537D01*
X147000000Y-77303191D01*
X147045506Y-77340537D01*
X147125000Y-77383028D01*
X147125000Y-77521939D01*
X147164774Y-77721898D01*
X147242795Y-77910256D01*
X147356063Y-78079774D01*
X147500226Y-78223937D01*
X147669744Y-78337205D01*
X147858102Y-78415226D01*
X148058061Y-78455000D01*
X148261939Y-78455000D01*
X148461898Y-78415226D01*
X148650256Y-78337205D01*
X148819774Y-78223937D01*
X148963937Y-78079774D01*
X149077205Y-77910256D01*
X149155226Y-77721898D01*
X149173505Y-77630000D01*
X150006928Y-77630000D01*
X150019188Y-77754482D01*
X150055498Y-77874180D01*
X150114463Y-77984494D01*
X150193815Y-78081185D01*
X150290506Y-78160537D01*
X150400820Y-78219502D01*
X150520518Y-78255812D01*
X150645000Y-78268072D01*
X150834250Y-78265000D01*
X150993000Y-78106250D01*
X150993000Y-77232000D01*
X150168750Y-77232000D01*
X150010000Y-77390750D01*
X150006928Y-77630000D01*
X149173505Y-77630000D01*
X149195000Y-77521939D01*
X149195000Y-77372338D01*
X149254494Y-77340537D01*
X149351185Y-77261185D01*
X149430537Y-77164494D01*
X149489502Y-77054180D01*
X149525812Y-76934482D01*
X149538072Y-76810000D01*
X149538072Y-76510000D01*
X150013822Y-76510000D01*
X150006928Y-76580000D01*
X150010000Y-76819250D01*
X150168750Y-76978000D01*
X150993000Y-76978000D01*
X150993000Y-76958000D01*
X151247000Y-76958000D01*
X151247000Y-76978000D01*
X151267000Y-76978000D01*
X151267000Y-77232000D01*
X151247000Y-77232000D01*
X151247000Y-78106250D01*
X151315012Y-78174262D01*
X151315012Y-82330134D01*
X151315011Y-83478397D01*
X150139484Y-84653925D01*
X150020886Y-84556595D01*
X149867350Y-84474528D01*
X149700754Y-84423992D01*
X149527500Y-84406928D01*
X148602500Y-84406928D01*
X148429246Y-84423992D01*
X148262650Y-84474528D01*
X148109114Y-84556595D01*
X147974538Y-84667038D01*
X147864095Y-84801614D01*
X147782028Y-84955150D01*
X147731492Y-85121746D01*
X147714428Y-85295000D01*
X147714428Y-86545000D01*
X147731492Y-86718254D01*
X147782028Y-86884850D01*
X147864095Y-87038386D01*
X147974538Y-87172962D01*
X148056547Y-87240265D01*
X148059624Y-87255736D01*
X148059180Y-87255498D01*
X147939482Y-87219188D01*
X147815000Y-87206928D01*
X147575750Y-87210000D01*
X147417000Y-87368750D01*
X147417000Y-88193000D01*
X147437000Y-88193000D01*
X147437000Y-88447000D01*
X147417000Y-88447000D01*
X147417000Y-88467000D01*
X147163000Y-88467000D01*
X147163000Y-88447000D01*
X147143000Y-88447000D01*
X147143000Y-88193000D01*
X147163000Y-88193000D01*
X147163000Y-87368750D01*
X147063335Y-87269085D01*
X147180462Y-87172962D01*
X147290905Y-87038386D01*
X147372972Y-86884850D01*
X147423508Y-86718254D01*
X147440572Y-86545000D01*
X147440572Y-85295000D01*
X147423508Y-85121746D01*
X147372972Y-84955150D01*
X147290905Y-84801614D01*
X147180462Y-84667038D01*
X147045886Y-84556595D01*
X146892350Y-84474528D01*
X146725754Y-84423992D01*
X146552500Y-84406928D01*
X145627500Y-84406928D01*
X145454246Y-84423992D01*
X145287650Y-84474528D01*
X145134114Y-84556595D01*
X144999538Y-84667038D01*
X144889095Y-84801614D01*
X144807028Y-84955150D01*
X144756492Y-85121746D01*
X144739428Y-85295000D01*
X144739428Y-86545000D01*
X144756492Y-86718254D01*
X144807028Y-86884850D01*
X144889095Y-87038386D01*
X144999538Y-87172962D01*
X145134114Y-87283405D01*
X145287650Y-87365472D01*
X145380000Y-87393486D01*
X145380001Y-89387396D01*
X145375498Y-89395820D01*
X145339188Y-89515518D01*
X145338935Y-89518086D01*
X145303405Y-89451614D01*
X145192962Y-89317038D01*
X145058386Y-89206595D01*
X144904850Y-89124528D01*
X144738254Y-89073992D01*
X144565000Y-89056928D01*
X142415000Y-89056928D01*
X142241746Y-89073992D01*
X142075150Y-89124528D01*
X141921614Y-89206595D01*
X141787038Y-89317038D01*
X141676595Y-89451614D01*
X141594528Y-89605150D01*
X141543992Y-89771746D01*
X141526928Y-89945000D01*
X141526928Y-90396365D01*
X141469180Y-90365498D01*
X141349482Y-90329188D01*
X141225000Y-90316928D01*
X141035750Y-90320000D01*
X140877000Y-90478750D01*
X140877000Y-91353000D01*
X141701250Y-91353000D01*
X141761909Y-91292341D01*
X141787038Y-91322962D01*
X141921614Y-91433405D01*
X142075150Y-91515472D01*
X142241746Y-91566008D01*
X142415000Y-91583072D01*
X144565000Y-91583072D01*
X144738254Y-91566008D01*
X144904850Y-91515472D01*
X145058386Y-91433405D01*
X145192962Y-91322962D01*
X145303405Y-91188386D01*
X145326928Y-91144378D01*
X145326928Y-91200000D01*
X145339188Y-91324482D01*
X145375498Y-91444180D01*
X145434463Y-91554494D01*
X145513815Y-91651185D01*
X145595316Y-91718071D01*
X145565635Y-91815915D01*
X145562381Y-91848958D01*
X145513815Y-91888815D01*
X145434463Y-91985506D01*
X145375498Y-92095820D01*
X145339188Y-92215518D01*
X145330619Y-92302527D01*
X145303405Y-92251614D01*
X145192962Y-92117038D01*
X145058386Y-92006595D01*
X144904850Y-91924528D01*
X144738254Y-91873992D01*
X144565000Y-91856928D01*
X142415000Y-91856928D01*
X142241746Y-91873992D01*
X142075150Y-91924528D01*
X141921614Y-92006595D01*
X141857753Y-92059004D01*
X141863072Y-92005000D01*
X141860000Y-91765750D01*
X141701250Y-91607000D01*
X140877000Y-91607000D01*
X140877000Y-91627000D01*
X140623000Y-91627000D01*
X140623000Y-91607000D01*
X139891250Y-91607000D01*
X139881250Y-91597000D01*
X139057000Y-91597000D01*
X139057000Y-91617000D01*
X138803000Y-91617000D01*
X138803000Y-91597000D01*
X137978750Y-91597000D01*
X137820000Y-91755750D01*
X137816928Y-91995000D01*
X137829188Y-92119482D01*
X137865498Y-92239180D01*
X137924463Y-92349494D01*
X137984099Y-92422161D01*
X137964488Y-92446058D01*
X137938328Y-92495000D01*
X131796305Y-92495000D01*
X130246305Y-90945000D01*
X137816928Y-90945000D01*
X137820000Y-91184250D01*
X137978750Y-91343000D01*
X138803000Y-91343000D01*
X138803000Y-90468750D01*
X139057000Y-90468750D01*
X139057000Y-91343000D01*
X139788750Y-91343000D01*
X139798750Y-91353000D01*
X140623000Y-91353000D01*
X140623000Y-90478750D01*
X140464250Y-90320000D01*
X140275000Y-90316928D01*
X140150518Y-90329188D01*
X140030820Y-90365498D01*
X139920506Y-90424463D01*
X139846093Y-90485532D01*
X139759494Y-90414463D01*
X139649180Y-90355498D01*
X139529482Y-90319188D01*
X139405000Y-90306928D01*
X139215750Y-90310000D01*
X139057000Y-90468750D01*
X138803000Y-90468750D01*
X138644250Y-90310000D01*
X138455000Y-90306928D01*
X138330518Y-90319188D01*
X138210820Y-90355498D01*
X138100506Y-90414463D01*
X138003815Y-90493815D01*
X137924463Y-90590506D01*
X137865498Y-90700820D01*
X137829188Y-90820518D01*
X137816928Y-90945000D01*
X130246305Y-90945000D01*
X115246305Y-75945001D01*
X126404238Y-75945001D01*
X126425001Y-75947046D01*
X126425001Y-75947046D01*
G37*
X126425001Y-75947046D02*
X126425001Y-76674393D01*
X126421494Y-76710000D01*
X126435492Y-76852124D01*
X126476947Y-76988787D01*
X126544269Y-77114736D01*
X126612170Y-77197474D01*
X126612173Y-77197477D01*
X126634869Y-77225132D01*
X126662523Y-77247827D01*
X132012172Y-82597477D01*
X132034868Y-82625132D01*
X132062523Y-82647828D01*
X132062525Y-82647830D01*
X132099375Y-82678072D01*
X132145263Y-82715731D01*
X132271212Y-82783053D01*
X132407875Y-82824509D01*
X132514393Y-82835000D01*
X132514402Y-82835000D01*
X132549999Y-82838506D01*
X132585596Y-82835000D01*
X143185607Y-82835000D01*
X143292125Y-82824509D01*
X143311928Y-82818502D01*
X143311928Y-83110000D01*
X143324188Y-83234482D01*
X143360498Y-83354180D01*
X143419463Y-83464494D01*
X143498815Y-83561185D01*
X143595506Y-83640537D01*
X143705820Y-83699502D01*
X143825518Y-83735812D01*
X143950000Y-83748072D01*
X147750000Y-83748072D01*
X147874482Y-83735812D01*
X147994180Y-83699502D01*
X148104494Y-83640537D01*
X148201185Y-83561185D01*
X148280537Y-83464494D01*
X148339502Y-83354180D01*
X148375812Y-83234482D01*
X148388072Y-83110000D01*
X148388072Y-81110000D01*
X148375812Y-80985518D01*
X148339502Y-80865820D01*
X148280537Y-80755506D01*
X148201185Y-80658815D01*
X148104494Y-80579463D01*
X147994180Y-80520498D01*
X147874482Y-80484188D01*
X147750000Y-80471928D01*
X146550000Y-80471928D01*
X146550000Y-77448072D01*
X146600000Y-77448072D01*
X146724482Y-77435812D01*
X146844180Y-77399502D01*
X146954494Y-77340537D01*
X147000000Y-77303191D01*
X147045506Y-77340537D01*
X147125000Y-77383028D01*
X147125000Y-77521939D01*
X147164774Y-77721898D01*
X147242795Y-77910256D01*
X147356063Y-78079774D01*
X147500226Y-78223937D01*
X147669744Y-78337205D01*
X147858102Y-78415226D01*
X148058061Y-78455000D01*
X148261939Y-78455000D01*
X148461898Y-78415226D01*
X148650256Y-78337205D01*
X148819774Y-78223937D01*
X148963937Y-78079774D01*
X149077205Y-77910256D01*
X149155226Y-77721898D01*
X149173505Y-77630000D01*
X150006928Y-77630000D01*
X150019188Y-77754482D01*
X150055498Y-77874180D01*
X150114463Y-77984494D01*
X150193815Y-78081185D01*
X150290506Y-78160537D01*
X150400820Y-78219502D01*
X150520518Y-78255812D01*
X150645000Y-78268072D01*
X150834250Y-78265000D01*
X150993000Y-78106250D01*
X150993000Y-77232000D01*
X150168750Y-77232000D01*
X150010000Y-77390750D01*
X150006928Y-77630000D01*
X149173505Y-77630000D01*
X149195000Y-77521939D01*
X149195000Y-77372338D01*
X149254494Y-77340537D01*
X149351185Y-77261185D01*
X149430537Y-77164494D01*
X149489502Y-77054180D01*
X149525812Y-76934482D01*
X149538072Y-76810000D01*
X149538072Y-76510000D01*
X150013822Y-76510000D01*
X150006928Y-76580000D01*
X150010000Y-76819250D01*
X150168750Y-76978000D01*
X150993000Y-76978000D01*
X150993000Y-76958000D01*
X151247000Y-76958000D01*
X151247000Y-76978000D01*
X151267000Y-76978000D01*
X151267000Y-77232000D01*
X151247000Y-77232000D01*
X151247000Y-78106250D01*
X151315012Y-78174262D01*
X151315012Y-82330134D01*
X151315011Y-83478397D01*
X150139484Y-84653925D01*
X150020886Y-84556595D01*
X149867350Y-84474528D01*
X149700754Y-84423992D01*
X149527500Y-84406928D01*
X148602500Y-84406928D01*
X148429246Y-84423992D01*
X148262650Y-84474528D01*
X148109114Y-84556595D01*
X147974538Y-84667038D01*
X147864095Y-84801614D01*
X147782028Y-84955150D01*
X147731492Y-85121746D01*
X147714428Y-85295000D01*
X147714428Y-86545000D01*
X147731492Y-86718254D01*
X147782028Y-86884850D01*
X147864095Y-87038386D01*
X147974538Y-87172962D01*
X148056547Y-87240265D01*
X148059624Y-87255736D01*
X148059180Y-87255498D01*
X147939482Y-87219188D01*
X147815000Y-87206928D01*
X147575750Y-87210000D01*
X147417000Y-87368750D01*
X147417000Y-88193000D01*
X147437000Y-88193000D01*
X147437000Y-88447000D01*
X147417000Y-88447000D01*
X147417000Y-88467000D01*
X147163000Y-88467000D01*
X147163000Y-88447000D01*
X147143000Y-88447000D01*
X147143000Y-88193000D01*
X147163000Y-88193000D01*
X147163000Y-87368750D01*
X147063335Y-87269085D01*
X147180462Y-87172962D01*
X147290905Y-87038386D01*
X147372972Y-86884850D01*
X147423508Y-86718254D01*
X147440572Y-86545000D01*
X147440572Y-85295000D01*
X147423508Y-85121746D01*
X147372972Y-84955150D01*
X147290905Y-84801614D01*
X147180462Y-84667038D01*
X147045886Y-84556595D01*
X146892350Y-84474528D01*
X146725754Y-84423992D01*
X146552500Y-84406928D01*
X145627500Y-84406928D01*
X145454246Y-84423992D01*
X145287650Y-84474528D01*
X145134114Y-84556595D01*
X144999538Y-84667038D01*
X144889095Y-84801614D01*
X144807028Y-84955150D01*
X144756492Y-85121746D01*
X144739428Y-85295000D01*
X144739428Y-86545000D01*
X144756492Y-86718254D01*
X144807028Y-86884850D01*
X144889095Y-87038386D01*
X144999538Y-87172962D01*
X145134114Y-87283405D01*
X145287650Y-87365472D01*
X145380000Y-87393486D01*
X145380001Y-89387396D01*
X145375498Y-89395820D01*
X145339188Y-89515518D01*
X145338935Y-89518086D01*
X145303405Y-89451614D01*
X145192962Y-89317038D01*
X145058386Y-89206595D01*
X144904850Y-89124528D01*
X144738254Y-89073992D01*
X144565000Y-89056928D01*
X142415000Y-89056928D01*
X142241746Y-89073992D01*
X142075150Y-89124528D01*
X141921614Y-89206595D01*
X141787038Y-89317038D01*
X141676595Y-89451614D01*
X141594528Y-89605150D01*
X141543992Y-89771746D01*
X141526928Y-89945000D01*
X141526928Y-90396365D01*
X141469180Y-90365498D01*
X141349482Y-90329188D01*
X141225000Y-90316928D01*
X141035750Y-90320000D01*
X140877000Y-90478750D01*
X140877000Y-91353000D01*
X141701250Y-91353000D01*
X141761909Y-91292341D01*
X141787038Y-91322962D01*
X141921614Y-91433405D01*
X142075150Y-91515472D01*
X142241746Y-91566008D01*
X142415000Y-91583072D01*
X144565000Y-91583072D01*
X144738254Y-91566008D01*
X144904850Y-91515472D01*
X145058386Y-91433405D01*
X145192962Y-91322962D01*
X145303405Y-91188386D01*
X145326928Y-91144378D01*
X145326928Y-91200000D01*
X145339188Y-91324482D01*
X145375498Y-91444180D01*
X145434463Y-91554494D01*
X145513815Y-91651185D01*
X145595316Y-91718071D01*
X145565635Y-91815915D01*
X145562381Y-91848958D01*
X145513815Y-91888815D01*
X145434463Y-91985506D01*
X145375498Y-92095820D01*
X145339188Y-92215518D01*
X145330619Y-92302527D01*
X145303405Y-92251614D01*
X145192962Y-92117038D01*
X145058386Y-92006595D01*
X144904850Y-91924528D01*
X144738254Y-91873992D01*
X144565000Y-91856928D01*
X142415000Y-91856928D01*
X142241746Y-91873992D01*
X142075150Y-91924528D01*
X141921614Y-92006595D01*
X141857753Y-92059004D01*
X141863072Y-92005000D01*
X141860000Y-91765750D01*
X141701250Y-91607000D01*
X140877000Y-91607000D01*
X140877000Y-91627000D01*
X140623000Y-91627000D01*
X140623000Y-91607000D01*
X139891250Y-91607000D01*
X139881250Y-91597000D01*
X139057000Y-91597000D01*
X139057000Y-91617000D01*
X138803000Y-91617000D01*
X138803000Y-91597000D01*
X137978750Y-91597000D01*
X137820000Y-91755750D01*
X137816928Y-91995000D01*
X137829188Y-92119482D01*
X137865498Y-92239180D01*
X137924463Y-92349494D01*
X137984099Y-92422161D01*
X137964488Y-92446058D01*
X137938328Y-92495000D01*
X131796305Y-92495000D01*
X130246305Y-90945000D01*
X137816928Y-90945000D01*
X137820000Y-91184250D01*
X137978750Y-91343000D01*
X138803000Y-91343000D01*
X138803000Y-90468750D01*
X139057000Y-90468750D01*
X139057000Y-91343000D01*
X139788750Y-91343000D01*
X139798750Y-91353000D01*
X140623000Y-91353000D01*
X140623000Y-90478750D01*
X140464250Y-90320000D01*
X140275000Y-90316928D01*
X140150518Y-90329188D01*
X140030820Y-90365498D01*
X139920506Y-90424463D01*
X139846093Y-90485532D01*
X139759494Y-90414463D01*
X139649180Y-90355498D01*
X139529482Y-90319188D01*
X139405000Y-90306928D01*
X139215750Y-90310000D01*
X139057000Y-90468750D01*
X138803000Y-90468750D01*
X138644250Y-90310000D01*
X138455000Y-90306928D01*
X138330518Y-90319188D01*
X138210820Y-90355498D01*
X138100506Y-90414463D01*
X138003815Y-90493815D01*
X137924463Y-90590506D01*
X137865498Y-90700820D01*
X137829188Y-90820518D01*
X137816928Y-90945000D01*
X130246305Y-90945000D01*
X115246305Y-75945001D01*
X126404238Y-75945001D01*
X126425001Y-75947046D01*
G36*
X137157744Y-49611435D02*
G01*
X137288943Y-49665780D01*
X137288943Y-49745758D01*
X137328717Y-49945717D01*
X137397646Y-50112126D01*
X137323178Y-50291907D01*
X137283404Y-50491866D01*
X137283404Y-50695744D01*
X137323178Y-50895703D01*
X137395856Y-51071162D01*
X137325131Y-51241907D01*
X137285357Y-51441866D01*
X137285357Y-51645744D01*
X137325131Y-51845703D01*
X137403152Y-52034061D01*
X137405302Y-52037278D01*
X137341308Y-52191771D01*
X137301534Y-52391730D01*
X137301534Y-52595608D01*
X137341308Y-52795567D01*
X137397878Y-52932137D01*
X137392795Y-52939744D01*
X137314774Y-53128102D01*
X137275000Y-53328061D01*
X137275000Y-53531939D01*
X137314774Y-53731898D01*
X137392795Y-53920256D01*
X137417596Y-53957373D01*
X137368210Y-54076600D01*
X137328436Y-54276559D01*
X137328436Y-54480437D01*
X137368210Y-54680396D01*
X137418144Y-54800946D01*
X137394176Y-54836817D01*
X137316155Y-55025175D01*
X137276381Y-55225134D01*
X137276381Y-55429012D01*
X137316155Y-55628971D01*
X137358519Y-55731246D01*
X137332795Y-55769744D01*
X137254774Y-55958102D01*
X137215000Y-56158061D01*
X137215000Y-56361939D01*
X137254774Y-56561898D01*
X137332795Y-56750256D01*
X137344106Y-56767185D01*
X137280415Y-56920948D01*
X137240641Y-57120907D01*
X137240641Y-57324785D01*
X137280415Y-57524744D01*
X137348874Y-57690016D01*
X137273937Y-57870928D01*
X137234163Y-58070887D01*
X137234163Y-58274765D01*
X137273937Y-58474724D01*
X137351958Y-58663082D01*
X137465226Y-58832600D01*
X137609389Y-58976763D01*
X137778907Y-59090031D01*
X137967265Y-59168052D01*
X138167224Y-59207826D01*
X138371102Y-59207826D01*
X138571061Y-59168052D01*
X138759419Y-59090031D01*
X138928937Y-58976763D01*
X139073100Y-58832600D01*
X139073560Y-58831912D01*
X139104023Y-58822671D01*
X139225629Y-58757671D01*
X139332218Y-58670196D01*
X139354144Y-58643479D01*
X142297624Y-55700000D01*
X144711928Y-55700000D01*
X144711928Y-55765000D01*
X144724188Y-55889482D01*
X144727379Y-55900000D01*
X144724188Y-55910518D01*
X144711928Y-56035000D01*
X144711928Y-56365000D01*
X144724188Y-56489482D01*
X144727379Y-56500000D01*
X144724188Y-56510518D01*
X144711928Y-56635000D01*
X144711928Y-56965000D01*
X144724188Y-57089482D01*
X144727379Y-57100000D01*
X144724188Y-57110518D01*
X144711928Y-57235000D01*
X144711928Y-57565000D01*
X144724188Y-57689482D01*
X144760498Y-57809180D01*
X144819463Y-57919494D01*
X144898815Y-58016185D01*
X144995506Y-58095537D01*
X145105820Y-58154502D01*
X145225518Y-58190812D01*
X145350000Y-58203072D01*
X146050000Y-58203072D01*
X146174482Y-58190812D01*
X146294180Y-58154502D01*
X146404494Y-58095537D01*
X146501185Y-58016185D01*
X146580537Y-57919494D01*
X146639502Y-57809180D01*
X146675812Y-57689482D01*
X146688072Y-57565000D01*
X146688072Y-57235000D01*
X146675812Y-57110518D01*
X146672621Y-57100000D01*
X146675812Y-57089482D01*
X146688072Y-56965000D01*
X146688072Y-56635000D01*
X146675812Y-56510518D01*
X146672621Y-56500000D01*
X146675812Y-56489482D01*
X146683101Y-56415476D01*
X146726063Y-56479774D01*
X146870226Y-56623937D01*
X147039744Y-56737205D01*
X147228102Y-56815226D01*
X147428061Y-56855000D01*
X147531777Y-56855000D01*
X147521928Y-56955000D01*
X147521928Y-57285000D01*
X147534188Y-57409482D01*
X147537379Y-57420000D01*
X147534188Y-57430518D01*
X147521928Y-57555000D01*
X147521928Y-57630612D01*
X147505820Y-57635498D01*
X147395506Y-57694463D01*
X147298815Y-57773815D01*
X147219463Y-57870506D01*
X147160498Y-57980820D01*
X147124188Y-58100518D01*
X147111928Y-58225000D01*
X147111928Y-58775000D01*
X147124188Y-58899482D01*
X147160498Y-59019180D01*
X147219463Y-59129494D01*
X147298815Y-59226185D01*
X147395506Y-59305537D01*
X147505820Y-59364502D01*
X147625518Y-59400812D01*
X147750000Y-59413072D01*
X148750000Y-59413072D01*
X148874482Y-59400812D01*
X148980000Y-59368803D01*
X148980001Y-61116288D01*
X148886063Y-61210226D01*
X148772795Y-61379744D01*
X148694774Y-61568102D01*
X148655000Y-61768061D01*
X148655000Y-61971939D01*
X148694774Y-62171898D01*
X148772795Y-62360256D01*
X148886063Y-62529774D01*
X149030226Y-62673937D01*
X149199744Y-62787205D01*
X149316287Y-62835479D01*
X145372617Y-66779150D01*
X145345525Y-66801384D01*
X145256800Y-66909496D01*
X145190872Y-67032839D01*
X145150273Y-67166675D01*
X145140000Y-67270981D01*
X145136565Y-67305858D01*
X145140000Y-67340733D01*
X145140000Y-67804877D01*
X145150000Y-67906412D01*
X145150001Y-74171928D01*
X145100000Y-74171928D01*
X144975518Y-74184188D01*
X144855820Y-74220498D01*
X144745506Y-74279463D01*
X144700000Y-74316809D01*
X144654494Y-74279463D01*
X144544180Y-74220498D01*
X144424482Y-74184188D01*
X144300000Y-74171928D01*
X143835750Y-74175000D01*
X143677000Y-74333750D01*
X143677000Y-75683000D01*
X143697000Y-75683000D01*
X143697000Y-75937000D01*
X143677000Y-75937000D01*
X143677000Y-77286250D01*
X143835750Y-77445000D01*
X144300000Y-77448072D01*
X144424482Y-77435812D01*
X144544180Y-77399502D01*
X144654494Y-77340537D01*
X144700000Y-77303191D01*
X144745506Y-77340537D01*
X144855820Y-77399502D01*
X144975518Y-77435812D01*
X145100000Y-77448072D01*
X145150000Y-77448072D01*
X145150001Y-80471928D01*
X143950000Y-80471928D01*
X143825518Y-80484188D01*
X143705820Y-80520498D01*
X143595506Y-80579463D01*
X143498815Y-80658815D01*
X143419463Y-80755506D01*
X143360498Y-80865820D01*
X143324188Y-80985518D01*
X143311928Y-81110000D01*
X143311928Y-81401498D01*
X143292125Y-81395491D01*
X143185607Y-81385000D01*
X142354949Y-81385000D01*
X141520000Y-80550051D01*
X141520000Y-78098309D01*
X141543942Y-78085512D01*
X141676623Y-77976623D01*
X141785512Y-77843942D01*
X141866423Y-77692567D01*
X141916248Y-77528316D01*
X141933072Y-77357500D01*
X141933072Y-76810000D01*
X142161928Y-76810000D01*
X142174188Y-76934482D01*
X142210498Y-77054180D01*
X142269463Y-77164494D01*
X142348815Y-77261185D01*
X142445506Y-77340537D01*
X142555820Y-77399502D01*
X142675518Y-77435812D01*
X142800000Y-77448072D01*
X143264250Y-77445000D01*
X143423000Y-77286250D01*
X143423000Y-75937000D01*
X142323750Y-75937000D01*
X142165000Y-76095750D01*
X142161928Y-76810000D01*
X141933072Y-76810000D01*
X141933072Y-76782500D01*
X141916248Y-76611684D01*
X141866423Y-76447433D01*
X141785512Y-76296058D01*
X141765901Y-76272161D01*
X141825537Y-76199494D01*
X141884502Y-76089180D01*
X141920812Y-75969482D01*
X141933072Y-75845000D01*
X141930000Y-75605750D01*
X141771250Y-75447000D01*
X140947000Y-75447000D01*
X140947000Y-75467000D01*
X140693000Y-75467000D01*
X140693000Y-75447000D01*
X139097000Y-75447000D01*
X139097000Y-75467000D01*
X138843000Y-75467000D01*
X138843000Y-75447000D01*
X138018750Y-75447000D01*
X137860000Y-75605750D01*
X137856928Y-75845000D01*
X137869188Y-75969482D01*
X137905498Y-76089180D01*
X137964463Y-76199494D01*
X138024099Y-76272161D01*
X138004488Y-76296058D01*
X137923577Y-76447433D01*
X137873752Y-76611684D01*
X137856928Y-76782500D01*
X137856928Y-77357500D01*
X137873752Y-77528316D01*
X137923577Y-77692567D01*
X138004488Y-77843942D01*
X138113377Y-77976623D01*
X138246058Y-78085512D01*
X138397433Y-78166423D01*
X138561684Y-78216248D01*
X138732500Y-78233072D01*
X139207500Y-78233072D01*
X139378316Y-78216248D01*
X139542567Y-78166423D01*
X139693942Y-78085512D01*
X139826623Y-77976623D01*
X139895000Y-77893306D01*
X139963377Y-77976623D01*
X140096058Y-78085512D01*
X140120000Y-78098309D01*
X140120001Y-80805603D01*
X140116613Y-80840000D01*
X140130129Y-80977223D01*
X140170155Y-81109174D01*
X140235155Y-81230781D01*
X140287428Y-81294475D01*
X140322631Y-81337370D01*
X140349342Y-81359291D01*
X140375051Y-81385000D01*
X132850305Y-81385000D01*
X127875000Y-76409696D01*
X127875000Y-75694000D01*
X132011928Y-75694000D01*
X132011928Y-77894000D01*
X132024188Y-78018482D01*
X132060498Y-78138180D01*
X132119463Y-78248494D01*
X132198815Y-78345185D01*
X132295506Y-78424537D01*
X132405820Y-78483502D01*
X132525518Y-78519812D01*
X132650000Y-78532072D01*
X134450000Y-78532072D01*
X134574482Y-78519812D01*
X134694180Y-78483502D01*
X134804494Y-78424537D01*
X134901185Y-78345185D01*
X134980537Y-78248494D01*
X135039502Y-78138180D01*
X135075812Y-78018482D01*
X135088072Y-77894000D01*
X135088072Y-75694000D01*
X135075812Y-75569518D01*
X135039502Y-75449820D01*
X134980537Y-75339506D01*
X134901185Y-75242815D01*
X134804494Y-75163463D01*
X134694180Y-75104498D01*
X134574482Y-75068188D01*
X134450000Y-75055928D01*
X132650000Y-75055928D01*
X132525518Y-75068188D01*
X132405820Y-75104498D01*
X132295506Y-75163463D01*
X132198815Y-75242815D01*
X132119463Y-75339506D01*
X132060498Y-75449820D01*
X132024188Y-75569518D01*
X132011928Y-75694000D01*
X127875000Y-75694000D01*
X127875000Y-74824685D01*
X127900000Y-74822223D01*
X128000000Y-74832072D01*
X128300000Y-74832072D01*
X128400000Y-74822223D01*
X128500000Y-74832072D01*
X128800000Y-74832072D01*
X128900000Y-74822223D01*
X129000000Y-74832072D01*
X129300000Y-74832072D01*
X129403465Y-74821882D01*
X129468250Y-74829000D01*
X129500497Y-74796753D01*
X129544180Y-74783502D01*
X129650000Y-74726939D01*
X129755820Y-74783502D01*
X129799503Y-74796753D01*
X129831750Y-74829000D01*
X129896535Y-74821882D01*
X130000000Y-74832072D01*
X130300000Y-74832072D01*
X130400000Y-74822223D01*
X130500000Y-74832072D01*
X130800000Y-74832072D01*
X130900000Y-74822223D01*
X131000000Y-74832072D01*
X131300000Y-74832072D01*
X131400000Y-74822223D01*
X131500000Y-74832072D01*
X131800000Y-74832072D01*
X131924482Y-74819812D01*
X132006276Y-74795000D01*
X137856928Y-74795000D01*
X137860000Y-75034250D01*
X138018750Y-75193000D01*
X138843000Y-75193000D01*
X138843000Y-74318750D01*
X139097000Y-74318750D01*
X139097000Y-75193000D01*
X140693000Y-75193000D01*
X140693000Y-74318750D01*
X140947000Y-74318750D01*
X140947000Y-75193000D01*
X141771250Y-75193000D01*
X141930000Y-75034250D01*
X141932879Y-74810000D01*
X142161928Y-74810000D01*
X142165000Y-75524250D01*
X142323750Y-75683000D01*
X143423000Y-75683000D01*
X143423000Y-74333750D01*
X143264250Y-74175000D01*
X142800000Y-74171928D01*
X142675518Y-74184188D01*
X142555820Y-74220498D01*
X142445506Y-74279463D01*
X142348815Y-74358815D01*
X142269463Y-74455506D01*
X142210498Y-74565820D01*
X142174188Y-74685518D01*
X142161928Y-74810000D01*
X141932879Y-74810000D01*
X141933072Y-74795000D01*
X141920812Y-74670518D01*
X141884502Y-74550820D01*
X141825537Y-74440506D01*
X141746185Y-74343815D01*
X141649494Y-74264463D01*
X141539180Y-74205498D01*
X141419482Y-74169188D01*
X141295000Y-74156928D01*
X141105750Y-74160000D01*
X140947000Y-74318750D01*
X140693000Y-74318750D01*
X140534250Y-74160000D01*
X140345000Y-74156928D01*
X140220518Y-74169188D01*
X140100820Y-74205498D01*
X139990506Y-74264463D01*
X139895000Y-74342842D01*
X139799494Y-74264463D01*
X139689180Y-74205498D01*
X139569482Y-74169188D01*
X139445000Y-74156928D01*
X139255750Y-74160000D01*
X139097000Y-74318750D01*
X138843000Y-74318750D01*
X138684250Y-74160000D01*
X138495000Y-74156928D01*
X138370518Y-74169188D01*
X138250820Y-74205498D01*
X138140506Y-74264463D01*
X138043815Y-74343815D01*
X137964463Y-74440506D01*
X137905498Y-74550820D01*
X137869188Y-74670518D01*
X137856928Y-74795000D01*
X132006276Y-74795000D01*
X132044180Y-74783502D01*
X132154494Y-74724537D01*
X132251185Y-74645185D01*
X132330537Y-74548494D01*
X132389502Y-74438180D01*
X132425812Y-74318482D01*
X132438072Y-74194000D01*
X132438072Y-72894000D01*
X132425812Y-72769518D01*
X132389502Y-72649820D01*
X132330537Y-72539506D01*
X132251185Y-72442815D01*
X132154494Y-72363463D01*
X132044180Y-72304498D01*
X131924482Y-72268188D01*
X131800000Y-72255928D01*
X131500000Y-72255928D01*
X131400000Y-72265777D01*
X131300000Y-72255928D01*
X131000000Y-72255928D01*
X130900000Y-72265777D01*
X130800000Y-72255928D01*
X130500000Y-72255928D01*
X130400000Y-72265777D01*
X130300000Y-72255928D01*
X130000000Y-72255928D01*
X129896535Y-72266118D01*
X129831750Y-72259000D01*
X129799503Y-72291247D01*
X129755820Y-72304498D01*
X129650000Y-72361061D01*
X129544180Y-72304498D01*
X129500497Y-72291247D01*
X129468250Y-72259000D01*
X129403465Y-72266118D01*
X129375000Y-72263315D01*
X129375000Y-68426126D01*
X136753481Y-61047646D01*
X136781130Y-61024955D01*
X136803822Y-60997305D01*
X136803829Y-60997298D01*
X136871730Y-60914560D01*
X136939052Y-60788611D01*
X136952125Y-60745514D01*
X136980508Y-60651948D01*
X136990999Y-60545430D01*
X136990999Y-60545421D01*
X136994505Y-60509824D01*
X136990999Y-60474227D01*
X136990999Y-49500020D01*
X137157744Y-49611435D01*
X137157744Y-49611435D01*
G37*
X137157744Y-49611435D02*
X137288943Y-49665780D01*
X137288943Y-49745758D01*
X137328717Y-49945717D01*
X137397646Y-50112126D01*
X137323178Y-50291907D01*
X137283404Y-50491866D01*
X137283404Y-50695744D01*
X137323178Y-50895703D01*
X137395856Y-51071162D01*
X137325131Y-51241907D01*
X137285357Y-51441866D01*
X137285357Y-51645744D01*
X137325131Y-51845703D01*
X137403152Y-52034061D01*
X137405302Y-52037278D01*
X137341308Y-52191771D01*
X137301534Y-52391730D01*
X137301534Y-52595608D01*
X137341308Y-52795567D01*
X137397878Y-52932137D01*
X137392795Y-52939744D01*
X137314774Y-53128102D01*
X137275000Y-53328061D01*
X137275000Y-53531939D01*
X137314774Y-53731898D01*
X137392795Y-53920256D01*
X137417596Y-53957373D01*
X137368210Y-54076600D01*
X137328436Y-54276559D01*
X137328436Y-54480437D01*
X137368210Y-54680396D01*
X137418144Y-54800946D01*
X137394176Y-54836817D01*
X137316155Y-55025175D01*
X137276381Y-55225134D01*
X137276381Y-55429012D01*
X137316155Y-55628971D01*
X137358519Y-55731246D01*
X137332795Y-55769744D01*
X137254774Y-55958102D01*
X137215000Y-56158061D01*
X137215000Y-56361939D01*
X137254774Y-56561898D01*
X137332795Y-56750256D01*
X137344106Y-56767185D01*
X137280415Y-56920948D01*
X137240641Y-57120907D01*
X137240641Y-57324785D01*
X137280415Y-57524744D01*
X137348874Y-57690016D01*
X137273937Y-57870928D01*
X137234163Y-58070887D01*
X137234163Y-58274765D01*
X137273937Y-58474724D01*
X137351958Y-58663082D01*
X137465226Y-58832600D01*
X137609389Y-58976763D01*
X137778907Y-59090031D01*
X137967265Y-59168052D01*
X138167224Y-59207826D01*
X138371102Y-59207826D01*
X138571061Y-59168052D01*
X138759419Y-59090031D01*
X138928937Y-58976763D01*
X139073100Y-58832600D01*
X139073560Y-58831912D01*
X139104023Y-58822671D01*
X139225629Y-58757671D01*
X139332218Y-58670196D01*
X139354144Y-58643479D01*
X142297624Y-55700000D01*
X144711928Y-55700000D01*
X144711928Y-55765000D01*
X144724188Y-55889482D01*
X144727379Y-55900000D01*
X144724188Y-55910518D01*
X144711928Y-56035000D01*
X144711928Y-56365000D01*
X144724188Y-56489482D01*
X144727379Y-56500000D01*
X144724188Y-56510518D01*
X144711928Y-56635000D01*
X144711928Y-56965000D01*
X144724188Y-57089482D01*
X144727379Y-57100000D01*
X144724188Y-57110518D01*
X144711928Y-57235000D01*
X144711928Y-57565000D01*
X144724188Y-57689482D01*
X144760498Y-57809180D01*
X144819463Y-57919494D01*
X144898815Y-58016185D01*
X144995506Y-58095537D01*
X145105820Y-58154502D01*
X145225518Y-58190812D01*
X145350000Y-58203072D01*
X146050000Y-58203072D01*
X146174482Y-58190812D01*
X146294180Y-58154502D01*
X146404494Y-58095537D01*
X146501185Y-58016185D01*
X146580537Y-57919494D01*
X146639502Y-57809180D01*
X146675812Y-57689482D01*
X146688072Y-57565000D01*
X146688072Y-57235000D01*
X146675812Y-57110518D01*
X146672621Y-57100000D01*
X146675812Y-57089482D01*
X146688072Y-56965000D01*
X146688072Y-56635000D01*
X146675812Y-56510518D01*
X146672621Y-56500000D01*
X146675812Y-56489482D01*
X146683101Y-56415476D01*
X146726063Y-56479774D01*
X146870226Y-56623937D01*
X147039744Y-56737205D01*
X147228102Y-56815226D01*
X147428061Y-56855000D01*
X147531777Y-56855000D01*
X147521928Y-56955000D01*
X147521928Y-57285000D01*
X147534188Y-57409482D01*
X147537379Y-57420000D01*
X147534188Y-57430518D01*
X147521928Y-57555000D01*
X147521928Y-57630612D01*
X147505820Y-57635498D01*
X147395506Y-57694463D01*
X147298815Y-57773815D01*
X147219463Y-57870506D01*
X147160498Y-57980820D01*
X147124188Y-58100518D01*
X147111928Y-58225000D01*
X147111928Y-58775000D01*
X147124188Y-58899482D01*
X147160498Y-59019180D01*
X147219463Y-59129494D01*
X147298815Y-59226185D01*
X147395506Y-59305537D01*
X147505820Y-59364502D01*
X147625518Y-59400812D01*
X147750000Y-59413072D01*
X148750000Y-59413072D01*
X148874482Y-59400812D01*
X148980000Y-59368803D01*
X148980001Y-61116288D01*
X148886063Y-61210226D01*
X148772795Y-61379744D01*
X148694774Y-61568102D01*
X148655000Y-61768061D01*
X148655000Y-61971939D01*
X148694774Y-62171898D01*
X148772795Y-62360256D01*
X148886063Y-62529774D01*
X149030226Y-62673937D01*
X149199744Y-62787205D01*
X149316287Y-62835479D01*
X145372617Y-66779150D01*
X145345525Y-66801384D01*
X145256800Y-66909496D01*
X145190872Y-67032839D01*
X145150273Y-67166675D01*
X145140000Y-67270981D01*
X145136565Y-67305858D01*
X145140000Y-67340733D01*
X145140000Y-67804877D01*
X145150000Y-67906412D01*
X145150001Y-74171928D01*
X145100000Y-74171928D01*
X144975518Y-74184188D01*
X144855820Y-74220498D01*
X144745506Y-74279463D01*
X144700000Y-74316809D01*
X144654494Y-74279463D01*
X144544180Y-74220498D01*
X144424482Y-74184188D01*
X144300000Y-74171928D01*
X143835750Y-74175000D01*
X143677000Y-74333750D01*
X143677000Y-75683000D01*
X143697000Y-75683000D01*
X143697000Y-75937000D01*
X143677000Y-75937000D01*
X143677000Y-77286250D01*
X143835750Y-77445000D01*
X144300000Y-77448072D01*
X144424482Y-77435812D01*
X144544180Y-77399502D01*
X144654494Y-77340537D01*
X144700000Y-77303191D01*
X144745506Y-77340537D01*
X144855820Y-77399502D01*
X144975518Y-77435812D01*
X145100000Y-77448072D01*
X145150000Y-77448072D01*
X145150001Y-80471928D01*
X143950000Y-80471928D01*
X143825518Y-80484188D01*
X143705820Y-80520498D01*
X143595506Y-80579463D01*
X143498815Y-80658815D01*
X143419463Y-80755506D01*
X143360498Y-80865820D01*
X143324188Y-80985518D01*
X143311928Y-81110000D01*
X143311928Y-81401498D01*
X143292125Y-81395491D01*
X143185607Y-81385000D01*
X142354949Y-81385000D01*
X141520000Y-80550051D01*
X141520000Y-78098309D01*
X141543942Y-78085512D01*
X141676623Y-77976623D01*
X141785512Y-77843942D01*
X141866423Y-77692567D01*
X141916248Y-77528316D01*
X141933072Y-77357500D01*
X141933072Y-76810000D01*
X142161928Y-76810000D01*
X142174188Y-76934482D01*
X142210498Y-77054180D01*
X142269463Y-77164494D01*
X142348815Y-77261185D01*
X142445506Y-77340537D01*
X142555820Y-77399502D01*
X142675518Y-77435812D01*
X142800000Y-77448072D01*
X143264250Y-77445000D01*
X143423000Y-77286250D01*
X143423000Y-75937000D01*
X142323750Y-75937000D01*
X142165000Y-76095750D01*
X142161928Y-76810000D01*
X141933072Y-76810000D01*
X141933072Y-76782500D01*
X141916248Y-76611684D01*
X141866423Y-76447433D01*
X141785512Y-76296058D01*
X141765901Y-76272161D01*
X141825537Y-76199494D01*
X141884502Y-76089180D01*
X141920812Y-75969482D01*
X141933072Y-75845000D01*
X141930000Y-75605750D01*
X141771250Y-75447000D01*
X140947000Y-75447000D01*
X140947000Y-75467000D01*
X140693000Y-75467000D01*
X140693000Y-75447000D01*
X139097000Y-75447000D01*
X139097000Y-75467000D01*
X138843000Y-75467000D01*
X138843000Y-75447000D01*
X138018750Y-75447000D01*
X137860000Y-75605750D01*
X137856928Y-75845000D01*
X137869188Y-75969482D01*
X137905498Y-76089180D01*
X137964463Y-76199494D01*
X138024099Y-76272161D01*
X138004488Y-76296058D01*
X137923577Y-76447433D01*
X137873752Y-76611684D01*
X137856928Y-76782500D01*
X137856928Y-77357500D01*
X137873752Y-77528316D01*
X137923577Y-77692567D01*
X138004488Y-77843942D01*
X138113377Y-77976623D01*
X138246058Y-78085512D01*
X138397433Y-78166423D01*
X138561684Y-78216248D01*
X138732500Y-78233072D01*
X139207500Y-78233072D01*
X139378316Y-78216248D01*
X139542567Y-78166423D01*
X139693942Y-78085512D01*
X139826623Y-77976623D01*
X139895000Y-77893306D01*
X139963377Y-77976623D01*
X140096058Y-78085512D01*
X140120000Y-78098309D01*
X140120001Y-80805603D01*
X140116613Y-80840000D01*
X140130129Y-80977223D01*
X140170155Y-81109174D01*
X140235155Y-81230781D01*
X140287428Y-81294475D01*
X140322631Y-81337370D01*
X140349342Y-81359291D01*
X140375051Y-81385000D01*
X132850305Y-81385000D01*
X127875000Y-76409696D01*
X127875000Y-75694000D01*
X132011928Y-75694000D01*
X132011928Y-77894000D01*
X132024188Y-78018482D01*
X132060498Y-78138180D01*
X132119463Y-78248494D01*
X132198815Y-78345185D01*
X132295506Y-78424537D01*
X132405820Y-78483502D01*
X132525518Y-78519812D01*
X132650000Y-78532072D01*
X134450000Y-78532072D01*
X134574482Y-78519812D01*
X134694180Y-78483502D01*
X134804494Y-78424537D01*
X134901185Y-78345185D01*
X134980537Y-78248494D01*
X135039502Y-78138180D01*
X135075812Y-78018482D01*
X135088072Y-77894000D01*
X135088072Y-75694000D01*
X135075812Y-75569518D01*
X135039502Y-75449820D01*
X134980537Y-75339506D01*
X134901185Y-75242815D01*
X134804494Y-75163463D01*
X134694180Y-75104498D01*
X134574482Y-75068188D01*
X134450000Y-75055928D01*
X132650000Y-75055928D01*
X132525518Y-75068188D01*
X132405820Y-75104498D01*
X132295506Y-75163463D01*
X132198815Y-75242815D01*
X132119463Y-75339506D01*
X132060498Y-75449820D01*
X132024188Y-75569518D01*
X132011928Y-75694000D01*
X127875000Y-75694000D01*
X127875000Y-74824685D01*
X127900000Y-74822223D01*
X128000000Y-74832072D01*
X128300000Y-74832072D01*
X128400000Y-74822223D01*
X128500000Y-74832072D01*
X128800000Y-74832072D01*
X128900000Y-74822223D01*
X129000000Y-74832072D01*
X129300000Y-74832072D01*
X129403465Y-74821882D01*
X129468250Y-74829000D01*
X129500497Y-74796753D01*
X129544180Y-74783502D01*
X129650000Y-74726939D01*
X129755820Y-74783502D01*
X129799503Y-74796753D01*
X129831750Y-74829000D01*
X129896535Y-74821882D01*
X130000000Y-74832072D01*
X130300000Y-74832072D01*
X130400000Y-74822223D01*
X130500000Y-74832072D01*
X130800000Y-74832072D01*
X130900000Y-74822223D01*
X131000000Y-74832072D01*
X131300000Y-74832072D01*
X131400000Y-74822223D01*
X131500000Y-74832072D01*
X131800000Y-74832072D01*
X131924482Y-74819812D01*
X132006276Y-74795000D01*
X137856928Y-74795000D01*
X137860000Y-75034250D01*
X138018750Y-75193000D01*
X138843000Y-75193000D01*
X138843000Y-74318750D01*
X139097000Y-74318750D01*
X139097000Y-75193000D01*
X140693000Y-75193000D01*
X140693000Y-74318750D01*
X140947000Y-74318750D01*
X140947000Y-75193000D01*
X141771250Y-75193000D01*
X141930000Y-75034250D01*
X141932879Y-74810000D01*
X142161928Y-74810000D01*
X142165000Y-75524250D01*
X142323750Y-75683000D01*
X143423000Y-75683000D01*
X143423000Y-74333750D01*
X143264250Y-74175000D01*
X142800000Y-74171928D01*
X142675518Y-74184188D01*
X142555820Y-74220498D01*
X142445506Y-74279463D01*
X142348815Y-74358815D01*
X142269463Y-74455506D01*
X142210498Y-74565820D01*
X142174188Y-74685518D01*
X142161928Y-74810000D01*
X141932879Y-74810000D01*
X141933072Y-74795000D01*
X141920812Y-74670518D01*
X141884502Y-74550820D01*
X141825537Y-74440506D01*
X141746185Y-74343815D01*
X141649494Y-74264463D01*
X141539180Y-74205498D01*
X141419482Y-74169188D01*
X141295000Y-74156928D01*
X141105750Y-74160000D01*
X140947000Y-74318750D01*
X140693000Y-74318750D01*
X140534250Y-74160000D01*
X140345000Y-74156928D01*
X140220518Y-74169188D01*
X140100820Y-74205498D01*
X139990506Y-74264463D01*
X139895000Y-74342842D01*
X139799494Y-74264463D01*
X139689180Y-74205498D01*
X139569482Y-74169188D01*
X139445000Y-74156928D01*
X139255750Y-74160000D01*
X139097000Y-74318750D01*
X138843000Y-74318750D01*
X138684250Y-74160000D01*
X138495000Y-74156928D01*
X138370518Y-74169188D01*
X138250820Y-74205498D01*
X138140506Y-74264463D01*
X138043815Y-74343815D01*
X137964463Y-74440506D01*
X137905498Y-74550820D01*
X137869188Y-74670518D01*
X137856928Y-74795000D01*
X132006276Y-74795000D01*
X132044180Y-74783502D01*
X132154494Y-74724537D01*
X132251185Y-74645185D01*
X132330537Y-74548494D01*
X132389502Y-74438180D01*
X132425812Y-74318482D01*
X132438072Y-74194000D01*
X132438072Y-72894000D01*
X132425812Y-72769518D01*
X132389502Y-72649820D01*
X132330537Y-72539506D01*
X132251185Y-72442815D01*
X132154494Y-72363463D01*
X132044180Y-72304498D01*
X131924482Y-72268188D01*
X131800000Y-72255928D01*
X131500000Y-72255928D01*
X131400000Y-72265777D01*
X131300000Y-72255928D01*
X131000000Y-72255928D01*
X130900000Y-72265777D01*
X130800000Y-72255928D01*
X130500000Y-72255928D01*
X130400000Y-72265777D01*
X130300000Y-72255928D01*
X130000000Y-72255928D01*
X129896535Y-72266118D01*
X129831750Y-72259000D01*
X129799503Y-72291247D01*
X129755820Y-72304498D01*
X129650000Y-72361061D01*
X129544180Y-72304498D01*
X129500497Y-72291247D01*
X129468250Y-72259000D01*
X129403465Y-72266118D01*
X129375000Y-72263315D01*
X129375000Y-68426126D01*
X136753481Y-61047646D01*
X136781130Y-61024955D01*
X136803822Y-60997305D01*
X136803829Y-60997298D01*
X136871730Y-60914560D01*
X136939052Y-60788611D01*
X136952125Y-60745514D01*
X136980508Y-60651948D01*
X136990999Y-60545430D01*
X136990999Y-60545421D01*
X136994505Y-60509824D01*
X136990999Y-60474227D01*
X136990999Y-49500020D01*
X137157744Y-49611435D01*
G36*
X145394488Y-41673942D02*
G01*
X145503377Y-41806623D01*
X145636058Y-41915512D01*
X145787433Y-41996423D01*
X145951684Y-42046248D01*
X146105514Y-42061399D01*
X146048637Y-42091800D01*
X145940525Y-42180525D01*
X145918292Y-42207616D01*
X145222616Y-42903293D01*
X145195526Y-42925525D01*
X145106800Y-43033637D01*
X145040872Y-43156980D01*
X145000273Y-43290816D01*
X144990038Y-43394736D01*
X144986565Y-43430000D01*
X144990000Y-43464875D01*
X144990000Y-43779876D01*
X144990001Y-43779884D01*
X144990001Y-44108981D01*
X144898815Y-44183815D01*
X144819463Y-44280506D01*
X144760498Y-44390820D01*
X144724188Y-44510518D01*
X144711928Y-44635000D01*
X144711928Y-44965000D01*
X144724188Y-45089482D01*
X144727379Y-45100000D01*
X144724188Y-45110518D01*
X144711928Y-45235000D01*
X144711928Y-45565000D01*
X144724188Y-45689482D01*
X144727379Y-45700000D01*
X144724188Y-45710518D01*
X144711928Y-45835000D01*
X144711928Y-45862617D01*
X140523094Y-45862617D01*
X140444157Y-45783680D01*
X140274639Y-45670412D01*
X140086281Y-45592391D01*
X139886322Y-45552617D01*
X139682444Y-45552617D01*
X139482485Y-45592391D01*
X139294127Y-45670412D01*
X139124609Y-45783680D01*
X138980446Y-45927843D01*
X138867178Y-46097361D01*
X138789157Y-46285719D01*
X138749383Y-46485678D01*
X138749383Y-46689556D01*
X138789157Y-46889515D01*
X138867178Y-47077873D01*
X138980446Y-47247391D01*
X139124609Y-47391554D01*
X139294127Y-47504822D01*
X139482485Y-47582843D01*
X139682444Y-47622617D01*
X139886322Y-47622617D01*
X140086281Y-47582843D01*
X140274639Y-47504822D01*
X140444157Y-47391554D01*
X140523094Y-47312617D01*
X144711928Y-47312617D01*
X144711928Y-47365000D01*
X144724188Y-47489482D01*
X144727379Y-47500000D01*
X144724188Y-47510518D01*
X144711928Y-47635000D01*
X144711928Y-47690000D01*
X139512989Y-47690000D01*
X139498125Y-47685491D01*
X139391607Y-47675000D01*
X139219638Y-47675000D01*
X138765166Y-47220528D01*
X138742466Y-47192868D01*
X138632071Y-47102269D01*
X138506122Y-47034947D01*
X138369459Y-46993491D01*
X138262941Y-46983000D01*
X138262931Y-46983000D01*
X138227334Y-46979494D01*
X138191737Y-46983000D01*
X137624711Y-46983000D01*
X137545774Y-46904063D01*
X137376256Y-46790795D01*
X137187898Y-46712774D01*
X136990999Y-46673609D01*
X136990999Y-46354305D01*
X139630305Y-43715000D01*
X141454403Y-43715000D01*
X141490000Y-43718506D01*
X141525597Y-43715000D01*
X141525607Y-43715000D01*
X141632125Y-43704509D01*
X141768788Y-43663053D01*
X141894737Y-43595731D01*
X142005132Y-43505132D01*
X142027832Y-43477472D01*
X142640305Y-42865000D01*
X142751939Y-42865000D01*
X142951898Y-42825226D01*
X143140256Y-42747205D01*
X143309774Y-42633937D01*
X143453937Y-42489774D01*
X143567205Y-42320256D01*
X143645226Y-42131898D01*
X143685000Y-41931939D01*
X143685000Y-41728061D01*
X143674048Y-41673000D01*
X145393984Y-41673000D01*
X145394488Y-41673942D01*
X145394488Y-41673942D01*
G37*
X145394488Y-41673942D02*
X145503377Y-41806623D01*
X145636058Y-41915512D01*
X145787433Y-41996423D01*
X145951684Y-42046248D01*
X146105514Y-42061399D01*
X146048637Y-42091800D01*
X145940525Y-42180525D01*
X145918292Y-42207616D01*
X145222616Y-42903293D01*
X145195526Y-42925525D01*
X145106800Y-43033637D01*
X145040872Y-43156980D01*
X145000273Y-43290816D01*
X144990038Y-43394736D01*
X144986565Y-43430000D01*
X144990000Y-43464875D01*
X144990000Y-43779876D01*
X144990001Y-43779884D01*
X144990001Y-44108981D01*
X144898815Y-44183815D01*
X144819463Y-44280506D01*
X144760498Y-44390820D01*
X144724188Y-44510518D01*
X144711928Y-44635000D01*
X144711928Y-44965000D01*
X144724188Y-45089482D01*
X144727379Y-45100000D01*
X144724188Y-45110518D01*
X144711928Y-45235000D01*
X144711928Y-45565000D01*
X144724188Y-45689482D01*
X144727379Y-45700000D01*
X144724188Y-45710518D01*
X144711928Y-45835000D01*
X144711928Y-45862617D01*
X140523094Y-45862617D01*
X140444157Y-45783680D01*
X140274639Y-45670412D01*
X140086281Y-45592391D01*
X139886322Y-45552617D01*
X139682444Y-45552617D01*
X139482485Y-45592391D01*
X139294127Y-45670412D01*
X139124609Y-45783680D01*
X138980446Y-45927843D01*
X138867178Y-46097361D01*
X138789157Y-46285719D01*
X138749383Y-46485678D01*
X138749383Y-46689556D01*
X138789157Y-46889515D01*
X138867178Y-47077873D01*
X138980446Y-47247391D01*
X139124609Y-47391554D01*
X139294127Y-47504822D01*
X139482485Y-47582843D01*
X139682444Y-47622617D01*
X139886322Y-47622617D01*
X140086281Y-47582843D01*
X140274639Y-47504822D01*
X140444157Y-47391554D01*
X140523094Y-47312617D01*
X144711928Y-47312617D01*
X144711928Y-47365000D01*
X144724188Y-47489482D01*
X144727379Y-47500000D01*
X144724188Y-47510518D01*
X144711928Y-47635000D01*
X144711928Y-47690000D01*
X139512989Y-47690000D01*
X139498125Y-47685491D01*
X139391607Y-47675000D01*
X139219638Y-47675000D01*
X138765166Y-47220528D01*
X138742466Y-47192868D01*
X138632071Y-47102269D01*
X138506122Y-47034947D01*
X138369459Y-46993491D01*
X138262941Y-46983000D01*
X138262931Y-46983000D01*
X138227334Y-46979494D01*
X138191737Y-46983000D01*
X137624711Y-46983000D01*
X137545774Y-46904063D01*
X137376256Y-46790795D01*
X137187898Y-46712774D01*
X136990999Y-46673609D01*
X136990999Y-46354305D01*
X139630305Y-43715000D01*
X141454403Y-43715000D01*
X141490000Y-43718506D01*
X141525597Y-43715000D01*
X141525607Y-43715000D01*
X141632125Y-43704509D01*
X141768788Y-43663053D01*
X141894737Y-43595731D01*
X142005132Y-43505132D01*
X142027832Y-43477472D01*
X142640305Y-42865000D01*
X142751939Y-42865000D01*
X142951898Y-42825226D01*
X143140256Y-42747205D01*
X143309774Y-42633937D01*
X143453937Y-42489774D01*
X143567205Y-42320256D01*
X143645226Y-42131898D01*
X143685000Y-41931939D01*
X143685000Y-41728061D01*
X143674048Y-41673000D01*
X145393984Y-41673000D01*
X145394488Y-41673942D01*
G36*
X142770498Y-33855820D02*
G01*
X142734188Y-33975518D01*
X142721928Y-34100000D01*
X142725000Y-35389250D01*
X142883750Y-35548000D01*
X143733000Y-35548000D01*
X143733000Y-35528000D01*
X143987000Y-35528000D01*
X143987000Y-35548000D01*
X144836250Y-35548000D01*
X144995000Y-35389250D01*
X144997615Y-34291706D01*
X149417616Y-38711707D01*
X149496483Y-38776432D01*
X150630010Y-39909960D01*
X150630010Y-40799247D01*
X150603937Y-40760226D01*
X150459774Y-40616063D01*
X150290256Y-40502795D01*
X150101898Y-40424774D01*
X149901939Y-40385000D01*
X149760725Y-40385000D01*
X149726363Y-40356800D01*
X149603020Y-40290872D01*
X149469184Y-40250273D01*
X149364877Y-40240000D01*
X149364875Y-40240000D01*
X149330000Y-40236565D01*
X149295125Y-40240000D01*
X149182964Y-40240000D01*
X149175512Y-40226058D01*
X149066623Y-40093377D01*
X148933942Y-39984488D01*
X148782567Y-39903577D01*
X148618316Y-39853752D01*
X148447500Y-39836928D01*
X147872500Y-39836928D01*
X147701684Y-39853752D01*
X147537433Y-39903577D01*
X147386058Y-39984488D01*
X147285000Y-40067425D01*
X147183942Y-39984488D01*
X147032567Y-39903577D01*
X146868316Y-39853752D01*
X146697500Y-39836928D01*
X146122500Y-39836928D01*
X145951684Y-39853752D01*
X145787433Y-39903577D01*
X145636058Y-39984488D01*
X145503377Y-40093377D01*
X145413411Y-40203000D01*
X141258711Y-40203000D01*
X141240000Y-40184289D01*
X141240000Y-37888072D01*
X141820000Y-37888072D01*
X141944482Y-37875812D01*
X142064180Y-37839502D01*
X142174494Y-37780537D01*
X142271185Y-37701185D01*
X142350537Y-37604494D01*
X142409502Y-37494180D01*
X142445812Y-37374482D01*
X142458072Y-37250000D01*
X142721928Y-37250000D01*
X142734188Y-37374482D01*
X142770498Y-37494180D01*
X142829463Y-37604494D01*
X142908815Y-37701185D01*
X143005506Y-37780537D01*
X143115820Y-37839502D01*
X143235518Y-37875812D01*
X143360000Y-37888072D01*
X143574250Y-37885000D01*
X143733000Y-37726250D01*
X143733000Y-35802000D01*
X143987000Y-35802000D01*
X143987000Y-37726250D01*
X144145750Y-37885000D01*
X144360000Y-37888072D01*
X144484482Y-37875812D01*
X144604180Y-37839502D01*
X144714494Y-37780537D01*
X144811185Y-37701185D01*
X144890537Y-37604494D01*
X144949502Y-37494180D01*
X144985812Y-37374482D01*
X144998072Y-37250000D01*
X144995000Y-35960750D01*
X144836250Y-35802000D01*
X143987000Y-35802000D01*
X143733000Y-35802000D01*
X142883750Y-35802000D01*
X142725000Y-35960750D01*
X142721928Y-37250000D01*
X142458072Y-37250000D01*
X142458072Y-34100000D01*
X142445812Y-33975518D01*
X142411543Y-33862548D01*
X142474091Y-33800000D01*
X142800335Y-33800000D01*
X142770498Y-33855820D01*
X142770498Y-33855820D01*
G37*
X142770498Y-33855820D02*
X142734188Y-33975518D01*
X142721928Y-34100000D01*
X142725000Y-35389250D01*
X142883750Y-35548000D01*
X143733000Y-35548000D01*
X143733000Y-35528000D01*
X143987000Y-35528000D01*
X143987000Y-35548000D01*
X144836250Y-35548000D01*
X144995000Y-35389250D01*
X144997615Y-34291706D01*
X149417616Y-38711707D01*
X149496483Y-38776432D01*
X150630010Y-39909960D01*
X150630010Y-40799247D01*
X150603937Y-40760226D01*
X150459774Y-40616063D01*
X150290256Y-40502795D01*
X150101898Y-40424774D01*
X149901939Y-40385000D01*
X149760725Y-40385000D01*
X149726363Y-40356800D01*
X149603020Y-40290872D01*
X149469184Y-40250273D01*
X149364877Y-40240000D01*
X149364875Y-40240000D01*
X149330000Y-40236565D01*
X149295125Y-40240000D01*
X149182964Y-40240000D01*
X149175512Y-40226058D01*
X149066623Y-40093377D01*
X148933942Y-39984488D01*
X148782567Y-39903577D01*
X148618316Y-39853752D01*
X148447500Y-39836928D01*
X147872500Y-39836928D01*
X147701684Y-39853752D01*
X147537433Y-39903577D01*
X147386058Y-39984488D01*
X147285000Y-40067425D01*
X147183942Y-39984488D01*
X147032567Y-39903577D01*
X146868316Y-39853752D01*
X146697500Y-39836928D01*
X146122500Y-39836928D01*
X145951684Y-39853752D01*
X145787433Y-39903577D01*
X145636058Y-39984488D01*
X145503377Y-40093377D01*
X145413411Y-40203000D01*
X141258711Y-40203000D01*
X141240000Y-40184289D01*
X141240000Y-37888072D01*
X141820000Y-37888072D01*
X141944482Y-37875812D01*
X142064180Y-37839502D01*
X142174494Y-37780537D01*
X142271185Y-37701185D01*
X142350537Y-37604494D01*
X142409502Y-37494180D01*
X142445812Y-37374482D01*
X142458072Y-37250000D01*
X142721928Y-37250000D01*
X142734188Y-37374482D01*
X142770498Y-37494180D01*
X142829463Y-37604494D01*
X142908815Y-37701185D01*
X143005506Y-37780537D01*
X143115820Y-37839502D01*
X143235518Y-37875812D01*
X143360000Y-37888072D01*
X143574250Y-37885000D01*
X143733000Y-37726250D01*
X143733000Y-35802000D01*
X143987000Y-35802000D01*
X143987000Y-37726250D01*
X144145750Y-37885000D01*
X144360000Y-37888072D01*
X144484482Y-37875812D01*
X144604180Y-37839502D01*
X144714494Y-37780537D01*
X144811185Y-37701185D01*
X144890537Y-37604494D01*
X144949502Y-37494180D01*
X144985812Y-37374482D01*
X144998072Y-37250000D01*
X144995000Y-35960750D01*
X144836250Y-35802000D01*
X143987000Y-35802000D01*
X143733000Y-35802000D01*
X142883750Y-35802000D01*
X142725000Y-35960750D01*
X142721928Y-37250000D01*
X142458072Y-37250000D01*
X142458072Y-34100000D01*
X142445812Y-33975518D01*
X142411543Y-33862548D01*
X142474091Y-33800000D01*
X142800335Y-33800000D01*
X142770498Y-33855820D01*
M02*
