M48
; DRILL file {KiCad (5.1.4)-1} date 2019/12/24 12:05:10
; FORMAT={-:-/ absolute / metric / decimal}
; #@! TF.CreationDate,2019-12-24T12:05:10+08:00
; #@! TF.GenerationSoftware,Kicad,Pcbnew,(5.1.4)-1
; #@! TF.FileFunction,Plated,1,2,PTH
FMAT,2
METRIC
T1C0.400
T2C3.200
%
G90
G05
T1
X105.76Y-37.84
X107.06Y-46.61
X108.3Y-38.465
X110.39Y-48.62
X110.84Y-38.775
X112.06Y-49.62
X113.38Y-39.184
X114.65Y-74.6
X114.71Y-50.48
X114.72Y-51.53
X115.92Y-39.804
X116.55Y-52.5
X117.29Y-51.52
X118.46Y-40.2
X118.65Y-74.6
X119.09Y-53.259
X119.635Y-52.505
X121.0Y-40.51
X122.1Y-53.25
X122.1Y-54.18
X122.59Y-74.59
X123.54Y-42.215
X125.11Y-54.16
X125.12Y-55.36
X126.08Y-42.84
X126.15Y-74.592
X127.519Y-56.29
X127.54Y-55.36
X128.62Y-43.465
X129.62Y-56.22
X129.62Y-57.23
X129.65Y-74.592
X131.16Y-44.09
X132.69Y-58.153
X132.693Y-57.223
X133.7Y-44.715
X134.41Y-58.122
X136.105Y-42.908
X136.886Y-47.708
X137.002Y-43.805
X137.648Y-48.694
X138.25Y-56.26
X138.269Y-58.173
X138.276Y-57.223
X138.31Y-53.43
X138.311Y-55.327
X138.318Y-50.594
X138.32Y-51.544
X138.324Y-49.644
X138.337Y-52.494
X138.363Y-54.378
X138.664Y-39.326
X139.295Y-40.596
X139.67Y-91.48
X139.784Y-46.588
X140.53Y-40.938
X140.647Y-41.946
X142.65Y-41.83
X143.55Y-74.31
X144.35Y-43.86
X144.61Y-55.6
X144.68Y-62.22
X145.09Y-35.71
X146.47Y-47.21
X146.63Y-48.654
X147.01Y-43.35
X147.013Y-46.453
X147.21Y-98.42
X147.23Y-94.32
X147.24Y-87.43
X147.53Y-55.82
X147.54Y-49.844
X147.54Y-51.06
X147.57Y-53.44
X147.574Y-54.63
X147.58Y-52.25
X147.82Y-46.915
X148.16Y-77.42
X149.07Y-87.03
X149.09Y-72.65
X149.34Y-71.42
X149.47Y-94.94
X149.55Y-55.26
X149.581Y-54.331
X149.66Y-48.1
X149.669Y-45.62
X149.674Y-53.213
X149.675Y-88.32
X149.68Y-46.55
X149.701Y-50.839
X149.732Y-49.67
X149.741Y-52.079
X149.8Y-41.42
X149.89Y-32.08
X149.95Y-73.84
X150.09Y-90.6
X150.27Y-78.53
X150.56Y-68.82
X151.165Y-71.42
X151.77Y-72.67
X152.05Y-73.81
T2
X149.27Y-125.95
X99.0Y-125.9
T0
M30
