G04 #@! TF.GenerationSoftware,KiCad,Pcbnew,(5.1.4)-1*
G04 #@! TF.CreationDate,2019-12-24T12:05:12+08:00*
G04 #@! TF.ProjectId,FH26W-45S-0.3SHW,46483236-572d-4343-9553-2d302e335348,rev?*
G04 #@! TF.SameCoordinates,Original*
G04 #@! TF.FileFunction,Legend,Top*
G04 #@! TF.FilePolarity,Positive*
%FSLAX46Y46*%
G04 Gerber Fmt 4.6, Leading zero omitted, Abs format (unit mm)*
G04 Created by KiCad (PCBNEW (5.1.4)-1) date 2019-12-24 12:05:12*
%MOMM*%
%LPD*%
G04 APERTURE LIST*
%ADD10C,0.150000*%
%ADD11C,0.130000*%
G04 APERTURE END LIST*
D10*
X120110952Y-76372380D02*
X120110952Y-77086666D01*
X120063333Y-77229523D01*
X119968095Y-77324761D01*
X119825238Y-77372380D01*
X119730000Y-77372380D01*
X120587142Y-77372380D02*
X120587142Y-76372380D01*
X120968095Y-76372380D01*
X121063333Y-76420000D01*
X121110952Y-76467619D01*
X121158571Y-76562857D01*
X121158571Y-76705714D01*
X121110952Y-76800952D01*
X121063333Y-76848571D01*
X120968095Y-76896190D01*
X120587142Y-76896190D01*
X121872857Y-76372380D02*
X121872857Y-77086666D01*
X121825238Y-77229523D01*
X121730000Y-77324761D01*
X121587142Y-77372380D01*
X121491904Y-77372380D01*
X122349047Y-77372380D02*
X122349047Y-76372380D01*
X122730000Y-76372380D01*
X122825238Y-76420000D01*
X122872857Y-76467619D01*
X122920476Y-76562857D01*
X122920476Y-76705714D01*
X122872857Y-76800952D01*
X122825238Y-76848571D01*
X122730000Y-76896190D01*
X122349047Y-76896190D01*
X123634761Y-76372380D02*
X123634761Y-77086666D01*
X123587142Y-77229523D01*
X123491904Y-77324761D01*
X123349047Y-77372380D01*
X123253809Y-77372380D01*
X124110952Y-77372380D02*
X124110952Y-76372380D01*
X124491904Y-76372380D01*
X124587142Y-76420000D01*
X124634761Y-76467619D01*
X124682380Y-76562857D01*
X124682380Y-76705714D01*
X124634761Y-76800952D01*
X124587142Y-76848571D01*
X124491904Y-76896190D01*
X124110952Y-76896190D01*
D11*
X95000000Y-27000000D02*
X95000000Y-25600000D01*
D10*
X148008095Y-121652380D02*
X148579523Y-121652380D01*
X148293809Y-122652380D02*
X148293809Y-121652380D01*
X148912857Y-122652380D02*
X148912857Y-121652380D01*
X149293809Y-121652380D01*
X149389047Y-121700000D01*
X149436666Y-121747619D01*
X149484285Y-121842857D01*
X149484285Y-121985714D01*
X149436666Y-122080952D01*
X149389047Y-122128571D01*
X149293809Y-122176190D01*
X148912857Y-122176190D01*
X149960476Y-122652380D02*
X150150952Y-122652380D01*
X150246190Y-122604761D01*
X150293809Y-122557142D01*
X150389047Y-122414285D01*
X150436666Y-122223809D01*
X150436666Y-121842857D01*
X150389047Y-121747619D01*
X150341428Y-121700000D01*
X150246190Y-121652380D01*
X150055714Y-121652380D01*
X149960476Y-121700000D01*
X149912857Y-121747619D01*
X149865238Y-121842857D01*
X149865238Y-122080952D01*
X149912857Y-122176190D01*
X149960476Y-122223809D01*
X150055714Y-122271428D01*
X150246190Y-122271428D01*
X150341428Y-122223809D01*
X150389047Y-122176190D01*
X150436666Y-122080952D01*
X97261904Y-121602380D02*
X97833333Y-121602380D01*
X97547619Y-122602380D02*
X97547619Y-121602380D01*
X98166666Y-122602380D02*
X98166666Y-121602380D01*
X98547619Y-121602380D01*
X98642857Y-121650000D01*
X98690476Y-121697619D01*
X98738095Y-121792857D01*
X98738095Y-121935714D01*
X98690476Y-122030952D01*
X98642857Y-122078571D01*
X98547619Y-122126190D01*
X98166666Y-122126190D01*
X99690476Y-122602380D02*
X99119047Y-122602380D01*
X99404761Y-122602380D02*
X99404761Y-121602380D01*
X99309523Y-121745238D01*
X99214285Y-121840476D01*
X99119047Y-121888095D01*
X100309523Y-121602380D02*
X100404761Y-121602380D01*
X100500000Y-121650000D01*
X100547619Y-121697619D01*
X100595238Y-121792857D01*
X100642857Y-121983333D01*
X100642857Y-122221428D01*
X100595238Y-122411904D01*
X100547619Y-122507142D01*
X100500000Y-122554761D01*
X100404761Y-122602380D01*
X100309523Y-122602380D01*
X100214285Y-122554761D01*
X100166666Y-122507142D01*
X100119047Y-122411904D01*
X100071428Y-122221428D01*
X100071428Y-121983333D01*
X100119047Y-121792857D01*
X100166666Y-121697619D01*
X100214285Y-121650000D01*
X100309523Y-121602380D01*
M02*
