G04 #@! TF.GenerationSoftware,KiCad,Pcbnew,(5.1.4)-1*
G04 #@! TF.CreationDate,2019-11-27T14:10:41+08:00*
G04 #@! TF.ProjectId,FH26W-45S-0.3SHW,46483236-572d-4343-9553-2d302e335348,rev?*
G04 #@! TF.SameCoordinates,Original*
G04 #@! TF.FileFunction,Copper,L1,Top*
G04 #@! TF.FilePolarity,Positive*
%FSLAX46Y46*%
G04 Gerber Fmt 4.6, Leading zero omitted, Abs format (unit mm)*
G04 Created by KiCad (PCBNEW (5.1.4)-1) date 2019-11-27 14:10:41*
%MOMM*%
%LPD*%
G04 APERTURE LIST*
%ADD10C,5.500000*%
%ADD11C,0.800000*%
%ADD12C,0.150000*%
%ADD13C,0.130000*%
%ADD14C,0.254000*%
G04 APERTURE END LIST*
D10*
X92000000Y-29000000D03*
X156400000Y-119600000D03*
X92000000Y-119600000D03*
X156200000Y-29000000D03*
D11*
X154590000Y-72410000D03*
X151390010Y-68819990D03*
X150490000Y-90440000D03*
X148160000Y-77420000D03*
X145090000Y-35710000D03*
X147240000Y-87430000D03*
X139670000Y-91480000D03*
X151120000Y-78460000D03*
X143550000Y-74310000D03*
X144350000Y-43860000D03*
X149660000Y-48100000D03*
X144610000Y-55600000D03*
X150190000Y-71420000D03*
X152350001Y-71420000D03*
X147230000Y-94320000D03*
X149070000Y-87030000D03*
X154580000Y-76620000D03*
X149800000Y-41420000D03*
X149668796Y-45620066D03*
X147010000Y-43350000D03*
X137586942Y-40553058D03*
X146630000Y-48654298D03*
X150660000Y-72650000D03*
X152650011Y-72640000D03*
X154540000Y-80800000D03*
X154410000Y-63820000D03*
X149680000Y-46550000D03*
X138720000Y-41260000D03*
X147819999Y-46915000D03*
X140709081Y-42340919D03*
X145570000Y-40950000D03*
X147012858Y-46453018D03*
X105760000Y-37840000D03*
X149731604Y-49670145D03*
X108300000Y-38465000D03*
X147540000Y-49844299D03*
X110840000Y-39090000D03*
X149700756Y-50839298D03*
X113380000Y-39715000D03*
X147540000Y-51059996D03*
X115920000Y-40340000D03*
X149740729Y-52079271D03*
X118460000Y-40965000D03*
X147580108Y-52249997D03*
X121000000Y-41590000D03*
X149674252Y-53212794D03*
X147570000Y-53439998D03*
X123540000Y-42215000D03*
X126080000Y-42840000D03*
X149581330Y-54330526D03*
X128620000Y-43465000D03*
X147574335Y-54629999D03*
X131160000Y-44090000D03*
X149550000Y-55260000D03*
X133700000Y-44715000D03*
X147530000Y-55820000D03*
X154430000Y-68070000D03*
X149690000Y-61870000D03*
X139900000Y-41700000D03*
X146470000Y-47210000D03*
X107060000Y-46610000D03*
X138344529Y-47745471D03*
X138295963Y-48694230D03*
X110390000Y-48620000D03*
X138323943Y-49643819D03*
X112060000Y-49620000D03*
X138318404Y-50593805D03*
X114710000Y-50480000D03*
X138320357Y-51543805D03*
X117290000Y-51520000D03*
X119635001Y-52504999D03*
X138336534Y-52493669D03*
X138310000Y-53430000D03*
X122100000Y-53250000D03*
X138363436Y-54378498D03*
X125110000Y-54160000D03*
X138311381Y-55327073D03*
X127540000Y-55360000D03*
X138250000Y-56260000D03*
X129620000Y-56220000D03*
X138275641Y-57222846D03*
X132692846Y-57222846D03*
X138269163Y-58172826D03*
X135500000Y-58190000D03*
X153490000Y-69980000D03*
X150760000Y-70010000D03*
D12*
X148589990Y-47425983D02*
X148754018Y-47590010D01*
X148589990Y-46379990D02*
X148589990Y-47425983D01*
X148480000Y-46140000D02*
X148480000Y-46270000D01*
X148480000Y-46270000D02*
X148589990Y-46379990D01*
X154590000Y-72410000D02*
X154590000Y-69590000D01*
X153819990Y-68819990D02*
X151390010Y-68819990D01*
X154590000Y-69590000D02*
X153819990Y-68819990D01*
X150490000Y-90440000D02*
X150490000Y-81890000D01*
X150490000Y-81890000D02*
X148160000Y-79560000D01*
X148160000Y-79560000D02*
X148160000Y-77420000D01*
X149660000Y-48100000D02*
X148870000Y-47310000D01*
X148870000Y-47310000D02*
X148870000Y-46110000D01*
X148870000Y-46134007D02*
X148870000Y-46264007D01*
X148620000Y-45884007D02*
X148870000Y-46134007D01*
X148620000Y-45860000D02*
X148620000Y-45884007D01*
X148620000Y-45860000D02*
X147790000Y-45030000D01*
X148870000Y-46110000D02*
X148620000Y-45860000D01*
X152435039Y-71420000D02*
X152455039Y-71440000D01*
X151470000Y-71420000D02*
X152350001Y-71420000D01*
X151470000Y-71420000D02*
X152435039Y-71420000D01*
X150190000Y-71420000D02*
X151470000Y-71420000D01*
X147230000Y-94320000D02*
X148420000Y-94320000D01*
X148420000Y-94320000D02*
X149070000Y-93670000D01*
X149070000Y-93670000D02*
X149070000Y-87030000D01*
X154580000Y-76620000D02*
X153550000Y-75590000D01*
X153550000Y-72619999D02*
X152350001Y-71420000D01*
X153550000Y-75590000D02*
X153550000Y-72619999D01*
X147870000Y-43350000D02*
X149800000Y-41420000D01*
X147010000Y-43350000D02*
X147870000Y-43350000D01*
X149668796Y-41551204D02*
X149800000Y-41420000D01*
X149668796Y-45620066D02*
X149668796Y-41551204D01*
X143874278Y-47300000D02*
X143599990Y-47025712D01*
X143599990Y-47025712D02*
X137507139Y-40932861D01*
X137507139Y-40932861D02*
X137586942Y-40853058D01*
X137586942Y-40853058D02*
X137586942Y-40553058D01*
X145228576Y-48654298D02*
X143874278Y-47300000D01*
X146630000Y-48654298D02*
X145228576Y-48654298D01*
X150970000Y-72670000D02*
X152620011Y-72670000D01*
X152620011Y-72670000D02*
X152650011Y-72640000D01*
D13*
X152640011Y-72650000D02*
X152650011Y-72640000D01*
X150660000Y-72650000D02*
X152640011Y-72650000D01*
D12*
X152650011Y-73205685D02*
X152660000Y-73215674D01*
X152650011Y-72640000D02*
X152650011Y-73205685D01*
X152660000Y-78920000D02*
X154540000Y-80800000D01*
X152660000Y-73215674D02*
X152660000Y-78920000D01*
X154410000Y-63820000D02*
X150930000Y-60340000D01*
X150079999Y-46949999D02*
X150930000Y-47800000D01*
X149680000Y-46550000D02*
X150079999Y-46949999D01*
X150930000Y-60340000D02*
X150930000Y-47800000D01*
X146734999Y-48000000D02*
X147819999Y-46915000D01*
X145080000Y-48000000D02*
X146734999Y-48000000D01*
X143240000Y-46160000D02*
X145080000Y-48000000D01*
X143220000Y-46160000D02*
X143240000Y-46160000D01*
X138720000Y-41660000D02*
X143220000Y-46160000D01*
X138720000Y-41260000D02*
X138720000Y-41660000D01*
X142690810Y-44770810D02*
X140709081Y-42789081D01*
X140709081Y-42789081D02*
X140709081Y-42340919D01*
X146447173Y-46453018D02*
X146440191Y-46460000D01*
X147012858Y-46453018D02*
X146447173Y-46453018D01*
X144380000Y-46460000D02*
X142690810Y-44770810D01*
X146440191Y-46460000D02*
X144380000Y-46460000D01*
X144179081Y-42340919D02*
X140709081Y-42340919D01*
X145570000Y-40950000D02*
X144179081Y-42340919D01*
X133990000Y-37840000D02*
X144110000Y-47960000D01*
X105760000Y-37840000D02*
X133990000Y-37840000D01*
D13*
X149129298Y-49249298D02*
X149680000Y-49800000D01*
X145389298Y-49249298D02*
X149129298Y-49249298D01*
X144110000Y-47970000D02*
X145389298Y-49249298D01*
X144110000Y-47960000D02*
X144110000Y-47970000D01*
D12*
X108300000Y-38465000D02*
X134190722Y-38465000D01*
X134190722Y-38465000D02*
X144340722Y-48615000D01*
D13*
X145570021Y-49844299D02*
X144340722Y-48615000D01*
X147540000Y-49844299D02*
X145570021Y-49844299D01*
D12*
X134391444Y-39090000D02*
X144541444Y-49240000D01*
X110840000Y-39090000D02*
X134391444Y-39090000D01*
X144541444Y-49240000D02*
X144911435Y-49609991D01*
X144911435Y-49609991D02*
X145150722Y-49849278D01*
D13*
X149300757Y-50439299D02*
X149700756Y-50839298D01*
X145749299Y-50439299D02*
X149300757Y-50439299D01*
X145201706Y-49891706D02*
X145749299Y-50439299D01*
X145150722Y-49891706D02*
X145201706Y-49891706D01*
X145150722Y-49849278D02*
X145150722Y-49891706D01*
D12*
X134592166Y-39715000D02*
X144787166Y-49910000D01*
X113380000Y-39715000D02*
X134592166Y-39715000D01*
D13*
X145323583Y-50446417D02*
X145336417Y-50446417D01*
D12*
X144787166Y-49910000D02*
X145323583Y-50446417D01*
D13*
X145949996Y-51059996D02*
X147540000Y-51059996D01*
X145336417Y-50446417D02*
X145949996Y-51059996D01*
D12*
X115920000Y-40340000D02*
X134792888Y-40340000D01*
X134792888Y-40340000D02*
X144946444Y-50493556D01*
X145521444Y-51068556D02*
X144946444Y-50493556D01*
D13*
X149316454Y-51654996D02*
X146834996Y-51654996D01*
X149740729Y-52079271D02*
X149316454Y-51654996D01*
X146834996Y-51654996D02*
X146829992Y-51660000D01*
X146112888Y-51660000D02*
X145521444Y-51068556D01*
X146829992Y-51660000D02*
X146112888Y-51660000D01*
D12*
X134993610Y-40965000D02*
X145248610Y-51220000D01*
X118460000Y-40965000D02*
X134993610Y-40965000D01*
D13*
X147580108Y-52249997D02*
X146299997Y-52249997D01*
X145710695Y-51660695D02*
X145689305Y-51660695D01*
X146299997Y-52249997D02*
X145710695Y-51660695D01*
D12*
X145248610Y-51220000D02*
X145689305Y-51660695D01*
X145689305Y-51660695D02*
X145768610Y-51740000D01*
X121000000Y-41590000D02*
X135194332Y-41590000D01*
X135194332Y-41590000D02*
X145474332Y-51870000D01*
X145474332Y-51870000D02*
X145804323Y-52199991D01*
D13*
X145804323Y-52204323D02*
X145804323Y-52199991D01*
X146444997Y-52844997D02*
X145804323Y-52204323D01*
X149104997Y-52844997D02*
X146444997Y-52844997D01*
X149674252Y-53212794D02*
X149472794Y-53212794D01*
X149472794Y-53212794D02*
X149104997Y-52844997D01*
X147570000Y-53439998D02*
X146577624Y-53439998D01*
X145983813Y-52846187D02*
X145818813Y-52681187D01*
D12*
X135395054Y-42215000D02*
X145680054Y-52500000D01*
X123540000Y-42215000D02*
X135395054Y-42215000D01*
D13*
X145760027Y-52622401D02*
X146248813Y-53111187D01*
X145760027Y-52579973D02*
X145760027Y-52622401D01*
X146248813Y-53111187D02*
X145983813Y-52846187D01*
X146577624Y-53439998D02*
X146248813Y-53111187D01*
D12*
X145760027Y-52579973D02*
X146150054Y-52970000D01*
X145680054Y-52500000D02*
X145760027Y-52579973D01*
X126080000Y-42840000D02*
X135595776Y-42840000D01*
X145822888Y-53067112D02*
X146132888Y-53377112D01*
X135595776Y-42840000D02*
X145822888Y-53067112D01*
X146275776Y-53520000D02*
X146197888Y-53442112D01*
X146132888Y-53377112D02*
X146197888Y-53442112D01*
X145822888Y-53067112D02*
X145905776Y-53150000D01*
X146197888Y-53442112D02*
X146280775Y-53524999D01*
D13*
X146686303Y-53930527D02*
X146280775Y-53524999D01*
X146686303Y-53930527D02*
X146686303Y-53936303D01*
X146692079Y-53930527D02*
X146700527Y-53930527D01*
X146686303Y-53936303D02*
X146692079Y-53930527D01*
X146804998Y-54034998D02*
X148324998Y-54034998D01*
X146700527Y-53930527D02*
X146804998Y-54034998D01*
X148335398Y-54024598D02*
X149275402Y-54024598D01*
X148324998Y-54034998D02*
X148335398Y-54024598D01*
X149581330Y-54330526D02*
X149275402Y-54024598D01*
D12*
X128620000Y-43465000D02*
X135796498Y-43465000D01*
X135796498Y-43465000D02*
X146151498Y-53820000D01*
D13*
X146961497Y-54629999D02*
X146410749Y-54079251D01*
X147574335Y-54629999D02*
X146961497Y-54629999D01*
D12*
X146151498Y-53820000D02*
X146410749Y-54079251D01*
X146410749Y-54079251D02*
X146481498Y-54150000D01*
X131160000Y-44090000D02*
X135997220Y-44090000D01*
X135997220Y-44090000D02*
X146293610Y-54386390D01*
X146648610Y-54741390D02*
X146655001Y-54734999D01*
D13*
X146578610Y-54671390D02*
X146578610Y-54678610D01*
D12*
X146578610Y-54671390D02*
X146648610Y-54741390D01*
X146293610Y-54386390D02*
X146578610Y-54671390D01*
D13*
X147124999Y-55224999D02*
X147244399Y-55224999D01*
X146578610Y-54678610D02*
X147124999Y-55224999D01*
X147244399Y-55224999D02*
X147805001Y-55224999D01*
X147805001Y-55224999D02*
X148115001Y-55224999D01*
X148814999Y-55224999D02*
X147805001Y-55224999D01*
X148889314Y-55224999D02*
X148814999Y-55224999D01*
X149514999Y-55224999D02*
X149550000Y-55260000D01*
X149025001Y-55224999D02*
X149514999Y-55224999D01*
X149025001Y-55224999D02*
X149134999Y-55224999D01*
X148814999Y-55224999D02*
X149025001Y-55224999D01*
D12*
X133700000Y-44715000D02*
X136197942Y-44715000D01*
X136197942Y-44715000D02*
X146592942Y-55110000D01*
D13*
X147260000Y-55820000D02*
X147530000Y-55820000D01*
X146592942Y-55152942D02*
X147260000Y-55820000D01*
X146592942Y-55110000D02*
X146592942Y-55152942D01*
D12*
X149690000Y-63330000D02*
X149690000Y-61870000D01*
X154430000Y-68070000D02*
X149690000Y-63330000D01*
X139880000Y-42395722D02*
X139880000Y-41720000D01*
X139880000Y-41720000D02*
X139900000Y-41700000D01*
X146470000Y-47210000D02*
X144690000Y-47210000D01*
X142667139Y-45187139D02*
X142667139Y-45182861D01*
X144690000Y-47210000D02*
X142667139Y-45187139D01*
X142667139Y-45182861D02*
X139880000Y-42395722D01*
X137778844Y-47745471D02*
X137773373Y-47740000D01*
X138344529Y-47745471D02*
X137778844Y-47745471D01*
X108190000Y-47740000D02*
X107060000Y-46610000D01*
X137773373Y-47740000D02*
X108190000Y-47740000D01*
X137730278Y-48694230D02*
X137724508Y-48700000D01*
X138295963Y-48694230D02*
X137730278Y-48694230D01*
X137724508Y-48700000D02*
X114670000Y-48700000D01*
X114670000Y-48700000D02*
X111900000Y-48700000D01*
X111260000Y-48700000D02*
X111240000Y-48680000D01*
X111320000Y-48700000D02*
X110470000Y-48700000D01*
X111320000Y-48700000D02*
X111260000Y-48700000D01*
X111900000Y-48700000D02*
X111320000Y-48700000D01*
X110470000Y-48700000D02*
X110390000Y-48620000D01*
X112083819Y-49643819D02*
X112060000Y-49620000D01*
X138323943Y-49643819D02*
X112083819Y-49643819D01*
X114823805Y-50593805D02*
X114710000Y-50480000D01*
X138318404Y-50593805D02*
X114823805Y-50593805D01*
X137754672Y-51543805D02*
X137750867Y-51540000D01*
X138320357Y-51543805D02*
X137754672Y-51543805D01*
X117310000Y-51540000D02*
X117290000Y-51520000D01*
X137750867Y-51540000D02*
X117310000Y-51540000D01*
X137770849Y-52493669D02*
X137754518Y-52510000D01*
X138336534Y-52493669D02*
X137770849Y-52493669D01*
X123364999Y-52504999D02*
X123370000Y-52510000D01*
X119635001Y-52504999D02*
X123364999Y-52504999D01*
X137754518Y-52510000D02*
X123370000Y-52510000D01*
X123370000Y-52510000D02*
X122940000Y-52510000D01*
X138310000Y-53430000D02*
X137744315Y-53430000D01*
X137744315Y-53430000D02*
X122280000Y-53430000D01*
X122280000Y-53430000D02*
X122100000Y-53250000D01*
X138363436Y-54378498D02*
X125328498Y-54378498D01*
X125328498Y-54378498D02*
X125110000Y-54160000D01*
X138311381Y-55327073D02*
X127572927Y-55327073D01*
X127572927Y-55327073D02*
X127540000Y-55360000D01*
X138250000Y-56260000D02*
X129660000Y-56260000D01*
X129660000Y-56260000D02*
X129620000Y-56220000D01*
X132817154Y-57222846D02*
X132800000Y-57240000D01*
X138275641Y-57222846D02*
X132817154Y-57222846D01*
X132817154Y-57222846D02*
X132692846Y-57222846D01*
X138269163Y-58172826D02*
X135517174Y-58172826D01*
X135517174Y-58172826D02*
X135500000Y-58190000D01*
X153490000Y-69980000D02*
X152924315Y-69980000D01*
X151245039Y-69980000D02*
X151225039Y-70000000D01*
X153460000Y-70010000D02*
X153490000Y-69980000D01*
X151100000Y-70010000D02*
X153460000Y-70010000D01*
D13*
X151325685Y-70010000D02*
X150760000Y-70010000D01*
X151350000Y-69985685D02*
X151325685Y-70010000D01*
X151350000Y-69980000D02*
X151350000Y-69985685D01*
D12*
X151350000Y-69980000D02*
X151245039Y-69980000D01*
X152924315Y-69980000D02*
X151350000Y-69980000D01*
D14*
G36*
X90115738Y-26168228D02*
G01*
X90104859Y-26175497D01*
X89798677Y-26619072D01*
X92000000Y-28820395D01*
X94201323Y-26619072D01*
X93895141Y-26175497D01*
X93680057Y-26060000D01*
X154519158Y-26060000D01*
X154315738Y-26168228D01*
X154304859Y-26175497D01*
X153998677Y-26619072D01*
X156200000Y-28820395D01*
X158401323Y-26619072D01*
X158095141Y-26175497D01*
X157880057Y-26060000D01*
X158740000Y-26060000D01*
X158740000Y-26908478D01*
X158580928Y-26798677D01*
X156379605Y-29000000D01*
X158580928Y-31201323D01*
X158740000Y-31091522D01*
X158740001Y-40032419D01*
X158740257Y-40035021D01*
X158730252Y-40338748D01*
X158663259Y-40626940D01*
X158541563Y-40896637D01*
X158369801Y-41137558D01*
X158154515Y-41340527D01*
X157903905Y-41497817D01*
X157612692Y-41609098D01*
X157469369Y-41640739D01*
X152218255Y-42434858D01*
X152170617Y-42439550D01*
X152123012Y-42453991D01*
X152074811Y-42466210D01*
X152060928Y-42472824D01*
X152046207Y-42477290D01*
X152002334Y-42500740D01*
X151957443Y-42522128D01*
X151945119Y-42531322D01*
X151931550Y-42538575D01*
X151893092Y-42570137D01*
X151853239Y-42599869D01*
X151842945Y-42611292D01*
X151831052Y-42621052D01*
X151799489Y-42659512D01*
X151766204Y-42696446D01*
X151758337Y-42709656D01*
X151748575Y-42721551D01*
X151725125Y-42765423D01*
X151699681Y-42808147D01*
X151694540Y-42822643D01*
X151687290Y-42836208D01*
X151672849Y-42883812D01*
X151656230Y-42930678D01*
X151654017Y-42945892D01*
X151649550Y-42960618D01*
X151644673Y-43010132D01*
X151637517Y-43059333D01*
X151640000Y-43107114D01*
X151640000Y-47765123D01*
X151629727Y-47660816D01*
X151589128Y-47526980D01*
X151523200Y-47403637D01*
X151434475Y-47295525D01*
X151407384Y-47273292D01*
X150715000Y-46580909D01*
X150715000Y-46448061D01*
X150675226Y-46248102D01*
X150602078Y-46071509D01*
X150664022Y-45921964D01*
X150703796Y-45722005D01*
X150703796Y-45518127D01*
X150664022Y-45318168D01*
X150586001Y-45129810D01*
X150472733Y-44960292D01*
X150378796Y-44866355D01*
X150378796Y-42278045D01*
X150459774Y-42223937D01*
X150603937Y-42079774D01*
X150717205Y-41910256D01*
X150795226Y-41721898D01*
X150835000Y-41521939D01*
X150835000Y-41318061D01*
X150795226Y-41118102D01*
X150717205Y-40929744D01*
X150603937Y-40760226D01*
X150459774Y-40616063D01*
X150290256Y-40502795D01*
X150101898Y-40424774D01*
X149901939Y-40385000D01*
X149698061Y-40385000D01*
X149498102Y-40424774D01*
X149309744Y-40502795D01*
X149140226Y-40616063D01*
X148996063Y-40760226D01*
X148882795Y-40929744D01*
X148804774Y-41118102D01*
X148765000Y-41318061D01*
X148765000Y-41450908D01*
X147669810Y-42546099D01*
X147669774Y-42546063D01*
X147500256Y-42432795D01*
X147311898Y-42354774D01*
X147111939Y-42315000D01*
X146908061Y-42315000D01*
X146708102Y-42354774D01*
X146519744Y-42432795D01*
X146350226Y-42546063D01*
X146206063Y-42690226D01*
X146092795Y-42859744D01*
X146014774Y-43048102D01*
X145975000Y-43248061D01*
X145975000Y-43451939D01*
X146014774Y-43651898D01*
X146092795Y-43840256D01*
X146206063Y-44009774D01*
X146350226Y-44153937D01*
X146519744Y-44267205D01*
X146708102Y-44345226D01*
X146908061Y-44385000D01*
X147111939Y-44385000D01*
X147311898Y-44345226D01*
X147500256Y-44267205D01*
X147669774Y-44153937D01*
X147763711Y-44060000D01*
X147835125Y-44060000D01*
X147870000Y-44063435D01*
X147904875Y-44060000D01*
X147904877Y-44060000D01*
X148009184Y-44049727D01*
X148143020Y-44009128D01*
X148266363Y-43943200D01*
X148374475Y-43854475D01*
X148396712Y-43827379D01*
X148958797Y-43265295D01*
X148958796Y-44866355D01*
X148864859Y-44960292D01*
X148751591Y-45129810D01*
X148673570Y-45318168D01*
X148647569Y-45448884D01*
X148619183Y-45440273D01*
X148480000Y-45426565D01*
X148340816Y-45440273D01*
X148206980Y-45480872D01*
X148083637Y-45546800D01*
X147975525Y-45635526D01*
X147886800Y-45743638D01*
X147840957Y-45829405D01*
X147816795Y-45793244D01*
X147672632Y-45649081D01*
X147503114Y-45535813D01*
X147314756Y-45457792D01*
X147114797Y-45418018D01*
X146910919Y-45418018D01*
X146710960Y-45457792D01*
X146522602Y-45535813D01*
X146353084Y-45649081D01*
X146252165Y-45750000D01*
X144674092Y-45750000D01*
X143217521Y-44293430D01*
X143217517Y-44293425D01*
X141975010Y-43050919D01*
X144144206Y-43050919D01*
X144179081Y-43054354D01*
X144213956Y-43050919D01*
X144213958Y-43050919D01*
X144318265Y-43040646D01*
X144452101Y-43000047D01*
X144575444Y-42934119D01*
X144683556Y-42845394D01*
X144705793Y-42818298D01*
X145539091Y-41985000D01*
X145671939Y-41985000D01*
X145871898Y-41945226D01*
X146060256Y-41867205D01*
X146229774Y-41753937D01*
X146373937Y-41609774D01*
X146487205Y-41440256D01*
X146565226Y-41251898D01*
X146605000Y-41051939D01*
X146605000Y-40848061D01*
X146565226Y-40648102D01*
X146487205Y-40459744D01*
X146373937Y-40290226D01*
X146229774Y-40146063D01*
X146060256Y-40032795D01*
X145871898Y-39954774D01*
X145671939Y-39915000D01*
X145468061Y-39915000D01*
X145268102Y-39954774D01*
X145079744Y-40032795D01*
X144910226Y-40146063D01*
X144766063Y-40290226D01*
X144652795Y-40459744D01*
X144574774Y-40648102D01*
X144535000Y-40848061D01*
X144535000Y-40980909D01*
X143884990Y-41630919D01*
X141462792Y-41630919D01*
X141368855Y-41536982D01*
X141199337Y-41423714D01*
X141010979Y-41345693D01*
X140861175Y-41315895D01*
X140817205Y-41209744D01*
X140703937Y-41040226D01*
X140559774Y-40896063D01*
X140390256Y-40782795D01*
X140201898Y-40704774D01*
X140001939Y-40665000D01*
X139798061Y-40665000D01*
X139598102Y-40704774D01*
X139594728Y-40706172D01*
X139523937Y-40600226D01*
X139379774Y-40456063D01*
X139210256Y-40342795D01*
X139021898Y-40264774D01*
X138821939Y-40225000D01*
X138618061Y-40225000D01*
X138574889Y-40233587D01*
X138504147Y-40062802D01*
X138390879Y-39893284D01*
X138246716Y-39749121D01*
X138077198Y-39635853D01*
X137888840Y-39557832D01*
X137688881Y-39518058D01*
X137485003Y-39518058D01*
X137285044Y-39557832D01*
X137096686Y-39635853D01*
X136927168Y-39749121D01*
X136915190Y-39761099D01*
X134516712Y-37362621D01*
X134494475Y-37335525D01*
X134386363Y-37246800D01*
X134263020Y-37180872D01*
X134129184Y-37140273D01*
X134024877Y-37130000D01*
X134024875Y-37130000D01*
X133990000Y-37126565D01*
X133955125Y-37130000D01*
X106513711Y-37130000D01*
X106419774Y-37036063D01*
X106250256Y-36922795D01*
X106061898Y-36844774D01*
X105861939Y-36805000D01*
X105658061Y-36805000D01*
X105458102Y-36844774D01*
X105269744Y-36922795D01*
X105100226Y-37036063D01*
X104956063Y-37180226D01*
X104842795Y-37349744D01*
X104764774Y-37538102D01*
X104725000Y-37738061D01*
X104725000Y-37941939D01*
X104764774Y-38141898D01*
X104842795Y-38330256D01*
X104956063Y-38499774D01*
X105100226Y-38643937D01*
X105269744Y-38757205D01*
X105458102Y-38835226D01*
X105658061Y-38875000D01*
X105861939Y-38875000D01*
X106061898Y-38835226D01*
X106250256Y-38757205D01*
X106419774Y-38643937D01*
X106513711Y-38550000D01*
X107265000Y-38550000D01*
X107265000Y-38566939D01*
X107304774Y-38766898D01*
X107382795Y-38955256D01*
X107496063Y-39124774D01*
X107640226Y-39268937D01*
X107809744Y-39382205D01*
X107998102Y-39460226D01*
X108198061Y-39500000D01*
X108401939Y-39500000D01*
X108601898Y-39460226D01*
X108790256Y-39382205D01*
X108959774Y-39268937D01*
X109053711Y-39175000D01*
X109805000Y-39175000D01*
X109805000Y-39191939D01*
X109844774Y-39391898D01*
X109922795Y-39580256D01*
X110036063Y-39749774D01*
X110180226Y-39893937D01*
X110349744Y-40007205D01*
X110538102Y-40085226D01*
X110738061Y-40125000D01*
X110941939Y-40125000D01*
X111141898Y-40085226D01*
X111330256Y-40007205D01*
X111499774Y-39893937D01*
X111593711Y-39800000D01*
X112345000Y-39800000D01*
X112345000Y-39816939D01*
X112384774Y-40016898D01*
X112462795Y-40205256D01*
X112576063Y-40374774D01*
X112720226Y-40518937D01*
X112889744Y-40632205D01*
X113078102Y-40710226D01*
X113278061Y-40750000D01*
X113481939Y-40750000D01*
X113681898Y-40710226D01*
X113870256Y-40632205D01*
X114039774Y-40518937D01*
X114133711Y-40425000D01*
X114885000Y-40425000D01*
X114885000Y-40441939D01*
X114924774Y-40641898D01*
X115002795Y-40830256D01*
X115116063Y-40999774D01*
X115260226Y-41143937D01*
X115429744Y-41257205D01*
X115618102Y-41335226D01*
X115818061Y-41375000D01*
X116021939Y-41375000D01*
X116221898Y-41335226D01*
X116410256Y-41257205D01*
X116579774Y-41143937D01*
X116673711Y-41050000D01*
X117425000Y-41050000D01*
X117425000Y-41066939D01*
X117464774Y-41266898D01*
X117542795Y-41455256D01*
X117656063Y-41624774D01*
X117800226Y-41768937D01*
X117969744Y-41882205D01*
X118158102Y-41960226D01*
X118358061Y-42000000D01*
X118561939Y-42000000D01*
X118761898Y-41960226D01*
X118950256Y-41882205D01*
X119119774Y-41768937D01*
X119213711Y-41675000D01*
X119965000Y-41675000D01*
X119965000Y-41691939D01*
X120004774Y-41891898D01*
X120082795Y-42080256D01*
X120196063Y-42249774D01*
X120340226Y-42393937D01*
X120509744Y-42507205D01*
X120698102Y-42585226D01*
X120898061Y-42625000D01*
X121101939Y-42625000D01*
X121301898Y-42585226D01*
X121490256Y-42507205D01*
X121659774Y-42393937D01*
X121753711Y-42300000D01*
X122505000Y-42300000D01*
X122505000Y-42316939D01*
X122544774Y-42516898D01*
X122622795Y-42705256D01*
X122736063Y-42874774D01*
X122880226Y-43018937D01*
X123049744Y-43132205D01*
X123238102Y-43210226D01*
X123438061Y-43250000D01*
X123641939Y-43250000D01*
X123841898Y-43210226D01*
X124030256Y-43132205D01*
X124199774Y-43018937D01*
X124293711Y-42925000D01*
X125045000Y-42925000D01*
X125045000Y-42941939D01*
X125084774Y-43141898D01*
X125162795Y-43330256D01*
X125276063Y-43499774D01*
X125420226Y-43643937D01*
X125589744Y-43757205D01*
X125778102Y-43835226D01*
X125978061Y-43875000D01*
X126181939Y-43875000D01*
X126381898Y-43835226D01*
X126570256Y-43757205D01*
X126739774Y-43643937D01*
X126833711Y-43550000D01*
X127585000Y-43550000D01*
X127585000Y-43566939D01*
X127624774Y-43766898D01*
X127702795Y-43955256D01*
X127816063Y-44124774D01*
X127960226Y-44268937D01*
X128129744Y-44382205D01*
X128318102Y-44460226D01*
X128518061Y-44500000D01*
X128721939Y-44500000D01*
X128921898Y-44460226D01*
X129110256Y-44382205D01*
X129279774Y-44268937D01*
X129373711Y-44175000D01*
X130125000Y-44175000D01*
X130125000Y-44191939D01*
X130164774Y-44391898D01*
X130242795Y-44580256D01*
X130356063Y-44749774D01*
X130500226Y-44893937D01*
X130669744Y-45007205D01*
X130858102Y-45085226D01*
X131058061Y-45125000D01*
X131261939Y-45125000D01*
X131461898Y-45085226D01*
X131650256Y-45007205D01*
X131819774Y-44893937D01*
X131913711Y-44800000D01*
X132665000Y-44800000D01*
X132665000Y-44816939D01*
X132704774Y-45016898D01*
X132782795Y-45205256D01*
X132896063Y-45374774D01*
X133040226Y-45518937D01*
X133209744Y-45632205D01*
X133398102Y-45710226D01*
X133598061Y-45750000D01*
X133801939Y-45750000D01*
X134001898Y-45710226D01*
X134190256Y-45632205D01*
X134359774Y-45518937D01*
X134453711Y-45425000D01*
X135903851Y-45425000D01*
X137508851Y-47030000D01*
X108484092Y-47030000D01*
X108095000Y-46640909D01*
X108095000Y-46508061D01*
X108055226Y-46308102D01*
X107977205Y-46119744D01*
X107863937Y-45950226D01*
X107719774Y-45806063D01*
X107550256Y-45692795D01*
X107361898Y-45614774D01*
X107161939Y-45575000D01*
X106958061Y-45575000D01*
X106758102Y-45614774D01*
X106569744Y-45692795D01*
X106400226Y-45806063D01*
X106256063Y-45950226D01*
X106142795Y-46119744D01*
X106064774Y-46308102D01*
X106025000Y-46508061D01*
X106025000Y-46711939D01*
X106064774Y-46911898D01*
X106142795Y-47100256D01*
X106256063Y-47269774D01*
X106400226Y-47413937D01*
X106569744Y-47527205D01*
X106758102Y-47605226D01*
X106958061Y-47645000D01*
X107090909Y-47645000D01*
X107663292Y-48217384D01*
X107685525Y-48244475D01*
X107793637Y-48333200D01*
X107916980Y-48399128D01*
X108050816Y-48439727D01*
X108155123Y-48450000D01*
X108155124Y-48450000D01*
X108189999Y-48453435D01*
X108224874Y-48450000D01*
X109368538Y-48450000D01*
X109355000Y-48518061D01*
X109355000Y-48721939D01*
X109394774Y-48921898D01*
X109472795Y-49110256D01*
X109586063Y-49279774D01*
X109730226Y-49423937D01*
X109899744Y-49537205D01*
X110088102Y-49615226D01*
X110288061Y-49655000D01*
X110491939Y-49655000D01*
X110691898Y-49615226D01*
X110880256Y-49537205D01*
X111042795Y-49428600D01*
X111025000Y-49518061D01*
X111025000Y-49721939D01*
X111064774Y-49921898D01*
X111142795Y-50110256D01*
X111256063Y-50279774D01*
X111400226Y-50423937D01*
X111569744Y-50537205D01*
X111758102Y-50615226D01*
X111958061Y-50655000D01*
X112161939Y-50655000D01*
X112361898Y-50615226D01*
X112550256Y-50537205D01*
X112719774Y-50423937D01*
X112789892Y-50353819D01*
X113679822Y-50353819D01*
X113675000Y-50378061D01*
X113675000Y-50581939D01*
X113714774Y-50781898D01*
X113792795Y-50970256D01*
X113906063Y-51139774D01*
X114050226Y-51283937D01*
X114219744Y-51397205D01*
X114408102Y-51475226D01*
X114608061Y-51515000D01*
X114811939Y-51515000D01*
X115011898Y-51475226D01*
X115200256Y-51397205D01*
X115340039Y-51303805D01*
X116277727Y-51303805D01*
X116255000Y-51418061D01*
X116255000Y-51621939D01*
X116294774Y-51821898D01*
X116372795Y-52010256D01*
X116486063Y-52179774D01*
X116630226Y-52323937D01*
X116799744Y-52437205D01*
X116988102Y-52515226D01*
X117188061Y-52555000D01*
X117391939Y-52555000D01*
X117591898Y-52515226D01*
X117780256Y-52437205D01*
X117949774Y-52323937D01*
X118023711Y-52250000D01*
X118630446Y-52250000D01*
X118600001Y-52403060D01*
X118600001Y-52606938D01*
X118639775Y-52806897D01*
X118717796Y-52995255D01*
X118831064Y-53164773D01*
X118975227Y-53308936D01*
X119144745Y-53422204D01*
X119333103Y-53500225D01*
X119533062Y-53539999D01*
X119736940Y-53539999D01*
X119936899Y-53500225D01*
X120125257Y-53422204D01*
X120294775Y-53308936D01*
X120388712Y-53214999D01*
X121065000Y-53214999D01*
X121065000Y-53351939D01*
X121104774Y-53551898D01*
X121182795Y-53740256D01*
X121296063Y-53909774D01*
X121440226Y-54053937D01*
X121609744Y-54167205D01*
X121798102Y-54245226D01*
X121998061Y-54285000D01*
X122201939Y-54285000D01*
X122401898Y-54245226D01*
X122590256Y-54167205D01*
X122630971Y-54140000D01*
X124075000Y-54140000D01*
X124075000Y-54261939D01*
X124114774Y-54461898D01*
X124192795Y-54650256D01*
X124306063Y-54819774D01*
X124450226Y-54963937D01*
X124619744Y-55077205D01*
X124808102Y-55155226D01*
X125008061Y-55195000D01*
X125211939Y-55195000D01*
X125411898Y-55155226D01*
X125572992Y-55088498D01*
X126538728Y-55088498D01*
X126505000Y-55258061D01*
X126505000Y-55461939D01*
X126544774Y-55661898D01*
X126622795Y-55850256D01*
X126736063Y-56019774D01*
X126880226Y-56163937D01*
X127049744Y-56277205D01*
X127238102Y-56355226D01*
X127438061Y-56395000D01*
X127641939Y-56395000D01*
X127841898Y-56355226D01*
X128030256Y-56277205D01*
X128199774Y-56163937D01*
X128326638Y-56037073D01*
X128601109Y-56037073D01*
X128585000Y-56118061D01*
X128585000Y-56321939D01*
X128624774Y-56521898D01*
X128702795Y-56710256D01*
X128816063Y-56879774D01*
X128960226Y-57023937D01*
X129129744Y-57137205D01*
X129318102Y-57215226D01*
X129518061Y-57255000D01*
X129721939Y-57255000D01*
X129921898Y-57215226D01*
X130110256Y-57137205D01*
X130279774Y-57023937D01*
X130333711Y-56970000D01*
X131687863Y-56970000D01*
X131657846Y-57120907D01*
X131657846Y-57324785D01*
X131697620Y-57524744D01*
X131775641Y-57713102D01*
X131888909Y-57882620D01*
X132033072Y-58026783D01*
X132202590Y-58140051D01*
X132390948Y-58218072D01*
X132590907Y-58257846D01*
X132794785Y-58257846D01*
X132994744Y-58218072D01*
X133183102Y-58140051D01*
X133352620Y-58026783D01*
X133446557Y-57932846D01*
X134495874Y-57932846D01*
X134465000Y-58088061D01*
X134465000Y-58291939D01*
X134504774Y-58491898D01*
X134582795Y-58680256D01*
X134696063Y-58849774D01*
X134840226Y-58993937D01*
X135009744Y-59107205D01*
X135198102Y-59185226D01*
X135398061Y-59225000D01*
X135601939Y-59225000D01*
X135801898Y-59185226D01*
X135990256Y-59107205D01*
X136159774Y-58993937D01*
X136270885Y-58882826D01*
X137515452Y-58882826D01*
X137609389Y-58976763D01*
X137778907Y-59090031D01*
X137967265Y-59168052D01*
X138167224Y-59207826D01*
X138371102Y-59207826D01*
X138571061Y-59168052D01*
X138759419Y-59090031D01*
X138928937Y-58976763D01*
X139073100Y-58832600D01*
X139186368Y-58663082D01*
X139264389Y-58474724D01*
X139304163Y-58274765D01*
X139304163Y-58070887D01*
X139264389Y-57870928D01*
X139195930Y-57705656D01*
X139270867Y-57524744D01*
X139310641Y-57324785D01*
X139310641Y-57120907D01*
X139270867Y-56920948D01*
X139192846Y-56732590D01*
X139181535Y-56715661D01*
X139245226Y-56561898D01*
X139285000Y-56361939D01*
X139285000Y-56158061D01*
X139245226Y-55958102D01*
X139202862Y-55855827D01*
X139228586Y-55817329D01*
X139306607Y-55628971D01*
X139346381Y-55429012D01*
X139346381Y-55225134D01*
X139306607Y-55025175D01*
X139256673Y-54904625D01*
X139280641Y-54868754D01*
X139358662Y-54680396D01*
X139398436Y-54480437D01*
X139398436Y-54276559D01*
X139358662Y-54076600D01*
X139280641Y-53888242D01*
X139255840Y-53851125D01*
X139305226Y-53731898D01*
X139345000Y-53531939D01*
X139345000Y-53328061D01*
X139305226Y-53128102D01*
X139248656Y-52991532D01*
X139253739Y-52983925D01*
X139331760Y-52795567D01*
X139371534Y-52595608D01*
X139371534Y-52391730D01*
X139331760Y-52191771D01*
X139253739Y-52003413D01*
X139251589Y-52000196D01*
X139315583Y-51845703D01*
X139355357Y-51645744D01*
X139355357Y-51441866D01*
X139315583Y-51241907D01*
X139242905Y-51066448D01*
X139313630Y-50895703D01*
X139353404Y-50695744D01*
X139353404Y-50491866D01*
X139313630Y-50291907D01*
X139244701Y-50125498D01*
X139319169Y-49945717D01*
X139358943Y-49745758D01*
X139358943Y-49541880D01*
X139319169Y-49341921D01*
X139241148Y-49153563D01*
X139231783Y-49139547D01*
X139291189Y-48996128D01*
X139321681Y-48842831D01*
X145991474Y-55512624D01*
X146008097Y-55543723D01*
X146095573Y-55650312D01*
X146122284Y-55672233D01*
X146525543Y-56075492D01*
X146534774Y-56121898D01*
X146612795Y-56310256D01*
X146726063Y-56479774D01*
X146870226Y-56623937D01*
X147039744Y-56737205D01*
X147228102Y-56815226D01*
X147428061Y-56855000D01*
X147631939Y-56855000D01*
X147831898Y-56815226D01*
X148020256Y-56737205D01*
X148189774Y-56623937D01*
X148333937Y-56479774D01*
X148447205Y-56310256D01*
X148525226Y-56121898D01*
X148564391Y-55924999D01*
X148751288Y-55924999D01*
X148890226Y-56063937D01*
X149059744Y-56177205D01*
X149248102Y-56255226D01*
X149448061Y-56295000D01*
X149651939Y-56295000D01*
X149851898Y-56255226D01*
X150040256Y-56177205D01*
X150209774Y-56063937D01*
X150220000Y-56053711D01*
X150220000Y-60305125D01*
X150216565Y-60340000D01*
X150220000Y-60374875D01*
X150220000Y-60374876D01*
X150230273Y-60479183D01*
X150270872Y-60613019D01*
X150336800Y-60736362D01*
X150425525Y-60844474D01*
X150452617Y-60866708D01*
X153375000Y-63789092D01*
X153375000Y-63921939D01*
X153414774Y-64121898D01*
X153492795Y-64310256D01*
X153606063Y-64479774D01*
X153750226Y-64623937D01*
X153919744Y-64737205D01*
X154108102Y-64815226D01*
X154308061Y-64855000D01*
X154511939Y-64855000D01*
X154711898Y-64815226D01*
X154900256Y-64737205D01*
X155069774Y-64623937D01*
X155213937Y-64479774D01*
X155327205Y-64310256D01*
X155405226Y-64121898D01*
X155445000Y-63921939D01*
X155445000Y-63718061D01*
X155405226Y-63518102D01*
X155327205Y-63329744D01*
X155213937Y-63160226D01*
X155069774Y-63016063D01*
X154900256Y-62902795D01*
X154711898Y-62824774D01*
X154511939Y-62785000D01*
X154379092Y-62785000D01*
X151640000Y-60045909D01*
X151640000Y-58089730D01*
X151640001Y-58089741D01*
X151640001Y-58092419D01*
X151642908Y-58121938D01*
X151648521Y-58184094D01*
X151649286Y-58186691D01*
X151649551Y-58189383D01*
X151667633Y-58248989D01*
X151685249Y-58308807D01*
X151686506Y-58311205D01*
X151687291Y-58313793D01*
X151716662Y-58368742D01*
X151745601Y-58423958D01*
X151747300Y-58426063D01*
X151748576Y-58428450D01*
X151788122Y-58476637D01*
X151827259Y-58525123D01*
X151829336Y-58526856D01*
X151831053Y-58528948D01*
X151879236Y-58568491D01*
X151927083Y-58608413D01*
X151929458Y-58609708D01*
X151931551Y-58611425D01*
X151986510Y-58640801D01*
X152041238Y-58670628D01*
X152043823Y-58671435D01*
X152046208Y-58672710D01*
X152105847Y-58690802D01*
X152134243Y-58699668D01*
X152136873Y-58700213D01*
X152170618Y-58710450D01*
X152200365Y-58713380D01*
X157460422Y-59804162D01*
X157782391Y-59897350D01*
X158045297Y-60033291D01*
X158276785Y-60217701D01*
X158468047Y-60443567D01*
X158611800Y-60702285D01*
X158702558Y-60983986D01*
X158740000Y-61304749D01*
X158740001Y-117130595D01*
X158714899Y-117105493D01*
X158601322Y-117219070D01*
X158295141Y-116775497D01*
X157707694Y-116460046D01*
X157069992Y-116265260D01*
X156406543Y-116198628D01*
X155742842Y-116262708D01*
X155104395Y-116455038D01*
X154515738Y-116768228D01*
X154504859Y-116775497D01*
X154198677Y-117219072D01*
X156400000Y-119420395D01*
X156414143Y-119406253D01*
X156593748Y-119585858D01*
X156579605Y-119600000D01*
X156593748Y-119614143D01*
X156414143Y-119793748D01*
X156400000Y-119779605D01*
X154198677Y-121980928D01*
X154504859Y-122424503D01*
X154719943Y-122540000D01*
X93680842Y-122540000D01*
X93884262Y-122431772D01*
X93895141Y-122424503D01*
X94201323Y-121980928D01*
X92000000Y-119779605D01*
X89798677Y-121980928D01*
X90104859Y-122424503D01*
X90319943Y-122540000D01*
X89560000Y-122540000D01*
X89560000Y-121760548D01*
X89619072Y-121801323D01*
X91820395Y-119600000D01*
X92179605Y-119600000D01*
X94380928Y-121801323D01*
X94824503Y-121495141D01*
X95139954Y-120907694D01*
X95334740Y-120269992D01*
X95401372Y-119606543D01*
X95400109Y-119593457D01*
X152998628Y-119593457D01*
X153062708Y-120257158D01*
X153255038Y-120895605D01*
X153568228Y-121484262D01*
X153575497Y-121495141D01*
X154019072Y-121801323D01*
X156220395Y-119600000D01*
X154019072Y-117398677D01*
X153575497Y-117704859D01*
X153260046Y-118292306D01*
X153065260Y-118930008D01*
X152998628Y-119593457D01*
X95400109Y-119593457D01*
X95337292Y-118942842D01*
X95144962Y-118304395D01*
X94831772Y-117715738D01*
X94824503Y-117704859D01*
X94380928Y-117398677D01*
X92179605Y-119600000D01*
X91820395Y-119600000D01*
X89619072Y-117398677D01*
X89560000Y-117439452D01*
X89560000Y-117219072D01*
X89798677Y-117219072D01*
X92000000Y-119420395D01*
X94201323Y-117219072D01*
X93895141Y-116775497D01*
X93307694Y-116460046D01*
X92669992Y-116265260D01*
X92006543Y-116198628D01*
X91342842Y-116262708D01*
X90704395Y-116455038D01*
X90115738Y-116768228D01*
X90104859Y-116775497D01*
X89798677Y-117219072D01*
X89560000Y-117219072D01*
X89560000Y-94218061D01*
X146195000Y-94218061D01*
X146195000Y-94421939D01*
X146234774Y-94621898D01*
X146312795Y-94810256D01*
X146426063Y-94979774D01*
X146570226Y-95123937D01*
X146739744Y-95237205D01*
X146928102Y-95315226D01*
X147128061Y-95355000D01*
X147331939Y-95355000D01*
X147531898Y-95315226D01*
X147720256Y-95237205D01*
X147889774Y-95123937D01*
X147983711Y-95030000D01*
X148385125Y-95030000D01*
X148420000Y-95033435D01*
X148454875Y-95030000D01*
X148454877Y-95030000D01*
X148559184Y-95019727D01*
X148693020Y-94979128D01*
X148816363Y-94913200D01*
X148924475Y-94824475D01*
X148946712Y-94797379D01*
X149547383Y-94196708D01*
X149574474Y-94174475D01*
X149663200Y-94066363D01*
X149729128Y-93943020D01*
X149769727Y-93809184D01*
X149780000Y-93704877D01*
X149780000Y-93704875D01*
X149783435Y-93670000D01*
X149780000Y-93635125D01*
X149780000Y-91193711D01*
X149830226Y-91243937D01*
X149999744Y-91357205D01*
X150188102Y-91435226D01*
X150388061Y-91475000D01*
X150591939Y-91475000D01*
X150791898Y-91435226D01*
X150980256Y-91357205D01*
X151149774Y-91243937D01*
X151293937Y-91099774D01*
X151407205Y-90930256D01*
X151485226Y-90741898D01*
X151525000Y-90541939D01*
X151525000Y-90338061D01*
X151485226Y-90138102D01*
X151407205Y-89949744D01*
X151293937Y-89780226D01*
X151200000Y-89686289D01*
X151200000Y-81924875D01*
X151203435Y-81890000D01*
X151198018Y-81835000D01*
X151189727Y-81750816D01*
X151149128Y-81616980D01*
X151083200Y-81493637D01*
X150994475Y-81385525D01*
X150967379Y-81363288D01*
X148870000Y-79265909D01*
X148870000Y-78173711D01*
X148963937Y-78079774D01*
X149077205Y-77910256D01*
X149155226Y-77721898D01*
X149195000Y-77521939D01*
X149195000Y-77318061D01*
X149155226Y-77118102D01*
X149077205Y-76929744D01*
X148963937Y-76760226D01*
X148819774Y-76616063D01*
X148650256Y-76502795D01*
X148461898Y-76424774D01*
X148261939Y-76385000D01*
X148058061Y-76385000D01*
X147858102Y-76424774D01*
X147669744Y-76502795D01*
X147500226Y-76616063D01*
X147356063Y-76760226D01*
X147242795Y-76929744D01*
X147164774Y-77118102D01*
X147125000Y-77318061D01*
X147125000Y-77521939D01*
X147164774Y-77721898D01*
X147242795Y-77910256D01*
X147356063Y-78079774D01*
X147450001Y-78173712D01*
X147450000Y-79525125D01*
X147446565Y-79560000D01*
X147450000Y-79594875D01*
X147450000Y-79594876D01*
X147460273Y-79699183D01*
X147500872Y-79833019D01*
X147566800Y-79956362D01*
X147655525Y-80064474D01*
X147682617Y-80086708D01*
X149780001Y-82184092D01*
X149780000Y-86276289D01*
X149729774Y-86226063D01*
X149560256Y-86112795D01*
X149371898Y-86034774D01*
X149171939Y-85995000D01*
X148968061Y-85995000D01*
X148768102Y-86034774D01*
X148579744Y-86112795D01*
X148410226Y-86226063D01*
X148266063Y-86370226D01*
X148152795Y-86539744D01*
X148074774Y-86728102D01*
X148035000Y-86928061D01*
X148035000Y-87131939D01*
X148074774Y-87331898D01*
X148152795Y-87520256D01*
X148266063Y-87689774D01*
X148360001Y-87783712D01*
X148360000Y-93375909D01*
X148125909Y-93610000D01*
X147983711Y-93610000D01*
X147889774Y-93516063D01*
X147720256Y-93402795D01*
X147531898Y-93324774D01*
X147331939Y-93285000D01*
X147128061Y-93285000D01*
X146928102Y-93324774D01*
X146739744Y-93402795D01*
X146570226Y-93516063D01*
X146426063Y-93660226D01*
X146312795Y-93829744D01*
X146234774Y-94018102D01*
X146195000Y-94218061D01*
X89560000Y-94218061D01*
X89560000Y-61768061D01*
X148655000Y-61768061D01*
X148655000Y-61971939D01*
X148694774Y-62171898D01*
X148772795Y-62360256D01*
X148886063Y-62529774D01*
X148980000Y-62623711D01*
X148980000Y-63295125D01*
X148976565Y-63330000D01*
X148980000Y-63364875D01*
X148980000Y-63364876D01*
X148990273Y-63469183D01*
X149030872Y-63603019D01*
X149096800Y-63726362D01*
X149185525Y-63834474D01*
X149212617Y-63856708D01*
X153395000Y-68039092D01*
X153395000Y-68109990D01*
X152143721Y-68109990D01*
X152049784Y-68016053D01*
X151880266Y-67902785D01*
X151691908Y-67824764D01*
X151491949Y-67784990D01*
X151288071Y-67784990D01*
X151088112Y-67824764D01*
X150899754Y-67902785D01*
X150730236Y-68016053D01*
X150586073Y-68160216D01*
X150472805Y-68329734D01*
X150394784Y-68518092D01*
X150355010Y-68718051D01*
X150355010Y-68921929D01*
X150379919Y-69047158D01*
X150269744Y-69092795D01*
X150100226Y-69206063D01*
X149956063Y-69350226D01*
X149842795Y-69519744D01*
X149764774Y-69708102D01*
X149725000Y-69908061D01*
X149725000Y-70111939D01*
X149764774Y-70311898D01*
X149822743Y-70451847D01*
X149699744Y-70502795D01*
X149530226Y-70616063D01*
X149386063Y-70760226D01*
X149272795Y-70929744D01*
X149194774Y-71118102D01*
X149155000Y-71318061D01*
X149155000Y-71521939D01*
X149194774Y-71721898D01*
X149272795Y-71910256D01*
X149386063Y-72079774D01*
X149530226Y-72223937D01*
X149675890Y-72321266D01*
X149664774Y-72348102D01*
X149625000Y-72548061D01*
X149625000Y-72751939D01*
X149664774Y-72951898D01*
X149742795Y-73140256D01*
X149856063Y-73309774D01*
X150000226Y-73453937D01*
X150169744Y-73567205D01*
X150358102Y-73645226D01*
X150558061Y-73685000D01*
X150761939Y-73685000D01*
X150961898Y-73645226D01*
X151150256Y-73567205D01*
X151319774Y-73453937D01*
X151393711Y-73380000D01*
X151926300Y-73380000D01*
X151950000Y-73403700D01*
X151950001Y-78885115D01*
X151946565Y-78920000D01*
X151960274Y-79059184D01*
X152000872Y-79193019D01*
X152000873Y-79193020D01*
X152066801Y-79316363D01*
X152155526Y-79424475D01*
X152182617Y-79446708D01*
X153505000Y-80769092D01*
X153505000Y-80901939D01*
X153544774Y-81101898D01*
X153622795Y-81290256D01*
X153736063Y-81459774D01*
X153880226Y-81603937D01*
X154049744Y-81717205D01*
X154238102Y-81795226D01*
X154438061Y-81835000D01*
X154641939Y-81835000D01*
X154841898Y-81795226D01*
X155030256Y-81717205D01*
X155199774Y-81603937D01*
X155343937Y-81459774D01*
X155457205Y-81290256D01*
X155535226Y-81101898D01*
X155575000Y-80901939D01*
X155575000Y-80698061D01*
X155535226Y-80498102D01*
X155457205Y-80309744D01*
X155343937Y-80140226D01*
X155199774Y-79996063D01*
X155030256Y-79882795D01*
X154841898Y-79804774D01*
X154641939Y-79765000D01*
X154509092Y-79765000D01*
X153370000Y-78625909D01*
X153370000Y-76414091D01*
X153545000Y-76589091D01*
X153545000Y-76721939D01*
X153584774Y-76921898D01*
X153662795Y-77110256D01*
X153776063Y-77279774D01*
X153920226Y-77423937D01*
X154089744Y-77537205D01*
X154278102Y-77615226D01*
X154478061Y-77655000D01*
X154681939Y-77655000D01*
X154881898Y-77615226D01*
X155070256Y-77537205D01*
X155239774Y-77423937D01*
X155383937Y-77279774D01*
X155497205Y-77110256D01*
X155575226Y-76921898D01*
X155615000Y-76721939D01*
X155615000Y-76518061D01*
X155575226Y-76318102D01*
X155497205Y-76129744D01*
X155383937Y-75960226D01*
X155239774Y-75816063D01*
X155070256Y-75702795D01*
X154881898Y-75624774D01*
X154681939Y-75585000D01*
X154549091Y-75585000D01*
X154260000Y-75295909D01*
X154260000Y-73393586D01*
X154288102Y-73405226D01*
X154488061Y-73445000D01*
X154691939Y-73445000D01*
X154891898Y-73405226D01*
X155080256Y-73327205D01*
X155249774Y-73213937D01*
X155393937Y-73069774D01*
X155507205Y-72900256D01*
X155585226Y-72711898D01*
X155625000Y-72511939D01*
X155625000Y-72308061D01*
X155585226Y-72108102D01*
X155507205Y-71919744D01*
X155393937Y-71750226D01*
X155300000Y-71656289D01*
X155300000Y-69624877D01*
X155303435Y-69590000D01*
X155289727Y-69450815D01*
X155249128Y-69316980D01*
X155195342Y-69216353D01*
X155183200Y-69193637D01*
X155094475Y-69085525D01*
X155067379Y-69063288D01*
X154962841Y-68958750D01*
X155089774Y-68873937D01*
X155233937Y-68729774D01*
X155347205Y-68560256D01*
X155425226Y-68371898D01*
X155465000Y-68171939D01*
X155465000Y-67968061D01*
X155425226Y-67768102D01*
X155347205Y-67579744D01*
X155233937Y-67410226D01*
X155089774Y-67266063D01*
X154920256Y-67152795D01*
X154731898Y-67074774D01*
X154531939Y-67035000D01*
X154399092Y-67035000D01*
X150400000Y-63035909D01*
X150400000Y-62623711D01*
X150493937Y-62529774D01*
X150607205Y-62360256D01*
X150685226Y-62171898D01*
X150725000Y-61971939D01*
X150725000Y-61768061D01*
X150685226Y-61568102D01*
X150607205Y-61379744D01*
X150493937Y-61210226D01*
X150349774Y-61066063D01*
X150180256Y-60952795D01*
X149991898Y-60874774D01*
X149791939Y-60835000D01*
X149588061Y-60835000D01*
X149388102Y-60874774D01*
X149199744Y-60952795D01*
X149030226Y-61066063D01*
X148886063Y-61210226D01*
X148772795Y-61379744D01*
X148694774Y-61568102D01*
X148655000Y-61768061D01*
X89560000Y-61768061D01*
X89560000Y-31380928D01*
X89798677Y-31380928D01*
X90104859Y-31824503D01*
X90692306Y-32139954D01*
X91330008Y-32334740D01*
X91993457Y-32401372D01*
X92657158Y-32337292D01*
X93295605Y-32144962D01*
X93884262Y-31831772D01*
X93895141Y-31824503D01*
X94201323Y-31380928D01*
X153998677Y-31380928D01*
X154304859Y-31824503D01*
X154892306Y-32139954D01*
X155530008Y-32334740D01*
X156193457Y-32401372D01*
X156857158Y-32337292D01*
X157495605Y-32144962D01*
X158084262Y-31831772D01*
X158095141Y-31824503D01*
X158401323Y-31380928D01*
X156200000Y-29179605D01*
X153998677Y-31380928D01*
X94201323Y-31380928D01*
X92000000Y-29179605D01*
X89798677Y-31380928D01*
X89560000Y-31380928D01*
X89560000Y-31160548D01*
X89619072Y-31201323D01*
X91820395Y-29000000D01*
X92179605Y-29000000D01*
X94380928Y-31201323D01*
X94824503Y-30895141D01*
X95139954Y-30307694D01*
X95334740Y-29669992D01*
X95401372Y-29006543D01*
X95400109Y-28993457D01*
X152798628Y-28993457D01*
X152862708Y-29657158D01*
X153055038Y-30295605D01*
X153368228Y-30884262D01*
X153375497Y-30895141D01*
X153819072Y-31201323D01*
X156020395Y-29000000D01*
X153819072Y-26798677D01*
X153375497Y-27104859D01*
X153060046Y-27692306D01*
X152865260Y-28330008D01*
X152798628Y-28993457D01*
X95400109Y-28993457D01*
X95337292Y-28342842D01*
X95144962Y-27704395D01*
X94831772Y-27115738D01*
X94824503Y-27104859D01*
X94380928Y-26798677D01*
X92179605Y-29000000D01*
X91820395Y-29000000D01*
X89619072Y-26798677D01*
X89560000Y-26839452D01*
X89560000Y-26060000D01*
X90319158Y-26060000D01*
X90115738Y-26168228D01*
X90115738Y-26168228D01*
G37*
X90115738Y-26168228D02*
X90104859Y-26175497D01*
X89798677Y-26619072D01*
X92000000Y-28820395D01*
X94201323Y-26619072D01*
X93895141Y-26175497D01*
X93680057Y-26060000D01*
X154519158Y-26060000D01*
X154315738Y-26168228D01*
X154304859Y-26175497D01*
X153998677Y-26619072D01*
X156200000Y-28820395D01*
X158401323Y-26619072D01*
X158095141Y-26175497D01*
X157880057Y-26060000D01*
X158740000Y-26060000D01*
X158740000Y-26908478D01*
X158580928Y-26798677D01*
X156379605Y-29000000D01*
X158580928Y-31201323D01*
X158740000Y-31091522D01*
X158740001Y-40032419D01*
X158740257Y-40035021D01*
X158730252Y-40338748D01*
X158663259Y-40626940D01*
X158541563Y-40896637D01*
X158369801Y-41137558D01*
X158154515Y-41340527D01*
X157903905Y-41497817D01*
X157612692Y-41609098D01*
X157469369Y-41640739D01*
X152218255Y-42434858D01*
X152170617Y-42439550D01*
X152123012Y-42453991D01*
X152074811Y-42466210D01*
X152060928Y-42472824D01*
X152046207Y-42477290D01*
X152002334Y-42500740D01*
X151957443Y-42522128D01*
X151945119Y-42531322D01*
X151931550Y-42538575D01*
X151893092Y-42570137D01*
X151853239Y-42599869D01*
X151842945Y-42611292D01*
X151831052Y-42621052D01*
X151799489Y-42659512D01*
X151766204Y-42696446D01*
X151758337Y-42709656D01*
X151748575Y-42721551D01*
X151725125Y-42765423D01*
X151699681Y-42808147D01*
X151694540Y-42822643D01*
X151687290Y-42836208D01*
X151672849Y-42883812D01*
X151656230Y-42930678D01*
X151654017Y-42945892D01*
X151649550Y-42960618D01*
X151644673Y-43010132D01*
X151637517Y-43059333D01*
X151640000Y-43107114D01*
X151640000Y-47765123D01*
X151629727Y-47660816D01*
X151589128Y-47526980D01*
X151523200Y-47403637D01*
X151434475Y-47295525D01*
X151407384Y-47273292D01*
X150715000Y-46580909D01*
X150715000Y-46448061D01*
X150675226Y-46248102D01*
X150602078Y-46071509D01*
X150664022Y-45921964D01*
X150703796Y-45722005D01*
X150703796Y-45518127D01*
X150664022Y-45318168D01*
X150586001Y-45129810D01*
X150472733Y-44960292D01*
X150378796Y-44866355D01*
X150378796Y-42278045D01*
X150459774Y-42223937D01*
X150603937Y-42079774D01*
X150717205Y-41910256D01*
X150795226Y-41721898D01*
X150835000Y-41521939D01*
X150835000Y-41318061D01*
X150795226Y-41118102D01*
X150717205Y-40929744D01*
X150603937Y-40760226D01*
X150459774Y-40616063D01*
X150290256Y-40502795D01*
X150101898Y-40424774D01*
X149901939Y-40385000D01*
X149698061Y-40385000D01*
X149498102Y-40424774D01*
X149309744Y-40502795D01*
X149140226Y-40616063D01*
X148996063Y-40760226D01*
X148882795Y-40929744D01*
X148804774Y-41118102D01*
X148765000Y-41318061D01*
X148765000Y-41450908D01*
X147669810Y-42546099D01*
X147669774Y-42546063D01*
X147500256Y-42432795D01*
X147311898Y-42354774D01*
X147111939Y-42315000D01*
X146908061Y-42315000D01*
X146708102Y-42354774D01*
X146519744Y-42432795D01*
X146350226Y-42546063D01*
X146206063Y-42690226D01*
X146092795Y-42859744D01*
X146014774Y-43048102D01*
X145975000Y-43248061D01*
X145975000Y-43451939D01*
X146014774Y-43651898D01*
X146092795Y-43840256D01*
X146206063Y-44009774D01*
X146350226Y-44153937D01*
X146519744Y-44267205D01*
X146708102Y-44345226D01*
X146908061Y-44385000D01*
X147111939Y-44385000D01*
X147311898Y-44345226D01*
X147500256Y-44267205D01*
X147669774Y-44153937D01*
X147763711Y-44060000D01*
X147835125Y-44060000D01*
X147870000Y-44063435D01*
X147904875Y-44060000D01*
X147904877Y-44060000D01*
X148009184Y-44049727D01*
X148143020Y-44009128D01*
X148266363Y-43943200D01*
X148374475Y-43854475D01*
X148396712Y-43827379D01*
X148958797Y-43265295D01*
X148958796Y-44866355D01*
X148864859Y-44960292D01*
X148751591Y-45129810D01*
X148673570Y-45318168D01*
X148647569Y-45448884D01*
X148619183Y-45440273D01*
X148480000Y-45426565D01*
X148340816Y-45440273D01*
X148206980Y-45480872D01*
X148083637Y-45546800D01*
X147975525Y-45635526D01*
X147886800Y-45743638D01*
X147840957Y-45829405D01*
X147816795Y-45793244D01*
X147672632Y-45649081D01*
X147503114Y-45535813D01*
X147314756Y-45457792D01*
X147114797Y-45418018D01*
X146910919Y-45418018D01*
X146710960Y-45457792D01*
X146522602Y-45535813D01*
X146353084Y-45649081D01*
X146252165Y-45750000D01*
X144674092Y-45750000D01*
X143217521Y-44293430D01*
X143217517Y-44293425D01*
X141975010Y-43050919D01*
X144144206Y-43050919D01*
X144179081Y-43054354D01*
X144213956Y-43050919D01*
X144213958Y-43050919D01*
X144318265Y-43040646D01*
X144452101Y-43000047D01*
X144575444Y-42934119D01*
X144683556Y-42845394D01*
X144705793Y-42818298D01*
X145539091Y-41985000D01*
X145671939Y-41985000D01*
X145871898Y-41945226D01*
X146060256Y-41867205D01*
X146229774Y-41753937D01*
X146373937Y-41609774D01*
X146487205Y-41440256D01*
X146565226Y-41251898D01*
X146605000Y-41051939D01*
X146605000Y-40848061D01*
X146565226Y-40648102D01*
X146487205Y-40459744D01*
X146373937Y-40290226D01*
X146229774Y-40146063D01*
X146060256Y-40032795D01*
X145871898Y-39954774D01*
X145671939Y-39915000D01*
X145468061Y-39915000D01*
X145268102Y-39954774D01*
X145079744Y-40032795D01*
X144910226Y-40146063D01*
X144766063Y-40290226D01*
X144652795Y-40459744D01*
X144574774Y-40648102D01*
X144535000Y-40848061D01*
X144535000Y-40980909D01*
X143884990Y-41630919D01*
X141462792Y-41630919D01*
X141368855Y-41536982D01*
X141199337Y-41423714D01*
X141010979Y-41345693D01*
X140861175Y-41315895D01*
X140817205Y-41209744D01*
X140703937Y-41040226D01*
X140559774Y-40896063D01*
X140390256Y-40782795D01*
X140201898Y-40704774D01*
X140001939Y-40665000D01*
X139798061Y-40665000D01*
X139598102Y-40704774D01*
X139594728Y-40706172D01*
X139523937Y-40600226D01*
X139379774Y-40456063D01*
X139210256Y-40342795D01*
X139021898Y-40264774D01*
X138821939Y-40225000D01*
X138618061Y-40225000D01*
X138574889Y-40233587D01*
X138504147Y-40062802D01*
X138390879Y-39893284D01*
X138246716Y-39749121D01*
X138077198Y-39635853D01*
X137888840Y-39557832D01*
X137688881Y-39518058D01*
X137485003Y-39518058D01*
X137285044Y-39557832D01*
X137096686Y-39635853D01*
X136927168Y-39749121D01*
X136915190Y-39761099D01*
X134516712Y-37362621D01*
X134494475Y-37335525D01*
X134386363Y-37246800D01*
X134263020Y-37180872D01*
X134129184Y-37140273D01*
X134024877Y-37130000D01*
X134024875Y-37130000D01*
X133990000Y-37126565D01*
X133955125Y-37130000D01*
X106513711Y-37130000D01*
X106419774Y-37036063D01*
X106250256Y-36922795D01*
X106061898Y-36844774D01*
X105861939Y-36805000D01*
X105658061Y-36805000D01*
X105458102Y-36844774D01*
X105269744Y-36922795D01*
X105100226Y-37036063D01*
X104956063Y-37180226D01*
X104842795Y-37349744D01*
X104764774Y-37538102D01*
X104725000Y-37738061D01*
X104725000Y-37941939D01*
X104764774Y-38141898D01*
X104842795Y-38330256D01*
X104956063Y-38499774D01*
X105100226Y-38643937D01*
X105269744Y-38757205D01*
X105458102Y-38835226D01*
X105658061Y-38875000D01*
X105861939Y-38875000D01*
X106061898Y-38835226D01*
X106250256Y-38757205D01*
X106419774Y-38643937D01*
X106513711Y-38550000D01*
X107265000Y-38550000D01*
X107265000Y-38566939D01*
X107304774Y-38766898D01*
X107382795Y-38955256D01*
X107496063Y-39124774D01*
X107640226Y-39268937D01*
X107809744Y-39382205D01*
X107998102Y-39460226D01*
X108198061Y-39500000D01*
X108401939Y-39500000D01*
X108601898Y-39460226D01*
X108790256Y-39382205D01*
X108959774Y-39268937D01*
X109053711Y-39175000D01*
X109805000Y-39175000D01*
X109805000Y-39191939D01*
X109844774Y-39391898D01*
X109922795Y-39580256D01*
X110036063Y-39749774D01*
X110180226Y-39893937D01*
X110349744Y-40007205D01*
X110538102Y-40085226D01*
X110738061Y-40125000D01*
X110941939Y-40125000D01*
X111141898Y-40085226D01*
X111330256Y-40007205D01*
X111499774Y-39893937D01*
X111593711Y-39800000D01*
X112345000Y-39800000D01*
X112345000Y-39816939D01*
X112384774Y-40016898D01*
X112462795Y-40205256D01*
X112576063Y-40374774D01*
X112720226Y-40518937D01*
X112889744Y-40632205D01*
X113078102Y-40710226D01*
X113278061Y-40750000D01*
X113481939Y-40750000D01*
X113681898Y-40710226D01*
X113870256Y-40632205D01*
X114039774Y-40518937D01*
X114133711Y-40425000D01*
X114885000Y-40425000D01*
X114885000Y-40441939D01*
X114924774Y-40641898D01*
X115002795Y-40830256D01*
X115116063Y-40999774D01*
X115260226Y-41143937D01*
X115429744Y-41257205D01*
X115618102Y-41335226D01*
X115818061Y-41375000D01*
X116021939Y-41375000D01*
X116221898Y-41335226D01*
X116410256Y-41257205D01*
X116579774Y-41143937D01*
X116673711Y-41050000D01*
X117425000Y-41050000D01*
X117425000Y-41066939D01*
X117464774Y-41266898D01*
X117542795Y-41455256D01*
X117656063Y-41624774D01*
X117800226Y-41768937D01*
X117969744Y-41882205D01*
X118158102Y-41960226D01*
X118358061Y-42000000D01*
X118561939Y-42000000D01*
X118761898Y-41960226D01*
X118950256Y-41882205D01*
X119119774Y-41768937D01*
X119213711Y-41675000D01*
X119965000Y-41675000D01*
X119965000Y-41691939D01*
X120004774Y-41891898D01*
X120082795Y-42080256D01*
X120196063Y-42249774D01*
X120340226Y-42393937D01*
X120509744Y-42507205D01*
X120698102Y-42585226D01*
X120898061Y-42625000D01*
X121101939Y-42625000D01*
X121301898Y-42585226D01*
X121490256Y-42507205D01*
X121659774Y-42393937D01*
X121753711Y-42300000D01*
X122505000Y-42300000D01*
X122505000Y-42316939D01*
X122544774Y-42516898D01*
X122622795Y-42705256D01*
X122736063Y-42874774D01*
X122880226Y-43018937D01*
X123049744Y-43132205D01*
X123238102Y-43210226D01*
X123438061Y-43250000D01*
X123641939Y-43250000D01*
X123841898Y-43210226D01*
X124030256Y-43132205D01*
X124199774Y-43018937D01*
X124293711Y-42925000D01*
X125045000Y-42925000D01*
X125045000Y-42941939D01*
X125084774Y-43141898D01*
X125162795Y-43330256D01*
X125276063Y-43499774D01*
X125420226Y-43643937D01*
X125589744Y-43757205D01*
X125778102Y-43835226D01*
X125978061Y-43875000D01*
X126181939Y-43875000D01*
X126381898Y-43835226D01*
X126570256Y-43757205D01*
X126739774Y-43643937D01*
X126833711Y-43550000D01*
X127585000Y-43550000D01*
X127585000Y-43566939D01*
X127624774Y-43766898D01*
X127702795Y-43955256D01*
X127816063Y-44124774D01*
X127960226Y-44268937D01*
X128129744Y-44382205D01*
X128318102Y-44460226D01*
X128518061Y-44500000D01*
X128721939Y-44500000D01*
X128921898Y-44460226D01*
X129110256Y-44382205D01*
X129279774Y-44268937D01*
X129373711Y-44175000D01*
X130125000Y-44175000D01*
X130125000Y-44191939D01*
X130164774Y-44391898D01*
X130242795Y-44580256D01*
X130356063Y-44749774D01*
X130500226Y-44893937D01*
X130669744Y-45007205D01*
X130858102Y-45085226D01*
X131058061Y-45125000D01*
X131261939Y-45125000D01*
X131461898Y-45085226D01*
X131650256Y-45007205D01*
X131819774Y-44893937D01*
X131913711Y-44800000D01*
X132665000Y-44800000D01*
X132665000Y-44816939D01*
X132704774Y-45016898D01*
X132782795Y-45205256D01*
X132896063Y-45374774D01*
X133040226Y-45518937D01*
X133209744Y-45632205D01*
X133398102Y-45710226D01*
X133598061Y-45750000D01*
X133801939Y-45750000D01*
X134001898Y-45710226D01*
X134190256Y-45632205D01*
X134359774Y-45518937D01*
X134453711Y-45425000D01*
X135903851Y-45425000D01*
X137508851Y-47030000D01*
X108484092Y-47030000D01*
X108095000Y-46640909D01*
X108095000Y-46508061D01*
X108055226Y-46308102D01*
X107977205Y-46119744D01*
X107863937Y-45950226D01*
X107719774Y-45806063D01*
X107550256Y-45692795D01*
X107361898Y-45614774D01*
X107161939Y-45575000D01*
X106958061Y-45575000D01*
X106758102Y-45614774D01*
X106569744Y-45692795D01*
X106400226Y-45806063D01*
X106256063Y-45950226D01*
X106142795Y-46119744D01*
X106064774Y-46308102D01*
X106025000Y-46508061D01*
X106025000Y-46711939D01*
X106064774Y-46911898D01*
X106142795Y-47100256D01*
X106256063Y-47269774D01*
X106400226Y-47413937D01*
X106569744Y-47527205D01*
X106758102Y-47605226D01*
X106958061Y-47645000D01*
X107090909Y-47645000D01*
X107663292Y-48217384D01*
X107685525Y-48244475D01*
X107793637Y-48333200D01*
X107916980Y-48399128D01*
X108050816Y-48439727D01*
X108155123Y-48450000D01*
X108155124Y-48450000D01*
X108189999Y-48453435D01*
X108224874Y-48450000D01*
X109368538Y-48450000D01*
X109355000Y-48518061D01*
X109355000Y-48721939D01*
X109394774Y-48921898D01*
X109472795Y-49110256D01*
X109586063Y-49279774D01*
X109730226Y-49423937D01*
X109899744Y-49537205D01*
X110088102Y-49615226D01*
X110288061Y-49655000D01*
X110491939Y-49655000D01*
X110691898Y-49615226D01*
X110880256Y-49537205D01*
X111042795Y-49428600D01*
X111025000Y-49518061D01*
X111025000Y-49721939D01*
X111064774Y-49921898D01*
X111142795Y-50110256D01*
X111256063Y-50279774D01*
X111400226Y-50423937D01*
X111569744Y-50537205D01*
X111758102Y-50615226D01*
X111958061Y-50655000D01*
X112161939Y-50655000D01*
X112361898Y-50615226D01*
X112550256Y-50537205D01*
X112719774Y-50423937D01*
X112789892Y-50353819D01*
X113679822Y-50353819D01*
X113675000Y-50378061D01*
X113675000Y-50581939D01*
X113714774Y-50781898D01*
X113792795Y-50970256D01*
X113906063Y-51139774D01*
X114050226Y-51283937D01*
X114219744Y-51397205D01*
X114408102Y-51475226D01*
X114608061Y-51515000D01*
X114811939Y-51515000D01*
X115011898Y-51475226D01*
X115200256Y-51397205D01*
X115340039Y-51303805D01*
X116277727Y-51303805D01*
X116255000Y-51418061D01*
X116255000Y-51621939D01*
X116294774Y-51821898D01*
X116372795Y-52010256D01*
X116486063Y-52179774D01*
X116630226Y-52323937D01*
X116799744Y-52437205D01*
X116988102Y-52515226D01*
X117188061Y-52555000D01*
X117391939Y-52555000D01*
X117591898Y-52515226D01*
X117780256Y-52437205D01*
X117949774Y-52323937D01*
X118023711Y-52250000D01*
X118630446Y-52250000D01*
X118600001Y-52403060D01*
X118600001Y-52606938D01*
X118639775Y-52806897D01*
X118717796Y-52995255D01*
X118831064Y-53164773D01*
X118975227Y-53308936D01*
X119144745Y-53422204D01*
X119333103Y-53500225D01*
X119533062Y-53539999D01*
X119736940Y-53539999D01*
X119936899Y-53500225D01*
X120125257Y-53422204D01*
X120294775Y-53308936D01*
X120388712Y-53214999D01*
X121065000Y-53214999D01*
X121065000Y-53351939D01*
X121104774Y-53551898D01*
X121182795Y-53740256D01*
X121296063Y-53909774D01*
X121440226Y-54053937D01*
X121609744Y-54167205D01*
X121798102Y-54245226D01*
X121998061Y-54285000D01*
X122201939Y-54285000D01*
X122401898Y-54245226D01*
X122590256Y-54167205D01*
X122630971Y-54140000D01*
X124075000Y-54140000D01*
X124075000Y-54261939D01*
X124114774Y-54461898D01*
X124192795Y-54650256D01*
X124306063Y-54819774D01*
X124450226Y-54963937D01*
X124619744Y-55077205D01*
X124808102Y-55155226D01*
X125008061Y-55195000D01*
X125211939Y-55195000D01*
X125411898Y-55155226D01*
X125572992Y-55088498D01*
X126538728Y-55088498D01*
X126505000Y-55258061D01*
X126505000Y-55461939D01*
X126544774Y-55661898D01*
X126622795Y-55850256D01*
X126736063Y-56019774D01*
X126880226Y-56163937D01*
X127049744Y-56277205D01*
X127238102Y-56355226D01*
X127438061Y-56395000D01*
X127641939Y-56395000D01*
X127841898Y-56355226D01*
X128030256Y-56277205D01*
X128199774Y-56163937D01*
X128326638Y-56037073D01*
X128601109Y-56037073D01*
X128585000Y-56118061D01*
X128585000Y-56321939D01*
X128624774Y-56521898D01*
X128702795Y-56710256D01*
X128816063Y-56879774D01*
X128960226Y-57023937D01*
X129129744Y-57137205D01*
X129318102Y-57215226D01*
X129518061Y-57255000D01*
X129721939Y-57255000D01*
X129921898Y-57215226D01*
X130110256Y-57137205D01*
X130279774Y-57023937D01*
X130333711Y-56970000D01*
X131687863Y-56970000D01*
X131657846Y-57120907D01*
X131657846Y-57324785D01*
X131697620Y-57524744D01*
X131775641Y-57713102D01*
X131888909Y-57882620D01*
X132033072Y-58026783D01*
X132202590Y-58140051D01*
X132390948Y-58218072D01*
X132590907Y-58257846D01*
X132794785Y-58257846D01*
X132994744Y-58218072D01*
X133183102Y-58140051D01*
X133352620Y-58026783D01*
X133446557Y-57932846D01*
X134495874Y-57932846D01*
X134465000Y-58088061D01*
X134465000Y-58291939D01*
X134504774Y-58491898D01*
X134582795Y-58680256D01*
X134696063Y-58849774D01*
X134840226Y-58993937D01*
X135009744Y-59107205D01*
X135198102Y-59185226D01*
X135398061Y-59225000D01*
X135601939Y-59225000D01*
X135801898Y-59185226D01*
X135990256Y-59107205D01*
X136159774Y-58993937D01*
X136270885Y-58882826D01*
X137515452Y-58882826D01*
X137609389Y-58976763D01*
X137778907Y-59090031D01*
X137967265Y-59168052D01*
X138167224Y-59207826D01*
X138371102Y-59207826D01*
X138571061Y-59168052D01*
X138759419Y-59090031D01*
X138928937Y-58976763D01*
X139073100Y-58832600D01*
X139186368Y-58663082D01*
X139264389Y-58474724D01*
X139304163Y-58274765D01*
X139304163Y-58070887D01*
X139264389Y-57870928D01*
X139195930Y-57705656D01*
X139270867Y-57524744D01*
X139310641Y-57324785D01*
X139310641Y-57120907D01*
X139270867Y-56920948D01*
X139192846Y-56732590D01*
X139181535Y-56715661D01*
X139245226Y-56561898D01*
X139285000Y-56361939D01*
X139285000Y-56158061D01*
X139245226Y-55958102D01*
X139202862Y-55855827D01*
X139228586Y-55817329D01*
X139306607Y-55628971D01*
X139346381Y-55429012D01*
X139346381Y-55225134D01*
X139306607Y-55025175D01*
X139256673Y-54904625D01*
X139280641Y-54868754D01*
X139358662Y-54680396D01*
X139398436Y-54480437D01*
X139398436Y-54276559D01*
X139358662Y-54076600D01*
X139280641Y-53888242D01*
X139255840Y-53851125D01*
X139305226Y-53731898D01*
X139345000Y-53531939D01*
X139345000Y-53328061D01*
X139305226Y-53128102D01*
X139248656Y-52991532D01*
X139253739Y-52983925D01*
X139331760Y-52795567D01*
X139371534Y-52595608D01*
X139371534Y-52391730D01*
X139331760Y-52191771D01*
X139253739Y-52003413D01*
X139251589Y-52000196D01*
X139315583Y-51845703D01*
X139355357Y-51645744D01*
X139355357Y-51441866D01*
X139315583Y-51241907D01*
X139242905Y-51066448D01*
X139313630Y-50895703D01*
X139353404Y-50695744D01*
X139353404Y-50491866D01*
X139313630Y-50291907D01*
X139244701Y-50125498D01*
X139319169Y-49945717D01*
X139358943Y-49745758D01*
X139358943Y-49541880D01*
X139319169Y-49341921D01*
X139241148Y-49153563D01*
X139231783Y-49139547D01*
X139291189Y-48996128D01*
X139321681Y-48842831D01*
X145991474Y-55512624D01*
X146008097Y-55543723D01*
X146095573Y-55650312D01*
X146122284Y-55672233D01*
X146525543Y-56075492D01*
X146534774Y-56121898D01*
X146612795Y-56310256D01*
X146726063Y-56479774D01*
X146870226Y-56623937D01*
X147039744Y-56737205D01*
X147228102Y-56815226D01*
X147428061Y-56855000D01*
X147631939Y-56855000D01*
X147831898Y-56815226D01*
X148020256Y-56737205D01*
X148189774Y-56623937D01*
X148333937Y-56479774D01*
X148447205Y-56310256D01*
X148525226Y-56121898D01*
X148564391Y-55924999D01*
X148751288Y-55924999D01*
X148890226Y-56063937D01*
X149059744Y-56177205D01*
X149248102Y-56255226D01*
X149448061Y-56295000D01*
X149651939Y-56295000D01*
X149851898Y-56255226D01*
X150040256Y-56177205D01*
X150209774Y-56063937D01*
X150220000Y-56053711D01*
X150220000Y-60305125D01*
X150216565Y-60340000D01*
X150220000Y-60374875D01*
X150220000Y-60374876D01*
X150230273Y-60479183D01*
X150270872Y-60613019D01*
X150336800Y-60736362D01*
X150425525Y-60844474D01*
X150452617Y-60866708D01*
X153375000Y-63789092D01*
X153375000Y-63921939D01*
X153414774Y-64121898D01*
X153492795Y-64310256D01*
X153606063Y-64479774D01*
X153750226Y-64623937D01*
X153919744Y-64737205D01*
X154108102Y-64815226D01*
X154308061Y-64855000D01*
X154511939Y-64855000D01*
X154711898Y-64815226D01*
X154900256Y-64737205D01*
X155069774Y-64623937D01*
X155213937Y-64479774D01*
X155327205Y-64310256D01*
X155405226Y-64121898D01*
X155445000Y-63921939D01*
X155445000Y-63718061D01*
X155405226Y-63518102D01*
X155327205Y-63329744D01*
X155213937Y-63160226D01*
X155069774Y-63016063D01*
X154900256Y-62902795D01*
X154711898Y-62824774D01*
X154511939Y-62785000D01*
X154379092Y-62785000D01*
X151640000Y-60045909D01*
X151640000Y-58089730D01*
X151640001Y-58089741D01*
X151640001Y-58092419D01*
X151642908Y-58121938D01*
X151648521Y-58184094D01*
X151649286Y-58186691D01*
X151649551Y-58189383D01*
X151667633Y-58248989D01*
X151685249Y-58308807D01*
X151686506Y-58311205D01*
X151687291Y-58313793D01*
X151716662Y-58368742D01*
X151745601Y-58423958D01*
X151747300Y-58426063D01*
X151748576Y-58428450D01*
X151788122Y-58476637D01*
X151827259Y-58525123D01*
X151829336Y-58526856D01*
X151831053Y-58528948D01*
X151879236Y-58568491D01*
X151927083Y-58608413D01*
X151929458Y-58609708D01*
X151931551Y-58611425D01*
X151986510Y-58640801D01*
X152041238Y-58670628D01*
X152043823Y-58671435D01*
X152046208Y-58672710D01*
X152105847Y-58690802D01*
X152134243Y-58699668D01*
X152136873Y-58700213D01*
X152170618Y-58710450D01*
X152200365Y-58713380D01*
X157460422Y-59804162D01*
X157782391Y-59897350D01*
X158045297Y-60033291D01*
X158276785Y-60217701D01*
X158468047Y-60443567D01*
X158611800Y-60702285D01*
X158702558Y-60983986D01*
X158740000Y-61304749D01*
X158740001Y-117130595D01*
X158714899Y-117105493D01*
X158601322Y-117219070D01*
X158295141Y-116775497D01*
X157707694Y-116460046D01*
X157069992Y-116265260D01*
X156406543Y-116198628D01*
X155742842Y-116262708D01*
X155104395Y-116455038D01*
X154515738Y-116768228D01*
X154504859Y-116775497D01*
X154198677Y-117219072D01*
X156400000Y-119420395D01*
X156414143Y-119406253D01*
X156593748Y-119585858D01*
X156579605Y-119600000D01*
X156593748Y-119614143D01*
X156414143Y-119793748D01*
X156400000Y-119779605D01*
X154198677Y-121980928D01*
X154504859Y-122424503D01*
X154719943Y-122540000D01*
X93680842Y-122540000D01*
X93884262Y-122431772D01*
X93895141Y-122424503D01*
X94201323Y-121980928D01*
X92000000Y-119779605D01*
X89798677Y-121980928D01*
X90104859Y-122424503D01*
X90319943Y-122540000D01*
X89560000Y-122540000D01*
X89560000Y-121760548D01*
X89619072Y-121801323D01*
X91820395Y-119600000D01*
X92179605Y-119600000D01*
X94380928Y-121801323D01*
X94824503Y-121495141D01*
X95139954Y-120907694D01*
X95334740Y-120269992D01*
X95401372Y-119606543D01*
X95400109Y-119593457D01*
X152998628Y-119593457D01*
X153062708Y-120257158D01*
X153255038Y-120895605D01*
X153568228Y-121484262D01*
X153575497Y-121495141D01*
X154019072Y-121801323D01*
X156220395Y-119600000D01*
X154019072Y-117398677D01*
X153575497Y-117704859D01*
X153260046Y-118292306D01*
X153065260Y-118930008D01*
X152998628Y-119593457D01*
X95400109Y-119593457D01*
X95337292Y-118942842D01*
X95144962Y-118304395D01*
X94831772Y-117715738D01*
X94824503Y-117704859D01*
X94380928Y-117398677D01*
X92179605Y-119600000D01*
X91820395Y-119600000D01*
X89619072Y-117398677D01*
X89560000Y-117439452D01*
X89560000Y-117219072D01*
X89798677Y-117219072D01*
X92000000Y-119420395D01*
X94201323Y-117219072D01*
X93895141Y-116775497D01*
X93307694Y-116460046D01*
X92669992Y-116265260D01*
X92006543Y-116198628D01*
X91342842Y-116262708D01*
X90704395Y-116455038D01*
X90115738Y-116768228D01*
X90104859Y-116775497D01*
X89798677Y-117219072D01*
X89560000Y-117219072D01*
X89560000Y-94218061D01*
X146195000Y-94218061D01*
X146195000Y-94421939D01*
X146234774Y-94621898D01*
X146312795Y-94810256D01*
X146426063Y-94979774D01*
X146570226Y-95123937D01*
X146739744Y-95237205D01*
X146928102Y-95315226D01*
X147128061Y-95355000D01*
X147331939Y-95355000D01*
X147531898Y-95315226D01*
X147720256Y-95237205D01*
X147889774Y-95123937D01*
X147983711Y-95030000D01*
X148385125Y-95030000D01*
X148420000Y-95033435D01*
X148454875Y-95030000D01*
X148454877Y-95030000D01*
X148559184Y-95019727D01*
X148693020Y-94979128D01*
X148816363Y-94913200D01*
X148924475Y-94824475D01*
X148946712Y-94797379D01*
X149547383Y-94196708D01*
X149574474Y-94174475D01*
X149663200Y-94066363D01*
X149729128Y-93943020D01*
X149769727Y-93809184D01*
X149780000Y-93704877D01*
X149780000Y-93704875D01*
X149783435Y-93670000D01*
X149780000Y-93635125D01*
X149780000Y-91193711D01*
X149830226Y-91243937D01*
X149999744Y-91357205D01*
X150188102Y-91435226D01*
X150388061Y-91475000D01*
X150591939Y-91475000D01*
X150791898Y-91435226D01*
X150980256Y-91357205D01*
X151149774Y-91243937D01*
X151293937Y-91099774D01*
X151407205Y-90930256D01*
X151485226Y-90741898D01*
X151525000Y-90541939D01*
X151525000Y-90338061D01*
X151485226Y-90138102D01*
X151407205Y-89949744D01*
X151293937Y-89780226D01*
X151200000Y-89686289D01*
X151200000Y-81924875D01*
X151203435Y-81890000D01*
X151198018Y-81835000D01*
X151189727Y-81750816D01*
X151149128Y-81616980D01*
X151083200Y-81493637D01*
X150994475Y-81385525D01*
X150967379Y-81363288D01*
X148870000Y-79265909D01*
X148870000Y-78173711D01*
X148963937Y-78079774D01*
X149077205Y-77910256D01*
X149155226Y-77721898D01*
X149195000Y-77521939D01*
X149195000Y-77318061D01*
X149155226Y-77118102D01*
X149077205Y-76929744D01*
X148963937Y-76760226D01*
X148819774Y-76616063D01*
X148650256Y-76502795D01*
X148461898Y-76424774D01*
X148261939Y-76385000D01*
X148058061Y-76385000D01*
X147858102Y-76424774D01*
X147669744Y-76502795D01*
X147500226Y-76616063D01*
X147356063Y-76760226D01*
X147242795Y-76929744D01*
X147164774Y-77118102D01*
X147125000Y-77318061D01*
X147125000Y-77521939D01*
X147164774Y-77721898D01*
X147242795Y-77910256D01*
X147356063Y-78079774D01*
X147450001Y-78173712D01*
X147450000Y-79525125D01*
X147446565Y-79560000D01*
X147450000Y-79594875D01*
X147450000Y-79594876D01*
X147460273Y-79699183D01*
X147500872Y-79833019D01*
X147566800Y-79956362D01*
X147655525Y-80064474D01*
X147682617Y-80086708D01*
X149780001Y-82184092D01*
X149780000Y-86276289D01*
X149729774Y-86226063D01*
X149560256Y-86112795D01*
X149371898Y-86034774D01*
X149171939Y-85995000D01*
X148968061Y-85995000D01*
X148768102Y-86034774D01*
X148579744Y-86112795D01*
X148410226Y-86226063D01*
X148266063Y-86370226D01*
X148152795Y-86539744D01*
X148074774Y-86728102D01*
X148035000Y-86928061D01*
X148035000Y-87131939D01*
X148074774Y-87331898D01*
X148152795Y-87520256D01*
X148266063Y-87689774D01*
X148360001Y-87783712D01*
X148360000Y-93375909D01*
X148125909Y-93610000D01*
X147983711Y-93610000D01*
X147889774Y-93516063D01*
X147720256Y-93402795D01*
X147531898Y-93324774D01*
X147331939Y-93285000D01*
X147128061Y-93285000D01*
X146928102Y-93324774D01*
X146739744Y-93402795D01*
X146570226Y-93516063D01*
X146426063Y-93660226D01*
X146312795Y-93829744D01*
X146234774Y-94018102D01*
X146195000Y-94218061D01*
X89560000Y-94218061D01*
X89560000Y-61768061D01*
X148655000Y-61768061D01*
X148655000Y-61971939D01*
X148694774Y-62171898D01*
X148772795Y-62360256D01*
X148886063Y-62529774D01*
X148980000Y-62623711D01*
X148980000Y-63295125D01*
X148976565Y-63330000D01*
X148980000Y-63364875D01*
X148980000Y-63364876D01*
X148990273Y-63469183D01*
X149030872Y-63603019D01*
X149096800Y-63726362D01*
X149185525Y-63834474D01*
X149212617Y-63856708D01*
X153395000Y-68039092D01*
X153395000Y-68109990D01*
X152143721Y-68109990D01*
X152049784Y-68016053D01*
X151880266Y-67902785D01*
X151691908Y-67824764D01*
X151491949Y-67784990D01*
X151288071Y-67784990D01*
X151088112Y-67824764D01*
X150899754Y-67902785D01*
X150730236Y-68016053D01*
X150586073Y-68160216D01*
X150472805Y-68329734D01*
X150394784Y-68518092D01*
X150355010Y-68718051D01*
X150355010Y-68921929D01*
X150379919Y-69047158D01*
X150269744Y-69092795D01*
X150100226Y-69206063D01*
X149956063Y-69350226D01*
X149842795Y-69519744D01*
X149764774Y-69708102D01*
X149725000Y-69908061D01*
X149725000Y-70111939D01*
X149764774Y-70311898D01*
X149822743Y-70451847D01*
X149699744Y-70502795D01*
X149530226Y-70616063D01*
X149386063Y-70760226D01*
X149272795Y-70929744D01*
X149194774Y-71118102D01*
X149155000Y-71318061D01*
X149155000Y-71521939D01*
X149194774Y-71721898D01*
X149272795Y-71910256D01*
X149386063Y-72079774D01*
X149530226Y-72223937D01*
X149675890Y-72321266D01*
X149664774Y-72348102D01*
X149625000Y-72548061D01*
X149625000Y-72751939D01*
X149664774Y-72951898D01*
X149742795Y-73140256D01*
X149856063Y-73309774D01*
X150000226Y-73453937D01*
X150169744Y-73567205D01*
X150358102Y-73645226D01*
X150558061Y-73685000D01*
X150761939Y-73685000D01*
X150961898Y-73645226D01*
X151150256Y-73567205D01*
X151319774Y-73453937D01*
X151393711Y-73380000D01*
X151926300Y-73380000D01*
X151950000Y-73403700D01*
X151950001Y-78885115D01*
X151946565Y-78920000D01*
X151960274Y-79059184D01*
X152000872Y-79193019D01*
X152000873Y-79193020D01*
X152066801Y-79316363D01*
X152155526Y-79424475D01*
X152182617Y-79446708D01*
X153505000Y-80769092D01*
X153505000Y-80901939D01*
X153544774Y-81101898D01*
X153622795Y-81290256D01*
X153736063Y-81459774D01*
X153880226Y-81603937D01*
X154049744Y-81717205D01*
X154238102Y-81795226D01*
X154438061Y-81835000D01*
X154641939Y-81835000D01*
X154841898Y-81795226D01*
X155030256Y-81717205D01*
X155199774Y-81603937D01*
X155343937Y-81459774D01*
X155457205Y-81290256D01*
X155535226Y-81101898D01*
X155575000Y-80901939D01*
X155575000Y-80698061D01*
X155535226Y-80498102D01*
X155457205Y-80309744D01*
X155343937Y-80140226D01*
X155199774Y-79996063D01*
X155030256Y-79882795D01*
X154841898Y-79804774D01*
X154641939Y-79765000D01*
X154509092Y-79765000D01*
X153370000Y-78625909D01*
X153370000Y-76414091D01*
X153545000Y-76589091D01*
X153545000Y-76721939D01*
X153584774Y-76921898D01*
X153662795Y-77110256D01*
X153776063Y-77279774D01*
X153920226Y-77423937D01*
X154089744Y-77537205D01*
X154278102Y-77615226D01*
X154478061Y-77655000D01*
X154681939Y-77655000D01*
X154881898Y-77615226D01*
X155070256Y-77537205D01*
X155239774Y-77423937D01*
X155383937Y-77279774D01*
X155497205Y-77110256D01*
X155575226Y-76921898D01*
X155615000Y-76721939D01*
X155615000Y-76518061D01*
X155575226Y-76318102D01*
X155497205Y-76129744D01*
X155383937Y-75960226D01*
X155239774Y-75816063D01*
X155070256Y-75702795D01*
X154881898Y-75624774D01*
X154681939Y-75585000D01*
X154549091Y-75585000D01*
X154260000Y-75295909D01*
X154260000Y-73393586D01*
X154288102Y-73405226D01*
X154488061Y-73445000D01*
X154691939Y-73445000D01*
X154891898Y-73405226D01*
X155080256Y-73327205D01*
X155249774Y-73213937D01*
X155393937Y-73069774D01*
X155507205Y-72900256D01*
X155585226Y-72711898D01*
X155625000Y-72511939D01*
X155625000Y-72308061D01*
X155585226Y-72108102D01*
X155507205Y-71919744D01*
X155393937Y-71750226D01*
X155300000Y-71656289D01*
X155300000Y-69624877D01*
X155303435Y-69590000D01*
X155289727Y-69450815D01*
X155249128Y-69316980D01*
X155195342Y-69216353D01*
X155183200Y-69193637D01*
X155094475Y-69085525D01*
X155067379Y-69063288D01*
X154962841Y-68958750D01*
X155089774Y-68873937D01*
X155233937Y-68729774D01*
X155347205Y-68560256D01*
X155425226Y-68371898D01*
X155465000Y-68171939D01*
X155465000Y-67968061D01*
X155425226Y-67768102D01*
X155347205Y-67579744D01*
X155233937Y-67410226D01*
X155089774Y-67266063D01*
X154920256Y-67152795D01*
X154731898Y-67074774D01*
X154531939Y-67035000D01*
X154399092Y-67035000D01*
X150400000Y-63035909D01*
X150400000Y-62623711D01*
X150493937Y-62529774D01*
X150607205Y-62360256D01*
X150685226Y-62171898D01*
X150725000Y-61971939D01*
X150725000Y-61768061D01*
X150685226Y-61568102D01*
X150607205Y-61379744D01*
X150493937Y-61210226D01*
X150349774Y-61066063D01*
X150180256Y-60952795D01*
X149991898Y-60874774D01*
X149791939Y-60835000D01*
X149588061Y-60835000D01*
X149388102Y-60874774D01*
X149199744Y-60952795D01*
X149030226Y-61066063D01*
X148886063Y-61210226D01*
X148772795Y-61379744D01*
X148694774Y-61568102D01*
X148655000Y-61768061D01*
X89560000Y-61768061D01*
X89560000Y-31380928D01*
X89798677Y-31380928D01*
X90104859Y-31824503D01*
X90692306Y-32139954D01*
X91330008Y-32334740D01*
X91993457Y-32401372D01*
X92657158Y-32337292D01*
X93295605Y-32144962D01*
X93884262Y-31831772D01*
X93895141Y-31824503D01*
X94201323Y-31380928D01*
X153998677Y-31380928D01*
X154304859Y-31824503D01*
X154892306Y-32139954D01*
X155530008Y-32334740D01*
X156193457Y-32401372D01*
X156857158Y-32337292D01*
X157495605Y-32144962D01*
X158084262Y-31831772D01*
X158095141Y-31824503D01*
X158401323Y-31380928D01*
X156200000Y-29179605D01*
X153998677Y-31380928D01*
X94201323Y-31380928D01*
X92000000Y-29179605D01*
X89798677Y-31380928D01*
X89560000Y-31380928D01*
X89560000Y-31160548D01*
X89619072Y-31201323D01*
X91820395Y-29000000D01*
X92179605Y-29000000D01*
X94380928Y-31201323D01*
X94824503Y-30895141D01*
X95139954Y-30307694D01*
X95334740Y-29669992D01*
X95401372Y-29006543D01*
X95400109Y-28993457D01*
X152798628Y-28993457D01*
X152862708Y-29657158D01*
X153055038Y-30295605D01*
X153368228Y-30884262D01*
X153375497Y-30895141D01*
X153819072Y-31201323D01*
X156020395Y-29000000D01*
X153819072Y-26798677D01*
X153375497Y-27104859D01*
X153060046Y-27692306D01*
X152865260Y-28330008D01*
X152798628Y-28993457D01*
X95400109Y-28993457D01*
X95337292Y-28342842D01*
X95144962Y-27704395D01*
X94831772Y-27115738D01*
X94824503Y-27104859D01*
X94380928Y-26798677D01*
X92179605Y-29000000D01*
X91820395Y-29000000D01*
X89619072Y-26798677D01*
X89560000Y-26839452D01*
X89560000Y-26060000D01*
X90319158Y-26060000D01*
X90115738Y-26168228D01*
G36*
X149578061Y-47585000D02*
G01*
X149710909Y-47585000D01*
X150220001Y-48094093D01*
X150220001Y-48752170D01*
X150033502Y-48674919D01*
X149833543Y-48635145D01*
X149629665Y-48635145D01*
X149509839Y-48658980D01*
X149398473Y-48599453D01*
X149266522Y-48559426D01*
X149163688Y-48549298D01*
X149163685Y-48549298D01*
X149129298Y-48545911D01*
X149094911Y-48549298D01*
X147664391Y-48549298D01*
X147625226Y-48352400D01*
X147555360Y-48183730D01*
X147789090Y-47950000D01*
X147921938Y-47950000D01*
X148076348Y-47919286D01*
X148085516Y-47930458D01*
X148112608Y-47952692D01*
X148276636Y-48116719D01*
X148357657Y-48183210D01*
X148481001Y-48249139D01*
X148614835Y-48289737D01*
X148754020Y-48303445D01*
X148893204Y-48289736D01*
X149027039Y-48249137D01*
X149150383Y-48183208D01*
X149258494Y-48094483D01*
X149347218Y-47986372D01*
X149413147Y-47863027D01*
X149453745Y-47729192D01*
X149467453Y-47590007D01*
X149464740Y-47562459D01*
X149578061Y-47585000D01*
X149578061Y-47585000D01*
G37*
X149578061Y-47585000D02*
X149710909Y-47585000D01*
X150220001Y-48094093D01*
X150220001Y-48752170D01*
X150033502Y-48674919D01*
X149833543Y-48635145D01*
X149629665Y-48635145D01*
X149509839Y-48658980D01*
X149398473Y-48599453D01*
X149266522Y-48559426D01*
X149163688Y-48549298D01*
X149163685Y-48549298D01*
X149129298Y-48545911D01*
X149094911Y-48549298D01*
X147664391Y-48549298D01*
X147625226Y-48352400D01*
X147555360Y-48183730D01*
X147789090Y-47950000D01*
X147921938Y-47950000D01*
X148076348Y-47919286D01*
X148085516Y-47930458D01*
X148112608Y-47952692D01*
X148276636Y-48116719D01*
X148357657Y-48183210D01*
X148481001Y-48249139D01*
X148614835Y-48289737D01*
X148754020Y-48303445D01*
X148893204Y-48289736D01*
X149027039Y-48249137D01*
X149150383Y-48183208D01*
X149258494Y-48094483D01*
X149347218Y-47986372D01*
X149413147Y-47863027D01*
X149453745Y-47729192D01*
X149467453Y-47590007D01*
X149464740Y-47562459D01*
X149578061Y-47585000D01*
M02*
