M48
; DRILL file {KiCad (5.1.4)-1} date 2019/11/24 18:45:20
; FORMAT={-:-/ absolute / metric / decimal}
; #@! TF.CreationDate,2019-11-24T18:45:20+08:00
; #@! TF.GenerationSoftware,Kicad,Pcbnew,(5.1.4)-1
; #@! TF.FileFunction,Plated,1,2,PTH
FMAT,2
METRIC
T1C0.400
T2C3.200
%
G90
G05
T1
X96.09Y-114.67
X97.11Y-111.31
X97.11Y-120.83
X101.3Y-38.53
X105.17Y-48.12
X106.08Y-48.12
X108.55Y-38.71
X108.9Y-48.12
X108.9Y-28.01
X110.0Y-47.72
X111.06Y-66.115
X111.83Y-33.48
X111.84Y-29.8
X113.56Y-66.12
X116.11Y-66.11
X118.64Y-66.1
X121.18Y-66.08
X123.72Y-66.07
X126.26Y-66.06
X126.28Y-30.83
X126.29Y-34.37
X128.83Y-66.05
X131.34Y-66.05
X133.99Y-66.06
X136.55Y-66.1
X138.32Y-44.53
X138.93Y-66.1
X140.56Y-46.71
X141.51Y-119.725
X142.82Y-78.21
X143.385Y-45.319
X144.0Y-39.86
X144.0Y-44.53
X149.701Y-47.116
X149.795Y-43.535
X151.658Y-51.281
X151.665Y-47.25
X151.665Y-48.281
X151.665Y-49.281
X151.665Y-50.281
X151.665Y-52.3
X151.665Y-53.34
X151.665Y-54.4
X151.665Y-55.43
X151.665Y-56.47
X151.665Y-58.5
X151.67Y-46.21
T2
X156.4Y-119.6
X156.2Y-29.0
X92.0Y-29.0
X92.0Y-119.6
T0
M30
