G04 #@! TF.GenerationSoftware,KiCad,Pcbnew,(5.1.4)-1*
G04 #@! TF.CreationDate,2019-11-28T17:08:10+08:00*
G04 #@! TF.ProjectId,FH26W-45S-0.3SHW,46483236-572d-4343-9553-2d302e335348,rev?*
G04 #@! TF.SameCoordinates,Original*
G04 #@! TF.FileFunction,Copper,L1,Top*
G04 #@! TF.FilePolarity,Positive*
%FSLAX46Y46*%
G04 Gerber Fmt 4.6, Leading zero omitted, Abs format (unit mm)*
G04 Created by KiCad (PCBNEW (5.1.4)-1) date 2019-11-28 17:08:10*
%MOMM*%
%LPD*%
G04 APERTURE LIST*
%ADD10C,5.500000*%
%ADD11C,0.800000*%
%ADD12C,0.150000*%
%ADD13C,0.200000*%
%ADD14C,0.130000*%
%ADD15C,0.180000*%
%ADD16C,0.254000*%
G04 APERTURE END LIST*
D10*
X92000000Y-29000000D03*
X156400000Y-119600000D03*
X92000000Y-119600000D03*
X156200000Y-29000000D03*
D11*
X154590000Y-72410000D03*
X151390010Y-68819990D03*
X150490000Y-90440000D03*
X148160000Y-77420000D03*
X145090000Y-35710000D03*
X147240000Y-87430000D03*
X139670000Y-91480000D03*
X151120000Y-78460000D03*
X143550000Y-74310000D03*
X144350000Y-43860000D03*
X149660000Y-48100000D03*
X144610000Y-55600000D03*
X129650126Y-74592108D03*
X126150126Y-74592108D03*
X122590000Y-74590000D03*
X118650000Y-74600000D03*
X114650000Y-74600000D03*
X150190000Y-71420000D03*
X152350001Y-71420000D03*
X147230000Y-94320000D03*
X149070000Y-87030000D03*
X154580000Y-76620000D03*
X149800000Y-41420000D03*
X149668796Y-45620066D03*
X147010000Y-43350000D03*
X149890000Y-32080000D03*
X146630000Y-48654298D03*
X138664000Y-39326000D03*
X150660000Y-72650000D03*
X152650011Y-72640000D03*
X154540000Y-80800000D03*
X149469999Y-94940001D03*
X149885000Y-88320000D03*
X154410000Y-63820000D03*
X149680000Y-46550000D03*
X105760000Y-37840000D03*
X149731604Y-49670145D03*
X108300000Y-38465000D03*
X147540000Y-49844299D03*
X149700756Y-50839298D03*
X110840000Y-38775010D03*
X147540000Y-51059996D03*
X113380000Y-39184000D03*
X154430000Y-68070000D03*
X149690000Y-61870000D03*
X107060000Y-46610000D03*
X136886000Y-47708000D03*
X137648000Y-48694230D03*
X110390000Y-48620000D03*
X138323943Y-49643819D03*
X112060000Y-49620000D03*
X138318404Y-50593805D03*
X114710000Y-50480000D03*
X153490000Y-69980000D03*
X150760000Y-70010000D03*
X136105000Y-42908233D03*
X139784383Y-46587617D03*
X137002207Y-43805441D03*
X146470000Y-47210000D03*
X140647233Y-41946188D03*
X138320357Y-51543805D03*
X117290000Y-51520000D03*
X114720000Y-51530000D03*
X119635001Y-52504999D03*
X138336534Y-52493669D03*
X116550000Y-52500000D03*
X138310000Y-53430000D03*
X122100000Y-53250000D03*
X119090000Y-53258574D03*
X138363436Y-54378498D03*
X125110000Y-54160000D03*
X122100000Y-54180003D03*
X138311381Y-55327073D03*
X127540000Y-55360000D03*
X125120000Y-55360000D03*
X138250000Y-56260000D03*
X129620000Y-56220000D03*
X127518870Y-56289762D03*
X138275641Y-57222846D03*
X132692846Y-57222846D03*
X129620000Y-57230000D03*
X138269163Y-58172826D03*
X134410000Y-58122000D03*
X132689961Y-58152843D03*
X147819999Y-46915000D03*
X139295000Y-40596000D03*
X142650000Y-41830000D03*
X147012858Y-46453018D03*
X140530000Y-40938000D03*
X149740729Y-52079271D03*
X115920000Y-39804000D03*
X147580108Y-52249997D03*
X118460000Y-40200000D03*
X149674252Y-53212794D03*
X121000000Y-40510010D03*
X147570000Y-53439998D03*
X123540000Y-42215000D03*
X126080000Y-42840000D03*
X149581330Y-54330526D03*
X128620000Y-43465000D03*
X147574335Y-54629999D03*
X131160000Y-44090000D03*
X149550000Y-55260000D03*
X133700000Y-44715000D03*
X147530000Y-55820000D03*
D12*
X148589990Y-47425983D02*
X148754018Y-47590010D01*
X148589990Y-46379990D02*
X148589990Y-47425983D01*
X148480000Y-46140000D02*
X148480000Y-46270000D01*
X148480000Y-46270000D02*
X148589990Y-46379990D01*
X154590000Y-72410000D02*
X154590000Y-69590000D01*
X153819990Y-68819990D02*
X151390010Y-68819990D01*
X154590000Y-69590000D02*
X153819990Y-68819990D01*
X150490000Y-90440000D02*
X150490000Y-81890000D01*
X150490000Y-81890000D02*
X148160000Y-79560000D01*
X148160000Y-79560000D02*
X148160000Y-77420000D01*
X149660000Y-48100000D02*
X148870000Y-47310000D01*
X148870000Y-47310000D02*
X148870000Y-46110000D01*
X148870000Y-46134007D02*
X148870000Y-46264007D01*
X148620000Y-45884007D02*
X148870000Y-46134007D01*
X148620000Y-45860000D02*
X148620000Y-45884007D01*
X148620000Y-45860000D02*
X147790000Y-45030000D01*
X148870000Y-46110000D02*
X148620000Y-45860000D01*
X152435039Y-71420000D02*
X152455039Y-71440000D01*
X151470000Y-71420000D02*
X152350001Y-71420000D01*
X151470000Y-71420000D02*
X152435039Y-71420000D01*
X150190000Y-71420000D02*
X151470000Y-71420000D01*
X147230000Y-94320000D02*
X148420000Y-94320000D01*
X148420000Y-94320000D02*
X149070000Y-93670000D01*
X149070000Y-93670000D02*
X149070000Y-87030000D01*
X154580000Y-76620000D02*
X153550000Y-75590000D01*
X153550000Y-72619999D02*
X152350001Y-71420000D01*
X153550000Y-75590000D02*
X153550000Y-72619999D01*
X147870000Y-43350000D02*
X149800000Y-41420000D01*
X147010000Y-43350000D02*
X147870000Y-43350000D01*
X149668796Y-41551204D02*
X149800000Y-41420000D01*
X149668796Y-45620066D02*
X149668796Y-41551204D01*
D13*
X149890000Y-41330000D02*
X149800000Y-41420000D01*
X149890000Y-32080000D02*
X149890000Y-41330000D01*
X145960298Y-48654298D02*
X146630000Y-48654298D01*
X145636010Y-48330010D02*
X145960298Y-48654298D01*
X145631949Y-48330010D02*
X145636010Y-48330010D01*
X138664000Y-41362061D02*
X145631949Y-48330010D01*
X138664000Y-39326000D02*
X138664000Y-41362061D01*
D12*
X150970000Y-72670000D02*
X152620011Y-72670000D01*
X152620011Y-72670000D02*
X152650011Y-72640000D01*
D14*
X152640011Y-72650000D02*
X152650011Y-72640000D01*
X150660000Y-72650000D02*
X152640011Y-72650000D01*
D12*
X152650011Y-73205685D02*
X152660000Y-73215674D01*
X152650011Y-72640000D02*
X152650011Y-73205685D01*
X152660000Y-78920000D02*
X154540000Y-80800000D01*
X152660000Y-73215674D02*
X152660000Y-78920000D01*
D15*
X149469999Y-94940001D02*
X149469999Y-88735001D01*
X149469999Y-88735001D02*
X149885000Y-88320000D01*
D12*
X154410000Y-63820000D02*
X150930000Y-60340000D01*
X150079999Y-46949999D02*
X150930000Y-47800000D01*
X149680000Y-46550000D02*
X150079999Y-46949999D01*
X150930000Y-60340000D02*
X150930000Y-47800000D01*
D14*
X149129298Y-49249298D02*
X149680000Y-49800000D01*
X146266702Y-49249298D02*
X149129298Y-49249298D01*
D12*
X105760000Y-37840000D02*
X133622000Y-37840000D01*
D13*
X134340000Y-37840000D02*
X133622000Y-37840000D01*
X134638000Y-37840000D02*
X134340000Y-37840000D01*
X146047298Y-49249298D02*
X134638000Y-37840000D01*
X146266702Y-49249298D02*
X146047298Y-49249298D01*
D14*
X147540000Y-49844299D02*
X146896299Y-49844299D01*
D13*
X108300000Y-38448000D02*
X108602990Y-38145010D01*
X108602990Y-38145010D02*
X133419010Y-38145010D01*
X108300000Y-38465000D02*
X108300000Y-38448000D01*
X146388299Y-49844299D02*
X146896299Y-49844299D01*
X133419010Y-38145010D02*
X133444010Y-38170010D01*
X133444010Y-38170010D02*
X134501306Y-38170010D01*
D15*
X145542648Y-49211352D02*
X145542648Y-49252648D01*
D13*
X145542648Y-49211352D02*
X145910603Y-49579307D01*
D15*
X147540000Y-49844299D02*
X146134299Y-49844299D01*
X145288648Y-48998648D02*
X145288648Y-48957352D01*
X146134299Y-49844299D02*
X145288648Y-48998648D01*
D13*
X134501306Y-38170010D02*
X145288648Y-48957352D01*
X145288648Y-48957352D02*
X145542648Y-49211352D01*
D14*
X149300757Y-50439299D02*
X149700756Y-50839298D01*
X146729299Y-50439299D02*
X149300757Y-50439299D01*
D15*
X111051010Y-38564000D02*
X110840000Y-38775010D01*
X146729299Y-50439299D02*
X146290879Y-50439299D01*
X144829580Y-48978000D02*
X144829580Y-48950846D01*
X146290879Y-50439299D02*
X144829580Y-48978000D01*
X144829580Y-48950846D02*
X134442734Y-38564000D01*
X134442734Y-38564000D02*
X111051010Y-38564000D01*
D14*
X146488004Y-51059996D02*
X147540000Y-51059996D01*
D15*
X113522000Y-39326000D02*
X113380000Y-39184000D01*
X146473156Y-51059996D02*
X146488004Y-51059996D01*
X113380000Y-39184000D02*
X134597160Y-39184000D01*
X134597160Y-39184000D02*
X146473156Y-51059996D01*
D12*
X149690000Y-63330000D02*
X149690000Y-61870000D01*
X154430000Y-68070000D02*
X149690000Y-63330000D01*
X108190000Y-47740000D02*
X107060000Y-46610000D01*
X137108000Y-47740000D02*
X136854000Y-47740000D01*
X136664000Y-47740000D02*
X108190000Y-47740000D01*
X136854000Y-47740000D02*
X136664000Y-47740000D01*
X137730278Y-48694230D02*
X137724508Y-48700000D01*
X137724508Y-48700000D02*
X114670000Y-48700000D01*
X114670000Y-48700000D02*
X111900000Y-48700000D01*
X111260000Y-48700000D02*
X111240000Y-48680000D01*
X111320000Y-48700000D02*
X110470000Y-48700000D01*
X111320000Y-48700000D02*
X111260000Y-48700000D01*
X111900000Y-48700000D02*
X111320000Y-48700000D01*
X110470000Y-48700000D02*
X110390000Y-48620000D01*
X112083819Y-49643819D02*
X112060000Y-49620000D01*
X138323943Y-49643819D02*
X112083819Y-49643819D01*
X114823805Y-50593805D02*
X114710000Y-50480000D01*
X138318404Y-50593805D02*
X114823805Y-50593805D01*
X153490000Y-69980000D02*
X152924315Y-69980000D01*
X151245039Y-69980000D02*
X151225039Y-70000000D01*
X153460000Y-70010000D02*
X153490000Y-69980000D01*
X151100000Y-70010000D02*
X153460000Y-70010000D01*
D14*
X151325685Y-70010000D02*
X150760000Y-70010000D01*
X151350000Y-69985685D02*
X151325685Y-70010000D01*
X151350000Y-69980000D02*
X151350000Y-69985685D01*
D12*
X151350000Y-69980000D02*
X151245039Y-69980000D01*
X152924315Y-69980000D02*
X151350000Y-69980000D01*
D15*
X136105000Y-42908233D02*
X136504999Y-43308233D01*
X136504999Y-43308233D02*
X139784383Y-46587617D01*
D13*
X146470000Y-47210000D02*
X146040000Y-47210000D01*
X146040000Y-47210000D02*
X146030000Y-47200000D01*
X145901044Y-47200000D02*
X145330522Y-46629478D01*
X146030000Y-47200000D02*
X145901044Y-47200000D01*
X145330522Y-46629478D02*
X140647233Y-41946188D01*
D12*
X137754672Y-51543805D02*
X137750867Y-51540000D01*
X138320357Y-51543805D02*
X137754672Y-51543805D01*
X117310000Y-51540000D02*
X117290000Y-51520000D01*
X137750867Y-51540000D02*
X117310000Y-51540000D01*
D15*
X117290000Y-51520000D02*
X114730000Y-51520000D01*
X114730000Y-51520000D02*
X114720000Y-51530000D01*
D12*
X137770849Y-52493669D02*
X137754518Y-52510000D01*
X138336534Y-52493669D02*
X137770849Y-52493669D01*
X123364999Y-52504999D02*
X123370000Y-52510000D01*
X119635001Y-52504999D02*
X123364999Y-52504999D01*
X137754518Y-52510000D02*
X123370000Y-52510000D01*
X123370000Y-52510000D02*
X122940000Y-52510000D01*
D15*
X119630002Y-52500000D02*
X119635001Y-52504999D01*
X116550000Y-52500000D02*
X119630002Y-52500000D01*
D12*
X138310000Y-53430000D02*
X137744315Y-53430000D01*
X137744315Y-53430000D02*
X122280000Y-53430000D01*
X122280000Y-53430000D02*
X122100000Y-53250000D01*
D15*
X122091426Y-53258574D02*
X122100000Y-53250000D01*
X119090000Y-53258574D02*
X122091426Y-53258574D01*
D12*
X138363436Y-54378498D02*
X125328498Y-54378498D01*
X125328498Y-54378498D02*
X125110000Y-54160000D01*
D13*
X125089997Y-54180003D02*
X125110000Y-54160000D01*
X122100000Y-54180003D02*
X125089997Y-54180003D01*
D12*
X138311381Y-55327073D02*
X127572927Y-55327073D01*
X127572927Y-55327073D02*
X127540000Y-55360000D01*
D13*
X125120000Y-55360000D02*
X127540000Y-55360000D01*
D12*
X138250000Y-56260000D02*
X129660000Y-56260000D01*
X129660000Y-56260000D02*
X129620000Y-56220000D01*
D13*
X129550238Y-56289762D02*
X129620000Y-56220000D01*
X127518870Y-56289762D02*
X129550238Y-56289762D01*
D12*
X132817154Y-57222846D02*
X132800000Y-57240000D01*
X138275641Y-57222846D02*
X132817154Y-57222846D01*
X132817154Y-57222846D02*
X132692846Y-57222846D01*
D13*
X132685692Y-57230000D02*
X132692846Y-57222846D01*
X129620000Y-57230000D02*
X132685692Y-57230000D01*
D12*
X138269163Y-58172826D02*
X135517174Y-58172826D01*
X135517174Y-58172826D02*
X135500000Y-58190000D01*
D15*
X138269163Y-58172826D02*
X134380826Y-58172826D01*
X134380826Y-58172826D02*
X134330000Y-58122000D01*
X138218337Y-58122000D02*
X138269163Y-58172826D01*
X134410000Y-58122000D02*
X138218337Y-58122000D01*
D13*
X134379157Y-58152843D02*
X134410000Y-58122000D01*
X132689961Y-58152843D02*
X134379157Y-58152843D01*
D12*
X146734999Y-48000000D02*
X147819999Y-46915000D01*
D13*
X139295000Y-41526357D02*
X139295000Y-40596000D01*
X146734999Y-48000000D02*
X145768643Y-48000000D01*
X145768643Y-48000000D02*
X139295000Y-41526357D01*
D15*
X142650000Y-41830000D02*
X142650000Y-40620000D01*
X139694999Y-40196001D02*
X139295000Y-40596000D01*
X142226001Y-40196001D02*
X139694999Y-40196001D01*
X142650000Y-40620000D02*
X142226001Y-40196001D01*
D13*
X144082001Y-44490001D02*
X140530000Y-40938000D01*
X146045018Y-46453018D02*
X147012858Y-46453018D01*
X144082001Y-44490001D02*
X146045018Y-46453018D01*
D14*
X149316454Y-51654996D02*
X146834996Y-51654996D01*
X149740729Y-52079271D02*
X149316454Y-51654996D01*
D15*
X116144000Y-39580000D02*
X115920000Y-39804000D01*
X134554740Y-39580000D02*
X116144000Y-39580000D01*
X146629736Y-51654996D02*
X134554740Y-39580000D01*
X146834996Y-51654996D02*
X146629736Y-51654996D01*
D14*
X147580108Y-52249997D02*
X147076003Y-52249997D01*
D15*
X118769990Y-39890010D02*
X118460000Y-40200000D01*
X134402010Y-39890010D02*
X118769990Y-39890010D01*
X146761997Y-52249997D02*
X134402010Y-39890010D01*
X147076003Y-52249997D02*
X146761997Y-52249997D01*
D14*
X149674252Y-53212794D02*
X149472794Y-53212794D01*
X149472794Y-53212794D02*
X149104997Y-52844997D01*
X149104997Y-52844997D02*
X147102997Y-52844997D01*
D15*
X121309990Y-40200020D02*
X121000000Y-40510010D01*
X134273600Y-40200020D02*
X121309990Y-40200020D01*
X147102997Y-52844997D02*
X146918577Y-52844997D01*
X146918577Y-52844997D02*
X134273600Y-40200020D01*
D14*
X147570000Y-53439998D02*
X146577624Y-53439998D01*
D15*
X147570000Y-53439998D02*
X146935998Y-53439998D01*
D12*
X123540000Y-42215000D02*
X129933000Y-42215000D01*
D15*
X146681998Y-53439998D02*
X147570000Y-53439998D01*
X145289280Y-53439998D02*
X146681998Y-53439998D01*
X134064282Y-42215000D02*
X145289280Y-53439998D01*
X129933000Y-42215000D02*
X134064282Y-42215000D01*
D14*
X148335398Y-54024598D02*
X149275402Y-54024598D01*
X148324998Y-54034998D02*
X148335398Y-54024598D01*
X149581330Y-54330526D02*
X149275402Y-54024598D01*
D15*
X147022998Y-54034998D02*
X145953860Y-54034998D01*
D12*
X126080000Y-42840000D02*
X127700000Y-42840000D01*
D15*
X133542000Y-42840000D02*
X127700000Y-42840000D01*
X145445860Y-54034998D02*
X147276998Y-54034998D01*
X134250862Y-42840000D02*
X145445860Y-54034998D01*
X133542000Y-42840000D02*
X134250862Y-42840000D01*
D14*
X147022998Y-54034998D02*
X147276998Y-54034998D01*
X147276998Y-54034998D02*
X148324998Y-54034998D01*
D12*
X128620000Y-43465000D02*
X131223000Y-43465000D01*
D15*
X146601999Y-54629999D02*
X147574335Y-54629999D01*
X145602441Y-54629999D02*
X146601999Y-54629999D01*
X134437442Y-43465000D02*
X145602441Y-54629999D01*
X131223000Y-43465000D02*
X134437442Y-43465000D01*
D14*
X147124999Y-55224999D02*
X147244399Y-55224999D01*
X147244399Y-55224999D02*
X147805001Y-55224999D01*
X147805001Y-55224999D02*
X148115001Y-55224999D01*
X148814999Y-55224999D02*
X147805001Y-55224999D01*
X148889314Y-55224999D02*
X148814999Y-55224999D01*
X149514999Y-55224999D02*
X149550000Y-55260000D01*
X149025001Y-55224999D02*
X149514999Y-55224999D01*
X149025001Y-55224999D02*
X149134999Y-55224999D01*
X148814999Y-55224999D02*
X149025001Y-55224999D01*
D12*
X131160000Y-44090000D02*
X133268000Y-44090000D01*
D15*
X147124999Y-55224999D02*
X146641001Y-55224999D01*
X133268000Y-44090000D02*
X134284000Y-44090000D01*
X145759021Y-55224999D02*
X146641001Y-55224999D01*
X135278011Y-44743989D02*
X145759021Y-55224999D01*
X134624022Y-44090000D02*
X135024011Y-44489989D01*
X133900000Y-44090000D02*
X134624022Y-44090000D01*
X135024011Y-44489989D02*
X134939013Y-44404991D01*
X135278011Y-44743989D02*
X135024011Y-44489989D01*
D12*
X133900000Y-44090000D02*
X134408000Y-44090000D01*
X133268000Y-44090000D02*
X133900000Y-44090000D01*
X133700000Y-44715000D02*
X134545000Y-44715000D01*
D15*
X145915602Y-55820000D02*
X146554000Y-55820000D01*
X134810602Y-44715000D02*
X145915602Y-55820000D01*
X134545000Y-44715000D02*
X134810602Y-44715000D01*
X146554000Y-55820000D02*
X147530000Y-55820000D01*
D16*
G36*
X90115738Y-26168228D02*
G01*
X90104859Y-26175497D01*
X89798677Y-26619072D01*
X92000000Y-28820395D01*
X94201323Y-26619072D01*
X93895141Y-26175497D01*
X93680057Y-26060000D01*
X154519158Y-26060000D01*
X154315738Y-26168228D01*
X154304859Y-26175497D01*
X153998677Y-26619072D01*
X156200000Y-28820395D01*
X158401323Y-26619072D01*
X158095141Y-26175497D01*
X157880057Y-26060000D01*
X158740000Y-26060000D01*
X158740000Y-26908478D01*
X158580928Y-26798677D01*
X156379605Y-29000000D01*
X158580928Y-31201323D01*
X158740000Y-31091522D01*
X158740001Y-40032419D01*
X158740257Y-40035021D01*
X158730252Y-40338748D01*
X158663259Y-40626940D01*
X158541563Y-40896637D01*
X158369801Y-41137558D01*
X158154515Y-41340527D01*
X157903905Y-41497817D01*
X157612692Y-41609098D01*
X157469369Y-41640739D01*
X152218255Y-42434858D01*
X152170617Y-42439550D01*
X152123012Y-42453991D01*
X152074811Y-42466210D01*
X152060928Y-42472824D01*
X152046207Y-42477290D01*
X152002334Y-42500740D01*
X151957443Y-42522128D01*
X151945119Y-42531322D01*
X151931550Y-42538575D01*
X151893092Y-42570137D01*
X151853239Y-42599869D01*
X151842945Y-42611292D01*
X151831052Y-42621052D01*
X151799489Y-42659512D01*
X151766204Y-42696446D01*
X151758337Y-42709656D01*
X151748575Y-42721551D01*
X151725125Y-42765423D01*
X151699681Y-42808147D01*
X151694540Y-42822643D01*
X151687290Y-42836208D01*
X151672849Y-42883812D01*
X151656230Y-42930678D01*
X151654017Y-42945892D01*
X151649550Y-42960618D01*
X151644673Y-43010132D01*
X151637517Y-43059333D01*
X151640000Y-43107114D01*
X151640000Y-47765123D01*
X151638043Y-47745253D01*
X151629727Y-47660816D01*
X151589128Y-47526980D01*
X151523200Y-47403637D01*
X151434475Y-47295525D01*
X151407384Y-47273292D01*
X150715000Y-46580909D01*
X150715000Y-46448061D01*
X150675226Y-46248102D01*
X150602078Y-46071509D01*
X150664022Y-45921964D01*
X150703796Y-45722005D01*
X150703796Y-45518127D01*
X150664022Y-45318168D01*
X150586001Y-45129810D01*
X150472733Y-44960292D01*
X150378796Y-44866355D01*
X150378796Y-42278045D01*
X150459774Y-42223937D01*
X150603937Y-42079774D01*
X150717205Y-41910256D01*
X150795226Y-41721898D01*
X150835000Y-41521939D01*
X150835000Y-41318061D01*
X150795226Y-41118102D01*
X150717205Y-40929744D01*
X150625000Y-40791749D01*
X150625000Y-32808711D01*
X150693937Y-32739774D01*
X150807205Y-32570256D01*
X150885226Y-32381898D01*
X150925000Y-32181939D01*
X150925000Y-31978061D01*
X150885226Y-31778102D01*
X150807205Y-31589744D01*
X150693937Y-31420226D01*
X150654639Y-31380928D01*
X153998677Y-31380928D01*
X154304859Y-31824503D01*
X154892306Y-32139954D01*
X155530008Y-32334740D01*
X156193457Y-32401372D01*
X156857158Y-32337292D01*
X157495605Y-32144962D01*
X158084262Y-31831772D01*
X158095141Y-31824503D01*
X158401323Y-31380928D01*
X156200000Y-29179605D01*
X153998677Y-31380928D01*
X150654639Y-31380928D01*
X150549774Y-31276063D01*
X150380256Y-31162795D01*
X150191898Y-31084774D01*
X149991939Y-31045000D01*
X149788061Y-31045000D01*
X149588102Y-31084774D01*
X149399744Y-31162795D01*
X149230226Y-31276063D01*
X149086063Y-31420226D01*
X148972795Y-31589744D01*
X148894774Y-31778102D01*
X148855000Y-31978061D01*
X148855000Y-32181939D01*
X148894774Y-32381898D01*
X148972795Y-32570256D01*
X149086063Y-32739774D01*
X149155000Y-32808711D01*
X149155001Y-40606191D01*
X149140226Y-40616063D01*
X148996063Y-40760226D01*
X148882795Y-40929744D01*
X148804774Y-41118102D01*
X148765000Y-41318061D01*
X148765000Y-41450908D01*
X147669810Y-42546099D01*
X147669774Y-42546063D01*
X147500256Y-42432795D01*
X147311898Y-42354774D01*
X147111939Y-42315000D01*
X146908061Y-42315000D01*
X146708102Y-42354774D01*
X146519744Y-42432795D01*
X146350226Y-42546063D01*
X146206063Y-42690226D01*
X146092795Y-42859744D01*
X146014774Y-43048102D01*
X145975000Y-43248061D01*
X145975000Y-43451939D01*
X146014774Y-43651898D01*
X146092795Y-43840256D01*
X146206063Y-44009774D01*
X146350226Y-44153937D01*
X146519744Y-44267205D01*
X146708102Y-44345226D01*
X146908061Y-44385000D01*
X147111939Y-44385000D01*
X147311898Y-44345226D01*
X147500256Y-44267205D01*
X147669774Y-44153937D01*
X147763711Y-44060000D01*
X147835125Y-44060000D01*
X147870000Y-44063435D01*
X147904875Y-44060000D01*
X147904877Y-44060000D01*
X148009184Y-44049727D01*
X148143020Y-44009128D01*
X148266363Y-43943200D01*
X148374475Y-43854475D01*
X148396712Y-43827379D01*
X148958797Y-43265295D01*
X148958796Y-44866355D01*
X148864859Y-44960292D01*
X148751591Y-45129810D01*
X148673570Y-45318168D01*
X148647569Y-45448884D01*
X148619183Y-45440273D01*
X148480000Y-45426565D01*
X148340816Y-45440273D01*
X148206980Y-45480872D01*
X148083637Y-45546800D01*
X147975525Y-45635526D01*
X147886800Y-45743638D01*
X147840957Y-45829405D01*
X147816795Y-45793244D01*
X147672632Y-45649081D01*
X147503114Y-45535813D01*
X147314756Y-45457792D01*
X147114797Y-45418018D01*
X146910919Y-45418018D01*
X146710960Y-45457792D01*
X146522602Y-45535813D01*
X146353084Y-45649081D01*
X146316806Y-45685359D01*
X144627258Y-43995812D01*
X144627254Y-43995807D01*
X143283164Y-42651717D01*
X143309774Y-42633937D01*
X143453937Y-42489774D01*
X143567205Y-42320256D01*
X143645226Y-42131898D01*
X143685000Y-41931939D01*
X143685000Y-41728061D01*
X143645226Y-41528102D01*
X143567205Y-41339744D01*
X143453937Y-41170226D01*
X143375000Y-41091289D01*
X143375000Y-40655596D01*
X143378506Y-40619999D01*
X143375000Y-40584402D01*
X143375000Y-40584393D01*
X143364509Y-40477875D01*
X143323053Y-40341212D01*
X143255731Y-40215263D01*
X143165132Y-40104868D01*
X143137472Y-40082168D01*
X142763833Y-39708529D01*
X142741133Y-39680869D01*
X142630738Y-39590270D01*
X142504789Y-39522948D01*
X142368126Y-39481492D01*
X142261608Y-39471001D01*
X142261598Y-39471001D01*
X142226001Y-39467495D01*
X142190404Y-39471001D01*
X139730595Y-39471001D01*
X139694998Y-39467495D01*
X139691055Y-39467883D01*
X139699000Y-39427939D01*
X139699000Y-39224061D01*
X139659226Y-39024102D01*
X139581205Y-38835744D01*
X139467937Y-38666226D01*
X139323774Y-38522063D01*
X139154256Y-38408795D01*
X138965898Y-38330774D01*
X138765939Y-38291000D01*
X138562061Y-38291000D01*
X138362102Y-38330774D01*
X138173744Y-38408795D01*
X138004226Y-38522063D01*
X137860063Y-38666226D01*
X137746795Y-38835744D01*
X137668774Y-39024102D01*
X137629000Y-39224061D01*
X137629000Y-39427939D01*
X137668774Y-39627898D01*
X137746795Y-39816256D01*
X137860063Y-39985774D01*
X137929000Y-40054711D01*
X137929000Y-40091554D01*
X135183259Y-37345813D01*
X135160238Y-37317762D01*
X135048320Y-37225913D01*
X134920633Y-37157663D01*
X134782085Y-37115635D01*
X134674105Y-37105000D01*
X134638000Y-37101444D01*
X134601895Y-37105000D01*
X133585895Y-37105000D01*
X133477915Y-37115635D01*
X133430560Y-37130000D01*
X106513711Y-37130000D01*
X106419774Y-37036063D01*
X106250256Y-36922795D01*
X106061898Y-36844774D01*
X105861939Y-36805000D01*
X105658061Y-36805000D01*
X105458102Y-36844774D01*
X105269744Y-36922795D01*
X105100226Y-37036063D01*
X104956063Y-37180226D01*
X104842795Y-37349744D01*
X104764774Y-37538102D01*
X104725000Y-37738061D01*
X104725000Y-37941939D01*
X104764774Y-38141898D01*
X104842795Y-38330256D01*
X104956063Y-38499774D01*
X105100226Y-38643937D01*
X105269744Y-38757205D01*
X105458102Y-38835226D01*
X105658061Y-38875000D01*
X105861939Y-38875000D01*
X106061898Y-38835226D01*
X106250256Y-38757205D01*
X106419774Y-38643937D01*
X106513711Y-38550000D01*
X107265000Y-38550000D01*
X107265000Y-38566939D01*
X107304774Y-38766898D01*
X107382795Y-38955256D01*
X107496063Y-39124774D01*
X107640226Y-39268937D01*
X107809744Y-39382205D01*
X107998102Y-39460226D01*
X108198061Y-39500000D01*
X108401939Y-39500000D01*
X108601898Y-39460226D01*
X108790256Y-39382205D01*
X108959774Y-39268937D01*
X109103937Y-39124774D01*
X109217205Y-38955256D01*
X109248373Y-38880010D01*
X109805609Y-38880010D01*
X109844774Y-39076908D01*
X109922795Y-39265266D01*
X110036063Y-39434784D01*
X110180226Y-39578947D01*
X110349744Y-39692215D01*
X110538102Y-39770236D01*
X110738061Y-39810010D01*
X110941939Y-39810010D01*
X111141898Y-39770236D01*
X111330256Y-39692215D01*
X111499774Y-39578947D01*
X111643937Y-39434784D01*
X111741346Y-39289000D01*
X112345609Y-39289000D01*
X112384774Y-39485898D01*
X112462795Y-39674256D01*
X112576063Y-39843774D01*
X112720226Y-39987937D01*
X112889744Y-40101205D01*
X113078102Y-40179226D01*
X113278061Y-40219000D01*
X113481939Y-40219000D01*
X113681898Y-40179226D01*
X113870256Y-40101205D01*
X114039774Y-39987937D01*
X114118711Y-39909000D01*
X114885609Y-39909000D01*
X114924774Y-40105898D01*
X115002795Y-40294256D01*
X115116063Y-40463774D01*
X115260226Y-40607937D01*
X115429744Y-40721205D01*
X115618102Y-40799226D01*
X115818061Y-40839000D01*
X116021939Y-40839000D01*
X116221898Y-40799226D01*
X116410256Y-40721205D01*
X116579774Y-40607937D01*
X116723937Y-40463774D01*
X116830026Y-40305000D01*
X117425609Y-40305000D01*
X117464774Y-40501898D01*
X117542795Y-40690256D01*
X117656063Y-40859774D01*
X117800226Y-41003937D01*
X117969744Y-41117205D01*
X118158102Y-41195226D01*
X118358061Y-41235000D01*
X118561939Y-41235000D01*
X118761898Y-41195226D01*
X118950256Y-41117205D01*
X119119774Y-41003937D01*
X119263937Y-40859774D01*
X119377205Y-40690256D01*
X119408373Y-40615010D01*
X119965609Y-40615010D01*
X120004774Y-40811908D01*
X120082795Y-41000266D01*
X120196063Y-41169784D01*
X120340226Y-41313947D01*
X120509744Y-41427215D01*
X120698102Y-41505236D01*
X120898061Y-41545010D01*
X121101939Y-41545010D01*
X121301898Y-41505236D01*
X121490256Y-41427215D01*
X121659774Y-41313947D01*
X121803937Y-41169784D01*
X121917205Y-41000266D01*
X121948373Y-40925020D01*
X133973296Y-40925020D01*
X135299329Y-42251054D01*
X135229759Y-42355173D01*
X134602114Y-41727528D01*
X134579414Y-41699868D01*
X134469019Y-41609269D01*
X134343070Y-41541947D01*
X134206407Y-41500491D01*
X134099889Y-41490000D01*
X134099879Y-41490000D01*
X134064282Y-41486494D01*
X134028685Y-41490000D01*
X129897393Y-41490000D01*
X129790875Y-41500491D01*
X129776011Y-41505000D01*
X124293711Y-41505000D01*
X124199774Y-41411063D01*
X124030256Y-41297795D01*
X123841898Y-41219774D01*
X123641939Y-41180000D01*
X123438061Y-41180000D01*
X123238102Y-41219774D01*
X123049744Y-41297795D01*
X122880226Y-41411063D01*
X122736063Y-41555226D01*
X122622795Y-41724744D01*
X122544774Y-41913102D01*
X122505000Y-42113061D01*
X122505000Y-42316939D01*
X122544774Y-42516898D01*
X122622795Y-42705256D01*
X122736063Y-42874774D01*
X122880226Y-43018937D01*
X123049744Y-43132205D01*
X123238102Y-43210226D01*
X123438061Y-43250000D01*
X123641939Y-43250000D01*
X123841898Y-43210226D01*
X124030256Y-43132205D01*
X124199774Y-43018937D01*
X124293711Y-42925000D01*
X125045000Y-42925000D01*
X125045000Y-42941939D01*
X125084774Y-43141898D01*
X125162795Y-43330256D01*
X125276063Y-43499774D01*
X125420226Y-43643937D01*
X125589744Y-43757205D01*
X125778102Y-43835226D01*
X125978061Y-43875000D01*
X126181939Y-43875000D01*
X126381898Y-43835226D01*
X126570256Y-43757205D01*
X126739774Y-43643937D01*
X126833711Y-43550000D01*
X127543011Y-43550000D01*
X127557875Y-43554509D01*
X127585000Y-43557181D01*
X127585000Y-43566939D01*
X127624774Y-43766898D01*
X127702795Y-43955256D01*
X127816063Y-44124774D01*
X127960226Y-44268937D01*
X128129744Y-44382205D01*
X128318102Y-44460226D01*
X128518061Y-44500000D01*
X128721939Y-44500000D01*
X128921898Y-44460226D01*
X129110256Y-44382205D01*
X129279774Y-44268937D01*
X129373711Y-44175000D01*
X130125000Y-44175000D01*
X130125000Y-44191939D01*
X130164774Y-44391898D01*
X130242795Y-44580256D01*
X130356063Y-44749774D01*
X130500226Y-44893937D01*
X130669744Y-45007205D01*
X130858102Y-45085226D01*
X131058061Y-45125000D01*
X131261939Y-45125000D01*
X131461898Y-45085226D01*
X131650256Y-45007205D01*
X131819774Y-44893937D01*
X131913711Y-44800000D01*
X132665000Y-44800000D01*
X132665000Y-44816939D01*
X132704774Y-45016898D01*
X132782795Y-45205256D01*
X132896063Y-45374774D01*
X133040226Y-45518937D01*
X133209744Y-45632205D01*
X133398102Y-45710226D01*
X133598061Y-45750000D01*
X133801939Y-45750000D01*
X134001898Y-45710226D01*
X134190256Y-45632205D01*
X134359774Y-45518937D01*
X134445048Y-45433663D01*
X134509393Y-45440000D01*
X134510298Y-45440000D01*
X136100293Y-47029996D01*
X136100289Y-47030000D01*
X108484092Y-47030000D01*
X108095000Y-46640909D01*
X108095000Y-46508061D01*
X108055226Y-46308102D01*
X107977205Y-46119744D01*
X107863937Y-45950226D01*
X107719774Y-45806063D01*
X107550256Y-45692795D01*
X107361898Y-45614774D01*
X107161939Y-45575000D01*
X106958061Y-45575000D01*
X106758102Y-45614774D01*
X106569744Y-45692795D01*
X106400226Y-45806063D01*
X106256063Y-45950226D01*
X106142795Y-46119744D01*
X106064774Y-46308102D01*
X106025000Y-46508061D01*
X106025000Y-46711939D01*
X106064774Y-46911898D01*
X106142795Y-47100256D01*
X106256063Y-47269774D01*
X106400226Y-47413937D01*
X106569744Y-47527205D01*
X106758102Y-47605226D01*
X106958061Y-47645000D01*
X107090909Y-47645000D01*
X107663292Y-48217384D01*
X107685525Y-48244475D01*
X107793637Y-48333200D01*
X107916980Y-48399128D01*
X108050816Y-48439727D01*
X108155123Y-48450000D01*
X108155124Y-48450000D01*
X108189999Y-48453435D01*
X108224874Y-48450000D01*
X109368538Y-48450000D01*
X109355000Y-48518061D01*
X109355000Y-48721939D01*
X109394774Y-48921898D01*
X109472795Y-49110256D01*
X109586063Y-49279774D01*
X109730226Y-49423937D01*
X109899744Y-49537205D01*
X110088102Y-49615226D01*
X110288061Y-49655000D01*
X110491939Y-49655000D01*
X110691898Y-49615226D01*
X110880256Y-49537205D01*
X111042795Y-49428600D01*
X111025000Y-49518061D01*
X111025000Y-49721939D01*
X111064774Y-49921898D01*
X111142795Y-50110256D01*
X111256063Y-50279774D01*
X111400226Y-50423937D01*
X111569744Y-50537205D01*
X111758102Y-50615226D01*
X111958061Y-50655000D01*
X112161939Y-50655000D01*
X112361898Y-50615226D01*
X112550256Y-50537205D01*
X112719774Y-50423937D01*
X112789892Y-50353819D01*
X113679822Y-50353819D01*
X113675000Y-50378061D01*
X113675000Y-50581939D01*
X113714774Y-50781898D01*
X113792795Y-50970256D01*
X113821010Y-51012483D01*
X113802795Y-51039744D01*
X113724774Y-51228102D01*
X113685000Y-51428061D01*
X113685000Y-51631939D01*
X113724774Y-51831898D01*
X113802795Y-52020256D01*
X113916063Y-52189774D01*
X114060226Y-52333937D01*
X114229744Y-52447205D01*
X114418102Y-52525226D01*
X114618061Y-52565000D01*
X114821939Y-52565000D01*
X115021898Y-52525226D01*
X115210256Y-52447205D01*
X115379774Y-52333937D01*
X115468711Y-52245000D01*
X115545445Y-52245000D01*
X115515000Y-52398061D01*
X115515000Y-52601939D01*
X115554774Y-52801898D01*
X115632795Y-52990256D01*
X115746063Y-53159774D01*
X115890226Y-53303937D01*
X116059744Y-53417205D01*
X116248102Y-53495226D01*
X116448061Y-53535000D01*
X116651939Y-53535000D01*
X116851898Y-53495226D01*
X117040256Y-53417205D01*
X117209774Y-53303937D01*
X117288711Y-53225000D01*
X118055000Y-53225000D01*
X118055000Y-53360513D01*
X118094774Y-53560472D01*
X118172795Y-53748830D01*
X118286063Y-53918348D01*
X118430226Y-54062511D01*
X118599744Y-54175779D01*
X118788102Y-54253800D01*
X118988061Y-54293574D01*
X119191939Y-54293574D01*
X119391898Y-54253800D01*
X119580256Y-54175779D01*
X119749774Y-54062511D01*
X119828711Y-53983574D01*
X121083795Y-53983574D01*
X121065000Y-54078064D01*
X121065000Y-54281942D01*
X121104774Y-54481901D01*
X121182795Y-54670259D01*
X121296063Y-54839777D01*
X121440226Y-54983940D01*
X121609744Y-55097208D01*
X121798102Y-55175229D01*
X121998061Y-55215003D01*
X122201939Y-55215003D01*
X122401898Y-55175229D01*
X122590256Y-55097208D01*
X122759774Y-54983940D01*
X122828711Y-54915003D01*
X124184048Y-54915003D01*
X124124774Y-55058102D01*
X124085000Y-55258061D01*
X124085000Y-55461939D01*
X124124774Y-55661898D01*
X124202795Y-55850256D01*
X124316063Y-56019774D01*
X124460226Y-56163937D01*
X124629744Y-56277205D01*
X124818102Y-56355226D01*
X125018061Y-56395000D01*
X125221939Y-56395000D01*
X125421898Y-56355226D01*
X125610256Y-56277205D01*
X125779774Y-56163937D01*
X125848711Y-56095000D01*
X126502333Y-56095000D01*
X126483870Y-56187823D01*
X126483870Y-56391701D01*
X126523644Y-56591660D01*
X126601665Y-56780018D01*
X126714933Y-56949536D01*
X126859096Y-57093699D01*
X127028614Y-57206967D01*
X127216972Y-57284988D01*
X127416931Y-57324762D01*
X127620809Y-57324762D01*
X127820768Y-57284988D01*
X128009126Y-57206967D01*
X128178644Y-57093699D01*
X128247581Y-57024762D01*
X128605547Y-57024762D01*
X128585000Y-57128061D01*
X128585000Y-57331939D01*
X128624774Y-57531898D01*
X128702795Y-57720256D01*
X128816063Y-57889774D01*
X128960226Y-58033937D01*
X129129744Y-58147205D01*
X129318102Y-58225226D01*
X129518061Y-58265000D01*
X129721939Y-58265000D01*
X129921898Y-58225226D01*
X130110256Y-58147205D01*
X130279774Y-58033937D01*
X130348711Y-57965000D01*
X131672048Y-57965000D01*
X131654961Y-58050904D01*
X131654961Y-58254782D01*
X131694735Y-58454741D01*
X131772756Y-58643099D01*
X131886024Y-58812617D01*
X132030187Y-58956780D01*
X132199705Y-59070048D01*
X132388063Y-59148069D01*
X132588022Y-59187843D01*
X132791900Y-59187843D01*
X132991859Y-59148069D01*
X133180217Y-59070048D01*
X133349735Y-58956780D01*
X133418672Y-58887843D01*
X133712132Y-58887843D01*
X133750226Y-58925937D01*
X133919744Y-59039205D01*
X134108102Y-59117226D01*
X134308061Y-59157000D01*
X134511939Y-59157000D01*
X134711898Y-59117226D01*
X134900256Y-59039205D01*
X135069774Y-58925937D01*
X135097885Y-58897826D01*
X135443053Y-58897826D01*
X135500000Y-58903435D01*
X135556947Y-58897826D01*
X137530452Y-58897826D01*
X137609389Y-58976763D01*
X137778907Y-59090031D01*
X137967265Y-59168052D01*
X138167224Y-59207826D01*
X138371102Y-59207826D01*
X138571061Y-59168052D01*
X138759419Y-59090031D01*
X138928937Y-58976763D01*
X139073100Y-58832600D01*
X139186368Y-58663082D01*
X139264389Y-58474724D01*
X139304163Y-58274765D01*
X139304163Y-58070887D01*
X139264389Y-57870928D01*
X139195930Y-57705656D01*
X139270867Y-57524744D01*
X139310641Y-57324785D01*
X139310641Y-57120907D01*
X139270867Y-56920948D01*
X139192846Y-56732590D01*
X139181535Y-56715661D01*
X139245226Y-56561898D01*
X139285000Y-56361939D01*
X139285000Y-56158061D01*
X139245226Y-55958102D01*
X139202862Y-55855827D01*
X139228586Y-55817329D01*
X139306607Y-55628971D01*
X139346381Y-55429012D01*
X139346381Y-55225134D01*
X139306607Y-55025175D01*
X139256673Y-54904625D01*
X139280641Y-54868754D01*
X139358662Y-54680396D01*
X139398436Y-54480437D01*
X139398436Y-54276559D01*
X139358662Y-54076600D01*
X139280641Y-53888242D01*
X139255840Y-53851125D01*
X139305226Y-53731898D01*
X139345000Y-53531939D01*
X139345000Y-53328061D01*
X139305226Y-53128102D01*
X139248656Y-52991532D01*
X139253739Y-52983925D01*
X139331760Y-52795567D01*
X139371534Y-52595608D01*
X139371534Y-52391730D01*
X139331760Y-52191771D01*
X139253739Y-52003413D01*
X139251589Y-52000196D01*
X139315583Y-51845703D01*
X139355357Y-51645744D01*
X139355357Y-51441866D01*
X139315583Y-51241907D01*
X139242905Y-51066448D01*
X139313630Y-50895703D01*
X139353404Y-50695744D01*
X139353404Y-50491866D01*
X139313630Y-50291907D01*
X139279282Y-50208985D01*
X145377774Y-56307477D01*
X145400470Y-56335132D01*
X145428125Y-56357828D01*
X145428127Y-56357830D01*
X145502552Y-56418909D01*
X145510865Y-56425731D01*
X145636814Y-56493053D01*
X145773477Y-56534509D01*
X145879995Y-56545000D01*
X145880002Y-56545000D01*
X145915602Y-56548506D01*
X145951202Y-56545000D01*
X146791289Y-56545000D01*
X146870226Y-56623937D01*
X147039744Y-56737205D01*
X147228102Y-56815226D01*
X147428061Y-56855000D01*
X147631939Y-56855000D01*
X147831898Y-56815226D01*
X148020256Y-56737205D01*
X148189774Y-56623937D01*
X148333937Y-56479774D01*
X148447205Y-56310256D01*
X148525226Y-56121898D01*
X148564391Y-55924999D01*
X148751288Y-55924999D01*
X148890226Y-56063937D01*
X149059744Y-56177205D01*
X149248102Y-56255226D01*
X149448061Y-56295000D01*
X149651939Y-56295000D01*
X149851898Y-56255226D01*
X150040256Y-56177205D01*
X150209774Y-56063937D01*
X150220000Y-56053711D01*
X150220000Y-60305125D01*
X150216565Y-60340000D01*
X150220000Y-60374875D01*
X150220000Y-60374876D01*
X150230273Y-60479183D01*
X150270872Y-60613019D01*
X150336800Y-60736362D01*
X150425525Y-60844474D01*
X150452617Y-60866708D01*
X153375000Y-63789092D01*
X153375000Y-63921939D01*
X153414774Y-64121898D01*
X153492795Y-64310256D01*
X153606063Y-64479774D01*
X153750226Y-64623937D01*
X153919744Y-64737205D01*
X154108102Y-64815226D01*
X154308061Y-64855000D01*
X154511939Y-64855000D01*
X154711898Y-64815226D01*
X154900256Y-64737205D01*
X155069774Y-64623937D01*
X155213937Y-64479774D01*
X155327205Y-64310256D01*
X155405226Y-64121898D01*
X155445000Y-63921939D01*
X155445000Y-63718061D01*
X155405226Y-63518102D01*
X155327205Y-63329744D01*
X155213937Y-63160226D01*
X155069774Y-63016063D01*
X154900256Y-62902795D01*
X154711898Y-62824774D01*
X154511939Y-62785000D01*
X154379092Y-62785000D01*
X151640000Y-60045909D01*
X151640000Y-58089730D01*
X151640001Y-58089741D01*
X151640001Y-58092419D01*
X151642908Y-58121938D01*
X151648521Y-58184094D01*
X151649286Y-58186691D01*
X151649551Y-58189383D01*
X151667633Y-58248989D01*
X151685249Y-58308807D01*
X151686506Y-58311205D01*
X151687291Y-58313793D01*
X151716662Y-58368742D01*
X151745601Y-58423958D01*
X151747300Y-58426063D01*
X151748576Y-58428450D01*
X151788122Y-58476637D01*
X151827259Y-58525123D01*
X151829336Y-58526856D01*
X151831053Y-58528948D01*
X151879236Y-58568491D01*
X151927083Y-58608413D01*
X151929458Y-58609708D01*
X151931551Y-58611425D01*
X151986510Y-58640801D01*
X152041238Y-58670628D01*
X152043823Y-58671435D01*
X152046208Y-58672710D01*
X152105847Y-58690802D01*
X152134243Y-58699668D01*
X152136873Y-58700213D01*
X152170618Y-58710450D01*
X152200365Y-58713380D01*
X157460422Y-59804162D01*
X157782391Y-59897350D01*
X158045297Y-60033291D01*
X158276785Y-60217701D01*
X158468047Y-60443567D01*
X158611800Y-60702285D01*
X158702558Y-60983986D01*
X158740000Y-61304749D01*
X158740001Y-117130595D01*
X158714899Y-117105493D01*
X158601322Y-117219070D01*
X158295141Y-116775497D01*
X157707694Y-116460046D01*
X157069992Y-116265260D01*
X156406543Y-116198628D01*
X155742842Y-116262708D01*
X155104395Y-116455038D01*
X154515738Y-116768228D01*
X154504859Y-116775497D01*
X154198677Y-117219072D01*
X156400000Y-119420395D01*
X156414143Y-119406253D01*
X156593748Y-119585858D01*
X156579605Y-119600000D01*
X156593748Y-119614143D01*
X156414143Y-119793748D01*
X156400000Y-119779605D01*
X154198677Y-121980928D01*
X154504859Y-122424503D01*
X154719943Y-122540000D01*
X93680842Y-122540000D01*
X93884262Y-122431772D01*
X93895141Y-122424503D01*
X94201323Y-121980928D01*
X92000000Y-119779605D01*
X89798677Y-121980928D01*
X90104859Y-122424503D01*
X90319943Y-122540000D01*
X89560000Y-122540000D01*
X89560000Y-121760548D01*
X89619072Y-121801323D01*
X91820395Y-119600000D01*
X92179605Y-119600000D01*
X94380928Y-121801323D01*
X94824503Y-121495141D01*
X95139954Y-120907694D01*
X95334740Y-120269992D01*
X95401372Y-119606543D01*
X95400109Y-119593457D01*
X152998628Y-119593457D01*
X153062708Y-120257158D01*
X153255038Y-120895605D01*
X153568228Y-121484262D01*
X153575497Y-121495141D01*
X154019072Y-121801323D01*
X156220395Y-119600000D01*
X154019072Y-117398677D01*
X153575497Y-117704859D01*
X153260046Y-118292306D01*
X153065260Y-118930008D01*
X152998628Y-119593457D01*
X95400109Y-119593457D01*
X95337292Y-118942842D01*
X95144962Y-118304395D01*
X94831772Y-117715738D01*
X94824503Y-117704859D01*
X94380928Y-117398677D01*
X92179605Y-119600000D01*
X91820395Y-119600000D01*
X89619072Y-117398677D01*
X89560000Y-117439452D01*
X89560000Y-117219072D01*
X89798677Y-117219072D01*
X92000000Y-119420395D01*
X94201323Y-117219072D01*
X93895141Y-116775497D01*
X93307694Y-116460046D01*
X92669992Y-116265260D01*
X92006543Y-116198628D01*
X91342842Y-116262708D01*
X90704395Y-116455038D01*
X90115738Y-116768228D01*
X90104859Y-116775497D01*
X89798677Y-117219072D01*
X89560000Y-117219072D01*
X89560000Y-94218061D01*
X146195000Y-94218061D01*
X146195000Y-94421939D01*
X146234774Y-94621898D01*
X146312795Y-94810256D01*
X146426063Y-94979774D01*
X146570226Y-95123937D01*
X146739744Y-95237205D01*
X146928102Y-95315226D01*
X147128061Y-95355000D01*
X147331939Y-95355000D01*
X147531898Y-95315226D01*
X147720256Y-95237205D01*
X147889774Y-95123937D01*
X147983711Y-95030000D01*
X148385125Y-95030000D01*
X148420000Y-95033435D01*
X148434999Y-95031958D01*
X148434999Y-95041940D01*
X148474773Y-95241899D01*
X148552794Y-95430257D01*
X148666062Y-95599775D01*
X148810225Y-95743938D01*
X148979743Y-95857206D01*
X149168101Y-95935227D01*
X149368060Y-95975001D01*
X149571938Y-95975001D01*
X149771897Y-95935227D01*
X149960255Y-95857206D01*
X150129773Y-95743938D01*
X150273936Y-95599775D01*
X150387204Y-95430257D01*
X150465225Y-95241899D01*
X150504999Y-95041940D01*
X150504999Y-94838062D01*
X150465225Y-94638103D01*
X150387204Y-94449745D01*
X150273936Y-94280227D01*
X150194999Y-94201290D01*
X150194999Y-91436598D01*
X150388061Y-91475000D01*
X150591939Y-91475000D01*
X150791898Y-91435226D01*
X150980256Y-91357205D01*
X151149774Y-91243937D01*
X151293937Y-91099774D01*
X151407205Y-90930256D01*
X151485226Y-90741898D01*
X151525000Y-90541939D01*
X151525000Y-90338061D01*
X151485226Y-90138102D01*
X151407205Y-89949744D01*
X151293937Y-89780226D01*
X151200000Y-89686289D01*
X151200000Y-81924875D01*
X151203435Y-81890000D01*
X151198018Y-81835000D01*
X151189727Y-81750816D01*
X151149128Y-81616980D01*
X151083200Y-81493637D01*
X150994475Y-81385525D01*
X150967379Y-81363288D01*
X148870000Y-79265909D01*
X148870000Y-78173711D01*
X148963937Y-78079774D01*
X149077205Y-77910256D01*
X149155226Y-77721898D01*
X149195000Y-77521939D01*
X149195000Y-77318061D01*
X149155226Y-77118102D01*
X149077205Y-76929744D01*
X148963937Y-76760226D01*
X148819774Y-76616063D01*
X148650256Y-76502795D01*
X148461898Y-76424774D01*
X148261939Y-76385000D01*
X148058061Y-76385000D01*
X147858102Y-76424774D01*
X147669744Y-76502795D01*
X147500226Y-76616063D01*
X147356063Y-76760226D01*
X147242795Y-76929744D01*
X147164774Y-77118102D01*
X147125000Y-77318061D01*
X147125000Y-77521939D01*
X147164774Y-77721898D01*
X147242795Y-77910256D01*
X147356063Y-78079774D01*
X147450001Y-78173712D01*
X147450000Y-79525125D01*
X147446565Y-79560000D01*
X147450000Y-79594875D01*
X147450000Y-79594876D01*
X147460273Y-79699183D01*
X147500872Y-79833019D01*
X147566800Y-79956362D01*
X147655525Y-80064474D01*
X147682617Y-80086708D01*
X149780001Y-82184092D01*
X149780000Y-86276289D01*
X149729774Y-86226063D01*
X149560256Y-86112795D01*
X149371898Y-86034774D01*
X149171939Y-85995000D01*
X148968061Y-85995000D01*
X148768102Y-86034774D01*
X148579744Y-86112795D01*
X148410226Y-86226063D01*
X148266063Y-86370226D01*
X148152795Y-86539744D01*
X148074774Y-86728102D01*
X148035000Y-86928061D01*
X148035000Y-87131939D01*
X148074774Y-87331898D01*
X148152795Y-87520256D01*
X148266063Y-87689774D01*
X148360001Y-87783712D01*
X148360000Y-93375909D01*
X148125909Y-93610000D01*
X147983711Y-93610000D01*
X147889774Y-93516063D01*
X147720256Y-93402795D01*
X147531898Y-93324774D01*
X147331939Y-93285000D01*
X147128061Y-93285000D01*
X146928102Y-93324774D01*
X146739744Y-93402795D01*
X146570226Y-93516063D01*
X146426063Y-93660226D01*
X146312795Y-93829744D01*
X146234774Y-94018102D01*
X146195000Y-94218061D01*
X89560000Y-94218061D01*
X89560000Y-61768061D01*
X148655000Y-61768061D01*
X148655000Y-61971939D01*
X148694774Y-62171898D01*
X148772795Y-62360256D01*
X148886063Y-62529774D01*
X148980000Y-62623711D01*
X148980000Y-63295125D01*
X148976565Y-63330000D01*
X148980000Y-63364875D01*
X148980000Y-63364876D01*
X148990273Y-63469183D01*
X149030872Y-63603019D01*
X149096800Y-63726362D01*
X149185525Y-63834474D01*
X149212617Y-63856708D01*
X153395000Y-68039092D01*
X153395000Y-68109990D01*
X152143721Y-68109990D01*
X152049784Y-68016053D01*
X151880266Y-67902785D01*
X151691908Y-67824764D01*
X151491949Y-67784990D01*
X151288071Y-67784990D01*
X151088112Y-67824764D01*
X150899754Y-67902785D01*
X150730236Y-68016053D01*
X150586073Y-68160216D01*
X150472805Y-68329734D01*
X150394784Y-68518092D01*
X150355010Y-68718051D01*
X150355010Y-68921929D01*
X150379919Y-69047158D01*
X150269744Y-69092795D01*
X150100226Y-69206063D01*
X149956063Y-69350226D01*
X149842795Y-69519744D01*
X149764774Y-69708102D01*
X149725000Y-69908061D01*
X149725000Y-70111939D01*
X149764774Y-70311898D01*
X149822743Y-70451847D01*
X149699744Y-70502795D01*
X149530226Y-70616063D01*
X149386063Y-70760226D01*
X149272795Y-70929744D01*
X149194774Y-71118102D01*
X149155000Y-71318061D01*
X149155000Y-71521939D01*
X149194774Y-71721898D01*
X149272795Y-71910256D01*
X149386063Y-72079774D01*
X149530226Y-72223937D01*
X149675890Y-72321266D01*
X149664774Y-72348102D01*
X149625000Y-72548061D01*
X149625000Y-72751939D01*
X149664774Y-72951898D01*
X149742795Y-73140256D01*
X149856063Y-73309774D01*
X150000226Y-73453937D01*
X150169744Y-73567205D01*
X150358102Y-73645226D01*
X150558061Y-73685000D01*
X150761939Y-73685000D01*
X150961898Y-73645226D01*
X151150256Y-73567205D01*
X151319774Y-73453937D01*
X151393711Y-73380000D01*
X151926300Y-73380000D01*
X151950000Y-73403700D01*
X151950001Y-78885115D01*
X151946565Y-78920000D01*
X151960274Y-79059184D01*
X152000872Y-79193019D01*
X152000873Y-79193020D01*
X152066801Y-79316363D01*
X152155526Y-79424475D01*
X152182617Y-79446708D01*
X153505000Y-80769092D01*
X153505000Y-80901939D01*
X153544774Y-81101898D01*
X153622795Y-81290256D01*
X153736063Y-81459774D01*
X153880226Y-81603937D01*
X154049744Y-81717205D01*
X154238102Y-81795226D01*
X154438061Y-81835000D01*
X154641939Y-81835000D01*
X154841898Y-81795226D01*
X155030256Y-81717205D01*
X155199774Y-81603937D01*
X155343937Y-81459774D01*
X155457205Y-81290256D01*
X155535226Y-81101898D01*
X155575000Y-80901939D01*
X155575000Y-80698061D01*
X155535226Y-80498102D01*
X155457205Y-80309744D01*
X155343937Y-80140226D01*
X155199774Y-79996063D01*
X155030256Y-79882795D01*
X154841898Y-79804774D01*
X154641939Y-79765000D01*
X154509092Y-79765000D01*
X153370000Y-78625909D01*
X153370000Y-76414091D01*
X153545000Y-76589091D01*
X153545000Y-76721939D01*
X153584774Y-76921898D01*
X153662795Y-77110256D01*
X153776063Y-77279774D01*
X153920226Y-77423937D01*
X154089744Y-77537205D01*
X154278102Y-77615226D01*
X154478061Y-77655000D01*
X154681939Y-77655000D01*
X154881898Y-77615226D01*
X155070256Y-77537205D01*
X155239774Y-77423937D01*
X155383937Y-77279774D01*
X155497205Y-77110256D01*
X155575226Y-76921898D01*
X155615000Y-76721939D01*
X155615000Y-76518061D01*
X155575226Y-76318102D01*
X155497205Y-76129744D01*
X155383937Y-75960226D01*
X155239774Y-75816063D01*
X155070256Y-75702795D01*
X154881898Y-75624774D01*
X154681939Y-75585000D01*
X154549091Y-75585000D01*
X154260000Y-75295909D01*
X154260000Y-73393586D01*
X154288102Y-73405226D01*
X154488061Y-73445000D01*
X154691939Y-73445000D01*
X154891898Y-73405226D01*
X155080256Y-73327205D01*
X155249774Y-73213937D01*
X155393937Y-73069774D01*
X155507205Y-72900256D01*
X155585226Y-72711898D01*
X155625000Y-72511939D01*
X155625000Y-72308061D01*
X155585226Y-72108102D01*
X155507205Y-71919744D01*
X155393937Y-71750226D01*
X155300000Y-71656289D01*
X155300000Y-69624877D01*
X155303435Y-69590000D01*
X155289727Y-69450815D01*
X155249128Y-69316980D01*
X155195342Y-69216353D01*
X155183200Y-69193637D01*
X155094475Y-69085525D01*
X155067379Y-69063288D01*
X154962841Y-68958750D01*
X155089774Y-68873937D01*
X155233937Y-68729774D01*
X155347205Y-68560256D01*
X155425226Y-68371898D01*
X155465000Y-68171939D01*
X155465000Y-67968061D01*
X155425226Y-67768102D01*
X155347205Y-67579744D01*
X155233937Y-67410226D01*
X155089774Y-67266063D01*
X154920256Y-67152795D01*
X154731898Y-67074774D01*
X154531939Y-67035000D01*
X154399092Y-67035000D01*
X150400000Y-63035909D01*
X150400000Y-62623711D01*
X150493937Y-62529774D01*
X150607205Y-62360256D01*
X150685226Y-62171898D01*
X150725000Y-61971939D01*
X150725000Y-61768061D01*
X150685226Y-61568102D01*
X150607205Y-61379744D01*
X150493937Y-61210226D01*
X150349774Y-61066063D01*
X150180256Y-60952795D01*
X149991898Y-60874774D01*
X149791939Y-60835000D01*
X149588061Y-60835000D01*
X149388102Y-60874774D01*
X149199744Y-60952795D01*
X149030226Y-61066063D01*
X148886063Y-61210226D01*
X148772795Y-61379744D01*
X148694774Y-61568102D01*
X148655000Y-61768061D01*
X89560000Y-61768061D01*
X89560000Y-31380928D01*
X89798677Y-31380928D01*
X90104859Y-31824503D01*
X90692306Y-32139954D01*
X91330008Y-32334740D01*
X91993457Y-32401372D01*
X92657158Y-32337292D01*
X93295605Y-32144962D01*
X93884262Y-31831772D01*
X93895141Y-31824503D01*
X94201323Y-31380928D01*
X92000000Y-29179605D01*
X89798677Y-31380928D01*
X89560000Y-31380928D01*
X89560000Y-31160548D01*
X89619072Y-31201323D01*
X91820395Y-29000000D01*
X92179605Y-29000000D01*
X94380928Y-31201323D01*
X94824503Y-30895141D01*
X95139954Y-30307694D01*
X95334740Y-29669992D01*
X95401372Y-29006543D01*
X95400109Y-28993457D01*
X152798628Y-28993457D01*
X152862708Y-29657158D01*
X153055038Y-30295605D01*
X153368228Y-30884262D01*
X153375497Y-30895141D01*
X153819072Y-31201323D01*
X156020395Y-29000000D01*
X153819072Y-26798677D01*
X153375497Y-27104859D01*
X153060046Y-27692306D01*
X152865260Y-28330008D01*
X152798628Y-28993457D01*
X95400109Y-28993457D01*
X95337292Y-28342842D01*
X95144962Y-27704395D01*
X94831772Y-27115738D01*
X94824503Y-27104859D01*
X94380928Y-26798677D01*
X92179605Y-29000000D01*
X91820395Y-29000000D01*
X89619072Y-26798677D01*
X89560000Y-26839452D01*
X89560000Y-26060000D01*
X90319158Y-26060000D01*
X90115738Y-26168228D01*
X90115738Y-26168228D01*
G37*
X90115738Y-26168228D02*
X90104859Y-26175497D01*
X89798677Y-26619072D01*
X92000000Y-28820395D01*
X94201323Y-26619072D01*
X93895141Y-26175497D01*
X93680057Y-26060000D01*
X154519158Y-26060000D01*
X154315738Y-26168228D01*
X154304859Y-26175497D01*
X153998677Y-26619072D01*
X156200000Y-28820395D01*
X158401323Y-26619072D01*
X158095141Y-26175497D01*
X157880057Y-26060000D01*
X158740000Y-26060000D01*
X158740000Y-26908478D01*
X158580928Y-26798677D01*
X156379605Y-29000000D01*
X158580928Y-31201323D01*
X158740000Y-31091522D01*
X158740001Y-40032419D01*
X158740257Y-40035021D01*
X158730252Y-40338748D01*
X158663259Y-40626940D01*
X158541563Y-40896637D01*
X158369801Y-41137558D01*
X158154515Y-41340527D01*
X157903905Y-41497817D01*
X157612692Y-41609098D01*
X157469369Y-41640739D01*
X152218255Y-42434858D01*
X152170617Y-42439550D01*
X152123012Y-42453991D01*
X152074811Y-42466210D01*
X152060928Y-42472824D01*
X152046207Y-42477290D01*
X152002334Y-42500740D01*
X151957443Y-42522128D01*
X151945119Y-42531322D01*
X151931550Y-42538575D01*
X151893092Y-42570137D01*
X151853239Y-42599869D01*
X151842945Y-42611292D01*
X151831052Y-42621052D01*
X151799489Y-42659512D01*
X151766204Y-42696446D01*
X151758337Y-42709656D01*
X151748575Y-42721551D01*
X151725125Y-42765423D01*
X151699681Y-42808147D01*
X151694540Y-42822643D01*
X151687290Y-42836208D01*
X151672849Y-42883812D01*
X151656230Y-42930678D01*
X151654017Y-42945892D01*
X151649550Y-42960618D01*
X151644673Y-43010132D01*
X151637517Y-43059333D01*
X151640000Y-43107114D01*
X151640000Y-47765123D01*
X151638043Y-47745253D01*
X151629727Y-47660816D01*
X151589128Y-47526980D01*
X151523200Y-47403637D01*
X151434475Y-47295525D01*
X151407384Y-47273292D01*
X150715000Y-46580909D01*
X150715000Y-46448061D01*
X150675226Y-46248102D01*
X150602078Y-46071509D01*
X150664022Y-45921964D01*
X150703796Y-45722005D01*
X150703796Y-45518127D01*
X150664022Y-45318168D01*
X150586001Y-45129810D01*
X150472733Y-44960292D01*
X150378796Y-44866355D01*
X150378796Y-42278045D01*
X150459774Y-42223937D01*
X150603937Y-42079774D01*
X150717205Y-41910256D01*
X150795226Y-41721898D01*
X150835000Y-41521939D01*
X150835000Y-41318061D01*
X150795226Y-41118102D01*
X150717205Y-40929744D01*
X150625000Y-40791749D01*
X150625000Y-32808711D01*
X150693937Y-32739774D01*
X150807205Y-32570256D01*
X150885226Y-32381898D01*
X150925000Y-32181939D01*
X150925000Y-31978061D01*
X150885226Y-31778102D01*
X150807205Y-31589744D01*
X150693937Y-31420226D01*
X150654639Y-31380928D01*
X153998677Y-31380928D01*
X154304859Y-31824503D01*
X154892306Y-32139954D01*
X155530008Y-32334740D01*
X156193457Y-32401372D01*
X156857158Y-32337292D01*
X157495605Y-32144962D01*
X158084262Y-31831772D01*
X158095141Y-31824503D01*
X158401323Y-31380928D01*
X156200000Y-29179605D01*
X153998677Y-31380928D01*
X150654639Y-31380928D01*
X150549774Y-31276063D01*
X150380256Y-31162795D01*
X150191898Y-31084774D01*
X149991939Y-31045000D01*
X149788061Y-31045000D01*
X149588102Y-31084774D01*
X149399744Y-31162795D01*
X149230226Y-31276063D01*
X149086063Y-31420226D01*
X148972795Y-31589744D01*
X148894774Y-31778102D01*
X148855000Y-31978061D01*
X148855000Y-32181939D01*
X148894774Y-32381898D01*
X148972795Y-32570256D01*
X149086063Y-32739774D01*
X149155000Y-32808711D01*
X149155001Y-40606191D01*
X149140226Y-40616063D01*
X148996063Y-40760226D01*
X148882795Y-40929744D01*
X148804774Y-41118102D01*
X148765000Y-41318061D01*
X148765000Y-41450908D01*
X147669810Y-42546099D01*
X147669774Y-42546063D01*
X147500256Y-42432795D01*
X147311898Y-42354774D01*
X147111939Y-42315000D01*
X146908061Y-42315000D01*
X146708102Y-42354774D01*
X146519744Y-42432795D01*
X146350226Y-42546063D01*
X146206063Y-42690226D01*
X146092795Y-42859744D01*
X146014774Y-43048102D01*
X145975000Y-43248061D01*
X145975000Y-43451939D01*
X146014774Y-43651898D01*
X146092795Y-43840256D01*
X146206063Y-44009774D01*
X146350226Y-44153937D01*
X146519744Y-44267205D01*
X146708102Y-44345226D01*
X146908061Y-44385000D01*
X147111939Y-44385000D01*
X147311898Y-44345226D01*
X147500256Y-44267205D01*
X147669774Y-44153937D01*
X147763711Y-44060000D01*
X147835125Y-44060000D01*
X147870000Y-44063435D01*
X147904875Y-44060000D01*
X147904877Y-44060000D01*
X148009184Y-44049727D01*
X148143020Y-44009128D01*
X148266363Y-43943200D01*
X148374475Y-43854475D01*
X148396712Y-43827379D01*
X148958797Y-43265295D01*
X148958796Y-44866355D01*
X148864859Y-44960292D01*
X148751591Y-45129810D01*
X148673570Y-45318168D01*
X148647569Y-45448884D01*
X148619183Y-45440273D01*
X148480000Y-45426565D01*
X148340816Y-45440273D01*
X148206980Y-45480872D01*
X148083637Y-45546800D01*
X147975525Y-45635526D01*
X147886800Y-45743638D01*
X147840957Y-45829405D01*
X147816795Y-45793244D01*
X147672632Y-45649081D01*
X147503114Y-45535813D01*
X147314756Y-45457792D01*
X147114797Y-45418018D01*
X146910919Y-45418018D01*
X146710960Y-45457792D01*
X146522602Y-45535813D01*
X146353084Y-45649081D01*
X146316806Y-45685359D01*
X144627258Y-43995812D01*
X144627254Y-43995807D01*
X143283164Y-42651717D01*
X143309774Y-42633937D01*
X143453937Y-42489774D01*
X143567205Y-42320256D01*
X143645226Y-42131898D01*
X143685000Y-41931939D01*
X143685000Y-41728061D01*
X143645226Y-41528102D01*
X143567205Y-41339744D01*
X143453937Y-41170226D01*
X143375000Y-41091289D01*
X143375000Y-40655596D01*
X143378506Y-40619999D01*
X143375000Y-40584402D01*
X143375000Y-40584393D01*
X143364509Y-40477875D01*
X143323053Y-40341212D01*
X143255731Y-40215263D01*
X143165132Y-40104868D01*
X143137472Y-40082168D01*
X142763833Y-39708529D01*
X142741133Y-39680869D01*
X142630738Y-39590270D01*
X142504789Y-39522948D01*
X142368126Y-39481492D01*
X142261608Y-39471001D01*
X142261598Y-39471001D01*
X142226001Y-39467495D01*
X142190404Y-39471001D01*
X139730595Y-39471001D01*
X139694998Y-39467495D01*
X139691055Y-39467883D01*
X139699000Y-39427939D01*
X139699000Y-39224061D01*
X139659226Y-39024102D01*
X139581205Y-38835744D01*
X139467937Y-38666226D01*
X139323774Y-38522063D01*
X139154256Y-38408795D01*
X138965898Y-38330774D01*
X138765939Y-38291000D01*
X138562061Y-38291000D01*
X138362102Y-38330774D01*
X138173744Y-38408795D01*
X138004226Y-38522063D01*
X137860063Y-38666226D01*
X137746795Y-38835744D01*
X137668774Y-39024102D01*
X137629000Y-39224061D01*
X137629000Y-39427939D01*
X137668774Y-39627898D01*
X137746795Y-39816256D01*
X137860063Y-39985774D01*
X137929000Y-40054711D01*
X137929000Y-40091554D01*
X135183259Y-37345813D01*
X135160238Y-37317762D01*
X135048320Y-37225913D01*
X134920633Y-37157663D01*
X134782085Y-37115635D01*
X134674105Y-37105000D01*
X134638000Y-37101444D01*
X134601895Y-37105000D01*
X133585895Y-37105000D01*
X133477915Y-37115635D01*
X133430560Y-37130000D01*
X106513711Y-37130000D01*
X106419774Y-37036063D01*
X106250256Y-36922795D01*
X106061898Y-36844774D01*
X105861939Y-36805000D01*
X105658061Y-36805000D01*
X105458102Y-36844774D01*
X105269744Y-36922795D01*
X105100226Y-37036063D01*
X104956063Y-37180226D01*
X104842795Y-37349744D01*
X104764774Y-37538102D01*
X104725000Y-37738061D01*
X104725000Y-37941939D01*
X104764774Y-38141898D01*
X104842795Y-38330256D01*
X104956063Y-38499774D01*
X105100226Y-38643937D01*
X105269744Y-38757205D01*
X105458102Y-38835226D01*
X105658061Y-38875000D01*
X105861939Y-38875000D01*
X106061898Y-38835226D01*
X106250256Y-38757205D01*
X106419774Y-38643937D01*
X106513711Y-38550000D01*
X107265000Y-38550000D01*
X107265000Y-38566939D01*
X107304774Y-38766898D01*
X107382795Y-38955256D01*
X107496063Y-39124774D01*
X107640226Y-39268937D01*
X107809744Y-39382205D01*
X107998102Y-39460226D01*
X108198061Y-39500000D01*
X108401939Y-39500000D01*
X108601898Y-39460226D01*
X108790256Y-39382205D01*
X108959774Y-39268937D01*
X109103937Y-39124774D01*
X109217205Y-38955256D01*
X109248373Y-38880010D01*
X109805609Y-38880010D01*
X109844774Y-39076908D01*
X109922795Y-39265266D01*
X110036063Y-39434784D01*
X110180226Y-39578947D01*
X110349744Y-39692215D01*
X110538102Y-39770236D01*
X110738061Y-39810010D01*
X110941939Y-39810010D01*
X111141898Y-39770236D01*
X111330256Y-39692215D01*
X111499774Y-39578947D01*
X111643937Y-39434784D01*
X111741346Y-39289000D01*
X112345609Y-39289000D01*
X112384774Y-39485898D01*
X112462795Y-39674256D01*
X112576063Y-39843774D01*
X112720226Y-39987937D01*
X112889744Y-40101205D01*
X113078102Y-40179226D01*
X113278061Y-40219000D01*
X113481939Y-40219000D01*
X113681898Y-40179226D01*
X113870256Y-40101205D01*
X114039774Y-39987937D01*
X114118711Y-39909000D01*
X114885609Y-39909000D01*
X114924774Y-40105898D01*
X115002795Y-40294256D01*
X115116063Y-40463774D01*
X115260226Y-40607937D01*
X115429744Y-40721205D01*
X115618102Y-40799226D01*
X115818061Y-40839000D01*
X116021939Y-40839000D01*
X116221898Y-40799226D01*
X116410256Y-40721205D01*
X116579774Y-40607937D01*
X116723937Y-40463774D01*
X116830026Y-40305000D01*
X117425609Y-40305000D01*
X117464774Y-40501898D01*
X117542795Y-40690256D01*
X117656063Y-40859774D01*
X117800226Y-41003937D01*
X117969744Y-41117205D01*
X118158102Y-41195226D01*
X118358061Y-41235000D01*
X118561939Y-41235000D01*
X118761898Y-41195226D01*
X118950256Y-41117205D01*
X119119774Y-41003937D01*
X119263937Y-40859774D01*
X119377205Y-40690256D01*
X119408373Y-40615010D01*
X119965609Y-40615010D01*
X120004774Y-40811908D01*
X120082795Y-41000266D01*
X120196063Y-41169784D01*
X120340226Y-41313947D01*
X120509744Y-41427215D01*
X120698102Y-41505236D01*
X120898061Y-41545010D01*
X121101939Y-41545010D01*
X121301898Y-41505236D01*
X121490256Y-41427215D01*
X121659774Y-41313947D01*
X121803937Y-41169784D01*
X121917205Y-41000266D01*
X121948373Y-40925020D01*
X133973296Y-40925020D01*
X135299329Y-42251054D01*
X135229759Y-42355173D01*
X134602114Y-41727528D01*
X134579414Y-41699868D01*
X134469019Y-41609269D01*
X134343070Y-41541947D01*
X134206407Y-41500491D01*
X134099889Y-41490000D01*
X134099879Y-41490000D01*
X134064282Y-41486494D01*
X134028685Y-41490000D01*
X129897393Y-41490000D01*
X129790875Y-41500491D01*
X129776011Y-41505000D01*
X124293711Y-41505000D01*
X124199774Y-41411063D01*
X124030256Y-41297795D01*
X123841898Y-41219774D01*
X123641939Y-41180000D01*
X123438061Y-41180000D01*
X123238102Y-41219774D01*
X123049744Y-41297795D01*
X122880226Y-41411063D01*
X122736063Y-41555226D01*
X122622795Y-41724744D01*
X122544774Y-41913102D01*
X122505000Y-42113061D01*
X122505000Y-42316939D01*
X122544774Y-42516898D01*
X122622795Y-42705256D01*
X122736063Y-42874774D01*
X122880226Y-43018937D01*
X123049744Y-43132205D01*
X123238102Y-43210226D01*
X123438061Y-43250000D01*
X123641939Y-43250000D01*
X123841898Y-43210226D01*
X124030256Y-43132205D01*
X124199774Y-43018937D01*
X124293711Y-42925000D01*
X125045000Y-42925000D01*
X125045000Y-42941939D01*
X125084774Y-43141898D01*
X125162795Y-43330256D01*
X125276063Y-43499774D01*
X125420226Y-43643937D01*
X125589744Y-43757205D01*
X125778102Y-43835226D01*
X125978061Y-43875000D01*
X126181939Y-43875000D01*
X126381898Y-43835226D01*
X126570256Y-43757205D01*
X126739774Y-43643937D01*
X126833711Y-43550000D01*
X127543011Y-43550000D01*
X127557875Y-43554509D01*
X127585000Y-43557181D01*
X127585000Y-43566939D01*
X127624774Y-43766898D01*
X127702795Y-43955256D01*
X127816063Y-44124774D01*
X127960226Y-44268937D01*
X128129744Y-44382205D01*
X128318102Y-44460226D01*
X128518061Y-44500000D01*
X128721939Y-44500000D01*
X128921898Y-44460226D01*
X129110256Y-44382205D01*
X129279774Y-44268937D01*
X129373711Y-44175000D01*
X130125000Y-44175000D01*
X130125000Y-44191939D01*
X130164774Y-44391898D01*
X130242795Y-44580256D01*
X130356063Y-44749774D01*
X130500226Y-44893937D01*
X130669744Y-45007205D01*
X130858102Y-45085226D01*
X131058061Y-45125000D01*
X131261939Y-45125000D01*
X131461898Y-45085226D01*
X131650256Y-45007205D01*
X131819774Y-44893937D01*
X131913711Y-44800000D01*
X132665000Y-44800000D01*
X132665000Y-44816939D01*
X132704774Y-45016898D01*
X132782795Y-45205256D01*
X132896063Y-45374774D01*
X133040226Y-45518937D01*
X133209744Y-45632205D01*
X133398102Y-45710226D01*
X133598061Y-45750000D01*
X133801939Y-45750000D01*
X134001898Y-45710226D01*
X134190256Y-45632205D01*
X134359774Y-45518937D01*
X134445048Y-45433663D01*
X134509393Y-45440000D01*
X134510298Y-45440000D01*
X136100293Y-47029996D01*
X136100289Y-47030000D01*
X108484092Y-47030000D01*
X108095000Y-46640909D01*
X108095000Y-46508061D01*
X108055226Y-46308102D01*
X107977205Y-46119744D01*
X107863937Y-45950226D01*
X107719774Y-45806063D01*
X107550256Y-45692795D01*
X107361898Y-45614774D01*
X107161939Y-45575000D01*
X106958061Y-45575000D01*
X106758102Y-45614774D01*
X106569744Y-45692795D01*
X106400226Y-45806063D01*
X106256063Y-45950226D01*
X106142795Y-46119744D01*
X106064774Y-46308102D01*
X106025000Y-46508061D01*
X106025000Y-46711939D01*
X106064774Y-46911898D01*
X106142795Y-47100256D01*
X106256063Y-47269774D01*
X106400226Y-47413937D01*
X106569744Y-47527205D01*
X106758102Y-47605226D01*
X106958061Y-47645000D01*
X107090909Y-47645000D01*
X107663292Y-48217384D01*
X107685525Y-48244475D01*
X107793637Y-48333200D01*
X107916980Y-48399128D01*
X108050816Y-48439727D01*
X108155123Y-48450000D01*
X108155124Y-48450000D01*
X108189999Y-48453435D01*
X108224874Y-48450000D01*
X109368538Y-48450000D01*
X109355000Y-48518061D01*
X109355000Y-48721939D01*
X109394774Y-48921898D01*
X109472795Y-49110256D01*
X109586063Y-49279774D01*
X109730226Y-49423937D01*
X109899744Y-49537205D01*
X110088102Y-49615226D01*
X110288061Y-49655000D01*
X110491939Y-49655000D01*
X110691898Y-49615226D01*
X110880256Y-49537205D01*
X111042795Y-49428600D01*
X111025000Y-49518061D01*
X111025000Y-49721939D01*
X111064774Y-49921898D01*
X111142795Y-50110256D01*
X111256063Y-50279774D01*
X111400226Y-50423937D01*
X111569744Y-50537205D01*
X111758102Y-50615226D01*
X111958061Y-50655000D01*
X112161939Y-50655000D01*
X112361898Y-50615226D01*
X112550256Y-50537205D01*
X112719774Y-50423937D01*
X112789892Y-50353819D01*
X113679822Y-50353819D01*
X113675000Y-50378061D01*
X113675000Y-50581939D01*
X113714774Y-50781898D01*
X113792795Y-50970256D01*
X113821010Y-51012483D01*
X113802795Y-51039744D01*
X113724774Y-51228102D01*
X113685000Y-51428061D01*
X113685000Y-51631939D01*
X113724774Y-51831898D01*
X113802795Y-52020256D01*
X113916063Y-52189774D01*
X114060226Y-52333937D01*
X114229744Y-52447205D01*
X114418102Y-52525226D01*
X114618061Y-52565000D01*
X114821939Y-52565000D01*
X115021898Y-52525226D01*
X115210256Y-52447205D01*
X115379774Y-52333937D01*
X115468711Y-52245000D01*
X115545445Y-52245000D01*
X115515000Y-52398061D01*
X115515000Y-52601939D01*
X115554774Y-52801898D01*
X115632795Y-52990256D01*
X115746063Y-53159774D01*
X115890226Y-53303937D01*
X116059744Y-53417205D01*
X116248102Y-53495226D01*
X116448061Y-53535000D01*
X116651939Y-53535000D01*
X116851898Y-53495226D01*
X117040256Y-53417205D01*
X117209774Y-53303937D01*
X117288711Y-53225000D01*
X118055000Y-53225000D01*
X118055000Y-53360513D01*
X118094774Y-53560472D01*
X118172795Y-53748830D01*
X118286063Y-53918348D01*
X118430226Y-54062511D01*
X118599744Y-54175779D01*
X118788102Y-54253800D01*
X118988061Y-54293574D01*
X119191939Y-54293574D01*
X119391898Y-54253800D01*
X119580256Y-54175779D01*
X119749774Y-54062511D01*
X119828711Y-53983574D01*
X121083795Y-53983574D01*
X121065000Y-54078064D01*
X121065000Y-54281942D01*
X121104774Y-54481901D01*
X121182795Y-54670259D01*
X121296063Y-54839777D01*
X121440226Y-54983940D01*
X121609744Y-55097208D01*
X121798102Y-55175229D01*
X121998061Y-55215003D01*
X122201939Y-55215003D01*
X122401898Y-55175229D01*
X122590256Y-55097208D01*
X122759774Y-54983940D01*
X122828711Y-54915003D01*
X124184048Y-54915003D01*
X124124774Y-55058102D01*
X124085000Y-55258061D01*
X124085000Y-55461939D01*
X124124774Y-55661898D01*
X124202795Y-55850256D01*
X124316063Y-56019774D01*
X124460226Y-56163937D01*
X124629744Y-56277205D01*
X124818102Y-56355226D01*
X125018061Y-56395000D01*
X125221939Y-56395000D01*
X125421898Y-56355226D01*
X125610256Y-56277205D01*
X125779774Y-56163937D01*
X125848711Y-56095000D01*
X126502333Y-56095000D01*
X126483870Y-56187823D01*
X126483870Y-56391701D01*
X126523644Y-56591660D01*
X126601665Y-56780018D01*
X126714933Y-56949536D01*
X126859096Y-57093699D01*
X127028614Y-57206967D01*
X127216972Y-57284988D01*
X127416931Y-57324762D01*
X127620809Y-57324762D01*
X127820768Y-57284988D01*
X128009126Y-57206967D01*
X128178644Y-57093699D01*
X128247581Y-57024762D01*
X128605547Y-57024762D01*
X128585000Y-57128061D01*
X128585000Y-57331939D01*
X128624774Y-57531898D01*
X128702795Y-57720256D01*
X128816063Y-57889774D01*
X128960226Y-58033937D01*
X129129744Y-58147205D01*
X129318102Y-58225226D01*
X129518061Y-58265000D01*
X129721939Y-58265000D01*
X129921898Y-58225226D01*
X130110256Y-58147205D01*
X130279774Y-58033937D01*
X130348711Y-57965000D01*
X131672048Y-57965000D01*
X131654961Y-58050904D01*
X131654961Y-58254782D01*
X131694735Y-58454741D01*
X131772756Y-58643099D01*
X131886024Y-58812617D01*
X132030187Y-58956780D01*
X132199705Y-59070048D01*
X132388063Y-59148069D01*
X132588022Y-59187843D01*
X132791900Y-59187843D01*
X132991859Y-59148069D01*
X133180217Y-59070048D01*
X133349735Y-58956780D01*
X133418672Y-58887843D01*
X133712132Y-58887843D01*
X133750226Y-58925937D01*
X133919744Y-59039205D01*
X134108102Y-59117226D01*
X134308061Y-59157000D01*
X134511939Y-59157000D01*
X134711898Y-59117226D01*
X134900256Y-59039205D01*
X135069774Y-58925937D01*
X135097885Y-58897826D01*
X135443053Y-58897826D01*
X135500000Y-58903435D01*
X135556947Y-58897826D01*
X137530452Y-58897826D01*
X137609389Y-58976763D01*
X137778907Y-59090031D01*
X137967265Y-59168052D01*
X138167224Y-59207826D01*
X138371102Y-59207826D01*
X138571061Y-59168052D01*
X138759419Y-59090031D01*
X138928937Y-58976763D01*
X139073100Y-58832600D01*
X139186368Y-58663082D01*
X139264389Y-58474724D01*
X139304163Y-58274765D01*
X139304163Y-58070887D01*
X139264389Y-57870928D01*
X139195930Y-57705656D01*
X139270867Y-57524744D01*
X139310641Y-57324785D01*
X139310641Y-57120907D01*
X139270867Y-56920948D01*
X139192846Y-56732590D01*
X139181535Y-56715661D01*
X139245226Y-56561898D01*
X139285000Y-56361939D01*
X139285000Y-56158061D01*
X139245226Y-55958102D01*
X139202862Y-55855827D01*
X139228586Y-55817329D01*
X139306607Y-55628971D01*
X139346381Y-55429012D01*
X139346381Y-55225134D01*
X139306607Y-55025175D01*
X139256673Y-54904625D01*
X139280641Y-54868754D01*
X139358662Y-54680396D01*
X139398436Y-54480437D01*
X139398436Y-54276559D01*
X139358662Y-54076600D01*
X139280641Y-53888242D01*
X139255840Y-53851125D01*
X139305226Y-53731898D01*
X139345000Y-53531939D01*
X139345000Y-53328061D01*
X139305226Y-53128102D01*
X139248656Y-52991532D01*
X139253739Y-52983925D01*
X139331760Y-52795567D01*
X139371534Y-52595608D01*
X139371534Y-52391730D01*
X139331760Y-52191771D01*
X139253739Y-52003413D01*
X139251589Y-52000196D01*
X139315583Y-51845703D01*
X139355357Y-51645744D01*
X139355357Y-51441866D01*
X139315583Y-51241907D01*
X139242905Y-51066448D01*
X139313630Y-50895703D01*
X139353404Y-50695744D01*
X139353404Y-50491866D01*
X139313630Y-50291907D01*
X139279282Y-50208985D01*
X145377774Y-56307477D01*
X145400470Y-56335132D01*
X145428125Y-56357828D01*
X145428127Y-56357830D01*
X145502552Y-56418909D01*
X145510865Y-56425731D01*
X145636814Y-56493053D01*
X145773477Y-56534509D01*
X145879995Y-56545000D01*
X145880002Y-56545000D01*
X145915602Y-56548506D01*
X145951202Y-56545000D01*
X146791289Y-56545000D01*
X146870226Y-56623937D01*
X147039744Y-56737205D01*
X147228102Y-56815226D01*
X147428061Y-56855000D01*
X147631939Y-56855000D01*
X147831898Y-56815226D01*
X148020256Y-56737205D01*
X148189774Y-56623937D01*
X148333937Y-56479774D01*
X148447205Y-56310256D01*
X148525226Y-56121898D01*
X148564391Y-55924999D01*
X148751288Y-55924999D01*
X148890226Y-56063937D01*
X149059744Y-56177205D01*
X149248102Y-56255226D01*
X149448061Y-56295000D01*
X149651939Y-56295000D01*
X149851898Y-56255226D01*
X150040256Y-56177205D01*
X150209774Y-56063937D01*
X150220000Y-56053711D01*
X150220000Y-60305125D01*
X150216565Y-60340000D01*
X150220000Y-60374875D01*
X150220000Y-60374876D01*
X150230273Y-60479183D01*
X150270872Y-60613019D01*
X150336800Y-60736362D01*
X150425525Y-60844474D01*
X150452617Y-60866708D01*
X153375000Y-63789092D01*
X153375000Y-63921939D01*
X153414774Y-64121898D01*
X153492795Y-64310256D01*
X153606063Y-64479774D01*
X153750226Y-64623937D01*
X153919744Y-64737205D01*
X154108102Y-64815226D01*
X154308061Y-64855000D01*
X154511939Y-64855000D01*
X154711898Y-64815226D01*
X154900256Y-64737205D01*
X155069774Y-64623937D01*
X155213937Y-64479774D01*
X155327205Y-64310256D01*
X155405226Y-64121898D01*
X155445000Y-63921939D01*
X155445000Y-63718061D01*
X155405226Y-63518102D01*
X155327205Y-63329744D01*
X155213937Y-63160226D01*
X155069774Y-63016063D01*
X154900256Y-62902795D01*
X154711898Y-62824774D01*
X154511939Y-62785000D01*
X154379092Y-62785000D01*
X151640000Y-60045909D01*
X151640000Y-58089730D01*
X151640001Y-58089741D01*
X151640001Y-58092419D01*
X151642908Y-58121938D01*
X151648521Y-58184094D01*
X151649286Y-58186691D01*
X151649551Y-58189383D01*
X151667633Y-58248989D01*
X151685249Y-58308807D01*
X151686506Y-58311205D01*
X151687291Y-58313793D01*
X151716662Y-58368742D01*
X151745601Y-58423958D01*
X151747300Y-58426063D01*
X151748576Y-58428450D01*
X151788122Y-58476637D01*
X151827259Y-58525123D01*
X151829336Y-58526856D01*
X151831053Y-58528948D01*
X151879236Y-58568491D01*
X151927083Y-58608413D01*
X151929458Y-58609708D01*
X151931551Y-58611425D01*
X151986510Y-58640801D01*
X152041238Y-58670628D01*
X152043823Y-58671435D01*
X152046208Y-58672710D01*
X152105847Y-58690802D01*
X152134243Y-58699668D01*
X152136873Y-58700213D01*
X152170618Y-58710450D01*
X152200365Y-58713380D01*
X157460422Y-59804162D01*
X157782391Y-59897350D01*
X158045297Y-60033291D01*
X158276785Y-60217701D01*
X158468047Y-60443567D01*
X158611800Y-60702285D01*
X158702558Y-60983986D01*
X158740000Y-61304749D01*
X158740001Y-117130595D01*
X158714899Y-117105493D01*
X158601322Y-117219070D01*
X158295141Y-116775497D01*
X157707694Y-116460046D01*
X157069992Y-116265260D01*
X156406543Y-116198628D01*
X155742842Y-116262708D01*
X155104395Y-116455038D01*
X154515738Y-116768228D01*
X154504859Y-116775497D01*
X154198677Y-117219072D01*
X156400000Y-119420395D01*
X156414143Y-119406253D01*
X156593748Y-119585858D01*
X156579605Y-119600000D01*
X156593748Y-119614143D01*
X156414143Y-119793748D01*
X156400000Y-119779605D01*
X154198677Y-121980928D01*
X154504859Y-122424503D01*
X154719943Y-122540000D01*
X93680842Y-122540000D01*
X93884262Y-122431772D01*
X93895141Y-122424503D01*
X94201323Y-121980928D01*
X92000000Y-119779605D01*
X89798677Y-121980928D01*
X90104859Y-122424503D01*
X90319943Y-122540000D01*
X89560000Y-122540000D01*
X89560000Y-121760548D01*
X89619072Y-121801323D01*
X91820395Y-119600000D01*
X92179605Y-119600000D01*
X94380928Y-121801323D01*
X94824503Y-121495141D01*
X95139954Y-120907694D01*
X95334740Y-120269992D01*
X95401372Y-119606543D01*
X95400109Y-119593457D01*
X152998628Y-119593457D01*
X153062708Y-120257158D01*
X153255038Y-120895605D01*
X153568228Y-121484262D01*
X153575497Y-121495141D01*
X154019072Y-121801323D01*
X156220395Y-119600000D01*
X154019072Y-117398677D01*
X153575497Y-117704859D01*
X153260046Y-118292306D01*
X153065260Y-118930008D01*
X152998628Y-119593457D01*
X95400109Y-119593457D01*
X95337292Y-118942842D01*
X95144962Y-118304395D01*
X94831772Y-117715738D01*
X94824503Y-117704859D01*
X94380928Y-117398677D01*
X92179605Y-119600000D01*
X91820395Y-119600000D01*
X89619072Y-117398677D01*
X89560000Y-117439452D01*
X89560000Y-117219072D01*
X89798677Y-117219072D01*
X92000000Y-119420395D01*
X94201323Y-117219072D01*
X93895141Y-116775497D01*
X93307694Y-116460046D01*
X92669992Y-116265260D01*
X92006543Y-116198628D01*
X91342842Y-116262708D01*
X90704395Y-116455038D01*
X90115738Y-116768228D01*
X90104859Y-116775497D01*
X89798677Y-117219072D01*
X89560000Y-117219072D01*
X89560000Y-94218061D01*
X146195000Y-94218061D01*
X146195000Y-94421939D01*
X146234774Y-94621898D01*
X146312795Y-94810256D01*
X146426063Y-94979774D01*
X146570226Y-95123937D01*
X146739744Y-95237205D01*
X146928102Y-95315226D01*
X147128061Y-95355000D01*
X147331939Y-95355000D01*
X147531898Y-95315226D01*
X147720256Y-95237205D01*
X147889774Y-95123937D01*
X147983711Y-95030000D01*
X148385125Y-95030000D01*
X148420000Y-95033435D01*
X148434999Y-95031958D01*
X148434999Y-95041940D01*
X148474773Y-95241899D01*
X148552794Y-95430257D01*
X148666062Y-95599775D01*
X148810225Y-95743938D01*
X148979743Y-95857206D01*
X149168101Y-95935227D01*
X149368060Y-95975001D01*
X149571938Y-95975001D01*
X149771897Y-95935227D01*
X149960255Y-95857206D01*
X150129773Y-95743938D01*
X150273936Y-95599775D01*
X150387204Y-95430257D01*
X150465225Y-95241899D01*
X150504999Y-95041940D01*
X150504999Y-94838062D01*
X150465225Y-94638103D01*
X150387204Y-94449745D01*
X150273936Y-94280227D01*
X150194999Y-94201290D01*
X150194999Y-91436598D01*
X150388061Y-91475000D01*
X150591939Y-91475000D01*
X150791898Y-91435226D01*
X150980256Y-91357205D01*
X151149774Y-91243937D01*
X151293937Y-91099774D01*
X151407205Y-90930256D01*
X151485226Y-90741898D01*
X151525000Y-90541939D01*
X151525000Y-90338061D01*
X151485226Y-90138102D01*
X151407205Y-89949744D01*
X151293937Y-89780226D01*
X151200000Y-89686289D01*
X151200000Y-81924875D01*
X151203435Y-81890000D01*
X151198018Y-81835000D01*
X151189727Y-81750816D01*
X151149128Y-81616980D01*
X151083200Y-81493637D01*
X150994475Y-81385525D01*
X150967379Y-81363288D01*
X148870000Y-79265909D01*
X148870000Y-78173711D01*
X148963937Y-78079774D01*
X149077205Y-77910256D01*
X149155226Y-77721898D01*
X149195000Y-77521939D01*
X149195000Y-77318061D01*
X149155226Y-77118102D01*
X149077205Y-76929744D01*
X148963937Y-76760226D01*
X148819774Y-76616063D01*
X148650256Y-76502795D01*
X148461898Y-76424774D01*
X148261939Y-76385000D01*
X148058061Y-76385000D01*
X147858102Y-76424774D01*
X147669744Y-76502795D01*
X147500226Y-76616063D01*
X147356063Y-76760226D01*
X147242795Y-76929744D01*
X147164774Y-77118102D01*
X147125000Y-77318061D01*
X147125000Y-77521939D01*
X147164774Y-77721898D01*
X147242795Y-77910256D01*
X147356063Y-78079774D01*
X147450001Y-78173712D01*
X147450000Y-79525125D01*
X147446565Y-79560000D01*
X147450000Y-79594875D01*
X147450000Y-79594876D01*
X147460273Y-79699183D01*
X147500872Y-79833019D01*
X147566800Y-79956362D01*
X147655525Y-80064474D01*
X147682617Y-80086708D01*
X149780001Y-82184092D01*
X149780000Y-86276289D01*
X149729774Y-86226063D01*
X149560256Y-86112795D01*
X149371898Y-86034774D01*
X149171939Y-85995000D01*
X148968061Y-85995000D01*
X148768102Y-86034774D01*
X148579744Y-86112795D01*
X148410226Y-86226063D01*
X148266063Y-86370226D01*
X148152795Y-86539744D01*
X148074774Y-86728102D01*
X148035000Y-86928061D01*
X148035000Y-87131939D01*
X148074774Y-87331898D01*
X148152795Y-87520256D01*
X148266063Y-87689774D01*
X148360001Y-87783712D01*
X148360000Y-93375909D01*
X148125909Y-93610000D01*
X147983711Y-93610000D01*
X147889774Y-93516063D01*
X147720256Y-93402795D01*
X147531898Y-93324774D01*
X147331939Y-93285000D01*
X147128061Y-93285000D01*
X146928102Y-93324774D01*
X146739744Y-93402795D01*
X146570226Y-93516063D01*
X146426063Y-93660226D01*
X146312795Y-93829744D01*
X146234774Y-94018102D01*
X146195000Y-94218061D01*
X89560000Y-94218061D01*
X89560000Y-61768061D01*
X148655000Y-61768061D01*
X148655000Y-61971939D01*
X148694774Y-62171898D01*
X148772795Y-62360256D01*
X148886063Y-62529774D01*
X148980000Y-62623711D01*
X148980000Y-63295125D01*
X148976565Y-63330000D01*
X148980000Y-63364875D01*
X148980000Y-63364876D01*
X148990273Y-63469183D01*
X149030872Y-63603019D01*
X149096800Y-63726362D01*
X149185525Y-63834474D01*
X149212617Y-63856708D01*
X153395000Y-68039092D01*
X153395000Y-68109990D01*
X152143721Y-68109990D01*
X152049784Y-68016053D01*
X151880266Y-67902785D01*
X151691908Y-67824764D01*
X151491949Y-67784990D01*
X151288071Y-67784990D01*
X151088112Y-67824764D01*
X150899754Y-67902785D01*
X150730236Y-68016053D01*
X150586073Y-68160216D01*
X150472805Y-68329734D01*
X150394784Y-68518092D01*
X150355010Y-68718051D01*
X150355010Y-68921929D01*
X150379919Y-69047158D01*
X150269744Y-69092795D01*
X150100226Y-69206063D01*
X149956063Y-69350226D01*
X149842795Y-69519744D01*
X149764774Y-69708102D01*
X149725000Y-69908061D01*
X149725000Y-70111939D01*
X149764774Y-70311898D01*
X149822743Y-70451847D01*
X149699744Y-70502795D01*
X149530226Y-70616063D01*
X149386063Y-70760226D01*
X149272795Y-70929744D01*
X149194774Y-71118102D01*
X149155000Y-71318061D01*
X149155000Y-71521939D01*
X149194774Y-71721898D01*
X149272795Y-71910256D01*
X149386063Y-72079774D01*
X149530226Y-72223937D01*
X149675890Y-72321266D01*
X149664774Y-72348102D01*
X149625000Y-72548061D01*
X149625000Y-72751939D01*
X149664774Y-72951898D01*
X149742795Y-73140256D01*
X149856063Y-73309774D01*
X150000226Y-73453937D01*
X150169744Y-73567205D01*
X150358102Y-73645226D01*
X150558061Y-73685000D01*
X150761939Y-73685000D01*
X150961898Y-73645226D01*
X151150256Y-73567205D01*
X151319774Y-73453937D01*
X151393711Y-73380000D01*
X151926300Y-73380000D01*
X151950000Y-73403700D01*
X151950001Y-78885115D01*
X151946565Y-78920000D01*
X151960274Y-79059184D01*
X152000872Y-79193019D01*
X152000873Y-79193020D01*
X152066801Y-79316363D01*
X152155526Y-79424475D01*
X152182617Y-79446708D01*
X153505000Y-80769092D01*
X153505000Y-80901939D01*
X153544774Y-81101898D01*
X153622795Y-81290256D01*
X153736063Y-81459774D01*
X153880226Y-81603937D01*
X154049744Y-81717205D01*
X154238102Y-81795226D01*
X154438061Y-81835000D01*
X154641939Y-81835000D01*
X154841898Y-81795226D01*
X155030256Y-81717205D01*
X155199774Y-81603937D01*
X155343937Y-81459774D01*
X155457205Y-81290256D01*
X155535226Y-81101898D01*
X155575000Y-80901939D01*
X155575000Y-80698061D01*
X155535226Y-80498102D01*
X155457205Y-80309744D01*
X155343937Y-80140226D01*
X155199774Y-79996063D01*
X155030256Y-79882795D01*
X154841898Y-79804774D01*
X154641939Y-79765000D01*
X154509092Y-79765000D01*
X153370000Y-78625909D01*
X153370000Y-76414091D01*
X153545000Y-76589091D01*
X153545000Y-76721939D01*
X153584774Y-76921898D01*
X153662795Y-77110256D01*
X153776063Y-77279774D01*
X153920226Y-77423937D01*
X154089744Y-77537205D01*
X154278102Y-77615226D01*
X154478061Y-77655000D01*
X154681939Y-77655000D01*
X154881898Y-77615226D01*
X155070256Y-77537205D01*
X155239774Y-77423937D01*
X155383937Y-77279774D01*
X155497205Y-77110256D01*
X155575226Y-76921898D01*
X155615000Y-76721939D01*
X155615000Y-76518061D01*
X155575226Y-76318102D01*
X155497205Y-76129744D01*
X155383937Y-75960226D01*
X155239774Y-75816063D01*
X155070256Y-75702795D01*
X154881898Y-75624774D01*
X154681939Y-75585000D01*
X154549091Y-75585000D01*
X154260000Y-75295909D01*
X154260000Y-73393586D01*
X154288102Y-73405226D01*
X154488061Y-73445000D01*
X154691939Y-73445000D01*
X154891898Y-73405226D01*
X155080256Y-73327205D01*
X155249774Y-73213937D01*
X155393937Y-73069774D01*
X155507205Y-72900256D01*
X155585226Y-72711898D01*
X155625000Y-72511939D01*
X155625000Y-72308061D01*
X155585226Y-72108102D01*
X155507205Y-71919744D01*
X155393937Y-71750226D01*
X155300000Y-71656289D01*
X155300000Y-69624877D01*
X155303435Y-69590000D01*
X155289727Y-69450815D01*
X155249128Y-69316980D01*
X155195342Y-69216353D01*
X155183200Y-69193637D01*
X155094475Y-69085525D01*
X155067379Y-69063288D01*
X154962841Y-68958750D01*
X155089774Y-68873937D01*
X155233937Y-68729774D01*
X155347205Y-68560256D01*
X155425226Y-68371898D01*
X155465000Y-68171939D01*
X155465000Y-67968061D01*
X155425226Y-67768102D01*
X155347205Y-67579744D01*
X155233937Y-67410226D01*
X155089774Y-67266063D01*
X154920256Y-67152795D01*
X154731898Y-67074774D01*
X154531939Y-67035000D01*
X154399092Y-67035000D01*
X150400000Y-63035909D01*
X150400000Y-62623711D01*
X150493937Y-62529774D01*
X150607205Y-62360256D01*
X150685226Y-62171898D01*
X150725000Y-61971939D01*
X150725000Y-61768061D01*
X150685226Y-61568102D01*
X150607205Y-61379744D01*
X150493937Y-61210226D01*
X150349774Y-61066063D01*
X150180256Y-60952795D01*
X149991898Y-60874774D01*
X149791939Y-60835000D01*
X149588061Y-60835000D01*
X149388102Y-60874774D01*
X149199744Y-60952795D01*
X149030226Y-61066063D01*
X148886063Y-61210226D01*
X148772795Y-61379744D01*
X148694774Y-61568102D01*
X148655000Y-61768061D01*
X89560000Y-61768061D01*
X89560000Y-31380928D01*
X89798677Y-31380928D01*
X90104859Y-31824503D01*
X90692306Y-32139954D01*
X91330008Y-32334740D01*
X91993457Y-32401372D01*
X92657158Y-32337292D01*
X93295605Y-32144962D01*
X93884262Y-31831772D01*
X93895141Y-31824503D01*
X94201323Y-31380928D01*
X92000000Y-29179605D01*
X89798677Y-31380928D01*
X89560000Y-31380928D01*
X89560000Y-31160548D01*
X89619072Y-31201323D01*
X91820395Y-29000000D01*
X92179605Y-29000000D01*
X94380928Y-31201323D01*
X94824503Y-30895141D01*
X95139954Y-30307694D01*
X95334740Y-29669992D01*
X95401372Y-29006543D01*
X95400109Y-28993457D01*
X152798628Y-28993457D01*
X152862708Y-29657158D01*
X153055038Y-30295605D01*
X153368228Y-30884262D01*
X153375497Y-30895141D01*
X153819072Y-31201323D01*
X156020395Y-29000000D01*
X153819072Y-26798677D01*
X153375497Y-27104859D01*
X153060046Y-27692306D01*
X152865260Y-28330008D01*
X152798628Y-28993457D01*
X95400109Y-28993457D01*
X95337292Y-28342842D01*
X95144962Y-27704395D01*
X94831772Y-27115738D01*
X94824503Y-27104859D01*
X94380928Y-26798677D01*
X92179605Y-29000000D01*
X91820395Y-29000000D01*
X89619072Y-26798677D01*
X89560000Y-26839452D01*
X89560000Y-26060000D01*
X90319158Y-26060000D01*
X90115738Y-26168228D01*
G36*
X149578061Y-47585000D02*
G01*
X149710909Y-47585000D01*
X150220001Y-48094093D01*
X150220001Y-48752170D01*
X150033502Y-48674919D01*
X149833543Y-48635145D01*
X149629665Y-48635145D01*
X149509839Y-48658980D01*
X149398473Y-48599453D01*
X149266522Y-48559426D01*
X149163688Y-48549298D01*
X149163685Y-48549298D01*
X149129298Y-48545911D01*
X149094911Y-48549298D01*
X147664391Y-48549298D01*
X147625226Y-48352400D01*
X147555360Y-48183730D01*
X147789090Y-47950000D01*
X147921938Y-47950000D01*
X148076348Y-47919286D01*
X148085516Y-47930458D01*
X148112608Y-47952692D01*
X148276636Y-48116719D01*
X148357657Y-48183210D01*
X148481001Y-48249139D01*
X148614835Y-48289737D01*
X148754020Y-48303445D01*
X148893204Y-48289736D01*
X149027039Y-48249137D01*
X149150383Y-48183208D01*
X149258494Y-48094483D01*
X149347218Y-47986372D01*
X149413147Y-47863027D01*
X149453745Y-47729192D01*
X149467453Y-47590007D01*
X149464740Y-47562459D01*
X149578061Y-47585000D01*
X149578061Y-47585000D01*
G37*
X149578061Y-47585000D02*
X149710909Y-47585000D01*
X150220001Y-48094093D01*
X150220001Y-48752170D01*
X150033502Y-48674919D01*
X149833543Y-48635145D01*
X149629665Y-48635145D01*
X149509839Y-48658980D01*
X149398473Y-48599453D01*
X149266522Y-48559426D01*
X149163688Y-48549298D01*
X149163685Y-48549298D01*
X149129298Y-48545911D01*
X149094911Y-48549298D01*
X147664391Y-48549298D01*
X147625226Y-48352400D01*
X147555360Y-48183730D01*
X147789090Y-47950000D01*
X147921938Y-47950000D01*
X148076348Y-47919286D01*
X148085516Y-47930458D01*
X148112608Y-47952692D01*
X148276636Y-48116719D01*
X148357657Y-48183210D01*
X148481001Y-48249139D01*
X148614835Y-48289737D01*
X148754020Y-48303445D01*
X148893204Y-48289736D01*
X149027039Y-48249137D01*
X149150383Y-48183208D01*
X149258494Y-48094483D01*
X149347218Y-47986372D01*
X149413147Y-47863027D01*
X149453745Y-47729192D01*
X149467453Y-47590007D01*
X149464740Y-47562459D01*
X149578061Y-47585000D01*
M02*
