M48
; DRILL file {KiCad (5.1.4)-1} date 2019/11/27 0:03:00
; FORMAT={-:-/ absolute / metric / decimal}
; #@! TF.CreationDate,2019-11-27T00:03:00+08:00
; #@! TF.GenerationSoftware,Kicad,Pcbnew,(5.1.4)-1
; #@! TF.FileFunction,Plated,1,2,PTH
FMAT,2
METRIC
T1C0.400
T2C3.200
%
G90
G05
T1
X105.76Y-37.84
X107.06Y-46.61
X108.3Y-38.465
X110.39Y-48.62
X110.84Y-39.09
X112.06Y-49.62
X113.38Y-39.715
X114.71Y-50.48
X115.92Y-40.34
X117.29Y-51.52
X118.46Y-40.965
X119.635Y-52.505
X121.0Y-41.59
X122.1Y-53.25
X123.54Y-42.215
X125.11Y-54.16
X126.08Y-42.84
X127.54Y-55.36
X128.62Y-43.465
X129.62Y-56.22
X131.16Y-44.09
X132.693Y-57.223
X133.7Y-44.715
X135.5Y-58.19
X137.587Y-40.553
X138.25Y-56.26
X138.269Y-58.173
X138.276Y-57.223
X138.296Y-48.694
X138.31Y-53.43
X138.311Y-55.327
X138.318Y-50.594
X138.32Y-51.544
X138.324Y-49.644
X138.337Y-52.494
X138.345Y-47.745
X138.363Y-54.378
X138.72Y-41.26
X139.67Y-91.48
X139.9Y-41.7
X140.709Y-42.341
X143.55Y-74.31
X144.35Y-43.86
X145.09Y-35.71
X145.57Y-40.95
X146.59Y-45.42
X146.67Y-47.3
X147.01Y-43.35
X147.23Y-94.32
X147.24Y-87.43
X147.284Y-44.771
X147.73Y-55.11
X147.74Y-48.615
X147.74Y-49.91
X147.75Y-52.5
X147.77Y-51.22
X147.77Y-53.82
X147.84Y-46.02
X148.16Y-77.42
X149.07Y-87.03
X149.53Y-47.96
X149.56Y-49.24
X149.56Y-51.87
X149.57Y-50.57
X149.58Y-53.15
X149.58Y-54.47
X149.64Y-44.68
X149.69Y-61.87
X149.722Y-45.958
X149.8Y-41.42
X150.19Y-71.42
X150.49Y-90.44
X150.66Y-72.65
X150.76Y-70.01
X151.12Y-78.46
X151.39Y-68.82
X152.35Y-71.42
X152.65Y-72.64
X153.49Y-69.98
X154.41Y-63.82
X154.43Y-68.07
X154.54Y-80.8
X154.58Y-76.62
X154.59Y-72.41
T2
X92.0Y-29.0
X156.4Y-119.6
X156.2Y-29.0
X92.0Y-119.6
T0
M30
