G04 #@! TF.GenerationSoftware,KiCad,Pcbnew,(5.1.4)-1*
G04 #@! TF.CreationDate,2019-12-24T12:05:13+08:00*
G04 #@! TF.ProjectId,FH26W-45S-0.3SHW,46483236-572d-4343-9553-2d302e335348,rev?*
G04 #@! TF.SameCoordinates,Original*
G04 #@! TF.FileFunction,Soldermask,Bot*
G04 #@! TF.FilePolarity,Negative*
%FSLAX46Y46*%
G04 Gerber Fmt 4.6, Leading zero omitted, Abs format (unit mm)*
G04 Created by KiCad (PCBNEW (5.1.4)-1) date 2019-12-24 12:05:13*
%MOMM*%
%LPD*%
G04 APERTURE LIST*
%ADD10C,0.100000*%
G04 APERTURE END LIST*
D10*
G36*
X150087021Y-123256640D02*
G01*
X150596769Y-123467785D01*
X150596771Y-123467786D01*
X151055534Y-123774321D01*
X151445679Y-124164466D01*
X151718805Y-124573229D01*
X151752215Y-124623231D01*
X151963360Y-125132979D01*
X152071000Y-125674124D01*
X152071000Y-126225876D01*
X151963360Y-126767021D01*
X151772926Y-127226769D01*
X151752214Y-127276771D01*
X151445679Y-127735534D01*
X151055534Y-128125679D01*
X150596771Y-128432214D01*
X150596770Y-128432215D01*
X150596769Y-128432215D01*
X150087021Y-128643360D01*
X149545876Y-128751000D01*
X148994124Y-128751000D01*
X148452979Y-128643360D01*
X147943231Y-128432215D01*
X147943230Y-128432215D01*
X147943229Y-128432214D01*
X147484466Y-128125679D01*
X147094321Y-127735534D01*
X146787786Y-127276771D01*
X146767074Y-127226769D01*
X146576640Y-126767021D01*
X146469000Y-126225876D01*
X146469000Y-125674124D01*
X146576640Y-125132979D01*
X146787785Y-124623231D01*
X146821195Y-124573229D01*
X147094321Y-124164466D01*
X147484466Y-123774321D01*
X147943229Y-123467786D01*
X147943231Y-123467785D01*
X148452979Y-123256640D01*
X148994124Y-123149000D01*
X149545876Y-123149000D01*
X150087021Y-123256640D01*
X150087021Y-123256640D01*
G37*
G36*
X99817021Y-123206640D02*
G01*
X100326769Y-123417785D01*
X100326771Y-123417786D01*
X100785534Y-123724321D01*
X101175679Y-124114466D01*
X101482214Y-124573229D01*
X101482215Y-124573231D01*
X101693360Y-125082979D01*
X101801000Y-125624124D01*
X101801000Y-126175876D01*
X101693360Y-126717021D01*
X101482215Y-127226769D01*
X101482214Y-127226771D01*
X101175679Y-127685534D01*
X100785534Y-128075679D01*
X100326771Y-128382214D01*
X100326770Y-128382215D01*
X100326769Y-128382215D01*
X99817021Y-128593360D01*
X99275876Y-128701000D01*
X98724124Y-128701000D01*
X98182979Y-128593360D01*
X97673231Y-128382215D01*
X97673230Y-128382215D01*
X97673229Y-128382214D01*
X97214466Y-128075679D01*
X96824321Y-127685534D01*
X96517786Y-127226771D01*
X96517785Y-127226769D01*
X96306640Y-126717021D01*
X96199000Y-126175876D01*
X96199000Y-125624124D01*
X96306640Y-125082979D01*
X96517785Y-124573231D01*
X96517786Y-124573229D01*
X96824321Y-124114466D01*
X97214466Y-123724321D01*
X97673229Y-123417786D01*
X97673231Y-123417785D01*
X98182979Y-123206640D01*
X98724124Y-123099000D01*
X99275876Y-123099000D01*
X99817021Y-123206640D01*
X99817021Y-123206640D01*
G37*
G36*
X149251000Y-105451000D02*
G01*
X146649000Y-105451000D01*
X146649000Y-102849000D01*
X149251000Y-102849000D01*
X149251000Y-105451000D01*
X149251000Y-105451000D01*
G37*
G36*
X149251000Y-101291000D02*
G01*
X146649000Y-101291000D01*
X146649000Y-98689000D01*
X149251000Y-98689000D01*
X149251000Y-101291000D01*
X149251000Y-101291000D01*
G37*
G36*
X151844499Y-92838445D02*
G01*
X151881995Y-92849820D01*
X151916554Y-92868292D01*
X151946847Y-92893153D01*
X151971708Y-92923446D01*
X151990180Y-92958005D01*
X152001555Y-92995501D01*
X152006000Y-93040638D01*
X152006000Y-93779362D01*
X152001555Y-93824499D01*
X151990180Y-93861995D01*
X151971708Y-93896554D01*
X151946847Y-93926847D01*
X151916554Y-93951708D01*
X151881995Y-93970180D01*
X151844499Y-93981555D01*
X151799362Y-93986000D01*
X151160638Y-93986000D01*
X151115501Y-93981555D01*
X151078005Y-93970180D01*
X151043446Y-93951708D01*
X151013153Y-93926847D01*
X150988292Y-93896554D01*
X150969820Y-93861995D01*
X150958445Y-93824499D01*
X150954000Y-93779362D01*
X150954000Y-93040638D01*
X150958445Y-92995501D01*
X150969820Y-92958005D01*
X150988292Y-92923446D01*
X151013153Y-92893153D01*
X151043446Y-92868292D01*
X151078005Y-92849820D01*
X151115501Y-92838445D01*
X151160638Y-92834000D01*
X151799362Y-92834000D01*
X151844499Y-92838445D01*
X151844499Y-92838445D01*
G37*
G36*
X150284499Y-92828445D02*
G01*
X150321995Y-92839820D01*
X150356554Y-92858292D01*
X150386847Y-92883153D01*
X150411708Y-92913446D01*
X150430180Y-92948005D01*
X150441555Y-92985501D01*
X150446000Y-93030638D01*
X150446000Y-93769362D01*
X150441555Y-93814499D01*
X150430180Y-93851995D01*
X150411708Y-93886554D01*
X150386847Y-93916847D01*
X150356554Y-93941708D01*
X150321995Y-93960180D01*
X150284499Y-93971555D01*
X150239362Y-93976000D01*
X149600638Y-93976000D01*
X149555501Y-93971555D01*
X149518005Y-93960180D01*
X149483446Y-93941708D01*
X149453153Y-93916847D01*
X149428292Y-93886554D01*
X149409820Y-93851995D01*
X149398445Y-93814499D01*
X149394000Y-93769362D01*
X149394000Y-93030638D01*
X149398445Y-92985501D01*
X149409820Y-92948005D01*
X149428292Y-92913446D01*
X149453153Y-92883153D01*
X149483446Y-92858292D01*
X149518005Y-92839820D01*
X149555501Y-92828445D01*
X149600638Y-92824000D01*
X150239362Y-92824000D01*
X150284499Y-92828445D01*
X150284499Y-92828445D01*
G37*
G36*
X148566000Y-93951000D02*
G01*
X145914000Y-93951000D01*
X145914000Y-92289000D01*
X148566000Y-92289000D01*
X148566000Y-93951000D01*
X148566000Y-93951000D01*
G37*
G36*
X141114499Y-92658445D02*
G01*
X141151995Y-92669820D01*
X141186554Y-92688292D01*
X141216847Y-92713153D01*
X141241708Y-92743446D01*
X141260180Y-92778005D01*
X141271555Y-92815501D01*
X141276000Y-92860638D01*
X141276000Y-93599362D01*
X141271555Y-93644499D01*
X141260180Y-93681995D01*
X141241708Y-93716554D01*
X141216847Y-93746847D01*
X141186554Y-93771708D01*
X141151995Y-93790180D01*
X141114499Y-93801555D01*
X141069362Y-93806000D01*
X140430638Y-93806000D01*
X140385501Y-93801555D01*
X140348005Y-93790180D01*
X140313446Y-93771708D01*
X140283153Y-93746847D01*
X140258292Y-93716554D01*
X140239820Y-93681995D01*
X140228445Y-93644499D01*
X140224000Y-93599362D01*
X140224000Y-92860638D01*
X140228445Y-92815501D01*
X140239820Y-92778005D01*
X140258292Y-92743446D01*
X140283153Y-92713153D01*
X140313446Y-92688292D01*
X140348005Y-92669820D01*
X140385501Y-92658445D01*
X140430638Y-92654000D01*
X141069362Y-92654000D01*
X141114499Y-92658445D01*
X141114499Y-92658445D01*
G37*
G36*
X139294499Y-92648445D02*
G01*
X139331995Y-92659820D01*
X139366554Y-92678292D01*
X139396847Y-92703153D01*
X139421708Y-92733446D01*
X139440180Y-92768005D01*
X139451555Y-92805501D01*
X139456000Y-92850638D01*
X139456000Y-93589362D01*
X139451555Y-93634499D01*
X139440180Y-93671995D01*
X139421708Y-93706554D01*
X139396847Y-93736847D01*
X139366554Y-93761708D01*
X139331995Y-93780180D01*
X139294499Y-93791555D01*
X139249362Y-93796000D01*
X138610638Y-93796000D01*
X138565501Y-93791555D01*
X138528005Y-93780180D01*
X138493446Y-93761708D01*
X138463153Y-93736847D01*
X138438292Y-93706554D01*
X138419820Y-93671995D01*
X138408445Y-93634499D01*
X138404000Y-93589362D01*
X138404000Y-92850638D01*
X138408445Y-92805501D01*
X138419820Y-92768005D01*
X138438292Y-92733446D01*
X138463153Y-92703153D01*
X138493446Y-92678292D01*
X138528005Y-92659820D01*
X138565501Y-92648445D01*
X138610638Y-92644000D01*
X139249362Y-92644000D01*
X139294499Y-92648445D01*
X139294499Y-92648445D01*
G37*
G36*
X144708604Y-92448347D02*
G01*
X144745144Y-92459432D01*
X144778821Y-92477433D01*
X144808341Y-92501659D01*
X144832567Y-92531179D01*
X144850568Y-92564856D01*
X144861653Y-92601396D01*
X144866000Y-92645538D01*
X144866000Y-93594462D01*
X144861653Y-93638604D01*
X144850568Y-93675144D01*
X144832567Y-93708821D01*
X144808341Y-93738341D01*
X144778821Y-93762567D01*
X144745144Y-93780568D01*
X144708604Y-93791653D01*
X144664462Y-93796000D01*
X142315538Y-93796000D01*
X142271396Y-93791653D01*
X142234856Y-93780568D01*
X142201179Y-93762567D01*
X142171659Y-93738341D01*
X142147433Y-93708821D01*
X142129432Y-93675144D01*
X142118347Y-93638604D01*
X142114000Y-93594462D01*
X142114000Y-92645538D01*
X142118347Y-92601396D01*
X142129432Y-92564856D01*
X142147433Y-92531179D01*
X142171659Y-92501659D01*
X142201179Y-92477433D01*
X142234856Y-92459432D01*
X142271396Y-92448347D01*
X142315538Y-92444000D01*
X144664462Y-92444000D01*
X144708604Y-92448347D01*
X144708604Y-92448347D01*
G37*
G36*
X151844499Y-91088445D02*
G01*
X151881995Y-91099820D01*
X151916554Y-91118292D01*
X151946847Y-91143153D01*
X151971708Y-91173446D01*
X151990180Y-91208005D01*
X152001555Y-91245501D01*
X152006000Y-91290638D01*
X152006000Y-92029362D01*
X152001555Y-92074499D01*
X151990180Y-92111995D01*
X151971708Y-92146554D01*
X151946847Y-92176847D01*
X151916554Y-92201708D01*
X151881995Y-92220180D01*
X151844499Y-92231555D01*
X151799362Y-92236000D01*
X151160638Y-92236000D01*
X151115501Y-92231555D01*
X151078005Y-92220180D01*
X151043446Y-92201708D01*
X151013153Y-92176847D01*
X150988292Y-92146554D01*
X150969820Y-92111995D01*
X150958445Y-92074499D01*
X150954000Y-92029362D01*
X150954000Y-91290638D01*
X150958445Y-91245501D01*
X150969820Y-91208005D01*
X150988292Y-91173446D01*
X151013153Y-91143153D01*
X151043446Y-91118292D01*
X151078005Y-91099820D01*
X151115501Y-91088445D01*
X151160638Y-91084000D01*
X151799362Y-91084000D01*
X151844499Y-91088445D01*
X151844499Y-91088445D01*
G37*
G36*
X150284499Y-91078445D02*
G01*
X150321995Y-91089820D01*
X150356554Y-91108292D01*
X150386847Y-91133153D01*
X150411708Y-91163446D01*
X150430180Y-91198005D01*
X150441555Y-91235501D01*
X150446000Y-91280638D01*
X150446000Y-92019362D01*
X150441555Y-92064499D01*
X150430180Y-92101995D01*
X150411708Y-92136554D01*
X150386847Y-92166847D01*
X150356554Y-92191708D01*
X150321995Y-92210180D01*
X150284499Y-92221555D01*
X150239362Y-92226000D01*
X149600638Y-92226000D01*
X149555501Y-92221555D01*
X149518005Y-92210180D01*
X149483446Y-92191708D01*
X149453153Y-92166847D01*
X149428292Y-92136554D01*
X149409820Y-92101995D01*
X149398445Y-92064499D01*
X149394000Y-92019362D01*
X149394000Y-91280638D01*
X149398445Y-91235501D01*
X149409820Y-91198005D01*
X149428292Y-91163446D01*
X149453153Y-91133153D01*
X149483446Y-91108292D01*
X149518005Y-91089820D01*
X149555501Y-91078445D01*
X149600638Y-91074000D01*
X150239362Y-91074000D01*
X150284499Y-91078445D01*
X150284499Y-91078445D01*
G37*
G36*
X141114499Y-90908445D02*
G01*
X141151995Y-90919820D01*
X141186554Y-90938292D01*
X141216847Y-90963153D01*
X141241708Y-90993446D01*
X141260180Y-91028005D01*
X141271555Y-91065501D01*
X141276000Y-91110638D01*
X141276000Y-91849362D01*
X141271555Y-91894499D01*
X141260180Y-91931995D01*
X141241708Y-91966554D01*
X141216847Y-91996847D01*
X141186554Y-92021708D01*
X141151995Y-92040180D01*
X141114499Y-92051555D01*
X141069362Y-92056000D01*
X140430638Y-92056000D01*
X140385501Y-92051555D01*
X140348005Y-92040180D01*
X140313446Y-92021708D01*
X140283153Y-91996847D01*
X140258292Y-91966554D01*
X140239820Y-91931995D01*
X140228445Y-91894499D01*
X140224000Y-91849362D01*
X140224000Y-91110638D01*
X140228445Y-91065501D01*
X140239820Y-91028005D01*
X140258292Y-90993446D01*
X140283153Y-90963153D01*
X140313446Y-90938292D01*
X140348005Y-90919820D01*
X140385501Y-90908445D01*
X140430638Y-90904000D01*
X141069362Y-90904000D01*
X141114499Y-90908445D01*
X141114499Y-90908445D01*
G37*
G36*
X139294499Y-90898445D02*
G01*
X139331995Y-90909820D01*
X139366554Y-90928292D01*
X139396847Y-90953153D01*
X139421708Y-90983446D01*
X139440180Y-91018005D01*
X139451555Y-91055501D01*
X139456000Y-91100638D01*
X139456000Y-91839362D01*
X139451555Y-91884499D01*
X139440180Y-91921995D01*
X139421708Y-91956554D01*
X139396847Y-91986847D01*
X139366554Y-92011708D01*
X139331995Y-92030180D01*
X139294499Y-92041555D01*
X139249362Y-92046000D01*
X138610638Y-92046000D01*
X138565501Y-92041555D01*
X138528005Y-92030180D01*
X138493446Y-92011708D01*
X138463153Y-91986847D01*
X138438292Y-91956554D01*
X138419820Y-91921995D01*
X138408445Y-91884499D01*
X138404000Y-91839362D01*
X138404000Y-91100638D01*
X138408445Y-91055501D01*
X138419820Y-91018005D01*
X138438292Y-90983446D01*
X138463153Y-90953153D01*
X138493446Y-90928292D01*
X138528005Y-90909820D01*
X138565501Y-90898445D01*
X138610638Y-90894000D01*
X139249362Y-90894000D01*
X139294499Y-90898445D01*
X139294499Y-90898445D01*
G37*
G36*
X148566000Y-91251000D02*
G01*
X145914000Y-91251000D01*
X145914000Y-89589000D01*
X148566000Y-89589000D01*
X148566000Y-91251000D01*
X148566000Y-91251000D01*
G37*
G36*
X144708604Y-89648347D02*
G01*
X144745144Y-89659432D01*
X144778821Y-89677433D01*
X144808341Y-89701659D01*
X144832567Y-89731179D01*
X144850568Y-89764856D01*
X144861653Y-89801396D01*
X144866000Y-89845538D01*
X144866000Y-90794462D01*
X144861653Y-90838604D01*
X144850568Y-90875144D01*
X144832567Y-90908821D01*
X144808341Y-90938341D01*
X144778821Y-90962567D01*
X144745144Y-90980568D01*
X144708604Y-90991653D01*
X144664462Y-90996000D01*
X142315538Y-90996000D01*
X142271396Y-90991653D01*
X142234856Y-90980568D01*
X142201179Y-90962567D01*
X142171659Y-90938341D01*
X142147433Y-90908821D01*
X142129432Y-90875144D01*
X142118347Y-90838604D01*
X142114000Y-90794462D01*
X142114000Y-89845538D01*
X142118347Y-89801396D01*
X142129432Y-89764856D01*
X142147433Y-89731179D01*
X142171659Y-89701659D01*
X142201179Y-89677433D01*
X142234856Y-89659432D01*
X142271396Y-89648347D01*
X142315538Y-89644000D01*
X144664462Y-89644000D01*
X144708604Y-89648347D01*
X144708604Y-89648347D01*
G37*
G36*
X149454499Y-87798445D02*
G01*
X149491995Y-87809820D01*
X149526554Y-87828292D01*
X149556847Y-87853153D01*
X149581708Y-87883446D01*
X149600180Y-87918005D01*
X149611555Y-87955501D01*
X149616000Y-88000638D01*
X149616000Y-88639362D01*
X149611555Y-88684499D01*
X149600180Y-88721995D01*
X149581708Y-88756554D01*
X149556847Y-88786847D01*
X149526554Y-88811708D01*
X149491995Y-88830180D01*
X149454499Y-88841555D01*
X149409362Y-88846000D01*
X148670638Y-88846000D01*
X148625501Y-88841555D01*
X148588005Y-88830180D01*
X148553446Y-88811708D01*
X148523153Y-88786847D01*
X148498292Y-88756554D01*
X148479820Y-88721995D01*
X148468445Y-88684499D01*
X148464000Y-88639362D01*
X148464000Y-88000638D01*
X148468445Y-87955501D01*
X148479820Y-87918005D01*
X148498292Y-87883446D01*
X148523153Y-87853153D01*
X148553446Y-87828292D01*
X148588005Y-87809820D01*
X148625501Y-87798445D01*
X148670638Y-87794000D01*
X149409362Y-87794000D01*
X149454499Y-87798445D01*
X149454499Y-87798445D01*
G37*
G36*
X147704499Y-87798445D02*
G01*
X147741995Y-87809820D01*
X147776554Y-87828292D01*
X147806847Y-87853153D01*
X147831708Y-87883446D01*
X147850180Y-87918005D01*
X147861555Y-87955501D01*
X147866000Y-88000638D01*
X147866000Y-88639362D01*
X147861555Y-88684499D01*
X147850180Y-88721995D01*
X147831708Y-88756554D01*
X147806847Y-88786847D01*
X147776554Y-88811708D01*
X147741995Y-88830180D01*
X147704499Y-88841555D01*
X147659362Y-88846000D01*
X146920638Y-88846000D01*
X146875501Y-88841555D01*
X146838005Y-88830180D01*
X146803446Y-88811708D01*
X146773153Y-88786847D01*
X146748292Y-88756554D01*
X146729820Y-88721995D01*
X146718445Y-88684499D01*
X146714000Y-88639362D01*
X146714000Y-88000638D01*
X146718445Y-87955501D01*
X146729820Y-87918005D01*
X146748292Y-87883446D01*
X146773153Y-87853153D01*
X146803446Y-87828292D01*
X146838005Y-87809820D01*
X146875501Y-87798445D01*
X146920638Y-87794000D01*
X147659362Y-87794000D01*
X147704499Y-87798445D01*
X147704499Y-87798445D01*
G37*
G36*
X149678062Y-84998181D02*
G01*
X149712981Y-85008774D01*
X149745163Y-85025976D01*
X149773373Y-85049127D01*
X149796524Y-85077337D01*
X149813726Y-85109519D01*
X149824319Y-85144438D01*
X149828500Y-85186895D01*
X149828500Y-86653105D01*
X149824319Y-86695562D01*
X149813726Y-86730481D01*
X149796524Y-86762663D01*
X149773373Y-86790873D01*
X149745163Y-86814024D01*
X149712981Y-86831226D01*
X149678062Y-86841819D01*
X149635605Y-86846000D01*
X148494395Y-86846000D01*
X148451938Y-86841819D01*
X148417019Y-86831226D01*
X148384837Y-86814024D01*
X148356627Y-86790873D01*
X148333476Y-86762663D01*
X148316274Y-86730481D01*
X148305681Y-86695562D01*
X148301500Y-86653105D01*
X148301500Y-85186895D01*
X148305681Y-85144438D01*
X148316274Y-85109519D01*
X148333476Y-85077337D01*
X148356627Y-85049127D01*
X148384837Y-85025976D01*
X148417019Y-85008774D01*
X148451938Y-84998181D01*
X148494395Y-84994000D01*
X149635605Y-84994000D01*
X149678062Y-84998181D01*
X149678062Y-84998181D01*
G37*
G36*
X146703062Y-84998181D02*
G01*
X146737981Y-85008774D01*
X146770163Y-85025976D01*
X146798373Y-85049127D01*
X146821524Y-85077337D01*
X146838726Y-85109519D01*
X146849319Y-85144438D01*
X146853500Y-85186895D01*
X146853500Y-86653105D01*
X146849319Y-86695562D01*
X146838726Y-86730481D01*
X146821524Y-86762663D01*
X146798373Y-86790873D01*
X146770163Y-86814024D01*
X146737981Y-86831226D01*
X146703062Y-86841819D01*
X146660605Y-86846000D01*
X145519395Y-86846000D01*
X145476938Y-86841819D01*
X145442019Y-86831226D01*
X145409837Y-86814024D01*
X145381627Y-86790873D01*
X145358476Y-86762663D01*
X145341274Y-86730481D01*
X145330681Y-86695562D01*
X145326500Y-86653105D01*
X145326500Y-85186895D01*
X145330681Y-85144438D01*
X145341274Y-85109519D01*
X145358476Y-85077337D01*
X145381627Y-85049127D01*
X145409837Y-85025976D01*
X145442019Y-85008774D01*
X145476938Y-84998181D01*
X145519395Y-84994000D01*
X146660605Y-84994000D01*
X146703062Y-84998181D01*
X146703062Y-84998181D01*
G37*
G36*
X147801000Y-83161000D02*
G01*
X143899000Y-83161000D01*
X143899000Y-81059000D01*
X147801000Y-81059000D01*
X147801000Y-83161000D01*
X147801000Y-83161000D01*
G37*
G36*
X111201000Y-77945000D02*
G01*
X109299000Y-77945000D01*
X109299000Y-75643000D01*
X111201000Y-75643000D01*
X111201000Y-77945000D01*
X111201000Y-77945000D01*
G37*
G36*
X134501000Y-77945000D02*
G01*
X132599000Y-77945000D01*
X132599000Y-75643000D01*
X134501000Y-75643000D01*
X134501000Y-77945000D01*
X134501000Y-77945000D01*
G37*
G36*
X150634499Y-76508445D02*
G01*
X150671995Y-76519820D01*
X150706554Y-76538292D01*
X150736847Y-76563153D01*
X150761708Y-76593446D01*
X150780180Y-76628005D01*
X150791555Y-76665501D01*
X150796000Y-76710638D01*
X150796000Y-77449362D01*
X150791555Y-77494499D01*
X150780180Y-77531995D01*
X150761708Y-77566554D01*
X150736847Y-77596847D01*
X150706554Y-77621708D01*
X150671995Y-77640180D01*
X150634499Y-77651555D01*
X150589362Y-77656000D01*
X149950638Y-77656000D01*
X149905501Y-77651555D01*
X149868005Y-77640180D01*
X149833446Y-77621708D01*
X149803153Y-77596847D01*
X149778292Y-77566554D01*
X149759820Y-77531995D01*
X149748445Y-77494499D01*
X149744000Y-77449362D01*
X149744000Y-76710638D01*
X149748445Y-76665501D01*
X149759820Y-76628005D01*
X149778292Y-76593446D01*
X149803153Y-76563153D01*
X149833446Y-76538292D01*
X149868005Y-76519820D01*
X149905501Y-76508445D01*
X149950638Y-76504000D01*
X150589362Y-76504000D01*
X150634499Y-76508445D01*
X150634499Y-76508445D01*
G37*
G36*
X141184499Y-76498445D02*
G01*
X141221995Y-76509820D01*
X141256554Y-76528292D01*
X141286847Y-76553153D01*
X141311708Y-76583446D01*
X141330180Y-76618005D01*
X141341555Y-76655501D01*
X141346000Y-76700638D01*
X141346000Y-77439362D01*
X141341555Y-77484499D01*
X141330180Y-77521995D01*
X141311708Y-77556554D01*
X141286847Y-77586847D01*
X141256554Y-77611708D01*
X141221995Y-77630180D01*
X141184499Y-77641555D01*
X141139362Y-77646000D01*
X140500638Y-77646000D01*
X140455501Y-77641555D01*
X140418005Y-77630180D01*
X140383446Y-77611708D01*
X140353153Y-77586847D01*
X140328292Y-77556554D01*
X140309820Y-77521995D01*
X140298445Y-77484499D01*
X140294000Y-77439362D01*
X140294000Y-76700638D01*
X140298445Y-76655501D01*
X140309820Y-76618005D01*
X140328292Y-76583446D01*
X140353153Y-76553153D01*
X140383446Y-76528292D01*
X140418005Y-76509820D01*
X140455501Y-76498445D01*
X140500638Y-76494000D01*
X141139362Y-76494000D01*
X141184499Y-76498445D01*
X141184499Y-76498445D01*
G37*
G36*
X139334499Y-76498445D02*
G01*
X139371995Y-76509820D01*
X139406554Y-76528292D01*
X139436847Y-76553153D01*
X139461708Y-76583446D01*
X139480180Y-76618005D01*
X139491555Y-76655501D01*
X139496000Y-76700638D01*
X139496000Y-77439362D01*
X139491555Y-77484499D01*
X139480180Y-77521995D01*
X139461708Y-77556554D01*
X139436847Y-77586847D01*
X139406554Y-77611708D01*
X139371995Y-77630180D01*
X139334499Y-77641555D01*
X139289362Y-77646000D01*
X138650638Y-77646000D01*
X138605501Y-77641555D01*
X138568005Y-77630180D01*
X138533446Y-77611708D01*
X138503153Y-77586847D01*
X138478292Y-77556554D01*
X138459820Y-77521995D01*
X138448445Y-77484499D01*
X138444000Y-77439362D01*
X138444000Y-76700638D01*
X138448445Y-76655501D01*
X138459820Y-76618005D01*
X138478292Y-76583446D01*
X138503153Y-76553153D01*
X138533446Y-76528292D01*
X138568005Y-76509820D01*
X138605501Y-76498445D01*
X138650638Y-76494000D01*
X139289362Y-76494000D01*
X139334499Y-76498445D01*
X139334499Y-76498445D01*
G37*
G36*
X148951000Y-76861000D02*
G01*
X147349000Y-76861000D01*
X147349000Y-74759000D01*
X148951000Y-74759000D01*
X148951000Y-76861000D01*
X148951000Y-76861000D01*
G37*
G36*
X146651000Y-76861000D02*
G01*
X145049000Y-76861000D01*
X145049000Y-74759000D01*
X146651000Y-74759000D01*
X146651000Y-76861000D01*
X146651000Y-76861000D01*
G37*
G36*
X144351000Y-76861000D02*
G01*
X142749000Y-76861000D01*
X142749000Y-74759000D01*
X144351000Y-74759000D01*
X144351000Y-76861000D01*
X144351000Y-76861000D01*
G37*
G36*
X150634499Y-74758445D02*
G01*
X150671995Y-74769820D01*
X150706554Y-74788292D01*
X150736847Y-74813153D01*
X150761708Y-74843446D01*
X150780180Y-74878005D01*
X150791555Y-74915501D01*
X150796000Y-74960638D01*
X150796000Y-75699362D01*
X150791555Y-75744499D01*
X150780180Y-75781995D01*
X150761708Y-75816554D01*
X150736847Y-75846847D01*
X150706554Y-75871708D01*
X150671995Y-75890180D01*
X150634499Y-75901555D01*
X150589362Y-75906000D01*
X149950638Y-75906000D01*
X149905501Y-75901555D01*
X149868005Y-75890180D01*
X149833446Y-75871708D01*
X149803153Y-75846847D01*
X149778292Y-75816554D01*
X149759820Y-75781995D01*
X149748445Y-75744499D01*
X149744000Y-75699362D01*
X149744000Y-74960638D01*
X149748445Y-74915501D01*
X149759820Y-74878005D01*
X149778292Y-74843446D01*
X149803153Y-74813153D01*
X149833446Y-74788292D01*
X149868005Y-74769820D01*
X149905501Y-74758445D01*
X149950638Y-74754000D01*
X150589362Y-74754000D01*
X150634499Y-74758445D01*
X150634499Y-74758445D01*
G37*
G36*
X141184499Y-74748445D02*
G01*
X141221995Y-74759820D01*
X141256554Y-74778292D01*
X141286847Y-74803153D01*
X141311708Y-74833446D01*
X141330180Y-74868005D01*
X141341555Y-74905501D01*
X141346000Y-74950638D01*
X141346000Y-75689362D01*
X141341555Y-75734499D01*
X141330180Y-75771995D01*
X141311708Y-75806554D01*
X141286847Y-75836847D01*
X141256554Y-75861708D01*
X141221995Y-75880180D01*
X141184499Y-75891555D01*
X141139362Y-75896000D01*
X140500638Y-75896000D01*
X140455501Y-75891555D01*
X140418005Y-75880180D01*
X140383446Y-75861708D01*
X140353153Y-75836847D01*
X140328292Y-75806554D01*
X140309820Y-75771995D01*
X140298445Y-75734499D01*
X140294000Y-75689362D01*
X140294000Y-74950638D01*
X140298445Y-74905501D01*
X140309820Y-74868005D01*
X140328292Y-74833446D01*
X140353153Y-74803153D01*
X140383446Y-74778292D01*
X140418005Y-74759820D01*
X140455501Y-74748445D01*
X140500638Y-74744000D01*
X141139362Y-74744000D01*
X141184499Y-74748445D01*
X141184499Y-74748445D01*
G37*
G36*
X139334499Y-74748445D02*
G01*
X139371995Y-74759820D01*
X139406554Y-74778292D01*
X139436847Y-74803153D01*
X139461708Y-74833446D01*
X139480180Y-74868005D01*
X139491555Y-74905501D01*
X139496000Y-74950638D01*
X139496000Y-75689362D01*
X139491555Y-75734499D01*
X139480180Y-75771995D01*
X139461708Y-75806554D01*
X139436847Y-75836847D01*
X139406554Y-75861708D01*
X139371995Y-75880180D01*
X139334499Y-75891555D01*
X139289362Y-75896000D01*
X138650638Y-75896000D01*
X138605501Y-75891555D01*
X138568005Y-75880180D01*
X138533446Y-75861708D01*
X138503153Y-75836847D01*
X138478292Y-75806554D01*
X138459820Y-75771995D01*
X138448445Y-75734499D01*
X138444000Y-75689362D01*
X138444000Y-74950638D01*
X138448445Y-74905501D01*
X138459820Y-74868005D01*
X138478292Y-74833446D01*
X138503153Y-74803153D01*
X138533446Y-74778292D01*
X138568005Y-74759820D01*
X138605501Y-74748445D01*
X138650638Y-74744000D01*
X139289362Y-74744000D01*
X139334499Y-74748445D01*
X139334499Y-74748445D01*
G37*
G36*
X131851000Y-74245000D02*
G01*
X111949000Y-74245000D01*
X111949000Y-72843000D01*
X131851000Y-72843000D01*
X131851000Y-74245000D01*
X131851000Y-74245000D01*
G37*
G36*
X148011000Y-72891000D02*
G01*
X145409000Y-72891000D01*
X145409000Y-70289000D01*
X148011000Y-70289000D01*
X148011000Y-72891000D01*
X148011000Y-72891000D01*
G37*
G36*
X144501000Y-67291000D02*
G01*
X141899000Y-67291000D01*
X141899000Y-64689000D01*
X144501000Y-64689000D01*
X144501000Y-67291000D01*
X144501000Y-67291000D01*
G37*
G36*
X144481000Y-63531000D02*
G01*
X141879000Y-63531000D01*
X141879000Y-60929000D01*
X144481000Y-60929000D01*
X144481000Y-63531000D01*
X144481000Y-63531000D01*
G37*
G36*
X148801000Y-44179001D02*
G01*
X148803402Y-44203387D01*
X148810515Y-44226836D01*
X148822066Y-44248447D01*
X148837611Y-44267389D01*
X148856553Y-44282934D01*
X148878164Y-44294485D01*
X148901613Y-44301598D01*
X148925999Y-44304000D01*
X149061000Y-44304000D01*
X149061000Y-57936000D01*
X148925999Y-57936000D01*
X148901613Y-57938402D01*
X148878164Y-57945515D01*
X148856553Y-57957066D01*
X148837611Y-57972611D01*
X148822066Y-57991553D01*
X148810515Y-58013164D01*
X148803402Y-58036613D01*
X148801000Y-58060999D01*
X148801000Y-58826000D01*
X147699000Y-58826000D01*
X147699000Y-58174000D01*
X147984001Y-58174000D01*
X148008387Y-58171598D01*
X148031836Y-58164485D01*
X148053447Y-58152934D01*
X148072389Y-58137389D01*
X148087934Y-58118447D01*
X148099485Y-58096836D01*
X148106598Y-58073387D01*
X148109000Y-58049001D01*
X148109000Y-44190999D01*
X148106598Y-44166613D01*
X148099485Y-44143164D01*
X148087934Y-44121553D01*
X148072389Y-44102611D01*
X148053447Y-44087066D01*
X148031836Y-44075515D01*
X148008387Y-44068402D01*
X147984001Y-44066000D01*
X147699000Y-44066000D01*
X147699000Y-43414000D01*
X148801000Y-43414000D01*
X148801000Y-44179001D01*
X148801000Y-44179001D01*
G37*
G36*
X146101000Y-57616000D02*
G01*
X145299000Y-57616000D01*
X145299000Y-44584000D01*
X146101000Y-44584000D01*
X146101000Y-57616000D01*
X146101000Y-57616000D01*
G37*
G36*
X148574499Y-40428445D02*
G01*
X148611995Y-40439820D01*
X148646554Y-40458292D01*
X148676847Y-40483153D01*
X148701708Y-40513446D01*
X148720180Y-40548005D01*
X148731555Y-40585501D01*
X148736000Y-40630638D01*
X148736000Y-41269362D01*
X148731555Y-41314499D01*
X148720180Y-41351995D01*
X148701708Y-41386554D01*
X148676847Y-41416847D01*
X148646554Y-41441708D01*
X148611995Y-41460180D01*
X148574499Y-41471555D01*
X148529362Y-41476000D01*
X147790638Y-41476000D01*
X147745501Y-41471555D01*
X147708005Y-41460180D01*
X147673446Y-41441708D01*
X147643153Y-41416847D01*
X147618292Y-41386554D01*
X147599820Y-41351995D01*
X147588445Y-41314499D01*
X147584000Y-41269362D01*
X147584000Y-40630638D01*
X147588445Y-40585501D01*
X147599820Y-40548005D01*
X147618292Y-40513446D01*
X147643153Y-40483153D01*
X147673446Y-40458292D01*
X147708005Y-40439820D01*
X147745501Y-40428445D01*
X147790638Y-40424000D01*
X148529362Y-40424000D01*
X148574499Y-40428445D01*
X148574499Y-40428445D01*
G37*
G36*
X146824499Y-40428445D02*
G01*
X146861995Y-40439820D01*
X146896554Y-40458292D01*
X146926847Y-40483153D01*
X146951708Y-40513446D01*
X146970180Y-40548005D01*
X146981555Y-40585501D01*
X146986000Y-40630638D01*
X146986000Y-41269362D01*
X146981555Y-41314499D01*
X146970180Y-41351995D01*
X146951708Y-41386554D01*
X146926847Y-41416847D01*
X146896554Y-41441708D01*
X146861995Y-41460180D01*
X146824499Y-41471555D01*
X146779362Y-41476000D01*
X146040638Y-41476000D01*
X145995501Y-41471555D01*
X145958005Y-41460180D01*
X145923446Y-41441708D01*
X145893153Y-41416847D01*
X145868292Y-41386554D01*
X145849820Y-41351995D01*
X145838445Y-41314499D01*
X145834000Y-41269362D01*
X145834000Y-40630638D01*
X145838445Y-40585501D01*
X145849820Y-40548005D01*
X145868292Y-40513446D01*
X145893153Y-40483153D01*
X145923446Y-40458292D01*
X145958005Y-40439820D01*
X145995501Y-40428445D01*
X146040638Y-40424000D01*
X146779362Y-40424000D01*
X146824499Y-40428445D01*
X146824499Y-40428445D01*
G37*
G36*
X144411000Y-37301000D02*
G01*
X143309000Y-37301000D01*
X143309000Y-34049000D01*
X144411000Y-34049000D01*
X144411000Y-37301000D01*
X144411000Y-37301000D01*
G37*
G36*
X111391000Y-37301000D02*
G01*
X110289000Y-37301000D01*
X110289000Y-34049000D01*
X111391000Y-34049000D01*
X111391000Y-37301000D01*
X111391000Y-37301000D01*
G37*
G36*
X113931000Y-37301000D02*
G01*
X112829000Y-37301000D01*
X112829000Y-34049000D01*
X113931000Y-34049000D01*
X113931000Y-37301000D01*
X113931000Y-37301000D01*
G37*
G36*
X108851000Y-37301000D02*
G01*
X107749000Y-37301000D01*
X107749000Y-34049000D01*
X108851000Y-34049000D01*
X108851000Y-37301000D01*
X108851000Y-37301000D01*
G37*
G36*
X116471000Y-37301000D02*
G01*
X115369000Y-37301000D01*
X115369000Y-34049000D01*
X116471000Y-34049000D01*
X116471000Y-37301000D01*
X116471000Y-37301000D01*
G37*
G36*
X119011000Y-37301000D02*
G01*
X117909000Y-37301000D01*
X117909000Y-34049000D01*
X119011000Y-34049000D01*
X119011000Y-37301000D01*
X119011000Y-37301000D01*
G37*
G36*
X121551000Y-37301000D02*
G01*
X120449000Y-37301000D01*
X120449000Y-34049000D01*
X121551000Y-34049000D01*
X121551000Y-37301000D01*
X121551000Y-37301000D01*
G37*
G36*
X124091000Y-37301000D02*
G01*
X122989000Y-37301000D01*
X122989000Y-34049000D01*
X124091000Y-34049000D01*
X124091000Y-37301000D01*
X124091000Y-37301000D01*
G37*
G36*
X126631000Y-37301000D02*
G01*
X125529000Y-37301000D01*
X125529000Y-34049000D01*
X126631000Y-34049000D01*
X126631000Y-37301000D01*
X126631000Y-37301000D01*
G37*
G36*
X106311000Y-37301000D02*
G01*
X105209000Y-37301000D01*
X105209000Y-34049000D01*
X106311000Y-34049000D01*
X106311000Y-37301000D01*
X106311000Y-37301000D01*
G37*
G36*
X129171000Y-37301000D02*
G01*
X128069000Y-37301000D01*
X128069000Y-34049000D01*
X129171000Y-34049000D01*
X129171000Y-37301000D01*
X129171000Y-37301000D01*
G37*
G36*
X131711000Y-37301000D02*
G01*
X130609000Y-37301000D01*
X130609000Y-34049000D01*
X131711000Y-34049000D01*
X131711000Y-37301000D01*
X131711000Y-37301000D01*
G37*
G36*
X134251000Y-37301000D02*
G01*
X133149000Y-37301000D01*
X133149000Y-34049000D01*
X134251000Y-34049000D01*
X134251000Y-37301000D01*
X134251000Y-37301000D01*
G37*
G36*
X136791000Y-37301000D02*
G01*
X135689000Y-37301000D01*
X135689000Y-34049000D01*
X136791000Y-34049000D01*
X136791000Y-37301000D01*
X136791000Y-37301000D01*
G37*
G36*
X139331000Y-37301000D02*
G01*
X138229000Y-37301000D01*
X138229000Y-34049000D01*
X139331000Y-34049000D01*
X139331000Y-37301000D01*
X139331000Y-37301000D01*
G37*
G36*
X141871000Y-37301000D02*
G01*
X140769000Y-37301000D01*
X140769000Y-34049000D01*
X141871000Y-34049000D01*
X141871000Y-37301000D01*
X141871000Y-37301000D01*
G37*
G36*
X116471000Y-32251000D02*
G01*
X115369000Y-32251000D01*
X115369000Y-28999000D01*
X116471000Y-28999000D01*
X116471000Y-32251000D01*
X116471000Y-32251000D01*
G37*
G36*
X134251000Y-32251000D02*
G01*
X133149000Y-32251000D01*
X133149000Y-28999000D01*
X134251000Y-28999000D01*
X134251000Y-32251000D01*
X134251000Y-32251000D01*
G37*
G36*
X119011000Y-32251000D02*
G01*
X117909000Y-32251000D01*
X117909000Y-28999000D01*
X119011000Y-28999000D01*
X119011000Y-32251000D01*
X119011000Y-32251000D01*
G37*
G36*
X113931000Y-32251000D02*
G01*
X112829000Y-32251000D01*
X112829000Y-28999000D01*
X113931000Y-28999000D01*
X113931000Y-32251000D01*
X113931000Y-32251000D01*
G37*
G36*
X108851000Y-32251000D02*
G01*
X107749000Y-32251000D01*
X107749000Y-28999000D01*
X108851000Y-28999000D01*
X108851000Y-32251000D01*
X108851000Y-32251000D01*
G37*
G36*
X124091000Y-32251000D02*
G01*
X122989000Y-32251000D01*
X122989000Y-28999000D01*
X124091000Y-28999000D01*
X124091000Y-32251000D01*
X124091000Y-32251000D01*
G37*
G36*
X111391000Y-32251000D02*
G01*
X110289000Y-32251000D01*
X110289000Y-28999000D01*
X111391000Y-28999000D01*
X111391000Y-32251000D01*
X111391000Y-32251000D01*
G37*
G36*
X129171000Y-32251000D02*
G01*
X128069000Y-32251000D01*
X128069000Y-28999000D01*
X129171000Y-28999000D01*
X129171000Y-32251000D01*
X129171000Y-32251000D01*
G37*
G36*
X144411000Y-32251000D02*
G01*
X143309000Y-32251000D01*
X143309000Y-28999000D01*
X144411000Y-28999000D01*
X144411000Y-32251000D01*
X144411000Y-32251000D01*
G37*
G36*
X121551000Y-32251000D02*
G01*
X120449000Y-32251000D01*
X120449000Y-28999000D01*
X121551000Y-28999000D01*
X121551000Y-32251000D01*
X121551000Y-32251000D01*
G37*
G36*
X141871000Y-32251000D02*
G01*
X140769000Y-32251000D01*
X140769000Y-28999000D01*
X141871000Y-28999000D01*
X141871000Y-32251000D01*
X141871000Y-32251000D01*
G37*
G36*
X126631000Y-32251000D02*
G01*
X125529000Y-32251000D01*
X125529000Y-28999000D01*
X126631000Y-28999000D01*
X126631000Y-32251000D01*
X126631000Y-32251000D01*
G37*
G36*
X106311000Y-32251000D02*
G01*
X105209000Y-32251000D01*
X105209000Y-28999000D01*
X106311000Y-28999000D01*
X106311000Y-32251000D01*
X106311000Y-32251000D01*
G37*
G36*
X139331000Y-32251000D02*
G01*
X138229000Y-32251000D01*
X138229000Y-28999000D01*
X139331000Y-28999000D01*
X139331000Y-32251000D01*
X139331000Y-32251000D01*
G37*
G36*
X136791000Y-32251000D02*
G01*
X135689000Y-32251000D01*
X135689000Y-28999000D01*
X136791000Y-28999000D01*
X136791000Y-32251000D01*
X136791000Y-32251000D01*
G37*
G36*
X131711000Y-32251000D02*
G01*
X130609000Y-32251000D01*
X130609000Y-28999000D01*
X131711000Y-28999000D01*
X131711000Y-32251000D01*
X131711000Y-32251000D01*
G37*
G36*
X148554499Y-30558445D02*
G01*
X148591995Y-30569820D01*
X148626554Y-30588292D01*
X148656847Y-30613153D01*
X148681708Y-30643446D01*
X148700180Y-30678005D01*
X148711555Y-30715501D01*
X148716000Y-30760638D01*
X148716000Y-31399362D01*
X148711555Y-31444499D01*
X148700180Y-31481995D01*
X148681708Y-31516554D01*
X148656847Y-31546847D01*
X148626554Y-31571708D01*
X148591995Y-31590180D01*
X148554499Y-31601555D01*
X148509362Y-31606000D01*
X147770638Y-31606000D01*
X147725501Y-31601555D01*
X147688005Y-31590180D01*
X147653446Y-31571708D01*
X147623153Y-31546847D01*
X147598292Y-31516554D01*
X147579820Y-31481995D01*
X147568445Y-31444499D01*
X147564000Y-31399362D01*
X147564000Y-30760638D01*
X147568445Y-30715501D01*
X147579820Y-30678005D01*
X147598292Y-30643446D01*
X147623153Y-30613153D01*
X147653446Y-30588292D01*
X147688005Y-30569820D01*
X147725501Y-30558445D01*
X147770638Y-30554000D01*
X148509362Y-30554000D01*
X148554499Y-30558445D01*
X148554499Y-30558445D01*
G37*
G36*
X150304499Y-30558445D02*
G01*
X150341995Y-30569820D01*
X150376554Y-30588292D01*
X150406847Y-30613153D01*
X150431708Y-30643446D01*
X150450180Y-30678005D01*
X150461555Y-30715501D01*
X150466000Y-30760638D01*
X150466000Y-31399362D01*
X150461555Y-31444499D01*
X150450180Y-31481995D01*
X150431708Y-31516554D01*
X150406847Y-31546847D01*
X150376554Y-31571708D01*
X150341995Y-31590180D01*
X150304499Y-31601555D01*
X150259362Y-31606000D01*
X149520638Y-31606000D01*
X149475501Y-31601555D01*
X149438005Y-31590180D01*
X149403446Y-31571708D01*
X149373153Y-31546847D01*
X149348292Y-31516554D01*
X149329820Y-31481995D01*
X149318445Y-31444499D01*
X149314000Y-31399362D01*
X149314000Y-30760638D01*
X149318445Y-30715501D01*
X149329820Y-30678005D01*
X149348292Y-30643446D01*
X149373153Y-30613153D01*
X149403446Y-30588292D01*
X149438005Y-30569820D01*
X149475501Y-30558445D01*
X149520638Y-30554000D01*
X150259362Y-30554000D01*
X150304499Y-30558445D01*
X150304499Y-30558445D01*
G37*
G36*
X148574499Y-28468445D02*
G01*
X148611995Y-28479820D01*
X148646554Y-28498292D01*
X148676847Y-28523153D01*
X148701708Y-28553446D01*
X148720180Y-28588005D01*
X148731555Y-28625501D01*
X148736000Y-28670638D01*
X148736000Y-29309362D01*
X148731555Y-29354499D01*
X148720180Y-29391995D01*
X148701708Y-29426554D01*
X148676847Y-29456847D01*
X148646554Y-29481708D01*
X148611995Y-29500180D01*
X148574499Y-29511555D01*
X148529362Y-29516000D01*
X147790638Y-29516000D01*
X147745501Y-29511555D01*
X147708005Y-29500180D01*
X147673446Y-29481708D01*
X147643153Y-29456847D01*
X147618292Y-29426554D01*
X147599820Y-29391995D01*
X147588445Y-29354499D01*
X147584000Y-29309362D01*
X147584000Y-28670638D01*
X147588445Y-28625501D01*
X147599820Y-28588005D01*
X147618292Y-28553446D01*
X147643153Y-28523153D01*
X147673446Y-28498292D01*
X147708005Y-28479820D01*
X147745501Y-28468445D01*
X147790638Y-28464000D01*
X148529362Y-28464000D01*
X148574499Y-28468445D01*
X148574499Y-28468445D01*
G37*
G36*
X150324499Y-28468445D02*
G01*
X150361995Y-28479820D01*
X150396554Y-28498292D01*
X150426847Y-28523153D01*
X150451708Y-28553446D01*
X150470180Y-28588005D01*
X150481555Y-28625501D01*
X150486000Y-28670638D01*
X150486000Y-29309362D01*
X150481555Y-29354499D01*
X150470180Y-29391995D01*
X150451708Y-29426554D01*
X150426847Y-29456847D01*
X150396554Y-29481708D01*
X150361995Y-29500180D01*
X150324499Y-29511555D01*
X150279362Y-29516000D01*
X149540638Y-29516000D01*
X149495501Y-29511555D01*
X149458005Y-29500180D01*
X149423446Y-29481708D01*
X149393153Y-29456847D01*
X149368292Y-29426554D01*
X149349820Y-29391995D01*
X149338445Y-29354499D01*
X149334000Y-29309362D01*
X149334000Y-28670638D01*
X149338445Y-28625501D01*
X149349820Y-28588005D01*
X149368292Y-28553446D01*
X149393153Y-28523153D01*
X149423446Y-28498292D01*
X149458005Y-28479820D01*
X149495501Y-28468445D01*
X149540638Y-28464000D01*
X150279362Y-28464000D01*
X150324499Y-28468445D01*
X150324499Y-28468445D01*
G37*
M02*
