G04 #@! TF.GenerationSoftware,KiCad,Pcbnew,(5.1.4)-1*
G04 #@! TF.CreationDate,2019-12-24T12:05:13+08:00*
G04 #@! TF.ProjectId,FH26W-45S-0.3SHW,46483236-572d-4343-9553-2d302e335348,rev?*
G04 #@! TF.SameCoordinates,Original*
G04 #@! TF.FileFunction,Soldermask,Top*
G04 #@! TF.FilePolarity,Negative*
%FSLAX46Y46*%
G04 Gerber Fmt 4.6, Leading zero omitted, Abs format (unit mm)*
G04 Created by KiCad (PCBNEW (5.1.4)-1) date 2019-12-24 12:05:13*
%MOMM*%
%LPD*%
G04 APERTURE LIST*
%ADD10C,0.100000*%
G04 APERTURE END LIST*
D10*
G36*
X150087021Y-123256640D02*
G01*
X150596769Y-123467785D01*
X150596771Y-123467786D01*
X151055534Y-123774321D01*
X151445679Y-124164466D01*
X151718805Y-124573229D01*
X151752215Y-124623231D01*
X151963360Y-125132979D01*
X152071000Y-125674124D01*
X152071000Y-126225876D01*
X151963360Y-126767021D01*
X151772926Y-127226769D01*
X151752214Y-127276771D01*
X151445679Y-127735534D01*
X151055534Y-128125679D01*
X150596771Y-128432214D01*
X150596770Y-128432215D01*
X150596769Y-128432215D01*
X150087021Y-128643360D01*
X149545876Y-128751000D01*
X148994124Y-128751000D01*
X148452979Y-128643360D01*
X147943231Y-128432215D01*
X147943230Y-128432215D01*
X147943229Y-128432214D01*
X147484466Y-128125679D01*
X147094321Y-127735534D01*
X146787786Y-127276771D01*
X146767074Y-127226769D01*
X146576640Y-126767021D01*
X146469000Y-126225876D01*
X146469000Y-125674124D01*
X146576640Y-125132979D01*
X146787785Y-124623231D01*
X146821195Y-124573229D01*
X147094321Y-124164466D01*
X147484466Y-123774321D01*
X147943229Y-123467786D01*
X147943231Y-123467785D01*
X148452979Y-123256640D01*
X148994124Y-123149000D01*
X149545876Y-123149000D01*
X150087021Y-123256640D01*
X150087021Y-123256640D01*
G37*
G36*
X99817021Y-123206640D02*
G01*
X100326769Y-123417785D01*
X100326771Y-123417786D01*
X100785534Y-123724321D01*
X101175679Y-124114466D01*
X101482214Y-124573229D01*
X101482215Y-124573231D01*
X101693360Y-125082979D01*
X101801000Y-125624124D01*
X101801000Y-126175876D01*
X101693360Y-126717021D01*
X101482215Y-127226769D01*
X101482214Y-127226771D01*
X101175679Y-127685534D01*
X100785534Y-128075679D01*
X100326771Y-128382214D01*
X100326770Y-128382215D01*
X100326769Y-128382215D01*
X99817021Y-128593360D01*
X99275876Y-128701000D01*
X98724124Y-128701000D01*
X98182979Y-128593360D01*
X97673231Y-128382215D01*
X97673230Y-128382215D01*
X97673229Y-128382214D01*
X97214466Y-128075679D01*
X96824321Y-127685534D01*
X96517786Y-127226771D01*
X96517785Y-127226769D01*
X96306640Y-126717021D01*
X96199000Y-126175876D01*
X96199000Y-125624124D01*
X96306640Y-125082979D01*
X96517785Y-124573231D01*
X96517786Y-124573229D01*
X96824321Y-124114466D01*
X97214466Y-123724321D01*
X97673229Y-123417786D01*
X97673231Y-123417785D01*
X98182979Y-123206640D01*
X98724124Y-123099000D01*
X99275876Y-123099000D01*
X99817021Y-123206640D01*
X99817021Y-123206640D01*
G37*
M02*
