G04 #@! TF.GenerationSoftware,KiCad,Pcbnew,(5.1.4)-1*
G04 #@! TF.CreationDate,2019-11-27T00:03:08+08:00*
G04 #@! TF.ProjectId,FH26W-45S-0.3SHW,46483236-572d-4343-9553-2d302e335348,rev?*
G04 #@! TF.SameCoordinates,Original*
G04 #@! TF.FileFunction,Copper,L2,Bot*
G04 #@! TF.FilePolarity,Positive*
%FSLAX46Y46*%
G04 Gerber Fmt 4.6, Leading zero omitted, Abs format (unit mm)*
G04 Created by KiCad (PCBNEW (5.1.4)-1) date 2019-11-27 00:03:08*
%MOMM*%
%LPD*%
G04 APERTURE LIST*
%ADD10C,0.100000*%
%ADD11C,0.950000*%
%ADD12C,1.425000*%
%ADD13R,0.850000X0.330000*%
%ADD14R,0.700000X0.330000*%
%ADD15R,1.000000X0.550000*%
%ADD16R,2.500000X2.500000*%
%ADD17R,0.650000X1.560000*%
%ADD18R,3.800000X2.000000*%
%ADD19R,1.500000X2.000000*%
%ADD20R,1.000000X3.150000*%
%ADD21C,5.500000*%
%ADD22C,1.250000*%
%ADD23C,0.800000*%
%ADD24C,0.150000*%
%ADD25C,0.130000*%
%ADD26C,0.200000*%
%ADD27C,0.250000*%
G04 APERTURE END LIST*
D10*
G36*
X141010779Y-92706144D02*
G01*
X141033834Y-92709563D01*
X141056443Y-92715227D01*
X141078387Y-92723079D01*
X141099457Y-92733044D01*
X141119448Y-92745026D01*
X141138168Y-92758910D01*
X141155438Y-92774562D01*
X141171090Y-92791832D01*
X141184974Y-92810552D01*
X141196956Y-92830543D01*
X141206921Y-92851613D01*
X141214773Y-92873557D01*
X141220437Y-92896166D01*
X141223856Y-92919221D01*
X141225000Y-92942500D01*
X141225000Y-93517500D01*
X141223856Y-93540779D01*
X141220437Y-93563834D01*
X141214773Y-93586443D01*
X141206921Y-93608387D01*
X141196956Y-93629457D01*
X141184974Y-93649448D01*
X141171090Y-93668168D01*
X141155438Y-93685438D01*
X141138168Y-93701090D01*
X141119448Y-93714974D01*
X141099457Y-93726956D01*
X141078387Y-93736921D01*
X141056443Y-93744773D01*
X141033834Y-93750437D01*
X141010779Y-93753856D01*
X140987500Y-93755000D01*
X140512500Y-93755000D01*
X140489221Y-93753856D01*
X140466166Y-93750437D01*
X140443557Y-93744773D01*
X140421613Y-93736921D01*
X140400543Y-93726956D01*
X140380552Y-93714974D01*
X140361832Y-93701090D01*
X140344562Y-93685438D01*
X140328910Y-93668168D01*
X140315026Y-93649448D01*
X140303044Y-93629457D01*
X140293079Y-93608387D01*
X140285227Y-93586443D01*
X140279563Y-93563834D01*
X140276144Y-93540779D01*
X140275000Y-93517500D01*
X140275000Y-92942500D01*
X140276144Y-92919221D01*
X140279563Y-92896166D01*
X140285227Y-92873557D01*
X140293079Y-92851613D01*
X140303044Y-92830543D01*
X140315026Y-92810552D01*
X140328910Y-92791832D01*
X140344562Y-92774562D01*
X140361832Y-92758910D01*
X140380552Y-92745026D01*
X140400543Y-92733044D01*
X140421613Y-92723079D01*
X140443557Y-92715227D01*
X140466166Y-92709563D01*
X140489221Y-92706144D01*
X140512500Y-92705000D01*
X140987500Y-92705000D01*
X141010779Y-92706144D01*
X141010779Y-92706144D01*
G37*
D11*
X140750000Y-93230000D03*
D10*
G36*
X141010779Y-90956144D02*
G01*
X141033834Y-90959563D01*
X141056443Y-90965227D01*
X141078387Y-90973079D01*
X141099457Y-90983044D01*
X141119448Y-90995026D01*
X141138168Y-91008910D01*
X141155438Y-91024562D01*
X141171090Y-91041832D01*
X141184974Y-91060552D01*
X141196956Y-91080543D01*
X141206921Y-91101613D01*
X141214773Y-91123557D01*
X141220437Y-91146166D01*
X141223856Y-91169221D01*
X141225000Y-91192500D01*
X141225000Y-91767500D01*
X141223856Y-91790779D01*
X141220437Y-91813834D01*
X141214773Y-91836443D01*
X141206921Y-91858387D01*
X141196956Y-91879457D01*
X141184974Y-91899448D01*
X141171090Y-91918168D01*
X141155438Y-91935438D01*
X141138168Y-91951090D01*
X141119448Y-91964974D01*
X141099457Y-91976956D01*
X141078387Y-91986921D01*
X141056443Y-91994773D01*
X141033834Y-92000437D01*
X141010779Y-92003856D01*
X140987500Y-92005000D01*
X140512500Y-92005000D01*
X140489221Y-92003856D01*
X140466166Y-92000437D01*
X140443557Y-91994773D01*
X140421613Y-91986921D01*
X140400543Y-91976956D01*
X140380552Y-91964974D01*
X140361832Y-91951090D01*
X140344562Y-91935438D01*
X140328910Y-91918168D01*
X140315026Y-91899448D01*
X140303044Y-91879457D01*
X140293079Y-91858387D01*
X140285227Y-91836443D01*
X140279563Y-91813834D01*
X140276144Y-91790779D01*
X140275000Y-91767500D01*
X140275000Y-91192500D01*
X140276144Y-91169221D01*
X140279563Y-91146166D01*
X140285227Y-91123557D01*
X140293079Y-91101613D01*
X140303044Y-91080543D01*
X140315026Y-91060552D01*
X140328910Y-91041832D01*
X140344562Y-91024562D01*
X140361832Y-91008910D01*
X140380552Y-90995026D01*
X140400543Y-90983044D01*
X140421613Y-90973079D01*
X140443557Y-90965227D01*
X140466166Y-90959563D01*
X140489221Y-90956144D01*
X140512500Y-90955000D01*
X140987500Y-90955000D01*
X141010779Y-90956144D01*
X141010779Y-90956144D01*
G37*
D11*
X140750000Y-91480000D03*
D10*
G36*
X151380779Y-74831144D02*
G01*
X151403834Y-74834563D01*
X151426443Y-74840227D01*
X151448387Y-74848079D01*
X151469457Y-74858044D01*
X151489448Y-74870026D01*
X151508168Y-74883910D01*
X151525438Y-74899562D01*
X151541090Y-74916832D01*
X151554974Y-74935552D01*
X151566956Y-74955543D01*
X151576921Y-74976613D01*
X151584773Y-74998557D01*
X151590437Y-75021166D01*
X151593856Y-75044221D01*
X151595000Y-75067500D01*
X151595000Y-75642500D01*
X151593856Y-75665779D01*
X151590437Y-75688834D01*
X151584773Y-75711443D01*
X151576921Y-75733387D01*
X151566956Y-75754457D01*
X151554974Y-75774448D01*
X151541090Y-75793168D01*
X151525438Y-75810438D01*
X151508168Y-75826090D01*
X151489448Y-75839974D01*
X151469457Y-75851956D01*
X151448387Y-75861921D01*
X151426443Y-75869773D01*
X151403834Y-75875437D01*
X151380779Y-75878856D01*
X151357500Y-75880000D01*
X150882500Y-75880000D01*
X150859221Y-75878856D01*
X150836166Y-75875437D01*
X150813557Y-75869773D01*
X150791613Y-75861921D01*
X150770543Y-75851956D01*
X150750552Y-75839974D01*
X150731832Y-75826090D01*
X150714562Y-75810438D01*
X150698910Y-75793168D01*
X150685026Y-75774448D01*
X150673044Y-75754457D01*
X150663079Y-75733387D01*
X150655227Y-75711443D01*
X150649563Y-75688834D01*
X150646144Y-75665779D01*
X150645000Y-75642500D01*
X150645000Y-75067500D01*
X150646144Y-75044221D01*
X150649563Y-75021166D01*
X150655227Y-74998557D01*
X150663079Y-74976613D01*
X150673044Y-74955543D01*
X150685026Y-74935552D01*
X150698910Y-74916832D01*
X150714562Y-74899562D01*
X150731832Y-74883910D01*
X150750552Y-74870026D01*
X150770543Y-74858044D01*
X150791613Y-74848079D01*
X150813557Y-74840227D01*
X150836166Y-74834563D01*
X150859221Y-74831144D01*
X150882500Y-74830000D01*
X151357500Y-74830000D01*
X151380779Y-74831144D01*
X151380779Y-74831144D01*
G37*
D11*
X151120000Y-75355000D03*
D10*
G36*
X151380779Y-76581144D02*
G01*
X151403834Y-76584563D01*
X151426443Y-76590227D01*
X151448387Y-76598079D01*
X151469457Y-76608044D01*
X151489448Y-76620026D01*
X151508168Y-76633910D01*
X151525438Y-76649562D01*
X151541090Y-76666832D01*
X151554974Y-76685552D01*
X151566956Y-76705543D01*
X151576921Y-76726613D01*
X151584773Y-76748557D01*
X151590437Y-76771166D01*
X151593856Y-76794221D01*
X151595000Y-76817500D01*
X151595000Y-77392500D01*
X151593856Y-77415779D01*
X151590437Y-77438834D01*
X151584773Y-77461443D01*
X151576921Y-77483387D01*
X151566956Y-77504457D01*
X151554974Y-77524448D01*
X151541090Y-77543168D01*
X151525438Y-77560438D01*
X151508168Y-77576090D01*
X151489448Y-77589974D01*
X151469457Y-77601956D01*
X151448387Y-77611921D01*
X151426443Y-77619773D01*
X151403834Y-77625437D01*
X151380779Y-77628856D01*
X151357500Y-77630000D01*
X150882500Y-77630000D01*
X150859221Y-77628856D01*
X150836166Y-77625437D01*
X150813557Y-77619773D01*
X150791613Y-77611921D01*
X150770543Y-77601956D01*
X150750552Y-77589974D01*
X150731832Y-77576090D01*
X150714562Y-77560438D01*
X150698910Y-77543168D01*
X150685026Y-77524448D01*
X150673044Y-77504457D01*
X150663079Y-77483387D01*
X150655227Y-77461443D01*
X150649563Y-77438834D01*
X150646144Y-77415779D01*
X150645000Y-77392500D01*
X150645000Y-76817500D01*
X150646144Y-76794221D01*
X150649563Y-76771166D01*
X150655227Y-76748557D01*
X150663079Y-76726613D01*
X150673044Y-76705543D01*
X150685026Y-76685552D01*
X150698910Y-76666832D01*
X150714562Y-76649562D01*
X150731832Y-76633910D01*
X150750552Y-76620026D01*
X150770543Y-76608044D01*
X150791613Y-76598079D01*
X150813557Y-76590227D01*
X150836166Y-76584563D01*
X150859221Y-76581144D01*
X150882500Y-76580000D01*
X151357500Y-76580000D01*
X151380779Y-76581144D01*
X151380779Y-76581144D01*
G37*
D11*
X151120000Y-77105000D03*
D10*
G36*
X139190779Y-92696144D02*
G01*
X139213834Y-92699563D01*
X139236443Y-92705227D01*
X139258387Y-92713079D01*
X139279457Y-92723044D01*
X139299448Y-92735026D01*
X139318168Y-92748910D01*
X139335438Y-92764562D01*
X139351090Y-92781832D01*
X139364974Y-92800552D01*
X139376956Y-92820543D01*
X139386921Y-92841613D01*
X139394773Y-92863557D01*
X139400437Y-92886166D01*
X139403856Y-92909221D01*
X139405000Y-92932500D01*
X139405000Y-93507500D01*
X139403856Y-93530779D01*
X139400437Y-93553834D01*
X139394773Y-93576443D01*
X139386921Y-93598387D01*
X139376956Y-93619457D01*
X139364974Y-93639448D01*
X139351090Y-93658168D01*
X139335438Y-93675438D01*
X139318168Y-93691090D01*
X139299448Y-93704974D01*
X139279457Y-93716956D01*
X139258387Y-93726921D01*
X139236443Y-93734773D01*
X139213834Y-93740437D01*
X139190779Y-93743856D01*
X139167500Y-93745000D01*
X138692500Y-93745000D01*
X138669221Y-93743856D01*
X138646166Y-93740437D01*
X138623557Y-93734773D01*
X138601613Y-93726921D01*
X138580543Y-93716956D01*
X138560552Y-93704974D01*
X138541832Y-93691090D01*
X138524562Y-93675438D01*
X138508910Y-93658168D01*
X138495026Y-93639448D01*
X138483044Y-93619457D01*
X138473079Y-93598387D01*
X138465227Y-93576443D01*
X138459563Y-93553834D01*
X138456144Y-93530779D01*
X138455000Y-93507500D01*
X138455000Y-92932500D01*
X138456144Y-92909221D01*
X138459563Y-92886166D01*
X138465227Y-92863557D01*
X138473079Y-92841613D01*
X138483044Y-92820543D01*
X138495026Y-92800552D01*
X138508910Y-92781832D01*
X138524562Y-92764562D01*
X138541832Y-92748910D01*
X138560552Y-92735026D01*
X138580543Y-92723044D01*
X138601613Y-92713079D01*
X138623557Y-92705227D01*
X138646166Y-92699563D01*
X138669221Y-92696144D01*
X138692500Y-92695000D01*
X139167500Y-92695000D01*
X139190779Y-92696144D01*
X139190779Y-92696144D01*
G37*
D11*
X138930000Y-93220000D03*
D10*
G36*
X139190779Y-90946144D02*
G01*
X139213834Y-90949563D01*
X139236443Y-90955227D01*
X139258387Y-90963079D01*
X139279457Y-90973044D01*
X139299448Y-90985026D01*
X139318168Y-90998910D01*
X139335438Y-91014562D01*
X139351090Y-91031832D01*
X139364974Y-91050552D01*
X139376956Y-91070543D01*
X139386921Y-91091613D01*
X139394773Y-91113557D01*
X139400437Y-91136166D01*
X139403856Y-91159221D01*
X139405000Y-91182500D01*
X139405000Y-91757500D01*
X139403856Y-91780779D01*
X139400437Y-91803834D01*
X139394773Y-91826443D01*
X139386921Y-91848387D01*
X139376956Y-91869457D01*
X139364974Y-91889448D01*
X139351090Y-91908168D01*
X139335438Y-91925438D01*
X139318168Y-91941090D01*
X139299448Y-91954974D01*
X139279457Y-91966956D01*
X139258387Y-91976921D01*
X139236443Y-91984773D01*
X139213834Y-91990437D01*
X139190779Y-91993856D01*
X139167500Y-91995000D01*
X138692500Y-91995000D01*
X138669221Y-91993856D01*
X138646166Y-91990437D01*
X138623557Y-91984773D01*
X138601613Y-91976921D01*
X138580543Y-91966956D01*
X138560552Y-91954974D01*
X138541832Y-91941090D01*
X138524562Y-91925438D01*
X138508910Y-91908168D01*
X138495026Y-91889448D01*
X138483044Y-91869457D01*
X138473079Y-91848387D01*
X138465227Y-91826443D01*
X138459563Y-91803834D01*
X138456144Y-91780779D01*
X138455000Y-91757500D01*
X138455000Y-91182500D01*
X138456144Y-91159221D01*
X138459563Y-91136166D01*
X138465227Y-91113557D01*
X138473079Y-91091613D01*
X138483044Y-91070543D01*
X138495026Y-91050552D01*
X138508910Y-91031832D01*
X138524562Y-91014562D01*
X138541832Y-90998910D01*
X138560552Y-90985026D01*
X138580543Y-90973044D01*
X138601613Y-90963079D01*
X138623557Y-90955227D01*
X138646166Y-90949563D01*
X138669221Y-90946144D01*
X138692500Y-90945000D01*
X139167500Y-90945000D01*
X139190779Y-90946144D01*
X139190779Y-90946144D01*
G37*
D11*
X138930000Y-91470000D03*
D10*
G36*
X141080779Y-76546144D02*
G01*
X141103834Y-76549563D01*
X141126443Y-76555227D01*
X141148387Y-76563079D01*
X141169457Y-76573044D01*
X141189448Y-76585026D01*
X141208168Y-76598910D01*
X141225438Y-76614562D01*
X141241090Y-76631832D01*
X141254974Y-76650552D01*
X141266956Y-76670543D01*
X141276921Y-76691613D01*
X141284773Y-76713557D01*
X141290437Y-76736166D01*
X141293856Y-76759221D01*
X141295000Y-76782500D01*
X141295000Y-77357500D01*
X141293856Y-77380779D01*
X141290437Y-77403834D01*
X141284773Y-77426443D01*
X141276921Y-77448387D01*
X141266956Y-77469457D01*
X141254974Y-77489448D01*
X141241090Y-77508168D01*
X141225438Y-77525438D01*
X141208168Y-77541090D01*
X141189448Y-77554974D01*
X141169457Y-77566956D01*
X141148387Y-77576921D01*
X141126443Y-77584773D01*
X141103834Y-77590437D01*
X141080779Y-77593856D01*
X141057500Y-77595000D01*
X140582500Y-77595000D01*
X140559221Y-77593856D01*
X140536166Y-77590437D01*
X140513557Y-77584773D01*
X140491613Y-77576921D01*
X140470543Y-77566956D01*
X140450552Y-77554974D01*
X140431832Y-77541090D01*
X140414562Y-77525438D01*
X140398910Y-77508168D01*
X140385026Y-77489448D01*
X140373044Y-77469457D01*
X140363079Y-77448387D01*
X140355227Y-77426443D01*
X140349563Y-77403834D01*
X140346144Y-77380779D01*
X140345000Y-77357500D01*
X140345000Y-76782500D01*
X140346144Y-76759221D01*
X140349563Y-76736166D01*
X140355227Y-76713557D01*
X140363079Y-76691613D01*
X140373044Y-76670543D01*
X140385026Y-76650552D01*
X140398910Y-76631832D01*
X140414562Y-76614562D01*
X140431832Y-76598910D01*
X140450552Y-76585026D01*
X140470543Y-76573044D01*
X140491613Y-76563079D01*
X140513557Y-76555227D01*
X140536166Y-76549563D01*
X140559221Y-76546144D01*
X140582500Y-76545000D01*
X141057500Y-76545000D01*
X141080779Y-76546144D01*
X141080779Y-76546144D01*
G37*
D11*
X140820000Y-77070000D03*
D10*
G36*
X141080779Y-74796144D02*
G01*
X141103834Y-74799563D01*
X141126443Y-74805227D01*
X141148387Y-74813079D01*
X141169457Y-74823044D01*
X141189448Y-74835026D01*
X141208168Y-74848910D01*
X141225438Y-74864562D01*
X141241090Y-74881832D01*
X141254974Y-74900552D01*
X141266956Y-74920543D01*
X141276921Y-74941613D01*
X141284773Y-74963557D01*
X141290437Y-74986166D01*
X141293856Y-75009221D01*
X141295000Y-75032500D01*
X141295000Y-75607500D01*
X141293856Y-75630779D01*
X141290437Y-75653834D01*
X141284773Y-75676443D01*
X141276921Y-75698387D01*
X141266956Y-75719457D01*
X141254974Y-75739448D01*
X141241090Y-75758168D01*
X141225438Y-75775438D01*
X141208168Y-75791090D01*
X141189448Y-75804974D01*
X141169457Y-75816956D01*
X141148387Y-75826921D01*
X141126443Y-75834773D01*
X141103834Y-75840437D01*
X141080779Y-75843856D01*
X141057500Y-75845000D01*
X140582500Y-75845000D01*
X140559221Y-75843856D01*
X140536166Y-75840437D01*
X140513557Y-75834773D01*
X140491613Y-75826921D01*
X140470543Y-75816956D01*
X140450552Y-75804974D01*
X140431832Y-75791090D01*
X140414562Y-75775438D01*
X140398910Y-75758168D01*
X140385026Y-75739448D01*
X140373044Y-75719457D01*
X140363079Y-75698387D01*
X140355227Y-75676443D01*
X140349563Y-75653834D01*
X140346144Y-75630779D01*
X140345000Y-75607500D01*
X140345000Y-75032500D01*
X140346144Y-75009221D01*
X140349563Y-74986166D01*
X140355227Y-74963557D01*
X140363079Y-74941613D01*
X140373044Y-74920543D01*
X140385026Y-74900552D01*
X140398910Y-74881832D01*
X140414562Y-74864562D01*
X140431832Y-74848910D01*
X140450552Y-74835026D01*
X140470543Y-74823044D01*
X140491613Y-74813079D01*
X140513557Y-74805227D01*
X140536166Y-74799563D01*
X140559221Y-74796144D01*
X140582500Y-74795000D01*
X141057500Y-74795000D01*
X141080779Y-74796144D01*
X141080779Y-74796144D01*
G37*
D11*
X140820000Y-75320000D03*
D10*
G36*
X149552004Y-85046204D02*
G01*
X149576273Y-85049804D01*
X149600071Y-85055765D01*
X149623171Y-85064030D01*
X149645349Y-85074520D01*
X149666393Y-85087133D01*
X149686098Y-85101747D01*
X149704277Y-85118223D01*
X149720753Y-85136402D01*
X149735367Y-85156107D01*
X149747980Y-85177151D01*
X149758470Y-85199329D01*
X149766735Y-85222429D01*
X149772696Y-85246227D01*
X149776296Y-85270496D01*
X149777500Y-85295000D01*
X149777500Y-86545000D01*
X149776296Y-86569504D01*
X149772696Y-86593773D01*
X149766735Y-86617571D01*
X149758470Y-86640671D01*
X149747980Y-86662849D01*
X149735367Y-86683893D01*
X149720753Y-86703598D01*
X149704277Y-86721777D01*
X149686098Y-86738253D01*
X149666393Y-86752867D01*
X149645349Y-86765480D01*
X149623171Y-86775970D01*
X149600071Y-86784235D01*
X149576273Y-86790196D01*
X149552004Y-86793796D01*
X149527500Y-86795000D01*
X148602500Y-86795000D01*
X148577996Y-86793796D01*
X148553727Y-86790196D01*
X148529929Y-86784235D01*
X148506829Y-86775970D01*
X148484651Y-86765480D01*
X148463607Y-86752867D01*
X148443902Y-86738253D01*
X148425723Y-86721777D01*
X148409247Y-86703598D01*
X148394633Y-86683893D01*
X148382020Y-86662849D01*
X148371530Y-86640671D01*
X148363265Y-86617571D01*
X148357304Y-86593773D01*
X148353704Y-86569504D01*
X148352500Y-86545000D01*
X148352500Y-85295000D01*
X148353704Y-85270496D01*
X148357304Y-85246227D01*
X148363265Y-85222429D01*
X148371530Y-85199329D01*
X148382020Y-85177151D01*
X148394633Y-85156107D01*
X148409247Y-85136402D01*
X148425723Y-85118223D01*
X148443902Y-85101747D01*
X148463607Y-85087133D01*
X148484651Y-85074520D01*
X148506829Y-85064030D01*
X148529929Y-85055765D01*
X148553727Y-85049804D01*
X148577996Y-85046204D01*
X148602500Y-85045000D01*
X149527500Y-85045000D01*
X149552004Y-85046204D01*
X149552004Y-85046204D01*
G37*
D12*
X149065000Y-85920000D03*
D10*
G36*
X146577004Y-85046204D02*
G01*
X146601273Y-85049804D01*
X146625071Y-85055765D01*
X146648171Y-85064030D01*
X146670349Y-85074520D01*
X146691393Y-85087133D01*
X146711098Y-85101747D01*
X146729277Y-85118223D01*
X146745753Y-85136402D01*
X146760367Y-85156107D01*
X146772980Y-85177151D01*
X146783470Y-85199329D01*
X146791735Y-85222429D01*
X146797696Y-85246227D01*
X146801296Y-85270496D01*
X146802500Y-85295000D01*
X146802500Y-86545000D01*
X146801296Y-86569504D01*
X146797696Y-86593773D01*
X146791735Y-86617571D01*
X146783470Y-86640671D01*
X146772980Y-86662849D01*
X146760367Y-86683893D01*
X146745753Y-86703598D01*
X146729277Y-86721777D01*
X146711098Y-86738253D01*
X146691393Y-86752867D01*
X146670349Y-86765480D01*
X146648171Y-86775970D01*
X146625071Y-86784235D01*
X146601273Y-86790196D01*
X146577004Y-86793796D01*
X146552500Y-86795000D01*
X145627500Y-86795000D01*
X145602996Y-86793796D01*
X145578727Y-86790196D01*
X145554929Y-86784235D01*
X145531829Y-86775970D01*
X145509651Y-86765480D01*
X145488607Y-86752867D01*
X145468902Y-86738253D01*
X145450723Y-86721777D01*
X145434247Y-86703598D01*
X145419633Y-86683893D01*
X145407020Y-86662849D01*
X145396530Y-86640671D01*
X145388265Y-86617571D01*
X145382304Y-86593773D01*
X145378704Y-86569504D01*
X145377500Y-86545000D01*
X145377500Y-85295000D01*
X145378704Y-85270496D01*
X145382304Y-85246227D01*
X145388265Y-85222429D01*
X145396530Y-85199329D01*
X145407020Y-85177151D01*
X145419633Y-85156107D01*
X145434247Y-85136402D01*
X145450723Y-85118223D01*
X145468902Y-85101747D01*
X145488607Y-85087133D01*
X145509651Y-85074520D01*
X145531829Y-85064030D01*
X145554929Y-85055765D01*
X145578727Y-85049804D01*
X145602996Y-85046204D01*
X145627500Y-85045000D01*
X146552500Y-85045000D01*
X146577004Y-85046204D01*
X146577004Y-85046204D01*
G37*
D12*
X146090000Y-85920000D03*
D13*
X148585000Y-57720000D03*
X148585000Y-57070000D03*
X148585000Y-56420000D03*
X148585000Y-55770000D03*
X148585000Y-55120000D03*
X148585000Y-54470000D03*
X148585000Y-53820000D03*
X148585000Y-53170000D03*
X148585000Y-52520000D03*
X148585000Y-51870000D03*
X148585000Y-51220000D03*
X148585000Y-50570000D03*
X148585000Y-49920000D03*
X148585000Y-49270000D03*
X148585000Y-48620000D03*
X148585000Y-47970000D03*
X148585000Y-47320000D03*
X148585000Y-46670000D03*
X148585000Y-46020000D03*
X148585000Y-45370000D03*
X148585000Y-44720000D03*
X148585000Y-44070000D03*
X148585000Y-43420000D03*
D14*
X145700000Y-57395000D03*
X145700000Y-56745000D03*
X145700000Y-56095000D03*
X145700000Y-55445000D03*
X145700000Y-54795000D03*
X145700000Y-54145000D03*
X145700000Y-53495000D03*
X145700000Y-52845000D03*
X145700000Y-52195000D03*
X145700000Y-51545000D03*
X145700000Y-50895000D03*
X145700000Y-50245000D03*
X145700000Y-49595000D03*
X145700000Y-48945000D03*
X145700000Y-48295000D03*
X145700000Y-47645000D03*
X145700000Y-46995000D03*
X145700000Y-46345000D03*
X145700000Y-45695000D03*
X145700000Y-45045000D03*
X145700000Y-44395000D03*
X145700000Y-43745000D03*
D15*
X148250000Y-58500000D03*
X148250000Y-42640000D03*
D10*
G36*
X152450779Y-92786144D02*
G01*
X152473834Y-92789563D01*
X152496443Y-92795227D01*
X152518387Y-92803079D01*
X152539457Y-92813044D01*
X152559448Y-92825026D01*
X152578168Y-92838910D01*
X152595438Y-92854562D01*
X152611090Y-92871832D01*
X152624974Y-92890552D01*
X152636956Y-92910543D01*
X152646921Y-92931613D01*
X152654773Y-92953557D01*
X152660437Y-92976166D01*
X152663856Y-92999221D01*
X152665000Y-93022500D01*
X152665000Y-93597500D01*
X152663856Y-93620779D01*
X152660437Y-93643834D01*
X152654773Y-93666443D01*
X152646921Y-93688387D01*
X152636956Y-93709457D01*
X152624974Y-93729448D01*
X152611090Y-93748168D01*
X152595438Y-93765438D01*
X152578168Y-93781090D01*
X152559448Y-93794974D01*
X152539457Y-93806956D01*
X152518387Y-93816921D01*
X152496443Y-93824773D01*
X152473834Y-93830437D01*
X152450779Y-93833856D01*
X152427500Y-93835000D01*
X151952500Y-93835000D01*
X151929221Y-93833856D01*
X151906166Y-93830437D01*
X151883557Y-93824773D01*
X151861613Y-93816921D01*
X151840543Y-93806956D01*
X151820552Y-93794974D01*
X151801832Y-93781090D01*
X151784562Y-93765438D01*
X151768910Y-93748168D01*
X151755026Y-93729448D01*
X151743044Y-93709457D01*
X151733079Y-93688387D01*
X151725227Y-93666443D01*
X151719563Y-93643834D01*
X151716144Y-93620779D01*
X151715000Y-93597500D01*
X151715000Y-93022500D01*
X151716144Y-92999221D01*
X151719563Y-92976166D01*
X151725227Y-92953557D01*
X151733079Y-92931613D01*
X151743044Y-92910543D01*
X151755026Y-92890552D01*
X151768910Y-92871832D01*
X151784562Y-92854562D01*
X151801832Y-92838910D01*
X151820552Y-92825026D01*
X151840543Y-92813044D01*
X151861613Y-92803079D01*
X151883557Y-92795227D01*
X151906166Y-92789563D01*
X151929221Y-92786144D01*
X151952500Y-92785000D01*
X152427500Y-92785000D01*
X152450779Y-92786144D01*
X152450779Y-92786144D01*
G37*
D11*
X152190000Y-93310000D03*
D10*
G36*
X152450779Y-91036144D02*
G01*
X152473834Y-91039563D01*
X152496443Y-91045227D01*
X152518387Y-91053079D01*
X152539457Y-91063044D01*
X152559448Y-91075026D01*
X152578168Y-91088910D01*
X152595438Y-91104562D01*
X152611090Y-91121832D01*
X152624974Y-91140552D01*
X152636956Y-91160543D01*
X152646921Y-91181613D01*
X152654773Y-91203557D01*
X152660437Y-91226166D01*
X152663856Y-91249221D01*
X152665000Y-91272500D01*
X152665000Y-91847500D01*
X152663856Y-91870779D01*
X152660437Y-91893834D01*
X152654773Y-91916443D01*
X152646921Y-91938387D01*
X152636956Y-91959457D01*
X152624974Y-91979448D01*
X152611090Y-91998168D01*
X152595438Y-92015438D01*
X152578168Y-92031090D01*
X152559448Y-92044974D01*
X152539457Y-92056956D01*
X152518387Y-92066921D01*
X152496443Y-92074773D01*
X152473834Y-92080437D01*
X152450779Y-92083856D01*
X152427500Y-92085000D01*
X151952500Y-92085000D01*
X151929221Y-92083856D01*
X151906166Y-92080437D01*
X151883557Y-92074773D01*
X151861613Y-92066921D01*
X151840543Y-92056956D01*
X151820552Y-92044974D01*
X151801832Y-92031090D01*
X151784562Y-92015438D01*
X151768910Y-91998168D01*
X151755026Y-91979448D01*
X151743044Y-91959457D01*
X151733079Y-91938387D01*
X151725227Y-91916443D01*
X151719563Y-91893834D01*
X151716144Y-91870779D01*
X151715000Y-91847500D01*
X151715000Y-91272500D01*
X151716144Y-91249221D01*
X151719563Y-91226166D01*
X151725227Y-91203557D01*
X151733079Y-91181613D01*
X151743044Y-91160543D01*
X151755026Y-91140552D01*
X151768910Y-91121832D01*
X151784562Y-91104562D01*
X151801832Y-91088910D01*
X151820552Y-91075026D01*
X151840543Y-91063044D01*
X151861613Y-91053079D01*
X151883557Y-91045227D01*
X151906166Y-91039563D01*
X151929221Y-91036144D01*
X151952500Y-91035000D01*
X152427500Y-91035000D01*
X152450779Y-91036144D01*
X152450779Y-91036144D01*
G37*
D11*
X152190000Y-91560000D03*
D10*
G36*
X150750779Y-91046144D02*
G01*
X150773834Y-91049563D01*
X150796443Y-91055227D01*
X150818387Y-91063079D01*
X150839457Y-91073044D01*
X150859448Y-91085026D01*
X150878168Y-91098910D01*
X150895438Y-91114562D01*
X150911090Y-91131832D01*
X150924974Y-91150552D01*
X150936956Y-91170543D01*
X150946921Y-91191613D01*
X150954773Y-91213557D01*
X150960437Y-91236166D01*
X150963856Y-91259221D01*
X150965000Y-91282500D01*
X150965000Y-91857500D01*
X150963856Y-91880779D01*
X150960437Y-91903834D01*
X150954773Y-91926443D01*
X150946921Y-91948387D01*
X150936956Y-91969457D01*
X150924974Y-91989448D01*
X150911090Y-92008168D01*
X150895438Y-92025438D01*
X150878168Y-92041090D01*
X150859448Y-92054974D01*
X150839457Y-92066956D01*
X150818387Y-92076921D01*
X150796443Y-92084773D01*
X150773834Y-92090437D01*
X150750779Y-92093856D01*
X150727500Y-92095000D01*
X150252500Y-92095000D01*
X150229221Y-92093856D01*
X150206166Y-92090437D01*
X150183557Y-92084773D01*
X150161613Y-92076921D01*
X150140543Y-92066956D01*
X150120552Y-92054974D01*
X150101832Y-92041090D01*
X150084562Y-92025438D01*
X150068910Y-92008168D01*
X150055026Y-91989448D01*
X150043044Y-91969457D01*
X150033079Y-91948387D01*
X150025227Y-91926443D01*
X150019563Y-91903834D01*
X150016144Y-91880779D01*
X150015000Y-91857500D01*
X150015000Y-91282500D01*
X150016144Y-91259221D01*
X150019563Y-91236166D01*
X150025227Y-91213557D01*
X150033079Y-91191613D01*
X150043044Y-91170543D01*
X150055026Y-91150552D01*
X150068910Y-91131832D01*
X150084562Y-91114562D01*
X150101832Y-91098910D01*
X150120552Y-91085026D01*
X150140543Y-91073044D01*
X150161613Y-91063079D01*
X150183557Y-91055227D01*
X150206166Y-91049563D01*
X150229221Y-91046144D01*
X150252500Y-91045000D01*
X150727500Y-91045000D01*
X150750779Y-91046144D01*
X150750779Y-91046144D01*
G37*
D11*
X150490000Y-91570000D03*
D10*
G36*
X150750779Y-92796144D02*
G01*
X150773834Y-92799563D01*
X150796443Y-92805227D01*
X150818387Y-92813079D01*
X150839457Y-92823044D01*
X150859448Y-92835026D01*
X150878168Y-92848910D01*
X150895438Y-92864562D01*
X150911090Y-92881832D01*
X150924974Y-92900552D01*
X150936956Y-92920543D01*
X150946921Y-92941613D01*
X150954773Y-92963557D01*
X150960437Y-92986166D01*
X150963856Y-93009221D01*
X150965000Y-93032500D01*
X150965000Y-93607500D01*
X150963856Y-93630779D01*
X150960437Y-93653834D01*
X150954773Y-93676443D01*
X150946921Y-93698387D01*
X150936956Y-93719457D01*
X150924974Y-93739448D01*
X150911090Y-93758168D01*
X150895438Y-93775438D01*
X150878168Y-93791090D01*
X150859448Y-93804974D01*
X150839457Y-93816956D01*
X150818387Y-93826921D01*
X150796443Y-93834773D01*
X150773834Y-93840437D01*
X150750779Y-93843856D01*
X150727500Y-93845000D01*
X150252500Y-93845000D01*
X150229221Y-93843856D01*
X150206166Y-93840437D01*
X150183557Y-93834773D01*
X150161613Y-93826921D01*
X150140543Y-93816956D01*
X150120552Y-93804974D01*
X150101832Y-93791090D01*
X150084562Y-93775438D01*
X150068910Y-93758168D01*
X150055026Y-93739448D01*
X150043044Y-93719457D01*
X150033079Y-93698387D01*
X150025227Y-93676443D01*
X150019563Y-93653834D01*
X150016144Y-93630779D01*
X150015000Y-93607500D01*
X150015000Y-93032500D01*
X150016144Y-93009221D01*
X150019563Y-92986166D01*
X150025227Y-92963557D01*
X150033079Y-92941613D01*
X150043044Y-92920543D01*
X150055026Y-92900552D01*
X150068910Y-92881832D01*
X150084562Y-92864562D01*
X150101832Y-92848910D01*
X150120552Y-92835026D01*
X150140543Y-92823044D01*
X150161613Y-92813079D01*
X150183557Y-92805227D01*
X150206166Y-92799563D01*
X150229221Y-92796144D01*
X150252500Y-92795000D01*
X150727500Y-92795000D01*
X150750779Y-92796144D01*
X150750779Y-92796144D01*
G37*
D11*
X150490000Y-93320000D03*
D10*
G36*
X146720779Y-40476144D02*
G01*
X146743834Y-40479563D01*
X146766443Y-40485227D01*
X146788387Y-40493079D01*
X146809457Y-40503044D01*
X146829448Y-40515026D01*
X146848168Y-40528910D01*
X146865438Y-40544562D01*
X146881090Y-40561832D01*
X146894974Y-40580552D01*
X146906956Y-40600543D01*
X146916921Y-40621613D01*
X146924773Y-40643557D01*
X146930437Y-40666166D01*
X146933856Y-40689221D01*
X146935000Y-40712500D01*
X146935000Y-41187500D01*
X146933856Y-41210779D01*
X146930437Y-41233834D01*
X146924773Y-41256443D01*
X146916921Y-41278387D01*
X146906956Y-41299457D01*
X146894974Y-41319448D01*
X146881090Y-41338168D01*
X146865438Y-41355438D01*
X146848168Y-41371090D01*
X146829448Y-41384974D01*
X146809457Y-41396956D01*
X146788387Y-41406921D01*
X146766443Y-41414773D01*
X146743834Y-41420437D01*
X146720779Y-41423856D01*
X146697500Y-41425000D01*
X146122500Y-41425000D01*
X146099221Y-41423856D01*
X146076166Y-41420437D01*
X146053557Y-41414773D01*
X146031613Y-41406921D01*
X146010543Y-41396956D01*
X145990552Y-41384974D01*
X145971832Y-41371090D01*
X145954562Y-41355438D01*
X145938910Y-41338168D01*
X145925026Y-41319448D01*
X145913044Y-41299457D01*
X145903079Y-41278387D01*
X145895227Y-41256443D01*
X145889563Y-41233834D01*
X145886144Y-41210779D01*
X145885000Y-41187500D01*
X145885000Y-40712500D01*
X145886144Y-40689221D01*
X145889563Y-40666166D01*
X145895227Y-40643557D01*
X145903079Y-40621613D01*
X145913044Y-40600543D01*
X145925026Y-40580552D01*
X145938910Y-40561832D01*
X145954562Y-40544562D01*
X145971832Y-40528910D01*
X145990552Y-40515026D01*
X146010543Y-40503044D01*
X146031613Y-40493079D01*
X146053557Y-40485227D01*
X146076166Y-40479563D01*
X146099221Y-40476144D01*
X146122500Y-40475000D01*
X146697500Y-40475000D01*
X146720779Y-40476144D01*
X146720779Y-40476144D01*
G37*
D11*
X146410000Y-40950000D03*
D10*
G36*
X148470779Y-40476144D02*
G01*
X148493834Y-40479563D01*
X148516443Y-40485227D01*
X148538387Y-40493079D01*
X148559457Y-40503044D01*
X148579448Y-40515026D01*
X148598168Y-40528910D01*
X148615438Y-40544562D01*
X148631090Y-40561832D01*
X148644974Y-40580552D01*
X148656956Y-40600543D01*
X148666921Y-40621613D01*
X148674773Y-40643557D01*
X148680437Y-40666166D01*
X148683856Y-40689221D01*
X148685000Y-40712500D01*
X148685000Y-41187500D01*
X148683856Y-41210779D01*
X148680437Y-41233834D01*
X148674773Y-41256443D01*
X148666921Y-41278387D01*
X148656956Y-41299457D01*
X148644974Y-41319448D01*
X148631090Y-41338168D01*
X148615438Y-41355438D01*
X148598168Y-41371090D01*
X148579448Y-41384974D01*
X148559457Y-41396956D01*
X148538387Y-41406921D01*
X148516443Y-41414773D01*
X148493834Y-41420437D01*
X148470779Y-41423856D01*
X148447500Y-41425000D01*
X147872500Y-41425000D01*
X147849221Y-41423856D01*
X147826166Y-41420437D01*
X147803557Y-41414773D01*
X147781613Y-41406921D01*
X147760543Y-41396956D01*
X147740552Y-41384974D01*
X147721832Y-41371090D01*
X147704562Y-41355438D01*
X147688910Y-41338168D01*
X147675026Y-41319448D01*
X147663044Y-41299457D01*
X147653079Y-41278387D01*
X147645227Y-41256443D01*
X147639563Y-41233834D01*
X147636144Y-41210779D01*
X147635000Y-41187500D01*
X147635000Y-40712500D01*
X147636144Y-40689221D01*
X147639563Y-40666166D01*
X147645227Y-40643557D01*
X147653079Y-40621613D01*
X147663044Y-40600543D01*
X147675026Y-40580552D01*
X147688910Y-40561832D01*
X147704562Y-40544562D01*
X147721832Y-40528910D01*
X147740552Y-40515026D01*
X147760543Y-40503044D01*
X147781613Y-40493079D01*
X147803557Y-40485227D01*
X147826166Y-40479563D01*
X147849221Y-40476144D01*
X147872500Y-40475000D01*
X148447500Y-40475000D01*
X148470779Y-40476144D01*
X148470779Y-40476144D01*
G37*
D11*
X148160000Y-40950000D03*
D10*
G36*
X147600779Y-87846144D02*
G01*
X147623834Y-87849563D01*
X147646443Y-87855227D01*
X147668387Y-87863079D01*
X147689457Y-87873044D01*
X147709448Y-87885026D01*
X147728168Y-87898910D01*
X147745438Y-87914562D01*
X147761090Y-87931832D01*
X147774974Y-87950552D01*
X147786956Y-87970543D01*
X147796921Y-87991613D01*
X147804773Y-88013557D01*
X147810437Y-88036166D01*
X147813856Y-88059221D01*
X147815000Y-88082500D01*
X147815000Y-88557500D01*
X147813856Y-88580779D01*
X147810437Y-88603834D01*
X147804773Y-88626443D01*
X147796921Y-88648387D01*
X147786956Y-88669457D01*
X147774974Y-88689448D01*
X147761090Y-88708168D01*
X147745438Y-88725438D01*
X147728168Y-88741090D01*
X147709448Y-88754974D01*
X147689457Y-88766956D01*
X147668387Y-88776921D01*
X147646443Y-88784773D01*
X147623834Y-88790437D01*
X147600779Y-88793856D01*
X147577500Y-88795000D01*
X147002500Y-88795000D01*
X146979221Y-88793856D01*
X146956166Y-88790437D01*
X146933557Y-88784773D01*
X146911613Y-88776921D01*
X146890543Y-88766956D01*
X146870552Y-88754974D01*
X146851832Y-88741090D01*
X146834562Y-88725438D01*
X146818910Y-88708168D01*
X146805026Y-88689448D01*
X146793044Y-88669457D01*
X146783079Y-88648387D01*
X146775227Y-88626443D01*
X146769563Y-88603834D01*
X146766144Y-88580779D01*
X146765000Y-88557500D01*
X146765000Y-88082500D01*
X146766144Y-88059221D01*
X146769563Y-88036166D01*
X146775227Y-88013557D01*
X146783079Y-87991613D01*
X146793044Y-87970543D01*
X146805026Y-87950552D01*
X146818910Y-87931832D01*
X146834562Y-87914562D01*
X146851832Y-87898910D01*
X146870552Y-87885026D01*
X146890543Y-87873044D01*
X146911613Y-87863079D01*
X146933557Y-87855227D01*
X146956166Y-87849563D01*
X146979221Y-87846144D01*
X147002500Y-87845000D01*
X147577500Y-87845000D01*
X147600779Y-87846144D01*
X147600779Y-87846144D01*
G37*
D11*
X147290000Y-88320000D03*
D10*
G36*
X149350779Y-87846144D02*
G01*
X149373834Y-87849563D01*
X149396443Y-87855227D01*
X149418387Y-87863079D01*
X149439457Y-87873044D01*
X149459448Y-87885026D01*
X149478168Y-87898910D01*
X149495438Y-87914562D01*
X149511090Y-87931832D01*
X149524974Y-87950552D01*
X149536956Y-87970543D01*
X149546921Y-87991613D01*
X149554773Y-88013557D01*
X149560437Y-88036166D01*
X149563856Y-88059221D01*
X149565000Y-88082500D01*
X149565000Y-88557500D01*
X149563856Y-88580779D01*
X149560437Y-88603834D01*
X149554773Y-88626443D01*
X149546921Y-88648387D01*
X149536956Y-88669457D01*
X149524974Y-88689448D01*
X149511090Y-88708168D01*
X149495438Y-88725438D01*
X149478168Y-88741090D01*
X149459448Y-88754974D01*
X149439457Y-88766956D01*
X149418387Y-88776921D01*
X149396443Y-88784773D01*
X149373834Y-88790437D01*
X149350779Y-88793856D01*
X149327500Y-88795000D01*
X148752500Y-88795000D01*
X148729221Y-88793856D01*
X148706166Y-88790437D01*
X148683557Y-88784773D01*
X148661613Y-88776921D01*
X148640543Y-88766956D01*
X148620552Y-88754974D01*
X148601832Y-88741090D01*
X148584562Y-88725438D01*
X148568910Y-88708168D01*
X148555026Y-88689448D01*
X148543044Y-88669457D01*
X148533079Y-88648387D01*
X148525227Y-88626443D01*
X148519563Y-88603834D01*
X148516144Y-88580779D01*
X148515000Y-88557500D01*
X148515000Y-88082500D01*
X148516144Y-88059221D01*
X148519563Y-88036166D01*
X148525227Y-88013557D01*
X148533079Y-87991613D01*
X148543044Y-87970543D01*
X148555026Y-87950552D01*
X148568910Y-87931832D01*
X148584562Y-87914562D01*
X148601832Y-87898910D01*
X148620552Y-87885026D01*
X148640543Y-87873044D01*
X148661613Y-87863079D01*
X148683557Y-87855227D01*
X148706166Y-87849563D01*
X148729221Y-87846144D01*
X148752500Y-87845000D01*
X149327500Y-87845000D01*
X149350779Y-87846144D01*
X149350779Y-87846144D01*
G37*
D11*
X149040000Y-88320000D03*
D16*
X156500000Y-63780000D03*
X156490000Y-68080000D03*
X156450000Y-76630000D03*
X156450000Y-80790000D03*
X156450000Y-72410000D03*
D17*
X146290000Y-90420000D03*
X147240000Y-90420000D03*
X148190000Y-90420000D03*
X148190000Y-93120000D03*
X146290000Y-93120000D03*
X147240000Y-93120000D03*
D18*
X145850000Y-82110000D03*
D19*
X145850000Y-75810000D03*
X148150000Y-75810000D03*
X143550000Y-75810000D03*
D20*
X143860000Y-35675000D03*
X143860000Y-30625000D03*
X141320000Y-35675000D03*
X141320000Y-30625000D03*
X138780000Y-35675000D03*
X138780000Y-30625000D03*
X136240000Y-35675000D03*
X136240000Y-30625000D03*
X133700000Y-35675000D03*
X133700000Y-30625000D03*
X131160000Y-35675000D03*
X131160000Y-30625000D03*
X128620000Y-35675000D03*
X128620000Y-30625000D03*
X126080000Y-35675000D03*
X126080000Y-30625000D03*
X123540000Y-35675000D03*
X123540000Y-30625000D03*
X121000000Y-35675000D03*
X121000000Y-30625000D03*
X118460000Y-35675000D03*
X118460000Y-30625000D03*
X115920000Y-35675000D03*
X115920000Y-30625000D03*
X113380000Y-35675000D03*
X113380000Y-30625000D03*
X110840000Y-35675000D03*
X110840000Y-30625000D03*
X108300000Y-35675000D03*
X108300000Y-30625000D03*
X105760000Y-35675000D03*
X105760000Y-30625000D03*
D21*
X92000000Y-29000000D03*
X156400000Y-119600000D03*
X92000000Y-119600000D03*
X156200000Y-29000000D03*
D10*
G36*
X139230779Y-76546144D02*
G01*
X139253834Y-76549563D01*
X139276443Y-76555227D01*
X139298387Y-76563079D01*
X139319457Y-76573044D01*
X139339448Y-76585026D01*
X139358168Y-76598910D01*
X139375438Y-76614562D01*
X139391090Y-76631832D01*
X139404974Y-76650552D01*
X139416956Y-76670543D01*
X139426921Y-76691613D01*
X139434773Y-76713557D01*
X139440437Y-76736166D01*
X139443856Y-76759221D01*
X139445000Y-76782500D01*
X139445000Y-77357500D01*
X139443856Y-77380779D01*
X139440437Y-77403834D01*
X139434773Y-77426443D01*
X139426921Y-77448387D01*
X139416956Y-77469457D01*
X139404974Y-77489448D01*
X139391090Y-77508168D01*
X139375438Y-77525438D01*
X139358168Y-77541090D01*
X139339448Y-77554974D01*
X139319457Y-77566956D01*
X139298387Y-77576921D01*
X139276443Y-77584773D01*
X139253834Y-77590437D01*
X139230779Y-77593856D01*
X139207500Y-77595000D01*
X138732500Y-77595000D01*
X138709221Y-77593856D01*
X138686166Y-77590437D01*
X138663557Y-77584773D01*
X138641613Y-77576921D01*
X138620543Y-77566956D01*
X138600552Y-77554974D01*
X138581832Y-77541090D01*
X138564562Y-77525438D01*
X138548910Y-77508168D01*
X138535026Y-77489448D01*
X138523044Y-77469457D01*
X138513079Y-77448387D01*
X138505227Y-77426443D01*
X138499563Y-77403834D01*
X138496144Y-77380779D01*
X138495000Y-77357500D01*
X138495000Y-76782500D01*
X138496144Y-76759221D01*
X138499563Y-76736166D01*
X138505227Y-76713557D01*
X138513079Y-76691613D01*
X138523044Y-76670543D01*
X138535026Y-76650552D01*
X138548910Y-76631832D01*
X138564562Y-76614562D01*
X138581832Y-76598910D01*
X138600552Y-76585026D01*
X138620543Y-76573044D01*
X138641613Y-76563079D01*
X138663557Y-76555227D01*
X138686166Y-76549563D01*
X138709221Y-76546144D01*
X138732500Y-76545000D01*
X139207500Y-76545000D01*
X139230779Y-76546144D01*
X139230779Y-76546144D01*
G37*
D11*
X138970000Y-77070000D03*
D10*
G36*
X139230779Y-74796144D02*
G01*
X139253834Y-74799563D01*
X139276443Y-74805227D01*
X139298387Y-74813079D01*
X139319457Y-74823044D01*
X139339448Y-74835026D01*
X139358168Y-74848910D01*
X139375438Y-74864562D01*
X139391090Y-74881832D01*
X139404974Y-74900552D01*
X139416956Y-74920543D01*
X139426921Y-74941613D01*
X139434773Y-74963557D01*
X139440437Y-74986166D01*
X139443856Y-75009221D01*
X139445000Y-75032500D01*
X139445000Y-75607500D01*
X139443856Y-75630779D01*
X139440437Y-75653834D01*
X139434773Y-75676443D01*
X139426921Y-75698387D01*
X139416956Y-75719457D01*
X139404974Y-75739448D01*
X139391090Y-75758168D01*
X139375438Y-75775438D01*
X139358168Y-75791090D01*
X139339448Y-75804974D01*
X139319457Y-75816956D01*
X139298387Y-75826921D01*
X139276443Y-75834773D01*
X139253834Y-75840437D01*
X139230779Y-75843856D01*
X139207500Y-75845000D01*
X138732500Y-75845000D01*
X138709221Y-75843856D01*
X138686166Y-75840437D01*
X138663557Y-75834773D01*
X138641613Y-75826921D01*
X138620543Y-75816956D01*
X138600552Y-75804974D01*
X138581832Y-75791090D01*
X138564562Y-75775438D01*
X138548910Y-75758168D01*
X138535026Y-75739448D01*
X138523044Y-75719457D01*
X138513079Y-75698387D01*
X138505227Y-75676443D01*
X138499563Y-75653834D01*
X138496144Y-75630779D01*
X138495000Y-75607500D01*
X138495000Y-75032500D01*
X138496144Y-75009221D01*
X138499563Y-74986166D01*
X138505227Y-74963557D01*
X138513079Y-74941613D01*
X138523044Y-74920543D01*
X138535026Y-74900552D01*
X138548910Y-74881832D01*
X138564562Y-74864562D01*
X138581832Y-74848910D01*
X138600552Y-74835026D01*
X138620543Y-74823044D01*
X138641613Y-74813079D01*
X138663557Y-74805227D01*
X138686166Y-74799563D01*
X138709221Y-74796144D01*
X138732500Y-74795000D01*
X139207500Y-74795000D01*
X139230779Y-74796144D01*
X139230779Y-74796144D01*
G37*
D11*
X138970000Y-75320000D03*
D10*
G36*
X144589504Y-92496204D02*
G01*
X144613773Y-92499804D01*
X144637571Y-92505765D01*
X144660671Y-92514030D01*
X144682849Y-92524520D01*
X144703893Y-92537133D01*
X144723598Y-92551747D01*
X144741777Y-92568223D01*
X144758253Y-92586402D01*
X144772867Y-92606107D01*
X144785480Y-92627151D01*
X144795970Y-92649329D01*
X144804235Y-92672429D01*
X144810196Y-92696227D01*
X144813796Y-92720496D01*
X144815000Y-92745000D01*
X144815000Y-93495000D01*
X144813796Y-93519504D01*
X144810196Y-93543773D01*
X144804235Y-93567571D01*
X144795970Y-93590671D01*
X144785480Y-93612849D01*
X144772867Y-93633893D01*
X144758253Y-93653598D01*
X144741777Y-93671777D01*
X144723598Y-93688253D01*
X144703893Y-93702867D01*
X144682849Y-93715480D01*
X144660671Y-93725970D01*
X144637571Y-93734235D01*
X144613773Y-93740196D01*
X144589504Y-93743796D01*
X144565000Y-93745000D01*
X142415000Y-93745000D01*
X142390496Y-93743796D01*
X142366227Y-93740196D01*
X142342429Y-93734235D01*
X142319329Y-93725970D01*
X142297151Y-93715480D01*
X142276107Y-93702867D01*
X142256402Y-93688253D01*
X142238223Y-93671777D01*
X142221747Y-93653598D01*
X142207133Y-93633893D01*
X142194520Y-93612849D01*
X142184030Y-93590671D01*
X142175765Y-93567571D01*
X142169804Y-93543773D01*
X142166204Y-93519504D01*
X142165000Y-93495000D01*
X142165000Y-92745000D01*
X142166204Y-92720496D01*
X142169804Y-92696227D01*
X142175765Y-92672429D01*
X142184030Y-92649329D01*
X142194520Y-92627151D01*
X142207133Y-92606107D01*
X142221747Y-92586402D01*
X142238223Y-92568223D01*
X142256402Y-92551747D01*
X142276107Y-92537133D01*
X142297151Y-92524520D01*
X142319329Y-92514030D01*
X142342429Y-92505765D01*
X142366227Y-92499804D01*
X142390496Y-92496204D01*
X142415000Y-92495000D01*
X144565000Y-92495000D01*
X144589504Y-92496204D01*
X144589504Y-92496204D01*
G37*
D22*
X143490000Y-93120000D03*
D10*
G36*
X144589504Y-89696204D02*
G01*
X144613773Y-89699804D01*
X144637571Y-89705765D01*
X144660671Y-89714030D01*
X144682849Y-89724520D01*
X144703893Y-89737133D01*
X144723598Y-89751747D01*
X144741777Y-89768223D01*
X144758253Y-89786402D01*
X144772867Y-89806107D01*
X144785480Y-89827151D01*
X144795970Y-89849329D01*
X144804235Y-89872429D01*
X144810196Y-89896227D01*
X144813796Y-89920496D01*
X144815000Y-89945000D01*
X144815000Y-90695000D01*
X144813796Y-90719504D01*
X144810196Y-90743773D01*
X144804235Y-90767571D01*
X144795970Y-90790671D01*
X144785480Y-90812849D01*
X144772867Y-90833893D01*
X144758253Y-90853598D01*
X144741777Y-90871777D01*
X144723598Y-90888253D01*
X144703893Y-90902867D01*
X144682849Y-90915480D01*
X144660671Y-90925970D01*
X144637571Y-90934235D01*
X144613773Y-90940196D01*
X144589504Y-90943796D01*
X144565000Y-90945000D01*
X142415000Y-90945000D01*
X142390496Y-90943796D01*
X142366227Y-90940196D01*
X142342429Y-90934235D01*
X142319329Y-90925970D01*
X142297151Y-90915480D01*
X142276107Y-90902867D01*
X142256402Y-90888253D01*
X142238223Y-90871777D01*
X142221747Y-90853598D01*
X142207133Y-90833893D01*
X142194520Y-90812849D01*
X142184030Y-90790671D01*
X142175765Y-90767571D01*
X142169804Y-90743773D01*
X142166204Y-90719504D01*
X142165000Y-90695000D01*
X142165000Y-89945000D01*
X142166204Y-89920496D01*
X142169804Y-89896227D01*
X142175765Y-89872429D01*
X142184030Y-89849329D01*
X142194520Y-89827151D01*
X142207133Y-89806107D01*
X142221747Y-89786402D01*
X142238223Y-89768223D01*
X142256402Y-89751747D01*
X142276107Y-89737133D01*
X142297151Y-89724520D01*
X142319329Y-89714030D01*
X142342429Y-89705765D01*
X142366227Y-89699804D01*
X142390496Y-89696204D01*
X142415000Y-89695000D01*
X144565000Y-89695000D01*
X144589504Y-89696204D01*
X144589504Y-89696204D01*
G37*
D22*
X143490000Y-90320000D03*
D23*
X154590000Y-72410000D03*
X151390010Y-68819990D03*
X150490000Y-90440000D03*
X148160000Y-77420000D03*
X145090000Y-35710000D03*
X147240000Y-87430000D03*
X139670000Y-91480000D03*
X144350000Y-43860000D03*
X151120000Y-78460000D03*
X143550000Y-74310000D03*
X150190000Y-71420000D03*
X152350001Y-71420000D03*
X147230000Y-94320000D03*
X149070000Y-87030000D03*
X154580000Y-76620000D03*
X149800000Y-41420000D03*
X149640197Y-44679803D03*
X147010000Y-43350000D03*
X146670000Y-47300000D03*
X137586942Y-40553058D03*
X150660000Y-72650000D03*
X152650011Y-72640000D03*
X154540000Y-80800000D03*
X149722244Y-45957954D03*
X154410000Y-63820000D03*
X147840000Y-46020000D03*
X138720000Y-41260000D03*
X147283582Y-44770810D03*
X140709081Y-42340919D03*
X145570000Y-40950000D03*
X149530000Y-47960000D03*
X105760000Y-37840000D03*
X147740000Y-48615000D03*
X108300000Y-38465000D03*
X149560000Y-49240000D03*
X110840000Y-39090000D03*
X147740000Y-49910000D03*
X113380000Y-39715000D03*
X149570000Y-50570000D03*
X115920000Y-40340000D03*
X147770000Y-51220000D03*
X118460000Y-40965000D03*
X149560000Y-51870000D03*
X121000000Y-41590000D03*
X147750000Y-52500000D03*
X123540000Y-42215000D03*
X149580000Y-53150000D03*
X126080000Y-42840000D03*
X147770000Y-53820000D03*
X128620000Y-43465000D03*
X149580000Y-54470000D03*
X131160000Y-44090000D03*
X147730000Y-55110000D03*
X133700000Y-44715000D03*
X149690000Y-61870000D03*
X154430000Y-68070000D03*
X146590000Y-45420000D03*
X139900000Y-41700000D03*
X107060000Y-46610000D03*
X138344529Y-47745471D03*
X138295963Y-48694230D03*
X110390000Y-48620000D03*
X138323943Y-49643819D03*
X112060000Y-49620000D03*
X138318404Y-50593805D03*
X114710000Y-50480000D03*
X138320357Y-51543805D03*
X117290000Y-51520000D03*
X119635001Y-52504999D03*
X138336534Y-52493669D03*
X138310000Y-53430000D03*
X122100000Y-53250000D03*
X138363436Y-54378498D03*
X125110000Y-54160000D03*
X138311381Y-55327073D03*
X127540000Y-55360000D03*
X138250000Y-56260000D03*
X129620000Y-56220000D03*
X138275641Y-57222846D03*
X132692846Y-57222846D03*
X138269163Y-58172826D03*
X135500000Y-58190000D03*
X153490000Y-69980000D03*
X150760000Y-70010000D03*
D24*
X144510000Y-30625000D02*
X144545000Y-30590000D01*
X143860000Y-30625000D02*
X144510000Y-30625000D01*
D25*
X150665000Y-75810000D02*
X151120000Y-75355000D01*
X148150000Y-75810000D02*
X150665000Y-75810000D01*
D26*
X143490000Y-93120000D02*
X146290000Y-93120000D01*
X146680000Y-91570000D02*
X150490000Y-91570000D01*
X146290000Y-93120000D02*
X146290000Y-91960000D01*
X146290000Y-91960000D02*
X146680000Y-91570000D01*
D24*
X151120000Y-75355000D02*
X151120000Y-74730000D01*
X143380000Y-93230000D02*
X143490000Y-93120000D01*
X140750000Y-93230000D02*
X143380000Y-93230000D01*
X144510000Y-30625000D02*
X151032500Y-37147500D01*
D25*
X151610020Y-39504027D02*
X151610020Y-57810000D01*
X151610020Y-63299980D02*
X151380010Y-63529990D01*
X151610020Y-57810000D02*
X151610020Y-63299980D01*
X151390010Y-63539990D02*
X151390010Y-64679874D01*
X151380010Y-63529990D02*
X151390010Y-63539990D01*
X151390010Y-72179808D02*
X151380000Y-72189818D01*
X151390010Y-74459990D02*
X151195000Y-74655000D01*
X151390010Y-72090010D02*
X151390010Y-74459990D01*
D24*
X151120000Y-74730000D02*
X151195000Y-74655000D01*
D25*
X151390010Y-72090010D02*
X151390010Y-72179808D01*
D24*
X151610020Y-37725020D02*
X151032500Y-37147500D01*
X151610020Y-39504027D02*
X151610020Y-37725020D01*
D25*
X151390010Y-70460010D02*
X151390010Y-72090010D01*
D24*
X156450000Y-72410000D02*
X154590000Y-72410000D01*
D25*
X151390010Y-63539990D02*
X151390010Y-68819990D01*
X151390010Y-68819990D02*
X151390010Y-70460010D01*
D24*
X150490000Y-91570000D02*
X150490000Y-90440000D01*
X148150000Y-76844315D02*
X148150000Y-75810000D01*
X148160000Y-76854315D02*
X148150000Y-76844315D01*
X148160000Y-77420000D02*
X148160000Y-76854315D01*
D27*
X147240000Y-88370000D02*
X147290000Y-88320000D01*
X147240000Y-90420000D02*
X147240000Y-88370000D01*
D24*
X144510000Y-35675000D02*
X144545000Y-35710000D01*
X143860000Y-35675000D02*
X144510000Y-35675000D01*
X144545000Y-35710000D02*
X145090000Y-35710000D01*
D25*
X143060000Y-75320000D02*
X143550000Y-75810000D01*
X140820000Y-75320000D02*
X143060000Y-75320000D01*
D24*
X147290000Y-88320000D02*
X147290000Y-87480000D01*
X147290000Y-87480000D02*
X147240000Y-87430000D01*
X140175000Y-91480000D02*
X140155000Y-91460000D01*
X140750000Y-91480000D02*
X140175000Y-91480000D01*
X140750000Y-91480000D02*
X139670000Y-91480000D01*
X139545000Y-75320000D02*
X140820000Y-75320000D01*
X138970000Y-75320000D02*
X139545000Y-75320000D01*
X148010000Y-44070000D02*
X148585000Y-44070000D01*
X146860000Y-44070000D02*
X148010000Y-44070000D01*
X145885000Y-45045000D02*
X146860000Y-44070000D01*
X145700000Y-45045000D02*
X145885000Y-45045000D01*
X144350000Y-43880000D02*
X144350000Y-43860000D01*
X145700000Y-45045000D02*
X145515000Y-45045000D01*
X145515000Y-45045000D02*
X144350000Y-43880000D01*
X151120000Y-77105000D02*
X151120000Y-78460000D01*
X143550000Y-75810000D02*
X143550000Y-74660000D01*
X143550000Y-74660000D02*
X143550000Y-74310000D01*
X147015000Y-42115000D02*
X148905002Y-42115000D01*
X145700000Y-43430000D02*
X147015000Y-42115000D01*
X145700000Y-43745000D02*
X145700000Y-43430000D01*
X150140000Y-71370000D02*
X150190000Y-71420000D01*
X152350001Y-71420000D02*
X152350000Y-71420000D01*
X152350000Y-71420000D02*
X152025011Y-71744989D01*
X152025011Y-83772489D02*
X152025011Y-82365011D01*
X149877500Y-85920000D02*
X152025011Y-83772489D01*
X149065000Y-85920000D02*
X149877500Y-85920000D01*
X152025011Y-71744989D02*
X152025011Y-82365011D01*
X147240000Y-93120000D02*
X147240000Y-94310000D01*
X147240000Y-94310000D02*
X147230000Y-94320000D01*
X149070000Y-85925000D02*
X149065000Y-85920000D01*
X149070000Y-87030000D02*
X149070000Y-85925000D01*
X139449072Y-93719072D02*
X140050000Y-94320000D01*
X139429072Y-93719072D02*
X139449072Y-93719072D01*
X138930000Y-93220000D02*
X139429072Y-93719072D01*
X140050000Y-94320000D02*
X147230000Y-94320000D01*
X148905002Y-42115000D02*
X150885001Y-44094999D01*
X150140000Y-63864414D02*
X150140000Y-67670000D01*
X151040000Y-62964414D02*
X150140000Y-63864414D01*
X151040000Y-44771444D02*
X151040000Y-62964414D01*
X150140000Y-67670000D02*
X150140000Y-71370000D01*
X151040000Y-44249998D02*
X150985001Y-44194999D01*
X151040000Y-44771444D02*
X151040000Y-44249998D01*
X150885001Y-44094999D02*
X150985001Y-44194999D01*
X156450000Y-76630000D02*
X154590000Y-76630000D01*
X154590000Y-76630000D02*
X154580000Y-76620000D01*
D25*
X140820000Y-77070000D02*
X140820000Y-80840000D01*
X142090000Y-82110000D02*
X145850000Y-82110000D01*
X140820000Y-80840000D02*
X142090000Y-82110000D01*
X145850000Y-76940000D02*
X145850000Y-82110000D01*
X145850000Y-75810000D02*
X145850000Y-76940000D01*
D24*
X148785000Y-40950000D02*
X148805000Y-40930000D01*
X148160000Y-40950000D02*
X148785000Y-40950000D01*
X148785000Y-40950000D02*
X149330000Y-40950000D01*
X149330000Y-40950000D02*
X149800000Y-41420000D01*
X148625197Y-44679803D02*
X148585000Y-44720000D01*
X149640197Y-44679803D02*
X148625197Y-44679803D01*
X138970000Y-77070000D02*
X140820000Y-77070000D01*
X145850000Y-67305858D02*
X145850000Y-67770000D01*
X150350000Y-62805858D02*
X145850000Y-67305858D01*
D25*
X145850000Y-67770000D02*
X145850000Y-75810000D01*
D24*
X149640197Y-44679803D02*
X150347245Y-45386851D01*
X150347245Y-45386851D02*
X150347245Y-52007757D01*
X150347245Y-52007757D02*
X150350000Y-52010512D01*
X150350000Y-52010512D02*
X150350000Y-62805858D01*
X146930000Y-43350000D02*
X147010000Y-43350000D01*
X145700000Y-44395000D02*
X145885000Y-44395000D01*
X145885000Y-44395000D02*
X146930000Y-43350000D01*
X145700000Y-46995000D02*
X146365000Y-46995000D01*
X146365000Y-46995000D02*
X146670000Y-47300000D01*
X136890000Y-30625000D02*
X136240000Y-30625000D01*
X137586942Y-31321942D02*
X136890000Y-30625000D01*
X137586942Y-40553058D02*
X137586942Y-31321942D01*
X146090000Y-90220000D02*
X146290000Y-90420000D01*
X146090000Y-85920000D02*
X146090000Y-90220000D01*
X146190000Y-90320000D02*
X146290000Y-90420000D01*
X143490000Y-90320000D02*
X146190000Y-90320000D01*
D27*
X148765000Y-90420000D02*
X148190000Y-90420000D01*
X149040000Y-90145000D02*
X148765000Y-90420000D01*
X149040000Y-88320000D02*
X149040000Y-90145000D01*
D24*
X152650011Y-72640000D02*
X152650011Y-85119989D01*
X152650011Y-85119989D02*
X152650011Y-86289989D01*
X152650011Y-86989989D02*
X152650011Y-85119989D01*
X151320000Y-88320000D02*
X152650011Y-86989989D01*
X149040000Y-88320000D02*
X151320000Y-88320000D01*
X149264278Y-43420000D02*
X148585000Y-43420000D01*
X150660000Y-72650000D02*
X149340000Y-72650000D01*
X149340000Y-72650000D02*
X148650000Y-71960000D01*
X148650000Y-71960000D02*
X148650000Y-64930136D01*
X148650000Y-64930136D02*
X150682139Y-62897997D01*
X150682139Y-62897997D02*
X150682139Y-44837861D01*
X150682139Y-44837861D02*
X149264278Y-43420000D01*
X156450000Y-80790000D02*
X154550000Y-80790000D01*
X154550000Y-80790000D02*
X154540000Y-80800000D01*
X149134290Y-45370000D02*
X149722244Y-45957954D01*
X148585000Y-45370000D02*
X149134290Y-45370000D01*
X156500000Y-63780000D02*
X154450000Y-63780000D01*
X154450000Y-63780000D02*
X154410000Y-63820000D01*
X148585000Y-46020000D02*
X147740000Y-46020000D01*
X138720000Y-35735000D02*
X138780000Y-35675000D01*
X138720000Y-41260000D02*
X138720000Y-35735000D01*
X140670000Y-30625000D02*
X141320000Y-30625000D01*
X140530000Y-30765000D02*
X140670000Y-30625000D01*
X140530000Y-41820002D02*
X140530000Y-30765000D01*
X140525001Y-41825001D02*
X140530000Y-41820002D01*
X140525001Y-42156839D02*
X140525001Y-41825001D01*
X140709081Y-42340919D02*
X140525001Y-42156839D01*
X146410000Y-40950000D02*
X145570000Y-40950000D01*
X147480000Y-46670000D02*
X148585000Y-46670000D01*
X147214999Y-46404999D02*
X147480000Y-46670000D01*
X147214999Y-45719999D02*
X147214999Y-46404999D01*
X147215001Y-45719997D02*
X147214999Y-45719999D01*
X147215001Y-44839391D02*
X147215001Y-45719997D01*
X147283582Y-44770810D02*
X147215001Y-44839391D01*
X148585000Y-47970000D02*
X149520000Y-47970000D01*
X149520000Y-47970000D02*
X149530000Y-47960000D01*
X105760000Y-37840000D02*
X105760000Y-35675000D01*
X148585000Y-48620000D02*
X147745000Y-48620000D01*
X147745000Y-48620000D02*
X147740000Y-48615000D01*
X108300000Y-38180000D02*
X108300000Y-38465000D01*
X108300000Y-38180000D02*
X108300000Y-35675000D01*
D26*
X148585000Y-49270000D02*
X149530000Y-49270000D01*
D27*
X149530000Y-49270000D02*
X149560000Y-49240000D01*
D24*
X110840000Y-38990000D02*
X110840000Y-39090000D01*
X110840000Y-38990000D02*
X110840000Y-35675000D01*
D27*
X148585000Y-49920000D02*
X147750000Y-49920000D01*
X147750000Y-49920000D02*
X147740000Y-49910000D01*
D24*
X113380000Y-39490000D02*
X113380000Y-39715000D01*
X113380000Y-39490000D02*
X113380000Y-35675000D01*
D27*
X148585000Y-50570000D02*
X149570000Y-50570000D01*
D24*
X115920000Y-40020000D02*
X115920000Y-40340000D01*
X115920000Y-40020000D02*
X115920000Y-35675000D01*
D27*
X148585000Y-51220000D02*
X147770000Y-51220000D01*
D24*
X118460000Y-40710000D02*
X118460000Y-40965000D01*
X118460000Y-40710000D02*
X118460000Y-35675000D01*
D27*
X121000000Y-37500000D02*
X121010000Y-37510000D01*
X121000000Y-37370000D02*
X121000000Y-37500000D01*
X121000000Y-35675000D02*
X121000000Y-37370000D01*
X148585000Y-51870000D02*
X149560000Y-51870000D01*
D24*
X121000000Y-41330000D02*
X121000000Y-41590000D01*
X121000000Y-35675000D02*
X121000000Y-41330000D01*
D27*
X148585000Y-52520000D02*
X147770000Y-52520000D01*
X147770000Y-52520000D02*
X147750000Y-52500000D01*
D24*
X123540000Y-41890000D02*
X123540000Y-42215000D01*
X123540000Y-35675000D02*
X123540000Y-41890000D01*
D27*
X148585000Y-53170000D02*
X149560000Y-53170000D01*
X149560000Y-53170000D02*
X149580000Y-53150000D01*
D24*
X126080000Y-42490000D02*
X126080000Y-42840000D01*
X126080000Y-35675000D02*
X126080000Y-42490000D01*
D27*
X148585000Y-53820000D02*
X147910000Y-53820000D01*
X147910000Y-53820000D02*
X147770000Y-53820000D01*
D24*
X128620000Y-43060000D02*
X128620000Y-43465000D01*
X128620000Y-35675000D02*
X128620000Y-43060000D01*
X148585000Y-54470000D02*
X149580000Y-54470000D01*
X131160000Y-43700000D02*
X131160000Y-44090000D01*
X131160000Y-35675000D02*
X131160000Y-43700000D01*
D27*
X148585000Y-55120000D02*
X147740000Y-55120000D01*
X147740000Y-55120000D02*
X147730000Y-55110000D01*
D24*
X133700000Y-44370000D02*
X133700000Y-44715000D01*
X133700000Y-35675000D02*
X133700000Y-44370000D01*
X149160000Y-55770000D02*
X149690000Y-56300000D01*
X148585000Y-55770000D02*
X149160000Y-55770000D01*
X149690000Y-56300000D02*
X149690000Y-61870000D01*
X156490000Y-68080000D02*
X154440000Y-68080000D01*
X154440000Y-68080000D02*
X154430000Y-68070000D01*
X145200000Y-45695000D02*
X145185000Y-45680000D01*
X145700000Y-45695000D02*
X145200000Y-45695000D01*
X145185000Y-45680000D02*
X139230000Y-45680000D01*
X136240000Y-42690000D02*
X136240000Y-35675000D01*
X139230000Y-45680000D02*
X136240000Y-42690000D01*
X146860000Y-45370000D02*
X146860000Y-45290000D01*
X145700000Y-46345000D02*
X145885000Y-46345000D01*
X139430000Y-30625000D02*
X138780000Y-30625000D01*
X139900000Y-31095000D02*
X139430000Y-30625000D01*
X139900000Y-41700000D02*
X139900000Y-31095000D01*
X146395000Y-45615000D02*
X146590000Y-45420000D01*
X146395000Y-45835000D02*
X146395000Y-45615000D01*
X146395000Y-45835000D02*
X146860000Y-45370000D01*
X145885000Y-46345000D02*
X146395000Y-45835000D01*
X105760000Y-32350000D02*
X107060000Y-33650000D01*
X105760000Y-30625000D02*
X105760000Y-32350000D01*
X107060000Y-33650000D02*
X107060000Y-46610000D01*
X145700000Y-47645000D02*
X138445000Y-47645000D01*
X138445000Y-47645000D02*
X138344529Y-47745471D01*
X108300000Y-30625000D02*
X108300000Y-31700000D01*
X108300000Y-31700000D02*
X110114999Y-33514999D01*
X145700000Y-48295000D02*
X138695193Y-48295000D01*
X138695193Y-48295000D02*
X138295963Y-48694230D01*
X110149314Y-48154999D02*
X110114999Y-48154999D01*
X110114999Y-33514999D02*
X110114999Y-48154999D01*
X110114999Y-48344999D02*
X110114999Y-48154999D01*
X110390000Y-48620000D02*
X110114999Y-48344999D01*
X112060000Y-33570000D02*
X112060000Y-34414998D01*
X110840000Y-30625000D02*
X110840000Y-32350000D01*
X110840000Y-32350000D02*
X112060000Y-33570000D01*
X145700000Y-48945000D02*
X139022762Y-48945000D01*
X139022762Y-48945000D02*
X138323943Y-49643819D01*
X112060000Y-34414998D02*
X112060000Y-49620000D01*
X114030000Y-30625000D02*
X114710000Y-31305000D01*
X113380000Y-30625000D02*
X114030000Y-30625000D01*
X139297764Y-49595000D02*
X138572764Y-50320000D01*
X145700000Y-49595000D02*
X139297764Y-49595000D01*
X138572764Y-50320000D02*
X138572764Y-50339445D01*
X138572764Y-50339445D02*
X138318404Y-50593805D01*
X114710000Y-31305000D02*
X114710000Y-50480000D01*
X115920000Y-30625000D02*
X115920000Y-32350000D01*
X115920000Y-32350000D02*
X117290000Y-33720000D01*
X145200000Y-50245000D02*
X145195000Y-50240000D01*
X145700000Y-50245000D02*
X145200000Y-50245000D01*
X145195000Y-50240000D02*
X139700000Y-50240000D01*
X139700000Y-50240000D02*
X138396195Y-51543805D01*
X138396195Y-51543805D02*
X138320357Y-51543805D01*
X117290000Y-33720000D02*
X117290000Y-51520000D01*
X117290000Y-51520000D02*
X117290000Y-51750000D01*
X119635001Y-32875001D02*
X119635001Y-52504999D01*
X118460000Y-30625000D02*
X118460000Y-31700000D01*
X118460000Y-31700000D02*
X119635001Y-32875001D01*
X145200000Y-50895000D02*
X145195000Y-50900000D01*
X145700000Y-50895000D02*
X145200000Y-50895000D01*
X139889164Y-50900000D02*
X138620358Y-52168806D01*
X145195000Y-50900000D02*
X139889164Y-50900000D01*
X138620358Y-52168806D02*
X138620358Y-52209845D01*
X138620358Y-52209845D02*
X138336534Y-52493669D01*
X122100000Y-33450000D02*
X122100000Y-34294998D01*
X121000000Y-30625000D02*
X121000000Y-32350000D01*
X121000000Y-32350000D02*
X122100000Y-33450000D01*
X145200000Y-51545000D02*
X145195000Y-51540000D01*
X145700000Y-51545000D02*
X145200000Y-51545000D01*
X145195000Y-51540000D02*
X140359101Y-51540000D01*
X140359101Y-51540000D02*
X138464023Y-53435078D01*
X122100000Y-53250000D02*
X122100000Y-52550000D01*
X122100000Y-34294998D02*
X122100000Y-52550000D01*
X122100000Y-52550000D02*
X122100000Y-52990000D01*
X123540000Y-32350000D02*
X125120000Y-33930000D01*
X123540000Y-30625000D02*
X123540000Y-32350000D01*
X145200000Y-52195000D02*
X145195000Y-52200000D01*
X145700000Y-52195000D02*
X145200000Y-52195000D01*
X145195000Y-52200000D02*
X140541934Y-52200000D01*
X140541934Y-52200000D02*
X138363436Y-54378498D01*
X125120000Y-53584315D02*
X125120000Y-53080000D01*
X125110000Y-53594315D02*
X125120000Y-53584315D01*
X125110000Y-54160000D02*
X125110000Y-53594315D01*
X125120000Y-33930000D02*
X125120000Y-53080000D01*
X125120000Y-53080000D02*
X125120000Y-53290000D01*
X126080000Y-30625000D02*
X126730000Y-30625000D01*
X126730000Y-30625000D02*
X127525001Y-31420001D01*
X145700000Y-52845000D02*
X140845000Y-52845000D01*
X140845000Y-52845000D02*
X138362927Y-55327073D01*
X138362927Y-55327073D02*
X138311381Y-55327073D01*
X127525001Y-54779316D02*
X127525001Y-53615001D01*
X127540000Y-54794315D02*
X127525001Y-54779316D01*
X127540000Y-55360000D02*
X127540000Y-54794315D01*
X127525001Y-31420001D02*
X127525001Y-53615001D01*
X127525001Y-53615001D02*
X127525001Y-53824999D01*
X128620000Y-32350000D02*
X129630000Y-33360000D01*
X128620000Y-30625000D02*
X128620000Y-32350000D01*
X145200000Y-53495000D02*
X145195000Y-53500000D01*
X145700000Y-53495000D02*
X145200000Y-53495000D01*
X145195000Y-53500000D02*
X141130399Y-53500000D01*
X141130399Y-53500000D02*
X138354293Y-56276106D01*
X129630000Y-55644315D02*
X129630000Y-54180000D01*
X129620000Y-55654315D02*
X129630000Y-55644315D01*
X129620000Y-56220000D02*
X129620000Y-55654315D01*
X129630000Y-33360000D02*
X129630000Y-54180000D01*
X129630000Y-54180000D02*
X129630000Y-54560000D01*
X131160000Y-32350000D02*
X132680000Y-33870000D01*
X131160000Y-30625000D02*
X131160000Y-32350000D01*
X132680000Y-33870000D02*
X132680000Y-55150000D01*
X145700000Y-54145000D02*
X141353486Y-54145000D01*
X141353486Y-54145000D02*
X141059243Y-54439243D01*
X141059243Y-54439243D02*
X138275641Y-57222846D01*
X132692846Y-56502846D02*
X132692846Y-57222846D01*
X132680000Y-56490000D02*
X132692846Y-56502846D01*
X132680000Y-56490000D02*
X132680000Y-56650000D01*
X132680000Y-55150000D02*
X132680000Y-56490000D01*
X134350000Y-30625000D02*
X135500000Y-31775000D01*
X133700000Y-30625000D02*
X134350000Y-30625000D01*
X145200000Y-54795000D02*
X145195000Y-54790000D01*
X145700000Y-54795000D02*
X145200000Y-54795000D01*
X141633489Y-54790000D02*
X138900642Y-57522847D01*
X145195000Y-54790000D02*
X141633489Y-54790000D01*
X138900642Y-57522847D02*
X138269163Y-58154326D01*
X138269163Y-58154326D02*
X138269163Y-58172826D01*
X135500000Y-58190000D02*
X135500000Y-55160000D01*
X135500000Y-31775000D02*
X135500000Y-55160000D01*
X135500000Y-55160000D02*
X135500000Y-55735000D01*
X141320000Y-33950000D02*
X142180000Y-33090000D01*
X141320000Y-35675000D02*
X141320000Y-33950000D01*
X142180000Y-33090000D02*
X144890000Y-33090000D01*
X144890000Y-33090000D02*
X144890000Y-33180000D01*
X153490000Y-90835000D02*
X153490000Y-90580000D01*
X152765000Y-91560000D02*
X153490000Y-90835000D01*
X152190000Y-91560000D02*
X152765000Y-91560000D01*
X153490000Y-90580000D02*
X153490000Y-69980000D01*
X144890000Y-33180000D02*
X149895000Y-38185000D01*
D25*
X151330010Y-39620010D02*
X151330010Y-63149990D01*
X149895000Y-38185000D02*
X151330010Y-39620010D01*
D24*
X150760000Y-63720000D02*
X151175000Y-63305000D01*
X150760000Y-70010000D02*
X150760000Y-63720000D01*
D25*
X151330010Y-63149990D02*
X151175000Y-63305000D01*
D26*
X148390000Y-93320000D02*
X148190000Y-93120000D01*
X150490000Y-93320000D02*
X148390000Y-93320000D01*
D24*
X150500000Y-93310000D02*
X150490000Y-93320000D01*
X152190000Y-93310000D02*
X150500000Y-93310000D01*
M02*
