G04 #@! TF.GenerationSoftware,KiCad,Pcbnew,(5.1.4)-1*
G04 #@! TF.CreationDate,2019-11-27T00:03:08+08:00*
G04 #@! TF.ProjectId,FH26W-45S-0.3SHW,46483236-572d-4343-9553-2d302e335348,rev?*
G04 #@! TF.SameCoordinates,Original*
G04 #@! TF.FileFunction,Soldermask,Top*
G04 #@! TF.FilePolarity,Negative*
%FSLAX46Y46*%
G04 Gerber Fmt 4.6, Leading zero omitted, Abs format (unit mm)*
G04 Created by KiCad (PCBNEW (5.1.4)-1) date 2019-11-27 00:03:08*
%MOMM*%
%LPD*%
G04 APERTURE LIST*
%ADD10C,0.100000*%
G04 APERTURE END LIST*
D10*
G36*
X157217021Y-116906640D02*
G01*
X157726769Y-117117785D01*
X157726771Y-117117786D01*
X158185534Y-117424321D01*
X158575679Y-117814466D01*
X158882214Y-118273229D01*
X158882215Y-118273231D01*
X159093360Y-118782979D01*
X159201000Y-119324124D01*
X159201000Y-119875876D01*
X159093360Y-120417021D01*
X158882215Y-120926769D01*
X158882214Y-120926771D01*
X158575679Y-121385534D01*
X158185534Y-121775679D01*
X157726771Y-122082214D01*
X157726770Y-122082215D01*
X157726769Y-122082215D01*
X157217021Y-122293360D01*
X156675876Y-122401000D01*
X156124124Y-122401000D01*
X155582979Y-122293360D01*
X155073231Y-122082215D01*
X155073230Y-122082215D01*
X155073229Y-122082214D01*
X154614466Y-121775679D01*
X154224321Y-121385534D01*
X153917786Y-120926771D01*
X153917785Y-120926769D01*
X153706640Y-120417021D01*
X153599000Y-119875876D01*
X153599000Y-119324124D01*
X153706640Y-118782979D01*
X153917785Y-118273231D01*
X153917786Y-118273229D01*
X154224321Y-117814466D01*
X154614466Y-117424321D01*
X155073229Y-117117786D01*
X155073231Y-117117785D01*
X155582979Y-116906640D01*
X156124124Y-116799000D01*
X156675876Y-116799000D01*
X157217021Y-116906640D01*
X157217021Y-116906640D01*
G37*
G36*
X92817021Y-116906640D02*
G01*
X93326769Y-117117785D01*
X93326771Y-117117786D01*
X93785534Y-117424321D01*
X94175679Y-117814466D01*
X94482214Y-118273229D01*
X94482215Y-118273231D01*
X94693360Y-118782979D01*
X94801000Y-119324124D01*
X94801000Y-119875876D01*
X94693360Y-120417021D01*
X94482215Y-120926769D01*
X94482214Y-120926771D01*
X94175679Y-121385534D01*
X93785534Y-121775679D01*
X93326771Y-122082214D01*
X93326770Y-122082215D01*
X93326769Y-122082215D01*
X92817021Y-122293360D01*
X92275876Y-122401000D01*
X91724124Y-122401000D01*
X91182979Y-122293360D01*
X90673231Y-122082215D01*
X90673230Y-122082215D01*
X90673229Y-122082214D01*
X90214466Y-121775679D01*
X89824321Y-121385534D01*
X89517786Y-120926771D01*
X89517785Y-120926769D01*
X89306640Y-120417021D01*
X89199000Y-119875876D01*
X89199000Y-119324124D01*
X89306640Y-118782979D01*
X89517785Y-118273231D01*
X89517786Y-118273229D01*
X89824321Y-117814466D01*
X90214466Y-117424321D01*
X90673229Y-117117786D01*
X90673231Y-117117785D01*
X91182979Y-116906640D01*
X91724124Y-116799000D01*
X92275876Y-116799000D01*
X92817021Y-116906640D01*
X92817021Y-116906640D01*
G37*
G36*
X157017021Y-26306640D02*
G01*
X157526769Y-26517785D01*
X157526771Y-26517786D01*
X157985534Y-26824321D01*
X158375679Y-27214466D01*
X158682214Y-27673229D01*
X158682215Y-27673231D01*
X158893360Y-28182979D01*
X159001000Y-28724124D01*
X159001000Y-29275876D01*
X158893360Y-29817021D01*
X158682215Y-30326769D01*
X158682214Y-30326771D01*
X158375679Y-30785534D01*
X157985534Y-31175679D01*
X157526771Y-31482214D01*
X157526770Y-31482215D01*
X157526769Y-31482215D01*
X157017021Y-31693360D01*
X156475876Y-31801000D01*
X155924124Y-31801000D01*
X155382979Y-31693360D01*
X154873231Y-31482215D01*
X154873230Y-31482215D01*
X154873229Y-31482214D01*
X154414466Y-31175679D01*
X154024321Y-30785534D01*
X153717786Y-30326771D01*
X153717785Y-30326769D01*
X153506640Y-29817021D01*
X153399000Y-29275876D01*
X153399000Y-28724124D01*
X153506640Y-28182979D01*
X153717785Y-27673231D01*
X153717786Y-27673229D01*
X154024321Y-27214466D01*
X154414466Y-26824321D01*
X154873229Y-26517786D01*
X154873231Y-26517785D01*
X155382979Y-26306640D01*
X155924124Y-26199000D01*
X156475876Y-26199000D01*
X157017021Y-26306640D01*
X157017021Y-26306640D01*
G37*
G36*
X92817021Y-26306640D02*
G01*
X93326769Y-26517785D01*
X93326771Y-26517786D01*
X93785534Y-26824321D01*
X94175679Y-27214466D01*
X94482214Y-27673229D01*
X94482215Y-27673231D01*
X94693360Y-28182979D01*
X94801000Y-28724124D01*
X94801000Y-29275876D01*
X94693360Y-29817021D01*
X94482215Y-30326769D01*
X94482214Y-30326771D01*
X94175679Y-30785534D01*
X93785534Y-31175679D01*
X93326771Y-31482214D01*
X93326770Y-31482215D01*
X93326769Y-31482215D01*
X92817021Y-31693360D01*
X92275876Y-31801000D01*
X91724124Y-31801000D01*
X91182979Y-31693360D01*
X90673231Y-31482215D01*
X90673230Y-31482215D01*
X90673229Y-31482214D01*
X90214466Y-31175679D01*
X89824321Y-30785534D01*
X89517786Y-30326771D01*
X89517785Y-30326769D01*
X89306640Y-29817021D01*
X89199000Y-29275876D01*
X89199000Y-28724124D01*
X89306640Y-28182979D01*
X89517785Y-27673231D01*
X89517786Y-27673229D01*
X89824321Y-27214466D01*
X90214466Y-26824321D01*
X90673229Y-26517786D01*
X90673231Y-26517785D01*
X91182979Y-26306640D01*
X91724124Y-26199000D01*
X92275876Y-26199000D01*
X92817021Y-26306640D01*
X92817021Y-26306640D01*
G37*
M02*
