G04 #@! TF.GenerationSoftware,KiCad,Pcbnew,(5.1.4)-1*
G04 #@! TF.CreationDate,2019-12-14T17:44:52+08:00*
G04 #@! TF.ProjectId,STM32F407VTE6-SOCKET,53544d33-3246-4343-9037-565445362d53,rev?*
G04 #@! TF.SameCoordinates,Original*
G04 #@! TF.FileFunction,Soldermask,Top*
G04 #@! TF.FilePolarity,Negative*
%FSLAX46Y46*%
G04 Gerber Fmt 4.6, Leading zero omitted, Abs format (unit mm)*
G04 Created by KiCad (PCBNEW (5.1.4)-1) date 2019-12-14 17:44:52*
%MOMM*%
%LPD*%
G04 APERTURE LIST*
%ADD10C,0.100000*%
G04 APERTURE END LIST*
D10*
G36*
X141650442Y-176275518D02*
G01*
X141716627Y-176282037D01*
X141886466Y-176333557D01*
X142042991Y-176417222D01*
X142078729Y-176446552D01*
X142180186Y-176529814D01*
X142263448Y-176631271D01*
X142292778Y-176667009D01*
X142376443Y-176823534D01*
X142427963Y-176993373D01*
X142445359Y-177170000D01*
X142427963Y-177346627D01*
X142376443Y-177516466D01*
X142292778Y-177672991D01*
X142263448Y-177708729D01*
X142180186Y-177810186D01*
X142078729Y-177893448D01*
X142042991Y-177922778D01*
X141886466Y-178006443D01*
X141716627Y-178057963D01*
X141650443Y-178064481D01*
X141584260Y-178071000D01*
X141495740Y-178071000D01*
X141429557Y-178064481D01*
X141363373Y-178057963D01*
X141193534Y-178006443D01*
X141037009Y-177922778D01*
X141001271Y-177893448D01*
X140899814Y-177810186D01*
X140816552Y-177708729D01*
X140787222Y-177672991D01*
X140703557Y-177516466D01*
X140652037Y-177346627D01*
X140634641Y-177170000D01*
X140652037Y-176993373D01*
X140703557Y-176823534D01*
X140787222Y-176667009D01*
X140816552Y-176631271D01*
X140899814Y-176529814D01*
X141001271Y-176446552D01*
X141037009Y-176417222D01*
X141193534Y-176333557D01*
X141363373Y-176282037D01*
X141429558Y-176275518D01*
X141495740Y-176269000D01*
X141584260Y-176269000D01*
X141650442Y-176275518D01*
X141650442Y-176275518D01*
G37*
G36*
X123870442Y-176275518D02*
G01*
X123936627Y-176282037D01*
X124106466Y-176333557D01*
X124262991Y-176417222D01*
X124298729Y-176446552D01*
X124400186Y-176529814D01*
X124483448Y-176631271D01*
X124512778Y-176667009D01*
X124596443Y-176823534D01*
X124647963Y-176993373D01*
X124665359Y-177170000D01*
X124647963Y-177346627D01*
X124596443Y-177516466D01*
X124512778Y-177672991D01*
X124483448Y-177708729D01*
X124400186Y-177810186D01*
X124298729Y-177893448D01*
X124262991Y-177922778D01*
X124106466Y-178006443D01*
X123936627Y-178057963D01*
X123870443Y-178064481D01*
X123804260Y-178071000D01*
X123715740Y-178071000D01*
X123649557Y-178064481D01*
X123583373Y-178057963D01*
X123413534Y-178006443D01*
X123257009Y-177922778D01*
X123221271Y-177893448D01*
X123119814Y-177810186D01*
X123036552Y-177708729D01*
X123007222Y-177672991D01*
X122923557Y-177516466D01*
X122872037Y-177346627D01*
X122854641Y-177170000D01*
X122872037Y-176993373D01*
X122923557Y-176823534D01*
X123007222Y-176667009D01*
X123036552Y-176631271D01*
X123119814Y-176529814D01*
X123221271Y-176446552D01*
X123257009Y-176417222D01*
X123413534Y-176333557D01*
X123583373Y-176282037D01*
X123649558Y-176275518D01*
X123715740Y-176269000D01*
X123804260Y-176269000D01*
X123870442Y-176275518D01*
X123870442Y-176275518D01*
G37*
G36*
X103550442Y-176275518D02*
G01*
X103616627Y-176282037D01*
X103786466Y-176333557D01*
X103942991Y-176417222D01*
X103978729Y-176446552D01*
X104080186Y-176529814D01*
X104163448Y-176631271D01*
X104192778Y-176667009D01*
X104276443Y-176823534D01*
X104327963Y-176993373D01*
X104345359Y-177170000D01*
X104327963Y-177346627D01*
X104276443Y-177516466D01*
X104192778Y-177672991D01*
X104163448Y-177708729D01*
X104080186Y-177810186D01*
X103978729Y-177893448D01*
X103942991Y-177922778D01*
X103786466Y-178006443D01*
X103616627Y-178057963D01*
X103550443Y-178064481D01*
X103484260Y-178071000D01*
X103395740Y-178071000D01*
X103329557Y-178064481D01*
X103263373Y-178057963D01*
X103093534Y-178006443D01*
X102937009Y-177922778D01*
X102901271Y-177893448D01*
X102799814Y-177810186D01*
X102716552Y-177708729D01*
X102687222Y-177672991D01*
X102603557Y-177516466D01*
X102552037Y-177346627D01*
X102534641Y-177170000D01*
X102552037Y-176993373D01*
X102603557Y-176823534D01*
X102687222Y-176667009D01*
X102716552Y-176631271D01*
X102799814Y-176529814D01*
X102901271Y-176446552D01*
X102937009Y-176417222D01*
X103093534Y-176333557D01*
X103263373Y-176282037D01*
X103329558Y-176275518D01*
X103395740Y-176269000D01*
X103484260Y-176269000D01*
X103550442Y-176275518D01*
X103550442Y-176275518D01*
G37*
G36*
X106090442Y-176275518D02*
G01*
X106156627Y-176282037D01*
X106326466Y-176333557D01*
X106482991Y-176417222D01*
X106518729Y-176446552D01*
X106620186Y-176529814D01*
X106703448Y-176631271D01*
X106732778Y-176667009D01*
X106816443Y-176823534D01*
X106867963Y-176993373D01*
X106885359Y-177170000D01*
X106867963Y-177346627D01*
X106816443Y-177516466D01*
X106732778Y-177672991D01*
X106703448Y-177708729D01*
X106620186Y-177810186D01*
X106518729Y-177893448D01*
X106482991Y-177922778D01*
X106326466Y-178006443D01*
X106156627Y-178057963D01*
X106090443Y-178064481D01*
X106024260Y-178071000D01*
X105935740Y-178071000D01*
X105869557Y-178064481D01*
X105803373Y-178057963D01*
X105633534Y-178006443D01*
X105477009Y-177922778D01*
X105441271Y-177893448D01*
X105339814Y-177810186D01*
X105256552Y-177708729D01*
X105227222Y-177672991D01*
X105143557Y-177516466D01*
X105092037Y-177346627D01*
X105074641Y-177170000D01*
X105092037Y-176993373D01*
X105143557Y-176823534D01*
X105227222Y-176667009D01*
X105256552Y-176631271D01*
X105339814Y-176529814D01*
X105441271Y-176446552D01*
X105477009Y-176417222D01*
X105633534Y-176333557D01*
X105803373Y-176282037D01*
X105869558Y-176275518D01*
X105935740Y-176269000D01*
X106024260Y-176269000D01*
X106090442Y-176275518D01*
X106090442Y-176275518D01*
G37*
G36*
X108630442Y-176275518D02*
G01*
X108696627Y-176282037D01*
X108866466Y-176333557D01*
X109022991Y-176417222D01*
X109058729Y-176446552D01*
X109160186Y-176529814D01*
X109243448Y-176631271D01*
X109272778Y-176667009D01*
X109356443Y-176823534D01*
X109407963Y-176993373D01*
X109425359Y-177170000D01*
X109407963Y-177346627D01*
X109356443Y-177516466D01*
X109272778Y-177672991D01*
X109243448Y-177708729D01*
X109160186Y-177810186D01*
X109058729Y-177893448D01*
X109022991Y-177922778D01*
X108866466Y-178006443D01*
X108696627Y-178057963D01*
X108630443Y-178064481D01*
X108564260Y-178071000D01*
X108475740Y-178071000D01*
X108409557Y-178064481D01*
X108343373Y-178057963D01*
X108173534Y-178006443D01*
X108017009Y-177922778D01*
X107981271Y-177893448D01*
X107879814Y-177810186D01*
X107796552Y-177708729D01*
X107767222Y-177672991D01*
X107683557Y-177516466D01*
X107632037Y-177346627D01*
X107614641Y-177170000D01*
X107632037Y-176993373D01*
X107683557Y-176823534D01*
X107767222Y-176667009D01*
X107796552Y-176631271D01*
X107879814Y-176529814D01*
X107981271Y-176446552D01*
X108017009Y-176417222D01*
X108173534Y-176333557D01*
X108343373Y-176282037D01*
X108409558Y-176275518D01*
X108475740Y-176269000D01*
X108564260Y-176269000D01*
X108630442Y-176275518D01*
X108630442Y-176275518D01*
G37*
G36*
X111170442Y-176275518D02*
G01*
X111236627Y-176282037D01*
X111406466Y-176333557D01*
X111562991Y-176417222D01*
X111598729Y-176446552D01*
X111700186Y-176529814D01*
X111783448Y-176631271D01*
X111812778Y-176667009D01*
X111896443Y-176823534D01*
X111947963Y-176993373D01*
X111965359Y-177170000D01*
X111947963Y-177346627D01*
X111896443Y-177516466D01*
X111812778Y-177672991D01*
X111783448Y-177708729D01*
X111700186Y-177810186D01*
X111598729Y-177893448D01*
X111562991Y-177922778D01*
X111406466Y-178006443D01*
X111236627Y-178057963D01*
X111170443Y-178064481D01*
X111104260Y-178071000D01*
X111015740Y-178071000D01*
X110949557Y-178064481D01*
X110883373Y-178057963D01*
X110713534Y-178006443D01*
X110557009Y-177922778D01*
X110521271Y-177893448D01*
X110419814Y-177810186D01*
X110336552Y-177708729D01*
X110307222Y-177672991D01*
X110223557Y-177516466D01*
X110172037Y-177346627D01*
X110154641Y-177170000D01*
X110172037Y-176993373D01*
X110223557Y-176823534D01*
X110307222Y-176667009D01*
X110336552Y-176631271D01*
X110419814Y-176529814D01*
X110521271Y-176446552D01*
X110557009Y-176417222D01*
X110713534Y-176333557D01*
X110883373Y-176282037D01*
X110949558Y-176275518D01*
X111015740Y-176269000D01*
X111104260Y-176269000D01*
X111170442Y-176275518D01*
X111170442Y-176275518D01*
G37*
G36*
X113710442Y-176275518D02*
G01*
X113776627Y-176282037D01*
X113946466Y-176333557D01*
X114102991Y-176417222D01*
X114138729Y-176446552D01*
X114240186Y-176529814D01*
X114323448Y-176631271D01*
X114352778Y-176667009D01*
X114436443Y-176823534D01*
X114487963Y-176993373D01*
X114505359Y-177170000D01*
X114487963Y-177346627D01*
X114436443Y-177516466D01*
X114352778Y-177672991D01*
X114323448Y-177708729D01*
X114240186Y-177810186D01*
X114138729Y-177893448D01*
X114102991Y-177922778D01*
X113946466Y-178006443D01*
X113776627Y-178057963D01*
X113710443Y-178064481D01*
X113644260Y-178071000D01*
X113555740Y-178071000D01*
X113489557Y-178064481D01*
X113423373Y-178057963D01*
X113253534Y-178006443D01*
X113097009Y-177922778D01*
X113061271Y-177893448D01*
X112959814Y-177810186D01*
X112876552Y-177708729D01*
X112847222Y-177672991D01*
X112763557Y-177516466D01*
X112712037Y-177346627D01*
X112694641Y-177170000D01*
X112712037Y-176993373D01*
X112763557Y-176823534D01*
X112847222Y-176667009D01*
X112876552Y-176631271D01*
X112959814Y-176529814D01*
X113061271Y-176446552D01*
X113097009Y-176417222D01*
X113253534Y-176333557D01*
X113423373Y-176282037D01*
X113489558Y-176275518D01*
X113555740Y-176269000D01*
X113644260Y-176269000D01*
X113710442Y-176275518D01*
X113710442Y-176275518D01*
G37*
G36*
X116250442Y-176275518D02*
G01*
X116316627Y-176282037D01*
X116486466Y-176333557D01*
X116642991Y-176417222D01*
X116678729Y-176446552D01*
X116780186Y-176529814D01*
X116863448Y-176631271D01*
X116892778Y-176667009D01*
X116976443Y-176823534D01*
X117027963Y-176993373D01*
X117045359Y-177170000D01*
X117027963Y-177346627D01*
X116976443Y-177516466D01*
X116892778Y-177672991D01*
X116863448Y-177708729D01*
X116780186Y-177810186D01*
X116678729Y-177893448D01*
X116642991Y-177922778D01*
X116486466Y-178006443D01*
X116316627Y-178057963D01*
X116250443Y-178064481D01*
X116184260Y-178071000D01*
X116095740Y-178071000D01*
X116029557Y-178064481D01*
X115963373Y-178057963D01*
X115793534Y-178006443D01*
X115637009Y-177922778D01*
X115601271Y-177893448D01*
X115499814Y-177810186D01*
X115416552Y-177708729D01*
X115387222Y-177672991D01*
X115303557Y-177516466D01*
X115252037Y-177346627D01*
X115234641Y-177170000D01*
X115252037Y-176993373D01*
X115303557Y-176823534D01*
X115387222Y-176667009D01*
X115416552Y-176631271D01*
X115499814Y-176529814D01*
X115601271Y-176446552D01*
X115637009Y-176417222D01*
X115793534Y-176333557D01*
X115963373Y-176282037D01*
X116029558Y-176275518D01*
X116095740Y-176269000D01*
X116184260Y-176269000D01*
X116250442Y-176275518D01*
X116250442Y-176275518D01*
G37*
G36*
X118790442Y-176275518D02*
G01*
X118856627Y-176282037D01*
X119026466Y-176333557D01*
X119182991Y-176417222D01*
X119218729Y-176446552D01*
X119320186Y-176529814D01*
X119403448Y-176631271D01*
X119432778Y-176667009D01*
X119516443Y-176823534D01*
X119567963Y-176993373D01*
X119585359Y-177170000D01*
X119567963Y-177346627D01*
X119516443Y-177516466D01*
X119432778Y-177672991D01*
X119403448Y-177708729D01*
X119320186Y-177810186D01*
X119218729Y-177893448D01*
X119182991Y-177922778D01*
X119026466Y-178006443D01*
X118856627Y-178057963D01*
X118790443Y-178064481D01*
X118724260Y-178071000D01*
X118635740Y-178071000D01*
X118569557Y-178064481D01*
X118503373Y-178057963D01*
X118333534Y-178006443D01*
X118177009Y-177922778D01*
X118141271Y-177893448D01*
X118039814Y-177810186D01*
X117956552Y-177708729D01*
X117927222Y-177672991D01*
X117843557Y-177516466D01*
X117792037Y-177346627D01*
X117774641Y-177170000D01*
X117792037Y-176993373D01*
X117843557Y-176823534D01*
X117927222Y-176667009D01*
X117956552Y-176631271D01*
X118039814Y-176529814D01*
X118141271Y-176446552D01*
X118177009Y-176417222D01*
X118333534Y-176333557D01*
X118503373Y-176282037D01*
X118569558Y-176275518D01*
X118635740Y-176269000D01*
X118724260Y-176269000D01*
X118790442Y-176275518D01*
X118790442Y-176275518D01*
G37*
G36*
X126410442Y-176275518D02*
G01*
X126476627Y-176282037D01*
X126646466Y-176333557D01*
X126802991Y-176417222D01*
X126838729Y-176446552D01*
X126940186Y-176529814D01*
X127023448Y-176631271D01*
X127052778Y-176667009D01*
X127136443Y-176823534D01*
X127187963Y-176993373D01*
X127205359Y-177170000D01*
X127187963Y-177346627D01*
X127136443Y-177516466D01*
X127052778Y-177672991D01*
X127023448Y-177708729D01*
X126940186Y-177810186D01*
X126838729Y-177893448D01*
X126802991Y-177922778D01*
X126646466Y-178006443D01*
X126476627Y-178057963D01*
X126410443Y-178064481D01*
X126344260Y-178071000D01*
X126255740Y-178071000D01*
X126189557Y-178064481D01*
X126123373Y-178057963D01*
X125953534Y-178006443D01*
X125797009Y-177922778D01*
X125761271Y-177893448D01*
X125659814Y-177810186D01*
X125576552Y-177708729D01*
X125547222Y-177672991D01*
X125463557Y-177516466D01*
X125412037Y-177346627D01*
X125394641Y-177170000D01*
X125412037Y-176993373D01*
X125463557Y-176823534D01*
X125547222Y-176667009D01*
X125576552Y-176631271D01*
X125659814Y-176529814D01*
X125761271Y-176446552D01*
X125797009Y-176417222D01*
X125953534Y-176333557D01*
X126123373Y-176282037D01*
X126189558Y-176275518D01*
X126255740Y-176269000D01*
X126344260Y-176269000D01*
X126410442Y-176275518D01*
X126410442Y-176275518D01*
G37*
G36*
X121330442Y-176275518D02*
G01*
X121396627Y-176282037D01*
X121566466Y-176333557D01*
X121722991Y-176417222D01*
X121758729Y-176446552D01*
X121860186Y-176529814D01*
X121943448Y-176631271D01*
X121972778Y-176667009D01*
X122056443Y-176823534D01*
X122107963Y-176993373D01*
X122125359Y-177170000D01*
X122107963Y-177346627D01*
X122056443Y-177516466D01*
X121972778Y-177672991D01*
X121943448Y-177708729D01*
X121860186Y-177810186D01*
X121758729Y-177893448D01*
X121722991Y-177922778D01*
X121566466Y-178006443D01*
X121396627Y-178057963D01*
X121330443Y-178064481D01*
X121264260Y-178071000D01*
X121175740Y-178071000D01*
X121109557Y-178064481D01*
X121043373Y-178057963D01*
X120873534Y-178006443D01*
X120717009Y-177922778D01*
X120681271Y-177893448D01*
X120579814Y-177810186D01*
X120496552Y-177708729D01*
X120467222Y-177672991D01*
X120383557Y-177516466D01*
X120332037Y-177346627D01*
X120314641Y-177170000D01*
X120332037Y-176993373D01*
X120383557Y-176823534D01*
X120467222Y-176667009D01*
X120496552Y-176631271D01*
X120579814Y-176529814D01*
X120681271Y-176446552D01*
X120717009Y-176417222D01*
X120873534Y-176333557D01*
X121043373Y-176282037D01*
X121109558Y-176275518D01*
X121175740Y-176269000D01*
X121264260Y-176269000D01*
X121330442Y-176275518D01*
X121330442Y-176275518D01*
G37*
G36*
X139110442Y-176275518D02*
G01*
X139176627Y-176282037D01*
X139346466Y-176333557D01*
X139502991Y-176417222D01*
X139538729Y-176446552D01*
X139640186Y-176529814D01*
X139723448Y-176631271D01*
X139752778Y-176667009D01*
X139836443Y-176823534D01*
X139887963Y-176993373D01*
X139905359Y-177170000D01*
X139887963Y-177346627D01*
X139836443Y-177516466D01*
X139752778Y-177672991D01*
X139723448Y-177708729D01*
X139640186Y-177810186D01*
X139538729Y-177893448D01*
X139502991Y-177922778D01*
X139346466Y-178006443D01*
X139176627Y-178057963D01*
X139110443Y-178064481D01*
X139044260Y-178071000D01*
X138955740Y-178071000D01*
X138889557Y-178064481D01*
X138823373Y-178057963D01*
X138653534Y-178006443D01*
X138497009Y-177922778D01*
X138461271Y-177893448D01*
X138359814Y-177810186D01*
X138276552Y-177708729D01*
X138247222Y-177672991D01*
X138163557Y-177516466D01*
X138112037Y-177346627D01*
X138094641Y-177170000D01*
X138112037Y-176993373D01*
X138163557Y-176823534D01*
X138247222Y-176667009D01*
X138276552Y-176631271D01*
X138359814Y-176529814D01*
X138461271Y-176446552D01*
X138497009Y-176417222D01*
X138653534Y-176333557D01*
X138823373Y-176282037D01*
X138889558Y-176275518D01*
X138955740Y-176269000D01*
X139044260Y-176269000D01*
X139110442Y-176275518D01*
X139110442Y-176275518D01*
G37*
G36*
X136570442Y-176275518D02*
G01*
X136636627Y-176282037D01*
X136806466Y-176333557D01*
X136962991Y-176417222D01*
X136998729Y-176446552D01*
X137100186Y-176529814D01*
X137183448Y-176631271D01*
X137212778Y-176667009D01*
X137296443Y-176823534D01*
X137347963Y-176993373D01*
X137365359Y-177170000D01*
X137347963Y-177346627D01*
X137296443Y-177516466D01*
X137212778Y-177672991D01*
X137183448Y-177708729D01*
X137100186Y-177810186D01*
X136998729Y-177893448D01*
X136962991Y-177922778D01*
X136806466Y-178006443D01*
X136636627Y-178057963D01*
X136570443Y-178064481D01*
X136504260Y-178071000D01*
X136415740Y-178071000D01*
X136349557Y-178064481D01*
X136283373Y-178057963D01*
X136113534Y-178006443D01*
X135957009Y-177922778D01*
X135921271Y-177893448D01*
X135819814Y-177810186D01*
X135736552Y-177708729D01*
X135707222Y-177672991D01*
X135623557Y-177516466D01*
X135572037Y-177346627D01*
X135554641Y-177170000D01*
X135572037Y-176993373D01*
X135623557Y-176823534D01*
X135707222Y-176667009D01*
X135736552Y-176631271D01*
X135819814Y-176529814D01*
X135921271Y-176446552D01*
X135957009Y-176417222D01*
X136113534Y-176333557D01*
X136283373Y-176282037D01*
X136349558Y-176275518D01*
X136415740Y-176269000D01*
X136504260Y-176269000D01*
X136570442Y-176275518D01*
X136570442Y-176275518D01*
G37*
G36*
X131490442Y-176275518D02*
G01*
X131556627Y-176282037D01*
X131726466Y-176333557D01*
X131882991Y-176417222D01*
X131918729Y-176446552D01*
X132020186Y-176529814D01*
X132103448Y-176631271D01*
X132132778Y-176667009D01*
X132216443Y-176823534D01*
X132267963Y-176993373D01*
X132285359Y-177170000D01*
X132267963Y-177346627D01*
X132216443Y-177516466D01*
X132132778Y-177672991D01*
X132103448Y-177708729D01*
X132020186Y-177810186D01*
X131918729Y-177893448D01*
X131882991Y-177922778D01*
X131726466Y-178006443D01*
X131556627Y-178057963D01*
X131490443Y-178064481D01*
X131424260Y-178071000D01*
X131335740Y-178071000D01*
X131269557Y-178064481D01*
X131203373Y-178057963D01*
X131033534Y-178006443D01*
X130877009Y-177922778D01*
X130841271Y-177893448D01*
X130739814Y-177810186D01*
X130656552Y-177708729D01*
X130627222Y-177672991D01*
X130543557Y-177516466D01*
X130492037Y-177346627D01*
X130474641Y-177170000D01*
X130492037Y-176993373D01*
X130543557Y-176823534D01*
X130627222Y-176667009D01*
X130656552Y-176631271D01*
X130739814Y-176529814D01*
X130841271Y-176446552D01*
X130877009Y-176417222D01*
X131033534Y-176333557D01*
X131203373Y-176282037D01*
X131269558Y-176275518D01*
X131335740Y-176269000D01*
X131424260Y-176269000D01*
X131490442Y-176275518D01*
X131490442Y-176275518D01*
G37*
G36*
X128950442Y-176275518D02*
G01*
X129016627Y-176282037D01*
X129186466Y-176333557D01*
X129342991Y-176417222D01*
X129378729Y-176446552D01*
X129480186Y-176529814D01*
X129563448Y-176631271D01*
X129592778Y-176667009D01*
X129676443Y-176823534D01*
X129727963Y-176993373D01*
X129745359Y-177170000D01*
X129727963Y-177346627D01*
X129676443Y-177516466D01*
X129592778Y-177672991D01*
X129563448Y-177708729D01*
X129480186Y-177810186D01*
X129378729Y-177893448D01*
X129342991Y-177922778D01*
X129186466Y-178006443D01*
X129016627Y-178057963D01*
X128950443Y-178064481D01*
X128884260Y-178071000D01*
X128795740Y-178071000D01*
X128729557Y-178064481D01*
X128663373Y-178057963D01*
X128493534Y-178006443D01*
X128337009Y-177922778D01*
X128301271Y-177893448D01*
X128199814Y-177810186D01*
X128116552Y-177708729D01*
X128087222Y-177672991D01*
X128003557Y-177516466D01*
X127952037Y-177346627D01*
X127934641Y-177170000D01*
X127952037Y-176993373D01*
X128003557Y-176823534D01*
X128087222Y-176667009D01*
X128116552Y-176631271D01*
X128199814Y-176529814D01*
X128301271Y-176446552D01*
X128337009Y-176417222D01*
X128493534Y-176333557D01*
X128663373Y-176282037D01*
X128729558Y-176275518D01*
X128795740Y-176269000D01*
X128884260Y-176269000D01*
X128950442Y-176275518D01*
X128950442Y-176275518D01*
G37*
G36*
X134030442Y-176275518D02*
G01*
X134096627Y-176282037D01*
X134266466Y-176333557D01*
X134422991Y-176417222D01*
X134458729Y-176446552D01*
X134560186Y-176529814D01*
X134643448Y-176631271D01*
X134672778Y-176667009D01*
X134756443Y-176823534D01*
X134807963Y-176993373D01*
X134825359Y-177170000D01*
X134807963Y-177346627D01*
X134756443Y-177516466D01*
X134672778Y-177672991D01*
X134643448Y-177708729D01*
X134560186Y-177810186D01*
X134458729Y-177893448D01*
X134422991Y-177922778D01*
X134266466Y-178006443D01*
X134096627Y-178057963D01*
X134030443Y-178064481D01*
X133964260Y-178071000D01*
X133875740Y-178071000D01*
X133809557Y-178064481D01*
X133743373Y-178057963D01*
X133573534Y-178006443D01*
X133417009Y-177922778D01*
X133381271Y-177893448D01*
X133279814Y-177810186D01*
X133196552Y-177708729D01*
X133167222Y-177672991D01*
X133083557Y-177516466D01*
X133032037Y-177346627D01*
X133014641Y-177170000D01*
X133032037Y-176993373D01*
X133083557Y-176823534D01*
X133167222Y-176667009D01*
X133196552Y-176631271D01*
X133279814Y-176529814D01*
X133381271Y-176446552D01*
X133417009Y-176417222D01*
X133573534Y-176333557D01*
X133743373Y-176282037D01*
X133809558Y-176275518D01*
X133875740Y-176269000D01*
X133964260Y-176269000D01*
X134030442Y-176275518D01*
X134030442Y-176275518D01*
G37*
G36*
X128950442Y-173735518D02*
G01*
X129016627Y-173742037D01*
X129186466Y-173793557D01*
X129342991Y-173877222D01*
X129378729Y-173906552D01*
X129480186Y-173989814D01*
X129563448Y-174091271D01*
X129592778Y-174127009D01*
X129676443Y-174283534D01*
X129727963Y-174453373D01*
X129745359Y-174630000D01*
X129727963Y-174806627D01*
X129676443Y-174976466D01*
X129592778Y-175132991D01*
X129563448Y-175168729D01*
X129480186Y-175270186D01*
X129378729Y-175353448D01*
X129342991Y-175382778D01*
X129186466Y-175466443D01*
X129016627Y-175517963D01*
X128950443Y-175524481D01*
X128884260Y-175531000D01*
X128795740Y-175531000D01*
X128729557Y-175524481D01*
X128663373Y-175517963D01*
X128493534Y-175466443D01*
X128337009Y-175382778D01*
X128301271Y-175353448D01*
X128199814Y-175270186D01*
X128116552Y-175168729D01*
X128087222Y-175132991D01*
X128003557Y-174976466D01*
X127952037Y-174806627D01*
X127934641Y-174630000D01*
X127952037Y-174453373D01*
X128003557Y-174283534D01*
X128087222Y-174127009D01*
X128116552Y-174091271D01*
X128199814Y-173989814D01*
X128301271Y-173906552D01*
X128337009Y-173877222D01*
X128493534Y-173793557D01*
X128663373Y-173742037D01*
X128729558Y-173735518D01*
X128795740Y-173729000D01*
X128884260Y-173729000D01*
X128950442Y-173735518D01*
X128950442Y-173735518D01*
G37*
G36*
X141650442Y-173735518D02*
G01*
X141716627Y-173742037D01*
X141886466Y-173793557D01*
X142042991Y-173877222D01*
X142078729Y-173906552D01*
X142180186Y-173989814D01*
X142263448Y-174091271D01*
X142292778Y-174127009D01*
X142376443Y-174283534D01*
X142427963Y-174453373D01*
X142445359Y-174630000D01*
X142427963Y-174806627D01*
X142376443Y-174976466D01*
X142292778Y-175132991D01*
X142263448Y-175168729D01*
X142180186Y-175270186D01*
X142078729Y-175353448D01*
X142042991Y-175382778D01*
X141886466Y-175466443D01*
X141716627Y-175517963D01*
X141650443Y-175524481D01*
X141584260Y-175531000D01*
X141495740Y-175531000D01*
X141429557Y-175524481D01*
X141363373Y-175517963D01*
X141193534Y-175466443D01*
X141037009Y-175382778D01*
X141001271Y-175353448D01*
X140899814Y-175270186D01*
X140816552Y-175168729D01*
X140787222Y-175132991D01*
X140703557Y-174976466D01*
X140652037Y-174806627D01*
X140634641Y-174630000D01*
X140652037Y-174453373D01*
X140703557Y-174283534D01*
X140787222Y-174127009D01*
X140816552Y-174091271D01*
X140899814Y-173989814D01*
X141001271Y-173906552D01*
X141037009Y-173877222D01*
X141193534Y-173793557D01*
X141363373Y-173742037D01*
X141429558Y-173735518D01*
X141495740Y-173729000D01*
X141584260Y-173729000D01*
X141650442Y-173735518D01*
X141650442Y-173735518D01*
G37*
G36*
X139110442Y-173735518D02*
G01*
X139176627Y-173742037D01*
X139346466Y-173793557D01*
X139502991Y-173877222D01*
X139538729Y-173906552D01*
X139640186Y-173989814D01*
X139723448Y-174091271D01*
X139752778Y-174127009D01*
X139836443Y-174283534D01*
X139887963Y-174453373D01*
X139905359Y-174630000D01*
X139887963Y-174806627D01*
X139836443Y-174976466D01*
X139752778Y-175132991D01*
X139723448Y-175168729D01*
X139640186Y-175270186D01*
X139538729Y-175353448D01*
X139502991Y-175382778D01*
X139346466Y-175466443D01*
X139176627Y-175517963D01*
X139110443Y-175524481D01*
X139044260Y-175531000D01*
X138955740Y-175531000D01*
X138889557Y-175524481D01*
X138823373Y-175517963D01*
X138653534Y-175466443D01*
X138497009Y-175382778D01*
X138461271Y-175353448D01*
X138359814Y-175270186D01*
X138276552Y-175168729D01*
X138247222Y-175132991D01*
X138163557Y-174976466D01*
X138112037Y-174806627D01*
X138094641Y-174630000D01*
X138112037Y-174453373D01*
X138163557Y-174283534D01*
X138247222Y-174127009D01*
X138276552Y-174091271D01*
X138359814Y-173989814D01*
X138461271Y-173906552D01*
X138497009Y-173877222D01*
X138653534Y-173793557D01*
X138823373Y-173742037D01*
X138889558Y-173735518D01*
X138955740Y-173729000D01*
X139044260Y-173729000D01*
X139110442Y-173735518D01*
X139110442Y-173735518D01*
G37*
G36*
X131490442Y-173735518D02*
G01*
X131556627Y-173742037D01*
X131726466Y-173793557D01*
X131882991Y-173877222D01*
X131918729Y-173906552D01*
X132020186Y-173989814D01*
X132103448Y-174091271D01*
X132132778Y-174127009D01*
X132216443Y-174283534D01*
X132267963Y-174453373D01*
X132285359Y-174630000D01*
X132267963Y-174806627D01*
X132216443Y-174976466D01*
X132132778Y-175132991D01*
X132103448Y-175168729D01*
X132020186Y-175270186D01*
X131918729Y-175353448D01*
X131882991Y-175382778D01*
X131726466Y-175466443D01*
X131556627Y-175517963D01*
X131490443Y-175524481D01*
X131424260Y-175531000D01*
X131335740Y-175531000D01*
X131269557Y-175524481D01*
X131203373Y-175517963D01*
X131033534Y-175466443D01*
X130877009Y-175382778D01*
X130841271Y-175353448D01*
X130739814Y-175270186D01*
X130656552Y-175168729D01*
X130627222Y-175132991D01*
X130543557Y-174976466D01*
X130492037Y-174806627D01*
X130474641Y-174630000D01*
X130492037Y-174453373D01*
X130543557Y-174283534D01*
X130627222Y-174127009D01*
X130656552Y-174091271D01*
X130739814Y-173989814D01*
X130841271Y-173906552D01*
X130877009Y-173877222D01*
X131033534Y-173793557D01*
X131203373Y-173742037D01*
X131269558Y-173735518D01*
X131335740Y-173729000D01*
X131424260Y-173729000D01*
X131490442Y-173735518D01*
X131490442Y-173735518D01*
G37*
G36*
X134030442Y-173735518D02*
G01*
X134096627Y-173742037D01*
X134266466Y-173793557D01*
X134422991Y-173877222D01*
X134458729Y-173906552D01*
X134560186Y-173989814D01*
X134643448Y-174091271D01*
X134672778Y-174127009D01*
X134756443Y-174283534D01*
X134807963Y-174453373D01*
X134825359Y-174630000D01*
X134807963Y-174806627D01*
X134756443Y-174976466D01*
X134672778Y-175132991D01*
X134643448Y-175168729D01*
X134560186Y-175270186D01*
X134458729Y-175353448D01*
X134422991Y-175382778D01*
X134266466Y-175466443D01*
X134096627Y-175517963D01*
X134030443Y-175524481D01*
X133964260Y-175531000D01*
X133875740Y-175531000D01*
X133809557Y-175524481D01*
X133743373Y-175517963D01*
X133573534Y-175466443D01*
X133417009Y-175382778D01*
X133381271Y-175353448D01*
X133279814Y-175270186D01*
X133196552Y-175168729D01*
X133167222Y-175132991D01*
X133083557Y-174976466D01*
X133032037Y-174806627D01*
X133014641Y-174630000D01*
X133032037Y-174453373D01*
X133083557Y-174283534D01*
X133167222Y-174127009D01*
X133196552Y-174091271D01*
X133279814Y-173989814D01*
X133381271Y-173906552D01*
X133417009Y-173877222D01*
X133573534Y-173793557D01*
X133743373Y-173742037D01*
X133809558Y-173735518D01*
X133875740Y-173729000D01*
X133964260Y-173729000D01*
X134030442Y-173735518D01*
X134030442Y-173735518D01*
G37*
G36*
X136570442Y-173735518D02*
G01*
X136636627Y-173742037D01*
X136806466Y-173793557D01*
X136962991Y-173877222D01*
X136998729Y-173906552D01*
X137100186Y-173989814D01*
X137183448Y-174091271D01*
X137212778Y-174127009D01*
X137296443Y-174283534D01*
X137347963Y-174453373D01*
X137365359Y-174630000D01*
X137347963Y-174806627D01*
X137296443Y-174976466D01*
X137212778Y-175132991D01*
X137183448Y-175168729D01*
X137100186Y-175270186D01*
X136998729Y-175353448D01*
X136962991Y-175382778D01*
X136806466Y-175466443D01*
X136636627Y-175517963D01*
X136570443Y-175524481D01*
X136504260Y-175531000D01*
X136415740Y-175531000D01*
X136349557Y-175524481D01*
X136283373Y-175517963D01*
X136113534Y-175466443D01*
X135957009Y-175382778D01*
X135921271Y-175353448D01*
X135819814Y-175270186D01*
X135736552Y-175168729D01*
X135707222Y-175132991D01*
X135623557Y-174976466D01*
X135572037Y-174806627D01*
X135554641Y-174630000D01*
X135572037Y-174453373D01*
X135623557Y-174283534D01*
X135707222Y-174127009D01*
X135736552Y-174091271D01*
X135819814Y-173989814D01*
X135921271Y-173906552D01*
X135957009Y-173877222D01*
X136113534Y-173793557D01*
X136283373Y-173742037D01*
X136349558Y-173735518D01*
X136415740Y-173729000D01*
X136504260Y-173729000D01*
X136570442Y-173735518D01*
X136570442Y-173735518D01*
G37*
G36*
X106090442Y-173735518D02*
G01*
X106156627Y-173742037D01*
X106326466Y-173793557D01*
X106482991Y-173877222D01*
X106518729Y-173906552D01*
X106620186Y-173989814D01*
X106703448Y-174091271D01*
X106732778Y-174127009D01*
X106816443Y-174283534D01*
X106867963Y-174453373D01*
X106885359Y-174630000D01*
X106867963Y-174806627D01*
X106816443Y-174976466D01*
X106732778Y-175132991D01*
X106703448Y-175168729D01*
X106620186Y-175270186D01*
X106518729Y-175353448D01*
X106482991Y-175382778D01*
X106326466Y-175466443D01*
X106156627Y-175517963D01*
X106090443Y-175524481D01*
X106024260Y-175531000D01*
X105935740Y-175531000D01*
X105869557Y-175524481D01*
X105803373Y-175517963D01*
X105633534Y-175466443D01*
X105477009Y-175382778D01*
X105441271Y-175353448D01*
X105339814Y-175270186D01*
X105256552Y-175168729D01*
X105227222Y-175132991D01*
X105143557Y-174976466D01*
X105092037Y-174806627D01*
X105074641Y-174630000D01*
X105092037Y-174453373D01*
X105143557Y-174283534D01*
X105227222Y-174127009D01*
X105256552Y-174091271D01*
X105339814Y-173989814D01*
X105441271Y-173906552D01*
X105477009Y-173877222D01*
X105633534Y-173793557D01*
X105803373Y-173742037D01*
X105869558Y-173735518D01*
X105935740Y-173729000D01*
X106024260Y-173729000D01*
X106090442Y-173735518D01*
X106090442Y-173735518D01*
G37*
G36*
X108630442Y-173735518D02*
G01*
X108696627Y-173742037D01*
X108866466Y-173793557D01*
X109022991Y-173877222D01*
X109058729Y-173906552D01*
X109160186Y-173989814D01*
X109243448Y-174091271D01*
X109272778Y-174127009D01*
X109356443Y-174283534D01*
X109407963Y-174453373D01*
X109425359Y-174630000D01*
X109407963Y-174806627D01*
X109356443Y-174976466D01*
X109272778Y-175132991D01*
X109243448Y-175168729D01*
X109160186Y-175270186D01*
X109058729Y-175353448D01*
X109022991Y-175382778D01*
X108866466Y-175466443D01*
X108696627Y-175517963D01*
X108630443Y-175524481D01*
X108564260Y-175531000D01*
X108475740Y-175531000D01*
X108409557Y-175524481D01*
X108343373Y-175517963D01*
X108173534Y-175466443D01*
X108017009Y-175382778D01*
X107981271Y-175353448D01*
X107879814Y-175270186D01*
X107796552Y-175168729D01*
X107767222Y-175132991D01*
X107683557Y-174976466D01*
X107632037Y-174806627D01*
X107614641Y-174630000D01*
X107632037Y-174453373D01*
X107683557Y-174283534D01*
X107767222Y-174127009D01*
X107796552Y-174091271D01*
X107879814Y-173989814D01*
X107981271Y-173906552D01*
X108017009Y-173877222D01*
X108173534Y-173793557D01*
X108343373Y-173742037D01*
X108409558Y-173735518D01*
X108475740Y-173729000D01*
X108564260Y-173729000D01*
X108630442Y-173735518D01*
X108630442Y-173735518D01*
G37*
G36*
X126410442Y-173735518D02*
G01*
X126476627Y-173742037D01*
X126646466Y-173793557D01*
X126802991Y-173877222D01*
X126838729Y-173906552D01*
X126940186Y-173989814D01*
X127023448Y-174091271D01*
X127052778Y-174127009D01*
X127136443Y-174283534D01*
X127187963Y-174453373D01*
X127205359Y-174630000D01*
X127187963Y-174806627D01*
X127136443Y-174976466D01*
X127052778Y-175132991D01*
X127023448Y-175168729D01*
X126940186Y-175270186D01*
X126838729Y-175353448D01*
X126802991Y-175382778D01*
X126646466Y-175466443D01*
X126476627Y-175517963D01*
X126410443Y-175524481D01*
X126344260Y-175531000D01*
X126255740Y-175531000D01*
X126189557Y-175524481D01*
X126123373Y-175517963D01*
X125953534Y-175466443D01*
X125797009Y-175382778D01*
X125761271Y-175353448D01*
X125659814Y-175270186D01*
X125576552Y-175168729D01*
X125547222Y-175132991D01*
X125463557Y-174976466D01*
X125412037Y-174806627D01*
X125394641Y-174630000D01*
X125412037Y-174453373D01*
X125463557Y-174283534D01*
X125547222Y-174127009D01*
X125576552Y-174091271D01*
X125659814Y-173989814D01*
X125761271Y-173906552D01*
X125797009Y-173877222D01*
X125953534Y-173793557D01*
X126123373Y-173742037D01*
X126189558Y-173735518D01*
X126255740Y-173729000D01*
X126344260Y-173729000D01*
X126410442Y-173735518D01*
X126410442Y-173735518D01*
G37*
G36*
X111170442Y-173735518D02*
G01*
X111236627Y-173742037D01*
X111406466Y-173793557D01*
X111562991Y-173877222D01*
X111598729Y-173906552D01*
X111700186Y-173989814D01*
X111783448Y-174091271D01*
X111812778Y-174127009D01*
X111896443Y-174283534D01*
X111947963Y-174453373D01*
X111965359Y-174630000D01*
X111947963Y-174806627D01*
X111896443Y-174976466D01*
X111812778Y-175132991D01*
X111783448Y-175168729D01*
X111700186Y-175270186D01*
X111598729Y-175353448D01*
X111562991Y-175382778D01*
X111406466Y-175466443D01*
X111236627Y-175517963D01*
X111170443Y-175524481D01*
X111104260Y-175531000D01*
X111015740Y-175531000D01*
X110949557Y-175524481D01*
X110883373Y-175517963D01*
X110713534Y-175466443D01*
X110557009Y-175382778D01*
X110521271Y-175353448D01*
X110419814Y-175270186D01*
X110336552Y-175168729D01*
X110307222Y-175132991D01*
X110223557Y-174976466D01*
X110172037Y-174806627D01*
X110154641Y-174630000D01*
X110172037Y-174453373D01*
X110223557Y-174283534D01*
X110307222Y-174127009D01*
X110336552Y-174091271D01*
X110419814Y-173989814D01*
X110521271Y-173906552D01*
X110557009Y-173877222D01*
X110713534Y-173793557D01*
X110883373Y-173742037D01*
X110949558Y-173735518D01*
X111015740Y-173729000D01*
X111104260Y-173729000D01*
X111170442Y-173735518D01*
X111170442Y-173735518D01*
G37*
G36*
X123870442Y-173735518D02*
G01*
X123936627Y-173742037D01*
X124106466Y-173793557D01*
X124262991Y-173877222D01*
X124298729Y-173906552D01*
X124400186Y-173989814D01*
X124483448Y-174091271D01*
X124512778Y-174127009D01*
X124596443Y-174283534D01*
X124647963Y-174453373D01*
X124665359Y-174630000D01*
X124647963Y-174806627D01*
X124596443Y-174976466D01*
X124512778Y-175132991D01*
X124483448Y-175168729D01*
X124400186Y-175270186D01*
X124298729Y-175353448D01*
X124262991Y-175382778D01*
X124106466Y-175466443D01*
X123936627Y-175517963D01*
X123870443Y-175524481D01*
X123804260Y-175531000D01*
X123715740Y-175531000D01*
X123649557Y-175524481D01*
X123583373Y-175517963D01*
X123413534Y-175466443D01*
X123257009Y-175382778D01*
X123221271Y-175353448D01*
X123119814Y-175270186D01*
X123036552Y-175168729D01*
X123007222Y-175132991D01*
X122923557Y-174976466D01*
X122872037Y-174806627D01*
X122854641Y-174630000D01*
X122872037Y-174453373D01*
X122923557Y-174283534D01*
X123007222Y-174127009D01*
X123036552Y-174091271D01*
X123119814Y-173989814D01*
X123221271Y-173906552D01*
X123257009Y-173877222D01*
X123413534Y-173793557D01*
X123583373Y-173742037D01*
X123649558Y-173735518D01*
X123715740Y-173729000D01*
X123804260Y-173729000D01*
X123870442Y-173735518D01*
X123870442Y-173735518D01*
G37*
G36*
X113710442Y-173735518D02*
G01*
X113776627Y-173742037D01*
X113946466Y-173793557D01*
X114102991Y-173877222D01*
X114138729Y-173906552D01*
X114240186Y-173989814D01*
X114323448Y-174091271D01*
X114352778Y-174127009D01*
X114436443Y-174283534D01*
X114487963Y-174453373D01*
X114505359Y-174630000D01*
X114487963Y-174806627D01*
X114436443Y-174976466D01*
X114352778Y-175132991D01*
X114323448Y-175168729D01*
X114240186Y-175270186D01*
X114138729Y-175353448D01*
X114102991Y-175382778D01*
X113946466Y-175466443D01*
X113776627Y-175517963D01*
X113710443Y-175524481D01*
X113644260Y-175531000D01*
X113555740Y-175531000D01*
X113489557Y-175524481D01*
X113423373Y-175517963D01*
X113253534Y-175466443D01*
X113097009Y-175382778D01*
X113061271Y-175353448D01*
X112959814Y-175270186D01*
X112876552Y-175168729D01*
X112847222Y-175132991D01*
X112763557Y-174976466D01*
X112712037Y-174806627D01*
X112694641Y-174630000D01*
X112712037Y-174453373D01*
X112763557Y-174283534D01*
X112847222Y-174127009D01*
X112876552Y-174091271D01*
X112959814Y-173989814D01*
X113061271Y-173906552D01*
X113097009Y-173877222D01*
X113253534Y-173793557D01*
X113423373Y-173742037D01*
X113489558Y-173735518D01*
X113555740Y-173729000D01*
X113644260Y-173729000D01*
X113710442Y-173735518D01*
X113710442Y-173735518D01*
G37*
G36*
X121330442Y-173735518D02*
G01*
X121396627Y-173742037D01*
X121566466Y-173793557D01*
X121722991Y-173877222D01*
X121758729Y-173906552D01*
X121860186Y-173989814D01*
X121943448Y-174091271D01*
X121972778Y-174127009D01*
X122056443Y-174283534D01*
X122107963Y-174453373D01*
X122125359Y-174630000D01*
X122107963Y-174806627D01*
X122056443Y-174976466D01*
X121972778Y-175132991D01*
X121943448Y-175168729D01*
X121860186Y-175270186D01*
X121758729Y-175353448D01*
X121722991Y-175382778D01*
X121566466Y-175466443D01*
X121396627Y-175517963D01*
X121330443Y-175524481D01*
X121264260Y-175531000D01*
X121175740Y-175531000D01*
X121109557Y-175524481D01*
X121043373Y-175517963D01*
X120873534Y-175466443D01*
X120717009Y-175382778D01*
X120681271Y-175353448D01*
X120579814Y-175270186D01*
X120496552Y-175168729D01*
X120467222Y-175132991D01*
X120383557Y-174976466D01*
X120332037Y-174806627D01*
X120314641Y-174630000D01*
X120332037Y-174453373D01*
X120383557Y-174283534D01*
X120467222Y-174127009D01*
X120496552Y-174091271D01*
X120579814Y-173989814D01*
X120681271Y-173906552D01*
X120717009Y-173877222D01*
X120873534Y-173793557D01*
X121043373Y-173742037D01*
X121109558Y-173735518D01*
X121175740Y-173729000D01*
X121264260Y-173729000D01*
X121330442Y-173735518D01*
X121330442Y-173735518D01*
G37*
G36*
X104341000Y-175531000D02*
G01*
X102539000Y-175531000D01*
X102539000Y-173729000D01*
X104341000Y-173729000D01*
X104341000Y-175531000D01*
X104341000Y-175531000D01*
G37*
G36*
X118790442Y-173735518D02*
G01*
X118856627Y-173742037D01*
X119026466Y-173793557D01*
X119182991Y-173877222D01*
X119218729Y-173906552D01*
X119320186Y-173989814D01*
X119403448Y-174091271D01*
X119432778Y-174127009D01*
X119516443Y-174283534D01*
X119567963Y-174453373D01*
X119585359Y-174630000D01*
X119567963Y-174806627D01*
X119516443Y-174976466D01*
X119432778Y-175132991D01*
X119403448Y-175168729D01*
X119320186Y-175270186D01*
X119218729Y-175353448D01*
X119182991Y-175382778D01*
X119026466Y-175466443D01*
X118856627Y-175517963D01*
X118790443Y-175524481D01*
X118724260Y-175531000D01*
X118635740Y-175531000D01*
X118569557Y-175524481D01*
X118503373Y-175517963D01*
X118333534Y-175466443D01*
X118177009Y-175382778D01*
X118141271Y-175353448D01*
X118039814Y-175270186D01*
X117956552Y-175168729D01*
X117927222Y-175132991D01*
X117843557Y-174976466D01*
X117792037Y-174806627D01*
X117774641Y-174630000D01*
X117792037Y-174453373D01*
X117843557Y-174283534D01*
X117927222Y-174127009D01*
X117956552Y-174091271D01*
X118039814Y-173989814D01*
X118141271Y-173906552D01*
X118177009Y-173877222D01*
X118333534Y-173793557D01*
X118503373Y-173742037D01*
X118569558Y-173735518D01*
X118635740Y-173729000D01*
X118724260Y-173729000D01*
X118790442Y-173735518D01*
X118790442Y-173735518D01*
G37*
G36*
X116250442Y-173735518D02*
G01*
X116316627Y-173742037D01*
X116486466Y-173793557D01*
X116642991Y-173877222D01*
X116678729Y-173906552D01*
X116780186Y-173989814D01*
X116863448Y-174091271D01*
X116892778Y-174127009D01*
X116976443Y-174283534D01*
X117027963Y-174453373D01*
X117045359Y-174630000D01*
X117027963Y-174806627D01*
X116976443Y-174976466D01*
X116892778Y-175132991D01*
X116863448Y-175168729D01*
X116780186Y-175270186D01*
X116678729Y-175353448D01*
X116642991Y-175382778D01*
X116486466Y-175466443D01*
X116316627Y-175517963D01*
X116250443Y-175524481D01*
X116184260Y-175531000D01*
X116095740Y-175531000D01*
X116029557Y-175524481D01*
X115963373Y-175517963D01*
X115793534Y-175466443D01*
X115637009Y-175382778D01*
X115601271Y-175353448D01*
X115499814Y-175270186D01*
X115416552Y-175168729D01*
X115387222Y-175132991D01*
X115303557Y-174976466D01*
X115252037Y-174806627D01*
X115234641Y-174630000D01*
X115252037Y-174453373D01*
X115303557Y-174283534D01*
X115387222Y-174127009D01*
X115416552Y-174091271D01*
X115499814Y-173989814D01*
X115601271Y-173906552D01*
X115637009Y-173877222D01*
X115793534Y-173793557D01*
X115963373Y-173742037D01*
X116029558Y-173735518D01*
X116095740Y-173729000D01*
X116184260Y-173729000D01*
X116250442Y-173735518D01*
X116250442Y-173735518D01*
G37*
G36*
X101781000Y-172571000D02*
G01*
X100179000Y-172571000D01*
X100179000Y-171269000D01*
X101781000Y-171269000D01*
X101781000Y-172571000D01*
X101781000Y-172571000D01*
G37*
G36*
X103681000Y-171801000D02*
G01*
X102079000Y-171801000D01*
X102079000Y-170599000D01*
X103681000Y-170599000D01*
X103681000Y-171801000D01*
X103681000Y-171801000D01*
G37*
G36*
X101482383Y-170032489D02*
G01*
X101482386Y-170032490D01*
X101482385Y-170032490D01*
X101546258Y-170058946D01*
X101603748Y-170097360D01*
X101652640Y-170146252D01*
X101691054Y-170203742D01*
X101712624Y-170255818D01*
X101717511Y-170267617D01*
X101731000Y-170335430D01*
X101731000Y-170404570D01*
X101717511Y-170472383D01*
X101717510Y-170472385D01*
X101691054Y-170536258D01*
X101652640Y-170593748D01*
X101603748Y-170642640D01*
X101546258Y-170681054D01*
X101494182Y-170702624D01*
X101482383Y-170707511D01*
X101414570Y-170721000D01*
X101345430Y-170721000D01*
X101277617Y-170707511D01*
X101265818Y-170702624D01*
X101213742Y-170681054D01*
X101156252Y-170642640D01*
X101107360Y-170593748D01*
X101068946Y-170536258D01*
X101042490Y-170472385D01*
X101042489Y-170472383D01*
X101029000Y-170404570D01*
X101029000Y-170335430D01*
X101042489Y-170267617D01*
X101047376Y-170255818D01*
X101068946Y-170203742D01*
X101107360Y-170146252D01*
X101156252Y-170097360D01*
X101213742Y-170058946D01*
X101277615Y-170032490D01*
X101277614Y-170032490D01*
X101277617Y-170032489D01*
X101345430Y-170019000D01*
X101414570Y-170019000D01*
X101482383Y-170032489D01*
X101482383Y-170032489D01*
G37*
G36*
X101482383Y-168332489D02*
G01*
X101482386Y-168332490D01*
X101482385Y-168332490D01*
X101546258Y-168358946D01*
X101603748Y-168397360D01*
X101652640Y-168446252D01*
X101691054Y-168503742D01*
X101712624Y-168555818D01*
X101717511Y-168567617D01*
X101731000Y-168635430D01*
X101731000Y-168704570D01*
X101717511Y-168772383D01*
X101717510Y-168772385D01*
X101691054Y-168836258D01*
X101652640Y-168893748D01*
X101603748Y-168942640D01*
X101546258Y-168981054D01*
X101494182Y-169002624D01*
X101482383Y-169007511D01*
X101414570Y-169021000D01*
X101345430Y-169021000D01*
X101277617Y-169007511D01*
X101265818Y-169002624D01*
X101213742Y-168981054D01*
X101156252Y-168942640D01*
X101107360Y-168893748D01*
X101068946Y-168836258D01*
X101042490Y-168772385D01*
X101042489Y-168772383D01*
X101029000Y-168704570D01*
X101029000Y-168635430D01*
X101042489Y-168567617D01*
X101047376Y-168555818D01*
X101068946Y-168503742D01*
X101107360Y-168446252D01*
X101156252Y-168397360D01*
X101213742Y-168358946D01*
X101277615Y-168332490D01*
X101277614Y-168332490D01*
X101277617Y-168332489D01*
X101345430Y-168319000D01*
X101414570Y-168319000D01*
X101482383Y-168332489D01*
X101482383Y-168332489D01*
G37*
G36*
X103681000Y-168441000D02*
G01*
X102079000Y-168441000D01*
X102079000Y-167239000D01*
X103681000Y-167239000D01*
X103681000Y-168441000D01*
X103681000Y-168441000D01*
G37*
G36*
X101781000Y-167771000D02*
G01*
X100179000Y-167771000D01*
X100179000Y-166469000D01*
X101781000Y-166469000D01*
X101781000Y-167771000D01*
X101781000Y-167771000D01*
G37*
G36*
X141690527Y-163143557D02*
G01*
X141776627Y-163152037D01*
X141946466Y-163203557D01*
X142102991Y-163287222D01*
X142138729Y-163316552D01*
X142240186Y-163399814D01*
X142303537Y-163477009D01*
X142352778Y-163537009D01*
X142436443Y-163693534D01*
X142487963Y-163863373D01*
X142505359Y-164040000D01*
X142487963Y-164216627D01*
X142436443Y-164386466D01*
X142352778Y-164542991D01*
X142323448Y-164578729D01*
X142240186Y-164680186D01*
X142138729Y-164763448D01*
X142102991Y-164792778D01*
X141946466Y-164876443D01*
X141776627Y-164927963D01*
X141710443Y-164934481D01*
X141644260Y-164941000D01*
X141555740Y-164941000D01*
X141489557Y-164934481D01*
X141423373Y-164927963D01*
X141253534Y-164876443D01*
X141097009Y-164792778D01*
X141061271Y-164763448D01*
X140959814Y-164680186D01*
X140876552Y-164578729D01*
X140847222Y-164542991D01*
X140763557Y-164386466D01*
X140712037Y-164216627D01*
X140694641Y-164040000D01*
X140712037Y-163863373D01*
X140763557Y-163693534D01*
X140847222Y-163537009D01*
X140896463Y-163477009D01*
X140959814Y-163399814D01*
X141061271Y-163316552D01*
X141097009Y-163287222D01*
X141253534Y-163203557D01*
X141423373Y-163152037D01*
X141509473Y-163143557D01*
X141555740Y-163139000D01*
X141644260Y-163139000D01*
X141690527Y-163143557D01*
X141690527Y-163143557D01*
G37*
G36*
X139961000Y-164941000D02*
G01*
X138159000Y-164941000D01*
X138159000Y-163139000D01*
X139961000Y-163139000D01*
X139961000Y-164941000D01*
X139961000Y-164941000D01*
G37*
G36*
X106120442Y-163085518D02*
G01*
X106186627Y-163092037D01*
X106356466Y-163143557D01*
X106512991Y-163227222D01*
X106548729Y-163256552D01*
X106650186Y-163339814D01*
X106733448Y-163441271D01*
X106762778Y-163477009D01*
X106846443Y-163633534D01*
X106897963Y-163803373D01*
X106915359Y-163980000D01*
X106897963Y-164156627D01*
X106846443Y-164326466D01*
X106762778Y-164482991D01*
X106733448Y-164518729D01*
X106650186Y-164620186D01*
X106548729Y-164703448D01*
X106512991Y-164732778D01*
X106356466Y-164816443D01*
X106186627Y-164867963D01*
X106120443Y-164874481D01*
X106054260Y-164881000D01*
X105965740Y-164881000D01*
X105899557Y-164874481D01*
X105833373Y-164867963D01*
X105663534Y-164816443D01*
X105507009Y-164732778D01*
X105471271Y-164703448D01*
X105369814Y-164620186D01*
X105286552Y-164518729D01*
X105257222Y-164482991D01*
X105173557Y-164326466D01*
X105122037Y-164156627D01*
X105104641Y-163980000D01*
X105122037Y-163803373D01*
X105173557Y-163633534D01*
X105257222Y-163477009D01*
X105286552Y-163441271D01*
X105369814Y-163339814D01*
X105471271Y-163256552D01*
X105507009Y-163227222D01*
X105663534Y-163143557D01*
X105833373Y-163092037D01*
X105899558Y-163085518D01*
X105965740Y-163079000D01*
X106054260Y-163079000D01*
X106120442Y-163085518D01*
X106120442Y-163085518D01*
G37*
G36*
X104371000Y-164881000D02*
G01*
X102569000Y-164881000D01*
X102569000Y-163079000D01*
X104371000Y-163079000D01*
X104371000Y-164881000D01*
X104371000Y-164881000D01*
G37*
G36*
X141690527Y-160603557D02*
G01*
X141776627Y-160612037D01*
X141946466Y-160663557D01*
X142102991Y-160747222D01*
X142138729Y-160776552D01*
X142240186Y-160859814D01*
X142303537Y-160937009D01*
X142352778Y-160997009D01*
X142436443Y-161153534D01*
X142487963Y-161323373D01*
X142505359Y-161500000D01*
X142487963Y-161676627D01*
X142436443Y-161846466D01*
X142352778Y-162002991D01*
X142323448Y-162038729D01*
X142240186Y-162140186D01*
X142138729Y-162223448D01*
X142102991Y-162252778D01*
X141946466Y-162336443D01*
X141776627Y-162387963D01*
X141710442Y-162394482D01*
X141644260Y-162401000D01*
X141555740Y-162401000D01*
X141489558Y-162394482D01*
X141423373Y-162387963D01*
X141253534Y-162336443D01*
X141097009Y-162252778D01*
X141061271Y-162223448D01*
X140959814Y-162140186D01*
X140876552Y-162038729D01*
X140847222Y-162002991D01*
X140763557Y-161846466D01*
X140712037Y-161676627D01*
X140694641Y-161500000D01*
X140712037Y-161323373D01*
X140763557Y-161153534D01*
X140847222Y-160997009D01*
X140896463Y-160937009D01*
X140959814Y-160859814D01*
X141061271Y-160776552D01*
X141097009Y-160747222D01*
X141253534Y-160663557D01*
X141423373Y-160612037D01*
X141509473Y-160603557D01*
X141555740Y-160599000D01*
X141644260Y-160599000D01*
X141690527Y-160603557D01*
X141690527Y-160603557D01*
G37*
G36*
X139150527Y-160603557D02*
G01*
X139236627Y-160612037D01*
X139406466Y-160663557D01*
X139562991Y-160747222D01*
X139598729Y-160776552D01*
X139700186Y-160859814D01*
X139763537Y-160937009D01*
X139812778Y-160997009D01*
X139896443Y-161153534D01*
X139947963Y-161323373D01*
X139965359Y-161500000D01*
X139947963Y-161676627D01*
X139896443Y-161846466D01*
X139812778Y-162002991D01*
X139783448Y-162038729D01*
X139700186Y-162140186D01*
X139598729Y-162223448D01*
X139562991Y-162252778D01*
X139406466Y-162336443D01*
X139236627Y-162387963D01*
X139170442Y-162394482D01*
X139104260Y-162401000D01*
X139015740Y-162401000D01*
X138949558Y-162394482D01*
X138883373Y-162387963D01*
X138713534Y-162336443D01*
X138557009Y-162252778D01*
X138521271Y-162223448D01*
X138419814Y-162140186D01*
X138336552Y-162038729D01*
X138307222Y-162002991D01*
X138223557Y-161846466D01*
X138172037Y-161676627D01*
X138154641Y-161500000D01*
X138172037Y-161323373D01*
X138223557Y-161153534D01*
X138307222Y-160997009D01*
X138356463Y-160937009D01*
X138419814Y-160859814D01*
X138521271Y-160776552D01*
X138557009Y-160747222D01*
X138713534Y-160663557D01*
X138883373Y-160612037D01*
X138969473Y-160603557D01*
X139015740Y-160599000D01*
X139104260Y-160599000D01*
X139150527Y-160603557D01*
X139150527Y-160603557D01*
G37*
G36*
X103580442Y-160545518D02*
G01*
X103646627Y-160552037D01*
X103816466Y-160603557D01*
X103972991Y-160687222D01*
X104008729Y-160716552D01*
X104110186Y-160799814D01*
X104193448Y-160901271D01*
X104222778Y-160937009D01*
X104306443Y-161093534D01*
X104357963Y-161263373D01*
X104375359Y-161440000D01*
X104357963Y-161616627D01*
X104306443Y-161786466D01*
X104222778Y-161942991D01*
X104193448Y-161978729D01*
X104110186Y-162080186D01*
X104008729Y-162163448D01*
X103972991Y-162192778D01*
X103816466Y-162276443D01*
X103646627Y-162327963D01*
X103580442Y-162334482D01*
X103514260Y-162341000D01*
X103425740Y-162341000D01*
X103359558Y-162334482D01*
X103293373Y-162327963D01*
X103123534Y-162276443D01*
X102967009Y-162192778D01*
X102931271Y-162163448D01*
X102829814Y-162080186D01*
X102746552Y-161978729D01*
X102717222Y-161942991D01*
X102633557Y-161786466D01*
X102582037Y-161616627D01*
X102564641Y-161440000D01*
X102582037Y-161263373D01*
X102633557Y-161093534D01*
X102717222Y-160937009D01*
X102746552Y-160901271D01*
X102829814Y-160799814D01*
X102931271Y-160716552D01*
X102967009Y-160687222D01*
X103123534Y-160603557D01*
X103293373Y-160552037D01*
X103359558Y-160545518D01*
X103425740Y-160539000D01*
X103514260Y-160539000D01*
X103580442Y-160545518D01*
X103580442Y-160545518D01*
G37*
G36*
X106120442Y-160545518D02*
G01*
X106186627Y-160552037D01*
X106356466Y-160603557D01*
X106512991Y-160687222D01*
X106548729Y-160716552D01*
X106650186Y-160799814D01*
X106733448Y-160901271D01*
X106762778Y-160937009D01*
X106846443Y-161093534D01*
X106897963Y-161263373D01*
X106915359Y-161440000D01*
X106897963Y-161616627D01*
X106846443Y-161786466D01*
X106762778Y-161942991D01*
X106733448Y-161978729D01*
X106650186Y-162080186D01*
X106548729Y-162163448D01*
X106512991Y-162192778D01*
X106356466Y-162276443D01*
X106186627Y-162327963D01*
X106120442Y-162334482D01*
X106054260Y-162341000D01*
X105965740Y-162341000D01*
X105899558Y-162334482D01*
X105833373Y-162327963D01*
X105663534Y-162276443D01*
X105507009Y-162192778D01*
X105471271Y-162163448D01*
X105369814Y-162080186D01*
X105286552Y-161978729D01*
X105257222Y-161942991D01*
X105173557Y-161786466D01*
X105122037Y-161616627D01*
X105104641Y-161440000D01*
X105122037Y-161263373D01*
X105173557Y-161093534D01*
X105257222Y-160937009D01*
X105286552Y-160901271D01*
X105369814Y-160799814D01*
X105471271Y-160716552D01*
X105507009Y-160687222D01*
X105663534Y-160603557D01*
X105833373Y-160552037D01*
X105899558Y-160545518D01*
X105965740Y-160539000D01*
X106054260Y-160539000D01*
X106120442Y-160545518D01*
X106120442Y-160545518D01*
G37*
G36*
X141690527Y-158063557D02*
G01*
X141776627Y-158072037D01*
X141946466Y-158123557D01*
X142102991Y-158207222D01*
X142138729Y-158236552D01*
X142240186Y-158319814D01*
X142303537Y-158397009D01*
X142352778Y-158457009D01*
X142436443Y-158613534D01*
X142487963Y-158783373D01*
X142505359Y-158960000D01*
X142487963Y-159136627D01*
X142436443Y-159306466D01*
X142352778Y-159462991D01*
X142323448Y-159498729D01*
X142240186Y-159600186D01*
X142138729Y-159683448D01*
X142102991Y-159712778D01*
X141946466Y-159796443D01*
X141776627Y-159847963D01*
X141710443Y-159854481D01*
X141644260Y-159861000D01*
X141555740Y-159861000D01*
X141489557Y-159854481D01*
X141423373Y-159847963D01*
X141253534Y-159796443D01*
X141097009Y-159712778D01*
X141061271Y-159683448D01*
X140959814Y-159600186D01*
X140876552Y-159498729D01*
X140847222Y-159462991D01*
X140763557Y-159306466D01*
X140712037Y-159136627D01*
X140694641Y-158960000D01*
X140712037Y-158783373D01*
X140763557Y-158613534D01*
X140847222Y-158457009D01*
X140896463Y-158397009D01*
X140959814Y-158319814D01*
X141061271Y-158236552D01*
X141097009Y-158207222D01*
X141253534Y-158123557D01*
X141423373Y-158072037D01*
X141509473Y-158063557D01*
X141555740Y-158059000D01*
X141644260Y-158059000D01*
X141690527Y-158063557D01*
X141690527Y-158063557D01*
G37*
G36*
X139150527Y-158063557D02*
G01*
X139236627Y-158072037D01*
X139406466Y-158123557D01*
X139562991Y-158207222D01*
X139598729Y-158236552D01*
X139700186Y-158319814D01*
X139763537Y-158397009D01*
X139812778Y-158457009D01*
X139896443Y-158613534D01*
X139947963Y-158783373D01*
X139965359Y-158960000D01*
X139947963Y-159136627D01*
X139896443Y-159306466D01*
X139812778Y-159462991D01*
X139783448Y-159498729D01*
X139700186Y-159600186D01*
X139598729Y-159683448D01*
X139562991Y-159712778D01*
X139406466Y-159796443D01*
X139236627Y-159847963D01*
X139170443Y-159854481D01*
X139104260Y-159861000D01*
X139015740Y-159861000D01*
X138949557Y-159854481D01*
X138883373Y-159847963D01*
X138713534Y-159796443D01*
X138557009Y-159712778D01*
X138521271Y-159683448D01*
X138419814Y-159600186D01*
X138336552Y-159498729D01*
X138307222Y-159462991D01*
X138223557Y-159306466D01*
X138172037Y-159136627D01*
X138154641Y-158960000D01*
X138172037Y-158783373D01*
X138223557Y-158613534D01*
X138307222Y-158457009D01*
X138356463Y-158397009D01*
X138419814Y-158319814D01*
X138521271Y-158236552D01*
X138557009Y-158207222D01*
X138713534Y-158123557D01*
X138883373Y-158072037D01*
X138969473Y-158063557D01*
X139015740Y-158059000D01*
X139104260Y-158059000D01*
X139150527Y-158063557D01*
X139150527Y-158063557D01*
G37*
G36*
X106120443Y-158005519D02*
G01*
X106186627Y-158012037D01*
X106356466Y-158063557D01*
X106512991Y-158147222D01*
X106548729Y-158176552D01*
X106650186Y-158259814D01*
X106733448Y-158361271D01*
X106762778Y-158397009D01*
X106846443Y-158553534D01*
X106897963Y-158723373D01*
X106915359Y-158900000D01*
X106897963Y-159076627D01*
X106846443Y-159246466D01*
X106762778Y-159402991D01*
X106733448Y-159438729D01*
X106650186Y-159540186D01*
X106548729Y-159623448D01*
X106512991Y-159652778D01*
X106356466Y-159736443D01*
X106186627Y-159787963D01*
X106120442Y-159794482D01*
X106054260Y-159801000D01*
X105965740Y-159801000D01*
X105899558Y-159794482D01*
X105833373Y-159787963D01*
X105663534Y-159736443D01*
X105507009Y-159652778D01*
X105471271Y-159623448D01*
X105369814Y-159540186D01*
X105286552Y-159438729D01*
X105257222Y-159402991D01*
X105173557Y-159246466D01*
X105122037Y-159076627D01*
X105104641Y-158900000D01*
X105122037Y-158723373D01*
X105173557Y-158553534D01*
X105257222Y-158397009D01*
X105286552Y-158361271D01*
X105369814Y-158259814D01*
X105471271Y-158176552D01*
X105507009Y-158147222D01*
X105663534Y-158063557D01*
X105833373Y-158012037D01*
X105899557Y-158005519D01*
X105965740Y-157999000D01*
X106054260Y-157999000D01*
X106120443Y-158005519D01*
X106120443Y-158005519D01*
G37*
G36*
X103580443Y-158005519D02*
G01*
X103646627Y-158012037D01*
X103816466Y-158063557D01*
X103972991Y-158147222D01*
X104008729Y-158176552D01*
X104110186Y-158259814D01*
X104193448Y-158361271D01*
X104222778Y-158397009D01*
X104306443Y-158553534D01*
X104357963Y-158723373D01*
X104375359Y-158900000D01*
X104357963Y-159076627D01*
X104306443Y-159246466D01*
X104222778Y-159402991D01*
X104193448Y-159438729D01*
X104110186Y-159540186D01*
X104008729Y-159623448D01*
X103972991Y-159652778D01*
X103816466Y-159736443D01*
X103646627Y-159787963D01*
X103580442Y-159794482D01*
X103514260Y-159801000D01*
X103425740Y-159801000D01*
X103359558Y-159794482D01*
X103293373Y-159787963D01*
X103123534Y-159736443D01*
X102967009Y-159652778D01*
X102931271Y-159623448D01*
X102829814Y-159540186D01*
X102746552Y-159438729D01*
X102717222Y-159402991D01*
X102633557Y-159246466D01*
X102582037Y-159076627D01*
X102564641Y-158900000D01*
X102582037Y-158723373D01*
X102633557Y-158553534D01*
X102717222Y-158397009D01*
X102746552Y-158361271D01*
X102829814Y-158259814D01*
X102931271Y-158176552D01*
X102967009Y-158147222D01*
X103123534Y-158063557D01*
X103293373Y-158012037D01*
X103359557Y-158005519D01*
X103425740Y-157999000D01*
X103514260Y-157999000D01*
X103580443Y-158005519D01*
X103580443Y-158005519D01*
G37*
G36*
X139150527Y-155523557D02*
G01*
X139236627Y-155532037D01*
X139406466Y-155583557D01*
X139562991Y-155667222D01*
X139598729Y-155696552D01*
X139700186Y-155779814D01*
X139763537Y-155857009D01*
X139812778Y-155917009D01*
X139896443Y-156073534D01*
X139947963Y-156243373D01*
X139965359Y-156420000D01*
X139947963Y-156596627D01*
X139896443Y-156766466D01*
X139812778Y-156922991D01*
X139783448Y-156958729D01*
X139700186Y-157060186D01*
X139598729Y-157143448D01*
X139562991Y-157172778D01*
X139406466Y-157256443D01*
X139236627Y-157307963D01*
X139170443Y-157314481D01*
X139104260Y-157321000D01*
X139015740Y-157321000D01*
X138949557Y-157314481D01*
X138883373Y-157307963D01*
X138713534Y-157256443D01*
X138557009Y-157172778D01*
X138521271Y-157143448D01*
X138419814Y-157060186D01*
X138336552Y-156958729D01*
X138307222Y-156922991D01*
X138223557Y-156766466D01*
X138172037Y-156596627D01*
X138154641Y-156420000D01*
X138172037Y-156243373D01*
X138223557Y-156073534D01*
X138307222Y-155917009D01*
X138356463Y-155857009D01*
X138419814Y-155779814D01*
X138521271Y-155696552D01*
X138557009Y-155667222D01*
X138713534Y-155583557D01*
X138883373Y-155532037D01*
X138969473Y-155523557D01*
X139015740Y-155519000D01*
X139104260Y-155519000D01*
X139150527Y-155523557D01*
X139150527Y-155523557D01*
G37*
G36*
X141690527Y-155523557D02*
G01*
X141776627Y-155532037D01*
X141946466Y-155583557D01*
X142102991Y-155667222D01*
X142138729Y-155696552D01*
X142240186Y-155779814D01*
X142303537Y-155857009D01*
X142352778Y-155917009D01*
X142436443Y-156073534D01*
X142487963Y-156243373D01*
X142505359Y-156420000D01*
X142487963Y-156596627D01*
X142436443Y-156766466D01*
X142352778Y-156922991D01*
X142323448Y-156958729D01*
X142240186Y-157060186D01*
X142138729Y-157143448D01*
X142102991Y-157172778D01*
X141946466Y-157256443D01*
X141776627Y-157307963D01*
X141710443Y-157314481D01*
X141644260Y-157321000D01*
X141555740Y-157321000D01*
X141489557Y-157314481D01*
X141423373Y-157307963D01*
X141253534Y-157256443D01*
X141097009Y-157172778D01*
X141061271Y-157143448D01*
X140959814Y-157060186D01*
X140876552Y-156958729D01*
X140847222Y-156922991D01*
X140763557Y-156766466D01*
X140712037Y-156596627D01*
X140694641Y-156420000D01*
X140712037Y-156243373D01*
X140763557Y-156073534D01*
X140847222Y-155917009D01*
X140896463Y-155857009D01*
X140959814Y-155779814D01*
X141061271Y-155696552D01*
X141097009Y-155667222D01*
X141253534Y-155583557D01*
X141423373Y-155532037D01*
X141509473Y-155523557D01*
X141555740Y-155519000D01*
X141644260Y-155519000D01*
X141690527Y-155523557D01*
X141690527Y-155523557D01*
G37*
G36*
X103580443Y-155465519D02*
G01*
X103646627Y-155472037D01*
X103816466Y-155523557D01*
X103972991Y-155607222D01*
X104008729Y-155636552D01*
X104110186Y-155719814D01*
X104193448Y-155821271D01*
X104222778Y-155857009D01*
X104306443Y-156013534D01*
X104357963Y-156183373D01*
X104375359Y-156360000D01*
X104357963Y-156536627D01*
X104306443Y-156706466D01*
X104222778Y-156862991D01*
X104193448Y-156898729D01*
X104110186Y-157000186D01*
X104008729Y-157083448D01*
X103972991Y-157112778D01*
X103816466Y-157196443D01*
X103646627Y-157247963D01*
X103580443Y-157254481D01*
X103514260Y-157261000D01*
X103425740Y-157261000D01*
X103359557Y-157254481D01*
X103293373Y-157247963D01*
X103123534Y-157196443D01*
X102967009Y-157112778D01*
X102931271Y-157083448D01*
X102829814Y-157000186D01*
X102746552Y-156898729D01*
X102717222Y-156862991D01*
X102633557Y-156706466D01*
X102582037Y-156536627D01*
X102564641Y-156360000D01*
X102582037Y-156183373D01*
X102633557Y-156013534D01*
X102717222Y-155857009D01*
X102746552Y-155821271D01*
X102829814Y-155719814D01*
X102931271Y-155636552D01*
X102967009Y-155607222D01*
X103123534Y-155523557D01*
X103293373Y-155472037D01*
X103359557Y-155465519D01*
X103425740Y-155459000D01*
X103514260Y-155459000D01*
X103580443Y-155465519D01*
X103580443Y-155465519D01*
G37*
G36*
X106120443Y-155465519D02*
G01*
X106186627Y-155472037D01*
X106356466Y-155523557D01*
X106512991Y-155607222D01*
X106548729Y-155636552D01*
X106650186Y-155719814D01*
X106733448Y-155821271D01*
X106762778Y-155857009D01*
X106846443Y-156013534D01*
X106897963Y-156183373D01*
X106915359Y-156360000D01*
X106897963Y-156536627D01*
X106846443Y-156706466D01*
X106762778Y-156862991D01*
X106733448Y-156898729D01*
X106650186Y-157000186D01*
X106548729Y-157083448D01*
X106512991Y-157112778D01*
X106356466Y-157196443D01*
X106186627Y-157247963D01*
X106120443Y-157254481D01*
X106054260Y-157261000D01*
X105965740Y-157261000D01*
X105899557Y-157254481D01*
X105833373Y-157247963D01*
X105663534Y-157196443D01*
X105507009Y-157112778D01*
X105471271Y-157083448D01*
X105369814Y-157000186D01*
X105286552Y-156898729D01*
X105257222Y-156862991D01*
X105173557Y-156706466D01*
X105122037Y-156536627D01*
X105104641Y-156360000D01*
X105122037Y-156183373D01*
X105173557Y-156013534D01*
X105257222Y-155857009D01*
X105286552Y-155821271D01*
X105369814Y-155719814D01*
X105471271Y-155636552D01*
X105507009Y-155607222D01*
X105663534Y-155523557D01*
X105833373Y-155472037D01*
X105899557Y-155465519D01*
X105965740Y-155459000D01*
X106054260Y-155459000D01*
X106120443Y-155465519D01*
X106120443Y-155465519D01*
G37*
G36*
X139150527Y-152983557D02*
G01*
X139236627Y-152992037D01*
X139406466Y-153043557D01*
X139562991Y-153127222D01*
X139598729Y-153156552D01*
X139700186Y-153239814D01*
X139763537Y-153317009D01*
X139812778Y-153377009D01*
X139896443Y-153533534D01*
X139947963Y-153703373D01*
X139965359Y-153880000D01*
X139947963Y-154056627D01*
X139896443Y-154226466D01*
X139812778Y-154382991D01*
X139783448Y-154418729D01*
X139700186Y-154520186D01*
X139598729Y-154603448D01*
X139562991Y-154632778D01*
X139406466Y-154716443D01*
X139236627Y-154767963D01*
X139170442Y-154774482D01*
X139104260Y-154781000D01*
X139015740Y-154781000D01*
X138949558Y-154774482D01*
X138883373Y-154767963D01*
X138713534Y-154716443D01*
X138557009Y-154632778D01*
X138521271Y-154603448D01*
X138419814Y-154520186D01*
X138336552Y-154418729D01*
X138307222Y-154382991D01*
X138223557Y-154226466D01*
X138172037Y-154056627D01*
X138154641Y-153880000D01*
X138172037Y-153703373D01*
X138223557Y-153533534D01*
X138307222Y-153377009D01*
X138356463Y-153317009D01*
X138419814Y-153239814D01*
X138521271Y-153156552D01*
X138557009Y-153127222D01*
X138713534Y-153043557D01*
X138883373Y-152992037D01*
X138969473Y-152983557D01*
X139015740Y-152979000D01*
X139104260Y-152979000D01*
X139150527Y-152983557D01*
X139150527Y-152983557D01*
G37*
G36*
X141690527Y-152983557D02*
G01*
X141776627Y-152992037D01*
X141946466Y-153043557D01*
X142102991Y-153127222D01*
X142138729Y-153156552D01*
X142240186Y-153239814D01*
X142303537Y-153317009D01*
X142352778Y-153377009D01*
X142436443Y-153533534D01*
X142487963Y-153703373D01*
X142505359Y-153880000D01*
X142487963Y-154056627D01*
X142436443Y-154226466D01*
X142352778Y-154382991D01*
X142323448Y-154418729D01*
X142240186Y-154520186D01*
X142138729Y-154603448D01*
X142102991Y-154632778D01*
X141946466Y-154716443D01*
X141776627Y-154767963D01*
X141710442Y-154774482D01*
X141644260Y-154781000D01*
X141555740Y-154781000D01*
X141489558Y-154774482D01*
X141423373Y-154767963D01*
X141253534Y-154716443D01*
X141097009Y-154632778D01*
X141061271Y-154603448D01*
X140959814Y-154520186D01*
X140876552Y-154418729D01*
X140847222Y-154382991D01*
X140763557Y-154226466D01*
X140712037Y-154056627D01*
X140694641Y-153880000D01*
X140712037Y-153703373D01*
X140763557Y-153533534D01*
X140847222Y-153377009D01*
X140896463Y-153317009D01*
X140959814Y-153239814D01*
X141061271Y-153156552D01*
X141097009Y-153127222D01*
X141253534Y-153043557D01*
X141423373Y-152992037D01*
X141509473Y-152983557D01*
X141555740Y-152979000D01*
X141644260Y-152979000D01*
X141690527Y-152983557D01*
X141690527Y-152983557D01*
G37*
G36*
X103580442Y-152925518D02*
G01*
X103646627Y-152932037D01*
X103816466Y-152983557D01*
X103972991Y-153067222D01*
X104008729Y-153096552D01*
X104110186Y-153179814D01*
X104193448Y-153281271D01*
X104222778Y-153317009D01*
X104306443Y-153473534D01*
X104357963Y-153643373D01*
X104375359Y-153820000D01*
X104357963Y-153996627D01*
X104306443Y-154166466D01*
X104222778Y-154322991D01*
X104193448Y-154358729D01*
X104110186Y-154460186D01*
X104008729Y-154543448D01*
X103972991Y-154572778D01*
X103816466Y-154656443D01*
X103646627Y-154707963D01*
X103580442Y-154714482D01*
X103514260Y-154721000D01*
X103425740Y-154721000D01*
X103359558Y-154714482D01*
X103293373Y-154707963D01*
X103123534Y-154656443D01*
X102967009Y-154572778D01*
X102931271Y-154543448D01*
X102829814Y-154460186D01*
X102746552Y-154358729D01*
X102717222Y-154322991D01*
X102633557Y-154166466D01*
X102582037Y-153996627D01*
X102564641Y-153820000D01*
X102582037Y-153643373D01*
X102633557Y-153473534D01*
X102717222Y-153317009D01*
X102746552Y-153281271D01*
X102829814Y-153179814D01*
X102931271Y-153096552D01*
X102967009Y-153067222D01*
X103123534Y-152983557D01*
X103293373Y-152932037D01*
X103359558Y-152925518D01*
X103425740Y-152919000D01*
X103514260Y-152919000D01*
X103580442Y-152925518D01*
X103580442Y-152925518D01*
G37*
G36*
X106120442Y-152925518D02*
G01*
X106186627Y-152932037D01*
X106356466Y-152983557D01*
X106512991Y-153067222D01*
X106548729Y-153096552D01*
X106650186Y-153179814D01*
X106733448Y-153281271D01*
X106762778Y-153317009D01*
X106846443Y-153473534D01*
X106897963Y-153643373D01*
X106915359Y-153820000D01*
X106897963Y-153996627D01*
X106846443Y-154166466D01*
X106762778Y-154322991D01*
X106733448Y-154358729D01*
X106650186Y-154460186D01*
X106548729Y-154543448D01*
X106512991Y-154572778D01*
X106356466Y-154656443D01*
X106186627Y-154707963D01*
X106120442Y-154714482D01*
X106054260Y-154721000D01*
X105965740Y-154721000D01*
X105899558Y-154714482D01*
X105833373Y-154707963D01*
X105663534Y-154656443D01*
X105507009Y-154572778D01*
X105471271Y-154543448D01*
X105369814Y-154460186D01*
X105286552Y-154358729D01*
X105257222Y-154322991D01*
X105173557Y-154166466D01*
X105122037Y-153996627D01*
X105104641Y-153820000D01*
X105122037Y-153643373D01*
X105173557Y-153473534D01*
X105257222Y-153317009D01*
X105286552Y-153281271D01*
X105369814Y-153179814D01*
X105471271Y-153096552D01*
X105507009Y-153067222D01*
X105663534Y-152983557D01*
X105833373Y-152932037D01*
X105899558Y-152925518D01*
X105965740Y-152919000D01*
X106054260Y-152919000D01*
X106120442Y-152925518D01*
X106120442Y-152925518D01*
G37*
G36*
X139150527Y-150443557D02*
G01*
X139236627Y-150452037D01*
X139406466Y-150503557D01*
X139562991Y-150587222D01*
X139598729Y-150616552D01*
X139700186Y-150699814D01*
X139763537Y-150777009D01*
X139812778Y-150837009D01*
X139896443Y-150993534D01*
X139947963Y-151163373D01*
X139965359Y-151340000D01*
X139947963Y-151516627D01*
X139896443Y-151686466D01*
X139812778Y-151842991D01*
X139783448Y-151878729D01*
X139700186Y-151980186D01*
X139598729Y-152063448D01*
X139562991Y-152092778D01*
X139406466Y-152176443D01*
X139236627Y-152227963D01*
X139170442Y-152234482D01*
X139104260Y-152241000D01*
X139015740Y-152241000D01*
X138949558Y-152234482D01*
X138883373Y-152227963D01*
X138713534Y-152176443D01*
X138557009Y-152092778D01*
X138521271Y-152063448D01*
X138419814Y-151980186D01*
X138336552Y-151878729D01*
X138307222Y-151842991D01*
X138223557Y-151686466D01*
X138172037Y-151516627D01*
X138154641Y-151340000D01*
X138172037Y-151163373D01*
X138223557Y-150993534D01*
X138307222Y-150837009D01*
X138356463Y-150777009D01*
X138419814Y-150699814D01*
X138521271Y-150616552D01*
X138557009Y-150587222D01*
X138713534Y-150503557D01*
X138883373Y-150452037D01*
X138969473Y-150443557D01*
X139015740Y-150439000D01*
X139104260Y-150439000D01*
X139150527Y-150443557D01*
X139150527Y-150443557D01*
G37*
G36*
X141690527Y-150443557D02*
G01*
X141776627Y-150452037D01*
X141946466Y-150503557D01*
X142102991Y-150587222D01*
X142138729Y-150616552D01*
X142240186Y-150699814D01*
X142303537Y-150777009D01*
X142352778Y-150837009D01*
X142436443Y-150993534D01*
X142487963Y-151163373D01*
X142505359Y-151340000D01*
X142487963Y-151516627D01*
X142436443Y-151686466D01*
X142352778Y-151842991D01*
X142323448Y-151878729D01*
X142240186Y-151980186D01*
X142138729Y-152063448D01*
X142102991Y-152092778D01*
X141946466Y-152176443D01*
X141776627Y-152227963D01*
X141710442Y-152234482D01*
X141644260Y-152241000D01*
X141555740Y-152241000D01*
X141489558Y-152234482D01*
X141423373Y-152227963D01*
X141253534Y-152176443D01*
X141097009Y-152092778D01*
X141061271Y-152063448D01*
X140959814Y-151980186D01*
X140876552Y-151878729D01*
X140847222Y-151842991D01*
X140763557Y-151686466D01*
X140712037Y-151516627D01*
X140694641Y-151340000D01*
X140712037Y-151163373D01*
X140763557Y-150993534D01*
X140847222Y-150837009D01*
X140896463Y-150777009D01*
X140959814Y-150699814D01*
X141061271Y-150616552D01*
X141097009Y-150587222D01*
X141253534Y-150503557D01*
X141423373Y-150452037D01*
X141509473Y-150443557D01*
X141555740Y-150439000D01*
X141644260Y-150439000D01*
X141690527Y-150443557D01*
X141690527Y-150443557D01*
G37*
G36*
X103580443Y-150385519D02*
G01*
X103646627Y-150392037D01*
X103816466Y-150443557D01*
X103972991Y-150527222D01*
X104008729Y-150556552D01*
X104110186Y-150639814D01*
X104193448Y-150741271D01*
X104222778Y-150777009D01*
X104306443Y-150933534D01*
X104357963Y-151103373D01*
X104375359Y-151280000D01*
X104357963Y-151456627D01*
X104306443Y-151626466D01*
X104222778Y-151782991D01*
X104193448Y-151818729D01*
X104110186Y-151920186D01*
X104008729Y-152003448D01*
X103972991Y-152032778D01*
X103816466Y-152116443D01*
X103646627Y-152167963D01*
X103580443Y-152174481D01*
X103514260Y-152181000D01*
X103425740Y-152181000D01*
X103359557Y-152174481D01*
X103293373Y-152167963D01*
X103123534Y-152116443D01*
X102967009Y-152032778D01*
X102931271Y-152003448D01*
X102829814Y-151920186D01*
X102746552Y-151818729D01*
X102717222Y-151782991D01*
X102633557Y-151626466D01*
X102582037Y-151456627D01*
X102564641Y-151280000D01*
X102582037Y-151103373D01*
X102633557Y-150933534D01*
X102717222Y-150777009D01*
X102746552Y-150741271D01*
X102829814Y-150639814D01*
X102931271Y-150556552D01*
X102967009Y-150527222D01*
X103123534Y-150443557D01*
X103293373Y-150392037D01*
X103359557Y-150385519D01*
X103425740Y-150379000D01*
X103514260Y-150379000D01*
X103580443Y-150385519D01*
X103580443Y-150385519D01*
G37*
G36*
X106120443Y-150385519D02*
G01*
X106186627Y-150392037D01*
X106356466Y-150443557D01*
X106512991Y-150527222D01*
X106548729Y-150556552D01*
X106650186Y-150639814D01*
X106733448Y-150741271D01*
X106762778Y-150777009D01*
X106846443Y-150933534D01*
X106897963Y-151103373D01*
X106915359Y-151280000D01*
X106897963Y-151456627D01*
X106846443Y-151626466D01*
X106762778Y-151782991D01*
X106733448Y-151818729D01*
X106650186Y-151920186D01*
X106548729Y-152003448D01*
X106512991Y-152032778D01*
X106356466Y-152116443D01*
X106186627Y-152167963D01*
X106120443Y-152174481D01*
X106054260Y-152181000D01*
X105965740Y-152181000D01*
X105899557Y-152174481D01*
X105833373Y-152167963D01*
X105663534Y-152116443D01*
X105507009Y-152032778D01*
X105471271Y-152003448D01*
X105369814Y-151920186D01*
X105286552Y-151818729D01*
X105257222Y-151782991D01*
X105173557Y-151626466D01*
X105122037Y-151456627D01*
X105104641Y-151280000D01*
X105122037Y-151103373D01*
X105173557Y-150933534D01*
X105257222Y-150777009D01*
X105286552Y-150741271D01*
X105369814Y-150639814D01*
X105471271Y-150556552D01*
X105507009Y-150527222D01*
X105663534Y-150443557D01*
X105833373Y-150392037D01*
X105899557Y-150385519D01*
X105965740Y-150379000D01*
X106054260Y-150379000D01*
X106120443Y-150385519D01*
X106120443Y-150385519D01*
G37*
G36*
X139150527Y-147903557D02*
G01*
X139236627Y-147912037D01*
X139406466Y-147963557D01*
X139562991Y-148047222D01*
X139598729Y-148076552D01*
X139700186Y-148159814D01*
X139763537Y-148237009D01*
X139812778Y-148297009D01*
X139896443Y-148453534D01*
X139947963Y-148623373D01*
X139965359Y-148800000D01*
X139947963Y-148976627D01*
X139896443Y-149146466D01*
X139812778Y-149302991D01*
X139783448Y-149338729D01*
X139700186Y-149440186D01*
X139598729Y-149523448D01*
X139562991Y-149552778D01*
X139406466Y-149636443D01*
X139236627Y-149687963D01*
X139170442Y-149694482D01*
X139104260Y-149701000D01*
X139015740Y-149701000D01*
X138949558Y-149694482D01*
X138883373Y-149687963D01*
X138713534Y-149636443D01*
X138557009Y-149552778D01*
X138521271Y-149523448D01*
X138419814Y-149440186D01*
X138336552Y-149338729D01*
X138307222Y-149302991D01*
X138223557Y-149146466D01*
X138172037Y-148976627D01*
X138154641Y-148800000D01*
X138172037Y-148623373D01*
X138223557Y-148453534D01*
X138307222Y-148297009D01*
X138356463Y-148237009D01*
X138419814Y-148159814D01*
X138521271Y-148076552D01*
X138557009Y-148047222D01*
X138713534Y-147963557D01*
X138883373Y-147912037D01*
X138969473Y-147903557D01*
X139015740Y-147899000D01*
X139104260Y-147899000D01*
X139150527Y-147903557D01*
X139150527Y-147903557D01*
G37*
G36*
X141690527Y-147903557D02*
G01*
X141776627Y-147912037D01*
X141946466Y-147963557D01*
X142102991Y-148047222D01*
X142138729Y-148076552D01*
X142240186Y-148159814D01*
X142303537Y-148237009D01*
X142352778Y-148297009D01*
X142436443Y-148453534D01*
X142487963Y-148623373D01*
X142505359Y-148800000D01*
X142487963Y-148976627D01*
X142436443Y-149146466D01*
X142352778Y-149302991D01*
X142323448Y-149338729D01*
X142240186Y-149440186D01*
X142138729Y-149523448D01*
X142102991Y-149552778D01*
X141946466Y-149636443D01*
X141776627Y-149687963D01*
X141710442Y-149694482D01*
X141644260Y-149701000D01*
X141555740Y-149701000D01*
X141489558Y-149694482D01*
X141423373Y-149687963D01*
X141253534Y-149636443D01*
X141097009Y-149552778D01*
X141061271Y-149523448D01*
X140959814Y-149440186D01*
X140876552Y-149338729D01*
X140847222Y-149302991D01*
X140763557Y-149146466D01*
X140712037Y-148976627D01*
X140694641Y-148800000D01*
X140712037Y-148623373D01*
X140763557Y-148453534D01*
X140847222Y-148297009D01*
X140896463Y-148237009D01*
X140959814Y-148159814D01*
X141061271Y-148076552D01*
X141097009Y-148047222D01*
X141253534Y-147963557D01*
X141423373Y-147912037D01*
X141509473Y-147903557D01*
X141555740Y-147899000D01*
X141644260Y-147899000D01*
X141690527Y-147903557D01*
X141690527Y-147903557D01*
G37*
G36*
X103580443Y-147845519D02*
G01*
X103646627Y-147852037D01*
X103816466Y-147903557D01*
X103972991Y-147987222D01*
X104008729Y-148016552D01*
X104110186Y-148099814D01*
X104193448Y-148201271D01*
X104222778Y-148237009D01*
X104306443Y-148393534D01*
X104357963Y-148563373D01*
X104375359Y-148740000D01*
X104357963Y-148916627D01*
X104306443Y-149086466D01*
X104222778Y-149242991D01*
X104193448Y-149278729D01*
X104110186Y-149380186D01*
X104008729Y-149463448D01*
X103972991Y-149492778D01*
X103816466Y-149576443D01*
X103646627Y-149627963D01*
X103580442Y-149634482D01*
X103514260Y-149641000D01*
X103425740Y-149641000D01*
X103359558Y-149634482D01*
X103293373Y-149627963D01*
X103123534Y-149576443D01*
X102967009Y-149492778D01*
X102931271Y-149463448D01*
X102829814Y-149380186D01*
X102746552Y-149278729D01*
X102717222Y-149242991D01*
X102633557Y-149086466D01*
X102582037Y-148916627D01*
X102564641Y-148740000D01*
X102582037Y-148563373D01*
X102633557Y-148393534D01*
X102717222Y-148237009D01*
X102746552Y-148201271D01*
X102829814Y-148099814D01*
X102931271Y-148016552D01*
X102967009Y-147987222D01*
X103123534Y-147903557D01*
X103293373Y-147852037D01*
X103359557Y-147845519D01*
X103425740Y-147839000D01*
X103514260Y-147839000D01*
X103580443Y-147845519D01*
X103580443Y-147845519D01*
G37*
G36*
X106120443Y-147845519D02*
G01*
X106186627Y-147852037D01*
X106356466Y-147903557D01*
X106512991Y-147987222D01*
X106548729Y-148016552D01*
X106650186Y-148099814D01*
X106733448Y-148201271D01*
X106762778Y-148237009D01*
X106846443Y-148393534D01*
X106897963Y-148563373D01*
X106915359Y-148740000D01*
X106897963Y-148916627D01*
X106846443Y-149086466D01*
X106762778Y-149242991D01*
X106733448Y-149278729D01*
X106650186Y-149380186D01*
X106548729Y-149463448D01*
X106512991Y-149492778D01*
X106356466Y-149576443D01*
X106186627Y-149627963D01*
X106120442Y-149634482D01*
X106054260Y-149641000D01*
X105965740Y-149641000D01*
X105899558Y-149634482D01*
X105833373Y-149627963D01*
X105663534Y-149576443D01*
X105507009Y-149492778D01*
X105471271Y-149463448D01*
X105369814Y-149380186D01*
X105286552Y-149278729D01*
X105257222Y-149242991D01*
X105173557Y-149086466D01*
X105122037Y-148916627D01*
X105104641Y-148740000D01*
X105122037Y-148563373D01*
X105173557Y-148393534D01*
X105257222Y-148237009D01*
X105286552Y-148201271D01*
X105369814Y-148099814D01*
X105471271Y-148016552D01*
X105507009Y-147987222D01*
X105663534Y-147903557D01*
X105833373Y-147852037D01*
X105899557Y-147845519D01*
X105965740Y-147839000D01*
X106054260Y-147839000D01*
X106120443Y-147845519D01*
X106120443Y-147845519D01*
G37*
G36*
X141690527Y-145363557D02*
G01*
X141776627Y-145372037D01*
X141946466Y-145423557D01*
X142102991Y-145507222D01*
X142138729Y-145536552D01*
X142240186Y-145619814D01*
X142303537Y-145697009D01*
X142352778Y-145757009D01*
X142436443Y-145913534D01*
X142487963Y-146083373D01*
X142505359Y-146260000D01*
X142487963Y-146436627D01*
X142436443Y-146606466D01*
X142352778Y-146762991D01*
X142323448Y-146798729D01*
X142240186Y-146900186D01*
X142138729Y-146983448D01*
X142102991Y-147012778D01*
X141946466Y-147096443D01*
X141776627Y-147147963D01*
X141710443Y-147154481D01*
X141644260Y-147161000D01*
X141555740Y-147161000D01*
X141489557Y-147154481D01*
X141423373Y-147147963D01*
X141253534Y-147096443D01*
X141097009Y-147012778D01*
X141061271Y-146983448D01*
X140959814Y-146900186D01*
X140876552Y-146798729D01*
X140847222Y-146762991D01*
X140763557Y-146606466D01*
X140712037Y-146436627D01*
X140694641Y-146260000D01*
X140712037Y-146083373D01*
X140763557Y-145913534D01*
X140847222Y-145757009D01*
X140896463Y-145697009D01*
X140959814Y-145619814D01*
X141061271Y-145536552D01*
X141097009Y-145507222D01*
X141253534Y-145423557D01*
X141423373Y-145372037D01*
X141509473Y-145363557D01*
X141555740Y-145359000D01*
X141644260Y-145359000D01*
X141690527Y-145363557D01*
X141690527Y-145363557D01*
G37*
G36*
X139150527Y-145363557D02*
G01*
X139236627Y-145372037D01*
X139406466Y-145423557D01*
X139562991Y-145507222D01*
X139598729Y-145536552D01*
X139700186Y-145619814D01*
X139763537Y-145697009D01*
X139812778Y-145757009D01*
X139896443Y-145913534D01*
X139947963Y-146083373D01*
X139965359Y-146260000D01*
X139947963Y-146436627D01*
X139896443Y-146606466D01*
X139812778Y-146762991D01*
X139783448Y-146798729D01*
X139700186Y-146900186D01*
X139598729Y-146983448D01*
X139562991Y-147012778D01*
X139406466Y-147096443D01*
X139236627Y-147147963D01*
X139170443Y-147154481D01*
X139104260Y-147161000D01*
X139015740Y-147161000D01*
X138949557Y-147154481D01*
X138883373Y-147147963D01*
X138713534Y-147096443D01*
X138557009Y-147012778D01*
X138521271Y-146983448D01*
X138419814Y-146900186D01*
X138336552Y-146798729D01*
X138307222Y-146762991D01*
X138223557Y-146606466D01*
X138172037Y-146436627D01*
X138154641Y-146260000D01*
X138172037Y-146083373D01*
X138223557Y-145913534D01*
X138307222Y-145757009D01*
X138356463Y-145697009D01*
X138419814Y-145619814D01*
X138521271Y-145536552D01*
X138557009Y-145507222D01*
X138713534Y-145423557D01*
X138883373Y-145372037D01*
X138969473Y-145363557D01*
X139015740Y-145359000D01*
X139104260Y-145359000D01*
X139150527Y-145363557D01*
X139150527Y-145363557D01*
G37*
G36*
X106120443Y-145305519D02*
G01*
X106186627Y-145312037D01*
X106356466Y-145363557D01*
X106512991Y-145447222D01*
X106548729Y-145476552D01*
X106650186Y-145559814D01*
X106733448Y-145661271D01*
X106762778Y-145697009D01*
X106846443Y-145853534D01*
X106897963Y-146023373D01*
X106915359Y-146200000D01*
X106897963Y-146376627D01*
X106846443Y-146546466D01*
X106762778Y-146702991D01*
X106733448Y-146738729D01*
X106650186Y-146840186D01*
X106548729Y-146923448D01*
X106512991Y-146952778D01*
X106356466Y-147036443D01*
X106186627Y-147087963D01*
X106120443Y-147094481D01*
X106054260Y-147101000D01*
X105965740Y-147101000D01*
X105899557Y-147094481D01*
X105833373Y-147087963D01*
X105663534Y-147036443D01*
X105507009Y-146952778D01*
X105471271Y-146923448D01*
X105369814Y-146840186D01*
X105286552Y-146738729D01*
X105257222Y-146702991D01*
X105173557Y-146546466D01*
X105122037Y-146376627D01*
X105104641Y-146200000D01*
X105122037Y-146023373D01*
X105173557Y-145853534D01*
X105257222Y-145697009D01*
X105286552Y-145661271D01*
X105369814Y-145559814D01*
X105471271Y-145476552D01*
X105507009Y-145447222D01*
X105663534Y-145363557D01*
X105833373Y-145312037D01*
X105899557Y-145305519D01*
X105965740Y-145299000D01*
X106054260Y-145299000D01*
X106120443Y-145305519D01*
X106120443Y-145305519D01*
G37*
G36*
X103580443Y-145305519D02*
G01*
X103646627Y-145312037D01*
X103816466Y-145363557D01*
X103972991Y-145447222D01*
X104008729Y-145476552D01*
X104110186Y-145559814D01*
X104193448Y-145661271D01*
X104222778Y-145697009D01*
X104306443Y-145853534D01*
X104357963Y-146023373D01*
X104375359Y-146200000D01*
X104357963Y-146376627D01*
X104306443Y-146546466D01*
X104222778Y-146702991D01*
X104193448Y-146738729D01*
X104110186Y-146840186D01*
X104008729Y-146923448D01*
X103972991Y-146952778D01*
X103816466Y-147036443D01*
X103646627Y-147087963D01*
X103580443Y-147094481D01*
X103514260Y-147101000D01*
X103425740Y-147101000D01*
X103359557Y-147094481D01*
X103293373Y-147087963D01*
X103123534Y-147036443D01*
X102967009Y-146952778D01*
X102931271Y-146923448D01*
X102829814Y-146840186D01*
X102746552Y-146738729D01*
X102717222Y-146702991D01*
X102633557Y-146546466D01*
X102582037Y-146376627D01*
X102564641Y-146200000D01*
X102582037Y-146023373D01*
X102633557Y-145853534D01*
X102717222Y-145697009D01*
X102746552Y-145661271D01*
X102829814Y-145559814D01*
X102931271Y-145476552D01*
X102967009Y-145447222D01*
X103123534Y-145363557D01*
X103293373Y-145312037D01*
X103359557Y-145305519D01*
X103425740Y-145299000D01*
X103514260Y-145299000D01*
X103580443Y-145305519D01*
X103580443Y-145305519D01*
G37*
G36*
X141690527Y-142823557D02*
G01*
X141776627Y-142832037D01*
X141946466Y-142883557D01*
X142102991Y-142967222D01*
X142138729Y-142996552D01*
X142240186Y-143079814D01*
X142303537Y-143157009D01*
X142352778Y-143217009D01*
X142436443Y-143373534D01*
X142487963Y-143543373D01*
X142505359Y-143720000D01*
X142487963Y-143896627D01*
X142436443Y-144066466D01*
X142352778Y-144222991D01*
X142323448Y-144258729D01*
X142240186Y-144360186D01*
X142138729Y-144443448D01*
X142102991Y-144472778D01*
X141946466Y-144556443D01*
X141776627Y-144607963D01*
X141710443Y-144614481D01*
X141644260Y-144621000D01*
X141555740Y-144621000D01*
X141489557Y-144614481D01*
X141423373Y-144607963D01*
X141253534Y-144556443D01*
X141097009Y-144472778D01*
X141061271Y-144443448D01*
X140959814Y-144360186D01*
X140876552Y-144258729D01*
X140847222Y-144222991D01*
X140763557Y-144066466D01*
X140712037Y-143896627D01*
X140694641Y-143720000D01*
X140712037Y-143543373D01*
X140763557Y-143373534D01*
X140847222Y-143217009D01*
X140896463Y-143157009D01*
X140959814Y-143079814D01*
X141061271Y-142996552D01*
X141097009Y-142967222D01*
X141253534Y-142883557D01*
X141423373Y-142832037D01*
X141509473Y-142823557D01*
X141555740Y-142819000D01*
X141644260Y-142819000D01*
X141690527Y-142823557D01*
X141690527Y-142823557D01*
G37*
G36*
X139150527Y-142823557D02*
G01*
X139236627Y-142832037D01*
X139406466Y-142883557D01*
X139562991Y-142967222D01*
X139598729Y-142996552D01*
X139700186Y-143079814D01*
X139763537Y-143157009D01*
X139812778Y-143217009D01*
X139896443Y-143373534D01*
X139947963Y-143543373D01*
X139965359Y-143720000D01*
X139947963Y-143896627D01*
X139896443Y-144066466D01*
X139812778Y-144222991D01*
X139783448Y-144258729D01*
X139700186Y-144360186D01*
X139598729Y-144443448D01*
X139562991Y-144472778D01*
X139406466Y-144556443D01*
X139236627Y-144607963D01*
X139170443Y-144614481D01*
X139104260Y-144621000D01*
X139015740Y-144621000D01*
X138949557Y-144614481D01*
X138883373Y-144607963D01*
X138713534Y-144556443D01*
X138557009Y-144472778D01*
X138521271Y-144443448D01*
X138419814Y-144360186D01*
X138336552Y-144258729D01*
X138307222Y-144222991D01*
X138223557Y-144066466D01*
X138172037Y-143896627D01*
X138154641Y-143720000D01*
X138172037Y-143543373D01*
X138223557Y-143373534D01*
X138307222Y-143217009D01*
X138356463Y-143157009D01*
X138419814Y-143079814D01*
X138521271Y-142996552D01*
X138557009Y-142967222D01*
X138713534Y-142883557D01*
X138883373Y-142832037D01*
X138969473Y-142823557D01*
X139015740Y-142819000D01*
X139104260Y-142819000D01*
X139150527Y-142823557D01*
X139150527Y-142823557D01*
G37*
G36*
X103580442Y-142765518D02*
G01*
X103646627Y-142772037D01*
X103816466Y-142823557D01*
X103972991Y-142907222D01*
X104008729Y-142936552D01*
X104110186Y-143019814D01*
X104193448Y-143121271D01*
X104222778Y-143157009D01*
X104306443Y-143313534D01*
X104357963Y-143483373D01*
X104375359Y-143660000D01*
X104357963Y-143836627D01*
X104306443Y-144006466D01*
X104222778Y-144162991D01*
X104193448Y-144198729D01*
X104110186Y-144300186D01*
X104008729Y-144383448D01*
X103972991Y-144412778D01*
X103816466Y-144496443D01*
X103646627Y-144547963D01*
X103580443Y-144554481D01*
X103514260Y-144561000D01*
X103425740Y-144561000D01*
X103359557Y-144554481D01*
X103293373Y-144547963D01*
X103123534Y-144496443D01*
X102967009Y-144412778D01*
X102931271Y-144383448D01*
X102829814Y-144300186D01*
X102746552Y-144198729D01*
X102717222Y-144162991D01*
X102633557Y-144006466D01*
X102582037Y-143836627D01*
X102564641Y-143660000D01*
X102582037Y-143483373D01*
X102633557Y-143313534D01*
X102717222Y-143157009D01*
X102746552Y-143121271D01*
X102829814Y-143019814D01*
X102931271Y-142936552D01*
X102967009Y-142907222D01*
X103123534Y-142823557D01*
X103293373Y-142772037D01*
X103359558Y-142765518D01*
X103425740Y-142759000D01*
X103514260Y-142759000D01*
X103580442Y-142765518D01*
X103580442Y-142765518D01*
G37*
G36*
X106120442Y-142765518D02*
G01*
X106186627Y-142772037D01*
X106356466Y-142823557D01*
X106512991Y-142907222D01*
X106548729Y-142936552D01*
X106650186Y-143019814D01*
X106733448Y-143121271D01*
X106762778Y-143157009D01*
X106846443Y-143313534D01*
X106897963Y-143483373D01*
X106915359Y-143660000D01*
X106897963Y-143836627D01*
X106846443Y-144006466D01*
X106762778Y-144162991D01*
X106733448Y-144198729D01*
X106650186Y-144300186D01*
X106548729Y-144383448D01*
X106512991Y-144412778D01*
X106356466Y-144496443D01*
X106186627Y-144547963D01*
X106120443Y-144554481D01*
X106054260Y-144561000D01*
X105965740Y-144561000D01*
X105899557Y-144554481D01*
X105833373Y-144547963D01*
X105663534Y-144496443D01*
X105507009Y-144412778D01*
X105471271Y-144383448D01*
X105369814Y-144300186D01*
X105286552Y-144198729D01*
X105257222Y-144162991D01*
X105173557Y-144006466D01*
X105122037Y-143836627D01*
X105104641Y-143660000D01*
X105122037Y-143483373D01*
X105173557Y-143313534D01*
X105257222Y-143157009D01*
X105286552Y-143121271D01*
X105369814Y-143019814D01*
X105471271Y-142936552D01*
X105507009Y-142907222D01*
X105663534Y-142823557D01*
X105833373Y-142772037D01*
X105899558Y-142765518D01*
X105965740Y-142759000D01*
X106054260Y-142759000D01*
X106120442Y-142765518D01*
X106120442Y-142765518D01*
G37*
G36*
X139150527Y-140283557D02*
G01*
X139236627Y-140292037D01*
X139406466Y-140343557D01*
X139562991Y-140427222D01*
X139598729Y-140456552D01*
X139700186Y-140539814D01*
X139763537Y-140617009D01*
X139812778Y-140677009D01*
X139896443Y-140833534D01*
X139947963Y-141003373D01*
X139965359Y-141180000D01*
X139947963Y-141356627D01*
X139896443Y-141526466D01*
X139812778Y-141682991D01*
X139783448Y-141718729D01*
X139700186Y-141820186D01*
X139598729Y-141903448D01*
X139562991Y-141932778D01*
X139406466Y-142016443D01*
X139236627Y-142067963D01*
X139170442Y-142074482D01*
X139104260Y-142081000D01*
X139015740Y-142081000D01*
X138949558Y-142074482D01*
X138883373Y-142067963D01*
X138713534Y-142016443D01*
X138557009Y-141932778D01*
X138521271Y-141903448D01*
X138419814Y-141820186D01*
X138336552Y-141718729D01*
X138307222Y-141682991D01*
X138223557Y-141526466D01*
X138172037Y-141356627D01*
X138154641Y-141180000D01*
X138172037Y-141003373D01*
X138223557Y-140833534D01*
X138307222Y-140677009D01*
X138356463Y-140617009D01*
X138419814Y-140539814D01*
X138521271Y-140456552D01*
X138557009Y-140427222D01*
X138713534Y-140343557D01*
X138883373Y-140292037D01*
X138969473Y-140283557D01*
X139015740Y-140279000D01*
X139104260Y-140279000D01*
X139150527Y-140283557D01*
X139150527Y-140283557D01*
G37*
G36*
X141690527Y-140283557D02*
G01*
X141776627Y-140292037D01*
X141946466Y-140343557D01*
X142102991Y-140427222D01*
X142138729Y-140456552D01*
X142240186Y-140539814D01*
X142303537Y-140617009D01*
X142352778Y-140677009D01*
X142436443Y-140833534D01*
X142487963Y-141003373D01*
X142505359Y-141180000D01*
X142487963Y-141356627D01*
X142436443Y-141526466D01*
X142352778Y-141682991D01*
X142323448Y-141718729D01*
X142240186Y-141820186D01*
X142138729Y-141903448D01*
X142102991Y-141932778D01*
X141946466Y-142016443D01*
X141776627Y-142067963D01*
X141710442Y-142074482D01*
X141644260Y-142081000D01*
X141555740Y-142081000D01*
X141489558Y-142074482D01*
X141423373Y-142067963D01*
X141253534Y-142016443D01*
X141097009Y-141932778D01*
X141061271Y-141903448D01*
X140959814Y-141820186D01*
X140876552Y-141718729D01*
X140847222Y-141682991D01*
X140763557Y-141526466D01*
X140712037Y-141356627D01*
X140694641Y-141180000D01*
X140712037Y-141003373D01*
X140763557Y-140833534D01*
X140847222Y-140677009D01*
X140896463Y-140617009D01*
X140959814Y-140539814D01*
X141061271Y-140456552D01*
X141097009Y-140427222D01*
X141253534Y-140343557D01*
X141423373Y-140292037D01*
X141509473Y-140283557D01*
X141555740Y-140279000D01*
X141644260Y-140279000D01*
X141690527Y-140283557D01*
X141690527Y-140283557D01*
G37*
G36*
X103580442Y-140225518D02*
G01*
X103646627Y-140232037D01*
X103816466Y-140283557D01*
X103972991Y-140367222D01*
X104008729Y-140396552D01*
X104110186Y-140479814D01*
X104193448Y-140581271D01*
X104222778Y-140617009D01*
X104306443Y-140773534D01*
X104357963Y-140943373D01*
X104375359Y-141120000D01*
X104357963Y-141296627D01*
X104306443Y-141466466D01*
X104222778Y-141622991D01*
X104193448Y-141658729D01*
X104110186Y-141760186D01*
X104008729Y-141843448D01*
X103972991Y-141872778D01*
X103816466Y-141956443D01*
X103646627Y-142007963D01*
X103580442Y-142014482D01*
X103514260Y-142021000D01*
X103425740Y-142021000D01*
X103359558Y-142014482D01*
X103293373Y-142007963D01*
X103123534Y-141956443D01*
X102967009Y-141872778D01*
X102931271Y-141843448D01*
X102829814Y-141760186D01*
X102746552Y-141658729D01*
X102717222Y-141622991D01*
X102633557Y-141466466D01*
X102582037Y-141296627D01*
X102564641Y-141120000D01*
X102582037Y-140943373D01*
X102633557Y-140773534D01*
X102717222Y-140617009D01*
X102746552Y-140581271D01*
X102829814Y-140479814D01*
X102931271Y-140396552D01*
X102967009Y-140367222D01*
X103123534Y-140283557D01*
X103293373Y-140232037D01*
X103359558Y-140225518D01*
X103425740Y-140219000D01*
X103514260Y-140219000D01*
X103580442Y-140225518D01*
X103580442Y-140225518D01*
G37*
G36*
X106120442Y-140225518D02*
G01*
X106186627Y-140232037D01*
X106356466Y-140283557D01*
X106512991Y-140367222D01*
X106548729Y-140396552D01*
X106650186Y-140479814D01*
X106733448Y-140581271D01*
X106762778Y-140617009D01*
X106846443Y-140773534D01*
X106897963Y-140943373D01*
X106915359Y-141120000D01*
X106897963Y-141296627D01*
X106846443Y-141466466D01*
X106762778Y-141622991D01*
X106733448Y-141658729D01*
X106650186Y-141760186D01*
X106548729Y-141843448D01*
X106512991Y-141872778D01*
X106356466Y-141956443D01*
X106186627Y-142007963D01*
X106120442Y-142014482D01*
X106054260Y-142021000D01*
X105965740Y-142021000D01*
X105899558Y-142014482D01*
X105833373Y-142007963D01*
X105663534Y-141956443D01*
X105507009Y-141872778D01*
X105471271Y-141843448D01*
X105369814Y-141760186D01*
X105286552Y-141658729D01*
X105257222Y-141622991D01*
X105173557Y-141466466D01*
X105122037Y-141296627D01*
X105104641Y-141120000D01*
X105122037Y-140943373D01*
X105173557Y-140773534D01*
X105257222Y-140617009D01*
X105286552Y-140581271D01*
X105369814Y-140479814D01*
X105471271Y-140396552D01*
X105507009Y-140367222D01*
X105663534Y-140283557D01*
X105833373Y-140232037D01*
X105899558Y-140225518D01*
X105965740Y-140219000D01*
X106054260Y-140219000D01*
X106120442Y-140225518D01*
X106120442Y-140225518D01*
G37*
G36*
X139150527Y-137743557D02*
G01*
X139236627Y-137752037D01*
X139406466Y-137803557D01*
X139562991Y-137887222D01*
X139598729Y-137916552D01*
X139700186Y-137999814D01*
X139763537Y-138077009D01*
X139812778Y-138137009D01*
X139896443Y-138293534D01*
X139947963Y-138463373D01*
X139965359Y-138640000D01*
X139947963Y-138816627D01*
X139896443Y-138986466D01*
X139812778Y-139142991D01*
X139783448Y-139178729D01*
X139700186Y-139280186D01*
X139598729Y-139363448D01*
X139562991Y-139392778D01*
X139406466Y-139476443D01*
X139236627Y-139527963D01*
X139170443Y-139534481D01*
X139104260Y-139541000D01*
X139015740Y-139541000D01*
X138949557Y-139534481D01*
X138883373Y-139527963D01*
X138713534Y-139476443D01*
X138557009Y-139392778D01*
X138521271Y-139363448D01*
X138419814Y-139280186D01*
X138336552Y-139178729D01*
X138307222Y-139142991D01*
X138223557Y-138986466D01*
X138172037Y-138816627D01*
X138154641Y-138640000D01*
X138172037Y-138463373D01*
X138223557Y-138293534D01*
X138307222Y-138137009D01*
X138356463Y-138077009D01*
X138419814Y-137999814D01*
X138521271Y-137916552D01*
X138557009Y-137887222D01*
X138713534Y-137803557D01*
X138883373Y-137752037D01*
X138969473Y-137743557D01*
X139015740Y-137739000D01*
X139104260Y-137739000D01*
X139150527Y-137743557D01*
X139150527Y-137743557D01*
G37*
G36*
X141690527Y-137743557D02*
G01*
X141776627Y-137752037D01*
X141946466Y-137803557D01*
X142102991Y-137887222D01*
X142138729Y-137916552D01*
X142240186Y-137999814D01*
X142303537Y-138077009D01*
X142352778Y-138137009D01*
X142436443Y-138293534D01*
X142487963Y-138463373D01*
X142505359Y-138640000D01*
X142487963Y-138816627D01*
X142436443Y-138986466D01*
X142352778Y-139142991D01*
X142323448Y-139178729D01*
X142240186Y-139280186D01*
X142138729Y-139363448D01*
X142102991Y-139392778D01*
X141946466Y-139476443D01*
X141776627Y-139527963D01*
X141710443Y-139534481D01*
X141644260Y-139541000D01*
X141555740Y-139541000D01*
X141489557Y-139534481D01*
X141423373Y-139527963D01*
X141253534Y-139476443D01*
X141097009Y-139392778D01*
X141061271Y-139363448D01*
X140959814Y-139280186D01*
X140876552Y-139178729D01*
X140847222Y-139142991D01*
X140763557Y-138986466D01*
X140712037Y-138816627D01*
X140694641Y-138640000D01*
X140712037Y-138463373D01*
X140763557Y-138293534D01*
X140847222Y-138137009D01*
X140896463Y-138077009D01*
X140959814Y-137999814D01*
X141061271Y-137916552D01*
X141097009Y-137887222D01*
X141253534Y-137803557D01*
X141423373Y-137752037D01*
X141509473Y-137743557D01*
X141555740Y-137739000D01*
X141644260Y-137739000D01*
X141690527Y-137743557D01*
X141690527Y-137743557D01*
G37*
G36*
X106120442Y-137685518D02*
G01*
X106186627Y-137692037D01*
X106356466Y-137743557D01*
X106512991Y-137827222D01*
X106548729Y-137856552D01*
X106650186Y-137939814D01*
X106733448Y-138041271D01*
X106762778Y-138077009D01*
X106846443Y-138233534D01*
X106897963Y-138403373D01*
X106915359Y-138580000D01*
X106897963Y-138756627D01*
X106846443Y-138926466D01*
X106762778Y-139082991D01*
X106733448Y-139118729D01*
X106650186Y-139220186D01*
X106548729Y-139303448D01*
X106512991Y-139332778D01*
X106356466Y-139416443D01*
X106186627Y-139467963D01*
X106120442Y-139474482D01*
X106054260Y-139481000D01*
X105965740Y-139481000D01*
X105899558Y-139474482D01*
X105833373Y-139467963D01*
X105663534Y-139416443D01*
X105507009Y-139332778D01*
X105471271Y-139303448D01*
X105369814Y-139220186D01*
X105286552Y-139118729D01*
X105257222Y-139082991D01*
X105173557Y-138926466D01*
X105122037Y-138756627D01*
X105104641Y-138580000D01*
X105122037Y-138403373D01*
X105173557Y-138233534D01*
X105257222Y-138077009D01*
X105286552Y-138041271D01*
X105369814Y-137939814D01*
X105471271Y-137856552D01*
X105507009Y-137827222D01*
X105663534Y-137743557D01*
X105833373Y-137692037D01*
X105899558Y-137685518D01*
X105965740Y-137679000D01*
X106054260Y-137679000D01*
X106120442Y-137685518D01*
X106120442Y-137685518D01*
G37*
G36*
X103580442Y-137685518D02*
G01*
X103646627Y-137692037D01*
X103816466Y-137743557D01*
X103972991Y-137827222D01*
X104008729Y-137856552D01*
X104110186Y-137939814D01*
X104193448Y-138041271D01*
X104222778Y-138077009D01*
X104306443Y-138233534D01*
X104357963Y-138403373D01*
X104375359Y-138580000D01*
X104357963Y-138756627D01*
X104306443Y-138926466D01*
X104222778Y-139082991D01*
X104193448Y-139118729D01*
X104110186Y-139220186D01*
X104008729Y-139303448D01*
X103972991Y-139332778D01*
X103816466Y-139416443D01*
X103646627Y-139467963D01*
X103580442Y-139474482D01*
X103514260Y-139481000D01*
X103425740Y-139481000D01*
X103359558Y-139474482D01*
X103293373Y-139467963D01*
X103123534Y-139416443D01*
X102967009Y-139332778D01*
X102931271Y-139303448D01*
X102829814Y-139220186D01*
X102746552Y-139118729D01*
X102717222Y-139082991D01*
X102633557Y-138926466D01*
X102582037Y-138756627D01*
X102564641Y-138580000D01*
X102582037Y-138403373D01*
X102633557Y-138233534D01*
X102717222Y-138077009D01*
X102746552Y-138041271D01*
X102829814Y-137939814D01*
X102931271Y-137856552D01*
X102967009Y-137827222D01*
X103123534Y-137743557D01*
X103293373Y-137692037D01*
X103359558Y-137685518D01*
X103425740Y-137679000D01*
X103514260Y-137679000D01*
X103580442Y-137685518D01*
X103580442Y-137685518D01*
G37*
G36*
X141690527Y-135203557D02*
G01*
X141776627Y-135212037D01*
X141946466Y-135263557D01*
X142102991Y-135347222D01*
X142138729Y-135376552D01*
X142240186Y-135459814D01*
X142303537Y-135537009D01*
X142352778Y-135597009D01*
X142436443Y-135753534D01*
X142487963Y-135923373D01*
X142505359Y-136100000D01*
X142487963Y-136276627D01*
X142436443Y-136446466D01*
X142352778Y-136602991D01*
X142323448Y-136638729D01*
X142240186Y-136740186D01*
X142138729Y-136823448D01*
X142102991Y-136852778D01*
X141946466Y-136936443D01*
X141776627Y-136987963D01*
X141710443Y-136994481D01*
X141644260Y-137001000D01*
X141555740Y-137001000D01*
X141489557Y-136994481D01*
X141423373Y-136987963D01*
X141253534Y-136936443D01*
X141097009Y-136852778D01*
X141061271Y-136823448D01*
X140959814Y-136740186D01*
X140876552Y-136638729D01*
X140847222Y-136602991D01*
X140763557Y-136446466D01*
X140712037Y-136276627D01*
X140694641Y-136100000D01*
X140712037Y-135923373D01*
X140763557Y-135753534D01*
X140847222Y-135597009D01*
X140896463Y-135537009D01*
X140959814Y-135459814D01*
X141061271Y-135376552D01*
X141097009Y-135347222D01*
X141253534Y-135263557D01*
X141423373Y-135212037D01*
X141509473Y-135203557D01*
X141555740Y-135199000D01*
X141644260Y-135199000D01*
X141690527Y-135203557D01*
X141690527Y-135203557D01*
G37*
G36*
X139150527Y-135203557D02*
G01*
X139236627Y-135212037D01*
X139406466Y-135263557D01*
X139562991Y-135347222D01*
X139598729Y-135376552D01*
X139700186Y-135459814D01*
X139763537Y-135537009D01*
X139812778Y-135597009D01*
X139896443Y-135753534D01*
X139947963Y-135923373D01*
X139965359Y-136100000D01*
X139947963Y-136276627D01*
X139896443Y-136446466D01*
X139812778Y-136602991D01*
X139783448Y-136638729D01*
X139700186Y-136740186D01*
X139598729Y-136823448D01*
X139562991Y-136852778D01*
X139406466Y-136936443D01*
X139236627Y-136987963D01*
X139170443Y-136994481D01*
X139104260Y-137001000D01*
X139015740Y-137001000D01*
X138949557Y-136994481D01*
X138883373Y-136987963D01*
X138713534Y-136936443D01*
X138557009Y-136852778D01*
X138521271Y-136823448D01*
X138419814Y-136740186D01*
X138336552Y-136638729D01*
X138307222Y-136602991D01*
X138223557Y-136446466D01*
X138172037Y-136276627D01*
X138154641Y-136100000D01*
X138172037Y-135923373D01*
X138223557Y-135753534D01*
X138307222Y-135597009D01*
X138356463Y-135537009D01*
X138419814Y-135459814D01*
X138521271Y-135376552D01*
X138557009Y-135347222D01*
X138713534Y-135263557D01*
X138883373Y-135212037D01*
X138969473Y-135203557D01*
X139015740Y-135199000D01*
X139104260Y-135199000D01*
X139150527Y-135203557D01*
X139150527Y-135203557D01*
G37*
G36*
X106120443Y-135145519D02*
G01*
X106186627Y-135152037D01*
X106356466Y-135203557D01*
X106512991Y-135287222D01*
X106548729Y-135316552D01*
X106650186Y-135399814D01*
X106733448Y-135501271D01*
X106762778Y-135537009D01*
X106846443Y-135693534D01*
X106897963Y-135863373D01*
X106915359Y-136040000D01*
X106897963Y-136216627D01*
X106846443Y-136386466D01*
X106762778Y-136542991D01*
X106733448Y-136578729D01*
X106650186Y-136680186D01*
X106548729Y-136763448D01*
X106512991Y-136792778D01*
X106356466Y-136876443D01*
X106186627Y-136927963D01*
X106120443Y-136934481D01*
X106054260Y-136941000D01*
X105965740Y-136941000D01*
X105899557Y-136934481D01*
X105833373Y-136927963D01*
X105663534Y-136876443D01*
X105507009Y-136792778D01*
X105471271Y-136763448D01*
X105369814Y-136680186D01*
X105286552Y-136578729D01*
X105257222Y-136542991D01*
X105173557Y-136386466D01*
X105122037Y-136216627D01*
X105104641Y-136040000D01*
X105122037Y-135863373D01*
X105173557Y-135693534D01*
X105257222Y-135537009D01*
X105286552Y-135501271D01*
X105369814Y-135399814D01*
X105471271Y-135316552D01*
X105507009Y-135287222D01*
X105663534Y-135203557D01*
X105833373Y-135152037D01*
X105899557Y-135145519D01*
X105965740Y-135139000D01*
X106054260Y-135139000D01*
X106120443Y-135145519D01*
X106120443Y-135145519D01*
G37*
G36*
X103580443Y-135145519D02*
G01*
X103646627Y-135152037D01*
X103816466Y-135203557D01*
X103972991Y-135287222D01*
X104008729Y-135316552D01*
X104110186Y-135399814D01*
X104193448Y-135501271D01*
X104222778Y-135537009D01*
X104306443Y-135693534D01*
X104357963Y-135863373D01*
X104375359Y-136040000D01*
X104357963Y-136216627D01*
X104306443Y-136386466D01*
X104222778Y-136542991D01*
X104193448Y-136578729D01*
X104110186Y-136680186D01*
X104008729Y-136763448D01*
X103972991Y-136792778D01*
X103816466Y-136876443D01*
X103646627Y-136927963D01*
X103580443Y-136934481D01*
X103514260Y-136941000D01*
X103425740Y-136941000D01*
X103359557Y-136934481D01*
X103293373Y-136927963D01*
X103123534Y-136876443D01*
X102967009Y-136792778D01*
X102931271Y-136763448D01*
X102829814Y-136680186D01*
X102746552Y-136578729D01*
X102717222Y-136542991D01*
X102633557Y-136386466D01*
X102582037Y-136216627D01*
X102564641Y-136040000D01*
X102582037Y-135863373D01*
X102633557Y-135693534D01*
X102717222Y-135537009D01*
X102746552Y-135501271D01*
X102829814Y-135399814D01*
X102931271Y-135316552D01*
X102967009Y-135287222D01*
X103123534Y-135203557D01*
X103293373Y-135152037D01*
X103359557Y-135145519D01*
X103425740Y-135139000D01*
X103514260Y-135139000D01*
X103580443Y-135145519D01*
X103580443Y-135145519D01*
G37*
G36*
X141690527Y-132663557D02*
G01*
X141776627Y-132672037D01*
X141946466Y-132723557D01*
X142102991Y-132807222D01*
X142138729Y-132836552D01*
X142240186Y-132919814D01*
X142303537Y-132997009D01*
X142352778Y-133057009D01*
X142436443Y-133213534D01*
X142487963Y-133383373D01*
X142505359Y-133560000D01*
X142487963Y-133736627D01*
X142436443Y-133906466D01*
X142352778Y-134062991D01*
X142323448Y-134098729D01*
X142240186Y-134200186D01*
X142138729Y-134283448D01*
X142102991Y-134312778D01*
X141946466Y-134396443D01*
X141776627Y-134447963D01*
X141710442Y-134454482D01*
X141644260Y-134461000D01*
X141555740Y-134461000D01*
X141489558Y-134454482D01*
X141423373Y-134447963D01*
X141253534Y-134396443D01*
X141097009Y-134312778D01*
X141061271Y-134283448D01*
X140959814Y-134200186D01*
X140876552Y-134098729D01*
X140847222Y-134062991D01*
X140763557Y-133906466D01*
X140712037Y-133736627D01*
X140694641Y-133560000D01*
X140712037Y-133383373D01*
X140763557Y-133213534D01*
X140847222Y-133057009D01*
X140896463Y-132997009D01*
X140959814Y-132919814D01*
X141061271Y-132836552D01*
X141097009Y-132807222D01*
X141253534Y-132723557D01*
X141423373Y-132672037D01*
X141509473Y-132663557D01*
X141555740Y-132659000D01*
X141644260Y-132659000D01*
X141690527Y-132663557D01*
X141690527Y-132663557D01*
G37*
G36*
X139150527Y-132663557D02*
G01*
X139236627Y-132672037D01*
X139406466Y-132723557D01*
X139562991Y-132807222D01*
X139598729Y-132836552D01*
X139700186Y-132919814D01*
X139763537Y-132997009D01*
X139812778Y-133057009D01*
X139896443Y-133213534D01*
X139947963Y-133383373D01*
X139965359Y-133560000D01*
X139947963Y-133736627D01*
X139896443Y-133906466D01*
X139812778Y-134062991D01*
X139783448Y-134098729D01*
X139700186Y-134200186D01*
X139598729Y-134283448D01*
X139562991Y-134312778D01*
X139406466Y-134396443D01*
X139236627Y-134447963D01*
X139170442Y-134454482D01*
X139104260Y-134461000D01*
X139015740Y-134461000D01*
X138949558Y-134454482D01*
X138883373Y-134447963D01*
X138713534Y-134396443D01*
X138557009Y-134312778D01*
X138521271Y-134283448D01*
X138419814Y-134200186D01*
X138336552Y-134098729D01*
X138307222Y-134062991D01*
X138223557Y-133906466D01*
X138172037Y-133736627D01*
X138154641Y-133560000D01*
X138172037Y-133383373D01*
X138223557Y-133213534D01*
X138307222Y-133057009D01*
X138356463Y-132997009D01*
X138419814Y-132919814D01*
X138521271Y-132836552D01*
X138557009Y-132807222D01*
X138713534Y-132723557D01*
X138883373Y-132672037D01*
X138969473Y-132663557D01*
X139015740Y-132659000D01*
X139104260Y-132659000D01*
X139150527Y-132663557D01*
X139150527Y-132663557D01*
G37*
G36*
X103580442Y-132605518D02*
G01*
X103646627Y-132612037D01*
X103816466Y-132663557D01*
X103972991Y-132747222D01*
X104008729Y-132776552D01*
X104110186Y-132859814D01*
X104193448Y-132961271D01*
X104222778Y-132997009D01*
X104306443Y-133153534D01*
X104357963Y-133323373D01*
X104375359Y-133500000D01*
X104357963Y-133676627D01*
X104306443Y-133846466D01*
X104222778Y-134002991D01*
X104193448Y-134038729D01*
X104110186Y-134140186D01*
X104008729Y-134223448D01*
X103972991Y-134252778D01*
X103816466Y-134336443D01*
X103646627Y-134387963D01*
X103580442Y-134394482D01*
X103514260Y-134401000D01*
X103425740Y-134401000D01*
X103359558Y-134394482D01*
X103293373Y-134387963D01*
X103123534Y-134336443D01*
X102967009Y-134252778D01*
X102931271Y-134223448D01*
X102829814Y-134140186D01*
X102746552Y-134038729D01*
X102717222Y-134002991D01*
X102633557Y-133846466D01*
X102582037Y-133676627D01*
X102564641Y-133500000D01*
X102582037Y-133323373D01*
X102633557Y-133153534D01*
X102717222Y-132997009D01*
X102746552Y-132961271D01*
X102829814Y-132859814D01*
X102931271Y-132776552D01*
X102967009Y-132747222D01*
X103123534Y-132663557D01*
X103293373Y-132612037D01*
X103359558Y-132605518D01*
X103425740Y-132599000D01*
X103514260Y-132599000D01*
X103580442Y-132605518D01*
X103580442Y-132605518D01*
G37*
G36*
X106120442Y-132605518D02*
G01*
X106186627Y-132612037D01*
X106356466Y-132663557D01*
X106512991Y-132747222D01*
X106548729Y-132776552D01*
X106650186Y-132859814D01*
X106733448Y-132961271D01*
X106762778Y-132997009D01*
X106846443Y-133153534D01*
X106897963Y-133323373D01*
X106915359Y-133500000D01*
X106897963Y-133676627D01*
X106846443Y-133846466D01*
X106762778Y-134002991D01*
X106733448Y-134038729D01*
X106650186Y-134140186D01*
X106548729Y-134223448D01*
X106512991Y-134252778D01*
X106356466Y-134336443D01*
X106186627Y-134387963D01*
X106120442Y-134394482D01*
X106054260Y-134401000D01*
X105965740Y-134401000D01*
X105899558Y-134394482D01*
X105833373Y-134387963D01*
X105663534Y-134336443D01*
X105507009Y-134252778D01*
X105471271Y-134223448D01*
X105369814Y-134140186D01*
X105286552Y-134038729D01*
X105257222Y-134002991D01*
X105173557Y-133846466D01*
X105122037Y-133676627D01*
X105104641Y-133500000D01*
X105122037Y-133323373D01*
X105173557Y-133153534D01*
X105257222Y-132997009D01*
X105286552Y-132961271D01*
X105369814Y-132859814D01*
X105471271Y-132776552D01*
X105507009Y-132747222D01*
X105663534Y-132663557D01*
X105833373Y-132612037D01*
X105899558Y-132605518D01*
X105965740Y-132599000D01*
X106054260Y-132599000D01*
X106120442Y-132605518D01*
X106120442Y-132605518D01*
G37*
G36*
X141690527Y-130123557D02*
G01*
X141776627Y-130132037D01*
X141946466Y-130183557D01*
X142102991Y-130267222D01*
X142138729Y-130296552D01*
X142240186Y-130379814D01*
X142303537Y-130457009D01*
X142352778Y-130517009D01*
X142436443Y-130673534D01*
X142487963Y-130843373D01*
X142505359Y-131020000D01*
X142487963Y-131196627D01*
X142436443Y-131366466D01*
X142352778Y-131522991D01*
X142323448Y-131558729D01*
X142240186Y-131660186D01*
X142138729Y-131743448D01*
X142102991Y-131772778D01*
X141946466Y-131856443D01*
X141776627Y-131907963D01*
X141710442Y-131914482D01*
X141644260Y-131921000D01*
X141555740Y-131921000D01*
X141489558Y-131914482D01*
X141423373Y-131907963D01*
X141253534Y-131856443D01*
X141097009Y-131772778D01*
X141061271Y-131743448D01*
X140959814Y-131660186D01*
X140876552Y-131558729D01*
X140847222Y-131522991D01*
X140763557Y-131366466D01*
X140712037Y-131196627D01*
X140694641Y-131020000D01*
X140712037Y-130843373D01*
X140763557Y-130673534D01*
X140847222Y-130517009D01*
X140896463Y-130457009D01*
X140959814Y-130379814D01*
X141061271Y-130296552D01*
X141097009Y-130267222D01*
X141253534Y-130183557D01*
X141423373Y-130132037D01*
X141509473Y-130123557D01*
X141555740Y-130119000D01*
X141644260Y-130119000D01*
X141690527Y-130123557D01*
X141690527Y-130123557D01*
G37*
G36*
X139150527Y-130123557D02*
G01*
X139236627Y-130132037D01*
X139406466Y-130183557D01*
X139562991Y-130267222D01*
X139598729Y-130296552D01*
X139700186Y-130379814D01*
X139763537Y-130457009D01*
X139812778Y-130517009D01*
X139896443Y-130673534D01*
X139947963Y-130843373D01*
X139965359Y-131020000D01*
X139947963Y-131196627D01*
X139896443Y-131366466D01*
X139812778Y-131522991D01*
X139783448Y-131558729D01*
X139700186Y-131660186D01*
X139598729Y-131743448D01*
X139562991Y-131772778D01*
X139406466Y-131856443D01*
X139236627Y-131907963D01*
X139170442Y-131914482D01*
X139104260Y-131921000D01*
X139015740Y-131921000D01*
X138949558Y-131914482D01*
X138883373Y-131907963D01*
X138713534Y-131856443D01*
X138557009Y-131772778D01*
X138521271Y-131743448D01*
X138419814Y-131660186D01*
X138336552Y-131558729D01*
X138307222Y-131522991D01*
X138223557Y-131366466D01*
X138172037Y-131196627D01*
X138154641Y-131020000D01*
X138172037Y-130843373D01*
X138223557Y-130673534D01*
X138307222Y-130517009D01*
X138356463Y-130457009D01*
X138419814Y-130379814D01*
X138521271Y-130296552D01*
X138557009Y-130267222D01*
X138713534Y-130183557D01*
X138883373Y-130132037D01*
X138969473Y-130123557D01*
X139015740Y-130119000D01*
X139104260Y-130119000D01*
X139150527Y-130123557D01*
X139150527Y-130123557D01*
G37*
G36*
X103580443Y-130065519D02*
G01*
X103646627Y-130072037D01*
X103816466Y-130123557D01*
X103972991Y-130207222D01*
X104008729Y-130236552D01*
X104110186Y-130319814D01*
X104193448Y-130421271D01*
X104222778Y-130457009D01*
X104306443Y-130613534D01*
X104357963Y-130783373D01*
X104375359Y-130960000D01*
X104357963Y-131136627D01*
X104306443Y-131306466D01*
X104222778Y-131462991D01*
X104193448Y-131498729D01*
X104110186Y-131600186D01*
X104008729Y-131683448D01*
X103972991Y-131712778D01*
X103816466Y-131796443D01*
X103646627Y-131847963D01*
X103580443Y-131854481D01*
X103514260Y-131861000D01*
X103425740Y-131861000D01*
X103359557Y-131854481D01*
X103293373Y-131847963D01*
X103123534Y-131796443D01*
X102967009Y-131712778D01*
X102931271Y-131683448D01*
X102829814Y-131600186D01*
X102746552Y-131498729D01*
X102717222Y-131462991D01*
X102633557Y-131306466D01*
X102582037Y-131136627D01*
X102564641Y-130960000D01*
X102582037Y-130783373D01*
X102633557Y-130613534D01*
X102717222Y-130457009D01*
X102746552Y-130421271D01*
X102829814Y-130319814D01*
X102931271Y-130236552D01*
X102967009Y-130207222D01*
X103123534Y-130123557D01*
X103293373Y-130072037D01*
X103359557Y-130065519D01*
X103425740Y-130059000D01*
X103514260Y-130059000D01*
X103580443Y-130065519D01*
X103580443Y-130065519D01*
G37*
G36*
X106120443Y-130065519D02*
G01*
X106186627Y-130072037D01*
X106356466Y-130123557D01*
X106512991Y-130207222D01*
X106548729Y-130236552D01*
X106650186Y-130319814D01*
X106733448Y-130421271D01*
X106762778Y-130457009D01*
X106846443Y-130613534D01*
X106897963Y-130783373D01*
X106915359Y-130960000D01*
X106897963Y-131136627D01*
X106846443Y-131306466D01*
X106762778Y-131462991D01*
X106733448Y-131498729D01*
X106650186Y-131600186D01*
X106548729Y-131683448D01*
X106512991Y-131712778D01*
X106356466Y-131796443D01*
X106186627Y-131847963D01*
X106120443Y-131854481D01*
X106054260Y-131861000D01*
X105965740Y-131861000D01*
X105899557Y-131854481D01*
X105833373Y-131847963D01*
X105663534Y-131796443D01*
X105507009Y-131712778D01*
X105471271Y-131683448D01*
X105369814Y-131600186D01*
X105286552Y-131498729D01*
X105257222Y-131462991D01*
X105173557Y-131306466D01*
X105122037Y-131136627D01*
X105104641Y-130960000D01*
X105122037Y-130783373D01*
X105173557Y-130613534D01*
X105257222Y-130457009D01*
X105286552Y-130421271D01*
X105369814Y-130319814D01*
X105471271Y-130236552D01*
X105507009Y-130207222D01*
X105663534Y-130123557D01*
X105833373Y-130072037D01*
X105899557Y-130065519D01*
X105965740Y-130059000D01*
X106054260Y-130059000D01*
X106120443Y-130065519D01*
X106120443Y-130065519D01*
G37*
G36*
X141690527Y-127583557D02*
G01*
X141776627Y-127592037D01*
X141946466Y-127643557D01*
X142102991Y-127727222D01*
X142138729Y-127756552D01*
X142240186Y-127839814D01*
X142303537Y-127917009D01*
X142352778Y-127977009D01*
X142436443Y-128133534D01*
X142487963Y-128303373D01*
X142505359Y-128480000D01*
X142487963Y-128656627D01*
X142436443Y-128826466D01*
X142352778Y-128982991D01*
X142323448Y-129018729D01*
X142240186Y-129120186D01*
X142138729Y-129203448D01*
X142102991Y-129232778D01*
X141946466Y-129316443D01*
X141776627Y-129367963D01*
X141710442Y-129374482D01*
X141644260Y-129381000D01*
X141555740Y-129381000D01*
X141489558Y-129374482D01*
X141423373Y-129367963D01*
X141253534Y-129316443D01*
X141097009Y-129232778D01*
X141061271Y-129203448D01*
X140959814Y-129120186D01*
X140876552Y-129018729D01*
X140847222Y-128982991D01*
X140763557Y-128826466D01*
X140712037Y-128656627D01*
X140694641Y-128480000D01*
X140712037Y-128303373D01*
X140763557Y-128133534D01*
X140847222Y-127977009D01*
X140896463Y-127917009D01*
X140959814Y-127839814D01*
X141061271Y-127756552D01*
X141097009Y-127727222D01*
X141253534Y-127643557D01*
X141423373Y-127592037D01*
X141509473Y-127583557D01*
X141555740Y-127579000D01*
X141644260Y-127579000D01*
X141690527Y-127583557D01*
X141690527Y-127583557D01*
G37*
G36*
X139150527Y-127583557D02*
G01*
X139236627Y-127592037D01*
X139406466Y-127643557D01*
X139562991Y-127727222D01*
X139598729Y-127756552D01*
X139700186Y-127839814D01*
X139763537Y-127917009D01*
X139812778Y-127977009D01*
X139896443Y-128133534D01*
X139947963Y-128303373D01*
X139965359Y-128480000D01*
X139947963Y-128656627D01*
X139896443Y-128826466D01*
X139812778Y-128982991D01*
X139783448Y-129018729D01*
X139700186Y-129120186D01*
X139598729Y-129203448D01*
X139562991Y-129232778D01*
X139406466Y-129316443D01*
X139236627Y-129367963D01*
X139170442Y-129374482D01*
X139104260Y-129381000D01*
X139015740Y-129381000D01*
X138949558Y-129374482D01*
X138883373Y-129367963D01*
X138713534Y-129316443D01*
X138557009Y-129232778D01*
X138521271Y-129203448D01*
X138419814Y-129120186D01*
X138336552Y-129018729D01*
X138307222Y-128982991D01*
X138223557Y-128826466D01*
X138172037Y-128656627D01*
X138154641Y-128480000D01*
X138172037Y-128303373D01*
X138223557Y-128133534D01*
X138307222Y-127977009D01*
X138356463Y-127917009D01*
X138419814Y-127839814D01*
X138521271Y-127756552D01*
X138557009Y-127727222D01*
X138713534Y-127643557D01*
X138883373Y-127592037D01*
X138969473Y-127583557D01*
X139015740Y-127579000D01*
X139104260Y-127579000D01*
X139150527Y-127583557D01*
X139150527Y-127583557D01*
G37*
G36*
X106120443Y-127525519D02*
G01*
X106186627Y-127532037D01*
X106356466Y-127583557D01*
X106512991Y-127667222D01*
X106548729Y-127696552D01*
X106650186Y-127779814D01*
X106733448Y-127881271D01*
X106762778Y-127917009D01*
X106846443Y-128073534D01*
X106897963Y-128243373D01*
X106915359Y-128420000D01*
X106897963Y-128596627D01*
X106846443Y-128766466D01*
X106762778Y-128922991D01*
X106733448Y-128958729D01*
X106650186Y-129060186D01*
X106548729Y-129143448D01*
X106512991Y-129172778D01*
X106356466Y-129256443D01*
X106186627Y-129307963D01*
X106120443Y-129314481D01*
X106054260Y-129321000D01*
X105965740Y-129321000D01*
X105899557Y-129314481D01*
X105833373Y-129307963D01*
X105663534Y-129256443D01*
X105507009Y-129172778D01*
X105471271Y-129143448D01*
X105369814Y-129060186D01*
X105286552Y-128958729D01*
X105257222Y-128922991D01*
X105173557Y-128766466D01*
X105122037Y-128596627D01*
X105104641Y-128420000D01*
X105122037Y-128243373D01*
X105173557Y-128073534D01*
X105257222Y-127917009D01*
X105286552Y-127881271D01*
X105369814Y-127779814D01*
X105471271Y-127696552D01*
X105507009Y-127667222D01*
X105663534Y-127583557D01*
X105833373Y-127532037D01*
X105899557Y-127525519D01*
X105965740Y-127519000D01*
X106054260Y-127519000D01*
X106120443Y-127525519D01*
X106120443Y-127525519D01*
G37*
G36*
X103580443Y-127525519D02*
G01*
X103646627Y-127532037D01*
X103816466Y-127583557D01*
X103972991Y-127667222D01*
X104008729Y-127696552D01*
X104110186Y-127779814D01*
X104193448Y-127881271D01*
X104222778Y-127917009D01*
X104306443Y-128073534D01*
X104357963Y-128243373D01*
X104375359Y-128420000D01*
X104357963Y-128596627D01*
X104306443Y-128766466D01*
X104222778Y-128922991D01*
X104193448Y-128958729D01*
X104110186Y-129060186D01*
X104008729Y-129143448D01*
X103972991Y-129172778D01*
X103816466Y-129256443D01*
X103646627Y-129307963D01*
X103580443Y-129314481D01*
X103514260Y-129321000D01*
X103425740Y-129321000D01*
X103359557Y-129314481D01*
X103293373Y-129307963D01*
X103123534Y-129256443D01*
X102967009Y-129172778D01*
X102931271Y-129143448D01*
X102829814Y-129060186D01*
X102746552Y-128958729D01*
X102717222Y-128922991D01*
X102633557Y-128766466D01*
X102582037Y-128596627D01*
X102564641Y-128420000D01*
X102582037Y-128243373D01*
X102633557Y-128073534D01*
X102717222Y-127917009D01*
X102746552Y-127881271D01*
X102829814Y-127779814D01*
X102931271Y-127696552D01*
X102967009Y-127667222D01*
X103123534Y-127583557D01*
X103293373Y-127532037D01*
X103359557Y-127525519D01*
X103425740Y-127519000D01*
X103514260Y-127519000D01*
X103580443Y-127525519D01*
X103580443Y-127525519D01*
G37*
G36*
X124024549Y-124871116D02*
G01*
X124135734Y-124893232D01*
X124345203Y-124979997D01*
X124533720Y-125105960D01*
X124694040Y-125266280D01*
X124820003Y-125454797D01*
X124820004Y-125454799D01*
X124906768Y-125664267D01*
X124951000Y-125886635D01*
X124951000Y-126113365D01*
X124950351Y-126116627D01*
X124906768Y-126335734D01*
X124820003Y-126545203D01*
X124694040Y-126733720D01*
X124533720Y-126894040D01*
X124345203Y-127020003D01*
X124135734Y-127106768D01*
X124024549Y-127128884D01*
X123913365Y-127151000D01*
X123686635Y-127151000D01*
X123575451Y-127128884D01*
X123464266Y-127106768D01*
X123254797Y-127020003D01*
X123066280Y-126894040D01*
X122905960Y-126733720D01*
X122779997Y-126545203D01*
X122693232Y-126335734D01*
X122649649Y-126116627D01*
X122649000Y-126113365D01*
X122649000Y-125886635D01*
X122693232Y-125664267D01*
X122779996Y-125454799D01*
X122779997Y-125454797D01*
X122905960Y-125266280D01*
X123066280Y-125105960D01*
X123254797Y-124979997D01*
X123464266Y-124893232D01*
X123575451Y-124871116D01*
X123686635Y-124849000D01*
X123913365Y-124849000D01*
X124024549Y-124871116D01*
X124024549Y-124871116D01*
G37*
G36*
X139150527Y-125043557D02*
G01*
X139236627Y-125052037D01*
X139406466Y-125103557D01*
X139562991Y-125187222D01*
X139598729Y-125216552D01*
X139700186Y-125299814D01*
X139763537Y-125377009D01*
X139812778Y-125437009D01*
X139896443Y-125593534D01*
X139947963Y-125763373D01*
X139965359Y-125940000D01*
X139947963Y-126116627D01*
X139896443Y-126286466D01*
X139812778Y-126442991D01*
X139783448Y-126478729D01*
X139700186Y-126580186D01*
X139598729Y-126663448D01*
X139562991Y-126692778D01*
X139406466Y-126776443D01*
X139236627Y-126827963D01*
X139170443Y-126834481D01*
X139104260Y-126841000D01*
X139015740Y-126841000D01*
X138949557Y-126834481D01*
X138883373Y-126827963D01*
X138713534Y-126776443D01*
X138557009Y-126692778D01*
X138521271Y-126663448D01*
X138419814Y-126580186D01*
X138336552Y-126478729D01*
X138307222Y-126442991D01*
X138223557Y-126286466D01*
X138172037Y-126116627D01*
X138154641Y-125940000D01*
X138172037Y-125763373D01*
X138223557Y-125593534D01*
X138307222Y-125437009D01*
X138356463Y-125377009D01*
X138419814Y-125299814D01*
X138521271Y-125216552D01*
X138557009Y-125187222D01*
X138713534Y-125103557D01*
X138883373Y-125052037D01*
X138969473Y-125043557D01*
X139015740Y-125039000D01*
X139104260Y-125039000D01*
X139150527Y-125043557D01*
X139150527Y-125043557D01*
G37*
G36*
X141690527Y-125043557D02*
G01*
X141776627Y-125052037D01*
X141946466Y-125103557D01*
X142102991Y-125187222D01*
X142138729Y-125216552D01*
X142240186Y-125299814D01*
X142303537Y-125377009D01*
X142352778Y-125437009D01*
X142436443Y-125593534D01*
X142487963Y-125763373D01*
X142505359Y-125940000D01*
X142487963Y-126116627D01*
X142436443Y-126286466D01*
X142352778Y-126442991D01*
X142323448Y-126478729D01*
X142240186Y-126580186D01*
X142138729Y-126663448D01*
X142102991Y-126692778D01*
X141946466Y-126776443D01*
X141776627Y-126827963D01*
X141710443Y-126834481D01*
X141644260Y-126841000D01*
X141555740Y-126841000D01*
X141489557Y-126834481D01*
X141423373Y-126827963D01*
X141253534Y-126776443D01*
X141097009Y-126692778D01*
X141061271Y-126663448D01*
X140959814Y-126580186D01*
X140876552Y-126478729D01*
X140847222Y-126442991D01*
X140763557Y-126286466D01*
X140712037Y-126116627D01*
X140694641Y-125940000D01*
X140712037Y-125763373D01*
X140763557Y-125593534D01*
X140847222Y-125437009D01*
X140896463Y-125377009D01*
X140959814Y-125299814D01*
X141061271Y-125216552D01*
X141097009Y-125187222D01*
X141253534Y-125103557D01*
X141423373Y-125052037D01*
X141509473Y-125043557D01*
X141555740Y-125039000D01*
X141644260Y-125039000D01*
X141690527Y-125043557D01*
X141690527Y-125043557D01*
G37*
G36*
X103580443Y-124985519D02*
G01*
X103646627Y-124992037D01*
X103816466Y-125043557D01*
X103972991Y-125127222D01*
X104008729Y-125156552D01*
X104110186Y-125239814D01*
X104193448Y-125341271D01*
X104222778Y-125377009D01*
X104306443Y-125533534D01*
X104357963Y-125703373D01*
X104375359Y-125880000D01*
X104357963Y-126056627D01*
X104306443Y-126226466D01*
X104222778Y-126382991D01*
X104193448Y-126418729D01*
X104110186Y-126520186D01*
X104008729Y-126603448D01*
X103972991Y-126632778D01*
X103816466Y-126716443D01*
X103646627Y-126767963D01*
X103580442Y-126774482D01*
X103514260Y-126781000D01*
X103425740Y-126781000D01*
X103359558Y-126774482D01*
X103293373Y-126767963D01*
X103123534Y-126716443D01*
X102967009Y-126632778D01*
X102931271Y-126603448D01*
X102829814Y-126520186D01*
X102746552Y-126418729D01*
X102717222Y-126382991D01*
X102633557Y-126226466D01*
X102582037Y-126056627D01*
X102564641Y-125880000D01*
X102582037Y-125703373D01*
X102633557Y-125533534D01*
X102717222Y-125377009D01*
X102746552Y-125341271D01*
X102829814Y-125239814D01*
X102931271Y-125156552D01*
X102967009Y-125127222D01*
X103123534Y-125043557D01*
X103293373Y-124992037D01*
X103359557Y-124985519D01*
X103425740Y-124979000D01*
X103514260Y-124979000D01*
X103580443Y-124985519D01*
X103580443Y-124985519D01*
G37*
G36*
X106120443Y-124985519D02*
G01*
X106186627Y-124992037D01*
X106356466Y-125043557D01*
X106512991Y-125127222D01*
X106548729Y-125156552D01*
X106650186Y-125239814D01*
X106733448Y-125341271D01*
X106762778Y-125377009D01*
X106846443Y-125533534D01*
X106897963Y-125703373D01*
X106915359Y-125880000D01*
X106897963Y-126056627D01*
X106846443Y-126226466D01*
X106762778Y-126382991D01*
X106733448Y-126418729D01*
X106650186Y-126520186D01*
X106548729Y-126603448D01*
X106512991Y-126632778D01*
X106356466Y-126716443D01*
X106186627Y-126767963D01*
X106120442Y-126774482D01*
X106054260Y-126781000D01*
X105965740Y-126781000D01*
X105899558Y-126774482D01*
X105833373Y-126767963D01*
X105663534Y-126716443D01*
X105507009Y-126632778D01*
X105471271Y-126603448D01*
X105369814Y-126520186D01*
X105286552Y-126418729D01*
X105257222Y-126382991D01*
X105173557Y-126226466D01*
X105122037Y-126056627D01*
X105104641Y-125880000D01*
X105122037Y-125703373D01*
X105173557Y-125533534D01*
X105257222Y-125377009D01*
X105286552Y-125341271D01*
X105369814Y-125239814D01*
X105471271Y-125156552D01*
X105507009Y-125127222D01*
X105663534Y-125043557D01*
X105833373Y-124992037D01*
X105899557Y-124985519D01*
X105965740Y-124979000D01*
X106054260Y-124979000D01*
X106120443Y-124985519D01*
X106120443Y-124985519D01*
G37*
G36*
X139150527Y-122503557D02*
G01*
X139236627Y-122512037D01*
X139406466Y-122563557D01*
X139562991Y-122647222D01*
X139598729Y-122676552D01*
X139700186Y-122759814D01*
X139763537Y-122837009D01*
X139812778Y-122897009D01*
X139896443Y-123053534D01*
X139947963Y-123223373D01*
X139965359Y-123400000D01*
X139947963Y-123576627D01*
X139896443Y-123746466D01*
X139812778Y-123902991D01*
X139783448Y-123938729D01*
X139700186Y-124040186D01*
X139598729Y-124123448D01*
X139562991Y-124152778D01*
X139406466Y-124236443D01*
X139236627Y-124287963D01*
X139170443Y-124294481D01*
X139104260Y-124301000D01*
X139015740Y-124301000D01*
X138949557Y-124294481D01*
X138883373Y-124287963D01*
X138713534Y-124236443D01*
X138557009Y-124152778D01*
X138521271Y-124123448D01*
X138419814Y-124040186D01*
X138336552Y-123938729D01*
X138307222Y-123902991D01*
X138223557Y-123746466D01*
X138172037Y-123576627D01*
X138154641Y-123400000D01*
X138172037Y-123223373D01*
X138223557Y-123053534D01*
X138307222Y-122897009D01*
X138356463Y-122837009D01*
X138419814Y-122759814D01*
X138521271Y-122676552D01*
X138557009Y-122647222D01*
X138713534Y-122563557D01*
X138883373Y-122512037D01*
X138969473Y-122503557D01*
X139015740Y-122499000D01*
X139104260Y-122499000D01*
X139150527Y-122503557D01*
X139150527Y-122503557D01*
G37*
G36*
X141690527Y-122503557D02*
G01*
X141776627Y-122512037D01*
X141946466Y-122563557D01*
X142102991Y-122647222D01*
X142138729Y-122676552D01*
X142240186Y-122759814D01*
X142303537Y-122837009D01*
X142352778Y-122897009D01*
X142436443Y-123053534D01*
X142487963Y-123223373D01*
X142505359Y-123400000D01*
X142487963Y-123576627D01*
X142436443Y-123746466D01*
X142352778Y-123902991D01*
X142323448Y-123938729D01*
X142240186Y-124040186D01*
X142138729Y-124123448D01*
X142102991Y-124152778D01*
X141946466Y-124236443D01*
X141776627Y-124287963D01*
X141710443Y-124294481D01*
X141644260Y-124301000D01*
X141555740Y-124301000D01*
X141489557Y-124294481D01*
X141423373Y-124287963D01*
X141253534Y-124236443D01*
X141097009Y-124152778D01*
X141061271Y-124123448D01*
X140959814Y-124040186D01*
X140876552Y-123938729D01*
X140847222Y-123902991D01*
X140763557Y-123746466D01*
X140712037Y-123576627D01*
X140694641Y-123400000D01*
X140712037Y-123223373D01*
X140763557Y-123053534D01*
X140847222Y-122897009D01*
X140896463Y-122837009D01*
X140959814Y-122759814D01*
X141061271Y-122676552D01*
X141097009Y-122647222D01*
X141253534Y-122563557D01*
X141423373Y-122512037D01*
X141509473Y-122503557D01*
X141555740Y-122499000D01*
X141644260Y-122499000D01*
X141690527Y-122503557D01*
X141690527Y-122503557D01*
G37*
G36*
X103580442Y-122445518D02*
G01*
X103646627Y-122452037D01*
X103816466Y-122503557D01*
X103972991Y-122587222D01*
X104008729Y-122616552D01*
X104110186Y-122699814D01*
X104193448Y-122801271D01*
X104222778Y-122837009D01*
X104306443Y-122993534D01*
X104357963Y-123163373D01*
X104375359Y-123340000D01*
X104357963Y-123516627D01*
X104306443Y-123686466D01*
X104222778Y-123842991D01*
X104193448Y-123878729D01*
X104110186Y-123980186D01*
X104008729Y-124063448D01*
X103972991Y-124092778D01*
X103816466Y-124176443D01*
X103646627Y-124227963D01*
X103580443Y-124234481D01*
X103514260Y-124241000D01*
X103425740Y-124241000D01*
X103359557Y-124234481D01*
X103293373Y-124227963D01*
X103123534Y-124176443D01*
X102967009Y-124092778D01*
X102931271Y-124063448D01*
X102829814Y-123980186D01*
X102746552Y-123878729D01*
X102717222Y-123842991D01*
X102633557Y-123686466D01*
X102582037Y-123516627D01*
X102564641Y-123340000D01*
X102582037Y-123163373D01*
X102633557Y-122993534D01*
X102717222Y-122837009D01*
X102746552Y-122801271D01*
X102829814Y-122699814D01*
X102931271Y-122616552D01*
X102967009Y-122587222D01*
X103123534Y-122503557D01*
X103293373Y-122452037D01*
X103359558Y-122445518D01*
X103425740Y-122439000D01*
X103514260Y-122439000D01*
X103580442Y-122445518D01*
X103580442Y-122445518D01*
G37*
G36*
X106120442Y-122445518D02*
G01*
X106186627Y-122452037D01*
X106356466Y-122503557D01*
X106512991Y-122587222D01*
X106548729Y-122616552D01*
X106650186Y-122699814D01*
X106733448Y-122801271D01*
X106762778Y-122837009D01*
X106846443Y-122993534D01*
X106897963Y-123163373D01*
X106915359Y-123340000D01*
X106897963Y-123516627D01*
X106846443Y-123686466D01*
X106762778Y-123842991D01*
X106733448Y-123878729D01*
X106650186Y-123980186D01*
X106548729Y-124063448D01*
X106512991Y-124092778D01*
X106356466Y-124176443D01*
X106186627Y-124227963D01*
X106120443Y-124234481D01*
X106054260Y-124241000D01*
X105965740Y-124241000D01*
X105899557Y-124234481D01*
X105833373Y-124227963D01*
X105663534Y-124176443D01*
X105507009Y-124092778D01*
X105471271Y-124063448D01*
X105369814Y-123980186D01*
X105286552Y-123878729D01*
X105257222Y-123842991D01*
X105173557Y-123686466D01*
X105122037Y-123516627D01*
X105104641Y-123340000D01*
X105122037Y-123163373D01*
X105173557Y-122993534D01*
X105257222Y-122837009D01*
X105286552Y-122801271D01*
X105369814Y-122699814D01*
X105471271Y-122616552D01*
X105507009Y-122587222D01*
X105663534Y-122503557D01*
X105833373Y-122452037D01*
X105899558Y-122445518D01*
X105965740Y-122439000D01*
X106054260Y-122439000D01*
X106120442Y-122445518D01*
X106120442Y-122445518D01*
G37*
G36*
X141690527Y-119963557D02*
G01*
X141776627Y-119972037D01*
X141946466Y-120023557D01*
X142102991Y-120107222D01*
X142138729Y-120136552D01*
X142240186Y-120219814D01*
X142303537Y-120297009D01*
X142352778Y-120357009D01*
X142436443Y-120513534D01*
X142487963Y-120683373D01*
X142505359Y-120860000D01*
X142487963Y-121036627D01*
X142436443Y-121206466D01*
X142352778Y-121362991D01*
X142323448Y-121398729D01*
X142240186Y-121500186D01*
X142138729Y-121583448D01*
X142102991Y-121612778D01*
X141946466Y-121696443D01*
X141776627Y-121747963D01*
X141710443Y-121754481D01*
X141644260Y-121761000D01*
X141555740Y-121761000D01*
X141489557Y-121754481D01*
X141423373Y-121747963D01*
X141253534Y-121696443D01*
X141097009Y-121612778D01*
X141061271Y-121583448D01*
X140959814Y-121500186D01*
X140876552Y-121398729D01*
X140847222Y-121362991D01*
X140763557Y-121206466D01*
X140712037Y-121036627D01*
X140694641Y-120860000D01*
X140712037Y-120683373D01*
X140763557Y-120513534D01*
X140847222Y-120357009D01*
X140896463Y-120297009D01*
X140959814Y-120219814D01*
X141061271Y-120136552D01*
X141097009Y-120107222D01*
X141253534Y-120023557D01*
X141423373Y-119972037D01*
X141509473Y-119963557D01*
X141555740Y-119959000D01*
X141644260Y-119959000D01*
X141690527Y-119963557D01*
X141690527Y-119963557D01*
G37*
G36*
X139150527Y-119963557D02*
G01*
X139236627Y-119972037D01*
X139406466Y-120023557D01*
X139562991Y-120107222D01*
X139598729Y-120136552D01*
X139700186Y-120219814D01*
X139763537Y-120297009D01*
X139812778Y-120357009D01*
X139896443Y-120513534D01*
X139947963Y-120683373D01*
X139965359Y-120860000D01*
X139947963Y-121036627D01*
X139896443Y-121206466D01*
X139812778Y-121362991D01*
X139783448Y-121398729D01*
X139700186Y-121500186D01*
X139598729Y-121583448D01*
X139562991Y-121612778D01*
X139406466Y-121696443D01*
X139236627Y-121747963D01*
X139170443Y-121754481D01*
X139104260Y-121761000D01*
X139015740Y-121761000D01*
X138949557Y-121754481D01*
X138883373Y-121747963D01*
X138713534Y-121696443D01*
X138557009Y-121612778D01*
X138521271Y-121583448D01*
X138419814Y-121500186D01*
X138336552Y-121398729D01*
X138307222Y-121362991D01*
X138223557Y-121206466D01*
X138172037Y-121036627D01*
X138154641Y-120860000D01*
X138172037Y-120683373D01*
X138223557Y-120513534D01*
X138307222Y-120357009D01*
X138356463Y-120297009D01*
X138419814Y-120219814D01*
X138521271Y-120136552D01*
X138557009Y-120107222D01*
X138713534Y-120023557D01*
X138883373Y-119972037D01*
X138969473Y-119963557D01*
X139015740Y-119959000D01*
X139104260Y-119959000D01*
X139150527Y-119963557D01*
X139150527Y-119963557D01*
G37*
G36*
X103580442Y-119905518D02*
G01*
X103646627Y-119912037D01*
X103816466Y-119963557D01*
X103972991Y-120047222D01*
X104008729Y-120076552D01*
X104110186Y-120159814D01*
X104193448Y-120261271D01*
X104222778Y-120297009D01*
X104306443Y-120453534D01*
X104357963Y-120623373D01*
X104375359Y-120800000D01*
X104357963Y-120976627D01*
X104306443Y-121146466D01*
X104222778Y-121302991D01*
X104193448Y-121338729D01*
X104110186Y-121440186D01*
X104008729Y-121523448D01*
X103972991Y-121552778D01*
X103816466Y-121636443D01*
X103646627Y-121687963D01*
X103580443Y-121694481D01*
X103514260Y-121701000D01*
X103425740Y-121701000D01*
X103359557Y-121694481D01*
X103293373Y-121687963D01*
X103123534Y-121636443D01*
X102967009Y-121552778D01*
X102931271Y-121523448D01*
X102829814Y-121440186D01*
X102746552Y-121338729D01*
X102717222Y-121302991D01*
X102633557Y-121146466D01*
X102582037Y-120976627D01*
X102564641Y-120800000D01*
X102582037Y-120623373D01*
X102633557Y-120453534D01*
X102717222Y-120297009D01*
X102746552Y-120261271D01*
X102829814Y-120159814D01*
X102931271Y-120076552D01*
X102967009Y-120047222D01*
X103123534Y-119963557D01*
X103293373Y-119912037D01*
X103359558Y-119905518D01*
X103425740Y-119899000D01*
X103514260Y-119899000D01*
X103580442Y-119905518D01*
X103580442Y-119905518D01*
G37*
G36*
X106120442Y-119905518D02*
G01*
X106186627Y-119912037D01*
X106356466Y-119963557D01*
X106512991Y-120047222D01*
X106548729Y-120076552D01*
X106650186Y-120159814D01*
X106733448Y-120261271D01*
X106762778Y-120297009D01*
X106846443Y-120453534D01*
X106897963Y-120623373D01*
X106915359Y-120800000D01*
X106897963Y-120976627D01*
X106846443Y-121146466D01*
X106762778Y-121302991D01*
X106733448Y-121338729D01*
X106650186Y-121440186D01*
X106548729Y-121523448D01*
X106512991Y-121552778D01*
X106356466Y-121636443D01*
X106186627Y-121687963D01*
X106120443Y-121694481D01*
X106054260Y-121701000D01*
X105965740Y-121701000D01*
X105899557Y-121694481D01*
X105833373Y-121687963D01*
X105663534Y-121636443D01*
X105507009Y-121552778D01*
X105471271Y-121523448D01*
X105369814Y-121440186D01*
X105286552Y-121338729D01*
X105257222Y-121302991D01*
X105173557Y-121146466D01*
X105122037Y-120976627D01*
X105104641Y-120800000D01*
X105122037Y-120623373D01*
X105173557Y-120453534D01*
X105257222Y-120297009D01*
X105286552Y-120261271D01*
X105369814Y-120159814D01*
X105471271Y-120076552D01*
X105507009Y-120047222D01*
X105663534Y-119963557D01*
X105833373Y-119912037D01*
X105899558Y-119905518D01*
X105965740Y-119899000D01*
X106054260Y-119899000D01*
X106120442Y-119905518D01*
X106120442Y-119905518D01*
G37*
G36*
X139150527Y-117423557D02*
G01*
X139236627Y-117432037D01*
X139406466Y-117483557D01*
X139562991Y-117567222D01*
X139598729Y-117596552D01*
X139700186Y-117679814D01*
X139763537Y-117757009D01*
X139812778Y-117817009D01*
X139896443Y-117973534D01*
X139947963Y-118143373D01*
X139965359Y-118320000D01*
X139947963Y-118496627D01*
X139896443Y-118666466D01*
X139812778Y-118822991D01*
X139783448Y-118858729D01*
X139700186Y-118960186D01*
X139598729Y-119043448D01*
X139562991Y-119072778D01*
X139406466Y-119156443D01*
X139236627Y-119207963D01*
X139170442Y-119214482D01*
X139104260Y-119221000D01*
X139015740Y-119221000D01*
X138949558Y-119214482D01*
X138883373Y-119207963D01*
X138713534Y-119156443D01*
X138557009Y-119072778D01*
X138521271Y-119043448D01*
X138419814Y-118960186D01*
X138336552Y-118858729D01*
X138307222Y-118822991D01*
X138223557Y-118666466D01*
X138172037Y-118496627D01*
X138154641Y-118320000D01*
X138172037Y-118143373D01*
X138223557Y-117973534D01*
X138307222Y-117817009D01*
X138356463Y-117757009D01*
X138419814Y-117679814D01*
X138521271Y-117596552D01*
X138557009Y-117567222D01*
X138713534Y-117483557D01*
X138883373Y-117432037D01*
X138969473Y-117423557D01*
X139015740Y-117419000D01*
X139104260Y-117419000D01*
X139150527Y-117423557D01*
X139150527Y-117423557D01*
G37*
G36*
X141690527Y-117423557D02*
G01*
X141776627Y-117432037D01*
X141946466Y-117483557D01*
X142102991Y-117567222D01*
X142138729Y-117596552D01*
X142240186Y-117679814D01*
X142303537Y-117757009D01*
X142352778Y-117817009D01*
X142436443Y-117973534D01*
X142487963Y-118143373D01*
X142505359Y-118320000D01*
X142487963Y-118496627D01*
X142436443Y-118666466D01*
X142352778Y-118822991D01*
X142323448Y-118858729D01*
X142240186Y-118960186D01*
X142138729Y-119043448D01*
X142102991Y-119072778D01*
X141946466Y-119156443D01*
X141776627Y-119207963D01*
X141710442Y-119214482D01*
X141644260Y-119221000D01*
X141555740Y-119221000D01*
X141489558Y-119214482D01*
X141423373Y-119207963D01*
X141253534Y-119156443D01*
X141097009Y-119072778D01*
X141061271Y-119043448D01*
X140959814Y-118960186D01*
X140876552Y-118858729D01*
X140847222Y-118822991D01*
X140763557Y-118666466D01*
X140712037Y-118496627D01*
X140694641Y-118320000D01*
X140712037Y-118143373D01*
X140763557Y-117973534D01*
X140847222Y-117817009D01*
X140896463Y-117757009D01*
X140959814Y-117679814D01*
X141061271Y-117596552D01*
X141097009Y-117567222D01*
X141253534Y-117483557D01*
X141423373Y-117432037D01*
X141509473Y-117423557D01*
X141555740Y-117419000D01*
X141644260Y-117419000D01*
X141690527Y-117423557D01*
X141690527Y-117423557D01*
G37*
G36*
X106120442Y-117365518D02*
G01*
X106186627Y-117372037D01*
X106356466Y-117423557D01*
X106512991Y-117507222D01*
X106548729Y-117536552D01*
X106650186Y-117619814D01*
X106733448Y-117721271D01*
X106762778Y-117757009D01*
X106846443Y-117913534D01*
X106897963Y-118083373D01*
X106915359Y-118260000D01*
X106897963Y-118436627D01*
X106846443Y-118606466D01*
X106762778Y-118762991D01*
X106733448Y-118798729D01*
X106650186Y-118900186D01*
X106548729Y-118983448D01*
X106512991Y-119012778D01*
X106356466Y-119096443D01*
X106186627Y-119147963D01*
X106120442Y-119154482D01*
X106054260Y-119161000D01*
X105965740Y-119161000D01*
X105899558Y-119154482D01*
X105833373Y-119147963D01*
X105663534Y-119096443D01*
X105507009Y-119012778D01*
X105471271Y-118983448D01*
X105369814Y-118900186D01*
X105286552Y-118798729D01*
X105257222Y-118762991D01*
X105173557Y-118606466D01*
X105122037Y-118436627D01*
X105104641Y-118260000D01*
X105122037Y-118083373D01*
X105173557Y-117913534D01*
X105257222Y-117757009D01*
X105286552Y-117721271D01*
X105369814Y-117619814D01*
X105471271Y-117536552D01*
X105507009Y-117507222D01*
X105663534Y-117423557D01*
X105833373Y-117372037D01*
X105899558Y-117365518D01*
X105965740Y-117359000D01*
X106054260Y-117359000D01*
X106120442Y-117365518D01*
X106120442Y-117365518D01*
G37*
G36*
X103580442Y-117365518D02*
G01*
X103646627Y-117372037D01*
X103816466Y-117423557D01*
X103972991Y-117507222D01*
X104008729Y-117536552D01*
X104110186Y-117619814D01*
X104193448Y-117721271D01*
X104222778Y-117757009D01*
X104306443Y-117913534D01*
X104357963Y-118083373D01*
X104375359Y-118260000D01*
X104357963Y-118436627D01*
X104306443Y-118606466D01*
X104222778Y-118762991D01*
X104193448Y-118798729D01*
X104110186Y-118900186D01*
X104008729Y-118983448D01*
X103972991Y-119012778D01*
X103816466Y-119096443D01*
X103646627Y-119147963D01*
X103580442Y-119154482D01*
X103514260Y-119161000D01*
X103425740Y-119161000D01*
X103359558Y-119154482D01*
X103293373Y-119147963D01*
X103123534Y-119096443D01*
X102967009Y-119012778D01*
X102931271Y-118983448D01*
X102829814Y-118900186D01*
X102746552Y-118798729D01*
X102717222Y-118762991D01*
X102633557Y-118606466D01*
X102582037Y-118436627D01*
X102564641Y-118260000D01*
X102582037Y-118083373D01*
X102633557Y-117913534D01*
X102717222Y-117757009D01*
X102746552Y-117721271D01*
X102829814Y-117619814D01*
X102931271Y-117536552D01*
X102967009Y-117507222D01*
X103123534Y-117423557D01*
X103293373Y-117372037D01*
X103359558Y-117365518D01*
X103425740Y-117359000D01*
X103514260Y-117359000D01*
X103580442Y-117365518D01*
X103580442Y-117365518D01*
G37*
G36*
X139150527Y-114883557D02*
G01*
X139236627Y-114892037D01*
X139406466Y-114943557D01*
X139562991Y-115027222D01*
X139598729Y-115056552D01*
X139700186Y-115139814D01*
X139763537Y-115217009D01*
X139812778Y-115277009D01*
X139896443Y-115433534D01*
X139947963Y-115603373D01*
X139965359Y-115780000D01*
X139947963Y-115956627D01*
X139896443Y-116126466D01*
X139812778Y-116282991D01*
X139783448Y-116318729D01*
X139700186Y-116420186D01*
X139598729Y-116503448D01*
X139562991Y-116532778D01*
X139406466Y-116616443D01*
X139236627Y-116667963D01*
X139170443Y-116674481D01*
X139104260Y-116681000D01*
X139015740Y-116681000D01*
X138949557Y-116674481D01*
X138883373Y-116667963D01*
X138713534Y-116616443D01*
X138557009Y-116532778D01*
X138521271Y-116503448D01*
X138419814Y-116420186D01*
X138336552Y-116318729D01*
X138307222Y-116282991D01*
X138223557Y-116126466D01*
X138172037Y-115956627D01*
X138154641Y-115780000D01*
X138172037Y-115603373D01*
X138223557Y-115433534D01*
X138307222Y-115277009D01*
X138356463Y-115217009D01*
X138419814Y-115139814D01*
X138521271Y-115056552D01*
X138557009Y-115027222D01*
X138713534Y-114943557D01*
X138883373Y-114892037D01*
X138969473Y-114883557D01*
X139015740Y-114879000D01*
X139104260Y-114879000D01*
X139150527Y-114883557D01*
X139150527Y-114883557D01*
G37*
G36*
X141690527Y-114883557D02*
G01*
X141776627Y-114892037D01*
X141946466Y-114943557D01*
X142102991Y-115027222D01*
X142138729Y-115056552D01*
X142240186Y-115139814D01*
X142303537Y-115217009D01*
X142352778Y-115277009D01*
X142436443Y-115433534D01*
X142487963Y-115603373D01*
X142505359Y-115780000D01*
X142487963Y-115956627D01*
X142436443Y-116126466D01*
X142352778Y-116282991D01*
X142323448Y-116318729D01*
X142240186Y-116420186D01*
X142138729Y-116503448D01*
X142102991Y-116532778D01*
X141946466Y-116616443D01*
X141776627Y-116667963D01*
X141710443Y-116674481D01*
X141644260Y-116681000D01*
X141555740Y-116681000D01*
X141489557Y-116674481D01*
X141423373Y-116667963D01*
X141253534Y-116616443D01*
X141097009Y-116532778D01*
X141061271Y-116503448D01*
X140959814Y-116420186D01*
X140876552Y-116318729D01*
X140847222Y-116282991D01*
X140763557Y-116126466D01*
X140712037Y-115956627D01*
X140694641Y-115780000D01*
X140712037Y-115603373D01*
X140763557Y-115433534D01*
X140847222Y-115277009D01*
X140896463Y-115217009D01*
X140959814Y-115139814D01*
X141061271Y-115056552D01*
X141097009Y-115027222D01*
X141253534Y-114943557D01*
X141423373Y-114892037D01*
X141509473Y-114883557D01*
X141555740Y-114879000D01*
X141644260Y-114879000D01*
X141690527Y-114883557D01*
X141690527Y-114883557D01*
G37*
G36*
X103580443Y-114825519D02*
G01*
X103646627Y-114832037D01*
X103816466Y-114883557D01*
X103972991Y-114967222D01*
X104008729Y-114996552D01*
X104110186Y-115079814D01*
X104193448Y-115181271D01*
X104222778Y-115217009D01*
X104306443Y-115373534D01*
X104357963Y-115543373D01*
X104375359Y-115720000D01*
X104357963Y-115896627D01*
X104306443Y-116066466D01*
X104222778Y-116222991D01*
X104193448Y-116258729D01*
X104110186Y-116360186D01*
X104008729Y-116443448D01*
X103972991Y-116472778D01*
X103816466Y-116556443D01*
X103646627Y-116607963D01*
X103580442Y-116614482D01*
X103514260Y-116621000D01*
X103425740Y-116621000D01*
X103359558Y-116614482D01*
X103293373Y-116607963D01*
X103123534Y-116556443D01*
X102967009Y-116472778D01*
X102931271Y-116443448D01*
X102829814Y-116360186D01*
X102746552Y-116258729D01*
X102717222Y-116222991D01*
X102633557Y-116066466D01*
X102582037Y-115896627D01*
X102564641Y-115720000D01*
X102582037Y-115543373D01*
X102633557Y-115373534D01*
X102717222Y-115217009D01*
X102746552Y-115181271D01*
X102829814Y-115079814D01*
X102931271Y-114996552D01*
X102967009Y-114967222D01*
X103123534Y-114883557D01*
X103293373Y-114832037D01*
X103359557Y-114825519D01*
X103425740Y-114819000D01*
X103514260Y-114819000D01*
X103580443Y-114825519D01*
X103580443Y-114825519D01*
G37*
G36*
X106120443Y-114825519D02*
G01*
X106186627Y-114832037D01*
X106356466Y-114883557D01*
X106512991Y-114967222D01*
X106548729Y-114996552D01*
X106650186Y-115079814D01*
X106733448Y-115181271D01*
X106762778Y-115217009D01*
X106846443Y-115373534D01*
X106897963Y-115543373D01*
X106915359Y-115720000D01*
X106897963Y-115896627D01*
X106846443Y-116066466D01*
X106762778Y-116222991D01*
X106733448Y-116258729D01*
X106650186Y-116360186D01*
X106548729Y-116443448D01*
X106512991Y-116472778D01*
X106356466Y-116556443D01*
X106186627Y-116607963D01*
X106120442Y-116614482D01*
X106054260Y-116621000D01*
X105965740Y-116621000D01*
X105899558Y-116614482D01*
X105833373Y-116607963D01*
X105663534Y-116556443D01*
X105507009Y-116472778D01*
X105471271Y-116443448D01*
X105369814Y-116360186D01*
X105286552Y-116258729D01*
X105257222Y-116222991D01*
X105173557Y-116066466D01*
X105122037Y-115896627D01*
X105104641Y-115720000D01*
X105122037Y-115543373D01*
X105173557Y-115373534D01*
X105257222Y-115217009D01*
X105286552Y-115181271D01*
X105369814Y-115079814D01*
X105471271Y-114996552D01*
X105507009Y-114967222D01*
X105663534Y-114883557D01*
X105833373Y-114832037D01*
X105899557Y-114825519D01*
X105965740Y-114819000D01*
X106054260Y-114819000D01*
X106120443Y-114825519D01*
X106120443Y-114825519D01*
G37*
G36*
X104168843Y-109842292D02*
G01*
X104219588Y-109863311D01*
X104255470Y-109878174D01*
X104333432Y-109930267D01*
X104399733Y-109996568D01*
X104451826Y-110074530D01*
X104451826Y-110074531D01*
X104487708Y-110161157D01*
X104506000Y-110253117D01*
X104506000Y-110346883D01*
X104487708Y-110438843D01*
X104466689Y-110489588D01*
X104451826Y-110525470D01*
X104399733Y-110603432D01*
X104333432Y-110669733D01*
X104255470Y-110721826D01*
X104219588Y-110736689D01*
X104168843Y-110757708D01*
X104076883Y-110776000D01*
X103983117Y-110776000D01*
X103891157Y-110757708D01*
X103840412Y-110736689D01*
X103804530Y-110721826D01*
X103726568Y-110669733D01*
X103660267Y-110603432D01*
X103608174Y-110525470D01*
X103593311Y-110489588D01*
X103572292Y-110438843D01*
X103554000Y-110346883D01*
X103554000Y-110253117D01*
X103572292Y-110161157D01*
X103608174Y-110074531D01*
X103608174Y-110074530D01*
X103660267Y-109996568D01*
X103726568Y-109930267D01*
X103804530Y-109878174D01*
X103840412Y-109863311D01*
X103891157Y-109842292D01*
X103983117Y-109824000D01*
X104076883Y-109824000D01*
X104168843Y-109842292D01*
X104168843Y-109842292D01*
G37*
G36*
X143372383Y-106962489D02*
G01*
X143372386Y-106962490D01*
X143372385Y-106962490D01*
X143436258Y-106988946D01*
X143493748Y-107027360D01*
X143542640Y-107076252D01*
X143581054Y-107133742D01*
X143602624Y-107185818D01*
X143607511Y-107197617D01*
X143621000Y-107265430D01*
X143621000Y-107334570D01*
X143607511Y-107402383D01*
X143607510Y-107402385D01*
X143581054Y-107466258D01*
X143542640Y-107523748D01*
X143493748Y-107572640D01*
X143436258Y-107611054D01*
X143384182Y-107632624D01*
X143372383Y-107637511D01*
X143304570Y-107651000D01*
X143235430Y-107651000D01*
X143167617Y-107637511D01*
X143155818Y-107632624D01*
X143103742Y-107611054D01*
X143046252Y-107572640D01*
X142997360Y-107523748D01*
X142958946Y-107466258D01*
X142932490Y-107402385D01*
X142932489Y-107402383D01*
X142919000Y-107334570D01*
X142919000Y-107265430D01*
X142932489Y-107197617D01*
X142937376Y-107185818D01*
X142958946Y-107133742D01*
X142997360Y-107076252D01*
X143046252Y-107027360D01*
X143103742Y-106988946D01*
X143167615Y-106962490D01*
X143167614Y-106962490D01*
X143167617Y-106962489D01*
X143235430Y-106949000D01*
X143304570Y-106949000D01*
X143372383Y-106962489D01*
X143372383Y-106962489D01*
G37*
G36*
X143372383Y-105262489D02*
G01*
X143372386Y-105262490D01*
X143372385Y-105262490D01*
X143436258Y-105288946D01*
X143493748Y-105327360D01*
X143542640Y-105376252D01*
X143581054Y-105433742D01*
X143602624Y-105485818D01*
X143607511Y-105497617D01*
X143621000Y-105565430D01*
X143621000Y-105634570D01*
X143607511Y-105702383D01*
X143607510Y-105702385D01*
X143581054Y-105766258D01*
X143542640Y-105823748D01*
X143493748Y-105872640D01*
X143436258Y-105911054D01*
X143384182Y-105932624D01*
X143372383Y-105937511D01*
X143304570Y-105951000D01*
X143235430Y-105951000D01*
X143167617Y-105937511D01*
X143155818Y-105932624D01*
X143103742Y-105911054D01*
X143046252Y-105872640D01*
X142997360Y-105823748D01*
X142958946Y-105766258D01*
X142932490Y-105702385D01*
X142932489Y-105702383D01*
X142919000Y-105634570D01*
X142919000Y-105565430D01*
X142932489Y-105497617D01*
X142937376Y-105485818D01*
X142958946Y-105433742D01*
X142997360Y-105376252D01*
X143046252Y-105327360D01*
X143103742Y-105288946D01*
X143167615Y-105262490D01*
X143167614Y-105262490D01*
X143167617Y-105262489D01*
X143235430Y-105249000D01*
X143304570Y-105249000D01*
X143372383Y-105262489D01*
X143372383Y-105262489D01*
G37*
G36*
X120248410Y-101225525D02*
G01*
X120333426Y-101251314D01*
X120411775Y-101293193D01*
X120480449Y-101349551D01*
X120536807Y-101418225D01*
X120578686Y-101496574D01*
X120604475Y-101581590D01*
X120613182Y-101670000D01*
X120604475Y-101758410D01*
X120578686Y-101843426D01*
X120536807Y-101921775D01*
X120480449Y-101990449D01*
X120411775Y-102046807D01*
X120333426Y-102088686D01*
X120248410Y-102114475D01*
X120182158Y-102121000D01*
X120137842Y-102121000D01*
X120071590Y-102114475D01*
X119986574Y-102088686D01*
X119908225Y-102046807D01*
X119848572Y-101997851D01*
X119828198Y-101984238D01*
X119805559Y-101974860D01*
X119781526Y-101970080D01*
X119757022Y-101970080D01*
X119732988Y-101974861D01*
X119710350Y-101984238D01*
X119689975Y-101997852D01*
X119672648Y-102015179D01*
X119659035Y-102035553D01*
X119649657Y-102058192D01*
X119644877Y-102082225D01*
X119644877Y-102106729D01*
X119649658Y-102130763D01*
X119653159Y-102139216D01*
X119699772Y-102292879D01*
X119711000Y-102406882D01*
X119711000Y-103033118D01*
X119699772Y-103147121D01*
X119655398Y-103293402D01*
X119583345Y-103428204D01*
X119486369Y-103546369D01*
X119368204Y-103643345D01*
X119233402Y-103715398D01*
X119087121Y-103759772D01*
X118935000Y-103774754D01*
X118782880Y-103759772D01*
X118636599Y-103715398D01*
X118501797Y-103643345D01*
X118383632Y-103546369D01*
X118286657Y-103428206D01*
X118214601Y-103293400D01*
X118170228Y-103147121D01*
X118159000Y-103033118D01*
X118159000Y-102406883D01*
X118170228Y-102292880D01*
X118214602Y-102146599D01*
X118286657Y-102011794D01*
X118383628Y-101893633D01*
X118501796Y-101796655D01*
X118636598Y-101724602D01*
X118782879Y-101680228D01*
X118935000Y-101665246D01*
X119087120Y-101680228D01*
X119233401Y-101724602D01*
X119368206Y-101796657D01*
X119486369Y-101893630D01*
X119516303Y-101930105D01*
X119533630Y-101947432D01*
X119554004Y-101961046D01*
X119576643Y-101970423D01*
X119600676Y-101975204D01*
X119625180Y-101975204D01*
X119649213Y-101970424D01*
X119671852Y-101961047D01*
X119692227Y-101947433D01*
X119709554Y-101930106D01*
X119723168Y-101909732D01*
X119732545Y-101887093D01*
X119737326Y-101863060D01*
X119737326Y-101838556D01*
X119732546Y-101814523D01*
X119715525Y-101758412D01*
X119706818Y-101670000D01*
X119715525Y-101581590D01*
X119741314Y-101496574D01*
X119783193Y-101418225D01*
X119839551Y-101349551D01*
X119908225Y-101293193D01*
X119986574Y-101251314D01*
X120071590Y-101225525D01*
X120137842Y-101219000D01*
X120182158Y-101219000D01*
X120248410Y-101225525D01*
X120248410Y-101225525D01*
G37*
G36*
X125248410Y-101225525D02*
G01*
X125333426Y-101251314D01*
X125411775Y-101293193D01*
X125480449Y-101349551D01*
X125536807Y-101418225D01*
X125578686Y-101496574D01*
X125604475Y-101581590D01*
X125613182Y-101670000D01*
X125604475Y-101758412D01*
X125587454Y-101814523D01*
X125582674Y-101838556D01*
X125582674Y-101863060D01*
X125587455Y-101887093D01*
X125596832Y-101909732D01*
X125610446Y-101930106D01*
X125627773Y-101947433D01*
X125648148Y-101961047D01*
X125670787Y-101970424D01*
X125694820Y-101975204D01*
X125719324Y-101975204D01*
X125743357Y-101970423D01*
X125765996Y-101961046D01*
X125786370Y-101947432D01*
X125803697Y-101930105D01*
X125833629Y-101893633D01*
X125833633Y-101893630D01*
X125951792Y-101796658D01*
X125951793Y-101796657D01*
X125951796Y-101796655D01*
X126086598Y-101724602D01*
X126232879Y-101680228D01*
X126385000Y-101665246D01*
X126537120Y-101680228D01*
X126683401Y-101724602D01*
X126818206Y-101796657D01*
X126936367Y-101893628D01*
X126966436Y-101930267D01*
X127021902Y-101997852D01*
X127033345Y-102011796D01*
X127105398Y-102146598D01*
X127149772Y-102292879D01*
X127161000Y-102406882D01*
X127161000Y-103033118D01*
X127149772Y-103147121D01*
X127105398Y-103293402D01*
X127033345Y-103428204D01*
X126936369Y-103546369D01*
X126818204Y-103643345D01*
X126683402Y-103715398D01*
X126537121Y-103759772D01*
X126385000Y-103774754D01*
X126232880Y-103759772D01*
X126086599Y-103715398D01*
X125951797Y-103643345D01*
X125833632Y-103546369D01*
X125736657Y-103428206D01*
X125664601Y-103293400D01*
X125620228Y-103147121D01*
X125609000Y-103033118D01*
X125609000Y-102406883D01*
X125620228Y-102292880D01*
X125666842Y-102139216D01*
X125670348Y-102130748D01*
X125675125Y-102106714D01*
X125675123Y-102082210D01*
X125670340Y-102058177D01*
X125660960Y-102035540D01*
X125647344Y-102015167D01*
X125630015Y-101997842D01*
X125609639Y-101984230D01*
X125586999Y-101974855D01*
X125562965Y-101970078D01*
X125538461Y-101970080D01*
X125514428Y-101974863D01*
X125491791Y-101984243D01*
X125471429Y-101997850D01*
X125411775Y-102046807D01*
X125333426Y-102088686D01*
X125248410Y-102114475D01*
X125182158Y-102121000D01*
X125137842Y-102121000D01*
X125071590Y-102114475D01*
X124986574Y-102088686D01*
X124908225Y-102046807D01*
X124839551Y-101990449D01*
X124783193Y-101921775D01*
X124741314Y-101843426D01*
X124715525Y-101758410D01*
X124706818Y-101670000D01*
X124715525Y-101581590D01*
X124741314Y-101496574D01*
X124783193Y-101418225D01*
X124839551Y-101349551D01*
X124908225Y-101293193D01*
X124986574Y-101251314D01*
X125071590Y-101225525D01*
X125137842Y-101219000D01*
X125182158Y-101219000D01*
X125248410Y-101225525D01*
X125248410Y-101225525D01*
G37*
G36*
X104168843Y-101842292D02*
G01*
X104218981Y-101863060D01*
X104255470Y-101878174D01*
X104333432Y-101930267D01*
X104399733Y-101996568D01*
X104451826Y-102074530D01*
X104451826Y-102074531D01*
X104487708Y-102161157D01*
X104506000Y-102253117D01*
X104506000Y-102346883D01*
X104487708Y-102438843D01*
X104466689Y-102489588D01*
X104451826Y-102525470D01*
X104399733Y-102603432D01*
X104333432Y-102669733D01*
X104255470Y-102721826D01*
X104219588Y-102736689D01*
X104168843Y-102757708D01*
X104076883Y-102776000D01*
X103983117Y-102776000D01*
X103891157Y-102757708D01*
X103840412Y-102736689D01*
X103804530Y-102721826D01*
X103726568Y-102669733D01*
X103660267Y-102603432D01*
X103608174Y-102525470D01*
X103593311Y-102489588D01*
X103572292Y-102438843D01*
X103554000Y-102346883D01*
X103554000Y-102253117D01*
X103572292Y-102161157D01*
X103608174Y-102074531D01*
X103608174Y-102074530D01*
X103660267Y-101996568D01*
X103726568Y-101930267D01*
X103804530Y-101878174D01*
X103841019Y-101863060D01*
X103891157Y-101842292D01*
X103983117Y-101824000D01*
X104076883Y-101824000D01*
X104168843Y-101842292D01*
X104168843Y-101842292D01*
G37*
G36*
X129520442Y-99655518D02*
G01*
X129586627Y-99662037D01*
X129756466Y-99713557D01*
X129912991Y-99797222D01*
X129948234Y-99826145D01*
X130050186Y-99909814D01*
X130133448Y-100011271D01*
X130162778Y-100047009D01*
X130246443Y-100203534D01*
X130297963Y-100373373D01*
X130315359Y-100550000D01*
X130297963Y-100726627D01*
X130246443Y-100896466D01*
X130162778Y-101052991D01*
X130133448Y-101088729D01*
X130050186Y-101190186D01*
X129975700Y-101251314D01*
X129912991Y-101302778D01*
X129756466Y-101386443D01*
X129586627Y-101437963D01*
X129520443Y-101444481D01*
X129454260Y-101451000D01*
X129365740Y-101451000D01*
X129299557Y-101444481D01*
X129233373Y-101437963D01*
X129063534Y-101386443D01*
X128907009Y-101302778D01*
X128844300Y-101251314D01*
X128769814Y-101190186D01*
X128686552Y-101088729D01*
X128657222Y-101052991D01*
X128573557Y-100896466D01*
X128522037Y-100726627D01*
X128504641Y-100550000D01*
X128522037Y-100373373D01*
X128573557Y-100203534D01*
X128657222Y-100047009D01*
X128686552Y-100011271D01*
X128769814Y-99909814D01*
X128871766Y-99826145D01*
X128907009Y-99797222D01*
X129063534Y-99713557D01*
X129233373Y-99662037D01*
X129299557Y-99655519D01*
X129365740Y-99649000D01*
X129454260Y-99649000D01*
X129520442Y-99655518D01*
X129520442Y-99655518D01*
G37*
G36*
X137931000Y-101451000D02*
G01*
X136129000Y-101451000D01*
X136129000Y-99649000D01*
X137931000Y-99649000D01*
X137931000Y-101451000D01*
X137931000Y-101451000D01*
G37*
G36*
X132060442Y-99655518D02*
G01*
X132126627Y-99662037D01*
X132296466Y-99713557D01*
X132452991Y-99797222D01*
X132488234Y-99826145D01*
X132590186Y-99909814D01*
X132673448Y-100011271D01*
X132702778Y-100047009D01*
X132786443Y-100203534D01*
X132837963Y-100373373D01*
X132855359Y-100550000D01*
X132837963Y-100726627D01*
X132786443Y-100896466D01*
X132702778Y-101052991D01*
X132673448Y-101088729D01*
X132590186Y-101190186D01*
X132515700Y-101251314D01*
X132452991Y-101302778D01*
X132296466Y-101386443D01*
X132126627Y-101437963D01*
X132060443Y-101444481D01*
X131994260Y-101451000D01*
X131905740Y-101451000D01*
X131839557Y-101444481D01*
X131773373Y-101437963D01*
X131603534Y-101386443D01*
X131447009Y-101302778D01*
X131384300Y-101251314D01*
X131309814Y-101190186D01*
X131226552Y-101088729D01*
X131197222Y-101052991D01*
X131113557Y-100896466D01*
X131062037Y-100726627D01*
X131044641Y-100550000D01*
X131062037Y-100373373D01*
X131113557Y-100203534D01*
X131197222Y-100047009D01*
X131226552Y-100011271D01*
X131309814Y-99909814D01*
X131411766Y-99826145D01*
X131447009Y-99797222D01*
X131603534Y-99713557D01*
X131773373Y-99662037D01*
X131839557Y-99655519D01*
X131905740Y-99649000D01*
X131994260Y-99649000D01*
X132060442Y-99655518D01*
X132060442Y-99655518D01*
G37*
G36*
X134600442Y-99655518D02*
G01*
X134666627Y-99662037D01*
X134836466Y-99713557D01*
X134992991Y-99797222D01*
X135028234Y-99826145D01*
X135130186Y-99909814D01*
X135213448Y-100011271D01*
X135242778Y-100047009D01*
X135326443Y-100203534D01*
X135377963Y-100373373D01*
X135395359Y-100550000D01*
X135377963Y-100726627D01*
X135326443Y-100896466D01*
X135242778Y-101052991D01*
X135213448Y-101088729D01*
X135130186Y-101190186D01*
X135055700Y-101251314D01*
X134992991Y-101302778D01*
X134836466Y-101386443D01*
X134666627Y-101437963D01*
X134600443Y-101444481D01*
X134534260Y-101451000D01*
X134445740Y-101451000D01*
X134379557Y-101444481D01*
X134313373Y-101437963D01*
X134143534Y-101386443D01*
X133987009Y-101302778D01*
X133924300Y-101251314D01*
X133849814Y-101190186D01*
X133766552Y-101088729D01*
X133737222Y-101052991D01*
X133653557Y-100896466D01*
X133602037Y-100726627D01*
X133584641Y-100550000D01*
X133602037Y-100373373D01*
X133653557Y-100203534D01*
X133737222Y-100047009D01*
X133766552Y-100011271D01*
X133849814Y-99909814D01*
X133951766Y-99826145D01*
X133987009Y-99797222D01*
X134143534Y-99713557D01*
X134313373Y-99662037D01*
X134379557Y-99655519D01*
X134445740Y-99649000D01*
X134534260Y-99649000D01*
X134600442Y-99655518D01*
X134600442Y-99655518D01*
G37*
G36*
X143392383Y-100302489D02*
G01*
X143392386Y-100302490D01*
X143392385Y-100302490D01*
X143456258Y-100328946D01*
X143513748Y-100367360D01*
X143562640Y-100416252D01*
X143601054Y-100473742D01*
X143622624Y-100525818D01*
X143627511Y-100537617D01*
X143641000Y-100605430D01*
X143641000Y-100674570D01*
X143627511Y-100742383D01*
X143627510Y-100742385D01*
X143601054Y-100806258D01*
X143562640Y-100863748D01*
X143513748Y-100912640D01*
X143456258Y-100951054D01*
X143404182Y-100972624D01*
X143392383Y-100977511D01*
X143324570Y-100991000D01*
X143255430Y-100991000D01*
X143187617Y-100977511D01*
X143175818Y-100972624D01*
X143123742Y-100951054D01*
X143066252Y-100912640D01*
X143017360Y-100863748D01*
X142978946Y-100806258D01*
X142952490Y-100742385D01*
X142952489Y-100742383D01*
X142939000Y-100674570D01*
X142939000Y-100605430D01*
X142952489Y-100537617D01*
X142957376Y-100525818D01*
X142978946Y-100473742D01*
X143017360Y-100416252D01*
X143066252Y-100367360D01*
X143123742Y-100328946D01*
X143187615Y-100302490D01*
X143187614Y-100302490D01*
X143187617Y-100302489D01*
X143255430Y-100289000D01*
X143324570Y-100289000D01*
X143392383Y-100302489D01*
X143392383Y-100302489D01*
G37*
G36*
X126657714Y-97978058D02*
G01*
X126775721Y-98013855D01*
X126884468Y-98071981D01*
X126979790Y-98150210D01*
X127058019Y-98245532D01*
X127116145Y-98354278D01*
X127151942Y-98472285D01*
X127161000Y-98564254D01*
X127161000Y-99275746D01*
X127151942Y-99367715D01*
X127116145Y-99485722D01*
X127058019Y-99594468D01*
X126979790Y-99689790D01*
X126884468Y-99768019D01*
X126775722Y-99826145D01*
X126657715Y-99861942D01*
X126535000Y-99874028D01*
X126412286Y-99861942D01*
X126294279Y-99826145D01*
X126185533Y-99768019D01*
X126090211Y-99689790D01*
X126011982Y-99594468D01*
X125953855Y-99485721D01*
X125918058Y-99367715D01*
X125909000Y-99275746D01*
X125909000Y-98564255D01*
X125918058Y-98472286D01*
X125953855Y-98354279D01*
X126011981Y-98245532D01*
X126090210Y-98150210D01*
X126185532Y-98071981D01*
X126294278Y-98013855D01*
X126412285Y-97978058D01*
X126535000Y-97965972D01*
X126657714Y-97978058D01*
X126657714Y-97978058D01*
G37*
G36*
X118907714Y-97978058D02*
G01*
X119025721Y-98013855D01*
X119134468Y-98071981D01*
X119229790Y-98150210D01*
X119308019Y-98245532D01*
X119366145Y-98354278D01*
X119401942Y-98472285D01*
X119411000Y-98564254D01*
X119411000Y-99275746D01*
X119401942Y-99367715D01*
X119366145Y-99485722D01*
X119308019Y-99594468D01*
X119229790Y-99689790D01*
X119134468Y-99768019D01*
X119025722Y-99826145D01*
X118907715Y-99861942D01*
X118785000Y-99874028D01*
X118662286Y-99861942D01*
X118544279Y-99826145D01*
X118435533Y-99768019D01*
X118340211Y-99689790D01*
X118261982Y-99594468D01*
X118203855Y-99485721D01*
X118168058Y-99367715D01*
X118159000Y-99275746D01*
X118159000Y-98564255D01*
X118168058Y-98472286D01*
X118203855Y-98354279D01*
X118261981Y-98245532D01*
X118340210Y-98150210D01*
X118435532Y-98071981D01*
X118544278Y-98013855D01*
X118662285Y-97978058D01*
X118785000Y-97965972D01*
X118907714Y-97978058D01*
X118907714Y-97978058D01*
G37*
G36*
X143392383Y-98602489D02*
G01*
X143392386Y-98602490D01*
X143392385Y-98602490D01*
X143456258Y-98628946D01*
X143513748Y-98667360D01*
X143562640Y-98716252D01*
X143601054Y-98773742D01*
X143622624Y-98825818D01*
X143627511Y-98837617D01*
X143641000Y-98905430D01*
X143641000Y-98974570D01*
X143627511Y-99042383D01*
X143627510Y-99042385D01*
X143601054Y-99106258D01*
X143562640Y-99163748D01*
X143513748Y-99212640D01*
X143456258Y-99251054D01*
X143404182Y-99272624D01*
X143392383Y-99277511D01*
X143324570Y-99291000D01*
X143255430Y-99291000D01*
X143187617Y-99277511D01*
X143175818Y-99272624D01*
X143123742Y-99251054D01*
X143066252Y-99212640D01*
X143017360Y-99163748D01*
X142978946Y-99106258D01*
X142952490Y-99042385D01*
X142952489Y-99042383D01*
X142939000Y-98974570D01*
X142939000Y-98905430D01*
X142952489Y-98837617D01*
X142957376Y-98825818D01*
X142978946Y-98773742D01*
X143017360Y-98716252D01*
X143066252Y-98667360D01*
X143123742Y-98628946D01*
X143187615Y-98602490D01*
X143187614Y-98602490D01*
X143187617Y-98602489D01*
X143255430Y-98589000D01*
X143324570Y-98589000D01*
X143392383Y-98602489D01*
X143392383Y-98602489D01*
G37*
M02*
