M48
; DRILL file {KiCad (5.1.4)-1} date 2019/12/8 2:00:32
; FORMAT={-:-/ absolute / metric / decimal}
; #@! TF.CreationDate,2019-12-08T02:00:32+08:00
; #@! TF.GenerationSoftware,Kicad,Pcbnew,(5.1.4)-1
; #@! TF.FileFunction,Plated,1,2,PTH
FMAT,2
METRIC
T1C0.400
T2C0.550
T3C0.850
T4C1.000
%
G90
G05
T1
X104.14Y-167.64
X106.68Y-167.64
X106.68Y-170.18
X108.32Y-110.8
X109.22Y-167.64
X109.22Y-170.18
X109.26Y-115.87
X110.306Y-118.604
X110.525Y-112.375
X111.7Y-115.6
X111.76Y-167.64
X112.775Y-117.37
X112.91Y-108.29
X113.175Y-116.38
X114.225Y-116.38
X114.3Y-167.64
X115.74Y-117.17
X115.94Y-142.18
X116.17Y-106.74
X116.383Y-143.517
X116.57Y-102.51
X116.84Y-167.64
X116.88Y-169.12
X117.052Y-142.398
X117.91Y-140.62
X118.884Y-140.701
X119.505Y-133.21
X119.818Y-154.628
X119.915Y-131.2
X120.457Y-132.903
X120.83Y-155.56
X120.98Y-114.45
X120.98Y-123.15
X120.98Y-126.34
X120.98Y-127.43
X120.99Y-124.21
X121.52Y-131.685
X121.98Y-133.88
X122.687Y-113.651
X122.7Y-130.3
X123.46Y-156.69
X123.737Y-113.651
X123.74Y-116.05
X124.46Y-138.78
X124.49Y-137.71
X125.09Y-116.05
X125.56Y-139.95
X125.62Y-138.93
X125.66Y-157.62
X125.95Y-122.1
X126.12Y-158.97
X126.523Y-163.92
X126.65Y-140.02
X127.0Y-104.14
X127.0Y-106.68
X127.0Y-109.22
X127.0Y-111.76
X127.01Y-153.23
X127.31Y-123.38
X127.57Y-140.58
X127.71Y-159.07
X127.73Y-161.04
X127.86Y-164.62
X127.91Y-119.7
X128.62Y-123.42
X129.04Y-153.64
X129.15Y-155.45
X129.32Y-118.32
X129.495Y-117.11
X129.54Y-104.14
X129.54Y-106.68
X129.54Y-109.22
X129.54Y-114.3
X130.01Y-156.18
X131.74Y-165.86
X131.75Y-166.93
X131.995Y-150.192
X132.008Y-163.4
X132.08Y-111.76
X132.08Y-114.3
X133.72Y-171.24
X133.93Y-135.822
X134.23Y-172.916
X134.42Y-141.99
X134.511Y-171.82
X134.62Y-104.14
X134.62Y-106.68
X134.62Y-109.22
X134.62Y-111.76
X134.62Y-114.3
X135.16Y-173.53
X136.42Y-136.66
X136.66Y-153.11
X136.81Y-170.84
X137.81Y-170.51
X138.44Y-171.71
X138.65Y-169.03
X139.0Y-113.02
X143.06Y-167.66
X151.14Y-167.64
X153.68Y-167.64
X153.68Y-170.18
X155.32Y-110.8
X156.22Y-167.64
X156.22Y-170.18
X156.26Y-115.87
X157.306Y-118.604
X157.525Y-112.375
X158.7Y-115.6
X158.76Y-167.64
X159.775Y-117.37
X159.91Y-108.29
X160.175Y-116.38
X161.225Y-116.38
X161.3Y-167.64
X162.74Y-117.17
X162.94Y-142.18
X163.17Y-106.74
X163.383Y-143.517
X163.57Y-102.51
X163.84Y-167.64
X163.88Y-169.12
X164.052Y-142.398
X164.91Y-140.62
X165.884Y-140.701
X166.505Y-133.21
X166.818Y-154.628
X166.915Y-131.2
X167.457Y-132.903
X167.83Y-155.56
X167.98Y-114.45
X167.98Y-123.15
X167.98Y-126.34
X167.98Y-127.43
X167.99Y-124.21
X168.52Y-131.685
X168.98Y-133.88
X169.687Y-113.651
X169.7Y-130.3
X170.46Y-156.69
X170.737Y-113.651
X170.74Y-116.05
X171.46Y-138.78
X171.49Y-137.71
X172.09Y-116.05
X172.56Y-139.95
X172.62Y-138.93
X172.66Y-157.62
X172.95Y-122.1
X173.12Y-158.97
X173.523Y-163.92
X173.65Y-140.02
X174.0Y-104.14
X174.0Y-106.68
X174.0Y-109.22
X174.0Y-111.76
X174.01Y-153.23
X174.31Y-123.38
X174.57Y-140.58
X174.71Y-159.07
X174.73Y-161.04
X174.86Y-164.62
X174.91Y-119.7
X175.62Y-123.42
X176.04Y-153.64
X176.15Y-155.45
X176.32Y-118.32
X176.495Y-117.11
X176.54Y-104.14
X176.54Y-106.68
X176.54Y-109.22
X176.54Y-114.3
X177.01Y-156.18
X178.74Y-165.86
X178.75Y-166.93
X178.995Y-150.192
X179.008Y-163.4
X179.08Y-111.76
X179.08Y-114.3
X180.72Y-171.24
X180.93Y-135.822
X181.23Y-172.916
X181.42Y-141.99
X181.511Y-171.82
X181.62Y-104.14
X181.62Y-106.68
X181.62Y-109.22
X181.62Y-111.76
X181.62Y-114.3
X182.16Y-173.53
X183.42Y-136.66
X183.66Y-153.11
X183.81Y-170.84
X184.81Y-170.51
X185.44Y-171.71
X185.65Y-169.03
X186.0Y-113.02
X190.06Y-167.66
T4
X176.41Y-100.55
X178.95Y-100.55
X181.49Y-100.55
X184.03Y-100.55
X139.06Y-115.78
X139.06Y-118.32
X139.06Y-120.86
X139.06Y-123.4
X139.06Y-125.94
X139.06Y-128.48
X139.06Y-131.02
X139.06Y-133.56
X139.06Y-136.1
X139.06Y-138.64
X139.06Y-141.18
X139.06Y-143.72
X139.06Y-146.26
X139.06Y-148.8
X139.06Y-151.34
X139.06Y-153.88
X139.06Y-156.42
X139.06Y-158.96
X139.06Y-161.5
X139.06Y-164.04
X141.6Y-115.78
X141.6Y-118.32
X141.6Y-120.86
X141.6Y-123.4
X141.6Y-125.94
X141.6Y-128.48
X141.6Y-131.02
X141.6Y-133.56
X141.6Y-136.1
X141.6Y-138.64
X141.6Y-141.18
X141.6Y-143.72
X141.6Y-146.26
X141.6Y-148.8
X141.6Y-151.34
X141.6Y-153.88
X141.6Y-156.42
X141.6Y-158.96
X141.6Y-161.5
X141.6Y-164.04
X129.41Y-100.55
X131.95Y-100.55
X134.49Y-100.55
X137.03Y-100.55
X103.47Y-115.72
X103.47Y-118.26
X103.47Y-120.8
X103.47Y-123.34
X103.47Y-125.88
X103.47Y-128.42
X103.47Y-130.96
X103.47Y-133.5
X103.47Y-136.04
X103.47Y-138.58
X103.47Y-141.12
X103.47Y-143.66
X103.47Y-146.2
X103.47Y-148.74
X103.47Y-151.28
X103.47Y-153.82
X103.47Y-156.36
X103.47Y-158.9
X103.47Y-161.44
X103.47Y-163.98
X106.01Y-115.72
X106.01Y-118.26
X106.01Y-120.8
X106.01Y-123.34
X106.01Y-125.88
X106.01Y-128.42
X106.01Y-130.96
X106.01Y-133.5
X106.01Y-136.04
X106.01Y-138.58
X106.01Y-141.12
X106.01Y-143.66
X106.01Y-146.2
X106.01Y-148.74
X106.01Y-151.28
X106.01Y-153.82
X106.01Y-156.36
X106.01Y-158.9
X106.01Y-161.44
X106.01Y-163.98
X150.47Y-115.72
X150.47Y-118.26
X150.47Y-120.8
X150.47Y-123.34
X150.47Y-125.88
X150.47Y-128.42
X150.47Y-130.96
X150.47Y-133.5
X150.47Y-136.04
X150.47Y-138.58
X150.47Y-141.12
X150.47Y-143.66
X150.47Y-146.2
X150.47Y-148.74
X150.47Y-151.28
X150.47Y-153.82
X150.47Y-156.36
X150.47Y-158.9
X150.47Y-161.44
X150.47Y-163.98
X153.01Y-115.72
X153.01Y-118.26
X153.01Y-120.8
X153.01Y-123.34
X153.01Y-125.88
X153.01Y-128.42
X153.01Y-130.96
X153.01Y-133.5
X153.01Y-136.04
X153.01Y-138.58
X153.01Y-141.12
X153.01Y-143.66
X153.01Y-146.2
X153.01Y-148.74
X153.01Y-151.28
X153.01Y-153.82
X153.01Y-156.36
X153.01Y-158.9
X153.01Y-161.44
X153.01Y-163.98
X103.44Y-174.63
X103.44Y-177.17
X105.98Y-174.63
X105.98Y-177.17
X108.52Y-174.63
X108.52Y-177.17
X111.06Y-174.63
X111.06Y-177.17
X113.6Y-174.63
X113.6Y-177.17
X116.14Y-174.63
X116.14Y-177.17
X118.68Y-174.63
X118.68Y-177.17
X121.22Y-174.63
X121.22Y-177.17
X123.76Y-174.63
X123.76Y-177.17
X126.3Y-174.63
X126.3Y-177.17
X128.84Y-174.63
X128.84Y-177.17
X131.38Y-174.63
X131.38Y-177.17
X133.92Y-174.63
X133.92Y-177.17
X136.46Y-174.63
X136.46Y-177.17
X139.0Y-174.63
X139.0Y-177.17
X141.54Y-174.63
X141.54Y-177.17
X186.06Y-115.78
X186.06Y-118.32
X186.06Y-120.86
X186.06Y-123.4
X186.06Y-125.94
X186.06Y-128.48
X186.06Y-131.02
X186.06Y-133.56
X186.06Y-136.1
X186.06Y-138.64
X186.06Y-141.18
X186.06Y-143.72
X186.06Y-146.26
X186.06Y-148.8
X186.06Y-151.34
X186.06Y-153.88
X186.06Y-156.42
X186.06Y-158.96
X186.06Y-161.5
X186.06Y-164.04
X188.6Y-115.78
X188.6Y-118.32
X188.6Y-120.86
X188.6Y-123.4
X188.6Y-125.94
X188.6Y-128.48
X188.6Y-131.02
X188.6Y-133.56
X188.6Y-136.1
X188.6Y-138.64
X188.6Y-141.18
X188.6Y-143.72
X188.6Y-146.26
X188.6Y-148.8
X188.6Y-151.34
X188.6Y-153.88
X188.6Y-156.42
X188.6Y-158.96
X188.6Y-161.5
X188.6Y-164.04
X150.44Y-174.63
X150.44Y-177.17
X152.98Y-174.63
X152.98Y-177.17
X155.52Y-174.63
X155.52Y-177.17
X158.06Y-174.63
X158.06Y-177.17
X160.6Y-174.63
X160.6Y-177.17
X163.14Y-174.63
X163.14Y-177.17
X165.68Y-174.63
X165.68Y-177.17
X168.22Y-174.63
X168.22Y-177.17
X170.76Y-174.63
X170.76Y-177.17
X173.3Y-174.63
X173.3Y-177.17
X175.84Y-174.63
X175.84Y-177.17
X178.38Y-174.63
X178.38Y-177.17
X180.92Y-174.63
X180.92Y-177.17
X183.46Y-174.63
X183.46Y-177.17
X186.0Y-174.63
X186.0Y-177.17
X188.54Y-174.63
X188.54Y-177.17
T2
G00X118.785Y-98.595
M15
G01X118.785Y-99.245
M16
G05
G00X126.535Y-98.595
M15
G01X126.535Y-99.245
M16
G05
G00X165.785Y-98.595
M15
G01X165.785Y-99.245
M16
G05
G00X173.535Y-98.595
M15
G01X173.535Y-99.245
M16
G05
T3
G00X118.935Y-102.445
M15
G01X118.935Y-102.995
M16
G05
G00X126.385Y-102.445
M15
G01X126.385Y-102.995
M16
G05
G00X165.935Y-102.445
M15
G01X165.935Y-102.995
M16
G05
G00X173.385Y-102.445
M15
G01X173.385Y-102.995
M16
G05
T0
M30
