G04 #@! TF.GenerationSoftware,KiCad,Pcbnew,(5.1.4)-1*
G04 #@! TF.CreationDate,2019-12-08T02:00:35+08:00*
G04 #@! TF.ProjectId,STM32F407VTE6-SOCKET_1x2,53544d33-3246-4343-9037-565445362d53,rev?*
G04 #@! TF.SameCoordinates,Original*
G04 #@! TF.FileFunction,Legend,Bot*
G04 #@! TF.FilePolarity,Positive*
%FSLAX46Y46*%
G04 Gerber Fmt 4.6, Leading zero omitted, Abs format (unit mm)*
G04 Created by KiCad (PCBNEW (5.1.4)-1) date 2019-12-08 02:00:35*
%MOMM*%
%LPD*%
G04 APERTURE LIST*
%ADD10C,0.150000*%
%ADD11C,0.120000*%
%ADD12C,0.200000*%
G04 APERTURE END LIST*
D10*
X134045238Y-107281904D02*
X133997619Y-107139047D01*
X133997619Y-106900952D01*
X134045238Y-106805714D01*
X134092857Y-106758095D01*
X134188095Y-106710476D01*
X134283333Y-106710476D01*
X134378571Y-106758095D01*
X134426190Y-106805714D01*
X134473809Y-106900952D01*
X134521428Y-107091428D01*
X134569047Y-107186666D01*
X134616666Y-107234285D01*
X134711904Y-107281904D01*
X134807142Y-107281904D01*
X134902380Y-107234285D01*
X134950000Y-107186666D01*
X134997619Y-107091428D01*
X134997619Y-106853333D01*
X134950000Y-106710476D01*
X134997619Y-106377142D02*
X133997619Y-106139047D01*
X134711904Y-105948571D01*
X133997619Y-105758095D01*
X134997619Y-105520000D01*
X134092857Y-104567619D02*
X134045238Y-104615238D01*
X133997619Y-104758095D01*
X133997619Y-104853333D01*
X134045238Y-104996190D01*
X134140476Y-105091428D01*
X134235714Y-105139047D01*
X134426190Y-105186666D01*
X134569047Y-105186666D01*
X134759523Y-105139047D01*
X134854761Y-105091428D01*
X134950000Y-104996190D01*
X134997619Y-104853333D01*
X134997619Y-104758095D01*
X134950000Y-104615238D01*
X134902380Y-104567619D01*
X133997619Y-103662857D02*
X133997619Y-104139047D01*
X134997619Y-104139047D01*
X133997619Y-103329523D02*
X134997619Y-103329523D01*
X133997619Y-102758095D02*
X134569047Y-103186666D01*
X134997619Y-102758095D02*
X134426190Y-103329523D01*
X129298571Y-106305714D02*
X129298571Y-105543809D01*
X128917619Y-105924761D02*
X129679523Y-105924761D01*
X129917619Y-104591428D02*
X129917619Y-105067619D01*
X129441428Y-105115238D01*
X129489047Y-105067619D01*
X129536666Y-104972380D01*
X129536666Y-104734285D01*
X129489047Y-104639047D01*
X129441428Y-104591428D01*
X129346190Y-104543809D01*
X129108095Y-104543809D01*
X129012857Y-104591428D01*
X128965238Y-104639047D01*
X128917619Y-104734285D01*
X128917619Y-104972380D01*
X128965238Y-105067619D01*
X129012857Y-105115238D01*
X129917619Y-104258095D02*
X128917619Y-103924761D01*
X129917619Y-103591428D01*
X131505238Y-107139047D02*
X131457619Y-106996190D01*
X131457619Y-106758095D01*
X131505238Y-106662857D01*
X131552857Y-106615238D01*
X131648095Y-106567619D01*
X131743333Y-106567619D01*
X131838571Y-106615238D01*
X131886190Y-106662857D01*
X131933809Y-106758095D01*
X131981428Y-106948571D01*
X132029047Y-107043809D01*
X132076666Y-107091428D01*
X132171904Y-107139047D01*
X132267142Y-107139047D01*
X132362380Y-107091428D01*
X132410000Y-107043809D01*
X132457619Y-106948571D01*
X132457619Y-106710476D01*
X132410000Y-106567619D01*
X132457619Y-106234285D02*
X131457619Y-105996190D01*
X132171904Y-105805714D01*
X131457619Y-105615238D01*
X132457619Y-105377142D01*
X131457619Y-104996190D02*
X132457619Y-104996190D01*
X132457619Y-104758095D01*
X132410000Y-104615238D01*
X132314761Y-104520000D01*
X132219523Y-104472380D01*
X132029047Y-104424761D01*
X131886190Y-104424761D01*
X131695714Y-104472380D01*
X131600476Y-104520000D01*
X131505238Y-104615238D01*
X131457619Y-104758095D01*
X131457619Y-104996190D01*
X131457619Y-103996190D02*
X132457619Y-103996190D01*
X132457619Y-103329523D02*
X132457619Y-103139047D01*
X132410000Y-103043809D01*
X132314761Y-102948571D01*
X132124285Y-102900952D01*
X131790952Y-102900952D01*
X131600476Y-102948571D01*
X131505238Y-103043809D01*
X131457619Y-103139047D01*
X131457619Y-103329523D01*
X131505238Y-103424761D01*
X131600476Y-103520000D01*
X131790952Y-103567619D01*
X132124285Y-103567619D01*
X132314761Y-103520000D01*
X132410000Y-103424761D01*
X132457619Y-103329523D01*
X137490000Y-105781904D02*
X137537619Y-105877142D01*
X137537619Y-106020000D01*
X137490000Y-106162857D01*
X137394761Y-106258095D01*
X137299523Y-106305714D01*
X137109047Y-106353333D01*
X136966190Y-106353333D01*
X136775714Y-106305714D01*
X136680476Y-106258095D01*
X136585238Y-106162857D01*
X136537619Y-106020000D01*
X136537619Y-105924761D01*
X136585238Y-105781904D01*
X136632857Y-105734285D01*
X136966190Y-105734285D01*
X136966190Y-105924761D01*
X136537619Y-105305714D02*
X137537619Y-105305714D01*
X136537619Y-104734285D01*
X137537619Y-104734285D01*
X136537619Y-104258095D02*
X137537619Y-104258095D01*
X137537619Y-104020000D01*
X137490000Y-103877142D01*
X137394761Y-103781904D01*
X137299523Y-103734285D01*
X137109047Y-103686666D01*
X136966190Y-103686666D01*
X136775714Y-103734285D01*
X136680476Y-103781904D01*
X136585238Y-103877142D01*
X136537619Y-104020000D01*
X136537619Y-104258095D01*
X176338571Y-106135714D02*
X176338571Y-105373809D01*
X175957619Y-105754761D02*
X176719523Y-105754761D01*
X176957619Y-104421428D02*
X176957619Y-104897619D01*
X176481428Y-104945238D01*
X176529047Y-104897619D01*
X176576666Y-104802380D01*
X176576666Y-104564285D01*
X176529047Y-104469047D01*
X176481428Y-104421428D01*
X176386190Y-104373809D01*
X176148095Y-104373809D01*
X176052857Y-104421428D01*
X176005238Y-104469047D01*
X175957619Y-104564285D01*
X175957619Y-104802380D01*
X176005238Y-104897619D01*
X176052857Y-104945238D01*
X176957619Y-104088095D02*
X175957619Y-103754761D01*
X176957619Y-103421428D01*
X178545238Y-106969047D02*
X178497619Y-106826190D01*
X178497619Y-106588095D01*
X178545238Y-106492857D01*
X178592857Y-106445238D01*
X178688095Y-106397619D01*
X178783333Y-106397619D01*
X178878571Y-106445238D01*
X178926190Y-106492857D01*
X178973809Y-106588095D01*
X179021428Y-106778571D01*
X179069047Y-106873809D01*
X179116666Y-106921428D01*
X179211904Y-106969047D01*
X179307142Y-106969047D01*
X179402380Y-106921428D01*
X179450000Y-106873809D01*
X179497619Y-106778571D01*
X179497619Y-106540476D01*
X179450000Y-106397619D01*
X179497619Y-106064285D02*
X178497619Y-105826190D01*
X179211904Y-105635714D01*
X178497619Y-105445238D01*
X179497619Y-105207142D01*
X178497619Y-104826190D02*
X179497619Y-104826190D01*
X179497619Y-104588095D01*
X179450000Y-104445238D01*
X179354761Y-104350000D01*
X179259523Y-104302380D01*
X179069047Y-104254761D01*
X178926190Y-104254761D01*
X178735714Y-104302380D01*
X178640476Y-104350000D01*
X178545238Y-104445238D01*
X178497619Y-104588095D01*
X178497619Y-104826190D01*
X178497619Y-103826190D02*
X179497619Y-103826190D01*
X179497619Y-103159523D02*
X179497619Y-102969047D01*
X179450000Y-102873809D01*
X179354761Y-102778571D01*
X179164285Y-102730952D01*
X178830952Y-102730952D01*
X178640476Y-102778571D01*
X178545238Y-102873809D01*
X178497619Y-102969047D01*
X178497619Y-103159523D01*
X178545238Y-103254761D01*
X178640476Y-103350000D01*
X178830952Y-103397619D01*
X179164285Y-103397619D01*
X179354761Y-103350000D01*
X179450000Y-103254761D01*
X179497619Y-103159523D01*
X181085238Y-107111904D02*
X181037619Y-106969047D01*
X181037619Y-106730952D01*
X181085238Y-106635714D01*
X181132857Y-106588095D01*
X181228095Y-106540476D01*
X181323333Y-106540476D01*
X181418571Y-106588095D01*
X181466190Y-106635714D01*
X181513809Y-106730952D01*
X181561428Y-106921428D01*
X181609047Y-107016666D01*
X181656666Y-107064285D01*
X181751904Y-107111904D01*
X181847142Y-107111904D01*
X181942380Y-107064285D01*
X181990000Y-107016666D01*
X182037619Y-106921428D01*
X182037619Y-106683333D01*
X181990000Y-106540476D01*
X182037619Y-106207142D02*
X181037619Y-105969047D01*
X181751904Y-105778571D01*
X181037619Y-105588095D01*
X182037619Y-105350000D01*
X181132857Y-104397619D02*
X181085238Y-104445238D01*
X181037619Y-104588095D01*
X181037619Y-104683333D01*
X181085238Y-104826190D01*
X181180476Y-104921428D01*
X181275714Y-104969047D01*
X181466190Y-105016666D01*
X181609047Y-105016666D01*
X181799523Y-104969047D01*
X181894761Y-104921428D01*
X181990000Y-104826190D01*
X182037619Y-104683333D01*
X182037619Y-104588095D01*
X181990000Y-104445238D01*
X181942380Y-104397619D01*
X181037619Y-103492857D02*
X181037619Y-103969047D01*
X182037619Y-103969047D01*
X181037619Y-103159523D02*
X182037619Y-103159523D01*
X181037619Y-102588095D02*
X181609047Y-103016666D01*
X182037619Y-102588095D02*
X181466190Y-103159523D01*
X184530000Y-105611904D02*
X184577619Y-105707142D01*
X184577619Y-105850000D01*
X184530000Y-105992857D01*
X184434761Y-106088095D01*
X184339523Y-106135714D01*
X184149047Y-106183333D01*
X184006190Y-106183333D01*
X183815714Y-106135714D01*
X183720476Y-106088095D01*
X183625238Y-105992857D01*
X183577619Y-105850000D01*
X183577619Y-105754761D01*
X183625238Y-105611904D01*
X183672857Y-105564285D01*
X184006190Y-105564285D01*
X184006190Y-105754761D01*
X183577619Y-105135714D02*
X184577619Y-105135714D01*
X183577619Y-104564285D01*
X184577619Y-104564285D01*
X183577619Y-104088095D02*
X184577619Y-104088095D01*
X184577619Y-103850000D01*
X184530000Y-103707142D01*
X184434761Y-103611904D01*
X184339523Y-103564285D01*
X184149047Y-103516666D01*
X184006190Y-103516666D01*
X183815714Y-103564285D01*
X183720476Y-103611904D01*
X183625238Y-103707142D01*
X183577619Y-103850000D01*
X183577619Y-104088095D01*
X173233333Y-143112380D02*
X173233333Y-143826666D01*
X173280952Y-143969523D01*
X173376190Y-144064761D01*
X173519047Y-144112380D01*
X173614285Y-144112380D01*
X172280952Y-144112380D02*
X172757142Y-144112380D01*
X172757142Y-143112380D01*
X171376190Y-144017142D02*
X171423809Y-144064761D01*
X171566666Y-144112380D01*
X171661904Y-144112380D01*
X171804761Y-144064761D01*
X171900000Y-143969523D01*
X171947619Y-143874285D01*
X171995238Y-143683809D01*
X171995238Y-143540952D01*
X171947619Y-143350476D01*
X171900000Y-143255238D01*
X171804761Y-143160000D01*
X171661904Y-143112380D01*
X171566666Y-143112380D01*
X171423809Y-143160000D01*
X171376190Y-143207619D01*
X170661904Y-143112380D02*
X170661904Y-143826666D01*
X170709523Y-143969523D01*
X170804761Y-144064761D01*
X170947619Y-144112380D01*
X171042857Y-144112380D01*
X169709523Y-144112380D02*
X170185714Y-144112380D01*
X170185714Y-143112380D01*
X168804761Y-144017142D02*
X168852380Y-144064761D01*
X168995238Y-144112380D01*
X169090476Y-144112380D01*
X169233333Y-144064761D01*
X169328571Y-143969523D01*
X169376190Y-143874285D01*
X169423809Y-143683809D01*
X169423809Y-143540952D01*
X169376190Y-143350476D01*
X169328571Y-143255238D01*
X169233333Y-143160000D01*
X169090476Y-143112380D01*
X168995238Y-143112380D01*
X168852380Y-143160000D01*
X168804761Y-143207619D01*
X168090476Y-143112380D02*
X168090476Y-143826666D01*
X168138095Y-143969523D01*
X168233333Y-144064761D01*
X168376190Y-144112380D01*
X168471428Y-144112380D01*
X167138095Y-144112380D02*
X167614285Y-144112380D01*
X167614285Y-143112380D01*
X166233333Y-144017142D02*
X166280952Y-144064761D01*
X166423809Y-144112380D01*
X166519047Y-144112380D01*
X166661904Y-144064761D01*
X166757142Y-143969523D01*
X166804761Y-143874285D01*
X166852380Y-143683809D01*
X166852380Y-143540952D01*
X166804761Y-143350476D01*
X166757142Y-143255238D01*
X166661904Y-143160000D01*
X166519047Y-143112380D01*
X166423809Y-143112380D01*
X166280952Y-143160000D01*
X166233333Y-143207619D01*
X126233333Y-143112380D02*
X126233333Y-143826666D01*
X126280952Y-143969523D01*
X126376190Y-144064761D01*
X126519047Y-144112380D01*
X126614285Y-144112380D01*
X125280952Y-144112380D02*
X125757142Y-144112380D01*
X125757142Y-143112380D01*
X124376190Y-144017142D02*
X124423809Y-144064761D01*
X124566666Y-144112380D01*
X124661904Y-144112380D01*
X124804761Y-144064761D01*
X124900000Y-143969523D01*
X124947619Y-143874285D01*
X124995238Y-143683809D01*
X124995238Y-143540952D01*
X124947619Y-143350476D01*
X124900000Y-143255238D01*
X124804761Y-143160000D01*
X124661904Y-143112380D01*
X124566666Y-143112380D01*
X124423809Y-143160000D01*
X124376190Y-143207619D01*
X123661904Y-143112380D02*
X123661904Y-143826666D01*
X123709523Y-143969523D01*
X123804761Y-144064761D01*
X123947619Y-144112380D01*
X124042857Y-144112380D01*
X122709523Y-144112380D02*
X123185714Y-144112380D01*
X123185714Y-143112380D01*
X121804761Y-144017142D02*
X121852380Y-144064761D01*
X121995238Y-144112380D01*
X122090476Y-144112380D01*
X122233333Y-144064761D01*
X122328571Y-143969523D01*
X122376190Y-143874285D01*
X122423809Y-143683809D01*
X122423809Y-143540952D01*
X122376190Y-143350476D01*
X122328571Y-143255238D01*
X122233333Y-143160000D01*
X122090476Y-143112380D01*
X121995238Y-143112380D01*
X121852380Y-143160000D01*
X121804761Y-143207619D01*
X121090476Y-143112380D02*
X121090476Y-143826666D01*
X121138095Y-143969523D01*
X121233333Y-144064761D01*
X121376190Y-144112380D01*
X121471428Y-144112380D01*
X120138095Y-144112380D02*
X120614285Y-144112380D01*
X120614285Y-143112380D01*
X119233333Y-144017142D02*
X119280952Y-144064761D01*
X119423809Y-144112380D01*
X119519047Y-144112380D01*
X119661904Y-144064761D01*
X119757142Y-143969523D01*
X119804761Y-143874285D01*
X119852380Y-143683809D01*
X119852380Y-143540952D01*
X119804761Y-143350476D01*
X119757142Y-143255238D01*
X119661904Y-143160000D01*
X119519047Y-143112380D01*
X119423809Y-143112380D01*
X119280952Y-143160000D01*
X119233333Y-143207619D01*
D11*
X160263733Y-164790000D02*
X160606267Y-164790000D01*
X160263733Y-163770000D02*
X160606267Y-163770000D01*
X156438733Y-116350000D02*
X156781267Y-116350000D01*
X156438733Y-115330000D02*
X156781267Y-115330000D01*
X149140000Y-165310000D02*
X150470000Y-165310000D01*
X149140000Y-163980000D02*
X149140000Y-165310000D01*
X151740000Y-165310000D02*
X154340000Y-165310000D01*
X151740000Y-162710000D02*
X151740000Y-165310000D01*
X149140000Y-162710000D02*
X151740000Y-162710000D01*
X154340000Y-165310000D02*
X154340000Y-114390000D01*
X149140000Y-162710000D02*
X149140000Y-114390000D01*
X149140000Y-114390000D02*
X154340000Y-114390000D01*
X184730000Y-114450000D02*
X189930000Y-114450000D01*
X184730000Y-162770000D02*
X184730000Y-114450000D01*
X189930000Y-165370000D02*
X189930000Y-114450000D01*
X184730000Y-162770000D02*
X187330000Y-162770000D01*
X187330000Y-162770000D02*
X187330000Y-165370000D01*
X187330000Y-165370000D02*
X189930000Y-165370000D01*
X184730000Y-164040000D02*
X184730000Y-165370000D01*
X184730000Y-165370000D02*
X186060000Y-165370000D01*
X154985000Y-163290000D02*
X157845000Y-163290000D01*
X154985000Y-165210000D02*
X154985000Y-163290000D01*
X157845000Y-165210000D02*
X154985000Y-165210000D01*
X147030000Y-101800000D02*
X147730000Y-104550000D01*
X147730000Y-112700000D02*
X147730000Y-104550000D01*
X147030000Y-101800000D02*
X147030000Y-98000000D01*
X160530000Y-98000000D02*
X147030000Y-98000000D01*
X161030000Y-112700000D02*
X161030000Y-98160000D01*
X151030000Y-112700000D02*
X161030000Y-112700000D01*
X151030000Y-112700000D02*
X147730000Y-112700000D01*
X170316267Y-132200000D02*
X169973733Y-132200000D01*
X170316267Y-133220000D02*
X169973733Y-133220000D01*
X156433733Y-114080000D02*
X156776267Y-114080000D01*
X156433733Y-113060000D02*
X156776267Y-113060000D01*
X176400000Y-162301267D02*
X176400000Y-161958733D01*
X175380000Y-162301267D02*
X175380000Y-161958733D01*
X172246267Y-123890000D02*
X171903733Y-123890000D01*
X172246267Y-122870000D02*
X171903733Y-122870000D01*
D10*
X171460000Y-103270000D02*
X172460000Y-103270000D01*
X167860000Y-103270000D02*
X166860000Y-103270000D01*
X167860000Y-103695000D02*
X167860000Y-103270000D01*
X168585000Y-103695000D02*
X167860000Y-103695000D01*
X173810000Y-100120000D02*
X173810000Y-101520000D01*
X173810000Y-97570000D02*
X173810000Y-97720000D01*
X173510000Y-97570000D02*
X173810000Y-97570000D01*
X173510000Y-97120000D02*
X173510000Y-97570000D01*
X165810000Y-97570000D02*
X165810000Y-97120000D01*
X165510000Y-97570000D02*
X165810000Y-97570000D01*
X165510000Y-97720000D02*
X165510000Y-97570000D01*
X165510000Y-101520000D02*
X165510000Y-100120000D01*
D11*
X167610000Y-161470000D02*
X167610000Y-167590000D01*
X167610000Y-167590000D02*
X171230000Y-167590000D01*
X171230000Y-167590000D02*
X171230000Y-161470000D01*
X171230000Y-161470000D02*
X167610000Y-161470000D01*
X185360000Y-99110000D02*
X175080000Y-99110000D01*
X175080000Y-99110000D02*
X175080000Y-96450000D01*
X175080000Y-96450000D02*
X185360000Y-96450000D01*
X185360000Y-96450000D02*
X185360000Y-99110000D01*
X184410000Y-96450000D02*
X184410000Y-90450000D01*
X184410000Y-90450000D02*
X183650000Y-90450000D01*
X183650000Y-90450000D02*
X183650000Y-96450000D01*
X184350000Y-96450000D02*
X184350000Y-90450000D01*
X184230000Y-96450000D02*
X184230000Y-90450000D01*
X184110000Y-96450000D02*
X184110000Y-90450000D01*
X183990000Y-96450000D02*
X183990000Y-90450000D01*
X183870000Y-96450000D02*
X183870000Y-90450000D01*
X183750000Y-96450000D02*
X183750000Y-90450000D01*
X184410000Y-99440000D02*
X184410000Y-99110000D01*
X183650000Y-99440000D02*
X183650000Y-99110000D01*
X182760000Y-99110000D02*
X182760000Y-96450000D01*
X181870000Y-96450000D02*
X181870000Y-90450000D01*
X181870000Y-90450000D02*
X181110000Y-90450000D01*
X181110000Y-90450000D02*
X181110000Y-96450000D01*
X181870000Y-99507071D02*
X181870000Y-99110000D01*
X181110000Y-99507071D02*
X181110000Y-99110000D01*
X180220000Y-99110000D02*
X180220000Y-96450000D01*
X179330000Y-96450000D02*
X179330000Y-90450000D01*
X179330000Y-90450000D02*
X178570000Y-90450000D01*
X178570000Y-90450000D02*
X178570000Y-96450000D01*
X179330000Y-99507071D02*
X179330000Y-99110000D01*
X178570000Y-99507071D02*
X178570000Y-99110000D01*
X177680000Y-99110000D02*
X177680000Y-96450000D01*
X176790000Y-96450000D02*
X176790000Y-90450000D01*
X176790000Y-90450000D02*
X176030000Y-90450000D01*
X176030000Y-90450000D02*
X176030000Y-96450000D01*
X176790000Y-99507071D02*
X176790000Y-99110000D01*
X176030000Y-99507071D02*
X176030000Y-99110000D01*
X184030000Y-101820000D02*
X185300000Y-101820000D01*
X185300000Y-101820000D02*
X185300000Y-100550000D01*
X183690000Y-156790000D02*
X177940000Y-156790000D01*
X183690000Y-153190000D02*
X183690000Y-156790000D01*
X177940000Y-153190000D02*
X183690000Y-153190000D01*
X168510000Y-105843733D02*
X168510000Y-106186267D01*
X167490000Y-105843733D02*
X167490000Y-106186267D01*
X158370000Y-143783733D02*
X158370000Y-144126267D01*
X157350000Y-143783733D02*
X157350000Y-144126267D01*
D12*
X187590000Y-102190000D02*
X187590000Y-97390000D01*
X191790000Y-102190000D02*
X191790000Y-97390000D01*
X191840000Y-100540000D02*
X192490000Y-100540000D01*
X192490000Y-100540000D02*
X192490000Y-99240000D01*
X192490000Y-99240000D02*
X192490000Y-99090000D01*
X192490000Y-99090000D02*
X191840000Y-99090000D01*
D11*
X192452132Y-102490000D02*
G75*
G03X192452132Y-102490000I-212132J0D01*
G01*
X169030000Y-105843733D02*
X169030000Y-106186267D01*
X170050000Y-105843733D02*
X170050000Y-106186267D01*
X179490084Y-144724975D02*
X180455284Y-145690176D01*
X179985058Y-144230000D02*
X179490084Y-144724975D01*
X179490084Y-143735025D02*
X179985058Y-144230000D01*
X169930000Y-134174942D02*
X169435025Y-134669916D01*
X170424975Y-134669916D02*
X169930000Y-134174942D01*
X169930000Y-154285058D02*
X170424975Y-153790084D01*
X169435025Y-153790084D02*
X169930000Y-154285058D01*
X159874942Y-144230000D02*
X160369916Y-143735025D01*
X160369916Y-144724975D02*
X159874942Y-144230000D01*
X180795000Y-151195000D02*
X182145000Y-151195000D01*
X180795000Y-149445000D02*
X182145000Y-149445000D01*
X176990000Y-160790000D02*
X176990000Y-166800000D01*
X183810000Y-163040000D02*
X183810000Y-166800000D01*
X176990000Y-166800000D02*
X178250000Y-166800000D01*
X183810000Y-166800000D02*
X182550000Y-166800000D01*
X173590000Y-124600000D02*
X173590000Y-130600000D01*
X168370000Y-127600000D02*
X168370000Y-130600000D01*
X174900000Y-160780000D02*
X174900000Y-159320000D01*
X171740000Y-160780000D02*
X171740000Y-158620000D01*
X171740000Y-160780000D02*
X172670000Y-160780000D01*
X174900000Y-160780000D02*
X173970000Y-160780000D01*
X171620000Y-105853733D02*
X171620000Y-106196267D01*
X170600000Y-105853733D02*
X170600000Y-106196267D01*
X192432132Y-109150000D02*
G75*
G03X192432132Y-109150000I-212132J0D01*
G01*
D12*
X192470000Y-105750000D02*
X191820000Y-105750000D01*
X192470000Y-105900000D02*
X192470000Y-105750000D01*
X192470000Y-107200000D02*
X192470000Y-105900000D01*
X191820000Y-107200000D02*
X192470000Y-107200000D01*
X191770000Y-108850000D02*
X191770000Y-104050000D01*
X187570000Y-108850000D02*
X187570000Y-104050000D01*
D11*
X164430000Y-98930000D02*
X162230000Y-98930000D01*
X164430000Y-102330000D02*
X162230000Y-102330000D01*
X172130000Y-105863733D02*
X172130000Y-106206267D01*
X173150000Y-105863733D02*
X173150000Y-106206267D01*
X138300000Y-101820000D02*
X138300000Y-100550000D01*
X137030000Y-101820000D02*
X138300000Y-101820000D01*
X129030000Y-99507071D02*
X129030000Y-99110000D01*
X129790000Y-99507071D02*
X129790000Y-99110000D01*
X129030000Y-90450000D02*
X129030000Y-96450000D01*
X129790000Y-90450000D02*
X129030000Y-90450000D01*
X129790000Y-96450000D02*
X129790000Y-90450000D01*
X130680000Y-99110000D02*
X130680000Y-96450000D01*
X131570000Y-99507071D02*
X131570000Y-99110000D01*
X132330000Y-99507071D02*
X132330000Y-99110000D01*
X131570000Y-90450000D02*
X131570000Y-96450000D01*
X132330000Y-90450000D02*
X131570000Y-90450000D01*
X132330000Y-96450000D02*
X132330000Y-90450000D01*
X133220000Y-99110000D02*
X133220000Y-96450000D01*
X134110000Y-99507071D02*
X134110000Y-99110000D01*
X134870000Y-99507071D02*
X134870000Y-99110000D01*
X134110000Y-90450000D02*
X134110000Y-96450000D01*
X134870000Y-90450000D02*
X134110000Y-90450000D01*
X134870000Y-96450000D02*
X134870000Y-90450000D01*
X135760000Y-99110000D02*
X135760000Y-96450000D01*
X136650000Y-99440000D02*
X136650000Y-99110000D01*
X137410000Y-99440000D02*
X137410000Y-99110000D01*
X136750000Y-96450000D02*
X136750000Y-90450000D01*
X136870000Y-96450000D02*
X136870000Y-90450000D01*
X136990000Y-96450000D02*
X136990000Y-90450000D01*
X137110000Y-96450000D02*
X137110000Y-90450000D01*
X137230000Y-96450000D02*
X137230000Y-90450000D01*
X137350000Y-96450000D02*
X137350000Y-90450000D01*
X136650000Y-90450000D02*
X136650000Y-96450000D01*
X137410000Y-90450000D02*
X136650000Y-90450000D01*
X137410000Y-96450000D02*
X137410000Y-90450000D01*
X138360000Y-96450000D02*
X138360000Y-99110000D01*
X128080000Y-96450000D02*
X138360000Y-96450000D01*
X128080000Y-99110000D02*
X128080000Y-96450000D01*
X138360000Y-99110000D02*
X128080000Y-99110000D01*
X124230000Y-161470000D02*
X120610000Y-161470000D01*
X124230000Y-167590000D02*
X124230000Y-161470000D01*
X120610000Y-167590000D02*
X124230000Y-167590000D01*
X120610000Y-161470000D02*
X120610000Y-167590000D01*
D10*
X118510000Y-101520000D02*
X118510000Y-100120000D01*
X118510000Y-97720000D02*
X118510000Y-97570000D01*
X118510000Y-97570000D02*
X118810000Y-97570000D01*
X118810000Y-97570000D02*
X118810000Y-97120000D01*
X126510000Y-97120000D02*
X126510000Y-97570000D01*
X126510000Y-97570000D02*
X126810000Y-97570000D01*
X126810000Y-97570000D02*
X126810000Y-97720000D01*
X126810000Y-100120000D02*
X126810000Y-101520000D01*
X121585000Y-103695000D02*
X120860000Y-103695000D01*
X120860000Y-103695000D02*
X120860000Y-103270000D01*
X120860000Y-103270000D02*
X119860000Y-103270000D01*
X124460000Y-103270000D02*
X125460000Y-103270000D01*
D11*
X113263733Y-163770000D02*
X113606267Y-163770000D01*
X113263733Y-164790000D02*
X113606267Y-164790000D01*
X109433733Y-113060000D02*
X109776267Y-113060000D01*
X109433733Y-114080000D02*
X109776267Y-114080000D01*
X123316267Y-133220000D02*
X122973733Y-133220000D01*
X123316267Y-132200000D02*
X122973733Y-132200000D01*
X125246267Y-122870000D02*
X124903733Y-122870000D01*
X125246267Y-123890000D02*
X124903733Y-123890000D01*
X109438733Y-115330000D02*
X109781267Y-115330000D01*
X109438733Y-116350000D02*
X109781267Y-116350000D01*
X128380000Y-162301267D02*
X128380000Y-161958733D01*
X129400000Y-162301267D02*
X129400000Y-161958733D01*
X110845000Y-165210000D02*
X107985000Y-165210000D01*
X107985000Y-165210000D02*
X107985000Y-163290000D01*
X107985000Y-163290000D02*
X110845000Y-163290000D01*
X137730000Y-165370000D02*
X139060000Y-165370000D01*
X137730000Y-164040000D02*
X137730000Y-165370000D01*
X140330000Y-165370000D02*
X142930000Y-165370000D01*
X140330000Y-162770000D02*
X140330000Y-165370000D01*
X137730000Y-162770000D02*
X140330000Y-162770000D01*
X142930000Y-165370000D02*
X142930000Y-114450000D01*
X137730000Y-162770000D02*
X137730000Y-114450000D01*
X137730000Y-114450000D02*
X142930000Y-114450000D01*
X102140000Y-114390000D02*
X107340000Y-114390000D01*
X102140000Y-162710000D02*
X102140000Y-114390000D01*
X107340000Y-165310000D02*
X107340000Y-114390000D01*
X102140000Y-162710000D02*
X104740000Y-162710000D01*
X104740000Y-162710000D02*
X104740000Y-165310000D01*
X104740000Y-165310000D02*
X107340000Y-165310000D01*
X102140000Y-163980000D02*
X102140000Y-165310000D01*
X102140000Y-165310000D02*
X103470000Y-165310000D01*
X104030000Y-112700000D02*
X100730000Y-112700000D01*
X104030000Y-112700000D02*
X114030000Y-112700000D01*
X114030000Y-112700000D02*
X114030000Y-98160000D01*
X113530000Y-98000000D02*
X100030000Y-98000000D01*
X100030000Y-101800000D02*
X100030000Y-98000000D01*
X100730000Y-112700000D02*
X100730000Y-104550000D01*
X100030000Y-101800000D02*
X100730000Y-104550000D01*
X110350000Y-143783733D02*
X110350000Y-144126267D01*
X111370000Y-143783733D02*
X111370000Y-144126267D01*
X120490000Y-105843733D02*
X120490000Y-106186267D01*
X121510000Y-105843733D02*
X121510000Y-106186267D01*
X123600000Y-105853733D02*
X123600000Y-106196267D01*
X124620000Y-105853733D02*
X124620000Y-106196267D01*
X123050000Y-105843733D02*
X123050000Y-106186267D01*
X122030000Y-105843733D02*
X122030000Y-106186267D01*
X126150000Y-105863733D02*
X126150000Y-106206267D01*
X125130000Y-105863733D02*
X125130000Y-106206267D01*
X117430000Y-102330000D02*
X115230000Y-102330000D01*
X117430000Y-98930000D02*
X115230000Y-98930000D01*
X127900000Y-160780000D02*
X126970000Y-160780000D01*
X124740000Y-160780000D02*
X125670000Y-160780000D01*
X124740000Y-160780000D02*
X124740000Y-158620000D01*
X127900000Y-160780000D02*
X127900000Y-159320000D01*
X113369916Y-144724975D02*
X112874942Y-144230000D01*
X112874942Y-144230000D02*
X113369916Y-143735025D01*
X122435025Y-153790084D02*
X122930000Y-154285058D01*
X122930000Y-154285058D02*
X123424975Y-153790084D01*
X123424975Y-134669916D02*
X122930000Y-134174942D01*
X122930000Y-134174942D02*
X122435025Y-134669916D01*
X132490084Y-143735025D02*
X132985058Y-144230000D01*
X132985058Y-144230000D02*
X132490084Y-144724975D01*
X132490084Y-144724975D02*
X133455284Y-145690176D01*
X121370000Y-127600000D02*
X121370000Y-130600000D01*
X126590000Y-124600000D02*
X126590000Y-130600000D01*
X136810000Y-166800000D02*
X135550000Y-166800000D01*
X129990000Y-166800000D02*
X131250000Y-166800000D01*
X136810000Y-163040000D02*
X136810000Y-166800000D01*
X129990000Y-160790000D02*
X129990000Y-166800000D01*
X130940000Y-153190000D02*
X136690000Y-153190000D01*
X136690000Y-153190000D02*
X136690000Y-156790000D01*
X136690000Y-156790000D02*
X130940000Y-156790000D01*
X133795000Y-149445000D02*
X135145000Y-149445000D01*
X133795000Y-151195000D02*
X135145000Y-151195000D01*
X145452132Y-102490000D02*
G75*
G03X145452132Y-102490000I-212132J0D01*
G01*
D12*
X145490000Y-99090000D02*
X144840000Y-99090000D01*
X145490000Y-99240000D02*
X145490000Y-99090000D01*
X145490000Y-100540000D02*
X145490000Y-99240000D01*
X144840000Y-100540000D02*
X145490000Y-100540000D01*
X144790000Y-102190000D02*
X144790000Y-97390000D01*
X140590000Y-102190000D02*
X140590000Y-97390000D01*
X140570000Y-108850000D02*
X140570000Y-104050000D01*
X144770000Y-108850000D02*
X144770000Y-104050000D01*
X144820000Y-107200000D02*
X145470000Y-107200000D01*
X145470000Y-107200000D02*
X145470000Y-105900000D01*
X145470000Y-105900000D02*
X145470000Y-105750000D01*
X145470000Y-105750000D02*
X144820000Y-105750000D01*
D11*
X145432132Y-109150000D02*
G75*
G03X145432132Y-109150000I-212132J0D01*
G01*
D10*
X182507142Y-158893333D02*
X182554761Y-158845714D01*
X182602380Y-158702857D01*
X182602380Y-158607619D01*
X182554761Y-158464761D01*
X182459523Y-158369523D01*
X182364285Y-158321904D01*
X182173809Y-158274285D01*
X182030952Y-158274285D01*
X181840476Y-158321904D01*
X181745238Y-158369523D01*
X181650000Y-158464761D01*
X181602380Y-158607619D01*
X181602380Y-158702857D01*
X181650000Y-158845714D01*
X181697619Y-158893333D01*
X182602380Y-159845714D02*
X182602380Y-159274285D01*
X182602380Y-159560000D02*
X181602380Y-159560000D01*
X181745238Y-159464761D01*
X181840476Y-159369523D01*
X181888095Y-159274285D01*
X161092380Y-166197142D02*
X160616190Y-165863809D01*
X161092380Y-165625714D02*
X160092380Y-165625714D01*
X160092380Y-166006666D01*
X160140000Y-166101904D01*
X160187619Y-166149523D01*
X160282857Y-166197142D01*
X160425714Y-166197142D01*
X160520952Y-166149523D01*
X160568571Y-166101904D01*
X160616190Y-166006666D01*
X160616190Y-165625714D01*
X161092380Y-167149523D02*
X161092380Y-166578095D01*
X161092380Y-166863809D02*
X160092380Y-166863809D01*
X160235238Y-166768571D01*
X160330476Y-166673333D01*
X160378095Y-166578095D01*
X160092380Y-168054285D02*
X160092380Y-167578095D01*
X160568571Y-167530476D01*
X160520952Y-167578095D01*
X160473333Y-167673333D01*
X160473333Y-167911428D01*
X160520952Y-168006666D01*
X160568571Y-168054285D01*
X160663809Y-168101904D01*
X160901904Y-168101904D01*
X160997142Y-168054285D01*
X161044761Y-168006666D01*
X161092380Y-167911428D01*
X161092380Y-167673333D01*
X161044761Y-167578095D01*
X160997142Y-167530476D01*
X176472380Y-151993333D02*
X175996190Y-151660000D01*
X176472380Y-151421904D02*
X175472380Y-151421904D01*
X175472380Y-151802857D01*
X175520000Y-151898095D01*
X175567619Y-151945714D01*
X175662857Y-151993333D01*
X175805714Y-151993333D01*
X175900952Y-151945714D01*
X175948571Y-151898095D01*
X175996190Y-151802857D01*
X175996190Y-151421904D01*
X175472380Y-152850476D02*
X175472380Y-152660000D01*
X175520000Y-152564761D01*
X175567619Y-152517142D01*
X175710476Y-152421904D01*
X175900952Y-152374285D01*
X176281904Y-152374285D01*
X176377142Y-152421904D01*
X176424761Y-152469523D01*
X176472380Y-152564761D01*
X176472380Y-152755238D01*
X176424761Y-152850476D01*
X176377142Y-152898095D01*
X176281904Y-152945714D01*
X176043809Y-152945714D01*
X175948571Y-152898095D01*
X175900952Y-152850476D01*
X175853333Y-152755238D01*
X175853333Y-152564761D01*
X175900952Y-152469523D01*
X175948571Y-152421904D01*
X176043809Y-152374285D01*
X159887142Y-116283333D02*
X159934761Y-116235714D01*
X159982380Y-116092857D01*
X159982380Y-115997619D01*
X159934761Y-115854761D01*
X159839523Y-115759523D01*
X159744285Y-115711904D01*
X159553809Y-115664285D01*
X159410952Y-115664285D01*
X159220476Y-115711904D01*
X159125238Y-115759523D01*
X159030000Y-115854761D01*
X158982380Y-115997619D01*
X158982380Y-116092857D01*
X159030000Y-116235714D01*
X159077619Y-116283333D01*
X159982380Y-116759523D02*
X159982380Y-116950000D01*
X159934761Y-117045238D01*
X159887142Y-117092857D01*
X159744285Y-117188095D01*
X159553809Y-117235714D01*
X159172857Y-117235714D01*
X159077619Y-117188095D01*
X159030000Y-117140476D01*
X158982380Y-117045238D01*
X158982380Y-116854761D01*
X159030000Y-116759523D01*
X159077619Y-116711904D01*
X159172857Y-116664285D01*
X159410952Y-116664285D01*
X159506190Y-116711904D01*
X159553809Y-116759523D01*
X159601428Y-116854761D01*
X159601428Y-117045238D01*
X159553809Y-117140476D01*
X159506190Y-117188095D01*
X159410952Y-117235714D01*
X151012380Y-166126666D02*
X151726666Y-166126666D01*
X151869523Y-166079047D01*
X151964761Y-165983809D01*
X152012380Y-165840952D01*
X152012380Y-165745714D01*
X151012380Y-166507619D02*
X151012380Y-167126666D01*
X151393333Y-166793333D01*
X151393333Y-166936190D01*
X151440952Y-167031428D01*
X151488571Y-167079047D01*
X151583809Y-167126666D01*
X151821904Y-167126666D01*
X151917142Y-167079047D01*
X151964761Y-167031428D01*
X152012380Y-166936190D01*
X152012380Y-166650476D01*
X151964761Y-166555238D01*
X151917142Y-166507619D01*
X187582380Y-166306666D02*
X188296666Y-166306666D01*
X188439523Y-166259047D01*
X188534761Y-166163809D01*
X188582380Y-166020952D01*
X188582380Y-165925714D01*
X187677619Y-166735238D02*
X187630000Y-166782857D01*
X187582380Y-166878095D01*
X187582380Y-167116190D01*
X187630000Y-167211428D01*
X187677619Y-167259047D01*
X187772857Y-167306666D01*
X187868095Y-167306666D01*
X188010952Y-167259047D01*
X188582380Y-166687619D01*
X188582380Y-167306666D01*
X157282380Y-165621904D02*
X156282380Y-165621904D01*
X156282380Y-165860000D01*
X156330000Y-166002857D01*
X156425238Y-166098095D01*
X156520476Y-166145714D01*
X156710952Y-166193333D01*
X156853809Y-166193333D01*
X157044285Y-166145714D01*
X157139523Y-166098095D01*
X157234761Y-166002857D01*
X157282380Y-165860000D01*
X157282380Y-165621904D01*
X157282380Y-167145714D02*
X157282380Y-166574285D01*
X157282380Y-166860000D02*
X156282380Y-166860000D01*
X156425238Y-166764761D01*
X156520476Y-166669523D01*
X156568095Y-166574285D01*
X180927142Y-147923333D02*
X180974761Y-147875714D01*
X181022380Y-147732857D01*
X181022380Y-147637619D01*
X180974761Y-147494761D01*
X180879523Y-147399523D01*
X180784285Y-147351904D01*
X180593809Y-147304285D01*
X180450952Y-147304285D01*
X180260476Y-147351904D01*
X180165238Y-147399523D01*
X180070000Y-147494761D01*
X180022380Y-147637619D01*
X180022380Y-147732857D01*
X180070000Y-147875714D01*
X180117619Y-147923333D01*
X180022380Y-148256666D02*
X180022380Y-148923333D01*
X181022380Y-148494761D01*
X155282380Y-105616666D02*
X155996666Y-105616666D01*
X156139523Y-105569047D01*
X156234761Y-105473809D01*
X156282380Y-105330952D01*
X156282380Y-105235714D01*
X155615714Y-106521428D02*
X156282380Y-106521428D01*
X155234761Y-106283333D02*
X155949047Y-106045238D01*
X155949047Y-106664285D01*
X173367142Y-132593333D02*
X173414761Y-132545714D01*
X173462380Y-132402857D01*
X173462380Y-132307619D01*
X173414761Y-132164761D01*
X173319523Y-132069523D01*
X173224285Y-132021904D01*
X173033809Y-131974285D01*
X172890952Y-131974285D01*
X172700476Y-132021904D01*
X172605238Y-132069523D01*
X172510000Y-132164761D01*
X172462380Y-132307619D01*
X172462380Y-132402857D01*
X172510000Y-132545714D01*
X172557619Y-132593333D01*
X172795714Y-133450476D02*
X173462380Y-133450476D01*
X172414761Y-133212380D02*
X173129047Y-132974285D01*
X173129047Y-133593333D01*
X159882380Y-113457142D02*
X159406190Y-113123809D01*
X159882380Y-112885714D02*
X158882380Y-112885714D01*
X158882380Y-113266666D01*
X158930000Y-113361904D01*
X158977619Y-113409523D01*
X159072857Y-113457142D01*
X159215714Y-113457142D01*
X159310952Y-113409523D01*
X159358571Y-113361904D01*
X159406190Y-113266666D01*
X159406190Y-112885714D01*
X159882380Y-114409523D02*
X159882380Y-113838095D01*
X159882380Y-114123809D02*
X158882380Y-114123809D01*
X159025238Y-114028571D01*
X159120476Y-113933333D01*
X159168095Y-113838095D01*
X159215714Y-115266666D02*
X159882380Y-115266666D01*
X158834761Y-115028571D02*
X159549047Y-114790476D01*
X159549047Y-115409523D01*
X172542380Y-164683333D02*
X172066190Y-164350000D01*
X172542380Y-164111904D02*
X171542380Y-164111904D01*
X171542380Y-164492857D01*
X171590000Y-164588095D01*
X171637619Y-164635714D01*
X171732857Y-164683333D01*
X171875714Y-164683333D01*
X171970952Y-164635714D01*
X172018571Y-164588095D01*
X172066190Y-164492857D01*
X172066190Y-164111904D01*
X171637619Y-165064285D02*
X171590000Y-165111904D01*
X171542380Y-165207142D01*
X171542380Y-165445238D01*
X171590000Y-165540476D01*
X171637619Y-165588095D01*
X171732857Y-165635714D01*
X171828095Y-165635714D01*
X171970952Y-165588095D01*
X172542380Y-165016666D01*
X172542380Y-165635714D01*
X176267142Y-164657142D02*
X176314761Y-164609523D01*
X176362380Y-164466666D01*
X176362380Y-164371428D01*
X176314761Y-164228571D01*
X176219523Y-164133333D01*
X176124285Y-164085714D01*
X175933809Y-164038095D01*
X175790952Y-164038095D01*
X175600476Y-164085714D01*
X175505238Y-164133333D01*
X175410000Y-164228571D01*
X175362380Y-164371428D01*
X175362380Y-164466666D01*
X175410000Y-164609523D01*
X175457619Y-164657142D01*
X176362380Y-165609523D02*
X176362380Y-165038095D01*
X176362380Y-165323809D02*
X175362380Y-165323809D01*
X175505238Y-165228571D01*
X175600476Y-165133333D01*
X175648095Y-165038095D01*
X176362380Y-166561904D02*
X176362380Y-165990476D01*
X176362380Y-166276190D02*
X175362380Y-166276190D01*
X175505238Y-166180952D01*
X175600476Y-166085714D01*
X175648095Y-165990476D01*
X170357142Y-155313333D02*
X170404761Y-155265714D01*
X170452380Y-155122857D01*
X170452380Y-155027619D01*
X170404761Y-154884761D01*
X170309523Y-154789523D01*
X170214285Y-154741904D01*
X170023809Y-154694285D01*
X169880952Y-154694285D01*
X169690476Y-154741904D01*
X169595238Y-154789523D01*
X169500000Y-154884761D01*
X169452380Y-155027619D01*
X169452380Y-155122857D01*
X169500000Y-155265714D01*
X169547619Y-155313333D01*
X169452380Y-156218095D02*
X169452380Y-155741904D01*
X169928571Y-155694285D01*
X169880952Y-155741904D01*
X169833333Y-155837142D01*
X169833333Y-156075238D01*
X169880952Y-156170476D01*
X169928571Y-156218095D01*
X170023809Y-156265714D01*
X170261904Y-156265714D01*
X170357142Y-156218095D01*
X170404761Y-156170476D01*
X170452380Y-156075238D01*
X170452380Y-155837142D01*
X170404761Y-155741904D01*
X170357142Y-155694285D01*
X183247142Y-147883333D02*
X183294761Y-147835714D01*
X183342380Y-147692857D01*
X183342380Y-147597619D01*
X183294761Y-147454761D01*
X183199523Y-147359523D01*
X183104285Y-147311904D01*
X182913809Y-147264285D01*
X182770952Y-147264285D01*
X182580476Y-147311904D01*
X182485238Y-147359523D01*
X182390000Y-147454761D01*
X182342380Y-147597619D01*
X182342380Y-147692857D01*
X182390000Y-147835714D01*
X182437619Y-147883333D01*
X182342380Y-148740476D02*
X182342380Y-148550000D01*
X182390000Y-148454761D01*
X182437619Y-148407142D01*
X182580476Y-148311904D01*
X182770952Y-148264285D01*
X183151904Y-148264285D01*
X183247142Y-148311904D01*
X183294761Y-148359523D01*
X183342380Y-148454761D01*
X183342380Y-148645238D01*
X183294761Y-148740476D01*
X183247142Y-148788095D01*
X183151904Y-148835714D01*
X182913809Y-148835714D01*
X182818571Y-148788095D01*
X182770952Y-148740476D01*
X182723333Y-148645238D01*
X182723333Y-148454761D01*
X182770952Y-148359523D01*
X182818571Y-148311904D01*
X182913809Y-148264285D01*
X179617142Y-158853333D02*
X179664761Y-158805714D01*
X179712380Y-158662857D01*
X179712380Y-158567619D01*
X179664761Y-158424761D01*
X179569523Y-158329523D01*
X179474285Y-158281904D01*
X179283809Y-158234285D01*
X179140952Y-158234285D01*
X178950476Y-158281904D01*
X178855238Y-158329523D01*
X178760000Y-158424761D01*
X178712380Y-158567619D01*
X178712380Y-158662857D01*
X178760000Y-158805714D01*
X178807619Y-158853333D01*
X178807619Y-159234285D02*
X178760000Y-159281904D01*
X178712380Y-159377142D01*
X178712380Y-159615238D01*
X178760000Y-159710476D01*
X178807619Y-159758095D01*
X178902857Y-159805714D01*
X178998095Y-159805714D01*
X179140952Y-159758095D01*
X179712380Y-159186666D01*
X179712380Y-159805714D01*
X177687142Y-151933333D02*
X177734761Y-151885714D01*
X177782380Y-151742857D01*
X177782380Y-151647619D01*
X177734761Y-151504761D01*
X177639523Y-151409523D01*
X177544285Y-151361904D01*
X177353809Y-151314285D01*
X177210952Y-151314285D01*
X177020476Y-151361904D01*
X176925238Y-151409523D01*
X176830000Y-151504761D01*
X176782380Y-151647619D01*
X176782380Y-151742857D01*
X176830000Y-151885714D01*
X176877619Y-151933333D01*
X176782380Y-152266666D02*
X176782380Y-152885714D01*
X177163333Y-152552380D01*
X177163333Y-152695238D01*
X177210952Y-152790476D01*
X177258571Y-152838095D01*
X177353809Y-152885714D01*
X177591904Y-152885714D01*
X177687142Y-152838095D01*
X177734761Y-152790476D01*
X177782380Y-152695238D01*
X177782380Y-152409523D01*
X177734761Y-152314285D01*
X177687142Y-152266666D01*
X174937142Y-123293333D02*
X174984761Y-123245714D01*
X175032380Y-123102857D01*
X175032380Y-123007619D01*
X174984761Y-122864761D01*
X174889523Y-122769523D01*
X174794285Y-122721904D01*
X174603809Y-122674285D01*
X174460952Y-122674285D01*
X174270476Y-122721904D01*
X174175238Y-122769523D01*
X174080000Y-122864761D01*
X174032380Y-123007619D01*
X174032380Y-123102857D01*
X174080000Y-123245714D01*
X174127619Y-123293333D01*
X174460952Y-123864761D02*
X174413333Y-123769523D01*
X174365714Y-123721904D01*
X174270476Y-123674285D01*
X174222857Y-123674285D01*
X174127619Y-123721904D01*
X174080000Y-123769523D01*
X174032380Y-123864761D01*
X174032380Y-124055238D01*
X174080000Y-124150476D01*
X174127619Y-124198095D01*
X174222857Y-124245714D01*
X174270476Y-124245714D01*
X174365714Y-124198095D01*
X174413333Y-124150476D01*
X174460952Y-124055238D01*
X174460952Y-123864761D01*
X174508571Y-123769523D01*
X174556190Y-123721904D01*
X174651428Y-123674285D01*
X174841904Y-123674285D01*
X174937142Y-123721904D01*
X174984761Y-123769523D01*
X175032380Y-123864761D01*
X175032380Y-124055238D01*
X174984761Y-124150476D01*
X174937142Y-124198095D01*
X174841904Y-124245714D01*
X174651428Y-124245714D01*
X174556190Y-124198095D01*
X174508571Y-124150476D01*
X174460952Y-124055238D01*
X169993333Y-103822380D02*
X169993333Y-104536666D01*
X170040952Y-104679523D01*
X170136190Y-104774761D01*
X170279047Y-104822380D01*
X170374285Y-104822380D01*
X168993333Y-104822380D02*
X169564761Y-104822380D01*
X169279047Y-104822380D02*
X169279047Y-103822380D01*
X169374285Y-103965238D01*
X169469523Y-104060476D01*
X169564761Y-104108095D01*
X169052380Y-157213333D02*
X168576190Y-156880000D01*
X169052380Y-156641904D02*
X168052380Y-156641904D01*
X168052380Y-157022857D01*
X168100000Y-157118095D01*
X168147619Y-157165714D01*
X168242857Y-157213333D01*
X168385714Y-157213333D01*
X168480952Y-157165714D01*
X168528571Y-157118095D01*
X168576190Y-157022857D01*
X168576190Y-156641904D01*
X168052380Y-157546666D02*
X168052380Y-158165714D01*
X168433333Y-157832380D01*
X168433333Y-157975238D01*
X168480952Y-158070476D01*
X168528571Y-158118095D01*
X168623809Y-158165714D01*
X168861904Y-158165714D01*
X168957142Y-158118095D01*
X169004761Y-158070476D01*
X169052380Y-157975238D01*
X169052380Y-157689523D01*
X169004761Y-157594285D01*
X168957142Y-157546666D01*
X170522380Y-157173333D02*
X170046190Y-156840000D01*
X170522380Y-156601904D02*
X169522380Y-156601904D01*
X169522380Y-156982857D01*
X169570000Y-157078095D01*
X169617619Y-157125714D01*
X169712857Y-157173333D01*
X169855714Y-157173333D01*
X169950952Y-157125714D01*
X169998571Y-157078095D01*
X170046190Y-156982857D01*
X170046190Y-156601904D01*
X169855714Y-158030476D02*
X170522380Y-158030476D01*
X169474761Y-157792380D02*
X170189047Y-157554285D01*
X170189047Y-158173333D01*
X173742380Y-164683333D02*
X173266190Y-164350000D01*
X173742380Y-164111904D02*
X172742380Y-164111904D01*
X172742380Y-164492857D01*
X172790000Y-164588095D01*
X172837619Y-164635714D01*
X172932857Y-164683333D01*
X173075714Y-164683333D01*
X173170952Y-164635714D01*
X173218571Y-164588095D01*
X173266190Y-164492857D01*
X173266190Y-164111904D01*
X172742380Y-165588095D02*
X172742380Y-165111904D01*
X173218571Y-165064285D01*
X173170952Y-165111904D01*
X173123333Y-165207142D01*
X173123333Y-165445238D01*
X173170952Y-165540476D01*
X173218571Y-165588095D01*
X173313809Y-165635714D01*
X173551904Y-165635714D01*
X173647142Y-165588095D01*
X173694761Y-165540476D01*
X173742380Y-165445238D01*
X173742380Y-165207142D01*
X173694761Y-165111904D01*
X173647142Y-165064285D01*
X182047732Y-135322030D02*
X181946717Y-134749610D01*
X182451793Y-134917969D02*
X181744687Y-134210862D01*
X181475312Y-134480236D01*
X181441641Y-134581251D01*
X181441641Y-134648595D01*
X181475312Y-134749610D01*
X181576328Y-134850625D01*
X181677343Y-134884297D01*
X181744687Y-134884297D01*
X181845702Y-134850625D01*
X182115076Y-134581251D01*
X181104923Y-134850625D02*
X180633519Y-135322030D01*
X181643671Y-135726091D01*
X174972380Y-164643333D02*
X174496190Y-164310000D01*
X174972380Y-164071904D02*
X173972380Y-164071904D01*
X173972380Y-164452857D01*
X174020000Y-164548095D01*
X174067619Y-164595714D01*
X174162857Y-164643333D01*
X174305714Y-164643333D01*
X174400952Y-164595714D01*
X174448571Y-164548095D01*
X174496190Y-164452857D01*
X174496190Y-164071904D01*
X174972380Y-165595714D02*
X174972380Y-165024285D01*
X174972380Y-165310000D02*
X173972380Y-165310000D01*
X174115238Y-165214761D01*
X174210476Y-165119523D01*
X174258095Y-165024285D01*
X167272380Y-163982380D02*
X166796190Y-163649047D01*
X167272380Y-163410952D02*
X166272380Y-163410952D01*
X166272380Y-163791904D01*
X166320000Y-163887142D01*
X166367619Y-163934761D01*
X166462857Y-163982380D01*
X166605714Y-163982380D01*
X166700952Y-163934761D01*
X166748571Y-163887142D01*
X166796190Y-163791904D01*
X166796190Y-163410952D01*
X167224761Y-164363333D02*
X167272380Y-164506190D01*
X167272380Y-164744285D01*
X167224761Y-164839523D01*
X167177142Y-164887142D01*
X167081904Y-164934761D01*
X166986666Y-164934761D01*
X166891428Y-164887142D01*
X166843809Y-164839523D01*
X166796190Y-164744285D01*
X166748571Y-164553809D01*
X166700952Y-164458571D01*
X166653333Y-164410952D01*
X166558095Y-164363333D01*
X166462857Y-164363333D01*
X166367619Y-164410952D01*
X166320000Y-164458571D01*
X166272380Y-164553809D01*
X166272380Y-164791904D01*
X166320000Y-164934761D01*
X166272380Y-165220476D02*
X166272380Y-165791904D01*
X167272380Y-165506190D02*
X166272380Y-165506190D01*
X182907732Y-136192030D02*
X182806717Y-135619610D01*
X183311793Y-135787969D02*
X182604687Y-135080862D01*
X182335312Y-135350236D01*
X182301641Y-135451251D01*
X182301641Y-135518595D01*
X182335312Y-135619610D01*
X182436328Y-135720625D01*
X182537343Y-135754297D01*
X182604687Y-135754297D01*
X182705702Y-135720625D01*
X182975076Y-135451251D01*
X182099610Y-136192030D02*
X182133282Y-136091015D01*
X182133282Y-136023671D01*
X182099610Y-135922656D01*
X182065938Y-135888984D01*
X181964923Y-135855312D01*
X181897580Y-135855312D01*
X181796564Y-135888984D01*
X181661877Y-136023671D01*
X181628206Y-136124687D01*
X181628206Y-136192030D01*
X181661877Y-136293045D01*
X181695549Y-136326717D01*
X181796564Y-136360389D01*
X181863908Y-136360389D01*
X181964923Y-136326717D01*
X182099610Y-136192030D01*
X182200625Y-136158358D01*
X182267969Y-136158358D01*
X182368984Y-136192030D01*
X182503671Y-136326717D01*
X182537343Y-136427732D01*
X182537343Y-136495076D01*
X182503671Y-136596091D01*
X182368984Y-136730778D01*
X182267969Y-136764450D01*
X182200625Y-136764450D01*
X182099610Y-136730778D01*
X181964923Y-136596091D01*
X181931251Y-136495076D01*
X181931251Y-136427732D01*
X181964923Y-136326717D01*
X186944761Y-97142857D02*
X186992380Y-97285714D01*
X186992380Y-97523809D01*
X186944761Y-97619047D01*
X186897142Y-97666666D01*
X186801904Y-97714285D01*
X186706666Y-97714285D01*
X186611428Y-97666666D01*
X186563809Y-97619047D01*
X186516190Y-97523809D01*
X186468571Y-97333333D01*
X186420952Y-97238095D01*
X186373333Y-97190476D01*
X186278095Y-97142857D01*
X186182857Y-97142857D01*
X186087619Y-97190476D01*
X186040000Y-97238095D01*
X185992380Y-97333333D01*
X185992380Y-97571428D01*
X186040000Y-97714285D01*
X185992380Y-98047619D02*
X186992380Y-98285714D01*
X186278095Y-98476190D01*
X186992380Y-98666666D01*
X185992380Y-98904761D01*
X186992380Y-99285714D02*
X185992380Y-99285714D01*
X185992380Y-99523809D01*
X186040000Y-99666666D01*
X186135238Y-99761904D01*
X186230476Y-99809523D01*
X186420952Y-99857142D01*
X186563809Y-99857142D01*
X186754285Y-99809523D01*
X186849523Y-99761904D01*
X186944761Y-99666666D01*
X186992380Y-99523809D01*
X186992380Y-99285714D01*
X176646190Y-155763809D02*
X177122380Y-155763809D01*
X176122380Y-155430476D02*
X176646190Y-155763809D01*
X176122380Y-156097142D01*
X177122380Y-156954285D02*
X177122380Y-156382857D01*
X177122380Y-156668571D02*
X176122380Y-156668571D01*
X176265238Y-156573333D01*
X176360476Y-156478095D01*
X176408095Y-156382857D01*
X168612380Y-108547142D02*
X168136190Y-108213809D01*
X168612380Y-107975714D02*
X167612380Y-107975714D01*
X167612380Y-108356666D01*
X167660000Y-108451904D01*
X167707619Y-108499523D01*
X167802857Y-108547142D01*
X167945714Y-108547142D01*
X168040952Y-108499523D01*
X168088571Y-108451904D01*
X168136190Y-108356666D01*
X168136190Y-107975714D01*
X168612380Y-109499523D02*
X168612380Y-108928095D01*
X168612380Y-109213809D02*
X167612380Y-109213809D01*
X167755238Y-109118571D01*
X167850476Y-109023333D01*
X167898095Y-108928095D01*
X167612380Y-110118571D02*
X167612380Y-110213809D01*
X167660000Y-110309047D01*
X167707619Y-110356666D01*
X167802857Y-110404285D01*
X167993333Y-110451904D01*
X168231428Y-110451904D01*
X168421904Y-110404285D01*
X168517142Y-110356666D01*
X168564761Y-110309047D01*
X168612380Y-110213809D01*
X168612380Y-110118571D01*
X168564761Y-110023333D01*
X168517142Y-109975714D01*
X168421904Y-109928095D01*
X168231428Y-109880476D01*
X167993333Y-109880476D01*
X167802857Y-109928095D01*
X167707619Y-109975714D01*
X167660000Y-110023333D01*
X167612380Y-110118571D01*
X158342380Y-141143333D02*
X157866190Y-140810000D01*
X158342380Y-140571904D02*
X157342380Y-140571904D01*
X157342380Y-140952857D01*
X157390000Y-141048095D01*
X157437619Y-141095714D01*
X157532857Y-141143333D01*
X157675714Y-141143333D01*
X157770952Y-141095714D01*
X157818571Y-141048095D01*
X157866190Y-140952857D01*
X157866190Y-140571904D01*
X158342380Y-141619523D02*
X158342380Y-141810000D01*
X158294761Y-141905238D01*
X158247142Y-141952857D01*
X158104285Y-142048095D01*
X157913809Y-142095714D01*
X157532857Y-142095714D01*
X157437619Y-142048095D01*
X157390000Y-142000476D01*
X157342380Y-141905238D01*
X157342380Y-141714761D01*
X157390000Y-141619523D01*
X157437619Y-141571904D01*
X157532857Y-141524285D01*
X157770952Y-141524285D01*
X157866190Y-141571904D01*
X157913809Y-141619523D01*
X157961428Y-141714761D01*
X157961428Y-141905238D01*
X157913809Y-142000476D01*
X157866190Y-142048095D01*
X157770952Y-142095714D01*
X186974761Y-100596666D02*
X187022380Y-100739523D01*
X187022380Y-100977619D01*
X186974761Y-101072857D01*
X186927142Y-101120476D01*
X186831904Y-101168095D01*
X186736666Y-101168095D01*
X186641428Y-101120476D01*
X186593809Y-101072857D01*
X186546190Y-100977619D01*
X186498571Y-100787142D01*
X186450952Y-100691904D01*
X186403333Y-100644285D01*
X186308095Y-100596666D01*
X186212857Y-100596666D01*
X186117619Y-100644285D01*
X186070000Y-100691904D01*
X186022380Y-100787142D01*
X186022380Y-101025238D01*
X186070000Y-101168095D01*
X186022380Y-101501428D02*
X187022380Y-101739523D01*
X186308095Y-101930000D01*
X187022380Y-102120476D01*
X186022380Y-102358571D01*
X187022380Y-103263333D02*
X187022380Y-102691904D01*
X187022380Y-102977619D02*
X186022380Y-102977619D01*
X186165238Y-102882380D01*
X186260476Y-102787142D01*
X186308095Y-102691904D01*
X170082380Y-108567142D02*
X169606190Y-108233809D01*
X170082380Y-107995714D02*
X169082380Y-107995714D01*
X169082380Y-108376666D01*
X169130000Y-108471904D01*
X169177619Y-108519523D01*
X169272857Y-108567142D01*
X169415714Y-108567142D01*
X169510952Y-108519523D01*
X169558571Y-108471904D01*
X169606190Y-108376666D01*
X169606190Y-107995714D01*
X170082380Y-109519523D02*
X170082380Y-108948095D01*
X170082380Y-109233809D02*
X169082380Y-109233809D01*
X169225238Y-109138571D01*
X169320476Y-109043333D01*
X169368095Y-108948095D01*
X169177619Y-109900476D02*
X169130000Y-109948095D01*
X169082380Y-110043333D01*
X169082380Y-110281428D01*
X169130000Y-110376666D01*
X169177619Y-110424285D01*
X169272857Y-110471904D01*
X169368095Y-110471904D01*
X169510952Y-110424285D01*
X170082380Y-109852857D01*
X170082380Y-110471904D01*
X182455973Y-144091522D02*
X181883553Y-144663942D01*
X181782538Y-144697614D01*
X181715194Y-144697614D01*
X181614179Y-144663942D01*
X181479492Y-144529255D01*
X181445820Y-144428240D01*
X181445820Y-144360896D01*
X181479492Y-144259881D01*
X182051912Y-143687461D01*
X181681522Y-143451759D02*
X181681522Y-143384416D01*
X181647851Y-143283400D01*
X181479492Y-143115042D01*
X181378477Y-143081370D01*
X181311133Y-143081370D01*
X181210118Y-143115042D01*
X181142774Y-143182385D01*
X181075431Y-143317072D01*
X181075431Y-144125194D01*
X180637698Y-143687461D01*
X178796190Y-149973809D02*
X179272380Y-149973809D01*
X178272380Y-149640476D02*
X178796190Y-149973809D01*
X178272380Y-150307142D01*
X178367619Y-150592857D02*
X178320000Y-150640476D01*
X178272380Y-150735714D01*
X178272380Y-150973809D01*
X178320000Y-151069047D01*
X178367619Y-151116666D01*
X178462857Y-151164285D01*
X178558095Y-151164285D01*
X178700952Y-151116666D01*
X179272380Y-150545238D01*
X179272380Y-151164285D01*
X175602380Y-167478095D02*
X176411904Y-167478095D01*
X176507142Y-167525714D01*
X176554761Y-167573333D01*
X176602380Y-167668571D01*
X176602380Y-167859047D01*
X176554761Y-167954285D01*
X176507142Y-168001904D01*
X176411904Y-168049523D01*
X175602380Y-168049523D01*
X175935714Y-168954285D02*
X176602380Y-168954285D01*
X175554761Y-168716190D02*
X176269047Y-168478095D01*
X176269047Y-169097142D01*
X166982380Y-126838095D02*
X167791904Y-126838095D01*
X167887142Y-126885714D01*
X167934761Y-126933333D01*
X167982380Y-127028571D01*
X167982380Y-127219047D01*
X167934761Y-127314285D01*
X167887142Y-127361904D01*
X167791904Y-127409523D01*
X166982380Y-127409523D01*
X166982380Y-127790476D02*
X166982380Y-128409523D01*
X167363333Y-128076190D01*
X167363333Y-128219047D01*
X167410952Y-128314285D01*
X167458571Y-128361904D01*
X167553809Y-128409523D01*
X167791904Y-128409523D01*
X167887142Y-128361904D01*
X167934761Y-128314285D01*
X167982380Y-128219047D01*
X167982380Y-127933333D01*
X167934761Y-127838095D01*
X167887142Y-127790476D01*
X170802380Y-156628095D02*
X171611904Y-156628095D01*
X171707142Y-156675714D01*
X171754761Y-156723333D01*
X171802380Y-156818571D01*
X171802380Y-157009047D01*
X171754761Y-157104285D01*
X171707142Y-157151904D01*
X171611904Y-157199523D01*
X170802380Y-157199523D01*
X171802380Y-158199523D02*
X171802380Y-157628095D01*
X171802380Y-157913809D02*
X170802380Y-157913809D01*
X170945238Y-157818571D01*
X171040476Y-157723333D01*
X171088095Y-157628095D01*
X171652380Y-108607142D02*
X171176190Y-108273809D01*
X171652380Y-108035714D02*
X170652380Y-108035714D01*
X170652380Y-108416666D01*
X170700000Y-108511904D01*
X170747619Y-108559523D01*
X170842857Y-108607142D01*
X170985714Y-108607142D01*
X171080952Y-108559523D01*
X171128571Y-108511904D01*
X171176190Y-108416666D01*
X171176190Y-108035714D01*
X171652380Y-109559523D02*
X171652380Y-108988095D01*
X171652380Y-109273809D02*
X170652380Y-109273809D01*
X170795238Y-109178571D01*
X170890476Y-109083333D01*
X170938095Y-108988095D01*
X171652380Y-110511904D02*
X171652380Y-109940476D01*
X171652380Y-110226190D02*
X170652380Y-110226190D01*
X170795238Y-110130952D01*
X170890476Y-110035714D01*
X170938095Y-109940476D01*
X186944761Y-106616666D02*
X186992380Y-106759523D01*
X186992380Y-106997619D01*
X186944761Y-107092857D01*
X186897142Y-107140476D01*
X186801904Y-107188095D01*
X186706666Y-107188095D01*
X186611428Y-107140476D01*
X186563809Y-107092857D01*
X186516190Y-106997619D01*
X186468571Y-106807142D01*
X186420952Y-106711904D01*
X186373333Y-106664285D01*
X186278095Y-106616666D01*
X186182857Y-106616666D01*
X186087619Y-106664285D01*
X186040000Y-106711904D01*
X185992380Y-106807142D01*
X185992380Y-107045238D01*
X186040000Y-107188095D01*
X185992380Y-107521428D02*
X186992380Y-107759523D01*
X186278095Y-107950000D01*
X186992380Y-108140476D01*
X185992380Y-108378571D01*
X186087619Y-108711904D02*
X186040000Y-108759523D01*
X185992380Y-108854761D01*
X185992380Y-109092857D01*
X186040000Y-109188095D01*
X186087619Y-109235714D01*
X186182857Y-109283333D01*
X186278095Y-109283333D01*
X186420952Y-109235714D01*
X186992380Y-108664285D01*
X186992380Y-109283333D01*
X163872380Y-103589523D02*
X163396190Y-103256190D01*
X163872380Y-103018095D02*
X162872380Y-103018095D01*
X162872380Y-103399047D01*
X162920000Y-103494285D01*
X162967619Y-103541904D01*
X163062857Y-103589523D01*
X163205714Y-103589523D01*
X163300952Y-103541904D01*
X163348571Y-103494285D01*
X163396190Y-103399047D01*
X163396190Y-103018095D01*
X163872380Y-104018095D02*
X162872380Y-104018095D01*
X163872380Y-104589523D01*
X162872380Y-104589523D01*
X162967619Y-105018095D02*
X162920000Y-105065714D01*
X162872380Y-105160952D01*
X162872380Y-105399047D01*
X162920000Y-105494285D01*
X162967619Y-105541904D01*
X163062857Y-105589523D01*
X163158095Y-105589523D01*
X163300952Y-105541904D01*
X163872380Y-104970476D01*
X163872380Y-105589523D01*
X173192380Y-108607142D02*
X172716190Y-108273809D01*
X173192380Y-108035714D02*
X172192380Y-108035714D01*
X172192380Y-108416666D01*
X172240000Y-108511904D01*
X172287619Y-108559523D01*
X172382857Y-108607142D01*
X172525714Y-108607142D01*
X172620952Y-108559523D01*
X172668571Y-108511904D01*
X172716190Y-108416666D01*
X172716190Y-108035714D01*
X173192380Y-109559523D02*
X173192380Y-108988095D01*
X173192380Y-109273809D02*
X172192380Y-109273809D01*
X172335238Y-109178571D01*
X172430476Y-109083333D01*
X172478095Y-108988095D01*
X172192380Y-109892857D02*
X172192380Y-110511904D01*
X172573333Y-110178571D01*
X172573333Y-110321428D01*
X172620952Y-110416666D01*
X172668571Y-110464285D01*
X172763809Y-110511904D01*
X173001904Y-110511904D01*
X173097142Y-110464285D01*
X173144761Y-110416666D01*
X173192380Y-110321428D01*
X173192380Y-110035714D01*
X173144761Y-109940476D01*
X173097142Y-109892857D01*
X139944761Y-97142857D02*
X139992380Y-97285714D01*
X139992380Y-97523809D01*
X139944761Y-97619047D01*
X139897142Y-97666666D01*
X139801904Y-97714285D01*
X139706666Y-97714285D01*
X139611428Y-97666666D01*
X139563809Y-97619047D01*
X139516190Y-97523809D01*
X139468571Y-97333333D01*
X139420952Y-97238095D01*
X139373333Y-97190476D01*
X139278095Y-97142857D01*
X139182857Y-97142857D01*
X139087619Y-97190476D01*
X139040000Y-97238095D01*
X138992380Y-97333333D01*
X138992380Y-97571428D01*
X139040000Y-97714285D01*
X138992380Y-98047619D02*
X139992380Y-98285714D01*
X139278095Y-98476190D01*
X139992380Y-98666666D01*
X138992380Y-98904761D01*
X139992380Y-99285714D02*
X138992380Y-99285714D01*
X138992380Y-99523809D01*
X139040000Y-99666666D01*
X139135238Y-99761904D01*
X139230476Y-99809523D01*
X139420952Y-99857142D01*
X139563809Y-99857142D01*
X139754285Y-99809523D01*
X139849523Y-99761904D01*
X139944761Y-99666666D01*
X139992380Y-99523809D01*
X139992380Y-99285714D01*
X120272380Y-163982380D02*
X119796190Y-163649047D01*
X120272380Y-163410952D02*
X119272380Y-163410952D01*
X119272380Y-163791904D01*
X119320000Y-163887142D01*
X119367619Y-163934761D01*
X119462857Y-163982380D01*
X119605714Y-163982380D01*
X119700952Y-163934761D01*
X119748571Y-163887142D01*
X119796190Y-163791904D01*
X119796190Y-163410952D01*
X120224761Y-164363333D02*
X120272380Y-164506190D01*
X120272380Y-164744285D01*
X120224761Y-164839523D01*
X120177142Y-164887142D01*
X120081904Y-164934761D01*
X119986666Y-164934761D01*
X119891428Y-164887142D01*
X119843809Y-164839523D01*
X119796190Y-164744285D01*
X119748571Y-164553809D01*
X119700952Y-164458571D01*
X119653333Y-164410952D01*
X119558095Y-164363333D01*
X119462857Y-164363333D01*
X119367619Y-164410952D01*
X119320000Y-164458571D01*
X119272380Y-164553809D01*
X119272380Y-164791904D01*
X119320000Y-164934761D01*
X119272380Y-165220476D02*
X119272380Y-165791904D01*
X120272380Y-165506190D02*
X119272380Y-165506190D01*
X122993333Y-103822380D02*
X122993333Y-104536666D01*
X123040952Y-104679523D01*
X123136190Y-104774761D01*
X123279047Y-104822380D01*
X123374285Y-104822380D01*
X121993333Y-104822380D02*
X122564761Y-104822380D01*
X122279047Y-104822380D02*
X122279047Y-103822380D01*
X122374285Y-103965238D01*
X122469523Y-104060476D01*
X122564761Y-104108095D01*
X127972380Y-164643333D02*
X127496190Y-164310000D01*
X127972380Y-164071904D02*
X126972380Y-164071904D01*
X126972380Y-164452857D01*
X127020000Y-164548095D01*
X127067619Y-164595714D01*
X127162857Y-164643333D01*
X127305714Y-164643333D01*
X127400952Y-164595714D01*
X127448571Y-164548095D01*
X127496190Y-164452857D01*
X127496190Y-164071904D01*
X127972380Y-165595714D02*
X127972380Y-165024285D01*
X127972380Y-165310000D02*
X126972380Y-165310000D01*
X127115238Y-165214761D01*
X127210476Y-165119523D01*
X127258095Y-165024285D01*
X135907732Y-136192030D02*
X135806717Y-135619610D01*
X136311793Y-135787969D02*
X135604687Y-135080862D01*
X135335312Y-135350236D01*
X135301641Y-135451251D01*
X135301641Y-135518595D01*
X135335312Y-135619610D01*
X135436328Y-135720625D01*
X135537343Y-135754297D01*
X135604687Y-135754297D01*
X135705702Y-135720625D01*
X135975076Y-135451251D01*
X135099610Y-136192030D02*
X135133282Y-136091015D01*
X135133282Y-136023671D01*
X135099610Y-135922656D01*
X135065938Y-135888984D01*
X134964923Y-135855312D01*
X134897580Y-135855312D01*
X134796564Y-135888984D01*
X134661877Y-136023671D01*
X134628206Y-136124687D01*
X134628206Y-136192030D01*
X134661877Y-136293045D01*
X134695549Y-136326717D01*
X134796564Y-136360389D01*
X134863908Y-136360389D01*
X134964923Y-136326717D01*
X135099610Y-136192030D01*
X135200625Y-136158358D01*
X135267969Y-136158358D01*
X135368984Y-136192030D01*
X135503671Y-136326717D01*
X135537343Y-136427732D01*
X135537343Y-136495076D01*
X135503671Y-136596091D01*
X135368984Y-136730778D01*
X135267969Y-136764450D01*
X135200625Y-136764450D01*
X135099610Y-136730778D01*
X134964923Y-136596091D01*
X134931251Y-136495076D01*
X134931251Y-136427732D01*
X134964923Y-136326717D01*
X135047732Y-135322030D02*
X134946717Y-134749610D01*
X135451793Y-134917969D02*
X134744687Y-134210862D01*
X134475312Y-134480236D01*
X134441641Y-134581251D01*
X134441641Y-134648595D01*
X134475312Y-134749610D01*
X134576328Y-134850625D01*
X134677343Y-134884297D01*
X134744687Y-134884297D01*
X134845702Y-134850625D01*
X135115076Y-134581251D01*
X134104923Y-134850625D02*
X133633519Y-135322030D01*
X134643671Y-135726091D01*
X126742380Y-164683333D02*
X126266190Y-164350000D01*
X126742380Y-164111904D02*
X125742380Y-164111904D01*
X125742380Y-164492857D01*
X125790000Y-164588095D01*
X125837619Y-164635714D01*
X125932857Y-164683333D01*
X126075714Y-164683333D01*
X126170952Y-164635714D01*
X126218571Y-164588095D01*
X126266190Y-164492857D01*
X126266190Y-164111904D01*
X125742380Y-165588095D02*
X125742380Y-165111904D01*
X126218571Y-165064285D01*
X126170952Y-165111904D01*
X126123333Y-165207142D01*
X126123333Y-165445238D01*
X126170952Y-165540476D01*
X126218571Y-165588095D01*
X126313809Y-165635714D01*
X126551904Y-165635714D01*
X126647142Y-165588095D01*
X126694761Y-165540476D01*
X126742380Y-165445238D01*
X126742380Y-165207142D01*
X126694761Y-165111904D01*
X126647142Y-165064285D01*
X123522380Y-157173333D02*
X123046190Y-156840000D01*
X123522380Y-156601904D02*
X122522380Y-156601904D01*
X122522380Y-156982857D01*
X122570000Y-157078095D01*
X122617619Y-157125714D01*
X122712857Y-157173333D01*
X122855714Y-157173333D01*
X122950952Y-157125714D01*
X122998571Y-157078095D01*
X123046190Y-156982857D01*
X123046190Y-156601904D01*
X122855714Y-158030476D02*
X123522380Y-158030476D01*
X122474761Y-157792380D02*
X123189047Y-157554285D01*
X123189047Y-158173333D01*
X122052380Y-157213333D02*
X121576190Y-156880000D01*
X122052380Y-156641904D02*
X121052380Y-156641904D01*
X121052380Y-157022857D01*
X121100000Y-157118095D01*
X121147619Y-157165714D01*
X121242857Y-157213333D01*
X121385714Y-157213333D01*
X121480952Y-157165714D01*
X121528571Y-157118095D01*
X121576190Y-157022857D01*
X121576190Y-156641904D01*
X121052380Y-157546666D02*
X121052380Y-158165714D01*
X121433333Y-157832380D01*
X121433333Y-157975238D01*
X121480952Y-158070476D01*
X121528571Y-158118095D01*
X121623809Y-158165714D01*
X121861904Y-158165714D01*
X121957142Y-158118095D01*
X122004761Y-158070476D01*
X122052380Y-157975238D01*
X122052380Y-157689523D01*
X122004761Y-157594285D01*
X121957142Y-157546666D01*
X125542380Y-164683333D02*
X125066190Y-164350000D01*
X125542380Y-164111904D02*
X124542380Y-164111904D01*
X124542380Y-164492857D01*
X124590000Y-164588095D01*
X124637619Y-164635714D01*
X124732857Y-164683333D01*
X124875714Y-164683333D01*
X124970952Y-164635714D01*
X125018571Y-164588095D01*
X125066190Y-164492857D01*
X125066190Y-164111904D01*
X124637619Y-165064285D02*
X124590000Y-165111904D01*
X124542380Y-165207142D01*
X124542380Y-165445238D01*
X124590000Y-165540476D01*
X124637619Y-165588095D01*
X124732857Y-165635714D01*
X124828095Y-165635714D01*
X124970952Y-165588095D01*
X125542380Y-165016666D01*
X125542380Y-165635714D01*
X123357142Y-155313333D02*
X123404761Y-155265714D01*
X123452380Y-155122857D01*
X123452380Y-155027619D01*
X123404761Y-154884761D01*
X123309523Y-154789523D01*
X123214285Y-154741904D01*
X123023809Y-154694285D01*
X122880952Y-154694285D01*
X122690476Y-154741904D01*
X122595238Y-154789523D01*
X122500000Y-154884761D01*
X122452380Y-155027619D01*
X122452380Y-155122857D01*
X122500000Y-155265714D01*
X122547619Y-155313333D01*
X122452380Y-156218095D02*
X122452380Y-155741904D01*
X122928571Y-155694285D01*
X122880952Y-155741904D01*
X122833333Y-155837142D01*
X122833333Y-156075238D01*
X122880952Y-156170476D01*
X122928571Y-156218095D01*
X123023809Y-156265714D01*
X123261904Y-156265714D01*
X123357142Y-156218095D01*
X123404761Y-156170476D01*
X123452380Y-156075238D01*
X123452380Y-155837142D01*
X123404761Y-155741904D01*
X123357142Y-155694285D01*
X114092380Y-166197142D02*
X113616190Y-165863809D01*
X114092380Y-165625714D02*
X113092380Y-165625714D01*
X113092380Y-166006666D01*
X113140000Y-166101904D01*
X113187619Y-166149523D01*
X113282857Y-166197142D01*
X113425714Y-166197142D01*
X113520952Y-166149523D01*
X113568571Y-166101904D01*
X113616190Y-166006666D01*
X113616190Y-165625714D01*
X114092380Y-167149523D02*
X114092380Y-166578095D01*
X114092380Y-166863809D02*
X113092380Y-166863809D01*
X113235238Y-166768571D01*
X113330476Y-166673333D01*
X113378095Y-166578095D01*
X113092380Y-168054285D02*
X113092380Y-167578095D01*
X113568571Y-167530476D01*
X113520952Y-167578095D01*
X113473333Y-167673333D01*
X113473333Y-167911428D01*
X113520952Y-168006666D01*
X113568571Y-168054285D01*
X113663809Y-168101904D01*
X113901904Y-168101904D01*
X113997142Y-168054285D01*
X114044761Y-168006666D01*
X114092380Y-167911428D01*
X114092380Y-167673333D01*
X114044761Y-167578095D01*
X113997142Y-167530476D01*
X112882380Y-113457142D02*
X112406190Y-113123809D01*
X112882380Y-112885714D02*
X111882380Y-112885714D01*
X111882380Y-113266666D01*
X111930000Y-113361904D01*
X111977619Y-113409523D01*
X112072857Y-113457142D01*
X112215714Y-113457142D01*
X112310952Y-113409523D01*
X112358571Y-113361904D01*
X112406190Y-113266666D01*
X112406190Y-112885714D01*
X112882380Y-114409523D02*
X112882380Y-113838095D01*
X112882380Y-114123809D02*
X111882380Y-114123809D01*
X112025238Y-114028571D01*
X112120476Y-113933333D01*
X112168095Y-113838095D01*
X112215714Y-115266666D02*
X112882380Y-115266666D01*
X111834761Y-115028571D02*
X112549047Y-114790476D01*
X112549047Y-115409523D01*
X129472380Y-151993333D02*
X128996190Y-151660000D01*
X129472380Y-151421904D02*
X128472380Y-151421904D01*
X128472380Y-151802857D01*
X128520000Y-151898095D01*
X128567619Y-151945714D01*
X128662857Y-151993333D01*
X128805714Y-151993333D01*
X128900952Y-151945714D01*
X128948571Y-151898095D01*
X128996190Y-151802857D01*
X128996190Y-151421904D01*
X128472380Y-152850476D02*
X128472380Y-152660000D01*
X128520000Y-152564761D01*
X128567619Y-152517142D01*
X128710476Y-152421904D01*
X128900952Y-152374285D01*
X129281904Y-152374285D01*
X129377142Y-152421904D01*
X129424761Y-152469523D01*
X129472380Y-152564761D01*
X129472380Y-152755238D01*
X129424761Y-152850476D01*
X129377142Y-152898095D01*
X129281904Y-152945714D01*
X129043809Y-152945714D01*
X128948571Y-152898095D01*
X128900952Y-152850476D01*
X128853333Y-152755238D01*
X128853333Y-152564761D01*
X128900952Y-152469523D01*
X128948571Y-152421904D01*
X129043809Y-152374285D01*
X130687142Y-151933333D02*
X130734761Y-151885714D01*
X130782380Y-151742857D01*
X130782380Y-151647619D01*
X130734761Y-151504761D01*
X130639523Y-151409523D01*
X130544285Y-151361904D01*
X130353809Y-151314285D01*
X130210952Y-151314285D01*
X130020476Y-151361904D01*
X129925238Y-151409523D01*
X129830000Y-151504761D01*
X129782380Y-151647619D01*
X129782380Y-151742857D01*
X129830000Y-151885714D01*
X129877619Y-151933333D01*
X129782380Y-152266666D02*
X129782380Y-152885714D01*
X130163333Y-152552380D01*
X130163333Y-152695238D01*
X130210952Y-152790476D01*
X130258571Y-152838095D01*
X130353809Y-152885714D01*
X130591904Y-152885714D01*
X130687142Y-152838095D01*
X130734761Y-152790476D01*
X130782380Y-152695238D01*
X130782380Y-152409523D01*
X130734761Y-152314285D01*
X130687142Y-152266666D01*
X133927142Y-147923333D02*
X133974761Y-147875714D01*
X134022380Y-147732857D01*
X134022380Y-147637619D01*
X133974761Y-147494761D01*
X133879523Y-147399523D01*
X133784285Y-147351904D01*
X133593809Y-147304285D01*
X133450952Y-147304285D01*
X133260476Y-147351904D01*
X133165238Y-147399523D01*
X133070000Y-147494761D01*
X133022380Y-147637619D01*
X133022380Y-147732857D01*
X133070000Y-147875714D01*
X133117619Y-147923333D01*
X133022380Y-148256666D02*
X133022380Y-148923333D01*
X134022380Y-148494761D01*
X136247142Y-147883333D02*
X136294761Y-147835714D01*
X136342380Y-147692857D01*
X136342380Y-147597619D01*
X136294761Y-147454761D01*
X136199523Y-147359523D01*
X136104285Y-147311904D01*
X135913809Y-147264285D01*
X135770952Y-147264285D01*
X135580476Y-147311904D01*
X135485238Y-147359523D01*
X135390000Y-147454761D01*
X135342380Y-147597619D01*
X135342380Y-147692857D01*
X135390000Y-147835714D01*
X135437619Y-147883333D01*
X135342380Y-148740476D02*
X135342380Y-148550000D01*
X135390000Y-148454761D01*
X135437619Y-148407142D01*
X135580476Y-148311904D01*
X135770952Y-148264285D01*
X136151904Y-148264285D01*
X136247142Y-148311904D01*
X136294761Y-148359523D01*
X136342380Y-148454761D01*
X136342380Y-148645238D01*
X136294761Y-148740476D01*
X136247142Y-148788095D01*
X136151904Y-148835714D01*
X135913809Y-148835714D01*
X135818571Y-148788095D01*
X135770952Y-148740476D01*
X135723333Y-148645238D01*
X135723333Y-148454761D01*
X135770952Y-148359523D01*
X135818571Y-148311904D01*
X135913809Y-148264285D01*
X132617142Y-158853333D02*
X132664761Y-158805714D01*
X132712380Y-158662857D01*
X132712380Y-158567619D01*
X132664761Y-158424761D01*
X132569523Y-158329523D01*
X132474285Y-158281904D01*
X132283809Y-158234285D01*
X132140952Y-158234285D01*
X131950476Y-158281904D01*
X131855238Y-158329523D01*
X131760000Y-158424761D01*
X131712380Y-158567619D01*
X131712380Y-158662857D01*
X131760000Y-158805714D01*
X131807619Y-158853333D01*
X131807619Y-159234285D02*
X131760000Y-159281904D01*
X131712380Y-159377142D01*
X131712380Y-159615238D01*
X131760000Y-159710476D01*
X131807619Y-159758095D01*
X131902857Y-159805714D01*
X131998095Y-159805714D01*
X132140952Y-159758095D01*
X132712380Y-159186666D01*
X132712380Y-159805714D01*
X135507142Y-158893333D02*
X135554761Y-158845714D01*
X135602380Y-158702857D01*
X135602380Y-158607619D01*
X135554761Y-158464761D01*
X135459523Y-158369523D01*
X135364285Y-158321904D01*
X135173809Y-158274285D01*
X135030952Y-158274285D01*
X134840476Y-158321904D01*
X134745238Y-158369523D01*
X134650000Y-158464761D01*
X134602380Y-158607619D01*
X134602380Y-158702857D01*
X134650000Y-158845714D01*
X134697619Y-158893333D01*
X135602380Y-159845714D02*
X135602380Y-159274285D01*
X135602380Y-159560000D02*
X134602380Y-159560000D01*
X134745238Y-159464761D01*
X134840476Y-159369523D01*
X134888095Y-159274285D01*
X126367142Y-132593333D02*
X126414761Y-132545714D01*
X126462380Y-132402857D01*
X126462380Y-132307619D01*
X126414761Y-132164761D01*
X126319523Y-132069523D01*
X126224285Y-132021904D01*
X126033809Y-131974285D01*
X125890952Y-131974285D01*
X125700476Y-132021904D01*
X125605238Y-132069523D01*
X125510000Y-132164761D01*
X125462380Y-132307619D01*
X125462380Y-132402857D01*
X125510000Y-132545714D01*
X125557619Y-132593333D01*
X125795714Y-133450476D02*
X126462380Y-133450476D01*
X125414761Y-133212380D02*
X126129047Y-132974285D01*
X126129047Y-133593333D01*
X127937142Y-123293333D02*
X127984761Y-123245714D01*
X128032380Y-123102857D01*
X128032380Y-123007619D01*
X127984761Y-122864761D01*
X127889523Y-122769523D01*
X127794285Y-122721904D01*
X127603809Y-122674285D01*
X127460952Y-122674285D01*
X127270476Y-122721904D01*
X127175238Y-122769523D01*
X127080000Y-122864761D01*
X127032380Y-123007619D01*
X127032380Y-123102857D01*
X127080000Y-123245714D01*
X127127619Y-123293333D01*
X127460952Y-123864761D02*
X127413333Y-123769523D01*
X127365714Y-123721904D01*
X127270476Y-123674285D01*
X127222857Y-123674285D01*
X127127619Y-123721904D01*
X127080000Y-123769523D01*
X127032380Y-123864761D01*
X127032380Y-124055238D01*
X127080000Y-124150476D01*
X127127619Y-124198095D01*
X127222857Y-124245714D01*
X127270476Y-124245714D01*
X127365714Y-124198095D01*
X127413333Y-124150476D01*
X127460952Y-124055238D01*
X127460952Y-123864761D01*
X127508571Y-123769523D01*
X127556190Y-123721904D01*
X127651428Y-123674285D01*
X127841904Y-123674285D01*
X127937142Y-123721904D01*
X127984761Y-123769523D01*
X128032380Y-123864761D01*
X128032380Y-124055238D01*
X127984761Y-124150476D01*
X127937142Y-124198095D01*
X127841904Y-124245714D01*
X127651428Y-124245714D01*
X127556190Y-124198095D01*
X127508571Y-124150476D01*
X127460952Y-124055238D01*
X112887142Y-116283333D02*
X112934761Y-116235714D01*
X112982380Y-116092857D01*
X112982380Y-115997619D01*
X112934761Y-115854761D01*
X112839523Y-115759523D01*
X112744285Y-115711904D01*
X112553809Y-115664285D01*
X112410952Y-115664285D01*
X112220476Y-115711904D01*
X112125238Y-115759523D01*
X112030000Y-115854761D01*
X111982380Y-115997619D01*
X111982380Y-116092857D01*
X112030000Y-116235714D01*
X112077619Y-116283333D01*
X112982380Y-116759523D02*
X112982380Y-116950000D01*
X112934761Y-117045238D01*
X112887142Y-117092857D01*
X112744285Y-117188095D01*
X112553809Y-117235714D01*
X112172857Y-117235714D01*
X112077619Y-117188095D01*
X112030000Y-117140476D01*
X111982380Y-117045238D01*
X111982380Y-116854761D01*
X112030000Y-116759523D01*
X112077619Y-116711904D01*
X112172857Y-116664285D01*
X112410952Y-116664285D01*
X112506190Y-116711904D01*
X112553809Y-116759523D01*
X112601428Y-116854761D01*
X112601428Y-117045238D01*
X112553809Y-117140476D01*
X112506190Y-117188095D01*
X112410952Y-117235714D01*
X129267142Y-164657142D02*
X129314761Y-164609523D01*
X129362380Y-164466666D01*
X129362380Y-164371428D01*
X129314761Y-164228571D01*
X129219523Y-164133333D01*
X129124285Y-164085714D01*
X128933809Y-164038095D01*
X128790952Y-164038095D01*
X128600476Y-164085714D01*
X128505238Y-164133333D01*
X128410000Y-164228571D01*
X128362380Y-164371428D01*
X128362380Y-164466666D01*
X128410000Y-164609523D01*
X128457619Y-164657142D01*
X129362380Y-165609523D02*
X129362380Y-165038095D01*
X129362380Y-165323809D02*
X128362380Y-165323809D01*
X128505238Y-165228571D01*
X128600476Y-165133333D01*
X128648095Y-165038095D01*
X129362380Y-166561904D02*
X129362380Y-165990476D01*
X129362380Y-166276190D02*
X128362380Y-166276190D01*
X128505238Y-166180952D01*
X128600476Y-166085714D01*
X128648095Y-165990476D01*
X110282380Y-165621904D02*
X109282380Y-165621904D01*
X109282380Y-165860000D01*
X109330000Y-166002857D01*
X109425238Y-166098095D01*
X109520476Y-166145714D01*
X109710952Y-166193333D01*
X109853809Y-166193333D01*
X110044285Y-166145714D01*
X110139523Y-166098095D01*
X110234761Y-166002857D01*
X110282380Y-165860000D01*
X110282380Y-165621904D01*
X110282380Y-167145714D02*
X110282380Y-166574285D01*
X110282380Y-166860000D02*
X109282380Y-166860000D01*
X109425238Y-166764761D01*
X109520476Y-166669523D01*
X109568095Y-166574285D01*
X140582380Y-166306666D02*
X141296666Y-166306666D01*
X141439523Y-166259047D01*
X141534761Y-166163809D01*
X141582380Y-166020952D01*
X141582380Y-165925714D01*
X140677619Y-166735238D02*
X140630000Y-166782857D01*
X140582380Y-166878095D01*
X140582380Y-167116190D01*
X140630000Y-167211428D01*
X140677619Y-167259047D01*
X140772857Y-167306666D01*
X140868095Y-167306666D01*
X141010952Y-167259047D01*
X141582380Y-166687619D01*
X141582380Y-167306666D01*
X104012380Y-166126666D02*
X104726666Y-166126666D01*
X104869523Y-166079047D01*
X104964761Y-165983809D01*
X105012380Y-165840952D01*
X105012380Y-165745714D01*
X104012380Y-166507619D02*
X104012380Y-167126666D01*
X104393333Y-166793333D01*
X104393333Y-166936190D01*
X104440952Y-167031428D01*
X104488571Y-167079047D01*
X104583809Y-167126666D01*
X104821904Y-167126666D01*
X104917142Y-167079047D01*
X104964761Y-167031428D01*
X105012380Y-166936190D01*
X105012380Y-166650476D01*
X104964761Y-166555238D01*
X104917142Y-166507619D01*
X108282380Y-105616666D02*
X108996666Y-105616666D01*
X109139523Y-105569047D01*
X109234761Y-105473809D01*
X109282380Y-105330952D01*
X109282380Y-105235714D01*
X108615714Y-106521428D02*
X109282380Y-106521428D01*
X108234761Y-106283333D02*
X108949047Y-106045238D01*
X108949047Y-106664285D01*
X111342380Y-141143333D02*
X110866190Y-140810000D01*
X111342380Y-140571904D02*
X110342380Y-140571904D01*
X110342380Y-140952857D01*
X110390000Y-141048095D01*
X110437619Y-141095714D01*
X110532857Y-141143333D01*
X110675714Y-141143333D01*
X110770952Y-141095714D01*
X110818571Y-141048095D01*
X110866190Y-140952857D01*
X110866190Y-140571904D01*
X111342380Y-141619523D02*
X111342380Y-141810000D01*
X111294761Y-141905238D01*
X111247142Y-141952857D01*
X111104285Y-142048095D01*
X110913809Y-142095714D01*
X110532857Y-142095714D01*
X110437619Y-142048095D01*
X110390000Y-142000476D01*
X110342380Y-141905238D01*
X110342380Y-141714761D01*
X110390000Y-141619523D01*
X110437619Y-141571904D01*
X110532857Y-141524285D01*
X110770952Y-141524285D01*
X110866190Y-141571904D01*
X110913809Y-141619523D01*
X110961428Y-141714761D01*
X110961428Y-141905238D01*
X110913809Y-142000476D01*
X110866190Y-142048095D01*
X110770952Y-142095714D01*
X121612380Y-108547142D02*
X121136190Y-108213809D01*
X121612380Y-107975714D02*
X120612380Y-107975714D01*
X120612380Y-108356666D01*
X120660000Y-108451904D01*
X120707619Y-108499523D01*
X120802857Y-108547142D01*
X120945714Y-108547142D01*
X121040952Y-108499523D01*
X121088571Y-108451904D01*
X121136190Y-108356666D01*
X121136190Y-107975714D01*
X121612380Y-109499523D02*
X121612380Y-108928095D01*
X121612380Y-109213809D02*
X120612380Y-109213809D01*
X120755238Y-109118571D01*
X120850476Y-109023333D01*
X120898095Y-108928095D01*
X120612380Y-110118571D02*
X120612380Y-110213809D01*
X120660000Y-110309047D01*
X120707619Y-110356666D01*
X120802857Y-110404285D01*
X120993333Y-110451904D01*
X121231428Y-110451904D01*
X121421904Y-110404285D01*
X121517142Y-110356666D01*
X121564761Y-110309047D01*
X121612380Y-110213809D01*
X121612380Y-110118571D01*
X121564761Y-110023333D01*
X121517142Y-109975714D01*
X121421904Y-109928095D01*
X121231428Y-109880476D01*
X120993333Y-109880476D01*
X120802857Y-109928095D01*
X120707619Y-109975714D01*
X120660000Y-110023333D01*
X120612380Y-110118571D01*
X124652380Y-108607142D02*
X124176190Y-108273809D01*
X124652380Y-108035714D02*
X123652380Y-108035714D01*
X123652380Y-108416666D01*
X123700000Y-108511904D01*
X123747619Y-108559523D01*
X123842857Y-108607142D01*
X123985714Y-108607142D01*
X124080952Y-108559523D01*
X124128571Y-108511904D01*
X124176190Y-108416666D01*
X124176190Y-108035714D01*
X124652380Y-109559523D02*
X124652380Y-108988095D01*
X124652380Y-109273809D02*
X123652380Y-109273809D01*
X123795238Y-109178571D01*
X123890476Y-109083333D01*
X123938095Y-108988095D01*
X124652380Y-110511904D02*
X124652380Y-109940476D01*
X124652380Y-110226190D02*
X123652380Y-110226190D01*
X123795238Y-110130952D01*
X123890476Y-110035714D01*
X123938095Y-109940476D01*
X123082380Y-108567142D02*
X122606190Y-108233809D01*
X123082380Y-107995714D02*
X122082380Y-107995714D01*
X122082380Y-108376666D01*
X122130000Y-108471904D01*
X122177619Y-108519523D01*
X122272857Y-108567142D01*
X122415714Y-108567142D01*
X122510952Y-108519523D01*
X122558571Y-108471904D01*
X122606190Y-108376666D01*
X122606190Y-107995714D01*
X123082380Y-109519523D02*
X123082380Y-108948095D01*
X123082380Y-109233809D02*
X122082380Y-109233809D01*
X122225238Y-109138571D01*
X122320476Y-109043333D01*
X122368095Y-108948095D01*
X122177619Y-109900476D02*
X122130000Y-109948095D01*
X122082380Y-110043333D01*
X122082380Y-110281428D01*
X122130000Y-110376666D01*
X122177619Y-110424285D01*
X122272857Y-110471904D01*
X122368095Y-110471904D01*
X122510952Y-110424285D01*
X123082380Y-109852857D01*
X123082380Y-110471904D01*
X126192380Y-108607142D02*
X125716190Y-108273809D01*
X126192380Y-108035714D02*
X125192380Y-108035714D01*
X125192380Y-108416666D01*
X125240000Y-108511904D01*
X125287619Y-108559523D01*
X125382857Y-108607142D01*
X125525714Y-108607142D01*
X125620952Y-108559523D01*
X125668571Y-108511904D01*
X125716190Y-108416666D01*
X125716190Y-108035714D01*
X126192380Y-109559523D02*
X126192380Y-108988095D01*
X126192380Y-109273809D02*
X125192380Y-109273809D01*
X125335238Y-109178571D01*
X125430476Y-109083333D01*
X125478095Y-108988095D01*
X125192380Y-109892857D02*
X125192380Y-110511904D01*
X125573333Y-110178571D01*
X125573333Y-110321428D01*
X125620952Y-110416666D01*
X125668571Y-110464285D01*
X125763809Y-110511904D01*
X126001904Y-110511904D01*
X126097142Y-110464285D01*
X126144761Y-110416666D01*
X126192380Y-110321428D01*
X126192380Y-110035714D01*
X126144761Y-109940476D01*
X126097142Y-109892857D01*
X116872380Y-103589523D02*
X116396190Y-103256190D01*
X116872380Y-103018095D02*
X115872380Y-103018095D01*
X115872380Y-103399047D01*
X115920000Y-103494285D01*
X115967619Y-103541904D01*
X116062857Y-103589523D01*
X116205714Y-103589523D01*
X116300952Y-103541904D01*
X116348571Y-103494285D01*
X116396190Y-103399047D01*
X116396190Y-103018095D01*
X116872380Y-104018095D02*
X115872380Y-104018095D01*
X116872380Y-104589523D01*
X115872380Y-104589523D01*
X115967619Y-105018095D02*
X115920000Y-105065714D01*
X115872380Y-105160952D01*
X115872380Y-105399047D01*
X115920000Y-105494285D01*
X115967619Y-105541904D01*
X116062857Y-105589523D01*
X116158095Y-105589523D01*
X116300952Y-105541904D01*
X116872380Y-104970476D01*
X116872380Y-105589523D01*
X123802380Y-156628095D02*
X124611904Y-156628095D01*
X124707142Y-156675714D01*
X124754761Y-156723333D01*
X124802380Y-156818571D01*
X124802380Y-157009047D01*
X124754761Y-157104285D01*
X124707142Y-157151904D01*
X124611904Y-157199523D01*
X123802380Y-157199523D01*
X124802380Y-158199523D02*
X124802380Y-157628095D01*
X124802380Y-157913809D02*
X123802380Y-157913809D01*
X123945238Y-157818571D01*
X124040476Y-157723333D01*
X124088095Y-157628095D01*
X135455973Y-144091522D02*
X134883553Y-144663942D01*
X134782538Y-144697614D01*
X134715194Y-144697614D01*
X134614179Y-144663942D01*
X134479492Y-144529255D01*
X134445820Y-144428240D01*
X134445820Y-144360896D01*
X134479492Y-144259881D01*
X135051912Y-143687461D01*
X134681522Y-143451759D02*
X134681522Y-143384416D01*
X134647851Y-143283400D01*
X134479492Y-143115042D01*
X134378477Y-143081370D01*
X134311133Y-143081370D01*
X134210118Y-143115042D01*
X134142774Y-143182385D01*
X134075431Y-143317072D01*
X134075431Y-144125194D01*
X133637698Y-143687461D01*
X119982380Y-126838095D02*
X120791904Y-126838095D01*
X120887142Y-126885714D01*
X120934761Y-126933333D01*
X120982380Y-127028571D01*
X120982380Y-127219047D01*
X120934761Y-127314285D01*
X120887142Y-127361904D01*
X120791904Y-127409523D01*
X119982380Y-127409523D01*
X119982380Y-127790476D02*
X119982380Y-128409523D01*
X120363333Y-128076190D01*
X120363333Y-128219047D01*
X120410952Y-128314285D01*
X120458571Y-128361904D01*
X120553809Y-128409523D01*
X120791904Y-128409523D01*
X120887142Y-128361904D01*
X120934761Y-128314285D01*
X120982380Y-128219047D01*
X120982380Y-127933333D01*
X120934761Y-127838095D01*
X120887142Y-127790476D01*
X128602380Y-167478095D02*
X129411904Y-167478095D01*
X129507142Y-167525714D01*
X129554761Y-167573333D01*
X129602380Y-167668571D01*
X129602380Y-167859047D01*
X129554761Y-167954285D01*
X129507142Y-168001904D01*
X129411904Y-168049523D01*
X128602380Y-168049523D01*
X128935714Y-168954285D02*
X129602380Y-168954285D01*
X128554761Y-168716190D02*
X129269047Y-168478095D01*
X129269047Y-169097142D01*
X129646190Y-155763809D02*
X130122380Y-155763809D01*
X129122380Y-155430476D02*
X129646190Y-155763809D01*
X129122380Y-156097142D01*
X130122380Y-156954285D02*
X130122380Y-156382857D01*
X130122380Y-156668571D02*
X129122380Y-156668571D01*
X129265238Y-156573333D01*
X129360476Y-156478095D01*
X129408095Y-156382857D01*
X131796190Y-149973809D02*
X132272380Y-149973809D01*
X131272380Y-149640476D02*
X131796190Y-149973809D01*
X131272380Y-150307142D01*
X131367619Y-150592857D02*
X131320000Y-150640476D01*
X131272380Y-150735714D01*
X131272380Y-150973809D01*
X131320000Y-151069047D01*
X131367619Y-151116666D01*
X131462857Y-151164285D01*
X131558095Y-151164285D01*
X131700952Y-151116666D01*
X132272380Y-150545238D01*
X132272380Y-151164285D01*
X139974761Y-100596666D02*
X140022380Y-100739523D01*
X140022380Y-100977619D01*
X139974761Y-101072857D01*
X139927142Y-101120476D01*
X139831904Y-101168095D01*
X139736666Y-101168095D01*
X139641428Y-101120476D01*
X139593809Y-101072857D01*
X139546190Y-100977619D01*
X139498571Y-100787142D01*
X139450952Y-100691904D01*
X139403333Y-100644285D01*
X139308095Y-100596666D01*
X139212857Y-100596666D01*
X139117619Y-100644285D01*
X139070000Y-100691904D01*
X139022380Y-100787142D01*
X139022380Y-101025238D01*
X139070000Y-101168095D01*
X139022380Y-101501428D02*
X140022380Y-101739523D01*
X139308095Y-101930000D01*
X140022380Y-102120476D01*
X139022380Y-102358571D01*
X140022380Y-103263333D02*
X140022380Y-102691904D01*
X140022380Y-102977619D02*
X139022380Y-102977619D01*
X139165238Y-102882380D01*
X139260476Y-102787142D01*
X139308095Y-102691904D01*
X139944761Y-106616666D02*
X139992380Y-106759523D01*
X139992380Y-106997619D01*
X139944761Y-107092857D01*
X139897142Y-107140476D01*
X139801904Y-107188095D01*
X139706666Y-107188095D01*
X139611428Y-107140476D01*
X139563809Y-107092857D01*
X139516190Y-106997619D01*
X139468571Y-106807142D01*
X139420952Y-106711904D01*
X139373333Y-106664285D01*
X139278095Y-106616666D01*
X139182857Y-106616666D01*
X139087619Y-106664285D01*
X139040000Y-106711904D01*
X138992380Y-106807142D01*
X138992380Y-107045238D01*
X139040000Y-107188095D01*
X138992380Y-107521428D02*
X139992380Y-107759523D01*
X139278095Y-107950000D01*
X139992380Y-108140476D01*
X138992380Y-108378571D01*
X139087619Y-108711904D02*
X139040000Y-108759523D01*
X138992380Y-108854761D01*
X138992380Y-109092857D01*
X139040000Y-109188095D01*
X139087619Y-109235714D01*
X139182857Y-109283333D01*
X139278095Y-109283333D01*
X139420952Y-109235714D01*
X139992380Y-108664285D01*
X139992380Y-109283333D01*
M02*
