G04 #@! TF.GenerationSoftware,KiCad,Pcbnew,(5.1.4)-1*
G04 #@! TF.CreationDate,2019-12-31T12:49:38+08:00*
G04 #@! TF.ProjectId,FH26W-45S-0.3SHW-DIP,46483236-572d-4343-9553-2d302e335348,rev?*
G04 #@! TF.SameCoordinates,Original*
G04 #@! TF.FileFunction,Paste,Bot*
G04 #@! TF.FilePolarity,Positive*
%FSLAX46Y46*%
G04 Gerber Fmt 4.6, Leading zero omitted, Abs format (unit mm)*
G04 Created by KiCad (PCBNEW (5.1.4)-1) date 2019-12-31 12:49:38*
%MOMM*%
%LPD*%
G04 APERTURE LIST*
%ADD10R,1.000000X0.550000*%
%ADD11R,1.500000X0.300000*%
%ADD12R,1.650000X0.300000*%
%ADD13C,0.100000*%
%ADD14C,0.950000*%
%ADD15C,1.425000*%
%ADD16R,0.650000X1.560000*%
%ADD17R,3.800000X2.000000*%
%ADD18R,1.500000X2.000000*%
%ADD19R,1.000000X3.150000*%
%ADD20C,1.250000*%
G04 APERTURE END LIST*
D10*
X148060000Y-43740000D03*
X148060000Y-58500000D03*
D11*
X145110000Y-44800000D03*
X145110000Y-45400000D03*
X145110000Y-46000000D03*
X145110000Y-46600000D03*
X145110000Y-47200000D03*
X145110000Y-47800000D03*
X145110000Y-48400000D03*
X145110000Y-49000000D03*
X145110000Y-49600000D03*
X145110000Y-50200000D03*
X145110000Y-50800000D03*
X145110000Y-51400000D03*
X145110000Y-52000000D03*
X145110000Y-52600000D03*
X145110000Y-53200000D03*
X145110000Y-53800000D03*
X145110000Y-54400000D03*
X145110000Y-55000000D03*
X145110000Y-55600000D03*
X145110000Y-56200000D03*
X145110000Y-56800000D03*
X145110000Y-57400000D03*
D12*
X148795000Y-44520000D03*
X148795000Y-45120000D03*
X148795000Y-45720000D03*
X148795000Y-46320000D03*
X148795000Y-46920000D03*
X148795000Y-47520000D03*
X148795000Y-48120000D03*
X148795000Y-48720000D03*
X148795000Y-49320000D03*
X148795000Y-49920000D03*
X148795000Y-50520000D03*
X148795000Y-51120000D03*
X148795000Y-51720000D03*
X148795000Y-52320000D03*
X148795000Y-52920000D03*
X148795000Y-53520000D03*
X148795000Y-54120000D03*
X148795000Y-54720000D03*
X148795000Y-55320000D03*
X148795000Y-55920000D03*
X148795000Y-56520000D03*
X148795000Y-57120000D03*
X148795000Y-57720000D03*
D13*
G36*
X137630779Y-92706144D02*
G01*
X137653834Y-92709563D01*
X137676443Y-92715227D01*
X137698387Y-92723079D01*
X137719457Y-92733044D01*
X137739448Y-92745026D01*
X137758168Y-92758910D01*
X137775438Y-92774562D01*
X137791090Y-92791832D01*
X137804974Y-92810552D01*
X137816956Y-92830543D01*
X137826921Y-92851613D01*
X137834773Y-92873557D01*
X137840437Y-92896166D01*
X137843856Y-92919221D01*
X137845000Y-92942500D01*
X137845000Y-93517500D01*
X137843856Y-93540779D01*
X137840437Y-93563834D01*
X137834773Y-93586443D01*
X137826921Y-93608387D01*
X137816956Y-93629457D01*
X137804974Y-93649448D01*
X137791090Y-93668168D01*
X137775438Y-93685438D01*
X137758168Y-93701090D01*
X137739448Y-93714974D01*
X137719457Y-93726956D01*
X137698387Y-93736921D01*
X137676443Y-93744773D01*
X137653834Y-93750437D01*
X137630779Y-93753856D01*
X137607500Y-93755000D01*
X137132500Y-93755000D01*
X137109221Y-93753856D01*
X137086166Y-93750437D01*
X137063557Y-93744773D01*
X137041613Y-93736921D01*
X137020543Y-93726956D01*
X137000552Y-93714974D01*
X136981832Y-93701090D01*
X136964562Y-93685438D01*
X136948910Y-93668168D01*
X136935026Y-93649448D01*
X136923044Y-93629457D01*
X136913079Y-93608387D01*
X136905227Y-93586443D01*
X136899563Y-93563834D01*
X136896144Y-93540779D01*
X136895000Y-93517500D01*
X136895000Y-92942500D01*
X136896144Y-92919221D01*
X136899563Y-92896166D01*
X136905227Y-92873557D01*
X136913079Y-92851613D01*
X136923044Y-92830543D01*
X136935026Y-92810552D01*
X136948910Y-92791832D01*
X136964562Y-92774562D01*
X136981832Y-92758910D01*
X137000552Y-92745026D01*
X137020543Y-92733044D01*
X137041613Y-92723079D01*
X137063557Y-92715227D01*
X137086166Y-92709563D01*
X137109221Y-92706144D01*
X137132500Y-92705000D01*
X137607500Y-92705000D01*
X137630779Y-92706144D01*
X137630779Y-92706144D01*
G37*
D14*
X137370000Y-93230000D03*
D13*
G36*
X137630779Y-90956144D02*
G01*
X137653834Y-90959563D01*
X137676443Y-90965227D01*
X137698387Y-90973079D01*
X137719457Y-90983044D01*
X137739448Y-90995026D01*
X137758168Y-91008910D01*
X137775438Y-91024562D01*
X137791090Y-91041832D01*
X137804974Y-91060552D01*
X137816956Y-91080543D01*
X137826921Y-91101613D01*
X137834773Y-91123557D01*
X137840437Y-91146166D01*
X137843856Y-91169221D01*
X137845000Y-91192500D01*
X137845000Y-91767500D01*
X137843856Y-91790779D01*
X137840437Y-91813834D01*
X137834773Y-91836443D01*
X137826921Y-91858387D01*
X137816956Y-91879457D01*
X137804974Y-91899448D01*
X137791090Y-91918168D01*
X137775438Y-91935438D01*
X137758168Y-91951090D01*
X137739448Y-91964974D01*
X137719457Y-91976956D01*
X137698387Y-91986921D01*
X137676443Y-91994773D01*
X137653834Y-92000437D01*
X137630779Y-92003856D01*
X137607500Y-92005000D01*
X137132500Y-92005000D01*
X137109221Y-92003856D01*
X137086166Y-92000437D01*
X137063557Y-91994773D01*
X137041613Y-91986921D01*
X137020543Y-91976956D01*
X137000552Y-91964974D01*
X136981832Y-91951090D01*
X136964562Y-91935438D01*
X136948910Y-91918168D01*
X136935026Y-91899448D01*
X136923044Y-91879457D01*
X136913079Y-91858387D01*
X136905227Y-91836443D01*
X136899563Y-91813834D01*
X136896144Y-91790779D01*
X136895000Y-91767500D01*
X136895000Y-91192500D01*
X136896144Y-91169221D01*
X136899563Y-91146166D01*
X136905227Y-91123557D01*
X136913079Y-91101613D01*
X136923044Y-91080543D01*
X136935026Y-91060552D01*
X136948910Y-91041832D01*
X136964562Y-91024562D01*
X136981832Y-91008910D01*
X137000552Y-90995026D01*
X137020543Y-90983044D01*
X137041613Y-90973079D01*
X137063557Y-90965227D01*
X137086166Y-90959563D01*
X137109221Y-90956144D01*
X137132500Y-90955000D01*
X137607500Y-90955000D01*
X137630779Y-90956144D01*
X137630779Y-90956144D01*
G37*
D14*
X137370000Y-91480000D03*
D13*
G36*
X148000779Y-74831144D02*
G01*
X148023834Y-74834563D01*
X148046443Y-74840227D01*
X148068387Y-74848079D01*
X148089457Y-74858044D01*
X148109448Y-74870026D01*
X148128168Y-74883910D01*
X148145438Y-74899562D01*
X148161090Y-74916832D01*
X148174974Y-74935552D01*
X148186956Y-74955543D01*
X148196921Y-74976613D01*
X148204773Y-74998557D01*
X148210437Y-75021166D01*
X148213856Y-75044221D01*
X148215000Y-75067500D01*
X148215000Y-75642500D01*
X148213856Y-75665779D01*
X148210437Y-75688834D01*
X148204773Y-75711443D01*
X148196921Y-75733387D01*
X148186956Y-75754457D01*
X148174974Y-75774448D01*
X148161090Y-75793168D01*
X148145438Y-75810438D01*
X148128168Y-75826090D01*
X148109448Y-75839974D01*
X148089457Y-75851956D01*
X148068387Y-75861921D01*
X148046443Y-75869773D01*
X148023834Y-75875437D01*
X148000779Y-75878856D01*
X147977500Y-75880000D01*
X147502500Y-75880000D01*
X147479221Y-75878856D01*
X147456166Y-75875437D01*
X147433557Y-75869773D01*
X147411613Y-75861921D01*
X147390543Y-75851956D01*
X147370552Y-75839974D01*
X147351832Y-75826090D01*
X147334562Y-75810438D01*
X147318910Y-75793168D01*
X147305026Y-75774448D01*
X147293044Y-75754457D01*
X147283079Y-75733387D01*
X147275227Y-75711443D01*
X147269563Y-75688834D01*
X147266144Y-75665779D01*
X147265000Y-75642500D01*
X147265000Y-75067500D01*
X147266144Y-75044221D01*
X147269563Y-75021166D01*
X147275227Y-74998557D01*
X147283079Y-74976613D01*
X147293044Y-74955543D01*
X147305026Y-74935552D01*
X147318910Y-74916832D01*
X147334562Y-74899562D01*
X147351832Y-74883910D01*
X147370552Y-74870026D01*
X147390543Y-74858044D01*
X147411613Y-74848079D01*
X147433557Y-74840227D01*
X147456166Y-74834563D01*
X147479221Y-74831144D01*
X147502500Y-74830000D01*
X147977500Y-74830000D01*
X148000779Y-74831144D01*
X148000779Y-74831144D01*
G37*
D14*
X147740000Y-75355000D03*
D13*
G36*
X148000779Y-76581144D02*
G01*
X148023834Y-76584563D01*
X148046443Y-76590227D01*
X148068387Y-76598079D01*
X148089457Y-76608044D01*
X148109448Y-76620026D01*
X148128168Y-76633910D01*
X148145438Y-76649562D01*
X148161090Y-76666832D01*
X148174974Y-76685552D01*
X148186956Y-76705543D01*
X148196921Y-76726613D01*
X148204773Y-76748557D01*
X148210437Y-76771166D01*
X148213856Y-76794221D01*
X148215000Y-76817500D01*
X148215000Y-77392500D01*
X148213856Y-77415779D01*
X148210437Y-77438834D01*
X148204773Y-77461443D01*
X148196921Y-77483387D01*
X148186956Y-77504457D01*
X148174974Y-77524448D01*
X148161090Y-77543168D01*
X148145438Y-77560438D01*
X148128168Y-77576090D01*
X148109448Y-77589974D01*
X148089457Y-77601956D01*
X148068387Y-77611921D01*
X148046443Y-77619773D01*
X148023834Y-77625437D01*
X148000779Y-77628856D01*
X147977500Y-77630000D01*
X147502500Y-77630000D01*
X147479221Y-77628856D01*
X147456166Y-77625437D01*
X147433557Y-77619773D01*
X147411613Y-77611921D01*
X147390543Y-77601956D01*
X147370552Y-77589974D01*
X147351832Y-77576090D01*
X147334562Y-77560438D01*
X147318910Y-77543168D01*
X147305026Y-77524448D01*
X147293044Y-77504457D01*
X147283079Y-77483387D01*
X147275227Y-77461443D01*
X147269563Y-77438834D01*
X147266144Y-77415779D01*
X147265000Y-77392500D01*
X147265000Y-76817500D01*
X147266144Y-76794221D01*
X147269563Y-76771166D01*
X147275227Y-76748557D01*
X147283079Y-76726613D01*
X147293044Y-76705543D01*
X147305026Y-76685552D01*
X147318910Y-76666832D01*
X147334562Y-76649562D01*
X147351832Y-76633910D01*
X147370552Y-76620026D01*
X147390543Y-76608044D01*
X147411613Y-76598079D01*
X147433557Y-76590227D01*
X147456166Y-76584563D01*
X147479221Y-76581144D01*
X147502500Y-76580000D01*
X147977500Y-76580000D01*
X148000779Y-76581144D01*
X148000779Y-76581144D01*
G37*
D14*
X147740000Y-77105000D03*
D13*
G36*
X135810779Y-92696144D02*
G01*
X135833834Y-92699563D01*
X135856443Y-92705227D01*
X135878387Y-92713079D01*
X135899457Y-92723044D01*
X135919448Y-92735026D01*
X135938168Y-92748910D01*
X135955438Y-92764562D01*
X135971090Y-92781832D01*
X135984974Y-92800552D01*
X135996956Y-92820543D01*
X136006921Y-92841613D01*
X136014773Y-92863557D01*
X136020437Y-92886166D01*
X136023856Y-92909221D01*
X136025000Y-92932500D01*
X136025000Y-93507500D01*
X136023856Y-93530779D01*
X136020437Y-93553834D01*
X136014773Y-93576443D01*
X136006921Y-93598387D01*
X135996956Y-93619457D01*
X135984974Y-93639448D01*
X135971090Y-93658168D01*
X135955438Y-93675438D01*
X135938168Y-93691090D01*
X135919448Y-93704974D01*
X135899457Y-93716956D01*
X135878387Y-93726921D01*
X135856443Y-93734773D01*
X135833834Y-93740437D01*
X135810779Y-93743856D01*
X135787500Y-93745000D01*
X135312500Y-93745000D01*
X135289221Y-93743856D01*
X135266166Y-93740437D01*
X135243557Y-93734773D01*
X135221613Y-93726921D01*
X135200543Y-93716956D01*
X135180552Y-93704974D01*
X135161832Y-93691090D01*
X135144562Y-93675438D01*
X135128910Y-93658168D01*
X135115026Y-93639448D01*
X135103044Y-93619457D01*
X135093079Y-93598387D01*
X135085227Y-93576443D01*
X135079563Y-93553834D01*
X135076144Y-93530779D01*
X135075000Y-93507500D01*
X135075000Y-92932500D01*
X135076144Y-92909221D01*
X135079563Y-92886166D01*
X135085227Y-92863557D01*
X135093079Y-92841613D01*
X135103044Y-92820543D01*
X135115026Y-92800552D01*
X135128910Y-92781832D01*
X135144562Y-92764562D01*
X135161832Y-92748910D01*
X135180552Y-92735026D01*
X135200543Y-92723044D01*
X135221613Y-92713079D01*
X135243557Y-92705227D01*
X135266166Y-92699563D01*
X135289221Y-92696144D01*
X135312500Y-92695000D01*
X135787500Y-92695000D01*
X135810779Y-92696144D01*
X135810779Y-92696144D01*
G37*
D14*
X135550000Y-93220000D03*
D13*
G36*
X135810779Y-90946144D02*
G01*
X135833834Y-90949563D01*
X135856443Y-90955227D01*
X135878387Y-90963079D01*
X135899457Y-90973044D01*
X135919448Y-90985026D01*
X135938168Y-90998910D01*
X135955438Y-91014562D01*
X135971090Y-91031832D01*
X135984974Y-91050552D01*
X135996956Y-91070543D01*
X136006921Y-91091613D01*
X136014773Y-91113557D01*
X136020437Y-91136166D01*
X136023856Y-91159221D01*
X136025000Y-91182500D01*
X136025000Y-91757500D01*
X136023856Y-91780779D01*
X136020437Y-91803834D01*
X136014773Y-91826443D01*
X136006921Y-91848387D01*
X135996956Y-91869457D01*
X135984974Y-91889448D01*
X135971090Y-91908168D01*
X135955438Y-91925438D01*
X135938168Y-91941090D01*
X135919448Y-91954974D01*
X135899457Y-91966956D01*
X135878387Y-91976921D01*
X135856443Y-91984773D01*
X135833834Y-91990437D01*
X135810779Y-91993856D01*
X135787500Y-91995000D01*
X135312500Y-91995000D01*
X135289221Y-91993856D01*
X135266166Y-91990437D01*
X135243557Y-91984773D01*
X135221613Y-91976921D01*
X135200543Y-91966956D01*
X135180552Y-91954974D01*
X135161832Y-91941090D01*
X135144562Y-91925438D01*
X135128910Y-91908168D01*
X135115026Y-91889448D01*
X135103044Y-91869457D01*
X135093079Y-91848387D01*
X135085227Y-91826443D01*
X135079563Y-91803834D01*
X135076144Y-91780779D01*
X135075000Y-91757500D01*
X135075000Y-91182500D01*
X135076144Y-91159221D01*
X135079563Y-91136166D01*
X135085227Y-91113557D01*
X135093079Y-91091613D01*
X135103044Y-91070543D01*
X135115026Y-91050552D01*
X135128910Y-91031832D01*
X135144562Y-91014562D01*
X135161832Y-90998910D01*
X135180552Y-90985026D01*
X135200543Y-90973044D01*
X135221613Y-90963079D01*
X135243557Y-90955227D01*
X135266166Y-90949563D01*
X135289221Y-90946144D01*
X135312500Y-90945000D01*
X135787500Y-90945000D01*
X135810779Y-90946144D01*
X135810779Y-90946144D01*
G37*
D14*
X135550000Y-91470000D03*
D13*
G36*
X137700779Y-76546144D02*
G01*
X137723834Y-76549563D01*
X137746443Y-76555227D01*
X137768387Y-76563079D01*
X137789457Y-76573044D01*
X137809448Y-76585026D01*
X137828168Y-76598910D01*
X137845438Y-76614562D01*
X137861090Y-76631832D01*
X137874974Y-76650552D01*
X137886956Y-76670543D01*
X137896921Y-76691613D01*
X137904773Y-76713557D01*
X137910437Y-76736166D01*
X137913856Y-76759221D01*
X137915000Y-76782500D01*
X137915000Y-77357500D01*
X137913856Y-77380779D01*
X137910437Y-77403834D01*
X137904773Y-77426443D01*
X137896921Y-77448387D01*
X137886956Y-77469457D01*
X137874974Y-77489448D01*
X137861090Y-77508168D01*
X137845438Y-77525438D01*
X137828168Y-77541090D01*
X137809448Y-77554974D01*
X137789457Y-77566956D01*
X137768387Y-77576921D01*
X137746443Y-77584773D01*
X137723834Y-77590437D01*
X137700779Y-77593856D01*
X137677500Y-77595000D01*
X137202500Y-77595000D01*
X137179221Y-77593856D01*
X137156166Y-77590437D01*
X137133557Y-77584773D01*
X137111613Y-77576921D01*
X137090543Y-77566956D01*
X137070552Y-77554974D01*
X137051832Y-77541090D01*
X137034562Y-77525438D01*
X137018910Y-77508168D01*
X137005026Y-77489448D01*
X136993044Y-77469457D01*
X136983079Y-77448387D01*
X136975227Y-77426443D01*
X136969563Y-77403834D01*
X136966144Y-77380779D01*
X136965000Y-77357500D01*
X136965000Y-76782500D01*
X136966144Y-76759221D01*
X136969563Y-76736166D01*
X136975227Y-76713557D01*
X136983079Y-76691613D01*
X136993044Y-76670543D01*
X137005026Y-76650552D01*
X137018910Y-76631832D01*
X137034562Y-76614562D01*
X137051832Y-76598910D01*
X137070552Y-76585026D01*
X137090543Y-76573044D01*
X137111613Y-76563079D01*
X137133557Y-76555227D01*
X137156166Y-76549563D01*
X137179221Y-76546144D01*
X137202500Y-76545000D01*
X137677500Y-76545000D01*
X137700779Y-76546144D01*
X137700779Y-76546144D01*
G37*
D14*
X137440000Y-77070000D03*
D13*
G36*
X137700779Y-74796144D02*
G01*
X137723834Y-74799563D01*
X137746443Y-74805227D01*
X137768387Y-74813079D01*
X137789457Y-74823044D01*
X137809448Y-74835026D01*
X137828168Y-74848910D01*
X137845438Y-74864562D01*
X137861090Y-74881832D01*
X137874974Y-74900552D01*
X137886956Y-74920543D01*
X137896921Y-74941613D01*
X137904773Y-74963557D01*
X137910437Y-74986166D01*
X137913856Y-75009221D01*
X137915000Y-75032500D01*
X137915000Y-75607500D01*
X137913856Y-75630779D01*
X137910437Y-75653834D01*
X137904773Y-75676443D01*
X137896921Y-75698387D01*
X137886956Y-75719457D01*
X137874974Y-75739448D01*
X137861090Y-75758168D01*
X137845438Y-75775438D01*
X137828168Y-75791090D01*
X137809448Y-75804974D01*
X137789457Y-75816956D01*
X137768387Y-75826921D01*
X137746443Y-75834773D01*
X137723834Y-75840437D01*
X137700779Y-75843856D01*
X137677500Y-75845000D01*
X137202500Y-75845000D01*
X137179221Y-75843856D01*
X137156166Y-75840437D01*
X137133557Y-75834773D01*
X137111613Y-75826921D01*
X137090543Y-75816956D01*
X137070552Y-75804974D01*
X137051832Y-75791090D01*
X137034562Y-75775438D01*
X137018910Y-75758168D01*
X137005026Y-75739448D01*
X136993044Y-75719457D01*
X136983079Y-75698387D01*
X136975227Y-75676443D01*
X136969563Y-75653834D01*
X136966144Y-75630779D01*
X136965000Y-75607500D01*
X136965000Y-75032500D01*
X136966144Y-75009221D01*
X136969563Y-74986166D01*
X136975227Y-74963557D01*
X136983079Y-74941613D01*
X136993044Y-74920543D01*
X137005026Y-74900552D01*
X137018910Y-74881832D01*
X137034562Y-74864562D01*
X137051832Y-74848910D01*
X137070552Y-74835026D01*
X137090543Y-74823044D01*
X137111613Y-74813079D01*
X137133557Y-74805227D01*
X137156166Y-74799563D01*
X137179221Y-74796144D01*
X137202500Y-74795000D01*
X137677500Y-74795000D01*
X137700779Y-74796144D01*
X137700779Y-74796144D01*
G37*
D14*
X137440000Y-75320000D03*
D13*
G36*
X146172004Y-85046204D02*
G01*
X146196273Y-85049804D01*
X146220071Y-85055765D01*
X146243171Y-85064030D01*
X146265349Y-85074520D01*
X146286393Y-85087133D01*
X146306098Y-85101747D01*
X146324277Y-85118223D01*
X146340753Y-85136402D01*
X146355367Y-85156107D01*
X146367980Y-85177151D01*
X146378470Y-85199329D01*
X146386735Y-85222429D01*
X146392696Y-85246227D01*
X146396296Y-85270496D01*
X146397500Y-85295000D01*
X146397500Y-86545000D01*
X146396296Y-86569504D01*
X146392696Y-86593773D01*
X146386735Y-86617571D01*
X146378470Y-86640671D01*
X146367980Y-86662849D01*
X146355367Y-86683893D01*
X146340753Y-86703598D01*
X146324277Y-86721777D01*
X146306098Y-86738253D01*
X146286393Y-86752867D01*
X146265349Y-86765480D01*
X146243171Y-86775970D01*
X146220071Y-86784235D01*
X146196273Y-86790196D01*
X146172004Y-86793796D01*
X146147500Y-86795000D01*
X145222500Y-86795000D01*
X145197996Y-86793796D01*
X145173727Y-86790196D01*
X145149929Y-86784235D01*
X145126829Y-86775970D01*
X145104651Y-86765480D01*
X145083607Y-86752867D01*
X145063902Y-86738253D01*
X145045723Y-86721777D01*
X145029247Y-86703598D01*
X145014633Y-86683893D01*
X145002020Y-86662849D01*
X144991530Y-86640671D01*
X144983265Y-86617571D01*
X144977304Y-86593773D01*
X144973704Y-86569504D01*
X144972500Y-86545000D01*
X144972500Y-85295000D01*
X144973704Y-85270496D01*
X144977304Y-85246227D01*
X144983265Y-85222429D01*
X144991530Y-85199329D01*
X145002020Y-85177151D01*
X145014633Y-85156107D01*
X145029247Y-85136402D01*
X145045723Y-85118223D01*
X145063902Y-85101747D01*
X145083607Y-85087133D01*
X145104651Y-85074520D01*
X145126829Y-85064030D01*
X145149929Y-85055765D01*
X145173727Y-85049804D01*
X145197996Y-85046204D01*
X145222500Y-85045000D01*
X146147500Y-85045000D01*
X146172004Y-85046204D01*
X146172004Y-85046204D01*
G37*
D15*
X145685000Y-85920000D03*
D13*
G36*
X143197004Y-85046204D02*
G01*
X143221273Y-85049804D01*
X143245071Y-85055765D01*
X143268171Y-85064030D01*
X143290349Y-85074520D01*
X143311393Y-85087133D01*
X143331098Y-85101747D01*
X143349277Y-85118223D01*
X143365753Y-85136402D01*
X143380367Y-85156107D01*
X143392980Y-85177151D01*
X143403470Y-85199329D01*
X143411735Y-85222429D01*
X143417696Y-85246227D01*
X143421296Y-85270496D01*
X143422500Y-85295000D01*
X143422500Y-86545000D01*
X143421296Y-86569504D01*
X143417696Y-86593773D01*
X143411735Y-86617571D01*
X143403470Y-86640671D01*
X143392980Y-86662849D01*
X143380367Y-86683893D01*
X143365753Y-86703598D01*
X143349277Y-86721777D01*
X143331098Y-86738253D01*
X143311393Y-86752867D01*
X143290349Y-86765480D01*
X143268171Y-86775970D01*
X143245071Y-86784235D01*
X143221273Y-86790196D01*
X143197004Y-86793796D01*
X143172500Y-86795000D01*
X142247500Y-86795000D01*
X142222996Y-86793796D01*
X142198727Y-86790196D01*
X142174929Y-86784235D01*
X142151829Y-86775970D01*
X142129651Y-86765480D01*
X142108607Y-86752867D01*
X142088902Y-86738253D01*
X142070723Y-86721777D01*
X142054247Y-86703598D01*
X142039633Y-86683893D01*
X142027020Y-86662849D01*
X142016530Y-86640671D01*
X142008265Y-86617571D01*
X142002304Y-86593773D01*
X141998704Y-86569504D01*
X141997500Y-86545000D01*
X141997500Y-85295000D01*
X141998704Y-85270496D01*
X142002304Y-85246227D01*
X142008265Y-85222429D01*
X142016530Y-85199329D01*
X142027020Y-85177151D01*
X142039633Y-85156107D01*
X142054247Y-85136402D01*
X142070723Y-85118223D01*
X142088902Y-85101747D01*
X142108607Y-85087133D01*
X142129651Y-85074520D01*
X142151829Y-85064030D01*
X142174929Y-85055765D01*
X142198727Y-85049804D01*
X142222996Y-85046204D01*
X142247500Y-85045000D01*
X143172500Y-85045000D01*
X143197004Y-85046204D01*
X143197004Y-85046204D01*
G37*
D15*
X142710000Y-85920000D03*
D13*
G36*
X149070779Y-92786144D02*
G01*
X149093834Y-92789563D01*
X149116443Y-92795227D01*
X149138387Y-92803079D01*
X149159457Y-92813044D01*
X149179448Y-92825026D01*
X149198168Y-92838910D01*
X149215438Y-92854562D01*
X149231090Y-92871832D01*
X149244974Y-92890552D01*
X149256956Y-92910543D01*
X149266921Y-92931613D01*
X149274773Y-92953557D01*
X149280437Y-92976166D01*
X149283856Y-92999221D01*
X149285000Y-93022500D01*
X149285000Y-93597500D01*
X149283856Y-93620779D01*
X149280437Y-93643834D01*
X149274773Y-93666443D01*
X149266921Y-93688387D01*
X149256956Y-93709457D01*
X149244974Y-93729448D01*
X149231090Y-93748168D01*
X149215438Y-93765438D01*
X149198168Y-93781090D01*
X149179448Y-93794974D01*
X149159457Y-93806956D01*
X149138387Y-93816921D01*
X149116443Y-93824773D01*
X149093834Y-93830437D01*
X149070779Y-93833856D01*
X149047500Y-93835000D01*
X148572500Y-93835000D01*
X148549221Y-93833856D01*
X148526166Y-93830437D01*
X148503557Y-93824773D01*
X148481613Y-93816921D01*
X148460543Y-93806956D01*
X148440552Y-93794974D01*
X148421832Y-93781090D01*
X148404562Y-93765438D01*
X148388910Y-93748168D01*
X148375026Y-93729448D01*
X148363044Y-93709457D01*
X148353079Y-93688387D01*
X148345227Y-93666443D01*
X148339563Y-93643834D01*
X148336144Y-93620779D01*
X148335000Y-93597500D01*
X148335000Y-93022500D01*
X148336144Y-92999221D01*
X148339563Y-92976166D01*
X148345227Y-92953557D01*
X148353079Y-92931613D01*
X148363044Y-92910543D01*
X148375026Y-92890552D01*
X148388910Y-92871832D01*
X148404562Y-92854562D01*
X148421832Y-92838910D01*
X148440552Y-92825026D01*
X148460543Y-92813044D01*
X148481613Y-92803079D01*
X148503557Y-92795227D01*
X148526166Y-92789563D01*
X148549221Y-92786144D01*
X148572500Y-92785000D01*
X149047500Y-92785000D01*
X149070779Y-92786144D01*
X149070779Y-92786144D01*
G37*
D14*
X148810000Y-93310000D03*
D13*
G36*
X149070779Y-91036144D02*
G01*
X149093834Y-91039563D01*
X149116443Y-91045227D01*
X149138387Y-91053079D01*
X149159457Y-91063044D01*
X149179448Y-91075026D01*
X149198168Y-91088910D01*
X149215438Y-91104562D01*
X149231090Y-91121832D01*
X149244974Y-91140552D01*
X149256956Y-91160543D01*
X149266921Y-91181613D01*
X149274773Y-91203557D01*
X149280437Y-91226166D01*
X149283856Y-91249221D01*
X149285000Y-91272500D01*
X149285000Y-91847500D01*
X149283856Y-91870779D01*
X149280437Y-91893834D01*
X149274773Y-91916443D01*
X149266921Y-91938387D01*
X149256956Y-91959457D01*
X149244974Y-91979448D01*
X149231090Y-91998168D01*
X149215438Y-92015438D01*
X149198168Y-92031090D01*
X149179448Y-92044974D01*
X149159457Y-92056956D01*
X149138387Y-92066921D01*
X149116443Y-92074773D01*
X149093834Y-92080437D01*
X149070779Y-92083856D01*
X149047500Y-92085000D01*
X148572500Y-92085000D01*
X148549221Y-92083856D01*
X148526166Y-92080437D01*
X148503557Y-92074773D01*
X148481613Y-92066921D01*
X148460543Y-92056956D01*
X148440552Y-92044974D01*
X148421832Y-92031090D01*
X148404562Y-92015438D01*
X148388910Y-91998168D01*
X148375026Y-91979448D01*
X148363044Y-91959457D01*
X148353079Y-91938387D01*
X148345227Y-91916443D01*
X148339563Y-91893834D01*
X148336144Y-91870779D01*
X148335000Y-91847500D01*
X148335000Y-91272500D01*
X148336144Y-91249221D01*
X148339563Y-91226166D01*
X148345227Y-91203557D01*
X148353079Y-91181613D01*
X148363044Y-91160543D01*
X148375026Y-91140552D01*
X148388910Y-91121832D01*
X148404562Y-91104562D01*
X148421832Y-91088910D01*
X148440552Y-91075026D01*
X148460543Y-91063044D01*
X148481613Y-91053079D01*
X148503557Y-91045227D01*
X148526166Y-91039563D01*
X148549221Y-91036144D01*
X148572500Y-91035000D01*
X149047500Y-91035000D01*
X149070779Y-91036144D01*
X149070779Y-91036144D01*
G37*
D14*
X148810000Y-91560000D03*
D13*
G36*
X147370779Y-91046144D02*
G01*
X147393834Y-91049563D01*
X147416443Y-91055227D01*
X147438387Y-91063079D01*
X147459457Y-91073044D01*
X147479448Y-91085026D01*
X147498168Y-91098910D01*
X147515438Y-91114562D01*
X147531090Y-91131832D01*
X147544974Y-91150552D01*
X147556956Y-91170543D01*
X147566921Y-91191613D01*
X147574773Y-91213557D01*
X147580437Y-91236166D01*
X147583856Y-91259221D01*
X147585000Y-91282500D01*
X147585000Y-91857500D01*
X147583856Y-91880779D01*
X147580437Y-91903834D01*
X147574773Y-91926443D01*
X147566921Y-91948387D01*
X147556956Y-91969457D01*
X147544974Y-91989448D01*
X147531090Y-92008168D01*
X147515438Y-92025438D01*
X147498168Y-92041090D01*
X147479448Y-92054974D01*
X147459457Y-92066956D01*
X147438387Y-92076921D01*
X147416443Y-92084773D01*
X147393834Y-92090437D01*
X147370779Y-92093856D01*
X147347500Y-92095000D01*
X146872500Y-92095000D01*
X146849221Y-92093856D01*
X146826166Y-92090437D01*
X146803557Y-92084773D01*
X146781613Y-92076921D01*
X146760543Y-92066956D01*
X146740552Y-92054974D01*
X146721832Y-92041090D01*
X146704562Y-92025438D01*
X146688910Y-92008168D01*
X146675026Y-91989448D01*
X146663044Y-91969457D01*
X146653079Y-91948387D01*
X146645227Y-91926443D01*
X146639563Y-91903834D01*
X146636144Y-91880779D01*
X146635000Y-91857500D01*
X146635000Y-91282500D01*
X146636144Y-91259221D01*
X146639563Y-91236166D01*
X146645227Y-91213557D01*
X146653079Y-91191613D01*
X146663044Y-91170543D01*
X146675026Y-91150552D01*
X146688910Y-91131832D01*
X146704562Y-91114562D01*
X146721832Y-91098910D01*
X146740552Y-91085026D01*
X146760543Y-91073044D01*
X146781613Y-91063079D01*
X146803557Y-91055227D01*
X146826166Y-91049563D01*
X146849221Y-91046144D01*
X146872500Y-91045000D01*
X147347500Y-91045000D01*
X147370779Y-91046144D01*
X147370779Y-91046144D01*
G37*
D14*
X147110000Y-91570000D03*
D13*
G36*
X147370779Y-92796144D02*
G01*
X147393834Y-92799563D01*
X147416443Y-92805227D01*
X147438387Y-92813079D01*
X147459457Y-92823044D01*
X147479448Y-92835026D01*
X147498168Y-92848910D01*
X147515438Y-92864562D01*
X147531090Y-92881832D01*
X147544974Y-92900552D01*
X147556956Y-92920543D01*
X147566921Y-92941613D01*
X147574773Y-92963557D01*
X147580437Y-92986166D01*
X147583856Y-93009221D01*
X147585000Y-93032500D01*
X147585000Y-93607500D01*
X147583856Y-93630779D01*
X147580437Y-93653834D01*
X147574773Y-93676443D01*
X147566921Y-93698387D01*
X147556956Y-93719457D01*
X147544974Y-93739448D01*
X147531090Y-93758168D01*
X147515438Y-93775438D01*
X147498168Y-93791090D01*
X147479448Y-93804974D01*
X147459457Y-93816956D01*
X147438387Y-93826921D01*
X147416443Y-93834773D01*
X147393834Y-93840437D01*
X147370779Y-93843856D01*
X147347500Y-93845000D01*
X146872500Y-93845000D01*
X146849221Y-93843856D01*
X146826166Y-93840437D01*
X146803557Y-93834773D01*
X146781613Y-93826921D01*
X146760543Y-93816956D01*
X146740552Y-93804974D01*
X146721832Y-93791090D01*
X146704562Y-93775438D01*
X146688910Y-93758168D01*
X146675026Y-93739448D01*
X146663044Y-93719457D01*
X146653079Y-93698387D01*
X146645227Y-93676443D01*
X146639563Y-93653834D01*
X146636144Y-93630779D01*
X146635000Y-93607500D01*
X146635000Y-93032500D01*
X146636144Y-93009221D01*
X146639563Y-92986166D01*
X146645227Y-92963557D01*
X146653079Y-92941613D01*
X146663044Y-92920543D01*
X146675026Y-92900552D01*
X146688910Y-92881832D01*
X146704562Y-92864562D01*
X146721832Y-92848910D01*
X146740552Y-92835026D01*
X146760543Y-92823044D01*
X146781613Y-92813079D01*
X146803557Y-92805227D01*
X146826166Y-92799563D01*
X146849221Y-92796144D01*
X146872500Y-92795000D01*
X147347500Y-92795000D01*
X147370779Y-92796144D01*
X147370779Y-92796144D01*
G37*
D14*
X147110000Y-93320000D03*
D13*
G36*
X144220779Y-87846144D02*
G01*
X144243834Y-87849563D01*
X144266443Y-87855227D01*
X144288387Y-87863079D01*
X144309457Y-87873044D01*
X144329448Y-87885026D01*
X144348168Y-87898910D01*
X144365438Y-87914562D01*
X144381090Y-87931832D01*
X144394974Y-87950552D01*
X144406956Y-87970543D01*
X144416921Y-87991613D01*
X144424773Y-88013557D01*
X144430437Y-88036166D01*
X144433856Y-88059221D01*
X144435000Y-88082500D01*
X144435000Y-88557500D01*
X144433856Y-88580779D01*
X144430437Y-88603834D01*
X144424773Y-88626443D01*
X144416921Y-88648387D01*
X144406956Y-88669457D01*
X144394974Y-88689448D01*
X144381090Y-88708168D01*
X144365438Y-88725438D01*
X144348168Y-88741090D01*
X144329448Y-88754974D01*
X144309457Y-88766956D01*
X144288387Y-88776921D01*
X144266443Y-88784773D01*
X144243834Y-88790437D01*
X144220779Y-88793856D01*
X144197500Y-88795000D01*
X143622500Y-88795000D01*
X143599221Y-88793856D01*
X143576166Y-88790437D01*
X143553557Y-88784773D01*
X143531613Y-88776921D01*
X143510543Y-88766956D01*
X143490552Y-88754974D01*
X143471832Y-88741090D01*
X143454562Y-88725438D01*
X143438910Y-88708168D01*
X143425026Y-88689448D01*
X143413044Y-88669457D01*
X143403079Y-88648387D01*
X143395227Y-88626443D01*
X143389563Y-88603834D01*
X143386144Y-88580779D01*
X143385000Y-88557500D01*
X143385000Y-88082500D01*
X143386144Y-88059221D01*
X143389563Y-88036166D01*
X143395227Y-88013557D01*
X143403079Y-87991613D01*
X143413044Y-87970543D01*
X143425026Y-87950552D01*
X143438910Y-87931832D01*
X143454562Y-87914562D01*
X143471832Y-87898910D01*
X143490552Y-87885026D01*
X143510543Y-87873044D01*
X143531613Y-87863079D01*
X143553557Y-87855227D01*
X143576166Y-87849563D01*
X143599221Y-87846144D01*
X143622500Y-87845000D01*
X144197500Y-87845000D01*
X144220779Y-87846144D01*
X144220779Y-87846144D01*
G37*
D14*
X143910000Y-88320000D03*
D13*
G36*
X145970779Y-87846144D02*
G01*
X145993834Y-87849563D01*
X146016443Y-87855227D01*
X146038387Y-87863079D01*
X146059457Y-87873044D01*
X146079448Y-87885026D01*
X146098168Y-87898910D01*
X146115438Y-87914562D01*
X146131090Y-87931832D01*
X146144974Y-87950552D01*
X146156956Y-87970543D01*
X146166921Y-87991613D01*
X146174773Y-88013557D01*
X146180437Y-88036166D01*
X146183856Y-88059221D01*
X146185000Y-88082500D01*
X146185000Y-88557500D01*
X146183856Y-88580779D01*
X146180437Y-88603834D01*
X146174773Y-88626443D01*
X146166921Y-88648387D01*
X146156956Y-88669457D01*
X146144974Y-88689448D01*
X146131090Y-88708168D01*
X146115438Y-88725438D01*
X146098168Y-88741090D01*
X146079448Y-88754974D01*
X146059457Y-88766956D01*
X146038387Y-88776921D01*
X146016443Y-88784773D01*
X145993834Y-88790437D01*
X145970779Y-88793856D01*
X145947500Y-88795000D01*
X145372500Y-88795000D01*
X145349221Y-88793856D01*
X145326166Y-88790437D01*
X145303557Y-88784773D01*
X145281613Y-88776921D01*
X145260543Y-88766956D01*
X145240552Y-88754974D01*
X145221832Y-88741090D01*
X145204562Y-88725438D01*
X145188910Y-88708168D01*
X145175026Y-88689448D01*
X145163044Y-88669457D01*
X145153079Y-88648387D01*
X145145227Y-88626443D01*
X145139563Y-88603834D01*
X145136144Y-88580779D01*
X145135000Y-88557500D01*
X145135000Y-88082500D01*
X145136144Y-88059221D01*
X145139563Y-88036166D01*
X145145227Y-88013557D01*
X145153079Y-87991613D01*
X145163044Y-87970543D01*
X145175026Y-87950552D01*
X145188910Y-87931832D01*
X145204562Y-87914562D01*
X145221832Y-87898910D01*
X145240552Y-87885026D01*
X145260543Y-87873044D01*
X145281613Y-87863079D01*
X145303557Y-87855227D01*
X145326166Y-87849563D01*
X145349221Y-87846144D01*
X145372500Y-87845000D01*
X145947500Y-87845000D01*
X145970779Y-87846144D01*
X145970779Y-87846144D01*
G37*
D14*
X145660000Y-88320000D03*
D16*
X142910000Y-90420000D03*
X143860000Y-90420000D03*
X144810000Y-90420000D03*
X144810000Y-93120000D03*
X142910000Y-93120000D03*
X143860000Y-93120000D03*
D17*
X142470000Y-82110000D03*
D18*
X142470000Y-75810000D03*
X144770000Y-75810000D03*
X140170000Y-75810000D03*
D19*
X143860000Y-35675000D03*
X143860000Y-30625000D03*
X141320000Y-35675000D03*
X141320000Y-30625000D03*
X138780000Y-35675000D03*
X138780000Y-30625000D03*
X136240000Y-35675000D03*
X136240000Y-30625000D03*
X133700000Y-35675000D03*
X133700000Y-30625000D03*
X131160000Y-35675000D03*
X131160000Y-30625000D03*
X128620000Y-35675000D03*
X128620000Y-30625000D03*
X126080000Y-35675000D03*
X126080000Y-30625000D03*
X123540000Y-35675000D03*
X123540000Y-30625000D03*
X121000000Y-35675000D03*
X121000000Y-30625000D03*
X118460000Y-35675000D03*
X118460000Y-30625000D03*
X115920000Y-35675000D03*
X115920000Y-30625000D03*
X113380000Y-35675000D03*
X113380000Y-30625000D03*
X110840000Y-35675000D03*
X110840000Y-30625000D03*
X108300000Y-35675000D03*
X108300000Y-30625000D03*
X105760000Y-35675000D03*
X105760000Y-30625000D03*
D13*
G36*
X135850779Y-76546144D02*
G01*
X135873834Y-76549563D01*
X135896443Y-76555227D01*
X135918387Y-76563079D01*
X135939457Y-76573044D01*
X135959448Y-76585026D01*
X135978168Y-76598910D01*
X135995438Y-76614562D01*
X136011090Y-76631832D01*
X136024974Y-76650552D01*
X136036956Y-76670543D01*
X136046921Y-76691613D01*
X136054773Y-76713557D01*
X136060437Y-76736166D01*
X136063856Y-76759221D01*
X136065000Y-76782500D01*
X136065000Y-77357500D01*
X136063856Y-77380779D01*
X136060437Y-77403834D01*
X136054773Y-77426443D01*
X136046921Y-77448387D01*
X136036956Y-77469457D01*
X136024974Y-77489448D01*
X136011090Y-77508168D01*
X135995438Y-77525438D01*
X135978168Y-77541090D01*
X135959448Y-77554974D01*
X135939457Y-77566956D01*
X135918387Y-77576921D01*
X135896443Y-77584773D01*
X135873834Y-77590437D01*
X135850779Y-77593856D01*
X135827500Y-77595000D01*
X135352500Y-77595000D01*
X135329221Y-77593856D01*
X135306166Y-77590437D01*
X135283557Y-77584773D01*
X135261613Y-77576921D01*
X135240543Y-77566956D01*
X135220552Y-77554974D01*
X135201832Y-77541090D01*
X135184562Y-77525438D01*
X135168910Y-77508168D01*
X135155026Y-77489448D01*
X135143044Y-77469457D01*
X135133079Y-77448387D01*
X135125227Y-77426443D01*
X135119563Y-77403834D01*
X135116144Y-77380779D01*
X135115000Y-77357500D01*
X135115000Y-76782500D01*
X135116144Y-76759221D01*
X135119563Y-76736166D01*
X135125227Y-76713557D01*
X135133079Y-76691613D01*
X135143044Y-76670543D01*
X135155026Y-76650552D01*
X135168910Y-76631832D01*
X135184562Y-76614562D01*
X135201832Y-76598910D01*
X135220552Y-76585026D01*
X135240543Y-76573044D01*
X135261613Y-76563079D01*
X135283557Y-76555227D01*
X135306166Y-76549563D01*
X135329221Y-76546144D01*
X135352500Y-76545000D01*
X135827500Y-76545000D01*
X135850779Y-76546144D01*
X135850779Y-76546144D01*
G37*
D14*
X135590000Y-77070000D03*
D13*
G36*
X135850779Y-74796144D02*
G01*
X135873834Y-74799563D01*
X135896443Y-74805227D01*
X135918387Y-74813079D01*
X135939457Y-74823044D01*
X135959448Y-74835026D01*
X135978168Y-74848910D01*
X135995438Y-74864562D01*
X136011090Y-74881832D01*
X136024974Y-74900552D01*
X136036956Y-74920543D01*
X136046921Y-74941613D01*
X136054773Y-74963557D01*
X136060437Y-74986166D01*
X136063856Y-75009221D01*
X136065000Y-75032500D01*
X136065000Y-75607500D01*
X136063856Y-75630779D01*
X136060437Y-75653834D01*
X136054773Y-75676443D01*
X136046921Y-75698387D01*
X136036956Y-75719457D01*
X136024974Y-75739448D01*
X136011090Y-75758168D01*
X135995438Y-75775438D01*
X135978168Y-75791090D01*
X135959448Y-75804974D01*
X135939457Y-75816956D01*
X135918387Y-75826921D01*
X135896443Y-75834773D01*
X135873834Y-75840437D01*
X135850779Y-75843856D01*
X135827500Y-75845000D01*
X135352500Y-75845000D01*
X135329221Y-75843856D01*
X135306166Y-75840437D01*
X135283557Y-75834773D01*
X135261613Y-75826921D01*
X135240543Y-75816956D01*
X135220552Y-75804974D01*
X135201832Y-75791090D01*
X135184562Y-75775438D01*
X135168910Y-75758168D01*
X135155026Y-75739448D01*
X135143044Y-75719457D01*
X135133079Y-75698387D01*
X135125227Y-75676443D01*
X135119563Y-75653834D01*
X135116144Y-75630779D01*
X135115000Y-75607500D01*
X135115000Y-75032500D01*
X135116144Y-75009221D01*
X135119563Y-74986166D01*
X135125227Y-74963557D01*
X135133079Y-74941613D01*
X135143044Y-74920543D01*
X135155026Y-74900552D01*
X135168910Y-74881832D01*
X135184562Y-74864562D01*
X135201832Y-74848910D01*
X135220552Y-74835026D01*
X135240543Y-74823044D01*
X135261613Y-74813079D01*
X135283557Y-74805227D01*
X135306166Y-74799563D01*
X135329221Y-74796144D01*
X135352500Y-74795000D01*
X135827500Y-74795000D01*
X135850779Y-74796144D01*
X135850779Y-74796144D01*
G37*
D14*
X135590000Y-75320000D03*
D13*
G36*
X141209504Y-92496204D02*
G01*
X141233773Y-92499804D01*
X141257571Y-92505765D01*
X141280671Y-92514030D01*
X141302849Y-92524520D01*
X141323893Y-92537133D01*
X141343598Y-92551747D01*
X141361777Y-92568223D01*
X141378253Y-92586402D01*
X141392867Y-92606107D01*
X141405480Y-92627151D01*
X141415970Y-92649329D01*
X141424235Y-92672429D01*
X141430196Y-92696227D01*
X141433796Y-92720496D01*
X141435000Y-92745000D01*
X141435000Y-93495000D01*
X141433796Y-93519504D01*
X141430196Y-93543773D01*
X141424235Y-93567571D01*
X141415970Y-93590671D01*
X141405480Y-93612849D01*
X141392867Y-93633893D01*
X141378253Y-93653598D01*
X141361777Y-93671777D01*
X141343598Y-93688253D01*
X141323893Y-93702867D01*
X141302849Y-93715480D01*
X141280671Y-93725970D01*
X141257571Y-93734235D01*
X141233773Y-93740196D01*
X141209504Y-93743796D01*
X141185000Y-93745000D01*
X139035000Y-93745000D01*
X139010496Y-93743796D01*
X138986227Y-93740196D01*
X138962429Y-93734235D01*
X138939329Y-93725970D01*
X138917151Y-93715480D01*
X138896107Y-93702867D01*
X138876402Y-93688253D01*
X138858223Y-93671777D01*
X138841747Y-93653598D01*
X138827133Y-93633893D01*
X138814520Y-93612849D01*
X138804030Y-93590671D01*
X138795765Y-93567571D01*
X138789804Y-93543773D01*
X138786204Y-93519504D01*
X138785000Y-93495000D01*
X138785000Y-92745000D01*
X138786204Y-92720496D01*
X138789804Y-92696227D01*
X138795765Y-92672429D01*
X138804030Y-92649329D01*
X138814520Y-92627151D01*
X138827133Y-92606107D01*
X138841747Y-92586402D01*
X138858223Y-92568223D01*
X138876402Y-92551747D01*
X138896107Y-92537133D01*
X138917151Y-92524520D01*
X138939329Y-92514030D01*
X138962429Y-92505765D01*
X138986227Y-92499804D01*
X139010496Y-92496204D01*
X139035000Y-92495000D01*
X141185000Y-92495000D01*
X141209504Y-92496204D01*
X141209504Y-92496204D01*
G37*
D20*
X140110000Y-93120000D03*
D13*
G36*
X141209504Y-89696204D02*
G01*
X141233773Y-89699804D01*
X141257571Y-89705765D01*
X141280671Y-89714030D01*
X141302849Y-89724520D01*
X141323893Y-89737133D01*
X141343598Y-89751747D01*
X141361777Y-89768223D01*
X141378253Y-89786402D01*
X141392867Y-89806107D01*
X141405480Y-89827151D01*
X141415970Y-89849329D01*
X141424235Y-89872429D01*
X141430196Y-89896227D01*
X141433796Y-89920496D01*
X141435000Y-89945000D01*
X141435000Y-90695000D01*
X141433796Y-90719504D01*
X141430196Y-90743773D01*
X141424235Y-90767571D01*
X141415970Y-90790671D01*
X141405480Y-90812849D01*
X141392867Y-90833893D01*
X141378253Y-90853598D01*
X141361777Y-90871777D01*
X141343598Y-90888253D01*
X141323893Y-90902867D01*
X141302849Y-90915480D01*
X141280671Y-90925970D01*
X141257571Y-90934235D01*
X141233773Y-90940196D01*
X141209504Y-90943796D01*
X141185000Y-90945000D01*
X139035000Y-90945000D01*
X139010496Y-90943796D01*
X138986227Y-90940196D01*
X138962429Y-90934235D01*
X138939329Y-90925970D01*
X138917151Y-90915480D01*
X138896107Y-90902867D01*
X138876402Y-90888253D01*
X138858223Y-90871777D01*
X138841747Y-90853598D01*
X138827133Y-90833893D01*
X138814520Y-90812849D01*
X138804030Y-90790671D01*
X138795765Y-90767571D01*
X138789804Y-90743773D01*
X138786204Y-90719504D01*
X138785000Y-90695000D01*
X138785000Y-89945000D01*
X138786204Y-89920496D01*
X138789804Y-89896227D01*
X138795765Y-89872429D01*
X138804030Y-89849329D01*
X138814520Y-89827151D01*
X138827133Y-89806107D01*
X138841747Y-89786402D01*
X138858223Y-89768223D01*
X138876402Y-89751747D01*
X138896107Y-89737133D01*
X138917151Y-89724520D01*
X138939329Y-89714030D01*
X138962429Y-89705765D01*
X138986227Y-89699804D01*
X139010496Y-89696204D01*
X139035000Y-89695000D01*
X141185000Y-89695000D01*
X141209504Y-89696204D01*
X141209504Y-89696204D01*
G37*
D20*
X140110000Y-90320000D03*
M02*
