G04 #@! TF.GenerationSoftware,KiCad,Pcbnew,(5.1.4)-1*
G04 #@! TF.CreationDate,2019-12-31T12:49:38+08:00*
G04 #@! TF.ProjectId,FH26W-45S-0.3SHW-DIP,46483236-572d-4343-9553-2d302e335348,rev?*
G04 #@! TF.SameCoordinates,Original*
G04 #@! TF.FileFunction,Copper,L2,Bot*
G04 #@! TF.FilePolarity,Positive*
%FSLAX46Y46*%
G04 Gerber Fmt 4.6, Leading zero omitted, Abs format (unit mm)*
G04 Created by KiCad (PCBNEW (5.1.4)-1) date 2019-12-31 12:49:38*
%MOMM*%
%LPD*%
G04 APERTURE LIST*
%ADD10R,1.000000X0.550000*%
%ADD11R,1.500000X0.300000*%
%ADD12R,1.650000X0.300000*%
%ADD13C,0.100000*%
%ADD14C,0.950000*%
%ADD15C,1.425000*%
%ADD16R,0.650000X1.560000*%
%ADD17R,3.800000X2.000000*%
%ADD18R,1.500000X2.000000*%
%ADD19R,1.000000X3.150000*%
%ADD20C,5.500000*%
%ADD21C,1.250000*%
%ADD22C,0.800000*%
%ADD23C,0.400000*%
%ADD24C,0.200000*%
%ADD25C,0.254000*%
%ADD26C,1.000000*%
G04 APERTURE END LIST*
D10*
X148060000Y-43740000D03*
X148060000Y-58500000D03*
D11*
X145110000Y-44800000D03*
X145110000Y-45400000D03*
X145110000Y-46000000D03*
X145110000Y-46600000D03*
X145110000Y-47200000D03*
X145110000Y-47800000D03*
X145110000Y-48400000D03*
X145110000Y-49000000D03*
X145110000Y-49600000D03*
X145110000Y-50200000D03*
X145110000Y-50800000D03*
X145110000Y-51400000D03*
X145110000Y-52000000D03*
X145110000Y-52600000D03*
X145110000Y-53200000D03*
X145110000Y-53800000D03*
X145110000Y-54400000D03*
X145110000Y-55000000D03*
X145110000Y-55600000D03*
X145110000Y-56200000D03*
X145110000Y-56800000D03*
X145110000Y-57400000D03*
D12*
X148795000Y-44520000D03*
X148795000Y-45120000D03*
X148795000Y-45720000D03*
X148795000Y-46320000D03*
X148795000Y-46920000D03*
X148795000Y-47520000D03*
X148795000Y-48120000D03*
X148795000Y-48720000D03*
X148795000Y-49320000D03*
X148795000Y-49920000D03*
X148795000Y-50520000D03*
X148795000Y-51120000D03*
X148795000Y-51720000D03*
X148795000Y-52320000D03*
X148795000Y-52920000D03*
X148795000Y-53520000D03*
X148795000Y-54120000D03*
X148795000Y-54720000D03*
X148795000Y-55320000D03*
X148795000Y-55920000D03*
X148795000Y-56520000D03*
X148795000Y-57120000D03*
X148795000Y-57720000D03*
D13*
G36*
X137630779Y-92706144D02*
G01*
X137653834Y-92709563D01*
X137676443Y-92715227D01*
X137698387Y-92723079D01*
X137719457Y-92733044D01*
X137739448Y-92745026D01*
X137758168Y-92758910D01*
X137775438Y-92774562D01*
X137791090Y-92791832D01*
X137804974Y-92810552D01*
X137816956Y-92830543D01*
X137826921Y-92851613D01*
X137834773Y-92873557D01*
X137840437Y-92896166D01*
X137843856Y-92919221D01*
X137845000Y-92942500D01*
X137845000Y-93517500D01*
X137843856Y-93540779D01*
X137840437Y-93563834D01*
X137834773Y-93586443D01*
X137826921Y-93608387D01*
X137816956Y-93629457D01*
X137804974Y-93649448D01*
X137791090Y-93668168D01*
X137775438Y-93685438D01*
X137758168Y-93701090D01*
X137739448Y-93714974D01*
X137719457Y-93726956D01*
X137698387Y-93736921D01*
X137676443Y-93744773D01*
X137653834Y-93750437D01*
X137630779Y-93753856D01*
X137607500Y-93755000D01*
X137132500Y-93755000D01*
X137109221Y-93753856D01*
X137086166Y-93750437D01*
X137063557Y-93744773D01*
X137041613Y-93736921D01*
X137020543Y-93726956D01*
X137000552Y-93714974D01*
X136981832Y-93701090D01*
X136964562Y-93685438D01*
X136948910Y-93668168D01*
X136935026Y-93649448D01*
X136923044Y-93629457D01*
X136913079Y-93608387D01*
X136905227Y-93586443D01*
X136899563Y-93563834D01*
X136896144Y-93540779D01*
X136895000Y-93517500D01*
X136895000Y-92942500D01*
X136896144Y-92919221D01*
X136899563Y-92896166D01*
X136905227Y-92873557D01*
X136913079Y-92851613D01*
X136923044Y-92830543D01*
X136935026Y-92810552D01*
X136948910Y-92791832D01*
X136964562Y-92774562D01*
X136981832Y-92758910D01*
X137000552Y-92745026D01*
X137020543Y-92733044D01*
X137041613Y-92723079D01*
X137063557Y-92715227D01*
X137086166Y-92709563D01*
X137109221Y-92706144D01*
X137132500Y-92705000D01*
X137607500Y-92705000D01*
X137630779Y-92706144D01*
X137630779Y-92706144D01*
G37*
D14*
X137370000Y-93230000D03*
D13*
G36*
X137630779Y-90956144D02*
G01*
X137653834Y-90959563D01*
X137676443Y-90965227D01*
X137698387Y-90973079D01*
X137719457Y-90983044D01*
X137739448Y-90995026D01*
X137758168Y-91008910D01*
X137775438Y-91024562D01*
X137791090Y-91041832D01*
X137804974Y-91060552D01*
X137816956Y-91080543D01*
X137826921Y-91101613D01*
X137834773Y-91123557D01*
X137840437Y-91146166D01*
X137843856Y-91169221D01*
X137845000Y-91192500D01*
X137845000Y-91767500D01*
X137843856Y-91790779D01*
X137840437Y-91813834D01*
X137834773Y-91836443D01*
X137826921Y-91858387D01*
X137816956Y-91879457D01*
X137804974Y-91899448D01*
X137791090Y-91918168D01*
X137775438Y-91935438D01*
X137758168Y-91951090D01*
X137739448Y-91964974D01*
X137719457Y-91976956D01*
X137698387Y-91986921D01*
X137676443Y-91994773D01*
X137653834Y-92000437D01*
X137630779Y-92003856D01*
X137607500Y-92005000D01*
X137132500Y-92005000D01*
X137109221Y-92003856D01*
X137086166Y-92000437D01*
X137063557Y-91994773D01*
X137041613Y-91986921D01*
X137020543Y-91976956D01*
X137000552Y-91964974D01*
X136981832Y-91951090D01*
X136964562Y-91935438D01*
X136948910Y-91918168D01*
X136935026Y-91899448D01*
X136923044Y-91879457D01*
X136913079Y-91858387D01*
X136905227Y-91836443D01*
X136899563Y-91813834D01*
X136896144Y-91790779D01*
X136895000Y-91767500D01*
X136895000Y-91192500D01*
X136896144Y-91169221D01*
X136899563Y-91146166D01*
X136905227Y-91123557D01*
X136913079Y-91101613D01*
X136923044Y-91080543D01*
X136935026Y-91060552D01*
X136948910Y-91041832D01*
X136964562Y-91024562D01*
X136981832Y-91008910D01*
X137000552Y-90995026D01*
X137020543Y-90983044D01*
X137041613Y-90973079D01*
X137063557Y-90965227D01*
X137086166Y-90959563D01*
X137109221Y-90956144D01*
X137132500Y-90955000D01*
X137607500Y-90955000D01*
X137630779Y-90956144D01*
X137630779Y-90956144D01*
G37*
D14*
X137370000Y-91480000D03*
D13*
G36*
X148000779Y-74831144D02*
G01*
X148023834Y-74834563D01*
X148046443Y-74840227D01*
X148068387Y-74848079D01*
X148089457Y-74858044D01*
X148109448Y-74870026D01*
X148128168Y-74883910D01*
X148145438Y-74899562D01*
X148161090Y-74916832D01*
X148174974Y-74935552D01*
X148186956Y-74955543D01*
X148196921Y-74976613D01*
X148204773Y-74998557D01*
X148210437Y-75021166D01*
X148213856Y-75044221D01*
X148215000Y-75067500D01*
X148215000Y-75642500D01*
X148213856Y-75665779D01*
X148210437Y-75688834D01*
X148204773Y-75711443D01*
X148196921Y-75733387D01*
X148186956Y-75754457D01*
X148174974Y-75774448D01*
X148161090Y-75793168D01*
X148145438Y-75810438D01*
X148128168Y-75826090D01*
X148109448Y-75839974D01*
X148089457Y-75851956D01*
X148068387Y-75861921D01*
X148046443Y-75869773D01*
X148023834Y-75875437D01*
X148000779Y-75878856D01*
X147977500Y-75880000D01*
X147502500Y-75880000D01*
X147479221Y-75878856D01*
X147456166Y-75875437D01*
X147433557Y-75869773D01*
X147411613Y-75861921D01*
X147390543Y-75851956D01*
X147370552Y-75839974D01*
X147351832Y-75826090D01*
X147334562Y-75810438D01*
X147318910Y-75793168D01*
X147305026Y-75774448D01*
X147293044Y-75754457D01*
X147283079Y-75733387D01*
X147275227Y-75711443D01*
X147269563Y-75688834D01*
X147266144Y-75665779D01*
X147265000Y-75642500D01*
X147265000Y-75067500D01*
X147266144Y-75044221D01*
X147269563Y-75021166D01*
X147275227Y-74998557D01*
X147283079Y-74976613D01*
X147293044Y-74955543D01*
X147305026Y-74935552D01*
X147318910Y-74916832D01*
X147334562Y-74899562D01*
X147351832Y-74883910D01*
X147370552Y-74870026D01*
X147390543Y-74858044D01*
X147411613Y-74848079D01*
X147433557Y-74840227D01*
X147456166Y-74834563D01*
X147479221Y-74831144D01*
X147502500Y-74830000D01*
X147977500Y-74830000D01*
X148000779Y-74831144D01*
X148000779Y-74831144D01*
G37*
D14*
X147740000Y-75355000D03*
D13*
G36*
X148000779Y-76581144D02*
G01*
X148023834Y-76584563D01*
X148046443Y-76590227D01*
X148068387Y-76598079D01*
X148089457Y-76608044D01*
X148109448Y-76620026D01*
X148128168Y-76633910D01*
X148145438Y-76649562D01*
X148161090Y-76666832D01*
X148174974Y-76685552D01*
X148186956Y-76705543D01*
X148196921Y-76726613D01*
X148204773Y-76748557D01*
X148210437Y-76771166D01*
X148213856Y-76794221D01*
X148215000Y-76817500D01*
X148215000Y-77392500D01*
X148213856Y-77415779D01*
X148210437Y-77438834D01*
X148204773Y-77461443D01*
X148196921Y-77483387D01*
X148186956Y-77504457D01*
X148174974Y-77524448D01*
X148161090Y-77543168D01*
X148145438Y-77560438D01*
X148128168Y-77576090D01*
X148109448Y-77589974D01*
X148089457Y-77601956D01*
X148068387Y-77611921D01*
X148046443Y-77619773D01*
X148023834Y-77625437D01*
X148000779Y-77628856D01*
X147977500Y-77630000D01*
X147502500Y-77630000D01*
X147479221Y-77628856D01*
X147456166Y-77625437D01*
X147433557Y-77619773D01*
X147411613Y-77611921D01*
X147390543Y-77601956D01*
X147370552Y-77589974D01*
X147351832Y-77576090D01*
X147334562Y-77560438D01*
X147318910Y-77543168D01*
X147305026Y-77524448D01*
X147293044Y-77504457D01*
X147283079Y-77483387D01*
X147275227Y-77461443D01*
X147269563Y-77438834D01*
X147266144Y-77415779D01*
X147265000Y-77392500D01*
X147265000Y-76817500D01*
X147266144Y-76794221D01*
X147269563Y-76771166D01*
X147275227Y-76748557D01*
X147283079Y-76726613D01*
X147293044Y-76705543D01*
X147305026Y-76685552D01*
X147318910Y-76666832D01*
X147334562Y-76649562D01*
X147351832Y-76633910D01*
X147370552Y-76620026D01*
X147390543Y-76608044D01*
X147411613Y-76598079D01*
X147433557Y-76590227D01*
X147456166Y-76584563D01*
X147479221Y-76581144D01*
X147502500Y-76580000D01*
X147977500Y-76580000D01*
X148000779Y-76581144D01*
X148000779Y-76581144D01*
G37*
D14*
X147740000Y-77105000D03*
D13*
G36*
X135810779Y-92696144D02*
G01*
X135833834Y-92699563D01*
X135856443Y-92705227D01*
X135878387Y-92713079D01*
X135899457Y-92723044D01*
X135919448Y-92735026D01*
X135938168Y-92748910D01*
X135955438Y-92764562D01*
X135971090Y-92781832D01*
X135984974Y-92800552D01*
X135996956Y-92820543D01*
X136006921Y-92841613D01*
X136014773Y-92863557D01*
X136020437Y-92886166D01*
X136023856Y-92909221D01*
X136025000Y-92932500D01*
X136025000Y-93507500D01*
X136023856Y-93530779D01*
X136020437Y-93553834D01*
X136014773Y-93576443D01*
X136006921Y-93598387D01*
X135996956Y-93619457D01*
X135984974Y-93639448D01*
X135971090Y-93658168D01*
X135955438Y-93675438D01*
X135938168Y-93691090D01*
X135919448Y-93704974D01*
X135899457Y-93716956D01*
X135878387Y-93726921D01*
X135856443Y-93734773D01*
X135833834Y-93740437D01*
X135810779Y-93743856D01*
X135787500Y-93745000D01*
X135312500Y-93745000D01*
X135289221Y-93743856D01*
X135266166Y-93740437D01*
X135243557Y-93734773D01*
X135221613Y-93726921D01*
X135200543Y-93716956D01*
X135180552Y-93704974D01*
X135161832Y-93691090D01*
X135144562Y-93675438D01*
X135128910Y-93658168D01*
X135115026Y-93639448D01*
X135103044Y-93619457D01*
X135093079Y-93598387D01*
X135085227Y-93576443D01*
X135079563Y-93553834D01*
X135076144Y-93530779D01*
X135075000Y-93507500D01*
X135075000Y-92932500D01*
X135076144Y-92909221D01*
X135079563Y-92886166D01*
X135085227Y-92863557D01*
X135093079Y-92841613D01*
X135103044Y-92820543D01*
X135115026Y-92800552D01*
X135128910Y-92781832D01*
X135144562Y-92764562D01*
X135161832Y-92748910D01*
X135180552Y-92735026D01*
X135200543Y-92723044D01*
X135221613Y-92713079D01*
X135243557Y-92705227D01*
X135266166Y-92699563D01*
X135289221Y-92696144D01*
X135312500Y-92695000D01*
X135787500Y-92695000D01*
X135810779Y-92696144D01*
X135810779Y-92696144D01*
G37*
D14*
X135550000Y-93220000D03*
D13*
G36*
X135810779Y-90946144D02*
G01*
X135833834Y-90949563D01*
X135856443Y-90955227D01*
X135878387Y-90963079D01*
X135899457Y-90973044D01*
X135919448Y-90985026D01*
X135938168Y-90998910D01*
X135955438Y-91014562D01*
X135971090Y-91031832D01*
X135984974Y-91050552D01*
X135996956Y-91070543D01*
X136006921Y-91091613D01*
X136014773Y-91113557D01*
X136020437Y-91136166D01*
X136023856Y-91159221D01*
X136025000Y-91182500D01*
X136025000Y-91757500D01*
X136023856Y-91780779D01*
X136020437Y-91803834D01*
X136014773Y-91826443D01*
X136006921Y-91848387D01*
X135996956Y-91869457D01*
X135984974Y-91889448D01*
X135971090Y-91908168D01*
X135955438Y-91925438D01*
X135938168Y-91941090D01*
X135919448Y-91954974D01*
X135899457Y-91966956D01*
X135878387Y-91976921D01*
X135856443Y-91984773D01*
X135833834Y-91990437D01*
X135810779Y-91993856D01*
X135787500Y-91995000D01*
X135312500Y-91995000D01*
X135289221Y-91993856D01*
X135266166Y-91990437D01*
X135243557Y-91984773D01*
X135221613Y-91976921D01*
X135200543Y-91966956D01*
X135180552Y-91954974D01*
X135161832Y-91941090D01*
X135144562Y-91925438D01*
X135128910Y-91908168D01*
X135115026Y-91889448D01*
X135103044Y-91869457D01*
X135093079Y-91848387D01*
X135085227Y-91826443D01*
X135079563Y-91803834D01*
X135076144Y-91780779D01*
X135075000Y-91757500D01*
X135075000Y-91182500D01*
X135076144Y-91159221D01*
X135079563Y-91136166D01*
X135085227Y-91113557D01*
X135093079Y-91091613D01*
X135103044Y-91070543D01*
X135115026Y-91050552D01*
X135128910Y-91031832D01*
X135144562Y-91014562D01*
X135161832Y-90998910D01*
X135180552Y-90985026D01*
X135200543Y-90973044D01*
X135221613Y-90963079D01*
X135243557Y-90955227D01*
X135266166Y-90949563D01*
X135289221Y-90946144D01*
X135312500Y-90945000D01*
X135787500Y-90945000D01*
X135810779Y-90946144D01*
X135810779Y-90946144D01*
G37*
D14*
X135550000Y-91470000D03*
D13*
G36*
X137700779Y-76546144D02*
G01*
X137723834Y-76549563D01*
X137746443Y-76555227D01*
X137768387Y-76563079D01*
X137789457Y-76573044D01*
X137809448Y-76585026D01*
X137828168Y-76598910D01*
X137845438Y-76614562D01*
X137861090Y-76631832D01*
X137874974Y-76650552D01*
X137886956Y-76670543D01*
X137896921Y-76691613D01*
X137904773Y-76713557D01*
X137910437Y-76736166D01*
X137913856Y-76759221D01*
X137915000Y-76782500D01*
X137915000Y-77357500D01*
X137913856Y-77380779D01*
X137910437Y-77403834D01*
X137904773Y-77426443D01*
X137896921Y-77448387D01*
X137886956Y-77469457D01*
X137874974Y-77489448D01*
X137861090Y-77508168D01*
X137845438Y-77525438D01*
X137828168Y-77541090D01*
X137809448Y-77554974D01*
X137789457Y-77566956D01*
X137768387Y-77576921D01*
X137746443Y-77584773D01*
X137723834Y-77590437D01*
X137700779Y-77593856D01*
X137677500Y-77595000D01*
X137202500Y-77595000D01*
X137179221Y-77593856D01*
X137156166Y-77590437D01*
X137133557Y-77584773D01*
X137111613Y-77576921D01*
X137090543Y-77566956D01*
X137070552Y-77554974D01*
X137051832Y-77541090D01*
X137034562Y-77525438D01*
X137018910Y-77508168D01*
X137005026Y-77489448D01*
X136993044Y-77469457D01*
X136983079Y-77448387D01*
X136975227Y-77426443D01*
X136969563Y-77403834D01*
X136966144Y-77380779D01*
X136965000Y-77357500D01*
X136965000Y-76782500D01*
X136966144Y-76759221D01*
X136969563Y-76736166D01*
X136975227Y-76713557D01*
X136983079Y-76691613D01*
X136993044Y-76670543D01*
X137005026Y-76650552D01*
X137018910Y-76631832D01*
X137034562Y-76614562D01*
X137051832Y-76598910D01*
X137070552Y-76585026D01*
X137090543Y-76573044D01*
X137111613Y-76563079D01*
X137133557Y-76555227D01*
X137156166Y-76549563D01*
X137179221Y-76546144D01*
X137202500Y-76545000D01*
X137677500Y-76545000D01*
X137700779Y-76546144D01*
X137700779Y-76546144D01*
G37*
D14*
X137440000Y-77070000D03*
D13*
G36*
X137700779Y-74796144D02*
G01*
X137723834Y-74799563D01*
X137746443Y-74805227D01*
X137768387Y-74813079D01*
X137789457Y-74823044D01*
X137809448Y-74835026D01*
X137828168Y-74848910D01*
X137845438Y-74864562D01*
X137861090Y-74881832D01*
X137874974Y-74900552D01*
X137886956Y-74920543D01*
X137896921Y-74941613D01*
X137904773Y-74963557D01*
X137910437Y-74986166D01*
X137913856Y-75009221D01*
X137915000Y-75032500D01*
X137915000Y-75607500D01*
X137913856Y-75630779D01*
X137910437Y-75653834D01*
X137904773Y-75676443D01*
X137896921Y-75698387D01*
X137886956Y-75719457D01*
X137874974Y-75739448D01*
X137861090Y-75758168D01*
X137845438Y-75775438D01*
X137828168Y-75791090D01*
X137809448Y-75804974D01*
X137789457Y-75816956D01*
X137768387Y-75826921D01*
X137746443Y-75834773D01*
X137723834Y-75840437D01*
X137700779Y-75843856D01*
X137677500Y-75845000D01*
X137202500Y-75845000D01*
X137179221Y-75843856D01*
X137156166Y-75840437D01*
X137133557Y-75834773D01*
X137111613Y-75826921D01*
X137090543Y-75816956D01*
X137070552Y-75804974D01*
X137051832Y-75791090D01*
X137034562Y-75775438D01*
X137018910Y-75758168D01*
X137005026Y-75739448D01*
X136993044Y-75719457D01*
X136983079Y-75698387D01*
X136975227Y-75676443D01*
X136969563Y-75653834D01*
X136966144Y-75630779D01*
X136965000Y-75607500D01*
X136965000Y-75032500D01*
X136966144Y-75009221D01*
X136969563Y-74986166D01*
X136975227Y-74963557D01*
X136983079Y-74941613D01*
X136993044Y-74920543D01*
X137005026Y-74900552D01*
X137018910Y-74881832D01*
X137034562Y-74864562D01*
X137051832Y-74848910D01*
X137070552Y-74835026D01*
X137090543Y-74823044D01*
X137111613Y-74813079D01*
X137133557Y-74805227D01*
X137156166Y-74799563D01*
X137179221Y-74796144D01*
X137202500Y-74795000D01*
X137677500Y-74795000D01*
X137700779Y-74796144D01*
X137700779Y-74796144D01*
G37*
D14*
X137440000Y-75320000D03*
D13*
G36*
X146172004Y-85046204D02*
G01*
X146196273Y-85049804D01*
X146220071Y-85055765D01*
X146243171Y-85064030D01*
X146265349Y-85074520D01*
X146286393Y-85087133D01*
X146306098Y-85101747D01*
X146324277Y-85118223D01*
X146340753Y-85136402D01*
X146355367Y-85156107D01*
X146367980Y-85177151D01*
X146378470Y-85199329D01*
X146386735Y-85222429D01*
X146392696Y-85246227D01*
X146396296Y-85270496D01*
X146397500Y-85295000D01*
X146397500Y-86545000D01*
X146396296Y-86569504D01*
X146392696Y-86593773D01*
X146386735Y-86617571D01*
X146378470Y-86640671D01*
X146367980Y-86662849D01*
X146355367Y-86683893D01*
X146340753Y-86703598D01*
X146324277Y-86721777D01*
X146306098Y-86738253D01*
X146286393Y-86752867D01*
X146265349Y-86765480D01*
X146243171Y-86775970D01*
X146220071Y-86784235D01*
X146196273Y-86790196D01*
X146172004Y-86793796D01*
X146147500Y-86795000D01*
X145222500Y-86795000D01*
X145197996Y-86793796D01*
X145173727Y-86790196D01*
X145149929Y-86784235D01*
X145126829Y-86775970D01*
X145104651Y-86765480D01*
X145083607Y-86752867D01*
X145063902Y-86738253D01*
X145045723Y-86721777D01*
X145029247Y-86703598D01*
X145014633Y-86683893D01*
X145002020Y-86662849D01*
X144991530Y-86640671D01*
X144983265Y-86617571D01*
X144977304Y-86593773D01*
X144973704Y-86569504D01*
X144972500Y-86545000D01*
X144972500Y-85295000D01*
X144973704Y-85270496D01*
X144977304Y-85246227D01*
X144983265Y-85222429D01*
X144991530Y-85199329D01*
X145002020Y-85177151D01*
X145014633Y-85156107D01*
X145029247Y-85136402D01*
X145045723Y-85118223D01*
X145063902Y-85101747D01*
X145083607Y-85087133D01*
X145104651Y-85074520D01*
X145126829Y-85064030D01*
X145149929Y-85055765D01*
X145173727Y-85049804D01*
X145197996Y-85046204D01*
X145222500Y-85045000D01*
X146147500Y-85045000D01*
X146172004Y-85046204D01*
X146172004Y-85046204D01*
G37*
D15*
X145685000Y-85920000D03*
D13*
G36*
X143197004Y-85046204D02*
G01*
X143221273Y-85049804D01*
X143245071Y-85055765D01*
X143268171Y-85064030D01*
X143290349Y-85074520D01*
X143311393Y-85087133D01*
X143331098Y-85101747D01*
X143349277Y-85118223D01*
X143365753Y-85136402D01*
X143380367Y-85156107D01*
X143392980Y-85177151D01*
X143403470Y-85199329D01*
X143411735Y-85222429D01*
X143417696Y-85246227D01*
X143421296Y-85270496D01*
X143422500Y-85295000D01*
X143422500Y-86545000D01*
X143421296Y-86569504D01*
X143417696Y-86593773D01*
X143411735Y-86617571D01*
X143403470Y-86640671D01*
X143392980Y-86662849D01*
X143380367Y-86683893D01*
X143365753Y-86703598D01*
X143349277Y-86721777D01*
X143331098Y-86738253D01*
X143311393Y-86752867D01*
X143290349Y-86765480D01*
X143268171Y-86775970D01*
X143245071Y-86784235D01*
X143221273Y-86790196D01*
X143197004Y-86793796D01*
X143172500Y-86795000D01*
X142247500Y-86795000D01*
X142222996Y-86793796D01*
X142198727Y-86790196D01*
X142174929Y-86784235D01*
X142151829Y-86775970D01*
X142129651Y-86765480D01*
X142108607Y-86752867D01*
X142088902Y-86738253D01*
X142070723Y-86721777D01*
X142054247Y-86703598D01*
X142039633Y-86683893D01*
X142027020Y-86662849D01*
X142016530Y-86640671D01*
X142008265Y-86617571D01*
X142002304Y-86593773D01*
X141998704Y-86569504D01*
X141997500Y-86545000D01*
X141997500Y-85295000D01*
X141998704Y-85270496D01*
X142002304Y-85246227D01*
X142008265Y-85222429D01*
X142016530Y-85199329D01*
X142027020Y-85177151D01*
X142039633Y-85156107D01*
X142054247Y-85136402D01*
X142070723Y-85118223D01*
X142088902Y-85101747D01*
X142108607Y-85087133D01*
X142129651Y-85074520D01*
X142151829Y-85064030D01*
X142174929Y-85055765D01*
X142198727Y-85049804D01*
X142222996Y-85046204D01*
X142247500Y-85045000D01*
X143172500Y-85045000D01*
X143197004Y-85046204D01*
X143197004Y-85046204D01*
G37*
D15*
X142710000Y-85920000D03*
D13*
G36*
X149070779Y-92786144D02*
G01*
X149093834Y-92789563D01*
X149116443Y-92795227D01*
X149138387Y-92803079D01*
X149159457Y-92813044D01*
X149179448Y-92825026D01*
X149198168Y-92838910D01*
X149215438Y-92854562D01*
X149231090Y-92871832D01*
X149244974Y-92890552D01*
X149256956Y-92910543D01*
X149266921Y-92931613D01*
X149274773Y-92953557D01*
X149280437Y-92976166D01*
X149283856Y-92999221D01*
X149285000Y-93022500D01*
X149285000Y-93597500D01*
X149283856Y-93620779D01*
X149280437Y-93643834D01*
X149274773Y-93666443D01*
X149266921Y-93688387D01*
X149256956Y-93709457D01*
X149244974Y-93729448D01*
X149231090Y-93748168D01*
X149215438Y-93765438D01*
X149198168Y-93781090D01*
X149179448Y-93794974D01*
X149159457Y-93806956D01*
X149138387Y-93816921D01*
X149116443Y-93824773D01*
X149093834Y-93830437D01*
X149070779Y-93833856D01*
X149047500Y-93835000D01*
X148572500Y-93835000D01*
X148549221Y-93833856D01*
X148526166Y-93830437D01*
X148503557Y-93824773D01*
X148481613Y-93816921D01*
X148460543Y-93806956D01*
X148440552Y-93794974D01*
X148421832Y-93781090D01*
X148404562Y-93765438D01*
X148388910Y-93748168D01*
X148375026Y-93729448D01*
X148363044Y-93709457D01*
X148353079Y-93688387D01*
X148345227Y-93666443D01*
X148339563Y-93643834D01*
X148336144Y-93620779D01*
X148335000Y-93597500D01*
X148335000Y-93022500D01*
X148336144Y-92999221D01*
X148339563Y-92976166D01*
X148345227Y-92953557D01*
X148353079Y-92931613D01*
X148363044Y-92910543D01*
X148375026Y-92890552D01*
X148388910Y-92871832D01*
X148404562Y-92854562D01*
X148421832Y-92838910D01*
X148440552Y-92825026D01*
X148460543Y-92813044D01*
X148481613Y-92803079D01*
X148503557Y-92795227D01*
X148526166Y-92789563D01*
X148549221Y-92786144D01*
X148572500Y-92785000D01*
X149047500Y-92785000D01*
X149070779Y-92786144D01*
X149070779Y-92786144D01*
G37*
D14*
X148810000Y-93310000D03*
D13*
G36*
X149070779Y-91036144D02*
G01*
X149093834Y-91039563D01*
X149116443Y-91045227D01*
X149138387Y-91053079D01*
X149159457Y-91063044D01*
X149179448Y-91075026D01*
X149198168Y-91088910D01*
X149215438Y-91104562D01*
X149231090Y-91121832D01*
X149244974Y-91140552D01*
X149256956Y-91160543D01*
X149266921Y-91181613D01*
X149274773Y-91203557D01*
X149280437Y-91226166D01*
X149283856Y-91249221D01*
X149285000Y-91272500D01*
X149285000Y-91847500D01*
X149283856Y-91870779D01*
X149280437Y-91893834D01*
X149274773Y-91916443D01*
X149266921Y-91938387D01*
X149256956Y-91959457D01*
X149244974Y-91979448D01*
X149231090Y-91998168D01*
X149215438Y-92015438D01*
X149198168Y-92031090D01*
X149179448Y-92044974D01*
X149159457Y-92056956D01*
X149138387Y-92066921D01*
X149116443Y-92074773D01*
X149093834Y-92080437D01*
X149070779Y-92083856D01*
X149047500Y-92085000D01*
X148572500Y-92085000D01*
X148549221Y-92083856D01*
X148526166Y-92080437D01*
X148503557Y-92074773D01*
X148481613Y-92066921D01*
X148460543Y-92056956D01*
X148440552Y-92044974D01*
X148421832Y-92031090D01*
X148404562Y-92015438D01*
X148388910Y-91998168D01*
X148375026Y-91979448D01*
X148363044Y-91959457D01*
X148353079Y-91938387D01*
X148345227Y-91916443D01*
X148339563Y-91893834D01*
X148336144Y-91870779D01*
X148335000Y-91847500D01*
X148335000Y-91272500D01*
X148336144Y-91249221D01*
X148339563Y-91226166D01*
X148345227Y-91203557D01*
X148353079Y-91181613D01*
X148363044Y-91160543D01*
X148375026Y-91140552D01*
X148388910Y-91121832D01*
X148404562Y-91104562D01*
X148421832Y-91088910D01*
X148440552Y-91075026D01*
X148460543Y-91063044D01*
X148481613Y-91053079D01*
X148503557Y-91045227D01*
X148526166Y-91039563D01*
X148549221Y-91036144D01*
X148572500Y-91035000D01*
X149047500Y-91035000D01*
X149070779Y-91036144D01*
X149070779Y-91036144D01*
G37*
D14*
X148810000Y-91560000D03*
D13*
G36*
X147370779Y-91046144D02*
G01*
X147393834Y-91049563D01*
X147416443Y-91055227D01*
X147438387Y-91063079D01*
X147459457Y-91073044D01*
X147479448Y-91085026D01*
X147498168Y-91098910D01*
X147515438Y-91114562D01*
X147531090Y-91131832D01*
X147544974Y-91150552D01*
X147556956Y-91170543D01*
X147566921Y-91191613D01*
X147574773Y-91213557D01*
X147580437Y-91236166D01*
X147583856Y-91259221D01*
X147585000Y-91282500D01*
X147585000Y-91857500D01*
X147583856Y-91880779D01*
X147580437Y-91903834D01*
X147574773Y-91926443D01*
X147566921Y-91948387D01*
X147556956Y-91969457D01*
X147544974Y-91989448D01*
X147531090Y-92008168D01*
X147515438Y-92025438D01*
X147498168Y-92041090D01*
X147479448Y-92054974D01*
X147459457Y-92066956D01*
X147438387Y-92076921D01*
X147416443Y-92084773D01*
X147393834Y-92090437D01*
X147370779Y-92093856D01*
X147347500Y-92095000D01*
X146872500Y-92095000D01*
X146849221Y-92093856D01*
X146826166Y-92090437D01*
X146803557Y-92084773D01*
X146781613Y-92076921D01*
X146760543Y-92066956D01*
X146740552Y-92054974D01*
X146721832Y-92041090D01*
X146704562Y-92025438D01*
X146688910Y-92008168D01*
X146675026Y-91989448D01*
X146663044Y-91969457D01*
X146653079Y-91948387D01*
X146645227Y-91926443D01*
X146639563Y-91903834D01*
X146636144Y-91880779D01*
X146635000Y-91857500D01*
X146635000Y-91282500D01*
X146636144Y-91259221D01*
X146639563Y-91236166D01*
X146645227Y-91213557D01*
X146653079Y-91191613D01*
X146663044Y-91170543D01*
X146675026Y-91150552D01*
X146688910Y-91131832D01*
X146704562Y-91114562D01*
X146721832Y-91098910D01*
X146740552Y-91085026D01*
X146760543Y-91073044D01*
X146781613Y-91063079D01*
X146803557Y-91055227D01*
X146826166Y-91049563D01*
X146849221Y-91046144D01*
X146872500Y-91045000D01*
X147347500Y-91045000D01*
X147370779Y-91046144D01*
X147370779Y-91046144D01*
G37*
D14*
X147110000Y-91570000D03*
D13*
G36*
X147370779Y-92796144D02*
G01*
X147393834Y-92799563D01*
X147416443Y-92805227D01*
X147438387Y-92813079D01*
X147459457Y-92823044D01*
X147479448Y-92835026D01*
X147498168Y-92848910D01*
X147515438Y-92864562D01*
X147531090Y-92881832D01*
X147544974Y-92900552D01*
X147556956Y-92920543D01*
X147566921Y-92941613D01*
X147574773Y-92963557D01*
X147580437Y-92986166D01*
X147583856Y-93009221D01*
X147585000Y-93032500D01*
X147585000Y-93607500D01*
X147583856Y-93630779D01*
X147580437Y-93653834D01*
X147574773Y-93676443D01*
X147566921Y-93698387D01*
X147556956Y-93719457D01*
X147544974Y-93739448D01*
X147531090Y-93758168D01*
X147515438Y-93775438D01*
X147498168Y-93791090D01*
X147479448Y-93804974D01*
X147459457Y-93816956D01*
X147438387Y-93826921D01*
X147416443Y-93834773D01*
X147393834Y-93840437D01*
X147370779Y-93843856D01*
X147347500Y-93845000D01*
X146872500Y-93845000D01*
X146849221Y-93843856D01*
X146826166Y-93840437D01*
X146803557Y-93834773D01*
X146781613Y-93826921D01*
X146760543Y-93816956D01*
X146740552Y-93804974D01*
X146721832Y-93791090D01*
X146704562Y-93775438D01*
X146688910Y-93758168D01*
X146675026Y-93739448D01*
X146663044Y-93719457D01*
X146653079Y-93698387D01*
X146645227Y-93676443D01*
X146639563Y-93653834D01*
X146636144Y-93630779D01*
X146635000Y-93607500D01*
X146635000Y-93032500D01*
X146636144Y-93009221D01*
X146639563Y-92986166D01*
X146645227Y-92963557D01*
X146653079Y-92941613D01*
X146663044Y-92920543D01*
X146675026Y-92900552D01*
X146688910Y-92881832D01*
X146704562Y-92864562D01*
X146721832Y-92848910D01*
X146740552Y-92835026D01*
X146760543Y-92823044D01*
X146781613Y-92813079D01*
X146803557Y-92805227D01*
X146826166Y-92799563D01*
X146849221Y-92796144D01*
X146872500Y-92795000D01*
X147347500Y-92795000D01*
X147370779Y-92796144D01*
X147370779Y-92796144D01*
G37*
D14*
X147110000Y-93320000D03*
D13*
G36*
X144220779Y-87846144D02*
G01*
X144243834Y-87849563D01*
X144266443Y-87855227D01*
X144288387Y-87863079D01*
X144309457Y-87873044D01*
X144329448Y-87885026D01*
X144348168Y-87898910D01*
X144365438Y-87914562D01*
X144381090Y-87931832D01*
X144394974Y-87950552D01*
X144406956Y-87970543D01*
X144416921Y-87991613D01*
X144424773Y-88013557D01*
X144430437Y-88036166D01*
X144433856Y-88059221D01*
X144435000Y-88082500D01*
X144435000Y-88557500D01*
X144433856Y-88580779D01*
X144430437Y-88603834D01*
X144424773Y-88626443D01*
X144416921Y-88648387D01*
X144406956Y-88669457D01*
X144394974Y-88689448D01*
X144381090Y-88708168D01*
X144365438Y-88725438D01*
X144348168Y-88741090D01*
X144329448Y-88754974D01*
X144309457Y-88766956D01*
X144288387Y-88776921D01*
X144266443Y-88784773D01*
X144243834Y-88790437D01*
X144220779Y-88793856D01*
X144197500Y-88795000D01*
X143622500Y-88795000D01*
X143599221Y-88793856D01*
X143576166Y-88790437D01*
X143553557Y-88784773D01*
X143531613Y-88776921D01*
X143510543Y-88766956D01*
X143490552Y-88754974D01*
X143471832Y-88741090D01*
X143454562Y-88725438D01*
X143438910Y-88708168D01*
X143425026Y-88689448D01*
X143413044Y-88669457D01*
X143403079Y-88648387D01*
X143395227Y-88626443D01*
X143389563Y-88603834D01*
X143386144Y-88580779D01*
X143385000Y-88557500D01*
X143385000Y-88082500D01*
X143386144Y-88059221D01*
X143389563Y-88036166D01*
X143395227Y-88013557D01*
X143403079Y-87991613D01*
X143413044Y-87970543D01*
X143425026Y-87950552D01*
X143438910Y-87931832D01*
X143454562Y-87914562D01*
X143471832Y-87898910D01*
X143490552Y-87885026D01*
X143510543Y-87873044D01*
X143531613Y-87863079D01*
X143553557Y-87855227D01*
X143576166Y-87849563D01*
X143599221Y-87846144D01*
X143622500Y-87845000D01*
X144197500Y-87845000D01*
X144220779Y-87846144D01*
X144220779Y-87846144D01*
G37*
D14*
X143910000Y-88320000D03*
D13*
G36*
X145970779Y-87846144D02*
G01*
X145993834Y-87849563D01*
X146016443Y-87855227D01*
X146038387Y-87863079D01*
X146059457Y-87873044D01*
X146079448Y-87885026D01*
X146098168Y-87898910D01*
X146115438Y-87914562D01*
X146131090Y-87931832D01*
X146144974Y-87950552D01*
X146156956Y-87970543D01*
X146166921Y-87991613D01*
X146174773Y-88013557D01*
X146180437Y-88036166D01*
X146183856Y-88059221D01*
X146185000Y-88082500D01*
X146185000Y-88557500D01*
X146183856Y-88580779D01*
X146180437Y-88603834D01*
X146174773Y-88626443D01*
X146166921Y-88648387D01*
X146156956Y-88669457D01*
X146144974Y-88689448D01*
X146131090Y-88708168D01*
X146115438Y-88725438D01*
X146098168Y-88741090D01*
X146079448Y-88754974D01*
X146059457Y-88766956D01*
X146038387Y-88776921D01*
X146016443Y-88784773D01*
X145993834Y-88790437D01*
X145970779Y-88793856D01*
X145947500Y-88795000D01*
X145372500Y-88795000D01*
X145349221Y-88793856D01*
X145326166Y-88790437D01*
X145303557Y-88784773D01*
X145281613Y-88776921D01*
X145260543Y-88766956D01*
X145240552Y-88754974D01*
X145221832Y-88741090D01*
X145204562Y-88725438D01*
X145188910Y-88708168D01*
X145175026Y-88689448D01*
X145163044Y-88669457D01*
X145153079Y-88648387D01*
X145145227Y-88626443D01*
X145139563Y-88603834D01*
X145136144Y-88580779D01*
X145135000Y-88557500D01*
X145135000Y-88082500D01*
X145136144Y-88059221D01*
X145139563Y-88036166D01*
X145145227Y-88013557D01*
X145153079Y-87991613D01*
X145163044Y-87970543D01*
X145175026Y-87950552D01*
X145188910Y-87931832D01*
X145204562Y-87914562D01*
X145221832Y-87898910D01*
X145240552Y-87885026D01*
X145260543Y-87873044D01*
X145281613Y-87863079D01*
X145303557Y-87855227D01*
X145326166Y-87849563D01*
X145349221Y-87846144D01*
X145372500Y-87845000D01*
X145947500Y-87845000D01*
X145970779Y-87846144D01*
X145970779Y-87846144D01*
G37*
D14*
X145660000Y-88320000D03*
D16*
X142910000Y-90420000D03*
X143860000Y-90420000D03*
X144810000Y-90420000D03*
X144810000Y-93120000D03*
X142910000Y-93120000D03*
X143860000Y-93120000D03*
D17*
X142470000Y-82110000D03*
D18*
X142470000Y-75810000D03*
X144770000Y-75810000D03*
X140170000Y-75810000D03*
D19*
X143860000Y-35675000D03*
X143860000Y-30625000D03*
X141320000Y-35675000D03*
X141320000Y-30625000D03*
X138780000Y-35675000D03*
X138780000Y-30625000D03*
X136240000Y-35675000D03*
X136240000Y-30625000D03*
X133700000Y-35675000D03*
X133700000Y-30625000D03*
X131160000Y-35675000D03*
X131160000Y-30625000D03*
X128620000Y-35675000D03*
X128620000Y-30625000D03*
X126080000Y-35675000D03*
X126080000Y-30625000D03*
X123540000Y-35675000D03*
X123540000Y-30625000D03*
X121000000Y-35675000D03*
X121000000Y-30625000D03*
X118460000Y-35675000D03*
X118460000Y-30625000D03*
X115920000Y-35675000D03*
X115920000Y-30625000D03*
X113380000Y-35675000D03*
X113380000Y-30625000D03*
X110840000Y-35675000D03*
X110840000Y-30625000D03*
X108300000Y-35675000D03*
X108300000Y-30625000D03*
X105760000Y-35675000D03*
X105760000Y-30625000D03*
D20*
X148700000Y-126300000D03*
X99400000Y-126300000D03*
D13*
G36*
X135850779Y-76546144D02*
G01*
X135873834Y-76549563D01*
X135896443Y-76555227D01*
X135918387Y-76563079D01*
X135939457Y-76573044D01*
X135959448Y-76585026D01*
X135978168Y-76598910D01*
X135995438Y-76614562D01*
X136011090Y-76631832D01*
X136024974Y-76650552D01*
X136036956Y-76670543D01*
X136046921Y-76691613D01*
X136054773Y-76713557D01*
X136060437Y-76736166D01*
X136063856Y-76759221D01*
X136065000Y-76782500D01*
X136065000Y-77357500D01*
X136063856Y-77380779D01*
X136060437Y-77403834D01*
X136054773Y-77426443D01*
X136046921Y-77448387D01*
X136036956Y-77469457D01*
X136024974Y-77489448D01*
X136011090Y-77508168D01*
X135995438Y-77525438D01*
X135978168Y-77541090D01*
X135959448Y-77554974D01*
X135939457Y-77566956D01*
X135918387Y-77576921D01*
X135896443Y-77584773D01*
X135873834Y-77590437D01*
X135850779Y-77593856D01*
X135827500Y-77595000D01*
X135352500Y-77595000D01*
X135329221Y-77593856D01*
X135306166Y-77590437D01*
X135283557Y-77584773D01*
X135261613Y-77576921D01*
X135240543Y-77566956D01*
X135220552Y-77554974D01*
X135201832Y-77541090D01*
X135184562Y-77525438D01*
X135168910Y-77508168D01*
X135155026Y-77489448D01*
X135143044Y-77469457D01*
X135133079Y-77448387D01*
X135125227Y-77426443D01*
X135119563Y-77403834D01*
X135116144Y-77380779D01*
X135115000Y-77357500D01*
X135115000Y-76782500D01*
X135116144Y-76759221D01*
X135119563Y-76736166D01*
X135125227Y-76713557D01*
X135133079Y-76691613D01*
X135143044Y-76670543D01*
X135155026Y-76650552D01*
X135168910Y-76631832D01*
X135184562Y-76614562D01*
X135201832Y-76598910D01*
X135220552Y-76585026D01*
X135240543Y-76573044D01*
X135261613Y-76563079D01*
X135283557Y-76555227D01*
X135306166Y-76549563D01*
X135329221Y-76546144D01*
X135352500Y-76545000D01*
X135827500Y-76545000D01*
X135850779Y-76546144D01*
X135850779Y-76546144D01*
G37*
D14*
X135590000Y-77070000D03*
D13*
G36*
X135850779Y-74796144D02*
G01*
X135873834Y-74799563D01*
X135896443Y-74805227D01*
X135918387Y-74813079D01*
X135939457Y-74823044D01*
X135959448Y-74835026D01*
X135978168Y-74848910D01*
X135995438Y-74864562D01*
X136011090Y-74881832D01*
X136024974Y-74900552D01*
X136036956Y-74920543D01*
X136046921Y-74941613D01*
X136054773Y-74963557D01*
X136060437Y-74986166D01*
X136063856Y-75009221D01*
X136065000Y-75032500D01*
X136065000Y-75607500D01*
X136063856Y-75630779D01*
X136060437Y-75653834D01*
X136054773Y-75676443D01*
X136046921Y-75698387D01*
X136036956Y-75719457D01*
X136024974Y-75739448D01*
X136011090Y-75758168D01*
X135995438Y-75775438D01*
X135978168Y-75791090D01*
X135959448Y-75804974D01*
X135939457Y-75816956D01*
X135918387Y-75826921D01*
X135896443Y-75834773D01*
X135873834Y-75840437D01*
X135850779Y-75843856D01*
X135827500Y-75845000D01*
X135352500Y-75845000D01*
X135329221Y-75843856D01*
X135306166Y-75840437D01*
X135283557Y-75834773D01*
X135261613Y-75826921D01*
X135240543Y-75816956D01*
X135220552Y-75804974D01*
X135201832Y-75791090D01*
X135184562Y-75775438D01*
X135168910Y-75758168D01*
X135155026Y-75739448D01*
X135143044Y-75719457D01*
X135133079Y-75698387D01*
X135125227Y-75676443D01*
X135119563Y-75653834D01*
X135116144Y-75630779D01*
X135115000Y-75607500D01*
X135115000Y-75032500D01*
X135116144Y-75009221D01*
X135119563Y-74986166D01*
X135125227Y-74963557D01*
X135133079Y-74941613D01*
X135143044Y-74920543D01*
X135155026Y-74900552D01*
X135168910Y-74881832D01*
X135184562Y-74864562D01*
X135201832Y-74848910D01*
X135220552Y-74835026D01*
X135240543Y-74823044D01*
X135261613Y-74813079D01*
X135283557Y-74805227D01*
X135306166Y-74799563D01*
X135329221Y-74796144D01*
X135352500Y-74795000D01*
X135827500Y-74795000D01*
X135850779Y-74796144D01*
X135850779Y-74796144D01*
G37*
D14*
X135590000Y-75320000D03*
D13*
G36*
X141209504Y-92496204D02*
G01*
X141233773Y-92499804D01*
X141257571Y-92505765D01*
X141280671Y-92514030D01*
X141302849Y-92524520D01*
X141323893Y-92537133D01*
X141343598Y-92551747D01*
X141361777Y-92568223D01*
X141378253Y-92586402D01*
X141392867Y-92606107D01*
X141405480Y-92627151D01*
X141415970Y-92649329D01*
X141424235Y-92672429D01*
X141430196Y-92696227D01*
X141433796Y-92720496D01*
X141435000Y-92745000D01*
X141435000Y-93495000D01*
X141433796Y-93519504D01*
X141430196Y-93543773D01*
X141424235Y-93567571D01*
X141415970Y-93590671D01*
X141405480Y-93612849D01*
X141392867Y-93633893D01*
X141378253Y-93653598D01*
X141361777Y-93671777D01*
X141343598Y-93688253D01*
X141323893Y-93702867D01*
X141302849Y-93715480D01*
X141280671Y-93725970D01*
X141257571Y-93734235D01*
X141233773Y-93740196D01*
X141209504Y-93743796D01*
X141185000Y-93745000D01*
X139035000Y-93745000D01*
X139010496Y-93743796D01*
X138986227Y-93740196D01*
X138962429Y-93734235D01*
X138939329Y-93725970D01*
X138917151Y-93715480D01*
X138896107Y-93702867D01*
X138876402Y-93688253D01*
X138858223Y-93671777D01*
X138841747Y-93653598D01*
X138827133Y-93633893D01*
X138814520Y-93612849D01*
X138804030Y-93590671D01*
X138795765Y-93567571D01*
X138789804Y-93543773D01*
X138786204Y-93519504D01*
X138785000Y-93495000D01*
X138785000Y-92745000D01*
X138786204Y-92720496D01*
X138789804Y-92696227D01*
X138795765Y-92672429D01*
X138804030Y-92649329D01*
X138814520Y-92627151D01*
X138827133Y-92606107D01*
X138841747Y-92586402D01*
X138858223Y-92568223D01*
X138876402Y-92551747D01*
X138896107Y-92537133D01*
X138917151Y-92524520D01*
X138939329Y-92514030D01*
X138962429Y-92505765D01*
X138986227Y-92499804D01*
X139010496Y-92496204D01*
X139035000Y-92495000D01*
X141185000Y-92495000D01*
X141209504Y-92496204D01*
X141209504Y-92496204D01*
G37*
D21*
X140110000Y-93120000D03*
D13*
G36*
X141209504Y-89696204D02*
G01*
X141233773Y-89699804D01*
X141257571Y-89705765D01*
X141280671Y-89714030D01*
X141302849Y-89724520D01*
X141323893Y-89737133D01*
X141343598Y-89751747D01*
X141361777Y-89768223D01*
X141378253Y-89786402D01*
X141392867Y-89806107D01*
X141405480Y-89827151D01*
X141415970Y-89849329D01*
X141424235Y-89872429D01*
X141430196Y-89896227D01*
X141433796Y-89920496D01*
X141435000Y-89945000D01*
X141435000Y-90695000D01*
X141433796Y-90719504D01*
X141430196Y-90743773D01*
X141424235Y-90767571D01*
X141415970Y-90790671D01*
X141405480Y-90812849D01*
X141392867Y-90833893D01*
X141378253Y-90853598D01*
X141361777Y-90871777D01*
X141343598Y-90888253D01*
X141323893Y-90902867D01*
X141302849Y-90915480D01*
X141280671Y-90925970D01*
X141257571Y-90934235D01*
X141233773Y-90940196D01*
X141209504Y-90943796D01*
X141185000Y-90945000D01*
X139035000Y-90945000D01*
X139010496Y-90943796D01*
X138986227Y-90940196D01*
X138962429Y-90934235D01*
X138939329Y-90925970D01*
X138917151Y-90915480D01*
X138896107Y-90902867D01*
X138876402Y-90888253D01*
X138858223Y-90871777D01*
X138841747Y-90853598D01*
X138827133Y-90833893D01*
X138814520Y-90812849D01*
X138804030Y-90790671D01*
X138795765Y-90767571D01*
X138789804Y-90743773D01*
X138786204Y-90719504D01*
X138785000Y-90695000D01*
X138785000Y-89945000D01*
X138786204Y-89920496D01*
X138789804Y-89896227D01*
X138795765Y-89872429D01*
X138804030Y-89849329D01*
X138814520Y-89827151D01*
X138827133Y-89806107D01*
X138841747Y-89786402D01*
X138858223Y-89768223D01*
X138876402Y-89751747D01*
X138896107Y-89737133D01*
X138917151Y-89724520D01*
X138939329Y-89714030D01*
X138962429Y-89705765D01*
X138986227Y-89699804D01*
X139010496Y-89696204D01*
X139035000Y-89695000D01*
X141185000Y-89695000D01*
X141209504Y-89696204D01*
X141209504Y-89696204D01*
G37*
D21*
X140110000Y-90320000D03*
D22*
X143840000Y-28500000D03*
X140130000Y-94370000D03*
X147320000Y-90170000D03*
X148082000Y-84074000D03*
X150430000Y-45290000D03*
X145070000Y-35680000D03*
X143910000Y-87340000D03*
X147828000Y-77978000D03*
X138684000Y-76200000D03*
X137414000Y-90424000D03*
X142760000Y-63920000D03*
X145920000Y-27190000D03*
X142470000Y-82110000D03*
X150450000Y-46470000D03*
X142810000Y-70800000D03*
X137520000Y-42240000D03*
X137570000Y-46980000D03*
X147040000Y-46880000D03*
X141860000Y-45950000D03*
X150420000Y-47550000D03*
X142550000Y-45100000D03*
X150460000Y-48720000D03*
X105760000Y-46780000D03*
X147070000Y-49080000D03*
X108310000Y-48080000D03*
X150450000Y-49920000D03*
X110910000Y-49350000D03*
X147070000Y-50419999D03*
X113390000Y-51070000D03*
X150450000Y-51110000D03*
X115920000Y-52380000D03*
X147090000Y-51720000D03*
X118450000Y-53780000D03*
X150430000Y-52310000D03*
X121020000Y-55140000D03*
X147050000Y-53620000D03*
X123570000Y-60690000D03*
X150450000Y-53330000D03*
X126050001Y-61329999D03*
X150470000Y-54370000D03*
X128610000Y-61980000D03*
X131220000Y-62630000D03*
X150470000Y-56200000D03*
X147210000Y-55320000D03*
X133690000Y-59860000D03*
X140030000Y-43850000D03*
X140270000Y-47040000D03*
X137010000Y-48350000D03*
X107000000Y-47430000D03*
X135790000Y-49080000D03*
X109450000Y-48730000D03*
X135785381Y-50405380D03*
X112200000Y-50400000D03*
X136400134Y-51720134D03*
X114690000Y-51720000D03*
X136979759Y-53059759D03*
X117220000Y-53060000D03*
X139175380Y-52745380D03*
X119710000Y-54410000D03*
X139240000Y-54670000D03*
X122250000Y-55790000D03*
X140385760Y-54445760D03*
X124770000Y-56460000D03*
X139245380Y-56505380D03*
X127400000Y-57120000D03*
X140440000Y-56230000D03*
X129910000Y-57770000D03*
X139300000Y-58430000D03*
X132430000Y-58420000D03*
X141430000Y-57260000D03*
X134990000Y-59210000D03*
X141350000Y-33520000D03*
X149920000Y-90440000D03*
D23*
X144930000Y-75970000D02*
X144770000Y-75810000D01*
D24*
X143860000Y-30625000D02*
X143860000Y-28520000D01*
X143860000Y-28520000D02*
X143840000Y-28500000D01*
X140000000Y-93230000D02*
X140110000Y-93120000D01*
X137370000Y-93230000D02*
X140000000Y-93230000D01*
X140110000Y-93120000D02*
X142910000Y-93120000D01*
D23*
X140110000Y-93120000D02*
X140110000Y-94350000D01*
X140110000Y-94350000D02*
X140130000Y-94370000D01*
X147110000Y-91570000D02*
X147110000Y-90380000D01*
X147110000Y-90380000D02*
X147320000Y-90170000D01*
X147285000Y-75810000D02*
X147740000Y-75355000D01*
X144770000Y-75810000D02*
X147285000Y-75810000D01*
X144770000Y-75810000D02*
X144770000Y-77300000D01*
X148082000Y-80612000D02*
X148082000Y-84074000D01*
X144770000Y-77300000D02*
X148082000Y-80612000D01*
D24*
X148795000Y-45120000D02*
X150260000Y-45120000D01*
X150260000Y-45120000D02*
X150430000Y-45290000D01*
D23*
X143860000Y-35675000D02*
X145065000Y-35675000D01*
X145065000Y-35675000D02*
X145070000Y-35680000D01*
D24*
X137360000Y-91470000D02*
X137370000Y-91480000D01*
X135550000Y-91470000D02*
X137360000Y-91470000D01*
X143910000Y-88320000D02*
X143910000Y-87340000D01*
X139680000Y-75320000D02*
X140170000Y-75810000D01*
X135590000Y-75320000D02*
X139680000Y-75320000D01*
D23*
X147740000Y-77105000D02*
X147740000Y-77890000D01*
X147740000Y-77890000D02*
X147828000Y-77978000D01*
X140170000Y-75810000D02*
X139074000Y-75810000D01*
X139074000Y-75810000D02*
X138684000Y-76200000D01*
X137370000Y-91480000D02*
X137370000Y-90468000D01*
X137370000Y-90468000D02*
X137414000Y-90424000D01*
X143860000Y-88370000D02*
X143910000Y-88320000D01*
X143860000Y-90420000D02*
X143860000Y-88370000D01*
D24*
X143530000Y-36005000D02*
X143860000Y-35675000D01*
X143530000Y-45170002D02*
X143530000Y-36005000D01*
X145110000Y-46000000D02*
X144359998Y-46000000D01*
X144359998Y-46000000D02*
X143530000Y-45170002D01*
X146060000Y-46000000D02*
X145110000Y-46000000D01*
X146389999Y-46329999D02*
X146060000Y-46000000D01*
X146389999Y-47699999D02*
X146389999Y-46329999D01*
X146810000Y-48120000D02*
X146389999Y-47699999D01*
X148795000Y-48120000D02*
X146810000Y-48120000D01*
X142760000Y-57000000D02*
X142760000Y-63920000D01*
X145110000Y-55600000D02*
X144160000Y-55600000D01*
X144160000Y-55600000D02*
X142760000Y-57000000D01*
X143860000Y-93120000D02*
X143860000Y-94650000D01*
X143860000Y-94650000D02*
X142760000Y-95750000D01*
X142760000Y-95750000D02*
X136730000Y-95750000D01*
X136730000Y-95750000D02*
X135540000Y-94560000D01*
D25*
X146826000Y-42680000D02*
X146880000Y-42680000D01*
X145110000Y-44396000D02*
X146826000Y-42680000D01*
X145110000Y-44800000D02*
X145110000Y-44396000D01*
D24*
X146880000Y-42680000D02*
X150210000Y-42680000D01*
D25*
X150980000Y-42680000D02*
X146826000Y-42680000D01*
X143860000Y-94660000D02*
X144590000Y-95390000D01*
X144590000Y-95390000D02*
X149710000Y-95390000D01*
X151900000Y-93200000D02*
X151900000Y-43600000D01*
X151900000Y-43600000D02*
X150980000Y-42680000D01*
X135550000Y-94550000D02*
X135540000Y-94560000D01*
X135550000Y-93220000D02*
X135550000Y-94550000D01*
X135550000Y-94550000D02*
X135550000Y-94570000D01*
X142770000Y-95750000D02*
X143860000Y-94660000D01*
X136730000Y-95750000D02*
X142770000Y-95750000D01*
D26*
X134670000Y-93220000D02*
X135550000Y-93220000D01*
X136580000Y-84000000D02*
X133660000Y-86920000D01*
X145685000Y-85920000D02*
X143765000Y-84000000D01*
X143765000Y-84000000D02*
X136580000Y-84000000D01*
X135550000Y-94570000D02*
X136730000Y-95750000D01*
X135550000Y-93220000D02*
X135550000Y-94570000D01*
X149350000Y-95750000D02*
X151800000Y-93300000D01*
D25*
X149710000Y-95390000D02*
X151800000Y-93300000D01*
X151800000Y-93300000D02*
X151900000Y-93200000D01*
D23*
X143860000Y-93120000D02*
X143860000Y-94660000D01*
D26*
X143860000Y-95460000D02*
X144150000Y-95750000D01*
X143860000Y-94650000D02*
X143860000Y-95460000D01*
X136730000Y-95750000D02*
X144150000Y-95750000D01*
X144150000Y-95750000D02*
X149350000Y-95750000D01*
X134670000Y-93690000D02*
X136730000Y-95750000D01*
X134670000Y-93220000D02*
X134670000Y-93690000D01*
X133660000Y-92210000D02*
X134670000Y-93220000D01*
X136730000Y-95750000D02*
X136644000Y-95750000D01*
X133660000Y-92766000D02*
X133660000Y-91496000D01*
X136644000Y-95750000D02*
X133660000Y-92766000D01*
X133660000Y-86920000D02*
X133660000Y-91496000D01*
X133660000Y-91496000D02*
X133660000Y-92210000D01*
D24*
X135590000Y-77070000D02*
X137440000Y-77070000D01*
D25*
X145110000Y-45400000D02*
X146600000Y-45400000D01*
X146920000Y-45720000D02*
X148795000Y-45720000D01*
X146600000Y-45400000D02*
X146920000Y-45720000D01*
X148795000Y-45720000D02*
X149700000Y-45720000D01*
X149700000Y-45720000D02*
X150450000Y-46470000D01*
D26*
X142470000Y-71140000D02*
X142810000Y-70800000D01*
X142470000Y-75810000D02*
X142470000Y-71140000D01*
X137440000Y-77070000D02*
X137440000Y-78206000D01*
X137440000Y-78206000D02*
X138228000Y-78994000D01*
X138228000Y-78994000D02*
X141478000Y-78994000D01*
X142470000Y-78002000D02*
X142470000Y-75810000D01*
X141478000Y-78994000D02*
X142470000Y-78002000D01*
X142470000Y-75810000D02*
X142470000Y-82110000D01*
D24*
X136240000Y-31700000D02*
X137520000Y-32980000D01*
X136240000Y-30625000D02*
X136240000Y-31700000D01*
X137520000Y-32980000D02*
X137520000Y-41640000D01*
X137520000Y-41640000D02*
X137520000Y-42240000D01*
X137969999Y-47379999D02*
X137979999Y-47379999D01*
X137570000Y-46980000D02*
X137969999Y-47379999D01*
X138400000Y-47800000D02*
X139210000Y-47800000D01*
X137979999Y-47379999D02*
X138400000Y-47800000D01*
X145110000Y-47800000D02*
X139210000Y-47800000D01*
D23*
X142810000Y-90320000D02*
X142910000Y-90420000D01*
X140110000Y-90320000D02*
X142810000Y-90320000D01*
X142710000Y-90220000D02*
X142910000Y-90420000D01*
X142710000Y-85920000D02*
X142710000Y-90220000D01*
D24*
X147540000Y-88320000D02*
X145660000Y-88320000D01*
X151449990Y-84410010D02*
X147540000Y-88320000D01*
D23*
X144810000Y-89170000D02*
X145660000Y-88320000D01*
X144810000Y-90420000D02*
X144810000Y-89170000D01*
D26*
X147532990Y-88320000D02*
X151122990Y-84730000D01*
X145660000Y-88320000D02*
X147532990Y-88320000D01*
D23*
X151122990Y-84577010D02*
X151122990Y-84730000D01*
D25*
X150920000Y-44520000D02*
X148795000Y-44520000D01*
X151449990Y-45049990D02*
X150920000Y-44520000D01*
X151449990Y-84350010D02*
X151449990Y-45049990D01*
X151222990Y-84577010D02*
X151449990Y-84350010D01*
X151122990Y-84577010D02*
X151222990Y-84577010D01*
D24*
X148795000Y-46920000D02*
X147770000Y-46920000D01*
X147770000Y-46920000D02*
X147080000Y-46920000D01*
X147080000Y-46920000D02*
X147040000Y-46880000D01*
X138849620Y-35744620D02*
X138780000Y-35675000D01*
X138849620Y-43650380D02*
X138849620Y-35744620D01*
X138849620Y-43650380D02*
X138849620Y-43869620D01*
X138849620Y-43869620D02*
X140930000Y-45950000D01*
X140930000Y-45950000D02*
X141860000Y-45950000D01*
X141320000Y-30625000D02*
X141320000Y-31660000D01*
X141320000Y-31660000D02*
X142540000Y-32880000D01*
X148795000Y-47520000D02*
X150390000Y-47520000D01*
X150390000Y-47520000D02*
X150420000Y-47550000D01*
X142550000Y-37340000D02*
X142540000Y-37330000D01*
X142550000Y-45100000D02*
X142550000Y-37340000D01*
X142540000Y-32880000D02*
X142540000Y-37330000D01*
X142540000Y-37330000D02*
X142540000Y-38120000D01*
X148795000Y-48720000D02*
X150460000Y-48720000D01*
X105760000Y-46780000D02*
X105760000Y-47030000D01*
X105760000Y-35675000D02*
X105760000Y-46780000D01*
X108300000Y-35675000D02*
X108300000Y-46070000D01*
X148795000Y-49320000D02*
X147310000Y-49320000D01*
X147310000Y-49320000D02*
X147070000Y-49080000D01*
X108300000Y-46070000D02*
X108300000Y-48070000D01*
X108300000Y-48070000D02*
X108310000Y-48080000D01*
X148795000Y-49920000D02*
X150450000Y-49920000D01*
X110840000Y-49280000D02*
X110910000Y-49350000D01*
X110840000Y-35675000D02*
X110840000Y-49280000D01*
X113380000Y-37450000D02*
X113390000Y-37460000D01*
X113380000Y-35675000D02*
X113380000Y-37450000D01*
X113390000Y-37460000D02*
X113390000Y-44820000D01*
X148795000Y-50520000D02*
X147170001Y-50520000D01*
X147170001Y-50520000D02*
X147070000Y-50419999D01*
X113390000Y-44820000D02*
X113390000Y-51070000D01*
X115920000Y-37450000D02*
X115930000Y-37460000D01*
X115920000Y-35675000D02*
X115920000Y-37450000D01*
X148795000Y-51120000D02*
X150440000Y-51120000D01*
X150440000Y-51120000D02*
X150450000Y-51110000D01*
X115930000Y-52370000D02*
X115920000Y-52380000D01*
X115930000Y-44340000D02*
X115930000Y-52370000D01*
X115930000Y-44340000D02*
X115930000Y-44440000D01*
X115930000Y-37460000D02*
X115930000Y-44340000D01*
X148795000Y-51720000D02*
X147090000Y-51720000D01*
X118460000Y-53770000D02*
X118450000Y-53780000D01*
X118460000Y-43800000D02*
X118460000Y-53770000D01*
X118460000Y-43800000D02*
X118460000Y-43960000D01*
X118460000Y-35675000D02*
X118460000Y-43800000D01*
X121000000Y-37450000D02*
X121030000Y-37480000D01*
X121000000Y-35675000D02*
X121000000Y-37450000D01*
X148795000Y-52320000D02*
X150420000Y-52320000D01*
X150420000Y-52320000D02*
X150430000Y-52310000D01*
X121030000Y-55130000D02*
X121020000Y-55140000D01*
X121030000Y-43720000D02*
X121030000Y-55130000D01*
X121030000Y-43720000D02*
X121030000Y-43860000D01*
X121030000Y-37480000D02*
X121030000Y-43720000D01*
X123540000Y-35675000D02*
X123540000Y-37290000D01*
X123540000Y-37290000D02*
X123560000Y-37310000D01*
X123560000Y-37310000D02*
X123560000Y-43290000D01*
X148795000Y-52920000D02*
X147750000Y-52920000D01*
X147750000Y-52920000D02*
X147050000Y-53620000D01*
X123560000Y-43290000D02*
X123560000Y-60680000D01*
X123560000Y-60680000D02*
X123570000Y-60690000D01*
X148795000Y-53520000D02*
X150260000Y-53520000D01*
X150260000Y-53520000D02*
X150450000Y-53330000D01*
X126080000Y-61300000D02*
X126050001Y-61329999D01*
X126080000Y-35675000D02*
X126080000Y-61300000D01*
X128620000Y-35675000D02*
X128620000Y-37450000D01*
X128620000Y-37450000D02*
X128620000Y-42610000D01*
X148795000Y-54120000D02*
X150220000Y-54120000D01*
X150220000Y-54120000D02*
X150470000Y-54370000D01*
X128620000Y-61950000D02*
X128630000Y-61960000D01*
X128610000Y-61400000D02*
X128610000Y-61980000D01*
X128620000Y-61390000D02*
X128610000Y-61400000D01*
X128620000Y-61390000D02*
X128620000Y-61950000D01*
X128620000Y-42610000D02*
X128620000Y-61390000D01*
X131160000Y-62570000D02*
X131220000Y-62630000D01*
X131160000Y-35675000D02*
X131160000Y-62570000D01*
X150470000Y-55370000D02*
X150470000Y-56200000D01*
X148795000Y-54720000D02*
X149820000Y-54720000D01*
X149820000Y-54720000D02*
X150470000Y-55370000D01*
X133700000Y-35675000D02*
X133700000Y-37450000D01*
X148795000Y-55320000D02*
X147210000Y-55320000D01*
X133700000Y-42170000D02*
X133700000Y-53380000D01*
X133700000Y-42170000D02*
X133700000Y-42340000D01*
X133700000Y-37450000D02*
X133700000Y-42170000D01*
X133700000Y-55310000D02*
X133680000Y-55330000D01*
X133700000Y-59284315D02*
X133700000Y-55080000D01*
X133690000Y-59294315D02*
X133700000Y-59284315D01*
X133690000Y-59860000D02*
X133690000Y-59294315D01*
X133700000Y-53380000D02*
X133700000Y-55080000D01*
X133700000Y-55080000D02*
X133700000Y-55310000D01*
X136240000Y-37450000D02*
X136230000Y-37460000D01*
X136240000Y-35675000D02*
X136240000Y-37450000D01*
X140880000Y-46600000D02*
X136230000Y-41950000D01*
X145110000Y-46600000D02*
X140880000Y-46600000D01*
X136230000Y-37460000D02*
X136230000Y-41950000D01*
X138780000Y-30625000D02*
X138780000Y-31650000D01*
X138780000Y-31650000D02*
X140050000Y-32920000D01*
X140050000Y-32920000D02*
X140050000Y-35780000D01*
X140050000Y-35780000D02*
X140050000Y-38840000D01*
X145110000Y-47200000D02*
X140430000Y-47200000D01*
X140430000Y-47200000D02*
X140270000Y-47040000D01*
X140070000Y-43810000D02*
X140030000Y-43850000D01*
X140050000Y-43830000D02*
X140030000Y-43850000D01*
X140050000Y-35780000D02*
X140050000Y-43830000D01*
X105760000Y-32400000D02*
X107000000Y-33640000D01*
X105760000Y-30625000D02*
X105760000Y-32400000D01*
X107000000Y-33640000D02*
X107000000Y-46320000D01*
X145110000Y-48400000D02*
X137060000Y-48400000D01*
X137060000Y-48400000D02*
X137010000Y-48350000D01*
X107000000Y-46320000D02*
X107000000Y-47430000D01*
X108300000Y-31700000D02*
X109470000Y-32870000D01*
X108300000Y-30625000D02*
X108300000Y-31700000D01*
X145110000Y-49000000D02*
X144160000Y-49000000D01*
X144160000Y-49000000D02*
X137600000Y-49000000D01*
X137600000Y-49000000D02*
X135870000Y-49000000D01*
X135870000Y-49000000D02*
X135790000Y-49080000D01*
X109450000Y-45250000D02*
X109470000Y-45230000D01*
X109450000Y-48730000D02*
X109450000Y-45250000D01*
X109470000Y-32870000D02*
X109470000Y-45230000D01*
X109470000Y-45230000D02*
X109470000Y-45710000D01*
X110840000Y-30625000D02*
X110840000Y-31790000D01*
X110840000Y-31790000D02*
X112200000Y-33150000D01*
X112200000Y-33150000D02*
X112200000Y-45050000D01*
X145110000Y-49600000D02*
X144160000Y-49600000D01*
X144160000Y-49600000D02*
X136590761Y-49600000D01*
X136590761Y-49600000D02*
X135785381Y-50405380D01*
X112200000Y-45050000D02*
X112200000Y-50400000D01*
X113380000Y-31700000D02*
X114680000Y-33000000D01*
X113380000Y-30625000D02*
X113380000Y-31700000D01*
X114680000Y-33000000D02*
X114680000Y-44520000D01*
X145110000Y-50200000D02*
X137920268Y-50200000D01*
X137920268Y-50200000D02*
X136400134Y-51720134D01*
X114680000Y-44520000D02*
X114680000Y-51710000D01*
X114680000Y-51710000D02*
X114690000Y-51720000D01*
X115920000Y-31700000D02*
X117200000Y-32980000D01*
X115920000Y-30625000D02*
X115920000Y-31700000D01*
X117200000Y-32980000D02*
X117200000Y-44210000D01*
X145110000Y-50800000D02*
X139239518Y-50800000D01*
X139239518Y-50800000D02*
X136979759Y-53059759D01*
X117200000Y-44210000D02*
X117200000Y-53040000D01*
X117200000Y-53040000D02*
X117220000Y-53060000D01*
X118460000Y-30625000D02*
X118460000Y-31600000D01*
X118460000Y-31600000D02*
X119710000Y-32850000D01*
X119710000Y-32850000D02*
X119710000Y-43710000D01*
X145110000Y-51400000D02*
X140520760Y-51400000D01*
X140520760Y-51400000D02*
X139175380Y-52745380D01*
X119710000Y-43710000D02*
X119710000Y-54410000D01*
X121000000Y-30625000D02*
X121000000Y-31830000D01*
X121000000Y-31830000D02*
X122270000Y-33100000D01*
X122270000Y-33100000D02*
X122270000Y-43650000D01*
X145110000Y-52000000D02*
X141910000Y-52000000D01*
X141910000Y-52000000D02*
X139240000Y-54670000D01*
X122270000Y-43650000D02*
X122270000Y-55770000D01*
X122270000Y-55770000D02*
X122250000Y-55790000D01*
X124240000Y-30625000D02*
X124790000Y-31175000D01*
X123540000Y-30625000D02*
X124240000Y-30625000D01*
X124790000Y-31175000D02*
X124790000Y-43030000D01*
X145110000Y-52600000D02*
X142231520Y-52600000D01*
X142231520Y-52600000D02*
X140385760Y-54445760D01*
X124790000Y-43030000D02*
X124790000Y-56440000D01*
X124790000Y-56440000D02*
X124770000Y-56460000D01*
X145110000Y-53200000D02*
X142550760Y-53200000D01*
X142550760Y-53200000D02*
X139245380Y-56505380D01*
X127340000Y-57060000D02*
X127400000Y-57120000D01*
X126080000Y-30625000D02*
X126080000Y-31820000D01*
X126080000Y-31820000D02*
X127340000Y-33080000D01*
X127340000Y-33080000D02*
X127340000Y-57060000D01*
X128620000Y-30625000D02*
X128620000Y-31660000D01*
X128620000Y-31660000D02*
X129920000Y-32960000D01*
X129920000Y-32960000D02*
X129920000Y-42580000D01*
X145110000Y-53800000D02*
X142870000Y-53800000D01*
X142870000Y-53800000D02*
X140440000Y-56230000D01*
X129920000Y-42580000D02*
X129920000Y-57760000D01*
X129920000Y-57760000D02*
X129910000Y-57770000D01*
X131160000Y-30625000D02*
X131160000Y-31660000D01*
X131160000Y-31660000D02*
X132430000Y-32930000D01*
X132430000Y-32930000D02*
X132430000Y-42470000D01*
X132430000Y-42470000D02*
X132430000Y-54410000D01*
X145110000Y-54400000D02*
X143330000Y-54400000D01*
X143330000Y-54400000D02*
X139300000Y-58430000D01*
X132430000Y-54410000D02*
X132430000Y-58420000D01*
X133700000Y-30625000D02*
X133700000Y-31800000D01*
X133700000Y-31800000D02*
X134980000Y-33080000D01*
X134980000Y-50510000D02*
X134980000Y-40630000D01*
X134980000Y-33080000D02*
X134980000Y-40630000D01*
X134980000Y-40630000D02*
X134980000Y-42200000D01*
X145110000Y-55000000D02*
X144160000Y-55000000D01*
X144160000Y-55000000D02*
X143690000Y-55000000D01*
X143690000Y-55000000D02*
X141430000Y-57260000D01*
X134980000Y-50510000D02*
X134980000Y-52240000D01*
X134980000Y-52240000D02*
X134980000Y-52420000D01*
X134980000Y-52420000D02*
X134980000Y-58500000D01*
X134980000Y-58500000D02*
X134980000Y-58720000D01*
X134990000Y-58510000D02*
X134990000Y-59210000D01*
X134980000Y-58500000D02*
X134990000Y-58510000D01*
X141320000Y-35675000D02*
X141320000Y-33550000D01*
X141320000Y-33550000D02*
X141350000Y-33520000D01*
X148810000Y-91560000D02*
X148810000Y-91550000D01*
X148810000Y-91550000D02*
X149920000Y-90440000D01*
D23*
X145000000Y-93310000D02*
X144810000Y-93120000D01*
X148810000Y-93310000D02*
X145000000Y-93310000D01*
D25*
G36*
X150528435Y-26554153D02*
G01*
X150859840Y-26600085D01*
X151144319Y-26698542D01*
X151404261Y-26850383D01*
X151629759Y-27049820D01*
X151812223Y-27289257D01*
X151944704Y-27559573D01*
X152024626Y-27859744D01*
X152048005Y-28146887D01*
X152049214Y-41975792D01*
X151910277Y-41836855D01*
X151871002Y-41788998D01*
X151680056Y-41632293D01*
X151462207Y-41515850D01*
X151225827Y-41444145D01*
X151041599Y-41426000D01*
X150980000Y-41419933D01*
X150918401Y-41426000D01*
X146887588Y-41426000D01*
X146825999Y-41419934D01*
X146764411Y-41426000D01*
X146764401Y-41426000D01*
X146580173Y-41444145D01*
X146343793Y-41515850D01*
X146125944Y-41632293D01*
X145934998Y-41788998D01*
X145895731Y-41836845D01*
X144266851Y-43465727D01*
X144218999Y-43504998D01*
X144195395Y-43533759D01*
X144139069Y-43539307D01*
X143926629Y-43603750D01*
X143777000Y-43683729D01*
X143777000Y-37400259D01*
X143782935Y-37339999D01*
X143777000Y-37279739D01*
X143777000Y-37279732D01*
X143767000Y-37178202D01*
X143767000Y-35802000D01*
X143987000Y-35802000D01*
X143987000Y-37726250D01*
X144145750Y-37885000D01*
X144360000Y-37888072D01*
X144484482Y-37875812D01*
X144604180Y-37839502D01*
X144714494Y-37780537D01*
X144811185Y-37701185D01*
X144890537Y-37604494D01*
X144949502Y-37494180D01*
X144985812Y-37374482D01*
X144998072Y-37250000D01*
X144995000Y-35960750D01*
X144836250Y-35802000D01*
X143987000Y-35802000D01*
X143767000Y-35802000D01*
X143767000Y-33623750D01*
X143987000Y-33623750D01*
X143987000Y-35548000D01*
X144836250Y-35548000D01*
X144995000Y-35389250D01*
X144998072Y-34100000D01*
X144985812Y-33975518D01*
X144949502Y-33855820D01*
X144890537Y-33745506D01*
X144811185Y-33648815D01*
X144714494Y-33569463D01*
X144604180Y-33510498D01*
X144484482Y-33474188D01*
X144360000Y-33461928D01*
X144145750Y-33465000D01*
X143987000Y-33623750D01*
X143767000Y-33623750D01*
X143767000Y-33332453D01*
X144360000Y-33332453D01*
X144580931Y-33310693D01*
X144793371Y-33246250D01*
X144989157Y-33141600D01*
X145160765Y-33000765D01*
X145301600Y-32829157D01*
X145406250Y-32633371D01*
X145470693Y-32420931D01*
X145492453Y-32200000D01*
X145492453Y-29050000D01*
X145470693Y-28829069D01*
X145406250Y-28616629D01*
X145367000Y-28543198D01*
X145367000Y-28349604D01*
X145308319Y-28054590D01*
X145193210Y-27776694D01*
X145026099Y-27526594D01*
X144813406Y-27313901D01*
X144563306Y-27146790D01*
X144285410Y-27031681D01*
X143990396Y-26973000D01*
X143689604Y-26973000D01*
X143394590Y-27031681D01*
X143116694Y-27146790D01*
X142866594Y-27313901D01*
X142653901Y-27526594D01*
X142486790Y-27776694D01*
X142371681Y-28054590D01*
X142369452Y-28065797D01*
X142253371Y-28003750D01*
X142040931Y-27939307D01*
X141820000Y-27917547D01*
X140820000Y-27917547D01*
X140599069Y-27939307D01*
X140386629Y-28003750D01*
X140190843Y-28108400D01*
X140050000Y-28223987D01*
X139909157Y-28108400D01*
X139713371Y-28003750D01*
X139500931Y-27939307D01*
X139280000Y-27917547D01*
X138280000Y-27917547D01*
X138059069Y-27939307D01*
X137846629Y-28003750D01*
X137650843Y-28108400D01*
X137510000Y-28223987D01*
X137369157Y-28108400D01*
X137173371Y-28003750D01*
X136960931Y-27939307D01*
X136740000Y-27917547D01*
X135740000Y-27917547D01*
X135519069Y-27939307D01*
X135306629Y-28003750D01*
X135110843Y-28108400D01*
X134970000Y-28223987D01*
X134829157Y-28108400D01*
X134633371Y-28003750D01*
X134420931Y-27939307D01*
X134200000Y-27917547D01*
X133200000Y-27917547D01*
X132979069Y-27939307D01*
X132766629Y-28003750D01*
X132570843Y-28108400D01*
X132430000Y-28223987D01*
X132289157Y-28108400D01*
X132093371Y-28003750D01*
X131880931Y-27939307D01*
X131660000Y-27917547D01*
X130660000Y-27917547D01*
X130439069Y-27939307D01*
X130226629Y-28003750D01*
X130030843Y-28108400D01*
X129890000Y-28223987D01*
X129749157Y-28108400D01*
X129553371Y-28003750D01*
X129340931Y-27939307D01*
X129120000Y-27917547D01*
X128120000Y-27917547D01*
X127899069Y-27939307D01*
X127686629Y-28003750D01*
X127490843Y-28108400D01*
X127350000Y-28223987D01*
X127209157Y-28108400D01*
X127013371Y-28003750D01*
X126800931Y-27939307D01*
X126580000Y-27917547D01*
X125580000Y-27917547D01*
X125359069Y-27939307D01*
X125146629Y-28003750D01*
X124950843Y-28108400D01*
X124810000Y-28223987D01*
X124669157Y-28108400D01*
X124473371Y-28003750D01*
X124260931Y-27939307D01*
X124040000Y-27917547D01*
X123040000Y-27917547D01*
X122819069Y-27939307D01*
X122606629Y-28003750D01*
X122410843Y-28108400D01*
X122270000Y-28223987D01*
X122129157Y-28108400D01*
X121933371Y-28003750D01*
X121720931Y-27939307D01*
X121500000Y-27917547D01*
X120500000Y-27917547D01*
X120279069Y-27939307D01*
X120066629Y-28003750D01*
X119870843Y-28108400D01*
X119730000Y-28223987D01*
X119589157Y-28108400D01*
X119393371Y-28003750D01*
X119180931Y-27939307D01*
X118960000Y-27917547D01*
X117960000Y-27917547D01*
X117739069Y-27939307D01*
X117526629Y-28003750D01*
X117330843Y-28108400D01*
X117190000Y-28223987D01*
X117049157Y-28108400D01*
X116853371Y-28003750D01*
X116640931Y-27939307D01*
X116420000Y-27917547D01*
X115420000Y-27917547D01*
X115199069Y-27939307D01*
X114986629Y-28003750D01*
X114790843Y-28108400D01*
X114650000Y-28223987D01*
X114509157Y-28108400D01*
X114313371Y-28003750D01*
X114100931Y-27939307D01*
X113880000Y-27917547D01*
X112880000Y-27917547D01*
X112659069Y-27939307D01*
X112446629Y-28003750D01*
X112250843Y-28108400D01*
X112110000Y-28223987D01*
X111969157Y-28108400D01*
X111773371Y-28003750D01*
X111560931Y-27939307D01*
X111340000Y-27917547D01*
X110340000Y-27917547D01*
X110119069Y-27939307D01*
X109906629Y-28003750D01*
X109710843Y-28108400D01*
X109570000Y-28223987D01*
X109429157Y-28108400D01*
X109233371Y-28003750D01*
X109020931Y-27939307D01*
X108800000Y-27917547D01*
X107800000Y-27917547D01*
X107579069Y-27939307D01*
X107366629Y-28003750D01*
X107170843Y-28108400D01*
X107030000Y-28223987D01*
X106889157Y-28108400D01*
X106693371Y-28003750D01*
X106480931Y-27939307D01*
X106260000Y-27917547D01*
X105260000Y-27917547D01*
X105039069Y-27939307D01*
X104826629Y-28003750D01*
X104630843Y-28108400D01*
X104459235Y-28249235D01*
X104318400Y-28420843D01*
X104213750Y-28616629D01*
X104149307Y-28829069D01*
X104127547Y-29050000D01*
X104127547Y-32200000D01*
X104149307Y-32420931D01*
X104213750Y-32633371D01*
X104318400Y-32829157D01*
X104459235Y-33000765D01*
X104630843Y-33141600D01*
X104646558Y-33150000D01*
X104630843Y-33158400D01*
X104459235Y-33299235D01*
X104318400Y-33470843D01*
X104213750Y-33666629D01*
X104149307Y-33879069D01*
X104127547Y-34100000D01*
X104127547Y-37250000D01*
X104149307Y-37470931D01*
X104213750Y-37683371D01*
X104318400Y-37879157D01*
X104459235Y-38050765D01*
X104533000Y-38111303D01*
X104533001Y-45867805D01*
X104406790Y-46056694D01*
X104291681Y-46334590D01*
X104233000Y-46629604D01*
X104233000Y-46930396D01*
X104291681Y-47225410D01*
X104406790Y-47503306D01*
X104573901Y-47753406D01*
X104786594Y-47966099D01*
X105036694Y-48133210D01*
X105314590Y-48248319D01*
X105609604Y-48307000D01*
X105749485Y-48307000D01*
X105813901Y-48403406D01*
X106026594Y-48616099D01*
X106276694Y-48783210D01*
X106554590Y-48898319D01*
X106849604Y-48957000D01*
X107059485Y-48957000D01*
X107123901Y-49053406D01*
X107336594Y-49266099D01*
X107586694Y-49433210D01*
X107864590Y-49548319D01*
X108159604Y-49607000D01*
X108199485Y-49607000D01*
X108263901Y-49703406D01*
X108476594Y-49916099D01*
X108726694Y-50083210D01*
X109004590Y-50198319D01*
X109299604Y-50257000D01*
X109600396Y-50257000D01*
X109670246Y-50243106D01*
X109723901Y-50323406D01*
X109936594Y-50536099D01*
X110186694Y-50703210D01*
X110464590Y-50818319D01*
X110743434Y-50873784D01*
X110846790Y-51123306D01*
X111013901Y-51373406D01*
X111226594Y-51586099D01*
X111476694Y-51753210D01*
X111754590Y-51868319D01*
X112049604Y-51927000D01*
X112126121Y-51927000D01*
X112203901Y-52043406D01*
X112416594Y-52256099D01*
X112666694Y-52423210D01*
X112944590Y-52538319D01*
X113239604Y-52597000D01*
X113439485Y-52597000D01*
X113503901Y-52693406D01*
X113716594Y-52906099D01*
X113966694Y-53073210D01*
X114244590Y-53188319D01*
X114539604Y-53247000D01*
X114662803Y-53247000D01*
X114733901Y-53353406D01*
X114946594Y-53566099D01*
X115196694Y-53733210D01*
X115474590Y-53848319D01*
X115769604Y-53907000D01*
X115949439Y-53907000D01*
X116033901Y-54033406D01*
X116246594Y-54246099D01*
X116496694Y-54413210D01*
X116774590Y-54528319D01*
X117069604Y-54587000D01*
X117152712Y-54587000D01*
X117263901Y-54753406D01*
X117476594Y-54966099D01*
X117726694Y-55133210D01*
X118004590Y-55248319D01*
X118299604Y-55307000D01*
X118472848Y-55307000D01*
X118523901Y-55383406D01*
X118736594Y-55596099D01*
X118986694Y-55763210D01*
X119264590Y-55878319D01*
X119559604Y-55937000D01*
X119716031Y-55937000D01*
X119833901Y-56113406D01*
X120046594Y-56326099D01*
X120296694Y-56493210D01*
X120574590Y-56608319D01*
X120869604Y-56667000D01*
X120999485Y-56667000D01*
X121063901Y-56763406D01*
X121276594Y-56976099D01*
X121526694Y-57143210D01*
X121804590Y-57258319D01*
X122099604Y-57317000D01*
X122333001Y-57317000D01*
X122333001Y-59792772D01*
X122216790Y-59966694D01*
X122101681Y-60244590D01*
X122043000Y-60539604D01*
X122043000Y-60840396D01*
X122101681Y-61135410D01*
X122216790Y-61413306D01*
X122383901Y-61663406D01*
X122596594Y-61876099D01*
X122846694Y-62043210D01*
X123124590Y-62158319D01*
X123419604Y-62217000D01*
X123720396Y-62217000D01*
X124015410Y-62158319D01*
X124293306Y-62043210D01*
X124543406Y-61876099D01*
X124599963Y-61819542D01*
X124696791Y-62053305D01*
X124863902Y-62303405D01*
X125076595Y-62516098D01*
X125326695Y-62683209D01*
X125604591Y-62798318D01*
X125899605Y-62856999D01*
X126200397Y-62856999D01*
X126495411Y-62798318D01*
X126773307Y-62683209D01*
X127023407Y-62516098D01*
X127137104Y-62402401D01*
X127141681Y-62425410D01*
X127256790Y-62703306D01*
X127423901Y-62953406D01*
X127636594Y-63166099D01*
X127886694Y-63333210D01*
X128164590Y-63448319D01*
X128459604Y-63507000D01*
X128760396Y-63507000D01*
X129055410Y-63448319D01*
X129333306Y-63333210D01*
X129583406Y-63166099D01*
X129738809Y-63010696D01*
X129751681Y-63075410D01*
X129866790Y-63353306D01*
X130033901Y-63603406D01*
X130246594Y-63816099D01*
X130496694Y-63983210D01*
X130774590Y-64098319D01*
X131069604Y-64157000D01*
X131370396Y-64157000D01*
X131665410Y-64098319D01*
X131943306Y-63983210D01*
X132193406Y-63816099D01*
X132406099Y-63603406D01*
X132573210Y-63353306D01*
X132688319Y-63075410D01*
X132747000Y-62780396D01*
X132747000Y-62479604D01*
X132688319Y-62184590D01*
X132573210Y-61906694D01*
X132406099Y-61656594D01*
X132387000Y-61637495D01*
X132387000Y-60658451D01*
X132503901Y-60833406D01*
X132716594Y-61046099D01*
X132966694Y-61213210D01*
X133244590Y-61328319D01*
X133539604Y-61387000D01*
X133840396Y-61387000D01*
X134135410Y-61328319D01*
X134413306Y-61213210D01*
X134663406Y-61046099D01*
X134876099Y-60833406D01*
X134940515Y-60737000D01*
X135140396Y-60737000D01*
X135435410Y-60678319D01*
X135713306Y-60563210D01*
X135963406Y-60396099D01*
X136176099Y-60183406D01*
X136343210Y-59933306D01*
X136458319Y-59655410D01*
X136517000Y-59360396D01*
X136517000Y-59059604D01*
X136458319Y-58764590D01*
X136343210Y-58486694D01*
X136207000Y-58282841D01*
X136207000Y-54379926D01*
X136256453Y-54412969D01*
X136534349Y-54528078D01*
X136829363Y-54586759D01*
X137130155Y-54586759D01*
X137425169Y-54528078D01*
X137703065Y-54412969D01*
X137738985Y-54388968D01*
X137713000Y-54519604D01*
X137713000Y-54820396D01*
X137771681Y-55115410D01*
X137886790Y-55393306D01*
X138019363Y-55591716D01*
X137892170Y-55782074D01*
X137777061Y-56059970D01*
X137718380Y-56354984D01*
X137718380Y-56655776D01*
X137777061Y-56950790D01*
X137892170Y-57228686D01*
X138059281Y-57478786D01*
X138083134Y-57502639D01*
X137946790Y-57706694D01*
X137831681Y-57984590D01*
X137773000Y-58279604D01*
X137773000Y-58580396D01*
X137831681Y-58875410D01*
X137946790Y-59153306D01*
X138113901Y-59403406D01*
X138326594Y-59616099D01*
X138576694Y-59783210D01*
X138854590Y-59898319D01*
X139149604Y-59957000D01*
X139450396Y-59957000D01*
X139745410Y-59898319D01*
X140023306Y-59783210D01*
X140273406Y-59616099D01*
X140486099Y-59403406D01*
X140653210Y-59153306D01*
X140768319Y-58875410D01*
X140811812Y-58656752D01*
X140984590Y-58728319D01*
X141279604Y-58787000D01*
X141580396Y-58787000D01*
X141875410Y-58728319D01*
X142153306Y-58613210D01*
X142403406Y-58446099D01*
X142616099Y-58233406D01*
X142783210Y-57983306D01*
X142898319Y-57705410D01*
X142942638Y-57482602D01*
X143233262Y-57191978D01*
X143227547Y-57250000D01*
X143227547Y-57550000D01*
X143249307Y-57770931D01*
X143313750Y-57983371D01*
X143418400Y-58179157D01*
X143559235Y-58350765D01*
X143730843Y-58491600D01*
X143926629Y-58596250D01*
X144139069Y-58660693D01*
X144360000Y-58682453D01*
X145860000Y-58682453D01*
X146080931Y-58660693D01*
X146293371Y-58596250D01*
X146427547Y-58524531D01*
X146427547Y-58775000D01*
X146449307Y-58995931D01*
X146513750Y-59208371D01*
X146618400Y-59404157D01*
X146759235Y-59575765D01*
X146930843Y-59716600D01*
X147126629Y-59821250D01*
X147339069Y-59885693D01*
X147560000Y-59907453D01*
X148560000Y-59907453D01*
X148780931Y-59885693D01*
X148993371Y-59821250D01*
X149189157Y-59716600D01*
X149360765Y-59575765D01*
X149501600Y-59404157D01*
X149606250Y-59208371D01*
X149670215Y-58997507D01*
X149840931Y-58980693D01*
X150053371Y-58916250D01*
X150195991Y-58840018D01*
X150195990Y-83386012D01*
X150029042Y-83523022D01*
X149609000Y-83943064D01*
X149609000Y-83923604D01*
X149550319Y-83628590D01*
X149435210Y-83350694D01*
X149409000Y-83311468D01*
X149409000Y-80677173D01*
X149415419Y-80611999D01*
X149409000Y-80546825D01*
X149409000Y-80546816D01*
X149389799Y-80351863D01*
X149313919Y-80101722D01*
X149190698Y-79871192D01*
X149190697Y-79871190D01*
X149066422Y-79719761D01*
X149066421Y-79719760D01*
X149024870Y-79669130D01*
X148974241Y-79627580D01*
X147532955Y-78186295D01*
X147613000Y-78106250D01*
X147613000Y-77232000D01*
X147867000Y-77232000D01*
X147867000Y-78106250D01*
X148025750Y-78265000D01*
X148215000Y-78268072D01*
X148339482Y-78255812D01*
X148459180Y-78219502D01*
X148569494Y-78160537D01*
X148666185Y-78081185D01*
X148745537Y-77984494D01*
X148804502Y-77874180D01*
X148840812Y-77754482D01*
X148853072Y-77630000D01*
X148850000Y-77390750D01*
X148691250Y-77232000D01*
X147867000Y-77232000D01*
X147613000Y-77232000D01*
X147593000Y-77232000D01*
X147593000Y-77103280D01*
X147795278Y-77041919D01*
X147850405Y-77012453D01*
X147977500Y-77012453D01*
X148244765Y-76986130D01*
X148271566Y-76978000D01*
X148691250Y-76978000D01*
X148850000Y-76819250D01*
X148851675Y-76688780D01*
X148946203Y-76611203D01*
X149116574Y-76403605D01*
X149243172Y-76166758D01*
X149321130Y-75909765D01*
X149347453Y-75642500D01*
X149347453Y-75067500D01*
X149321130Y-74800235D01*
X149243172Y-74543242D01*
X149116574Y-74306395D01*
X148946203Y-74098797D01*
X148738605Y-73928426D01*
X148501758Y-73801828D01*
X148244765Y-73723870D01*
X147977500Y-73697547D01*
X147502500Y-73697547D01*
X147235235Y-73723870D01*
X146978242Y-73801828D01*
X146741395Y-73928426D01*
X146533797Y-74098797D01*
X146463518Y-74184432D01*
X146461600Y-74180843D01*
X146320765Y-74009235D01*
X146149157Y-73868400D01*
X145953371Y-73763750D01*
X145740931Y-73699307D01*
X145520000Y-73677547D01*
X144097000Y-73677547D01*
X144097000Y-71796439D01*
X144169346Y-71708285D01*
X144320424Y-71425638D01*
X144413458Y-71118948D01*
X144444872Y-70800000D01*
X144413458Y-70481053D01*
X144320424Y-70174361D01*
X144169346Y-69891714D01*
X143966029Y-69643971D01*
X143718286Y-69440654D01*
X143435639Y-69289576D01*
X143128947Y-69196542D01*
X142810000Y-69165128D01*
X142491052Y-69196542D01*
X142184362Y-69289576D01*
X141901715Y-69440654D01*
X141716054Y-69593022D01*
X141376051Y-69933024D01*
X141313972Y-69983971D01*
X141263026Y-70046049D01*
X141263022Y-70046053D01*
X141110654Y-70231715D01*
X140959576Y-70514362D01*
X140866543Y-70821053D01*
X140835129Y-71140000D01*
X140843001Y-71219924D01*
X140843000Y-74102127D01*
X140784983Y-74172821D01*
X140455750Y-74175000D01*
X140297000Y-74333750D01*
X140297000Y-75683000D01*
X140317000Y-75683000D01*
X140317000Y-75937000D01*
X140297000Y-75937000D01*
X140297000Y-75957000D01*
X140043000Y-75957000D01*
X140043000Y-75937000D01*
X138943750Y-75937000D01*
X138831476Y-76049274D01*
X138816574Y-76021395D01*
X138646203Y-75813797D01*
X138551675Y-75736220D01*
X138550000Y-75605750D01*
X138391250Y-75447000D01*
X137971566Y-75447000D01*
X137944765Y-75438870D01*
X137677500Y-75412547D01*
X137202500Y-75412547D01*
X136935235Y-75438870D01*
X136908434Y-75447000D01*
X136121566Y-75447000D01*
X136094765Y-75438870D01*
X135827500Y-75412547D01*
X135352500Y-75412547D01*
X135085235Y-75438870D01*
X135058434Y-75447000D01*
X134638750Y-75447000D01*
X134480000Y-75605750D01*
X134478325Y-75736220D01*
X134383797Y-75813797D01*
X134213426Y-76021395D01*
X134086828Y-76258242D01*
X134008870Y-76515235D01*
X133982547Y-76782500D01*
X133982547Y-77357500D01*
X134008870Y-77624765D01*
X134086828Y-77881758D01*
X134213426Y-78118605D01*
X134383797Y-78326203D01*
X134591395Y-78496574D01*
X134828242Y-78623172D01*
X135085235Y-78701130D01*
X135352500Y-78727453D01*
X135827500Y-78727453D01*
X135895927Y-78720714D01*
X135929575Y-78831638D01*
X135971614Y-78910286D01*
X136080654Y-79114285D01*
X136233022Y-79299947D01*
X136233026Y-79299951D01*
X136283972Y-79362029D01*
X136346050Y-79412975D01*
X137021020Y-80087945D01*
X137071971Y-80150029D01*
X137319714Y-80353346D01*
X137602362Y-80504425D01*
X137909052Y-80597458D01*
X138148075Y-80621000D01*
X138148085Y-80621000D01*
X138227999Y-80628871D01*
X138307914Y-80621000D01*
X139553484Y-80621000D01*
X139523750Y-80676629D01*
X139459307Y-80889069D01*
X139437547Y-81110000D01*
X139437547Y-82373000D01*
X136659925Y-82373000D01*
X136580000Y-82365128D01*
X136500075Y-82373000D01*
X136261052Y-82396542D01*
X135954362Y-82489575D01*
X135671714Y-82640654D01*
X135423971Y-82843971D01*
X135373020Y-82906055D01*
X132566055Y-85713020D01*
X132503971Y-85763971D01*
X132300654Y-86011715D01*
X132149575Y-86294363D01*
X132056542Y-86601053D01*
X132033000Y-86840076D01*
X132033000Y-86840086D01*
X132025129Y-86920000D01*
X132033000Y-86999915D01*
X132033001Y-91416065D01*
X132033000Y-91416075D01*
X132033000Y-92130086D01*
X132025129Y-92210000D01*
X132033000Y-92289914D01*
X132033000Y-92686086D01*
X132025129Y-92766000D01*
X132033000Y-92845914D01*
X132033000Y-92845924D01*
X132056542Y-93084947D01*
X132149575Y-93391637D01*
X132300654Y-93674285D01*
X132503971Y-93922029D01*
X132566054Y-93972979D01*
X135437025Y-96843951D01*
X135487971Y-96906029D01*
X135550049Y-96956975D01*
X135550052Y-96956978D01*
X135581681Y-96982935D01*
X135735714Y-97109346D01*
X136018362Y-97260425D01*
X136325052Y-97353458D01*
X136564075Y-97377000D01*
X136564085Y-97377000D01*
X136643999Y-97384871D01*
X136686999Y-97380636D01*
X136701403Y-97382054D01*
X136729999Y-97384871D01*
X136730000Y-97384871D01*
X136809917Y-97377000D01*
X144070083Y-97377000D01*
X144150000Y-97384871D01*
X144229917Y-97377000D01*
X149270086Y-97377000D01*
X149350000Y-97384871D01*
X149429914Y-97377000D01*
X149429925Y-97377000D01*
X149668948Y-97353458D01*
X149975638Y-97260425D01*
X150258286Y-97109346D01*
X150506029Y-96906029D01*
X150556979Y-96843946D01*
X152046858Y-95354068D01*
X152045906Y-125732057D01*
X152037292Y-125642842D01*
X151844962Y-125004395D01*
X151531772Y-124415738D01*
X151524503Y-124404859D01*
X151080928Y-124098677D01*
X148879605Y-126300000D01*
X151080928Y-128501323D01*
X151524503Y-128195141D01*
X151839954Y-127607694D01*
X152034740Y-126969992D01*
X152045870Y-126859168D01*
X152045837Y-127912730D01*
X152015260Y-128124855D01*
X151954157Y-128298341D01*
X151860515Y-128456667D01*
X151737910Y-128593780D01*
X151591003Y-128704473D01*
X151425395Y-128784522D01*
X151236590Y-128833693D01*
X151054747Y-128848000D01*
X150786000Y-128848000D01*
X150901323Y-128680928D01*
X148700000Y-126479605D01*
X146498677Y-128680928D01*
X146614000Y-128848000D01*
X101486000Y-128848000D01*
X101601323Y-128680928D01*
X99400000Y-126479605D01*
X97198677Y-128680928D01*
X97314000Y-128848000D01*
X96956341Y-128848000D01*
X96794635Y-128832145D01*
X96693279Y-128801544D01*
X96599798Y-128751839D01*
X96517752Y-128684924D01*
X96450267Y-128603349D01*
X96399912Y-128510218D01*
X96368604Y-128409079D01*
X96352001Y-128251110D01*
X96352008Y-127777864D01*
X96568228Y-128184262D01*
X96575497Y-128195141D01*
X97019072Y-128501323D01*
X99220395Y-126300000D01*
X99579605Y-126300000D01*
X101780928Y-128501323D01*
X102224503Y-128195141D01*
X102539954Y-127607694D01*
X102734740Y-126969992D01*
X102801372Y-126306543D01*
X102800109Y-126293457D01*
X145298628Y-126293457D01*
X145362708Y-126957158D01*
X145555038Y-127595605D01*
X145868228Y-128184262D01*
X145875497Y-128195141D01*
X146319072Y-128501323D01*
X148520395Y-126300000D01*
X146319072Y-124098677D01*
X145875497Y-124404859D01*
X145560046Y-124992306D01*
X145365260Y-125630008D01*
X145298628Y-126293457D01*
X102800109Y-126293457D01*
X102737292Y-125642842D01*
X102544962Y-125004395D01*
X102231772Y-124415738D01*
X102224503Y-124404859D01*
X101780928Y-124098677D01*
X99579605Y-126300000D01*
X99220395Y-126300000D01*
X97019072Y-124098677D01*
X96575497Y-124404859D01*
X96352051Y-124820970D01*
X96352064Y-123919072D01*
X97198677Y-123919072D01*
X99400000Y-126120395D01*
X101601323Y-123919072D01*
X146498677Y-123919072D01*
X148700000Y-126120395D01*
X150901323Y-123919072D01*
X150595141Y-123475497D01*
X150007694Y-123160046D01*
X149369992Y-122965260D01*
X148706543Y-122898628D01*
X148042842Y-122962708D01*
X147404395Y-123155038D01*
X146815738Y-123468228D01*
X146804859Y-123475497D01*
X146498677Y-123919072D01*
X101601323Y-123919072D01*
X101295141Y-123475497D01*
X100707694Y-123160046D01*
X100069992Y-122965260D01*
X99406543Y-122898628D01*
X98742842Y-122962708D01*
X98104395Y-123155038D01*
X97515738Y-123468228D01*
X97504859Y-123475497D01*
X97198677Y-123919072D01*
X96352064Y-123919072D01*
X96352791Y-74795000D01*
X134476928Y-74795000D01*
X134480000Y-75034250D01*
X134638750Y-75193000D01*
X135463000Y-75193000D01*
X135463000Y-74318750D01*
X135717000Y-74318750D01*
X135717000Y-75193000D01*
X137313000Y-75193000D01*
X137313000Y-74318750D01*
X137567000Y-74318750D01*
X137567000Y-75193000D01*
X138391250Y-75193000D01*
X138550000Y-75034250D01*
X138552879Y-74810000D01*
X138781928Y-74810000D01*
X138785000Y-75524250D01*
X138943750Y-75683000D01*
X140043000Y-75683000D01*
X140043000Y-74333750D01*
X139884250Y-74175000D01*
X139420000Y-74171928D01*
X139295518Y-74184188D01*
X139175820Y-74220498D01*
X139065506Y-74279463D01*
X138968815Y-74358815D01*
X138889463Y-74455506D01*
X138830498Y-74565820D01*
X138794188Y-74685518D01*
X138781928Y-74810000D01*
X138552879Y-74810000D01*
X138553072Y-74795000D01*
X138540812Y-74670518D01*
X138504502Y-74550820D01*
X138445537Y-74440506D01*
X138366185Y-74343815D01*
X138269494Y-74264463D01*
X138159180Y-74205498D01*
X138039482Y-74169188D01*
X137915000Y-74156928D01*
X137725750Y-74160000D01*
X137567000Y-74318750D01*
X137313000Y-74318750D01*
X137154250Y-74160000D01*
X136965000Y-74156928D01*
X136840518Y-74169188D01*
X136720820Y-74205498D01*
X136610506Y-74264463D01*
X136515000Y-74342842D01*
X136419494Y-74264463D01*
X136309180Y-74205498D01*
X136189482Y-74169188D01*
X136065000Y-74156928D01*
X135875750Y-74160000D01*
X135717000Y-74318750D01*
X135463000Y-74318750D01*
X135304250Y-74160000D01*
X135115000Y-74156928D01*
X134990518Y-74169188D01*
X134870820Y-74205498D01*
X134760506Y-74264463D01*
X134663815Y-74343815D01*
X134584463Y-74440506D01*
X134525498Y-74550820D01*
X134489188Y-74670518D01*
X134476928Y-74795000D01*
X96352791Y-74795000D01*
X96353484Y-28022631D01*
X96374887Y-27684784D01*
X96441926Y-27431500D01*
X96556884Y-27196063D01*
X96715384Y-26987436D01*
X96911387Y-26813570D01*
X97137426Y-26681086D01*
X97384898Y-26595029D01*
X97688578Y-26552484D01*
X97711961Y-26552000D01*
X150528435Y-26554153D01*
X150528435Y-26554153D01*
G37*
X150528435Y-26554153D02*
X150859840Y-26600085D01*
X151144319Y-26698542D01*
X151404261Y-26850383D01*
X151629759Y-27049820D01*
X151812223Y-27289257D01*
X151944704Y-27559573D01*
X152024626Y-27859744D01*
X152048005Y-28146887D01*
X152049214Y-41975792D01*
X151910277Y-41836855D01*
X151871002Y-41788998D01*
X151680056Y-41632293D01*
X151462207Y-41515850D01*
X151225827Y-41444145D01*
X151041599Y-41426000D01*
X150980000Y-41419933D01*
X150918401Y-41426000D01*
X146887588Y-41426000D01*
X146825999Y-41419934D01*
X146764411Y-41426000D01*
X146764401Y-41426000D01*
X146580173Y-41444145D01*
X146343793Y-41515850D01*
X146125944Y-41632293D01*
X145934998Y-41788998D01*
X145895731Y-41836845D01*
X144266851Y-43465727D01*
X144218999Y-43504998D01*
X144195395Y-43533759D01*
X144139069Y-43539307D01*
X143926629Y-43603750D01*
X143777000Y-43683729D01*
X143777000Y-37400259D01*
X143782935Y-37339999D01*
X143777000Y-37279739D01*
X143777000Y-37279732D01*
X143767000Y-37178202D01*
X143767000Y-35802000D01*
X143987000Y-35802000D01*
X143987000Y-37726250D01*
X144145750Y-37885000D01*
X144360000Y-37888072D01*
X144484482Y-37875812D01*
X144604180Y-37839502D01*
X144714494Y-37780537D01*
X144811185Y-37701185D01*
X144890537Y-37604494D01*
X144949502Y-37494180D01*
X144985812Y-37374482D01*
X144998072Y-37250000D01*
X144995000Y-35960750D01*
X144836250Y-35802000D01*
X143987000Y-35802000D01*
X143767000Y-35802000D01*
X143767000Y-33623750D01*
X143987000Y-33623750D01*
X143987000Y-35548000D01*
X144836250Y-35548000D01*
X144995000Y-35389250D01*
X144998072Y-34100000D01*
X144985812Y-33975518D01*
X144949502Y-33855820D01*
X144890537Y-33745506D01*
X144811185Y-33648815D01*
X144714494Y-33569463D01*
X144604180Y-33510498D01*
X144484482Y-33474188D01*
X144360000Y-33461928D01*
X144145750Y-33465000D01*
X143987000Y-33623750D01*
X143767000Y-33623750D01*
X143767000Y-33332453D01*
X144360000Y-33332453D01*
X144580931Y-33310693D01*
X144793371Y-33246250D01*
X144989157Y-33141600D01*
X145160765Y-33000765D01*
X145301600Y-32829157D01*
X145406250Y-32633371D01*
X145470693Y-32420931D01*
X145492453Y-32200000D01*
X145492453Y-29050000D01*
X145470693Y-28829069D01*
X145406250Y-28616629D01*
X145367000Y-28543198D01*
X145367000Y-28349604D01*
X145308319Y-28054590D01*
X145193210Y-27776694D01*
X145026099Y-27526594D01*
X144813406Y-27313901D01*
X144563306Y-27146790D01*
X144285410Y-27031681D01*
X143990396Y-26973000D01*
X143689604Y-26973000D01*
X143394590Y-27031681D01*
X143116694Y-27146790D01*
X142866594Y-27313901D01*
X142653901Y-27526594D01*
X142486790Y-27776694D01*
X142371681Y-28054590D01*
X142369452Y-28065797D01*
X142253371Y-28003750D01*
X142040931Y-27939307D01*
X141820000Y-27917547D01*
X140820000Y-27917547D01*
X140599069Y-27939307D01*
X140386629Y-28003750D01*
X140190843Y-28108400D01*
X140050000Y-28223987D01*
X139909157Y-28108400D01*
X139713371Y-28003750D01*
X139500931Y-27939307D01*
X139280000Y-27917547D01*
X138280000Y-27917547D01*
X138059069Y-27939307D01*
X137846629Y-28003750D01*
X137650843Y-28108400D01*
X137510000Y-28223987D01*
X137369157Y-28108400D01*
X137173371Y-28003750D01*
X136960931Y-27939307D01*
X136740000Y-27917547D01*
X135740000Y-27917547D01*
X135519069Y-27939307D01*
X135306629Y-28003750D01*
X135110843Y-28108400D01*
X134970000Y-28223987D01*
X134829157Y-28108400D01*
X134633371Y-28003750D01*
X134420931Y-27939307D01*
X134200000Y-27917547D01*
X133200000Y-27917547D01*
X132979069Y-27939307D01*
X132766629Y-28003750D01*
X132570843Y-28108400D01*
X132430000Y-28223987D01*
X132289157Y-28108400D01*
X132093371Y-28003750D01*
X131880931Y-27939307D01*
X131660000Y-27917547D01*
X130660000Y-27917547D01*
X130439069Y-27939307D01*
X130226629Y-28003750D01*
X130030843Y-28108400D01*
X129890000Y-28223987D01*
X129749157Y-28108400D01*
X129553371Y-28003750D01*
X129340931Y-27939307D01*
X129120000Y-27917547D01*
X128120000Y-27917547D01*
X127899069Y-27939307D01*
X127686629Y-28003750D01*
X127490843Y-28108400D01*
X127350000Y-28223987D01*
X127209157Y-28108400D01*
X127013371Y-28003750D01*
X126800931Y-27939307D01*
X126580000Y-27917547D01*
X125580000Y-27917547D01*
X125359069Y-27939307D01*
X125146629Y-28003750D01*
X124950843Y-28108400D01*
X124810000Y-28223987D01*
X124669157Y-28108400D01*
X124473371Y-28003750D01*
X124260931Y-27939307D01*
X124040000Y-27917547D01*
X123040000Y-27917547D01*
X122819069Y-27939307D01*
X122606629Y-28003750D01*
X122410843Y-28108400D01*
X122270000Y-28223987D01*
X122129157Y-28108400D01*
X121933371Y-28003750D01*
X121720931Y-27939307D01*
X121500000Y-27917547D01*
X120500000Y-27917547D01*
X120279069Y-27939307D01*
X120066629Y-28003750D01*
X119870843Y-28108400D01*
X119730000Y-28223987D01*
X119589157Y-28108400D01*
X119393371Y-28003750D01*
X119180931Y-27939307D01*
X118960000Y-27917547D01*
X117960000Y-27917547D01*
X117739069Y-27939307D01*
X117526629Y-28003750D01*
X117330843Y-28108400D01*
X117190000Y-28223987D01*
X117049157Y-28108400D01*
X116853371Y-28003750D01*
X116640931Y-27939307D01*
X116420000Y-27917547D01*
X115420000Y-27917547D01*
X115199069Y-27939307D01*
X114986629Y-28003750D01*
X114790843Y-28108400D01*
X114650000Y-28223987D01*
X114509157Y-28108400D01*
X114313371Y-28003750D01*
X114100931Y-27939307D01*
X113880000Y-27917547D01*
X112880000Y-27917547D01*
X112659069Y-27939307D01*
X112446629Y-28003750D01*
X112250843Y-28108400D01*
X112110000Y-28223987D01*
X111969157Y-28108400D01*
X111773371Y-28003750D01*
X111560931Y-27939307D01*
X111340000Y-27917547D01*
X110340000Y-27917547D01*
X110119069Y-27939307D01*
X109906629Y-28003750D01*
X109710843Y-28108400D01*
X109570000Y-28223987D01*
X109429157Y-28108400D01*
X109233371Y-28003750D01*
X109020931Y-27939307D01*
X108800000Y-27917547D01*
X107800000Y-27917547D01*
X107579069Y-27939307D01*
X107366629Y-28003750D01*
X107170843Y-28108400D01*
X107030000Y-28223987D01*
X106889157Y-28108400D01*
X106693371Y-28003750D01*
X106480931Y-27939307D01*
X106260000Y-27917547D01*
X105260000Y-27917547D01*
X105039069Y-27939307D01*
X104826629Y-28003750D01*
X104630843Y-28108400D01*
X104459235Y-28249235D01*
X104318400Y-28420843D01*
X104213750Y-28616629D01*
X104149307Y-28829069D01*
X104127547Y-29050000D01*
X104127547Y-32200000D01*
X104149307Y-32420931D01*
X104213750Y-32633371D01*
X104318400Y-32829157D01*
X104459235Y-33000765D01*
X104630843Y-33141600D01*
X104646558Y-33150000D01*
X104630843Y-33158400D01*
X104459235Y-33299235D01*
X104318400Y-33470843D01*
X104213750Y-33666629D01*
X104149307Y-33879069D01*
X104127547Y-34100000D01*
X104127547Y-37250000D01*
X104149307Y-37470931D01*
X104213750Y-37683371D01*
X104318400Y-37879157D01*
X104459235Y-38050765D01*
X104533000Y-38111303D01*
X104533001Y-45867805D01*
X104406790Y-46056694D01*
X104291681Y-46334590D01*
X104233000Y-46629604D01*
X104233000Y-46930396D01*
X104291681Y-47225410D01*
X104406790Y-47503306D01*
X104573901Y-47753406D01*
X104786594Y-47966099D01*
X105036694Y-48133210D01*
X105314590Y-48248319D01*
X105609604Y-48307000D01*
X105749485Y-48307000D01*
X105813901Y-48403406D01*
X106026594Y-48616099D01*
X106276694Y-48783210D01*
X106554590Y-48898319D01*
X106849604Y-48957000D01*
X107059485Y-48957000D01*
X107123901Y-49053406D01*
X107336594Y-49266099D01*
X107586694Y-49433210D01*
X107864590Y-49548319D01*
X108159604Y-49607000D01*
X108199485Y-49607000D01*
X108263901Y-49703406D01*
X108476594Y-49916099D01*
X108726694Y-50083210D01*
X109004590Y-50198319D01*
X109299604Y-50257000D01*
X109600396Y-50257000D01*
X109670246Y-50243106D01*
X109723901Y-50323406D01*
X109936594Y-50536099D01*
X110186694Y-50703210D01*
X110464590Y-50818319D01*
X110743434Y-50873784D01*
X110846790Y-51123306D01*
X111013901Y-51373406D01*
X111226594Y-51586099D01*
X111476694Y-51753210D01*
X111754590Y-51868319D01*
X112049604Y-51927000D01*
X112126121Y-51927000D01*
X112203901Y-52043406D01*
X112416594Y-52256099D01*
X112666694Y-52423210D01*
X112944590Y-52538319D01*
X113239604Y-52597000D01*
X113439485Y-52597000D01*
X113503901Y-52693406D01*
X113716594Y-52906099D01*
X113966694Y-53073210D01*
X114244590Y-53188319D01*
X114539604Y-53247000D01*
X114662803Y-53247000D01*
X114733901Y-53353406D01*
X114946594Y-53566099D01*
X115196694Y-53733210D01*
X115474590Y-53848319D01*
X115769604Y-53907000D01*
X115949439Y-53907000D01*
X116033901Y-54033406D01*
X116246594Y-54246099D01*
X116496694Y-54413210D01*
X116774590Y-54528319D01*
X117069604Y-54587000D01*
X117152712Y-54587000D01*
X117263901Y-54753406D01*
X117476594Y-54966099D01*
X117726694Y-55133210D01*
X118004590Y-55248319D01*
X118299604Y-55307000D01*
X118472848Y-55307000D01*
X118523901Y-55383406D01*
X118736594Y-55596099D01*
X118986694Y-55763210D01*
X119264590Y-55878319D01*
X119559604Y-55937000D01*
X119716031Y-55937000D01*
X119833901Y-56113406D01*
X120046594Y-56326099D01*
X120296694Y-56493210D01*
X120574590Y-56608319D01*
X120869604Y-56667000D01*
X120999485Y-56667000D01*
X121063901Y-56763406D01*
X121276594Y-56976099D01*
X121526694Y-57143210D01*
X121804590Y-57258319D01*
X122099604Y-57317000D01*
X122333001Y-57317000D01*
X122333001Y-59792772D01*
X122216790Y-59966694D01*
X122101681Y-60244590D01*
X122043000Y-60539604D01*
X122043000Y-60840396D01*
X122101681Y-61135410D01*
X122216790Y-61413306D01*
X122383901Y-61663406D01*
X122596594Y-61876099D01*
X122846694Y-62043210D01*
X123124590Y-62158319D01*
X123419604Y-62217000D01*
X123720396Y-62217000D01*
X124015410Y-62158319D01*
X124293306Y-62043210D01*
X124543406Y-61876099D01*
X124599963Y-61819542D01*
X124696791Y-62053305D01*
X124863902Y-62303405D01*
X125076595Y-62516098D01*
X125326695Y-62683209D01*
X125604591Y-62798318D01*
X125899605Y-62856999D01*
X126200397Y-62856999D01*
X126495411Y-62798318D01*
X126773307Y-62683209D01*
X127023407Y-62516098D01*
X127137104Y-62402401D01*
X127141681Y-62425410D01*
X127256790Y-62703306D01*
X127423901Y-62953406D01*
X127636594Y-63166099D01*
X127886694Y-63333210D01*
X128164590Y-63448319D01*
X128459604Y-63507000D01*
X128760396Y-63507000D01*
X129055410Y-63448319D01*
X129333306Y-63333210D01*
X129583406Y-63166099D01*
X129738809Y-63010696D01*
X129751681Y-63075410D01*
X129866790Y-63353306D01*
X130033901Y-63603406D01*
X130246594Y-63816099D01*
X130496694Y-63983210D01*
X130774590Y-64098319D01*
X131069604Y-64157000D01*
X131370396Y-64157000D01*
X131665410Y-64098319D01*
X131943306Y-63983210D01*
X132193406Y-63816099D01*
X132406099Y-63603406D01*
X132573210Y-63353306D01*
X132688319Y-63075410D01*
X132747000Y-62780396D01*
X132747000Y-62479604D01*
X132688319Y-62184590D01*
X132573210Y-61906694D01*
X132406099Y-61656594D01*
X132387000Y-61637495D01*
X132387000Y-60658451D01*
X132503901Y-60833406D01*
X132716594Y-61046099D01*
X132966694Y-61213210D01*
X133244590Y-61328319D01*
X133539604Y-61387000D01*
X133840396Y-61387000D01*
X134135410Y-61328319D01*
X134413306Y-61213210D01*
X134663406Y-61046099D01*
X134876099Y-60833406D01*
X134940515Y-60737000D01*
X135140396Y-60737000D01*
X135435410Y-60678319D01*
X135713306Y-60563210D01*
X135963406Y-60396099D01*
X136176099Y-60183406D01*
X136343210Y-59933306D01*
X136458319Y-59655410D01*
X136517000Y-59360396D01*
X136517000Y-59059604D01*
X136458319Y-58764590D01*
X136343210Y-58486694D01*
X136207000Y-58282841D01*
X136207000Y-54379926D01*
X136256453Y-54412969D01*
X136534349Y-54528078D01*
X136829363Y-54586759D01*
X137130155Y-54586759D01*
X137425169Y-54528078D01*
X137703065Y-54412969D01*
X137738985Y-54388968D01*
X137713000Y-54519604D01*
X137713000Y-54820396D01*
X137771681Y-55115410D01*
X137886790Y-55393306D01*
X138019363Y-55591716D01*
X137892170Y-55782074D01*
X137777061Y-56059970D01*
X137718380Y-56354984D01*
X137718380Y-56655776D01*
X137777061Y-56950790D01*
X137892170Y-57228686D01*
X138059281Y-57478786D01*
X138083134Y-57502639D01*
X137946790Y-57706694D01*
X137831681Y-57984590D01*
X137773000Y-58279604D01*
X137773000Y-58580396D01*
X137831681Y-58875410D01*
X137946790Y-59153306D01*
X138113901Y-59403406D01*
X138326594Y-59616099D01*
X138576694Y-59783210D01*
X138854590Y-59898319D01*
X139149604Y-59957000D01*
X139450396Y-59957000D01*
X139745410Y-59898319D01*
X140023306Y-59783210D01*
X140273406Y-59616099D01*
X140486099Y-59403406D01*
X140653210Y-59153306D01*
X140768319Y-58875410D01*
X140811812Y-58656752D01*
X140984590Y-58728319D01*
X141279604Y-58787000D01*
X141580396Y-58787000D01*
X141875410Y-58728319D01*
X142153306Y-58613210D01*
X142403406Y-58446099D01*
X142616099Y-58233406D01*
X142783210Y-57983306D01*
X142898319Y-57705410D01*
X142942638Y-57482602D01*
X143233262Y-57191978D01*
X143227547Y-57250000D01*
X143227547Y-57550000D01*
X143249307Y-57770931D01*
X143313750Y-57983371D01*
X143418400Y-58179157D01*
X143559235Y-58350765D01*
X143730843Y-58491600D01*
X143926629Y-58596250D01*
X144139069Y-58660693D01*
X144360000Y-58682453D01*
X145860000Y-58682453D01*
X146080931Y-58660693D01*
X146293371Y-58596250D01*
X146427547Y-58524531D01*
X146427547Y-58775000D01*
X146449307Y-58995931D01*
X146513750Y-59208371D01*
X146618400Y-59404157D01*
X146759235Y-59575765D01*
X146930843Y-59716600D01*
X147126629Y-59821250D01*
X147339069Y-59885693D01*
X147560000Y-59907453D01*
X148560000Y-59907453D01*
X148780931Y-59885693D01*
X148993371Y-59821250D01*
X149189157Y-59716600D01*
X149360765Y-59575765D01*
X149501600Y-59404157D01*
X149606250Y-59208371D01*
X149670215Y-58997507D01*
X149840931Y-58980693D01*
X150053371Y-58916250D01*
X150195991Y-58840018D01*
X150195990Y-83386012D01*
X150029042Y-83523022D01*
X149609000Y-83943064D01*
X149609000Y-83923604D01*
X149550319Y-83628590D01*
X149435210Y-83350694D01*
X149409000Y-83311468D01*
X149409000Y-80677173D01*
X149415419Y-80611999D01*
X149409000Y-80546825D01*
X149409000Y-80546816D01*
X149389799Y-80351863D01*
X149313919Y-80101722D01*
X149190698Y-79871192D01*
X149190697Y-79871190D01*
X149066422Y-79719761D01*
X149066421Y-79719760D01*
X149024870Y-79669130D01*
X148974241Y-79627580D01*
X147532955Y-78186295D01*
X147613000Y-78106250D01*
X147613000Y-77232000D01*
X147867000Y-77232000D01*
X147867000Y-78106250D01*
X148025750Y-78265000D01*
X148215000Y-78268072D01*
X148339482Y-78255812D01*
X148459180Y-78219502D01*
X148569494Y-78160537D01*
X148666185Y-78081185D01*
X148745537Y-77984494D01*
X148804502Y-77874180D01*
X148840812Y-77754482D01*
X148853072Y-77630000D01*
X148850000Y-77390750D01*
X148691250Y-77232000D01*
X147867000Y-77232000D01*
X147613000Y-77232000D01*
X147593000Y-77232000D01*
X147593000Y-77103280D01*
X147795278Y-77041919D01*
X147850405Y-77012453D01*
X147977500Y-77012453D01*
X148244765Y-76986130D01*
X148271566Y-76978000D01*
X148691250Y-76978000D01*
X148850000Y-76819250D01*
X148851675Y-76688780D01*
X148946203Y-76611203D01*
X149116574Y-76403605D01*
X149243172Y-76166758D01*
X149321130Y-75909765D01*
X149347453Y-75642500D01*
X149347453Y-75067500D01*
X149321130Y-74800235D01*
X149243172Y-74543242D01*
X149116574Y-74306395D01*
X148946203Y-74098797D01*
X148738605Y-73928426D01*
X148501758Y-73801828D01*
X148244765Y-73723870D01*
X147977500Y-73697547D01*
X147502500Y-73697547D01*
X147235235Y-73723870D01*
X146978242Y-73801828D01*
X146741395Y-73928426D01*
X146533797Y-74098797D01*
X146463518Y-74184432D01*
X146461600Y-74180843D01*
X146320765Y-74009235D01*
X146149157Y-73868400D01*
X145953371Y-73763750D01*
X145740931Y-73699307D01*
X145520000Y-73677547D01*
X144097000Y-73677547D01*
X144097000Y-71796439D01*
X144169346Y-71708285D01*
X144320424Y-71425638D01*
X144413458Y-71118948D01*
X144444872Y-70800000D01*
X144413458Y-70481053D01*
X144320424Y-70174361D01*
X144169346Y-69891714D01*
X143966029Y-69643971D01*
X143718286Y-69440654D01*
X143435639Y-69289576D01*
X143128947Y-69196542D01*
X142810000Y-69165128D01*
X142491052Y-69196542D01*
X142184362Y-69289576D01*
X141901715Y-69440654D01*
X141716054Y-69593022D01*
X141376051Y-69933024D01*
X141313972Y-69983971D01*
X141263026Y-70046049D01*
X141263022Y-70046053D01*
X141110654Y-70231715D01*
X140959576Y-70514362D01*
X140866543Y-70821053D01*
X140835129Y-71140000D01*
X140843001Y-71219924D01*
X140843000Y-74102127D01*
X140784983Y-74172821D01*
X140455750Y-74175000D01*
X140297000Y-74333750D01*
X140297000Y-75683000D01*
X140317000Y-75683000D01*
X140317000Y-75937000D01*
X140297000Y-75937000D01*
X140297000Y-75957000D01*
X140043000Y-75957000D01*
X140043000Y-75937000D01*
X138943750Y-75937000D01*
X138831476Y-76049274D01*
X138816574Y-76021395D01*
X138646203Y-75813797D01*
X138551675Y-75736220D01*
X138550000Y-75605750D01*
X138391250Y-75447000D01*
X137971566Y-75447000D01*
X137944765Y-75438870D01*
X137677500Y-75412547D01*
X137202500Y-75412547D01*
X136935235Y-75438870D01*
X136908434Y-75447000D01*
X136121566Y-75447000D01*
X136094765Y-75438870D01*
X135827500Y-75412547D01*
X135352500Y-75412547D01*
X135085235Y-75438870D01*
X135058434Y-75447000D01*
X134638750Y-75447000D01*
X134480000Y-75605750D01*
X134478325Y-75736220D01*
X134383797Y-75813797D01*
X134213426Y-76021395D01*
X134086828Y-76258242D01*
X134008870Y-76515235D01*
X133982547Y-76782500D01*
X133982547Y-77357500D01*
X134008870Y-77624765D01*
X134086828Y-77881758D01*
X134213426Y-78118605D01*
X134383797Y-78326203D01*
X134591395Y-78496574D01*
X134828242Y-78623172D01*
X135085235Y-78701130D01*
X135352500Y-78727453D01*
X135827500Y-78727453D01*
X135895927Y-78720714D01*
X135929575Y-78831638D01*
X135971614Y-78910286D01*
X136080654Y-79114285D01*
X136233022Y-79299947D01*
X136233026Y-79299951D01*
X136283972Y-79362029D01*
X136346050Y-79412975D01*
X137021020Y-80087945D01*
X137071971Y-80150029D01*
X137319714Y-80353346D01*
X137602362Y-80504425D01*
X137909052Y-80597458D01*
X138148075Y-80621000D01*
X138148085Y-80621000D01*
X138227999Y-80628871D01*
X138307914Y-80621000D01*
X139553484Y-80621000D01*
X139523750Y-80676629D01*
X139459307Y-80889069D01*
X139437547Y-81110000D01*
X139437547Y-82373000D01*
X136659925Y-82373000D01*
X136580000Y-82365128D01*
X136500075Y-82373000D01*
X136261052Y-82396542D01*
X135954362Y-82489575D01*
X135671714Y-82640654D01*
X135423971Y-82843971D01*
X135373020Y-82906055D01*
X132566055Y-85713020D01*
X132503971Y-85763971D01*
X132300654Y-86011715D01*
X132149575Y-86294363D01*
X132056542Y-86601053D01*
X132033000Y-86840076D01*
X132033000Y-86840086D01*
X132025129Y-86920000D01*
X132033000Y-86999915D01*
X132033001Y-91416065D01*
X132033000Y-91416075D01*
X132033000Y-92130086D01*
X132025129Y-92210000D01*
X132033000Y-92289914D01*
X132033000Y-92686086D01*
X132025129Y-92766000D01*
X132033000Y-92845914D01*
X132033000Y-92845924D01*
X132056542Y-93084947D01*
X132149575Y-93391637D01*
X132300654Y-93674285D01*
X132503971Y-93922029D01*
X132566054Y-93972979D01*
X135437025Y-96843951D01*
X135487971Y-96906029D01*
X135550049Y-96956975D01*
X135550052Y-96956978D01*
X135581681Y-96982935D01*
X135735714Y-97109346D01*
X136018362Y-97260425D01*
X136325052Y-97353458D01*
X136564075Y-97377000D01*
X136564085Y-97377000D01*
X136643999Y-97384871D01*
X136686999Y-97380636D01*
X136701403Y-97382054D01*
X136729999Y-97384871D01*
X136730000Y-97384871D01*
X136809917Y-97377000D01*
X144070083Y-97377000D01*
X144150000Y-97384871D01*
X144229917Y-97377000D01*
X149270086Y-97377000D01*
X149350000Y-97384871D01*
X149429914Y-97377000D01*
X149429925Y-97377000D01*
X149668948Y-97353458D01*
X149975638Y-97260425D01*
X150258286Y-97109346D01*
X150506029Y-96906029D01*
X150556979Y-96843946D01*
X152046858Y-95354068D01*
X152045906Y-125732057D01*
X152037292Y-125642842D01*
X151844962Y-125004395D01*
X151531772Y-124415738D01*
X151524503Y-124404859D01*
X151080928Y-124098677D01*
X148879605Y-126300000D01*
X151080928Y-128501323D01*
X151524503Y-128195141D01*
X151839954Y-127607694D01*
X152034740Y-126969992D01*
X152045870Y-126859168D01*
X152045837Y-127912730D01*
X152015260Y-128124855D01*
X151954157Y-128298341D01*
X151860515Y-128456667D01*
X151737910Y-128593780D01*
X151591003Y-128704473D01*
X151425395Y-128784522D01*
X151236590Y-128833693D01*
X151054747Y-128848000D01*
X150786000Y-128848000D01*
X150901323Y-128680928D01*
X148700000Y-126479605D01*
X146498677Y-128680928D01*
X146614000Y-128848000D01*
X101486000Y-128848000D01*
X101601323Y-128680928D01*
X99400000Y-126479605D01*
X97198677Y-128680928D01*
X97314000Y-128848000D01*
X96956341Y-128848000D01*
X96794635Y-128832145D01*
X96693279Y-128801544D01*
X96599798Y-128751839D01*
X96517752Y-128684924D01*
X96450267Y-128603349D01*
X96399912Y-128510218D01*
X96368604Y-128409079D01*
X96352001Y-128251110D01*
X96352008Y-127777864D01*
X96568228Y-128184262D01*
X96575497Y-128195141D01*
X97019072Y-128501323D01*
X99220395Y-126300000D01*
X99579605Y-126300000D01*
X101780928Y-128501323D01*
X102224503Y-128195141D01*
X102539954Y-127607694D01*
X102734740Y-126969992D01*
X102801372Y-126306543D01*
X102800109Y-126293457D01*
X145298628Y-126293457D01*
X145362708Y-126957158D01*
X145555038Y-127595605D01*
X145868228Y-128184262D01*
X145875497Y-128195141D01*
X146319072Y-128501323D01*
X148520395Y-126300000D01*
X146319072Y-124098677D01*
X145875497Y-124404859D01*
X145560046Y-124992306D01*
X145365260Y-125630008D01*
X145298628Y-126293457D01*
X102800109Y-126293457D01*
X102737292Y-125642842D01*
X102544962Y-125004395D01*
X102231772Y-124415738D01*
X102224503Y-124404859D01*
X101780928Y-124098677D01*
X99579605Y-126300000D01*
X99220395Y-126300000D01*
X97019072Y-124098677D01*
X96575497Y-124404859D01*
X96352051Y-124820970D01*
X96352064Y-123919072D01*
X97198677Y-123919072D01*
X99400000Y-126120395D01*
X101601323Y-123919072D01*
X146498677Y-123919072D01*
X148700000Y-126120395D01*
X150901323Y-123919072D01*
X150595141Y-123475497D01*
X150007694Y-123160046D01*
X149369992Y-122965260D01*
X148706543Y-122898628D01*
X148042842Y-122962708D01*
X147404395Y-123155038D01*
X146815738Y-123468228D01*
X146804859Y-123475497D01*
X146498677Y-123919072D01*
X101601323Y-123919072D01*
X101295141Y-123475497D01*
X100707694Y-123160046D01*
X100069992Y-122965260D01*
X99406543Y-122898628D01*
X98742842Y-122962708D01*
X98104395Y-123155038D01*
X97515738Y-123468228D01*
X97504859Y-123475497D01*
X97198677Y-123919072D01*
X96352064Y-123919072D01*
X96352791Y-74795000D01*
X134476928Y-74795000D01*
X134480000Y-75034250D01*
X134638750Y-75193000D01*
X135463000Y-75193000D01*
X135463000Y-74318750D01*
X135717000Y-74318750D01*
X135717000Y-75193000D01*
X137313000Y-75193000D01*
X137313000Y-74318750D01*
X137567000Y-74318750D01*
X137567000Y-75193000D01*
X138391250Y-75193000D01*
X138550000Y-75034250D01*
X138552879Y-74810000D01*
X138781928Y-74810000D01*
X138785000Y-75524250D01*
X138943750Y-75683000D01*
X140043000Y-75683000D01*
X140043000Y-74333750D01*
X139884250Y-74175000D01*
X139420000Y-74171928D01*
X139295518Y-74184188D01*
X139175820Y-74220498D01*
X139065506Y-74279463D01*
X138968815Y-74358815D01*
X138889463Y-74455506D01*
X138830498Y-74565820D01*
X138794188Y-74685518D01*
X138781928Y-74810000D01*
X138552879Y-74810000D01*
X138553072Y-74795000D01*
X138540812Y-74670518D01*
X138504502Y-74550820D01*
X138445537Y-74440506D01*
X138366185Y-74343815D01*
X138269494Y-74264463D01*
X138159180Y-74205498D01*
X138039482Y-74169188D01*
X137915000Y-74156928D01*
X137725750Y-74160000D01*
X137567000Y-74318750D01*
X137313000Y-74318750D01*
X137154250Y-74160000D01*
X136965000Y-74156928D01*
X136840518Y-74169188D01*
X136720820Y-74205498D01*
X136610506Y-74264463D01*
X136515000Y-74342842D01*
X136419494Y-74264463D01*
X136309180Y-74205498D01*
X136189482Y-74169188D01*
X136065000Y-74156928D01*
X135875750Y-74160000D01*
X135717000Y-74318750D01*
X135463000Y-74318750D01*
X135304250Y-74160000D01*
X135115000Y-74156928D01*
X134990518Y-74169188D01*
X134870820Y-74205498D01*
X134760506Y-74264463D01*
X134663815Y-74343815D01*
X134584463Y-74440506D01*
X134525498Y-74550820D01*
X134489188Y-74670518D01*
X134476928Y-74795000D01*
X96352791Y-74795000D01*
X96353484Y-28022631D01*
X96374887Y-27684784D01*
X96441926Y-27431500D01*
X96556884Y-27196063D01*
X96715384Y-26987436D01*
X96911387Y-26813570D01*
X97137426Y-26681086D01*
X97384898Y-26595029D01*
X97688578Y-26552484D01*
X97711961Y-26552000D01*
X150528435Y-26554153D01*
G36*
X140865047Y-86545000D02*
G01*
X140891610Y-86814703D01*
X140970280Y-87074042D01*
X141098032Y-87313050D01*
X141269958Y-87522542D01*
X141383000Y-87615314D01*
X141383001Y-88582048D01*
X141185000Y-88562547D01*
X139035000Y-88562547D01*
X138765297Y-88589110D01*
X138505958Y-88667780D01*
X138266950Y-88795532D01*
X138057458Y-88967458D01*
X137885532Y-89176950D01*
X137757780Y-89415958D01*
X137679110Y-89675297D01*
X137652547Y-89945000D01*
X137652547Y-90323203D01*
X137497000Y-90478750D01*
X137497000Y-91353000D01*
X137517000Y-91353000D01*
X137517000Y-91572547D01*
X137132500Y-91572547D01*
X136865235Y-91598870D01*
X136838434Y-91607000D01*
X136511250Y-91607000D01*
X136501250Y-91597000D01*
X136081566Y-91597000D01*
X136054765Y-91588870D01*
X135787500Y-91562547D01*
X135403000Y-91562547D01*
X135403000Y-91343000D01*
X135423000Y-91343000D01*
X135423000Y-90468750D01*
X135677000Y-90468750D01*
X135677000Y-91343000D01*
X136408750Y-91343000D01*
X136418750Y-91353000D01*
X137243000Y-91353000D01*
X137243000Y-90478750D01*
X137084250Y-90320000D01*
X136895000Y-90316928D01*
X136770518Y-90329188D01*
X136650820Y-90365498D01*
X136540506Y-90424463D01*
X136466093Y-90485532D01*
X136379494Y-90414463D01*
X136269180Y-90355498D01*
X136149482Y-90319188D01*
X136025000Y-90306928D01*
X135835750Y-90310000D01*
X135677000Y-90468750D01*
X135423000Y-90468750D01*
X135287000Y-90332750D01*
X135287000Y-87593925D01*
X137253925Y-85627000D01*
X140865047Y-85627000D01*
X140865047Y-86545000D01*
X140865047Y-86545000D01*
G37*
X140865047Y-86545000D02*
X140891610Y-86814703D01*
X140970280Y-87074042D01*
X141098032Y-87313050D01*
X141269958Y-87522542D01*
X141383000Y-87615314D01*
X141383001Y-88582048D01*
X141185000Y-88562547D01*
X139035000Y-88562547D01*
X138765297Y-88589110D01*
X138505958Y-88667780D01*
X138266950Y-88795532D01*
X138057458Y-88967458D01*
X137885532Y-89176950D01*
X137757780Y-89415958D01*
X137679110Y-89675297D01*
X137652547Y-89945000D01*
X137652547Y-90323203D01*
X137497000Y-90478750D01*
X137497000Y-91353000D01*
X137517000Y-91353000D01*
X137517000Y-91572547D01*
X137132500Y-91572547D01*
X136865235Y-91598870D01*
X136838434Y-91607000D01*
X136511250Y-91607000D01*
X136501250Y-91597000D01*
X136081566Y-91597000D01*
X136054765Y-91588870D01*
X135787500Y-91562547D01*
X135403000Y-91562547D01*
X135403000Y-91343000D01*
X135423000Y-91343000D01*
X135423000Y-90468750D01*
X135677000Y-90468750D01*
X135677000Y-91343000D01*
X136408750Y-91343000D01*
X136418750Y-91353000D01*
X137243000Y-91353000D01*
X137243000Y-90478750D01*
X137084250Y-90320000D01*
X136895000Y-90316928D01*
X136770518Y-90329188D01*
X136650820Y-90365498D01*
X136540506Y-90424463D01*
X136466093Y-90485532D01*
X136379494Y-90414463D01*
X136269180Y-90355498D01*
X136149482Y-90319188D01*
X136025000Y-90306928D01*
X135835750Y-90310000D01*
X135677000Y-90468750D01*
X135423000Y-90468750D01*
X135287000Y-90332750D01*
X135287000Y-87593925D01*
X137253925Y-85627000D01*
X140865047Y-85627000D01*
X140865047Y-86545000D01*
M02*
