G04 #@! TF.GenerationSoftware,KiCad,Pcbnew,(5.1.4)-1*
G04 #@! TF.CreationDate,2019-12-31T12:49:38+08:00*
G04 #@! TF.ProjectId,FH26W-45S-0.3SHW-DIP,46483236-572d-4343-9553-2d302e335348,rev?*
G04 #@! TF.SameCoordinates,Original*
G04 #@! TF.FileFunction,Legend,Bot*
G04 #@! TF.FilePolarity,Positive*
%FSLAX46Y46*%
G04 Gerber Fmt 4.6, Leading zero omitted, Abs format (unit mm)*
G04 Created by KiCad (PCBNEW (5.1.4)-1) date 2019-12-31 12:49:38*
%MOMM*%
%LPD*%
G04 APERTURE LIST*
%ADD10C,0.400000*%
%ADD11C,0.130000*%
%ADD12C,0.150000*%
%ADD13C,0.010000*%
%ADD14C,0.120000*%
G04 APERTURE END LIST*
D10*
X104219714Y-123509285D02*
X110219714Y-122759285D01*
X110219714Y-122044999D01*
X109934000Y-121652142D01*
X109362571Y-121437857D01*
X108791142Y-121366428D01*
X107648285Y-121366428D01*
X106791142Y-121473571D01*
X105648285Y-121759285D01*
X105076857Y-121973571D01*
X104505428Y-122330714D01*
X104219714Y-122794999D01*
X104219714Y-123509285D01*
X104505428Y-119330714D02*
X104219714Y-119652142D01*
X104219714Y-120223571D01*
X104505428Y-120473571D01*
X105076857Y-120545000D01*
X107362571Y-120259285D01*
X107934000Y-120045000D01*
X108219714Y-119723571D01*
X108219714Y-119152142D01*
X107934000Y-118902142D01*
X107362571Y-118830714D01*
X106791142Y-118902142D01*
X106219714Y-120402142D01*
X104505428Y-118045000D02*
X104219714Y-117794999D01*
X104219714Y-117223571D01*
X104505428Y-116902142D01*
X105076857Y-116687857D01*
X105362571Y-116652142D01*
X105934000Y-116723571D01*
X106219714Y-116973571D01*
X106219714Y-117402142D01*
X106505428Y-117652142D01*
X107076857Y-117723571D01*
X107362571Y-117687857D01*
X107934000Y-117473571D01*
X108219714Y-117152142D01*
X108219714Y-116723571D01*
X107934000Y-116473571D01*
X104219714Y-115509285D02*
X108219714Y-115009285D01*
X110219714Y-114759285D02*
X109934000Y-114937857D01*
X109648285Y-114830714D01*
X109934000Y-114652142D01*
X110219714Y-114759285D01*
X109648285Y-114830714D01*
X108219714Y-112294999D02*
X103362571Y-112902142D01*
X102791142Y-113116428D01*
X102505428Y-113295000D01*
X102219714Y-113616428D01*
X102219714Y-114044999D01*
X102505428Y-114295000D01*
X104505428Y-112759285D02*
X104219714Y-113080714D01*
X104219714Y-113652142D01*
X104505428Y-113902142D01*
X104791142Y-114009285D01*
X105362571Y-114080714D01*
X107076857Y-113866428D01*
X107648285Y-113652142D01*
X107934000Y-113473571D01*
X108219714Y-113152142D01*
X108219714Y-112580714D01*
X107934000Y-112330714D01*
X108219714Y-110866428D02*
X104219714Y-111366428D01*
X107648285Y-110937857D02*
X107934000Y-110759285D01*
X108219714Y-110437857D01*
X108219714Y-110009285D01*
X107934000Y-109759285D01*
X107362571Y-109687857D01*
X104219714Y-110080714D01*
X104505428Y-107473571D02*
X104219714Y-107795000D01*
X104219714Y-108366428D01*
X104505428Y-108616428D01*
X105076857Y-108687857D01*
X107362571Y-108402142D01*
X107934000Y-108187857D01*
X108219714Y-107866428D01*
X108219714Y-107295000D01*
X107934000Y-107045000D01*
X107362571Y-106973571D01*
X106791142Y-107045000D01*
X106219714Y-108545000D01*
X104219714Y-104795000D02*
X110219714Y-104045000D01*
X104505428Y-104759285D02*
X104219714Y-105080714D01*
X104219714Y-105652142D01*
X104505428Y-105902142D01*
X104791142Y-106009285D01*
X105362571Y-106080714D01*
X107076857Y-105866428D01*
X107648285Y-105652142D01*
X107934000Y-105473571D01*
X108219714Y-105152142D01*
X108219714Y-104580714D01*
X107934000Y-104330714D01*
X108219714Y-100866428D02*
X104219714Y-100795000D01*
X107076857Y-99866428D01*
X104219714Y-99652142D01*
X108219714Y-98580714D01*
X104219714Y-97937857D02*
X108219714Y-97437857D01*
X110219714Y-97187857D02*
X109934000Y-97366428D01*
X109648285Y-97259285D01*
X109934000Y-97080714D01*
X110219714Y-97187857D01*
X109648285Y-97259285D01*
X108219714Y-96437857D02*
X108219714Y-95295000D01*
X110219714Y-95759285D02*
X105076857Y-96402142D01*
X104505428Y-96330714D01*
X104219714Y-96080714D01*
X104219714Y-95795000D01*
X104219714Y-94795000D02*
X110219714Y-94045000D01*
X104219714Y-93509285D02*
X107362571Y-93116428D01*
X107934000Y-93187857D01*
X108219714Y-93437857D01*
X108219714Y-93866428D01*
X107934000Y-94187857D01*
X107648285Y-94366428D01*
X126710714Y-123341428D02*
X132710714Y-122591428D01*
X132710714Y-121877142D01*
X132425000Y-121484285D01*
X131853571Y-121270000D01*
X131282142Y-121198571D01*
X130139285Y-121198571D01*
X129282142Y-121305714D01*
X128139285Y-121591428D01*
X127567857Y-121805714D01*
X126996428Y-122162857D01*
X126710714Y-122627142D01*
X126710714Y-123341428D01*
X126710714Y-120341428D02*
X130710714Y-119841428D01*
X129567857Y-119984285D02*
X130139285Y-119770000D01*
X130425000Y-119591428D01*
X130710714Y-119270000D01*
X130710714Y-118984285D01*
X126710714Y-118484285D02*
X130710714Y-117984285D01*
X132710714Y-117734285D02*
X132425000Y-117912857D01*
X132139285Y-117805714D01*
X132425000Y-117627142D01*
X132710714Y-117734285D01*
X132139285Y-117805714D01*
X130710714Y-116841428D02*
X126710714Y-116627142D01*
X130710714Y-115412857D01*
X126996428Y-113591428D02*
X126710714Y-113912857D01*
X126710714Y-114484285D01*
X126996428Y-114734285D01*
X127567857Y-114805714D01*
X129853571Y-114520000D01*
X130425000Y-114305714D01*
X130710714Y-113984285D01*
X130710714Y-113412857D01*
X130425000Y-113162857D01*
X129853571Y-113091428D01*
X129282142Y-113162857D01*
X128710714Y-114662857D01*
X126710714Y-112198571D02*
X130710714Y-111698571D01*
X129567857Y-111841428D02*
X130139285Y-111627142D01*
X130425000Y-111448571D01*
X130710714Y-111127142D01*
X130710714Y-110841428D01*
X127282142Y-110270000D02*
X126996428Y-110162857D01*
X126710714Y-110341428D01*
X126996428Y-110448571D01*
X127282142Y-110270000D01*
X126710714Y-110341428D01*
X130425000Y-109877142D02*
X130139285Y-109770000D01*
X129853571Y-109948571D01*
X130139285Y-110055714D01*
X130425000Y-109877142D01*
X129853571Y-109948571D01*
X126710714Y-106627142D02*
X132710714Y-105877142D01*
X126710714Y-104912857D01*
X132710714Y-104162857D01*
X132710714Y-103162857D02*
X132710714Y-101448571D01*
X126710714Y-103055714D02*
X132710714Y-102305714D01*
X132710714Y-100734285D02*
X132710714Y-98877142D01*
X130425000Y-100162857D01*
X130425000Y-99734285D01*
X130139285Y-99484285D01*
X129853571Y-99377142D01*
X129282142Y-99305714D01*
X127853571Y-99484285D01*
X127282142Y-99698571D01*
X126996428Y-99877142D01*
X126710714Y-100198571D01*
X126710714Y-101055714D01*
X126996428Y-101305714D01*
X127282142Y-101412857D01*
X132710714Y-96162857D02*
X132710714Y-97591428D01*
X129853571Y-98091428D01*
X130139285Y-97912857D01*
X130425000Y-97591428D01*
X130425000Y-96877142D01*
X130139285Y-96627142D01*
X129853571Y-96520000D01*
X129282142Y-96448571D01*
X127853571Y-96627142D01*
X127282142Y-96841428D01*
X126996428Y-97020000D01*
X126710714Y-97341428D01*
X126710714Y-98055714D01*
X126996428Y-98305714D01*
X127282142Y-98412857D01*
X132710714Y-93305714D02*
X132710714Y-94734285D01*
X129853571Y-95234285D01*
X130139285Y-95055714D01*
X130425000Y-94734285D01*
X130425000Y-94020000D01*
X130139285Y-93770000D01*
X129853571Y-93662857D01*
X129282142Y-93591428D01*
X127853571Y-93770000D01*
X127282142Y-93984285D01*
X126996428Y-94162857D01*
X126710714Y-94484285D01*
X126710714Y-95198571D01*
X126996428Y-95448571D01*
X127282142Y-95555714D01*
X126710714Y-91055714D02*
X126710714Y-92770000D01*
X126710714Y-91912857D02*
X132710714Y-91162857D01*
X131853571Y-91555714D01*
X131282142Y-91912857D01*
X130996428Y-92234285D01*
X132710714Y-88448571D02*
X132710714Y-88162857D01*
X132425000Y-87912857D01*
X132139285Y-87805714D01*
X131567857Y-87734285D01*
X130425000Y-87734285D01*
X128996428Y-87912857D01*
X127853571Y-88198571D01*
X127282142Y-88412857D01*
X126996428Y-88591428D01*
X126710714Y-88912857D01*
X126710714Y-89198571D01*
X126996428Y-89448571D01*
X127282142Y-89555714D01*
X127853571Y-89627142D01*
X128996428Y-89627142D01*
X130425000Y-89448571D01*
X131567857Y-89162857D01*
X132139285Y-88948571D01*
X132425000Y-88770000D01*
X132710714Y-88448571D01*
X118660714Y-123541428D02*
X124660714Y-122791428D01*
X124660714Y-122077142D01*
X124375000Y-121684285D01*
X123803571Y-121470000D01*
X123232142Y-121398571D01*
X122089285Y-121398571D01*
X121232142Y-121505714D01*
X120089285Y-121791428D01*
X119517857Y-122005714D01*
X118946428Y-122362857D01*
X118660714Y-122827142D01*
X118660714Y-123541428D01*
X118660714Y-120541428D02*
X122660714Y-120041428D01*
X124660714Y-119791428D02*
X124375000Y-119970000D01*
X124089285Y-119862857D01*
X124375000Y-119684285D01*
X124660714Y-119791428D01*
X124089285Y-119862857D01*
X118946428Y-119220000D02*
X118660714Y-118970000D01*
X118660714Y-118398571D01*
X118946428Y-118077142D01*
X119517857Y-117862857D01*
X119803571Y-117827142D01*
X120375000Y-117898571D01*
X120660714Y-118148571D01*
X120660714Y-118577142D01*
X120946428Y-118827142D01*
X121517857Y-118898571D01*
X121803571Y-118862857D01*
X122375000Y-118648571D01*
X122660714Y-118327142D01*
X122660714Y-117898571D01*
X122375000Y-117648571D01*
X122660714Y-116184285D02*
X116660714Y-116934285D01*
X122375000Y-116220000D02*
X122660714Y-115898571D01*
X122660714Y-115327142D01*
X122375000Y-115077142D01*
X122089285Y-114970000D01*
X121517857Y-114898571D01*
X119803571Y-115112857D01*
X119232142Y-115327142D01*
X118946428Y-115505714D01*
X118660714Y-115827142D01*
X118660714Y-116398571D01*
X118946428Y-116648571D01*
X118660714Y-113541428D02*
X118946428Y-113791428D01*
X119517857Y-113862857D01*
X124660714Y-113220000D01*
X118660714Y-111112857D02*
X121803571Y-110720000D01*
X122375000Y-110791428D01*
X122660714Y-111041428D01*
X122660714Y-111612857D01*
X122375000Y-111934285D01*
X118946428Y-111077142D02*
X118660714Y-111398571D01*
X118660714Y-112112857D01*
X118946428Y-112362857D01*
X119517857Y-112434285D01*
X120089285Y-112362857D01*
X120660714Y-112148571D01*
X120946428Y-111827142D01*
X120946428Y-111112857D01*
X121232142Y-110791428D01*
X122660714Y-109470000D02*
X118660714Y-109255714D01*
X122660714Y-108041428D02*
X118660714Y-109255714D01*
X117232142Y-109720000D01*
X116946428Y-109898571D01*
X116660714Y-110220000D01*
X119232142Y-107327142D02*
X118946428Y-107220000D01*
X118660714Y-107398571D01*
X118946428Y-107505714D01*
X119232142Y-107327142D01*
X118660714Y-107398571D01*
X122375000Y-106934285D02*
X122089285Y-106827142D01*
X121803571Y-107005714D01*
X122089285Y-107112857D01*
X122375000Y-106934285D01*
X121803571Y-107005714D01*
X124660714Y-103220000D02*
X124660714Y-101362857D01*
X122375000Y-102648571D01*
X122375000Y-102220000D01*
X122089285Y-101970000D01*
X121803571Y-101862857D01*
X121232142Y-101791428D01*
X119803571Y-101970000D01*
X119232142Y-102184285D01*
X118946428Y-102362857D01*
X118660714Y-102684285D01*
X118660714Y-103541428D01*
X118946428Y-103791428D01*
X119232142Y-103898571D01*
X119232142Y-100755714D02*
X118946428Y-100648571D01*
X118660714Y-100827142D01*
X118946428Y-100934285D01*
X119232142Y-100755714D01*
X118660714Y-100827142D01*
X118660714Y-99255714D02*
X118660714Y-98684285D01*
X118946428Y-98362857D01*
X119232142Y-98184285D01*
X120089285Y-97791428D01*
X121232142Y-97505714D01*
X123517857Y-97220000D01*
X124089285Y-97291428D01*
X124375000Y-97398571D01*
X124660714Y-97648571D01*
X124660714Y-98220000D01*
X124375000Y-98541428D01*
X124089285Y-98720000D01*
X123517857Y-98934285D01*
X122089285Y-99112857D01*
X121517857Y-99041428D01*
X121232142Y-98934285D01*
X120946428Y-98684285D01*
X120946428Y-98112857D01*
X121232142Y-97791428D01*
X121517857Y-97612857D01*
X122089285Y-97398571D01*
X124660714Y-96077142D02*
X124660714Y-94077142D01*
X118660714Y-96112857D01*
X124660714Y-92791428D02*
X123517857Y-93220000D01*
X124660714Y-91362857D02*
X123517857Y-91791428D01*
X124660714Y-88220000D02*
X124660714Y-86505714D01*
X118660714Y-88112857D02*
X124660714Y-87362857D01*
X121803571Y-84862857D02*
X121803571Y-85862857D01*
X118660714Y-86255714D02*
X124660714Y-85505714D01*
X124660714Y-84077142D01*
X124660714Y-83362857D02*
X124660714Y-81648571D01*
X118660714Y-83255714D02*
X124660714Y-82505714D01*
D11*
X145000000Y-39326000D02*
X104257000Y-39326000D01*
X145000000Y-47090000D02*
X104250000Y-47090000D01*
D12*
X130629619Y-42320095D02*
X131629619Y-42320095D01*
X131629619Y-42082000D01*
X131582000Y-41939142D01*
X131486761Y-41843904D01*
X131391523Y-41796285D01*
X131201047Y-41748666D01*
X131058190Y-41748666D01*
X130867714Y-41796285D01*
X130772476Y-41843904D01*
X130677238Y-41939142D01*
X130629619Y-42082000D01*
X130629619Y-42320095D01*
X131629619Y-41415333D02*
X131629619Y-40796285D01*
X131248666Y-41129619D01*
X131248666Y-40986761D01*
X131201047Y-40891523D01*
X131153428Y-40843904D01*
X131058190Y-40796285D01*
X130820095Y-40796285D01*
X130724857Y-40843904D01*
X130677238Y-40891523D01*
X130629619Y-40986761D01*
X130629619Y-41272476D01*
X130677238Y-41367714D01*
X130724857Y-41415333D01*
X125429619Y-46434095D02*
X126429619Y-46434095D01*
X126429619Y-46196000D01*
X126382000Y-46053142D01*
X126286761Y-45957904D01*
X126191523Y-45910285D01*
X126001047Y-45862666D01*
X125858190Y-45862666D01*
X125667714Y-45910285D01*
X125572476Y-45957904D01*
X125477238Y-46053142D01*
X125429619Y-46196000D01*
X125429619Y-46434095D01*
X126429619Y-45005523D02*
X126429619Y-45196000D01*
X126382000Y-45291238D01*
X126334380Y-45338857D01*
X126191523Y-45434095D01*
X126001047Y-45481714D01*
X125620095Y-45481714D01*
X125524857Y-45434095D01*
X125477238Y-45386476D01*
X125429619Y-45291238D01*
X125429619Y-45100761D01*
X125477238Y-45005523D01*
X125524857Y-44957904D01*
X125620095Y-44910285D01*
X125858190Y-44910285D01*
X125953428Y-44957904D01*
X126001047Y-45005523D01*
X126048666Y-45100761D01*
X126048666Y-45291238D01*
X126001047Y-45386476D01*
X125953428Y-45434095D01*
X125858190Y-45481714D01*
X142045000Y-42326190D02*
X142045000Y-41326190D01*
X140772857Y-41516666D02*
X140725238Y-41564285D01*
X140677619Y-41707142D01*
X140677619Y-41802380D01*
X140725238Y-41945238D01*
X140820476Y-42040476D01*
X140915714Y-42088095D01*
X141106190Y-42135714D01*
X141249047Y-42135714D01*
X141439523Y-42088095D01*
X141534761Y-42040476D01*
X141630000Y-41945238D01*
X141677619Y-41802380D01*
X141677619Y-41707142D01*
X141630000Y-41564285D01*
X141582380Y-41516666D01*
X142045000Y-41326190D02*
X142045000Y-40373809D01*
X140725238Y-41135714D02*
X140677619Y-40992857D01*
X140677619Y-40754761D01*
X140725238Y-40659523D01*
X140772857Y-40611904D01*
X140868095Y-40564285D01*
X140963333Y-40564285D01*
X141058571Y-40611904D01*
X141106190Y-40659523D01*
X141153809Y-40754761D01*
X141201428Y-40945238D01*
X141249047Y-41040476D01*
X141296666Y-41088095D01*
X141391904Y-41135714D01*
X141487142Y-41135714D01*
X141582380Y-41088095D01*
X141630000Y-41040476D01*
X141677619Y-40945238D01*
X141677619Y-40707142D01*
X141630000Y-40564285D01*
X135671619Y-41651619D02*
X136147809Y-41984952D01*
X135671619Y-42223047D02*
X136671619Y-42223047D01*
X136671619Y-41842095D01*
X136624000Y-41746857D01*
X136576380Y-41699238D01*
X136481142Y-41651619D01*
X136338285Y-41651619D01*
X136243047Y-41699238D01*
X136195428Y-41746857D01*
X136147809Y-41842095D01*
X136147809Y-42223047D01*
X135719238Y-41270666D02*
X135671619Y-41127809D01*
X135671619Y-40889714D01*
X135719238Y-40794476D01*
X135766857Y-40746857D01*
X135862095Y-40699238D01*
X135957333Y-40699238D01*
X136052571Y-40746857D01*
X136100190Y-40794476D01*
X136147809Y-40889714D01*
X136195428Y-41080190D01*
X136243047Y-41175428D01*
X136290666Y-41223047D01*
X136385904Y-41270666D01*
X136481142Y-41270666D01*
X136576380Y-41223047D01*
X136624000Y-41175428D01*
X136671619Y-41080190D01*
X136671619Y-40842095D01*
X136624000Y-40699238D01*
X136671619Y-40413523D02*
X136671619Y-39842095D01*
X135671619Y-40127809D02*
X136671619Y-40127809D01*
X133019619Y-46434095D02*
X134019619Y-46434095D01*
X134019619Y-46196000D01*
X133972000Y-46053142D01*
X133876761Y-45957904D01*
X133781523Y-45910285D01*
X133591047Y-45862666D01*
X133448190Y-45862666D01*
X133257714Y-45910285D01*
X133162476Y-45957904D01*
X133067238Y-46053142D01*
X133019619Y-46196000D01*
X133019619Y-46434095D01*
X134019619Y-45243619D02*
X134019619Y-45148380D01*
X133972000Y-45053142D01*
X133924380Y-45005523D01*
X133829142Y-44957904D01*
X133638666Y-44910285D01*
X133400571Y-44910285D01*
X133210095Y-44957904D01*
X133114857Y-45005523D01*
X133067238Y-45053142D01*
X133019619Y-45148380D01*
X133019619Y-45243619D01*
X133067238Y-45338857D01*
X133114857Y-45386476D01*
X133210095Y-45434095D01*
X133400571Y-45481714D01*
X133638666Y-45481714D01*
X133829142Y-45434095D01*
X133924380Y-45386476D01*
X133972000Y-45338857D01*
X134019619Y-45243619D01*
X139211619Y-42286571D02*
X138211619Y-42048476D01*
X138925904Y-41858000D01*
X138211619Y-41667523D01*
X139211619Y-41429428D01*
X138211619Y-40477047D02*
X138687809Y-40810380D01*
X138211619Y-41048476D02*
X139211619Y-41048476D01*
X139211619Y-40667523D01*
X139164000Y-40572285D01*
X139116380Y-40524666D01*
X139021142Y-40477047D01*
X138878285Y-40477047D01*
X138783047Y-40524666D01*
X138735428Y-40572285D01*
X138687809Y-40667523D01*
X138687809Y-41048476D01*
X135671619Y-45866476D02*
X136147809Y-46199809D01*
X135671619Y-46437904D02*
X136671619Y-46437904D01*
X136671619Y-46056952D01*
X136624000Y-45961714D01*
X136576380Y-45914095D01*
X136481142Y-45866476D01*
X136338285Y-45866476D01*
X136243047Y-45914095D01*
X136195428Y-45961714D01*
X136147809Y-46056952D01*
X136147809Y-46437904D01*
X135671619Y-45437904D02*
X136671619Y-45437904D01*
X136671619Y-45199809D01*
X136624000Y-45056952D01*
X136528761Y-44961714D01*
X136433523Y-44914095D01*
X136243047Y-44866476D01*
X136100190Y-44866476D01*
X135909714Y-44914095D01*
X135814476Y-44961714D01*
X135719238Y-45056952D01*
X135671619Y-45199809D01*
X135671619Y-45437904D01*
X138211619Y-45842666D02*
X138687809Y-46176000D01*
X138211619Y-46414095D02*
X139211619Y-46414095D01*
X139211619Y-46033142D01*
X139164000Y-45937904D01*
X139116380Y-45890285D01*
X139021142Y-45842666D01*
X138878285Y-45842666D01*
X138783047Y-45890285D01*
X138735428Y-45937904D01*
X138687809Y-46033142D01*
X138687809Y-46414095D01*
X138259238Y-45461714D02*
X138211619Y-45318857D01*
X138211619Y-45080761D01*
X138259238Y-44985523D01*
X138306857Y-44937904D01*
X138402095Y-44890285D01*
X138497333Y-44890285D01*
X138592571Y-44937904D01*
X138640190Y-44985523D01*
X138687809Y-45080761D01*
X138735428Y-45271238D01*
X138783047Y-45366476D01*
X138830666Y-45414095D01*
X138925904Y-45461714D01*
X139021142Y-45461714D01*
X139116380Y-45414095D01*
X139164000Y-45366476D01*
X139211619Y-45271238D01*
X139211619Y-45033142D01*
X139164000Y-44890285D01*
X133189619Y-42360095D02*
X134189619Y-42360095D01*
X134189619Y-42122000D01*
X134142000Y-41979142D01*
X134046761Y-41883904D01*
X133951523Y-41836285D01*
X133761047Y-41788666D01*
X133618190Y-41788666D01*
X133427714Y-41836285D01*
X133332476Y-41883904D01*
X133237238Y-41979142D01*
X133189619Y-42122000D01*
X133189619Y-42360095D01*
X133189619Y-40836285D02*
X133189619Y-41407714D01*
X133189619Y-41122000D02*
X134189619Y-41122000D01*
X134046761Y-41217238D01*
X133951523Y-41312476D01*
X133903904Y-41407714D01*
X130609619Y-46474095D02*
X131609619Y-46474095D01*
X131609619Y-46236000D01*
X131562000Y-46093142D01*
X131466761Y-45997904D01*
X131371523Y-45950285D01*
X131181047Y-45902666D01*
X131038190Y-45902666D01*
X130847714Y-45950285D01*
X130752476Y-45997904D01*
X130657238Y-46093142D01*
X130609619Y-46236000D01*
X130609619Y-46474095D01*
X131514380Y-45521714D02*
X131562000Y-45474095D01*
X131609619Y-45378857D01*
X131609619Y-45140761D01*
X131562000Y-45045523D01*
X131514380Y-44997904D01*
X131419142Y-44950285D01*
X131323904Y-44950285D01*
X131181047Y-44997904D01*
X130609619Y-45569333D01*
X130609619Y-44950285D01*
X128039619Y-46474095D02*
X129039619Y-46474095D01*
X129039619Y-46236000D01*
X128992000Y-46093142D01*
X128896761Y-45997904D01*
X128801523Y-45950285D01*
X128611047Y-45902666D01*
X128468190Y-45902666D01*
X128277714Y-45950285D01*
X128182476Y-45997904D01*
X128087238Y-46093142D01*
X128039619Y-46236000D01*
X128039619Y-46474095D01*
X128706285Y-45045523D02*
X128039619Y-45045523D01*
X129087238Y-45283619D02*
X128372952Y-45521714D01*
X128372952Y-44902666D01*
X127969619Y-42340095D02*
X128969619Y-42340095D01*
X128969619Y-42102000D01*
X128922000Y-41959142D01*
X128826761Y-41863904D01*
X128731523Y-41816285D01*
X128541047Y-41768666D01*
X128398190Y-41768666D01*
X128207714Y-41816285D01*
X128112476Y-41863904D01*
X128017238Y-41959142D01*
X127969619Y-42102000D01*
X127969619Y-42340095D01*
X128969619Y-40863904D02*
X128969619Y-41340095D01*
X128493428Y-41387714D01*
X128541047Y-41340095D01*
X128588666Y-41244857D01*
X128588666Y-41006761D01*
X128541047Y-40911523D01*
X128493428Y-40863904D01*
X128398190Y-40816285D01*
X128160095Y-40816285D01*
X128064857Y-40863904D01*
X128017238Y-40911523D01*
X127969619Y-41006761D01*
X127969619Y-41244857D01*
X128017238Y-41340095D01*
X128064857Y-41387714D01*
X125439619Y-42360095D02*
X126439619Y-42360095D01*
X126439619Y-42122000D01*
X126392000Y-41979142D01*
X126296761Y-41883904D01*
X126201523Y-41836285D01*
X126011047Y-41788666D01*
X125868190Y-41788666D01*
X125677714Y-41836285D01*
X125582476Y-41883904D01*
X125487238Y-41979142D01*
X125439619Y-42122000D01*
X125439619Y-42360095D01*
X126439619Y-41455333D02*
X126439619Y-40788666D01*
X125439619Y-41217238D01*
X122939619Y-46434095D02*
X123939619Y-46434095D01*
X123939619Y-46196000D01*
X123892000Y-46053142D01*
X123796761Y-45957904D01*
X123701523Y-45910285D01*
X123511047Y-45862666D01*
X123368190Y-45862666D01*
X123177714Y-45910285D01*
X123082476Y-45957904D01*
X122987238Y-46053142D01*
X122939619Y-46196000D01*
X122939619Y-46434095D01*
X123511047Y-45291238D02*
X123558666Y-45386476D01*
X123606285Y-45434095D01*
X123701523Y-45481714D01*
X123749142Y-45481714D01*
X123844380Y-45434095D01*
X123892000Y-45386476D01*
X123939619Y-45291238D01*
X123939619Y-45100761D01*
X123892000Y-45005523D01*
X123844380Y-44957904D01*
X123749142Y-44910285D01*
X123701523Y-44910285D01*
X123606285Y-44957904D01*
X123558666Y-45005523D01*
X123511047Y-45100761D01*
X123511047Y-45291238D01*
X123463428Y-45386476D01*
X123415809Y-45434095D01*
X123320571Y-45481714D01*
X123130095Y-45481714D01*
X123034857Y-45434095D01*
X122987238Y-45386476D01*
X122939619Y-45291238D01*
X122939619Y-45100761D01*
X122987238Y-45005523D01*
X123034857Y-44957904D01*
X123130095Y-44910285D01*
X123320571Y-44910285D01*
X123415809Y-44957904D01*
X123463428Y-45005523D01*
X123511047Y-45100761D01*
X122869619Y-42320095D02*
X123869619Y-42320095D01*
X123869619Y-42082000D01*
X123822000Y-41939142D01*
X123726761Y-41843904D01*
X123631523Y-41796285D01*
X123441047Y-41748666D01*
X123298190Y-41748666D01*
X123107714Y-41796285D01*
X123012476Y-41843904D01*
X122917238Y-41939142D01*
X122869619Y-42082000D01*
X122869619Y-42320095D01*
X122869619Y-41272476D02*
X122869619Y-41082000D01*
X122917238Y-40986761D01*
X122964857Y-40939142D01*
X123107714Y-40843904D01*
X123298190Y-40796285D01*
X123679142Y-40796285D01*
X123774380Y-40843904D01*
X123822000Y-40891523D01*
X123869619Y-40986761D01*
X123869619Y-41177238D01*
X123822000Y-41272476D01*
X123774380Y-41320095D01*
X123679142Y-41367714D01*
X123441047Y-41367714D01*
X123345809Y-41320095D01*
X123298190Y-41272476D01*
X123250571Y-41177238D01*
X123250571Y-40986761D01*
X123298190Y-40891523D01*
X123345809Y-40843904D01*
X123441047Y-40796285D01*
X120329619Y-46440285D02*
X121329619Y-46440285D01*
X121329619Y-46202190D01*
X121282000Y-46059333D01*
X121186761Y-45964095D01*
X121091523Y-45916476D01*
X120901047Y-45868857D01*
X120758190Y-45868857D01*
X120567714Y-45916476D01*
X120472476Y-45964095D01*
X120377238Y-46059333D01*
X120329619Y-46202190D01*
X120329619Y-46440285D01*
X120329619Y-44916476D02*
X120329619Y-45487904D01*
X120329619Y-45202190D02*
X121329619Y-45202190D01*
X121186761Y-45297428D01*
X121091523Y-45392666D01*
X121043904Y-45487904D01*
X121329619Y-44297428D02*
X121329619Y-44202190D01*
X121282000Y-44106952D01*
X121234380Y-44059333D01*
X121139142Y-44011714D01*
X120948666Y-43964095D01*
X120710571Y-43964095D01*
X120520095Y-44011714D01*
X120424857Y-44059333D01*
X120377238Y-44106952D01*
X120329619Y-44202190D01*
X120329619Y-44297428D01*
X120377238Y-44392666D01*
X120424857Y-44440285D01*
X120520095Y-44487904D01*
X120710571Y-44535523D01*
X120948666Y-44535523D01*
X121139142Y-44487904D01*
X121234380Y-44440285D01*
X121282000Y-44392666D01*
X121329619Y-44297428D01*
X120339619Y-42316285D02*
X121339619Y-42316285D01*
X121339619Y-42078190D01*
X121292000Y-41935333D01*
X121196761Y-41840095D01*
X121101523Y-41792476D01*
X120911047Y-41744857D01*
X120768190Y-41744857D01*
X120577714Y-41792476D01*
X120482476Y-41840095D01*
X120387238Y-41935333D01*
X120339619Y-42078190D01*
X120339619Y-42316285D01*
X120339619Y-40792476D02*
X120339619Y-41363904D01*
X120339619Y-41078190D02*
X121339619Y-41078190D01*
X121196761Y-41173428D01*
X121101523Y-41268666D01*
X121053904Y-41363904D01*
X120339619Y-39840095D02*
X120339619Y-40411523D01*
X120339619Y-40125809D02*
X121339619Y-40125809D01*
X121196761Y-40221047D01*
X121101523Y-40316285D01*
X121053904Y-40411523D01*
X117759619Y-46440285D02*
X118759619Y-46440285D01*
X118759619Y-46202190D01*
X118712000Y-46059333D01*
X118616761Y-45964095D01*
X118521523Y-45916476D01*
X118331047Y-45868857D01*
X118188190Y-45868857D01*
X117997714Y-45916476D01*
X117902476Y-45964095D01*
X117807238Y-46059333D01*
X117759619Y-46202190D01*
X117759619Y-46440285D01*
X117759619Y-44916476D02*
X117759619Y-45487904D01*
X117759619Y-45202190D02*
X118759619Y-45202190D01*
X118616761Y-45297428D01*
X118521523Y-45392666D01*
X118473904Y-45487904D01*
X118664380Y-44535523D02*
X118712000Y-44487904D01*
X118759619Y-44392666D01*
X118759619Y-44154571D01*
X118712000Y-44059333D01*
X118664380Y-44011714D01*
X118569142Y-43964095D01*
X118473904Y-43964095D01*
X118331047Y-44011714D01*
X117759619Y-44583142D01*
X117759619Y-43964095D01*
X117849619Y-42356285D02*
X118849619Y-42356285D01*
X118849619Y-42118190D01*
X118802000Y-41975333D01*
X118706761Y-41880095D01*
X118611523Y-41832476D01*
X118421047Y-41784857D01*
X118278190Y-41784857D01*
X118087714Y-41832476D01*
X117992476Y-41880095D01*
X117897238Y-41975333D01*
X117849619Y-42118190D01*
X117849619Y-42356285D01*
X117849619Y-40832476D02*
X117849619Y-41403904D01*
X117849619Y-41118190D02*
X118849619Y-41118190D01*
X118706761Y-41213428D01*
X118611523Y-41308666D01*
X118563904Y-41403904D01*
X118849619Y-40499142D02*
X118849619Y-39880095D01*
X118468666Y-40213428D01*
X118468666Y-40070571D01*
X118421047Y-39975333D01*
X118373428Y-39927714D01*
X118278190Y-39880095D01*
X118040095Y-39880095D01*
X117944857Y-39927714D01*
X117897238Y-39975333D01*
X117849619Y-40070571D01*
X117849619Y-40356285D01*
X117897238Y-40451523D01*
X117944857Y-40499142D01*
X115349619Y-46440285D02*
X116349619Y-46440285D01*
X116349619Y-46202190D01*
X116302000Y-46059333D01*
X116206761Y-45964095D01*
X116111523Y-45916476D01*
X115921047Y-45868857D01*
X115778190Y-45868857D01*
X115587714Y-45916476D01*
X115492476Y-45964095D01*
X115397238Y-46059333D01*
X115349619Y-46202190D01*
X115349619Y-46440285D01*
X115349619Y-44916476D02*
X115349619Y-45487904D01*
X115349619Y-45202190D02*
X116349619Y-45202190D01*
X116206761Y-45297428D01*
X116111523Y-45392666D01*
X116063904Y-45487904D01*
X116016285Y-44059333D02*
X115349619Y-44059333D01*
X116397238Y-44297428D02*
X115682952Y-44535523D01*
X115682952Y-43916476D01*
X115299619Y-42406285D02*
X116299619Y-42406285D01*
X116299619Y-42168190D01*
X116252000Y-42025333D01*
X116156761Y-41930095D01*
X116061523Y-41882476D01*
X115871047Y-41834857D01*
X115728190Y-41834857D01*
X115537714Y-41882476D01*
X115442476Y-41930095D01*
X115347238Y-42025333D01*
X115299619Y-42168190D01*
X115299619Y-42406285D01*
X115299619Y-40882476D02*
X115299619Y-41453904D01*
X115299619Y-41168190D02*
X116299619Y-41168190D01*
X116156761Y-41263428D01*
X116061523Y-41358666D01*
X116013904Y-41453904D01*
X116299619Y-39977714D02*
X116299619Y-40453904D01*
X115823428Y-40501523D01*
X115871047Y-40453904D01*
X115918666Y-40358666D01*
X115918666Y-40120571D01*
X115871047Y-40025333D01*
X115823428Y-39977714D01*
X115728190Y-39930095D01*
X115490095Y-39930095D01*
X115394857Y-39977714D01*
X115347238Y-40025333D01*
X115299619Y-40120571D01*
X115299619Y-40358666D01*
X115347238Y-40453904D01*
X115394857Y-40501523D01*
X112759619Y-46400285D02*
X113759619Y-46400285D01*
X113759619Y-46162190D01*
X113712000Y-46019333D01*
X113616761Y-45924095D01*
X113521523Y-45876476D01*
X113331047Y-45828857D01*
X113188190Y-45828857D01*
X112997714Y-45876476D01*
X112902476Y-45924095D01*
X112807238Y-46019333D01*
X112759619Y-46162190D01*
X112759619Y-46400285D01*
X112759619Y-44876476D02*
X112759619Y-45447904D01*
X112759619Y-45162190D02*
X113759619Y-45162190D01*
X113616761Y-45257428D01*
X113521523Y-45352666D01*
X113473904Y-45447904D01*
X113759619Y-44019333D02*
X113759619Y-44209809D01*
X113712000Y-44305047D01*
X113664380Y-44352666D01*
X113521523Y-44447904D01*
X113331047Y-44495523D01*
X112950095Y-44495523D01*
X112854857Y-44447904D01*
X112807238Y-44400285D01*
X112759619Y-44305047D01*
X112759619Y-44114571D01*
X112807238Y-44019333D01*
X112854857Y-43971714D01*
X112950095Y-43924095D01*
X113188190Y-43924095D01*
X113283428Y-43971714D01*
X113331047Y-44019333D01*
X113378666Y-44114571D01*
X113378666Y-44305047D01*
X113331047Y-44400285D01*
X113283428Y-44447904D01*
X113188190Y-44495523D01*
X112749619Y-42446285D02*
X113749619Y-42446285D01*
X113749619Y-42208190D01*
X113702000Y-42065333D01*
X113606761Y-41970095D01*
X113511523Y-41922476D01*
X113321047Y-41874857D01*
X113178190Y-41874857D01*
X112987714Y-41922476D01*
X112892476Y-41970095D01*
X112797238Y-42065333D01*
X112749619Y-42208190D01*
X112749619Y-42446285D01*
X112749619Y-40922476D02*
X112749619Y-41493904D01*
X112749619Y-41208190D02*
X113749619Y-41208190D01*
X113606761Y-41303428D01*
X113511523Y-41398666D01*
X113463904Y-41493904D01*
X113749619Y-40589142D02*
X113749619Y-39922476D01*
X112749619Y-40351047D01*
X110239619Y-46410285D02*
X111239619Y-46410285D01*
X111239619Y-46172190D01*
X111192000Y-46029333D01*
X111096761Y-45934095D01*
X111001523Y-45886476D01*
X110811047Y-45838857D01*
X110668190Y-45838857D01*
X110477714Y-45886476D01*
X110382476Y-45934095D01*
X110287238Y-46029333D01*
X110239619Y-46172190D01*
X110239619Y-46410285D01*
X110239619Y-44886476D02*
X110239619Y-45457904D01*
X110239619Y-45172190D02*
X111239619Y-45172190D01*
X111096761Y-45267428D01*
X111001523Y-45362666D01*
X110953904Y-45457904D01*
X110811047Y-44315047D02*
X110858666Y-44410285D01*
X110906285Y-44457904D01*
X111001523Y-44505523D01*
X111049142Y-44505523D01*
X111144380Y-44457904D01*
X111192000Y-44410285D01*
X111239619Y-44315047D01*
X111239619Y-44124571D01*
X111192000Y-44029333D01*
X111144380Y-43981714D01*
X111049142Y-43934095D01*
X111001523Y-43934095D01*
X110906285Y-43981714D01*
X110858666Y-44029333D01*
X110811047Y-44124571D01*
X110811047Y-44315047D01*
X110763428Y-44410285D01*
X110715809Y-44457904D01*
X110620571Y-44505523D01*
X110430095Y-44505523D01*
X110334857Y-44457904D01*
X110287238Y-44410285D01*
X110239619Y-44315047D01*
X110239619Y-44124571D01*
X110287238Y-44029333D01*
X110334857Y-43981714D01*
X110430095Y-43934095D01*
X110620571Y-43934095D01*
X110715809Y-43981714D01*
X110763428Y-44029333D01*
X110811047Y-44124571D01*
X110229619Y-42386285D02*
X111229619Y-42386285D01*
X111229619Y-42148190D01*
X111182000Y-42005333D01*
X111086761Y-41910095D01*
X110991523Y-41862476D01*
X110801047Y-41814857D01*
X110658190Y-41814857D01*
X110467714Y-41862476D01*
X110372476Y-41910095D01*
X110277238Y-42005333D01*
X110229619Y-42148190D01*
X110229619Y-42386285D01*
X110229619Y-40862476D02*
X110229619Y-41433904D01*
X110229619Y-41148190D02*
X111229619Y-41148190D01*
X111086761Y-41243428D01*
X110991523Y-41338666D01*
X110943904Y-41433904D01*
X110229619Y-40386285D02*
X110229619Y-40195809D01*
X110277238Y-40100571D01*
X110324857Y-40052952D01*
X110467714Y-39957714D01*
X110658190Y-39910095D01*
X111039142Y-39910095D01*
X111134380Y-39957714D01*
X111182000Y-40005333D01*
X111229619Y-40100571D01*
X111229619Y-40291047D01*
X111182000Y-40386285D01*
X111134380Y-40433904D01*
X111039142Y-40481523D01*
X110801047Y-40481523D01*
X110705809Y-40433904D01*
X110658190Y-40386285D01*
X110610571Y-40291047D01*
X110610571Y-40100571D01*
X110658190Y-40005333D01*
X110705809Y-39957714D01*
X110801047Y-39910095D01*
X107679619Y-46380285D02*
X108679619Y-46380285D01*
X108679619Y-46142190D01*
X108632000Y-45999333D01*
X108536761Y-45904095D01*
X108441523Y-45856476D01*
X108251047Y-45808857D01*
X108108190Y-45808857D01*
X107917714Y-45856476D01*
X107822476Y-45904095D01*
X107727238Y-45999333D01*
X107679619Y-46142190D01*
X107679619Y-46380285D01*
X108584380Y-45427904D02*
X108632000Y-45380285D01*
X108679619Y-45285047D01*
X108679619Y-45046952D01*
X108632000Y-44951714D01*
X108584380Y-44904095D01*
X108489142Y-44856476D01*
X108393904Y-44856476D01*
X108251047Y-44904095D01*
X107679619Y-45475523D01*
X107679619Y-44856476D01*
X108679619Y-44237428D02*
X108679619Y-44142190D01*
X108632000Y-44046952D01*
X108584380Y-43999333D01*
X108489142Y-43951714D01*
X108298666Y-43904095D01*
X108060571Y-43904095D01*
X107870095Y-43951714D01*
X107774857Y-43999333D01*
X107727238Y-44046952D01*
X107679619Y-44142190D01*
X107679619Y-44237428D01*
X107727238Y-44332666D01*
X107774857Y-44380285D01*
X107870095Y-44427904D01*
X108060571Y-44475523D01*
X108298666Y-44475523D01*
X108489142Y-44427904D01*
X108584380Y-44380285D01*
X108632000Y-44332666D01*
X108679619Y-44237428D01*
X107719619Y-42446285D02*
X108719619Y-42446285D01*
X108719619Y-42208190D01*
X108672000Y-42065333D01*
X108576761Y-41970095D01*
X108481523Y-41922476D01*
X108291047Y-41874857D01*
X108148190Y-41874857D01*
X107957714Y-41922476D01*
X107862476Y-41970095D01*
X107767238Y-42065333D01*
X107719619Y-42208190D01*
X107719619Y-42446285D01*
X108624380Y-41493904D02*
X108672000Y-41446285D01*
X108719619Y-41351047D01*
X108719619Y-41112952D01*
X108672000Y-41017714D01*
X108624380Y-40970095D01*
X108529142Y-40922476D01*
X108433904Y-40922476D01*
X108291047Y-40970095D01*
X107719619Y-41541523D01*
X107719619Y-40922476D01*
X107719619Y-39970095D02*
X107719619Y-40541523D01*
X107719619Y-40255809D02*
X108719619Y-40255809D01*
X108576761Y-40351047D01*
X108481523Y-40446285D01*
X108433904Y-40541523D01*
X105149619Y-46410285D02*
X106149619Y-46410285D01*
X106149619Y-46172190D01*
X106102000Y-46029333D01*
X106006761Y-45934095D01*
X105911523Y-45886476D01*
X105721047Y-45838857D01*
X105578190Y-45838857D01*
X105387714Y-45886476D01*
X105292476Y-45934095D01*
X105197238Y-46029333D01*
X105149619Y-46172190D01*
X105149619Y-46410285D01*
X106054380Y-45457904D02*
X106102000Y-45410285D01*
X106149619Y-45315047D01*
X106149619Y-45076952D01*
X106102000Y-44981714D01*
X106054380Y-44934095D01*
X105959142Y-44886476D01*
X105863904Y-44886476D01*
X105721047Y-44934095D01*
X105149619Y-45505523D01*
X105149619Y-44886476D01*
X106054380Y-44505523D02*
X106102000Y-44457904D01*
X106149619Y-44362666D01*
X106149619Y-44124571D01*
X106102000Y-44029333D01*
X106054380Y-43981714D01*
X105959142Y-43934095D01*
X105863904Y-43934095D01*
X105721047Y-43981714D01*
X105149619Y-44553142D01*
X105149619Y-43934095D01*
X105059619Y-42486285D02*
X106059619Y-42486285D01*
X106059619Y-42248190D01*
X106012000Y-42105333D01*
X105916761Y-42010095D01*
X105821523Y-41962476D01*
X105631047Y-41914857D01*
X105488190Y-41914857D01*
X105297714Y-41962476D01*
X105202476Y-42010095D01*
X105107238Y-42105333D01*
X105059619Y-42248190D01*
X105059619Y-42486285D01*
X105964380Y-41533904D02*
X106012000Y-41486285D01*
X106059619Y-41391047D01*
X106059619Y-41152952D01*
X106012000Y-41057714D01*
X105964380Y-41010095D01*
X105869142Y-40962476D01*
X105773904Y-40962476D01*
X105631047Y-41010095D01*
X105059619Y-41581523D01*
X105059619Y-40962476D01*
X106059619Y-40629142D02*
X106059619Y-40010095D01*
X105678666Y-40343428D01*
X105678666Y-40200571D01*
X105631047Y-40105333D01*
X105583428Y-40057714D01*
X105488190Y-40010095D01*
X105250095Y-40010095D01*
X105154857Y-40057714D01*
X105107238Y-40105333D01*
X105059619Y-40200571D01*
X105059619Y-40486285D01*
X105107238Y-40581523D01*
X105154857Y-40629142D01*
X141275428Y-46009333D02*
X141227809Y-45866476D01*
X141180190Y-45818857D01*
X141084952Y-45771238D01*
X140942095Y-45771238D01*
X140846857Y-45818857D01*
X140799238Y-45866476D01*
X140751619Y-45961714D01*
X140751619Y-46342666D01*
X141751619Y-46342666D01*
X141751619Y-46009333D01*
X141704000Y-45914095D01*
X141656380Y-45866476D01*
X141561142Y-45818857D01*
X141465904Y-45818857D01*
X141370666Y-45866476D01*
X141323047Y-45914095D01*
X141275428Y-46009333D01*
X141275428Y-46342666D01*
X140751619Y-44866476D02*
X140751619Y-45342666D01*
X141751619Y-45342666D01*
D11*
X145000000Y-43210000D02*
X104257000Y-43210000D01*
D12*
X143478571Y-42385714D02*
X143478571Y-41623809D01*
X143097619Y-42004761D02*
X143859523Y-42004761D01*
X144097619Y-40671428D02*
X144097619Y-41147619D01*
X143621428Y-41195238D01*
X143669047Y-41147619D01*
X143716666Y-41052380D01*
X143716666Y-40814285D01*
X143669047Y-40719047D01*
X143621428Y-40671428D01*
X143526190Y-40623809D01*
X143288095Y-40623809D01*
X143192857Y-40671428D01*
X143145238Y-40719047D01*
X143097619Y-40814285D01*
X143097619Y-41052380D01*
X143145238Y-41147619D01*
X143192857Y-41195238D01*
X144097619Y-40338095D02*
X143097619Y-40004761D01*
X144097619Y-39671428D01*
X144050000Y-45929904D02*
X144097619Y-46025142D01*
X144097619Y-46168000D01*
X144050000Y-46310857D01*
X143954761Y-46406095D01*
X143859523Y-46453714D01*
X143669047Y-46501333D01*
X143526190Y-46501333D01*
X143335714Y-46453714D01*
X143240476Y-46406095D01*
X143145238Y-46310857D01*
X143097619Y-46168000D01*
X143097619Y-46072761D01*
X143145238Y-45929904D01*
X143192857Y-45882285D01*
X143526190Y-45882285D01*
X143526190Y-46072761D01*
X143097619Y-45453714D02*
X144097619Y-45453714D01*
X143097619Y-44882285D01*
X144097619Y-44882285D01*
X143097619Y-44406095D02*
X144097619Y-44406095D01*
X144097619Y-44168000D01*
X144050000Y-44025142D01*
X143954761Y-43929904D01*
X143859523Y-43882285D01*
X143669047Y-43834666D01*
X143526190Y-43834666D01*
X143335714Y-43882285D01*
X143240476Y-43929904D01*
X143145238Y-44025142D01*
X143097619Y-44168000D01*
X143097619Y-44406095D01*
D13*
G36*
X111104067Y-84120318D02*
G01*
X111056828Y-83984071D01*
X110982473Y-83857221D01*
X110881013Y-83743933D01*
X110752457Y-83648372D01*
X110671428Y-83605446D01*
X110558092Y-83568295D01*
X110427249Y-83550288D01*
X110292735Y-83552283D01*
X110170842Y-83574423D01*
X110021893Y-83634936D01*
X109892691Y-83722686D01*
X109785777Y-83833212D01*
X109703694Y-83962054D01*
X109648984Y-84104753D01*
X109624190Y-84256849D01*
X109631853Y-84413881D01*
X109648228Y-84491286D01*
X109706911Y-84642141D01*
X109796457Y-84776125D01*
X109914107Y-84890006D01*
X110057098Y-84980552D01*
X110072714Y-84988212D01*
X110131314Y-85014694D01*
X110180666Y-85031322D01*
X110232730Y-85040350D01*
X110299461Y-85044032D01*
X110372071Y-85044643D01*
X110459309Y-85043633D01*
X110522376Y-85039072D01*
X110573364Y-85028666D01*
X110624367Y-85010121D01*
X110674687Y-84987230D01*
X110817530Y-84901846D01*
X110933190Y-84796699D01*
X111021675Y-84675955D01*
X111082995Y-84543779D01*
X111117161Y-84404337D01*
X111124182Y-84261795D01*
X111104067Y-84120318D01*
X111104067Y-84120318D01*
G37*
X111104067Y-84120318D02*
X111056828Y-83984071D01*
X110982473Y-83857221D01*
X110881013Y-83743933D01*
X110752457Y-83648372D01*
X110671428Y-83605446D01*
X110558092Y-83568295D01*
X110427249Y-83550288D01*
X110292735Y-83552283D01*
X110170842Y-83574423D01*
X110021893Y-83634936D01*
X109892691Y-83722686D01*
X109785777Y-83833212D01*
X109703694Y-83962054D01*
X109648984Y-84104753D01*
X109624190Y-84256849D01*
X109631853Y-84413881D01*
X109648228Y-84491286D01*
X109706911Y-84642141D01*
X109796457Y-84776125D01*
X109914107Y-84890006D01*
X110057098Y-84980552D01*
X110072714Y-84988212D01*
X110131314Y-85014694D01*
X110180666Y-85031322D01*
X110232730Y-85040350D01*
X110299461Y-85044032D01*
X110372071Y-85044643D01*
X110459309Y-85043633D01*
X110522376Y-85039072D01*
X110573364Y-85028666D01*
X110624367Y-85010121D01*
X110674687Y-84987230D01*
X110817530Y-84901846D01*
X110933190Y-84796699D01*
X111021675Y-84675955D01*
X111082995Y-84543779D01*
X111117161Y-84404337D01*
X111124182Y-84261795D01*
X111104067Y-84120318D01*
G36*
X109887911Y-71476429D02*
G01*
X109887277Y-71322124D01*
X109886958Y-71269679D01*
X109882214Y-70548500D01*
X107115428Y-70539429D01*
X106740244Y-70538231D01*
X106399583Y-70537168D01*
X106091682Y-70536173D01*
X105814779Y-70535177D01*
X105567112Y-70534112D01*
X105346919Y-70532909D01*
X105152438Y-70531501D01*
X104981906Y-70529818D01*
X104833560Y-70527794D01*
X104705639Y-70525359D01*
X104596380Y-70522446D01*
X104504021Y-70518985D01*
X104426800Y-70514910D01*
X104362954Y-70510151D01*
X104310722Y-70504640D01*
X104268340Y-70498309D01*
X104234047Y-70491090D01*
X104206080Y-70482915D01*
X104182676Y-70473715D01*
X104162075Y-70463423D01*
X104142513Y-70451969D01*
X104122228Y-70439285D01*
X104099457Y-70425305D01*
X104094607Y-70422439D01*
X104012567Y-70374360D01*
X104022071Y-71764072D01*
X104174705Y-71773143D01*
X104247955Y-71778082D01*
X104290304Y-71783229D01*
X104307108Y-71790214D01*
X104303723Y-71800663D01*
X104294040Y-71809429D01*
X104258771Y-71847612D01*
X104213437Y-71909845D01*
X104163454Y-71987359D01*
X104114239Y-72071387D01*
X104071209Y-72153161D01*
X104042899Y-72215948D01*
X103996376Y-72363046D01*
X103963421Y-72531820D01*
X103945293Y-72709809D01*
X103943250Y-72884553D01*
X103958553Y-73043593D01*
X103958991Y-73046212D01*
X104013598Y-73263832D01*
X104100599Y-73467545D01*
X104218124Y-73655387D01*
X104364303Y-73825393D01*
X104537266Y-73975598D01*
X104735143Y-74104036D01*
X104956064Y-74208743D01*
X105119714Y-74265754D01*
X105256625Y-74303349D01*
X105389202Y-74331229D01*
X105525498Y-74350247D01*
X105673567Y-74361255D01*
X105841463Y-74365105D01*
X105978560Y-74363400D01*
X105978560Y-73024641D01*
X105748671Y-73018306D01*
X105550889Y-72998321D01*
X105383461Y-72964073D01*
X105244631Y-72914945D01*
X105132642Y-72850324D01*
X105045741Y-72769595D01*
X104984308Y-72676409D01*
X104961374Y-72627920D01*
X104947625Y-72585866D01*
X104941334Y-72538980D01*
X104940778Y-72475996D01*
X104943227Y-72408143D01*
X104954996Y-72274705D01*
X104978045Y-72169168D01*
X104989590Y-72136000D01*
X105023689Y-72060265D01*
X105066509Y-71980386D01*
X105087943Y-71945500D01*
X105147444Y-71854786D01*
X107033416Y-71854786D01*
X107093229Y-71954572D01*
X107160815Y-72093733D01*
X107200786Y-72235913D01*
X107213378Y-72375910D01*
X107198827Y-72508526D01*
X107157368Y-72628560D01*
X107089237Y-72730812D01*
X107056534Y-72763805D01*
X106949381Y-72843333D01*
X106819673Y-72907701D01*
X106665186Y-72957447D01*
X106483698Y-72993109D01*
X106272985Y-73015225D01*
X106030825Y-73024333D01*
X105978560Y-73024641D01*
X105978560Y-74363400D01*
X106035626Y-74362690D01*
X106334287Y-74347395D01*
X106603675Y-74316642D01*
X106847715Y-74269619D01*
X107070330Y-74205518D01*
X107275444Y-74123528D01*
X107336254Y-74094270D01*
X107534560Y-73976419D01*
X107710788Y-73834004D01*
X107862092Y-73670371D01*
X107985629Y-73488869D01*
X108078553Y-73292847D01*
X108116885Y-73175345D01*
X108139641Y-73059946D01*
X108153180Y-72921093D01*
X108157508Y-72770426D01*
X108152632Y-72619587D01*
X108138556Y-72480215D01*
X108116475Y-72368309D01*
X108073172Y-72235116D01*
X108017489Y-72106021D01*
X107955064Y-71993072D01*
X107912697Y-71932957D01*
X107881193Y-71891490D01*
X107862010Y-71862455D01*
X107859286Y-71855850D01*
X107876837Y-71853802D01*
X107927125Y-71851893D01*
X108006600Y-71850164D01*
X108111714Y-71848659D01*
X108238917Y-71847419D01*
X108384661Y-71846487D01*
X108545397Y-71845905D01*
X108709116Y-71845714D01*
X108918812Y-71845821D01*
X109095604Y-71846342D01*
X109242874Y-71847584D01*
X109364003Y-71849852D01*
X109462373Y-71853450D01*
X109541366Y-71858683D01*
X109604362Y-71865856D01*
X109654745Y-71875274D01*
X109695895Y-71887242D01*
X109731194Y-71902065D01*
X109764023Y-71920048D01*
X109797765Y-71941495D01*
X109801943Y-71944255D01*
X109845644Y-71971917D01*
X109875695Y-71988618D01*
X109882033Y-71990857D01*
X109884033Y-71973357D01*
X109885660Y-71923426D01*
X109886888Y-71844915D01*
X109887689Y-71741677D01*
X109888039Y-71617564D01*
X109887911Y-71476429D01*
X109887911Y-71476429D01*
G37*
X109887911Y-71476429D02*
X109887277Y-71322124D01*
X109886958Y-71269679D01*
X109882214Y-70548500D01*
X107115428Y-70539429D01*
X106740244Y-70538231D01*
X106399583Y-70537168D01*
X106091682Y-70536173D01*
X105814779Y-70535177D01*
X105567112Y-70534112D01*
X105346919Y-70532909D01*
X105152438Y-70531501D01*
X104981906Y-70529818D01*
X104833560Y-70527794D01*
X104705639Y-70525359D01*
X104596380Y-70522446D01*
X104504021Y-70518985D01*
X104426800Y-70514910D01*
X104362954Y-70510151D01*
X104310722Y-70504640D01*
X104268340Y-70498309D01*
X104234047Y-70491090D01*
X104206080Y-70482915D01*
X104182676Y-70473715D01*
X104162075Y-70463423D01*
X104142513Y-70451969D01*
X104122228Y-70439285D01*
X104099457Y-70425305D01*
X104094607Y-70422439D01*
X104012567Y-70374360D01*
X104022071Y-71764072D01*
X104174705Y-71773143D01*
X104247955Y-71778082D01*
X104290304Y-71783229D01*
X104307108Y-71790214D01*
X104303723Y-71800663D01*
X104294040Y-71809429D01*
X104258771Y-71847612D01*
X104213437Y-71909845D01*
X104163454Y-71987359D01*
X104114239Y-72071387D01*
X104071209Y-72153161D01*
X104042899Y-72215948D01*
X103996376Y-72363046D01*
X103963421Y-72531820D01*
X103945293Y-72709809D01*
X103943250Y-72884553D01*
X103958553Y-73043593D01*
X103958991Y-73046212D01*
X104013598Y-73263832D01*
X104100599Y-73467545D01*
X104218124Y-73655387D01*
X104364303Y-73825393D01*
X104537266Y-73975598D01*
X104735143Y-74104036D01*
X104956064Y-74208743D01*
X105119714Y-74265754D01*
X105256625Y-74303349D01*
X105389202Y-74331229D01*
X105525498Y-74350247D01*
X105673567Y-74361255D01*
X105841463Y-74365105D01*
X105978560Y-74363400D01*
X105978560Y-73024641D01*
X105748671Y-73018306D01*
X105550889Y-72998321D01*
X105383461Y-72964073D01*
X105244631Y-72914945D01*
X105132642Y-72850324D01*
X105045741Y-72769595D01*
X104984308Y-72676409D01*
X104961374Y-72627920D01*
X104947625Y-72585866D01*
X104941334Y-72538980D01*
X104940778Y-72475996D01*
X104943227Y-72408143D01*
X104954996Y-72274705D01*
X104978045Y-72169168D01*
X104989590Y-72136000D01*
X105023689Y-72060265D01*
X105066509Y-71980386D01*
X105087943Y-71945500D01*
X105147444Y-71854786D01*
X107033416Y-71854786D01*
X107093229Y-71954572D01*
X107160815Y-72093733D01*
X107200786Y-72235913D01*
X107213378Y-72375910D01*
X107198827Y-72508526D01*
X107157368Y-72628560D01*
X107089237Y-72730812D01*
X107056534Y-72763805D01*
X106949381Y-72843333D01*
X106819673Y-72907701D01*
X106665186Y-72957447D01*
X106483698Y-72993109D01*
X106272985Y-73015225D01*
X106030825Y-73024333D01*
X105978560Y-73024641D01*
X105978560Y-74363400D01*
X106035626Y-74362690D01*
X106334287Y-74347395D01*
X106603675Y-74316642D01*
X106847715Y-74269619D01*
X107070330Y-74205518D01*
X107275444Y-74123528D01*
X107336254Y-74094270D01*
X107534560Y-73976419D01*
X107710788Y-73834004D01*
X107862092Y-73670371D01*
X107985629Y-73488869D01*
X108078553Y-73292847D01*
X108116885Y-73175345D01*
X108139641Y-73059946D01*
X108153180Y-72921093D01*
X108157508Y-72770426D01*
X108152632Y-72619587D01*
X108138556Y-72480215D01*
X108116475Y-72368309D01*
X108073172Y-72235116D01*
X108017489Y-72106021D01*
X107955064Y-71993072D01*
X107912697Y-71932957D01*
X107881193Y-71891490D01*
X107862010Y-71862455D01*
X107859286Y-71855850D01*
X107876837Y-71853802D01*
X107927125Y-71851893D01*
X108006600Y-71850164D01*
X108111714Y-71848659D01*
X108238917Y-71847419D01*
X108384661Y-71846487D01*
X108545397Y-71845905D01*
X108709116Y-71845714D01*
X108918812Y-71845821D01*
X109095604Y-71846342D01*
X109242874Y-71847584D01*
X109364003Y-71849852D01*
X109462373Y-71853450D01*
X109541366Y-71858683D01*
X109604362Y-71865856D01*
X109654745Y-71875274D01*
X109695895Y-71887242D01*
X109731194Y-71902065D01*
X109764023Y-71920048D01*
X109797765Y-71941495D01*
X109801943Y-71944255D01*
X109845644Y-71971917D01*
X109875695Y-71988618D01*
X109882033Y-71990857D01*
X109884033Y-71973357D01*
X109885660Y-71923426D01*
X109886888Y-71844915D01*
X109887689Y-71741677D01*
X109888039Y-71617564D01*
X109887911Y-71476429D01*
G36*
X108160270Y-76332368D02*
G01*
X108153465Y-76242477D01*
X108119247Y-75985285D01*
X108064669Y-75757515D01*
X107988980Y-75558057D01*
X107891430Y-75385803D01*
X107771268Y-75239641D01*
X107627742Y-75118464D01*
X107460102Y-75021161D01*
X107278714Y-74950109D01*
X107220854Y-74932073D01*
X107166671Y-74916368D01*
X107113248Y-74902808D01*
X107057667Y-74891208D01*
X106997012Y-74881383D01*
X106928365Y-74873147D01*
X106848810Y-74866316D01*
X106755428Y-74860705D01*
X106645304Y-74856128D01*
X106515519Y-74852400D01*
X106363158Y-74849335D01*
X106185302Y-74846750D01*
X105979035Y-74844458D01*
X105741439Y-74842275D01*
X105555143Y-74840714D01*
X104276071Y-74830215D01*
X104152982Y-74762179D01*
X104093683Y-74729962D01*
X104047623Y-74705988D01*
X104023107Y-74694550D01*
X104021447Y-74694143D01*
X104019546Y-74711625D01*
X104017795Y-74761426D01*
X104016242Y-74839579D01*
X104014938Y-74942118D01*
X104013930Y-75065078D01*
X104013269Y-75204490D01*
X104013003Y-75356389D01*
X104013000Y-75374500D01*
X104013000Y-76054857D01*
X104167214Y-76054857D01*
X104236906Y-76056018D01*
X104290206Y-76059113D01*
X104318783Y-76063568D01*
X104321428Y-76065537D01*
X104310347Y-76083545D01*
X104281264Y-76120607D01*
X104240421Y-76168778D01*
X104239476Y-76169859D01*
X104174029Y-76257765D01*
X104108312Y-76368783D01*
X104048781Y-76490369D01*
X104001891Y-76609979D01*
X103985867Y-76662643D01*
X103965515Y-76767449D01*
X103952528Y-76896050D01*
X103947091Y-77036675D01*
X103949389Y-77177552D01*
X103959608Y-77306907D01*
X103974311Y-77397429D01*
X104039501Y-77619420D01*
X104132406Y-77819271D01*
X104251874Y-77995681D01*
X104396753Y-78147350D01*
X104565890Y-78272976D01*
X104758133Y-78371259D01*
X104874786Y-78413659D01*
X104988167Y-78440232D01*
X105124278Y-78457842D01*
X105270563Y-78465990D01*
X105291849Y-78465722D01*
X105291849Y-77238679D01*
X105183150Y-77228504D01*
X105092815Y-77194622D01*
X105009005Y-77132000D01*
X104984429Y-77107948D01*
X104917989Y-77022449D01*
X104875426Y-76923627D01*
X104854823Y-76805232D01*
X104853306Y-76680555D01*
X104863323Y-76562302D01*
X104882915Y-76471761D01*
X104897630Y-76432440D01*
X104937735Y-76361568D01*
X104994137Y-76286475D01*
X105057439Y-76217962D01*
X105118245Y-76166828D01*
X105140551Y-76153250D01*
X105171788Y-76142695D01*
X105221493Y-76135190D01*
X105294413Y-76130387D01*
X105395297Y-76127935D01*
X105491311Y-76127429D01*
X105603250Y-76127772D01*
X105684191Y-76129157D01*
X105739415Y-76132119D01*
X105774206Y-76137192D01*
X105793846Y-76144910D01*
X105803620Y-76155808D01*
X105805176Y-76159179D01*
X105809971Y-76188471D01*
X105813892Y-76246244D01*
X105816586Y-76324696D01*
X105817701Y-76416026D01*
X105817702Y-76435857D01*
X105815754Y-76557937D01*
X105809959Y-76652251D01*
X105799525Y-76727193D01*
X105784286Y-76789097D01*
X105726216Y-76942651D01*
X105654821Y-77063068D01*
X105568961Y-77151390D01*
X105467493Y-77208661D01*
X105349275Y-77235922D01*
X105291849Y-77238679D01*
X105291849Y-78465722D01*
X105414467Y-78464177D01*
X105543435Y-78451904D01*
X105595540Y-78442330D01*
X105789003Y-78381199D01*
X105967007Y-78288243D01*
X106127845Y-78165217D01*
X106269810Y-78013876D01*
X106391194Y-77835975D01*
X106490291Y-77633268D01*
X106550467Y-77460929D01*
X106582081Y-77345747D01*
X106606646Y-77235577D01*
X106624961Y-77123281D01*
X106637822Y-77001725D01*
X106646028Y-76863771D01*
X106650376Y-76702285D01*
X106651600Y-76556285D01*
X106652785Y-76123355D01*
X106782920Y-76131649D01*
X106924117Y-76155199D01*
X107045482Y-76205297D01*
X107143983Y-76279809D01*
X107216591Y-76376601D01*
X107252021Y-76461829D01*
X107274350Y-76583944D01*
X107277557Y-76729317D01*
X107262823Y-76891133D01*
X107231330Y-77062578D01*
X107184260Y-77236837D01*
X107122797Y-77407096D01*
X107066583Y-77530824D01*
X107037717Y-77590353D01*
X107017557Y-77635758D01*
X107009690Y-77658850D01*
X107009942Y-77660103D01*
X107027563Y-77668071D01*
X107074267Y-77687969D01*
X107145582Y-77717923D01*
X107237031Y-77756061D01*
X107344141Y-77800512D01*
X107453451Y-77845695D01*
X107891260Y-78026333D01*
X107912364Y-77897845D01*
X107922953Y-77842154D01*
X107940737Y-77758436D01*
X107964102Y-77653861D01*
X107991435Y-77535601D01*
X108021119Y-77410828D01*
X108033182Y-77361143D01*
X108083038Y-77146193D01*
X108120416Y-76958005D01*
X108146073Y-76789554D01*
X108160765Y-76633814D01*
X108165245Y-76483760D01*
X108160270Y-76332368D01*
X108160270Y-76332368D01*
G37*
X108160270Y-76332368D02*
X108153465Y-76242477D01*
X108119247Y-75985285D01*
X108064669Y-75757515D01*
X107988980Y-75558057D01*
X107891430Y-75385803D01*
X107771268Y-75239641D01*
X107627742Y-75118464D01*
X107460102Y-75021161D01*
X107278714Y-74950109D01*
X107220854Y-74932073D01*
X107166671Y-74916368D01*
X107113248Y-74902808D01*
X107057667Y-74891208D01*
X106997012Y-74881383D01*
X106928365Y-74873147D01*
X106848810Y-74866316D01*
X106755428Y-74860705D01*
X106645304Y-74856128D01*
X106515519Y-74852400D01*
X106363158Y-74849335D01*
X106185302Y-74846750D01*
X105979035Y-74844458D01*
X105741439Y-74842275D01*
X105555143Y-74840714D01*
X104276071Y-74830215D01*
X104152982Y-74762179D01*
X104093683Y-74729962D01*
X104047623Y-74705988D01*
X104023107Y-74694550D01*
X104021447Y-74694143D01*
X104019546Y-74711625D01*
X104017795Y-74761426D01*
X104016242Y-74839579D01*
X104014938Y-74942118D01*
X104013930Y-75065078D01*
X104013269Y-75204490D01*
X104013003Y-75356389D01*
X104013000Y-75374500D01*
X104013000Y-76054857D01*
X104167214Y-76054857D01*
X104236906Y-76056018D01*
X104290206Y-76059113D01*
X104318783Y-76063568D01*
X104321428Y-76065537D01*
X104310347Y-76083545D01*
X104281264Y-76120607D01*
X104240421Y-76168778D01*
X104239476Y-76169859D01*
X104174029Y-76257765D01*
X104108312Y-76368783D01*
X104048781Y-76490369D01*
X104001891Y-76609979D01*
X103985867Y-76662643D01*
X103965515Y-76767449D01*
X103952528Y-76896050D01*
X103947091Y-77036675D01*
X103949389Y-77177552D01*
X103959608Y-77306907D01*
X103974311Y-77397429D01*
X104039501Y-77619420D01*
X104132406Y-77819271D01*
X104251874Y-77995681D01*
X104396753Y-78147350D01*
X104565890Y-78272976D01*
X104758133Y-78371259D01*
X104874786Y-78413659D01*
X104988167Y-78440232D01*
X105124278Y-78457842D01*
X105270563Y-78465990D01*
X105291849Y-78465722D01*
X105291849Y-77238679D01*
X105183150Y-77228504D01*
X105092815Y-77194622D01*
X105009005Y-77132000D01*
X104984429Y-77107948D01*
X104917989Y-77022449D01*
X104875426Y-76923627D01*
X104854823Y-76805232D01*
X104853306Y-76680555D01*
X104863323Y-76562302D01*
X104882915Y-76471761D01*
X104897630Y-76432440D01*
X104937735Y-76361568D01*
X104994137Y-76286475D01*
X105057439Y-76217962D01*
X105118245Y-76166828D01*
X105140551Y-76153250D01*
X105171788Y-76142695D01*
X105221493Y-76135190D01*
X105294413Y-76130387D01*
X105395297Y-76127935D01*
X105491311Y-76127429D01*
X105603250Y-76127772D01*
X105684191Y-76129157D01*
X105739415Y-76132119D01*
X105774206Y-76137192D01*
X105793846Y-76144910D01*
X105803620Y-76155808D01*
X105805176Y-76159179D01*
X105809971Y-76188471D01*
X105813892Y-76246244D01*
X105816586Y-76324696D01*
X105817701Y-76416026D01*
X105817702Y-76435857D01*
X105815754Y-76557937D01*
X105809959Y-76652251D01*
X105799525Y-76727193D01*
X105784286Y-76789097D01*
X105726216Y-76942651D01*
X105654821Y-77063068D01*
X105568961Y-77151390D01*
X105467493Y-77208661D01*
X105349275Y-77235922D01*
X105291849Y-77238679D01*
X105291849Y-78465722D01*
X105414467Y-78464177D01*
X105543435Y-78451904D01*
X105595540Y-78442330D01*
X105789003Y-78381199D01*
X105967007Y-78288243D01*
X106127845Y-78165217D01*
X106269810Y-78013876D01*
X106391194Y-77835975D01*
X106490291Y-77633268D01*
X106550467Y-77460929D01*
X106582081Y-77345747D01*
X106606646Y-77235577D01*
X106624961Y-77123281D01*
X106637822Y-77001725D01*
X106646028Y-76863771D01*
X106650376Y-76702285D01*
X106651600Y-76556285D01*
X106652785Y-76123355D01*
X106782920Y-76131649D01*
X106924117Y-76155199D01*
X107045482Y-76205297D01*
X107143983Y-76279809D01*
X107216591Y-76376601D01*
X107252021Y-76461829D01*
X107274350Y-76583944D01*
X107277557Y-76729317D01*
X107262823Y-76891133D01*
X107231330Y-77062578D01*
X107184260Y-77236837D01*
X107122797Y-77407096D01*
X107066583Y-77530824D01*
X107037717Y-77590353D01*
X107017557Y-77635758D01*
X107009690Y-77658850D01*
X107009942Y-77660103D01*
X107027563Y-77668071D01*
X107074267Y-77687969D01*
X107145582Y-77717923D01*
X107237031Y-77756061D01*
X107344141Y-77800512D01*
X107453451Y-77845695D01*
X107891260Y-78026333D01*
X107912364Y-77897845D01*
X107922953Y-77842154D01*
X107940737Y-77758436D01*
X107964102Y-77653861D01*
X107991435Y-77535601D01*
X108021119Y-77410828D01*
X108033182Y-77361143D01*
X108083038Y-77146193D01*
X108120416Y-76958005D01*
X108146073Y-76789554D01*
X108160765Y-76633814D01*
X108165245Y-76483760D01*
X108160270Y-76332368D01*
G36*
X109618769Y-79936622D02*
G01*
X109597351Y-79740981D01*
X109559015Y-79551438D01*
X109501762Y-79360283D01*
X109423591Y-79159804D01*
X109322504Y-78942292D01*
X109302924Y-78903120D01*
X109258638Y-78813228D01*
X109218761Y-78728447D01*
X109187102Y-78657145D01*
X109167468Y-78607690D01*
X109164996Y-78600092D01*
X109143183Y-78527286D01*
X108669056Y-78853197D01*
X108553177Y-78932877D01*
X108447306Y-79005728D01*
X108355038Y-79069270D01*
X108279967Y-79121028D01*
X108225687Y-79158523D01*
X108195793Y-79179277D01*
X108191059Y-79182649D01*
X108200958Y-79196345D01*
X108230715Y-79230057D01*
X108274927Y-79277756D01*
X108299916Y-79304080D01*
X108418544Y-79453228D01*
X108508687Y-79620732D01*
X108558064Y-79765072D01*
X108573571Y-79851717D01*
X108583021Y-79960204D01*
X108586239Y-80077773D01*
X108583049Y-80191666D01*
X108573276Y-80289121D01*
X108565791Y-80328010D01*
X108505488Y-80503288D01*
X108413410Y-80661235D01*
X108289727Y-80801732D01*
X108134607Y-80924665D01*
X107948219Y-81029915D01*
X107730730Y-81117365D01*
X107482308Y-81186900D01*
X107269643Y-81228225D01*
X107175759Y-81239006D01*
X107054476Y-81246352D01*
X106914507Y-81250333D01*
X106764569Y-81251021D01*
X106613378Y-81248486D01*
X106469649Y-81242800D01*
X106342097Y-81234033D01*
X106239438Y-81222256D01*
X106223599Y-81219707D01*
X105968464Y-81163519D01*
X105742658Y-81086964D01*
X105545169Y-80989574D01*
X105374986Y-80870886D01*
X105282978Y-80786637D01*
X105158057Y-80635230D01*
X105065460Y-80469183D01*
X105005691Y-80291299D01*
X104979254Y-80104378D01*
X104986652Y-79911222D01*
X105028389Y-79714631D01*
X105069229Y-79598403D01*
X105151010Y-79437562D01*
X105268322Y-79271787D01*
X105347655Y-79178927D01*
X105393571Y-79126786D01*
X105427258Y-79085820D01*
X105443490Y-79062502D01*
X105443985Y-79059607D01*
X105427399Y-79049200D01*
X105383568Y-79022233D01*
X105316252Y-78981004D01*
X105229206Y-78927811D01*
X105126190Y-78864950D01*
X105010959Y-78794719D01*
X104946769Y-78755628D01*
X104456323Y-78457036D01*
X104272085Y-78829839D01*
X104205907Y-78964631D01*
X104153722Y-79073825D01*
X104112940Y-79164093D01*
X104080967Y-79242112D01*
X104055213Y-79314556D01*
X104033086Y-79388099D01*
X104011993Y-79469416D01*
X103993470Y-79547357D01*
X103979137Y-79616634D01*
X103968306Y-79689083D01*
X103960374Y-79771958D01*
X103954742Y-79872512D01*
X103950808Y-79997997D01*
X103949109Y-80082572D01*
X103947950Y-80203246D01*
X103948535Y-80318958D01*
X103950696Y-80422049D01*
X103954268Y-80504862D01*
X103959083Y-80559740D01*
X103959563Y-80562992D01*
X104021214Y-80847957D01*
X104114715Y-81115558D01*
X104240007Y-81365703D01*
X104397026Y-81598296D01*
X104585711Y-81813243D01*
X104806000Y-82010450D01*
X105001786Y-82153273D01*
X105258051Y-82305320D01*
X105528683Y-82428227D01*
X105815851Y-82522590D01*
X106121724Y-82589001D01*
X106448472Y-82628056D01*
X106780261Y-82640360D01*
X107101221Y-82630241D01*
X107397354Y-82598439D01*
X107673655Y-82543946D01*
X107935119Y-82465750D01*
X108186742Y-82362841D01*
X108212810Y-82350553D01*
X108456493Y-82215180D01*
X108688382Y-82048911D01*
X108903677Y-81856459D01*
X109097578Y-81642534D01*
X109265285Y-81411845D01*
X109388304Y-81196891D01*
X109484655Y-80979742D01*
X109554449Y-80762132D01*
X109599587Y-80535638D01*
X109621969Y-80291834D01*
X109625269Y-80146072D01*
X109618769Y-79936622D01*
X109618769Y-79936622D01*
G37*
X109618769Y-79936622D02*
X109597351Y-79740981D01*
X109559015Y-79551438D01*
X109501762Y-79360283D01*
X109423591Y-79159804D01*
X109322504Y-78942292D01*
X109302924Y-78903120D01*
X109258638Y-78813228D01*
X109218761Y-78728447D01*
X109187102Y-78657145D01*
X109167468Y-78607690D01*
X109164996Y-78600092D01*
X109143183Y-78527286D01*
X108669056Y-78853197D01*
X108553177Y-78932877D01*
X108447306Y-79005728D01*
X108355038Y-79069270D01*
X108279967Y-79121028D01*
X108225687Y-79158523D01*
X108195793Y-79179277D01*
X108191059Y-79182649D01*
X108200958Y-79196345D01*
X108230715Y-79230057D01*
X108274927Y-79277756D01*
X108299916Y-79304080D01*
X108418544Y-79453228D01*
X108508687Y-79620732D01*
X108558064Y-79765072D01*
X108573571Y-79851717D01*
X108583021Y-79960204D01*
X108586239Y-80077773D01*
X108583049Y-80191666D01*
X108573276Y-80289121D01*
X108565791Y-80328010D01*
X108505488Y-80503288D01*
X108413410Y-80661235D01*
X108289727Y-80801732D01*
X108134607Y-80924665D01*
X107948219Y-81029915D01*
X107730730Y-81117365D01*
X107482308Y-81186900D01*
X107269643Y-81228225D01*
X107175759Y-81239006D01*
X107054476Y-81246352D01*
X106914507Y-81250333D01*
X106764569Y-81251021D01*
X106613378Y-81248486D01*
X106469649Y-81242800D01*
X106342097Y-81234033D01*
X106239438Y-81222256D01*
X106223599Y-81219707D01*
X105968464Y-81163519D01*
X105742658Y-81086964D01*
X105545169Y-80989574D01*
X105374986Y-80870886D01*
X105282978Y-80786637D01*
X105158057Y-80635230D01*
X105065460Y-80469183D01*
X105005691Y-80291299D01*
X104979254Y-80104378D01*
X104986652Y-79911222D01*
X105028389Y-79714631D01*
X105069229Y-79598403D01*
X105151010Y-79437562D01*
X105268322Y-79271787D01*
X105347655Y-79178927D01*
X105393571Y-79126786D01*
X105427258Y-79085820D01*
X105443490Y-79062502D01*
X105443985Y-79059607D01*
X105427399Y-79049200D01*
X105383568Y-79022233D01*
X105316252Y-78981004D01*
X105229206Y-78927811D01*
X105126190Y-78864950D01*
X105010959Y-78794719D01*
X104946769Y-78755628D01*
X104456323Y-78457036D01*
X104272085Y-78829839D01*
X104205907Y-78964631D01*
X104153722Y-79073825D01*
X104112940Y-79164093D01*
X104080967Y-79242112D01*
X104055213Y-79314556D01*
X104033086Y-79388099D01*
X104011993Y-79469416D01*
X103993470Y-79547357D01*
X103979137Y-79616634D01*
X103968306Y-79689083D01*
X103960374Y-79771958D01*
X103954742Y-79872512D01*
X103950808Y-79997997D01*
X103949109Y-80082572D01*
X103947950Y-80203246D01*
X103948535Y-80318958D01*
X103950696Y-80422049D01*
X103954268Y-80504862D01*
X103959083Y-80559740D01*
X103959563Y-80562992D01*
X104021214Y-80847957D01*
X104114715Y-81115558D01*
X104240007Y-81365703D01*
X104397026Y-81598296D01*
X104585711Y-81813243D01*
X104806000Y-82010450D01*
X105001786Y-82153273D01*
X105258051Y-82305320D01*
X105528683Y-82428227D01*
X105815851Y-82522590D01*
X106121724Y-82589001D01*
X106448472Y-82628056D01*
X106780261Y-82640360D01*
X107101221Y-82630241D01*
X107397354Y-82598439D01*
X107673655Y-82543946D01*
X107935119Y-82465750D01*
X108186742Y-82362841D01*
X108212810Y-82350553D01*
X108456493Y-82215180D01*
X108688382Y-82048911D01*
X108903677Y-81856459D01*
X109097578Y-81642534D01*
X109265285Y-81411845D01*
X109388304Y-81196891D01*
X109484655Y-80979742D01*
X109554449Y-80762132D01*
X109599587Y-80535638D01*
X109621969Y-80291834D01*
X109625269Y-80146072D01*
X109618769Y-79936622D01*
G36*
X110526340Y-88388089D02*
G01*
X110526293Y-88038540D01*
X110526286Y-87875830D01*
X110526285Y-85271429D01*
X110372762Y-85271429D01*
X110185937Y-85255043D01*
X110013633Y-85205588D01*
X109854825Y-85122620D01*
X109708490Y-85005695D01*
X109668968Y-84966136D01*
X109556862Y-84823830D01*
X109475101Y-84666922D01*
X109423647Y-84500072D01*
X109402463Y-84327939D01*
X109411513Y-84155185D01*
X109450758Y-83986470D01*
X109520162Y-83826454D01*
X109619689Y-83679798D01*
X109679735Y-83613932D01*
X109826957Y-83491192D01*
X109988853Y-83401188D01*
X110163573Y-83344706D01*
X110349265Y-83322529D01*
X110367533Y-83322234D01*
X110526280Y-83321072D01*
X110526283Y-83251300D01*
X110517882Y-83189405D01*
X110497444Y-83132865D01*
X110495333Y-83129128D01*
X110488707Y-83116358D01*
X110483546Y-83104632D01*
X110478349Y-83093906D01*
X110471610Y-83084139D01*
X110461829Y-83075288D01*
X110447500Y-83067311D01*
X110427122Y-83060165D01*
X110399192Y-83053808D01*
X110362205Y-83048198D01*
X110314660Y-83043293D01*
X110255053Y-83039049D01*
X110181881Y-83035424D01*
X110093641Y-83032377D01*
X109988830Y-83029864D01*
X109865945Y-83027844D01*
X109723483Y-83026274D01*
X109559940Y-83025112D01*
X109373814Y-83024314D01*
X109163602Y-83023840D01*
X108927800Y-83023646D01*
X108664906Y-83023690D01*
X108373416Y-83023930D01*
X108051828Y-83024323D01*
X107698638Y-83024827D01*
X107312343Y-83025400D01*
X106891440Y-83025999D01*
X106840160Y-83026068D01*
X106416574Y-83026605D01*
X106027770Y-83027061D01*
X105672247Y-83027484D01*
X105348502Y-83027921D01*
X105055034Y-83028422D01*
X104790339Y-83029035D01*
X104552915Y-83029808D01*
X104341260Y-83030789D01*
X104153871Y-83032026D01*
X103989246Y-83033568D01*
X103845883Y-83035463D01*
X103722280Y-83037759D01*
X103616933Y-83040504D01*
X103528341Y-83043747D01*
X103455000Y-83047536D01*
X103395410Y-83051919D01*
X103348067Y-83056945D01*
X103311469Y-83062661D01*
X103284114Y-83069116D01*
X103264498Y-83076359D01*
X103251121Y-83084437D01*
X103242479Y-83093398D01*
X103237070Y-83103292D01*
X103233392Y-83114165D01*
X103229942Y-83126067D01*
X103225218Y-83139046D01*
X103223780Y-83142217D01*
X103220549Y-83152181D01*
X103217580Y-83168859D01*
X103214863Y-83193707D01*
X103212387Y-83228180D01*
X103210142Y-83273736D01*
X103208117Y-83331830D01*
X103206302Y-83403919D01*
X103204685Y-83491458D01*
X103203257Y-83595905D01*
X103202007Y-83718715D01*
X103200924Y-83861345D01*
X103199998Y-84025251D01*
X103199218Y-84211890D01*
X103198574Y-84422716D01*
X103198054Y-84659188D01*
X103197649Y-84922761D01*
X103197348Y-85214890D01*
X103197140Y-85537034D01*
X103197015Y-85890647D01*
X103196962Y-86277186D01*
X103196971Y-86698108D01*
X103196984Y-86834456D01*
X103197053Y-87264716D01*
X103197166Y-87660164D01*
X103197335Y-88022273D01*
X103197570Y-88352517D01*
X103197884Y-88652371D01*
X103198287Y-88923308D01*
X103198793Y-89166800D01*
X103199411Y-89384323D01*
X103200154Y-89577350D01*
X103201032Y-89747354D01*
X103202059Y-89895810D01*
X103203244Y-90024190D01*
X103204600Y-90133969D01*
X103206138Y-90226620D01*
X103207870Y-90303617D01*
X103209806Y-90366434D01*
X103211960Y-90416544D01*
X103214341Y-90455421D01*
X103216963Y-90484538D01*
X103219835Y-90505371D01*
X103222970Y-90519391D01*
X103225841Y-90527034D01*
X103231570Y-90540618D01*
X103235794Y-90553090D01*
X103240015Y-90564498D01*
X103245732Y-90574889D01*
X103254445Y-90584309D01*
X103267655Y-90592808D01*
X103286863Y-90600430D01*
X103313567Y-90607225D01*
X103349270Y-90613238D01*
X103395470Y-90618517D01*
X103453668Y-90623110D01*
X103525365Y-90627064D01*
X103612060Y-90630425D01*
X103715254Y-90633241D01*
X103836447Y-90635560D01*
X103977140Y-90637428D01*
X104031143Y-90637916D01*
X104031143Y-90153704D01*
X104031143Y-88442256D01*
X104081036Y-88475187D01*
X104132307Y-88507947D01*
X104181131Y-88535689D01*
X104230924Y-88558807D01*
X104285102Y-88577697D01*
X104347084Y-88592751D01*
X104420285Y-88604367D01*
X104508122Y-88612936D01*
X104614012Y-88618856D01*
X104741372Y-88622519D01*
X104893619Y-88624321D01*
X105074168Y-88624656D01*
X105286438Y-88623919D01*
X105365245Y-88623501D01*
X106210089Y-88618786D01*
X105481443Y-88083572D01*
X105274735Y-87931946D01*
X105094740Y-87800581D01*
X104939075Y-87688057D01*
X104805353Y-87592957D01*
X104691191Y-87513862D01*
X104594203Y-87449353D01*
X104512006Y-87398012D01*
X104442214Y-87358420D01*
X104382442Y-87329160D01*
X104330307Y-87308812D01*
X104283424Y-87295958D01*
X104239407Y-87289181D01*
X104195873Y-87287060D01*
X104150436Y-87288179D01*
X104144725Y-87288464D01*
X104031067Y-87294357D01*
X104031143Y-85418771D01*
X104171811Y-85558278D01*
X104210285Y-85596135D01*
X104247721Y-85632047D01*
X104286186Y-85667593D01*
X104327742Y-85704347D01*
X104374455Y-85743886D01*
X104428390Y-85787786D01*
X104491610Y-85837623D01*
X104566182Y-85894972D01*
X104654168Y-85961411D01*
X104757635Y-86038515D01*
X104878646Y-86127861D01*
X105019266Y-86231024D01*
X105181560Y-86349580D01*
X105367593Y-86485105D01*
X105579429Y-86639177D01*
X105753196Y-86765462D01*
X105971499Y-86923954D01*
X106162371Y-87062216D01*
X106327626Y-87181499D01*
X106469074Y-87283057D01*
X106588529Y-87368141D01*
X106687802Y-87438005D01*
X106768705Y-87493900D01*
X106833051Y-87537080D01*
X106882653Y-87568797D01*
X106919321Y-87590302D01*
X106944868Y-87602850D01*
X106961107Y-87607692D01*
X106969645Y-87606237D01*
X106992365Y-87588599D01*
X107040457Y-87550466D01*
X107111062Y-87494138D01*
X107201322Y-87421916D01*
X107308379Y-87336101D01*
X107429373Y-87238994D01*
X107561446Y-87132896D01*
X107701740Y-87020109D01*
X107847397Y-86902932D01*
X107995556Y-86783667D01*
X108077000Y-86718067D01*
X108077000Y-85089314D01*
X107954535Y-85021621D01*
X107832071Y-84953929D01*
X104276071Y-84953929D01*
X104153607Y-85021621D01*
X104031143Y-85089314D01*
X104031143Y-84288559D01*
X104031198Y-84097398D01*
X104031449Y-83939501D01*
X104032021Y-83811848D01*
X104033041Y-83711419D01*
X104034635Y-83635193D01*
X104036930Y-83580148D01*
X104040050Y-83543264D01*
X104044123Y-83521521D01*
X104049275Y-83511898D01*
X104055633Y-83511373D01*
X104063321Y-83516926D01*
X104063385Y-83516984D01*
X104096476Y-83539860D01*
X104150281Y-83570151D01*
X104203992Y-83596903D01*
X104312357Y-83647643D01*
X106194678Y-83652818D01*
X108077000Y-83657993D01*
X108077000Y-85089314D01*
X108077000Y-86718067D01*
X108143361Y-86664615D01*
X108287953Y-86548077D01*
X108426472Y-86436354D01*
X108556061Y-86331746D01*
X108673860Y-86236556D01*
X108777012Y-86153083D01*
X108862657Y-86083629D01*
X108927938Y-86030494D01*
X108966000Y-85999285D01*
X109108330Y-85878097D01*
X109236770Y-85761507D01*
X109347114Y-85653603D01*
X109435159Y-85558470D01*
X109489138Y-85490957D01*
X109546571Y-85411127D01*
X109546571Y-87247108D01*
X109438835Y-87246592D01*
X109359628Y-87251724D01*
X109286195Y-87271015D01*
X109216585Y-87300877D01*
X109177259Y-87320288D01*
X109138293Y-87341159D01*
X109097099Y-87365396D01*
X109051092Y-87394906D01*
X108997683Y-87431594D01*
X108934286Y-87477368D01*
X108858315Y-87534135D01*
X108767183Y-87603800D01*
X108658302Y-87688270D01*
X108529086Y-87789453D01*
X108376948Y-87909253D01*
X108199302Y-88049579D01*
X108179258Y-88065429D01*
X107479492Y-88618786D01*
X108254496Y-88624143D01*
X108486632Y-88625221D01*
X108683154Y-88624992D01*
X108844708Y-88623443D01*
X108971944Y-88620563D01*
X109065508Y-88616341D01*
X109126048Y-88610766D01*
X109137532Y-88608893D01*
X109258501Y-88579495D01*
X109367554Y-88540978D01*
X109455237Y-88497026D01*
X109492426Y-88470621D01*
X109546571Y-88425060D01*
X109546571Y-89289530D01*
X109546395Y-89495745D01*
X109545821Y-89668188D01*
X109544783Y-89809373D01*
X109543213Y-89921812D01*
X109541046Y-90008017D01*
X109538212Y-90070502D01*
X109534647Y-90111779D01*
X109530282Y-90134360D01*
X109525051Y-90140759D01*
X109523893Y-90140317D01*
X109496231Y-90121991D01*
X109452385Y-90091396D01*
X109430209Y-90075567D01*
X109408080Y-90059202D01*
X109388291Y-90044492D01*
X109368894Y-90031344D01*
X109347942Y-90019667D01*
X109323488Y-90009368D01*
X109293584Y-90000354D01*
X109256283Y-89992532D01*
X109209637Y-89985809D01*
X109151699Y-89980094D01*
X109080521Y-89975293D01*
X108994156Y-89971315D01*
X108890656Y-89968065D01*
X108768075Y-89965452D01*
X108624463Y-89963383D01*
X108457875Y-89961766D01*
X108266363Y-89960507D01*
X108047978Y-89959515D01*
X107800774Y-89958696D01*
X107522804Y-89957958D01*
X107212119Y-89957209D01*
X106926700Y-89956508D01*
X106608508Y-89955847D01*
X106304923Y-89955503D01*
X106017885Y-89955468D01*
X105749331Y-89955732D01*
X105501202Y-89956285D01*
X105275437Y-89957120D01*
X105073974Y-89958227D01*
X104898754Y-89959596D01*
X104751714Y-89961219D01*
X104634794Y-89963087D01*
X104549933Y-89965189D01*
X104499071Y-89967518D01*
X104493696Y-89967959D01*
X104370387Y-89984008D01*
X104271356Y-90009064D01*
X104184930Y-90047221D01*
X104099435Y-90102572D01*
X104090107Y-90109496D01*
X104031143Y-90153704D01*
X104031143Y-90637916D01*
X104138832Y-90638892D01*
X104323024Y-90640001D01*
X104531216Y-90640801D01*
X104764909Y-90641339D01*
X105025602Y-90641662D01*
X105314796Y-90641817D01*
X105633991Y-90641854D01*
X105984687Y-90641817D01*
X106368386Y-90641755D01*
X106786586Y-90641715D01*
X106869607Y-90641714D01*
X107292211Y-90641691D01*
X107680019Y-90641612D01*
X108034520Y-90641467D01*
X108357203Y-90641244D01*
X108649558Y-90640931D01*
X108913073Y-90640517D01*
X109149238Y-90639991D01*
X109359542Y-90639340D01*
X109545474Y-90638553D01*
X109708525Y-90637619D01*
X109850182Y-90636526D01*
X109971936Y-90635263D01*
X110075275Y-90633817D01*
X110161689Y-90632179D01*
X110232667Y-90630334D01*
X110289699Y-90628274D01*
X110334273Y-90625985D01*
X110367879Y-90623456D01*
X110392007Y-90620676D01*
X110408144Y-90617633D01*
X110417782Y-90614316D01*
X110418022Y-90614193D01*
X110432745Y-90607360D01*
X110446074Y-90601670D01*
X110458078Y-90595374D01*
X110468827Y-90586728D01*
X110478389Y-90573986D01*
X110486833Y-90555400D01*
X110494229Y-90529226D01*
X110500646Y-90493716D01*
X110506152Y-90447125D01*
X110510817Y-90387707D01*
X110514709Y-90313715D01*
X110517898Y-90223403D01*
X110520453Y-90115025D01*
X110522442Y-89986835D01*
X110523935Y-89837087D01*
X110525002Y-89664034D01*
X110525709Y-89465931D01*
X110526128Y-89241031D01*
X110526327Y-88987588D01*
X110526374Y-88703856D01*
X110526340Y-88388089D01*
X110526340Y-88388089D01*
G37*
X110526340Y-88388089D02*
X110526293Y-88038540D01*
X110526286Y-87875830D01*
X110526285Y-85271429D01*
X110372762Y-85271429D01*
X110185937Y-85255043D01*
X110013633Y-85205588D01*
X109854825Y-85122620D01*
X109708490Y-85005695D01*
X109668968Y-84966136D01*
X109556862Y-84823830D01*
X109475101Y-84666922D01*
X109423647Y-84500072D01*
X109402463Y-84327939D01*
X109411513Y-84155185D01*
X109450758Y-83986470D01*
X109520162Y-83826454D01*
X109619689Y-83679798D01*
X109679735Y-83613932D01*
X109826957Y-83491192D01*
X109988853Y-83401188D01*
X110163573Y-83344706D01*
X110349265Y-83322529D01*
X110367533Y-83322234D01*
X110526280Y-83321072D01*
X110526283Y-83251300D01*
X110517882Y-83189405D01*
X110497444Y-83132865D01*
X110495333Y-83129128D01*
X110488707Y-83116358D01*
X110483546Y-83104632D01*
X110478349Y-83093906D01*
X110471610Y-83084139D01*
X110461829Y-83075288D01*
X110447500Y-83067311D01*
X110427122Y-83060165D01*
X110399192Y-83053808D01*
X110362205Y-83048198D01*
X110314660Y-83043293D01*
X110255053Y-83039049D01*
X110181881Y-83035424D01*
X110093641Y-83032377D01*
X109988830Y-83029864D01*
X109865945Y-83027844D01*
X109723483Y-83026274D01*
X109559940Y-83025112D01*
X109373814Y-83024314D01*
X109163602Y-83023840D01*
X108927800Y-83023646D01*
X108664906Y-83023690D01*
X108373416Y-83023930D01*
X108051828Y-83024323D01*
X107698638Y-83024827D01*
X107312343Y-83025400D01*
X106891440Y-83025999D01*
X106840160Y-83026068D01*
X106416574Y-83026605D01*
X106027770Y-83027061D01*
X105672247Y-83027484D01*
X105348502Y-83027921D01*
X105055034Y-83028422D01*
X104790339Y-83029035D01*
X104552915Y-83029808D01*
X104341260Y-83030789D01*
X104153871Y-83032026D01*
X103989246Y-83033568D01*
X103845883Y-83035463D01*
X103722280Y-83037759D01*
X103616933Y-83040504D01*
X103528341Y-83043747D01*
X103455000Y-83047536D01*
X103395410Y-83051919D01*
X103348067Y-83056945D01*
X103311469Y-83062661D01*
X103284114Y-83069116D01*
X103264498Y-83076359D01*
X103251121Y-83084437D01*
X103242479Y-83093398D01*
X103237070Y-83103292D01*
X103233392Y-83114165D01*
X103229942Y-83126067D01*
X103225218Y-83139046D01*
X103223780Y-83142217D01*
X103220549Y-83152181D01*
X103217580Y-83168859D01*
X103214863Y-83193707D01*
X103212387Y-83228180D01*
X103210142Y-83273736D01*
X103208117Y-83331830D01*
X103206302Y-83403919D01*
X103204685Y-83491458D01*
X103203257Y-83595905D01*
X103202007Y-83718715D01*
X103200924Y-83861345D01*
X103199998Y-84025251D01*
X103199218Y-84211890D01*
X103198574Y-84422716D01*
X103198054Y-84659188D01*
X103197649Y-84922761D01*
X103197348Y-85214890D01*
X103197140Y-85537034D01*
X103197015Y-85890647D01*
X103196962Y-86277186D01*
X103196971Y-86698108D01*
X103196984Y-86834456D01*
X103197053Y-87264716D01*
X103197166Y-87660164D01*
X103197335Y-88022273D01*
X103197570Y-88352517D01*
X103197884Y-88652371D01*
X103198287Y-88923308D01*
X103198793Y-89166800D01*
X103199411Y-89384323D01*
X103200154Y-89577350D01*
X103201032Y-89747354D01*
X103202059Y-89895810D01*
X103203244Y-90024190D01*
X103204600Y-90133969D01*
X103206138Y-90226620D01*
X103207870Y-90303617D01*
X103209806Y-90366434D01*
X103211960Y-90416544D01*
X103214341Y-90455421D01*
X103216963Y-90484538D01*
X103219835Y-90505371D01*
X103222970Y-90519391D01*
X103225841Y-90527034D01*
X103231570Y-90540618D01*
X103235794Y-90553090D01*
X103240015Y-90564498D01*
X103245732Y-90574889D01*
X103254445Y-90584309D01*
X103267655Y-90592808D01*
X103286863Y-90600430D01*
X103313567Y-90607225D01*
X103349270Y-90613238D01*
X103395470Y-90618517D01*
X103453668Y-90623110D01*
X103525365Y-90627064D01*
X103612060Y-90630425D01*
X103715254Y-90633241D01*
X103836447Y-90635560D01*
X103977140Y-90637428D01*
X104031143Y-90637916D01*
X104031143Y-90153704D01*
X104031143Y-88442256D01*
X104081036Y-88475187D01*
X104132307Y-88507947D01*
X104181131Y-88535689D01*
X104230924Y-88558807D01*
X104285102Y-88577697D01*
X104347084Y-88592751D01*
X104420285Y-88604367D01*
X104508122Y-88612936D01*
X104614012Y-88618856D01*
X104741372Y-88622519D01*
X104893619Y-88624321D01*
X105074168Y-88624656D01*
X105286438Y-88623919D01*
X105365245Y-88623501D01*
X106210089Y-88618786D01*
X105481443Y-88083572D01*
X105274735Y-87931946D01*
X105094740Y-87800581D01*
X104939075Y-87688057D01*
X104805353Y-87592957D01*
X104691191Y-87513862D01*
X104594203Y-87449353D01*
X104512006Y-87398012D01*
X104442214Y-87358420D01*
X104382442Y-87329160D01*
X104330307Y-87308812D01*
X104283424Y-87295958D01*
X104239407Y-87289181D01*
X104195873Y-87287060D01*
X104150436Y-87288179D01*
X104144725Y-87288464D01*
X104031067Y-87294357D01*
X104031143Y-85418771D01*
X104171811Y-85558278D01*
X104210285Y-85596135D01*
X104247721Y-85632047D01*
X104286186Y-85667593D01*
X104327742Y-85704347D01*
X104374455Y-85743886D01*
X104428390Y-85787786D01*
X104491610Y-85837623D01*
X104566182Y-85894972D01*
X104654168Y-85961411D01*
X104757635Y-86038515D01*
X104878646Y-86127861D01*
X105019266Y-86231024D01*
X105181560Y-86349580D01*
X105367593Y-86485105D01*
X105579429Y-86639177D01*
X105753196Y-86765462D01*
X105971499Y-86923954D01*
X106162371Y-87062216D01*
X106327626Y-87181499D01*
X106469074Y-87283057D01*
X106588529Y-87368141D01*
X106687802Y-87438005D01*
X106768705Y-87493900D01*
X106833051Y-87537080D01*
X106882653Y-87568797D01*
X106919321Y-87590302D01*
X106944868Y-87602850D01*
X106961107Y-87607692D01*
X106969645Y-87606237D01*
X106992365Y-87588599D01*
X107040457Y-87550466D01*
X107111062Y-87494138D01*
X107201322Y-87421916D01*
X107308379Y-87336101D01*
X107429373Y-87238994D01*
X107561446Y-87132896D01*
X107701740Y-87020109D01*
X107847397Y-86902932D01*
X107995556Y-86783667D01*
X108077000Y-86718067D01*
X108077000Y-85089314D01*
X107954535Y-85021621D01*
X107832071Y-84953929D01*
X104276071Y-84953929D01*
X104153607Y-85021621D01*
X104031143Y-85089314D01*
X104031143Y-84288559D01*
X104031198Y-84097398D01*
X104031449Y-83939501D01*
X104032021Y-83811848D01*
X104033041Y-83711419D01*
X104034635Y-83635193D01*
X104036930Y-83580148D01*
X104040050Y-83543264D01*
X104044123Y-83521521D01*
X104049275Y-83511898D01*
X104055633Y-83511373D01*
X104063321Y-83516926D01*
X104063385Y-83516984D01*
X104096476Y-83539860D01*
X104150281Y-83570151D01*
X104203992Y-83596903D01*
X104312357Y-83647643D01*
X106194678Y-83652818D01*
X108077000Y-83657993D01*
X108077000Y-85089314D01*
X108077000Y-86718067D01*
X108143361Y-86664615D01*
X108287953Y-86548077D01*
X108426472Y-86436354D01*
X108556061Y-86331746D01*
X108673860Y-86236556D01*
X108777012Y-86153083D01*
X108862657Y-86083629D01*
X108927938Y-86030494D01*
X108966000Y-85999285D01*
X109108330Y-85878097D01*
X109236770Y-85761507D01*
X109347114Y-85653603D01*
X109435159Y-85558470D01*
X109489138Y-85490957D01*
X109546571Y-85411127D01*
X109546571Y-87247108D01*
X109438835Y-87246592D01*
X109359628Y-87251724D01*
X109286195Y-87271015D01*
X109216585Y-87300877D01*
X109177259Y-87320288D01*
X109138293Y-87341159D01*
X109097099Y-87365396D01*
X109051092Y-87394906D01*
X108997683Y-87431594D01*
X108934286Y-87477368D01*
X108858315Y-87534135D01*
X108767183Y-87603800D01*
X108658302Y-87688270D01*
X108529086Y-87789453D01*
X108376948Y-87909253D01*
X108199302Y-88049579D01*
X108179258Y-88065429D01*
X107479492Y-88618786D01*
X108254496Y-88624143D01*
X108486632Y-88625221D01*
X108683154Y-88624992D01*
X108844708Y-88623443D01*
X108971944Y-88620563D01*
X109065508Y-88616341D01*
X109126048Y-88610766D01*
X109137532Y-88608893D01*
X109258501Y-88579495D01*
X109367554Y-88540978D01*
X109455237Y-88497026D01*
X109492426Y-88470621D01*
X109546571Y-88425060D01*
X109546571Y-89289530D01*
X109546395Y-89495745D01*
X109545821Y-89668188D01*
X109544783Y-89809373D01*
X109543213Y-89921812D01*
X109541046Y-90008017D01*
X109538212Y-90070502D01*
X109534647Y-90111779D01*
X109530282Y-90134360D01*
X109525051Y-90140759D01*
X109523893Y-90140317D01*
X109496231Y-90121991D01*
X109452385Y-90091396D01*
X109430209Y-90075567D01*
X109408080Y-90059202D01*
X109388291Y-90044492D01*
X109368894Y-90031344D01*
X109347942Y-90019667D01*
X109323488Y-90009368D01*
X109293584Y-90000354D01*
X109256283Y-89992532D01*
X109209637Y-89985809D01*
X109151699Y-89980094D01*
X109080521Y-89975293D01*
X108994156Y-89971315D01*
X108890656Y-89968065D01*
X108768075Y-89965452D01*
X108624463Y-89963383D01*
X108457875Y-89961766D01*
X108266363Y-89960507D01*
X108047978Y-89959515D01*
X107800774Y-89958696D01*
X107522804Y-89957958D01*
X107212119Y-89957209D01*
X106926700Y-89956508D01*
X106608508Y-89955847D01*
X106304923Y-89955503D01*
X106017885Y-89955468D01*
X105749331Y-89955732D01*
X105501202Y-89956285D01*
X105275437Y-89957120D01*
X105073974Y-89958227D01*
X104898754Y-89959596D01*
X104751714Y-89961219D01*
X104634794Y-89963087D01*
X104549933Y-89965189D01*
X104499071Y-89967518D01*
X104493696Y-89967959D01*
X104370387Y-89984008D01*
X104271356Y-90009064D01*
X104184930Y-90047221D01*
X104099435Y-90102572D01*
X104090107Y-90109496D01*
X104031143Y-90153704D01*
X104031143Y-90637916D01*
X104138832Y-90638892D01*
X104323024Y-90640001D01*
X104531216Y-90640801D01*
X104764909Y-90641339D01*
X105025602Y-90641662D01*
X105314796Y-90641817D01*
X105633991Y-90641854D01*
X105984687Y-90641817D01*
X106368386Y-90641755D01*
X106786586Y-90641715D01*
X106869607Y-90641714D01*
X107292211Y-90641691D01*
X107680019Y-90641612D01*
X108034520Y-90641467D01*
X108357203Y-90641244D01*
X108649558Y-90640931D01*
X108913073Y-90640517D01*
X109149238Y-90639991D01*
X109359542Y-90639340D01*
X109545474Y-90638553D01*
X109708525Y-90637619D01*
X109850182Y-90636526D01*
X109971936Y-90635263D01*
X110075275Y-90633817D01*
X110161689Y-90632179D01*
X110232667Y-90630334D01*
X110289699Y-90628274D01*
X110334273Y-90625985D01*
X110367879Y-90623456D01*
X110392007Y-90620676D01*
X110408144Y-90617633D01*
X110417782Y-90614316D01*
X110418022Y-90614193D01*
X110432745Y-90607360D01*
X110446074Y-90601670D01*
X110458078Y-90595374D01*
X110468827Y-90586728D01*
X110478389Y-90573986D01*
X110486833Y-90555400D01*
X110494229Y-90529226D01*
X110500646Y-90493716D01*
X110506152Y-90447125D01*
X110510817Y-90387707D01*
X110514709Y-90313715D01*
X110517898Y-90223403D01*
X110520453Y-90115025D01*
X110522442Y-89986835D01*
X110523935Y-89837087D01*
X110525002Y-89664034D01*
X110525709Y-89465931D01*
X110526128Y-89241031D01*
X110526327Y-88987588D01*
X110526374Y-88703856D01*
X110526340Y-88388089D01*
D14*
X144670000Y-48600000D02*
X144210000Y-48600000D01*
X144670000Y-45700000D02*
X144210000Y-45700000D01*
X144660000Y-51710000D02*
X144210000Y-51710000D01*
X144660000Y-54690000D02*
X144210000Y-54690000D01*
X149206301Y-58160000D02*
G75*
G03X149206301Y-58160000I-106301J0D01*
G01*
X148700000Y-44200000D02*
X149360000Y-44200000D01*
X149400000Y-47220000D02*
X150010000Y-47220000D01*
X149430000Y-50220000D02*
X150010000Y-50220000D01*
X149450000Y-53230000D02*
X150010000Y-53230000D01*
X149410000Y-56220000D02*
X149950000Y-56220000D01*
X145530000Y-43330000D02*
X145530000Y-44540000D01*
X146060000Y-43330000D02*
X145530000Y-43330000D01*
X148270000Y-43330000D02*
X146060000Y-43330000D01*
X148710000Y-43330000D02*
X148270000Y-43330000D01*
X148710000Y-43380000D02*
X148710000Y-43330000D01*
X148710000Y-44200000D02*
X148710000Y-43380000D01*
X145500000Y-57660000D02*
X145500000Y-57640000D01*
X145500000Y-57670000D02*
X145500000Y-57660000D01*
X145500000Y-58860000D02*
X145500000Y-57670000D01*
X145710000Y-58860000D02*
X145500000Y-58860000D01*
X145790000Y-58860000D02*
X145710000Y-58860000D01*
X146900000Y-58860000D02*
X145790000Y-58860000D01*
X147330000Y-58860000D02*
X146900000Y-58860000D01*
X147570000Y-58860000D02*
X147330000Y-58860000D01*
X148330000Y-58860000D02*
X147490000Y-58860000D01*
X148710000Y-58860000D02*
X148330000Y-58860000D01*
X148710000Y-58830000D02*
X148710000Y-58860000D01*
X148710000Y-58730000D02*
X148710000Y-58830000D01*
X148710000Y-57960000D02*
X148710000Y-58730000D01*
X137880000Y-92526267D02*
X137880000Y-92183733D01*
X136860000Y-92526267D02*
X136860000Y-92183733D01*
X147230000Y-76401267D02*
X147230000Y-76058733D01*
X148250000Y-76401267D02*
X148250000Y-76058733D01*
X136060000Y-92173733D02*
X136060000Y-92516267D01*
X135040000Y-92173733D02*
X135040000Y-92516267D01*
X137950000Y-76366267D02*
X137950000Y-76023733D01*
X136930000Y-76366267D02*
X136930000Y-76023733D01*
X142597500Y-84785000D02*
X146657500Y-84785000D01*
X146657500Y-84785000D02*
X146657500Y-87055000D01*
X146657500Y-87055000D02*
X142597500Y-87055000D01*
X149320000Y-92606267D02*
X149320000Y-92263733D01*
X148300000Y-92606267D02*
X148300000Y-92263733D01*
X146600000Y-92616267D02*
X146600000Y-92273733D01*
X147620000Y-92616267D02*
X147620000Y-92273733D01*
X144613733Y-88830000D02*
X144956267Y-88830000D01*
X144613733Y-87810000D02*
X144956267Y-87810000D01*
X145470000Y-90870000D02*
X145470000Y-92670000D01*
X142250000Y-92670000D02*
X142250000Y-89720000D01*
X145880000Y-80870000D02*
X144620000Y-80870000D01*
X139060000Y-80870000D02*
X140320000Y-80870000D01*
X145880000Y-77110000D02*
X145880000Y-80870000D01*
X139060000Y-74860000D02*
X139060000Y-80870000D01*
X145190000Y-35750000D02*
X145190000Y-30550000D01*
X104430000Y-35750000D02*
X104430000Y-30550000D01*
X144620000Y-37190000D02*
X144620000Y-35750000D01*
X145190000Y-35750000D02*
X144620000Y-35750000D01*
X145190000Y-30550000D02*
X144620000Y-30550000D01*
X105000000Y-35750000D02*
X104430000Y-35750000D01*
X105000000Y-30550000D02*
X104430000Y-30550000D01*
X143100000Y-35750000D02*
X142080000Y-35750000D01*
X143100000Y-30550000D02*
X142080000Y-30550000D01*
X140560000Y-35750000D02*
X139540000Y-35750000D01*
X140560000Y-30550000D02*
X139540000Y-30550000D01*
X138020000Y-35750000D02*
X137000000Y-35750000D01*
X138020000Y-30550000D02*
X137000000Y-30550000D01*
X135480000Y-35750000D02*
X134460000Y-35750000D01*
X135480000Y-30550000D02*
X134460000Y-30550000D01*
X132940000Y-35750000D02*
X131920000Y-35750000D01*
X132940000Y-30550000D02*
X131920000Y-30550000D01*
X130400000Y-35750000D02*
X129380000Y-35750000D01*
X130400000Y-30550000D02*
X129380000Y-30550000D01*
X127860000Y-35750000D02*
X126840000Y-35750000D01*
X127860000Y-30550000D02*
X126840000Y-30550000D01*
X125320000Y-35750000D02*
X124300000Y-35750000D01*
X125320000Y-30550000D02*
X124300000Y-30550000D01*
X122780000Y-35750000D02*
X121760000Y-35750000D01*
X122780000Y-30550000D02*
X121760000Y-30550000D01*
X120240000Y-35750000D02*
X119220000Y-35750000D01*
X120240000Y-30550000D02*
X119220000Y-30550000D01*
X117700000Y-35750000D02*
X116680000Y-35750000D01*
X117700000Y-30550000D02*
X116680000Y-30550000D01*
X115160000Y-35750000D02*
X114140000Y-35750000D01*
X115160000Y-30550000D02*
X114140000Y-30550000D01*
X112620000Y-35750000D02*
X111600000Y-35750000D01*
X112620000Y-30550000D02*
X111600000Y-30550000D01*
X110080000Y-35750000D02*
X109060000Y-35750000D01*
X110080000Y-30550000D02*
X109060000Y-30550000D01*
X107540000Y-35750000D02*
X106520000Y-35750000D01*
X107540000Y-30550000D02*
X106520000Y-30550000D01*
X136100000Y-76366267D02*
X136100000Y-76023733D01*
X135080000Y-76366267D02*
X135080000Y-76023733D01*
X141470000Y-92322064D02*
X141470000Y-91117936D01*
X138750000Y-92322064D02*
X138750000Y-91117936D01*
D12*
X136972857Y-89856666D02*
X136925238Y-89904285D01*
X136877619Y-90047142D01*
X136877619Y-90142380D01*
X136925238Y-90285238D01*
X137020476Y-90380476D01*
X137115714Y-90428095D01*
X137306190Y-90475714D01*
X137449047Y-90475714D01*
X137639523Y-90428095D01*
X137734761Y-90380476D01*
X137830000Y-90285238D01*
X137877619Y-90142380D01*
X137877619Y-90047142D01*
X137830000Y-89904285D01*
X137782380Y-89856666D01*
X136877619Y-88904285D02*
X136877619Y-89475714D01*
X136877619Y-89190000D02*
X137877619Y-89190000D01*
X137734761Y-89285238D01*
X137639523Y-89380476D01*
X137591904Y-89475714D01*
X147422857Y-73426666D02*
X147375238Y-73474285D01*
X147327619Y-73617142D01*
X147327619Y-73712380D01*
X147375238Y-73855238D01*
X147470476Y-73950476D01*
X147565714Y-73998095D01*
X147756190Y-74045714D01*
X147899047Y-74045714D01*
X148089523Y-73998095D01*
X148184761Y-73950476D01*
X148280000Y-73855238D01*
X148327619Y-73712380D01*
X148327619Y-73617142D01*
X148280000Y-73474285D01*
X148232380Y-73426666D01*
X148232380Y-73045714D02*
X148280000Y-72998095D01*
X148327619Y-72902857D01*
X148327619Y-72664761D01*
X148280000Y-72569523D01*
X148232380Y-72521904D01*
X148137142Y-72474285D01*
X148041904Y-72474285D01*
X147899047Y-72521904D01*
X147327619Y-73093333D01*
X147327619Y-72474285D01*
X135182857Y-89856666D02*
X135135238Y-89904285D01*
X135087619Y-90047142D01*
X135087619Y-90142380D01*
X135135238Y-90285238D01*
X135230476Y-90380476D01*
X135325714Y-90428095D01*
X135516190Y-90475714D01*
X135659047Y-90475714D01*
X135849523Y-90428095D01*
X135944761Y-90380476D01*
X136040000Y-90285238D01*
X136087619Y-90142380D01*
X136087619Y-90047142D01*
X136040000Y-89904285D01*
X135992380Y-89856666D01*
X136087619Y-89523333D02*
X136087619Y-88904285D01*
X135706666Y-89237619D01*
X135706666Y-89094761D01*
X135659047Y-88999523D01*
X135611428Y-88951904D01*
X135516190Y-88904285D01*
X135278095Y-88904285D01*
X135182857Y-88951904D01*
X135135238Y-88999523D01*
X135087619Y-89094761D01*
X135087619Y-89380476D01*
X135135238Y-89475714D01*
X135182857Y-89523333D01*
X137052857Y-73396666D02*
X137005238Y-73444285D01*
X136957619Y-73587142D01*
X136957619Y-73682380D01*
X137005238Y-73825238D01*
X137100476Y-73920476D01*
X137195714Y-73968095D01*
X137386190Y-74015714D01*
X137529047Y-74015714D01*
X137719523Y-73968095D01*
X137814761Y-73920476D01*
X137910000Y-73825238D01*
X137957619Y-73682380D01*
X137957619Y-73587142D01*
X137910000Y-73444285D01*
X137862380Y-73396666D01*
X137624285Y-72539523D02*
X136957619Y-72539523D01*
X138005238Y-72777619D02*
X137290952Y-73015714D01*
X137290952Y-72396666D01*
X147247619Y-86648095D02*
X148247619Y-86648095D01*
X148247619Y-86410000D01*
X148200000Y-86267142D01*
X148104761Y-86171904D01*
X148009523Y-86124285D01*
X147819047Y-86076666D01*
X147676190Y-86076666D01*
X147485714Y-86124285D01*
X147390476Y-86171904D01*
X147295238Y-86267142D01*
X147247619Y-86410000D01*
X147247619Y-86648095D01*
X147247619Y-85124285D02*
X147247619Y-85695714D01*
X147247619Y-85410000D02*
X148247619Y-85410000D01*
X148104761Y-85505238D01*
X148009523Y-85600476D01*
X147961904Y-85695714D01*
X148367619Y-90036666D02*
X148843809Y-90370000D01*
X148367619Y-90608095D02*
X149367619Y-90608095D01*
X149367619Y-90227142D01*
X149320000Y-90131904D01*
X149272380Y-90084285D01*
X149177142Y-90036666D01*
X149034285Y-90036666D01*
X148939047Y-90084285D01*
X148891428Y-90131904D01*
X148843809Y-90227142D01*
X148843809Y-90608095D01*
X148367619Y-89084285D02*
X148367619Y-89655714D01*
X148367619Y-89370000D02*
X149367619Y-89370000D01*
X149224761Y-89465238D01*
X149129523Y-89560476D01*
X149081904Y-89655714D01*
X146607619Y-90016666D02*
X147083809Y-90350000D01*
X146607619Y-90588095D02*
X147607619Y-90588095D01*
X147607619Y-90207142D01*
X147560000Y-90111904D01*
X147512380Y-90064285D01*
X147417142Y-90016666D01*
X147274285Y-90016666D01*
X147179047Y-90064285D01*
X147131428Y-90111904D01*
X147083809Y-90207142D01*
X147083809Y-90588095D01*
X147512380Y-89635714D02*
X147560000Y-89588095D01*
X147607619Y-89492857D01*
X147607619Y-89254761D01*
X147560000Y-89159523D01*
X147512380Y-89111904D01*
X147417142Y-89064285D01*
X147321904Y-89064285D01*
X147179047Y-89111904D01*
X146607619Y-89683333D01*
X146607619Y-89064285D01*
X147287619Y-88156666D02*
X147763809Y-88490000D01*
X147287619Y-88728095D02*
X148287619Y-88728095D01*
X148287619Y-88347142D01*
X148240000Y-88251904D01*
X148192380Y-88204285D01*
X148097142Y-88156666D01*
X147954285Y-88156666D01*
X147859047Y-88204285D01*
X147811428Y-88251904D01*
X147763809Y-88347142D01*
X147763809Y-88728095D01*
X148287619Y-87251904D02*
X148287619Y-87728095D01*
X147811428Y-87775714D01*
X147859047Y-87728095D01*
X147906666Y-87632857D01*
X147906666Y-87394761D01*
X147859047Y-87299523D01*
X147811428Y-87251904D01*
X147716190Y-87204285D01*
X147478095Y-87204285D01*
X147382857Y-87251904D01*
X147335238Y-87299523D01*
X147287619Y-87394761D01*
X147287619Y-87632857D01*
X147335238Y-87728095D01*
X147382857Y-87775714D01*
X142487619Y-89261904D02*
X141678095Y-89261904D01*
X141582857Y-89214285D01*
X141535238Y-89166666D01*
X141487619Y-89071428D01*
X141487619Y-88880952D01*
X141535238Y-88785714D01*
X141582857Y-88738095D01*
X141678095Y-88690476D01*
X142487619Y-88690476D01*
X141487619Y-87690476D02*
X141487619Y-88261904D01*
X141487619Y-87976190D02*
X142487619Y-87976190D01*
X142344761Y-88071428D01*
X142249523Y-88166666D01*
X142201904Y-88261904D01*
X139239252Y-79081333D02*
X139715443Y-79081333D01*
X139108300Y-78795619D02*
X139566633Y-79795619D01*
X139774967Y-78795619D01*
X140108300Y-78795619D02*
X140233300Y-79795619D01*
X140477348Y-79081333D01*
X140899967Y-79795619D01*
X140774967Y-78795619D01*
X141209491Y-78843238D02*
X141346395Y-78795619D01*
X141584491Y-78795619D01*
X141685681Y-78843238D01*
X141739252Y-78890857D01*
X141798776Y-78986095D01*
X141810681Y-79081333D01*
X141774967Y-79176571D01*
X141733300Y-79224190D01*
X141644014Y-79271809D01*
X141459491Y-79319428D01*
X141370205Y-79367047D01*
X141328538Y-79414666D01*
X141292824Y-79509904D01*
X141304729Y-79605142D01*
X141364252Y-79700380D01*
X141417824Y-79748000D01*
X141519014Y-79795619D01*
X141757110Y-79795619D01*
X141894014Y-79748000D01*
X142727348Y-78795619D02*
X142155919Y-78795619D01*
X142441633Y-78795619D02*
X142566633Y-79795619D01*
X142453538Y-79652761D01*
X142346395Y-79557523D01*
X142245205Y-79509904D01*
X143679729Y-78795619D02*
X143108300Y-78795619D01*
X143394014Y-78795619D02*
X143519014Y-79795619D01*
X143405919Y-79652761D01*
X143298776Y-79557523D01*
X143197586Y-79509904D01*
X144632110Y-78795619D02*
X144060681Y-78795619D01*
X144346395Y-78795619D02*
X144471395Y-79795619D01*
X144358300Y-79652761D01*
X144251157Y-79557523D01*
X144149967Y-79509904D01*
X145090443Y-79795619D02*
X145757110Y-79795619D01*
X145203538Y-78795619D01*
X135278857Y-73416666D02*
X135231238Y-73464285D01*
X135183619Y-73607142D01*
X135183619Y-73702380D01*
X135231238Y-73845238D01*
X135326476Y-73940476D01*
X135421714Y-73988095D01*
X135612190Y-74035714D01*
X135755047Y-74035714D01*
X135945523Y-73988095D01*
X136040761Y-73940476D01*
X136136000Y-73845238D01*
X136183619Y-73702380D01*
X136183619Y-73607142D01*
X136136000Y-73464285D01*
X136088380Y-73416666D01*
X136183619Y-72559523D02*
X136183619Y-72750000D01*
X136136000Y-72845238D01*
X136088380Y-72892857D01*
X135945523Y-72988095D01*
X135755047Y-73035714D01*
X135374095Y-73035714D01*
X135278857Y-72988095D01*
X135231238Y-72940476D01*
X135183619Y-72845238D01*
X135183619Y-72654761D01*
X135231238Y-72559523D01*
X135278857Y-72511904D01*
X135374095Y-72464285D01*
X135612190Y-72464285D01*
X135707428Y-72511904D01*
X135755047Y-72559523D01*
X135802666Y-72654761D01*
X135802666Y-72845238D01*
X135755047Y-72940476D01*
X135707428Y-72988095D01*
X135612190Y-73035714D01*
X139501619Y-88558666D02*
X139501619Y-89034857D01*
X140501619Y-89034857D01*
X139501619Y-87701523D02*
X139501619Y-88272952D01*
X139501619Y-87987238D02*
X140501619Y-87987238D01*
X140358761Y-88082476D01*
X140263523Y-88177714D01*
X140215904Y-88272952D01*
M02*
