M48
; DRILL file {KiCad (5.1.4)-1} date 2019/12/31 12:49:35
; FORMAT={-:-/ absolute / metric / decimal}
; #@! TF.CreationDate,2019-12-31T12:49:35+08:00
; #@! TF.GenerationSoftware,Kicad,Pcbnew,(5.1.4)-1
; #@! TF.FileFunction,Plated,1,2,PTH
FMAT,2
METRIC
T1C0.400
T2C3.200
%
G90
G05
T1
X105.76Y-46.78
X107.0Y-47.43
X108.31Y-48.08
X109.45Y-48.73
X110.91Y-49.35
X112.2Y-50.4
X113.39Y-51.07
X114.69Y-51.72
X115.92Y-52.38
X117.22Y-53.06
X118.45Y-53.78
X119.71Y-54.41
X121.02Y-55.14
X122.25Y-55.79
X123.57Y-60.69
X124.77Y-56.46
X126.05Y-61.33
X127.4Y-57.12
X128.61Y-61.98
X129.91Y-57.77
X131.22Y-62.63
X132.43Y-58.42
X133.69Y-59.86
X134.99Y-59.21
X135.785Y-50.405
X135.79Y-49.08
X136.4Y-51.72
X136.98Y-53.06
X137.01Y-48.35
X137.414Y-90.424
X137.52Y-42.24
X137.57Y-46.98
X138.684Y-76.2
X139.175Y-52.745
X139.24Y-54.67
X139.245Y-56.505
X139.3Y-58.43
X140.03Y-43.85
X140.13Y-94.37
X140.27Y-47.04
X140.386Y-54.446
X140.44Y-56.23
X141.35Y-33.52
X141.43Y-57.26
X141.86Y-45.95
X142.47Y-82.11
X142.55Y-45.1
X142.76Y-63.92
X142.81Y-70.8
X143.84Y-28.5
X143.91Y-87.34
X145.07Y-35.68
X145.92Y-27.19
X147.04Y-46.88
X147.05Y-53.62
X147.07Y-49.08
X147.07Y-50.42
X147.09Y-51.72
X147.21Y-55.32
X147.32Y-90.17
X147.828Y-77.978
X148.082Y-84.074
X149.92Y-90.44
X150.42Y-47.55
X150.43Y-45.29
X150.43Y-52.31
X150.45Y-46.47
X150.45Y-49.92
X150.45Y-51.11
X150.45Y-53.33
X150.46Y-48.72
X150.47Y-54.37
X150.47Y-56.2
T2
X99.4Y-126.3
X148.7Y-126.3
T0
M30
