G04 #@! TF.GenerationSoftware,KiCad,Pcbnew,(5.1.4)-1*
G04 #@! TF.CreationDate,2019-12-31T12:49:38+08:00*
G04 #@! TF.ProjectId,FH26W-45S-0.3SHW-DIP,46483236-572d-4343-9553-2d302e335348,rev?*
G04 #@! TF.SameCoordinates,Original*
G04 #@! TF.FileFunction,Soldermask,Top*
G04 #@! TF.FilePolarity,Negative*
%FSLAX46Y46*%
G04 Gerber Fmt 4.6, Leading zero omitted, Abs format (unit mm)*
G04 Created by KiCad (PCBNEW (5.1.4)-1) date 2019-12-31 12:49:38*
%MOMM*%
%LPD*%
G04 APERTURE LIST*
%ADD10C,0.100000*%
G04 APERTURE END LIST*
D10*
G36*
X149517021Y-123606640D02*
G01*
X150026769Y-123817785D01*
X150026771Y-123817786D01*
X150485534Y-124124321D01*
X150875679Y-124514466D01*
X151182214Y-124973229D01*
X151182215Y-124973231D01*
X151393360Y-125482979D01*
X151501000Y-126024124D01*
X151501000Y-126575876D01*
X151393360Y-127117021D01*
X151182215Y-127626769D01*
X151182214Y-127626771D01*
X150875679Y-128085534D01*
X150485534Y-128475679D01*
X150026771Y-128782214D01*
X150026770Y-128782215D01*
X150026769Y-128782215D01*
X149517021Y-128993360D01*
X148975876Y-129101000D01*
X148424124Y-129101000D01*
X147882979Y-128993360D01*
X147373231Y-128782215D01*
X147373230Y-128782215D01*
X147373229Y-128782214D01*
X146914466Y-128475679D01*
X146524321Y-128085534D01*
X146217786Y-127626771D01*
X146217785Y-127626769D01*
X146006640Y-127117021D01*
X145899000Y-126575876D01*
X145899000Y-126024124D01*
X146006640Y-125482979D01*
X146217785Y-124973231D01*
X146217786Y-124973229D01*
X146524321Y-124514466D01*
X146914466Y-124124321D01*
X147373229Y-123817786D01*
X147373231Y-123817785D01*
X147882979Y-123606640D01*
X148424124Y-123499000D01*
X148975876Y-123499000D01*
X149517021Y-123606640D01*
X149517021Y-123606640D01*
G37*
G36*
X100217021Y-123606640D02*
G01*
X100726769Y-123817785D01*
X100726771Y-123817786D01*
X101185534Y-124124321D01*
X101575679Y-124514466D01*
X101882214Y-124973229D01*
X101882215Y-124973231D01*
X102093360Y-125482979D01*
X102201000Y-126024124D01*
X102201000Y-126575876D01*
X102093360Y-127117021D01*
X101882215Y-127626769D01*
X101882214Y-127626771D01*
X101575679Y-128085534D01*
X101185534Y-128475679D01*
X100726771Y-128782214D01*
X100726770Y-128782215D01*
X100726769Y-128782215D01*
X100217021Y-128993360D01*
X99675876Y-129101000D01*
X99124124Y-129101000D01*
X98582979Y-128993360D01*
X98073231Y-128782215D01*
X98073230Y-128782215D01*
X98073229Y-128782214D01*
X97614466Y-128475679D01*
X97224321Y-128085534D01*
X96917786Y-127626771D01*
X96917785Y-127626769D01*
X96706640Y-127117021D01*
X96599000Y-126575876D01*
X96599000Y-126024124D01*
X96706640Y-125482979D01*
X96917785Y-124973231D01*
X96917786Y-124973229D01*
X97224321Y-124514466D01*
X97614466Y-124124321D01*
X98073229Y-123817786D01*
X98073231Y-123817785D01*
X98582979Y-123606640D01*
X99124124Y-123499000D01*
X99675876Y-123499000D01*
X100217021Y-123606640D01*
X100217021Y-123606640D01*
G37*
M02*
