G04 #@! TF.GenerationSoftware,KiCad,Pcbnew,(5.1.4)-1*
G04 #@! TF.CreationDate,2019-12-31T12:49:38+08:00*
G04 #@! TF.ProjectId,FH26W-45S-0.3SHW-DIP,46483236-572d-4343-9553-2d302e335348,rev?*
G04 #@! TF.SameCoordinates,Original*
G04 #@! TF.FileFunction,Copper,L1,Top*
G04 #@! TF.FilePolarity,Positive*
%FSLAX46Y46*%
G04 Gerber Fmt 4.6, Leading zero omitted, Abs format (unit mm)*
G04 Created by KiCad (PCBNEW (5.1.4)-1) date 2019-12-31 12:49:38*
%MOMM*%
%LPD*%
G04 APERTURE LIST*
%ADD10C,5.500000*%
%ADD11C,0.800000*%
%ADD12C,0.400000*%
%ADD13C,0.200000*%
%ADD14C,1.000000*%
%ADD15C,0.254000*%
G04 APERTURE END LIST*
D10*
X148700000Y-126300000D03*
X99400000Y-126300000D03*
D11*
X143840000Y-28500000D03*
X140130000Y-94370000D03*
X147320000Y-90170000D03*
X148082000Y-84074000D03*
X150430000Y-45290000D03*
X145070000Y-35680000D03*
X143910000Y-87340000D03*
X147828000Y-77978000D03*
X138684000Y-76200000D03*
X137414000Y-90424000D03*
X142760000Y-63920000D03*
X145920000Y-27190000D03*
X142470000Y-82110000D03*
X150450000Y-46470000D03*
X142810000Y-70800000D03*
X137520000Y-42240000D03*
X137570000Y-46980000D03*
X147040000Y-46880000D03*
X141860000Y-45950000D03*
X150420000Y-47550000D03*
X142550000Y-45100000D03*
X150460000Y-48720000D03*
X105760000Y-46780000D03*
X147070000Y-49080000D03*
X108310000Y-48080000D03*
X150450000Y-49920000D03*
X110910000Y-49350000D03*
X147070000Y-50419999D03*
X113390000Y-51070000D03*
X150450000Y-51110000D03*
X115920000Y-52380000D03*
X147090000Y-51720000D03*
X118450000Y-53780000D03*
X150430000Y-52310000D03*
X121020000Y-55140000D03*
X147050000Y-53620000D03*
X123570000Y-60690000D03*
X150450000Y-53330000D03*
X126050001Y-61329999D03*
X150470000Y-54370000D03*
X128610000Y-61980000D03*
X131220000Y-62630000D03*
X150470000Y-56200000D03*
X147210000Y-55320000D03*
X133690000Y-59860000D03*
X140030000Y-43850000D03*
X140270000Y-47040000D03*
X137010000Y-48350000D03*
X107000000Y-47430000D03*
X135790000Y-49080000D03*
X109450000Y-48730000D03*
X135785381Y-50405380D03*
X112200000Y-50400000D03*
X136400134Y-51720134D03*
X114690000Y-51720000D03*
X136979759Y-53059759D03*
X117220000Y-53060000D03*
X139175380Y-52745380D03*
X119710000Y-54410000D03*
X139240000Y-54670000D03*
X122250000Y-55790000D03*
X140385760Y-54445760D03*
X124770000Y-56460000D03*
X139245380Y-56505380D03*
X127400000Y-57120000D03*
X140440000Y-56230000D03*
X129910000Y-57770000D03*
X139300000Y-58430000D03*
X132430000Y-58420000D03*
X141430000Y-57260000D03*
X134990000Y-59210000D03*
X141350000Y-33520000D03*
X149920000Y-90440000D03*
D12*
X136370000Y-94370000D02*
X140130000Y-94370000D01*
X143840000Y-28500000D02*
X143840000Y-27910000D01*
X143840000Y-27910000D02*
X143490000Y-27560000D01*
X143490000Y-27560000D02*
X103040000Y-27560000D01*
X103040000Y-27560000D02*
X99270000Y-31330000D01*
X99270000Y-31330000D02*
X99270000Y-57270000D01*
X99270000Y-57270000D02*
X136370000Y-94370000D01*
X147320000Y-90170000D02*
X148082000Y-89408000D01*
X148082000Y-89408000D02*
X148082000Y-84074000D01*
X140130000Y-94370000D02*
X146280000Y-94370000D01*
X147320000Y-93330000D02*
X147320000Y-90170000D01*
X146280000Y-94370000D02*
X147320000Y-93330000D01*
D13*
X150430000Y-41040000D02*
X145070000Y-35680000D01*
X150430000Y-45290000D02*
X150430000Y-41040000D01*
D12*
X151780000Y-47234315D02*
X151780000Y-61830000D01*
X151015685Y-46470000D02*
X151780000Y-47234315D01*
X150450000Y-46470000D02*
X151015685Y-46470000D01*
D14*
X142810000Y-70800000D02*
X151780000Y-61830000D01*
D13*
X137520000Y-42240000D02*
X137520000Y-42805685D01*
X137520000Y-42805685D02*
X137520000Y-46930000D01*
X137520000Y-46930000D02*
X137570000Y-46980000D01*
X147040000Y-46880000D02*
X146474315Y-46880000D01*
X145544314Y-45950000D02*
X146087157Y-46492843D01*
X141860000Y-45950000D02*
X145544314Y-45950000D01*
X146474315Y-46880000D02*
X146087157Y-46492843D01*
X150420000Y-47550000D02*
X147970000Y-45100000D01*
X147970000Y-45100000D02*
X142550000Y-45100000D01*
X106090000Y-46780000D02*
X105760000Y-46780000D01*
X138012002Y-48390000D02*
X136402002Y-46780000D01*
X149894315Y-48720000D02*
X149564315Y-48390000D01*
X136402002Y-46780000D02*
X106090000Y-46780000D01*
X150460000Y-48720000D02*
X149894315Y-48720000D01*
X149564315Y-48390000D02*
X138012002Y-48390000D01*
X136752002Y-49080000D02*
X147070000Y-49080000D01*
X135752001Y-48079999D02*
X136752002Y-49080000D01*
X108310000Y-48080000D02*
X109000001Y-48079999D01*
X109000001Y-48079999D02*
X135752001Y-48079999D01*
X149734313Y-49769998D02*
X149884315Y-49920000D01*
X149710000Y-49730000D02*
X149900000Y-49920000D01*
X131980000Y-49730000D02*
X149710000Y-49730000D01*
X131970000Y-49740000D02*
X131980000Y-49730000D01*
X149900000Y-49920000D02*
X150450000Y-49920000D01*
X149884315Y-49920000D02*
X149900000Y-49920000D01*
X110910000Y-49350000D02*
X111309999Y-49749999D01*
X111309999Y-49749999D02*
X112949999Y-49749999D01*
X112949999Y-49749999D02*
X112959998Y-49740000D01*
X112959998Y-49740000D02*
X131970000Y-49740000D01*
X146204325Y-50719989D02*
X136390011Y-50719989D01*
X147070000Y-50419999D02*
X146504315Y-50419999D01*
X146504315Y-50419999D02*
X146204325Y-50719989D01*
X136390011Y-50719989D02*
X136040001Y-51069999D01*
X113939998Y-51070000D02*
X113939999Y-51069999D01*
X113390000Y-51070000D02*
X113939998Y-51070000D01*
X136040001Y-51069999D02*
X113939999Y-51069999D01*
X113939999Y-51069999D02*
X113780001Y-51069999D01*
X150409999Y-51069999D02*
X137969508Y-51069999D01*
X150450000Y-51110000D02*
X150409999Y-51069999D01*
X137969508Y-51069999D02*
X136659507Y-52380000D01*
X115920000Y-52380000D02*
X117250000Y-52380000D01*
X136659507Y-52380000D02*
X117250000Y-52380000D01*
X117250000Y-52380000D02*
X117110000Y-52380000D01*
X118470000Y-53760000D02*
X118450000Y-53780000D01*
X137198758Y-53760000D02*
X118470000Y-53760000D01*
X147090000Y-51720000D02*
X139238758Y-51720000D01*
X139238758Y-51720000D02*
X137198758Y-53760000D01*
X150030001Y-52709999D02*
X140130001Y-52709999D01*
X150430000Y-52310000D02*
X150030001Y-52709999D01*
X140130001Y-52709999D02*
X137700001Y-55139999D01*
X121239999Y-55139999D02*
X121090000Y-54990000D01*
X121585686Y-55139999D02*
X121710001Y-55139999D01*
X121020000Y-55140000D02*
X121585686Y-55139999D01*
X137700001Y-55139999D02*
X121710001Y-55139999D01*
X121710001Y-55139999D02*
X121239999Y-55139999D01*
X147050000Y-53620000D02*
X148690000Y-53620000D01*
X149330000Y-54260000D02*
X149330000Y-55365012D01*
X148690000Y-53620000D02*
X149330000Y-54260000D01*
X149330000Y-55365012D02*
X144015014Y-60679998D01*
X124819996Y-60690000D02*
X124829998Y-60679998D01*
X123570000Y-60690000D02*
X124819996Y-60690000D01*
X144015014Y-60679998D02*
X124829998Y-60679998D01*
X124829998Y-60679998D02*
X124700002Y-60679998D01*
X150450000Y-53330000D02*
X149720000Y-54060000D01*
X149720000Y-54060000D02*
X149720000Y-55470000D01*
X143945000Y-61245000D02*
X143860001Y-61329999D01*
X143945000Y-61245000D02*
X143700000Y-61490000D01*
X149720000Y-55470000D02*
X143945000Y-61245000D01*
X125910001Y-61329999D02*
X125830000Y-61410000D01*
X143860001Y-61329999D02*
X126050001Y-61329999D01*
X126050001Y-61329999D02*
X125910001Y-61329999D01*
X150470000Y-54935685D02*
X150460000Y-54945685D01*
X150470000Y-54370000D02*
X150470000Y-54935685D01*
X150460000Y-54945685D02*
X150460000Y-55340000D01*
X150470000Y-55237998D02*
X149790000Y-55917998D01*
X150470000Y-54370000D02*
X150470000Y-55237998D01*
X149790000Y-55917998D02*
X149790000Y-55920000D01*
X149790000Y-55920000D02*
X143730001Y-61979999D01*
X143730001Y-61979999D02*
X129560001Y-61979999D01*
X129175685Y-61980000D02*
X128610000Y-61980000D01*
X129300001Y-61979999D02*
X129175685Y-61980000D01*
X129300001Y-61979999D02*
X129200001Y-61979999D01*
X129560001Y-61979999D02*
X129300001Y-61979999D01*
X144040000Y-62630000D02*
X142190000Y-62630000D01*
X150470000Y-56200000D02*
X144040000Y-62630000D01*
X142460000Y-62630000D02*
X142190000Y-62630000D01*
X142190000Y-62630000D02*
X131220000Y-62630000D01*
X146810001Y-55719999D02*
X146800001Y-55719999D01*
X147210000Y-55320000D02*
X146810001Y-55719999D01*
X146800001Y-55719999D02*
X142660000Y-59860000D01*
X142660000Y-59860000D02*
X133690000Y-59860000D01*
X139960000Y-43880000D02*
X139990000Y-43850000D01*
X139960000Y-46730000D02*
X139960000Y-43880000D01*
X140270000Y-47040000D02*
X139960000Y-46730000D01*
X136990000Y-48330000D02*
X136820000Y-48330000D01*
X137010000Y-48350000D02*
X136990000Y-48330000D01*
X136820000Y-48330000D02*
X136200000Y-47710000D01*
X136200000Y-47710000D02*
X136060000Y-47570000D01*
X136060000Y-47570000D02*
X135919999Y-47429999D01*
X107529998Y-47430000D02*
X107529999Y-47429999D01*
X107000000Y-47430000D02*
X107529998Y-47430000D01*
X135919999Y-47429999D02*
X107529999Y-47429999D01*
X107529999Y-47429999D02*
X107220001Y-47429999D01*
X135790000Y-49080000D02*
X125780000Y-49080000D01*
X125780000Y-49080000D02*
X125030000Y-49080000D01*
X125030000Y-49080000D02*
X112020000Y-49080000D01*
X112020000Y-49080000D02*
X111640000Y-48700000D01*
X111640000Y-48700000D02*
X109480000Y-48700000D01*
X109480000Y-48700000D02*
X109450000Y-48730000D01*
X135219696Y-50405380D02*
X135214316Y-50400000D01*
X135785381Y-50405380D02*
X135219696Y-50405380D01*
X135214316Y-50400000D02*
X112650000Y-50400000D01*
X112650000Y-50400000D02*
X112200000Y-50400000D01*
X115289732Y-51720000D02*
X115289866Y-51720134D01*
X114690000Y-51720000D02*
X115289732Y-51720000D01*
X136400134Y-51720134D02*
X115289866Y-51720134D01*
X115289866Y-51720134D02*
X115040134Y-51720134D01*
X118389518Y-53060000D02*
X118389759Y-53059759D01*
X117220000Y-53060000D02*
X118389518Y-53060000D01*
X136979759Y-53059759D02*
X118389759Y-53059759D01*
X118389759Y-53059759D02*
X117629759Y-53059759D01*
X139175380Y-52745380D02*
X137510760Y-54410000D01*
X119710000Y-54410000D02*
X120150000Y-54410000D01*
X137510760Y-54410000D02*
X120150000Y-54410000D01*
X120150000Y-54410000D02*
X119870000Y-54410000D01*
X139240000Y-54670000D02*
X138120000Y-55790000D01*
X122250000Y-55790000D02*
X123050000Y-55790000D01*
X138120000Y-55790000D02*
X123050000Y-55790000D01*
X123050000Y-55790000D02*
X122850000Y-55790000D01*
X140385760Y-54445760D02*
X138611520Y-56220000D01*
X138611520Y-56220000D02*
X138361521Y-56469999D01*
X126040002Y-56460000D02*
X126050001Y-56469999D01*
X124770000Y-56460000D02*
X126040002Y-56460000D01*
X138361521Y-56469999D02*
X126050001Y-56469999D01*
X126050001Y-56469999D02*
X125810001Y-56469999D01*
X138630761Y-57119999D02*
X129340001Y-57119999D01*
X139245380Y-56505380D02*
X138630761Y-57119999D01*
X129340001Y-57119999D02*
X129340000Y-57120000D01*
X129340000Y-57120000D02*
X127400000Y-57120000D01*
X140040001Y-56629999D02*
X140440000Y-56230000D01*
X138900001Y-57769999D02*
X140040001Y-56629999D01*
X129910000Y-57770000D02*
X130490001Y-57769999D01*
X130490001Y-57769999D02*
X138900001Y-57769999D01*
X132440000Y-58430000D02*
X132430000Y-58420000D01*
X139300000Y-58430000D02*
X132440000Y-58430000D01*
X141430000Y-57260000D02*
X139480000Y-59210000D01*
X139480000Y-59210000D02*
X135010000Y-59210000D01*
D12*
X141350000Y-33520000D02*
X141350000Y-29360000D01*
X141350000Y-29360000D02*
X140100010Y-28110010D01*
X140100010Y-28110010D02*
X103267820Y-28110010D01*
X103267820Y-28110010D02*
X99820010Y-31557820D01*
X99820010Y-31557820D02*
X99820010Y-57042180D01*
D13*
X149920000Y-90440000D02*
X149920000Y-89874315D01*
X149920000Y-89874315D02*
X149930000Y-89864315D01*
X149930000Y-89864315D02*
X149930000Y-74080000D01*
D12*
X147616085Y-71766085D02*
X114543915Y-71766085D01*
X149930000Y-74080000D02*
X147616085Y-71766085D01*
X99820010Y-57042180D02*
X114543915Y-71766085D01*
D15*
G36*
X101519346Y-26822156D02*
G01*
X98196230Y-30145272D01*
X98135287Y-30195287D01*
X97935718Y-30438462D01*
X97787426Y-30715899D01*
X97696107Y-31016934D01*
X97673000Y-31251546D01*
X97673000Y-31251553D01*
X97665274Y-31330000D01*
X97673000Y-31408447D01*
X97673001Y-57191543D01*
X97665274Y-57270000D01*
X97696107Y-57583066D01*
X97787427Y-57884102D01*
X97935718Y-58161538D01*
X98085275Y-58343773D01*
X98085278Y-58343776D01*
X98135288Y-58404713D01*
X98196225Y-58454723D01*
X135185277Y-95443776D01*
X135235287Y-95504713D01*
X135478461Y-95704282D01*
X135755898Y-95852574D01*
X136056933Y-95943893D01*
X136291545Y-95967000D01*
X136291552Y-95967000D01*
X136369999Y-95974726D01*
X136448446Y-95967000D01*
X139289711Y-95967000D01*
X139605834Y-96097942D01*
X139953011Y-96167000D01*
X140306989Y-96167000D01*
X140654166Y-96097942D01*
X140970289Y-95967000D01*
X146201553Y-95967000D01*
X146280000Y-95974726D01*
X146358447Y-95967000D01*
X146358455Y-95967000D01*
X146593067Y-95943893D01*
X146894102Y-95852574D01*
X147171539Y-95704282D01*
X147414713Y-95504713D01*
X147464728Y-95443770D01*
X148393771Y-94514727D01*
X148454713Y-94464713D01*
X148654282Y-94221539D01*
X148802574Y-93944102D01*
X148893893Y-93643067D01*
X148917000Y-93408455D01*
X148917000Y-93408448D01*
X148924726Y-93330001D01*
X148917000Y-93251554D01*
X148917000Y-91931051D01*
X149068801Y-92032481D01*
X149395834Y-92167942D01*
X149743011Y-92237000D01*
X150096989Y-92237000D01*
X150444166Y-92167942D01*
X150771199Y-92032481D01*
X151065521Y-91835821D01*
X151315821Y-91585521D01*
X151512481Y-91291199D01*
X151647942Y-90964166D01*
X151717000Y-90616989D01*
X151717000Y-90263011D01*
X151647942Y-89915834D01*
X151512481Y-89588801D01*
X151427000Y-89460870D01*
X151427000Y-74646543D01*
X151503893Y-74393066D01*
X151534726Y-74080000D01*
X151503893Y-73766933D01*
X151412573Y-73465897D01*
X151264282Y-73188461D01*
X151114725Y-73006226D01*
X148800812Y-70692314D01*
X148750798Y-70631372D01*
X148507624Y-70431803D01*
X148230187Y-70283511D01*
X147929152Y-70192192D01*
X147694540Y-70169085D01*
X147694532Y-70169085D01*
X147616085Y-70161359D01*
X147537638Y-70169085D01*
X146123677Y-70169085D01*
X151777825Y-64514938D01*
X151775932Y-124874650D01*
X151531772Y-124415738D01*
X151524503Y-124404859D01*
X151080928Y-124098677D01*
X148879605Y-126300000D01*
X148893748Y-126314143D01*
X148714143Y-126493748D01*
X148700000Y-126479605D01*
X148685858Y-126493748D01*
X148506253Y-126314143D01*
X148520395Y-126300000D01*
X146319072Y-124098677D01*
X145875497Y-124404859D01*
X145560046Y-124992306D01*
X145365260Y-125630008D01*
X145298628Y-126293457D01*
X145362708Y-126957158D01*
X145555038Y-127595605D01*
X145868228Y-128184262D01*
X145875497Y-128195141D01*
X146319070Y-128501322D01*
X146242392Y-128578000D01*
X101857608Y-128578000D01*
X101780930Y-128501322D01*
X102224503Y-128195141D01*
X102539954Y-127607694D01*
X102734740Y-126969992D01*
X102801372Y-126306543D01*
X102737292Y-125642842D01*
X102544962Y-125004395D01*
X102231772Y-124415738D01*
X102224503Y-124404859D01*
X101780928Y-124098677D01*
X99579605Y-126300000D01*
X99593748Y-126314143D01*
X99414143Y-126493748D01*
X99400000Y-126479605D01*
X99385858Y-126493748D01*
X99206253Y-126314143D01*
X99220395Y-126300000D01*
X97019072Y-124098677D01*
X96622057Y-124372720D01*
X96622063Y-123919072D01*
X97198677Y-123919072D01*
X99400000Y-126120395D01*
X101601323Y-123919072D01*
X146498677Y-123919072D01*
X148700000Y-126120395D01*
X150901323Y-123919072D01*
X150595141Y-123475497D01*
X150007694Y-123160046D01*
X149369992Y-122965260D01*
X148706543Y-122898628D01*
X148042842Y-122962708D01*
X147404395Y-123155038D01*
X146815738Y-123468228D01*
X146804859Y-123475497D01*
X146498677Y-123919072D01*
X101601323Y-123919072D01*
X101295141Y-123475497D01*
X100707694Y-123160046D01*
X100069992Y-122965260D01*
X99406543Y-122898628D01*
X98742842Y-122962708D01*
X98104395Y-123155038D01*
X97515738Y-123468228D01*
X97504859Y-123475497D01*
X97198677Y-123919072D01*
X96622063Y-123919072D01*
X96623484Y-28031168D01*
X96642673Y-27728275D01*
X96696164Y-27526178D01*
X96787892Y-27338318D01*
X96914363Y-27171850D01*
X97070753Y-27033122D01*
X97251117Y-26927409D01*
X97448576Y-26858744D01*
X97710175Y-26822095D01*
X97714725Y-26822000D01*
X101519346Y-26822156D01*
X101519346Y-26822156D01*
G37*
X101519346Y-26822156D02*
X98196230Y-30145272D01*
X98135287Y-30195287D01*
X97935718Y-30438462D01*
X97787426Y-30715899D01*
X97696107Y-31016934D01*
X97673000Y-31251546D01*
X97673000Y-31251553D01*
X97665274Y-31330000D01*
X97673000Y-31408447D01*
X97673001Y-57191543D01*
X97665274Y-57270000D01*
X97696107Y-57583066D01*
X97787427Y-57884102D01*
X97935718Y-58161538D01*
X98085275Y-58343773D01*
X98085278Y-58343776D01*
X98135288Y-58404713D01*
X98196225Y-58454723D01*
X135185277Y-95443776D01*
X135235287Y-95504713D01*
X135478461Y-95704282D01*
X135755898Y-95852574D01*
X136056933Y-95943893D01*
X136291545Y-95967000D01*
X136291552Y-95967000D01*
X136369999Y-95974726D01*
X136448446Y-95967000D01*
X139289711Y-95967000D01*
X139605834Y-96097942D01*
X139953011Y-96167000D01*
X140306989Y-96167000D01*
X140654166Y-96097942D01*
X140970289Y-95967000D01*
X146201553Y-95967000D01*
X146280000Y-95974726D01*
X146358447Y-95967000D01*
X146358455Y-95967000D01*
X146593067Y-95943893D01*
X146894102Y-95852574D01*
X147171539Y-95704282D01*
X147414713Y-95504713D01*
X147464728Y-95443770D01*
X148393771Y-94514727D01*
X148454713Y-94464713D01*
X148654282Y-94221539D01*
X148802574Y-93944102D01*
X148893893Y-93643067D01*
X148917000Y-93408455D01*
X148917000Y-93408448D01*
X148924726Y-93330001D01*
X148917000Y-93251554D01*
X148917000Y-91931051D01*
X149068801Y-92032481D01*
X149395834Y-92167942D01*
X149743011Y-92237000D01*
X150096989Y-92237000D01*
X150444166Y-92167942D01*
X150771199Y-92032481D01*
X151065521Y-91835821D01*
X151315821Y-91585521D01*
X151512481Y-91291199D01*
X151647942Y-90964166D01*
X151717000Y-90616989D01*
X151717000Y-90263011D01*
X151647942Y-89915834D01*
X151512481Y-89588801D01*
X151427000Y-89460870D01*
X151427000Y-74646543D01*
X151503893Y-74393066D01*
X151534726Y-74080000D01*
X151503893Y-73766933D01*
X151412573Y-73465897D01*
X151264282Y-73188461D01*
X151114725Y-73006226D01*
X148800812Y-70692314D01*
X148750798Y-70631372D01*
X148507624Y-70431803D01*
X148230187Y-70283511D01*
X147929152Y-70192192D01*
X147694540Y-70169085D01*
X147694532Y-70169085D01*
X147616085Y-70161359D01*
X147537638Y-70169085D01*
X146123677Y-70169085D01*
X151777825Y-64514938D01*
X151775932Y-124874650D01*
X151531772Y-124415738D01*
X151524503Y-124404859D01*
X151080928Y-124098677D01*
X148879605Y-126300000D01*
X148893748Y-126314143D01*
X148714143Y-126493748D01*
X148700000Y-126479605D01*
X148685858Y-126493748D01*
X148506253Y-126314143D01*
X148520395Y-126300000D01*
X146319072Y-124098677D01*
X145875497Y-124404859D01*
X145560046Y-124992306D01*
X145365260Y-125630008D01*
X145298628Y-126293457D01*
X145362708Y-126957158D01*
X145555038Y-127595605D01*
X145868228Y-128184262D01*
X145875497Y-128195141D01*
X146319070Y-128501322D01*
X146242392Y-128578000D01*
X101857608Y-128578000D01*
X101780930Y-128501322D01*
X102224503Y-128195141D01*
X102539954Y-127607694D01*
X102734740Y-126969992D01*
X102801372Y-126306543D01*
X102737292Y-125642842D01*
X102544962Y-125004395D01*
X102231772Y-124415738D01*
X102224503Y-124404859D01*
X101780928Y-124098677D01*
X99579605Y-126300000D01*
X99593748Y-126314143D01*
X99414143Y-126493748D01*
X99400000Y-126479605D01*
X99385858Y-126493748D01*
X99206253Y-126314143D01*
X99220395Y-126300000D01*
X97019072Y-124098677D01*
X96622057Y-124372720D01*
X96622063Y-123919072D01*
X97198677Y-123919072D01*
X99400000Y-126120395D01*
X101601323Y-123919072D01*
X146498677Y-123919072D01*
X148700000Y-126120395D01*
X150901323Y-123919072D01*
X150595141Y-123475497D01*
X150007694Y-123160046D01*
X149369992Y-122965260D01*
X148706543Y-122898628D01*
X148042842Y-122962708D01*
X147404395Y-123155038D01*
X146815738Y-123468228D01*
X146804859Y-123475497D01*
X146498677Y-123919072D01*
X101601323Y-123919072D01*
X101295141Y-123475497D01*
X100707694Y-123160046D01*
X100069992Y-122965260D01*
X99406543Y-122898628D01*
X98742842Y-122962708D01*
X98104395Y-123155038D01*
X97515738Y-123468228D01*
X97504859Y-123475497D01*
X97198677Y-123919072D01*
X96622063Y-123919072D01*
X96623484Y-28031168D01*
X96642673Y-27728275D01*
X96696164Y-27526178D01*
X96787892Y-27338318D01*
X96914363Y-27171850D01*
X97070753Y-27033122D01*
X97251117Y-26927409D01*
X97448576Y-26858744D01*
X97710175Y-26822095D01*
X97714725Y-26822000D01*
X101519346Y-26822156D01*
G36*
X148433001Y-74841500D02*
G01*
X148433000Y-82311613D01*
X148258989Y-82277000D01*
X147905011Y-82277000D01*
X147557834Y-82346058D01*
X147230801Y-82481519D01*
X146936479Y-82678179D01*
X146686179Y-82928479D01*
X146489519Y-83222801D01*
X146354058Y-83549834D01*
X146285000Y-83897011D01*
X146285000Y-84250989D01*
X146354058Y-84598166D01*
X146485001Y-84914291D01*
X146485000Y-88570809D01*
X146468801Y-88577519D01*
X146174479Y-88774179D01*
X145924179Y-89024479D01*
X145727519Y-89318801D01*
X145592058Y-89645834D01*
X145523000Y-89993011D01*
X145523000Y-90346989D01*
X145592058Y-90694166D01*
X145723001Y-91010291D01*
X145723000Y-92668502D01*
X145618502Y-92773000D01*
X140970289Y-92773000D01*
X140654166Y-92642058D01*
X140306989Y-92573000D01*
X139953011Y-92573000D01*
X139605834Y-92642058D01*
X139289711Y-92773000D01*
X137031499Y-92773000D01*
X126191510Y-81933011D01*
X140673000Y-81933011D01*
X140673000Y-82286989D01*
X140742058Y-82634166D01*
X140877519Y-82961199D01*
X141074179Y-83255521D01*
X141324479Y-83505821D01*
X141618801Y-83702481D01*
X141945834Y-83837942D01*
X142293011Y-83907000D01*
X142646989Y-83907000D01*
X142994166Y-83837942D01*
X143321199Y-83702481D01*
X143615521Y-83505821D01*
X143865821Y-83255521D01*
X144062481Y-82961199D01*
X144197942Y-82634166D01*
X144267000Y-82286989D01*
X144267000Y-81933011D01*
X144197942Y-81585834D01*
X144062481Y-81258801D01*
X143865821Y-80964479D01*
X143615521Y-80714179D01*
X143321199Y-80517519D01*
X142994166Y-80382058D01*
X142646989Y-80313000D01*
X142293011Y-80313000D01*
X141945834Y-80382058D01*
X141618801Y-80517519D01*
X141324479Y-80714179D01*
X141074179Y-80964479D01*
X140877519Y-81258801D01*
X140742058Y-81585834D01*
X140673000Y-81933011D01*
X126191510Y-81933011D01*
X117621583Y-73363085D01*
X146954587Y-73363085D01*
X148433001Y-74841500D01*
X148433001Y-74841500D01*
G37*
X148433001Y-74841500D02*
X148433000Y-82311613D01*
X148258989Y-82277000D01*
X147905011Y-82277000D01*
X147557834Y-82346058D01*
X147230801Y-82481519D01*
X146936479Y-82678179D01*
X146686179Y-82928479D01*
X146489519Y-83222801D01*
X146354058Y-83549834D01*
X146285000Y-83897011D01*
X146285000Y-84250989D01*
X146354058Y-84598166D01*
X146485001Y-84914291D01*
X146485000Y-88570809D01*
X146468801Y-88577519D01*
X146174479Y-88774179D01*
X145924179Y-89024479D01*
X145727519Y-89318801D01*
X145592058Y-89645834D01*
X145523000Y-89993011D01*
X145523000Y-90346989D01*
X145592058Y-90694166D01*
X145723001Y-91010291D01*
X145723000Y-92668502D01*
X145618502Y-92773000D01*
X140970289Y-92773000D01*
X140654166Y-92642058D01*
X140306989Y-92573000D01*
X139953011Y-92573000D01*
X139605834Y-92642058D01*
X139289711Y-92773000D01*
X137031499Y-92773000D01*
X126191510Y-81933011D01*
X140673000Y-81933011D01*
X140673000Y-82286989D01*
X140742058Y-82634166D01*
X140877519Y-82961199D01*
X141074179Y-83255521D01*
X141324479Y-83505821D01*
X141618801Y-83702481D01*
X141945834Y-83837942D01*
X142293011Y-83907000D01*
X142646989Y-83907000D01*
X142994166Y-83837942D01*
X143321199Y-83702481D01*
X143615521Y-83505821D01*
X143865821Y-83255521D01*
X144062481Y-82961199D01*
X144197942Y-82634166D01*
X144267000Y-82286989D01*
X144267000Y-81933011D01*
X144197942Y-81585834D01*
X144062481Y-81258801D01*
X143865821Y-80964479D01*
X143615521Y-80714179D01*
X143321199Y-80517519D01*
X142994166Y-80382058D01*
X142646989Y-80313000D01*
X142293011Y-80313000D01*
X141945834Y-80382058D01*
X141618801Y-80517519D01*
X141324479Y-80714179D01*
X141074179Y-80964479D01*
X140877519Y-81258801D01*
X140742058Y-81585834D01*
X140673000Y-81933011D01*
X126191510Y-81933011D01*
X117621583Y-73363085D01*
X146954587Y-73363085D01*
X148433001Y-74841500D01*
G36*
X150509809Y-26824152D02*
G01*
X150796547Y-26863893D01*
X151030995Y-26945034D01*
X151245219Y-27070170D01*
X151431054Y-27234529D01*
X151581426Y-27431852D01*
X151690606Y-27654625D01*
X151757483Y-27905804D01*
X151778005Y-28157855D01*
X151779234Y-42193579D01*
X151522729Y-42393072D01*
X151506157Y-42401930D01*
X151412293Y-42478962D01*
X151371867Y-42510403D01*
X151358329Y-42523249D01*
X151289629Y-42579630D01*
X151256951Y-42619448D01*
X151219594Y-42654897D01*
X151168306Y-42727463D01*
X151111930Y-42796158D01*
X151087651Y-42841580D01*
X151057923Y-42883642D01*
X151021777Y-42964822D01*
X150979887Y-43043192D01*
X150964935Y-43092481D01*
X150943986Y-43139531D01*
X150924372Y-43226202D01*
X150898576Y-43311240D01*
X150893528Y-43362497D01*
X150882159Y-43412732D01*
X150879831Y-43501559D01*
X150878000Y-43520148D01*
X150878000Y-43571414D01*
X150874820Y-43692744D01*
X150878000Y-43711254D01*
X150878000Y-44722929D01*
X150626989Y-44673000D01*
X150273011Y-44673000D01*
X149925834Y-44742058D01*
X149786747Y-44799670D01*
X149080539Y-44093462D01*
X149033660Y-44036340D01*
X148805713Y-43849268D01*
X148545649Y-43710261D01*
X148263463Y-43624661D01*
X148043538Y-43603000D01*
X148043530Y-43603000D01*
X147970000Y-43595758D01*
X147896470Y-43603000D01*
X143544096Y-43603000D01*
X143401199Y-43507519D01*
X143074166Y-43372058D01*
X142726989Y-43303000D01*
X142373011Y-43303000D01*
X142025834Y-43372058D01*
X141786829Y-43471057D01*
X141757942Y-43325834D01*
X141622481Y-42998801D01*
X141425821Y-42704479D01*
X141175521Y-42454179D01*
X140881199Y-42257519D01*
X140554166Y-42122058D01*
X140206989Y-42053000D01*
X139853011Y-42053000D01*
X139505834Y-42122058D01*
X139317000Y-42200275D01*
X139317000Y-42063011D01*
X139247942Y-41715834D01*
X139112481Y-41388801D01*
X138915821Y-41094479D01*
X138665521Y-40844179D01*
X138371199Y-40647519D01*
X138044166Y-40512058D01*
X137696989Y-40443000D01*
X137343011Y-40443000D01*
X136995834Y-40512058D01*
X136668801Y-40647519D01*
X136374479Y-40844179D01*
X136124179Y-41094479D01*
X135927519Y-41388801D01*
X135792058Y-41715834D01*
X135723000Y-42063011D01*
X135723000Y-42416989D01*
X135792058Y-42764166D01*
X135927519Y-43091199D01*
X136023000Y-43234096D01*
X136023001Y-45283000D01*
X106754096Y-45283000D01*
X106611199Y-45187519D01*
X106284166Y-45052058D01*
X105936989Y-44983000D01*
X105583011Y-44983000D01*
X105235834Y-45052058D01*
X104908801Y-45187519D01*
X104614479Y-45384179D01*
X104364179Y-45634479D01*
X104167519Y-45928801D01*
X104032058Y-46255834D01*
X103963000Y-46603011D01*
X103963000Y-46956989D01*
X104032058Y-47304166D01*
X104167519Y-47631199D01*
X104364179Y-47925521D01*
X104614479Y-48175821D01*
X104908801Y-48372481D01*
X105235834Y-48507942D01*
X105583011Y-48577000D01*
X105605658Y-48577000D01*
X105854479Y-48825821D01*
X106148801Y-49022481D01*
X106475834Y-49157942D01*
X106823011Y-49227000D01*
X106915658Y-49227000D01*
X107164479Y-49475821D01*
X107458801Y-49672481D01*
X107785834Y-49807942D01*
X108043235Y-49859142D01*
X108054179Y-49875521D01*
X108304479Y-50125821D01*
X108598801Y-50322481D01*
X108925834Y-50457942D01*
X109273011Y-50527000D01*
X109545658Y-50527000D01*
X109764479Y-50745821D01*
X110058801Y-50942481D01*
X110385834Y-51077942D01*
X110549215Y-51110441D01*
X110607519Y-51251199D01*
X110804179Y-51545521D01*
X111054479Y-51795821D01*
X111348801Y-51992481D01*
X111675834Y-52127942D01*
X111975487Y-52187547D01*
X111994179Y-52215521D01*
X112244479Y-52465821D01*
X112538801Y-52662481D01*
X112865834Y-52797942D01*
X113213011Y-52867000D01*
X113295658Y-52867000D01*
X113544479Y-53115821D01*
X113838801Y-53312481D01*
X114165834Y-53447942D01*
X114513011Y-53517000D01*
X114518485Y-53517000D01*
X114524179Y-53525521D01*
X114774479Y-53775821D01*
X115068801Y-53972481D01*
X115395834Y-54107942D01*
X115743011Y-54177000D01*
X115805122Y-54177000D01*
X115824179Y-54205521D01*
X116074479Y-54455821D01*
X116368801Y-54652481D01*
X116695834Y-54787942D01*
X117003089Y-54849059D01*
X117054179Y-54925521D01*
X117304479Y-55175821D01*
X117598801Y-55372481D01*
X117925834Y-55507942D01*
X118273011Y-55577000D01*
X118335658Y-55577000D01*
X118564479Y-55805821D01*
X118858801Y-56002481D01*
X119185834Y-56137942D01*
X119533011Y-56207000D01*
X119571713Y-56207000D01*
X119624179Y-56285521D01*
X119874479Y-56535821D01*
X120168801Y-56732481D01*
X120495834Y-56867942D01*
X120843011Y-56937000D01*
X120855658Y-56937000D01*
X121104479Y-57185821D01*
X121398801Y-57382481D01*
X121725834Y-57517942D01*
X122073011Y-57587000D01*
X122426989Y-57587000D01*
X122774166Y-57517942D01*
X123101199Y-57382481D01*
X123186890Y-57325224D01*
X123374179Y-57605521D01*
X123624479Y-57855821D01*
X123918801Y-58052481D01*
X124245834Y-58187942D01*
X124593011Y-58257000D01*
X124946989Y-58257000D01*
X125294166Y-58187942D01*
X125621199Y-58052481D01*
X125749132Y-57966999D01*
X125805779Y-57966999D01*
X125807519Y-57971199D01*
X126004179Y-58265521D01*
X126254479Y-58515821D01*
X126548801Y-58712481D01*
X126875834Y-58847942D01*
X127223011Y-58917000D01*
X127576989Y-58917000D01*
X127924166Y-58847942D01*
X128251199Y-58712481D01*
X128339216Y-58653670D01*
X128514179Y-58915521D01*
X128764479Y-59165821D01*
X128790186Y-59182998D01*
X124903528Y-59182998D01*
X124829998Y-59175756D01*
X124756468Y-59182998D01*
X124626464Y-59182998D01*
X124559062Y-59189637D01*
X124421199Y-59097519D01*
X124094166Y-58962058D01*
X123746989Y-58893000D01*
X123393011Y-58893000D01*
X123045834Y-58962058D01*
X122718801Y-59097519D01*
X122424479Y-59294179D01*
X122174179Y-59544479D01*
X121977519Y-59838801D01*
X121842058Y-60165834D01*
X121773000Y-60513011D01*
X121773000Y-60866989D01*
X121842058Y-61214166D01*
X121977519Y-61541199D01*
X122174179Y-61835521D01*
X122424479Y-62085821D01*
X122718801Y-62282481D01*
X123045834Y-62417942D01*
X123393011Y-62487000D01*
X123746989Y-62487000D01*
X124094166Y-62417942D01*
X124421199Y-62282481D01*
X124493096Y-62234441D01*
X124654180Y-62475520D01*
X124904480Y-62725820D01*
X125198802Y-62922480D01*
X125525835Y-63057941D01*
X125873012Y-63126999D01*
X126226990Y-63126999D01*
X126574167Y-63057941D01*
X126901200Y-62922480D01*
X127023782Y-62840573D01*
X127214179Y-63125521D01*
X127464479Y-63375821D01*
X127758801Y-63572481D01*
X128085834Y-63707942D01*
X128433011Y-63777000D01*
X128786989Y-63777000D01*
X129134166Y-63707942D01*
X129461199Y-63572481D01*
X129604098Y-63476999D01*
X129625779Y-63476999D01*
X129627519Y-63481199D01*
X129824179Y-63775521D01*
X130074479Y-64025821D01*
X130368801Y-64222481D01*
X130695834Y-64357942D01*
X131043011Y-64427000D01*
X131396989Y-64427000D01*
X131744166Y-64357942D01*
X132071199Y-64222481D01*
X132214096Y-64127000D01*
X143966470Y-64127000D01*
X144040000Y-64134242D01*
X144113530Y-64127000D01*
X144113538Y-64127000D01*
X144333463Y-64105339D01*
X144615649Y-64019739D01*
X144875713Y-63880732D01*
X145103660Y-63693660D01*
X145150539Y-63636538D01*
X150183001Y-58604076D01*
X150183001Y-60744236D01*
X141402727Y-69524511D01*
X141225072Y-69740985D01*
X141048921Y-70070538D01*
X141019027Y-70169085D01*
X115205414Y-70169085D01*
X101417010Y-56380682D01*
X101417010Y-32219318D01*
X103929319Y-29707010D01*
X139438512Y-29707010D01*
X139753001Y-30021499D01*
X139753000Y-32679710D01*
X139622058Y-32995834D01*
X139553000Y-33343011D01*
X139553000Y-33696989D01*
X139622058Y-34044166D01*
X139757519Y-34371199D01*
X139954179Y-34665521D01*
X140204479Y-34915821D01*
X140498801Y-35112481D01*
X140825834Y-35247942D01*
X141173011Y-35317000D01*
X141526989Y-35317000D01*
X141874166Y-35247942D01*
X142201199Y-35112481D01*
X142495521Y-34915821D01*
X142745821Y-34665521D01*
X142942481Y-34371199D01*
X143077942Y-34044166D01*
X143147000Y-33696989D01*
X143147000Y-33343011D01*
X143077942Y-32995834D01*
X142947000Y-32679711D01*
X142947000Y-30064550D01*
X142988801Y-30092481D01*
X143315834Y-30227942D01*
X143663011Y-30297000D01*
X144016989Y-30297000D01*
X144364166Y-30227942D01*
X144691199Y-30092481D01*
X144985521Y-29895821D01*
X145235821Y-29645521D01*
X145432481Y-29351199D01*
X145567942Y-29024166D01*
X145637000Y-28676989D01*
X145637000Y-28323011D01*
X145567942Y-27975834D01*
X145432481Y-27648801D01*
X145416671Y-27625140D01*
X145413893Y-27596934D01*
X145411525Y-27589126D01*
X145380003Y-27485216D01*
X145322574Y-27295898D01*
X145174282Y-27018461D01*
X145014632Y-26823928D01*
X150509809Y-26824152D01*
X150509809Y-26824152D01*
G37*
X150509809Y-26824152D02*
X150796547Y-26863893D01*
X151030995Y-26945034D01*
X151245219Y-27070170D01*
X151431054Y-27234529D01*
X151581426Y-27431852D01*
X151690606Y-27654625D01*
X151757483Y-27905804D01*
X151778005Y-28157855D01*
X151779234Y-42193579D01*
X151522729Y-42393072D01*
X151506157Y-42401930D01*
X151412293Y-42478962D01*
X151371867Y-42510403D01*
X151358329Y-42523249D01*
X151289629Y-42579630D01*
X151256951Y-42619448D01*
X151219594Y-42654897D01*
X151168306Y-42727463D01*
X151111930Y-42796158D01*
X151087651Y-42841580D01*
X151057923Y-42883642D01*
X151021777Y-42964822D01*
X150979887Y-43043192D01*
X150964935Y-43092481D01*
X150943986Y-43139531D01*
X150924372Y-43226202D01*
X150898576Y-43311240D01*
X150893528Y-43362497D01*
X150882159Y-43412732D01*
X150879831Y-43501559D01*
X150878000Y-43520148D01*
X150878000Y-43571414D01*
X150874820Y-43692744D01*
X150878000Y-43711254D01*
X150878000Y-44722929D01*
X150626989Y-44673000D01*
X150273011Y-44673000D01*
X149925834Y-44742058D01*
X149786747Y-44799670D01*
X149080539Y-44093462D01*
X149033660Y-44036340D01*
X148805713Y-43849268D01*
X148545649Y-43710261D01*
X148263463Y-43624661D01*
X148043538Y-43603000D01*
X148043530Y-43603000D01*
X147970000Y-43595758D01*
X147896470Y-43603000D01*
X143544096Y-43603000D01*
X143401199Y-43507519D01*
X143074166Y-43372058D01*
X142726989Y-43303000D01*
X142373011Y-43303000D01*
X142025834Y-43372058D01*
X141786829Y-43471057D01*
X141757942Y-43325834D01*
X141622481Y-42998801D01*
X141425821Y-42704479D01*
X141175521Y-42454179D01*
X140881199Y-42257519D01*
X140554166Y-42122058D01*
X140206989Y-42053000D01*
X139853011Y-42053000D01*
X139505834Y-42122058D01*
X139317000Y-42200275D01*
X139317000Y-42063011D01*
X139247942Y-41715834D01*
X139112481Y-41388801D01*
X138915821Y-41094479D01*
X138665521Y-40844179D01*
X138371199Y-40647519D01*
X138044166Y-40512058D01*
X137696989Y-40443000D01*
X137343011Y-40443000D01*
X136995834Y-40512058D01*
X136668801Y-40647519D01*
X136374479Y-40844179D01*
X136124179Y-41094479D01*
X135927519Y-41388801D01*
X135792058Y-41715834D01*
X135723000Y-42063011D01*
X135723000Y-42416989D01*
X135792058Y-42764166D01*
X135927519Y-43091199D01*
X136023000Y-43234096D01*
X136023001Y-45283000D01*
X106754096Y-45283000D01*
X106611199Y-45187519D01*
X106284166Y-45052058D01*
X105936989Y-44983000D01*
X105583011Y-44983000D01*
X105235834Y-45052058D01*
X104908801Y-45187519D01*
X104614479Y-45384179D01*
X104364179Y-45634479D01*
X104167519Y-45928801D01*
X104032058Y-46255834D01*
X103963000Y-46603011D01*
X103963000Y-46956989D01*
X104032058Y-47304166D01*
X104167519Y-47631199D01*
X104364179Y-47925521D01*
X104614479Y-48175821D01*
X104908801Y-48372481D01*
X105235834Y-48507942D01*
X105583011Y-48577000D01*
X105605658Y-48577000D01*
X105854479Y-48825821D01*
X106148801Y-49022481D01*
X106475834Y-49157942D01*
X106823011Y-49227000D01*
X106915658Y-49227000D01*
X107164479Y-49475821D01*
X107458801Y-49672481D01*
X107785834Y-49807942D01*
X108043235Y-49859142D01*
X108054179Y-49875521D01*
X108304479Y-50125821D01*
X108598801Y-50322481D01*
X108925834Y-50457942D01*
X109273011Y-50527000D01*
X109545658Y-50527000D01*
X109764479Y-50745821D01*
X110058801Y-50942481D01*
X110385834Y-51077942D01*
X110549215Y-51110441D01*
X110607519Y-51251199D01*
X110804179Y-51545521D01*
X111054479Y-51795821D01*
X111348801Y-51992481D01*
X111675834Y-52127942D01*
X111975487Y-52187547D01*
X111994179Y-52215521D01*
X112244479Y-52465821D01*
X112538801Y-52662481D01*
X112865834Y-52797942D01*
X113213011Y-52867000D01*
X113295658Y-52867000D01*
X113544479Y-53115821D01*
X113838801Y-53312481D01*
X114165834Y-53447942D01*
X114513011Y-53517000D01*
X114518485Y-53517000D01*
X114524179Y-53525521D01*
X114774479Y-53775821D01*
X115068801Y-53972481D01*
X115395834Y-54107942D01*
X115743011Y-54177000D01*
X115805122Y-54177000D01*
X115824179Y-54205521D01*
X116074479Y-54455821D01*
X116368801Y-54652481D01*
X116695834Y-54787942D01*
X117003089Y-54849059D01*
X117054179Y-54925521D01*
X117304479Y-55175821D01*
X117598801Y-55372481D01*
X117925834Y-55507942D01*
X118273011Y-55577000D01*
X118335658Y-55577000D01*
X118564479Y-55805821D01*
X118858801Y-56002481D01*
X119185834Y-56137942D01*
X119533011Y-56207000D01*
X119571713Y-56207000D01*
X119624179Y-56285521D01*
X119874479Y-56535821D01*
X120168801Y-56732481D01*
X120495834Y-56867942D01*
X120843011Y-56937000D01*
X120855658Y-56937000D01*
X121104479Y-57185821D01*
X121398801Y-57382481D01*
X121725834Y-57517942D01*
X122073011Y-57587000D01*
X122426989Y-57587000D01*
X122774166Y-57517942D01*
X123101199Y-57382481D01*
X123186890Y-57325224D01*
X123374179Y-57605521D01*
X123624479Y-57855821D01*
X123918801Y-58052481D01*
X124245834Y-58187942D01*
X124593011Y-58257000D01*
X124946989Y-58257000D01*
X125294166Y-58187942D01*
X125621199Y-58052481D01*
X125749132Y-57966999D01*
X125805779Y-57966999D01*
X125807519Y-57971199D01*
X126004179Y-58265521D01*
X126254479Y-58515821D01*
X126548801Y-58712481D01*
X126875834Y-58847942D01*
X127223011Y-58917000D01*
X127576989Y-58917000D01*
X127924166Y-58847942D01*
X128251199Y-58712481D01*
X128339216Y-58653670D01*
X128514179Y-58915521D01*
X128764479Y-59165821D01*
X128790186Y-59182998D01*
X124903528Y-59182998D01*
X124829998Y-59175756D01*
X124756468Y-59182998D01*
X124626464Y-59182998D01*
X124559062Y-59189637D01*
X124421199Y-59097519D01*
X124094166Y-58962058D01*
X123746989Y-58893000D01*
X123393011Y-58893000D01*
X123045834Y-58962058D01*
X122718801Y-59097519D01*
X122424479Y-59294179D01*
X122174179Y-59544479D01*
X121977519Y-59838801D01*
X121842058Y-60165834D01*
X121773000Y-60513011D01*
X121773000Y-60866989D01*
X121842058Y-61214166D01*
X121977519Y-61541199D01*
X122174179Y-61835521D01*
X122424479Y-62085821D01*
X122718801Y-62282481D01*
X123045834Y-62417942D01*
X123393011Y-62487000D01*
X123746989Y-62487000D01*
X124094166Y-62417942D01*
X124421199Y-62282481D01*
X124493096Y-62234441D01*
X124654180Y-62475520D01*
X124904480Y-62725820D01*
X125198802Y-62922480D01*
X125525835Y-63057941D01*
X125873012Y-63126999D01*
X126226990Y-63126999D01*
X126574167Y-63057941D01*
X126901200Y-62922480D01*
X127023782Y-62840573D01*
X127214179Y-63125521D01*
X127464479Y-63375821D01*
X127758801Y-63572481D01*
X128085834Y-63707942D01*
X128433011Y-63777000D01*
X128786989Y-63777000D01*
X129134166Y-63707942D01*
X129461199Y-63572481D01*
X129604098Y-63476999D01*
X129625779Y-63476999D01*
X129627519Y-63481199D01*
X129824179Y-63775521D01*
X130074479Y-64025821D01*
X130368801Y-64222481D01*
X130695834Y-64357942D01*
X131043011Y-64427000D01*
X131396989Y-64427000D01*
X131744166Y-64357942D01*
X132071199Y-64222481D01*
X132214096Y-64127000D01*
X143966470Y-64127000D01*
X144040000Y-64134242D01*
X144113530Y-64127000D01*
X144113538Y-64127000D01*
X144333463Y-64105339D01*
X144615649Y-64019739D01*
X144875713Y-63880732D01*
X145103660Y-63693660D01*
X145150539Y-63636538D01*
X150183001Y-58604076D01*
X150183001Y-60744236D01*
X141402727Y-69524511D01*
X141225072Y-69740985D01*
X141048921Y-70070538D01*
X141019027Y-70169085D01*
X115205414Y-70169085D01*
X101417010Y-56380682D01*
X101417010Y-32219318D01*
X103929319Y-29707010D01*
X139438512Y-29707010D01*
X139753001Y-30021499D01*
X139753000Y-32679710D01*
X139622058Y-32995834D01*
X139553000Y-33343011D01*
X139553000Y-33696989D01*
X139622058Y-34044166D01*
X139757519Y-34371199D01*
X139954179Y-34665521D01*
X140204479Y-34915821D01*
X140498801Y-35112481D01*
X140825834Y-35247942D01*
X141173011Y-35317000D01*
X141526989Y-35317000D01*
X141874166Y-35247942D01*
X142201199Y-35112481D01*
X142495521Y-34915821D01*
X142745821Y-34665521D01*
X142942481Y-34371199D01*
X143077942Y-34044166D01*
X143147000Y-33696989D01*
X143147000Y-33343011D01*
X143077942Y-32995834D01*
X142947000Y-32679711D01*
X142947000Y-30064550D01*
X142988801Y-30092481D01*
X143315834Y-30227942D01*
X143663011Y-30297000D01*
X144016989Y-30297000D01*
X144364166Y-30227942D01*
X144691199Y-30092481D01*
X144985521Y-29895821D01*
X145235821Y-29645521D01*
X145432481Y-29351199D01*
X145567942Y-29024166D01*
X145637000Y-28676989D01*
X145637000Y-28323011D01*
X145567942Y-27975834D01*
X145432481Y-27648801D01*
X145416671Y-27625140D01*
X145413893Y-27596934D01*
X145411525Y-27589126D01*
X145380003Y-27485216D01*
X145322574Y-27295898D01*
X145174282Y-27018461D01*
X145014632Y-26823928D01*
X150509809Y-26824152D01*
M02*
