G04 #@! TF.GenerationSoftware,KiCad,Pcbnew,(5.1.4)-1*
G04 #@! TF.CreationDate,2019-12-31T12:49:38+08:00*
G04 #@! TF.ProjectId,FH26W-45S-0.3SHW-DIP,46483236-572d-4343-9553-2d302e335348,rev?*
G04 #@! TF.SameCoordinates,Original*
G04 #@! TF.FileFunction,Soldermask,Bot*
G04 #@! TF.FilePolarity,Negative*
%FSLAX46Y46*%
G04 Gerber Fmt 4.6, Leading zero omitted, Abs format (unit mm)*
G04 Created by KiCad (PCBNEW (5.1.4)-1) date 2019-12-31 12:49:38*
%MOMM*%
%LPD*%
G04 APERTURE LIST*
%ADD10C,0.100000*%
G04 APERTURE END LIST*
D10*
G36*
X149517021Y-123606640D02*
G01*
X150026769Y-123817785D01*
X150026771Y-123817786D01*
X150485534Y-124124321D01*
X150875679Y-124514466D01*
X151182214Y-124973229D01*
X151182215Y-124973231D01*
X151393360Y-125482979D01*
X151501000Y-126024124D01*
X151501000Y-126575876D01*
X151393360Y-127117021D01*
X151182215Y-127626769D01*
X151182214Y-127626771D01*
X150875679Y-128085534D01*
X150485534Y-128475679D01*
X150026771Y-128782214D01*
X150026770Y-128782215D01*
X150026769Y-128782215D01*
X149517021Y-128993360D01*
X148975876Y-129101000D01*
X148424124Y-129101000D01*
X147882979Y-128993360D01*
X147373231Y-128782215D01*
X147373230Y-128782215D01*
X147373229Y-128782214D01*
X146914466Y-128475679D01*
X146524321Y-128085534D01*
X146217786Y-127626771D01*
X146217785Y-127626769D01*
X146006640Y-127117021D01*
X145899000Y-126575876D01*
X145899000Y-126024124D01*
X146006640Y-125482979D01*
X146217785Y-124973231D01*
X146217786Y-124973229D01*
X146524321Y-124514466D01*
X146914466Y-124124321D01*
X147373229Y-123817786D01*
X147373231Y-123817785D01*
X147882979Y-123606640D01*
X148424124Y-123499000D01*
X148975876Y-123499000D01*
X149517021Y-123606640D01*
X149517021Y-123606640D01*
G37*
G36*
X100217021Y-123606640D02*
G01*
X100726769Y-123817785D01*
X100726771Y-123817786D01*
X101185534Y-124124321D01*
X101575679Y-124514466D01*
X101882214Y-124973229D01*
X101882215Y-124973231D01*
X102093360Y-125482979D01*
X102201000Y-126024124D01*
X102201000Y-126575876D01*
X102093360Y-127117021D01*
X101882215Y-127626769D01*
X101882214Y-127626771D01*
X101575679Y-128085534D01*
X101185534Y-128475679D01*
X100726771Y-128782214D01*
X100726770Y-128782215D01*
X100726769Y-128782215D01*
X100217021Y-128993360D01*
X99675876Y-129101000D01*
X99124124Y-129101000D01*
X98582979Y-128993360D01*
X98073231Y-128782215D01*
X98073230Y-128782215D01*
X98073229Y-128782214D01*
X97614466Y-128475679D01*
X97224321Y-128085534D01*
X96917786Y-127626771D01*
X96917785Y-127626769D01*
X96706640Y-127117021D01*
X96599000Y-126575876D01*
X96599000Y-126024124D01*
X96706640Y-125482979D01*
X96917785Y-124973231D01*
X96917786Y-124973229D01*
X97224321Y-124514466D01*
X97614466Y-124124321D01*
X98073229Y-123817786D01*
X98073231Y-123817785D01*
X98582979Y-123606640D01*
X99124124Y-123499000D01*
X99675876Y-123499000D01*
X100217021Y-123606640D01*
X100217021Y-123606640D01*
G37*
G36*
X145186000Y-93951000D02*
G01*
X142534000Y-93951000D01*
X142534000Y-92289000D01*
X145186000Y-92289000D01*
X145186000Y-93951000D01*
X145186000Y-93951000D01*
G37*
G36*
X147474499Y-92748445D02*
G01*
X147511995Y-92759820D01*
X147546554Y-92778292D01*
X147576847Y-92803153D01*
X147601708Y-92833446D01*
X147620180Y-92868005D01*
X147631555Y-92905501D01*
X147636000Y-92950638D01*
X147636000Y-93689362D01*
X147631555Y-93734499D01*
X147620180Y-93771995D01*
X147601708Y-93806554D01*
X147576847Y-93836847D01*
X147546554Y-93861708D01*
X147511995Y-93880180D01*
X147474499Y-93891555D01*
X147429362Y-93896000D01*
X146790638Y-93896000D01*
X146745501Y-93891555D01*
X146708005Y-93880180D01*
X146673446Y-93861708D01*
X146643153Y-93836847D01*
X146618292Y-93806554D01*
X146599820Y-93771995D01*
X146588445Y-93734499D01*
X146584000Y-93689362D01*
X146584000Y-92950638D01*
X146588445Y-92905501D01*
X146599820Y-92868005D01*
X146618292Y-92833446D01*
X146643153Y-92803153D01*
X146673446Y-92778292D01*
X146708005Y-92759820D01*
X146745501Y-92748445D01*
X146790638Y-92744000D01*
X147429362Y-92744000D01*
X147474499Y-92748445D01*
X147474499Y-92748445D01*
G37*
G36*
X149174499Y-92738445D02*
G01*
X149211995Y-92749820D01*
X149246554Y-92768292D01*
X149276847Y-92793153D01*
X149301708Y-92823446D01*
X149320180Y-92858005D01*
X149331555Y-92895501D01*
X149336000Y-92940638D01*
X149336000Y-93679362D01*
X149331555Y-93724499D01*
X149320180Y-93761995D01*
X149301708Y-93796554D01*
X149276847Y-93826847D01*
X149246554Y-93851708D01*
X149211995Y-93870180D01*
X149174499Y-93881555D01*
X149129362Y-93886000D01*
X148490638Y-93886000D01*
X148445501Y-93881555D01*
X148408005Y-93870180D01*
X148373446Y-93851708D01*
X148343153Y-93826847D01*
X148318292Y-93796554D01*
X148299820Y-93761995D01*
X148288445Y-93724499D01*
X148284000Y-93679362D01*
X148284000Y-92940638D01*
X148288445Y-92895501D01*
X148299820Y-92858005D01*
X148318292Y-92823446D01*
X148343153Y-92793153D01*
X148373446Y-92768292D01*
X148408005Y-92749820D01*
X148445501Y-92738445D01*
X148490638Y-92734000D01*
X149129362Y-92734000D01*
X149174499Y-92738445D01*
X149174499Y-92738445D01*
G37*
G36*
X137734499Y-92658445D02*
G01*
X137771995Y-92669820D01*
X137806554Y-92688292D01*
X137836847Y-92713153D01*
X137861708Y-92743446D01*
X137880180Y-92778005D01*
X137891555Y-92815501D01*
X137896000Y-92860638D01*
X137896000Y-93599362D01*
X137891555Y-93644499D01*
X137880180Y-93681995D01*
X137861708Y-93716554D01*
X137836847Y-93746847D01*
X137806554Y-93771708D01*
X137771995Y-93790180D01*
X137734499Y-93801555D01*
X137689362Y-93806000D01*
X137050638Y-93806000D01*
X137005501Y-93801555D01*
X136968005Y-93790180D01*
X136933446Y-93771708D01*
X136903153Y-93746847D01*
X136878292Y-93716554D01*
X136859820Y-93681995D01*
X136848445Y-93644499D01*
X136844000Y-93599362D01*
X136844000Y-92860638D01*
X136848445Y-92815501D01*
X136859820Y-92778005D01*
X136878292Y-92743446D01*
X136903153Y-92713153D01*
X136933446Y-92688292D01*
X136968005Y-92669820D01*
X137005501Y-92658445D01*
X137050638Y-92654000D01*
X137689362Y-92654000D01*
X137734499Y-92658445D01*
X137734499Y-92658445D01*
G37*
G36*
X141328604Y-92448347D02*
G01*
X141365144Y-92459432D01*
X141398821Y-92477433D01*
X141428341Y-92501659D01*
X141452567Y-92531179D01*
X141470568Y-92564856D01*
X141481653Y-92601396D01*
X141486000Y-92645538D01*
X141486000Y-93594462D01*
X141481653Y-93638604D01*
X141470568Y-93675144D01*
X141452567Y-93708821D01*
X141428341Y-93738341D01*
X141398821Y-93762567D01*
X141365144Y-93780568D01*
X141328604Y-93791653D01*
X141284462Y-93796000D01*
X138935538Y-93796000D01*
X138891396Y-93791653D01*
X138854856Y-93780568D01*
X138821179Y-93762567D01*
X138791659Y-93738341D01*
X138767433Y-93708821D01*
X138749432Y-93675144D01*
X138738347Y-93638604D01*
X138734000Y-93594462D01*
X138734000Y-92645538D01*
X138738347Y-92601396D01*
X138749432Y-92564856D01*
X138767433Y-92531179D01*
X138791659Y-92501659D01*
X138821179Y-92477433D01*
X138854856Y-92459432D01*
X138891396Y-92448347D01*
X138935538Y-92444000D01*
X141284462Y-92444000D01*
X141328604Y-92448347D01*
X141328604Y-92448347D01*
G37*
G36*
X135914499Y-92648445D02*
G01*
X135951995Y-92659820D01*
X135986554Y-92678292D01*
X136016847Y-92703153D01*
X136041708Y-92733446D01*
X136060180Y-92768005D01*
X136071555Y-92805501D01*
X136076000Y-92850638D01*
X136076000Y-93589362D01*
X136071555Y-93634499D01*
X136060180Y-93671995D01*
X136041708Y-93706554D01*
X136016847Y-93736847D01*
X135986554Y-93761708D01*
X135951995Y-93780180D01*
X135914499Y-93791555D01*
X135869362Y-93796000D01*
X135230638Y-93796000D01*
X135185501Y-93791555D01*
X135148005Y-93780180D01*
X135113446Y-93761708D01*
X135083153Y-93736847D01*
X135058292Y-93706554D01*
X135039820Y-93671995D01*
X135028445Y-93634499D01*
X135024000Y-93589362D01*
X135024000Y-92850638D01*
X135028445Y-92805501D01*
X135039820Y-92768005D01*
X135058292Y-92733446D01*
X135083153Y-92703153D01*
X135113446Y-92678292D01*
X135148005Y-92659820D01*
X135185501Y-92648445D01*
X135230638Y-92644000D01*
X135869362Y-92644000D01*
X135914499Y-92648445D01*
X135914499Y-92648445D01*
G37*
G36*
X147474499Y-90998445D02*
G01*
X147511995Y-91009820D01*
X147546554Y-91028292D01*
X147576847Y-91053153D01*
X147601708Y-91083446D01*
X147620180Y-91118005D01*
X147631555Y-91155501D01*
X147636000Y-91200638D01*
X147636000Y-91939362D01*
X147631555Y-91984499D01*
X147620180Y-92021995D01*
X147601708Y-92056554D01*
X147576847Y-92086847D01*
X147546554Y-92111708D01*
X147511995Y-92130180D01*
X147474499Y-92141555D01*
X147429362Y-92146000D01*
X146790638Y-92146000D01*
X146745501Y-92141555D01*
X146708005Y-92130180D01*
X146673446Y-92111708D01*
X146643153Y-92086847D01*
X146618292Y-92056554D01*
X146599820Y-92021995D01*
X146588445Y-91984499D01*
X146584000Y-91939362D01*
X146584000Y-91200638D01*
X146588445Y-91155501D01*
X146599820Y-91118005D01*
X146618292Y-91083446D01*
X146643153Y-91053153D01*
X146673446Y-91028292D01*
X146708005Y-91009820D01*
X146745501Y-90998445D01*
X146790638Y-90994000D01*
X147429362Y-90994000D01*
X147474499Y-90998445D01*
X147474499Y-90998445D01*
G37*
G36*
X149174499Y-90988445D02*
G01*
X149211995Y-90999820D01*
X149246554Y-91018292D01*
X149276847Y-91043153D01*
X149301708Y-91073446D01*
X149320180Y-91108005D01*
X149331555Y-91145501D01*
X149336000Y-91190638D01*
X149336000Y-91929362D01*
X149331555Y-91974499D01*
X149320180Y-92011995D01*
X149301708Y-92046554D01*
X149276847Y-92076847D01*
X149246554Y-92101708D01*
X149211995Y-92120180D01*
X149174499Y-92131555D01*
X149129362Y-92136000D01*
X148490638Y-92136000D01*
X148445501Y-92131555D01*
X148408005Y-92120180D01*
X148373446Y-92101708D01*
X148343153Y-92076847D01*
X148318292Y-92046554D01*
X148299820Y-92011995D01*
X148288445Y-91974499D01*
X148284000Y-91929362D01*
X148284000Y-91190638D01*
X148288445Y-91145501D01*
X148299820Y-91108005D01*
X148318292Y-91073446D01*
X148343153Y-91043153D01*
X148373446Y-91018292D01*
X148408005Y-90999820D01*
X148445501Y-90988445D01*
X148490638Y-90984000D01*
X149129362Y-90984000D01*
X149174499Y-90988445D01*
X149174499Y-90988445D01*
G37*
G36*
X137734499Y-90908445D02*
G01*
X137771995Y-90919820D01*
X137806554Y-90938292D01*
X137836847Y-90963153D01*
X137861708Y-90993446D01*
X137880180Y-91028005D01*
X137891555Y-91065501D01*
X137896000Y-91110638D01*
X137896000Y-91849362D01*
X137891555Y-91894499D01*
X137880180Y-91931995D01*
X137861708Y-91966554D01*
X137836847Y-91996847D01*
X137806554Y-92021708D01*
X137771995Y-92040180D01*
X137734499Y-92051555D01*
X137689362Y-92056000D01*
X137050638Y-92056000D01*
X137005501Y-92051555D01*
X136968005Y-92040180D01*
X136933446Y-92021708D01*
X136903153Y-91996847D01*
X136878292Y-91966554D01*
X136859820Y-91931995D01*
X136848445Y-91894499D01*
X136844000Y-91849362D01*
X136844000Y-91110638D01*
X136848445Y-91065501D01*
X136859820Y-91028005D01*
X136878292Y-90993446D01*
X136903153Y-90963153D01*
X136933446Y-90938292D01*
X136968005Y-90919820D01*
X137005501Y-90908445D01*
X137050638Y-90904000D01*
X137689362Y-90904000D01*
X137734499Y-90908445D01*
X137734499Y-90908445D01*
G37*
G36*
X135914499Y-90898445D02*
G01*
X135951995Y-90909820D01*
X135986554Y-90928292D01*
X136016847Y-90953153D01*
X136041708Y-90983446D01*
X136060180Y-91018005D01*
X136071555Y-91055501D01*
X136076000Y-91100638D01*
X136076000Y-91839362D01*
X136071555Y-91884499D01*
X136060180Y-91921995D01*
X136041708Y-91956554D01*
X136016847Y-91986847D01*
X135986554Y-92011708D01*
X135951995Y-92030180D01*
X135914499Y-92041555D01*
X135869362Y-92046000D01*
X135230638Y-92046000D01*
X135185501Y-92041555D01*
X135148005Y-92030180D01*
X135113446Y-92011708D01*
X135083153Y-91986847D01*
X135058292Y-91956554D01*
X135039820Y-91921995D01*
X135028445Y-91884499D01*
X135024000Y-91839362D01*
X135024000Y-91100638D01*
X135028445Y-91055501D01*
X135039820Y-91018005D01*
X135058292Y-90983446D01*
X135083153Y-90953153D01*
X135113446Y-90928292D01*
X135148005Y-90909820D01*
X135185501Y-90898445D01*
X135230638Y-90894000D01*
X135869362Y-90894000D01*
X135914499Y-90898445D01*
X135914499Y-90898445D01*
G37*
G36*
X145186000Y-91251000D02*
G01*
X142534000Y-91251000D01*
X142534000Y-89589000D01*
X145186000Y-89589000D01*
X145186000Y-91251000D01*
X145186000Y-91251000D01*
G37*
G36*
X141328604Y-89648347D02*
G01*
X141365144Y-89659432D01*
X141398821Y-89677433D01*
X141428341Y-89701659D01*
X141452567Y-89731179D01*
X141470568Y-89764856D01*
X141481653Y-89801396D01*
X141486000Y-89845538D01*
X141486000Y-90794462D01*
X141481653Y-90838604D01*
X141470568Y-90875144D01*
X141452567Y-90908821D01*
X141428341Y-90938341D01*
X141398821Y-90962567D01*
X141365144Y-90980568D01*
X141328604Y-90991653D01*
X141284462Y-90996000D01*
X138935538Y-90996000D01*
X138891396Y-90991653D01*
X138854856Y-90980568D01*
X138821179Y-90962567D01*
X138791659Y-90938341D01*
X138767433Y-90908821D01*
X138749432Y-90875144D01*
X138738347Y-90838604D01*
X138734000Y-90794462D01*
X138734000Y-89845538D01*
X138738347Y-89801396D01*
X138749432Y-89764856D01*
X138767433Y-89731179D01*
X138791659Y-89701659D01*
X138821179Y-89677433D01*
X138854856Y-89659432D01*
X138891396Y-89648347D01*
X138935538Y-89644000D01*
X141284462Y-89644000D01*
X141328604Y-89648347D01*
X141328604Y-89648347D01*
G37*
G36*
X146074499Y-87798445D02*
G01*
X146111995Y-87809820D01*
X146146554Y-87828292D01*
X146176847Y-87853153D01*
X146201708Y-87883446D01*
X146220180Y-87918005D01*
X146231555Y-87955501D01*
X146236000Y-88000638D01*
X146236000Y-88639362D01*
X146231555Y-88684499D01*
X146220180Y-88721995D01*
X146201708Y-88756554D01*
X146176847Y-88786847D01*
X146146554Y-88811708D01*
X146111995Y-88830180D01*
X146074499Y-88841555D01*
X146029362Y-88846000D01*
X145290638Y-88846000D01*
X145245501Y-88841555D01*
X145208005Y-88830180D01*
X145173446Y-88811708D01*
X145143153Y-88786847D01*
X145118292Y-88756554D01*
X145099820Y-88721995D01*
X145088445Y-88684499D01*
X145084000Y-88639362D01*
X145084000Y-88000638D01*
X145088445Y-87955501D01*
X145099820Y-87918005D01*
X145118292Y-87883446D01*
X145143153Y-87853153D01*
X145173446Y-87828292D01*
X145208005Y-87809820D01*
X145245501Y-87798445D01*
X145290638Y-87794000D01*
X146029362Y-87794000D01*
X146074499Y-87798445D01*
X146074499Y-87798445D01*
G37*
G36*
X144324499Y-87798445D02*
G01*
X144361995Y-87809820D01*
X144396554Y-87828292D01*
X144426847Y-87853153D01*
X144451708Y-87883446D01*
X144470180Y-87918005D01*
X144481555Y-87955501D01*
X144486000Y-88000638D01*
X144486000Y-88639362D01*
X144481555Y-88684499D01*
X144470180Y-88721995D01*
X144451708Y-88756554D01*
X144426847Y-88786847D01*
X144396554Y-88811708D01*
X144361995Y-88830180D01*
X144324499Y-88841555D01*
X144279362Y-88846000D01*
X143540638Y-88846000D01*
X143495501Y-88841555D01*
X143458005Y-88830180D01*
X143423446Y-88811708D01*
X143393153Y-88786847D01*
X143368292Y-88756554D01*
X143349820Y-88721995D01*
X143338445Y-88684499D01*
X143334000Y-88639362D01*
X143334000Y-88000638D01*
X143338445Y-87955501D01*
X143349820Y-87918005D01*
X143368292Y-87883446D01*
X143393153Y-87853153D01*
X143423446Y-87828292D01*
X143458005Y-87809820D01*
X143495501Y-87798445D01*
X143540638Y-87794000D01*
X144279362Y-87794000D01*
X144324499Y-87798445D01*
X144324499Y-87798445D01*
G37*
G36*
X146298062Y-84998181D02*
G01*
X146332981Y-85008774D01*
X146365163Y-85025976D01*
X146393373Y-85049127D01*
X146416524Y-85077337D01*
X146433726Y-85109519D01*
X146444319Y-85144438D01*
X146448500Y-85186895D01*
X146448500Y-86653105D01*
X146444319Y-86695562D01*
X146433726Y-86730481D01*
X146416524Y-86762663D01*
X146393373Y-86790873D01*
X146365163Y-86814024D01*
X146332981Y-86831226D01*
X146298062Y-86841819D01*
X146255605Y-86846000D01*
X145114395Y-86846000D01*
X145071938Y-86841819D01*
X145037019Y-86831226D01*
X145004837Y-86814024D01*
X144976627Y-86790873D01*
X144953476Y-86762663D01*
X144936274Y-86730481D01*
X144925681Y-86695562D01*
X144921500Y-86653105D01*
X144921500Y-85186895D01*
X144925681Y-85144438D01*
X144936274Y-85109519D01*
X144953476Y-85077337D01*
X144976627Y-85049127D01*
X145004837Y-85025976D01*
X145037019Y-85008774D01*
X145071938Y-84998181D01*
X145114395Y-84994000D01*
X146255605Y-84994000D01*
X146298062Y-84998181D01*
X146298062Y-84998181D01*
G37*
G36*
X143323062Y-84998181D02*
G01*
X143357981Y-85008774D01*
X143390163Y-85025976D01*
X143418373Y-85049127D01*
X143441524Y-85077337D01*
X143458726Y-85109519D01*
X143469319Y-85144438D01*
X143473500Y-85186895D01*
X143473500Y-86653105D01*
X143469319Y-86695562D01*
X143458726Y-86730481D01*
X143441524Y-86762663D01*
X143418373Y-86790873D01*
X143390163Y-86814024D01*
X143357981Y-86831226D01*
X143323062Y-86841819D01*
X143280605Y-86846000D01*
X142139395Y-86846000D01*
X142096938Y-86841819D01*
X142062019Y-86831226D01*
X142029837Y-86814024D01*
X142001627Y-86790873D01*
X141978476Y-86762663D01*
X141961274Y-86730481D01*
X141950681Y-86695562D01*
X141946500Y-86653105D01*
X141946500Y-85186895D01*
X141950681Y-85144438D01*
X141961274Y-85109519D01*
X141978476Y-85077337D01*
X142001627Y-85049127D01*
X142029837Y-85025976D01*
X142062019Y-85008774D01*
X142096938Y-84998181D01*
X142139395Y-84994000D01*
X143280605Y-84994000D01*
X143323062Y-84998181D01*
X143323062Y-84998181D01*
G37*
G36*
X144421000Y-83161000D02*
G01*
X140519000Y-83161000D01*
X140519000Y-81059000D01*
X144421000Y-81059000D01*
X144421000Y-83161000D01*
X144421000Y-83161000D01*
G37*
G36*
X148104499Y-76533445D02*
G01*
X148141995Y-76544820D01*
X148176554Y-76563292D01*
X148206847Y-76588153D01*
X148231708Y-76618446D01*
X148250180Y-76653005D01*
X148261555Y-76690501D01*
X148266000Y-76735638D01*
X148266000Y-77474362D01*
X148261555Y-77519499D01*
X148250180Y-77556995D01*
X148231708Y-77591554D01*
X148206847Y-77621847D01*
X148176554Y-77646708D01*
X148141995Y-77665180D01*
X148104499Y-77676555D01*
X148059362Y-77681000D01*
X147420638Y-77681000D01*
X147375501Y-77676555D01*
X147338005Y-77665180D01*
X147303446Y-77646708D01*
X147273153Y-77621847D01*
X147248292Y-77591554D01*
X147229820Y-77556995D01*
X147218445Y-77519499D01*
X147214000Y-77474362D01*
X147214000Y-76735638D01*
X147218445Y-76690501D01*
X147229820Y-76653005D01*
X147248292Y-76618446D01*
X147273153Y-76588153D01*
X147303446Y-76563292D01*
X147338005Y-76544820D01*
X147375501Y-76533445D01*
X147420638Y-76529000D01*
X148059362Y-76529000D01*
X148104499Y-76533445D01*
X148104499Y-76533445D01*
G37*
G36*
X137804499Y-76498445D02*
G01*
X137841995Y-76509820D01*
X137876554Y-76528292D01*
X137906847Y-76553153D01*
X137931708Y-76583446D01*
X137950180Y-76618005D01*
X137961555Y-76655501D01*
X137966000Y-76700638D01*
X137966000Y-77439362D01*
X137961555Y-77484499D01*
X137950180Y-77521995D01*
X137931708Y-77556554D01*
X137906847Y-77586847D01*
X137876554Y-77611708D01*
X137841995Y-77630180D01*
X137804499Y-77641555D01*
X137759362Y-77646000D01*
X137120638Y-77646000D01*
X137075501Y-77641555D01*
X137038005Y-77630180D01*
X137003446Y-77611708D01*
X136973153Y-77586847D01*
X136948292Y-77556554D01*
X136929820Y-77521995D01*
X136918445Y-77484499D01*
X136914000Y-77439362D01*
X136914000Y-76700638D01*
X136918445Y-76655501D01*
X136929820Y-76618005D01*
X136948292Y-76583446D01*
X136973153Y-76553153D01*
X137003446Y-76528292D01*
X137038005Y-76509820D01*
X137075501Y-76498445D01*
X137120638Y-76494000D01*
X137759362Y-76494000D01*
X137804499Y-76498445D01*
X137804499Y-76498445D01*
G37*
G36*
X135954499Y-76498445D02*
G01*
X135991995Y-76509820D01*
X136026554Y-76528292D01*
X136056847Y-76553153D01*
X136081708Y-76583446D01*
X136100180Y-76618005D01*
X136111555Y-76655501D01*
X136116000Y-76700638D01*
X136116000Y-77439362D01*
X136111555Y-77484499D01*
X136100180Y-77521995D01*
X136081708Y-77556554D01*
X136056847Y-77586847D01*
X136026554Y-77611708D01*
X135991995Y-77630180D01*
X135954499Y-77641555D01*
X135909362Y-77646000D01*
X135270638Y-77646000D01*
X135225501Y-77641555D01*
X135188005Y-77630180D01*
X135153446Y-77611708D01*
X135123153Y-77586847D01*
X135098292Y-77556554D01*
X135079820Y-77521995D01*
X135068445Y-77484499D01*
X135064000Y-77439362D01*
X135064000Y-76700638D01*
X135068445Y-76655501D01*
X135079820Y-76618005D01*
X135098292Y-76583446D01*
X135123153Y-76553153D01*
X135153446Y-76528292D01*
X135188005Y-76509820D01*
X135225501Y-76498445D01*
X135270638Y-76494000D01*
X135909362Y-76494000D01*
X135954499Y-76498445D01*
X135954499Y-76498445D01*
G37*
G36*
X143271000Y-76861000D02*
G01*
X141669000Y-76861000D01*
X141669000Y-74759000D01*
X143271000Y-74759000D01*
X143271000Y-76861000D01*
X143271000Y-76861000D01*
G37*
G36*
X145571000Y-76861000D02*
G01*
X143969000Y-76861000D01*
X143969000Y-74759000D01*
X145571000Y-74759000D01*
X145571000Y-76861000D01*
X145571000Y-76861000D01*
G37*
G36*
X140971000Y-76861000D02*
G01*
X139369000Y-76861000D01*
X139369000Y-74759000D01*
X140971000Y-74759000D01*
X140971000Y-76861000D01*
X140971000Y-76861000D01*
G37*
G36*
X148104499Y-74783445D02*
G01*
X148141995Y-74794820D01*
X148176554Y-74813292D01*
X148206847Y-74838153D01*
X148231708Y-74868446D01*
X148250180Y-74903005D01*
X148261555Y-74940501D01*
X148266000Y-74985638D01*
X148266000Y-75724362D01*
X148261555Y-75769499D01*
X148250180Y-75806995D01*
X148231708Y-75841554D01*
X148206847Y-75871847D01*
X148176554Y-75896708D01*
X148141995Y-75915180D01*
X148104499Y-75926555D01*
X148059362Y-75931000D01*
X147420638Y-75931000D01*
X147375501Y-75926555D01*
X147338005Y-75915180D01*
X147303446Y-75896708D01*
X147273153Y-75871847D01*
X147248292Y-75841554D01*
X147229820Y-75806995D01*
X147218445Y-75769499D01*
X147214000Y-75724362D01*
X147214000Y-74985638D01*
X147218445Y-74940501D01*
X147229820Y-74903005D01*
X147248292Y-74868446D01*
X147273153Y-74838153D01*
X147303446Y-74813292D01*
X147338005Y-74794820D01*
X147375501Y-74783445D01*
X147420638Y-74779000D01*
X148059362Y-74779000D01*
X148104499Y-74783445D01*
X148104499Y-74783445D01*
G37*
G36*
X137804499Y-74748445D02*
G01*
X137841995Y-74759820D01*
X137876554Y-74778292D01*
X137906847Y-74803153D01*
X137931708Y-74833446D01*
X137950180Y-74868005D01*
X137961555Y-74905501D01*
X137966000Y-74950638D01*
X137966000Y-75689362D01*
X137961555Y-75734499D01*
X137950180Y-75771995D01*
X137931708Y-75806554D01*
X137906847Y-75836847D01*
X137876554Y-75861708D01*
X137841995Y-75880180D01*
X137804499Y-75891555D01*
X137759362Y-75896000D01*
X137120638Y-75896000D01*
X137075501Y-75891555D01*
X137038005Y-75880180D01*
X137003446Y-75861708D01*
X136973153Y-75836847D01*
X136948292Y-75806554D01*
X136929820Y-75771995D01*
X136918445Y-75734499D01*
X136914000Y-75689362D01*
X136914000Y-74950638D01*
X136918445Y-74905501D01*
X136929820Y-74868005D01*
X136948292Y-74833446D01*
X136973153Y-74803153D01*
X137003446Y-74778292D01*
X137038005Y-74759820D01*
X137075501Y-74748445D01*
X137120638Y-74744000D01*
X137759362Y-74744000D01*
X137804499Y-74748445D01*
X137804499Y-74748445D01*
G37*
G36*
X135954499Y-74748445D02*
G01*
X135991995Y-74759820D01*
X136026554Y-74778292D01*
X136056847Y-74803153D01*
X136081708Y-74833446D01*
X136100180Y-74868005D01*
X136111555Y-74905501D01*
X136116000Y-74950638D01*
X136116000Y-75689362D01*
X136111555Y-75734499D01*
X136100180Y-75771995D01*
X136081708Y-75806554D01*
X136056847Y-75836847D01*
X136026554Y-75861708D01*
X135991995Y-75880180D01*
X135954499Y-75891555D01*
X135909362Y-75896000D01*
X135270638Y-75896000D01*
X135225501Y-75891555D01*
X135188005Y-75880180D01*
X135153446Y-75861708D01*
X135123153Y-75836847D01*
X135098292Y-75806554D01*
X135079820Y-75771995D01*
X135068445Y-75734499D01*
X135064000Y-75689362D01*
X135064000Y-74950638D01*
X135068445Y-74905501D01*
X135079820Y-74868005D01*
X135098292Y-74833446D01*
X135123153Y-74803153D01*
X135153446Y-74778292D01*
X135188005Y-74759820D01*
X135225501Y-74748445D01*
X135270638Y-74744000D01*
X135909362Y-74744000D01*
X135954499Y-74748445D01*
X135954499Y-74748445D01*
G37*
G36*
X148611000Y-58826000D02*
G01*
X147509000Y-58826000D01*
X147509000Y-58174000D01*
X148611000Y-58174000D01*
X148611000Y-58826000D01*
X148611000Y-58826000D01*
G37*
G36*
X149671000Y-57921000D02*
G01*
X147919000Y-57921000D01*
X147919000Y-44319000D01*
X149671000Y-44319000D01*
X149671000Y-57921000D01*
X149671000Y-57921000D01*
G37*
G36*
X145911000Y-57601000D02*
G01*
X144309000Y-57601000D01*
X144309000Y-44599000D01*
X145911000Y-44599000D01*
X145911000Y-57601000D01*
X145911000Y-57601000D01*
G37*
G36*
X148611000Y-44066000D02*
G01*
X147509000Y-44066000D01*
X147509000Y-43414000D01*
X148611000Y-43414000D01*
X148611000Y-44066000D01*
X148611000Y-44066000D01*
G37*
G36*
X121551000Y-37301000D02*
G01*
X120449000Y-37301000D01*
X120449000Y-34049000D01*
X121551000Y-34049000D01*
X121551000Y-37301000D01*
X121551000Y-37301000D01*
G37*
G36*
X106311000Y-37301000D02*
G01*
X105209000Y-37301000D01*
X105209000Y-34049000D01*
X106311000Y-34049000D01*
X106311000Y-37301000D01*
X106311000Y-37301000D01*
G37*
G36*
X108851000Y-37301000D02*
G01*
X107749000Y-37301000D01*
X107749000Y-34049000D01*
X108851000Y-34049000D01*
X108851000Y-37301000D01*
X108851000Y-37301000D01*
G37*
G36*
X111391000Y-37301000D02*
G01*
X110289000Y-37301000D01*
X110289000Y-34049000D01*
X111391000Y-34049000D01*
X111391000Y-37301000D01*
X111391000Y-37301000D01*
G37*
G36*
X113931000Y-37301000D02*
G01*
X112829000Y-37301000D01*
X112829000Y-34049000D01*
X113931000Y-34049000D01*
X113931000Y-37301000D01*
X113931000Y-37301000D01*
G37*
G36*
X116471000Y-37301000D02*
G01*
X115369000Y-37301000D01*
X115369000Y-34049000D01*
X116471000Y-34049000D01*
X116471000Y-37301000D01*
X116471000Y-37301000D01*
G37*
G36*
X119011000Y-37301000D02*
G01*
X117909000Y-37301000D01*
X117909000Y-34049000D01*
X119011000Y-34049000D01*
X119011000Y-37301000D01*
X119011000Y-37301000D01*
G37*
G36*
X144411000Y-37301000D02*
G01*
X143309000Y-37301000D01*
X143309000Y-34049000D01*
X144411000Y-34049000D01*
X144411000Y-37301000D01*
X144411000Y-37301000D01*
G37*
G36*
X139331000Y-37301000D02*
G01*
X138229000Y-37301000D01*
X138229000Y-34049000D01*
X139331000Y-34049000D01*
X139331000Y-37301000D01*
X139331000Y-37301000D01*
G37*
G36*
X136791000Y-37301000D02*
G01*
X135689000Y-37301000D01*
X135689000Y-34049000D01*
X136791000Y-34049000D01*
X136791000Y-37301000D01*
X136791000Y-37301000D01*
G37*
G36*
X134251000Y-37301000D02*
G01*
X133149000Y-37301000D01*
X133149000Y-34049000D01*
X134251000Y-34049000D01*
X134251000Y-37301000D01*
X134251000Y-37301000D01*
G37*
G36*
X131711000Y-37301000D02*
G01*
X130609000Y-37301000D01*
X130609000Y-34049000D01*
X131711000Y-34049000D01*
X131711000Y-37301000D01*
X131711000Y-37301000D01*
G37*
G36*
X129171000Y-37301000D02*
G01*
X128069000Y-37301000D01*
X128069000Y-34049000D01*
X129171000Y-34049000D01*
X129171000Y-37301000D01*
X129171000Y-37301000D01*
G37*
G36*
X124091000Y-37301000D02*
G01*
X122989000Y-37301000D01*
X122989000Y-34049000D01*
X124091000Y-34049000D01*
X124091000Y-37301000D01*
X124091000Y-37301000D01*
G37*
G36*
X126631000Y-37301000D02*
G01*
X125529000Y-37301000D01*
X125529000Y-34049000D01*
X126631000Y-34049000D01*
X126631000Y-37301000D01*
X126631000Y-37301000D01*
G37*
G36*
X141871000Y-37301000D02*
G01*
X140769000Y-37301000D01*
X140769000Y-34049000D01*
X141871000Y-34049000D01*
X141871000Y-37301000D01*
X141871000Y-37301000D01*
G37*
G36*
X144411000Y-32251000D02*
G01*
X143309000Y-32251000D01*
X143309000Y-28999000D01*
X144411000Y-28999000D01*
X144411000Y-32251000D01*
X144411000Y-32251000D01*
G37*
G36*
X141871000Y-32251000D02*
G01*
X140769000Y-32251000D01*
X140769000Y-28999000D01*
X141871000Y-28999000D01*
X141871000Y-32251000D01*
X141871000Y-32251000D01*
G37*
G36*
X139331000Y-32251000D02*
G01*
X138229000Y-32251000D01*
X138229000Y-28999000D01*
X139331000Y-28999000D01*
X139331000Y-32251000D01*
X139331000Y-32251000D01*
G37*
G36*
X136791000Y-32251000D02*
G01*
X135689000Y-32251000D01*
X135689000Y-28999000D01*
X136791000Y-28999000D01*
X136791000Y-32251000D01*
X136791000Y-32251000D01*
G37*
G36*
X134251000Y-32251000D02*
G01*
X133149000Y-32251000D01*
X133149000Y-28999000D01*
X134251000Y-28999000D01*
X134251000Y-32251000D01*
X134251000Y-32251000D01*
G37*
G36*
X119011000Y-32251000D02*
G01*
X117909000Y-32251000D01*
X117909000Y-28999000D01*
X119011000Y-28999000D01*
X119011000Y-32251000D01*
X119011000Y-32251000D01*
G37*
G36*
X106311000Y-32251000D02*
G01*
X105209000Y-32251000D01*
X105209000Y-28999000D01*
X106311000Y-28999000D01*
X106311000Y-32251000D01*
X106311000Y-32251000D01*
G37*
G36*
X121551000Y-32251000D02*
G01*
X120449000Y-32251000D01*
X120449000Y-28999000D01*
X121551000Y-28999000D01*
X121551000Y-32251000D01*
X121551000Y-32251000D01*
G37*
G36*
X124091000Y-32251000D02*
G01*
X122989000Y-32251000D01*
X122989000Y-28999000D01*
X124091000Y-28999000D01*
X124091000Y-32251000D01*
X124091000Y-32251000D01*
G37*
G36*
X111391000Y-32251000D02*
G01*
X110289000Y-32251000D01*
X110289000Y-28999000D01*
X111391000Y-28999000D01*
X111391000Y-32251000D01*
X111391000Y-32251000D01*
G37*
G36*
X126631000Y-32251000D02*
G01*
X125529000Y-32251000D01*
X125529000Y-28999000D01*
X126631000Y-28999000D01*
X126631000Y-32251000D01*
X126631000Y-32251000D01*
G37*
G36*
X113931000Y-32251000D02*
G01*
X112829000Y-32251000D01*
X112829000Y-28999000D01*
X113931000Y-28999000D01*
X113931000Y-32251000D01*
X113931000Y-32251000D01*
G37*
G36*
X129171000Y-32251000D02*
G01*
X128069000Y-32251000D01*
X128069000Y-28999000D01*
X129171000Y-28999000D01*
X129171000Y-32251000D01*
X129171000Y-32251000D01*
G37*
G36*
X116471000Y-32251000D02*
G01*
X115369000Y-32251000D01*
X115369000Y-28999000D01*
X116471000Y-28999000D01*
X116471000Y-32251000D01*
X116471000Y-32251000D01*
G37*
G36*
X108851000Y-32251000D02*
G01*
X107749000Y-32251000D01*
X107749000Y-28999000D01*
X108851000Y-28999000D01*
X108851000Y-32251000D01*
X108851000Y-32251000D01*
G37*
G36*
X131711000Y-32251000D02*
G01*
X130609000Y-32251000D01*
X130609000Y-28999000D01*
X131711000Y-28999000D01*
X131711000Y-32251000D01*
X131711000Y-32251000D01*
G37*
M02*
