M48
; DRILL file {KiCad (5.1.4)-1} date 2019/12/6 9:56:08
; FORMAT={-:-/ absolute / metric / decimal}
; #@! TF.CreationDate,2019-12-06T09:56:08+08:00
; #@! TF.GenerationSoftware,Kicad,Pcbnew,(5.1.4)-1
; #@! TF.FileFunction,Plated,1,2,PTH
FMAT,2
METRIC
T1C0.400
T2C0.550
T3C0.850
T4C1.000
%
G90
G05
T1
X104.14Y-167.64
X106.68Y-167.64
X106.68Y-170.18
X108.32Y-110.8
X109.22Y-167.64
X109.22Y-170.18
X109.26Y-115.87
X110.306Y-118.604
X110.525Y-112.375
X111.7Y-115.6
X111.76Y-167.64
X112.775Y-117.37
X112.91Y-108.29
X113.175Y-116.38
X114.225Y-116.38
X114.3Y-167.64
X115.74Y-117.17
X115.94Y-142.18
X116.17Y-106.74
X116.383Y-143.517
X116.57Y-102.51
X116.84Y-167.64
X116.88Y-169.12
X117.052Y-142.398
X117.91Y-140.62
X118.884Y-140.701
X119.505Y-133.21
X119.818Y-154.628
X119.915Y-131.2
X120.457Y-132.903
X120.83Y-155.56
X120.98Y-114.45
X120.98Y-123.15
X120.98Y-126.34
X120.98Y-127.43
X120.99Y-124.21
X121.52Y-131.685
X121.98Y-133.88
X122.687Y-113.651
X122.7Y-130.3
X123.46Y-156.69
X123.737Y-113.651
X123.74Y-116.05
X124.46Y-138.78
X124.49Y-137.71
X125.09Y-116.05
X125.56Y-139.95
X125.62Y-138.93
X125.66Y-157.62
X125.95Y-122.1
X126.12Y-158.97
X126.523Y-163.92
X126.65Y-140.02
X127.0Y-104.14
X127.0Y-106.68
X127.0Y-109.22
X127.0Y-111.76
X127.01Y-153.23
X127.31Y-123.38
X127.57Y-140.58
X127.71Y-159.07
X127.73Y-161.04
X127.86Y-164.62
X127.91Y-119.7
X128.62Y-123.42
X129.04Y-153.64
X129.15Y-155.45
X129.32Y-118.32
X129.495Y-117.11
X129.54Y-104.14
X129.54Y-106.68
X129.54Y-109.22
X129.54Y-114.3
X130.01Y-156.18
X131.74Y-165.86
X131.75Y-166.93
X131.995Y-150.192
X132.008Y-163.4
X132.08Y-111.76
X132.08Y-114.3
X133.72Y-171.24
X133.93Y-135.822
X134.23Y-172.916
X134.42Y-141.99
X134.511Y-171.82
X134.62Y-104.14
X134.62Y-106.68
X134.62Y-109.22
X134.62Y-111.76
X134.62Y-114.3
X135.16Y-173.53
X136.42Y-136.66
X136.66Y-153.11
X136.81Y-170.84
X137.81Y-170.51
X138.44Y-171.71
X138.65Y-169.03
X139.0Y-113.02
X143.06Y-167.66
X149.34Y-167.64
X151.88Y-167.64
X151.88Y-170.18
X153.52Y-110.8
X154.42Y-167.64
X154.42Y-170.18
X154.46Y-115.87
X155.506Y-118.604
X155.725Y-112.375
X156.9Y-115.6
X156.96Y-167.64
X157.975Y-117.37
X158.11Y-108.29
X158.375Y-116.38
X159.425Y-116.38
X159.5Y-167.64
X160.94Y-117.17
X161.14Y-142.18
X161.37Y-106.74
X161.583Y-143.517
X161.77Y-102.51
X162.04Y-167.64
X162.08Y-169.12
X162.252Y-142.398
X163.11Y-140.62
X164.084Y-140.701
X164.705Y-133.21
X165.018Y-154.628
X165.115Y-131.2
X165.657Y-132.903
X166.03Y-155.56
X166.18Y-114.45
X166.18Y-123.15
X166.18Y-126.34
X166.18Y-127.43
X166.19Y-124.21
X166.72Y-131.685
X167.18Y-133.88
X167.887Y-113.651
X167.9Y-130.3
X168.66Y-156.69
X168.937Y-113.651
X168.94Y-116.05
X169.66Y-138.78
X169.69Y-137.71
X170.29Y-116.05
X170.76Y-139.95
X170.82Y-138.93
X170.86Y-157.62
X171.15Y-122.1
X171.32Y-158.97
X171.723Y-163.92
X171.85Y-140.02
X172.2Y-104.14
X172.2Y-106.68
X172.2Y-109.22
X172.2Y-111.76
X172.21Y-153.23
X172.51Y-123.38
X172.77Y-140.58
X172.91Y-159.07
X172.93Y-161.04
X173.06Y-164.62
X173.11Y-119.7
X173.82Y-123.42
X174.24Y-153.64
X174.35Y-155.45
X174.52Y-118.32
X174.695Y-117.11
X174.74Y-104.14
X174.74Y-106.68
X174.74Y-109.22
X174.74Y-114.3
X175.21Y-156.18
X176.94Y-165.86
X176.95Y-166.93
X177.195Y-150.192
X177.208Y-163.4
X177.28Y-111.76
X177.28Y-114.3
X178.92Y-171.24
X179.13Y-135.822
X179.43Y-172.916
X179.62Y-141.99
X179.711Y-171.82
X179.82Y-104.14
X179.82Y-106.68
X179.82Y-109.22
X179.82Y-111.76
X179.82Y-114.3
X180.36Y-173.53
X181.62Y-136.66
X181.86Y-153.11
X182.01Y-170.84
X183.01Y-170.51
X183.64Y-171.71
X183.85Y-169.03
X184.2Y-113.02
X188.26Y-167.66
T4
X129.41Y-100.55
X131.95Y-100.55
X134.49Y-100.55
X137.03Y-100.55
X184.26Y-115.78
X184.26Y-118.32
X184.26Y-120.86
X184.26Y-123.4
X184.26Y-125.94
X184.26Y-128.48
X184.26Y-131.02
X184.26Y-133.56
X184.26Y-136.1
X184.26Y-138.64
X184.26Y-141.18
X184.26Y-143.72
X184.26Y-146.26
X184.26Y-148.8
X184.26Y-151.34
X184.26Y-153.88
X184.26Y-156.42
X184.26Y-158.96
X184.26Y-161.5
X184.26Y-164.04
X186.8Y-115.78
X186.8Y-118.32
X186.8Y-120.86
X186.8Y-123.4
X186.8Y-125.94
X186.8Y-128.48
X186.8Y-131.02
X186.8Y-133.56
X186.8Y-136.1
X186.8Y-138.64
X186.8Y-141.18
X186.8Y-143.72
X186.8Y-146.26
X186.8Y-148.8
X186.8Y-151.34
X186.8Y-153.88
X186.8Y-156.42
X186.8Y-158.96
X186.8Y-161.5
X186.8Y-164.04
X148.67Y-115.72
X148.67Y-118.26
X148.67Y-120.8
X148.67Y-123.34
X148.67Y-125.88
X148.67Y-128.42
X148.67Y-130.96
X148.67Y-133.5
X148.67Y-136.04
X148.67Y-138.58
X148.67Y-141.12
X148.67Y-143.66
X148.67Y-146.2
X148.67Y-148.74
X148.67Y-151.28
X148.67Y-153.82
X148.67Y-156.36
X148.67Y-158.9
X148.67Y-161.44
X148.67Y-163.98
X151.21Y-115.72
X151.21Y-118.26
X151.21Y-120.8
X151.21Y-123.34
X151.21Y-125.88
X151.21Y-128.42
X151.21Y-130.96
X151.21Y-133.5
X151.21Y-136.04
X151.21Y-138.58
X151.21Y-141.12
X151.21Y-143.66
X151.21Y-146.2
X151.21Y-148.74
X151.21Y-151.28
X151.21Y-153.82
X151.21Y-156.36
X151.21Y-158.9
X151.21Y-161.44
X151.21Y-163.98
X139.06Y-115.78
X139.06Y-118.32
X139.06Y-120.86
X139.06Y-123.4
X139.06Y-125.94
X139.06Y-128.48
X139.06Y-131.02
X139.06Y-133.56
X139.06Y-136.1
X139.06Y-138.64
X139.06Y-141.18
X139.06Y-143.72
X139.06Y-146.26
X139.06Y-148.8
X139.06Y-151.34
X139.06Y-153.88
X139.06Y-156.42
X139.06Y-158.96
X139.06Y-161.5
X139.06Y-164.04
X141.6Y-115.78
X141.6Y-118.32
X141.6Y-120.86
X141.6Y-123.4
X141.6Y-125.94
X141.6Y-128.48
X141.6Y-131.02
X141.6Y-133.56
X141.6Y-136.1
X141.6Y-138.64
X141.6Y-141.18
X141.6Y-143.72
X141.6Y-146.26
X141.6Y-148.8
X141.6Y-151.34
X141.6Y-153.88
X141.6Y-156.42
X141.6Y-158.96
X141.6Y-161.5
X141.6Y-164.04
X103.44Y-174.63
X103.44Y-177.17
X105.98Y-174.63
X105.98Y-177.17
X108.52Y-174.63
X108.52Y-177.17
X111.06Y-174.63
X111.06Y-177.17
X113.6Y-174.63
X113.6Y-177.17
X116.14Y-174.63
X116.14Y-177.17
X118.68Y-174.63
X118.68Y-177.17
X121.22Y-174.63
X121.22Y-177.17
X123.76Y-174.63
X123.76Y-177.17
X126.3Y-174.63
X126.3Y-177.17
X128.84Y-174.63
X128.84Y-177.17
X131.38Y-174.63
X131.38Y-177.17
X133.92Y-174.63
X133.92Y-177.17
X136.46Y-174.63
X136.46Y-177.17
X139.0Y-174.63
X139.0Y-177.17
X141.54Y-174.63
X141.54Y-177.17
X174.61Y-100.55
X177.15Y-100.55
X179.69Y-100.55
X182.23Y-100.55
X103.47Y-115.72
X103.47Y-118.26
X103.47Y-120.8
X103.47Y-123.34
X103.47Y-125.88
X103.47Y-128.42
X103.47Y-130.96
X103.47Y-133.5
X103.47Y-136.04
X103.47Y-138.58
X103.47Y-141.12
X103.47Y-143.66
X103.47Y-146.2
X103.47Y-148.74
X103.47Y-151.28
X103.47Y-153.82
X103.47Y-156.36
X103.47Y-158.9
X103.47Y-161.44
X103.47Y-163.98
X106.01Y-115.72
X106.01Y-118.26
X106.01Y-120.8
X106.01Y-123.34
X106.01Y-125.88
X106.01Y-128.42
X106.01Y-130.96
X106.01Y-133.5
X106.01Y-136.04
X106.01Y-138.58
X106.01Y-141.12
X106.01Y-143.66
X106.01Y-146.2
X106.01Y-148.74
X106.01Y-151.28
X106.01Y-153.82
X106.01Y-156.36
X106.01Y-158.9
X106.01Y-161.44
X106.01Y-163.98
X148.64Y-174.63
X148.64Y-177.17
X151.18Y-174.63
X151.18Y-177.17
X153.72Y-174.63
X153.72Y-177.17
X156.26Y-174.63
X156.26Y-177.17
X158.8Y-174.63
X158.8Y-177.17
X161.34Y-174.63
X161.34Y-177.17
X163.88Y-174.63
X163.88Y-177.17
X166.42Y-174.63
X166.42Y-177.17
X168.96Y-174.63
X168.96Y-177.17
X171.5Y-174.63
X171.5Y-177.17
X174.04Y-174.63
X174.04Y-177.17
X176.58Y-174.63
X176.58Y-177.17
X179.12Y-174.63
X179.12Y-177.17
X181.66Y-174.63
X181.66Y-177.17
X184.2Y-174.63
X184.2Y-177.17
X186.74Y-174.63
X186.74Y-177.17
T2
G00X163.985Y-98.595
M15
G01X163.985Y-99.245
M16
G05
G00X171.735Y-98.595
M15
G01X171.735Y-99.245
M16
G05
G00X118.785Y-98.595
M15
G01X118.785Y-99.245
M16
G05
G00X126.535Y-98.595
M15
G01X126.535Y-99.245
M16
G05
T3
G00X164.135Y-102.445
M15
G01X164.135Y-102.995
M16
G05
G00X171.585Y-102.445
M15
G01X171.585Y-102.995
M16
G05
G00X118.935Y-102.445
M15
G01X118.935Y-102.995
M16
G05
G00X126.385Y-102.445
M15
G01X126.385Y-102.995
M16
G05
T0
M30
