G04 #@! TF.GenerationSoftware,KiCad,Pcbnew,(5.1.4)-1*
G04 #@! TF.CreationDate,2019-12-06T09:56:12+08:00*
G04 #@! TF.ProjectId,STM32F407VTE6-SOCKET_1x2,53544d33-3246-4343-9037-565445362d53,rev?*
G04 #@! TF.SameCoordinates,Original*
G04 #@! TF.FileFunction,Legend,Bot*
G04 #@! TF.FilePolarity,Positive*
%FSLAX46Y46*%
G04 Gerber Fmt 4.6, Leading zero omitted, Abs format (unit mm)*
G04 Created by KiCad (PCBNEW (5.1.4)-1) date 2019-12-06 09:56:12*
%MOMM*%
%LPD*%
G04 APERTURE LIST*
%ADD10C,0.150000*%
%ADD11C,0.120000*%
%ADD12C,0.200000*%
G04 APERTURE END LIST*
D10*
X171723333Y-141692380D02*
X171723333Y-142406666D01*
X171770952Y-142549523D01*
X171866190Y-142644761D01*
X172009047Y-142692380D01*
X172104285Y-142692380D01*
X170770952Y-142692380D02*
X171247142Y-142692380D01*
X171247142Y-141692380D01*
X169866190Y-142597142D02*
X169913809Y-142644761D01*
X170056666Y-142692380D01*
X170151904Y-142692380D01*
X170294761Y-142644761D01*
X170390000Y-142549523D01*
X170437619Y-142454285D01*
X170485238Y-142263809D01*
X170485238Y-142120952D01*
X170437619Y-141930476D01*
X170390000Y-141835238D01*
X170294761Y-141740000D01*
X170151904Y-141692380D01*
X170056666Y-141692380D01*
X169913809Y-141740000D01*
X169866190Y-141787619D01*
X169151904Y-141692380D02*
X169151904Y-142406666D01*
X169199523Y-142549523D01*
X169294761Y-142644761D01*
X169437619Y-142692380D01*
X169532857Y-142692380D01*
X168199523Y-142692380D02*
X168675714Y-142692380D01*
X168675714Y-141692380D01*
X167294761Y-142597142D02*
X167342380Y-142644761D01*
X167485238Y-142692380D01*
X167580476Y-142692380D01*
X167723333Y-142644761D01*
X167818571Y-142549523D01*
X167866190Y-142454285D01*
X167913809Y-142263809D01*
X167913809Y-142120952D01*
X167866190Y-141930476D01*
X167818571Y-141835238D01*
X167723333Y-141740000D01*
X167580476Y-141692380D01*
X167485238Y-141692380D01*
X167342380Y-141740000D01*
X167294761Y-141787619D01*
X166580476Y-141692380D02*
X166580476Y-142406666D01*
X166628095Y-142549523D01*
X166723333Y-142644761D01*
X166866190Y-142692380D01*
X166961428Y-142692380D01*
X165628095Y-142692380D02*
X166104285Y-142692380D01*
X166104285Y-141692380D01*
X164723333Y-142597142D02*
X164770952Y-142644761D01*
X164913809Y-142692380D01*
X165009047Y-142692380D01*
X165151904Y-142644761D01*
X165247142Y-142549523D01*
X165294761Y-142454285D01*
X165342380Y-142263809D01*
X165342380Y-142120952D01*
X165294761Y-141930476D01*
X165247142Y-141835238D01*
X165151904Y-141740000D01*
X165009047Y-141692380D01*
X164913809Y-141692380D01*
X164770952Y-141740000D01*
X164723333Y-141787619D01*
X126523333Y-141692380D02*
X126523333Y-142406666D01*
X126570952Y-142549523D01*
X126666190Y-142644761D01*
X126809047Y-142692380D01*
X126904285Y-142692380D01*
X125570952Y-142692380D02*
X126047142Y-142692380D01*
X126047142Y-141692380D01*
X124666190Y-142597142D02*
X124713809Y-142644761D01*
X124856666Y-142692380D01*
X124951904Y-142692380D01*
X125094761Y-142644761D01*
X125190000Y-142549523D01*
X125237619Y-142454285D01*
X125285238Y-142263809D01*
X125285238Y-142120952D01*
X125237619Y-141930476D01*
X125190000Y-141835238D01*
X125094761Y-141740000D01*
X124951904Y-141692380D01*
X124856666Y-141692380D01*
X124713809Y-141740000D01*
X124666190Y-141787619D01*
X123951904Y-141692380D02*
X123951904Y-142406666D01*
X123999523Y-142549523D01*
X124094761Y-142644761D01*
X124237619Y-142692380D01*
X124332857Y-142692380D01*
X122999523Y-142692380D02*
X123475714Y-142692380D01*
X123475714Y-141692380D01*
X122094761Y-142597142D02*
X122142380Y-142644761D01*
X122285238Y-142692380D01*
X122380476Y-142692380D01*
X122523333Y-142644761D01*
X122618571Y-142549523D01*
X122666190Y-142454285D01*
X122713809Y-142263809D01*
X122713809Y-142120952D01*
X122666190Y-141930476D01*
X122618571Y-141835238D01*
X122523333Y-141740000D01*
X122380476Y-141692380D01*
X122285238Y-141692380D01*
X122142380Y-141740000D01*
X122094761Y-141787619D01*
X121380476Y-141692380D02*
X121380476Y-142406666D01*
X121428095Y-142549523D01*
X121523333Y-142644761D01*
X121666190Y-142692380D01*
X121761428Y-142692380D01*
X120428095Y-142692380D02*
X120904285Y-142692380D01*
X120904285Y-141692380D01*
X119523333Y-142597142D02*
X119570952Y-142644761D01*
X119713809Y-142692380D01*
X119809047Y-142692380D01*
X119951904Y-142644761D01*
X120047142Y-142549523D01*
X120094761Y-142454285D01*
X120142380Y-142263809D01*
X120142380Y-142120952D01*
X120094761Y-141930476D01*
X120047142Y-141835238D01*
X119951904Y-141740000D01*
X119809047Y-141692380D01*
X119713809Y-141692380D01*
X119570952Y-141740000D01*
X119523333Y-141787619D01*
D11*
X154633733Y-114080000D02*
X154976267Y-114080000D01*
X154633733Y-113060000D02*
X154976267Y-113060000D01*
X158463733Y-164790000D02*
X158806267Y-164790000D01*
X158463733Y-163770000D02*
X158806267Y-163770000D01*
X183560000Y-99110000D02*
X173280000Y-99110000D01*
X173280000Y-99110000D02*
X173280000Y-96450000D01*
X173280000Y-96450000D02*
X183560000Y-96450000D01*
X183560000Y-96450000D02*
X183560000Y-99110000D01*
X182610000Y-96450000D02*
X182610000Y-90450000D01*
X182610000Y-90450000D02*
X181850000Y-90450000D01*
X181850000Y-90450000D02*
X181850000Y-96450000D01*
X182550000Y-96450000D02*
X182550000Y-90450000D01*
X182430000Y-96450000D02*
X182430000Y-90450000D01*
X182310000Y-96450000D02*
X182310000Y-90450000D01*
X182190000Y-96450000D02*
X182190000Y-90450000D01*
X182070000Y-96450000D02*
X182070000Y-90450000D01*
X181950000Y-96450000D02*
X181950000Y-90450000D01*
X182610000Y-99440000D02*
X182610000Y-99110000D01*
X181850000Y-99440000D02*
X181850000Y-99110000D01*
X180960000Y-99110000D02*
X180960000Y-96450000D01*
X180070000Y-96450000D02*
X180070000Y-90450000D01*
X180070000Y-90450000D02*
X179310000Y-90450000D01*
X179310000Y-90450000D02*
X179310000Y-96450000D01*
X180070000Y-99507071D02*
X180070000Y-99110000D01*
X179310000Y-99507071D02*
X179310000Y-99110000D01*
X178420000Y-99110000D02*
X178420000Y-96450000D01*
X177530000Y-96450000D02*
X177530000Y-90450000D01*
X177530000Y-90450000D02*
X176770000Y-90450000D01*
X176770000Y-90450000D02*
X176770000Y-96450000D01*
X177530000Y-99507071D02*
X177530000Y-99110000D01*
X176770000Y-99507071D02*
X176770000Y-99110000D01*
X175880000Y-99110000D02*
X175880000Y-96450000D01*
X174990000Y-96450000D02*
X174990000Y-90450000D01*
X174990000Y-90450000D02*
X174230000Y-90450000D01*
X174230000Y-90450000D02*
X174230000Y-96450000D01*
X174990000Y-99507071D02*
X174990000Y-99110000D01*
X174230000Y-99507071D02*
X174230000Y-99110000D01*
X182230000Y-101820000D02*
X183500000Y-101820000D01*
X183500000Y-101820000D02*
X183500000Y-100550000D01*
D10*
X169660000Y-103270000D02*
X170660000Y-103270000D01*
X166060000Y-103270000D02*
X165060000Y-103270000D01*
X166060000Y-103695000D02*
X166060000Y-103270000D01*
X166785000Y-103695000D02*
X166060000Y-103695000D01*
X172010000Y-100120000D02*
X172010000Y-101520000D01*
X172010000Y-97570000D02*
X172010000Y-97720000D01*
X171710000Y-97570000D02*
X172010000Y-97570000D01*
X171710000Y-97120000D02*
X171710000Y-97570000D01*
X164010000Y-97570000D02*
X164010000Y-97120000D01*
X163710000Y-97570000D02*
X164010000Y-97570000D01*
X163710000Y-97720000D02*
X163710000Y-97570000D01*
X163710000Y-101520000D02*
X163710000Y-100120000D01*
D11*
X165810000Y-161470000D02*
X165810000Y-167590000D01*
X165810000Y-167590000D02*
X169430000Y-167590000D01*
X169430000Y-167590000D02*
X169430000Y-161470000D01*
X169430000Y-161470000D02*
X165810000Y-161470000D01*
X145230000Y-101800000D02*
X145930000Y-104550000D01*
X145930000Y-112700000D02*
X145930000Y-104550000D01*
X145230000Y-101800000D02*
X145230000Y-98000000D01*
X158730000Y-98000000D02*
X145230000Y-98000000D01*
X159230000Y-112700000D02*
X159230000Y-98160000D01*
X149230000Y-112700000D02*
X159230000Y-112700000D01*
X149230000Y-112700000D02*
X145930000Y-112700000D01*
X147340000Y-165310000D02*
X148670000Y-165310000D01*
X147340000Y-163980000D02*
X147340000Y-165310000D01*
X149940000Y-165310000D02*
X152540000Y-165310000D01*
X149940000Y-162710000D02*
X149940000Y-165310000D01*
X147340000Y-162710000D02*
X149940000Y-162710000D01*
X152540000Y-165310000D02*
X152540000Y-114390000D01*
X147340000Y-162710000D02*
X147340000Y-114390000D01*
X147340000Y-114390000D02*
X152540000Y-114390000D01*
X182930000Y-114450000D02*
X188130000Y-114450000D01*
X182930000Y-162770000D02*
X182930000Y-114450000D01*
X188130000Y-165370000D02*
X188130000Y-114450000D01*
X182930000Y-162770000D02*
X185530000Y-162770000D01*
X185530000Y-162770000D02*
X185530000Y-165370000D01*
X185530000Y-165370000D02*
X188130000Y-165370000D01*
X182930000Y-164040000D02*
X182930000Y-165370000D01*
X182930000Y-165370000D02*
X184260000Y-165370000D01*
X170446267Y-123890000D02*
X170103733Y-123890000D01*
X170446267Y-122870000D02*
X170103733Y-122870000D01*
X170330000Y-105863733D02*
X170330000Y-106206267D01*
X171350000Y-105863733D02*
X171350000Y-106206267D01*
X167230000Y-105843733D02*
X167230000Y-106186267D01*
X168250000Y-105843733D02*
X168250000Y-106186267D01*
X153185000Y-163290000D02*
X156045000Y-163290000D01*
X153185000Y-165210000D02*
X153185000Y-163290000D01*
X156045000Y-165210000D02*
X153185000Y-165210000D01*
X174600000Y-162301267D02*
X174600000Y-161958733D01*
X173580000Y-162301267D02*
X173580000Y-161958733D01*
X154638733Y-116350000D02*
X154981267Y-116350000D01*
X154638733Y-115330000D02*
X154981267Y-115330000D01*
X168516267Y-132200000D02*
X168173733Y-132200000D01*
X168516267Y-133220000D02*
X168173733Y-133220000D01*
X169820000Y-105853733D02*
X169820000Y-106196267D01*
X168800000Y-105853733D02*
X168800000Y-106196267D01*
X166710000Y-105843733D02*
X166710000Y-106186267D01*
X165690000Y-105843733D02*
X165690000Y-106186267D01*
X156570000Y-143783733D02*
X156570000Y-144126267D01*
X155550000Y-143783733D02*
X155550000Y-144126267D01*
X178995000Y-151195000D02*
X180345000Y-151195000D01*
X178995000Y-149445000D02*
X180345000Y-149445000D01*
X175190000Y-160790000D02*
X175190000Y-166800000D01*
X182010000Y-163040000D02*
X182010000Y-166800000D01*
X175190000Y-166800000D02*
X176450000Y-166800000D01*
X182010000Y-166800000D02*
X180750000Y-166800000D01*
X177690084Y-144724975D02*
X178655284Y-145690176D01*
X178185058Y-144230000D02*
X177690084Y-144724975D01*
X177690084Y-143735025D02*
X178185058Y-144230000D01*
X168130000Y-134174942D02*
X167635025Y-134669916D01*
X168624975Y-134669916D02*
X168130000Y-134174942D01*
X168130000Y-154285058D02*
X168624975Y-153790084D01*
X167635025Y-153790084D02*
X168130000Y-154285058D01*
X158074942Y-144230000D02*
X158569916Y-143735025D01*
X158569916Y-144724975D02*
X158074942Y-144230000D01*
X190632132Y-109150000D02*
G75*
G03X190632132Y-109150000I-212132J0D01*
G01*
D12*
X190670000Y-105750000D02*
X190020000Y-105750000D01*
X190670000Y-105900000D02*
X190670000Y-105750000D01*
X190670000Y-107200000D02*
X190670000Y-105900000D01*
X190020000Y-107200000D02*
X190670000Y-107200000D01*
X189970000Y-108850000D02*
X189970000Y-104050000D01*
X185770000Y-108850000D02*
X185770000Y-104050000D01*
D11*
X173100000Y-160780000D02*
X173100000Y-159320000D01*
X169940000Y-160780000D02*
X169940000Y-158620000D01*
X169940000Y-160780000D02*
X170870000Y-160780000D01*
X173100000Y-160780000D02*
X172170000Y-160780000D01*
D12*
X185790000Y-102190000D02*
X185790000Y-97390000D01*
X189990000Y-102190000D02*
X189990000Y-97390000D01*
X190040000Y-100540000D02*
X190690000Y-100540000D01*
X190690000Y-100540000D02*
X190690000Y-99240000D01*
X190690000Y-99240000D02*
X190690000Y-99090000D01*
X190690000Y-99090000D02*
X190040000Y-99090000D01*
D11*
X190652132Y-102490000D02*
G75*
G03X190652132Y-102490000I-212132J0D01*
G01*
X162630000Y-98930000D02*
X160430000Y-98930000D01*
X162630000Y-102330000D02*
X160430000Y-102330000D01*
X171790000Y-124600000D02*
X171790000Y-130600000D01*
X166570000Y-127600000D02*
X166570000Y-130600000D01*
X181890000Y-156790000D02*
X176140000Y-156790000D01*
X181890000Y-153190000D02*
X181890000Y-156790000D01*
X176140000Y-153190000D02*
X181890000Y-153190000D01*
X138300000Y-101820000D02*
X138300000Y-100550000D01*
X137030000Y-101820000D02*
X138300000Y-101820000D01*
X129030000Y-99507071D02*
X129030000Y-99110000D01*
X129790000Y-99507071D02*
X129790000Y-99110000D01*
X129030000Y-90450000D02*
X129030000Y-96450000D01*
X129790000Y-90450000D02*
X129030000Y-90450000D01*
X129790000Y-96450000D02*
X129790000Y-90450000D01*
X130680000Y-99110000D02*
X130680000Y-96450000D01*
X131570000Y-99507071D02*
X131570000Y-99110000D01*
X132330000Y-99507071D02*
X132330000Y-99110000D01*
X131570000Y-90450000D02*
X131570000Y-96450000D01*
X132330000Y-90450000D02*
X131570000Y-90450000D01*
X132330000Y-96450000D02*
X132330000Y-90450000D01*
X133220000Y-99110000D02*
X133220000Y-96450000D01*
X134110000Y-99507071D02*
X134110000Y-99110000D01*
X134870000Y-99507071D02*
X134870000Y-99110000D01*
X134110000Y-90450000D02*
X134110000Y-96450000D01*
X134870000Y-90450000D02*
X134110000Y-90450000D01*
X134870000Y-96450000D02*
X134870000Y-90450000D01*
X135760000Y-99110000D02*
X135760000Y-96450000D01*
X136650000Y-99440000D02*
X136650000Y-99110000D01*
X137410000Y-99440000D02*
X137410000Y-99110000D01*
X136750000Y-96450000D02*
X136750000Y-90450000D01*
X136870000Y-96450000D02*
X136870000Y-90450000D01*
X136990000Y-96450000D02*
X136990000Y-90450000D01*
X137110000Y-96450000D02*
X137110000Y-90450000D01*
X137230000Y-96450000D02*
X137230000Y-90450000D01*
X137350000Y-96450000D02*
X137350000Y-90450000D01*
X136650000Y-90450000D02*
X136650000Y-96450000D01*
X137410000Y-90450000D02*
X136650000Y-90450000D01*
X137410000Y-96450000D02*
X137410000Y-90450000D01*
X138360000Y-96450000D02*
X138360000Y-99110000D01*
X128080000Y-96450000D02*
X138360000Y-96450000D01*
X128080000Y-99110000D02*
X128080000Y-96450000D01*
X138360000Y-99110000D02*
X128080000Y-99110000D01*
X124230000Y-161470000D02*
X120610000Y-161470000D01*
X124230000Y-167590000D02*
X124230000Y-161470000D01*
X120610000Y-167590000D02*
X124230000Y-167590000D01*
X120610000Y-161470000D02*
X120610000Y-167590000D01*
D10*
X118510000Y-101520000D02*
X118510000Y-100120000D01*
X118510000Y-97720000D02*
X118510000Y-97570000D01*
X118510000Y-97570000D02*
X118810000Y-97570000D01*
X118810000Y-97570000D02*
X118810000Y-97120000D01*
X126510000Y-97120000D02*
X126510000Y-97570000D01*
X126510000Y-97570000D02*
X126810000Y-97570000D01*
X126810000Y-97570000D02*
X126810000Y-97720000D01*
X126810000Y-100120000D02*
X126810000Y-101520000D01*
X121585000Y-103695000D02*
X120860000Y-103695000D01*
X120860000Y-103695000D02*
X120860000Y-103270000D01*
X120860000Y-103270000D02*
X119860000Y-103270000D01*
X124460000Y-103270000D02*
X125460000Y-103270000D01*
D11*
X113263733Y-163770000D02*
X113606267Y-163770000D01*
X113263733Y-164790000D02*
X113606267Y-164790000D01*
X109433733Y-113060000D02*
X109776267Y-113060000D01*
X109433733Y-114080000D02*
X109776267Y-114080000D01*
X123316267Y-133220000D02*
X122973733Y-133220000D01*
X123316267Y-132200000D02*
X122973733Y-132200000D01*
X125246267Y-122870000D02*
X124903733Y-122870000D01*
X125246267Y-123890000D02*
X124903733Y-123890000D01*
X109438733Y-115330000D02*
X109781267Y-115330000D01*
X109438733Y-116350000D02*
X109781267Y-116350000D01*
X128380000Y-162301267D02*
X128380000Y-161958733D01*
X129400000Y-162301267D02*
X129400000Y-161958733D01*
X110845000Y-165210000D02*
X107985000Y-165210000D01*
X107985000Y-165210000D02*
X107985000Y-163290000D01*
X107985000Y-163290000D02*
X110845000Y-163290000D01*
X137730000Y-165370000D02*
X139060000Y-165370000D01*
X137730000Y-164040000D02*
X137730000Y-165370000D01*
X140330000Y-165370000D02*
X142930000Y-165370000D01*
X140330000Y-162770000D02*
X140330000Y-165370000D01*
X137730000Y-162770000D02*
X140330000Y-162770000D01*
X142930000Y-165370000D02*
X142930000Y-114450000D01*
X137730000Y-162770000D02*
X137730000Y-114450000D01*
X137730000Y-114450000D02*
X142930000Y-114450000D01*
X102140000Y-114390000D02*
X107340000Y-114390000D01*
X102140000Y-162710000D02*
X102140000Y-114390000D01*
X107340000Y-165310000D02*
X107340000Y-114390000D01*
X102140000Y-162710000D02*
X104740000Y-162710000D01*
X104740000Y-162710000D02*
X104740000Y-165310000D01*
X104740000Y-165310000D02*
X107340000Y-165310000D01*
X102140000Y-163980000D02*
X102140000Y-165310000D01*
X102140000Y-165310000D02*
X103470000Y-165310000D01*
X104030000Y-112700000D02*
X100730000Y-112700000D01*
X104030000Y-112700000D02*
X114030000Y-112700000D01*
X114030000Y-112700000D02*
X114030000Y-98160000D01*
X113530000Y-98000000D02*
X100030000Y-98000000D01*
X100030000Y-101800000D02*
X100030000Y-98000000D01*
X100730000Y-112700000D02*
X100730000Y-104550000D01*
X100030000Y-101800000D02*
X100730000Y-104550000D01*
X110350000Y-143783733D02*
X110350000Y-144126267D01*
X111370000Y-143783733D02*
X111370000Y-144126267D01*
X120490000Y-105843733D02*
X120490000Y-106186267D01*
X121510000Y-105843733D02*
X121510000Y-106186267D01*
X123600000Y-105853733D02*
X123600000Y-106196267D01*
X124620000Y-105853733D02*
X124620000Y-106196267D01*
X123050000Y-105843733D02*
X123050000Y-106186267D01*
X122030000Y-105843733D02*
X122030000Y-106186267D01*
X126150000Y-105863733D02*
X126150000Y-106206267D01*
X125130000Y-105863733D02*
X125130000Y-106206267D01*
X117430000Y-102330000D02*
X115230000Y-102330000D01*
X117430000Y-98930000D02*
X115230000Y-98930000D01*
X127900000Y-160780000D02*
X126970000Y-160780000D01*
X124740000Y-160780000D02*
X125670000Y-160780000D01*
X124740000Y-160780000D02*
X124740000Y-158620000D01*
X127900000Y-160780000D02*
X127900000Y-159320000D01*
X113369916Y-144724975D02*
X112874942Y-144230000D01*
X112874942Y-144230000D02*
X113369916Y-143735025D01*
X122435025Y-153790084D02*
X122930000Y-154285058D01*
X122930000Y-154285058D02*
X123424975Y-153790084D01*
X123424975Y-134669916D02*
X122930000Y-134174942D01*
X122930000Y-134174942D02*
X122435025Y-134669916D01*
X132490084Y-143735025D02*
X132985058Y-144230000D01*
X132985058Y-144230000D02*
X132490084Y-144724975D01*
X132490084Y-144724975D02*
X133455284Y-145690176D01*
X121370000Y-127600000D02*
X121370000Y-130600000D01*
X126590000Y-124600000D02*
X126590000Y-130600000D01*
X136810000Y-166800000D02*
X135550000Y-166800000D01*
X129990000Y-166800000D02*
X131250000Y-166800000D01*
X136810000Y-163040000D02*
X136810000Y-166800000D01*
X129990000Y-160790000D02*
X129990000Y-166800000D01*
X130940000Y-153190000D02*
X136690000Y-153190000D01*
X136690000Y-153190000D02*
X136690000Y-156790000D01*
X136690000Y-156790000D02*
X130940000Y-156790000D01*
X133795000Y-149445000D02*
X135145000Y-149445000D01*
X133795000Y-151195000D02*
X135145000Y-151195000D01*
X145452132Y-102490000D02*
G75*
G03X145452132Y-102490000I-212132J0D01*
G01*
D12*
X145490000Y-99090000D02*
X144840000Y-99090000D01*
X145490000Y-99240000D02*
X145490000Y-99090000D01*
X145490000Y-100540000D02*
X145490000Y-99240000D01*
X144840000Y-100540000D02*
X145490000Y-100540000D01*
X144790000Y-102190000D02*
X144790000Y-97390000D01*
X140590000Y-102190000D02*
X140590000Y-97390000D01*
X140570000Y-108850000D02*
X140570000Y-104050000D01*
X144770000Y-108850000D02*
X144770000Y-104050000D01*
X144820000Y-107200000D02*
X145470000Y-107200000D01*
X145470000Y-107200000D02*
X145470000Y-105900000D01*
X145470000Y-105900000D02*
X145470000Y-105750000D01*
X145470000Y-105750000D02*
X144820000Y-105750000D01*
D11*
X145432132Y-109150000D02*
G75*
G03X145432132Y-109150000I-212132J0D01*
G01*
D10*
X170742380Y-164683333D02*
X170266190Y-164350000D01*
X170742380Y-164111904D02*
X169742380Y-164111904D01*
X169742380Y-164492857D01*
X169790000Y-164588095D01*
X169837619Y-164635714D01*
X169932857Y-164683333D01*
X170075714Y-164683333D01*
X170170952Y-164635714D01*
X170218571Y-164588095D01*
X170266190Y-164492857D01*
X170266190Y-164111904D01*
X169837619Y-165064285D02*
X169790000Y-165111904D01*
X169742380Y-165207142D01*
X169742380Y-165445238D01*
X169790000Y-165540476D01*
X169837619Y-165588095D01*
X169932857Y-165635714D01*
X170028095Y-165635714D01*
X170170952Y-165588095D01*
X170742380Y-165016666D01*
X170742380Y-165635714D01*
X158082380Y-113457142D02*
X157606190Y-113123809D01*
X158082380Y-112885714D02*
X157082380Y-112885714D01*
X157082380Y-113266666D01*
X157130000Y-113361904D01*
X157177619Y-113409523D01*
X157272857Y-113457142D01*
X157415714Y-113457142D01*
X157510952Y-113409523D01*
X157558571Y-113361904D01*
X157606190Y-113266666D01*
X157606190Y-112885714D01*
X158082380Y-114409523D02*
X158082380Y-113838095D01*
X158082380Y-114123809D02*
X157082380Y-114123809D01*
X157225238Y-114028571D01*
X157320476Y-113933333D01*
X157368095Y-113838095D01*
X157415714Y-115266666D02*
X158082380Y-115266666D01*
X157034761Y-115028571D02*
X157749047Y-114790476D01*
X157749047Y-115409523D01*
X159292380Y-166197142D02*
X158816190Y-165863809D01*
X159292380Y-165625714D02*
X158292380Y-165625714D01*
X158292380Y-166006666D01*
X158340000Y-166101904D01*
X158387619Y-166149523D01*
X158482857Y-166197142D01*
X158625714Y-166197142D01*
X158720952Y-166149523D01*
X158768571Y-166101904D01*
X158816190Y-166006666D01*
X158816190Y-165625714D01*
X159292380Y-167149523D02*
X159292380Y-166578095D01*
X159292380Y-166863809D02*
X158292380Y-166863809D01*
X158435238Y-166768571D01*
X158530476Y-166673333D01*
X158578095Y-166578095D01*
X158292380Y-168054285D02*
X158292380Y-167578095D01*
X158768571Y-167530476D01*
X158720952Y-167578095D01*
X158673333Y-167673333D01*
X158673333Y-167911428D01*
X158720952Y-168006666D01*
X158768571Y-168054285D01*
X158863809Y-168101904D01*
X159101904Y-168101904D01*
X159197142Y-168054285D01*
X159244761Y-168006666D01*
X159292380Y-167911428D01*
X159292380Y-167673333D01*
X159244761Y-167578095D01*
X159197142Y-167530476D01*
X167252380Y-157213333D02*
X166776190Y-156880000D01*
X167252380Y-156641904D02*
X166252380Y-156641904D01*
X166252380Y-157022857D01*
X166300000Y-157118095D01*
X166347619Y-157165714D01*
X166442857Y-157213333D01*
X166585714Y-157213333D01*
X166680952Y-157165714D01*
X166728571Y-157118095D01*
X166776190Y-157022857D01*
X166776190Y-156641904D01*
X166252380Y-157546666D02*
X166252380Y-158165714D01*
X166633333Y-157832380D01*
X166633333Y-157975238D01*
X166680952Y-158070476D01*
X166728571Y-158118095D01*
X166823809Y-158165714D01*
X167061904Y-158165714D01*
X167157142Y-158118095D01*
X167204761Y-158070476D01*
X167252380Y-157975238D01*
X167252380Y-157689523D01*
X167204761Y-157594285D01*
X167157142Y-157546666D01*
X168722380Y-157173333D02*
X168246190Y-156840000D01*
X168722380Y-156601904D02*
X167722380Y-156601904D01*
X167722380Y-156982857D01*
X167770000Y-157078095D01*
X167817619Y-157125714D01*
X167912857Y-157173333D01*
X168055714Y-157173333D01*
X168150952Y-157125714D01*
X168198571Y-157078095D01*
X168246190Y-156982857D01*
X168246190Y-156601904D01*
X168055714Y-158030476D02*
X168722380Y-158030476D01*
X167674761Y-157792380D02*
X168389047Y-157554285D01*
X168389047Y-158173333D01*
X171942380Y-164683333D02*
X171466190Y-164350000D01*
X171942380Y-164111904D02*
X170942380Y-164111904D01*
X170942380Y-164492857D01*
X170990000Y-164588095D01*
X171037619Y-164635714D01*
X171132857Y-164683333D01*
X171275714Y-164683333D01*
X171370952Y-164635714D01*
X171418571Y-164588095D01*
X171466190Y-164492857D01*
X171466190Y-164111904D01*
X170942380Y-165588095D02*
X170942380Y-165111904D01*
X171418571Y-165064285D01*
X171370952Y-165111904D01*
X171323333Y-165207142D01*
X171323333Y-165445238D01*
X171370952Y-165540476D01*
X171418571Y-165588095D01*
X171513809Y-165635714D01*
X171751904Y-165635714D01*
X171847142Y-165588095D01*
X171894761Y-165540476D01*
X171942380Y-165445238D01*
X171942380Y-165207142D01*
X171894761Y-165111904D01*
X171847142Y-165064285D01*
X173172380Y-164643333D02*
X172696190Y-164310000D01*
X173172380Y-164071904D02*
X172172380Y-164071904D01*
X172172380Y-164452857D01*
X172220000Y-164548095D01*
X172267619Y-164595714D01*
X172362857Y-164643333D01*
X172505714Y-164643333D01*
X172600952Y-164595714D01*
X172648571Y-164548095D01*
X172696190Y-164452857D01*
X172696190Y-164071904D01*
X173172380Y-165595714D02*
X173172380Y-165024285D01*
X173172380Y-165310000D02*
X172172380Y-165310000D01*
X172315238Y-165214761D01*
X172410476Y-165119523D01*
X172458095Y-165024285D01*
X185144761Y-97142857D02*
X185192380Y-97285714D01*
X185192380Y-97523809D01*
X185144761Y-97619047D01*
X185097142Y-97666666D01*
X185001904Y-97714285D01*
X184906666Y-97714285D01*
X184811428Y-97666666D01*
X184763809Y-97619047D01*
X184716190Y-97523809D01*
X184668571Y-97333333D01*
X184620952Y-97238095D01*
X184573333Y-97190476D01*
X184478095Y-97142857D01*
X184382857Y-97142857D01*
X184287619Y-97190476D01*
X184240000Y-97238095D01*
X184192380Y-97333333D01*
X184192380Y-97571428D01*
X184240000Y-97714285D01*
X184192380Y-98047619D02*
X185192380Y-98285714D01*
X184478095Y-98476190D01*
X185192380Y-98666666D01*
X184192380Y-98904761D01*
X185192380Y-99285714D02*
X184192380Y-99285714D01*
X184192380Y-99523809D01*
X184240000Y-99666666D01*
X184335238Y-99761904D01*
X184430476Y-99809523D01*
X184620952Y-99857142D01*
X184763809Y-99857142D01*
X184954285Y-99809523D01*
X185049523Y-99761904D01*
X185144761Y-99666666D01*
X185192380Y-99523809D01*
X185192380Y-99285714D01*
X168193333Y-103822380D02*
X168193333Y-104536666D01*
X168240952Y-104679523D01*
X168336190Y-104774761D01*
X168479047Y-104822380D01*
X168574285Y-104822380D01*
X167193333Y-104822380D02*
X167764761Y-104822380D01*
X167479047Y-104822380D02*
X167479047Y-103822380D01*
X167574285Y-103965238D01*
X167669523Y-104060476D01*
X167764761Y-104108095D01*
X165472380Y-163982380D02*
X164996190Y-163649047D01*
X165472380Y-163410952D02*
X164472380Y-163410952D01*
X164472380Y-163791904D01*
X164520000Y-163887142D01*
X164567619Y-163934761D01*
X164662857Y-163982380D01*
X164805714Y-163982380D01*
X164900952Y-163934761D01*
X164948571Y-163887142D01*
X164996190Y-163791904D01*
X164996190Y-163410952D01*
X165424761Y-164363333D02*
X165472380Y-164506190D01*
X165472380Y-164744285D01*
X165424761Y-164839523D01*
X165377142Y-164887142D01*
X165281904Y-164934761D01*
X165186666Y-164934761D01*
X165091428Y-164887142D01*
X165043809Y-164839523D01*
X164996190Y-164744285D01*
X164948571Y-164553809D01*
X164900952Y-164458571D01*
X164853333Y-164410952D01*
X164758095Y-164363333D01*
X164662857Y-164363333D01*
X164567619Y-164410952D01*
X164520000Y-164458571D01*
X164472380Y-164553809D01*
X164472380Y-164791904D01*
X164520000Y-164934761D01*
X164472380Y-165220476D02*
X164472380Y-165791904D01*
X165472380Y-165506190D02*
X164472380Y-165506190D01*
X181107732Y-136192030D02*
X181006717Y-135619610D01*
X181511793Y-135787969D02*
X180804687Y-135080862D01*
X180535312Y-135350236D01*
X180501641Y-135451251D01*
X180501641Y-135518595D01*
X180535312Y-135619610D01*
X180636328Y-135720625D01*
X180737343Y-135754297D01*
X180804687Y-135754297D01*
X180905702Y-135720625D01*
X181175076Y-135451251D01*
X180299610Y-136192030D02*
X180333282Y-136091015D01*
X180333282Y-136023671D01*
X180299610Y-135922656D01*
X180265938Y-135888984D01*
X180164923Y-135855312D01*
X180097580Y-135855312D01*
X179996564Y-135888984D01*
X179861877Y-136023671D01*
X179828206Y-136124687D01*
X179828206Y-136192030D01*
X179861877Y-136293045D01*
X179895549Y-136326717D01*
X179996564Y-136360389D01*
X180063908Y-136360389D01*
X180164923Y-136326717D01*
X180299610Y-136192030D01*
X180400625Y-136158358D01*
X180467969Y-136158358D01*
X180568984Y-136192030D01*
X180703671Y-136326717D01*
X180737343Y-136427732D01*
X180737343Y-136495076D01*
X180703671Y-136596091D01*
X180568984Y-136730778D01*
X180467969Y-136764450D01*
X180400625Y-136764450D01*
X180299610Y-136730778D01*
X180164923Y-136596091D01*
X180131251Y-136495076D01*
X180131251Y-136427732D01*
X180164923Y-136326717D01*
X168557142Y-155313333D02*
X168604761Y-155265714D01*
X168652380Y-155122857D01*
X168652380Y-155027619D01*
X168604761Y-154884761D01*
X168509523Y-154789523D01*
X168414285Y-154741904D01*
X168223809Y-154694285D01*
X168080952Y-154694285D01*
X167890476Y-154741904D01*
X167795238Y-154789523D01*
X167700000Y-154884761D01*
X167652380Y-155027619D01*
X167652380Y-155122857D01*
X167700000Y-155265714D01*
X167747619Y-155313333D01*
X167652380Y-156218095D02*
X167652380Y-155741904D01*
X168128571Y-155694285D01*
X168080952Y-155741904D01*
X168033333Y-155837142D01*
X168033333Y-156075238D01*
X168080952Y-156170476D01*
X168128571Y-156218095D01*
X168223809Y-156265714D01*
X168461904Y-156265714D01*
X168557142Y-156218095D01*
X168604761Y-156170476D01*
X168652380Y-156075238D01*
X168652380Y-155837142D01*
X168604761Y-155741904D01*
X168557142Y-155694285D01*
X180247732Y-135322030D02*
X180146717Y-134749610D01*
X180651793Y-134917969D02*
X179944687Y-134210862D01*
X179675312Y-134480236D01*
X179641641Y-134581251D01*
X179641641Y-134648595D01*
X179675312Y-134749610D01*
X179776328Y-134850625D01*
X179877343Y-134884297D01*
X179944687Y-134884297D01*
X180045702Y-134850625D01*
X180315076Y-134581251D01*
X179304923Y-134850625D02*
X178833519Y-135322030D01*
X179843671Y-135726091D01*
X175887142Y-151933333D02*
X175934761Y-151885714D01*
X175982380Y-151742857D01*
X175982380Y-151647619D01*
X175934761Y-151504761D01*
X175839523Y-151409523D01*
X175744285Y-151361904D01*
X175553809Y-151314285D01*
X175410952Y-151314285D01*
X175220476Y-151361904D01*
X175125238Y-151409523D01*
X175030000Y-151504761D01*
X174982380Y-151647619D01*
X174982380Y-151742857D01*
X175030000Y-151885714D01*
X175077619Y-151933333D01*
X174982380Y-152266666D02*
X174982380Y-152885714D01*
X175363333Y-152552380D01*
X175363333Y-152695238D01*
X175410952Y-152790476D01*
X175458571Y-152838095D01*
X175553809Y-152885714D01*
X175791904Y-152885714D01*
X175887142Y-152838095D01*
X175934761Y-152790476D01*
X175982380Y-152695238D01*
X175982380Y-152409523D01*
X175934761Y-152314285D01*
X175887142Y-152266666D01*
X174672380Y-151993333D02*
X174196190Y-151660000D01*
X174672380Y-151421904D02*
X173672380Y-151421904D01*
X173672380Y-151802857D01*
X173720000Y-151898095D01*
X173767619Y-151945714D01*
X173862857Y-151993333D01*
X174005714Y-151993333D01*
X174100952Y-151945714D01*
X174148571Y-151898095D01*
X174196190Y-151802857D01*
X174196190Y-151421904D01*
X173672380Y-152850476D02*
X173672380Y-152660000D01*
X173720000Y-152564761D01*
X173767619Y-152517142D01*
X173910476Y-152421904D01*
X174100952Y-152374285D01*
X174481904Y-152374285D01*
X174577142Y-152421904D01*
X174624761Y-152469523D01*
X174672380Y-152564761D01*
X174672380Y-152755238D01*
X174624761Y-152850476D01*
X174577142Y-152898095D01*
X174481904Y-152945714D01*
X174243809Y-152945714D01*
X174148571Y-152898095D01*
X174100952Y-152850476D01*
X174053333Y-152755238D01*
X174053333Y-152564761D01*
X174100952Y-152469523D01*
X174148571Y-152421904D01*
X174243809Y-152374285D01*
X153482380Y-105616666D02*
X154196666Y-105616666D01*
X154339523Y-105569047D01*
X154434761Y-105473809D01*
X154482380Y-105330952D01*
X154482380Y-105235714D01*
X153815714Y-106521428D02*
X154482380Y-106521428D01*
X153434761Y-106283333D02*
X154149047Y-106045238D01*
X154149047Y-106664285D01*
X149212380Y-166126666D02*
X149926666Y-166126666D01*
X150069523Y-166079047D01*
X150164761Y-165983809D01*
X150212380Y-165840952D01*
X150212380Y-165745714D01*
X149212380Y-166507619D02*
X149212380Y-167126666D01*
X149593333Y-166793333D01*
X149593333Y-166936190D01*
X149640952Y-167031428D01*
X149688571Y-167079047D01*
X149783809Y-167126666D01*
X150021904Y-167126666D01*
X150117142Y-167079047D01*
X150164761Y-167031428D01*
X150212380Y-166936190D01*
X150212380Y-166650476D01*
X150164761Y-166555238D01*
X150117142Y-166507619D01*
X185782380Y-166306666D02*
X186496666Y-166306666D01*
X186639523Y-166259047D01*
X186734761Y-166163809D01*
X186782380Y-166020952D01*
X186782380Y-165925714D01*
X185877619Y-166735238D02*
X185830000Y-166782857D01*
X185782380Y-166878095D01*
X185782380Y-167116190D01*
X185830000Y-167211428D01*
X185877619Y-167259047D01*
X185972857Y-167306666D01*
X186068095Y-167306666D01*
X186210952Y-167259047D01*
X186782380Y-166687619D01*
X186782380Y-167306666D01*
X173137142Y-123293333D02*
X173184761Y-123245714D01*
X173232380Y-123102857D01*
X173232380Y-123007619D01*
X173184761Y-122864761D01*
X173089523Y-122769523D01*
X172994285Y-122721904D01*
X172803809Y-122674285D01*
X172660952Y-122674285D01*
X172470476Y-122721904D01*
X172375238Y-122769523D01*
X172280000Y-122864761D01*
X172232380Y-123007619D01*
X172232380Y-123102857D01*
X172280000Y-123245714D01*
X172327619Y-123293333D01*
X172660952Y-123864761D02*
X172613333Y-123769523D01*
X172565714Y-123721904D01*
X172470476Y-123674285D01*
X172422857Y-123674285D01*
X172327619Y-123721904D01*
X172280000Y-123769523D01*
X172232380Y-123864761D01*
X172232380Y-124055238D01*
X172280000Y-124150476D01*
X172327619Y-124198095D01*
X172422857Y-124245714D01*
X172470476Y-124245714D01*
X172565714Y-124198095D01*
X172613333Y-124150476D01*
X172660952Y-124055238D01*
X172660952Y-123864761D01*
X172708571Y-123769523D01*
X172756190Y-123721904D01*
X172851428Y-123674285D01*
X173041904Y-123674285D01*
X173137142Y-123721904D01*
X173184761Y-123769523D01*
X173232380Y-123864761D01*
X173232380Y-124055238D01*
X173184761Y-124150476D01*
X173137142Y-124198095D01*
X173041904Y-124245714D01*
X172851428Y-124245714D01*
X172756190Y-124198095D01*
X172708571Y-124150476D01*
X172660952Y-124055238D01*
X177817142Y-158853333D02*
X177864761Y-158805714D01*
X177912380Y-158662857D01*
X177912380Y-158567619D01*
X177864761Y-158424761D01*
X177769523Y-158329523D01*
X177674285Y-158281904D01*
X177483809Y-158234285D01*
X177340952Y-158234285D01*
X177150476Y-158281904D01*
X177055238Y-158329523D01*
X176960000Y-158424761D01*
X176912380Y-158567619D01*
X176912380Y-158662857D01*
X176960000Y-158805714D01*
X177007619Y-158853333D01*
X177007619Y-159234285D02*
X176960000Y-159281904D01*
X176912380Y-159377142D01*
X176912380Y-159615238D01*
X176960000Y-159710476D01*
X177007619Y-159758095D01*
X177102857Y-159805714D01*
X177198095Y-159805714D01*
X177340952Y-159758095D01*
X177912380Y-159186666D01*
X177912380Y-159805714D01*
X180707142Y-158893333D02*
X180754761Y-158845714D01*
X180802380Y-158702857D01*
X180802380Y-158607619D01*
X180754761Y-158464761D01*
X180659523Y-158369523D01*
X180564285Y-158321904D01*
X180373809Y-158274285D01*
X180230952Y-158274285D01*
X180040476Y-158321904D01*
X179945238Y-158369523D01*
X179850000Y-158464761D01*
X179802380Y-158607619D01*
X179802380Y-158702857D01*
X179850000Y-158845714D01*
X179897619Y-158893333D01*
X180802380Y-159845714D02*
X180802380Y-159274285D01*
X180802380Y-159560000D02*
X179802380Y-159560000D01*
X179945238Y-159464761D01*
X180040476Y-159369523D01*
X180088095Y-159274285D01*
X171392380Y-108607142D02*
X170916190Y-108273809D01*
X171392380Y-108035714D02*
X170392380Y-108035714D01*
X170392380Y-108416666D01*
X170440000Y-108511904D01*
X170487619Y-108559523D01*
X170582857Y-108607142D01*
X170725714Y-108607142D01*
X170820952Y-108559523D01*
X170868571Y-108511904D01*
X170916190Y-108416666D01*
X170916190Y-108035714D01*
X171392380Y-109559523D02*
X171392380Y-108988095D01*
X171392380Y-109273809D02*
X170392380Y-109273809D01*
X170535238Y-109178571D01*
X170630476Y-109083333D01*
X170678095Y-108988095D01*
X170392380Y-109892857D02*
X170392380Y-110511904D01*
X170773333Y-110178571D01*
X170773333Y-110321428D01*
X170820952Y-110416666D01*
X170868571Y-110464285D01*
X170963809Y-110511904D01*
X171201904Y-110511904D01*
X171297142Y-110464285D01*
X171344761Y-110416666D01*
X171392380Y-110321428D01*
X171392380Y-110035714D01*
X171344761Y-109940476D01*
X171297142Y-109892857D01*
X168282380Y-108567142D02*
X167806190Y-108233809D01*
X168282380Y-107995714D02*
X167282380Y-107995714D01*
X167282380Y-108376666D01*
X167330000Y-108471904D01*
X167377619Y-108519523D01*
X167472857Y-108567142D01*
X167615714Y-108567142D01*
X167710952Y-108519523D01*
X167758571Y-108471904D01*
X167806190Y-108376666D01*
X167806190Y-107995714D01*
X168282380Y-109519523D02*
X168282380Y-108948095D01*
X168282380Y-109233809D02*
X167282380Y-109233809D01*
X167425238Y-109138571D01*
X167520476Y-109043333D01*
X167568095Y-108948095D01*
X167377619Y-109900476D02*
X167330000Y-109948095D01*
X167282380Y-110043333D01*
X167282380Y-110281428D01*
X167330000Y-110376666D01*
X167377619Y-110424285D01*
X167472857Y-110471904D01*
X167568095Y-110471904D01*
X167710952Y-110424285D01*
X168282380Y-109852857D01*
X168282380Y-110471904D01*
X155482380Y-165621904D02*
X154482380Y-165621904D01*
X154482380Y-165860000D01*
X154530000Y-166002857D01*
X154625238Y-166098095D01*
X154720476Y-166145714D01*
X154910952Y-166193333D01*
X155053809Y-166193333D01*
X155244285Y-166145714D01*
X155339523Y-166098095D01*
X155434761Y-166002857D01*
X155482380Y-165860000D01*
X155482380Y-165621904D01*
X155482380Y-167145714D02*
X155482380Y-166574285D01*
X155482380Y-166860000D02*
X154482380Y-166860000D01*
X154625238Y-166764761D01*
X154720476Y-166669523D01*
X154768095Y-166574285D01*
X174467142Y-164657142D02*
X174514761Y-164609523D01*
X174562380Y-164466666D01*
X174562380Y-164371428D01*
X174514761Y-164228571D01*
X174419523Y-164133333D01*
X174324285Y-164085714D01*
X174133809Y-164038095D01*
X173990952Y-164038095D01*
X173800476Y-164085714D01*
X173705238Y-164133333D01*
X173610000Y-164228571D01*
X173562380Y-164371428D01*
X173562380Y-164466666D01*
X173610000Y-164609523D01*
X173657619Y-164657142D01*
X174562380Y-165609523D02*
X174562380Y-165038095D01*
X174562380Y-165323809D02*
X173562380Y-165323809D01*
X173705238Y-165228571D01*
X173800476Y-165133333D01*
X173848095Y-165038095D01*
X174562380Y-166561904D02*
X174562380Y-165990476D01*
X174562380Y-166276190D02*
X173562380Y-166276190D01*
X173705238Y-166180952D01*
X173800476Y-166085714D01*
X173848095Y-165990476D01*
X158087142Y-116283333D02*
X158134761Y-116235714D01*
X158182380Y-116092857D01*
X158182380Y-115997619D01*
X158134761Y-115854761D01*
X158039523Y-115759523D01*
X157944285Y-115711904D01*
X157753809Y-115664285D01*
X157610952Y-115664285D01*
X157420476Y-115711904D01*
X157325238Y-115759523D01*
X157230000Y-115854761D01*
X157182380Y-115997619D01*
X157182380Y-116092857D01*
X157230000Y-116235714D01*
X157277619Y-116283333D01*
X158182380Y-116759523D02*
X158182380Y-116950000D01*
X158134761Y-117045238D01*
X158087142Y-117092857D01*
X157944285Y-117188095D01*
X157753809Y-117235714D01*
X157372857Y-117235714D01*
X157277619Y-117188095D01*
X157230000Y-117140476D01*
X157182380Y-117045238D01*
X157182380Y-116854761D01*
X157230000Y-116759523D01*
X157277619Y-116711904D01*
X157372857Y-116664285D01*
X157610952Y-116664285D01*
X157706190Y-116711904D01*
X157753809Y-116759523D01*
X157801428Y-116854761D01*
X157801428Y-117045238D01*
X157753809Y-117140476D01*
X157706190Y-117188095D01*
X157610952Y-117235714D01*
X181447142Y-147883333D02*
X181494761Y-147835714D01*
X181542380Y-147692857D01*
X181542380Y-147597619D01*
X181494761Y-147454761D01*
X181399523Y-147359523D01*
X181304285Y-147311904D01*
X181113809Y-147264285D01*
X180970952Y-147264285D01*
X180780476Y-147311904D01*
X180685238Y-147359523D01*
X180590000Y-147454761D01*
X180542380Y-147597619D01*
X180542380Y-147692857D01*
X180590000Y-147835714D01*
X180637619Y-147883333D01*
X180542380Y-148740476D02*
X180542380Y-148550000D01*
X180590000Y-148454761D01*
X180637619Y-148407142D01*
X180780476Y-148311904D01*
X180970952Y-148264285D01*
X181351904Y-148264285D01*
X181447142Y-148311904D01*
X181494761Y-148359523D01*
X181542380Y-148454761D01*
X181542380Y-148645238D01*
X181494761Y-148740476D01*
X181447142Y-148788095D01*
X181351904Y-148835714D01*
X181113809Y-148835714D01*
X181018571Y-148788095D01*
X180970952Y-148740476D01*
X180923333Y-148645238D01*
X180923333Y-148454761D01*
X180970952Y-148359523D01*
X181018571Y-148311904D01*
X181113809Y-148264285D01*
X179127142Y-147923333D02*
X179174761Y-147875714D01*
X179222380Y-147732857D01*
X179222380Y-147637619D01*
X179174761Y-147494761D01*
X179079523Y-147399523D01*
X178984285Y-147351904D01*
X178793809Y-147304285D01*
X178650952Y-147304285D01*
X178460476Y-147351904D01*
X178365238Y-147399523D01*
X178270000Y-147494761D01*
X178222380Y-147637619D01*
X178222380Y-147732857D01*
X178270000Y-147875714D01*
X178317619Y-147923333D01*
X178222380Y-148256666D02*
X178222380Y-148923333D01*
X179222380Y-148494761D01*
X171567142Y-132593333D02*
X171614761Y-132545714D01*
X171662380Y-132402857D01*
X171662380Y-132307619D01*
X171614761Y-132164761D01*
X171519523Y-132069523D01*
X171424285Y-132021904D01*
X171233809Y-131974285D01*
X171090952Y-131974285D01*
X170900476Y-132021904D01*
X170805238Y-132069523D01*
X170710000Y-132164761D01*
X170662380Y-132307619D01*
X170662380Y-132402857D01*
X170710000Y-132545714D01*
X170757619Y-132593333D01*
X170995714Y-133450476D02*
X171662380Y-133450476D01*
X170614761Y-133212380D02*
X171329047Y-132974285D01*
X171329047Y-133593333D01*
X169852380Y-108607142D02*
X169376190Y-108273809D01*
X169852380Y-108035714D02*
X168852380Y-108035714D01*
X168852380Y-108416666D01*
X168900000Y-108511904D01*
X168947619Y-108559523D01*
X169042857Y-108607142D01*
X169185714Y-108607142D01*
X169280952Y-108559523D01*
X169328571Y-108511904D01*
X169376190Y-108416666D01*
X169376190Y-108035714D01*
X169852380Y-109559523D02*
X169852380Y-108988095D01*
X169852380Y-109273809D02*
X168852380Y-109273809D01*
X168995238Y-109178571D01*
X169090476Y-109083333D01*
X169138095Y-108988095D01*
X169852380Y-110511904D02*
X169852380Y-109940476D01*
X169852380Y-110226190D02*
X168852380Y-110226190D01*
X168995238Y-110130952D01*
X169090476Y-110035714D01*
X169138095Y-109940476D01*
X166812380Y-108547142D02*
X166336190Y-108213809D01*
X166812380Y-107975714D02*
X165812380Y-107975714D01*
X165812380Y-108356666D01*
X165860000Y-108451904D01*
X165907619Y-108499523D01*
X166002857Y-108547142D01*
X166145714Y-108547142D01*
X166240952Y-108499523D01*
X166288571Y-108451904D01*
X166336190Y-108356666D01*
X166336190Y-107975714D01*
X166812380Y-109499523D02*
X166812380Y-108928095D01*
X166812380Y-109213809D02*
X165812380Y-109213809D01*
X165955238Y-109118571D01*
X166050476Y-109023333D01*
X166098095Y-108928095D01*
X165812380Y-110118571D02*
X165812380Y-110213809D01*
X165860000Y-110309047D01*
X165907619Y-110356666D01*
X166002857Y-110404285D01*
X166193333Y-110451904D01*
X166431428Y-110451904D01*
X166621904Y-110404285D01*
X166717142Y-110356666D01*
X166764761Y-110309047D01*
X166812380Y-110213809D01*
X166812380Y-110118571D01*
X166764761Y-110023333D01*
X166717142Y-109975714D01*
X166621904Y-109928095D01*
X166431428Y-109880476D01*
X166193333Y-109880476D01*
X166002857Y-109928095D01*
X165907619Y-109975714D01*
X165860000Y-110023333D01*
X165812380Y-110118571D01*
X156542380Y-141143333D02*
X156066190Y-140810000D01*
X156542380Y-140571904D02*
X155542380Y-140571904D01*
X155542380Y-140952857D01*
X155590000Y-141048095D01*
X155637619Y-141095714D01*
X155732857Y-141143333D01*
X155875714Y-141143333D01*
X155970952Y-141095714D01*
X156018571Y-141048095D01*
X156066190Y-140952857D01*
X156066190Y-140571904D01*
X156542380Y-141619523D02*
X156542380Y-141810000D01*
X156494761Y-141905238D01*
X156447142Y-141952857D01*
X156304285Y-142048095D01*
X156113809Y-142095714D01*
X155732857Y-142095714D01*
X155637619Y-142048095D01*
X155590000Y-142000476D01*
X155542380Y-141905238D01*
X155542380Y-141714761D01*
X155590000Y-141619523D01*
X155637619Y-141571904D01*
X155732857Y-141524285D01*
X155970952Y-141524285D01*
X156066190Y-141571904D01*
X156113809Y-141619523D01*
X156161428Y-141714761D01*
X156161428Y-141905238D01*
X156113809Y-142000476D01*
X156066190Y-142048095D01*
X155970952Y-142095714D01*
X176996190Y-149973809D02*
X177472380Y-149973809D01*
X176472380Y-149640476D02*
X176996190Y-149973809D01*
X176472380Y-150307142D01*
X176567619Y-150592857D02*
X176520000Y-150640476D01*
X176472380Y-150735714D01*
X176472380Y-150973809D01*
X176520000Y-151069047D01*
X176567619Y-151116666D01*
X176662857Y-151164285D01*
X176758095Y-151164285D01*
X176900952Y-151116666D01*
X177472380Y-150545238D01*
X177472380Y-151164285D01*
X173802380Y-167478095D02*
X174611904Y-167478095D01*
X174707142Y-167525714D01*
X174754761Y-167573333D01*
X174802380Y-167668571D01*
X174802380Y-167859047D01*
X174754761Y-167954285D01*
X174707142Y-168001904D01*
X174611904Y-168049523D01*
X173802380Y-168049523D01*
X174135714Y-168954285D02*
X174802380Y-168954285D01*
X173754761Y-168716190D02*
X174469047Y-168478095D01*
X174469047Y-169097142D01*
X180655973Y-144091522D02*
X180083553Y-144663942D01*
X179982538Y-144697614D01*
X179915194Y-144697614D01*
X179814179Y-144663942D01*
X179679492Y-144529255D01*
X179645820Y-144428240D01*
X179645820Y-144360896D01*
X179679492Y-144259881D01*
X180251912Y-143687461D01*
X179881522Y-143451759D02*
X179881522Y-143384416D01*
X179847851Y-143283400D01*
X179679492Y-143115042D01*
X179578477Y-143081370D01*
X179511133Y-143081370D01*
X179410118Y-143115042D01*
X179342774Y-143182385D01*
X179275431Y-143317072D01*
X179275431Y-144125194D01*
X178837698Y-143687461D01*
X185144761Y-106616666D02*
X185192380Y-106759523D01*
X185192380Y-106997619D01*
X185144761Y-107092857D01*
X185097142Y-107140476D01*
X185001904Y-107188095D01*
X184906666Y-107188095D01*
X184811428Y-107140476D01*
X184763809Y-107092857D01*
X184716190Y-106997619D01*
X184668571Y-106807142D01*
X184620952Y-106711904D01*
X184573333Y-106664285D01*
X184478095Y-106616666D01*
X184382857Y-106616666D01*
X184287619Y-106664285D01*
X184240000Y-106711904D01*
X184192380Y-106807142D01*
X184192380Y-107045238D01*
X184240000Y-107188095D01*
X184192380Y-107521428D02*
X185192380Y-107759523D01*
X184478095Y-107950000D01*
X185192380Y-108140476D01*
X184192380Y-108378571D01*
X184287619Y-108711904D02*
X184240000Y-108759523D01*
X184192380Y-108854761D01*
X184192380Y-109092857D01*
X184240000Y-109188095D01*
X184287619Y-109235714D01*
X184382857Y-109283333D01*
X184478095Y-109283333D01*
X184620952Y-109235714D01*
X185192380Y-108664285D01*
X185192380Y-109283333D01*
X169002380Y-156628095D02*
X169811904Y-156628095D01*
X169907142Y-156675714D01*
X169954761Y-156723333D01*
X170002380Y-156818571D01*
X170002380Y-157009047D01*
X169954761Y-157104285D01*
X169907142Y-157151904D01*
X169811904Y-157199523D01*
X169002380Y-157199523D01*
X170002380Y-158199523D02*
X170002380Y-157628095D01*
X170002380Y-157913809D02*
X169002380Y-157913809D01*
X169145238Y-157818571D01*
X169240476Y-157723333D01*
X169288095Y-157628095D01*
X185174761Y-100596666D02*
X185222380Y-100739523D01*
X185222380Y-100977619D01*
X185174761Y-101072857D01*
X185127142Y-101120476D01*
X185031904Y-101168095D01*
X184936666Y-101168095D01*
X184841428Y-101120476D01*
X184793809Y-101072857D01*
X184746190Y-100977619D01*
X184698571Y-100787142D01*
X184650952Y-100691904D01*
X184603333Y-100644285D01*
X184508095Y-100596666D01*
X184412857Y-100596666D01*
X184317619Y-100644285D01*
X184270000Y-100691904D01*
X184222380Y-100787142D01*
X184222380Y-101025238D01*
X184270000Y-101168095D01*
X184222380Y-101501428D02*
X185222380Y-101739523D01*
X184508095Y-101930000D01*
X185222380Y-102120476D01*
X184222380Y-102358571D01*
X185222380Y-103263333D02*
X185222380Y-102691904D01*
X185222380Y-102977619D02*
X184222380Y-102977619D01*
X184365238Y-102882380D01*
X184460476Y-102787142D01*
X184508095Y-102691904D01*
X162072380Y-103589523D02*
X161596190Y-103256190D01*
X162072380Y-103018095D02*
X161072380Y-103018095D01*
X161072380Y-103399047D01*
X161120000Y-103494285D01*
X161167619Y-103541904D01*
X161262857Y-103589523D01*
X161405714Y-103589523D01*
X161500952Y-103541904D01*
X161548571Y-103494285D01*
X161596190Y-103399047D01*
X161596190Y-103018095D01*
X162072380Y-104018095D02*
X161072380Y-104018095D01*
X162072380Y-104589523D01*
X161072380Y-104589523D01*
X161167619Y-105018095D02*
X161120000Y-105065714D01*
X161072380Y-105160952D01*
X161072380Y-105399047D01*
X161120000Y-105494285D01*
X161167619Y-105541904D01*
X161262857Y-105589523D01*
X161358095Y-105589523D01*
X161500952Y-105541904D01*
X162072380Y-104970476D01*
X162072380Y-105589523D01*
X165182380Y-126838095D02*
X165991904Y-126838095D01*
X166087142Y-126885714D01*
X166134761Y-126933333D01*
X166182380Y-127028571D01*
X166182380Y-127219047D01*
X166134761Y-127314285D01*
X166087142Y-127361904D01*
X165991904Y-127409523D01*
X165182380Y-127409523D01*
X165182380Y-127790476D02*
X165182380Y-128409523D01*
X165563333Y-128076190D01*
X165563333Y-128219047D01*
X165610952Y-128314285D01*
X165658571Y-128361904D01*
X165753809Y-128409523D01*
X165991904Y-128409523D01*
X166087142Y-128361904D01*
X166134761Y-128314285D01*
X166182380Y-128219047D01*
X166182380Y-127933333D01*
X166134761Y-127838095D01*
X166087142Y-127790476D01*
X174846190Y-155763809D02*
X175322380Y-155763809D01*
X174322380Y-155430476D02*
X174846190Y-155763809D01*
X174322380Y-156097142D01*
X175322380Y-156954285D02*
X175322380Y-156382857D01*
X175322380Y-156668571D02*
X174322380Y-156668571D01*
X174465238Y-156573333D01*
X174560476Y-156478095D01*
X174608095Y-156382857D01*
X139944761Y-97142857D02*
X139992380Y-97285714D01*
X139992380Y-97523809D01*
X139944761Y-97619047D01*
X139897142Y-97666666D01*
X139801904Y-97714285D01*
X139706666Y-97714285D01*
X139611428Y-97666666D01*
X139563809Y-97619047D01*
X139516190Y-97523809D01*
X139468571Y-97333333D01*
X139420952Y-97238095D01*
X139373333Y-97190476D01*
X139278095Y-97142857D01*
X139182857Y-97142857D01*
X139087619Y-97190476D01*
X139040000Y-97238095D01*
X138992380Y-97333333D01*
X138992380Y-97571428D01*
X139040000Y-97714285D01*
X138992380Y-98047619D02*
X139992380Y-98285714D01*
X139278095Y-98476190D01*
X139992380Y-98666666D01*
X138992380Y-98904761D01*
X139992380Y-99285714D02*
X138992380Y-99285714D01*
X138992380Y-99523809D01*
X139040000Y-99666666D01*
X139135238Y-99761904D01*
X139230476Y-99809523D01*
X139420952Y-99857142D01*
X139563809Y-99857142D01*
X139754285Y-99809523D01*
X139849523Y-99761904D01*
X139944761Y-99666666D01*
X139992380Y-99523809D01*
X139992380Y-99285714D01*
X120272380Y-163982380D02*
X119796190Y-163649047D01*
X120272380Y-163410952D02*
X119272380Y-163410952D01*
X119272380Y-163791904D01*
X119320000Y-163887142D01*
X119367619Y-163934761D01*
X119462857Y-163982380D01*
X119605714Y-163982380D01*
X119700952Y-163934761D01*
X119748571Y-163887142D01*
X119796190Y-163791904D01*
X119796190Y-163410952D01*
X120224761Y-164363333D02*
X120272380Y-164506190D01*
X120272380Y-164744285D01*
X120224761Y-164839523D01*
X120177142Y-164887142D01*
X120081904Y-164934761D01*
X119986666Y-164934761D01*
X119891428Y-164887142D01*
X119843809Y-164839523D01*
X119796190Y-164744285D01*
X119748571Y-164553809D01*
X119700952Y-164458571D01*
X119653333Y-164410952D01*
X119558095Y-164363333D01*
X119462857Y-164363333D01*
X119367619Y-164410952D01*
X119320000Y-164458571D01*
X119272380Y-164553809D01*
X119272380Y-164791904D01*
X119320000Y-164934761D01*
X119272380Y-165220476D02*
X119272380Y-165791904D01*
X120272380Y-165506190D02*
X119272380Y-165506190D01*
X122993333Y-103822380D02*
X122993333Y-104536666D01*
X123040952Y-104679523D01*
X123136190Y-104774761D01*
X123279047Y-104822380D01*
X123374285Y-104822380D01*
X121993333Y-104822380D02*
X122564761Y-104822380D01*
X122279047Y-104822380D02*
X122279047Y-103822380D01*
X122374285Y-103965238D01*
X122469523Y-104060476D01*
X122564761Y-104108095D01*
X127972380Y-164643333D02*
X127496190Y-164310000D01*
X127972380Y-164071904D02*
X126972380Y-164071904D01*
X126972380Y-164452857D01*
X127020000Y-164548095D01*
X127067619Y-164595714D01*
X127162857Y-164643333D01*
X127305714Y-164643333D01*
X127400952Y-164595714D01*
X127448571Y-164548095D01*
X127496190Y-164452857D01*
X127496190Y-164071904D01*
X127972380Y-165595714D02*
X127972380Y-165024285D01*
X127972380Y-165310000D02*
X126972380Y-165310000D01*
X127115238Y-165214761D01*
X127210476Y-165119523D01*
X127258095Y-165024285D01*
X135907732Y-136192030D02*
X135806717Y-135619610D01*
X136311793Y-135787969D02*
X135604687Y-135080862D01*
X135335312Y-135350236D01*
X135301641Y-135451251D01*
X135301641Y-135518595D01*
X135335312Y-135619610D01*
X135436328Y-135720625D01*
X135537343Y-135754297D01*
X135604687Y-135754297D01*
X135705702Y-135720625D01*
X135975076Y-135451251D01*
X135099610Y-136192030D02*
X135133282Y-136091015D01*
X135133282Y-136023671D01*
X135099610Y-135922656D01*
X135065938Y-135888984D01*
X134964923Y-135855312D01*
X134897580Y-135855312D01*
X134796564Y-135888984D01*
X134661877Y-136023671D01*
X134628206Y-136124687D01*
X134628206Y-136192030D01*
X134661877Y-136293045D01*
X134695549Y-136326717D01*
X134796564Y-136360389D01*
X134863908Y-136360389D01*
X134964923Y-136326717D01*
X135099610Y-136192030D01*
X135200625Y-136158358D01*
X135267969Y-136158358D01*
X135368984Y-136192030D01*
X135503671Y-136326717D01*
X135537343Y-136427732D01*
X135537343Y-136495076D01*
X135503671Y-136596091D01*
X135368984Y-136730778D01*
X135267969Y-136764450D01*
X135200625Y-136764450D01*
X135099610Y-136730778D01*
X134964923Y-136596091D01*
X134931251Y-136495076D01*
X134931251Y-136427732D01*
X134964923Y-136326717D01*
X135047732Y-135322030D02*
X134946717Y-134749610D01*
X135451793Y-134917969D02*
X134744687Y-134210862D01*
X134475312Y-134480236D01*
X134441641Y-134581251D01*
X134441641Y-134648595D01*
X134475312Y-134749610D01*
X134576328Y-134850625D01*
X134677343Y-134884297D01*
X134744687Y-134884297D01*
X134845702Y-134850625D01*
X135115076Y-134581251D01*
X134104923Y-134850625D02*
X133633519Y-135322030D01*
X134643671Y-135726091D01*
X126742380Y-164683333D02*
X126266190Y-164350000D01*
X126742380Y-164111904D02*
X125742380Y-164111904D01*
X125742380Y-164492857D01*
X125790000Y-164588095D01*
X125837619Y-164635714D01*
X125932857Y-164683333D01*
X126075714Y-164683333D01*
X126170952Y-164635714D01*
X126218571Y-164588095D01*
X126266190Y-164492857D01*
X126266190Y-164111904D01*
X125742380Y-165588095D02*
X125742380Y-165111904D01*
X126218571Y-165064285D01*
X126170952Y-165111904D01*
X126123333Y-165207142D01*
X126123333Y-165445238D01*
X126170952Y-165540476D01*
X126218571Y-165588095D01*
X126313809Y-165635714D01*
X126551904Y-165635714D01*
X126647142Y-165588095D01*
X126694761Y-165540476D01*
X126742380Y-165445238D01*
X126742380Y-165207142D01*
X126694761Y-165111904D01*
X126647142Y-165064285D01*
X123522380Y-157173333D02*
X123046190Y-156840000D01*
X123522380Y-156601904D02*
X122522380Y-156601904D01*
X122522380Y-156982857D01*
X122570000Y-157078095D01*
X122617619Y-157125714D01*
X122712857Y-157173333D01*
X122855714Y-157173333D01*
X122950952Y-157125714D01*
X122998571Y-157078095D01*
X123046190Y-156982857D01*
X123046190Y-156601904D01*
X122855714Y-158030476D02*
X123522380Y-158030476D01*
X122474761Y-157792380D02*
X123189047Y-157554285D01*
X123189047Y-158173333D01*
X122052380Y-157213333D02*
X121576190Y-156880000D01*
X122052380Y-156641904D02*
X121052380Y-156641904D01*
X121052380Y-157022857D01*
X121100000Y-157118095D01*
X121147619Y-157165714D01*
X121242857Y-157213333D01*
X121385714Y-157213333D01*
X121480952Y-157165714D01*
X121528571Y-157118095D01*
X121576190Y-157022857D01*
X121576190Y-156641904D01*
X121052380Y-157546666D02*
X121052380Y-158165714D01*
X121433333Y-157832380D01*
X121433333Y-157975238D01*
X121480952Y-158070476D01*
X121528571Y-158118095D01*
X121623809Y-158165714D01*
X121861904Y-158165714D01*
X121957142Y-158118095D01*
X122004761Y-158070476D01*
X122052380Y-157975238D01*
X122052380Y-157689523D01*
X122004761Y-157594285D01*
X121957142Y-157546666D01*
X125542380Y-164683333D02*
X125066190Y-164350000D01*
X125542380Y-164111904D02*
X124542380Y-164111904D01*
X124542380Y-164492857D01*
X124590000Y-164588095D01*
X124637619Y-164635714D01*
X124732857Y-164683333D01*
X124875714Y-164683333D01*
X124970952Y-164635714D01*
X125018571Y-164588095D01*
X125066190Y-164492857D01*
X125066190Y-164111904D01*
X124637619Y-165064285D02*
X124590000Y-165111904D01*
X124542380Y-165207142D01*
X124542380Y-165445238D01*
X124590000Y-165540476D01*
X124637619Y-165588095D01*
X124732857Y-165635714D01*
X124828095Y-165635714D01*
X124970952Y-165588095D01*
X125542380Y-165016666D01*
X125542380Y-165635714D01*
X123357142Y-155313333D02*
X123404761Y-155265714D01*
X123452380Y-155122857D01*
X123452380Y-155027619D01*
X123404761Y-154884761D01*
X123309523Y-154789523D01*
X123214285Y-154741904D01*
X123023809Y-154694285D01*
X122880952Y-154694285D01*
X122690476Y-154741904D01*
X122595238Y-154789523D01*
X122500000Y-154884761D01*
X122452380Y-155027619D01*
X122452380Y-155122857D01*
X122500000Y-155265714D01*
X122547619Y-155313333D01*
X122452380Y-156218095D02*
X122452380Y-155741904D01*
X122928571Y-155694285D01*
X122880952Y-155741904D01*
X122833333Y-155837142D01*
X122833333Y-156075238D01*
X122880952Y-156170476D01*
X122928571Y-156218095D01*
X123023809Y-156265714D01*
X123261904Y-156265714D01*
X123357142Y-156218095D01*
X123404761Y-156170476D01*
X123452380Y-156075238D01*
X123452380Y-155837142D01*
X123404761Y-155741904D01*
X123357142Y-155694285D01*
X114092380Y-166197142D02*
X113616190Y-165863809D01*
X114092380Y-165625714D02*
X113092380Y-165625714D01*
X113092380Y-166006666D01*
X113140000Y-166101904D01*
X113187619Y-166149523D01*
X113282857Y-166197142D01*
X113425714Y-166197142D01*
X113520952Y-166149523D01*
X113568571Y-166101904D01*
X113616190Y-166006666D01*
X113616190Y-165625714D01*
X114092380Y-167149523D02*
X114092380Y-166578095D01*
X114092380Y-166863809D02*
X113092380Y-166863809D01*
X113235238Y-166768571D01*
X113330476Y-166673333D01*
X113378095Y-166578095D01*
X113092380Y-168054285D02*
X113092380Y-167578095D01*
X113568571Y-167530476D01*
X113520952Y-167578095D01*
X113473333Y-167673333D01*
X113473333Y-167911428D01*
X113520952Y-168006666D01*
X113568571Y-168054285D01*
X113663809Y-168101904D01*
X113901904Y-168101904D01*
X113997142Y-168054285D01*
X114044761Y-168006666D01*
X114092380Y-167911428D01*
X114092380Y-167673333D01*
X114044761Y-167578095D01*
X113997142Y-167530476D01*
X112882380Y-113457142D02*
X112406190Y-113123809D01*
X112882380Y-112885714D02*
X111882380Y-112885714D01*
X111882380Y-113266666D01*
X111930000Y-113361904D01*
X111977619Y-113409523D01*
X112072857Y-113457142D01*
X112215714Y-113457142D01*
X112310952Y-113409523D01*
X112358571Y-113361904D01*
X112406190Y-113266666D01*
X112406190Y-112885714D01*
X112882380Y-114409523D02*
X112882380Y-113838095D01*
X112882380Y-114123809D02*
X111882380Y-114123809D01*
X112025238Y-114028571D01*
X112120476Y-113933333D01*
X112168095Y-113838095D01*
X112215714Y-115266666D02*
X112882380Y-115266666D01*
X111834761Y-115028571D02*
X112549047Y-114790476D01*
X112549047Y-115409523D01*
X129472380Y-151993333D02*
X128996190Y-151660000D01*
X129472380Y-151421904D02*
X128472380Y-151421904D01*
X128472380Y-151802857D01*
X128520000Y-151898095D01*
X128567619Y-151945714D01*
X128662857Y-151993333D01*
X128805714Y-151993333D01*
X128900952Y-151945714D01*
X128948571Y-151898095D01*
X128996190Y-151802857D01*
X128996190Y-151421904D01*
X128472380Y-152850476D02*
X128472380Y-152660000D01*
X128520000Y-152564761D01*
X128567619Y-152517142D01*
X128710476Y-152421904D01*
X128900952Y-152374285D01*
X129281904Y-152374285D01*
X129377142Y-152421904D01*
X129424761Y-152469523D01*
X129472380Y-152564761D01*
X129472380Y-152755238D01*
X129424761Y-152850476D01*
X129377142Y-152898095D01*
X129281904Y-152945714D01*
X129043809Y-152945714D01*
X128948571Y-152898095D01*
X128900952Y-152850476D01*
X128853333Y-152755238D01*
X128853333Y-152564761D01*
X128900952Y-152469523D01*
X128948571Y-152421904D01*
X129043809Y-152374285D01*
X130687142Y-151933333D02*
X130734761Y-151885714D01*
X130782380Y-151742857D01*
X130782380Y-151647619D01*
X130734761Y-151504761D01*
X130639523Y-151409523D01*
X130544285Y-151361904D01*
X130353809Y-151314285D01*
X130210952Y-151314285D01*
X130020476Y-151361904D01*
X129925238Y-151409523D01*
X129830000Y-151504761D01*
X129782380Y-151647619D01*
X129782380Y-151742857D01*
X129830000Y-151885714D01*
X129877619Y-151933333D01*
X129782380Y-152266666D02*
X129782380Y-152885714D01*
X130163333Y-152552380D01*
X130163333Y-152695238D01*
X130210952Y-152790476D01*
X130258571Y-152838095D01*
X130353809Y-152885714D01*
X130591904Y-152885714D01*
X130687142Y-152838095D01*
X130734761Y-152790476D01*
X130782380Y-152695238D01*
X130782380Y-152409523D01*
X130734761Y-152314285D01*
X130687142Y-152266666D01*
X133927142Y-147923333D02*
X133974761Y-147875714D01*
X134022380Y-147732857D01*
X134022380Y-147637619D01*
X133974761Y-147494761D01*
X133879523Y-147399523D01*
X133784285Y-147351904D01*
X133593809Y-147304285D01*
X133450952Y-147304285D01*
X133260476Y-147351904D01*
X133165238Y-147399523D01*
X133070000Y-147494761D01*
X133022380Y-147637619D01*
X133022380Y-147732857D01*
X133070000Y-147875714D01*
X133117619Y-147923333D01*
X133022380Y-148256666D02*
X133022380Y-148923333D01*
X134022380Y-148494761D01*
X136247142Y-147883333D02*
X136294761Y-147835714D01*
X136342380Y-147692857D01*
X136342380Y-147597619D01*
X136294761Y-147454761D01*
X136199523Y-147359523D01*
X136104285Y-147311904D01*
X135913809Y-147264285D01*
X135770952Y-147264285D01*
X135580476Y-147311904D01*
X135485238Y-147359523D01*
X135390000Y-147454761D01*
X135342380Y-147597619D01*
X135342380Y-147692857D01*
X135390000Y-147835714D01*
X135437619Y-147883333D01*
X135342380Y-148740476D02*
X135342380Y-148550000D01*
X135390000Y-148454761D01*
X135437619Y-148407142D01*
X135580476Y-148311904D01*
X135770952Y-148264285D01*
X136151904Y-148264285D01*
X136247142Y-148311904D01*
X136294761Y-148359523D01*
X136342380Y-148454761D01*
X136342380Y-148645238D01*
X136294761Y-148740476D01*
X136247142Y-148788095D01*
X136151904Y-148835714D01*
X135913809Y-148835714D01*
X135818571Y-148788095D01*
X135770952Y-148740476D01*
X135723333Y-148645238D01*
X135723333Y-148454761D01*
X135770952Y-148359523D01*
X135818571Y-148311904D01*
X135913809Y-148264285D01*
X132617142Y-158853333D02*
X132664761Y-158805714D01*
X132712380Y-158662857D01*
X132712380Y-158567619D01*
X132664761Y-158424761D01*
X132569523Y-158329523D01*
X132474285Y-158281904D01*
X132283809Y-158234285D01*
X132140952Y-158234285D01*
X131950476Y-158281904D01*
X131855238Y-158329523D01*
X131760000Y-158424761D01*
X131712380Y-158567619D01*
X131712380Y-158662857D01*
X131760000Y-158805714D01*
X131807619Y-158853333D01*
X131807619Y-159234285D02*
X131760000Y-159281904D01*
X131712380Y-159377142D01*
X131712380Y-159615238D01*
X131760000Y-159710476D01*
X131807619Y-159758095D01*
X131902857Y-159805714D01*
X131998095Y-159805714D01*
X132140952Y-159758095D01*
X132712380Y-159186666D01*
X132712380Y-159805714D01*
X135507142Y-158893333D02*
X135554761Y-158845714D01*
X135602380Y-158702857D01*
X135602380Y-158607619D01*
X135554761Y-158464761D01*
X135459523Y-158369523D01*
X135364285Y-158321904D01*
X135173809Y-158274285D01*
X135030952Y-158274285D01*
X134840476Y-158321904D01*
X134745238Y-158369523D01*
X134650000Y-158464761D01*
X134602380Y-158607619D01*
X134602380Y-158702857D01*
X134650000Y-158845714D01*
X134697619Y-158893333D01*
X135602380Y-159845714D02*
X135602380Y-159274285D01*
X135602380Y-159560000D02*
X134602380Y-159560000D01*
X134745238Y-159464761D01*
X134840476Y-159369523D01*
X134888095Y-159274285D01*
X126367142Y-132593333D02*
X126414761Y-132545714D01*
X126462380Y-132402857D01*
X126462380Y-132307619D01*
X126414761Y-132164761D01*
X126319523Y-132069523D01*
X126224285Y-132021904D01*
X126033809Y-131974285D01*
X125890952Y-131974285D01*
X125700476Y-132021904D01*
X125605238Y-132069523D01*
X125510000Y-132164761D01*
X125462380Y-132307619D01*
X125462380Y-132402857D01*
X125510000Y-132545714D01*
X125557619Y-132593333D01*
X125795714Y-133450476D02*
X126462380Y-133450476D01*
X125414761Y-133212380D02*
X126129047Y-132974285D01*
X126129047Y-133593333D01*
X127937142Y-123293333D02*
X127984761Y-123245714D01*
X128032380Y-123102857D01*
X128032380Y-123007619D01*
X127984761Y-122864761D01*
X127889523Y-122769523D01*
X127794285Y-122721904D01*
X127603809Y-122674285D01*
X127460952Y-122674285D01*
X127270476Y-122721904D01*
X127175238Y-122769523D01*
X127080000Y-122864761D01*
X127032380Y-123007619D01*
X127032380Y-123102857D01*
X127080000Y-123245714D01*
X127127619Y-123293333D01*
X127460952Y-123864761D02*
X127413333Y-123769523D01*
X127365714Y-123721904D01*
X127270476Y-123674285D01*
X127222857Y-123674285D01*
X127127619Y-123721904D01*
X127080000Y-123769523D01*
X127032380Y-123864761D01*
X127032380Y-124055238D01*
X127080000Y-124150476D01*
X127127619Y-124198095D01*
X127222857Y-124245714D01*
X127270476Y-124245714D01*
X127365714Y-124198095D01*
X127413333Y-124150476D01*
X127460952Y-124055238D01*
X127460952Y-123864761D01*
X127508571Y-123769523D01*
X127556190Y-123721904D01*
X127651428Y-123674285D01*
X127841904Y-123674285D01*
X127937142Y-123721904D01*
X127984761Y-123769523D01*
X128032380Y-123864761D01*
X128032380Y-124055238D01*
X127984761Y-124150476D01*
X127937142Y-124198095D01*
X127841904Y-124245714D01*
X127651428Y-124245714D01*
X127556190Y-124198095D01*
X127508571Y-124150476D01*
X127460952Y-124055238D01*
X112887142Y-116283333D02*
X112934761Y-116235714D01*
X112982380Y-116092857D01*
X112982380Y-115997619D01*
X112934761Y-115854761D01*
X112839523Y-115759523D01*
X112744285Y-115711904D01*
X112553809Y-115664285D01*
X112410952Y-115664285D01*
X112220476Y-115711904D01*
X112125238Y-115759523D01*
X112030000Y-115854761D01*
X111982380Y-115997619D01*
X111982380Y-116092857D01*
X112030000Y-116235714D01*
X112077619Y-116283333D01*
X112982380Y-116759523D02*
X112982380Y-116950000D01*
X112934761Y-117045238D01*
X112887142Y-117092857D01*
X112744285Y-117188095D01*
X112553809Y-117235714D01*
X112172857Y-117235714D01*
X112077619Y-117188095D01*
X112030000Y-117140476D01*
X111982380Y-117045238D01*
X111982380Y-116854761D01*
X112030000Y-116759523D01*
X112077619Y-116711904D01*
X112172857Y-116664285D01*
X112410952Y-116664285D01*
X112506190Y-116711904D01*
X112553809Y-116759523D01*
X112601428Y-116854761D01*
X112601428Y-117045238D01*
X112553809Y-117140476D01*
X112506190Y-117188095D01*
X112410952Y-117235714D01*
X129267142Y-164657142D02*
X129314761Y-164609523D01*
X129362380Y-164466666D01*
X129362380Y-164371428D01*
X129314761Y-164228571D01*
X129219523Y-164133333D01*
X129124285Y-164085714D01*
X128933809Y-164038095D01*
X128790952Y-164038095D01*
X128600476Y-164085714D01*
X128505238Y-164133333D01*
X128410000Y-164228571D01*
X128362380Y-164371428D01*
X128362380Y-164466666D01*
X128410000Y-164609523D01*
X128457619Y-164657142D01*
X129362380Y-165609523D02*
X129362380Y-165038095D01*
X129362380Y-165323809D02*
X128362380Y-165323809D01*
X128505238Y-165228571D01*
X128600476Y-165133333D01*
X128648095Y-165038095D01*
X129362380Y-166561904D02*
X129362380Y-165990476D01*
X129362380Y-166276190D02*
X128362380Y-166276190D01*
X128505238Y-166180952D01*
X128600476Y-166085714D01*
X128648095Y-165990476D01*
X110282380Y-165621904D02*
X109282380Y-165621904D01*
X109282380Y-165860000D01*
X109330000Y-166002857D01*
X109425238Y-166098095D01*
X109520476Y-166145714D01*
X109710952Y-166193333D01*
X109853809Y-166193333D01*
X110044285Y-166145714D01*
X110139523Y-166098095D01*
X110234761Y-166002857D01*
X110282380Y-165860000D01*
X110282380Y-165621904D01*
X110282380Y-167145714D02*
X110282380Y-166574285D01*
X110282380Y-166860000D02*
X109282380Y-166860000D01*
X109425238Y-166764761D01*
X109520476Y-166669523D01*
X109568095Y-166574285D01*
X140582380Y-166306666D02*
X141296666Y-166306666D01*
X141439523Y-166259047D01*
X141534761Y-166163809D01*
X141582380Y-166020952D01*
X141582380Y-165925714D01*
X140677619Y-166735238D02*
X140630000Y-166782857D01*
X140582380Y-166878095D01*
X140582380Y-167116190D01*
X140630000Y-167211428D01*
X140677619Y-167259047D01*
X140772857Y-167306666D01*
X140868095Y-167306666D01*
X141010952Y-167259047D01*
X141582380Y-166687619D01*
X141582380Y-167306666D01*
X104012380Y-166126666D02*
X104726666Y-166126666D01*
X104869523Y-166079047D01*
X104964761Y-165983809D01*
X105012380Y-165840952D01*
X105012380Y-165745714D01*
X104012380Y-166507619D02*
X104012380Y-167126666D01*
X104393333Y-166793333D01*
X104393333Y-166936190D01*
X104440952Y-167031428D01*
X104488571Y-167079047D01*
X104583809Y-167126666D01*
X104821904Y-167126666D01*
X104917142Y-167079047D01*
X104964761Y-167031428D01*
X105012380Y-166936190D01*
X105012380Y-166650476D01*
X104964761Y-166555238D01*
X104917142Y-166507619D01*
X108282380Y-105616666D02*
X108996666Y-105616666D01*
X109139523Y-105569047D01*
X109234761Y-105473809D01*
X109282380Y-105330952D01*
X109282380Y-105235714D01*
X108615714Y-106521428D02*
X109282380Y-106521428D01*
X108234761Y-106283333D02*
X108949047Y-106045238D01*
X108949047Y-106664285D01*
X111342380Y-141143333D02*
X110866190Y-140810000D01*
X111342380Y-140571904D02*
X110342380Y-140571904D01*
X110342380Y-140952857D01*
X110390000Y-141048095D01*
X110437619Y-141095714D01*
X110532857Y-141143333D01*
X110675714Y-141143333D01*
X110770952Y-141095714D01*
X110818571Y-141048095D01*
X110866190Y-140952857D01*
X110866190Y-140571904D01*
X111342380Y-141619523D02*
X111342380Y-141810000D01*
X111294761Y-141905238D01*
X111247142Y-141952857D01*
X111104285Y-142048095D01*
X110913809Y-142095714D01*
X110532857Y-142095714D01*
X110437619Y-142048095D01*
X110390000Y-142000476D01*
X110342380Y-141905238D01*
X110342380Y-141714761D01*
X110390000Y-141619523D01*
X110437619Y-141571904D01*
X110532857Y-141524285D01*
X110770952Y-141524285D01*
X110866190Y-141571904D01*
X110913809Y-141619523D01*
X110961428Y-141714761D01*
X110961428Y-141905238D01*
X110913809Y-142000476D01*
X110866190Y-142048095D01*
X110770952Y-142095714D01*
X121612380Y-108547142D02*
X121136190Y-108213809D01*
X121612380Y-107975714D02*
X120612380Y-107975714D01*
X120612380Y-108356666D01*
X120660000Y-108451904D01*
X120707619Y-108499523D01*
X120802857Y-108547142D01*
X120945714Y-108547142D01*
X121040952Y-108499523D01*
X121088571Y-108451904D01*
X121136190Y-108356666D01*
X121136190Y-107975714D01*
X121612380Y-109499523D02*
X121612380Y-108928095D01*
X121612380Y-109213809D02*
X120612380Y-109213809D01*
X120755238Y-109118571D01*
X120850476Y-109023333D01*
X120898095Y-108928095D01*
X120612380Y-110118571D02*
X120612380Y-110213809D01*
X120660000Y-110309047D01*
X120707619Y-110356666D01*
X120802857Y-110404285D01*
X120993333Y-110451904D01*
X121231428Y-110451904D01*
X121421904Y-110404285D01*
X121517142Y-110356666D01*
X121564761Y-110309047D01*
X121612380Y-110213809D01*
X121612380Y-110118571D01*
X121564761Y-110023333D01*
X121517142Y-109975714D01*
X121421904Y-109928095D01*
X121231428Y-109880476D01*
X120993333Y-109880476D01*
X120802857Y-109928095D01*
X120707619Y-109975714D01*
X120660000Y-110023333D01*
X120612380Y-110118571D01*
X124652380Y-108607142D02*
X124176190Y-108273809D01*
X124652380Y-108035714D02*
X123652380Y-108035714D01*
X123652380Y-108416666D01*
X123700000Y-108511904D01*
X123747619Y-108559523D01*
X123842857Y-108607142D01*
X123985714Y-108607142D01*
X124080952Y-108559523D01*
X124128571Y-108511904D01*
X124176190Y-108416666D01*
X124176190Y-108035714D01*
X124652380Y-109559523D02*
X124652380Y-108988095D01*
X124652380Y-109273809D02*
X123652380Y-109273809D01*
X123795238Y-109178571D01*
X123890476Y-109083333D01*
X123938095Y-108988095D01*
X124652380Y-110511904D02*
X124652380Y-109940476D01*
X124652380Y-110226190D02*
X123652380Y-110226190D01*
X123795238Y-110130952D01*
X123890476Y-110035714D01*
X123938095Y-109940476D01*
X123082380Y-108567142D02*
X122606190Y-108233809D01*
X123082380Y-107995714D02*
X122082380Y-107995714D01*
X122082380Y-108376666D01*
X122130000Y-108471904D01*
X122177619Y-108519523D01*
X122272857Y-108567142D01*
X122415714Y-108567142D01*
X122510952Y-108519523D01*
X122558571Y-108471904D01*
X122606190Y-108376666D01*
X122606190Y-107995714D01*
X123082380Y-109519523D02*
X123082380Y-108948095D01*
X123082380Y-109233809D02*
X122082380Y-109233809D01*
X122225238Y-109138571D01*
X122320476Y-109043333D01*
X122368095Y-108948095D01*
X122177619Y-109900476D02*
X122130000Y-109948095D01*
X122082380Y-110043333D01*
X122082380Y-110281428D01*
X122130000Y-110376666D01*
X122177619Y-110424285D01*
X122272857Y-110471904D01*
X122368095Y-110471904D01*
X122510952Y-110424285D01*
X123082380Y-109852857D01*
X123082380Y-110471904D01*
X126192380Y-108607142D02*
X125716190Y-108273809D01*
X126192380Y-108035714D02*
X125192380Y-108035714D01*
X125192380Y-108416666D01*
X125240000Y-108511904D01*
X125287619Y-108559523D01*
X125382857Y-108607142D01*
X125525714Y-108607142D01*
X125620952Y-108559523D01*
X125668571Y-108511904D01*
X125716190Y-108416666D01*
X125716190Y-108035714D01*
X126192380Y-109559523D02*
X126192380Y-108988095D01*
X126192380Y-109273809D02*
X125192380Y-109273809D01*
X125335238Y-109178571D01*
X125430476Y-109083333D01*
X125478095Y-108988095D01*
X125192380Y-109892857D02*
X125192380Y-110511904D01*
X125573333Y-110178571D01*
X125573333Y-110321428D01*
X125620952Y-110416666D01*
X125668571Y-110464285D01*
X125763809Y-110511904D01*
X126001904Y-110511904D01*
X126097142Y-110464285D01*
X126144761Y-110416666D01*
X126192380Y-110321428D01*
X126192380Y-110035714D01*
X126144761Y-109940476D01*
X126097142Y-109892857D01*
X116872380Y-103589523D02*
X116396190Y-103256190D01*
X116872380Y-103018095D02*
X115872380Y-103018095D01*
X115872380Y-103399047D01*
X115920000Y-103494285D01*
X115967619Y-103541904D01*
X116062857Y-103589523D01*
X116205714Y-103589523D01*
X116300952Y-103541904D01*
X116348571Y-103494285D01*
X116396190Y-103399047D01*
X116396190Y-103018095D01*
X116872380Y-104018095D02*
X115872380Y-104018095D01*
X116872380Y-104589523D01*
X115872380Y-104589523D01*
X115967619Y-105018095D02*
X115920000Y-105065714D01*
X115872380Y-105160952D01*
X115872380Y-105399047D01*
X115920000Y-105494285D01*
X115967619Y-105541904D01*
X116062857Y-105589523D01*
X116158095Y-105589523D01*
X116300952Y-105541904D01*
X116872380Y-104970476D01*
X116872380Y-105589523D01*
X123802380Y-156628095D02*
X124611904Y-156628095D01*
X124707142Y-156675714D01*
X124754761Y-156723333D01*
X124802380Y-156818571D01*
X124802380Y-157009047D01*
X124754761Y-157104285D01*
X124707142Y-157151904D01*
X124611904Y-157199523D01*
X123802380Y-157199523D01*
X124802380Y-158199523D02*
X124802380Y-157628095D01*
X124802380Y-157913809D02*
X123802380Y-157913809D01*
X123945238Y-157818571D01*
X124040476Y-157723333D01*
X124088095Y-157628095D01*
X135455973Y-144091522D02*
X134883553Y-144663942D01*
X134782538Y-144697614D01*
X134715194Y-144697614D01*
X134614179Y-144663942D01*
X134479492Y-144529255D01*
X134445820Y-144428240D01*
X134445820Y-144360896D01*
X134479492Y-144259881D01*
X135051912Y-143687461D01*
X134681522Y-143451759D02*
X134681522Y-143384416D01*
X134647851Y-143283400D01*
X134479492Y-143115042D01*
X134378477Y-143081370D01*
X134311133Y-143081370D01*
X134210118Y-143115042D01*
X134142774Y-143182385D01*
X134075431Y-143317072D01*
X134075431Y-144125194D01*
X133637698Y-143687461D01*
X119982380Y-126838095D02*
X120791904Y-126838095D01*
X120887142Y-126885714D01*
X120934761Y-126933333D01*
X120982380Y-127028571D01*
X120982380Y-127219047D01*
X120934761Y-127314285D01*
X120887142Y-127361904D01*
X120791904Y-127409523D01*
X119982380Y-127409523D01*
X119982380Y-127790476D02*
X119982380Y-128409523D01*
X120363333Y-128076190D01*
X120363333Y-128219047D01*
X120410952Y-128314285D01*
X120458571Y-128361904D01*
X120553809Y-128409523D01*
X120791904Y-128409523D01*
X120887142Y-128361904D01*
X120934761Y-128314285D01*
X120982380Y-128219047D01*
X120982380Y-127933333D01*
X120934761Y-127838095D01*
X120887142Y-127790476D01*
X128602380Y-167478095D02*
X129411904Y-167478095D01*
X129507142Y-167525714D01*
X129554761Y-167573333D01*
X129602380Y-167668571D01*
X129602380Y-167859047D01*
X129554761Y-167954285D01*
X129507142Y-168001904D01*
X129411904Y-168049523D01*
X128602380Y-168049523D01*
X128935714Y-168954285D02*
X129602380Y-168954285D01*
X128554761Y-168716190D02*
X129269047Y-168478095D01*
X129269047Y-169097142D01*
X129646190Y-155763809D02*
X130122380Y-155763809D01*
X129122380Y-155430476D02*
X129646190Y-155763809D01*
X129122380Y-156097142D01*
X130122380Y-156954285D02*
X130122380Y-156382857D01*
X130122380Y-156668571D02*
X129122380Y-156668571D01*
X129265238Y-156573333D01*
X129360476Y-156478095D01*
X129408095Y-156382857D01*
X131796190Y-149973809D02*
X132272380Y-149973809D01*
X131272380Y-149640476D02*
X131796190Y-149973809D01*
X131272380Y-150307142D01*
X131367619Y-150592857D02*
X131320000Y-150640476D01*
X131272380Y-150735714D01*
X131272380Y-150973809D01*
X131320000Y-151069047D01*
X131367619Y-151116666D01*
X131462857Y-151164285D01*
X131558095Y-151164285D01*
X131700952Y-151116666D01*
X132272380Y-150545238D01*
X132272380Y-151164285D01*
X139974761Y-100596666D02*
X140022380Y-100739523D01*
X140022380Y-100977619D01*
X139974761Y-101072857D01*
X139927142Y-101120476D01*
X139831904Y-101168095D01*
X139736666Y-101168095D01*
X139641428Y-101120476D01*
X139593809Y-101072857D01*
X139546190Y-100977619D01*
X139498571Y-100787142D01*
X139450952Y-100691904D01*
X139403333Y-100644285D01*
X139308095Y-100596666D01*
X139212857Y-100596666D01*
X139117619Y-100644285D01*
X139070000Y-100691904D01*
X139022380Y-100787142D01*
X139022380Y-101025238D01*
X139070000Y-101168095D01*
X139022380Y-101501428D02*
X140022380Y-101739523D01*
X139308095Y-101930000D01*
X140022380Y-102120476D01*
X139022380Y-102358571D01*
X140022380Y-103263333D02*
X140022380Y-102691904D01*
X140022380Y-102977619D02*
X139022380Y-102977619D01*
X139165238Y-102882380D01*
X139260476Y-102787142D01*
X139308095Y-102691904D01*
X139944761Y-106616666D02*
X139992380Y-106759523D01*
X139992380Y-106997619D01*
X139944761Y-107092857D01*
X139897142Y-107140476D01*
X139801904Y-107188095D01*
X139706666Y-107188095D01*
X139611428Y-107140476D01*
X139563809Y-107092857D01*
X139516190Y-106997619D01*
X139468571Y-106807142D01*
X139420952Y-106711904D01*
X139373333Y-106664285D01*
X139278095Y-106616666D01*
X139182857Y-106616666D01*
X139087619Y-106664285D01*
X139040000Y-106711904D01*
X138992380Y-106807142D01*
X138992380Y-107045238D01*
X139040000Y-107188095D01*
X138992380Y-107521428D02*
X139992380Y-107759523D01*
X139278095Y-107950000D01*
X139992380Y-108140476D01*
X138992380Y-108378571D01*
X139087619Y-108711904D02*
X139040000Y-108759523D01*
X138992380Y-108854761D01*
X138992380Y-109092857D01*
X139040000Y-109188095D01*
X139087619Y-109235714D01*
X139182857Y-109283333D01*
X139278095Y-109283333D01*
X139420952Y-109235714D01*
X139992380Y-108664285D01*
X139992380Y-109283333D01*
M02*
