G04 #@! TF.GenerationSoftware,KiCad,Pcbnew,(5.1.4)-1*
G04 #@! TF.CreationDate,2019-11-26T18:47:21+08:00*
G04 #@! TF.ProjectId,TFT8K3548FPC-A1-E-DIP,54465438-4b33-4353-9438-4650432d4131,rev?*
G04 #@! TF.SameCoordinates,Original*
G04 #@! TF.FileFunction,Paste,Bot*
G04 #@! TF.FilePolarity,Positive*
%FSLAX46Y46*%
G04 Gerber Fmt 4.6, Leading zero omitted, Abs format (unit mm)*
G04 Created by KiCad (PCBNEW (5.1.4)-1) date 2019-11-26 18:47:21*
%MOMM*%
%LPD*%
G04 APERTURE LIST*
%ADD10C,0.100000*%
%ADD11C,0.950000*%
%ADD12R,0.650000X2.000000*%
%ADD13R,3.800000X2.000000*%
%ADD14R,1.500000X2.000000*%
G04 APERTURE END LIST*
D10*
G36*
X110585779Y-89366144D02*
G01*
X110608834Y-89369563D01*
X110631443Y-89375227D01*
X110653387Y-89383079D01*
X110674457Y-89393044D01*
X110694448Y-89405026D01*
X110713168Y-89418910D01*
X110730438Y-89434562D01*
X110746090Y-89451832D01*
X110759974Y-89470552D01*
X110771956Y-89490543D01*
X110781921Y-89511613D01*
X110789773Y-89533557D01*
X110795437Y-89556166D01*
X110798856Y-89579221D01*
X110800000Y-89602500D01*
X110800000Y-90077500D01*
X110798856Y-90100779D01*
X110795437Y-90123834D01*
X110789773Y-90146443D01*
X110781921Y-90168387D01*
X110771956Y-90189457D01*
X110759974Y-90209448D01*
X110746090Y-90228168D01*
X110730438Y-90245438D01*
X110713168Y-90261090D01*
X110694448Y-90274974D01*
X110674457Y-90286956D01*
X110653387Y-90296921D01*
X110631443Y-90304773D01*
X110608834Y-90310437D01*
X110585779Y-90313856D01*
X110562500Y-90315000D01*
X109987500Y-90315000D01*
X109964221Y-90313856D01*
X109941166Y-90310437D01*
X109918557Y-90304773D01*
X109896613Y-90296921D01*
X109875543Y-90286956D01*
X109855552Y-90274974D01*
X109836832Y-90261090D01*
X109819562Y-90245438D01*
X109803910Y-90228168D01*
X109790026Y-90209448D01*
X109778044Y-90189457D01*
X109768079Y-90168387D01*
X109760227Y-90146443D01*
X109754563Y-90123834D01*
X109751144Y-90100779D01*
X109750000Y-90077500D01*
X109750000Y-89602500D01*
X109751144Y-89579221D01*
X109754563Y-89556166D01*
X109760227Y-89533557D01*
X109768079Y-89511613D01*
X109778044Y-89490543D01*
X109790026Y-89470552D01*
X109803910Y-89451832D01*
X109819562Y-89434562D01*
X109836832Y-89418910D01*
X109855552Y-89405026D01*
X109875543Y-89393044D01*
X109896613Y-89383079D01*
X109918557Y-89375227D01*
X109941166Y-89369563D01*
X109964221Y-89366144D01*
X109987500Y-89365000D01*
X110562500Y-89365000D01*
X110585779Y-89366144D01*
X110585779Y-89366144D01*
G37*
D11*
X110275000Y-89840000D03*
D10*
G36*
X108835779Y-89366144D02*
G01*
X108858834Y-89369563D01*
X108881443Y-89375227D01*
X108903387Y-89383079D01*
X108924457Y-89393044D01*
X108944448Y-89405026D01*
X108963168Y-89418910D01*
X108980438Y-89434562D01*
X108996090Y-89451832D01*
X109009974Y-89470552D01*
X109021956Y-89490543D01*
X109031921Y-89511613D01*
X109039773Y-89533557D01*
X109045437Y-89556166D01*
X109048856Y-89579221D01*
X109050000Y-89602500D01*
X109050000Y-90077500D01*
X109048856Y-90100779D01*
X109045437Y-90123834D01*
X109039773Y-90146443D01*
X109031921Y-90168387D01*
X109021956Y-90189457D01*
X109009974Y-90209448D01*
X108996090Y-90228168D01*
X108980438Y-90245438D01*
X108963168Y-90261090D01*
X108944448Y-90274974D01*
X108924457Y-90286956D01*
X108903387Y-90296921D01*
X108881443Y-90304773D01*
X108858834Y-90310437D01*
X108835779Y-90313856D01*
X108812500Y-90315000D01*
X108237500Y-90315000D01*
X108214221Y-90313856D01*
X108191166Y-90310437D01*
X108168557Y-90304773D01*
X108146613Y-90296921D01*
X108125543Y-90286956D01*
X108105552Y-90274974D01*
X108086832Y-90261090D01*
X108069562Y-90245438D01*
X108053910Y-90228168D01*
X108040026Y-90209448D01*
X108028044Y-90189457D01*
X108018079Y-90168387D01*
X108010227Y-90146443D01*
X108004563Y-90123834D01*
X108001144Y-90100779D01*
X108000000Y-90077500D01*
X108000000Y-89602500D01*
X108001144Y-89579221D01*
X108004563Y-89556166D01*
X108010227Y-89533557D01*
X108018079Y-89511613D01*
X108028044Y-89490543D01*
X108040026Y-89470552D01*
X108053910Y-89451832D01*
X108069562Y-89434562D01*
X108086832Y-89418910D01*
X108105552Y-89405026D01*
X108125543Y-89393044D01*
X108146613Y-89383079D01*
X108168557Y-89375227D01*
X108191166Y-89369563D01*
X108214221Y-89366144D01*
X108237500Y-89365000D01*
X108812500Y-89365000D01*
X108835779Y-89366144D01*
X108835779Y-89366144D01*
G37*
D11*
X108525000Y-89840000D03*
D10*
G36*
X102930779Y-86291144D02*
G01*
X102953834Y-86294563D01*
X102976443Y-86300227D01*
X102998387Y-86308079D01*
X103019457Y-86318044D01*
X103039448Y-86330026D01*
X103058168Y-86343910D01*
X103075438Y-86359562D01*
X103091090Y-86376832D01*
X103104974Y-86395552D01*
X103116956Y-86415543D01*
X103126921Y-86436613D01*
X103134773Y-86458557D01*
X103140437Y-86481166D01*
X103143856Y-86504221D01*
X103145000Y-86527500D01*
X103145000Y-87102500D01*
X103143856Y-87125779D01*
X103140437Y-87148834D01*
X103134773Y-87171443D01*
X103126921Y-87193387D01*
X103116956Y-87214457D01*
X103104974Y-87234448D01*
X103091090Y-87253168D01*
X103075438Y-87270438D01*
X103058168Y-87286090D01*
X103039448Y-87299974D01*
X103019457Y-87311956D01*
X102998387Y-87321921D01*
X102976443Y-87329773D01*
X102953834Y-87335437D01*
X102930779Y-87338856D01*
X102907500Y-87340000D01*
X102432500Y-87340000D01*
X102409221Y-87338856D01*
X102386166Y-87335437D01*
X102363557Y-87329773D01*
X102341613Y-87321921D01*
X102320543Y-87311956D01*
X102300552Y-87299974D01*
X102281832Y-87286090D01*
X102264562Y-87270438D01*
X102248910Y-87253168D01*
X102235026Y-87234448D01*
X102223044Y-87214457D01*
X102213079Y-87193387D01*
X102205227Y-87171443D01*
X102199563Y-87148834D01*
X102196144Y-87125779D01*
X102195000Y-87102500D01*
X102195000Y-86527500D01*
X102196144Y-86504221D01*
X102199563Y-86481166D01*
X102205227Y-86458557D01*
X102213079Y-86436613D01*
X102223044Y-86415543D01*
X102235026Y-86395552D01*
X102248910Y-86376832D01*
X102264562Y-86359562D01*
X102281832Y-86343910D01*
X102300552Y-86330026D01*
X102320543Y-86318044D01*
X102341613Y-86308079D01*
X102363557Y-86300227D01*
X102386166Y-86294563D01*
X102409221Y-86291144D01*
X102432500Y-86290000D01*
X102907500Y-86290000D01*
X102930779Y-86291144D01*
X102930779Y-86291144D01*
G37*
D11*
X102670000Y-86815000D03*
D10*
G36*
X102930779Y-84541144D02*
G01*
X102953834Y-84544563D01*
X102976443Y-84550227D01*
X102998387Y-84558079D01*
X103019457Y-84568044D01*
X103039448Y-84580026D01*
X103058168Y-84593910D01*
X103075438Y-84609562D01*
X103091090Y-84626832D01*
X103104974Y-84645552D01*
X103116956Y-84665543D01*
X103126921Y-84686613D01*
X103134773Y-84708557D01*
X103140437Y-84731166D01*
X103143856Y-84754221D01*
X103145000Y-84777500D01*
X103145000Y-85352500D01*
X103143856Y-85375779D01*
X103140437Y-85398834D01*
X103134773Y-85421443D01*
X103126921Y-85443387D01*
X103116956Y-85464457D01*
X103104974Y-85484448D01*
X103091090Y-85503168D01*
X103075438Y-85520438D01*
X103058168Y-85536090D01*
X103039448Y-85549974D01*
X103019457Y-85561956D01*
X102998387Y-85571921D01*
X102976443Y-85579773D01*
X102953834Y-85585437D01*
X102930779Y-85588856D01*
X102907500Y-85590000D01*
X102432500Y-85590000D01*
X102409221Y-85588856D01*
X102386166Y-85585437D01*
X102363557Y-85579773D01*
X102341613Y-85571921D01*
X102320543Y-85561956D01*
X102300552Y-85549974D01*
X102281832Y-85536090D01*
X102264562Y-85520438D01*
X102248910Y-85503168D01*
X102235026Y-85484448D01*
X102223044Y-85464457D01*
X102213079Y-85443387D01*
X102205227Y-85421443D01*
X102199563Y-85398834D01*
X102196144Y-85375779D01*
X102195000Y-85352500D01*
X102195000Y-84777500D01*
X102196144Y-84754221D01*
X102199563Y-84731166D01*
X102205227Y-84708557D01*
X102213079Y-84686613D01*
X102223044Y-84665543D01*
X102235026Y-84645552D01*
X102248910Y-84626832D01*
X102264562Y-84609562D01*
X102281832Y-84593910D01*
X102300552Y-84580026D01*
X102320543Y-84568044D01*
X102341613Y-84558079D01*
X102363557Y-84550227D01*
X102386166Y-84544563D01*
X102409221Y-84541144D01*
X102432500Y-84540000D01*
X102907500Y-84540000D01*
X102930779Y-84541144D01*
X102930779Y-84541144D01*
G37*
D11*
X102670000Y-85065000D03*
D10*
G36*
X146110779Y-90481144D02*
G01*
X146133834Y-90484563D01*
X146156443Y-90490227D01*
X146178387Y-90498079D01*
X146199457Y-90508044D01*
X146219448Y-90520026D01*
X146238168Y-90533910D01*
X146255438Y-90549562D01*
X146271090Y-90566832D01*
X146284974Y-90585552D01*
X146296956Y-90605543D01*
X146306921Y-90626613D01*
X146314773Y-90648557D01*
X146320437Y-90671166D01*
X146323856Y-90694221D01*
X146325000Y-90717500D01*
X146325000Y-91292500D01*
X146323856Y-91315779D01*
X146320437Y-91338834D01*
X146314773Y-91361443D01*
X146306921Y-91383387D01*
X146296956Y-91404457D01*
X146284974Y-91424448D01*
X146271090Y-91443168D01*
X146255438Y-91460438D01*
X146238168Y-91476090D01*
X146219448Y-91489974D01*
X146199457Y-91501956D01*
X146178387Y-91511921D01*
X146156443Y-91519773D01*
X146133834Y-91525437D01*
X146110779Y-91528856D01*
X146087500Y-91530000D01*
X145612500Y-91530000D01*
X145589221Y-91528856D01*
X145566166Y-91525437D01*
X145543557Y-91519773D01*
X145521613Y-91511921D01*
X145500543Y-91501956D01*
X145480552Y-91489974D01*
X145461832Y-91476090D01*
X145444562Y-91460438D01*
X145428910Y-91443168D01*
X145415026Y-91424448D01*
X145403044Y-91404457D01*
X145393079Y-91383387D01*
X145385227Y-91361443D01*
X145379563Y-91338834D01*
X145376144Y-91315779D01*
X145375000Y-91292500D01*
X145375000Y-90717500D01*
X145376144Y-90694221D01*
X145379563Y-90671166D01*
X145385227Y-90648557D01*
X145393079Y-90626613D01*
X145403044Y-90605543D01*
X145415026Y-90585552D01*
X145428910Y-90566832D01*
X145444562Y-90549562D01*
X145461832Y-90533910D01*
X145480552Y-90520026D01*
X145500543Y-90508044D01*
X145521613Y-90498079D01*
X145543557Y-90490227D01*
X145566166Y-90484563D01*
X145589221Y-90481144D01*
X145612500Y-90480000D01*
X146087500Y-90480000D01*
X146110779Y-90481144D01*
X146110779Y-90481144D01*
G37*
D11*
X145850000Y-91005000D03*
D10*
G36*
X146110779Y-88731144D02*
G01*
X146133834Y-88734563D01*
X146156443Y-88740227D01*
X146178387Y-88748079D01*
X146199457Y-88758044D01*
X146219448Y-88770026D01*
X146238168Y-88783910D01*
X146255438Y-88799562D01*
X146271090Y-88816832D01*
X146284974Y-88835552D01*
X146296956Y-88855543D01*
X146306921Y-88876613D01*
X146314773Y-88898557D01*
X146320437Y-88921166D01*
X146323856Y-88944221D01*
X146325000Y-88967500D01*
X146325000Y-89542500D01*
X146323856Y-89565779D01*
X146320437Y-89588834D01*
X146314773Y-89611443D01*
X146306921Y-89633387D01*
X146296956Y-89654457D01*
X146284974Y-89674448D01*
X146271090Y-89693168D01*
X146255438Y-89710438D01*
X146238168Y-89726090D01*
X146219448Y-89739974D01*
X146199457Y-89751956D01*
X146178387Y-89761921D01*
X146156443Y-89769773D01*
X146133834Y-89775437D01*
X146110779Y-89778856D01*
X146087500Y-89780000D01*
X145612500Y-89780000D01*
X145589221Y-89778856D01*
X145566166Y-89775437D01*
X145543557Y-89769773D01*
X145521613Y-89761921D01*
X145500543Y-89751956D01*
X145480552Y-89739974D01*
X145461832Y-89726090D01*
X145444562Y-89710438D01*
X145428910Y-89693168D01*
X145415026Y-89674448D01*
X145403044Y-89654457D01*
X145393079Y-89633387D01*
X145385227Y-89611443D01*
X145379563Y-89588834D01*
X145376144Y-89565779D01*
X145375000Y-89542500D01*
X145375000Y-88967500D01*
X145376144Y-88944221D01*
X145379563Y-88921166D01*
X145385227Y-88898557D01*
X145393079Y-88876613D01*
X145403044Y-88855543D01*
X145415026Y-88835552D01*
X145428910Y-88816832D01*
X145444562Y-88799562D01*
X145461832Y-88783910D01*
X145480552Y-88770026D01*
X145500543Y-88758044D01*
X145521613Y-88748079D01*
X145543557Y-88740227D01*
X145566166Y-88734563D01*
X145589221Y-88731144D01*
X145612500Y-88730000D01*
X146087500Y-88730000D01*
X146110779Y-88731144D01*
X146110779Y-88731144D01*
G37*
D11*
X145850000Y-89255000D03*
D10*
G36*
X112470779Y-84546144D02*
G01*
X112493834Y-84549563D01*
X112516443Y-84555227D01*
X112538387Y-84563079D01*
X112559457Y-84573044D01*
X112579448Y-84585026D01*
X112598168Y-84598910D01*
X112615438Y-84614562D01*
X112631090Y-84631832D01*
X112644974Y-84650552D01*
X112656956Y-84670543D01*
X112666921Y-84691613D01*
X112674773Y-84713557D01*
X112680437Y-84736166D01*
X112683856Y-84759221D01*
X112685000Y-84782500D01*
X112685000Y-85357500D01*
X112683856Y-85380779D01*
X112680437Y-85403834D01*
X112674773Y-85426443D01*
X112666921Y-85448387D01*
X112656956Y-85469457D01*
X112644974Y-85489448D01*
X112631090Y-85508168D01*
X112615438Y-85525438D01*
X112598168Y-85541090D01*
X112579448Y-85554974D01*
X112559457Y-85566956D01*
X112538387Y-85576921D01*
X112516443Y-85584773D01*
X112493834Y-85590437D01*
X112470779Y-85593856D01*
X112447500Y-85595000D01*
X111972500Y-85595000D01*
X111949221Y-85593856D01*
X111926166Y-85590437D01*
X111903557Y-85584773D01*
X111881613Y-85576921D01*
X111860543Y-85566956D01*
X111840552Y-85554974D01*
X111821832Y-85541090D01*
X111804562Y-85525438D01*
X111788910Y-85508168D01*
X111775026Y-85489448D01*
X111763044Y-85469457D01*
X111753079Y-85448387D01*
X111745227Y-85426443D01*
X111739563Y-85403834D01*
X111736144Y-85380779D01*
X111735000Y-85357500D01*
X111735000Y-84782500D01*
X111736144Y-84759221D01*
X111739563Y-84736166D01*
X111745227Y-84713557D01*
X111753079Y-84691613D01*
X111763044Y-84670543D01*
X111775026Y-84650552D01*
X111788910Y-84631832D01*
X111804562Y-84614562D01*
X111821832Y-84598910D01*
X111840552Y-84585026D01*
X111860543Y-84573044D01*
X111881613Y-84563079D01*
X111903557Y-84555227D01*
X111926166Y-84549563D01*
X111949221Y-84546144D01*
X111972500Y-84545000D01*
X112447500Y-84545000D01*
X112470779Y-84546144D01*
X112470779Y-84546144D01*
G37*
D11*
X112210000Y-85070000D03*
D10*
G36*
X112470779Y-86296144D02*
G01*
X112493834Y-86299563D01*
X112516443Y-86305227D01*
X112538387Y-86313079D01*
X112559457Y-86323044D01*
X112579448Y-86335026D01*
X112598168Y-86348910D01*
X112615438Y-86364562D01*
X112631090Y-86381832D01*
X112644974Y-86400552D01*
X112656956Y-86420543D01*
X112666921Y-86441613D01*
X112674773Y-86463557D01*
X112680437Y-86486166D01*
X112683856Y-86509221D01*
X112685000Y-86532500D01*
X112685000Y-87107500D01*
X112683856Y-87130779D01*
X112680437Y-87153834D01*
X112674773Y-87176443D01*
X112666921Y-87198387D01*
X112656956Y-87219457D01*
X112644974Y-87239448D01*
X112631090Y-87258168D01*
X112615438Y-87275438D01*
X112598168Y-87291090D01*
X112579448Y-87304974D01*
X112559457Y-87316956D01*
X112538387Y-87326921D01*
X112516443Y-87334773D01*
X112493834Y-87340437D01*
X112470779Y-87343856D01*
X112447500Y-87345000D01*
X111972500Y-87345000D01*
X111949221Y-87343856D01*
X111926166Y-87340437D01*
X111903557Y-87334773D01*
X111881613Y-87326921D01*
X111860543Y-87316956D01*
X111840552Y-87304974D01*
X111821832Y-87291090D01*
X111804562Y-87275438D01*
X111788910Y-87258168D01*
X111775026Y-87239448D01*
X111763044Y-87219457D01*
X111753079Y-87198387D01*
X111745227Y-87176443D01*
X111739563Y-87153834D01*
X111736144Y-87130779D01*
X111735000Y-87107500D01*
X111735000Y-86532500D01*
X111736144Y-86509221D01*
X111739563Y-86486166D01*
X111745227Y-86463557D01*
X111753079Y-86441613D01*
X111763044Y-86420543D01*
X111775026Y-86400552D01*
X111788910Y-86381832D01*
X111804562Y-86364562D01*
X111821832Y-86348910D01*
X111840552Y-86335026D01*
X111860543Y-86323044D01*
X111881613Y-86313079D01*
X111903557Y-86305227D01*
X111926166Y-86299563D01*
X111949221Y-86296144D01*
X111972500Y-86295000D01*
X112447500Y-86295000D01*
X112470779Y-86296144D01*
X112470779Y-86296144D01*
G37*
D11*
X112210000Y-86820000D03*
D10*
G36*
X130030779Y-90526144D02*
G01*
X130053834Y-90529563D01*
X130076443Y-90535227D01*
X130098387Y-90543079D01*
X130119457Y-90553044D01*
X130139448Y-90565026D01*
X130158168Y-90578910D01*
X130175438Y-90594562D01*
X130191090Y-90611832D01*
X130204974Y-90630552D01*
X130216956Y-90650543D01*
X130226921Y-90671613D01*
X130234773Y-90693557D01*
X130240437Y-90716166D01*
X130243856Y-90739221D01*
X130245000Y-90762500D01*
X130245000Y-91337500D01*
X130243856Y-91360779D01*
X130240437Y-91383834D01*
X130234773Y-91406443D01*
X130226921Y-91428387D01*
X130216956Y-91449457D01*
X130204974Y-91469448D01*
X130191090Y-91488168D01*
X130175438Y-91505438D01*
X130158168Y-91521090D01*
X130139448Y-91534974D01*
X130119457Y-91546956D01*
X130098387Y-91556921D01*
X130076443Y-91564773D01*
X130053834Y-91570437D01*
X130030779Y-91573856D01*
X130007500Y-91575000D01*
X129532500Y-91575000D01*
X129509221Y-91573856D01*
X129486166Y-91570437D01*
X129463557Y-91564773D01*
X129441613Y-91556921D01*
X129420543Y-91546956D01*
X129400552Y-91534974D01*
X129381832Y-91521090D01*
X129364562Y-91505438D01*
X129348910Y-91488168D01*
X129335026Y-91469448D01*
X129323044Y-91449457D01*
X129313079Y-91428387D01*
X129305227Y-91406443D01*
X129299563Y-91383834D01*
X129296144Y-91360779D01*
X129295000Y-91337500D01*
X129295000Y-90762500D01*
X129296144Y-90739221D01*
X129299563Y-90716166D01*
X129305227Y-90693557D01*
X129313079Y-90671613D01*
X129323044Y-90650543D01*
X129335026Y-90630552D01*
X129348910Y-90611832D01*
X129364562Y-90594562D01*
X129381832Y-90578910D01*
X129400552Y-90565026D01*
X129420543Y-90553044D01*
X129441613Y-90543079D01*
X129463557Y-90535227D01*
X129486166Y-90529563D01*
X129509221Y-90526144D01*
X129532500Y-90525000D01*
X130007500Y-90525000D01*
X130030779Y-90526144D01*
X130030779Y-90526144D01*
G37*
D11*
X129770000Y-91050000D03*
D10*
G36*
X130030779Y-88776144D02*
G01*
X130053834Y-88779563D01*
X130076443Y-88785227D01*
X130098387Y-88793079D01*
X130119457Y-88803044D01*
X130139448Y-88815026D01*
X130158168Y-88828910D01*
X130175438Y-88844562D01*
X130191090Y-88861832D01*
X130204974Y-88880552D01*
X130216956Y-88900543D01*
X130226921Y-88921613D01*
X130234773Y-88943557D01*
X130240437Y-88966166D01*
X130243856Y-88989221D01*
X130245000Y-89012500D01*
X130245000Y-89587500D01*
X130243856Y-89610779D01*
X130240437Y-89633834D01*
X130234773Y-89656443D01*
X130226921Y-89678387D01*
X130216956Y-89699457D01*
X130204974Y-89719448D01*
X130191090Y-89738168D01*
X130175438Y-89755438D01*
X130158168Y-89771090D01*
X130139448Y-89784974D01*
X130119457Y-89796956D01*
X130098387Y-89806921D01*
X130076443Y-89814773D01*
X130053834Y-89820437D01*
X130030779Y-89823856D01*
X130007500Y-89825000D01*
X129532500Y-89825000D01*
X129509221Y-89823856D01*
X129486166Y-89820437D01*
X129463557Y-89814773D01*
X129441613Y-89806921D01*
X129420543Y-89796956D01*
X129400552Y-89784974D01*
X129381832Y-89771090D01*
X129364562Y-89755438D01*
X129348910Y-89738168D01*
X129335026Y-89719448D01*
X129323044Y-89699457D01*
X129313079Y-89678387D01*
X129305227Y-89656443D01*
X129299563Y-89633834D01*
X129296144Y-89610779D01*
X129295000Y-89587500D01*
X129295000Y-89012500D01*
X129296144Y-88989221D01*
X129299563Y-88966166D01*
X129305227Y-88943557D01*
X129313079Y-88921613D01*
X129323044Y-88900543D01*
X129335026Y-88880552D01*
X129348910Y-88861832D01*
X129364562Y-88844562D01*
X129381832Y-88828910D01*
X129400552Y-88815026D01*
X129420543Y-88803044D01*
X129441613Y-88793079D01*
X129463557Y-88785227D01*
X129486166Y-88779563D01*
X129509221Y-88776144D01*
X129532500Y-88775000D01*
X130007500Y-88775000D01*
X130030779Y-88776144D01*
X130030779Y-88776144D01*
G37*
D11*
X129770000Y-89300000D03*
D12*
X141900000Y-90580000D03*
X140000000Y-90580000D03*
X140950000Y-87160000D03*
D10*
G36*
X134130779Y-88786144D02*
G01*
X134153834Y-88789563D01*
X134176443Y-88795227D01*
X134198387Y-88803079D01*
X134219457Y-88813044D01*
X134239448Y-88825026D01*
X134258168Y-88838910D01*
X134275438Y-88854562D01*
X134291090Y-88871832D01*
X134304974Y-88890552D01*
X134316956Y-88910543D01*
X134326921Y-88931613D01*
X134334773Y-88953557D01*
X134340437Y-88976166D01*
X134343856Y-88999221D01*
X134345000Y-89022500D01*
X134345000Y-89597500D01*
X134343856Y-89620779D01*
X134340437Y-89643834D01*
X134334773Y-89666443D01*
X134326921Y-89688387D01*
X134316956Y-89709457D01*
X134304974Y-89729448D01*
X134291090Y-89748168D01*
X134275438Y-89765438D01*
X134258168Y-89781090D01*
X134239448Y-89794974D01*
X134219457Y-89806956D01*
X134198387Y-89816921D01*
X134176443Y-89824773D01*
X134153834Y-89830437D01*
X134130779Y-89833856D01*
X134107500Y-89835000D01*
X133632500Y-89835000D01*
X133609221Y-89833856D01*
X133586166Y-89830437D01*
X133563557Y-89824773D01*
X133541613Y-89816921D01*
X133520543Y-89806956D01*
X133500552Y-89794974D01*
X133481832Y-89781090D01*
X133464562Y-89765438D01*
X133448910Y-89748168D01*
X133435026Y-89729448D01*
X133423044Y-89709457D01*
X133413079Y-89688387D01*
X133405227Y-89666443D01*
X133399563Y-89643834D01*
X133396144Y-89620779D01*
X133395000Y-89597500D01*
X133395000Y-89022500D01*
X133396144Y-88999221D01*
X133399563Y-88976166D01*
X133405227Y-88953557D01*
X133413079Y-88931613D01*
X133423044Y-88910543D01*
X133435026Y-88890552D01*
X133448910Y-88871832D01*
X133464562Y-88854562D01*
X133481832Y-88838910D01*
X133500552Y-88825026D01*
X133520543Y-88813044D01*
X133541613Y-88803079D01*
X133563557Y-88795227D01*
X133586166Y-88789563D01*
X133609221Y-88786144D01*
X133632500Y-88785000D01*
X134107500Y-88785000D01*
X134130779Y-88786144D01*
X134130779Y-88786144D01*
G37*
D11*
X133870000Y-89310000D03*
D10*
G36*
X134130779Y-90536144D02*
G01*
X134153834Y-90539563D01*
X134176443Y-90545227D01*
X134198387Y-90553079D01*
X134219457Y-90563044D01*
X134239448Y-90575026D01*
X134258168Y-90588910D01*
X134275438Y-90604562D01*
X134291090Y-90621832D01*
X134304974Y-90640552D01*
X134316956Y-90660543D01*
X134326921Y-90681613D01*
X134334773Y-90703557D01*
X134340437Y-90726166D01*
X134343856Y-90749221D01*
X134345000Y-90772500D01*
X134345000Y-91347500D01*
X134343856Y-91370779D01*
X134340437Y-91393834D01*
X134334773Y-91416443D01*
X134326921Y-91438387D01*
X134316956Y-91459457D01*
X134304974Y-91479448D01*
X134291090Y-91498168D01*
X134275438Y-91515438D01*
X134258168Y-91531090D01*
X134239448Y-91544974D01*
X134219457Y-91556956D01*
X134198387Y-91566921D01*
X134176443Y-91574773D01*
X134153834Y-91580437D01*
X134130779Y-91583856D01*
X134107500Y-91585000D01*
X133632500Y-91585000D01*
X133609221Y-91583856D01*
X133586166Y-91580437D01*
X133563557Y-91574773D01*
X133541613Y-91566921D01*
X133520543Y-91556956D01*
X133500552Y-91544974D01*
X133481832Y-91531090D01*
X133464562Y-91515438D01*
X133448910Y-91498168D01*
X133435026Y-91479448D01*
X133423044Y-91459457D01*
X133413079Y-91438387D01*
X133405227Y-91416443D01*
X133399563Y-91393834D01*
X133396144Y-91370779D01*
X133395000Y-91347500D01*
X133395000Y-90772500D01*
X133396144Y-90749221D01*
X133399563Y-90726166D01*
X133405227Y-90703557D01*
X133413079Y-90681613D01*
X133423044Y-90660543D01*
X133435026Y-90640552D01*
X133448910Y-90621832D01*
X133464562Y-90604562D01*
X133481832Y-90588910D01*
X133500552Y-90575026D01*
X133520543Y-90563044D01*
X133541613Y-90553079D01*
X133563557Y-90545227D01*
X133586166Y-90539563D01*
X133609221Y-90536144D01*
X133632500Y-90535000D01*
X134107500Y-90535000D01*
X134130779Y-90536144D01*
X134130779Y-90536144D01*
G37*
D11*
X133870000Y-91060000D03*
D10*
G36*
X136180779Y-90536144D02*
G01*
X136203834Y-90539563D01*
X136226443Y-90545227D01*
X136248387Y-90553079D01*
X136269457Y-90563044D01*
X136289448Y-90575026D01*
X136308168Y-90588910D01*
X136325438Y-90604562D01*
X136341090Y-90621832D01*
X136354974Y-90640552D01*
X136366956Y-90660543D01*
X136376921Y-90681613D01*
X136384773Y-90703557D01*
X136390437Y-90726166D01*
X136393856Y-90749221D01*
X136395000Y-90772500D01*
X136395000Y-91347500D01*
X136393856Y-91370779D01*
X136390437Y-91393834D01*
X136384773Y-91416443D01*
X136376921Y-91438387D01*
X136366956Y-91459457D01*
X136354974Y-91479448D01*
X136341090Y-91498168D01*
X136325438Y-91515438D01*
X136308168Y-91531090D01*
X136289448Y-91544974D01*
X136269457Y-91556956D01*
X136248387Y-91566921D01*
X136226443Y-91574773D01*
X136203834Y-91580437D01*
X136180779Y-91583856D01*
X136157500Y-91585000D01*
X135682500Y-91585000D01*
X135659221Y-91583856D01*
X135636166Y-91580437D01*
X135613557Y-91574773D01*
X135591613Y-91566921D01*
X135570543Y-91556956D01*
X135550552Y-91544974D01*
X135531832Y-91531090D01*
X135514562Y-91515438D01*
X135498910Y-91498168D01*
X135485026Y-91479448D01*
X135473044Y-91459457D01*
X135463079Y-91438387D01*
X135455227Y-91416443D01*
X135449563Y-91393834D01*
X135446144Y-91370779D01*
X135445000Y-91347500D01*
X135445000Y-90772500D01*
X135446144Y-90749221D01*
X135449563Y-90726166D01*
X135455227Y-90703557D01*
X135463079Y-90681613D01*
X135473044Y-90660543D01*
X135485026Y-90640552D01*
X135498910Y-90621832D01*
X135514562Y-90604562D01*
X135531832Y-90588910D01*
X135550552Y-90575026D01*
X135570543Y-90563044D01*
X135591613Y-90553079D01*
X135613557Y-90545227D01*
X135636166Y-90539563D01*
X135659221Y-90536144D01*
X135682500Y-90535000D01*
X136157500Y-90535000D01*
X136180779Y-90536144D01*
X136180779Y-90536144D01*
G37*
D11*
X135920000Y-91060000D03*
D10*
G36*
X136180779Y-88786144D02*
G01*
X136203834Y-88789563D01*
X136226443Y-88795227D01*
X136248387Y-88803079D01*
X136269457Y-88813044D01*
X136289448Y-88825026D01*
X136308168Y-88838910D01*
X136325438Y-88854562D01*
X136341090Y-88871832D01*
X136354974Y-88890552D01*
X136366956Y-88910543D01*
X136376921Y-88931613D01*
X136384773Y-88953557D01*
X136390437Y-88976166D01*
X136393856Y-88999221D01*
X136395000Y-89022500D01*
X136395000Y-89597500D01*
X136393856Y-89620779D01*
X136390437Y-89643834D01*
X136384773Y-89666443D01*
X136376921Y-89688387D01*
X136366956Y-89709457D01*
X136354974Y-89729448D01*
X136341090Y-89748168D01*
X136325438Y-89765438D01*
X136308168Y-89781090D01*
X136289448Y-89794974D01*
X136269457Y-89806956D01*
X136248387Y-89816921D01*
X136226443Y-89824773D01*
X136203834Y-89830437D01*
X136180779Y-89833856D01*
X136157500Y-89835000D01*
X135682500Y-89835000D01*
X135659221Y-89833856D01*
X135636166Y-89830437D01*
X135613557Y-89824773D01*
X135591613Y-89816921D01*
X135570543Y-89806956D01*
X135550552Y-89794974D01*
X135531832Y-89781090D01*
X135514562Y-89765438D01*
X135498910Y-89748168D01*
X135485026Y-89729448D01*
X135473044Y-89709457D01*
X135463079Y-89688387D01*
X135455227Y-89666443D01*
X135449563Y-89643834D01*
X135446144Y-89620779D01*
X135445000Y-89597500D01*
X135445000Y-89022500D01*
X135446144Y-88999221D01*
X135449563Y-88976166D01*
X135455227Y-88953557D01*
X135463079Y-88931613D01*
X135473044Y-88910543D01*
X135485026Y-88890552D01*
X135498910Y-88871832D01*
X135514562Y-88854562D01*
X135531832Y-88838910D01*
X135550552Y-88825026D01*
X135570543Y-88813044D01*
X135591613Y-88803079D01*
X135613557Y-88795227D01*
X135636166Y-88789563D01*
X135659221Y-88786144D01*
X135682500Y-88785000D01*
X136157500Y-88785000D01*
X136180779Y-88786144D01*
X136180779Y-88786144D01*
G37*
D11*
X135920000Y-89310000D03*
D10*
G36*
X132060779Y-88776144D02*
G01*
X132083834Y-88779563D01*
X132106443Y-88785227D01*
X132128387Y-88793079D01*
X132149457Y-88803044D01*
X132169448Y-88815026D01*
X132188168Y-88828910D01*
X132205438Y-88844562D01*
X132221090Y-88861832D01*
X132234974Y-88880552D01*
X132246956Y-88900543D01*
X132256921Y-88921613D01*
X132264773Y-88943557D01*
X132270437Y-88966166D01*
X132273856Y-88989221D01*
X132275000Y-89012500D01*
X132275000Y-89587500D01*
X132273856Y-89610779D01*
X132270437Y-89633834D01*
X132264773Y-89656443D01*
X132256921Y-89678387D01*
X132246956Y-89699457D01*
X132234974Y-89719448D01*
X132221090Y-89738168D01*
X132205438Y-89755438D01*
X132188168Y-89771090D01*
X132169448Y-89784974D01*
X132149457Y-89796956D01*
X132128387Y-89806921D01*
X132106443Y-89814773D01*
X132083834Y-89820437D01*
X132060779Y-89823856D01*
X132037500Y-89825000D01*
X131562500Y-89825000D01*
X131539221Y-89823856D01*
X131516166Y-89820437D01*
X131493557Y-89814773D01*
X131471613Y-89806921D01*
X131450543Y-89796956D01*
X131430552Y-89784974D01*
X131411832Y-89771090D01*
X131394562Y-89755438D01*
X131378910Y-89738168D01*
X131365026Y-89719448D01*
X131353044Y-89699457D01*
X131343079Y-89678387D01*
X131335227Y-89656443D01*
X131329563Y-89633834D01*
X131326144Y-89610779D01*
X131325000Y-89587500D01*
X131325000Y-89012500D01*
X131326144Y-88989221D01*
X131329563Y-88966166D01*
X131335227Y-88943557D01*
X131343079Y-88921613D01*
X131353044Y-88900543D01*
X131365026Y-88880552D01*
X131378910Y-88861832D01*
X131394562Y-88844562D01*
X131411832Y-88828910D01*
X131430552Y-88815026D01*
X131450543Y-88803044D01*
X131471613Y-88793079D01*
X131493557Y-88785227D01*
X131516166Y-88779563D01*
X131539221Y-88776144D01*
X131562500Y-88775000D01*
X132037500Y-88775000D01*
X132060779Y-88776144D01*
X132060779Y-88776144D01*
G37*
D11*
X131800000Y-89300000D03*
D10*
G36*
X132060779Y-90526144D02*
G01*
X132083834Y-90529563D01*
X132106443Y-90535227D01*
X132128387Y-90543079D01*
X132149457Y-90553044D01*
X132169448Y-90565026D01*
X132188168Y-90578910D01*
X132205438Y-90594562D01*
X132221090Y-90611832D01*
X132234974Y-90630552D01*
X132246956Y-90650543D01*
X132256921Y-90671613D01*
X132264773Y-90693557D01*
X132270437Y-90716166D01*
X132273856Y-90739221D01*
X132275000Y-90762500D01*
X132275000Y-91337500D01*
X132273856Y-91360779D01*
X132270437Y-91383834D01*
X132264773Y-91406443D01*
X132256921Y-91428387D01*
X132246956Y-91449457D01*
X132234974Y-91469448D01*
X132221090Y-91488168D01*
X132205438Y-91505438D01*
X132188168Y-91521090D01*
X132169448Y-91534974D01*
X132149457Y-91546956D01*
X132128387Y-91556921D01*
X132106443Y-91564773D01*
X132083834Y-91570437D01*
X132060779Y-91573856D01*
X132037500Y-91575000D01*
X131562500Y-91575000D01*
X131539221Y-91573856D01*
X131516166Y-91570437D01*
X131493557Y-91564773D01*
X131471613Y-91556921D01*
X131450543Y-91546956D01*
X131430552Y-91534974D01*
X131411832Y-91521090D01*
X131394562Y-91505438D01*
X131378910Y-91488168D01*
X131365026Y-91469448D01*
X131353044Y-91449457D01*
X131343079Y-91428387D01*
X131335227Y-91406443D01*
X131329563Y-91383834D01*
X131326144Y-91360779D01*
X131325000Y-91337500D01*
X131325000Y-90762500D01*
X131326144Y-90739221D01*
X131329563Y-90716166D01*
X131335227Y-90693557D01*
X131343079Y-90671613D01*
X131353044Y-90650543D01*
X131365026Y-90630552D01*
X131378910Y-90611832D01*
X131394562Y-90594562D01*
X131411832Y-90578910D01*
X131430552Y-90565026D01*
X131450543Y-90553044D01*
X131471613Y-90543079D01*
X131493557Y-90535227D01*
X131516166Y-90529563D01*
X131539221Y-90526144D01*
X131562500Y-90525000D01*
X132037500Y-90525000D01*
X132060779Y-90526144D01*
X132060779Y-90526144D01*
G37*
D11*
X131800000Y-91050000D03*
D10*
G36*
X114360779Y-86296144D02*
G01*
X114383834Y-86299563D01*
X114406443Y-86305227D01*
X114428387Y-86313079D01*
X114449457Y-86323044D01*
X114469448Y-86335026D01*
X114488168Y-86348910D01*
X114505438Y-86364562D01*
X114521090Y-86381832D01*
X114534974Y-86400552D01*
X114546956Y-86420543D01*
X114556921Y-86441613D01*
X114564773Y-86463557D01*
X114570437Y-86486166D01*
X114573856Y-86509221D01*
X114575000Y-86532500D01*
X114575000Y-87107500D01*
X114573856Y-87130779D01*
X114570437Y-87153834D01*
X114564773Y-87176443D01*
X114556921Y-87198387D01*
X114546956Y-87219457D01*
X114534974Y-87239448D01*
X114521090Y-87258168D01*
X114505438Y-87275438D01*
X114488168Y-87291090D01*
X114469448Y-87304974D01*
X114449457Y-87316956D01*
X114428387Y-87326921D01*
X114406443Y-87334773D01*
X114383834Y-87340437D01*
X114360779Y-87343856D01*
X114337500Y-87345000D01*
X113862500Y-87345000D01*
X113839221Y-87343856D01*
X113816166Y-87340437D01*
X113793557Y-87334773D01*
X113771613Y-87326921D01*
X113750543Y-87316956D01*
X113730552Y-87304974D01*
X113711832Y-87291090D01*
X113694562Y-87275438D01*
X113678910Y-87258168D01*
X113665026Y-87239448D01*
X113653044Y-87219457D01*
X113643079Y-87198387D01*
X113635227Y-87176443D01*
X113629563Y-87153834D01*
X113626144Y-87130779D01*
X113625000Y-87107500D01*
X113625000Y-86532500D01*
X113626144Y-86509221D01*
X113629563Y-86486166D01*
X113635227Y-86463557D01*
X113643079Y-86441613D01*
X113653044Y-86420543D01*
X113665026Y-86400552D01*
X113678910Y-86381832D01*
X113694562Y-86364562D01*
X113711832Y-86348910D01*
X113730552Y-86335026D01*
X113750543Y-86323044D01*
X113771613Y-86313079D01*
X113793557Y-86305227D01*
X113816166Y-86299563D01*
X113839221Y-86296144D01*
X113862500Y-86295000D01*
X114337500Y-86295000D01*
X114360779Y-86296144D01*
X114360779Y-86296144D01*
G37*
D11*
X114100000Y-86820000D03*
D10*
G36*
X114360779Y-84546144D02*
G01*
X114383834Y-84549563D01*
X114406443Y-84555227D01*
X114428387Y-84563079D01*
X114449457Y-84573044D01*
X114469448Y-84585026D01*
X114488168Y-84598910D01*
X114505438Y-84614562D01*
X114521090Y-84631832D01*
X114534974Y-84650552D01*
X114546956Y-84670543D01*
X114556921Y-84691613D01*
X114564773Y-84713557D01*
X114570437Y-84736166D01*
X114573856Y-84759221D01*
X114575000Y-84782500D01*
X114575000Y-85357500D01*
X114573856Y-85380779D01*
X114570437Y-85403834D01*
X114564773Y-85426443D01*
X114556921Y-85448387D01*
X114546956Y-85469457D01*
X114534974Y-85489448D01*
X114521090Y-85508168D01*
X114505438Y-85525438D01*
X114488168Y-85541090D01*
X114469448Y-85554974D01*
X114449457Y-85566956D01*
X114428387Y-85576921D01*
X114406443Y-85584773D01*
X114383834Y-85590437D01*
X114360779Y-85593856D01*
X114337500Y-85595000D01*
X113862500Y-85595000D01*
X113839221Y-85593856D01*
X113816166Y-85590437D01*
X113793557Y-85584773D01*
X113771613Y-85576921D01*
X113750543Y-85566956D01*
X113730552Y-85554974D01*
X113711832Y-85541090D01*
X113694562Y-85525438D01*
X113678910Y-85508168D01*
X113665026Y-85489448D01*
X113653044Y-85469457D01*
X113643079Y-85448387D01*
X113635227Y-85426443D01*
X113629563Y-85403834D01*
X113626144Y-85380779D01*
X113625000Y-85357500D01*
X113625000Y-84782500D01*
X113626144Y-84759221D01*
X113629563Y-84736166D01*
X113635227Y-84713557D01*
X113643079Y-84691613D01*
X113653044Y-84670543D01*
X113665026Y-84650552D01*
X113678910Y-84631832D01*
X113694562Y-84614562D01*
X113711832Y-84598910D01*
X113730552Y-84585026D01*
X113750543Y-84573044D01*
X113771613Y-84563079D01*
X113793557Y-84555227D01*
X113816166Y-84549563D01*
X113839221Y-84546144D01*
X113862500Y-84545000D01*
X114337500Y-84545000D01*
X114360779Y-84546144D01*
X114360779Y-84546144D01*
G37*
D11*
X114100000Y-85070000D03*
D10*
G36*
X138230779Y-88786144D02*
G01*
X138253834Y-88789563D01*
X138276443Y-88795227D01*
X138298387Y-88803079D01*
X138319457Y-88813044D01*
X138339448Y-88825026D01*
X138358168Y-88838910D01*
X138375438Y-88854562D01*
X138391090Y-88871832D01*
X138404974Y-88890552D01*
X138416956Y-88910543D01*
X138426921Y-88931613D01*
X138434773Y-88953557D01*
X138440437Y-88976166D01*
X138443856Y-88999221D01*
X138445000Y-89022500D01*
X138445000Y-89597500D01*
X138443856Y-89620779D01*
X138440437Y-89643834D01*
X138434773Y-89666443D01*
X138426921Y-89688387D01*
X138416956Y-89709457D01*
X138404974Y-89729448D01*
X138391090Y-89748168D01*
X138375438Y-89765438D01*
X138358168Y-89781090D01*
X138339448Y-89794974D01*
X138319457Y-89806956D01*
X138298387Y-89816921D01*
X138276443Y-89824773D01*
X138253834Y-89830437D01*
X138230779Y-89833856D01*
X138207500Y-89835000D01*
X137732500Y-89835000D01*
X137709221Y-89833856D01*
X137686166Y-89830437D01*
X137663557Y-89824773D01*
X137641613Y-89816921D01*
X137620543Y-89806956D01*
X137600552Y-89794974D01*
X137581832Y-89781090D01*
X137564562Y-89765438D01*
X137548910Y-89748168D01*
X137535026Y-89729448D01*
X137523044Y-89709457D01*
X137513079Y-89688387D01*
X137505227Y-89666443D01*
X137499563Y-89643834D01*
X137496144Y-89620779D01*
X137495000Y-89597500D01*
X137495000Y-89022500D01*
X137496144Y-88999221D01*
X137499563Y-88976166D01*
X137505227Y-88953557D01*
X137513079Y-88931613D01*
X137523044Y-88910543D01*
X137535026Y-88890552D01*
X137548910Y-88871832D01*
X137564562Y-88854562D01*
X137581832Y-88838910D01*
X137600552Y-88825026D01*
X137620543Y-88813044D01*
X137641613Y-88803079D01*
X137663557Y-88795227D01*
X137686166Y-88789563D01*
X137709221Y-88786144D01*
X137732500Y-88785000D01*
X138207500Y-88785000D01*
X138230779Y-88786144D01*
X138230779Y-88786144D01*
G37*
D11*
X137970000Y-89310000D03*
D10*
G36*
X138230779Y-90536144D02*
G01*
X138253834Y-90539563D01*
X138276443Y-90545227D01*
X138298387Y-90553079D01*
X138319457Y-90563044D01*
X138339448Y-90575026D01*
X138358168Y-90588910D01*
X138375438Y-90604562D01*
X138391090Y-90621832D01*
X138404974Y-90640552D01*
X138416956Y-90660543D01*
X138426921Y-90681613D01*
X138434773Y-90703557D01*
X138440437Y-90726166D01*
X138443856Y-90749221D01*
X138445000Y-90772500D01*
X138445000Y-91347500D01*
X138443856Y-91370779D01*
X138440437Y-91393834D01*
X138434773Y-91416443D01*
X138426921Y-91438387D01*
X138416956Y-91459457D01*
X138404974Y-91479448D01*
X138391090Y-91498168D01*
X138375438Y-91515438D01*
X138358168Y-91531090D01*
X138339448Y-91544974D01*
X138319457Y-91556956D01*
X138298387Y-91566921D01*
X138276443Y-91574773D01*
X138253834Y-91580437D01*
X138230779Y-91583856D01*
X138207500Y-91585000D01*
X137732500Y-91585000D01*
X137709221Y-91583856D01*
X137686166Y-91580437D01*
X137663557Y-91574773D01*
X137641613Y-91566921D01*
X137620543Y-91556956D01*
X137600552Y-91544974D01*
X137581832Y-91531090D01*
X137564562Y-91515438D01*
X137548910Y-91498168D01*
X137535026Y-91479448D01*
X137523044Y-91459457D01*
X137513079Y-91438387D01*
X137505227Y-91416443D01*
X137499563Y-91393834D01*
X137496144Y-91370779D01*
X137495000Y-91347500D01*
X137495000Y-90772500D01*
X137496144Y-90749221D01*
X137499563Y-90726166D01*
X137505227Y-90703557D01*
X137513079Y-90681613D01*
X137523044Y-90660543D01*
X137535026Y-90640552D01*
X137548910Y-90621832D01*
X137564562Y-90604562D01*
X137581832Y-90588910D01*
X137600552Y-90575026D01*
X137620543Y-90563044D01*
X137641613Y-90553079D01*
X137663557Y-90545227D01*
X137686166Y-90539563D01*
X137709221Y-90536144D01*
X137732500Y-90535000D01*
X138207500Y-90535000D01*
X138230779Y-90536144D01*
X138230779Y-90536144D01*
G37*
D11*
X137970000Y-91060000D03*
D10*
G36*
X144240779Y-88736144D02*
G01*
X144263834Y-88739563D01*
X144286443Y-88745227D01*
X144308387Y-88753079D01*
X144329457Y-88763044D01*
X144349448Y-88775026D01*
X144368168Y-88788910D01*
X144385438Y-88804562D01*
X144401090Y-88821832D01*
X144414974Y-88840552D01*
X144426956Y-88860543D01*
X144436921Y-88881613D01*
X144444773Y-88903557D01*
X144450437Y-88926166D01*
X144453856Y-88949221D01*
X144455000Y-88972500D01*
X144455000Y-89547500D01*
X144453856Y-89570779D01*
X144450437Y-89593834D01*
X144444773Y-89616443D01*
X144436921Y-89638387D01*
X144426956Y-89659457D01*
X144414974Y-89679448D01*
X144401090Y-89698168D01*
X144385438Y-89715438D01*
X144368168Y-89731090D01*
X144349448Y-89744974D01*
X144329457Y-89756956D01*
X144308387Y-89766921D01*
X144286443Y-89774773D01*
X144263834Y-89780437D01*
X144240779Y-89783856D01*
X144217500Y-89785000D01*
X143742500Y-89785000D01*
X143719221Y-89783856D01*
X143696166Y-89780437D01*
X143673557Y-89774773D01*
X143651613Y-89766921D01*
X143630543Y-89756956D01*
X143610552Y-89744974D01*
X143591832Y-89731090D01*
X143574562Y-89715438D01*
X143558910Y-89698168D01*
X143545026Y-89679448D01*
X143533044Y-89659457D01*
X143523079Y-89638387D01*
X143515227Y-89616443D01*
X143509563Y-89593834D01*
X143506144Y-89570779D01*
X143505000Y-89547500D01*
X143505000Y-88972500D01*
X143506144Y-88949221D01*
X143509563Y-88926166D01*
X143515227Y-88903557D01*
X143523079Y-88881613D01*
X143533044Y-88860543D01*
X143545026Y-88840552D01*
X143558910Y-88821832D01*
X143574562Y-88804562D01*
X143591832Y-88788910D01*
X143610552Y-88775026D01*
X143630543Y-88763044D01*
X143651613Y-88753079D01*
X143673557Y-88745227D01*
X143696166Y-88739563D01*
X143719221Y-88736144D01*
X143742500Y-88735000D01*
X144217500Y-88735000D01*
X144240779Y-88736144D01*
X144240779Y-88736144D01*
G37*
D11*
X143980000Y-89260000D03*
D10*
G36*
X144240779Y-90486144D02*
G01*
X144263834Y-90489563D01*
X144286443Y-90495227D01*
X144308387Y-90503079D01*
X144329457Y-90513044D01*
X144349448Y-90525026D01*
X144368168Y-90538910D01*
X144385438Y-90554562D01*
X144401090Y-90571832D01*
X144414974Y-90590552D01*
X144426956Y-90610543D01*
X144436921Y-90631613D01*
X144444773Y-90653557D01*
X144450437Y-90676166D01*
X144453856Y-90699221D01*
X144455000Y-90722500D01*
X144455000Y-91297500D01*
X144453856Y-91320779D01*
X144450437Y-91343834D01*
X144444773Y-91366443D01*
X144436921Y-91388387D01*
X144426956Y-91409457D01*
X144414974Y-91429448D01*
X144401090Y-91448168D01*
X144385438Y-91465438D01*
X144368168Y-91481090D01*
X144349448Y-91494974D01*
X144329457Y-91506956D01*
X144308387Y-91516921D01*
X144286443Y-91524773D01*
X144263834Y-91530437D01*
X144240779Y-91533856D01*
X144217500Y-91535000D01*
X143742500Y-91535000D01*
X143719221Y-91533856D01*
X143696166Y-91530437D01*
X143673557Y-91524773D01*
X143651613Y-91516921D01*
X143630543Y-91506956D01*
X143610552Y-91494974D01*
X143591832Y-91481090D01*
X143574562Y-91465438D01*
X143558910Y-91448168D01*
X143545026Y-91429448D01*
X143533044Y-91409457D01*
X143523079Y-91388387D01*
X143515227Y-91366443D01*
X143509563Y-91343834D01*
X143506144Y-91320779D01*
X143505000Y-91297500D01*
X143505000Y-90722500D01*
X143506144Y-90699221D01*
X143509563Y-90676166D01*
X143515227Y-90653557D01*
X143523079Y-90631613D01*
X143533044Y-90610543D01*
X143545026Y-90590552D01*
X143558910Y-90571832D01*
X143574562Y-90554562D01*
X143591832Y-90538910D01*
X143610552Y-90525026D01*
X143630543Y-90513044D01*
X143651613Y-90503079D01*
X143673557Y-90495227D01*
X143696166Y-90489563D01*
X143719221Y-90486144D01*
X143742500Y-90485000D01*
X144217500Y-90485000D01*
X144240779Y-90486144D01*
X144240779Y-90486144D01*
G37*
D11*
X143980000Y-91010000D03*
D13*
X107460000Y-80510000D03*
D14*
X107460000Y-86810000D03*
X105160000Y-86810000D03*
X109760000Y-86810000D03*
M02*
