G04 #@! TF.GenerationSoftware,KiCad,Pcbnew,(5.1.4)-1*
G04 #@! TF.CreationDate,2019-11-26T18:47:21+08:00*
G04 #@! TF.ProjectId,TFT8K3548FPC-A1-E-DIP,54465438-4b33-4353-9438-4650432d4131,rev?*
G04 #@! TF.SameCoordinates,Original*
G04 #@! TF.FileFunction,Copper,L1,Top*
G04 #@! TF.FilePolarity,Positive*
%FSLAX46Y46*%
G04 Gerber Fmt 4.6, Leading zero omitted, Abs format (unit mm)*
G04 Created by KiCad (PCBNEW (5.1.4)-1) date 2019-11-26 18:47:21*
%MOMM*%
%LPD*%
G04 APERTURE LIST*
%ADD10C,5.500000*%
%ADD11O,1.700000X1.700000*%
%ADD12R,1.700000X1.700000*%
%ADD13R,0.700000X4.000000*%
%ADD14C,0.800000*%
%ADD15C,0.250000*%
%ADD16C,0.254000*%
G04 APERTURE END LIST*
D10*
X103600000Y-33600000D03*
X146000000Y-33600000D03*
D11*
X144100000Y-117140000D03*
X144100000Y-114600000D03*
X141560000Y-117140000D03*
X141560000Y-114600000D03*
X139020000Y-117140000D03*
X139020000Y-114600000D03*
X136480000Y-117140000D03*
X136480000Y-114600000D03*
X133940000Y-117140000D03*
X133940000Y-114600000D03*
X131400000Y-117140000D03*
X131400000Y-114600000D03*
X128860000Y-117140000D03*
X128860000Y-114600000D03*
X126320000Y-117140000D03*
X126320000Y-114600000D03*
X123780000Y-117140000D03*
X123780000Y-114600000D03*
X121240000Y-117140000D03*
X121240000Y-114600000D03*
X118700000Y-117140000D03*
X118700000Y-114600000D03*
X116160000Y-117140000D03*
X116160000Y-114600000D03*
X113620000Y-117140000D03*
X113620000Y-114600000D03*
X111080000Y-117140000D03*
X111080000Y-114600000D03*
X108540000Y-117140000D03*
X108540000Y-114600000D03*
X106000000Y-117140000D03*
D12*
X106000000Y-114600000D03*
D13*
X102200000Y-98600000D03*
X103200000Y-98600000D03*
X104200000Y-98600000D03*
X105200000Y-98600000D03*
X106200000Y-98600000D03*
X107200000Y-98600000D03*
X108200000Y-98600000D03*
X109200000Y-98600000D03*
X110200000Y-98600000D03*
X111200000Y-98600000D03*
X112200000Y-98600000D03*
X113200000Y-98600000D03*
X114200000Y-98600000D03*
X115200000Y-98600000D03*
X116200000Y-98600000D03*
X117200000Y-98600000D03*
X118200000Y-98600000D03*
X119200000Y-98600000D03*
X120200000Y-98600000D03*
X121200000Y-98600000D03*
X122200000Y-98600000D03*
X123200000Y-98600000D03*
X124200000Y-98600000D03*
X125200000Y-98600000D03*
X126200000Y-98600000D03*
X127200000Y-98600000D03*
X128200000Y-98600000D03*
X129200000Y-98600000D03*
X130200000Y-98600000D03*
X131200000Y-98600000D03*
X132200000Y-98600000D03*
X133200000Y-98600000D03*
X134200000Y-98600000D03*
X135200000Y-98600000D03*
X136200000Y-98600000D03*
X137200000Y-98600000D03*
X138200000Y-98600000D03*
X139200000Y-98600000D03*
X140200000Y-98600000D03*
X141200000Y-98600000D03*
X142200000Y-98600000D03*
X143200000Y-98600000D03*
X144200000Y-98600000D03*
X145200000Y-98600000D03*
X146200000Y-98600000D03*
X147200000Y-98600000D03*
D14*
X146940000Y-91000000D03*
X128410000Y-89310000D03*
X136920000Y-89310000D03*
X109750000Y-85310000D03*
X112210000Y-88040000D03*
X104340000Y-67890000D03*
X102670000Y-83660000D03*
X132730000Y-88530000D03*
X144820000Y-88250000D03*
X110190000Y-95530000D03*
X114710000Y-104760000D03*
X137010000Y-102680000D03*
X131880000Y-92510000D03*
X103200000Y-102000000D03*
X104200000Y-102000000D03*
X105200000Y-102000000D03*
X106200000Y-102000000D03*
X107200000Y-74980000D03*
X112780000Y-70320000D03*
X114130000Y-95460000D03*
X135950000Y-92250000D03*
X140940000Y-88730000D03*
X108480000Y-107410000D03*
D15*
X138200000Y-98600000D02*
X139200000Y-98600000D01*
X139200000Y-98600000D02*
X139200000Y-102420000D01*
X139200000Y-102420000D02*
X139770000Y-102990000D01*
X146480000Y-102990000D02*
X147200000Y-102270000D01*
X139770000Y-102990000D02*
X146480000Y-102990000D01*
X147200000Y-98600000D02*
X147200000Y-102270000D01*
X109200000Y-98600000D02*
X111200000Y-98600000D01*
X133255001Y-88004999D02*
X133255001Y-87994999D01*
X132730000Y-88530000D02*
X133255001Y-88004999D01*
X133255001Y-87994999D02*
X133870000Y-87380000D01*
X143950000Y-87380000D02*
X144820000Y-88250000D01*
X110200000Y-98600000D02*
X110200000Y-95540000D01*
X110200000Y-95540000D02*
X110190000Y-95530000D01*
X136063002Y-87380000D02*
X134350000Y-87380000D01*
X140200000Y-91516998D02*
X136063002Y-87380000D01*
X140200000Y-98600000D02*
X140200000Y-91516998D01*
X133870000Y-87380000D02*
X134350000Y-87380000D01*
X134350000Y-87380000D02*
X143950000Y-87380000D01*
X114795001Y-104845001D02*
X114710000Y-104760000D01*
X113620000Y-117140000D02*
X114795001Y-115964999D01*
X114795001Y-115964999D02*
X114795001Y-104845001D01*
X136200000Y-101870000D02*
X136200000Y-98600000D01*
X137010000Y-102680000D02*
X136200000Y-101870000D01*
X136200000Y-98600000D02*
X136200000Y-94670000D01*
X136200000Y-94670000D02*
X134020000Y-92490000D01*
X134020000Y-92490000D02*
X131900000Y-92490000D01*
X131900000Y-92490000D02*
X131880000Y-92510000D01*
X103200000Y-98600000D02*
X103200000Y-102000000D01*
X104200000Y-98600000D02*
X104200000Y-102000000D01*
X105200000Y-98600000D02*
X105200000Y-102000000D01*
X106200000Y-98600000D02*
X106200000Y-102000000D01*
X107200000Y-98600000D02*
X107200000Y-74980000D01*
X112200000Y-98600000D02*
X112200000Y-94430000D01*
X112935001Y-70475001D02*
X112780000Y-70320000D01*
X112200000Y-94430000D02*
X112935001Y-93694999D01*
X112935001Y-93694999D02*
X112935001Y-70475001D01*
X114200000Y-98600000D02*
X114200000Y-101000000D01*
X109904999Y-105295001D02*
X110610000Y-104590000D01*
X109904999Y-115775001D02*
X109904999Y-105295001D01*
X108540000Y-117140000D02*
X109904999Y-115775001D01*
X114200000Y-101000000D02*
X110610000Y-104590000D01*
X114200000Y-95530000D02*
X114130000Y-95460000D01*
X114200000Y-98600000D02*
X114200000Y-95530000D01*
X115200000Y-98600000D02*
X115200000Y-100850000D01*
X111080000Y-104970000D02*
X111340000Y-104710000D01*
X111080000Y-114600000D02*
X111080000Y-104970000D01*
X115200000Y-100850000D02*
X111340000Y-104710000D01*
X116200000Y-98600000D02*
X116200000Y-100850000D01*
X112280000Y-104770000D02*
X112990000Y-104060000D01*
X112280000Y-115940000D02*
X112280000Y-104770000D01*
X111080000Y-117140000D02*
X112280000Y-115940000D01*
X116200000Y-100850000D02*
X112990000Y-104060000D01*
X117200000Y-100850000D02*
X117200000Y-98600000D01*
X113620000Y-104430000D02*
X117200000Y-100850000D01*
X113620000Y-114600000D02*
X113620000Y-104430000D01*
X118200000Y-98600000D02*
X118200000Y-100850000D01*
X116160000Y-102890000D02*
X116635000Y-102415000D01*
X116160000Y-114600000D02*
X116160000Y-102890000D01*
X118200000Y-100850000D02*
X116635000Y-102415000D01*
X119200000Y-101400000D02*
X119200000Y-98600000D01*
X117570000Y-103030000D02*
X119200000Y-101400000D01*
X117570000Y-104470000D02*
X117570000Y-103030000D01*
X117524999Y-104515001D02*
X117570000Y-104470000D01*
X117524999Y-115775001D02*
X117524999Y-104515001D01*
X116160000Y-117140000D02*
X117524999Y-115775001D01*
X120200000Y-101800000D02*
X120200000Y-98600000D01*
X118700000Y-113397919D02*
X118710000Y-113387919D01*
X118700000Y-114600000D02*
X118700000Y-113397919D01*
X118710000Y-103290000D02*
X119690000Y-102310000D01*
X118710000Y-113387919D02*
X118710000Y-103290000D01*
X119690000Y-102310000D02*
X120200000Y-101800000D01*
X121200000Y-100850000D02*
X121200000Y-98600000D01*
X121200000Y-102000000D02*
X121200000Y-100850000D01*
X120064999Y-103135001D02*
X120730000Y-102470000D01*
X120064999Y-115775001D02*
X120064999Y-103135001D01*
X118700000Y-117140000D02*
X120064999Y-115775001D01*
X120730000Y-102470000D02*
X121200000Y-102000000D01*
X122200000Y-100850000D02*
X122200000Y-98600000D01*
X122200000Y-102163590D02*
X122200000Y-101200000D01*
X121240000Y-103123590D02*
X122200000Y-102163590D01*
X121240000Y-114600000D02*
X121240000Y-103123590D01*
X122200000Y-101200000D02*
X122200000Y-100850000D01*
X123200000Y-101800000D02*
X123200000Y-98600000D01*
X122604999Y-102395001D02*
X123200000Y-101800000D01*
X122604999Y-115775001D02*
X122604999Y-102395001D01*
X121240000Y-117140000D02*
X122604999Y-115775001D01*
X123780000Y-114600000D02*
X123780000Y-113397919D01*
X123780000Y-113397919D02*
X124200000Y-112977919D01*
X124200000Y-101120000D02*
X124200000Y-98600000D01*
X124200000Y-101120000D02*
X124200000Y-100710000D01*
X124200000Y-112977919D02*
X124200000Y-101120000D01*
X125200000Y-100850000D02*
X125200000Y-98600000D01*
X125144999Y-100905001D02*
X125200000Y-100850000D01*
X125144999Y-115775001D02*
X125144999Y-100905001D01*
X123780000Y-117140000D02*
X125144999Y-115775001D01*
X126320000Y-98720000D02*
X126200000Y-98600000D01*
X126320000Y-114600000D02*
X126320000Y-98720000D01*
X127200000Y-100850000D02*
X127200000Y-98600000D01*
X127495001Y-101145001D02*
X127200000Y-100850000D01*
X127495001Y-115964999D02*
X127495001Y-101145001D01*
X126320000Y-117140000D02*
X127495001Y-115964999D01*
X128860000Y-114600000D02*
X128860000Y-113740000D01*
X128860000Y-113740000D02*
X128860000Y-115340000D01*
X128200000Y-101250000D02*
X128200000Y-100840000D01*
X128860000Y-101910000D02*
X128200000Y-101250000D01*
X128860000Y-114600000D02*
X128860000Y-101910000D01*
X128200000Y-100840000D02*
X128200000Y-98600000D01*
X130035001Y-115964999D02*
X130035001Y-101995001D01*
X128860000Y-117140000D02*
X130035001Y-115964999D01*
X129200000Y-101160000D02*
X129200000Y-100940000D01*
X130035001Y-101995001D02*
X129200000Y-101160000D01*
X129200000Y-98600000D02*
X129200000Y-100940000D01*
X131400000Y-114600000D02*
X131400000Y-102310000D01*
X130200000Y-101110000D02*
X130200000Y-100990000D01*
X131400000Y-102310000D02*
X130200000Y-101110000D01*
X130200000Y-100990000D02*
X130200000Y-98600000D01*
X131400000Y-117140000D02*
X132690000Y-115850000D01*
X132690000Y-102880000D02*
X131200000Y-101390000D01*
X132690000Y-115850000D02*
X132690000Y-102880000D01*
X131200000Y-98600000D02*
X131200000Y-101390000D01*
X133940000Y-113397919D02*
X133900000Y-113357919D01*
X133940000Y-114600000D02*
X133940000Y-113397919D01*
X133900000Y-102840000D02*
X132200000Y-101140000D01*
X133900000Y-113357919D02*
X133900000Y-102840000D01*
X132200000Y-101140000D02*
X132200000Y-98600000D01*
X135115001Y-115964999D02*
X135115001Y-112795001D01*
X133940000Y-117140000D02*
X135115001Y-115964999D01*
X135115001Y-112795001D02*
X135120000Y-112790002D01*
X133200000Y-101292820D02*
X133200000Y-101110000D01*
X135115001Y-103207821D02*
X133200000Y-101292820D01*
X135115001Y-112795001D02*
X135115001Y-103207821D01*
X133200000Y-98600000D02*
X133200000Y-101110000D01*
X136480000Y-113397919D02*
X136470000Y-113387919D01*
X136480000Y-114600000D02*
X136480000Y-113397919D01*
X136470000Y-113387919D02*
X136470000Y-103926410D01*
X134200000Y-101656410D02*
X134200000Y-98600000D01*
X136470000Y-103926410D02*
X134200000Y-101656410D01*
X137655001Y-115964999D02*
X137655001Y-104475001D01*
X136480000Y-117140000D02*
X137655001Y-115964999D01*
X135200000Y-102020000D02*
X135200000Y-98600000D01*
X137655001Y-104475001D02*
X135200000Y-102020000D01*
X137200000Y-98600000D02*
X137200000Y-93500000D01*
X137200000Y-93500000D02*
X135950000Y-92250000D01*
X141200000Y-98600000D02*
X146200000Y-98600000D01*
X141200000Y-88990000D02*
X140940000Y-88730000D01*
X141200000Y-98600000D02*
X141200000Y-88990000D01*
X108480000Y-114540000D02*
X108540000Y-114600000D01*
X108480000Y-107410000D02*
X108480000Y-114540000D01*
D16*
G36*
X101398677Y-31219072D02*
G01*
X103600000Y-33420395D01*
X105801323Y-31219072D01*
X105518957Y-30810000D01*
X144081043Y-30810000D01*
X143798677Y-31219072D01*
X146000000Y-33420395D01*
X148201323Y-31219072D01*
X147918957Y-30810000D01*
X148890000Y-30810000D01*
X148890000Y-31825181D01*
X148831772Y-31715738D01*
X148824503Y-31704859D01*
X148380928Y-31398677D01*
X146179605Y-33600000D01*
X148380928Y-35801323D01*
X148824503Y-35495141D01*
X148890000Y-35373169D01*
X148890001Y-118710000D01*
X100770000Y-118710000D01*
X100770000Y-117140000D01*
X104507815Y-117140000D01*
X104536487Y-117431111D01*
X104621401Y-117711034D01*
X104759294Y-117969014D01*
X104944866Y-118195134D01*
X105170986Y-118380706D01*
X105428966Y-118518599D01*
X105708889Y-118603513D01*
X105927050Y-118625000D01*
X106072950Y-118625000D01*
X106291111Y-118603513D01*
X106571034Y-118518599D01*
X106829014Y-118380706D01*
X107055134Y-118195134D01*
X107240706Y-117969014D01*
X107270000Y-117914209D01*
X107299294Y-117969014D01*
X107484866Y-118195134D01*
X107710986Y-118380706D01*
X107968966Y-118518599D01*
X108248889Y-118603513D01*
X108467050Y-118625000D01*
X108612950Y-118625000D01*
X108831111Y-118603513D01*
X109111034Y-118518599D01*
X109369014Y-118380706D01*
X109595134Y-118195134D01*
X109780706Y-117969014D01*
X109810000Y-117914209D01*
X109839294Y-117969014D01*
X110024866Y-118195134D01*
X110250986Y-118380706D01*
X110508966Y-118518599D01*
X110788889Y-118603513D01*
X111007050Y-118625000D01*
X111152950Y-118625000D01*
X111371111Y-118603513D01*
X111651034Y-118518599D01*
X111909014Y-118380706D01*
X112135134Y-118195134D01*
X112320706Y-117969014D01*
X112350000Y-117914209D01*
X112379294Y-117969014D01*
X112564866Y-118195134D01*
X112790986Y-118380706D01*
X113048966Y-118518599D01*
X113328889Y-118603513D01*
X113547050Y-118625000D01*
X113692950Y-118625000D01*
X113911111Y-118603513D01*
X114191034Y-118518599D01*
X114449014Y-118380706D01*
X114675134Y-118195134D01*
X114860706Y-117969014D01*
X114890000Y-117914209D01*
X114919294Y-117969014D01*
X115104866Y-118195134D01*
X115330986Y-118380706D01*
X115588966Y-118518599D01*
X115868889Y-118603513D01*
X116087050Y-118625000D01*
X116232950Y-118625000D01*
X116451111Y-118603513D01*
X116731034Y-118518599D01*
X116989014Y-118380706D01*
X117215134Y-118195134D01*
X117400706Y-117969014D01*
X117430000Y-117914209D01*
X117459294Y-117969014D01*
X117644866Y-118195134D01*
X117870986Y-118380706D01*
X118128966Y-118518599D01*
X118408889Y-118603513D01*
X118627050Y-118625000D01*
X118772950Y-118625000D01*
X118991111Y-118603513D01*
X119271034Y-118518599D01*
X119529014Y-118380706D01*
X119755134Y-118195134D01*
X119940706Y-117969014D01*
X119970000Y-117914209D01*
X119999294Y-117969014D01*
X120184866Y-118195134D01*
X120410986Y-118380706D01*
X120668966Y-118518599D01*
X120948889Y-118603513D01*
X121167050Y-118625000D01*
X121312950Y-118625000D01*
X121531111Y-118603513D01*
X121811034Y-118518599D01*
X122069014Y-118380706D01*
X122295134Y-118195134D01*
X122480706Y-117969014D01*
X122510000Y-117914209D01*
X122539294Y-117969014D01*
X122724866Y-118195134D01*
X122950986Y-118380706D01*
X123208966Y-118518599D01*
X123488889Y-118603513D01*
X123707050Y-118625000D01*
X123852950Y-118625000D01*
X124071111Y-118603513D01*
X124351034Y-118518599D01*
X124609014Y-118380706D01*
X124835134Y-118195134D01*
X125020706Y-117969014D01*
X125050000Y-117914209D01*
X125079294Y-117969014D01*
X125264866Y-118195134D01*
X125490986Y-118380706D01*
X125748966Y-118518599D01*
X126028889Y-118603513D01*
X126247050Y-118625000D01*
X126392950Y-118625000D01*
X126611111Y-118603513D01*
X126891034Y-118518599D01*
X127149014Y-118380706D01*
X127375134Y-118195134D01*
X127560706Y-117969014D01*
X127590000Y-117914209D01*
X127619294Y-117969014D01*
X127804866Y-118195134D01*
X128030986Y-118380706D01*
X128288966Y-118518599D01*
X128568889Y-118603513D01*
X128787050Y-118625000D01*
X128932950Y-118625000D01*
X129151111Y-118603513D01*
X129431034Y-118518599D01*
X129689014Y-118380706D01*
X129915134Y-118195134D01*
X130100706Y-117969014D01*
X130130000Y-117914209D01*
X130159294Y-117969014D01*
X130344866Y-118195134D01*
X130570986Y-118380706D01*
X130828966Y-118518599D01*
X131108889Y-118603513D01*
X131327050Y-118625000D01*
X131472950Y-118625000D01*
X131691111Y-118603513D01*
X131971034Y-118518599D01*
X132229014Y-118380706D01*
X132455134Y-118195134D01*
X132640706Y-117969014D01*
X132670000Y-117914209D01*
X132699294Y-117969014D01*
X132884866Y-118195134D01*
X133110986Y-118380706D01*
X133368966Y-118518599D01*
X133648889Y-118603513D01*
X133867050Y-118625000D01*
X134012950Y-118625000D01*
X134231111Y-118603513D01*
X134511034Y-118518599D01*
X134769014Y-118380706D01*
X134995134Y-118195134D01*
X135180706Y-117969014D01*
X135210000Y-117914209D01*
X135239294Y-117969014D01*
X135424866Y-118195134D01*
X135650986Y-118380706D01*
X135908966Y-118518599D01*
X136188889Y-118603513D01*
X136407050Y-118625000D01*
X136552950Y-118625000D01*
X136771111Y-118603513D01*
X137051034Y-118518599D01*
X137309014Y-118380706D01*
X137535134Y-118195134D01*
X137720706Y-117969014D01*
X137750000Y-117914209D01*
X137779294Y-117969014D01*
X137964866Y-118195134D01*
X138190986Y-118380706D01*
X138448966Y-118518599D01*
X138728889Y-118603513D01*
X138947050Y-118625000D01*
X139092950Y-118625000D01*
X139311111Y-118603513D01*
X139591034Y-118518599D01*
X139849014Y-118380706D01*
X140075134Y-118195134D01*
X140260706Y-117969014D01*
X140290000Y-117914209D01*
X140319294Y-117969014D01*
X140504866Y-118195134D01*
X140730986Y-118380706D01*
X140988966Y-118518599D01*
X141268889Y-118603513D01*
X141487050Y-118625000D01*
X141632950Y-118625000D01*
X141851111Y-118603513D01*
X142131034Y-118518599D01*
X142389014Y-118380706D01*
X142615134Y-118195134D01*
X142800706Y-117969014D01*
X142830000Y-117914209D01*
X142859294Y-117969014D01*
X143044866Y-118195134D01*
X143270986Y-118380706D01*
X143528966Y-118518599D01*
X143808889Y-118603513D01*
X144027050Y-118625000D01*
X144172950Y-118625000D01*
X144391111Y-118603513D01*
X144671034Y-118518599D01*
X144929014Y-118380706D01*
X145155134Y-118195134D01*
X145340706Y-117969014D01*
X145478599Y-117711034D01*
X145563513Y-117431111D01*
X145592185Y-117140000D01*
X145563513Y-116848889D01*
X145478599Y-116568966D01*
X145340706Y-116310986D01*
X145155134Y-116084866D01*
X144929014Y-115899294D01*
X144874209Y-115870000D01*
X144929014Y-115840706D01*
X145155134Y-115655134D01*
X145340706Y-115429014D01*
X145478599Y-115171034D01*
X145563513Y-114891111D01*
X145592185Y-114600000D01*
X145563513Y-114308889D01*
X145478599Y-114028966D01*
X145340706Y-113770986D01*
X145155134Y-113544866D01*
X144929014Y-113359294D01*
X144671034Y-113221401D01*
X144391111Y-113136487D01*
X144172950Y-113115000D01*
X144027050Y-113115000D01*
X143808889Y-113136487D01*
X143528966Y-113221401D01*
X143270986Y-113359294D01*
X143044866Y-113544866D01*
X142859294Y-113770986D01*
X142830000Y-113825791D01*
X142800706Y-113770986D01*
X142615134Y-113544866D01*
X142389014Y-113359294D01*
X142131034Y-113221401D01*
X141851111Y-113136487D01*
X141632950Y-113115000D01*
X141487050Y-113115000D01*
X141268889Y-113136487D01*
X140988966Y-113221401D01*
X140730986Y-113359294D01*
X140504866Y-113544866D01*
X140319294Y-113770986D01*
X140290000Y-113825791D01*
X140260706Y-113770986D01*
X140075134Y-113544866D01*
X139849014Y-113359294D01*
X139591034Y-113221401D01*
X139311111Y-113136487D01*
X139092950Y-113115000D01*
X138947050Y-113115000D01*
X138728889Y-113136487D01*
X138448966Y-113221401D01*
X138415001Y-113239556D01*
X138415001Y-104512326D01*
X138418677Y-104475001D01*
X138415001Y-104437676D01*
X138415001Y-104437668D01*
X138404004Y-104326015D01*
X138360547Y-104182754D01*
X138289975Y-104050725D01*
X138195002Y-103935000D01*
X138166004Y-103911202D01*
X137704256Y-103449455D01*
X137813937Y-103339774D01*
X137927205Y-103170256D01*
X138005226Y-102981898D01*
X138045000Y-102781939D01*
X138045000Y-102578061D01*
X138005226Y-102378102D01*
X137927205Y-102189744D01*
X137813937Y-102020226D01*
X137669774Y-101876063D01*
X137500256Y-101762795D01*
X137311898Y-101684774D01*
X137111939Y-101645000D01*
X137049801Y-101645000D01*
X136960000Y-101555199D01*
X136960000Y-101238072D01*
X137550000Y-101238072D01*
X137674482Y-101225812D01*
X137700000Y-101218071D01*
X137725518Y-101225812D01*
X137850000Y-101238072D01*
X137914250Y-101235000D01*
X138073000Y-101076250D01*
X138073000Y-100963678D01*
X138080537Y-100954494D01*
X138139502Y-100844180D01*
X138175812Y-100724482D01*
X138188072Y-100600000D01*
X138211928Y-100600000D01*
X138224188Y-100724482D01*
X138260498Y-100844180D01*
X138319463Y-100954494D01*
X138327000Y-100963678D01*
X138327000Y-101076250D01*
X138485750Y-101235000D01*
X138550000Y-101238072D01*
X138674482Y-101225812D01*
X138700000Y-101218071D01*
X138725518Y-101225812D01*
X138850000Y-101238072D01*
X138914250Y-101235000D01*
X139073000Y-101076250D01*
X139073000Y-100963678D01*
X139080537Y-100954494D01*
X139139502Y-100844180D01*
X139175812Y-100724482D01*
X139188072Y-100600000D01*
X139185000Y-98885750D01*
X139073000Y-98773750D01*
X139073000Y-98727000D01*
X138327000Y-98727000D01*
X138327000Y-98773750D01*
X138215000Y-98885750D01*
X138211928Y-100600000D01*
X138188072Y-100600000D01*
X138188072Y-96600000D01*
X138211928Y-96600000D01*
X138215000Y-98314250D01*
X138327000Y-98426250D01*
X138327000Y-98473000D01*
X139073000Y-98473000D01*
X139073000Y-98426250D01*
X139185000Y-98314250D01*
X139188072Y-96600000D01*
X139175812Y-96475518D01*
X139139502Y-96355820D01*
X139080537Y-96245506D01*
X139073000Y-96236322D01*
X139073000Y-96123750D01*
X138914250Y-95965000D01*
X138850000Y-95961928D01*
X138725518Y-95974188D01*
X138700000Y-95981929D01*
X138674482Y-95974188D01*
X138550000Y-95961928D01*
X138485750Y-95965000D01*
X138327000Y-96123750D01*
X138327000Y-96236322D01*
X138319463Y-96245506D01*
X138260498Y-96355820D01*
X138224188Y-96475518D01*
X138211928Y-96600000D01*
X138188072Y-96600000D01*
X138175812Y-96475518D01*
X138139502Y-96355820D01*
X138080537Y-96245506D01*
X138073000Y-96236322D01*
X138073000Y-96123750D01*
X137960000Y-96010750D01*
X137960000Y-93537323D01*
X137963676Y-93500000D01*
X137960000Y-93462677D01*
X137960000Y-93462667D01*
X137949003Y-93351014D01*
X137905546Y-93207753D01*
X137877348Y-93154999D01*
X137834974Y-93075723D01*
X137763799Y-92988997D01*
X137740001Y-92959999D01*
X137711003Y-92936201D01*
X136985000Y-92210199D01*
X136985000Y-92148061D01*
X136945226Y-91948102D01*
X136867205Y-91759744D01*
X136753937Y-91590226D01*
X136609774Y-91446063D01*
X136440256Y-91332795D01*
X136251898Y-91254774D01*
X136051939Y-91215000D01*
X135848061Y-91215000D01*
X135648102Y-91254774D01*
X135459744Y-91332795D01*
X135290226Y-91446063D01*
X135146063Y-91590226D01*
X135032795Y-91759744D01*
X134954774Y-91948102D01*
X134915000Y-92148061D01*
X134915000Y-92310199D01*
X134583804Y-91979003D01*
X134560001Y-91949999D01*
X134444276Y-91855026D01*
X134312247Y-91784454D01*
X134168986Y-91740997D01*
X134057333Y-91730000D01*
X134057322Y-91730000D01*
X134020000Y-91726324D01*
X133982678Y-91730000D01*
X132563711Y-91730000D01*
X132539774Y-91706063D01*
X132370256Y-91592795D01*
X132181898Y-91514774D01*
X131981939Y-91475000D01*
X131778061Y-91475000D01*
X131578102Y-91514774D01*
X131389744Y-91592795D01*
X131220226Y-91706063D01*
X131076063Y-91850226D01*
X130962795Y-92019744D01*
X130884774Y-92208102D01*
X130845000Y-92408061D01*
X130845000Y-92611939D01*
X130884774Y-92811898D01*
X130962795Y-93000256D01*
X131076063Y-93169774D01*
X131220226Y-93313937D01*
X131389744Y-93427205D01*
X131578102Y-93505226D01*
X131778061Y-93545000D01*
X131981939Y-93545000D01*
X132181898Y-93505226D01*
X132370256Y-93427205D01*
X132539774Y-93313937D01*
X132603711Y-93250000D01*
X133705199Y-93250000D01*
X135440001Y-94984803D01*
X135440001Y-95961928D01*
X134850000Y-95961928D01*
X134725518Y-95974188D01*
X134700000Y-95981929D01*
X134674482Y-95974188D01*
X134550000Y-95961928D01*
X133850000Y-95961928D01*
X133725518Y-95974188D01*
X133700000Y-95981929D01*
X133674482Y-95974188D01*
X133550000Y-95961928D01*
X132850000Y-95961928D01*
X132725518Y-95974188D01*
X132700000Y-95981929D01*
X132674482Y-95974188D01*
X132550000Y-95961928D01*
X131850000Y-95961928D01*
X131725518Y-95974188D01*
X131700000Y-95981929D01*
X131674482Y-95974188D01*
X131550000Y-95961928D01*
X130850000Y-95961928D01*
X130725518Y-95974188D01*
X130700000Y-95981929D01*
X130674482Y-95974188D01*
X130550000Y-95961928D01*
X129850000Y-95961928D01*
X129725518Y-95974188D01*
X129700000Y-95981929D01*
X129674482Y-95974188D01*
X129550000Y-95961928D01*
X128850000Y-95961928D01*
X128725518Y-95974188D01*
X128700000Y-95981929D01*
X128674482Y-95974188D01*
X128550000Y-95961928D01*
X127850000Y-95961928D01*
X127725518Y-95974188D01*
X127700000Y-95981929D01*
X127674482Y-95974188D01*
X127550000Y-95961928D01*
X126850000Y-95961928D01*
X126725518Y-95974188D01*
X126700000Y-95981929D01*
X126674482Y-95974188D01*
X126550000Y-95961928D01*
X125850000Y-95961928D01*
X125725518Y-95974188D01*
X125700000Y-95981929D01*
X125674482Y-95974188D01*
X125550000Y-95961928D01*
X124850000Y-95961928D01*
X124725518Y-95974188D01*
X124700000Y-95981929D01*
X124674482Y-95974188D01*
X124550000Y-95961928D01*
X123850000Y-95961928D01*
X123725518Y-95974188D01*
X123700000Y-95981929D01*
X123674482Y-95974188D01*
X123550000Y-95961928D01*
X122850000Y-95961928D01*
X122725518Y-95974188D01*
X122700000Y-95981929D01*
X122674482Y-95974188D01*
X122550000Y-95961928D01*
X121850000Y-95961928D01*
X121725518Y-95974188D01*
X121700000Y-95981929D01*
X121674482Y-95974188D01*
X121550000Y-95961928D01*
X120850000Y-95961928D01*
X120725518Y-95974188D01*
X120700000Y-95981929D01*
X120674482Y-95974188D01*
X120550000Y-95961928D01*
X119850000Y-95961928D01*
X119725518Y-95974188D01*
X119700000Y-95981929D01*
X119674482Y-95974188D01*
X119550000Y-95961928D01*
X118850000Y-95961928D01*
X118725518Y-95974188D01*
X118700000Y-95981929D01*
X118674482Y-95974188D01*
X118550000Y-95961928D01*
X117850000Y-95961928D01*
X117725518Y-95974188D01*
X117700000Y-95981929D01*
X117674482Y-95974188D01*
X117550000Y-95961928D01*
X116850000Y-95961928D01*
X116725518Y-95974188D01*
X116700000Y-95981929D01*
X116674482Y-95974188D01*
X116550000Y-95961928D01*
X115850000Y-95961928D01*
X115725518Y-95974188D01*
X115700000Y-95981929D01*
X115674482Y-95974188D01*
X115550000Y-95961928D01*
X115039406Y-95961928D01*
X115047205Y-95950256D01*
X115125226Y-95761898D01*
X115165000Y-95561939D01*
X115165000Y-95358061D01*
X115125226Y-95158102D01*
X115047205Y-94969744D01*
X114933937Y-94800226D01*
X114789774Y-94656063D01*
X114620256Y-94542795D01*
X114431898Y-94464774D01*
X114231939Y-94425000D01*
X114028061Y-94425000D01*
X113828102Y-94464774D01*
X113639744Y-94542795D01*
X113470226Y-94656063D01*
X113326063Y-94800226D01*
X113212795Y-94969744D01*
X113134774Y-95158102D01*
X113095000Y-95358061D01*
X113095000Y-95561939D01*
X113134774Y-95761898D01*
X113212795Y-95950256D01*
X113220594Y-95961928D01*
X112960000Y-95961928D01*
X112960000Y-94744802D01*
X113446010Y-94258793D01*
X113475002Y-94235000D01*
X113498796Y-94206007D01*
X113498800Y-94206003D01*
X113569974Y-94119276D01*
X113569975Y-94119275D01*
X113640547Y-93987246D01*
X113684004Y-93843985D01*
X113695001Y-93732332D01*
X113695001Y-93732323D01*
X113698677Y-93695000D01*
X113695001Y-93657677D01*
X113695001Y-88428061D01*
X131695000Y-88428061D01*
X131695000Y-88631939D01*
X131734774Y-88831898D01*
X131812795Y-89020256D01*
X131926063Y-89189774D01*
X132070226Y-89333937D01*
X132239744Y-89447205D01*
X132428102Y-89525226D01*
X132628061Y-89565000D01*
X132831939Y-89565000D01*
X133031898Y-89525226D01*
X133220256Y-89447205D01*
X133389774Y-89333937D01*
X133533937Y-89189774D01*
X133647205Y-89020256D01*
X133725226Y-88831898D01*
X133765000Y-88631939D01*
X133765000Y-88569802D01*
X133766004Y-88568797D01*
X133795002Y-88545000D01*
X133864570Y-88460231D01*
X134184802Y-88140000D01*
X135748201Y-88140000D01*
X139440001Y-91831801D01*
X139440000Y-96010750D01*
X139327000Y-96123750D01*
X139327000Y-96236322D01*
X139319463Y-96245506D01*
X139260498Y-96355820D01*
X139224188Y-96475518D01*
X139211928Y-96600000D01*
X139211928Y-100600000D01*
X139224188Y-100724482D01*
X139260498Y-100844180D01*
X139319463Y-100954494D01*
X139327000Y-100963678D01*
X139327000Y-101076250D01*
X139485750Y-101235000D01*
X139550000Y-101238072D01*
X139674482Y-101225812D01*
X139700000Y-101218071D01*
X139725518Y-101225812D01*
X139850000Y-101238072D01*
X140550000Y-101238072D01*
X140674482Y-101225812D01*
X140700000Y-101218071D01*
X140725518Y-101225812D01*
X140850000Y-101238072D01*
X141550000Y-101238072D01*
X141674482Y-101225812D01*
X141700000Y-101218071D01*
X141725518Y-101225812D01*
X141850000Y-101238072D01*
X142550000Y-101238072D01*
X142674482Y-101225812D01*
X142700000Y-101218071D01*
X142725518Y-101225812D01*
X142850000Y-101238072D01*
X143550000Y-101238072D01*
X143674482Y-101225812D01*
X143700000Y-101218071D01*
X143725518Y-101225812D01*
X143850000Y-101238072D01*
X144550000Y-101238072D01*
X144674482Y-101225812D01*
X144700000Y-101218071D01*
X144725518Y-101225812D01*
X144850000Y-101238072D01*
X145550000Y-101238072D01*
X145674482Y-101225812D01*
X145700000Y-101218071D01*
X145725518Y-101225812D01*
X145850000Y-101238072D01*
X146550000Y-101238072D01*
X146674482Y-101225812D01*
X146700000Y-101218071D01*
X146725518Y-101225812D01*
X146850000Y-101238072D01*
X146914250Y-101235000D01*
X147073000Y-101076250D01*
X147073000Y-100963678D01*
X147080537Y-100954494D01*
X147139502Y-100844180D01*
X147175812Y-100724482D01*
X147188072Y-100600000D01*
X147188072Y-98727000D01*
X147327000Y-98727000D01*
X147327000Y-101076250D01*
X147485750Y-101235000D01*
X147550000Y-101238072D01*
X147674482Y-101225812D01*
X147794180Y-101189502D01*
X147904494Y-101130537D01*
X148001185Y-101051185D01*
X148080537Y-100954494D01*
X148139502Y-100844180D01*
X148175812Y-100724482D01*
X148188072Y-100600000D01*
X148185000Y-98885750D01*
X148026250Y-98727000D01*
X147327000Y-98727000D01*
X147188072Y-98727000D01*
X147188072Y-96600000D01*
X147175812Y-96475518D01*
X147139502Y-96355820D01*
X147080537Y-96245506D01*
X147073000Y-96236322D01*
X147073000Y-96123750D01*
X147327000Y-96123750D01*
X147327000Y-98473000D01*
X148026250Y-98473000D01*
X148185000Y-98314250D01*
X148188072Y-96600000D01*
X148175812Y-96475518D01*
X148139502Y-96355820D01*
X148080537Y-96245506D01*
X148001185Y-96148815D01*
X147904494Y-96069463D01*
X147794180Y-96010498D01*
X147674482Y-95974188D01*
X147550000Y-95961928D01*
X147485750Y-95965000D01*
X147327000Y-96123750D01*
X147073000Y-96123750D01*
X146914250Y-95965000D01*
X146850000Y-95961928D01*
X146725518Y-95974188D01*
X146700000Y-95981929D01*
X146674482Y-95974188D01*
X146550000Y-95961928D01*
X145850000Y-95961928D01*
X145725518Y-95974188D01*
X145700000Y-95981929D01*
X145674482Y-95974188D01*
X145550000Y-95961928D01*
X144850000Y-95961928D01*
X144725518Y-95974188D01*
X144700000Y-95981929D01*
X144674482Y-95974188D01*
X144550000Y-95961928D01*
X143850000Y-95961928D01*
X143725518Y-95974188D01*
X143700000Y-95981929D01*
X143674482Y-95974188D01*
X143550000Y-95961928D01*
X142850000Y-95961928D01*
X142725518Y-95974188D01*
X142700000Y-95981929D01*
X142674482Y-95974188D01*
X142550000Y-95961928D01*
X141960000Y-95961928D01*
X141960000Y-89027333D01*
X141963677Y-88990000D01*
X141957015Y-88922358D01*
X141975000Y-88831939D01*
X141975000Y-88628061D01*
X141935226Y-88428102D01*
X141857205Y-88239744D01*
X141790558Y-88140000D01*
X143635199Y-88140000D01*
X143785000Y-88289801D01*
X143785000Y-88351939D01*
X143824774Y-88551898D01*
X143902795Y-88740256D01*
X144016063Y-88909774D01*
X144160226Y-89053937D01*
X144329744Y-89167205D01*
X144518102Y-89245226D01*
X144718061Y-89285000D01*
X144921939Y-89285000D01*
X145121898Y-89245226D01*
X145310256Y-89167205D01*
X145479774Y-89053937D01*
X145623937Y-88909774D01*
X145737205Y-88740256D01*
X145815226Y-88551898D01*
X145855000Y-88351939D01*
X145855000Y-88148061D01*
X145815226Y-87948102D01*
X145737205Y-87759744D01*
X145623937Y-87590226D01*
X145479774Y-87446063D01*
X145310256Y-87332795D01*
X145121898Y-87254774D01*
X144921939Y-87215000D01*
X144859801Y-87215000D01*
X144513803Y-86869002D01*
X144490001Y-86839999D01*
X144374276Y-86745026D01*
X144242247Y-86674454D01*
X144098986Y-86630997D01*
X143987333Y-86620000D01*
X143987322Y-86620000D01*
X143950000Y-86616324D01*
X143912678Y-86620000D01*
X136100324Y-86620000D01*
X136063002Y-86616324D01*
X136025680Y-86620000D01*
X133907323Y-86620000D01*
X133870000Y-86616324D01*
X133832677Y-86620000D01*
X133832667Y-86620000D01*
X133721014Y-86630997D01*
X133577753Y-86674454D01*
X133445723Y-86745026D01*
X133362083Y-86813668D01*
X133329999Y-86839999D01*
X133306200Y-86868998D01*
X132744002Y-87431197D01*
X132715000Y-87454998D01*
X132682171Y-87495000D01*
X132628061Y-87495000D01*
X132428102Y-87534774D01*
X132239744Y-87612795D01*
X132070226Y-87726063D01*
X131926063Y-87870226D01*
X131812795Y-88039744D01*
X131734774Y-88228102D01*
X131695000Y-88428061D01*
X113695001Y-88428061D01*
X113695001Y-70813555D01*
X113697205Y-70810256D01*
X113775226Y-70621898D01*
X113815000Y-70421939D01*
X113815000Y-70218061D01*
X113775226Y-70018102D01*
X113697205Y-69829744D01*
X113583937Y-69660226D01*
X113439774Y-69516063D01*
X113270256Y-69402795D01*
X113081898Y-69324774D01*
X112881939Y-69285000D01*
X112678061Y-69285000D01*
X112478102Y-69324774D01*
X112289744Y-69402795D01*
X112120226Y-69516063D01*
X111976063Y-69660226D01*
X111862795Y-69829744D01*
X111784774Y-70018102D01*
X111745000Y-70218061D01*
X111745000Y-70421939D01*
X111784774Y-70621898D01*
X111862795Y-70810256D01*
X111976063Y-70979774D01*
X112120226Y-71123937D01*
X112175002Y-71160537D01*
X112175001Y-93380197D01*
X111688997Y-93866201D01*
X111660000Y-93889999D01*
X111636202Y-93918997D01*
X111636201Y-93918998D01*
X111565026Y-94005724D01*
X111494454Y-94137754D01*
X111473752Y-94206003D01*
X111456258Y-94263676D01*
X111450998Y-94281015D01*
X111436324Y-94430000D01*
X111440001Y-94467332D01*
X111440001Y-95961928D01*
X111131365Y-95961928D01*
X111185226Y-95831898D01*
X111225000Y-95631939D01*
X111225000Y-95428061D01*
X111185226Y-95228102D01*
X111107205Y-95039744D01*
X110993937Y-94870226D01*
X110849774Y-94726063D01*
X110680256Y-94612795D01*
X110491898Y-94534774D01*
X110291939Y-94495000D01*
X110088061Y-94495000D01*
X109888102Y-94534774D01*
X109699744Y-94612795D01*
X109530226Y-94726063D01*
X109386063Y-94870226D01*
X109272795Y-95039744D01*
X109194774Y-95228102D01*
X109155000Y-95428061D01*
X109155000Y-95631939D01*
X109194774Y-95831898D01*
X109248635Y-95961928D01*
X108850000Y-95961928D01*
X108725518Y-95974188D01*
X108700000Y-95981929D01*
X108674482Y-95974188D01*
X108550000Y-95961928D01*
X108485750Y-95965000D01*
X108327000Y-96123750D01*
X108327000Y-96236322D01*
X108319463Y-96245506D01*
X108260498Y-96355820D01*
X108224188Y-96475518D01*
X108211928Y-96600000D01*
X108211928Y-100600000D01*
X108224188Y-100724482D01*
X108260498Y-100844180D01*
X108319463Y-100954494D01*
X108327000Y-100963678D01*
X108327000Y-101076250D01*
X108485750Y-101235000D01*
X108550000Y-101238072D01*
X108674482Y-101225812D01*
X108700000Y-101218071D01*
X108725518Y-101225812D01*
X108850000Y-101238072D01*
X109550000Y-101238072D01*
X109674482Y-101225812D01*
X109700000Y-101218071D01*
X109725518Y-101225812D01*
X109850000Y-101238072D01*
X110550000Y-101238072D01*
X110674482Y-101225812D01*
X110700000Y-101218071D01*
X110725518Y-101225812D01*
X110850000Y-101238072D01*
X111550000Y-101238072D01*
X111674482Y-101225812D01*
X111700000Y-101218071D01*
X111725518Y-101225812D01*
X111850000Y-101238072D01*
X112550000Y-101238072D01*
X112674482Y-101225812D01*
X112700000Y-101218071D01*
X112725518Y-101225812D01*
X112850000Y-101238072D01*
X112887126Y-101238072D01*
X110098997Y-104026201D01*
X109393997Y-104731202D01*
X109364999Y-104755000D01*
X109341201Y-104783998D01*
X109341200Y-104783999D01*
X109270025Y-104870725D01*
X109199453Y-105002755D01*
X109180580Y-105064974D01*
X109155997Y-105146015D01*
X109145755Y-105250001D01*
X109141323Y-105295001D01*
X109145000Y-105332333D01*
X109145000Y-106611289D01*
X109139774Y-106606063D01*
X108970256Y-106492795D01*
X108781898Y-106414774D01*
X108581939Y-106375000D01*
X108378061Y-106375000D01*
X108178102Y-106414774D01*
X107989744Y-106492795D01*
X107820226Y-106606063D01*
X107676063Y-106750226D01*
X107562795Y-106919744D01*
X107484774Y-107108102D01*
X107445000Y-107308061D01*
X107445000Y-107511939D01*
X107484774Y-107711898D01*
X107562795Y-107900256D01*
X107676063Y-108069774D01*
X107720000Y-108113711D01*
X107720001Y-113354475D01*
X107710986Y-113359294D01*
X107484866Y-113544866D01*
X107460393Y-113574687D01*
X107439502Y-113505820D01*
X107380537Y-113395506D01*
X107301185Y-113298815D01*
X107204494Y-113219463D01*
X107094180Y-113160498D01*
X106974482Y-113124188D01*
X106850000Y-113111928D01*
X106285750Y-113115000D01*
X106127000Y-113273750D01*
X106127000Y-114473000D01*
X106147000Y-114473000D01*
X106147000Y-114727000D01*
X106127000Y-114727000D01*
X106127000Y-114747000D01*
X105873000Y-114747000D01*
X105873000Y-114727000D01*
X104673750Y-114727000D01*
X104515000Y-114885750D01*
X104511928Y-115450000D01*
X104524188Y-115574482D01*
X104560498Y-115694180D01*
X104619463Y-115804494D01*
X104698815Y-115901185D01*
X104795506Y-115980537D01*
X104905820Y-116039502D01*
X104974687Y-116060393D01*
X104944866Y-116084866D01*
X104759294Y-116310986D01*
X104621401Y-116568966D01*
X104536487Y-116848889D01*
X104507815Y-117140000D01*
X100770000Y-117140000D01*
X100770000Y-113750000D01*
X104511928Y-113750000D01*
X104515000Y-114314250D01*
X104673750Y-114473000D01*
X105873000Y-114473000D01*
X105873000Y-113273750D01*
X105714250Y-113115000D01*
X105150000Y-113111928D01*
X105025518Y-113124188D01*
X104905820Y-113160498D01*
X104795506Y-113219463D01*
X104698815Y-113298815D01*
X104619463Y-113395506D01*
X104560498Y-113505820D01*
X104524188Y-113625518D01*
X104511928Y-113750000D01*
X100770000Y-113750000D01*
X100770000Y-101898061D01*
X102165000Y-101898061D01*
X102165000Y-102101939D01*
X102204774Y-102301898D01*
X102282795Y-102490256D01*
X102396063Y-102659774D01*
X102540226Y-102803937D01*
X102709744Y-102917205D01*
X102898102Y-102995226D01*
X103098061Y-103035000D01*
X103301939Y-103035000D01*
X103501898Y-102995226D01*
X103690256Y-102917205D01*
X103700000Y-102910694D01*
X103709744Y-102917205D01*
X103898102Y-102995226D01*
X104098061Y-103035000D01*
X104301939Y-103035000D01*
X104501898Y-102995226D01*
X104690256Y-102917205D01*
X104700000Y-102910694D01*
X104709744Y-102917205D01*
X104898102Y-102995226D01*
X105098061Y-103035000D01*
X105301939Y-103035000D01*
X105501898Y-102995226D01*
X105690256Y-102917205D01*
X105700000Y-102910694D01*
X105709744Y-102917205D01*
X105898102Y-102995226D01*
X106098061Y-103035000D01*
X106301939Y-103035000D01*
X106501898Y-102995226D01*
X106690256Y-102917205D01*
X106859774Y-102803937D01*
X107003937Y-102659774D01*
X107117205Y-102490256D01*
X107195226Y-102301898D01*
X107235000Y-102101939D01*
X107235000Y-101898061D01*
X107195226Y-101698102D01*
X107117205Y-101509744D01*
X107003937Y-101340226D01*
X106960000Y-101296289D01*
X106960000Y-101238072D01*
X107550000Y-101238072D01*
X107674482Y-101225812D01*
X107700000Y-101218071D01*
X107725518Y-101225812D01*
X107850000Y-101238072D01*
X107914250Y-101235000D01*
X108073000Y-101076250D01*
X108073000Y-100963678D01*
X108080537Y-100954494D01*
X108139502Y-100844180D01*
X108175812Y-100724482D01*
X108188072Y-100600000D01*
X108188072Y-96600000D01*
X108175812Y-96475518D01*
X108139502Y-96355820D01*
X108080537Y-96245506D01*
X108073000Y-96236322D01*
X108073000Y-96123750D01*
X107960000Y-96010750D01*
X107960000Y-75683711D01*
X108003937Y-75639774D01*
X108117205Y-75470256D01*
X108195226Y-75281898D01*
X108235000Y-75081939D01*
X108235000Y-74878061D01*
X108195226Y-74678102D01*
X108117205Y-74489744D01*
X108003937Y-74320226D01*
X107859774Y-74176063D01*
X107690256Y-74062795D01*
X107501898Y-73984774D01*
X107301939Y-73945000D01*
X107098061Y-73945000D01*
X106898102Y-73984774D01*
X106709744Y-74062795D01*
X106540226Y-74176063D01*
X106396063Y-74320226D01*
X106282795Y-74489744D01*
X106204774Y-74678102D01*
X106165000Y-74878061D01*
X106165000Y-75081939D01*
X106204774Y-75281898D01*
X106282795Y-75470256D01*
X106396063Y-75639774D01*
X106440001Y-75683712D01*
X106440000Y-95961928D01*
X105850000Y-95961928D01*
X105725518Y-95974188D01*
X105700000Y-95981929D01*
X105674482Y-95974188D01*
X105550000Y-95961928D01*
X104850000Y-95961928D01*
X104725518Y-95974188D01*
X104700000Y-95981929D01*
X104674482Y-95974188D01*
X104550000Y-95961928D01*
X103850000Y-95961928D01*
X103725518Y-95974188D01*
X103700000Y-95981929D01*
X103674482Y-95974188D01*
X103550000Y-95961928D01*
X102850000Y-95961928D01*
X102725518Y-95974188D01*
X102700000Y-95981929D01*
X102674482Y-95974188D01*
X102550000Y-95961928D01*
X102485750Y-95965000D01*
X102327000Y-96123750D01*
X102327000Y-96236322D01*
X102319463Y-96245506D01*
X102260498Y-96355820D01*
X102224188Y-96475518D01*
X102211928Y-96600000D01*
X102211928Y-100600000D01*
X102224188Y-100724482D01*
X102260498Y-100844180D01*
X102319463Y-100954494D01*
X102327000Y-100963678D01*
X102327000Y-101076250D01*
X102440001Y-101189251D01*
X102440001Y-101296288D01*
X102396063Y-101340226D01*
X102282795Y-101509744D01*
X102204774Y-101698102D01*
X102165000Y-101898061D01*
X100770000Y-101898061D01*
X100770000Y-100600000D01*
X101211928Y-100600000D01*
X101224188Y-100724482D01*
X101260498Y-100844180D01*
X101319463Y-100954494D01*
X101398815Y-101051185D01*
X101495506Y-101130537D01*
X101605820Y-101189502D01*
X101725518Y-101225812D01*
X101850000Y-101238072D01*
X101914250Y-101235000D01*
X102073000Y-101076250D01*
X102073000Y-98727000D01*
X101373750Y-98727000D01*
X101215000Y-98885750D01*
X101211928Y-100600000D01*
X100770000Y-100600000D01*
X100770000Y-96600000D01*
X101211928Y-96600000D01*
X101215000Y-98314250D01*
X101373750Y-98473000D01*
X102073000Y-98473000D01*
X102073000Y-96123750D01*
X101914250Y-95965000D01*
X101850000Y-95961928D01*
X101725518Y-95974188D01*
X101605820Y-96010498D01*
X101495506Y-96069463D01*
X101398815Y-96148815D01*
X101319463Y-96245506D01*
X101260498Y-96355820D01*
X101224188Y-96475518D01*
X101211928Y-96600000D01*
X100770000Y-96600000D01*
X100770000Y-35980928D01*
X101398677Y-35980928D01*
X101704859Y-36424503D01*
X102292306Y-36739954D01*
X102930008Y-36934740D01*
X103593457Y-37001372D01*
X104257158Y-36937292D01*
X104895605Y-36744962D01*
X105484262Y-36431772D01*
X105495141Y-36424503D01*
X105801323Y-35980928D01*
X143798677Y-35980928D01*
X144104859Y-36424503D01*
X144692306Y-36739954D01*
X145330008Y-36934740D01*
X145993457Y-37001372D01*
X146657158Y-36937292D01*
X147295605Y-36744962D01*
X147884262Y-36431772D01*
X147895141Y-36424503D01*
X148201323Y-35980928D01*
X146000000Y-33779605D01*
X143798677Y-35980928D01*
X105801323Y-35980928D01*
X103600000Y-33779605D01*
X101398677Y-35980928D01*
X100770000Y-35980928D01*
X100770000Y-35486914D01*
X100775497Y-35495141D01*
X101219072Y-35801323D01*
X103420395Y-33600000D01*
X103779605Y-33600000D01*
X105980928Y-35801323D01*
X106424503Y-35495141D01*
X106739954Y-34907694D01*
X106934740Y-34269992D01*
X107001372Y-33606543D01*
X107000109Y-33593457D01*
X142598628Y-33593457D01*
X142662708Y-34257158D01*
X142855038Y-34895605D01*
X143168228Y-35484262D01*
X143175497Y-35495141D01*
X143619072Y-35801323D01*
X145820395Y-33600000D01*
X143619072Y-31398677D01*
X143175497Y-31704859D01*
X142860046Y-32292306D01*
X142665260Y-32930008D01*
X142598628Y-33593457D01*
X107000109Y-33593457D01*
X106937292Y-32942842D01*
X106744962Y-32304395D01*
X106431772Y-31715738D01*
X106424503Y-31704859D01*
X105980928Y-31398677D01*
X103779605Y-33600000D01*
X103420395Y-33600000D01*
X101219072Y-31398677D01*
X100775497Y-31704859D01*
X100770000Y-31715096D01*
X100770000Y-30810000D01*
X101681043Y-30810000D01*
X101398677Y-31219072D01*
X101398677Y-31219072D01*
G37*
X101398677Y-31219072D02*
X103600000Y-33420395D01*
X105801323Y-31219072D01*
X105518957Y-30810000D01*
X144081043Y-30810000D01*
X143798677Y-31219072D01*
X146000000Y-33420395D01*
X148201323Y-31219072D01*
X147918957Y-30810000D01*
X148890000Y-30810000D01*
X148890000Y-31825181D01*
X148831772Y-31715738D01*
X148824503Y-31704859D01*
X148380928Y-31398677D01*
X146179605Y-33600000D01*
X148380928Y-35801323D01*
X148824503Y-35495141D01*
X148890000Y-35373169D01*
X148890001Y-118710000D01*
X100770000Y-118710000D01*
X100770000Y-117140000D01*
X104507815Y-117140000D01*
X104536487Y-117431111D01*
X104621401Y-117711034D01*
X104759294Y-117969014D01*
X104944866Y-118195134D01*
X105170986Y-118380706D01*
X105428966Y-118518599D01*
X105708889Y-118603513D01*
X105927050Y-118625000D01*
X106072950Y-118625000D01*
X106291111Y-118603513D01*
X106571034Y-118518599D01*
X106829014Y-118380706D01*
X107055134Y-118195134D01*
X107240706Y-117969014D01*
X107270000Y-117914209D01*
X107299294Y-117969014D01*
X107484866Y-118195134D01*
X107710986Y-118380706D01*
X107968966Y-118518599D01*
X108248889Y-118603513D01*
X108467050Y-118625000D01*
X108612950Y-118625000D01*
X108831111Y-118603513D01*
X109111034Y-118518599D01*
X109369014Y-118380706D01*
X109595134Y-118195134D01*
X109780706Y-117969014D01*
X109810000Y-117914209D01*
X109839294Y-117969014D01*
X110024866Y-118195134D01*
X110250986Y-118380706D01*
X110508966Y-118518599D01*
X110788889Y-118603513D01*
X111007050Y-118625000D01*
X111152950Y-118625000D01*
X111371111Y-118603513D01*
X111651034Y-118518599D01*
X111909014Y-118380706D01*
X112135134Y-118195134D01*
X112320706Y-117969014D01*
X112350000Y-117914209D01*
X112379294Y-117969014D01*
X112564866Y-118195134D01*
X112790986Y-118380706D01*
X113048966Y-118518599D01*
X113328889Y-118603513D01*
X113547050Y-118625000D01*
X113692950Y-118625000D01*
X113911111Y-118603513D01*
X114191034Y-118518599D01*
X114449014Y-118380706D01*
X114675134Y-118195134D01*
X114860706Y-117969014D01*
X114890000Y-117914209D01*
X114919294Y-117969014D01*
X115104866Y-118195134D01*
X115330986Y-118380706D01*
X115588966Y-118518599D01*
X115868889Y-118603513D01*
X116087050Y-118625000D01*
X116232950Y-118625000D01*
X116451111Y-118603513D01*
X116731034Y-118518599D01*
X116989014Y-118380706D01*
X117215134Y-118195134D01*
X117400706Y-117969014D01*
X117430000Y-117914209D01*
X117459294Y-117969014D01*
X117644866Y-118195134D01*
X117870986Y-118380706D01*
X118128966Y-118518599D01*
X118408889Y-118603513D01*
X118627050Y-118625000D01*
X118772950Y-118625000D01*
X118991111Y-118603513D01*
X119271034Y-118518599D01*
X119529014Y-118380706D01*
X119755134Y-118195134D01*
X119940706Y-117969014D01*
X119970000Y-117914209D01*
X119999294Y-117969014D01*
X120184866Y-118195134D01*
X120410986Y-118380706D01*
X120668966Y-118518599D01*
X120948889Y-118603513D01*
X121167050Y-118625000D01*
X121312950Y-118625000D01*
X121531111Y-118603513D01*
X121811034Y-118518599D01*
X122069014Y-118380706D01*
X122295134Y-118195134D01*
X122480706Y-117969014D01*
X122510000Y-117914209D01*
X122539294Y-117969014D01*
X122724866Y-118195134D01*
X122950986Y-118380706D01*
X123208966Y-118518599D01*
X123488889Y-118603513D01*
X123707050Y-118625000D01*
X123852950Y-118625000D01*
X124071111Y-118603513D01*
X124351034Y-118518599D01*
X124609014Y-118380706D01*
X124835134Y-118195134D01*
X125020706Y-117969014D01*
X125050000Y-117914209D01*
X125079294Y-117969014D01*
X125264866Y-118195134D01*
X125490986Y-118380706D01*
X125748966Y-118518599D01*
X126028889Y-118603513D01*
X126247050Y-118625000D01*
X126392950Y-118625000D01*
X126611111Y-118603513D01*
X126891034Y-118518599D01*
X127149014Y-118380706D01*
X127375134Y-118195134D01*
X127560706Y-117969014D01*
X127590000Y-117914209D01*
X127619294Y-117969014D01*
X127804866Y-118195134D01*
X128030986Y-118380706D01*
X128288966Y-118518599D01*
X128568889Y-118603513D01*
X128787050Y-118625000D01*
X128932950Y-118625000D01*
X129151111Y-118603513D01*
X129431034Y-118518599D01*
X129689014Y-118380706D01*
X129915134Y-118195134D01*
X130100706Y-117969014D01*
X130130000Y-117914209D01*
X130159294Y-117969014D01*
X130344866Y-118195134D01*
X130570986Y-118380706D01*
X130828966Y-118518599D01*
X131108889Y-118603513D01*
X131327050Y-118625000D01*
X131472950Y-118625000D01*
X131691111Y-118603513D01*
X131971034Y-118518599D01*
X132229014Y-118380706D01*
X132455134Y-118195134D01*
X132640706Y-117969014D01*
X132670000Y-117914209D01*
X132699294Y-117969014D01*
X132884866Y-118195134D01*
X133110986Y-118380706D01*
X133368966Y-118518599D01*
X133648889Y-118603513D01*
X133867050Y-118625000D01*
X134012950Y-118625000D01*
X134231111Y-118603513D01*
X134511034Y-118518599D01*
X134769014Y-118380706D01*
X134995134Y-118195134D01*
X135180706Y-117969014D01*
X135210000Y-117914209D01*
X135239294Y-117969014D01*
X135424866Y-118195134D01*
X135650986Y-118380706D01*
X135908966Y-118518599D01*
X136188889Y-118603513D01*
X136407050Y-118625000D01*
X136552950Y-118625000D01*
X136771111Y-118603513D01*
X137051034Y-118518599D01*
X137309014Y-118380706D01*
X137535134Y-118195134D01*
X137720706Y-117969014D01*
X137750000Y-117914209D01*
X137779294Y-117969014D01*
X137964866Y-118195134D01*
X138190986Y-118380706D01*
X138448966Y-118518599D01*
X138728889Y-118603513D01*
X138947050Y-118625000D01*
X139092950Y-118625000D01*
X139311111Y-118603513D01*
X139591034Y-118518599D01*
X139849014Y-118380706D01*
X140075134Y-118195134D01*
X140260706Y-117969014D01*
X140290000Y-117914209D01*
X140319294Y-117969014D01*
X140504866Y-118195134D01*
X140730986Y-118380706D01*
X140988966Y-118518599D01*
X141268889Y-118603513D01*
X141487050Y-118625000D01*
X141632950Y-118625000D01*
X141851111Y-118603513D01*
X142131034Y-118518599D01*
X142389014Y-118380706D01*
X142615134Y-118195134D01*
X142800706Y-117969014D01*
X142830000Y-117914209D01*
X142859294Y-117969014D01*
X143044866Y-118195134D01*
X143270986Y-118380706D01*
X143528966Y-118518599D01*
X143808889Y-118603513D01*
X144027050Y-118625000D01*
X144172950Y-118625000D01*
X144391111Y-118603513D01*
X144671034Y-118518599D01*
X144929014Y-118380706D01*
X145155134Y-118195134D01*
X145340706Y-117969014D01*
X145478599Y-117711034D01*
X145563513Y-117431111D01*
X145592185Y-117140000D01*
X145563513Y-116848889D01*
X145478599Y-116568966D01*
X145340706Y-116310986D01*
X145155134Y-116084866D01*
X144929014Y-115899294D01*
X144874209Y-115870000D01*
X144929014Y-115840706D01*
X145155134Y-115655134D01*
X145340706Y-115429014D01*
X145478599Y-115171034D01*
X145563513Y-114891111D01*
X145592185Y-114600000D01*
X145563513Y-114308889D01*
X145478599Y-114028966D01*
X145340706Y-113770986D01*
X145155134Y-113544866D01*
X144929014Y-113359294D01*
X144671034Y-113221401D01*
X144391111Y-113136487D01*
X144172950Y-113115000D01*
X144027050Y-113115000D01*
X143808889Y-113136487D01*
X143528966Y-113221401D01*
X143270986Y-113359294D01*
X143044866Y-113544866D01*
X142859294Y-113770986D01*
X142830000Y-113825791D01*
X142800706Y-113770986D01*
X142615134Y-113544866D01*
X142389014Y-113359294D01*
X142131034Y-113221401D01*
X141851111Y-113136487D01*
X141632950Y-113115000D01*
X141487050Y-113115000D01*
X141268889Y-113136487D01*
X140988966Y-113221401D01*
X140730986Y-113359294D01*
X140504866Y-113544866D01*
X140319294Y-113770986D01*
X140290000Y-113825791D01*
X140260706Y-113770986D01*
X140075134Y-113544866D01*
X139849014Y-113359294D01*
X139591034Y-113221401D01*
X139311111Y-113136487D01*
X139092950Y-113115000D01*
X138947050Y-113115000D01*
X138728889Y-113136487D01*
X138448966Y-113221401D01*
X138415001Y-113239556D01*
X138415001Y-104512326D01*
X138418677Y-104475001D01*
X138415001Y-104437676D01*
X138415001Y-104437668D01*
X138404004Y-104326015D01*
X138360547Y-104182754D01*
X138289975Y-104050725D01*
X138195002Y-103935000D01*
X138166004Y-103911202D01*
X137704256Y-103449455D01*
X137813937Y-103339774D01*
X137927205Y-103170256D01*
X138005226Y-102981898D01*
X138045000Y-102781939D01*
X138045000Y-102578061D01*
X138005226Y-102378102D01*
X137927205Y-102189744D01*
X137813937Y-102020226D01*
X137669774Y-101876063D01*
X137500256Y-101762795D01*
X137311898Y-101684774D01*
X137111939Y-101645000D01*
X137049801Y-101645000D01*
X136960000Y-101555199D01*
X136960000Y-101238072D01*
X137550000Y-101238072D01*
X137674482Y-101225812D01*
X137700000Y-101218071D01*
X137725518Y-101225812D01*
X137850000Y-101238072D01*
X137914250Y-101235000D01*
X138073000Y-101076250D01*
X138073000Y-100963678D01*
X138080537Y-100954494D01*
X138139502Y-100844180D01*
X138175812Y-100724482D01*
X138188072Y-100600000D01*
X138211928Y-100600000D01*
X138224188Y-100724482D01*
X138260498Y-100844180D01*
X138319463Y-100954494D01*
X138327000Y-100963678D01*
X138327000Y-101076250D01*
X138485750Y-101235000D01*
X138550000Y-101238072D01*
X138674482Y-101225812D01*
X138700000Y-101218071D01*
X138725518Y-101225812D01*
X138850000Y-101238072D01*
X138914250Y-101235000D01*
X139073000Y-101076250D01*
X139073000Y-100963678D01*
X139080537Y-100954494D01*
X139139502Y-100844180D01*
X139175812Y-100724482D01*
X139188072Y-100600000D01*
X139185000Y-98885750D01*
X139073000Y-98773750D01*
X139073000Y-98727000D01*
X138327000Y-98727000D01*
X138327000Y-98773750D01*
X138215000Y-98885750D01*
X138211928Y-100600000D01*
X138188072Y-100600000D01*
X138188072Y-96600000D01*
X138211928Y-96600000D01*
X138215000Y-98314250D01*
X138327000Y-98426250D01*
X138327000Y-98473000D01*
X139073000Y-98473000D01*
X139073000Y-98426250D01*
X139185000Y-98314250D01*
X139188072Y-96600000D01*
X139175812Y-96475518D01*
X139139502Y-96355820D01*
X139080537Y-96245506D01*
X139073000Y-96236322D01*
X139073000Y-96123750D01*
X138914250Y-95965000D01*
X138850000Y-95961928D01*
X138725518Y-95974188D01*
X138700000Y-95981929D01*
X138674482Y-95974188D01*
X138550000Y-95961928D01*
X138485750Y-95965000D01*
X138327000Y-96123750D01*
X138327000Y-96236322D01*
X138319463Y-96245506D01*
X138260498Y-96355820D01*
X138224188Y-96475518D01*
X138211928Y-96600000D01*
X138188072Y-96600000D01*
X138175812Y-96475518D01*
X138139502Y-96355820D01*
X138080537Y-96245506D01*
X138073000Y-96236322D01*
X138073000Y-96123750D01*
X137960000Y-96010750D01*
X137960000Y-93537323D01*
X137963676Y-93500000D01*
X137960000Y-93462677D01*
X137960000Y-93462667D01*
X137949003Y-93351014D01*
X137905546Y-93207753D01*
X137877348Y-93154999D01*
X137834974Y-93075723D01*
X137763799Y-92988997D01*
X137740001Y-92959999D01*
X137711003Y-92936201D01*
X136985000Y-92210199D01*
X136985000Y-92148061D01*
X136945226Y-91948102D01*
X136867205Y-91759744D01*
X136753937Y-91590226D01*
X136609774Y-91446063D01*
X136440256Y-91332795D01*
X136251898Y-91254774D01*
X136051939Y-91215000D01*
X135848061Y-91215000D01*
X135648102Y-91254774D01*
X135459744Y-91332795D01*
X135290226Y-91446063D01*
X135146063Y-91590226D01*
X135032795Y-91759744D01*
X134954774Y-91948102D01*
X134915000Y-92148061D01*
X134915000Y-92310199D01*
X134583804Y-91979003D01*
X134560001Y-91949999D01*
X134444276Y-91855026D01*
X134312247Y-91784454D01*
X134168986Y-91740997D01*
X134057333Y-91730000D01*
X134057322Y-91730000D01*
X134020000Y-91726324D01*
X133982678Y-91730000D01*
X132563711Y-91730000D01*
X132539774Y-91706063D01*
X132370256Y-91592795D01*
X132181898Y-91514774D01*
X131981939Y-91475000D01*
X131778061Y-91475000D01*
X131578102Y-91514774D01*
X131389744Y-91592795D01*
X131220226Y-91706063D01*
X131076063Y-91850226D01*
X130962795Y-92019744D01*
X130884774Y-92208102D01*
X130845000Y-92408061D01*
X130845000Y-92611939D01*
X130884774Y-92811898D01*
X130962795Y-93000256D01*
X131076063Y-93169774D01*
X131220226Y-93313937D01*
X131389744Y-93427205D01*
X131578102Y-93505226D01*
X131778061Y-93545000D01*
X131981939Y-93545000D01*
X132181898Y-93505226D01*
X132370256Y-93427205D01*
X132539774Y-93313937D01*
X132603711Y-93250000D01*
X133705199Y-93250000D01*
X135440001Y-94984803D01*
X135440001Y-95961928D01*
X134850000Y-95961928D01*
X134725518Y-95974188D01*
X134700000Y-95981929D01*
X134674482Y-95974188D01*
X134550000Y-95961928D01*
X133850000Y-95961928D01*
X133725518Y-95974188D01*
X133700000Y-95981929D01*
X133674482Y-95974188D01*
X133550000Y-95961928D01*
X132850000Y-95961928D01*
X132725518Y-95974188D01*
X132700000Y-95981929D01*
X132674482Y-95974188D01*
X132550000Y-95961928D01*
X131850000Y-95961928D01*
X131725518Y-95974188D01*
X131700000Y-95981929D01*
X131674482Y-95974188D01*
X131550000Y-95961928D01*
X130850000Y-95961928D01*
X130725518Y-95974188D01*
X130700000Y-95981929D01*
X130674482Y-95974188D01*
X130550000Y-95961928D01*
X129850000Y-95961928D01*
X129725518Y-95974188D01*
X129700000Y-95981929D01*
X129674482Y-95974188D01*
X129550000Y-95961928D01*
X128850000Y-95961928D01*
X128725518Y-95974188D01*
X128700000Y-95981929D01*
X128674482Y-95974188D01*
X128550000Y-95961928D01*
X127850000Y-95961928D01*
X127725518Y-95974188D01*
X127700000Y-95981929D01*
X127674482Y-95974188D01*
X127550000Y-95961928D01*
X126850000Y-95961928D01*
X126725518Y-95974188D01*
X126700000Y-95981929D01*
X126674482Y-95974188D01*
X126550000Y-95961928D01*
X125850000Y-95961928D01*
X125725518Y-95974188D01*
X125700000Y-95981929D01*
X125674482Y-95974188D01*
X125550000Y-95961928D01*
X124850000Y-95961928D01*
X124725518Y-95974188D01*
X124700000Y-95981929D01*
X124674482Y-95974188D01*
X124550000Y-95961928D01*
X123850000Y-95961928D01*
X123725518Y-95974188D01*
X123700000Y-95981929D01*
X123674482Y-95974188D01*
X123550000Y-95961928D01*
X122850000Y-95961928D01*
X122725518Y-95974188D01*
X122700000Y-95981929D01*
X122674482Y-95974188D01*
X122550000Y-95961928D01*
X121850000Y-95961928D01*
X121725518Y-95974188D01*
X121700000Y-95981929D01*
X121674482Y-95974188D01*
X121550000Y-95961928D01*
X120850000Y-95961928D01*
X120725518Y-95974188D01*
X120700000Y-95981929D01*
X120674482Y-95974188D01*
X120550000Y-95961928D01*
X119850000Y-95961928D01*
X119725518Y-95974188D01*
X119700000Y-95981929D01*
X119674482Y-95974188D01*
X119550000Y-95961928D01*
X118850000Y-95961928D01*
X118725518Y-95974188D01*
X118700000Y-95981929D01*
X118674482Y-95974188D01*
X118550000Y-95961928D01*
X117850000Y-95961928D01*
X117725518Y-95974188D01*
X117700000Y-95981929D01*
X117674482Y-95974188D01*
X117550000Y-95961928D01*
X116850000Y-95961928D01*
X116725518Y-95974188D01*
X116700000Y-95981929D01*
X116674482Y-95974188D01*
X116550000Y-95961928D01*
X115850000Y-95961928D01*
X115725518Y-95974188D01*
X115700000Y-95981929D01*
X115674482Y-95974188D01*
X115550000Y-95961928D01*
X115039406Y-95961928D01*
X115047205Y-95950256D01*
X115125226Y-95761898D01*
X115165000Y-95561939D01*
X115165000Y-95358061D01*
X115125226Y-95158102D01*
X115047205Y-94969744D01*
X114933937Y-94800226D01*
X114789774Y-94656063D01*
X114620256Y-94542795D01*
X114431898Y-94464774D01*
X114231939Y-94425000D01*
X114028061Y-94425000D01*
X113828102Y-94464774D01*
X113639744Y-94542795D01*
X113470226Y-94656063D01*
X113326063Y-94800226D01*
X113212795Y-94969744D01*
X113134774Y-95158102D01*
X113095000Y-95358061D01*
X113095000Y-95561939D01*
X113134774Y-95761898D01*
X113212795Y-95950256D01*
X113220594Y-95961928D01*
X112960000Y-95961928D01*
X112960000Y-94744802D01*
X113446010Y-94258793D01*
X113475002Y-94235000D01*
X113498796Y-94206007D01*
X113498800Y-94206003D01*
X113569974Y-94119276D01*
X113569975Y-94119275D01*
X113640547Y-93987246D01*
X113684004Y-93843985D01*
X113695001Y-93732332D01*
X113695001Y-93732323D01*
X113698677Y-93695000D01*
X113695001Y-93657677D01*
X113695001Y-88428061D01*
X131695000Y-88428061D01*
X131695000Y-88631939D01*
X131734774Y-88831898D01*
X131812795Y-89020256D01*
X131926063Y-89189774D01*
X132070226Y-89333937D01*
X132239744Y-89447205D01*
X132428102Y-89525226D01*
X132628061Y-89565000D01*
X132831939Y-89565000D01*
X133031898Y-89525226D01*
X133220256Y-89447205D01*
X133389774Y-89333937D01*
X133533937Y-89189774D01*
X133647205Y-89020256D01*
X133725226Y-88831898D01*
X133765000Y-88631939D01*
X133765000Y-88569802D01*
X133766004Y-88568797D01*
X133795002Y-88545000D01*
X133864570Y-88460231D01*
X134184802Y-88140000D01*
X135748201Y-88140000D01*
X139440001Y-91831801D01*
X139440000Y-96010750D01*
X139327000Y-96123750D01*
X139327000Y-96236322D01*
X139319463Y-96245506D01*
X139260498Y-96355820D01*
X139224188Y-96475518D01*
X139211928Y-96600000D01*
X139211928Y-100600000D01*
X139224188Y-100724482D01*
X139260498Y-100844180D01*
X139319463Y-100954494D01*
X139327000Y-100963678D01*
X139327000Y-101076250D01*
X139485750Y-101235000D01*
X139550000Y-101238072D01*
X139674482Y-101225812D01*
X139700000Y-101218071D01*
X139725518Y-101225812D01*
X139850000Y-101238072D01*
X140550000Y-101238072D01*
X140674482Y-101225812D01*
X140700000Y-101218071D01*
X140725518Y-101225812D01*
X140850000Y-101238072D01*
X141550000Y-101238072D01*
X141674482Y-101225812D01*
X141700000Y-101218071D01*
X141725518Y-101225812D01*
X141850000Y-101238072D01*
X142550000Y-101238072D01*
X142674482Y-101225812D01*
X142700000Y-101218071D01*
X142725518Y-101225812D01*
X142850000Y-101238072D01*
X143550000Y-101238072D01*
X143674482Y-101225812D01*
X143700000Y-101218071D01*
X143725518Y-101225812D01*
X143850000Y-101238072D01*
X144550000Y-101238072D01*
X144674482Y-101225812D01*
X144700000Y-101218071D01*
X144725518Y-101225812D01*
X144850000Y-101238072D01*
X145550000Y-101238072D01*
X145674482Y-101225812D01*
X145700000Y-101218071D01*
X145725518Y-101225812D01*
X145850000Y-101238072D01*
X146550000Y-101238072D01*
X146674482Y-101225812D01*
X146700000Y-101218071D01*
X146725518Y-101225812D01*
X146850000Y-101238072D01*
X146914250Y-101235000D01*
X147073000Y-101076250D01*
X147073000Y-100963678D01*
X147080537Y-100954494D01*
X147139502Y-100844180D01*
X147175812Y-100724482D01*
X147188072Y-100600000D01*
X147188072Y-98727000D01*
X147327000Y-98727000D01*
X147327000Y-101076250D01*
X147485750Y-101235000D01*
X147550000Y-101238072D01*
X147674482Y-101225812D01*
X147794180Y-101189502D01*
X147904494Y-101130537D01*
X148001185Y-101051185D01*
X148080537Y-100954494D01*
X148139502Y-100844180D01*
X148175812Y-100724482D01*
X148188072Y-100600000D01*
X148185000Y-98885750D01*
X148026250Y-98727000D01*
X147327000Y-98727000D01*
X147188072Y-98727000D01*
X147188072Y-96600000D01*
X147175812Y-96475518D01*
X147139502Y-96355820D01*
X147080537Y-96245506D01*
X147073000Y-96236322D01*
X147073000Y-96123750D01*
X147327000Y-96123750D01*
X147327000Y-98473000D01*
X148026250Y-98473000D01*
X148185000Y-98314250D01*
X148188072Y-96600000D01*
X148175812Y-96475518D01*
X148139502Y-96355820D01*
X148080537Y-96245506D01*
X148001185Y-96148815D01*
X147904494Y-96069463D01*
X147794180Y-96010498D01*
X147674482Y-95974188D01*
X147550000Y-95961928D01*
X147485750Y-95965000D01*
X147327000Y-96123750D01*
X147073000Y-96123750D01*
X146914250Y-95965000D01*
X146850000Y-95961928D01*
X146725518Y-95974188D01*
X146700000Y-95981929D01*
X146674482Y-95974188D01*
X146550000Y-95961928D01*
X145850000Y-95961928D01*
X145725518Y-95974188D01*
X145700000Y-95981929D01*
X145674482Y-95974188D01*
X145550000Y-95961928D01*
X144850000Y-95961928D01*
X144725518Y-95974188D01*
X144700000Y-95981929D01*
X144674482Y-95974188D01*
X144550000Y-95961928D01*
X143850000Y-95961928D01*
X143725518Y-95974188D01*
X143700000Y-95981929D01*
X143674482Y-95974188D01*
X143550000Y-95961928D01*
X142850000Y-95961928D01*
X142725518Y-95974188D01*
X142700000Y-95981929D01*
X142674482Y-95974188D01*
X142550000Y-95961928D01*
X141960000Y-95961928D01*
X141960000Y-89027333D01*
X141963677Y-88990000D01*
X141957015Y-88922358D01*
X141975000Y-88831939D01*
X141975000Y-88628061D01*
X141935226Y-88428102D01*
X141857205Y-88239744D01*
X141790558Y-88140000D01*
X143635199Y-88140000D01*
X143785000Y-88289801D01*
X143785000Y-88351939D01*
X143824774Y-88551898D01*
X143902795Y-88740256D01*
X144016063Y-88909774D01*
X144160226Y-89053937D01*
X144329744Y-89167205D01*
X144518102Y-89245226D01*
X144718061Y-89285000D01*
X144921939Y-89285000D01*
X145121898Y-89245226D01*
X145310256Y-89167205D01*
X145479774Y-89053937D01*
X145623937Y-88909774D01*
X145737205Y-88740256D01*
X145815226Y-88551898D01*
X145855000Y-88351939D01*
X145855000Y-88148061D01*
X145815226Y-87948102D01*
X145737205Y-87759744D01*
X145623937Y-87590226D01*
X145479774Y-87446063D01*
X145310256Y-87332795D01*
X145121898Y-87254774D01*
X144921939Y-87215000D01*
X144859801Y-87215000D01*
X144513803Y-86869002D01*
X144490001Y-86839999D01*
X144374276Y-86745026D01*
X144242247Y-86674454D01*
X144098986Y-86630997D01*
X143987333Y-86620000D01*
X143987322Y-86620000D01*
X143950000Y-86616324D01*
X143912678Y-86620000D01*
X136100324Y-86620000D01*
X136063002Y-86616324D01*
X136025680Y-86620000D01*
X133907323Y-86620000D01*
X133870000Y-86616324D01*
X133832677Y-86620000D01*
X133832667Y-86620000D01*
X133721014Y-86630997D01*
X133577753Y-86674454D01*
X133445723Y-86745026D01*
X133362083Y-86813668D01*
X133329999Y-86839999D01*
X133306200Y-86868998D01*
X132744002Y-87431197D01*
X132715000Y-87454998D01*
X132682171Y-87495000D01*
X132628061Y-87495000D01*
X132428102Y-87534774D01*
X132239744Y-87612795D01*
X132070226Y-87726063D01*
X131926063Y-87870226D01*
X131812795Y-88039744D01*
X131734774Y-88228102D01*
X131695000Y-88428061D01*
X113695001Y-88428061D01*
X113695001Y-70813555D01*
X113697205Y-70810256D01*
X113775226Y-70621898D01*
X113815000Y-70421939D01*
X113815000Y-70218061D01*
X113775226Y-70018102D01*
X113697205Y-69829744D01*
X113583937Y-69660226D01*
X113439774Y-69516063D01*
X113270256Y-69402795D01*
X113081898Y-69324774D01*
X112881939Y-69285000D01*
X112678061Y-69285000D01*
X112478102Y-69324774D01*
X112289744Y-69402795D01*
X112120226Y-69516063D01*
X111976063Y-69660226D01*
X111862795Y-69829744D01*
X111784774Y-70018102D01*
X111745000Y-70218061D01*
X111745000Y-70421939D01*
X111784774Y-70621898D01*
X111862795Y-70810256D01*
X111976063Y-70979774D01*
X112120226Y-71123937D01*
X112175002Y-71160537D01*
X112175001Y-93380197D01*
X111688997Y-93866201D01*
X111660000Y-93889999D01*
X111636202Y-93918997D01*
X111636201Y-93918998D01*
X111565026Y-94005724D01*
X111494454Y-94137754D01*
X111473752Y-94206003D01*
X111456258Y-94263676D01*
X111450998Y-94281015D01*
X111436324Y-94430000D01*
X111440001Y-94467332D01*
X111440001Y-95961928D01*
X111131365Y-95961928D01*
X111185226Y-95831898D01*
X111225000Y-95631939D01*
X111225000Y-95428061D01*
X111185226Y-95228102D01*
X111107205Y-95039744D01*
X110993937Y-94870226D01*
X110849774Y-94726063D01*
X110680256Y-94612795D01*
X110491898Y-94534774D01*
X110291939Y-94495000D01*
X110088061Y-94495000D01*
X109888102Y-94534774D01*
X109699744Y-94612795D01*
X109530226Y-94726063D01*
X109386063Y-94870226D01*
X109272795Y-95039744D01*
X109194774Y-95228102D01*
X109155000Y-95428061D01*
X109155000Y-95631939D01*
X109194774Y-95831898D01*
X109248635Y-95961928D01*
X108850000Y-95961928D01*
X108725518Y-95974188D01*
X108700000Y-95981929D01*
X108674482Y-95974188D01*
X108550000Y-95961928D01*
X108485750Y-95965000D01*
X108327000Y-96123750D01*
X108327000Y-96236322D01*
X108319463Y-96245506D01*
X108260498Y-96355820D01*
X108224188Y-96475518D01*
X108211928Y-96600000D01*
X108211928Y-100600000D01*
X108224188Y-100724482D01*
X108260498Y-100844180D01*
X108319463Y-100954494D01*
X108327000Y-100963678D01*
X108327000Y-101076250D01*
X108485750Y-101235000D01*
X108550000Y-101238072D01*
X108674482Y-101225812D01*
X108700000Y-101218071D01*
X108725518Y-101225812D01*
X108850000Y-101238072D01*
X109550000Y-101238072D01*
X109674482Y-101225812D01*
X109700000Y-101218071D01*
X109725518Y-101225812D01*
X109850000Y-101238072D01*
X110550000Y-101238072D01*
X110674482Y-101225812D01*
X110700000Y-101218071D01*
X110725518Y-101225812D01*
X110850000Y-101238072D01*
X111550000Y-101238072D01*
X111674482Y-101225812D01*
X111700000Y-101218071D01*
X111725518Y-101225812D01*
X111850000Y-101238072D01*
X112550000Y-101238072D01*
X112674482Y-101225812D01*
X112700000Y-101218071D01*
X112725518Y-101225812D01*
X112850000Y-101238072D01*
X112887126Y-101238072D01*
X110098997Y-104026201D01*
X109393997Y-104731202D01*
X109364999Y-104755000D01*
X109341201Y-104783998D01*
X109341200Y-104783999D01*
X109270025Y-104870725D01*
X109199453Y-105002755D01*
X109180580Y-105064974D01*
X109155997Y-105146015D01*
X109145755Y-105250001D01*
X109141323Y-105295001D01*
X109145000Y-105332333D01*
X109145000Y-106611289D01*
X109139774Y-106606063D01*
X108970256Y-106492795D01*
X108781898Y-106414774D01*
X108581939Y-106375000D01*
X108378061Y-106375000D01*
X108178102Y-106414774D01*
X107989744Y-106492795D01*
X107820226Y-106606063D01*
X107676063Y-106750226D01*
X107562795Y-106919744D01*
X107484774Y-107108102D01*
X107445000Y-107308061D01*
X107445000Y-107511939D01*
X107484774Y-107711898D01*
X107562795Y-107900256D01*
X107676063Y-108069774D01*
X107720000Y-108113711D01*
X107720001Y-113354475D01*
X107710986Y-113359294D01*
X107484866Y-113544866D01*
X107460393Y-113574687D01*
X107439502Y-113505820D01*
X107380537Y-113395506D01*
X107301185Y-113298815D01*
X107204494Y-113219463D01*
X107094180Y-113160498D01*
X106974482Y-113124188D01*
X106850000Y-113111928D01*
X106285750Y-113115000D01*
X106127000Y-113273750D01*
X106127000Y-114473000D01*
X106147000Y-114473000D01*
X106147000Y-114727000D01*
X106127000Y-114727000D01*
X106127000Y-114747000D01*
X105873000Y-114747000D01*
X105873000Y-114727000D01*
X104673750Y-114727000D01*
X104515000Y-114885750D01*
X104511928Y-115450000D01*
X104524188Y-115574482D01*
X104560498Y-115694180D01*
X104619463Y-115804494D01*
X104698815Y-115901185D01*
X104795506Y-115980537D01*
X104905820Y-116039502D01*
X104974687Y-116060393D01*
X104944866Y-116084866D01*
X104759294Y-116310986D01*
X104621401Y-116568966D01*
X104536487Y-116848889D01*
X104507815Y-117140000D01*
X100770000Y-117140000D01*
X100770000Y-113750000D01*
X104511928Y-113750000D01*
X104515000Y-114314250D01*
X104673750Y-114473000D01*
X105873000Y-114473000D01*
X105873000Y-113273750D01*
X105714250Y-113115000D01*
X105150000Y-113111928D01*
X105025518Y-113124188D01*
X104905820Y-113160498D01*
X104795506Y-113219463D01*
X104698815Y-113298815D01*
X104619463Y-113395506D01*
X104560498Y-113505820D01*
X104524188Y-113625518D01*
X104511928Y-113750000D01*
X100770000Y-113750000D01*
X100770000Y-101898061D01*
X102165000Y-101898061D01*
X102165000Y-102101939D01*
X102204774Y-102301898D01*
X102282795Y-102490256D01*
X102396063Y-102659774D01*
X102540226Y-102803937D01*
X102709744Y-102917205D01*
X102898102Y-102995226D01*
X103098061Y-103035000D01*
X103301939Y-103035000D01*
X103501898Y-102995226D01*
X103690256Y-102917205D01*
X103700000Y-102910694D01*
X103709744Y-102917205D01*
X103898102Y-102995226D01*
X104098061Y-103035000D01*
X104301939Y-103035000D01*
X104501898Y-102995226D01*
X104690256Y-102917205D01*
X104700000Y-102910694D01*
X104709744Y-102917205D01*
X104898102Y-102995226D01*
X105098061Y-103035000D01*
X105301939Y-103035000D01*
X105501898Y-102995226D01*
X105690256Y-102917205D01*
X105700000Y-102910694D01*
X105709744Y-102917205D01*
X105898102Y-102995226D01*
X106098061Y-103035000D01*
X106301939Y-103035000D01*
X106501898Y-102995226D01*
X106690256Y-102917205D01*
X106859774Y-102803937D01*
X107003937Y-102659774D01*
X107117205Y-102490256D01*
X107195226Y-102301898D01*
X107235000Y-102101939D01*
X107235000Y-101898061D01*
X107195226Y-101698102D01*
X107117205Y-101509744D01*
X107003937Y-101340226D01*
X106960000Y-101296289D01*
X106960000Y-101238072D01*
X107550000Y-101238072D01*
X107674482Y-101225812D01*
X107700000Y-101218071D01*
X107725518Y-101225812D01*
X107850000Y-101238072D01*
X107914250Y-101235000D01*
X108073000Y-101076250D01*
X108073000Y-100963678D01*
X108080537Y-100954494D01*
X108139502Y-100844180D01*
X108175812Y-100724482D01*
X108188072Y-100600000D01*
X108188072Y-96600000D01*
X108175812Y-96475518D01*
X108139502Y-96355820D01*
X108080537Y-96245506D01*
X108073000Y-96236322D01*
X108073000Y-96123750D01*
X107960000Y-96010750D01*
X107960000Y-75683711D01*
X108003937Y-75639774D01*
X108117205Y-75470256D01*
X108195226Y-75281898D01*
X108235000Y-75081939D01*
X108235000Y-74878061D01*
X108195226Y-74678102D01*
X108117205Y-74489744D01*
X108003937Y-74320226D01*
X107859774Y-74176063D01*
X107690256Y-74062795D01*
X107501898Y-73984774D01*
X107301939Y-73945000D01*
X107098061Y-73945000D01*
X106898102Y-73984774D01*
X106709744Y-74062795D01*
X106540226Y-74176063D01*
X106396063Y-74320226D01*
X106282795Y-74489744D01*
X106204774Y-74678102D01*
X106165000Y-74878061D01*
X106165000Y-75081939D01*
X106204774Y-75281898D01*
X106282795Y-75470256D01*
X106396063Y-75639774D01*
X106440001Y-75683712D01*
X106440000Y-95961928D01*
X105850000Y-95961928D01*
X105725518Y-95974188D01*
X105700000Y-95981929D01*
X105674482Y-95974188D01*
X105550000Y-95961928D01*
X104850000Y-95961928D01*
X104725518Y-95974188D01*
X104700000Y-95981929D01*
X104674482Y-95974188D01*
X104550000Y-95961928D01*
X103850000Y-95961928D01*
X103725518Y-95974188D01*
X103700000Y-95981929D01*
X103674482Y-95974188D01*
X103550000Y-95961928D01*
X102850000Y-95961928D01*
X102725518Y-95974188D01*
X102700000Y-95981929D01*
X102674482Y-95974188D01*
X102550000Y-95961928D01*
X102485750Y-95965000D01*
X102327000Y-96123750D01*
X102327000Y-96236322D01*
X102319463Y-96245506D01*
X102260498Y-96355820D01*
X102224188Y-96475518D01*
X102211928Y-96600000D01*
X102211928Y-100600000D01*
X102224188Y-100724482D01*
X102260498Y-100844180D01*
X102319463Y-100954494D01*
X102327000Y-100963678D01*
X102327000Y-101076250D01*
X102440001Y-101189251D01*
X102440001Y-101296288D01*
X102396063Y-101340226D01*
X102282795Y-101509744D01*
X102204774Y-101698102D01*
X102165000Y-101898061D01*
X100770000Y-101898061D01*
X100770000Y-100600000D01*
X101211928Y-100600000D01*
X101224188Y-100724482D01*
X101260498Y-100844180D01*
X101319463Y-100954494D01*
X101398815Y-101051185D01*
X101495506Y-101130537D01*
X101605820Y-101189502D01*
X101725518Y-101225812D01*
X101850000Y-101238072D01*
X101914250Y-101235000D01*
X102073000Y-101076250D01*
X102073000Y-98727000D01*
X101373750Y-98727000D01*
X101215000Y-98885750D01*
X101211928Y-100600000D01*
X100770000Y-100600000D01*
X100770000Y-96600000D01*
X101211928Y-96600000D01*
X101215000Y-98314250D01*
X101373750Y-98473000D01*
X102073000Y-98473000D01*
X102073000Y-96123750D01*
X101914250Y-95965000D01*
X101850000Y-95961928D01*
X101725518Y-95974188D01*
X101605820Y-96010498D01*
X101495506Y-96069463D01*
X101398815Y-96148815D01*
X101319463Y-96245506D01*
X101260498Y-96355820D01*
X101224188Y-96475518D01*
X101211928Y-96600000D01*
X100770000Y-96600000D01*
X100770000Y-35980928D01*
X101398677Y-35980928D01*
X101704859Y-36424503D01*
X102292306Y-36739954D01*
X102930008Y-36934740D01*
X103593457Y-37001372D01*
X104257158Y-36937292D01*
X104895605Y-36744962D01*
X105484262Y-36431772D01*
X105495141Y-36424503D01*
X105801323Y-35980928D01*
X143798677Y-35980928D01*
X144104859Y-36424503D01*
X144692306Y-36739954D01*
X145330008Y-36934740D01*
X145993457Y-37001372D01*
X146657158Y-36937292D01*
X147295605Y-36744962D01*
X147884262Y-36431772D01*
X147895141Y-36424503D01*
X148201323Y-35980928D01*
X146000000Y-33779605D01*
X143798677Y-35980928D01*
X105801323Y-35980928D01*
X103600000Y-33779605D01*
X101398677Y-35980928D01*
X100770000Y-35980928D01*
X100770000Y-35486914D01*
X100775497Y-35495141D01*
X101219072Y-35801323D01*
X103420395Y-33600000D01*
X103779605Y-33600000D01*
X105980928Y-35801323D01*
X106424503Y-35495141D01*
X106739954Y-34907694D01*
X106934740Y-34269992D01*
X107001372Y-33606543D01*
X107000109Y-33593457D01*
X142598628Y-33593457D01*
X142662708Y-34257158D01*
X142855038Y-34895605D01*
X143168228Y-35484262D01*
X143175497Y-35495141D01*
X143619072Y-35801323D01*
X145820395Y-33600000D01*
X143619072Y-31398677D01*
X143175497Y-31704859D01*
X142860046Y-32292306D01*
X142665260Y-32930008D01*
X142598628Y-33593457D01*
X107000109Y-33593457D01*
X106937292Y-32942842D01*
X106744962Y-32304395D01*
X106431772Y-31715738D01*
X106424503Y-31704859D01*
X105980928Y-31398677D01*
X103779605Y-33600000D01*
X103420395Y-33600000D01*
X101219072Y-31398677D01*
X100775497Y-31704859D01*
X100770000Y-31715096D01*
X100770000Y-30810000D01*
X101681043Y-30810000D01*
X101398677Y-31219072D01*
M02*
