M48
; DRILL file {KiCad (5.1.4)-1} date 2019/11/26 18:47:05
; FORMAT={-:-/ absolute / metric / decimal}
; #@! TF.CreationDate,2019-11-26T18:47:05+08:00
; #@! TF.GenerationSoftware,Kicad,Pcbnew,(5.1.4)-1
; #@! TF.FileFunction,Plated,1,2,PTH
FMAT,2
METRIC
T1C0.400
T2C1.000
T3C3.200
%
G90
G05
T1
X102.67Y-83.66
X103.2Y-102.0
X104.2Y-102.0
X104.34Y-67.89
X105.2Y-102.0
X106.2Y-102.0
X107.2Y-74.98
X108.48Y-107.41
X109.75Y-85.31
X110.19Y-95.53
X112.21Y-88.04
X112.78Y-70.32
X114.13Y-95.46
X114.71Y-104.76
X128.41Y-89.31
X131.88Y-92.51
X132.73Y-88.53
X135.95Y-92.25
X136.92Y-89.31
X137.01Y-102.68
X140.94Y-88.73
X144.82Y-88.25
X146.94Y-91.0
T2
X106.0Y-114.6
X106.0Y-117.14
X108.54Y-114.6
X108.54Y-117.14
X111.08Y-114.6
X111.08Y-117.14
X113.62Y-114.6
X113.62Y-117.14
X116.16Y-114.6
X116.16Y-117.14
X118.7Y-114.6
X118.7Y-117.14
X121.24Y-114.6
X121.24Y-117.14
X123.78Y-114.6
X123.78Y-117.14
X126.32Y-114.6
X126.32Y-117.14
X128.86Y-114.6
X128.86Y-117.14
X131.4Y-114.6
X131.4Y-117.14
X133.94Y-114.6
X133.94Y-117.14
X136.48Y-114.6
X136.48Y-117.14
X139.02Y-114.6
X139.02Y-117.14
X141.56Y-114.6
X141.56Y-117.14
X144.1Y-114.6
X144.1Y-117.14
T3
X103.6Y-33.6
X146.0Y-33.6
T0
M30
