G04 #@! TF.GenerationSoftware,KiCad,Pcbnew,(5.1.4)-1*
G04 #@! TF.CreationDate,2019-12-28T21:28:00+08:00*
G04 #@! TF.ProjectId,F1C100s-i80,46314331-3030-4732-9d69-38302e6b6963,rev?*
G04 #@! TF.SameCoordinates,Original*
G04 #@! TF.FileFunction,Legend,Top*
G04 #@! TF.FilePolarity,Positive*
%FSLAX46Y46*%
G04 Gerber Fmt 4.6, Leading zero omitted, Abs format (unit mm)*
G04 Created by KiCad (PCBNEW (5.1.4)-1) date 2019-12-28 21:28:00*
%MOMM*%
%LPD*%
G04 APERTURE LIST*
%ADD10C,0.375000*%
%ADD11C,0.400000*%
%ADD12C,0.150000*%
%ADD13C,0.120000*%
%ADD14C,0.200000*%
G04 APERTURE END LIST*
D10*
X78442857Y-51540290D02*
X78300000Y-51451004D01*
X78157142Y-51290290D01*
X78157142Y-50933147D01*
X78300000Y-50808147D01*
X78442857Y-50754575D01*
X78728571Y-50718861D01*
X79014285Y-50754575D01*
X79442857Y-50879575D01*
X81157142Y-51951004D01*
X81157142Y-51022433D01*
X78157142Y-49718861D02*
X78157142Y-49576004D01*
X78300000Y-49451004D01*
X78442857Y-49397433D01*
X78728571Y-49361718D01*
X79300000Y-49361718D01*
X80014285Y-49451004D01*
X80585714Y-49593861D01*
X80871428Y-49701004D01*
X81014285Y-49790290D01*
X81157142Y-49951004D01*
X81157142Y-50093861D01*
X81014285Y-50218861D01*
X80871428Y-50272433D01*
X80585714Y-50308147D01*
X80014285Y-50308147D01*
X79300000Y-50218861D01*
X78728571Y-50076004D01*
X78442857Y-49968861D01*
X78300000Y-49879575D01*
X78157142Y-49718861D01*
X81157142Y-48165290D02*
X81157142Y-49022433D01*
X81157142Y-48593861D02*
X78157142Y-48218861D01*
X78585714Y-48415290D01*
X78871428Y-48593861D01*
X79014285Y-48754575D01*
X81157142Y-47451004D02*
X81157142Y-47165290D01*
X81014285Y-47004575D01*
X80871428Y-46915290D01*
X80442857Y-46718861D01*
X79871428Y-46576004D01*
X78728571Y-46433147D01*
X78442857Y-46468861D01*
X78300000Y-46522433D01*
X78157142Y-46647433D01*
X78157142Y-46933147D01*
X78300000Y-47093861D01*
X78442857Y-47183147D01*
X78728571Y-47290290D01*
X79442857Y-47379575D01*
X79728571Y-47343861D01*
X79871428Y-47290290D01*
X80014285Y-47165290D01*
X80014285Y-46879575D01*
X79871428Y-46718861D01*
X79728571Y-46629575D01*
X79442857Y-46522433D01*
X80014285Y-45951004D02*
X80014285Y-44808147D01*
X81157142Y-43451004D02*
X81157142Y-44308147D01*
X81157142Y-43879575D02*
X78157142Y-43504575D01*
X78585714Y-43701004D01*
X78871428Y-43879575D01*
X79014285Y-44040290D01*
X78442857Y-42540290D02*
X78300000Y-42451004D01*
X78157142Y-42290290D01*
X78157142Y-41933147D01*
X78300000Y-41808147D01*
X78442857Y-41754575D01*
X78728571Y-41718861D01*
X79014285Y-41754575D01*
X79442857Y-41879575D01*
X81157142Y-42951004D01*
X81157142Y-42022433D01*
X80014285Y-41236718D02*
X80014285Y-40093861D01*
X78442857Y-39254575D02*
X78300000Y-39165290D01*
X78157142Y-39004575D01*
X78157142Y-38647433D01*
X78300000Y-38522433D01*
X78442857Y-38468861D01*
X78728571Y-38433147D01*
X79014285Y-38468861D01*
X79442857Y-38593861D01*
X81157142Y-39665290D01*
X81157142Y-38736718D01*
X79442857Y-37665290D02*
X79300000Y-37790290D01*
X79157142Y-37843861D01*
X78871428Y-37879575D01*
X78728571Y-37861718D01*
X78442857Y-37754575D01*
X78300000Y-37665290D01*
X78157142Y-37504575D01*
X78157142Y-37218861D01*
X78300000Y-37093861D01*
X78442857Y-37040290D01*
X78728571Y-37004575D01*
X78871428Y-37022433D01*
X79157142Y-37129575D01*
X79300000Y-37218861D01*
X79442857Y-37379575D01*
X79442857Y-37665290D01*
X79585714Y-37826004D01*
X79728571Y-37915290D01*
X80014285Y-38022433D01*
X80585714Y-38093861D01*
X80871428Y-38058147D01*
X81014285Y-38004575D01*
X81157142Y-37879575D01*
X81157142Y-37593861D01*
X81014285Y-37433147D01*
X80871428Y-37343861D01*
X80585714Y-37236718D01*
X80014285Y-37165290D01*
X79728571Y-37201004D01*
X79585714Y-37254575D01*
X79442857Y-37379575D01*
D11*
X45671428Y-85645892D02*
X45814285Y-85568511D01*
X45957142Y-85681607D01*
X45814285Y-85758988D01*
X45671428Y-85645892D01*
X45957142Y-85681607D01*
X42957142Y-84639940D02*
X42957142Y-83497083D01*
X45957142Y-84443511D02*
X42957142Y-84068511D01*
X45671428Y-83169702D02*
X45814285Y-83092321D01*
X45957142Y-83205416D01*
X45814285Y-83282797D01*
X45671428Y-83169702D01*
X45957142Y-83205416D01*
X45957142Y-81110178D02*
X44528571Y-81598273D01*
X45957142Y-82253035D02*
X42957142Y-81878035D01*
X42957142Y-81116130D01*
X43100000Y-80943511D01*
X43242857Y-80866130D01*
X43528571Y-80806607D01*
X43957142Y-80860178D01*
X44242857Y-80991130D01*
X44385714Y-81104226D01*
X44528571Y-81312559D01*
X44528571Y-82074464D01*
X45671428Y-80217321D02*
X45814285Y-80139940D01*
X45957142Y-80253035D01*
X45814285Y-80330416D01*
X45671428Y-80217321D01*
X45957142Y-80253035D01*
X44385714Y-79104226D02*
X44385714Y-78437559D01*
X45957142Y-78348273D02*
X45957142Y-79300654D01*
X42957142Y-78925654D01*
X42957142Y-77973273D01*
X45671428Y-77455416D02*
X45814285Y-77378035D01*
X45957142Y-77491130D01*
X45814285Y-77568511D01*
X45671428Y-77455416D01*
X45957142Y-77491130D01*
X45814285Y-76616130D02*
X45957142Y-76348273D01*
X45957142Y-75872083D01*
X45814285Y-75663750D01*
X45671428Y-75550654D01*
X45385714Y-75419702D01*
X45100000Y-75383988D01*
X44814285Y-75443511D01*
X44671428Y-75520892D01*
X44528571Y-75693511D01*
X44385714Y-76056607D01*
X44242857Y-76229226D01*
X44100000Y-76306607D01*
X43814285Y-76366130D01*
X43528571Y-76330416D01*
X43242857Y-76199464D01*
X43100000Y-76086369D01*
X42957142Y-75878035D01*
X42957142Y-75401845D01*
X43100000Y-75133988D01*
X45671428Y-74598273D02*
X45814285Y-74520892D01*
X45957142Y-74633988D01*
X45814285Y-74711369D01*
X45671428Y-74598273D01*
X45957142Y-74633988D01*
X45814285Y-73758988D02*
X45957142Y-73491130D01*
X45957142Y-73014940D01*
X45814285Y-72806607D01*
X45671428Y-72693511D01*
X45385714Y-72562559D01*
X45100000Y-72526845D01*
X44814285Y-72586369D01*
X44671428Y-72663750D01*
X44528571Y-72836369D01*
X44385714Y-73199464D01*
X44242857Y-73372083D01*
X44100000Y-73449464D01*
X43814285Y-73508988D01*
X43528571Y-73473273D01*
X43242857Y-73342321D01*
X43100000Y-73229226D01*
X42957142Y-73020892D01*
X42957142Y-72544702D01*
X43100000Y-72276845D01*
X45671428Y-71741130D02*
X45814285Y-71663750D01*
X45957142Y-71776845D01*
X45814285Y-71854226D01*
X45671428Y-71741130D01*
X45957142Y-71776845D01*
X45100000Y-70812559D02*
X45100000Y-69860178D01*
X45957142Y-71110178D02*
X42957142Y-70068511D01*
X45957142Y-69776845D01*
X45671428Y-69074464D02*
X45814285Y-68997083D01*
X45957142Y-69110178D01*
X45814285Y-69187559D01*
X45671428Y-69074464D01*
X45957142Y-69110178D01*
D12*
X79357157Y-62300000D02*
X79267872Y-62252380D01*
X79125014Y-62252380D01*
X78976205Y-62300000D01*
X78869062Y-62395238D01*
X78809538Y-62490476D01*
X78738110Y-62680952D01*
X78720252Y-62823809D01*
X78744062Y-63014285D01*
X78779776Y-63109523D01*
X78863110Y-63204761D01*
X79000014Y-63252380D01*
X79095252Y-63252380D01*
X79244062Y-63204761D01*
X79297633Y-63157142D01*
X79339300Y-62823809D01*
X79148824Y-62823809D01*
X79714300Y-63252380D02*
X79839300Y-62252380D01*
X80285729Y-63252380D01*
X80410729Y-62252380D01*
X80761919Y-63252380D02*
X80886919Y-62252380D01*
X81125014Y-62252380D01*
X81261919Y-62300000D01*
X81345252Y-62395238D01*
X81380967Y-62490476D01*
X81404776Y-62680952D01*
X81386919Y-62823809D01*
X81315491Y-63014285D01*
X81255967Y-63109523D01*
X81148824Y-63204761D01*
X81000014Y-63252380D01*
X80761919Y-63252380D01*
X78661919Y-60371428D02*
X79423824Y-60371428D01*
X78995252Y-60752380D02*
X79090491Y-59990476D01*
X80453586Y-59752380D02*
X79977395Y-59752380D01*
X79870252Y-60228571D01*
X79923824Y-60180952D01*
X80025014Y-60133333D01*
X80263110Y-60133333D01*
X80352395Y-60180952D01*
X80394062Y-60228571D01*
X80429776Y-60323809D01*
X80400014Y-60561904D01*
X80340491Y-60657142D01*
X80286919Y-60704761D01*
X80185729Y-60752380D01*
X79947633Y-60752380D01*
X79858348Y-60704761D01*
X79816681Y-60657142D01*
X80786919Y-59752380D02*
X80995252Y-60752380D01*
X81453586Y-59752380D01*
X47601205Y-43104761D02*
X47738110Y-43152380D01*
X47976205Y-43152380D01*
X48077395Y-43104761D01*
X48130967Y-43057142D01*
X48190491Y-42961904D01*
X48202395Y-42866666D01*
X48166681Y-42771428D01*
X48125014Y-42723809D01*
X48035729Y-42676190D01*
X47851205Y-42628571D01*
X47761919Y-42580952D01*
X47720252Y-42533333D01*
X47684538Y-42438095D01*
X47696443Y-42342857D01*
X47755967Y-42247619D01*
X47809538Y-42200000D01*
X47910729Y-42152380D01*
X48148824Y-42152380D01*
X48285729Y-42200000D01*
X48595252Y-43152380D02*
X48720252Y-42152380D01*
X49101205Y-42152380D01*
X49190491Y-42200000D01*
X49232157Y-42247619D01*
X49267872Y-42342857D01*
X49250014Y-42485714D01*
X49190491Y-42580952D01*
X49136919Y-42628571D01*
X49035729Y-42676190D01*
X48654776Y-42676190D01*
X49595252Y-43152380D02*
X49720252Y-42152380D01*
X50166681Y-43152380D02*
X49809538Y-42580952D01*
X50291681Y-42152380D02*
X49648824Y-42723809D01*
X50642872Y-42771428D02*
X51404776Y-42771428D01*
X47601205Y-40704761D02*
X47738110Y-40752380D01*
X47976205Y-40752380D01*
X48077395Y-40704761D01*
X48130967Y-40657142D01*
X48190491Y-40561904D01*
X48202395Y-40466666D01*
X48166681Y-40371428D01*
X48125014Y-40323809D01*
X48035729Y-40276190D01*
X47851205Y-40228571D01*
X47761919Y-40180952D01*
X47720252Y-40133333D01*
X47684538Y-40038095D01*
X47696443Y-39942857D01*
X47755967Y-39847619D01*
X47809538Y-39800000D01*
X47910729Y-39752380D01*
X48148824Y-39752380D01*
X48285729Y-39800000D01*
X48595252Y-40752380D02*
X48720252Y-39752380D01*
X49101205Y-39752380D01*
X49190491Y-39800000D01*
X49232157Y-39847619D01*
X49267872Y-39942857D01*
X49250014Y-40085714D01*
X49190491Y-40180952D01*
X49136919Y-40228571D01*
X49035729Y-40276190D01*
X48654776Y-40276190D01*
X49595252Y-40752380D02*
X49720252Y-39752380D01*
X50166681Y-40752380D02*
X49809538Y-40180952D01*
X50291681Y-39752380D02*
X49648824Y-40323809D01*
X50642872Y-40371428D02*
X51404776Y-40371428D01*
X50976205Y-40752380D02*
X51071443Y-39990476D01*
X48157157Y-31300000D02*
X48067872Y-31252380D01*
X47925014Y-31252380D01*
X47776205Y-31300000D01*
X47669062Y-31395238D01*
X47609538Y-31490476D01*
X47538110Y-31680952D01*
X47520252Y-31823809D01*
X47544062Y-32014285D01*
X47579776Y-32109523D01*
X47663110Y-32204761D01*
X47800014Y-32252380D01*
X47895252Y-32252380D01*
X48044062Y-32204761D01*
X48097633Y-32157142D01*
X48139300Y-31823809D01*
X47948824Y-31823809D01*
X48514300Y-32252380D02*
X48639300Y-31252380D01*
X49085729Y-32252380D01*
X49210729Y-31252380D01*
X49561919Y-32252380D02*
X49686919Y-31252380D01*
X49925014Y-31252380D01*
X50061919Y-31300000D01*
X50145252Y-31395238D01*
X50180967Y-31490476D01*
X50204776Y-31680952D01*
X50186919Y-31823809D01*
X50115491Y-32014285D01*
X50055967Y-32109523D01*
X49948824Y-32204761D01*
X49800014Y-32252380D01*
X49561919Y-32252380D01*
X48080967Y-34752380D02*
X47604776Y-34752380D01*
X47729776Y-33752380D01*
X48985729Y-34752380D02*
X48711919Y-34276190D01*
X48414300Y-34752380D02*
X48539300Y-33752380D01*
X48920252Y-33752380D01*
X49009538Y-33800000D01*
X49051205Y-33847619D01*
X49086919Y-33942857D01*
X49069062Y-34085714D01*
X49009538Y-34180952D01*
X48955967Y-34228571D01*
X48854776Y-34276190D01*
X48473824Y-34276190D01*
X49402395Y-34466666D02*
X49878586Y-34466666D01*
X49271443Y-34752380D02*
X49729776Y-33752380D01*
X49938110Y-34752380D01*
X50271443Y-34752380D02*
X50396443Y-33752380D01*
X50634538Y-33752380D01*
X50771443Y-33800000D01*
X50854776Y-33895238D01*
X50890491Y-33990476D01*
X50914300Y-34180952D01*
X50896443Y-34323809D01*
X50825014Y-34514285D01*
X50765491Y-34609523D01*
X50658348Y-34704761D01*
X50509538Y-34752380D01*
X50271443Y-34752380D01*
X51854776Y-34657142D02*
X51801205Y-34704761D01*
X51652395Y-34752380D01*
X51557157Y-34752380D01*
X51420252Y-34704761D01*
X51336919Y-34609523D01*
X51301205Y-34514285D01*
X51277395Y-34323809D01*
X51295252Y-34180952D01*
X51366681Y-33990476D01*
X51426205Y-33895238D01*
X51533348Y-33800000D01*
X51682157Y-33752380D01*
X51777395Y-33752380D01*
X51914300Y-33800000D01*
X51955967Y-33847619D01*
D13*
X83380000Y-67100000D02*
X84650000Y-67100000D01*
X83380000Y-68370000D02*
X83380000Y-67100000D01*
X85692929Y-86530000D02*
X86090000Y-86530000D01*
X85692929Y-85770000D02*
X86090000Y-85770000D01*
X94750000Y-86530000D02*
X88750000Y-86530000D01*
X94750000Y-85770000D02*
X94750000Y-86530000D01*
X88750000Y-85770000D02*
X94750000Y-85770000D01*
X86090000Y-84880000D02*
X88750000Y-84880000D01*
X85692929Y-83990000D02*
X86090000Y-83990000D01*
X85692929Y-83230000D02*
X86090000Y-83230000D01*
X94750000Y-83990000D02*
X88750000Y-83990000D01*
X94750000Y-83230000D02*
X94750000Y-83990000D01*
X88750000Y-83230000D02*
X94750000Y-83230000D01*
X86090000Y-82340000D02*
X88750000Y-82340000D01*
X85692929Y-81450000D02*
X86090000Y-81450000D01*
X85692929Y-80690000D02*
X86090000Y-80690000D01*
X94750000Y-81450000D02*
X88750000Y-81450000D01*
X94750000Y-80690000D02*
X94750000Y-81450000D01*
X88750000Y-80690000D02*
X94750000Y-80690000D01*
X86090000Y-79800000D02*
X88750000Y-79800000D01*
X85692929Y-78910000D02*
X86090000Y-78910000D01*
X85692929Y-78150000D02*
X86090000Y-78150000D01*
X94750000Y-78910000D02*
X88750000Y-78910000D01*
X94750000Y-78150000D02*
X94750000Y-78910000D01*
X88750000Y-78150000D02*
X94750000Y-78150000D01*
X86090000Y-77260000D02*
X88750000Y-77260000D01*
X85692929Y-76370000D02*
X86090000Y-76370000D01*
X85692929Y-75610000D02*
X86090000Y-75610000D01*
X94750000Y-76370000D02*
X88750000Y-76370000D01*
X94750000Y-75610000D02*
X94750000Y-76370000D01*
X88750000Y-75610000D02*
X94750000Y-75610000D01*
X86090000Y-74720000D02*
X88750000Y-74720000D01*
X85692929Y-73830000D02*
X86090000Y-73830000D01*
X85692929Y-73070000D02*
X86090000Y-73070000D01*
X94750000Y-73830000D02*
X88750000Y-73830000D01*
X94750000Y-73070000D02*
X94750000Y-73830000D01*
X88750000Y-73070000D02*
X94750000Y-73070000D01*
X86090000Y-72180000D02*
X88750000Y-72180000D01*
X85692929Y-71290000D02*
X86090000Y-71290000D01*
X85692929Y-70530000D02*
X86090000Y-70530000D01*
X94750000Y-71290000D02*
X88750000Y-71290000D01*
X94750000Y-70530000D02*
X94750000Y-71290000D01*
X88750000Y-70530000D02*
X94750000Y-70530000D01*
X86090000Y-69640000D02*
X88750000Y-69640000D01*
X85760000Y-68750000D02*
X86090000Y-68750000D01*
X85760000Y-67990000D02*
X86090000Y-67990000D01*
X88750000Y-68650000D02*
X94750000Y-68650000D01*
X88750000Y-68530000D02*
X94750000Y-68530000D01*
X88750000Y-68410000D02*
X94750000Y-68410000D01*
X88750000Y-68290000D02*
X94750000Y-68290000D01*
X88750000Y-68170000D02*
X94750000Y-68170000D01*
X88750000Y-68050000D02*
X94750000Y-68050000D01*
X94750000Y-68750000D02*
X88750000Y-68750000D01*
X94750000Y-67990000D02*
X94750000Y-68750000D01*
X88750000Y-67990000D02*
X94750000Y-67990000D01*
X88750000Y-67040000D02*
X86090000Y-67040000D01*
X88750000Y-87480000D02*
X88750000Y-67040000D01*
X86090000Y-87480000D02*
X88750000Y-87480000D01*
X86090000Y-67040000D02*
X86090000Y-87480000D01*
X52350000Y-39400000D02*
X58050000Y-39400000D01*
X57950000Y-37100000D02*
X57950000Y-37200000D01*
X57950000Y-32400000D02*
X57950000Y-37100000D01*
X57950000Y-20200000D02*
X57950000Y-30200000D01*
X58650000Y-19500000D02*
X57950000Y-20200000D01*
X51650000Y-19500000D02*
X58650000Y-19500000D01*
X52350000Y-20200000D02*
X51650000Y-19500000D01*
X52350000Y-20400000D02*
X52350000Y-20200000D01*
X52350000Y-30200000D02*
X52350000Y-20400000D01*
X52350000Y-32400000D02*
X52350000Y-32500000D01*
X52350000Y-37200000D02*
X52350000Y-32400000D01*
X61430000Y-51688733D02*
X61430000Y-52031267D01*
X62450000Y-51688733D02*
X62450000Y-52031267D01*
X63980000Y-52031267D02*
X63980000Y-51688733D01*
X62960000Y-52031267D02*
X62960000Y-51688733D01*
X69611267Y-58740000D02*
X69268733Y-58740000D01*
X69611267Y-59760000D02*
X69268733Y-59760000D01*
X69243733Y-67360000D02*
X69586267Y-67360000D01*
X69243733Y-66340000D02*
X69586267Y-66340000D01*
X48913733Y-54815000D02*
X49256267Y-54815000D01*
X48913733Y-55835000D02*
X49256267Y-55835000D01*
X48913733Y-57410000D02*
X49256267Y-57410000D01*
X48913733Y-56390000D02*
X49256267Y-56390000D01*
X65460000Y-82928733D02*
X65460000Y-83271267D01*
X64440000Y-82928733D02*
X64440000Y-83271267D01*
X61930000Y-82918733D02*
X61930000Y-83261267D01*
X62950000Y-82918733D02*
X62950000Y-83261267D01*
X43595000Y-49746267D02*
X43595000Y-49403733D01*
X42575000Y-49746267D02*
X42575000Y-49403733D01*
X57221267Y-77130000D02*
X56878733Y-77130000D01*
X57221267Y-76110000D02*
X56878733Y-76110000D01*
X52385000Y-49878733D02*
X52385000Y-50221267D01*
X51365000Y-49878733D02*
X51365000Y-50221267D01*
X52915000Y-49878733D02*
X52915000Y-50221267D01*
X53935000Y-49878733D02*
X53935000Y-50221267D01*
X45881267Y-52710000D02*
X45538733Y-52710000D01*
X45881267Y-51690000D02*
X45538733Y-51690000D01*
X56060000Y-50231267D02*
X56060000Y-49888733D01*
X57080000Y-50231267D02*
X57080000Y-49888733D01*
X54440000Y-50221267D02*
X54440000Y-49878733D01*
X55460000Y-50221267D02*
X55460000Y-49878733D01*
X45886267Y-60510000D02*
X45543733Y-60510000D01*
X45886267Y-59490000D02*
X45543733Y-59490000D01*
X55630000Y-73273733D02*
X55630000Y-73616267D01*
X54610000Y-73273733D02*
X54610000Y-73616267D01*
X77353733Y-69860000D02*
X77696267Y-69860000D01*
X77353733Y-68840000D02*
X77696267Y-68840000D01*
X77728733Y-91260000D02*
X78071267Y-91260000D01*
X77728733Y-90240000D02*
X78071267Y-90240000D01*
X67810000Y-79478733D02*
X67810000Y-79821267D01*
X66790000Y-79478733D02*
X66790000Y-79821267D01*
X55236267Y-81090000D02*
X54893733Y-81090000D01*
X55236267Y-82110000D02*
X54893733Y-82110000D01*
X53650000Y-78958733D02*
X53650000Y-79301267D01*
X54670000Y-78958733D02*
X54670000Y-79301267D01*
X77353733Y-70440000D02*
X77696267Y-70440000D01*
X77353733Y-71460000D02*
X77696267Y-71460000D01*
X77728733Y-88640000D02*
X78071267Y-88640000D01*
X77728733Y-89660000D02*
X78071267Y-89660000D01*
X69410000Y-79478733D02*
X69410000Y-79821267D01*
X68390000Y-79478733D02*
X68390000Y-79821267D01*
X56780000Y-78953733D02*
X56780000Y-79296267D01*
X57800000Y-78953733D02*
X57800000Y-79296267D01*
X58340000Y-79296267D02*
X58340000Y-78953733D01*
X59360000Y-79296267D02*
X59360000Y-78953733D01*
X59910000Y-52031267D02*
X59910000Y-51688733D01*
X60930000Y-52031267D02*
X60930000Y-51688733D01*
X66150000Y-52051267D02*
X66150000Y-51708733D01*
X65130000Y-52051267D02*
X65130000Y-51708733D01*
X61340000Y-82520000D02*
X59340000Y-82520000D01*
X59340000Y-82520000D02*
X59340000Y-86420000D01*
X61340000Y-82520000D02*
X61340000Y-86420000D01*
X58950000Y-82510000D02*
X58950000Y-86410000D01*
X56950000Y-82510000D02*
X56950000Y-86410000D01*
X58950000Y-82510000D02*
X56950000Y-82510000D01*
X44390000Y-97850000D02*
X44390000Y-95250000D01*
X44390000Y-97850000D02*
X85150000Y-97850000D01*
X85150000Y-97850000D02*
X85150000Y-92650000D01*
X46990000Y-92650000D02*
X85150000Y-92650000D01*
X46990000Y-95250000D02*
X46990000Y-92650000D01*
X44390000Y-95250000D02*
X46990000Y-95250000D01*
X44390000Y-92650000D02*
X45720000Y-92650000D01*
X44390000Y-93980000D02*
X44390000Y-92650000D01*
X41040000Y-45370000D02*
X47010000Y-45370000D01*
X47010000Y-45370000D02*
X47010000Y-37750000D01*
X47010000Y-37750000D02*
X41040000Y-37750000D01*
X41040000Y-37750000D02*
X41040000Y-45370000D01*
X41050000Y-42060000D02*
X41800000Y-42060000D01*
X41800000Y-42060000D02*
X41800000Y-41060000D01*
X41800000Y-41060000D02*
X41050000Y-41060000D01*
X41050000Y-41060000D02*
X41050000Y-42060000D01*
X41050000Y-45360000D02*
X41800000Y-45360000D01*
X41800000Y-45360000D02*
X41800000Y-43560000D01*
X41800000Y-43560000D02*
X41050000Y-43560000D01*
X41050000Y-43560000D02*
X41050000Y-45360000D01*
X41050000Y-39560000D02*
X41800000Y-39560000D01*
X41800000Y-39560000D02*
X41800000Y-37760000D01*
X41800000Y-37760000D02*
X41050000Y-37760000D01*
X41050000Y-37760000D02*
X41050000Y-39560000D01*
X43300000Y-45360000D02*
X43300000Y-44610000D01*
X43300000Y-44610000D02*
X46250000Y-44610000D01*
X46250000Y-44610000D02*
X46250000Y-41560000D01*
X43300000Y-37760000D02*
X43300000Y-38510000D01*
X43300000Y-38510000D02*
X46250000Y-38510000D01*
X46250000Y-38510000D02*
X46250000Y-41560000D01*
X40750000Y-44410000D02*
X40750000Y-45660000D01*
X40750000Y-45660000D02*
X42000000Y-45660000D01*
X41040000Y-36890000D02*
X47010000Y-36890000D01*
X47010000Y-36890000D02*
X47010000Y-29270000D01*
X47010000Y-29270000D02*
X41040000Y-29270000D01*
X41040000Y-29270000D02*
X41040000Y-36890000D01*
X41050000Y-33580000D02*
X41800000Y-33580000D01*
X41800000Y-33580000D02*
X41800000Y-32580000D01*
X41800000Y-32580000D02*
X41050000Y-32580000D01*
X41050000Y-32580000D02*
X41050000Y-33580000D01*
X41050000Y-36880000D02*
X41800000Y-36880000D01*
X41800000Y-36880000D02*
X41800000Y-35080000D01*
X41800000Y-35080000D02*
X41050000Y-35080000D01*
X41050000Y-35080000D02*
X41050000Y-36880000D01*
X41050000Y-31080000D02*
X41800000Y-31080000D01*
X41800000Y-31080000D02*
X41800000Y-29280000D01*
X41800000Y-29280000D02*
X41050000Y-29280000D01*
X41050000Y-29280000D02*
X41050000Y-31080000D01*
X43300000Y-36880000D02*
X43300000Y-36130000D01*
X43300000Y-36130000D02*
X46250000Y-36130000D01*
X46250000Y-36130000D02*
X46250000Y-33080000D01*
X43300000Y-29280000D02*
X43300000Y-30030000D01*
X43300000Y-30030000D02*
X46250000Y-30030000D01*
X46250000Y-30030000D02*
X46250000Y-33080000D01*
X40750000Y-35930000D02*
X40750000Y-37180000D01*
X40750000Y-37180000D02*
X42000000Y-37180000D01*
X85790000Y-48670000D02*
X85790000Y-56410000D01*
X85790000Y-56410000D02*
X88450000Y-56410000D01*
X88450000Y-56410000D02*
X88450000Y-48670000D01*
X88450000Y-48670000D02*
X85790000Y-48670000D01*
X88450000Y-49620000D02*
X94450000Y-49620000D01*
X94450000Y-49620000D02*
X94450000Y-50380000D01*
X94450000Y-50380000D02*
X88450000Y-50380000D01*
X88450000Y-49680000D02*
X94450000Y-49680000D01*
X88450000Y-49800000D02*
X94450000Y-49800000D01*
X88450000Y-49920000D02*
X94450000Y-49920000D01*
X88450000Y-50040000D02*
X94450000Y-50040000D01*
X88450000Y-50160000D02*
X94450000Y-50160000D01*
X88450000Y-50280000D02*
X94450000Y-50280000D01*
X85460000Y-49620000D02*
X85790000Y-49620000D01*
X85460000Y-50380000D02*
X85790000Y-50380000D01*
X85790000Y-51270000D02*
X88450000Y-51270000D01*
X88450000Y-52160000D02*
X94450000Y-52160000D01*
X94450000Y-52160000D02*
X94450000Y-52920000D01*
X94450000Y-52920000D02*
X88450000Y-52920000D01*
X85392929Y-52160000D02*
X85790000Y-52160000D01*
X85392929Y-52920000D02*
X85790000Y-52920000D01*
X85790000Y-53810000D02*
X88450000Y-53810000D01*
X88450000Y-54700000D02*
X94450000Y-54700000D01*
X94450000Y-54700000D02*
X94450000Y-55460000D01*
X94450000Y-55460000D02*
X88450000Y-55460000D01*
X85392929Y-54700000D02*
X85790000Y-54700000D01*
X85392929Y-55460000D02*
X85790000Y-55460000D01*
X83080000Y-50000000D02*
X83080000Y-48730000D01*
X83080000Y-48730000D02*
X84350000Y-48730000D01*
X88550000Y-57450000D02*
X87300000Y-57450000D01*
X88550000Y-58700000D02*
X88550000Y-57450000D01*
X83050000Y-64600000D02*
X83050000Y-61550000D01*
X86000000Y-64600000D02*
X83050000Y-64600000D01*
X86000000Y-65350000D02*
X86000000Y-64600000D01*
X83050000Y-58500000D02*
X83050000Y-61550000D01*
X86000000Y-58500000D02*
X83050000Y-58500000D01*
X86000000Y-57750000D02*
X86000000Y-58500000D01*
X88250000Y-65350000D02*
X88250000Y-63550000D01*
X87500000Y-65350000D02*
X88250000Y-65350000D01*
X87500000Y-63550000D02*
X87500000Y-65350000D01*
X88250000Y-63550000D02*
X87500000Y-63550000D01*
X88250000Y-59550000D02*
X88250000Y-57750000D01*
X87500000Y-59550000D02*
X88250000Y-59550000D01*
X87500000Y-57750000D02*
X87500000Y-59550000D01*
X88250000Y-57750000D02*
X87500000Y-57750000D01*
X88250000Y-62050000D02*
X88250000Y-61050000D01*
X87500000Y-62050000D02*
X88250000Y-62050000D01*
X87500000Y-61050000D02*
X87500000Y-62050000D01*
X88250000Y-61050000D02*
X87500000Y-61050000D01*
X88260000Y-65360000D02*
X88260000Y-57740000D01*
X82290000Y-65360000D02*
X88260000Y-65360000D01*
X82290000Y-57740000D02*
X82290000Y-65360000D01*
X88260000Y-57740000D02*
X82290000Y-57740000D01*
D12*
X70580000Y-27560000D02*
X69580000Y-27560000D01*
X74180000Y-27560000D02*
X75180000Y-27560000D01*
X74180000Y-27985000D02*
X74180000Y-27560000D01*
X73455000Y-27985000D02*
X74180000Y-27985000D01*
X68230000Y-24410000D02*
X68230000Y-25810000D01*
X68230000Y-21860000D02*
X68230000Y-22010000D01*
X68530000Y-21860000D02*
X68230000Y-21860000D01*
X68530000Y-21410000D02*
X68530000Y-21860000D01*
X76230000Y-21860000D02*
X76230000Y-21410000D01*
X76530000Y-21860000D02*
X76230000Y-21860000D01*
X76530000Y-22010000D02*
X76530000Y-21860000D01*
X76530000Y-25810000D02*
X76530000Y-24410000D01*
D13*
X52420000Y-46428733D02*
X52420000Y-46771267D01*
X51400000Y-46428733D02*
X51400000Y-46771267D01*
X77597936Y-76410000D02*
X78802064Y-76410000D01*
X77597936Y-73690000D02*
X78802064Y-73690000D01*
X77897936Y-83590000D02*
X79102064Y-83590000D01*
X77897936Y-86310000D02*
X79102064Y-86310000D01*
X74360000Y-79647936D02*
X74360000Y-80852064D01*
X71640000Y-79647936D02*
X71640000Y-80852064D01*
X45881267Y-55835000D02*
X45538733Y-55835000D01*
X45881267Y-54815000D02*
X45538733Y-54815000D01*
X45881267Y-56390000D02*
X45538733Y-56390000D01*
X45881267Y-57410000D02*
X45538733Y-57410000D01*
X45681267Y-46590000D02*
X45338733Y-46590000D01*
X45681267Y-47610000D02*
X45338733Y-47610000D01*
X45538733Y-53265000D02*
X45881267Y-53265000D01*
X45538733Y-54285000D02*
X45881267Y-54285000D01*
X64871267Y-72060000D02*
X64528733Y-72060000D01*
X64871267Y-71040000D02*
X64528733Y-71040000D01*
X54550000Y-46756267D02*
X54550000Y-46413733D01*
X55570000Y-46756267D02*
X55570000Y-46413733D01*
X53950000Y-46766267D02*
X53950000Y-46423733D01*
X52930000Y-46766267D02*
X52930000Y-46423733D01*
X45548733Y-58980000D02*
X45891267Y-58980000D01*
X45548733Y-57960000D02*
X45891267Y-57960000D01*
X45533733Y-60970000D02*
X45876267Y-60970000D01*
X45533733Y-61990000D02*
X45876267Y-61990000D01*
X74730000Y-32068733D02*
X74730000Y-32411267D01*
X75750000Y-32068733D02*
X75750000Y-32411267D01*
X81096267Y-72040000D02*
X80753733Y-72040000D01*
X81096267Y-73060000D02*
X80753733Y-73060000D01*
X81023733Y-87040000D02*
X81366267Y-87040000D01*
X81023733Y-88060000D02*
X81366267Y-88060000D01*
X69990000Y-82878733D02*
X69990000Y-83221267D01*
X71010000Y-82878733D02*
X71010000Y-83221267D01*
X77353733Y-72040000D02*
X77696267Y-72040000D01*
X77353733Y-73060000D02*
X77696267Y-73060000D01*
X77653733Y-88060000D02*
X77996267Y-88060000D01*
X77653733Y-87040000D02*
X77996267Y-87040000D01*
X71010000Y-79478733D02*
X71010000Y-79821267D01*
X69990000Y-79478733D02*
X69990000Y-79821267D01*
X56250000Y-78958733D02*
X56250000Y-79301267D01*
X55230000Y-78958733D02*
X55230000Y-79301267D01*
X59880000Y-79286267D02*
X59880000Y-78943733D01*
X60900000Y-79286267D02*
X60900000Y-78943733D01*
X60250000Y-41803733D02*
X60250000Y-42146267D01*
X59230000Y-41803733D02*
X59230000Y-42146267D01*
X62290000Y-41803733D02*
X62290000Y-42146267D01*
X63310000Y-41803733D02*
X63310000Y-42146267D01*
X60770000Y-41808733D02*
X60770000Y-42151267D01*
X61790000Y-41808733D02*
X61790000Y-42151267D01*
X64910000Y-41803733D02*
X64910000Y-42146267D01*
X63890000Y-41803733D02*
X63890000Y-42146267D01*
X65515000Y-41803733D02*
X65515000Y-42146267D01*
X66535000Y-41803733D02*
X66535000Y-42146267D01*
X81410000Y-81198733D02*
X81410000Y-81541267D01*
X82430000Y-81198733D02*
X82430000Y-81541267D01*
X79820000Y-31140000D02*
X79820000Y-33340000D01*
X76420000Y-31140000D02*
X76420000Y-33340000D01*
X89412132Y-41775000D02*
G75*
G03X89412132Y-41775000I-212132J0D01*
G01*
D14*
X89450000Y-45175000D02*
X88800000Y-45175000D01*
X89450000Y-45025000D02*
X89450000Y-45175000D01*
X89450000Y-43725000D02*
X89450000Y-45025000D01*
X88800000Y-43725000D02*
X89450000Y-43725000D01*
X88750000Y-42075000D02*
X88750000Y-46875000D01*
X84750000Y-42075000D02*
X84750000Y-46875000D01*
D13*
X73980000Y-69600000D02*
X75380000Y-69600000D01*
X75380000Y-69600000D02*
X75380000Y-71000000D01*
X75380000Y-71000000D02*
X73980000Y-71000000D01*
X73980000Y-71000000D02*
X73980000Y-69600000D01*
X74325000Y-86225000D02*
X74325000Y-84825000D01*
X75725000Y-86225000D02*
X74325000Y-86225000D01*
X75725000Y-84825000D02*
X75725000Y-86225000D01*
X74325000Y-84825000D02*
X75725000Y-84825000D01*
X71725000Y-76175000D02*
X73125000Y-76175000D01*
X73125000Y-76175000D02*
X73125000Y-77575000D01*
X73125000Y-77575000D02*
X71725000Y-77575000D01*
X71725000Y-77575000D02*
X71725000Y-76175000D01*
X52870000Y-67330000D02*
X52870000Y-66780000D01*
X53420000Y-67330000D02*
X52870000Y-67330000D01*
X63170000Y-67330000D02*
X63170000Y-66780000D01*
X62620000Y-67330000D02*
X63170000Y-67330000D01*
X63170000Y-57030000D02*
X63170000Y-57580000D01*
X62620000Y-57030000D02*
X63170000Y-57030000D01*
X52990001Y-56860000D02*
G75*
G03X52990001Y-56860000I-258070J0D01*
G01*
X68050000Y-42110000D02*
X67250000Y-42110000D01*
X68050000Y-50210000D02*
X67250000Y-50210000D01*
X67250000Y-50210000D02*
X67250000Y-42110000D01*
X72550000Y-50210000D02*
X73350000Y-50210000D01*
X73350000Y-42110000D02*
X73350000Y-50210000D01*
X72550000Y-42110000D02*
X73350000Y-42110000D01*
X73861803Y-41760000D02*
G75*
G03X73861803Y-41760000I-111803J0D01*
G01*
X65005000Y-76380000D02*
X64205000Y-77180000D01*
X64205000Y-77180000D02*
X60855000Y-77180000D01*
X60855000Y-77180000D02*
X60855000Y-72280000D01*
X60855000Y-72280000D02*
X65005000Y-72280000D01*
X65005000Y-72280000D02*
X65005000Y-76380000D01*
X66233848Y-77530000D02*
G75*
G03X66233848Y-77530000I-183848J0D01*
G01*
X45810000Y-49160000D02*
X46610000Y-48360000D01*
X46610000Y-48360000D02*
X48860000Y-48360000D01*
X48860000Y-48360000D02*
X48860000Y-51290000D01*
X48860000Y-51290000D02*
X45810000Y-51290000D01*
X45810000Y-51290000D02*
X45810000Y-49160000D01*
X46076421Y-48125000D02*
G75*
G03X46076421Y-48125000I-141421J0D01*
G01*
X76222500Y-78972500D02*
X76222500Y-78247500D01*
X76222500Y-78247500D02*
X76947500Y-78247500D01*
X80072500Y-78972500D02*
X80072500Y-78247500D01*
X80072500Y-78247500D02*
X79347500Y-78247500D01*
X80072500Y-81372500D02*
X80072500Y-82097500D01*
X80072500Y-82097500D02*
X79347500Y-82097500D01*
X76542429Y-81942500D02*
G75*
G03X76542429Y-81942500I-174929J0D01*
G01*
X67300000Y-65650000D02*
X71600000Y-65650000D01*
X71600000Y-65650000D02*
X71600000Y-60250000D01*
X63005000Y-80935000D02*
X64355000Y-80935000D01*
X63005000Y-79185000D02*
X64355000Y-79185000D01*
X57490000Y-53010000D02*
X59490000Y-53010000D01*
X59490000Y-53010000D02*
X59490000Y-49110000D01*
X57490000Y-53010000D02*
X57490000Y-49110000D01*
X58710000Y-73686267D02*
X58710000Y-73343733D01*
X57690000Y-73686267D02*
X57690000Y-73343733D01*
X56160000Y-73686267D02*
X56160000Y-73343733D01*
X57180000Y-73686267D02*
X57180000Y-73343733D01*
D12*
X81666666Y-66852380D02*
X81666666Y-67566666D01*
X81619047Y-67709523D01*
X81523809Y-67804761D01*
X81380952Y-67852380D01*
X81285714Y-67852380D01*
X82095238Y-66947619D02*
X82142857Y-66900000D01*
X82238095Y-66852380D01*
X82476190Y-66852380D01*
X82571428Y-66900000D01*
X82619047Y-66947619D01*
X82666666Y-67042857D01*
X82666666Y-67138095D01*
X82619047Y-67280952D01*
X82047619Y-67852380D01*
X82666666Y-67852380D01*
X54766666Y-23452380D02*
X54766666Y-24166666D01*
X54719047Y-24309523D01*
X54623809Y-24404761D01*
X54480952Y-24452380D01*
X54385714Y-24452380D01*
X55290476Y-24452380D02*
X55480952Y-24452380D01*
X55576190Y-24404761D01*
X55623809Y-24357142D01*
X55719047Y-24214285D01*
X55766666Y-24023809D01*
X55766666Y-23642857D01*
X55719047Y-23547619D01*
X55671428Y-23500000D01*
X55576190Y-23452380D01*
X55385714Y-23452380D01*
X55290476Y-23500000D01*
X55242857Y-23547619D01*
X55195238Y-23642857D01*
X55195238Y-23880952D01*
X55242857Y-23976190D01*
X55290476Y-24023809D01*
X55385714Y-24071428D01*
X55576190Y-24071428D01*
X55671428Y-24023809D01*
X55719047Y-23976190D01*
X55766666Y-23880952D01*
X63822380Y-52026666D02*
X63346190Y-52360000D01*
X63822380Y-52598095D02*
X62822380Y-52598095D01*
X62822380Y-52217142D01*
X62870000Y-52121904D01*
X62917619Y-52074285D01*
X63012857Y-52026666D01*
X63155714Y-52026666D01*
X63250952Y-52074285D01*
X63298571Y-52121904D01*
X63346190Y-52217142D01*
X63346190Y-52598095D01*
X62917619Y-51645714D02*
X62870000Y-51598095D01*
X62822380Y-51502857D01*
X62822380Y-51264761D01*
X62870000Y-51169523D01*
X62917619Y-51121904D01*
X63012857Y-51074285D01*
X63108095Y-51074285D01*
X63250952Y-51121904D01*
X63822380Y-51693333D01*
X63822380Y-51074285D01*
X62397142Y-52026666D02*
X62444761Y-52074285D01*
X62492380Y-52217142D01*
X62492380Y-52312380D01*
X62444761Y-52455238D01*
X62349523Y-52550476D01*
X62254285Y-52598095D01*
X62063809Y-52645714D01*
X61920952Y-52645714D01*
X61730476Y-52598095D01*
X61635238Y-52550476D01*
X61540000Y-52455238D01*
X61492380Y-52312380D01*
X61492380Y-52217142D01*
X61540000Y-52074285D01*
X61587619Y-52026666D01*
X62492380Y-51074285D02*
X62492380Y-51645714D01*
X62492380Y-51360000D02*
X61492380Y-51360000D01*
X61635238Y-51455238D01*
X61730476Y-51550476D01*
X61778095Y-51645714D01*
X72033333Y-59557142D02*
X71985714Y-59604761D01*
X71842857Y-59652380D01*
X71747619Y-59652380D01*
X71604761Y-59604761D01*
X71509523Y-59509523D01*
X71461904Y-59414285D01*
X71414285Y-59223809D01*
X71414285Y-59080952D01*
X71461904Y-58890476D01*
X71509523Y-58795238D01*
X71604761Y-58700000D01*
X71747619Y-58652380D01*
X71842857Y-58652380D01*
X71985714Y-58700000D01*
X72033333Y-58747619D01*
X72414285Y-58747619D02*
X72461904Y-58700000D01*
X72557142Y-58652380D01*
X72795238Y-58652380D01*
X72890476Y-58700000D01*
X72938095Y-58747619D01*
X72985714Y-58842857D01*
X72985714Y-58938095D01*
X72938095Y-59080952D01*
X72366666Y-59652380D01*
X72985714Y-59652380D01*
X72033333Y-67157142D02*
X71985714Y-67204761D01*
X71842857Y-67252380D01*
X71747619Y-67252380D01*
X71604761Y-67204761D01*
X71509523Y-67109523D01*
X71461904Y-67014285D01*
X71414285Y-66823809D01*
X71414285Y-66680952D01*
X71461904Y-66490476D01*
X71509523Y-66395238D01*
X71604761Y-66300000D01*
X71747619Y-66252380D01*
X71842857Y-66252380D01*
X71985714Y-66300000D01*
X72033333Y-66347619D01*
X72366666Y-66252380D02*
X72985714Y-66252380D01*
X72652380Y-66633333D01*
X72795238Y-66633333D01*
X72890476Y-66680952D01*
X72938095Y-66728571D01*
X72985714Y-66823809D01*
X72985714Y-67061904D01*
X72938095Y-67157142D01*
X72890476Y-67204761D01*
X72795238Y-67252380D01*
X72509523Y-67252380D01*
X72414285Y-67204761D01*
X72366666Y-67157142D01*
X51433333Y-53357142D02*
X51385714Y-53404761D01*
X51242857Y-53452380D01*
X51147619Y-53452380D01*
X51004761Y-53404761D01*
X50909523Y-53309523D01*
X50861904Y-53214285D01*
X50814285Y-53023809D01*
X50814285Y-52880952D01*
X50861904Y-52690476D01*
X50909523Y-52595238D01*
X51004761Y-52500000D01*
X51147619Y-52452380D01*
X51242857Y-52452380D01*
X51385714Y-52500000D01*
X51433333Y-52547619D01*
X52290476Y-52785714D02*
X52290476Y-53452380D01*
X52052380Y-52404761D02*
X51814285Y-53119047D01*
X52433333Y-53119047D01*
X51433333Y-54557142D02*
X51385714Y-54604761D01*
X51242857Y-54652380D01*
X51147619Y-54652380D01*
X51004761Y-54604761D01*
X50909523Y-54509523D01*
X50861904Y-54414285D01*
X50814285Y-54223809D01*
X50814285Y-54080952D01*
X50861904Y-53890476D01*
X50909523Y-53795238D01*
X51004761Y-53700000D01*
X51147619Y-53652380D01*
X51242857Y-53652380D01*
X51385714Y-53700000D01*
X51433333Y-53747619D01*
X52338095Y-53652380D02*
X51861904Y-53652380D01*
X51814285Y-54128571D01*
X51861904Y-54080952D01*
X51957142Y-54033333D01*
X52195238Y-54033333D01*
X52290476Y-54080952D01*
X52338095Y-54128571D01*
X52385714Y-54223809D01*
X52385714Y-54461904D01*
X52338095Y-54557142D01*
X52290476Y-54604761D01*
X52195238Y-54652380D01*
X51957142Y-54652380D01*
X51861904Y-54604761D01*
X51814285Y-54557142D01*
X64833333Y-86157142D02*
X64785714Y-86204761D01*
X64642857Y-86252380D01*
X64547619Y-86252380D01*
X64404761Y-86204761D01*
X64309523Y-86109523D01*
X64261904Y-86014285D01*
X64214285Y-85823809D01*
X64214285Y-85680952D01*
X64261904Y-85490476D01*
X64309523Y-85395238D01*
X64404761Y-85300000D01*
X64547619Y-85252380D01*
X64642857Y-85252380D01*
X64785714Y-85300000D01*
X64833333Y-85347619D01*
X65690476Y-85252380D02*
X65500000Y-85252380D01*
X65404761Y-85300000D01*
X65357142Y-85347619D01*
X65261904Y-85490476D01*
X65214285Y-85680952D01*
X65214285Y-86061904D01*
X65261904Y-86157142D01*
X65309523Y-86204761D01*
X65404761Y-86252380D01*
X65595238Y-86252380D01*
X65690476Y-86204761D01*
X65738095Y-86157142D01*
X65785714Y-86061904D01*
X65785714Y-85823809D01*
X65738095Y-85728571D01*
X65690476Y-85680952D01*
X65595238Y-85633333D01*
X65404761Y-85633333D01*
X65309523Y-85680952D01*
X65261904Y-85728571D01*
X65214285Y-85823809D01*
X62233333Y-86157142D02*
X62185714Y-86204761D01*
X62042857Y-86252380D01*
X61947619Y-86252380D01*
X61804761Y-86204761D01*
X61709523Y-86109523D01*
X61661904Y-86014285D01*
X61614285Y-85823809D01*
X61614285Y-85680952D01*
X61661904Y-85490476D01*
X61709523Y-85395238D01*
X61804761Y-85300000D01*
X61947619Y-85252380D01*
X62042857Y-85252380D01*
X62185714Y-85300000D01*
X62233333Y-85347619D01*
X62566666Y-85252380D02*
X63233333Y-85252380D01*
X62804761Y-86252380D01*
X43357142Y-47166666D02*
X43404761Y-47214285D01*
X43452380Y-47357142D01*
X43452380Y-47452380D01*
X43404761Y-47595238D01*
X43309523Y-47690476D01*
X43214285Y-47738095D01*
X43023809Y-47785714D01*
X42880952Y-47785714D01*
X42690476Y-47738095D01*
X42595238Y-47690476D01*
X42500000Y-47595238D01*
X42452380Y-47452380D01*
X42452380Y-47357142D01*
X42500000Y-47214285D01*
X42547619Y-47166666D01*
X42880952Y-46595238D02*
X42833333Y-46690476D01*
X42785714Y-46738095D01*
X42690476Y-46785714D01*
X42642857Y-46785714D01*
X42547619Y-46738095D01*
X42500000Y-46690476D01*
X42452380Y-46595238D01*
X42452380Y-46404761D01*
X42500000Y-46309523D01*
X42547619Y-46261904D01*
X42642857Y-46214285D01*
X42690476Y-46214285D01*
X42785714Y-46261904D01*
X42833333Y-46309523D01*
X42880952Y-46404761D01*
X42880952Y-46595238D01*
X42928571Y-46690476D01*
X42976190Y-46738095D01*
X43071428Y-46785714D01*
X43261904Y-46785714D01*
X43357142Y-46738095D01*
X43404761Y-46690476D01*
X43452380Y-46595238D01*
X43452380Y-46404761D01*
X43404761Y-46309523D01*
X43357142Y-46261904D01*
X43261904Y-46214285D01*
X43071428Y-46214285D01*
X42976190Y-46261904D01*
X42928571Y-46309523D01*
X42880952Y-46404761D01*
X54033333Y-76957142D02*
X53985714Y-77004761D01*
X53842857Y-77052380D01*
X53747619Y-77052380D01*
X53604761Y-77004761D01*
X53509523Y-76909523D01*
X53461904Y-76814285D01*
X53414285Y-76623809D01*
X53414285Y-76480952D01*
X53461904Y-76290476D01*
X53509523Y-76195238D01*
X53604761Y-76100000D01*
X53747619Y-76052380D01*
X53842857Y-76052380D01*
X53985714Y-76100000D01*
X54033333Y-76147619D01*
X54509523Y-77052380D02*
X54700000Y-77052380D01*
X54795238Y-77004761D01*
X54842857Y-76957142D01*
X54938095Y-76814285D01*
X54985714Y-76623809D01*
X54985714Y-76242857D01*
X54938095Y-76147619D01*
X54890476Y-76100000D01*
X54795238Y-76052380D01*
X54604761Y-76052380D01*
X54509523Y-76100000D01*
X54461904Y-76147619D01*
X54414285Y-76242857D01*
X54414285Y-76480952D01*
X54461904Y-76576190D01*
X54509523Y-76623809D01*
X54604761Y-76671428D01*
X54795238Y-76671428D01*
X54890476Y-76623809D01*
X54938095Y-76576190D01*
X54985714Y-76480952D01*
X53662142Y-50692857D02*
X53709761Y-50740476D01*
X53757380Y-50883333D01*
X53757380Y-50978571D01*
X53709761Y-51121428D01*
X53614523Y-51216666D01*
X53519285Y-51264285D01*
X53328809Y-51311904D01*
X53185952Y-51311904D01*
X52995476Y-51264285D01*
X52900238Y-51216666D01*
X52805000Y-51121428D01*
X52757380Y-50978571D01*
X52757380Y-50883333D01*
X52805000Y-50740476D01*
X52852619Y-50692857D01*
X53757380Y-49740476D02*
X53757380Y-50311904D01*
X53757380Y-50026190D02*
X52757380Y-50026190D01*
X52900238Y-50121428D01*
X52995476Y-50216666D01*
X53043095Y-50311904D01*
X52757380Y-49121428D02*
X52757380Y-49026190D01*
X52805000Y-48930952D01*
X52852619Y-48883333D01*
X52947857Y-48835714D01*
X53138333Y-48788095D01*
X53376428Y-48788095D01*
X53566904Y-48835714D01*
X53662142Y-48883333D01*
X53709761Y-48930952D01*
X53757380Y-49026190D01*
X53757380Y-49121428D01*
X53709761Y-49216666D01*
X53662142Y-49264285D01*
X53566904Y-49311904D01*
X53376428Y-49359523D01*
X53138333Y-49359523D01*
X52947857Y-49311904D01*
X52852619Y-49264285D01*
X52805000Y-49216666D01*
X52757380Y-49121428D01*
X55212142Y-50692857D02*
X55259761Y-50740476D01*
X55307380Y-50883333D01*
X55307380Y-50978571D01*
X55259761Y-51121428D01*
X55164523Y-51216666D01*
X55069285Y-51264285D01*
X54878809Y-51311904D01*
X54735952Y-51311904D01*
X54545476Y-51264285D01*
X54450238Y-51216666D01*
X54355000Y-51121428D01*
X54307380Y-50978571D01*
X54307380Y-50883333D01*
X54355000Y-50740476D01*
X54402619Y-50692857D01*
X55307380Y-49740476D02*
X55307380Y-50311904D01*
X55307380Y-50026190D02*
X54307380Y-50026190D01*
X54450238Y-50121428D01*
X54545476Y-50216666D01*
X54593095Y-50311904D01*
X55307380Y-48788095D02*
X55307380Y-49359523D01*
X55307380Y-49073809D02*
X54307380Y-49073809D01*
X54450238Y-49169047D01*
X54545476Y-49264285D01*
X54593095Y-49359523D01*
X41957142Y-52557142D02*
X41909523Y-52604761D01*
X41766666Y-52652380D01*
X41671428Y-52652380D01*
X41528571Y-52604761D01*
X41433333Y-52509523D01*
X41385714Y-52414285D01*
X41338095Y-52223809D01*
X41338095Y-52080952D01*
X41385714Y-51890476D01*
X41433333Y-51795238D01*
X41528571Y-51700000D01*
X41671428Y-51652380D01*
X41766666Y-51652380D01*
X41909523Y-51700000D01*
X41957142Y-51747619D01*
X42909523Y-52652380D02*
X42338095Y-52652380D01*
X42623809Y-52652380D02*
X42623809Y-51652380D01*
X42528571Y-51795238D01*
X42433333Y-51890476D01*
X42338095Y-51938095D01*
X43290476Y-51747619D02*
X43338095Y-51700000D01*
X43433333Y-51652380D01*
X43671428Y-51652380D01*
X43766666Y-51700000D01*
X43814285Y-51747619D01*
X43861904Y-51842857D01*
X43861904Y-51938095D01*
X43814285Y-52080952D01*
X43242857Y-52652380D01*
X43861904Y-52652380D01*
X55497142Y-50702857D02*
X55544761Y-50750476D01*
X55592380Y-50893333D01*
X55592380Y-50988571D01*
X55544761Y-51131428D01*
X55449523Y-51226666D01*
X55354285Y-51274285D01*
X55163809Y-51321904D01*
X55020952Y-51321904D01*
X54830476Y-51274285D01*
X54735238Y-51226666D01*
X54640000Y-51131428D01*
X54592380Y-50988571D01*
X54592380Y-50893333D01*
X54640000Y-50750476D01*
X54687619Y-50702857D01*
X55592380Y-49750476D02*
X55592380Y-50321904D01*
X55592380Y-50036190D02*
X54592380Y-50036190D01*
X54735238Y-50131428D01*
X54830476Y-50226666D01*
X54878095Y-50321904D01*
X54592380Y-49417142D02*
X54592380Y-48798095D01*
X54973333Y-49131428D01*
X54973333Y-48988571D01*
X55020952Y-48893333D01*
X55068571Y-48845714D01*
X55163809Y-48798095D01*
X55401904Y-48798095D01*
X55497142Y-48845714D01*
X55544761Y-48893333D01*
X55592380Y-48988571D01*
X55592380Y-49274285D01*
X55544761Y-49369523D01*
X55497142Y-49417142D01*
X53877142Y-50692857D02*
X53924761Y-50740476D01*
X53972380Y-50883333D01*
X53972380Y-50978571D01*
X53924761Y-51121428D01*
X53829523Y-51216666D01*
X53734285Y-51264285D01*
X53543809Y-51311904D01*
X53400952Y-51311904D01*
X53210476Y-51264285D01*
X53115238Y-51216666D01*
X53020000Y-51121428D01*
X52972380Y-50978571D01*
X52972380Y-50883333D01*
X53020000Y-50740476D01*
X53067619Y-50692857D01*
X53972380Y-49740476D02*
X53972380Y-50311904D01*
X53972380Y-50026190D02*
X52972380Y-50026190D01*
X53115238Y-50121428D01*
X53210476Y-50216666D01*
X53258095Y-50311904D01*
X53305714Y-48883333D02*
X53972380Y-48883333D01*
X52924761Y-49121428D02*
X53639047Y-49359523D01*
X53639047Y-48740476D01*
X45072142Y-61787142D02*
X45024523Y-61834761D01*
X44881666Y-61882380D01*
X44786428Y-61882380D01*
X44643571Y-61834761D01*
X44548333Y-61739523D01*
X44500714Y-61644285D01*
X44453095Y-61453809D01*
X44453095Y-61310952D01*
X44500714Y-61120476D01*
X44548333Y-61025238D01*
X44643571Y-60930000D01*
X44786428Y-60882380D01*
X44881666Y-60882380D01*
X45024523Y-60930000D01*
X45072142Y-60977619D01*
X46024523Y-61882380D02*
X45453095Y-61882380D01*
X45738809Y-61882380D02*
X45738809Y-60882380D01*
X45643571Y-61025238D01*
X45548333Y-61120476D01*
X45453095Y-61168095D01*
X46357857Y-60882380D02*
X47024523Y-60882380D01*
X46595952Y-61882380D01*
X55557142Y-71042857D02*
X55604761Y-71090476D01*
X55652380Y-71233333D01*
X55652380Y-71328571D01*
X55604761Y-71471428D01*
X55509523Y-71566666D01*
X55414285Y-71614285D01*
X55223809Y-71661904D01*
X55080952Y-71661904D01*
X54890476Y-71614285D01*
X54795238Y-71566666D01*
X54700000Y-71471428D01*
X54652380Y-71328571D01*
X54652380Y-71233333D01*
X54700000Y-71090476D01*
X54747619Y-71042857D01*
X54747619Y-70661904D02*
X54700000Y-70614285D01*
X54652380Y-70519047D01*
X54652380Y-70280952D01*
X54700000Y-70185714D01*
X54747619Y-70138095D01*
X54842857Y-70090476D01*
X54938095Y-70090476D01*
X55080952Y-70138095D01*
X55652380Y-70709523D01*
X55652380Y-70090476D01*
X54652380Y-69471428D02*
X54652380Y-69376190D01*
X54700000Y-69280952D01*
X54747619Y-69233333D01*
X54842857Y-69185714D01*
X55033333Y-69138095D01*
X55271428Y-69138095D01*
X55461904Y-69185714D01*
X55557142Y-69233333D01*
X55604761Y-69280952D01*
X55652380Y-69376190D01*
X55652380Y-69471428D01*
X55604761Y-69566666D01*
X55557142Y-69614285D01*
X55461904Y-69661904D01*
X55271428Y-69709523D01*
X55033333Y-69709523D01*
X54842857Y-69661904D01*
X54747619Y-69614285D01*
X54700000Y-69566666D01*
X54652380Y-69471428D01*
X76757142Y-65957142D02*
X76709523Y-66004761D01*
X76566666Y-66052380D01*
X76471428Y-66052380D01*
X76328571Y-66004761D01*
X76233333Y-65909523D01*
X76185714Y-65814285D01*
X76138095Y-65623809D01*
X76138095Y-65480952D01*
X76185714Y-65290476D01*
X76233333Y-65195238D01*
X76328571Y-65100000D01*
X76471428Y-65052380D01*
X76566666Y-65052380D01*
X76709523Y-65100000D01*
X76757142Y-65147619D01*
X77138095Y-65147619D02*
X77185714Y-65100000D01*
X77280952Y-65052380D01*
X77519047Y-65052380D01*
X77614285Y-65100000D01*
X77661904Y-65147619D01*
X77709523Y-65242857D01*
X77709523Y-65338095D01*
X77661904Y-65480952D01*
X77090476Y-66052380D01*
X77709523Y-66052380D01*
X78661904Y-66052380D02*
X78090476Y-66052380D01*
X78376190Y-66052380D02*
X78376190Y-65052380D01*
X78280952Y-65195238D01*
X78185714Y-65290476D01*
X78090476Y-65338095D01*
X73957142Y-91157142D02*
X73909523Y-91204761D01*
X73766666Y-91252380D01*
X73671428Y-91252380D01*
X73528571Y-91204761D01*
X73433333Y-91109523D01*
X73385714Y-91014285D01*
X73338095Y-90823809D01*
X73338095Y-90680952D01*
X73385714Y-90490476D01*
X73433333Y-90395238D01*
X73528571Y-90300000D01*
X73671428Y-90252380D01*
X73766666Y-90252380D01*
X73909523Y-90300000D01*
X73957142Y-90347619D01*
X74338095Y-90347619D02*
X74385714Y-90300000D01*
X74480952Y-90252380D01*
X74719047Y-90252380D01*
X74814285Y-90300000D01*
X74861904Y-90347619D01*
X74909523Y-90442857D01*
X74909523Y-90538095D01*
X74861904Y-90680952D01*
X74290476Y-91252380D01*
X74909523Y-91252380D01*
X75290476Y-90347619D02*
X75338095Y-90300000D01*
X75433333Y-90252380D01*
X75671428Y-90252380D01*
X75766666Y-90300000D01*
X75814285Y-90347619D01*
X75861904Y-90442857D01*
X75861904Y-90538095D01*
X75814285Y-90680952D01*
X75242857Y-91252380D01*
X75861904Y-91252380D01*
X67957142Y-77242857D02*
X68004761Y-77290476D01*
X68052380Y-77433333D01*
X68052380Y-77528571D01*
X68004761Y-77671428D01*
X67909523Y-77766666D01*
X67814285Y-77814285D01*
X67623809Y-77861904D01*
X67480952Y-77861904D01*
X67290476Y-77814285D01*
X67195238Y-77766666D01*
X67100000Y-77671428D01*
X67052380Y-77528571D01*
X67052380Y-77433333D01*
X67100000Y-77290476D01*
X67147619Y-77242857D01*
X67147619Y-76861904D02*
X67100000Y-76814285D01*
X67052380Y-76719047D01*
X67052380Y-76480952D01*
X67100000Y-76385714D01*
X67147619Y-76338095D01*
X67242857Y-76290476D01*
X67338095Y-76290476D01*
X67480952Y-76338095D01*
X68052380Y-76909523D01*
X68052380Y-76290476D01*
X67052380Y-75957142D02*
X67052380Y-75338095D01*
X67433333Y-75671428D01*
X67433333Y-75528571D01*
X67480952Y-75433333D01*
X67528571Y-75385714D01*
X67623809Y-75338095D01*
X67861904Y-75338095D01*
X67957142Y-75385714D01*
X68004761Y-75433333D01*
X68052380Y-75528571D01*
X68052380Y-75814285D01*
X68004761Y-75909523D01*
X67957142Y-75957142D01*
X51357142Y-81957142D02*
X51309523Y-82004761D01*
X51166666Y-82052380D01*
X51071428Y-82052380D01*
X50928571Y-82004761D01*
X50833333Y-81909523D01*
X50785714Y-81814285D01*
X50738095Y-81623809D01*
X50738095Y-81480952D01*
X50785714Y-81290476D01*
X50833333Y-81195238D01*
X50928571Y-81100000D01*
X51071428Y-81052380D01*
X51166666Y-81052380D01*
X51309523Y-81100000D01*
X51357142Y-81147619D01*
X51738095Y-81147619D02*
X51785714Y-81100000D01*
X51880952Y-81052380D01*
X52119047Y-81052380D01*
X52214285Y-81100000D01*
X52261904Y-81147619D01*
X52309523Y-81242857D01*
X52309523Y-81338095D01*
X52261904Y-81480952D01*
X51690476Y-82052380D01*
X52309523Y-82052380D01*
X53166666Y-81385714D02*
X53166666Y-82052380D01*
X52928571Y-81004761D02*
X52690476Y-81719047D01*
X53309523Y-81719047D01*
X48157142Y-79842857D02*
X48204761Y-79890476D01*
X48252380Y-80033333D01*
X48252380Y-80128571D01*
X48204761Y-80271428D01*
X48109523Y-80366666D01*
X48014285Y-80414285D01*
X47823809Y-80461904D01*
X47680952Y-80461904D01*
X47490476Y-80414285D01*
X47395238Y-80366666D01*
X47300000Y-80271428D01*
X47252380Y-80128571D01*
X47252380Y-80033333D01*
X47300000Y-79890476D01*
X47347619Y-79842857D01*
X47347619Y-79461904D02*
X47300000Y-79414285D01*
X47252380Y-79319047D01*
X47252380Y-79080952D01*
X47300000Y-78985714D01*
X47347619Y-78938095D01*
X47442857Y-78890476D01*
X47538095Y-78890476D01*
X47680952Y-78938095D01*
X48252380Y-79509523D01*
X48252380Y-78890476D01*
X47252380Y-77985714D02*
X47252380Y-78461904D01*
X47728571Y-78509523D01*
X47680952Y-78461904D01*
X47633333Y-78366666D01*
X47633333Y-78128571D01*
X47680952Y-78033333D01*
X47728571Y-77985714D01*
X47823809Y-77938095D01*
X48061904Y-77938095D01*
X48157142Y-77985714D01*
X48204761Y-78033333D01*
X48252380Y-78128571D01*
X48252380Y-78366666D01*
X48204761Y-78461904D01*
X48157142Y-78509523D01*
X76757142Y-67157142D02*
X76709523Y-67204761D01*
X76566666Y-67252380D01*
X76471428Y-67252380D01*
X76328571Y-67204761D01*
X76233333Y-67109523D01*
X76185714Y-67014285D01*
X76138095Y-66823809D01*
X76138095Y-66680952D01*
X76185714Y-66490476D01*
X76233333Y-66395238D01*
X76328571Y-66300000D01*
X76471428Y-66252380D01*
X76566666Y-66252380D01*
X76709523Y-66300000D01*
X76757142Y-66347619D01*
X77138095Y-66347619D02*
X77185714Y-66300000D01*
X77280952Y-66252380D01*
X77519047Y-66252380D01*
X77614285Y-66300000D01*
X77661904Y-66347619D01*
X77709523Y-66442857D01*
X77709523Y-66538095D01*
X77661904Y-66680952D01*
X77090476Y-67252380D01*
X77709523Y-67252380D01*
X78566666Y-66252380D02*
X78376190Y-66252380D01*
X78280952Y-66300000D01*
X78233333Y-66347619D01*
X78138095Y-66490476D01*
X78090476Y-66680952D01*
X78090476Y-67061904D01*
X78138095Y-67157142D01*
X78185714Y-67204761D01*
X78280952Y-67252380D01*
X78471428Y-67252380D01*
X78566666Y-67204761D01*
X78614285Y-67157142D01*
X78661904Y-67061904D01*
X78661904Y-66823809D01*
X78614285Y-66728571D01*
X78566666Y-66680952D01*
X78471428Y-66633333D01*
X78280952Y-66633333D01*
X78185714Y-66680952D01*
X78138095Y-66728571D01*
X78090476Y-66823809D01*
X73957142Y-89557142D02*
X73909523Y-89604761D01*
X73766666Y-89652380D01*
X73671428Y-89652380D01*
X73528571Y-89604761D01*
X73433333Y-89509523D01*
X73385714Y-89414285D01*
X73338095Y-89223809D01*
X73338095Y-89080952D01*
X73385714Y-88890476D01*
X73433333Y-88795238D01*
X73528571Y-88700000D01*
X73671428Y-88652380D01*
X73766666Y-88652380D01*
X73909523Y-88700000D01*
X73957142Y-88747619D01*
X74338095Y-88747619D02*
X74385714Y-88700000D01*
X74480952Y-88652380D01*
X74719047Y-88652380D01*
X74814285Y-88700000D01*
X74861904Y-88747619D01*
X74909523Y-88842857D01*
X74909523Y-88938095D01*
X74861904Y-89080952D01*
X74290476Y-89652380D01*
X74909523Y-89652380D01*
X75242857Y-88652380D02*
X75909523Y-88652380D01*
X75480952Y-89652380D01*
X69557142Y-77242857D02*
X69604761Y-77290476D01*
X69652380Y-77433333D01*
X69652380Y-77528571D01*
X69604761Y-77671428D01*
X69509523Y-77766666D01*
X69414285Y-77814285D01*
X69223809Y-77861904D01*
X69080952Y-77861904D01*
X68890476Y-77814285D01*
X68795238Y-77766666D01*
X68700000Y-77671428D01*
X68652380Y-77528571D01*
X68652380Y-77433333D01*
X68700000Y-77290476D01*
X68747619Y-77242857D01*
X68747619Y-76861904D02*
X68700000Y-76814285D01*
X68652380Y-76719047D01*
X68652380Y-76480952D01*
X68700000Y-76385714D01*
X68747619Y-76338095D01*
X68842857Y-76290476D01*
X68938095Y-76290476D01*
X69080952Y-76338095D01*
X69652380Y-76909523D01*
X69652380Y-76290476D01*
X69080952Y-75719047D02*
X69033333Y-75814285D01*
X68985714Y-75861904D01*
X68890476Y-75909523D01*
X68842857Y-75909523D01*
X68747619Y-75861904D01*
X68700000Y-75814285D01*
X68652380Y-75719047D01*
X68652380Y-75528571D01*
X68700000Y-75433333D01*
X68747619Y-75385714D01*
X68842857Y-75338095D01*
X68890476Y-75338095D01*
X68985714Y-75385714D01*
X69033333Y-75433333D01*
X69080952Y-75528571D01*
X69080952Y-75719047D01*
X69128571Y-75814285D01*
X69176190Y-75861904D01*
X69271428Y-75909523D01*
X69461904Y-75909523D01*
X69557142Y-75861904D01*
X69604761Y-75814285D01*
X69652380Y-75719047D01*
X69652380Y-75528571D01*
X69604761Y-75433333D01*
X69557142Y-75385714D01*
X69461904Y-75338095D01*
X69271428Y-75338095D01*
X69176190Y-75385714D01*
X69128571Y-75433333D01*
X69080952Y-75528571D01*
X50557142Y-79842857D02*
X50604761Y-79890476D01*
X50652380Y-80033333D01*
X50652380Y-80128571D01*
X50604761Y-80271428D01*
X50509523Y-80366666D01*
X50414285Y-80414285D01*
X50223809Y-80461904D01*
X50080952Y-80461904D01*
X49890476Y-80414285D01*
X49795238Y-80366666D01*
X49700000Y-80271428D01*
X49652380Y-80128571D01*
X49652380Y-80033333D01*
X49700000Y-79890476D01*
X49747619Y-79842857D01*
X49747619Y-79461904D02*
X49700000Y-79414285D01*
X49652380Y-79319047D01*
X49652380Y-79080952D01*
X49700000Y-78985714D01*
X49747619Y-78938095D01*
X49842857Y-78890476D01*
X49938095Y-78890476D01*
X50080952Y-78938095D01*
X50652380Y-79509523D01*
X50652380Y-78890476D01*
X50652380Y-78414285D02*
X50652380Y-78223809D01*
X50604761Y-78128571D01*
X50557142Y-78080952D01*
X50414285Y-77985714D01*
X50223809Y-77938095D01*
X49842857Y-77938095D01*
X49747619Y-77985714D01*
X49700000Y-78033333D01*
X49652380Y-78128571D01*
X49652380Y-78319047D01*
X49700000Y-78414285D01*
X49747619Y-78461904D01*
X49842857Y-78509523D01*
X50080952Y-78509523D01*
X50176190Y-78461904D01*
X50223809Y-78414285D01*
X50271428Y-78319047D01*
X50271428Y-78128571D01*
X50223809Y-78033333D01*
X50176190Y-77985714D01*
X50080952Y-77938095D01*
X51757142Y-79842857D02*
X51804761Y-79890476D01*
X51852380Y-80033333D01*
X51852380Y-80128571D01*
X51804761Y-80271428D01*
X51709523Y-80366666D01*
X51614285Y-80414285D01*
X51423809Y-80461904D01*
X51280952Y-80461904D01*
X51090476Y-80414285D01*
X50995238Y-80366666D01*
X50900000Y-80271428D01*
X50852380Y-80128571D01*
X50852380Y-80033333D01*
X50900000Y-79890476D01*
X50947619Y-79842857D01*
X50852380Y-79509523D02*
X50852380Y-78890476D01*
X51233333Y-79223809D01*
X51233333Y-79080952D01*
X51280952Y-78985714D01*
X51328571Y-78938095D01*
X51423809Y-78890476D01*
X51661904Y-78890476D01*
X51757142Y-78938095D01*
X51804761Y-78985714D01*
X51852380Y-79080952D01*
X51852380Y-79366666D01*
X51804761Y-79461904D01*
X51757142Y-79509523D01*
X50852380Y-78271428D02*
X50852380Y-78176190D01*
X50900000Y-78080952D01*
X50947619Y-78033333D01*
X51042857Y-77985714D01*
X51233333Y-77938095D01*
X51471428Y-77938095D01*
X51661904Y-77985714D01*
X51757142Y-78033333D01*
X51804761Y-78080952D01*
X51852380Y-78176190D01*
X51852380Y-78271428D01*
X51804761Y-78366666D01*
X51757142Y-78414285D01*
X51661904Y-78461904D01*
X51471428Y-78509523D01*
X51233333Y-78509523D01*
X51042857Y-78461904D01*
X50947619Y-78414285D01*
X50900000Y-78366666D01*
X50852380Y-78271428D01*
X59347142Y-52502857D02*
X59394761Y-52550476D01*
X59442380Y-52693333D01*
X59442380Y-52788571D01*
X59394761Y-52931428D01*
X59299523Y-53026666D01*
X59204285Y-53074285D01*
X59013809Y-53121904D01*
X58870952Y-53121904D01*
X58680476Y-53074285D01*
X58585238Y-53026666D01*
X58490000Y-52931428D01*
X58442380Y-52788571D01*
X58442380Y-52693333D01*
X58490000Y-52550476D01*
X58537619Y-52502857D01*
X58442380Y-52169523D02*
X58442380Y-51550476D01*
X58823333Y-51883809D01*
X58823333Y-51740952D01*
X58870952Y-51645714D01*
X58918571Y-51598095D01*
X59013809Y-51550476D01*
X59251904Y-51550476D01*
X59347142Y-51598095D01*
X59394761Y-51645714D01*
X59442380Y-51740952D01*
X59442380Y-52026666D01*
X59394761Y-52121904D01*
X59347142Y-52169523D01*
X59442380Y-50598095D02*
X59442380Y-51169523D01*
X59442380Y-50883809D02*
X58442380Y-50883809D01*
X58585238Y-50979047D01*
X58680476Y-51074285D01*
X58728095Y-51169523D01*
X64567142Y-52522857D02*
X64614761Y-52570476D01*
X64662380Y-52713333D01*
X64662380Y-52808571D01*
X64614761Y-52951428D01*
X64519523Y-53046666D01*
X64424285Y-53094285D01*
X64233809Y-53141904D01*
X64090952Y-53141904D01*
X63900476Y-53094285D01*
X63805238Y-53046666D01*
X63710000Y-52951428D01*
X63662380Y-52808571D01*
X63662380Y-52713333D01*
X63710000Y-52570476D01*
X63757619Y-52522857D01*
X63662380Y-52189523D02*
X63662380Y-51570476D01*
X64043333Y-51903809D01*
X64043333Y-51760952D01*
X64090952Y-51665714D01*
X64138571Y-51618095D01*
X64233809Y-51570476D01*
X64471904Y-51570476D01*
X64567142Y-51618095D01*
X64614761Y-51665714D01*
X64662380Y-51760952D01*
X64662380Y-52046666D01*
X64614761Y-52141904D01*
X64567142Y-52189523D01*
X63757619Y-51189523D02*
X63710000Y-51141904D01*
X63662380Y-51046666D01*
X63662380Y-50808571D01*
X63710000Y-50713333D01*
X63757619Y-50665714D01*
X63852857Y-50618095D01*
X63948095Y-50618095D01*
X64090952Y-50665714D01*
X64662380Y-51237142D01*
X64662380Y-50618095D01*
X59661904Y-88452380D02*
X59661904Y-87452380D01*
X59900000Y-87452380D01*
X60042857Y-87500000D01*
X60138095Y-87595238D01*
X60185714Y-87690476D01*
X60233333Y-87880952D01*
X60233333Y-88023809D01*
X60185714Y-88214285D01*
X60138095Y-88309523D01*
X60042857Y-88404761D01*
X59900000Y-88452380D01*
X59661904Y-88452380D01*
X61185714Y-88452380D02*
X60614285Y-88452380D01*
X60900000Y-88452380D02*
X60900000Y-87452380D01*
X60804761Y-87595238D01*
X60709523Y-87690476D01*
X60614285Y-87738095D01*
X57261904Y-88452380D02*
X57261904Y-87452380D01*
X57500000Y-87452380D01*
X57642857Y-87500000D01*
X57738095Y-87595238D01*
X57785714Y-87690476D01*
X57833333Y-87880952D01*
X57833333Y-88023809D01*
X57785714Y-88214285D01*
X57738095Y-88309523D01*
X57642857Y-88404761D01*
X57500000Y-88452380D01*
X57261904Y-88452380D01*
X58214285Y-87547619D02*
X58261904Y-87500000D01*
X58357142Y-87452380D01*
X58595238Y-87452380D01*
X58690476Y-87500000D01*
X58738095Y-87547619D01*
X58785714Y-87642857D01*
X58785714Y-87738095D01*
X58738095Y-87880952D01*
X58166666Y-88452380D01*
X58785714Y-88452380D01*
X42616666Y-92452380D02*
X42616666Y-93166666D01*
X42569047Y-93309523D01*
X42473809Y-93404761D01*
X42330952Y-93452380D01*
X42235714Y-93452380D01*
X43616666Y-93452380D02*
X43045238Y-93452380D01*
X43330952Y-93452380D02*
X43330952Y-92452380D01*
X43235714Y-92595238D01*
X43140476Y-92690476D01*
X43045238Y-92738095D01*
X47866666Y-37652380D02*
X47866666Y-38366666D01*
X47819047Y-38509523D01*
X47723809Y-38604761D01*
X47580952Y-38652380D01*
X47485714Y-38652380D01*
X48247619Y-37652380D02*
X48866666Y-37652380D01*
X48533333Y-38033333D01*
X48676190Y-38033333D01*
X48771428Y-38080952D01*
X48819047Y-38128571D01*
X48866666Y-38223809D01*
X48866666Y-38461904D01*
X48819047Y-38557142D01*
X48771428Y-38604761D01*
X48676190Y-38652380D01*
X48390476Y-38652380D01*
X48295238Y-38604761D01*
X48247619Y-38557142D01*
X47866666Y-29052380D02*
X47866666Y-29766666D01*
X47819047Y-29909523D01*
X47723809Y-30004761D01*
X47580952Y-30052380D01*
X47485714Y-30052380D01*
X48771428Y-29385714D02*
X48771428Y-30052380D01*
X48533333Y-29004761D02*
X48295238Y-29719047D01*
X48914285Y-29719047D01*
X86666666Y-49452380D02*
X86666666Y-50166666D01*
X86619047Y-50309523D01*
X86523809Y-50404761D01*
X86380952Y-50452380D01*
X86285714Y-50452380D01*
X87619047Y-49452380D02*
X87142857Y-49452380D01*
X87095238Y-49928571D01*
X87142857Y-49880952D01*
X87238095Y-49833333D01*
X87476190Y-49833333D01*
X87571428Y-49880952D01*
X87619047Y-49928571D01*
X87666666Y-50023809D01*
X87666666Y-50261904D01*
X87619047Y-50357142D01*
X87571428Y-50404761D01*
X87476190Y-50452380D01*
X87238095Y-50452380D01*
X87142857Y-50404761D01*
X87095238Y-50357142D01*
X80866666Y-57452380D02*
X80866666Y-58166666D01*
X80819047Y-58309523D01*
X80723809Y-58404761D01*
X80580952Y-58452380D01*
X80485714Y-58452380D01*
X81247619Y-57452380D02*
X81914285Y-57452380D01*
X81485714Y-58452380D01*
X71590476Y-23452380D02*
X71590476Y-24166666D01*
X71542857Y-24309523D01*
X71447619Y-24404761D01*
X71304761Y-24452380D01*
X71209523Y-24452380D01*
X72590476Y-24452380D02*
X72019047Y-24452380D01*
X72304761Y-24452380D02*
X72304761Y-23452380D01*
X72209523Y-23595238D01*
X72114285Y-23690476D01*
X72019047Y-23738095D01*
X73209523Y-23452380D02*
X73304761Y-23452380D01*
X73400000Y-23500000D01*
X73447619Y-23547619D01*
X73495238Y-23642857D01*
X73542857Y-23833333D01*
X73542857Y-24071428D01*
X73495238Y-24261904D01*
X73447619Y-24357142D01*
X73400000Y-24404761D01*
X73304761Y-24452380D01*
X73209523Y-24452380D01*
X73114285Y-24404761D01*
X73066666Y-24357142D01*
X73019047Y-24261904D01*
X72971428Y-24071428D01*
X72971428Y-23833333D01*
X73019047Y-23642857D01*
X73066666Y-23547619D01*
X73114285Y-23500000D01*
X73209523Y-23452380D01*
X52452380Y-44166666D02*
X52452380Y-44642857D01*
X51452380Y-44642857D01*
X52452380Y-43309523D02*
X52452380Y-43880952D01*
X52452380Y-43595238D02*
X51452380Y-43595238D01*
X51595238Y-43690476D01*
X51690476Y-43785714D01*
X51738095Y-43880952D01*
X81233333Y-75652380D02*
X80757142Y-75652380D01*
X80757142Y-74652380D01*
X81519047Y-74747619D02*
X81566666Y-74700000D01*
X81661904Y-74652380D01*
X81900000Y-74652380D01*
X81995238Y-74700000D01*
X82042857Y-74747619D01*
X82090476Y-74842857D01*
X82090476Y-74938095D01*
X82042857Y-75080952D01*
X81471428Y-75652380D01*
X82090476Y-75652380D01*
X78333333Y-85452380D02*
X77857142Y-85452380D01*
X77857142Y-84452380D01*
X78571428Y-84452380D02*
X79190476Y-84452380D01*
X78857142Y-84833333D01*
X79000000Y-84833333D01*
X79095238Y-84880952D01*
X79142857Y-84928571D01*
X79190476Y-85023809D01*
X79190476Y-85261904D01*
X79142857Y-85357142D01*
X79095238Y-85404761D01*
X79000000Y-85452380D01*
X78714285Y-85452380D01*
X78619047Y-85404761D01*
X78571428Y-85357142D01*
X72833333Y-80702380D02*
X72357142Y-80702380D01*
X72357142Y-79702380D01*
X73595238Y-80035714D02*
X73595238Y-80702380D01*
X73357142Y-79654761D02*
X73119047Y-80369047D01*
X73738095Y-80369047D01*
X66233333Y-62252380D02*
X65900000Y-61776190D01*
X65661904Y-62252380D02*
X65661904Y-61252380D01*
X66042857Y-61252380D01*
X66138095Y-61300000D01*
X66185714Y-61347619D01*
X66233333Y-61442857D01*
X66233333Y-61585714D01*
X66185714Y-61680952D01*
X66138095Y-61728571D01*
X66042857Y-61776190D01*
X65661904Y-61776190D01*
X67185714Y-62252380D02*
X66614285Y-62252380D01*
X66900000Y-62252380D02*
X66900000Y-61252380D01*
X66804761Y-61395238D01*
X66709523Y-61490476D01*
X66614285Y-61538095D01*
X66633333Y-82452380D02*
X66300000Y-81976190D01*
X66061904Y-82452380D02*
X66061904Y-81452380D01*
X66442857Y-81452380D01*
X66538095Y-81500000D01*
X66585714Y-81547619D01*
X66633333Y-81642857D01*
X66633333Y-81785714D01*
X66585714Y-81880952D01*
X66538095Y-81928571D01*
X66442857Y-81976190D01*
X66061904Y-81976190D01*
X66966666Y-81452380D02*
X67585714Y-81452380D01*
X67252380Y-81833333D01*
X67395238Y-81833333D01*
X67490476Y-81880952D01*
X67538095Y-81928571D01*
X67585714Y-82023809D01*
X67585714Y-82261904D01*
X67538095Y-82357142D01*
X67490476Y-82404761D01*
X67395238Y-82452380D01*
X67109523Y-82452380D01*
X67014285Y-82404761D01*
X66966666Y-82357142D01*
X42033333Y-55852380D02*
X41700000Y-55376190D01*
X41461904Y-55852380D02*
X41461904Y-54852380D01*
X41842857Y-54852380D01*
X41938095Y-54900000D01*
X41985714Y-54947619D01*
X42033333Y-55042857D01*
X42033333Y-55185714D01*
X41985714Y-55280952D01*
X41938095Y-55328571D01*
X41842857Y-55376190D01*
X41461904Y-55376190D01*
X42890476Y-55185714D02*
X42890476Y-55852380D01*
X42652380Y-54804761D02*
X42414285Y-55519047D01*
X43033333Y-55519047D01*
X42033333Y-57452380D02*
X41700000Y-56976190D01*
X41461904Y-57452380D02*
X41461904Y-56452380D01*
X41842857Y-56452380D01*
X41938095Y-56500000D01*
X41985714Y-56547619D01*
X42033333Y-56642857D01*
X42033333Y-56785714D01*
X41985714Y-56880952D01*
X41938095Y-56928571D01*
X41842857Y-56976190D01*
X41461904Y-56976190D01*
X42938095Y-56452380D02*
X42461904Y-56452380D01*
X42414285Y-56928571D01*
X42461904Y-56880952D01*
X42557142Y-56833333D01*
X42795238Y-56833333D01*
X42890476Y-56880952D01*
X42938095Y-56928571D01*
X42985714Y-57023809D01*
X42985714Y-57261904D01*
X42938095Y-57357142D01*
X42890476Y-57404761D01*
X42795238Y-57452380D01*
X42557142Y-57452380D01*
X42461904Y-57404761D01*
X42414285Y-57357142D01*
X48033333Y-47652380D02*
X47700000Y-47176190D01*
X47461904Y-47652380D02*
X47461904Y-46652380D01*
X47842857Y-46652380D01*
X47938095Y-46700000D01*
X47985714Y-46747619D01*
X48033333Y-46842857D01*
X48033333Y-46985714D01*
X47985714Y-47080952D01*
X47938095Y-47128571D01*
X47842857Y-47176190D01*
X47461904Y-47176190D01*
X48890476Y-46652380D02*
X48700000Y-46652380D01*
X48604761Y-46700000D01*
X48557142Y-46747619D01*
X48461904Y-46890476D01*
X48414285Y-47080952D01*
X48414285Y-47461904D01*
X48461904Y-47557142D01*
X48509523Y-47604761D01*
X48604761Y-47652380D01*
X48795238Y-47652380D01*
X48890476Y-47604761D01*
X48938095Y-47557142D01*
X48985714Y-47461904D01*
X48985714Y-47223809D01*
X48938095Y-47128571D01*
X48890476Y-47080952D01*
X48795238Y-47033333D01*
X48604761Y-47033333D01*
X48509523Y-47080952D01*
X48461904Y-47128571D01*
X48414285Y-47223809D01*
X42033333Y-54452380D02*
X41700000Y-53976190D01*
X41461904Y-54452380D02*
X41461904Y-53452380D01*
X41842857Y-53452380D01*
X41938095Y-53500000D01*
X41985714Y-53547619D01*
X42033333Y-53642857D01*
X42033333Y-53785714D01*
X41985714Y-53880952D01*
X41938095Y-53928571D01*
X41842857Y-53976190D01*
X41461904Y-53976190D01*
X42366666Y-53452380D02*
X43033333Y-53452380D01*
X42604761Y-54452380D01*
X67652380Y-71566666D02*
X67176190Y-71900000D01*
X67652380Y-72138095D02*
X66652380Y-72138095D01*
X66652380Y-71757142D01*
X66700000Y-71661904D01*
X66747619Y-71614285D01*
X66842857Y-71566666D01*
X66985714Y-71566666D01*
X67080952Y-71614285D01*
X67128571Y-71661904D01*
X67176190Y-71757142D01*
X67176190Y-72138095D01*
X67080952Y-70995238D02*
X67033333Y-71090476D01*
X66985714Y-71138095D01*
X66890476Y-71185714D01*
X66842857Y-71185714D01*
X66747619Y-71138095D01*
X66700000Y-71090476D01*
X66652380Y-70995238D01*
X66652380Y-70804761D01*
X66700000Y-70709523D01*
X66747619Y-70661904D01*
X66842857Y-70614285D01*
X66890476Y-70614285D01*
X66985714Y-70661904D01*
X67033333Y-70709523D01*
X67080952Y-70804761D01*
X67080952Y-70995238D01*
X67128571Y-71090476D01*
X67176190Y-71138095D01*
X67271428Y-71185714D01*
X67461904Y-71185714D01*
X67557142Y-71138095D01*
X67604761Y-71090476D01*
X67652380Y-70995238D01*
X67652380Y-70804761D01*
X67604761Y-70709523D01*
X67557142Y-70661904D01*
X67461904Y-70614285D01*
X67271428Y-70614285D01*
X67176190Y-70661904D01*
X67128571Y-70709523D01*
X67080952Y-70804761D01*
X55452380Y-43966666D02*
X54976190Y-44300000D01*
X55452380Y-44538095D02*
X54452380Y-44538095D01*
X54452380Y-44157142D01*
X54500000Y-44061904D01*
X54547619Y-44014285D01*
X54642857Y-43966666D01*
X54785714Y-43966666D01*
X54880952Y-44014285D01*
X54928571Y-44061904D01*
X54976190Y-44157142D01*
X54976190Y-44538095D01*
X55452380Y-43490476D02*
X55452380Y-43300000D01*
X55404761Y-43204761D01*
X55357142Y-43157142D01*
X55214285Y-43061904D01*
X55023809Y-43014285D01*
X54642857Y-43014285D01*
X54547619Y-43061904D01*
X54500000Y-43109523D01*
X54452380Y-43204761D01*
X54452380Y-43395238D01*
X54500000Y-43490476D01*
X54547619Y-43538095D01*
X54642857Y-43585714D01*
X54880952Y-43585714D01*
X54976190Y-43538095D01*
X55023809Y-43490476D01*
X55071428Y-43395238D01*
X55071428Y-43204761D01*
X55023809Y-43109523D01*
X54976190Y-43061904D01*
X54880952Y-43014285D01*
X53852380Y-44042857D02*
X53376190Y-44376190D01*
X53852380Y-44614285D02*
X52852380Y-44614285D01*
X52852380Y-44233333D01*
X52900000Y-44138095D01*
X52947619Y-44090476D01*
X53042857Y-44042857D01*
X53185714Y-44042857D01*
X53280952Y-44090476D01*
X53328571Y-44138095D01*
X53376190Y-44233333D01*
X53376190Y-44614285D01*
X53852380Y-43090476D02*
X53852380Y-43661904D01*
X53852380Y-43376190D02*
X52852380Y-43376190D01*
X52995238Y-43471428D01*
X53090476Y-43566666D01*
X53138095Y-43661904D01*
X52852380Y-42471428D02*
X52852380Y-42376190D01*
X52900000Y-42280952D01*
X52947619Y-42233333D01*
X53042857Y-42185714D01*
X53233333Y-42138095D01*
X53471428Y-42138095D01*
X53661904Y-42185714D01*
X53757142Y-42233333D01*
X53804761Y-42280952D01*
X53852380Y-42376190D01*
X53852380Y-42471428D01*
X53804761Y-42566666D01*
X53757142Y-42614285D01*
X53661904Y-42661904D01*
X53471428Y-42709523D01*
X53233333Y-42709523D01*
X53042857Y-42661904D01*
X52947619Y-42614285D01*
X52900000Y-42566666D01*
X52852380Y-42471428D01*
X41957142Y-59052380D02*
X41623809Y-58576190D01*
X41385714Y-59052380D02*
X41385714Y-58052380D01*
X41766666Y-58052380D01*
X41861904Y-58100000D01*
X41909523Y-58147619D01*
X41957142Y-58242857D01*
X41957142Y-58385714D01*
X41909523Y-58480952D01*
X41861904Y-58528571D01*
X41766666Y-58576190D01*
X41385714Y-58576190D01*
X42909523Y-59052380D02*
X42338095Y-59052380D01*
X42623809Y-59052380D02*
X42623809Y-58052380D01*
X42528571Y-58195238D01*
X42433333Y-58290476D01*
X42338095Y-58338095D01*
X43861904Y-59052380D02*
X43290476Y-59052380D01*
X43576190Y-59052380D02*
X43576190Y-58052380D01*
X43480952Y-58195238D01*
X43385714Y-58290476D01*
X43290476Y-58338095D01*
X45062142Y-60502380D02*
X44728809Y-60026190D01*
X44490714Y-60502380D02*
X44490714Y-59502380D01*
X44871666Y-59502380D01*
X44966904Y-59550000D01*
X45014523Y-59597619D01*
X45062142Y-59692857D01*
X45062142Y-59835714D01*
X45014523Y-59930952D01*
X44966904Y-59978571D01*
X44871666Y-60026190D01*
X44490714Y-60026190D01*
X46014523Y-60502380D02*
X45443095Y-60502380D01*
X45728809Y-60502380D02*
X45728809Y-59502380D01*
X45633571Y-59645238D01*
X45538333Y-59740476D01*
X45443095Y-59788095D01*
X46871666Y-59835714D02*
X46871666Y-60502380D01*
X46633571Y-59454761D02*
X46395476Y-60169047D01*
X47014523Y-60169047D01*
X77652380Y-36042857D02*
X77176190Y-36376190D01*
X77652380Y-36614285D02*
X76652380Y-36614285D01*
X76652380Y-36233333D01*
X76700000Y-36138095D01*
X76747619Y-36090476D01*
X76842857Y-36042857D01*
X76985714Y-36042857D01*
X77080952Y-36090476D01*
X77128571Y-36138095D01*
X77176190Y-36233333D01*
X77176190Y-36614285D01*
X77652380Y-35090476D02*
X77652380Y-35661904D01*
X77652380Y-35376190D02*
X76652380Y-35376190D01*
X76795238Y-35471428D01*
X76890476Y-35566666D01*
X76938095Y-35661904D01*
X76652380Y-34185714D02*
X76652380Y-34661904D01*
X77128571Y-34709523D01*
X77080952Y-34661904D01*
X77033333Y-34566666D01*
X77033333Y-34328571D01*
X77080952Y-34233333D01*
X77128571Y-34185714D01*
X77223809Y-34138095D01*
X77461904Y-34138095D01*
X77557142Y-34185714D01*
X77604761Y-34233333D01*
X77652380Y-34328571D01*
X77652380Y-34566666D01*
X77604761Y-34661904D01*
X77557142Y-34709523D01*
X80357142Y-71452380D02*
X80023809Y-70976190D01*
X79785714Y-71452380D02*
X79785714Y-70452380D01*
X80166666Y-70452380D01*
X80261904Y-70500000D01*
X80309523Y-70547619D01*
X80357142Y-70642857D01*
X80357142Y-70785714D01*
X80309523Y-70880952D01*
X80261904Y-70928571D01*
X80166666Y-70976190D01*
X79785714Y-70976190D01*
X81309523Y-71452380D02*
X80738095Y-71452380D01*
X81023809Y-71452380D02*
X81023809Y-70452380D01*
X80928571Y-70595238D01*
X80833333Y-70690476D01*
X80738095Y-70738095D01*
X82166666Y-70452380D02*
X81976190Y-70452380D01*
X81880952Y-70500000D01*
X81833333Y-70547619D01*
X81738095Y-70690476D01*
X81690476Y-70880952D01*
X81690476Y-71261904D01*
X81738095Y-71357142D01*
X81785714Y-71404761D01*
X81880952Y-71452380D01*
X82071428Y-71452380D01*
X82166666Y-71404761D01*
X82214285Y-71357142D01*
X82261904Y-71261904D01*
X82261904Y-71023809D01*
X82214285Y-70928571D01*
X82166666Y-70880952D01*
X82071428Y-70833333D01*
X81880952Y-70833333D01*
X81785714Y-70880952D01*
X81738095Y-70928571D01*
X81690476Y-71023809D01*
X80552142Y-89652380D02*
X80218809Y-89176190D01*
X79980714Y-89652380D02*
X79980714Y-88652380D01*
X80361666Y-88652380D01*
X80456904Y-88700000D01*
X80504523Y-88747619D01*
X80552142Y-88842857D01*
X80552142Y-88985714D01*
X80504523Y-89080952D01*
X80456904Y-89128571D01*
X80361666Y-89176190D01*
X79980714Y-89176190D01*
X81504523Y-89652380D02*
X80933095Y-89652380D01*
X81218809Y-89652380D02*
X81218809Y-88652380D01*
X81123571Y-88795238D01*
X81028333Y-88890476D01*
X80933095Y-88938095D01*
X81837857Y-88652380D02*
X82504523Y-88652380D01*
X82075952Y-89652380D01*
X69957142Y-86252380D02*
X69623809Y-85776190D01*
X69385714Y-86252380D02*
X69385714Y-85252380D01*
X69766666Y-85252380D01*
X69861904Y-85300000D01*
X69909523Y-85347619D01*
X69957142Y-85442857D01*
X69957142Y-85585714D01*
X69909523Y-85680952D01*
X69861904Y-85728571D01*
X69766666Y-85776190D01*
X69385714Y-85776190D01*
X70909523Y-86252380D02*
X70338095Y-86252380D01*
X70623809Y-86252380D02*
X70623809Y-85252380D01*
X70528571Y-85395238D01*
X70433333Y-85490476D01*
X70338095Y-85538095D01*
X71480952Y-85680952D02*
X71385714Y-85633333D01*
X71338095Y-85585714D01*
X71290476Y-85490476D01*
X71290476Y-85442857D01*
X71338095Y-85347619D01*
X71385714Y-85300000D01*
X71480952Y-85252380D01*
X71671428Y-85252380D01*
X71766666Y-85300000D01*
X71814285Y-85347619D01*
X71861904Y-85442857D01*
X71861904Y-85490476D01*
X71814285Y-85585714D01*
X71766666Y-85633333D01*
X71671428Y-85680952D01*
X71480952Y-85680952D01*
X71385714Y-85728571D01*
X71338095Y-85776190D01*
X71290476Y-85871428D01*
X71290476Y-86061904D01*
X71338095Y-86157142D01*
X71385714Y-86204761D01*
X71480952Y-86252380D01*
X71671428Y-86252380D01*
X71766666Y-86204761D01*
X71814285Y-86157142D01*
X71861904Y-86061904D01*
X71861904Y-85871428D01*
X71814285Y-85776190D01*
X71766666Y-85728571D01*
X71671428Y-85680952D01*
X76757142Y-68452380D02*
X76423809Y-67976190D01*
X76185714Y-68452380D02*
X76185714Y-67452380D01*
X76566666Y-67452380D01*
X76661904Y-67500000D01*
X76709523Y-67547619D01*
X76757142Y-67642857D01*
X76757142Y-67785714D01*
X76709523Y-67880952D01*
X76661904Y-67928571D01*
X76566666Y-67976190D01*
X76185714Y-67976190D01*
X77709523Y-68452380D02*
X77138095Y-68452380D01*
X77423809Y-68452380D02*
X77423809Y-67452380D01*
X77328571Y-67595238D01*
X77233333Y-67690476D01*
X77138095Y-67738095D01*
X78185714Y-68452380D02*
X78376190Y-68452380D01*
X78471428Y-68404761D01*
X78519047Y-68357142D01*
X78614285Y-68214285D01*
X78661904Y-68023809D01*
X78661904Y-67642857D01*
X78614285Y-67547619D01*
X78566666Y-67500000D01*
X78471428Y-67452380D01*
X78280952Y-67452380D01*
X78185714Y-67500000D01*
X78138095Y-67547619D01*
X78090476Y-67642857D01*
X78090476Y-67880952D01*
X78138095Y-67976190D01*
X78185714Y-68023809D01*
X78280952Y-68071428D01*
X78471428Y-68071428D01*
X78566666Y-68023809D01*
X78614285Y-67976190D01*
X78661904Y-67880952D01*
X73957142Y-88052380D02*
X73623809Y-87576190D01*
X73385714Y-88052380D02*
X73385714Y-87052380D01*
X73766666Y-87052380D01*
X73861904Y-87100000D01*
X73909523Y-87147619D01*
X73957142Y-87242857D01*
X73957142Y-87385714D01*
X73909523Y-87480952D01*
X73861904Y-87528571D01*
X73766666Y-87576190D01*
X73385714Y-87576190D01*
X74338095Y-87147619D02*
X74385714Y-87100000D01*
X74480952Y-87052380D01*
X74719047Y-87052380D01*
X74814285Y-87100000D01*
X74861904Y-87147619D01*
X74909523Y-87242857D01*
X74909523Y-87338095D01*
X74861904Y-87480952D01*
X74290476Y-88052380D01*
X74909523Y-88052380D01*
X75528571Y-87052380D02*
X75623809Y-87052380D01*
X75719047Y-87100000D01*
X75766666Y-87147619D01*
X75814285Y-87242857D01*
X75861904Y-87433333D01*
X75861904Y-87671428D01*
X75814285Y-87861904D01*
X75766666Y-87957142D01*
X75719047Y-88004761D01*
X75623809Y-88052380D01*
X75528571Y-88052380D01*
X75433333Y-88004761D01*
X75385714Y-87957142D01*
X75338095Y-87861904D01*
X75290476Y-87671428D01*
X75290476Y-87433333D01*
X75338095Y-87242857D01*
X75385714Y-87147619D01*
X75433333Y-87100000D01*
X75528571Y-87052380D01*
X71052380Y-77242857D02*
X70576190Y-77576190D01*
X71052380Y-77814285D02*
X70052380Y-77814285D01*
X70052380Y-77433333D01*
X70100000Y-77338095D01*
X70147619Y-77290476D01*
X70242857Y-77242857D01*
X70385714Y-77242857D01*
X70480952Y-77290476D01*
X70528571Y-77338095D01*
X70576190Y-77433333D01*
X70576190Y-77814285D01*
X70147619Y-76861904D02*
X70100000Y-76814285D01*
X70052380Y-76719047D01*
X70052380Y-76480952D01*
X70100000Y-76385714D01*
X70147619Y-76338095D01*
X70242857Y-76290476D01*
X70338095Y-76290476D01*
X70480952Y-76338095D01*
X71052380Y-76909523D01*
X71052380Y-76290476D01*
X71052380Y-75338095D02*
X71052380Y-75909523D01*
X71052380Y-75623809D02*
X70052380Y-75623809D01*
X70195238Y-75719047D01*
X70290476Y-75814285D01*
X70338095Y-75909523D01*
X49452380Y-79842857D02*
X48976190Y-80176190D01*
X49452380Y-80414285D02*
X48452380Y-80414285D01*
X48452380Y-80033333D01*
X48500000Y-79938095D01*
X48547619Y-79890476D01*
X48642857Y-79842857D01*
X48785714Y-79842857D01*
X48880952Y-79890476D01*
X48928571Y-79938095D01*
X48976190Y-80033333D01*
X48976190Y-80414285D01*
X48547619Y-79461904D02*
X48500000Y-79414285D01*
X48452380Y-79319047D01*
X48452380Y-79080952D01*
X48500000Y-78985714D01*
X48547619Y-78938095D01*
X48642857Y-78890476D01*
X48738095Y-78890476D01*
X48880952Y-78938095D01*
X49452380Y-79509523D01*
X49452380Y-78890476D01*
X48547619Y-78509523D02*
X48500000Y-78461904D01*
X48452380Y-78366666D01*
X48452380Y-78128571D01*
X48500000Y-78033333D01*
X48547619Y-77985714D01*
X48642857Y-77938095D01*
X48738095Y-77938095D01*
X48880952Y-77985714D01*
X49452380Y-78557142D01*
X49452380Y-77938095D01*
X53052380Y-79842857D02*
X52576190Y-80176190D01*
X53052380Y-80414285D02*
X52052380Y-80414285D01*
X52052380Y-80033333D01*
X52100000Y-79938095D01*
X52147619Y-79890476D01*
X52242857Y-79842857D01*
X52385714Y-79842857D01*
X52480952Y-79890476D01*
X52528571Y-79938095D01*
X52576190Y-80033333D01*
X52576190Y-80414285D01*
X52147619Y-79461904D02*
X52100000Y-79414285D01*
X52052380Y-79319047D01*
X52052380Y-79080952D01*
X52100000Y-78985714D01*
X52147619Y-78938095D01*
X52242857Y-78890476D01*
X52338095Y-78890476D01*
X52480952Y-78938095D01*
X53052380Y-79509523D01*
X53052380Y-78890476D01*
X52052380Y-78557142D02*
X52052380Y-77938095D01*
X52433333Y-78271428D01*
X52433333Y-78128571D01*
X52480952Y-78033333D01*
X52528571Y-77985714D01*
X52623809Y-77938095D01*
X52861904Y-77938095D01*
X52957142Y-77985714D01*
X53004761Y-78033333D01*
X53052380Y-78128571D01*
X53052380Y-78414285D01*
X53004761Y-78509523D01*
X52957142Y-78557142D01*
X60252380Y-39442857D02*
X59776190Y-39776190D01*
X60252380Y-40014285D02*
X59252380Y-40014285D01*
X59252380Y-39633333D01*
X59300000Y-39538095D01*
X59347619Y-39490476D01*
X59442857Y-39442857D01*
X59585714Y-39442857D01*
X59680952Y-39490476D01*
X59728571Y-39538095D01*
X59776190Y-39633333D01*
X59776190Y-40014285D01*
X59347619Y-39061904D02*
X59300000Y-39014285D01*
X59252380Y-38919047D01*
X59252380Y-38680952D01*
X59300000Y-38585714D01*
X59347619Y-38538095D01*
X59442857Y-38490476D01*
X59538095Y-38490476D01*
X59680952Y-38538095D01*
X60252380Y-39109523D01*
X60252380Y-38490476D01*
X59252380Y-37585714D02*
X59252380Y-38061904D01*
X59728571Y-38109523D01*
X59680952Y-38061904D01*
X59633333Y-37966666D01*
X59633333Y-37728571D01*
X59680952Y-37633333D01*
X59728571Y-37585714D01*
X59823809Y-37538095D01*
X60061904Y-37538095D01*
X60157142Y-37585714D01*
X60204761Y-37633333D01*
X60252380Y-37728571D01*
X60252380Y-37966666D01*
X60204761Y-38061904D01*
X60157142Y-38109523D01*
X63252380Y-39442857D02*
X62776190Y-39776190D01*
X63252380Y-40014285D02*
X62252380Y-40014285D01*
X62252380Y-39633333D01*
X62300000Y-39538095D01*
X62347619Y-39490476D01*
X62442857Y-39442857D01*
X62585714Y-39442857D01*
X62680952Y-39490476D01*
X62728571Y-39538095D01*
X62776190Y-39633333D01*
X62776190Y-40014285D01*
X62347619Y-39061904D02*
X62300000Y-39014285D01*
X62252380Y-38919047D01*
X62252380Y-38680952D01*
X62300000Y-38585714D01*
X62347619Y-38538095D01*
X62442857Y-38490476D01*
X62538095Y-38490476D01*
X62680952Y-38538095D01*
X63252380Y-39109523D01*
X63252380Y-38490476D01*
X62252380Y-37633333D02*
X62252380Y-37823809D01*
X62300000Y-37919047D01*
X62347619Y-37966666D01*
X62490476Y-38061904D01*
X62680952Y-38109523D01*
X63061904Y-38109523D01*
X63157142Y-38061904D01*
X63204761Y-38014285D01*
X63252380Y-37919047D01*
X63252380Y-37728571D01*
X63204761Y-37633333D01*
X63157142Y-37585714D01*
X63061904Y-37538095D01*
X62823809Y-37538095D01*
X62728571Y-37585714D01*
X62680952Y-37633333D01*
X62633333Y-37728571D01*
X62633333Y-37919047D01*
X62680952Y-38014285D01*
X62728571Y-38061904D01*
X62823809Y-38109523D01*
X61852380Y-39442857D02*
X61376190Y-39776190D01*
X61852380Y-40014285D02*
X60852380Y-40014285D01*
X60852380Y-39633333D01*
X60900000Y-39538095D01*
X60947619Y-39490476D01*
X61042857Y-39442857D01*
X61185714Y-39442857D01*
X61280952Y-39490476D01*
X61328571Y-39538095D01*
X61376190Y-39633333D01*
X61376190Y-40014285D01*
X60947619Y-39061904D02*
X60900000Y-39014285D01*
X60852380Y-38919047D01*
X60852380Y-38680952D01*
X60900000Y-38585714D01*
X60947619Y-38538095D01*
X61042857Y-38490476D01*
X61138095Y-38490476D01*
X61280952Y-38538095D01*
X61852380Y-39109523D01*
X61852380Y-38490476D01*
X61280952Y-37919047D02*
X61233333Y-38014285D01*
X61185714Y-38061904D01*
X61090476Y-38109523D01*
X61042857Y-38109523D01*
X60947619Y-38061904D01*
X60900000Y-38014285D01*
X60852380Y-37919047D01*
X60852380Y-37728571D01*
X60900000Y-37633333D01*
X60947619Y-37585714D01*
X61042857Y-37538095D01*
X61090476Y-37538095D01*
X61185714Y-37585714D01*
X61233333Y-37633333D01*
X61280952Y-37728571D01*
X61280952Y-37919047D01*
X61328571Y-38014285D01*
X61376190Y-38061904D01*
X61471428Y-38109523D01*
X61661904Y-38109523D01*
X61757142Y-38061904D01*
X61804761Y-38014285D01*
X61852380Y-37919047D01*
X61852380Y-37728571D01*
X61804761Y-37633333D01*
X61757142Y-37585714D01*
X61661904Y-37538095D01*
X61471428Y-37538095D01*
X61376190Y-37585714D01*
X61328571Y-37633333D01*
X61280952Y-37728571D01*
X64852380Y-39442857D02*
X64376190Y-39776190D01*
X64852380Y-40014285D02*
X63852380Y-40014285D01*
X63852380Y-39633333D01*
X63900000Y-39538095D01*
X63947619Y-39490476D01*
X64042857Y-39442857D01*
X64185714Y-39442857D01*
X64280952Y-39490476D01*
X64328571Y-39538095D01*
X64376190Y-39633333D01*
X64376190Y-40014285D01*
X63947619Y-39061904D02*
X63900000Y-39014285D01*
X63852380Y-38919047D01*
X63852380Y-38680952D01*
X63900000Y-38585714D01*
X63947619Y-38538095D01*
X64042857Y-38490476D01*
X64138095Y-38490476D01*
X64280952Y-38538095D01*
X64852380Y-39109523D01*
X64852380Y-38490476D01*
X64852380Y-38014285D02*
X64852380Y-37823809D01*
X64804761Y-37728571D01*
X64757142Y-37680952D01*
X64614285Y-37585714D01*
X64423809Y-37538095D01*
X64042857Y-37538095D01*
X63947619Y-37585714D01*
X63900000Y-37633333D01*
X63852380Y-37728571D01*
X63852380Y-37919047D01*
X63900000Y-38014285D01*
X63947619Y-38061904D01*
X64042857Y-38109523D01*
X64280952Y-38109523D01*
X64376190Y-38061904D01*
X64423809Y-38014285D01*
X64471428Y-37919047D01*
X64471428Y-37728571D01*
X64423809Y-37633333D01*
X64376190Y-37585714D01*
X64280952Y-37538095D01*
X66452380Y-39442857D02*
X65976190Y-39776190D01*
X66452380Y-40014285D02*
X65452380Y-40014285D01*
X65452380Y-39633333D01*
X65500000Y-39538095D01*
X65547619Y-39490476D01*
X65642857Y-39442857D01*
X65785714Y-39442857D01*
X65880952Y-39490476D01*
X65928571Y-39538095D01*
X65976190Y-39633333D01*
X65976190Y-40014285D01*
X65452380Y-39109523D02*
X65452380Y-38490476D01*
X65833333Y-38823809D01*
X65833333Y-38680952D01*
X65880952Y-38585714D01*
X65928571Y-38538095D01*
X66023809Y-38490476D01*
X66261904Y-38490476D01*
X66357142Y-38538095D01*
X66404761Y-38585714D01*
X66452380Y-38680952D01*
X66452380Y-38966666D01*
X66404761Y-39061904D01*
X66357142Y-39109523D01*
X65452380Y-37871428D02*
X65452380Y-37776190D01*
X65500000Y-37680952D01*
X65547619Y-37633333D01*
X65642857Y-37585714D01*
X65833333Y-37538095D01*
X66071428Y-37538095D01*
X66261904Y-37585714D01*
X66357142Y-37633333D01*
X66404761Y-37680952D01*
X66452380Y-37776190D01*
X66452380Y-37871428D01*
X66404761Y-37966666D01*
X66357142Y-38014285D01*
X66261904Y-38061904D01*
X66071428Y-38109523D01*
X65833333Y-38109523D01*
X65642857Y-38061904D01*
X65547619Y-38014285D01*
X65500000Y-37966666D01*
X65452380Y-37871428D01*
X82452380Y-85242857D02*
X81976190Y-85576190D01*
X82452380Y-85814285D02*
X81452380Y-85814285D01*
X81452380Y-85433333D01*
X81500000Y-85338095D01*
X81547619Y-85290476D01*
X81642857Y-85242857D01*
X81785714Y-85242857D01*
X81880952Y-85290476D01*
X81928571Y-85338095D01*
X81976190Y-85433333D01*
X81976190Y-85814285D01*
X81452380Y-84909523D02*
X81452380Y-84290476D01*
X81833333Y-84623809D01*
X81833333Y-84480952D01*
X81880952Y-84385714D01*
X81928571Y-84338095D01*
X82023809Y-84290476D01*
X82261904Y-84290476D01*
X82357142Y-84338095D01*
X82404761Y-84385714D01*
X82452380Y-84480952D01*
X82452380Y-84766666D01*
X82404761Y-84861904D01*
X82357142Y-84909523D01*
X82452380Y-83338095D02*
X82452380Y-83909523D01*
X82452380Y-83623809D02*
X81452380Y-83623809D01*
X81595238Y-83719047D01*
X81690476Y-83814285D01*
X81738095Y-83909523D01*
X75652380Y-36090476D02*
X75176190Y-36423809D01*
X75652380Y-36661904D02*
X74652380Y-36661904D01*
X74652380Y-36280952D01*
X74700000Y-36185714D01*
X74747619Y-36138095D01*
X74842857Y-36090476D01*
X74985714Y-36090476D01*
X75080952Y-36138095D01*
X75128571Y-36185714D01*
X75176190Y-36280952D01*
X75176190Y-36661904D01*
X75652380Y-35661904D02*
X74652380Y-35661904D01*
X75652380Y-35090476D01*
X74652380Y-35090476D01*
X75652380Y-34090476D02*
X75652380Y-34661904D01*
X75652380Y-34376190D02*
X74652380Y-34376190D01*
X74795238Y-34471428D01*
X74890476Y-34566666D01*
X74938095Y-34661904D01*
X85752380Y-40727380D02*
X85419047Y-40251190D01*
X85180952Y-40727380D02*
X85180952Y-39727380D01*
X85561904Y-39727380D01*
X85657142Y-39775000D01*
X85704761Y-39822619D01*
X85752380Y-39917857D01*
X85752380Y-40060714D01*
X85704761Y-40155952D01*
X85657142Y-40203571D01*
X85561904Y-40251190D01*
X85180952Y-40251190D01*
X86133333Y-40679761D02*
X86276190Y-40727380D01*
X86514285Y-40727380D01*
X86609523Y-40679761D01*
X86657142Y-40632142D01*
X86704761Y-40536904D01*
X86704761Y-40441666D01*
X86657142Y-40346428D01*
X86609523Y-40298809D01*
X86514285Y-40251190D01*
X86323809Y-40203571D01*
X86228571Y-40155952D01*
X86180952Y-40108333D01*
X86133333Y-40013095D01*
X86133333Y-39917857D01*
X86180952Y-39822619D01*
X86228571Y-39775000D01*
X86323809Y-39727380D01*
X86561904Y-39727380D01*
X86704761Y-39775000D01*
X86990476Y-39727380D02*
X87561904Y-39727380D01*
X87276190Y-40727380D02*
X87276190Y-39727380D01*
X73418095Y-68304380D02*
X73989523Y-68304380D01*
X73703809Y-69304380D02*
X73703809Y-68304380D01*
X74322857Y-69304380D02*
X74322857Y-68304380D01*
X74703809Y-68304380D01*
X74799047Y-68352000D01*
X74846666Y-68399619D01*
X74894285Y-68494857D01*
X74894285Y-68637714D01*
X74846666Y-68732952D01*
X74799047Y-68780571D01*
X74703809Y-68828190D01*
X74322857Y-68828190D01*
X75846666Y-69304380D02*
X75275238Y-69304380D01*
X75560952Y-69304380D02*
X75560952Y-68304380D01*
X75465714Y-68447238D01*
X75370476Y-68542476D01*
X75275238Y-68590095D01*
X73763095Y-83529380D02*
X74334523Y-83529380D01*
X74048809Y-84529380D02*
X74048809Y-83529380D01*
X74667857Y-84529380D02*
X74667857Y-83529380D01*
X75048809Y-83529380D01*
X75144047Y-83577000D01*
X75191666Y-83624619D01*
X75239285Y-83719857D01*
X75239285Y-83862714D01*
X75191666Y-83957952D01*
X75144047Y-84005571D01*
X75048809Y-84053190D01*
X74667857Y-84053190D01*
X75620238Y-83624619D02*
X75667857Y-83577000D01*
X75763095Y-83529380D01*
X76001190Y-83529380D01*
X76096428Y-83577000D01*
X76144047Y-83624619D01*
X76191666Y-83719857D01*
X76191666Y-83815095D01*
X76144047Y-83957952D01*
X75572619Y-84529380D01*
X76191666Y-84529380D01*
X71163095Y-74879380D02*
X71734523Y-74879380D01*
X71448809Y-75879380D02*
X71448809Y-74879380D01*
X72067857Y-75879380D02*
X72067857Y-74879380D01*
X72448809Y-74879380D01*
X72544047Y-74927000D01*
X72591666Y-74974619D01*
X72639285Y-75069857D01*
X72639285Y-75212714D01*
X72591666Y-75307952D01*
X72544047Y-75355571D01*
X72448809Y-75403190D01*
X72067857Y-75403190D01*
X72972619Y-74879380D02*
X73591666Y-74879380D01*
X73258333Y-75260333D01*
X73401190Y-75260333D01*
X73496428Y-75307952D01*
X73544047Y-75355571D01*
X73591666Y-75450809D01*
X73591666Y-75688904D01*
X73544047Y-75784142D01*
X73496428Y-75831761D01*
X73401190Y-75879380D01*
X73115476Y-75879380D01*
X73020238Y-75831761D01*
X72972619Y-75784142D01*
X51038095Y-55052380D02*
X51038095Y-55861904D01*
X51085714Y-55957142D01*
X51133333Y-56004761D01*
X51228571Y-56052380D01*
X51419047Y-56052380D01*
X51514285Y-56004761D01*
X51561904Y-55957142D01*
X51609523Y-55861904D01*
X51609523Y-55052380D01*
X52609523Y-56052380D02*
X52038095Y-56052380D01*
X52323809Y-56052380D02*
X52323809Y-55052380D01*
X52228571Y-55195238D01*
X52133333Y-55290476D01*
X52038095Y-55338095D01*
X67252380Y-41361904D02*
X68061904Y-41361904D01*
X68157142Y-41314285D01*
X68204761Y-41266666D01*
X68252380Y-41171428D01*
X68252380Y-40980952D01*
X68204761Y-40885714D01*
X68157142Y-40838095D01*
X68061904Y-40790476D01*
X67252380Y-40790476D01*
X67347619Y-40361904D02*
X67300000Y-40314285D01*
X67252380Y-40219047D01*
X67252380Y-39980952D01*
X67300000Y-39885714D01*
X67347619Y-39838095D01*
X67442857Y-39790476D01*
X67538095Y-39790476D01*
X67680952Y-39838095D01*
X68252380Y-40409523D01*
X68252380Y-39790476D01*
X61252380Y-74161904D02*
X62061904Y-74161904D01*
X62157142Y-74114285D01*
X62204761Y-74066666D01*
X62252380Y-73971428D01*
X62252380Y-73780952D01*
X62204761Y-73685714D01*
X62157142Y-73638095D01*
X62061904Y-73590476D01*
X61252380Y-73590476D01*
X61252380Y-73209523D02*
X61252380Y-72590476D01*
X61633333Y-72923809D01*
X61633333Y-72780952D01*
X61680952Y-72685714D01*
X61728571Y-72638095D01*
X61823809Y-72590476D01*
X62061904Y-72590476D01*
X62157142Y-72638095D01*
X62204761Y-72685714D01*
X62252380Y-72780952D01*
X62252380Y-73066666D01*
X62204761Y-73161904D01*
X62157142Y-73209523D01*
X46438095Y-49252380D02*
X46438095Y-50061904D01*
X46485714Y-50157142D01*
X46533333Y-50204761D01*
X46628571Y-50252380D01*
X46819047Y-50252380D01*
X46914285Y-50204761D01*
X46961904Y-50157142D01*
X47009523Y-50061904D01*
X47009523Y-49252380D01*
X47914285Y-49585714D02*
X47914285Y-50252380D01*
X47676190Y-49204761D02*
X47438095Y-49919047D01*
X48057142Y-49919047D01*
X74238095Y-76652380D02*
X74238095Y-77461904D01*
X74285714Y-77557142D01*
X74333333Y-77604761D01*
X74428571Y-77652380D01*
X74619047Y-77652380D01*
X74714285Y-77604761D01*
X74761904Y-77557142D01*
X74809523Y-77461904D01*
X74809523Y-76652380D01*
X75761904Y-76652380D02*
X75285714Y-76652380D01*
X75238095Y-77128571D01*
X75285714Y-77080952D01*
X75380952Y-77033333D01*
X75619047Y-77033333D01*
X75714285Y-77080952D01*
X75761904Y-77128571D01*
X75809523Y-77223809D01*
X75809523Y-77461904D01*
X75761904Y-77557142D01*
X75714285Y-77604761D01*
X75619047Y-77652380D01*
X75380952Y-77652380D01*
X75285714Y-77604761D01*
X75238095Y-77557142D01*
X65923809Y-59576190D02*
X65923809Y-60052380D01*
X65590476Y-59052380D02*
X65923809Y-59576190D01*
X66257142Y-59052380D01*
X67114285Y-60052380D02*
X66542857Y-60052380D01*
X66828571Y-60052380D02*
X66828571Y-59052380D01*
X66733333Y-59195238D01*
X66638095Y-59290476D01*
X66542857Y-59338095D01*
X66323809Y-83376190D02*
X66323809Y-83852380D01*
X65990476Y-82852380D02*
X66323809Y-83376190D01*
X66657142Y-82852380D01*
X66942857Y-82947619D02*
X66990476Y-82900000D01*
X67085714Y-82852380D01*
X67323809Y-82852380D01*
X67419047Y-82900000D01*
X67466666Y-82947619D01*
X67514285Y-83042857D01*
X67514285Y-83138095D01*
X67466666Y-83280952D01*
X66895238Y-83852380D01*
X67514285Y-83852380D01*
X56942380Y-51498095D02*
X55942380Y-51498095D01*
X55942380Y-51260000D01*
X55990000Y-51117142D01*
X56085238Y-51021904D01*
X56180476Y-50974285D01*
X56370952Y-50926666D01*
X56513809Y-50926666D01*
X56704285Y-50974285D01*
X56799523Y-51021904D01*
X56894761Y-51117142D01*
X56942380Y-51260000D01*
X56942380Y-51498095D01*
X55942380Y-50593333D02*
X55942380Y-49974285D01*
X56323333Y-50307619D01*
X56323333Y-50164761D01*
X56370952Y-50069523D01*
X56418571Y-50021904D01*
X56513809Y-49974285D01*
X56751904Y-49974285D01*
X56847142Y-50021904D01*
X56894761Y-50069523D01*
X56942380Y-50164761D01*
X56942380Y-50450476D01*
X56894761Y-50545714D01*
X56847142Y-50593333D01*
X58652380Y-71042857D02*
X58176190Y-71376190D01*
X58652380Y-71614285D02*
X57652380Y-71614285D01*
X57652380Y-71233333D01*
X57700000Y-71138095D01*
X57747619Y-71090476D01*
X57842857Y-71042857D01*
X57985714Y-71042857D01*
X58080952Y-71090476D01*
X58128571Y-71138095D01*
X58176190Y-71233333D01*
X58176190Y-71614285D01*
X57652380Y-70709523D02*
X57652380Y-70090476D01*
X58033333Y-70423809D01*
X58033333Y-70280952D01*
X58080952Y-70185714D01*
X58128571Y-70138095D01*
X58223809Y-70090476D01*
X58461904Y-70090476D01*
X58557142Y-70138095D01*
X58604761Y-70185714D01*
X58652380Y-70280952D01*
X58652380Y-70566666D01*
X58604761Y-70661904D01*
X58557142Y-70709523D01*
X57747619Y-69709523D02*
X57700000Y-69661904D01*
X57652380Y-69566666D01*
X57652380Y-69328571D01*
X57700000Y-69233333D01*
X57747619Y-69185714D01*
X57842857Y-69138095D01*
X57938095Y-69138095D01*
X58080952Y-69185714D01*
X58652380Y-69757142D01*
X58652380Y-69138095D01*
X57252380Y-71042857D02*
X56776190Y-71376190D01*
X57252380Y-71614285D02*
X56252380Y-71614285D01*
X56252380Y-71233333D01*
X56300000Y-71138095D01*
X56347619Y-71090476D01*
X56442857Y-71042857D01*
X56585714Y-71042857D01*
X56680952Y-71090476D01*
X56728571Y-71138095D01*
X56776190Y-71233333D01*
X56776190Y-71614285D01*
X56252380Y-70709523D02*
X56252380Y-70090476D01*
X56633333Y-70423809D01*
X56633333Y-70280952D01*
X56680952Y-70185714D01*
X56728571Y-70138095D01*
X56823809Y-70090476D01*
X57061904Y-70090476D01*
X57157142Y-70138095D01*
X57204761Y-70185714D01*
X57252380Y-70280952D01*
X57252380Y-70566666D01*
X57204761Y-70661904D01*
X57157142Y-70709523D01*
X56252380Y-69757142D02*
X56252380Y-69138095D01*
X56633333Y-69471428D01*
X56633333Y-69328571D01*
X56680952Y-69233333D01*
X56728571Y-69185714D01*
X56823809Y-69138095D01*
X57061904Y-69138095D01*
X57157142Y-69185714D01*
X57204761Y-69233333D01*
X57252380Y-69328571D01*
X57252380Y-69614285D01*
X57204761Y-69709523D01*
X57157142Y-69757142D01*
M02*
