G04 #@! TF.GenerationSoftware,KiCad,Pcbnew,(5.1.5)-3*
G04 #@! TF.CreationDate,2020-11-16T20:41:40+08:00*
G04 #@! TF.ProjectId,F1C100s-i80,46314331-3030-4732-9d69-38302e6b6963,rev?*
G04 #@! TF.SameCoordinates,Original*
G04 #@! TF.FileFunction,Legend,Top*
G04 #@! TF.FilePolarity,Positive*
%FSLAX46Y46*%
G04 Gerber Fmt 4.6, Leading zero omitted, Abs format (unit mm)*
G04 Created by KiCad (PCBNEW (5.1.5)-3) date 2020-11-16 20:41:40*
%MOMM*%
%LPD*%
G04 APERTURE LIST*
%ADD10C,0.375000*%
%ADD11C,0.400000*%
%ADD12C,0.150000*%
%ADD13C,0.120000*%
%ADD14C,0.300000*%
%ADD15C,0.200000*%
G04 APERTURE END LIST*
D10*
X78442857Y-51540290D02*
X78300000Y-51451004D01*
X78157142Y-51290290D01*
X78157142Y-50933147D01*
X78300000Y-50808147D01*
X78442857Y-50754575D01*
X78728571Y-50718861D01*
X79014285Y-50754575D01*
X79442857Y-50879575D01*
X81157142Y-51951004D01*
X81157142Y-51022433D01*
X78157142Y-49718861D02*
X78157142Y-49576004D01*
X78300000Y-49451004D01*
X78442857Y-49397433D01*
X78728571Y-49361718D01*
X79300000Y-49361718D01*
X80014285Y-49451004D01*
X80585714Y-49593861D01*
X80871428Y-49701004D01*
X81014285Y-49790290D01*
X81157142Y-49951004D01*
X81157142Y-50093861D01*
X81014285Y-50218861D01*
X80871428Y-50272433D01*
X80585714Y-50308147D01*
X80014285Y-50308147D01*
X79300000Y-50218861D01*
X78728571Y-50076004D01*
X78442857Y-49968861D01*
X78300000Y-49879575D01*
X78157142Y-49718861D01*
X81157142Y-48165290D02*
X81157142Y-49022433D01*
X81157142Y-48593861D02*
X78157142Y-48218861D01*
X78585714Y-48415290D01*
X78871428Y-48593861D01*
X79014285Y-48754575D01*
X81157142Y-47451004D02*
X81157142Y-47165290D01*
X81014285Y-47004575D01*
X80871428Y-46915290D01*
X80442857Y-46718861D01*
X79871428Y-46576004D01*
X78728571Y-46433147D01*
X78442857Y-46468861D01*
X78300000Y-46522433D01*
X78157142Y-46647433D01*
X78157142Y-46933147D01*
X78300000Y-47093861D01*
X78442857Y-47183147D01*
X78728571Y-47290290D01*
X79442857Y-47379575D01*
X79728571Y-47343861D01*
X79871428Y-47290290D01*
X80014285Y-47165290D01*
X80014285Y-46879575D01*
X79871428Y-46718861D01*
X79728571Y-46629575D01*
X79442857Y-46522433D01*
X80014285Y-45951004D02*
X80014285Y-44808147D01*
X81157142Y-43451004D02*
X81157142Y-44308147D01*
X81157142Y-43879575D02*
X78157142Y-43504575D01*
X78585714Y-43701004D01*
X78871428Y-43879575D01*
X79014285Y-44040290D01*
X78442857Y-42540290D02*
X78300000Y-42451004D01*
X78157142Y-42290290D01*
X78157142Y-41933147D01*
X78300000Y-41808147D01*
X78442857Y-41754575D01*
X78728571Y-41718861D01*
X79014285Y-41754575D01*
X79442857Y-41879575D01*
X81157142Y-42951004D01*
X81157142Y-42022433D01*
X80014285Y-41236718D02*
X80014285Y-40093861D01*
X78442857Y-39254575D02*
X78300000Y-39165290D01*
X78157142Y-39004575D01*
X78157142Y-38647433D01*
X78300000Y-38522433D01*
X78442857Y-38468861D01*
X78728571Y-38433147D01*
X79014285Y-38468861D01*
X79442857Y-38593861D01*
X81157142Y-39665290D01*
X81157142Y-38736718D01*
X79442857Y-37665290D02*
X79300000Y-37790290D01*
X79157142Y-37843861D01*
X78871428Y-37879575D01*
X78728571Y-37861718D01*
X78442857Y-37754575D01*
X78300000Y-37665290D01*
X78157142Y-37504575D01*
X78157142Y-37218861D01*
X78300000Y-37093861D01*
X78442857Y-37040290D01*
X78728571Y-37004575D01*
X78871428Y-37022433D01*
X79157142Y-37129575D01*
X79300000Y-37218861D01*
X79442857Y-37379575D01*
X79442857Y-37665290D01*
X79585714Y-37826004D01*
X79728571Y-37915290D01*
X80014285Y-38022433D01*
X80585714Y-38093861D01*
X80871428Y-38058147D01*
X81014285Y-38004575D01*
X81157142Y-37879575D01*
X81157142Y-37593861D01*
X81014285Y-37433147D01*
X80871428Y-37343861D01*
X80585714Y-37236718D01*
X80014285Y-37165290D01*
X79728571Y-37201004D01*
X79585714Y-37254575D01*
X79442857Y-37379575D01*
D11*
X45671428Y-85645892D02*
X45814285Y-85568511D01*
X45957142Y-85681607D01*
X45814285Y-85758988D01*
X45671428Y-85645892D01*
X45957142Y-85681607D01*
X42957142Y-84639940D02*
X42957142Y-83497083D01*
X45957142Y-84443511D02*
X42957142Y-84068511D01*
X45671428Y-83169702D02*
X45814285Y-83092321D01*
X45957142Y-83205416D01*
X45814285Y-83282797D01*
X45671428Y-83169702D01*
X45957142Y-83205416D01*
X45957142Y-81110178D02*
X44528571Y-81598273D01*
X45957142Y-82253035D02*
X42957142Y-81878035D01*
X42957142Y-81116130D01*
X43100000Y-80943511D01*
X43242857Y-80866130D01*
X43528571Y-80806607D01*
X43957142Y-80860178D01*
X44242857Y-80991130D01*
X44385714Y-81104226D01*
X44528571Y-81312559D01*
X44528571Y-82074464D01*
X45671428Y-80217321D02*
X45814285Y-80139940D01*
X45957142Y-80253035D01*
X45814285Y-80330416D01*
X45671428Y-80217321D01*
X45957142Y-80253035D01*
X44385714Y-79104226D02*
X44385714Y-78437559D01*
X45957142Y-78348273D02*
X45957142Y-79300654D01*
X42957142Y-78925654D01*
X42957142Y-77973273D01*
X45671428Y-77455416D02*
X45814285Y-77378035D01*
X45957142Y-77491130D01*
X45814285Y-77568511D01*
X45671428Y-77455416D01*
X45957142Y-77491130D01*
X45814285Y-76616130D02*
X45957142Y-76348273D01*
X45957142Y-75872083D01*
X45814285Y-75663750D01*
X45671428Y-75550654D01*
X45385714Y-75419702D01*
X45100000Y-75383988D01*
X44814285Y-75443511D01*
X44671428Y-75520892D01*
X44528571Y-75693511D01*
X44385714Y-76056607D01*
X44242857Y-76229226D01*
X44100000Y-76306607D01*
X43814285Y-76366130D01*
X43528571Y-76330416D01*
X43242857Y-76199464D01*
X43100000Y-76086369D01*
X42957142Y-75878035D01*
X42957142Y-75401845D01*
X43100000Y-75133988D01*
X45671428Y-74598273D02*
X45814285Y-74520892D01*
X45957142Y-74633988D01*
X45814285Y-74711369D01*
X45671428Y-74598273D01*
X45957142Y-74633988D01*
X45814285Y-73758988D02*
X45957142Y-73491130D01*
X45957142Y-73014940D01*
X45814285Y-72806607D01*
X45671428Y-72693511D01*
X45385714Y-72562559D01*
X45100000Y-72526845D01*
X44814285Y-72586369D01*
X44671428Y-72663750D01*
X44528571Y-72836369D01*
X44385714Y-73199464D01*
X44242857Y-73372083D01*
X44100000Y-73449464D01*
X43814285Y-73508988D01*
X43528571Y-73473273D01*
X43242857Y-73342321D01*
X43100000Y-73229226D01*
X42957142Y-73020892D01*
X42957142Y-72544702D01*
X43100000Y-72276845D01*
X45671428Y-71741130D02*
X45814285Y-71663750D01*
X45957142Y-71776845D01*
X45814285Y-71854226D01*
X45671428Y-71741130D01*
X45957142Y-71776845D01*
X45100000Y-70812559D02*
X45100000Y-69860178D01*
X45957142Y-71110178D02*
X42957142Y-70068511D01*
X45957142Y-69776845D01*
X45671428Y-69074464D02*
X45814285Y-68997083D01*
X45957142Y-69110178D01*
X45814285Y-69187559D01*
X45671428Y-69074464D01*
X45957142Y-69110178D01*
D12*
X79357157Y-62300000D02*
X79267872Y-62252380D01*
X79125014Y-62252380D01*
X78976205Y-62300000D01*
X78869062Y-62395238D01*
X78809538Y-62490476D01*
X78738110Y-62680952D01*
X78720252Y-62823809D01*
X78744062Y-63014285D01*
X78779776Y-63109523D01*
X78863110Y-63204761D01*
X79000014Y-63252380D01*
X79095252Y-63252380D01*
X79244062Y-63204761D01*
X79297633Y-63157142D01*
X79339300Y-62823809D01*
X79148824Y-62823809D01*
X79714300Y-63252380D02*
X79839300Y-62252380D01*
X80285729Y-63252380D01*
X80410729Y-62252380D01*
X80761919Y-63252380D02*
X80886919Y-62252380D01*
X81125014Y-62252380D01*
X81261919Y-62300000D01*
X81345252Y-62395238D01*
X81380967Y-62490476D01*
X81404776Y-62680952D01*
X81386919Y-62823809D01*
X81315491Y-63014285D01*
X81255967Y-63109523D01*
X81148824Y-63204761D01*
X81000014Y-63252380D01*
X80761919Y-63252380D01*
X78661919Y-60371428D02*
X79423824Y-60371428D01*
X78995252Y-60752380D02*
X79090491Y-59990476D01*
X80453586Y-59752380D02*
X79977395Y-59752380D01*
X79870252Y-60228571D01*
X79923824Y-60180952D01*
X80025014Y-60133333D01*
X80263110Y-60133333D01*
X80352395Y-60180952D01*
X80394062Y-60228571D01*
X80429776Y-60323809D01*
X80400014Y-60561904D01*
X80340491Y-60657142D01*
X80286919Y-60704761D01*
X80185729Y-60752380D01*
X79947633Y-60752380D01*
X79858348Y-60704761D01*
X79816681Y-60657142D01*
X80786919Y-59752380D02*
X80995252Y-60752380D01*
X81453586Y-59752380D01*
X47601205Y-43104761D02*
X47738110Y-43152380D01*
X47976205Y-43152380D01*
X48077395Y-43104761D01*
X48130967Y-43057142D01*
X48190491Y-42961904D01*
X48202395Y-42866666D01*
X48166681Y-42771428D01*
X48125014Y-42723809D01*
X48035729Y-42676190D01*
X47851205Y-42628571D01*
X47761919Y-42580952D01*
X47720252Y-42533333D01*
X47684538Y-42438095D01*
X47696443Y-42342857D01*
X47755967Y-42247619D01*
X47809538Y-42200000D01*
X47910729Y-42152380D01*
X48148824Y-42152380D01*
X48285729Y-42200000D01*
X48595252Y-43152380D02*
X48720252Y-42152380D01*
X49101205Y-42152380D01*
X49190491Y-42200000D01*
X49232157Y-42247619D01*
X49267872Y-42342857D01*
X49250014Y-42485714D01*
X49190491Y-42580952D01*
X49136919Y-42628571D01*
X49035729Y-42676190D01*
X48654776Y-42676190D01*
X49595252Y-43152380D02*
X49720252Y-42152380D01*
X50166681Y-43152380D02*
X49809538Y-42580952D01*
X50291681Y-42152380D02*
X49648824Y-42723809D01*
X50642872Y-42771428D02*
X51404776Y-42771428D01*
X47601205Y-40704761D02*
X47738110Y-40752380D01*
X47976205Y-40752380D01*
X48077395Y-40704761D01*
X48130967Y-40657142D01*
X48190491Y-40561904D01*
X48202395Y-40466666D01*
X48166681Y-40371428D01*
X48125014Y-40323809D01*
X48035729Y-40276190D01*
X47851205Y-40228571D01*
X47761919Y-40180952D01*
X47720252Y-40133333D01*
X47684538Y-40038095D01*
X47696443Y-39942857D01*
X47755967Y-39847619D01*
X47809538Y-39800000D01*
X47910729Y-39752380D01*
X48148824Y-39752380D01*
X48285729Y-39800000D01*
X48595252Y-40752380D02*
X48720252Y-39752380D01*
X49101205Y-39752380D01*
X49190491Y-39800000D01*
X49232157Y-39847619D01*
X49267872Y-39942857D01*
X49250014Y-40085714D01*
X49190491Y-40180952D01*
X49136919Y-40228571D01*
X49035729Y-40276190D01*
X48654776Y-40276190D01*
X49595252Y-40752380D02*
X49720252Y-39752380D01*
X50166681Y-40752380D02*
X49809538Y-40180952D01*
X50291681Y-39752380D02*
X49648824Y-40323809D01*
X50642872Y-40371428D02*
X51404776Y-40371428D01*
X50976205Y-40752380D02*
X51071443Y-39990476D01*
X48157157Y-31758000D02*
X48067872Y-31710380D01*
X47925014Y-31710380D01*
X47776205Y-31758000D01*
X47669062Y-31853238D01*
X47609538Y-31948476D01*
X47538110Y-32138952D01*
X47520252Y-32281809D01*
X47544062Y-32472285D01*
X47579776Y-32567523D01*
X47663110Y-32662761D01*
X47800014Y-32710380D01*
X47895252Y-32710380D01*
X48044062Y-32662761D01*
X48097633Y-32615142D01*
X48139300Y-32281809D01*
X47948824Y-32281809D01*
X48514300Y-32710380D02*
X48639300Y-31710380D01*
X49085729Y-32710380D01*
X49210729Y-31710380D01*
X49561919Y-32710380D02*
X49686919Y-31710380D01*
X49925014Y-31710380D01*
X50061919Y-31758000D01*
X50145252Y-31853238D01*
X50180967Y-31948476D01*
X50204776Y-32138952D01*
X50186919Y-32281809D01*
X50115491Y-32472285D01*
X50055967Y-32567523D01*
X49948824Y-32662761D01*
X49800014Y-32710380D01*
X49561919Y-32710380D01*
X48064967Y-35758380D02*
X47588776Y-35758380D01*
X47713776Y-34758380D01*
X48969729Y-35758380D02*
X48695919Y-35282190D01*
X48398300Y-35758380D02*
X48523300Y-34758380D01*
X48904252Y-34758380D01*
X48993538Y-34806000D01*
X49035205Y-34853619D01*
X49070919Y-34948857D01*
X49053062Y-35091714D01*
X48993538Y-35186952D01*
X48939967Y-35234571D01*
X48838776Y-35282190D01*
X48457824Y-35282190D01*
X49386395Y-35472666D02*
X49862586Y-35472666D01*
X49255443Y-35758380D02*
X49713776Y-34758380D01*
X49922110Y-35758380D01*
X50255443Y-35758380D02*
X50380443Y-34758380D01*
X50618538Y-34758380D01*
X50755443Y-34806000D01*
X50838776Y-34901238D01*
X50874491Y-34996476D01*
X50898300Y-35186952D01*
X50880443Y-35329809D01*
X50809014Y-35520285D01*
X50749491Y-35615523D01*
X50642348Y-35710761D01*
X50493538Y-35758380D01*
X50255443Y-35758380D01*
X51838776Y-35663142D02*
X51785205Y-35710761D01*
X51636395Y-35758380D01*
X51541157Y-35758380D01*
X51404252Y-35710761D01*
X51320919Y-35615523D01*
X51285205Y-35520285D01*
X51261395Y-35329809D01*
X51279252Y-35186952D01*
X51350681Y-34996476D01*
X51410205Y-34901238D01*
X51517348Y-34806000D01*
X51666157Y-34758380D01*
X51761395Y-34758380D01*
X51898300Y-34806000D01*
X51939967Y-34853619D01*
D13*
X76542429Y-81942500D02*
G75*
G03X76542429Y-81942500I-174929J0D01*
G01*
X80072500Y-82097500D02*
X79347500Y-82097500D01*
X80072500Y-81372500D02*
X80072500Y-82097500D01*
X80072500Y-78247500D02*
X79347500Y-78247500D01*
X80072500Y-78972500D02*
X80072500Y-78247500D01*
X76222500Y-78247500D02*
X76947500Y-78247500D01*
X76222500Y-78972500D02*
X76222500Y-78247500D01*
X76440000Y-31740000D02*
X76440000Y-32740000D01*
X79800000Y-31740000D02*
X79800000Y-32740000D01*
D12*
X76530000Y-25351500D02*
X76530000Y-23951500D01*
X76530000Y-21551500D02*
X76530000Y-21401500D01*
X76530000Y-21401500D02*
X76230000Y-21401500D01*
X76230000Y-21401500D02*
X76230000Y-20951500D01*
X68530000Y-20951500D02*
X68530000Y-21401500D01*
X68530000Y-21401500D02*
X68230000Y-21401500D01*
X68230000Y-21401500D02*
X68230000Y-21551500D01*
X68230000Y-23951500D02*
X68230000Y-25351500D01*
X73455000Y-27526500D02*
X74180000Y-27526500D01*
X74180000Y-27526500D02*
X74180000Y-27101500D01*
X74180000Y-27101500D02*
X75180000Y-27101500D01*
X70580000Y-27101500D02*
X69580000Y-27101500D01*
D13*
X68890000Y-78185436D02*
X68890000Y-79389564D01*
X70710000Y-78185436D02*
X70710000Y-79389564D01*
X80285436Y-90410000D02*
X81489564Y-90410000D01*
X80285436Y-88590000D02*
X81489564Y-88590000D01*
X79328600Y-70583036D02*
X79328600Y-71787164D01*
X81148600Y-70583036D02*
X81148600Y-71787164D01*
X69303733Y-81890000D02*
X69646267Y-81890000D01*
X69303733Y-82910000D02*
X69646267Y-82910000D01*
D14*
X61250000Y-22720000D02*
X63600000Y-22720000D01*
X61050000Y-25220000D02*
X63780000Y-25220000D01*
D13*
X61250000Y-21220000D02*
X63600000Y-21220000D01*
X64100000Y-28220000D02*
X63600000Y-21220000D01*
X60750000Y-28220000D02*
X61250000Y-21220000D01*
X64600000Y-28220000D02*
X64100000Y-28220000D01*
X60250000Y-28220000D02*
X60750000Y-28220000D01*
X64100000Y-20720000D02*
X64600000Y-28220000D01*
X60750000Y-20720000D02*
X64100000Y-20720000D01*
X60250000Y-28220000D02*
X60750000Y-20720000D01*
D14*
X52700000Y-25220000D02*
X55430000Y-25220000D01*
X52900000Y-22720000D02*
X55250000Y-22720000D01*
D13*
X52900000Y-21220000D02*
X55250000Y-21220000D01*
X55750000Y-28220000D02*
X55250000Y-21220000D01*
X52400000Y-28220000D02*
X52900000Y-21220000D01*
X56250000Y-28220000D02*
X55750000Y-28220000D01*
X51900000Y-28220000D02*
X52400000Y-28220000D01*
X55750000Y-20720000D02*
X56250000Y-28220000D01*
X52400000Y-20720000D02*
X55750000Y-20720000D01*
X51900000Y-28220000D02*
X52400000Y-20720000D01*
X58250000Y-22720000D02*
X58250000Y-19920000D01*
X57250000Y-22720000D02*
X58250000Y-22720000D01*
X57250000Y-25220000D02*
X57250000Y-22720000D01*
X58250000Y-25220000D02*
X57250000Y-25220000D01*
X58250000Y-27720000D02*
X58250000Y-25220000D01*
X56750000Y-27720000D02*
X59750000Y-27720000D01*
X59750000Y-28720000D02*
X59750000Y-27720000D01*
X56750000Y-28720000D02*
X56750000Y-27720000D01*
X59750000Y-28720000D02*
X65250000Y-28720000D01*
X51250000Y-28720000D02*
X56750000Y-28720000D01*
X64810000Y-20320000D02*
X64650000Y-19920000D01*
X64810000Y-20320000D02*
X65250000Y-20320000D01*
X51690000Y-20320000D02*
X51850000Y-19920000D01*
X51250000Y-20320000D02*
X51690000Y-20320000D01*
X51850000Y-19920000D02*
X64650000Y-19920000D01*
X65250000Y-20320000D02*
X65450000Y-19920000D01*
X65250000Y-29170000D02*
X65250000Y-20320000D01*
X65250000Y-34120000D02*
X65250000Y-31320000D01*
X51250000Y-29170000D02*
X51250000Y-20320000D01*
X51250000Y-34120000D02*
X51250000Y-31320000D01*
X51250000Y-34120000D02*
X65250000Y-34120000D01*
X51250000Y-20320000D02*
X51050000Y-19920000D01*
X83380000Y-67100000D02*
X84650000Y-67100000D01*
X83380000Y-68370000D02*
X83380000Y-67100000D01*
X85692929Y-86530000D02*
X86090000Y-86530000D01*
X85692929Y-85770000D02*
X86090000Y-85770000D01*
X94750000Y-86530000D02*
X88750000Y-86530000D01*
X94750000Y-85770000D02*
X94750000Y-86530000D01*
X88750000Y-85770000D02*
X94750000Y-85770000D01*
X86090000Y-84880000D02*
X88750000Y-84880000D01*
X85692929Y-83990000D02*
X86090000Y-83990000D01*
X85692929Y-83230000D02*
X86090000Y-83230000D01*
X94750000Y-83990000D02*
X88750000Y-83990000D01*
X94750000Y-83230000D02*
X94750000Y-83990000D01*
X88750000Y-83230000D02*
X94750000Y-83230000D01*
X86090000Y-82340000D02*
X88750000Y-82340000D01*
X85692929Y-81450000D02*
X86090000Y-81450000D01*
X85692929Y-80690000D02*
X86090000Y-80690000D01*
X94750000Y-81450000D02*
X88750000Y-81450000D01*
X94750000Y-80690000D02*
X94750000Y-81450000D01*
X88750000Y-80690000D02*
X94750000Y-80690000D01*
X86090000Y-79800000D02*
X88750000Y-79800000D01*
X85692929Y-78910000D02*
X86090000Y-78910000D01*
X85692929Y-78150000D02*
X86090000Y-78150000D01*
X94750000Y-78910000D02*
X88750000Y-78910000D01*
X94750000Y-78150000D02*
X94750000Y-78910000D01*
X88750000Y-78150000D02*
X94750000Y-78150000D01*
X86090000Y-77260000D02*
X88750000Y-77260000D01*
X85692929Y-76370000D02*
X86090000Y-76370000D01*
X85692929Y-75610000D02*
X86090000Y-75610000D01*
X94750000Y-76370000D02*
X88750000Y-76370000D01*
X94750000Y-75610000D02*
X94750000Y-76370000D01*
X88750000Y-75610000D02*
X94750000Y-75610000D01*
X86090000Y-74720000D02*
X88750000Y-74720000D01*
X85692929Y-73830000D02*
X86090000Y-73830000D01*
X85692929Y-73070000D02*
X86090000Y-73070000D01*
X94750000Y-73830000D02*
X88750000Y-73830000D01*
X94750000Y-73070000D02*
X94750000Y-73830000D01*
X88750000Y-73070000D02*
X94750000Y-73070000D01*
X86090000Y-72180000D02*
X88750000Y-72180000D01*
X85692929Y-71290000D02*
X86090000Y-71290000D01*
X85692929Y-70530000D02*
X86090000Y-70530000D01*
X94750000Y-71290000D02*
X88750000Y-71290000D01*
X94750000Y-70530000D02*
X94750000Y-71290000D01*
X88750000Y-70530000D02*
X94750000Y-70530000D01*
X86090000Y-69640000D02*
X88750000Y-69640000D01*
X85760000Y-68750000D02*
X86090000Y-68750000D01*
X85760000Y-67990000D02*
X86090000Y-67990000D01*
X88750000Y-68650000D02*
X94750000Y-68650000D01*
X88750000Y-68530000D02*
X94750000Y-68530000D01*
X88750000Y-68410000D02*
X94750000Y-68410000D01*
X88750000Y-68290000D02*
X94750000Y-68290000D01*
X88750000Y-68170000D02*
X94750000Y-68170000D01*
X88750000Y-68050000D02*
X94750000Y-68050000D01*
X94750000Y-68750000D02*
X88750000Y-68750000D01*
X94750000Y-67990000D02*
X94750000Y-68750000D01*
X88750000Y-67990000D02*
X94750000Y-67990000D01*
X88750000Y-67040000D02*
X86090000Y-67040000D01*
X88750000Y-87480000D02*
X88750000Y-67040000D01*
X86090000Y-87480000D02*
X88750000Y-87480000D01*
X86090000Y-67040000D02*
X86090000Y-87480000D01*
X61430000Y-51688733D02*
X61430000Y-52031267D01*
X62450000Y-51688733D02*
X62450000Y-52031267D01*
X63980000Y-52031267D02*
X63980000Y-51688733D01*
X62960000Y-52031267D02*
X62960000Y-51688733D01*
X69611267Y-58740000D02*
X69268733Y-58740000D01*
X69611267Y-59760000D02*
X69268733Y-59760000D01*
X69243733Y-67360000D02*
X69586267Y-67360000D01*
X69243733Y-66340000D02*
X69586267Y-66340000D01*
X48913733Y-54815000D02*
X49256267Y-54815000D01*
X48913733Y-55835000D02*
X49256267Y-55835000D01*
X48913733Y-57410000D02*
X49256267Y-57410000D01*
X48913733Y-56390000D02*
X49256267Y-56390000D01*
X65460000Y-82928733D02*
X65460000Y-83271267D01*
X64440000Y-82928733D02*
X64440000Y-83271267D01*
X61930000Y-82918733D02*
X61930000Y-83261267D01*
X62950000Y-82918733D02*
X62950000Y-83261267D01*
X43595000Y-49746267D02*
X43595000Y-49403733D01*
X42575000Y-49746267D02*
X42575000Y-49403733D01*
X57221267Y-77130000D02*
X56878733Y-77130000D01*
X57221267Y-76110000D02*
X56878733Y-76110000D01*
X52385000Y-49878733D02*
X52385000Y-50221267D01*
X51365000Y-49878733D02*
X51365000Y-50221267D01*
X52915000Y-49878733D02*
X52915000Y-50221267D01*
X53935000Y-49878733D02*
X53935000Y-50221267D01*
X45881267Y-52710000D02*
X45538733Y-52710000D01*
X45881267Y-51690000D02*
X45538733Y-51690000D01*
X56060000Y-50231267D02*
X56060000Y-49888733D01*
X57080000Y-50231267D02*
X57080000Y-49888733D01*
X54440000Y-50221267D02*
X54440000Y-49878733D01*
X55460000Y-50221267D02*
X55460000Y-49878733D01*
X45886267Y-60510000D02*
X45543733Y-60510000D01*
X45886267Y-59490000D02*
X45543733Y-59490000D01*
X55630000Y-73273733D02*
X55630000Y-73616267D01*
X54610000Y-73273733D02*
X54610000Y-73616267D01*
X55236267Y-81090000D02*
X54893733Y-81090000D01*
X55236267Y-82110000D02*
X54893733Y-82110000D01*
X53650000Y-78958733D02*
X53650000Y-79301267D01*
X54670000Y-78958733D02*
X54670000Y-79301267D01*
X74760000Y-74953733D02*
X74760000Y-75296267D01*
X73740000Y-74953733D02*
X73740000Y-75296267D01*
X75103733Y-87590000D02*
X75446267Y-87590000D01*
X75103733Y-88610000D02*
X75446267Y-88610000D01*
X56780000Y-78953733D02*
X56780000Y-79296267D01*
X57800000Y-78953733D02*
X57800000Y-79296267D01*
X58340000Y-79296267D02*
X58340000Y-78953733D01*
X59360000Y-79296267D02*
X59360000Y-78953733D01*
X59910000Y-52031267D02*
X59910000Y-51688733D01*
X60930000Y-52031267D02*
X60930000Y-51688733D01*
X66150000Y-52051267D02*
X66150000Y-51708733D01*
X65130000Y-52051267D02*
X65130000Y-51708733D01*
X61340000Y-82520000D02*
X59340000Y-82520000D01*
X59340000Y-82520000D02*
X59340000Y-86420000D01*
X61340000Y-82520000D02*
X61340000Y-86420000D01*
X58950000Y-82510000D02*
X58950000Y-86410000D01*
X56950000Y-82510000D02*
X56950000Y-86410000D01*
X58950000Y-82510000D02*
X56950000Y-82510000D01*
X44390000Y-97850000D02*
X44390000Y-95250000D01*
X44390000Y-97850000D02*
X85150000Y-97850000D01*
X85150000Y-97850000D02*
X85150000Y-92650000D01*
X46990000Y-92650000D02*
X85150000Y-92650000D01*
X46990000Y-95250000D02*
X46990000Y-92650000D01*
X44390000Y-95250000D02*
X46990000Y-95250000D01*
X44390000Y-92650000D02*
X45720000Y-92650000D01*
X44390000Y-93980000D02*
X44390000Y-92650000D01*
X41040000Y-45370000D02*
X47010000Y-45370000D01*
X47010000Y-45370000D02*
X47010000Y-37750000D01*
X47010000Y-37750000D02*
X41040000Y-37750000D01*
X41040000Y-37750000D02*
X41040000Y-45370000D01*
X41050000Y-42060000D02*
X41800000Y-42060000D01*
X41800000Y-42060000D02*
X41800000Y-41060000D01*
X41800000Y-41060000D02*
X41050000Y-41060000D01*
X41050000Y-41060000D02*
X41050000Y-42060000D01*
X41050000Y-45360000D02*
X41800000Y-45360000D01*
X41800000Y-45360000D02*
X41800000Y-43560000D01*
X41800000Y-43560000D02*
X41050000Y-43560000D01*
X41050000Y-43560000D02*
X41050000Y-45360000D01*
X41050000Y-39560000D02*
X41800000Y-39560000D01*
X41800000Y-39560000D02*
X41800000Y-37760000D01*
X41800000Y-37760000D02*
X41050000Y-37760000D01*
X41050000Y-37760000D02*
X41050000Y-39560000D01*
X43300000Y-45360000D02*
X43300000Y-44610000D01*
X43300000Y-44610000D02*
X46250000Y-44610000D01*
X46250000Y-44610000D02*
X46250000Y-41560000D01*
X43300000Y-37760000D02*
X43300000Y-38510000D01*
X43300000Y-38510000D02*
X46250000Y-38510000D01*
X46250000Y-38510000D02*
X46250000Y-41560000D01*
X40750000Y-44410000D02*
X40750000Y-45660000D01*
X40750000Y-45660000D02*
X42000000Y-45660000D01*
X41040000Y-36890000D02*
X47010000Y-36890000D01*
X47010000Y-36890000D02*
X47010000Y-29270000D01*
X47010000Y-29270000D02*
X41040000Y-29270000D01*
X41040000Y-29270000D02*
X41040000Y-36890000D01*
X41050000Y-33580000D02*
X41800000Y-33580000D01*
X41800000Y-33580000D02*
X41800000Y-32580000D01*
X41800000Y-32580000D02*
X41050000Y-32580000D01*
X41050000Y-32580000D02*
X41050000Y-33580000D01*
X41050000Y-36880000D02*
X41800000Y-36880000D01*
X41800000Y-36880000D02*
X41800000Y-35080000D01*
X41800000Y-35080000D02*
X41050000Y-35080000D01*
X41050000Y-35080000D02*
X41050000Y-36880000D01*
X41050000Y-31080000D02*
X41800000Y-31080000D01*
X41800000Y-31080000D02*
X41800000Y-29280000D01*
X41800000Y-29280000D02*
X41050000Y-29280000D01*
X41050000Y-29280000D02*
X41050000Y-31080000D01*
X43300000Y-36880000D02*
X43300000Y-36130000D01*
X43300000Y-36130000D02*
X46250000Y-36130000D01*
X46250000Y-36130000D02*
X46250000Y-33080000D01*
X43300000Y-29280000D02*
X43300000Y-30030000D01*
X43300000Y-30030000D02*
X46250000Y-30030000D01*
X46250000Y-30030000D02*
X46250000Y-33080000D01*
X40750000Y-35930000D02*
X40750000Y-37180000D01*
X40750000Y-37180000D02*
X42000000Y-37180000D01*
X85790000Y-48670000D02*
X85790000Y-56410000D01*
X85790000Y-56410000D02*
X88450000Y-56410000D01*
X88450000Y-56410000D02*
X88450000Y-48670000D01*
X88450000Y-48670000D02*
X85790000Y-48670000D01*
X88450000Y-49620000D02*
X94450000Y-49620000D01*
X94450000Y-49620000D02*
X94450000Y-50380000D01*
X94450000Y-50380000D02*
X88450000Y-50380000D01*
X88450000Y-49680000D02*
X94450000Y-49680000D01*
X88450000Y-49800000D02*
X94450000Y-49800000D01*
X88450000Y-49920000D02*
X94450000Y-49920000D01*
X88450000Y-50040000D02*
X94450000Y-50040000D01*
X88450000Y-50160000D02*
X94450000Y-50160000D01*
X88450000Y-50280000D02*
X94450000Y-50280000D01*
X85460000Y-49620000D02*
X85790000Y-49620000D01*
X85460000Y-50380000D02*
X85790000Y-50380000D01*
X85790000Y-51270000D02*
X88450000Y-51270000D01*
X88450000Y-52160000D02*
X94450000Y-52160000D01*
X94450000Y-52160000D02*
X94450000Y-52920000D01*
X94450000Y-52920000D02*
X88450000Y-52920000D01*
X85392929Y-52160000D02*
X85790000Y-52160000D01*
X85392929Y-52920000D02*
X85790000Y-52920000D01*
X85790000Y-53810000D02*
X88450000Y-53810000D01*
X88450000Y-54700000D02*
X94450000Y-54700000D01*
X94450000Y-54700000D02*
X94450000Y-55460000D01*
X94450000Y-55460000D02*
X88450000Y-55460000D01*
X85392929Y-54700000D02*
X85790000Y-54700000D01*
X85392929Y-55460000D02*
X85790000Y-55460000D01*
X83080000Y-50000000D02*
X83080000Y-48730000D01*
X83080000Y-48730000D02*
X84350000Y-48730000D01*
X88550000Y-57450000D02*
X87300000Y-57450000D01*
X88550000Y-58700000D02*
X88550000Y-57450000D01*
X83050000Y-64600000D02*
X83050000Y-61550000D01*
X86000000Y-64600000D02*
X83050000Y-64600000D01*
X86000000Y-65350000D02*
X86000000Y-64600000D01*
X83050000Y-58500000D02*
X83050000Y-61550000D01*
X86000000Y-58500000D02*
X83050000Y-58500000D01*
X86000000Y-57750000D02*
X86000000Y-58500000D01*
X88250000Y-65350000D02*
X88250000Y-63550000D01*
X87500000Y-65350000D02*
X88250000Y-65350000D01*
X87500000Y-63550000D02*
X87500000Y-65350000D01*
X88250000Y-63550000D02*
X87500000Y-63550000D01*
X88250000Y-59550000D02*
X88250000Y-57750000D01*
X87500000Y-59550000D02*
X88250000Y-59550000D01*
X87500000Y-57750000D02*
X87500000Y-59550000D01*
X88250000Y-57750000D02*
X87500000Y-57750000D01*
X88250000Y-62050000D02*
X88250000Y-61050000D01*
X87500000Y-62050000D02*
X88250000Y-62050000D01*
X87500000Y-61050000D02*
X87500000Y-62050000D01*
X88250000Y-61050000D02*
X87500000Y-61050000D01*
X88260000Y-65360000D02*
X88260000Y-57740000D01*
X82290000Y-65360000D02*
X88260000Y-65360000D01*
X82290000Y-57740000D02*
X82290000Y-65360000D01*
X88260000Y-57740000D02*
X82290000Y-57740000D01*
X52420000Y-46428733D02*
X52420000Y-46771267D01*
X51400000Y-46428733D02*
X51400000Y-46771267D01*
X76008400Y-70419336D02*
X76008400Y-71623464D01*
X78728400Y-70419336D02*
X78728400Y-71623464D01*
X78640000Y-86502064D02*
X78640000Y-85297936D01*
X81360000Y-86502064D02*
X81360000Y-85297936D01*
X74260000Y-78597936D02*
X74260000Y-79802064D01*
X71540000Y-78597936D02*
X71540000Y-79802064D01*
X45881267Y-55835000D02*
X45538733Y-55835000D01*
X45881267Y-54815000D02*
X45538733Y-54815000D01*
X45881267Y-56390000D02*
X45538733Y-56390000D01*
X45881267Y-57410000D02*
X45538733Y-57410000D01*
X45681267Y-46590000D02*
X45338733Y-46590000D01*
X45681267Y-47610000D02*
X45338733Y-47610000D01*
X45538733Y-53265000D02*
X45881267Y-53265000D01*
X45538733Y-54285000D02*
X45881267Y-54285000D01*
X64871267Y-72060000D02*
X64528733Y-72060000D01*
X64871267Y-71040000D02*
X64528733Y-71040000D01*
X54550000Y-46756267D02*
X54550000Y-46413733D01*
X55570000Y-46756267D02*
X55570000Y-46413733D01*
X53950000Y-46766267D02*
X53950000Y-46423733D01*
X52930000Y-46766267D02*
X52930000Y-46423733D01*
X45548733Y-58980000D02*
X45891267Y-58980000D01*
X45548733Y-57960000D02*
X45891267Y-57960000D01*
X45533733Y-60970000D02*
X45876267Y-60970000D01*
X45533733Y-61990000D02*
X45876267Y-61990000D01*
X74730000Y-32068733D02*
X74730000Y-32411267D01*
X75750000Y-32068733D02*
X75750000Y-32411267D01*
X76703133Y-76532200D02*
X77045667Y-76532200D01*
X76703133Y-75512200D02*
X77045667Y-75512200D01*
X75446267Y-87010000D02*
X75103733Y-87010000D01*
X75446267Y-85990000D02*
X75103733Y-85990000D01*
X72803733Y-84510000D02*
X73146267Y-84510000D01*
X72803733Y-83490000D02*
X73146267Y-83490000D01*
X77045667Y-74932000D02*
X76703133Y-74932000D01*
X77045667Y-73912000D02*
X76703133Y-73912000D01*
X75103733Y-90210000D02*
X75446267Y-90210000D01*
X75103733Y-89190000D02*
X75446267Y-89190000D01*
X69253733Y-83440000D02*
X69596267Y-83440000D01*
X69253733Y-84460000D02*
X69596267Y-84460000D01*
X56250000Y-78958733D02*
X56250000Y-79301267D01*
X55230000Y-78958733D02*
X55230000Y-79301267D01*
X59880000Y-79286267D02*
X59880000Y-78943733D01*
X60900000Y-79286267D02*
X60900000Y-78943733D01*
X60250000Y-41803733D02*
X60250000Y-42146267D01*
X59230000Y-41803733D02*
X59230000Y-42146267D01*
X62290000Y-41803733D02*
X62290000Y-42146267D01*
X63310000Y-41803733D02*
X63310000Y-42146267D01*
X60770000Y-41808733D02*
X60770000Y-42151267D01*
X61790000Y-41808733D02*
X61790000Y-42151267D01*
X64910000Y-41803733D02*
X64910000Y-42146267D01*
X63890000Y-41803733D02*
X63890000Y-42146267D01*
X65515000Y-41803733D02*
X65515000Y-42146267D01*
X66535000Y-41803733D02*
X66535000Y-42146267D01*
X81410000Y-81198733D02*
X81410000Y-81541267D01*
X82430000Y-81198733D02*
X82430000Y-81541267D01*
X89412132Y-41775000D02*
G75*
G03X89412132Y-41775000I-212132J0D01*
G01*
D15*
X89450000Y-45175000D02*
X88800000Y-45175000D01*
X89450000Y-45025000D02*
X89450000Y-45175000D01*
X89450000Y-43725000D02*
X89450000Y-45025000D01*
X88800000Y-43725000D02*
X89450000Y-43725000D01*
X88750000Y-42075000D02*
X88750000Y-46875000D01*
X84750000Y-42075000D02*
X84750000Y-46875000D01*
D13*
X74300000Y-65200000D02*
X75700000Y-65200000D01*
X75700000Y-65200000D02*
X75700000Y-66600000D01*
X75700000Y-66600000D02*
X74300000Y-66600000D01*
X74300000Y-66600000D02*
X74300000Y-65200000D01*
X64900000Y-88000000D02*
X66300000Y-88000000D01*
X66300000Y-88000000D02*
X66300000Y-89400000D01*
X66300000Y-89400000D02*
X64900000Y-89400000D01*
X64900000Y-89400000D02*
X64900000Y-88000000D01*
X68200000Y-74200000D02*
X69600000Y-74200000D01*
X69600000Y-74200000D02*
X69600000Y-75600000D01*
X69600000Y-75600000D02*
X68200000Y-75600000D01*
X68200000Y-75600000D02*
X68200000Y-74200000D01*
X52870000Y-67330000D02*
X52870000Y-66780000D01*
X53420000Y-67330000D02*
X52870000Y-67330000D01*
X63170000Y-67330000D02*
X63170000Y-66780000D01*
X62620000Y-67330000D02*
X63170000Y-67330000D01*
X63170000Y-57030000D02*
X63170000Y-57580000D01*
X62620000Y-57030000D02*
X63170000Y-57030000D01*
X52990001Y-56860000D02*
G75*
G03X52990001Y-56860000I-258070J0D01*
G01*
X68050000Y-42110000D02*
X67250000Y-42110000D01*
X68050000Y-50210000D02*
X67250000Y-50210000D01*
X67250000Y-50210000D02*
X67250000Y-42110000D01*
X72550000Y-50210000D02*
X73350000Y-50210000D01*
X73350000Y-42110000D02*
X73350000Y-50210000D01*
X72550000Y-42110000D02*
X73350000Y-42110000D01*
X73861803Y-41760000D02*
G75*
G03X73861803Y-41760000I-111803J0D01*
G01*
X65005000Y-76380000D02*
X64205000Y-77180000D01*
X64205000Y-77180000D02*
X60855000Y-77180000D01*
X60855000Y-77180000D02*
X60855000Y-72280000D01*
X60855000Y-72280000D02*
X65005000Y-72280000D01*
X65005000Y-72280000D02*
X65005000Y-76380000D01*
X66233848Y-77530000D02*
G75*
G03X66233848Y-77530000I-183848J0D01*
G01*
X45810000Y-49160000D02*
X46610000Y-48360000D01*
X46610000Y-48360000D02*
X48860000Y-48360000D01*
X48860000Y-48360000D02*
X48860000Y-51290000D01*
X48860000Y-51290000D02*
X45810000Y-51290000D01*
X45810000Y-51290000D02*
X45810000Y-49160000D01*
X46076421Y-48125000D02*
G75*
G03X46076421Y-48125000I-141421J0D01*
G01*
X67300000Y-65650000D02*
X71600000Y-65650000D01*
X71600000Y-65650000D02*
X71600000Y-60250000D01*
X63005000Y-80935000D02*
X64355000Y-80935000D01*
X63005000Y-79185000D02*
X64355000Y-79185000D01*
X57490000Y-53010000D02*
X59490000Y-53010000D01*
X59490000Y-53010000D02*
X59490000Y-49110000D01*
X57490000Y-53010000D02*
X57490000Y-49110000D01*
X58710000Y-73686267D02*
X58710000Y-73343733D01*
X57690000Y-73686267D02*
X57690000Y-73343733D01*
X56160000Y-73686267D02*
X56160000Y-73343733D01*
X57180000Y-73686267D02*
X57180000Y-73343733D01*
D12*
X74738095Y-76752380D02*
X74738095Y-77561904D01*
X74785714Y-77657142D01*
X74833333Y-77704761D01*
X74928571Y-77752380D01*
X75119047Y-77752380D01*
X75214285Y-77704761D01*
X75261904Y-77657142D01*
X75309523Y-77561904D01*
X75309523Y-76752380D01*
X76261904Y-76752380D02*
X75785714Y-76752380D01*
X75738095Y-77228571D01*
X75785714Y-77180952D01*
X75880952Y-77133333D01*
X76119047Y-77133333D01*
X76214285Y-77180952D01*
X76261904Y-77228571D01*
X76309523Y-77323809D01*
X76309523Y-77561904D01*
X76261904Y-77657142D01*
X76214285Y-77704761D01*
X76119047Y-77752380D01*
X75880952Y-77752380D01*
X75785714Y-77704761D01*
X75738095Y-77657142D01*
X75652380Y-36090476D02*
X75176190Y-36423809D01*
X75652380Y-36661904D02*
X74652380Y-36661904D01*
X74652380Y-36280952D01*
X74700000Y-36185714D01*
X74747619Y-36138095D01*
X74842857Y-36090476D01*
X74985714Y-36090476D01*
X75080952Y-36138095D01*
X75128571Y-36185714D01*
X75176190Y-36280952D01*
X75176190Y-36661904D01*
X75652380Y-35661904D02*
X74652380Y-35661904D01*
X75652380Y-35090476D01*
X74652380Y-35090476D01*
X75652380Y-34090476D02*
X75652380Y-34661904D01*
X75652380Y-34376190D02*
X74652380Y-34376190D01*
X74795238Y-34471428D01*
X74890476Y-34566666D01*
X74938095Y-34661904D01*
X71590476Y-22993880D02*
X71590476Y-23708166D01*
X71542857Y-23851023D01*
X71447619Y-23946261D01*
X71304761Y-23993880D01*
X71209523Y-23993880D01*
X72590476Y-23993880D02*
X72019047Y-23993880D01*
X72304761Y-23993880D02*
X72304761Y-22993880D01*
X72209523Y-23136738D01*
X72114285Y-23231976D01*
X72019047Y-23279595D01*
X73209523Y-22993880D02*
X73304761Y-22993880D01*
X73400000Y-23041500D01*
X73447619Y-23089119D01*
X73495238Y-23184357D01*
X73542857Y-23374833D01*
X73542857Y-23612928D01*
X73495238Y-23803404D01*
X73447619Y-23898642D01*
X73400000Y-23946261D01*
X73304761Y-23993880D01*
X73209523Y-23993880D01*
X73114285Y-23946261D01*
X73066666Y-23898642D01*
X73019047Y-23803404D01*
X72971428Y-23612928D01*
X72971428Y-23374833D01*
X73019047Y-23184357D01*
X73066666Y-23089119D01*
X73114285Y-23041500D01*
X73209523Y-22993880D01*
X72007142Y-75442857D02*
X72054761Y-75490476D01*
X72102380Y-75633333D01*
X72102380Y-75728571D01*
X72054761Y-75871428D01*
X71959523Y-75966666D01*
X71864285Y-76014285D01*
X71673809Y-76061904D01*
X71530952Y-76061904D01*
X71340476Y-76014285D01*
X71245238Y-75966666D01*
X71150000Y-75871428D01*
X71102380Y-75728571D01*
X71102380Y-75633333D01*
X71150000Y-75490476D01*
X71197619Y-75442857D01*
X71197619Y-75061904D02*
X71150000Y-75014285D01*
X71102380Y-74919047D01*
X71102380Y-74680952D01*
X71150000Y-74585714D01*
X71197619Y-74538095D01*
X71292857Y-74490476D01*
X71388095Y-74490476D01*
X71530952Y-74538095D01*
X72102380Y-75109523D01*
X72102380Y-74490476D01*
X71102380Y-74157142D02*
X71102380Y-73538095D01*
X71483333Y-73871428D01*
X71483333Y-73728571D01*
X71530952Y-73633333D01*
X71578571Y-73585714D01*
X71673809Y-73538095D01*
X71911904Y-73538095D01*
X72007142Y-73585714D01*
X72054761Y-73633333D01*
X72102380Y-73728571D01*
X72102380Y-74014285D01*
X72054761Y-74109523D01*
X72007142Y-74157142D01*
X84357142Y-89857142D02*
X84309523Y-89904761D01*
X84166666Y-89952380D01*
X84071428Y-89952380D01*
X83928571Y-89904761D01*
X83833333Y-89809523D01*
X83785714Y-89714285D01*
X83738095Y-89523809D01*
X83738095Y-89380952D01*
X83785714Y-89190476D01*
X83833333Y-89095238D01*
X83928571Y-89000000D01*
X84071428Y-88952380D01*
X84166666Y-88952380D01*
X84309523Y-89000000D01*
X84357142Y-89047619D01*
X84738095Y-89047619D02*
X84785714Y-89000000D01*
X84880952Y-88952380D01*
X85119047Y-88952380D01*
X85214285Y-89000000D01*
X85261904Y-89047619D01*
X85309523Y-89142857D01*
X85309523Y-89238095D01*
X85261904Y-89380952D01*
X84690476Y-89952380D01*
X85309523Y-89952380D01*
X85690476Y-89047619D02*
X85738095Y-89000000D01*
X85833333Y-88952380D01*
X86071428Y-88952380D01*
X86166666Y-89000000D01*
X86214285Y-89047619D01*
X86261904Y-89142857D01*
X86261904Y-89238095D01*
X86214285Y-89380952D01*
X85642857Y-89952380D01*
X86261904Y-89952380D01*
X79657142Y-68257142D02*
X79609523Y-68304761D01*
X79466666Y-68352380D01*
X79371428Y-68352380D01*
X79228571Y-68304761D01*
X79133333Y-68209523D01*
X79085714Y-68114285D01*
X79038095Y-67923809D01*
X79038095Y-67780952D01*
X79085714Y-67590476D01*
X79133333Y-67495238D01*
X79228571Y-67400000D01*
X79371428Y-67352380D01*
X79466666Y-67352380D01*
X79609523Y-67400000D01*
X79657142Y-67447619D01*
X80038095Y-67447619D02*
X80085714Y-67400000D01*
X80180952Y-67352380D01*
X80419047Y-67352380D01*
X80514285Y-67400000D01*
X80561904Y-67447619D01*
X80609523Y-67542857D01*
X80609523Y-67638095D01*
X80561904Y-67780952D01*
X79990476Y-68352380D01*
X80609523Y-68352380D01*
X81561904Y-68352380D02*
X80990476Y-68352380D01*
X81276190Y-68352380D02*
X81276190Y-67352380D01*
X81180952Y-67495238D01*
X81085714Y-67590476D01*
X80990476Y-67638095D01*
X68757142Y-86157142D02*
X68709523Y-86204761D01*
X68566666Y-86252380D01*
X68471428Y-86252380D01*
X68328571Y-86204761D01*
X68233333Y-86109523D01*
X68185714Y-86014285D01*
X68138095Y-85823809D01*
X68138095Y-85680952D01*
X68185714Y-85490476D01*
X68233333Y-85395238D01*
X68328571Y-85300000D01*
X68471428Y-85252380D01*
X68566666Y-85252380D01*
X68709523Y-85300000D01*
X68757142Y-85347619D01*
X69138095Y-85347619D02*
X69185714Y-85300000D01*
X69280952Y-85252380D01*
X69519047Y-85252380D01*
X69614285Y-85300000D01*
X69661904Y-85347619D01*
X69709523Y-85442857D01*
X69709523Y-85538095D01*
X69661904Y-85680952D01*
X69090476Y-86252380D01*
X69709523Y-86252380D01*
X70280952Y-85680952D02*
X70185714Y-85633333D01*
X70138095Y-85585714D01*
X70090476Y-85490476D01*
X70090476Y-85442857D01*
X70138095Y-85347619D01*
X70185714Y-85300000D01*
X70280952Y-85252380D01*
X70471428Y-85252380D01*
X70566666Y-85300000D01*
X70614285Y-85347619D01*
X70661904Y-85442857D01*
X70661904Y-85490476D01*
X70614285Y-85585714D01*
X70566666Y-85633333D01*
X70471428Y-85680952D01*
X70280952Y-85680952D01*
X70185714Y-85728571D01*
X70138095Y-85776190D01*
X70090476Y-85871428D01*
X70090476Y-86061904D01*
X70138095Y-86157142D01*
X70185714Y-86204761D01*
X70280952Y-86252380D01*
X70471428Y-86252380D01*
X70566666Y-86204761D01*
X70614285Y-86157142D01*
X70661904Y-86061904D01*
X70661904Y-85871428D01*
X70614285Y-85776190D01*
X70566666Y-85728571D01*
X70471428Y-85680952D01*
X56816666Y-21296380D02*
X56816666Y-22010666D01*
X56769047Y-22153523D01*
X56673809Y-22248761D01*
X56530952Y-22296380D01*
X56435714Y-22296380D01*
X57340476Y-22296380D02*
X57530952Y-22296380D01*
X57626190Y-22248761D01*
X57673809Y-22201142D01*
X57769047Y-22058285D01*
X57816666Y-21867809D01*
X57816666Y-21486857D01*
X57769047Y-21391619D01*
X57721428Y-21344000D01*
X57626190Y-21296380D01*
X57435714Y-21296380D01*
X57340476Y-21344000D01*
X57292857Y-21391619D01*
X57245238Y-21486857D01*
X57245238Y-21724952D01*
X57292857Y-21820190D01*
X57340476Y-21867809D01*
X57435714Y-21915428D01*
X57626190Y-21915428D01*
X57721428Y-21867809D01*
X57769047Y-21820190D01*
X57816666Y-21724952D01*
X87066666Y-67852380D02*
X87066666Y-68566666D01*
X87019047Y-68709523D01*
X86923809Y-68804761D01*
X86780952Y-68852380D01*
X86685714Y-68852380D01*
X87495238Y-67947619D02*
X87542857Y-67900000D01*
X87638095Y-67852380D01*
X87876190Y-67852380D01*
X87971428Y-67900000D01*
X88019047Y-67947619D01*
X88066666Y-68042857D01*
X88066666Y-68138095D01*
X88019047Y-68280952D01*
X87447619Y-68852380D01*
X88066666Y-68852380D01*
X62428380Y-49188666D02*
X61952190Y-49522000D01*
X62428380Y-49760095D02*
X61428380Y-49760095D01*
X61428380Y-49379142D01*
X61476000Y-49283904D01*
X61523619Y-49236285D01*
X61618857Y-49188666D01*
X61761714Y-49188666D01*
X61856952Y-49236285D01*
X61904571Y-49283904D01*
X61952190Y-49379142D01*
X61952190Y-49760095D01*
X61523619Y-48807714D02*
X61476000Y-48760095D01*
X61428380Y-48664857D01*
X61428380Y-48426761D01*
X61476000Y-48331523D01*
X61523619Y-48283904D01*
X61618857Y-48236285D01*
X61714095Y-48236285D01*
X61856952Y-48283904D01*
X62428380Y-48855333D01*
X62428380Y-48236285D01*
X63857142Y-49188666D02*
X63904761Y-49236285D01*
X63952380Y-49379142D01*
X63952380Y-49474380D01*
X63904761Y-49617238D01*
X63809523Y-49712476D01*
X63714285Y-49760095D01*
X63523809Y-49807714D01*
X63380952Y-49807714D01*
X63190476Y-49760095D01*
X63095238Y-49712476D01*
X63000000Y-49617238D01*
X62952380Y-49474380D01*
X62952380Y-49379142D01*
X63000000Y-49236285D01*
X63047619Y-49188666D01*
X63952380Y-48236285D02*
X63952380Y-48807714D01*
X63952380Y-48522000D02*
X62952380Y-48522000D01*
X63095238Y-48617238D01*
X63190476Y-48712476D01*
X63238095Y-48807714D01*
X72533333Y-59666142D02*
X72485714Y-59713761D01*
X72342857Y-59761380D01*
X72247619Y-59761380D01*
X72104761Y-59713761D01*
X72009523Y-59618523D01*
X71961904Y-59523285D01*
X71914285Y-59332809D01*
X71914285Y-59189952D01*
X71961904Y-58999476D01*
X72009523Y-58904238D01*
X72104761Y-58809000D01*
X72247619Y-58761380D01*
X72342857Y-58761380D01*
X72485714Y-58809000D01*
X72533333Y-58856619D01*
X72914285Y-58856619D02*
X72961904Y-58809000D01*
X73057142Y-58761380D01*
X73295238Y-58761380D01*
X73390476Y-58809000D01*
X73438095Y-58856619D01*
X73485714Y-58951857D01*
X73485714Y-59047095D01*
X73438095Y-59189952D01*
X72866666Y-59761380D01*
X73485714Y-59761380D01*
X72408333Y-67257142D02*
X72360714Y-67304761D01*
X72217857Y-67352380D01*
X72122619Y-67352380D01*
X71979761Y-67304761D01*
X71884523Y-67209523D01*
X71836904Y-67114285D01*
X71789285Y-66923809D01*
X71789285Y-66780952D01*
X71836904Y-66590476D01*
X71884523Y-66495238D01*
X71979761Y-66400000D01*
X72122619Y-66352380D01*
X72217857Y-66352380D01*
X72360714Y-66400000D01*
X72408333Y-66447619D01*
X72741666Y-66352380D02*
X73360714Y-66352380D01*
X73027380Y-66733333D01*
X73170238Y-66733333D01*
X73265476Y-66780952D01*
X73313095Y-66828571D01*
X73360714Y-66923809D01*
X73360714Y-67161904D01*
X73313095Y-67257142D01*
X73265476Y-67304761D01*
X73170238Y-67352380D01*
X72884523Y-67352380D01*
X72789285Y-67304761D01*
X72741666Y-67257142D01*
X51433333Y-53357142D02*
X51385714Y-53404761D01*
X51242857Y-53452380D01*
X51147619Y-53452380D01*
X51004761Y-53404761D01*
X50909523Y-53309523D01*
X50861904Y-53214285D01*
X50814285Y-53023809D01*
X50814285Y-52880952D01*
X50861904Y-52690476D01*
X50909523Y-52595238D01*
X51004761Y-52500000D01*
X51147619Y-52452380D01*
X51242857Y-52452380D01*
X51385714Y-52500000D01*
X51433333Y-52547619D01*
X52290476Y-52785714D02*
X52290476Y-53452380D01*
X52052380Y-52404761D02*
X51814285Y-53119047D01*
X52433333Y-53119047D01*
X51433333Y-54557142D02*
X51385714Y-54604761D01*
X51242857Y-54652380D01*
X51147619Y-54652380D01*
X51004761Y-54604761D01*
X50909523Y-54509523D01*
X50861904Y-54414285D01*
X50814285Y-54223809D01*
X50814285Y-54080952D01*
X50861904Y-53890476D01*
X50909523Y-53795238D01*
X51004761Y-53700000D01*
X51147619Y-53652380D01*
X51242857Y-53652380D01*
X51385714Y-53700000D01*
X51433333Y-53747619D01*
X52338095Y-53652380D02*
X51861904Y-53652380D01*
X51814285Y-54128571D01*
X51861904Y-54080952D01*
X51957142Y-54033333D01*
X52195238Y-54033333D01*
X52290476Y-54080952D01*
X52338095Y-54128571D01*
X52385714Y-54223809D01*
X52385714Y-54461904D01*
X52338095Y-54557142D01*
X52290476Y-54604761D01*
X52195238Y-54652380D01*
X51957142Y-54652380D01*
X51861904Y-54604761D01*
X51814285Y-54557142D01*
X65357142Y-86166666D02*
X65404761Y-86214285D01*
X65452380Y-86357142D01*
X65452380Y-86452380D01*
X65404761Y-86595238D01*
X65309523Y-86690476D01*
X65214285Y-86738095D01*
X65023809Y-86785714D01*
X64880952Y-86785714D01*
X64690476Y-86738095D01*
X64595238Y-86690476D01*
X64500000Y-86595238D01*
X64452380Y-86452380D01*
X64452380Y-86357142D01*
X64500000Y-86214285D01*
X64547619Y-86166666D01*
X64452380Y-85309523D02*
X64452380Y-85500000D01*
X64500000Y-85595238D01*
X64547619Y-85642857D01*
X64690476Y-85738095D01*
X64880952Y-85785714D01*
X65261904Y-85785714D01*
X65357142Y-85738095D01*
X65404761Y-85690476D01*
X65452380Y-85595238D01*
X65452380Y-85404761D01*
X65404761Y-85309523D01*
X65357142Y-85261904D01*
X65261904Y-85214285D01*
X65023809Y-85214285D01*
X64928571Y-85261904D01*
X64880952Y-85309523D01*
X64833333Y-85404761D01*
X64833333Y-85595238D01*
X64880952Y-85690476D01*
X64928571Y-85738095D01*
X65023809Y-85785714D01*
X62857142Y-86166666D02*
X62904761Y-86214285D01*
X62952380Y-86357142D01*
X62952380Y-86452380D01*
X62904761Y-86595238D01*
X62809523Y-86690476D01*
X62714285Y-86738095D01*
X62523809Y-86785714D01*
X62380952Y-86785714D01*
X62190476Y-86738095D01*
X62095238Y-86690476D01*
X62000000Y-86595238D01*
X61952380Y-86452380D01*
X61952380Y-86357142D01*
X62000000Y-86214285D01*
X62047619Y-86166666D01*
X61952380Y-85833333D02*
X61952380Y-85166666D01*
X62952380Y-85595238D01*
X43357142Y-47166666D02*
X43404761Y-47214285D01*
X43452380Y-47357142D01*
X43452380Y-47452380D01*
X43404761Y-47595238D01*
X43309523Y-47690476D01*
X43214285Y-47738095D01*
X43023809Y-47785714D01*
X42880952Y-47785714D01*
X42690476Y-47738095D01*
X42595238Y-47690476D01*
X42500000Y-47595238D01*
X42452380Y-47452380D01*
X42452380Y-47357142D01*
X42500000Y-47214285D01*
X42547619Y-47166666D01*
X42880952Y-46595238D02*
X42833333Y-46690476D01*
X42785714Y-46738095D01*
X42690476Y-46785714D01*
X42642857Y-46785714D01*
X42547619Y-46738095D01*
X42500000Y-46690476D01*
X42452380Y-46595238D01*
X42452380Y-46404761D01*
X42500000Y-46309523D01*
X42547619Y-46261904D01*
X42642857Y-46214285D01*
X42690476Y-46214285D01*
X42785714Y-46261904D01*
X42833333Y-46309523D01*
X42880952Y-46404761D01*
X42880952Y-46595238D01*
X42928571Y-46690476D01*
X42976190Y-46738095D01*
X43071428Y-46785714D01*
X43261904Y-46785714D01*
X43357142Y-46738095D01*
X43404761Y-46690476D01*
X43452380Y-46595238D01*
X43452380Y-46404761D01*
X43404761Y-46309523D01*
X43357142Y-46261904D01*
X43261904Y-46214285D01*
X43071428Y-46214285D01*
X42976190Y-46261904D01*
X42928571Y-46309523D01*
X42880952Y-46404761D01*
X54033333Y-76957142D02*
X53985714Y-77004761D01*
X53842857Y-77052380D01*
X53747619Y-77052380D01*
X53604761Y-77004761D01*
X53509523Y-76909523D01*
X53461904Y-76814285D01*
X53414285Y-76623809D01*
X53414285Y-76480952D01*
X53461904Y-76290476D01*
X53509523Y-76195238D01*
X53604761Y-76100000D01*
X53747619Y-76052380D01*
X53842857Y-76052380D01*
X53985714Y-76100000D01*
X54033333Y-76147619D01*
X54509523Y-77052380D02*
X54700000Y-77052380D01*
X54795238Y-77004761D01*
X54842857Y-76957142D01*
X54938095Y-76814285D01*
X54985714Y-76623809D01*
X54985714Y-76242857D01*
X54938095Y-76147619D01*
X54890476Y-76100000D01*
X54795238Y-76052380D01*
X54604761Y-76052380D01*
X54509523Y-76100000D01*
X54461904Y-76147619D01*
X54414285Y-76242857D01*
X54414285Y-76480952D01*
X54461904Y-76576190D01*
X54509523Y-76623809D01*
X54604761Y-76671428D01*
X54795238Y-76671428D01*
X54890476Y-76623809D01*
X54938095Y-76576190D01*
X54985714Y-76480952D01*
X52427142Y-43822857D02*
X52474761Y-43870476D01*
X52522380Y-44013333D01*
X52522380Y-44108571D01*
X52474761Y-44251428D01*
X52379523Y-44346666D01*
X52284285Y-44394285D01*
X52093809Y-44441904D01*
X51950952Y-44441904D01*
X51760476Y-44394285D01*
X51665238Y-44346666D01*
X51570000Y-44251428D01*
X51522380Y-44108571D01*
X51522380Y-44013333D01*
X51570000Y-43870476D01*
X51617619Y-43822857D01*
X52522380Y-42870476D02*
X52522380Y-43441904D01*
X52522380Y-43156190D02*
X51522380Y-43156190D01*
X51665238Y-43251428D01*
X51760476Y-43346666D01*
X51808095Y-43441904D01*
X51522380Y-42251428D02*
X51522380Y-42156190D01*
X51570000Y-42060952D01*
X51617619Y-42013333D01*
X51712857Y-41965714D01*
X51903333Y-41918095D01*
X52141428Y-41918095D01*
X52331904Y-41965714D01*
X52427142Y-42013333D01*
X52474761Y-42060952D01*
X52522380Y-42156190D01*
X52522380Y-42251428D01*
X52474761Y-42346666D01*
X52427142Y-42394285D01*
X52331904Y-42441904D01*
X52141428Y-42489523D01*
X51903333Y-42489523D01*
X51712857Y-42441904D01*
X51617619Y-42394285D01*
X51570000Y-42346666D01*
X51522380Y-42251428D01*
X53697142Y-43822857D02*
X53744761Y-43870476D01*
X53792380Y-44013333D01*
X53792380Y-44108571D01*
X53744761Y-44251428D01*
X53649523Y-44346666D01*
X53554285Y-44394285D01*
X53363809Y-44441904D01*
X53220952Y-44441904D01*
X53030476Y-44394285D01*
X52935238Y-44346666D01*
X52840000Y-44251428D01*
X52792380Y-44108571D01*
X52792380Y-44013333D01*
X52840000Y-43870476D01*
X52887619Y-43822857D01*
X53792380Y-42870476D02*
X53792380Y-43441904D01*
X53792380Y-43156190D02*
X52792380Y-43156190D01*
X52935238Y-43251428D01*
X53030476Y-43346666D01*
X53078095Y-43441904D01*
X53792380Y-41918095D02*
X53792380Y-42489523D01*
X53792380Y-42203809D02*
X52792380Y-42203809D01*
X52935238Y-42299047D01*
X53030476Y-42394285D01*
X53078095Y-42489523D01*
X41957142Y-52557142D02*
X41909523Y-52604761D01*
X41766666Y-52652380D01*
X41671428Y-52652380D01*
X41528571Y-52604761D01*
X41433333Y-52509523D01*
X41385714Y-52414285D01*
X41338095Y-52223809D01*
X41338095Y-52080952D01*
X41385714Y-51890476D01*
X41433333Y-51795238D01*
X41528571Y-51700000D01*
X41671428Y-51652380D01*
X41766666Y-51652380D01*
X41909523Y-51700000D01*
X41957142Y-51747619D01*
X42909523Y-52652380D02*
X42338095Y-52652380D01*
X42623809Y-52652380D02*
X42623809Y-51652380D01*
X42528571Y-51795238D01*
X42433333Y-51890476D01*
X42338095Y-51938095D01*
X43290476Y-51747619D02*
X43338095Y-51700000D01*
X43433333Y-51652380D01*
X43671428Y-51652380D01*
X43766666Y-51700000D01*
X43814285Y-51747619D01*
X43861904Y-51842857D01*
X43861904Y-51938095D01*
X43814285Y-52080952D01*
X43242857Y-52652380D01*
X43861904Y-52652380D01*
X56999142Y-47378857D02*
X57046761Y-47426476D01*
X57094380Y-47569333D01*
X57094380Y-47664571D01*
X57046761Y-47807428D01*
X56951523Y-47902666D01*
X56856285Y-47950285D01*
X56665809Y-47997904D01*
X56522952Y-47997904D01*
X56332476Y-47950285D01*
X56237238Y-47902666D01*
X56142000Y-47807428D01*
X56094380Y-47664571D01*
X56094380Y-47569333D01*
X56142000Y-47426476D01*
X56189619Y-47378857D01*
X57094380Y-46426476D02*
X57094380Y-46997904D01*
X57094380Y-46712190D02*
X56094380Y-46712190D01*
X56237238Y-46807428D01*
X56332476Y-46902666D01*
X56380095Y-46997904D01*
X56094380Y-46093142D02*
X56094380Y-45474095D01*
X56475333Y-45807428D01*
X56475333Y-45664571D01*
X56522952Y-45569333D01*
X56570571Y-45521714D01*
X56665809Y-45474095D01*
X56903904Y-45474095D01*
X56999142Y-45521714D01*
X57046761Y-45569333D01*
X57094380Y-45664571D01*
X57094380Y-45950285D01*
X57046761Y-46045523D01*
X56999142Y-46093142D01*
X55221142Y-43822857D02*
X55268761Y-43870476D01*
X55316380Y-44013333D01*
X55316380Y-44108571D01*
X55268761Y-44251428D01*
X55173523Y-44346666D01*
X55078285Y-44394285D01*
X54887809Y-44441904D01*
X54744952Y-44441904D01*
X54554476Y-44394285D01*
X54459238Y-44346666D01*
X54364000Y-44251428D01*
X54316380Y-44108571D01*
X54316380Y-44013333D01*
X54364000Y-43870476D01*
X54411619Y-43822857D01*
X55316380Y-42870476D02*
X55316380Y-43441904D01*
X55316380Y-43156190D02*
X54316380Y-43156190D01*
X54459238Y-43251428D01*
X54554476Y-43346666D01*
X54602095Y-43441904D01*
X54649714Y-42013333D02*
X55316380Y-42013333D01*
X54268761Y-42251428D02*
X54983047Y-42489523D01*
X54983047Y-41870476D01*
X41882142Y-60382142D02*
X41834523Y-60429761D01*
X41691666Y-60477380D01*
X41596428Y-60477380D01*
X41453571Y-60429761D01*
X41358333Y-60334523D01*
X41310714Y-60239285D01*
X41263095Y-60048809D01*
X41263095Y-59905952D01*
X41310714Y-59715476D01*
X41358333Y-59620238D01*
X41453571Y-59525000D01*
X41596428Y-59477380D01*
X41691666Y-59477380D01*
X41834523Y-59525000D01*
X41882142Y-59572619D01*
X42834523Y-60477380D02*
X42263095Y-60477380D01*
X42548809Y-60477380D02*
X42548809Y-59477380D01*
X42453571Y-59620238D01*
X42358333Y-59715476D01*
X42263095Y-59763095D01*
X43167857Y-59477380D02*
X43834523Y-59477380D01*
X43405952Y-60477380D01*
X55557142Y-71042857D02*
X55604761Y-71090476D01*
X55652380Y-71233333D01*
X55652380Y-71328571D01*
X55604761Y-71471428D01*
X55509523Y-71566666D01*
X55414285Y-71614285D01*
X55223809Y-71661904D01*
X55080952Y-71661904D01*
X54890476Y-71614285D01*
X54795238Y-71566666D01*
X54700000Y-71471428D01*
X54652380Y-71328571D01*
X54652380Y-71233333D01*
X54700000Y-71090476D01*
X54747619Y-71042857D01*
X54747619Y-70661904D02*
X54700000Y-70614285D01*
X54652380Y-70519047D01*
X54652380Y-70280952D01*
X54700000Y-70185714D01*
X54747619Y-70138095D01*
X54842857Y-70090476D01*
X54938095Y-70090476D01*
X55080952Y-70138095D01*
X55652380Y-70709523D01*
X55652380Y-70090476D01*
X54652380Y-69471428D02*
X54652380Y-69376190D01*
X54700000Y-69280952D01*
X54747619Y-69233333D01*
X54842857Y-69185714D01*
X55033333Y-69138095D01*
X55271428Y-69138095D01*
X55461904Y-69185714D01*
X55557142Y-69233333D01*
X55604761Y-69280952D01*
X55652380Y-69376190D01*
X55652380Y-69471428D01*
X55604761Y-69566666D01*
X55557142Y-69614285D01*
X55461904Y-69661904D01*
X55271428Y-69709523D01*
X55033333Y-69709523D01*
X54842857Y-69661904D01*
X54747619Y-69614285D01*
X54700000Y-69566666D01*
X54652380Y-69471428D01*
X51357142Y-81957142D02*
X51309523Y-82004761D01*
X51166666Y-82052380D01*
X51071428Y-82052380D01*
X50928571Y-82004761D01*
X50833333Y-81909523D01*
X50785714Y-81814285D01*
X50738095Y-81623809D01*
X50738095Y-81480952D01*
X50785714Y-81290476D01*
X50833333Y-81195238D01*
X50928571Y-81100000D01*
X51071428Y-81052380D01*
X51166666Y-81052380D01*
X51309523Y-81100000D01*
X51357142Y-81147619D01*
X51738095Y-81147619D02*
X51785714Y-81100000D01*
X51880952Y-81052380D01*
X52119047Y-81052380D01*
X52214285Y-81100000D01*
X52261904Y-81147619D01*
X52309523Y-81242857D01*
X52309523Y-81338095D01*
X52261904Y-81480952D01*
X51690476Y-82052380D01*
X52309523Y-82052380D01*
X53166666Y-81385714D02*
X53166666Y-82052380D01*
X52928571Y-81004761D02*
X52690476Y-81719047D01*
X53309523Y-81719047D01*
X48157142Y-79842857D02*
X48204761Y-79890476D01*
X48252380Y-80033333D01*
X48252380Y-80128571D01*
X48204761Y-80271428D01*
X48109523Y-80366666D01*
X48014285Y-80414285D01*
X47823809Y-80461904D01*
X47680952Y-80461904D01*
X47490476Y-80414285D01*
X47395238Y-80366666D01*
X47300000Y-80271428D01*
X47252380Y-80128571D01*
X47252380Y-80033333D01*
X47300000Y-79890476D01*
X47347619Y-79842857D01*
X47347619Y-79461904D02*
X47300000Y-79414285D01*
X47252380Y-79319047D01*
X47252380Y-79080952D01*
X47300000Y-78985714D01*
X47347619Y-78938095D01*
X47442857Y-78890476D01*
X47538095Y-78890476D01*
X47680952Y-78938095D01*
X48252380Y-79509523D01*
X48252380Y-78890476D01*
X47252380Y-77985714D02*
X47252380Y-78461904D01*
X47728571Y-78509523D01*
X47680952Y-78461904D01*
X47633333Y-78366666D01*
X47633333Y-78128571D01*
X47680952Y-78033333D01*
X47728571Y-77985714D01*
X47823809Y-77938095D01*
X48061904Y-77938095D01*
X48157142Y-77985714D01*
X48204761Y-78033333D01*
X48252380Y-78128571D01*
X48252380Y-78366666D01*
X48204761Y-78461904D01*
X48157142Y-78509523D01*
X74657142Y-72542857D02*
X74704761Y-72590476D01*
X74752380Y-72733333D01*
X74752380Y-72828571D01*
X74704761Y-72971428D01*
X74609523Y-73066666D01*
X74514285Y-73114285D01*
X74323809Y-73161904D01*
X74180952Y-73161904D01*
X73990476Y-73114285D01*
X73895238Y-73066666D01*
X73800000Y-72971428D01*
X73752380Y-72828571D01*
X73752380Y-72733333D01*
X73800000Y-72590476D01*
X73847619Y-72542857D01*
X73847619Y-72161904D02*
X73800000Y-72114285D01*
X73752380Y-72019047D01*
X73752380Y-71780952D01*
X73800000Y-71685714D01*
X73847619Y-71638095D01*
X73942857Y-71590476D01*
X74038095Y-71590476D01*
X74180952Y-71638095D01*
X74752380Y-72209523D01*
X74752380Y-71590476D01*
X73752380Y-70733333D02*
X73752380Y-70923809D01*
X73800000Y-71019047D01*
X73847619Y-71066666D01*
X73990476Y-71161904D01*
X74180952Y-71209523D01*
X74561904Y-71209523D01*
X74657142Y-71161904D01*
X74704761Y-71114285D01*
X74752380Y-71019047D01*
X74752380Y-70828571D01*
X74704761Y-70733333D01*
X74657142Y-70685714D01*
X74561904Y-70638095D01*
X74323809Y-70638095D01*
X74228571Y-70685714D01*
X74180952Y-70733333D01*
X74133333Y-70828571D01*
X74133333Y-71019047D01*
X74180952Y-71114285D01*
X74228571Y-71161904D01*
X74323809Y-71209523D01*
X71557142Y-87657142D02*
X71509523Y-87704761D01*
X71366666Y-87752380D01*
X71271428Y-87752380D01*
X71128571Y-87704761D01*
X71033333Y-87609523D01*
X70985714Y-87514285D01*
X70938095Y-87323809D01*
X70938095Y-87180952D01*
X70985714Y-86990476D01*
X71033333Y-86895238D01*
X71128571Y-86800000D01*
X71271428Y-86752380D01*
X71366666Y-86752380D01*
X71509523Y-86800000D01*
X71557142Y-86847619D01*
X71938095Y-86847619D02*
X71985714Y-86800000D01*
X72080952Y-86752380D01*
X72319047Y-86752380D01*
X72414285Y-86800000D01*
X72461904Y-86847619D01*
X72509523Y-86942857D01*
X72509523Y-87038095D01*
X72461904Y-87180952D01*
X71890476Y-87752380D01*
X72509523Y-87752380D01*
X72842857Y-86752380D02*
X73509523Y-86752380D01*
X73080952Y-87752380D01*
X50557142Y-79842857D02*
X50604761Y-79890476D01*
X50652380Y-80033333D01*
X50652380Y-80128571D01*
X50604761Y-80271428D01*
X50509523Y-80366666D01*
X50414285Y-80414285D01*
X50223809Y-80461904D01*
X50080952Y-80461904D01*
X49890476Y-80414285D01*
X49795238Y-80366666D01*
X49700000Y-80271428D01*
X49652380Y-80128571D01*
X49652380Y-80033333D01*
X49700000Y-79890476D01*
X49747619Y-79842857D01*
X49747619Y-79461904D02*
X49700000Y-79414285D01*
X49652380Y-79319047D01*
X49652380Y-79080952D01*
X49700000Y-78985714D01*
X49747619Y-78938095D01*
X49842857Y-78890476D01*
X49938095Y-78890476D01*
X50080952Y-78938095D01*
X50652380Y-79509523D01*
X50652380Y-78890476D01*
X50652380Y-78414285D02*
X50652380Y-78223809D01*
X50604761Y-78128571D01*
X50557142Y-78080952D01*
X50414285Y-77985714D01*
X50223809Y-77938095D01*
X49842857Y-77938095D01*
X49747619Y-77985714D01*
X49700000Y-78033333D01*
X49652380Y-78128571D01*
X49652380Y-78319047D01*
X49700000Y-78414285D01*
X49747619Y-78461904D01*
X49842857Y-78509523D01*
X50080952Y-78509523D01*
X50176190Y-78461904D01*
X50223809Y-78414285D01*
X50271428Y-78319047D01*
X50271428Y-78128571D01*
X50223809Y-78033333D01*
X50176190Y-77985714D01*
X50080952Y-77938095D01*
X51757142Y-79842857D02*
X51804761Y-79890476D01*
X51852380Y-80033333D01*
X51852380Y-80128571D01*
X51804761Y-80271428D01*
X51709523Y-80366666D01*
X51614285Y-80414285D01*
X51423809Y-80461904D01*
X51280952Y-80461904D01*
X51090476Y-80414285D01*
X50995238Y-80366666D01*
X50900000Y-80271428D01*
X50852380Y-80128571D01*
X50852380Y-80033333D01*
X50900000Y-79890476D01*
X50947619Y-79842857D01*
X50852380Y-79509523D02*
X50852380Y-78890476D01*
X51233333Y-79223809D01*
X51233333Y-79080952D01*
X51280952Y-78985714D01*
X51328571Y-78938095D01*
X51423809Y-78890476D01*
X51661904Y-78890476D01*
X51757142Y-78938095D01*
X51804761Y-78985714D01*
X51852380Y-79080952D01*
X51852380Y-79366666D01*
X51804761Y-79461904D01*
X51757142Y-79509523D01*
X50852380Y-78271428D02*
X50852380Y-78176190D01*
X50900000Y-78080952D01*
X50947619Y-78033333D01*
X51042857Y-77985714D01*
X51233333Y-77938095D01*
X51471428Y-77938095D01*
X51661904Y-77985714D01*
X51757142Y-78033333D01*
X51804761Y-78080952D01*
X51852380Y-78176190D01*
X51852380Y-78271428D01*
X51804761Y-78366666D01*
X51757142Y-78414285D01*
X51661904Y-78461904D01*
X51471428Y-78509523D01*
X51233333Y-78509523D01*
X51042857Y-78461904D01*
X50947619Y-78414285D01*
X50900000Y-78366666D01*
X50852380Y-78271428D01*
X60809142Y-49156857D02*
X60856761Y-49204476D01*
X60904380Y-49347333D01*
X60904380Y-49442571D01*
X60856761Y-49585428D01*
X60761523Y-49680666D01*
X60666285Y-49728285D01*
X60475809Y-49775904D01*
X60332952Y-49775904D01*
X60142476Y-49728285D01*
X60047238Y-49680666D01*
X59952000Y-49585428D01*
X59904380Y-49442571D01*
X59904380Y-49347333D01*
X59952000Y-49204476D01*
X59999619Y-49156857D01*
X59904380Y-48823523D02*
X59904380Y-48204476D01*
X60285333Y-48537809D01*
X60285333Y-48394952D01*
X60332952Y-48299714D01*
X60380571Y-48252095D01*
X60475809Y-48204476D01*
X60713904Y-48204476D01*
X60809142Y-48252095D01*
X60856761Y-48299714D01*
X60904380Y-48394952D01*
X60904380Y-48680666D01*
X60856761Y-48775904D01*
X60809142Y-48823523D01*
X60904380Y-47252095D02*
X60904380Y-47823523D01*
X60904380Y-47537809D02*
X59904380Y-47537809D01*
X60047238Y-47633047D01*
X60142476Y-47728285D01*
X60190095Y-47823523D01*
X65889142Y-49156857D02*
X65936761Y-49204476D01*
X65984380Y-49347333D01*
X65984380Y-49442571D01*
X65936761Y-49585428D01*
X65841523Y-49680666D01*
X65746285Y-49728285D01*
X65555809Y-49775904D01*
X65412952Y-49775904D01*
X65222476Y-49728285D01*
X65127238Y-49680666D01*
X65032000Y-49585428D01*
X64984380Y-49442571D01*
X64984380Y-49347333D01*
X65032000Y-49204476D01*
X65079619Y-49156857D01*
X64984380Y-48823523D02*
X64984380Y-48204476D01*
X65365333Y-48537809D01*
X65365333Y-48394952D01*
X65412952Y-48299714D01*
X65460571Y-48252095D01*
X65555809Y-48204476D01*
X65793904Y-48204476D01*
X65889142Y-48252095D01*
X65936761Y-48299714D01*
X65984380Y-48394952D01*
X65984380Y-48680666D01*
X65936761Y-48775904D01*
X65889142Y-48823523D01*
X65079619Y-47823523D02*
X65032000Y-47775904D01*
X64984380Y-47680666D01*
X64984380Y-47442571D01*
X65032000Y-47347333D01*
X65079619Y-47299714D01*
X65174857Y-47252095D01*
X65270095Y-47252095D01*
X65412952Y-47299714D01*
X65984380Y-47871142D01*
X65984380Y-47252095D01*
X60852380Y-82238095D02*
X59852380Y-82238095D01*
X59852380Y-82000000D01*
X59900000Y-81857142D01*
X59995238Y-81761904D01*
X60090476Y-81714285D01*
X60280952Y-81666666D01*
X60423809Y-81666666D01*
X60614285Y-81714285D01*
X60709523Y-81761904D01*
X60804761Y-81857142D01*
X60852380Y-82000000D01*
X60852380Y-82238095D01*
X60852380Y-80714285D02*
X60852380Y-81285714D01*
X60852380Y-81000000D02*
X59852380Y-81000000D01*
X59995238Y-81095238D01*
X60090476Y-81190476D01*
X60138095Y-81285714D01*
X58452380Y-82338095D02*
X57452380Y-82338095D01*
X57452380Y-82100000D01*
X57500000Y-81957142D01*
X57595238Y-81861904D01*
X57690476Y-81814285D01*
X57880952Y-81766666D01*
X58023809Y-81766666D01*
X58214285Y-81814285D01*
X58309523Y-81861904D01*
X58404761Y-81957142D01*
X58452380Y-82100000D01*
X58452380Y-82338095D01*
X57547619Y-81385714D02*
X57500000Y-81338095D01*
X57452380Y-81242857D01*
X57452380Y-81004761D01*
X57500000Y-80909523D01*
X57547619Y-80861904D01*
X57642857Y-80814285D01*
X57738095Y-80814285D01*
X57880952Y-80861904D01*
X58452380Y-81433333D01*
X58452380Y-80814285D01*
X43677380Y-97465476D02*
X43677380Y-97941666D01*
X42677380Y-97941666D01*
X43582142Y-96560714D02*
X43629761Y-96608333D01*
X43677380Y-96751190D01*
X43677380Y-96846428D01*
X43629761Y-96989285D01*
X43534523Y-97084523D01*
X43439285Y-97132142D01*
X43248809Y-97179761D01*
X43105952Y-97179761D01*
X42915476Y-97132142D01*
X42820238Y-97084523D01*
X42725000Y-96989285D01*
X42677380Y-96846428D01*
X42677380Y-96751190D01*
X42725000Y-96608333D01*
X42772619Y-96560714D01*
X43677380Y-96132142D02*
X42677380Y-96132142D01*
X42677380Y-95894047D01*
X42725000Y-95751190D01*
X42820238Y-95655952D01*
X42915476Y-95608333D01*
X43105952Y-95560714D01*
X43248809Y-95560714D01*
X43439285Y-95608333D01*
X43534523Y-95655952D01*
X43629761Y-95751190D01*
X43677380Y-95894047D01*
X43677380Y-96132142D01*
X45091666Y-42227380D02*
X45091666Y-42941666D01*
X45044047Y-43084523D01*
X44948809Y-43179761D01*
X44805952Y-43227380D01*
X44710714Y-43227380D01*
X45472619Y-42227380D02*
X46091666Y-42227380D01*
X45758333Y-42608333D01*
X45901190Y-42608333D01*
X45996428Y-42655952D01*
X46044047Y-42703571D01*
X46091666Y-42798809D01*
X46091666Y-43036904D01*
X46044047Y-43132142D01*
X45996428Y-43179761D01*
X45901190Y-43227380D01*
X45615476Y-43227380D01*
X45520238Y-43179761D01*
X45472619Y-43132142D01*
X45091666Y-33777380D02*
X45091666Y-34491666D01*
X45044047Y-34634523D01*
X44948809Y-34729761D01*
X44805952Y-34777380D01*
X44710714Y-34777380D01*
X45996428Y-34110714D02*
X45996428Y-34777380D01*
X45758333Y-33729761D02*
X45520238Y-34444047D01*
X46139285Y-34444047D01*
X86666666Y-49452380D02*
X86666666Y-50166666D01*
X86619047Y-50309523D01*
X86523809Y-50404761D01*
X86380952Y-50452380D01*
X86285714Y-50452380D01*
X87619047Y-49452380D02*
X87142857Y-49452380D01*
X87095238Y-49928571D01*
X87142857Y-49880952D01*
X87238095Y-49833333D01*
X87476190Y-49833333D01*
X87571428Y-49880952D01*
X87619047Y-49928571D01*
X87666666Y-50023809D01*
X87666666Y-50261904D01*
X87619047Y-50357142D01*
X87571428Y-50404761D01*
X87476190Y-50452380D01*
X87238095Y-50452380D01*
X87142857Y-50404761D01*
X87095238Y-50357142D01*
X83466666Y-59827380D02*
X83466666Y-60541666D01*
X83419047Y-60684523D01*
X83323809Y-60779761D01*
X83180952Y-60827380D01*
X83085714Y-60827380D01*
X83847619Y-59827380D02*
X84514285Y-59827380D01*
X84085714Y-60827380D01*
X52522380Y-40552666D02*
X52522380Y-41028857D01*
X51522380Y-41028857D01*
X52522380Y-39695523D02*
X52522380Y-40266952D01*
X52522380Y-39981238D02*
X51522380Y-39981238D01*
X51665238Y-40076476D01*
X51760476Y-40171714D01*
X51808095Y-40266952D01*
X77138233Y-71540280D02*
X76662042Y-71540280D01*
X76662042Y-70540280D01*
X77423947Y-70635519D02*
X77471566Y-70587900D01*
X77566804Y-70540280D01*
X77804900Y-70540280D01*
X77900138Y-70587900D01*
X77947757Y-70635519D01*
X77995376Y-70730757D01*
X77995376Y-70825995D01*
X77947757Y-70968852D01*
X77376328Y-71540280D01*
X77995376Y-71540280D01*
X79883333Y-86392780D02*
X79407142Y-86392780D01*
X79407142Y-85392780D01*
X80121428Y-85392780D02*
X80740476Y-85392780D01*
X80407142Y-85773733D01*
X80550000Y-85773733D01*
X80645238Y-85821352D01*
X80692857Y-85868971D01*
X80740476Y-85964209D01*
X80740476Y-86202304D01*
X80692857Y-86297542D01*
X80645238Y-86345161D01*
X80550000Y-86392780D01*
X80264285Y-86392780D01*
X80169047Y-86345161D01*
X80121428Y-86297542D01*
X72733333Y-79652380D02*
X72257142Y-79652380D01*
X72257142Y-78652380D01*
X73495238Y-78985714D02*
X73495238Y-79652380D01*
X73257142Y-78604761D02*
X73019047Y-79319047D01*
X73638095Y-79319047D01*
X66902380Y-61466666D02*
X66426190Y-61800000D01*
X66902380Y-62038095D02*
X65902380Y-62038095D01*
X65902380Y-61657142D01*
X65950000Y-61561904D01*
X65997619Y-61514285D01*
X66092857Y-61466666D01*
X66235714Y-61466666D01*
X66330952Y-61514285D01*
X66378571Y-61561904D01*
X66426190Y-61657142D01*
X66426190Y-62038095D01*
X66902380Y-60514285D02*
X66902380Y-61085714D01*
X66902380Y-60800000D02*
X65902380Y-60800000D01*
X66045238Y-60895238D01*
X66140476Y-60990476D01*
X66188095Y-61085714D01*
X66533333Y-78952380D02*
X66200000Y-78476190D01*
X65961904Y-78952380D02*
X65961904Y-77952380D01*
X66342857Y-77952380D01*
X66438095Y-78000000D01*
X66485714Y-78047619D01*
X66533333Y-78142857D01*
X66533333Y-78285714D01*
X66485714Y-78380952D01*
X66438095Y-78428571D01*
X66342857Y-78476190D01*
X65961904Y-78476190D01*
X66866666Y-77952380D02*
X67485714Y-77952380D01*
X67152380Y-78333333D01*
X67295238Y-78333333D01*
X67390476Y-78380952D01*
X67438095Y-78428571D01*
X67485714Y-78523809D01*
X67485714Y-78761904D01*
X67438095Y-78857142D01*
X67390476Y-78904761D01*
X67295238Y-78952380D01*
X67009523Y-78952380D01*
X66914285Y-78904761D01*
X66866666Y-78857142D01*
X42033333Y-55852380D02*
X41700000Y-55376190D01*
X41461904Y-55852380D02*
X41461904Y-54852380D01*
X41842857Y-54852380D01*
X41938095Y-54900000D01*
X41985714Y-54947619D01*
X42033333Y-55042857D01*
X42033333Y-55185714D01*
X41985714Y-55280952D01*
X41938095Y-55328571D01*
X41842857Y-55376190D01*
X41461904Y-55376190D01*
X42890476Y-55185714D02*
X42890476Y-55852380D01*
X42652380Y-54804761D02*
X42414285Y-55519047D01*
X43033333Y-55519047D01*
X42033333Y-57452380D02*
X41700000Y-56976190D01*
X41461904Y-57452380D02*
X41461904Y-56452380D01*
X41842857Y-56452380D01*
X41938095Y-56500000D01*
X41985714Y-56547619D01*
X42033333Y-56642857D01*
X42033333Y-56785714D01*
X41985714Y-56880952D01*
X41938095Y-56928571D01*
X41842857Y-56976190D01*
X41461904Y-56976190D01*
X42938095Y-56452380D02*
X42461904Y-56452380D01*
X42414285Y-56928571D01*
X42461904Y-56880952D01*
X42557142Y-56833333D01*
X42795238Y-56833333D01*
X42890476Y-56880952D01*
X42938095Y-56928571D01*
X42985714Y-57023809D01*
X42985714Y-57261904D01*
X42938095Y-57357142D01*
X42890476Y-57404761D01*
X42795238Y-57452380D01*
X42557142Y-57452380D01*
X42461904Y-57404761D01*
X42414285Y-57357142D01*
X48033333Y-47652380D02*
X47700000Y-47176190D01*
X47461904Y-47652380D02*
X47461904Y-46652380D01*
X47842857Y-46652380D01*
X47938095Y-46700000D01*
X47985714Y-46747619D01*
X48033333Y-46842857D01*
X48033333Y-46985714D01*
X47985714Y-47080952D01*
X47938095Y-47128571D01*
X47842857Y-47176190D01*
X47461904Y-47176190D01*
X48890476Y-46652380D02*
X48700000Y-46652380D01*
X48604761Y-46700000D01*
X48557142Y-46747619D01*
X48461904Y-46890476D01*
X48414285Y-47080952D01*
X48414285Y-47461904D01*
X48461904Y-47557142D01*
X48509523Y-47604761D01*
X48604761Y-47652380D01*
X48795238Y-47652380D01*
X48890476Y-47604761D01*
X48938095Y-47557142D01*
X48985714Y-47461904D01*
X48985714Y-47223809D01*
X48938095Y-47128571D01*
X48890476Y-47080952D01*
X48795238Y-47033333D01*
X48604761Y-47033333D01*
X48509523Y-47080952D01*
X48461904Y-47128571D01*
X48414285Y-47223809D01*
X42033333Y-54452380D02*
X41700000Y-53976190D01*
X41461904Y-54452380D02*
X41461904Y-53452380D01*
X41842857Y-53452380D01*
X41938095Y-53500000D01*
X41985714Y-53547619D01*
X42033333Y-53642857D01*
X42033333Y-53785714D01*
X41985714Y-53880952D01*
X41938095Y-53928571D01*
X41842857Y-53976190D01*
X41461904Y-53976190D01*
X42366666Y-53452380D02*
X43033333Y-53452380D01*
X42604761Y-54452380D01*
X61733333Y-71752380D02*
X61400000Y-71276190D01*
X61161904Y-71752380D02*
X61161904Y-70752380D01*
X61542857Y-70752380D01*
X61638095Y-70800000D01*
X61685714Y-70847619D01*
X61733333Y-70942857D01*
X61733333Y-71085714D01*
X61685714Y-71180952D01*
X61638095Y-71228571D01*
X61542857Y-71276190D01*
X61161904Y-71276190D01*
X62304761Y-71180952D02*
X62209523Y-71133333D01*
X62161904Y-71085714D01*
X62114285Y-70990476D01*
X62114285Y-70942857D01*
X62161904Y-70847619D01*
X62209523Y-70800000D01*
X62304761Y-70752380D01*
X62495238Y-70752380D01*
X62590476Y-70800000D01*
X62638095Y-70847619D01*
X62685714Y-70942857D01*
X62685714Y-70990476D01*
X62638095Y-71085714D01*
X62590476Y-71133333D01*
X62495238Y-71180952D01*
X62304761Y-71180952D01*
X62209523Y-71228571D01*
X62161904Y-71276190D01*
X62114285Y-71371428D01*
X62114285Y-71561904D01*
X62161904Y-71657142D01*
X62209523Y-71704761D01*
X62304761Y-71752380D01*
X62495238Y-71752380D01*
X62590476Y-71704761D01*
X62638095Y-71657142D01*
X62685714Y-71561904D01*
X62685714Y-71371428D01*
X62638095Y-71276190D01*
X62590476Y-71228571D01*
X62495238Y-71180952D01*
X55316380Y-40552666D02*
X54840190Y-40886000D01*
X55316380Y-41124095D02*
X54316380Y-41124095D01*
X54316380Y-40743142D01*
X54364000Y-40647904D01*
X54411619Y-40600285D01*
X54506857Y-40552666D01*
X54649714Y-40552666D01*
X54744952Y-40600285D01*
X54792571Y-40647904D01*
X54840190Y-40743142D01*
X54840190Y-41124095D01*
X55316380Y-40076476D02*
X55316380Y-39886000D01*
X55268761Y-39790761D01*
X55221142Y-39743142D01*
X55078285Y-39647904D01*
X54887809Y-39600285D01*
X54506857Y-39600285D01*
X54411619Y-39647904D01*
X54364000Y-39695523D01*
X54316380Y-39790761D01*
X54316380Y-39981238D01*
X54364000Y-40076476D01*
X54411619Y-40124095D01*
X54506857Y-40171714D01*
X54744952Y-40171714D01*
X54840190Y-40124095D01*
X54887809Y-40076476D01*
X54935428Y-39981238D01*
X54935428Y-39790761D01*
X54887809Y-39695523D01*
X54840190Y-39647904D01*
X54744952Y-39600285D01*
X53852380Y-40520857D02*
X53376190Y-40854190D01*
X53852380Y-41092285D02*
X52852380Y-41092285D01*
X52852380Y-40711333D01*
X52900000Y-40616095D01*
X52947619Y-40568476D01*
X53042857Y-40520857D01*
X53185714Y-40520857D01*
X53280952Y-40568476D01*
X53328571Y-40616095D01*
X53376190Y-40711333D01*
X53376190Y-41092285D01*
X53852380Y-39568476D02*
X53852380Y-40139904D01*
X53852380Y-39854190D02*
X52852380Y-39854190D01*
X52995238Y-39949428D01*
X53090476Y-40044666D01*
X53138095Y-40139904D01*
X52852380Y-38949428D02*
X52852380Y-38854190D01*
X52900000Y-38758952D01*
X52947619Y-38711333D01*
X53042857Y-38663714D01*
X53233333Y-38616095D01*
X53471428Y-38616095D01*
X53661904Y-38663714D01*
X53757142Y-38711333D01*
X53804761Y-38758952D01*
X53852380Y-38854190D01*
X53852380Y-38949428D01*
X53804761Y-39044666D01*
X53757142Y-39092285D01*
X53661904Y-39139904D01*
X53471428Y-39187523D01*
X53233333Y-39187523D01*
X53042857Y-39139904D01*
X52947619Y-39092285D01*
X52900000Y-39044666D01*
X52852380Y-38949428D01*
X41957142Y-59052380D02*
X41623809Y-58576190D01*
X41385714Y-59052380D02*
X41385714Y-58052380D01*
X41766666Y-58052380D01*
X41861904Y-58100000D01*
X41909523Y-58147619D01*
X41957142Y-58242857D01*
X41957142Y-58385714D01*
X41909523Y-58480952D01*
X41861904Y-58528571D01*
X41766666Y-58576190D01*
X41385714Y-58576190D01*
X42909523Y-59052380D02*
X42338095Y-59052380D01*
X42623809Y-59052380D02*
X42623809Y-58052380D01*
X42528571Y-58195238D01*
X42433333Y-58290476D01*
X42338095Y-58338095D01*
X43861904Y-59052380D02*
X43290476Y-59052380D01*
X43576190Y-59052380D02*
X43576190Y-58052380D01*
X43480952Y-58195238D01*
X43385714Y-58290476D01*
X43290476Y-58338095D01*
X41932142Y-61777380D02*
X41598809Y-61301190D01*
X41360714Y-61777380D02*
X41360714Y-60777380D01*
X41741666Y-60777380D01*
X41836904Y-60825000D01*
X41884523Y-60872619D01*
X41932142Y-60967857D01*
X41932142Y-61110714D01*
X41884523Y-61205952D01*
X41836904Y-61253571D01*
X41741666Y-61301190D01*
X41360714Y-61301190D01*
X42884523Y-61777380D02*
X42313095Y-61777380D01*
X42598809Y-61777380D02*
X42598809Y-60777380D01*
X42503571Y-60920238D01*
X42408333Y-61015476D01*
X42313095Y-61063095D01*
X43741666Y-61110714D02*
X43741666Y-61777380D01*
X43503571Y-60729761D02*
X43265476Y-61444047D01*
X43884523Y-61444047D01*
X77652380Y-36042857D02*
X77176190Y-36376190D01*
X77652380Y-36614285D02*
X76652380Y-36614285D01*
X76652380Y-36233333D01*
X76700000Y-36138095D01*
X76747619Y-36090476D01*
X76842857Y-36042857D01*
X76985714Y-36042857D01*
X77080952Y-36090476D01*
X77128571Y-36138095D01*
X77176190Y-36233333D01*
X77176190Y-36614285D01*
X77652380Y-35090476D02*
X77652380Y-35661904D01*
X77652380Y-35376190D02*
X76652380Y-35376190D01*
X76795238Y-35471428D01*
X76890476Y-35566666D01*
X76938095Y-35661904D01*
X76652380Y-34185714D02*
X76652380Y-34661904D01*
X77128571Y-34709523D01*
X77080952Y-34661904D01*
X77033333Y-34566666D01*
X77033333Y-34328571D01*
X77080952Y-34233333D01*
X77128571Y-34185714D01*
X77223809Y-34138095D01*
X77461904Y-34138095D01*
X77557142Y-34185714D01*
X77604761Y-34233333D01*
X77652380Y-34328571D01*
X77652380Y-34566666D01*
X77604761Y-34661904D01*
X77557142Y-34709523D01*
X79457142Y-76552380D02*
X79123809Y-76076190D01*
X78885714Y-76552380D02*
X78885714Y-75552380D01*
X79266666Y-75552380D01*
X79361904Y-75600000D01*
X79409523Y-75647619D01*
X79457142Y-75742857D01*
X79457142Y-75885714D01*
X79409523Y-75980952D01*
X79361904Y-76028571D01*
X79266666Y-76076190D01*
X78885714Y-76076190D01*
X80409523Y-76552380D02*
X79838095Y-76552380D01*
X80123809Y-76552380D02*
X80123809Y-75552380D01*
X80028571Y-75695238D01*
X79933333Y-75790476D01*
X79838095Y-75838095D01*
X81266666Y-75552380D02*
X81076190Y-75552380D01*
X80980952Y-75600000D01*
X80933333Y-75647619D01*
X80838095Y-75790476D01*
X80790476Y-75980952D01*
X80790476Y-76361904D01*
X80838095Y-76457142D01*
X80885714Y-76504761D01*
X80980952Y-76552380D01*
X81171428Y-76552380D01*
X81266666Y-76504761D01*
X81314285Y-76457142D01*
X81361904Y-76361904D01*
X81361904Y-76123809D01*
X81314285Y-76028571D01*
X81266666Y-75980952D01*
X81171428Y-75933333D01*
X80980952Y-75933333D01*
X80885714Y-75980952D01*
X80838095Y-76028571D01*
X80790476Y-76123809D01*
X71557142Y-86252380D02*
X71223809Y-85776190D01*
X70985714Y-86252380D02*
X70985714Y-85252380D01*
X71366666Y-85252380D01*
X71461904Y-85300000D01*
X71509523Y-85347619D01*
X71557142Y-85442857D01*
X71557142Y-85585714D01*
X71509523Y-85680952D01*
X71461904Y-85728571D01*
X71366666Y-85776190D01*
X70985714Y-85776190D01*
X72509523Y-86252380D02*
X71938095Y-86252380D01*
X72223809Y-86252380D02*
X72223809Y-85252380D01*
X72128571Y-85395238D01*
X72033333Y-85490476D01*
X71938095Y-85538095D01*
X72842857Y-85252380D02*
X73509523Y-85252380D01*
X73080952Y-86252380D01*
X72457142Y-82902380D02*
X72123809Y-82426190D01*
X71885714Y-82902380D02*
X71885714Y-81902380D01*
X72266666Y-81902380D01*
X72361904Y-81950000D01*
X72409523Y-81997619D01*
X72457142Y-82092857D01*
X72457142Y-82235714D01*
X72409523Y-82330952D01*
X72361904Y-82378571D01*
X72266666Y-82426190D01*
X71885714Y-82426190D01*
X73409523Y-82902380D02*
X72838095Y-82902380D01*
X73123809Y-82902380D02*
X73123809Y-81902380D01*
X73028571Y-82045238D01*
X72933333Y-82140476D01*
X72838095Y-82188095D01*
X73980952Y-82330952D02*
X73885714Y-82283333D01*
X73838095Y-82235714D01*
X73790476Y-82140476D01*
X73790476Y-82092857D01*
X73838095Y-81997619D01*
X73885714Y-81950000D01*
X73980952Y-81902380D01*
X74171428Y-81902380D01*
X74266666Y-81950000D01*
X74314285Y-81997619D01*
X74361904Y-82092857D01*
X74361904Y-82140476D01*
X74314285Y-82235714D01*
X74266666Y-82283333D01*
X74171428Y-82330952D01*
X73980952Y-82330952D01*
X73885714Y-82378571D01*
X73838095Y-82426190D01*
X73790476Y-82521428D01*
X73790476Y-82711904D01*
X73838095Y-82807142D01*
X73885714Y-82854761D01*
X73980952Y-82902380D01*
X74171428Y-82902380D01*
X74266666Y-82854761D01*
X74314285Y-82807142D01*
X74361904Y-82711904D01*
X74361904Y-82521428D01*
X74314285Y-82426190D01*
X74266666Y-82378571D01*
X74171428Y-82330952D01*
X79457142Y-75252380D02*
X79123809Y-74776190D01*
X78885714Y-75252380D02*
X78885714Y-74252380D01*
X79266666Y-74252380D01*
X79361904Y-74300000D01*
X79409523Y-74347619D01*
X79457142Y-74442857D01*
X79457142Y-74585714D01*
X79409523Y-74680952D01*
X79361904Y-74728571D01*
X79266666Y-74776190D01*
X78885714Y-74776190D01*
X80409523Y-75252380D02*
X79838095Y-75252380D01*
X80123809Y-75252380D02*
X80123809Y-74252380D01*
X80028571Y-74395238D01*
X79933333Y-74490476D01*
X79838095Y-74538095D01*
X80885714Y-75252380D02*
X81076190Y-75252380D01*
X81171428Y-75204761D01*
X81219047Y-75157142D01*
X81314285Y-75014285D01*
X81361904Y-74823809D01*
X81361904Y-74442857D01*
X81314285Y-74347619D01*
X81266666Y-74300000D01*
X81171428Y-74252380D01*
X80980952Y-74252380D01*
X80885714Y-74300000D01*
X80838095Y-74347619D01*
X80790476Y-74442857D01*
X80790476Y-74680952D01*
X80838095Y-74776190D01*
X80885714Y-74823809D01*
X80980952Y-74871428D01*
X81171428Y-74871428D01*
X81266666Y-74823809D01*
X81314285Y-74776190D01*
X81361904Y-74680952D01*
X71557142Y-89152380D02*
X71223809Y-88676190D01*
X70985714Y-89152380D02*
X70985714Y-88152380D01*
X71366666Y-88152380D01*
X71461904Y-88200000D01*
X71509523Y-88247619D01*
X71557142Y-88342857D01*
X71557142Y-88485714D01*
X71509523Y-88580952D01*
X71461904Y-88628571D01*
X71366666Y-88676190D01*
X70985714Y-88676190D01*
X71938095Y-88247619D02*
X71985714Y-88200000D01*
X72080952Y-88152380D01*
X72319047Y-88152380D01*
X72414285Y-88200000D01*
X72461904Y-88247619D01*
X72509523Y-88342857D01*
X72509523Y-88438095D01*
X72461904Y-88580952D01*
X71890476Y-89152380D01*
X72509523Y-89152380D01*
X73128571Y-88152380D02*
X73223809Y-88152380D01*
X73319047Y-88200000D01*
X73366666Y-88247619D01*
X73414285Y-88342857D01*
X73461904Y-88533333D01*
X73461904Y-88771428D01*
X73414285Y-88961904D01*
X73366666Y-89057142D01*
X73319047Y-89104761D01*
X73223809Y-89152380D01*
X73128571Y-89152380D01*
X73033333Y-89104761D01*
X72985714Y-89057142D01*
X72938095Y-88961904D01*
X72890476Y-88771428D01*
X72890476Y-88533333D01*
X72938095Y-88342857D01*
X72985714Y-88247619D01*
X73033333Y-88200000D01*
X73128571Y-88152380D01*
X68757142Y-87752380D02*
X68423809Y-87276190D01*
X68185714Y-87752380D02*
X68185714Y-86752380D01*
X68566666Y-86752380D01*
X68661904Y-86800000D01*
X68709523Y-86847619D01*
X68757142Y-86942857D01*
X68757142Y-87085714D01*
X68709523Y-87180952D01*
X68661904Y-87228571D01*
X68566666Y-87276190D01*
X68185714Y-87276190D01*
X69138095Y-86847619D02*
X69185714Y-86800000D01*
X69280952Y-86752380D01*
X69519047Y-86752380D01*
X69614285Y-86800000D01*
X69661904Y-86847619D01*
X69709523Y-86942857D01*
X69709523Y-87038095D01*
X69661904Y-87180952D01*
X69090476Y-87752380D01*
X69709523Y-87752380D01*
X70661904Y-87752380D02*
X70090476Y-87752380D01*
X70376190Y-87752380D02*
X70376190Y-86752380D01*
X70280952Y-86895238D01*
X70185714Y-86990476D01*
X70090476Y-87038095D01*
X49452380Y-79842857D02*
X48976190Y-80176190D01*
X49452380Y-80414285D02*
X48452380Y-80414285D01*
X48452380Y-80033333D01*
X48500000Y-79938095D01*
X48547619Y-79890476D01*
X48642857Y-79842857D01*
X48785714Y-79842857D01*
X48880952Y-79890476D01*
X48928571Y-79938095D01*
X48976190Y-80033333D01*
X48976190Y-80414285D01*
X48547619Y-79461904D02*
X48500000Y-79414285D01*
X48452380Y-79319047D01*
X48452380Y-79080952D01*
X48500000Y-78985714D01*
X48547619Y-78938095D01*
X48642857Y-78890476D01*
X48738095Y-78890476D01*
X48880952Y-78938095D01*
X49452380Y-79509523D01*
X49452380Y-78890476D01*
X48547619Y-78509523D02*
X48500000Y-78461904D01*
X48452380Y-78366666D01*
X48452380Y-78128571D01*
X48500000Y-78033333D01*
X48547619Y-77985714D01*
X48642857Y-77938095D01*
X48738095Y-77938095D01*
X48880952Y-77985714D01*
X49452380Y-78557142D01*
X49452380Y-77938095D01*
X53052380Y-79842857D02*
X52576190Y-80176190D01*
X53052380Y-80414285D02*
X52052380Y-80414285D01*
X52052380Y-80033333D01*
X52100000Y-79938095D01*
X52147619Y-79890476D01*
X52242857Y-79842857D01*
X52385714Y-79842857D01*
X52480952Y-79890476D01*
X52528571Y-79938095D01*
X52576190Y-80033333D01*
X52576190Y-80414285D01*
X52147619Y-79461904D02*
X52100000Y-79414285D01*
X52052380Y-79319047D01*
X52052380Y-79080952D01*
X52100000Y-78985714D01*
X52147619Y-78938095D01*
X52242857Y-78890476D01*
X52338095Y-78890476D01*
X52480952Y-78938095D01*
X53052380Y-79509523D01*
X53052380Y-78890476D01*
X52052380Y-78557142D02*
X52052380Y-77938095D01*
X52433333Y-78271428D01*
X52433333Y-78128571D01*
X52480952Y-78033333D01*
X52528571Y-77985714D01*
X52623809Y-77938095D01*
X52861904Y-77938095D01*
X52957142Y-77985714D01*
X53004761Y-78033333D01*
X53052380Y-78128571D01*
X53052380Y-78414285D01*
X53004761Y-78509523D01*
X52957142Y-78557142D01*
X60252380Y-39442857D02*
X59776190Y-39776190D01*
X60252380Y-40014285D02*
X59252380Y-40014285D01*
X59252380Y-39633333D01*
X59300000Y-39538095D01*
X59347619Y-39490476D01*
X59442857Y-39442857D01*
X59585714Y-39442857D01*
X59680952Y-39490476D01*
X59728571Y-39538095D01*
X59776190Y-39633333D01*
X59776190Y-40014285D01*
X59347619Y-39061904D02*
X59300000Y-39014285D01*
X59252380Y-38919047D01*
X59252380Y-38680952D01*
X59300000Y-38585714D01*
X59347619Y-38538095D01*
X59442857Y-38490476D01*
X59538095Y-38490476D01*
X59680952Y-38538095D01*
X60252380Y-39109523D01*
X60252380Y-38490476D01*
X59252380Y-37585714D02*
X59252380Y-38061904D01*
X59728571Y-38109523D01*
X59680952Y-38061904D01*
X59633333Y-37966666D01*
X59633333Y-37728571D01*
X59680952Y-37633333D01*
X59728571Y-37585714D01*
X59823809Y-37538095D01*
X60061904Y-37538095D01*
X60157142Y-37585714D01*
X60204761Y-37633333D01*
X60252380Y-37728571D01*
X60252380Y-37966666D01*
X60204761Y-38061904D01*
X60157142Y-38109523D01*
X63252380Y-39442857D02*
X62776190Y-39776190D01*
X63252380Y-40014285D02*
X62252380Y-40014285D01*
X62252380Y-39633333D01*
X62300000Y-39538095D01*
X62347619Y-39490476D01*
X62442857Y-39442857D01*
X62585714Y-39442857D01*
X62680952Y-39490476D01*
X62728571Y-39538095D01*
X62776190Y-39633333D01*
X62776190Y-40014285D01*
X62347619Y-39061904D02*
X62300000Y-39014285D01*
X62252380Y-38919047D01*
X62252380Y-38680952D01*
X62300000Y-38585714D01*
X62347619Y-38538095D01*
X62442857Y-38490476D01*
X62538095Y-38490476D01*
X62680952Y-38538095D01*
X63252380Y-39109523D01*
X63252380Y-38490476D01*
X62252380Y-37633333D02*
X62252380Y-37823809D01*
X62300000Y-37919047D01*
X62347619Y-37966666D01*
X62490476Y-38061904D01*
X62680952Y-38109523D01*
X63061904Y-38109523D01*
X63157142Y-38061904D01*
X63204761Y-38014285D01*
X63252380Y-37919047D01*
X63252380Y-37728571D01*
X63204761Y-37633333D01*
X63157142Y-37585714D01*
X63061904Y-37538095D01*
X62823809Y-37538095D01*
X62728571Y-37585714D01*
X62680952Y-37633333D01*
X62633333Y-37728571D01*
X62633333Y-37919047D01*
X62680952Y-38014285D01*
X62728571Y-38061904D01*
X62823809Y-38109523D01*
X61852380Y-39442857D02*
X61376190Y-39776190D01*
X61852380Y-40014285D02*
X60852380Y-40014285D01*
X60852380Y-39633333D01*
X60900000Y-39538095D01*
X60947619Y-39490476D01*
X61042857Y-39442857D01*
X61185714Y-39442857D01*
X61280952Y-39490476D01*
X61328571Y-39538095D01*
X61376190Y-39633333D01*
X61376190Y-40014285D01*
X60947619Y-39061904D02*
X60900000Y-39014285D01*
X60852380Y-38919047D01*
X60852380Y-38680952D01*
X60900000Y-38585714D01*
X60947619Y-38538095D01*
X61042857Y-38490476D01*
X61138095Y-38490476D01*
X61280952Y-38538095D01*
X61852380Y-39109523D01*
X61852380Y-38490476D01*
X61280952Y-37919047D02*
X61233333Y-38014285D01*
X61185714Y-38061904D01*
X61090476Y-38109523D01*
X61042857Y-38109523D01*
X60947619Y-38061904D01*
X60900000Y-38014285D01*
X60852380Y-37919047D01*
X60852380Y-37728571D01*
X60900000Y-37633333D01*
X60947619Y-37585714D01*
X61042857Y-37538095D01*
X61090476Y-37538095D01*
X61185714Y-37585714D01*
X61233333Y-37633333D01*
X61280952Y-37728571D01*
X61280952Y-37919047D01*
X61328571Y-38014285D01*
X61376190Y-38061904D01*
X61471428Y-38109523D01*
X61661904Y-38109523D01*
X61757142Y-38061904D01*
X61804761Y-38014285D01*
X61852380Y-37919047D01*
X61852380Y-37728571D01*
X61804761Y-37633333D01*
X61757142Y-37585714D01*
X61661904Y-37538095D01*
X61471428Y-37538095D01*
X61376190Y-37585714D01*
X61328571Y-37633333D01*
X61280952Y-37728571D01*
X64852380Y-39442857D02*
X64376190Y-39776190D01*
X64852380Y-40014285D02*
X63852380Y-40014285D01*
X63852380Y-39633333D01*
X63900000Y-39538095D01*
X63947619Y-39490476D01*
X64042857Y-39442857D01*
X64185714Y-39442857D01*
X64280952Y-39490476D01*
X64328571Y-39538095D01*
X64376190Y-39633333D01*
X64376190Y-40014285D01*
X63947619Y-39061904D02*
X63900000Y-39014285D01*
X63852380Y-38919047D01*
X63852380Y-38680952D01*
X63900000Y-38585714D01*
X63947619Y-38538095D01*
X64042857Y-38490476D01*
X64138095Y-38490476D01*
X64280952Y-38538095D01*
X64852380Y-39109523D01*
X64852380Y-38490476D01*
X64852380Y-38014285D02*
X64852380Y-37823809D01*
X64804761Y-37728571D01*
X64757142Y-37680952D01*
X64614285Y-37585714D01*
X64423809Y-37538095D01*
X64042857Y-37538095D01*
X63947619Y-37585714D01*
X63900000Y-37633333D01*
X63852380Y-37728571D01*
X63852380Y-37919047D01*
X63900000Y-38014285D01*
X63947619Y-38061904D01*
X64042857Y-38109523D01*
X64280952Y-38109523D01*
X64376190Y-38061904D01*
X64423809Y-38014285D01*
X64471428Y-37919047D01*
X64471428Y-37728571D01*
X64423809Y-37633333D01*
X64376190Y-37585714D01*
X64280952Y-37538095D01*
X66452380Y-39442857D02*
X65976190Y-39776190D01*
X66452380Y-40014285D02*
X65452380Y-40014285D01*
X65452380Y-39633333D01*
X65500000Y-39538095D01*
X65547619Y-39490476D01*
X65642857Y-39442857D01*
X65785714Y-39442857D01*
X65880952Y-39490476D01*
X65928571Y-39538095D01*
X65976190Y-39633333D01*
X65976190Y-40014285D01*
X65452380Y-39109523D02*
X65452380Y-38490476D01*
X65833333Y-38823809D01*
X65833333Y-38680952D01*
X65880952Y-38585714D01*
X65928571Y-38538095D01*
X66023809Y-38490476D01*
X66261904Y-38490476D01*
X66357142Y-38538095D01*
X66404761Y-38585714D01*
X66452380Y-38680952D01*
X66452380Y-38966666D01*
X66404761Y-39061904D01*
X66357142Y-39109523D01*
X65452380Y-37871428D02*
X65452380Y-37776190D01*
X65500000Y-37680952D01*
X65547619Y-37633333D01*
X65642857Y-37585714D01*
X65833333Y-37538095D01*
X66071428Y-37538095D01*
X66261904Y-37585714D01*
X66357142Y-37633333D01*
X66404761Y-37680952D01*
X66452380Y-37776190D01*
X66452380Y-37871428D01*
X66404761Y-37966666D01*
X66357142Y-38014285D01*
X66261904Y-38061904D01*
X66071428Y-38109523D01*
X65833333Y-38109523D01*
X65642857Y-38061904D01*
X65547619Y-38014285D01*
X65500000Y-37966666D01*
X65452380Y-37871428D01*
X82367380Y-78811357D02*
X81891190Y-79144690D01*
X82367380Y-79382785D02*
X81367380Y-79382785D01*
X81367380Y-79001833D01*
X81415000Y-78906595D01*
X81462619Y-78858976D01*
X81557857Y-78811357D01*
X81700714Y-78811357D01*
X81795952Y-78858976D01*
X81843571Y-78906595D01*
X81891190Y-79001833D01*
X81891190Y-79382785D01*
X81367380Y-78478023D02*
X81367380Y-77858976D01*
X81748333Y-78192309D01*
X81748333Y-78049452D01*
X81795952Y-77954214D01*
X81843571Y-77906595D01*
X81938809Y-77858976D01*
X82176904Y-77858976D01*
X82272142Y-77906595D01*
X82319761Y-77954214D01*
X82367380Y-78049452D01*
X82367380Y-78335166D01*
X82319761Y-78430404D01*
X82272142Y-78478023D01*
X82367380Y-76906595D02*
X82367380Y-77478023D01*
X82367380Y-77192309D02*
X81367380Y-77192309D01*
X81510238Y-77287547D01*
X81605476Y-77382785D01*
X81653095Y-77478023D01*
X84104761Y-45533333D02*
X84152380Y-45390476D01*
X84152380Y-45152380D01*
X84104761Y-45057142D01*
X84057142Y-45009523D01*
X83961904Y-44961904D01*
X83866666Y-44961904D01*
X83771428Y-45009523D01*
X83723809Y-45057142D01*
X83676190Y-45152380D01*
X83628571Y-45342857D01*
X83580952Y-45438095D01*
X83533333Y-45485714D01*
X83438095Y-45533333D01*
X83342857Y-45533333D01*
X83247619Y-45485714D01*
X83200000Y-45438095D01*
X83152380Y-45342857D01*
X83152380Y-45104761D01*
X83200000Y-44961904D01*
X83152380Y-44628571D02*
X84152380Y-44390476D01*
X83438095Y-44200000D01*
X84152380Y-44009523D01*
X83152380Y-43771428D01*
X84152380Y-42866666D02*
X84152380Y-43438095D01*
X84152380Y-43152380D02*
X83152380Y-43152380D01*
X83295238Y-43247619D01*
X83390476Y-43342857D01*
X83438095Y-43438095D01*
X75552380Y-64119047D02*
X75552380Y-64690476D01*
X75552380Y-64404761D02*
X74552380Y-64404761D01*
X74695238Y-64500000D01*
X74790476Y-64595238D01*
X74838095Y-64690476D01*
X74552380Y-63833333D02*
X75552380Y-63500000D01*
X74552380Y-63166666D01*
X74647619Y-62880952D02*
X74600000Y-62833333D01*
X74552380Y-62738095D01*
X74552380Y-62500000D01*
X74600000Y-62404761D01*
X74647619Y-62357142D01*
X74742857Y-62309523D01*
X74838095Y-62309523D01*
X74980952Y-62357142D01*
X75552380Y-62928571D01*
X75552380Y-62309523D01*
X63347619Y-89790476D02*
X63300000Y-89742857D01*
X63252380Y-89647619D01*
X63252380Y-89409523D01*
X63300000Y-89314285D01*
X63347619Y-89266666D01*
X63442857Y-89219047D01*
X63538095Y-89219047D01*
X63680952Y-89266666D01*
X64252380Y-89838095D01*
X64252380Y-89219047D01*
X63252380Y-88933333D02*
X64252380Y-88600000D01*
X63252380Y-88266666D01*
X63252380Y-87457142D02*
X63252380Y-87933333D01*
X63728571Y-87980952D01*
X63680952Y-87933333D01*
X63633333Y-87838095D01*
X63633333Y-87600000D01*
X63680952Y-87504761D01*
X63728571Y-87457142D01*
X63823809Y-87409523D01*
X64061904Y-87409523D01*
X64157142Y-87457142D01*
X64204761Y-87504761D01*
X64252380Y-87600000D01*
X64252380Y-87838095D01*
X64204761Y-87933333D01*
X64157142Y-87980952D01*
X68552380Y-73638095D02*
X68552380Y-73019047D01*
X68933333Y-73352380D01*
X68933333Y-73209523D01*
X68980952Y-73114285D01*
X69028571Y-73066666D01*
X69123809Y-73019047D01*
X69361904Y-73019047D01*
X69457142Y-73066666D01*
X69504761Y-73114285D01*
X69552380Y-73209523D01*
X69552380Y-73495238D01*
X69504761Y-73590476D01*
X69457142Y-73638095D01*
X68552380Y-72733333D02*
X69552380Y-72400000D01*
X68552380Y-72066666D01*
X68552380Y-71828571D02*
X68552380Y-71209523D01*
X68933333Y-71542857D01*
X68933333Y-71400000D01*
X68980952Y-71304761D01*
X69028571Y-71257142D01*
X69123809Y-71209523D01*
X69361904Y-71209523D01*
X69457142Y-71257142D01*
X69504761Y-71304761D01*
X69552380Y-71400000D01*
X69552380Y-71685714D01*
X69504761Y-71780952D01*
X69457142Y-71828571D01*
X51038095Y-55052380D02*
X51038095Y-55861904D01*
X51085714Y-55957142D01*
X51133333Y-56004761D01*
X51228571Y-56052380D01*
X51419047Y-56052380D01*
X51514285Y-56004761D01*
X51561904Y-55957142D01*
X51609523Y-55861904D01*
X51609523Y-55052380D01*
X52609523Y-56052380D02*
X52038095Y-56052380D01*
X52323809Y-56052380D02*
X52323809Y-55052380D01*
X52228571Y-55195238D01*
X52133333Y-55290476D01*
X52038095Y-55338095D01*
X67252380Y-41361904D02*
X68061904Y-41361904D01*
X68157142Y-41314285D01*
X68204761Y-41266666D01*
X68252380Y-41171428D01*
X68252380Y-40980952D01*
X68204761Y-40885714D01*
X68157142Y-40838095D01*
X68061904Y-40790476D01*
X67252380Y-40790476D01*
X67347619Y-40361904D02*
X67300000Y-40314285D01*
X67252380Y-40219047D01*
X67252380Y-39980952D01*
X67300000Y-39885714D01*
X67347619Y-39838095D01*
X67442857Y-39790476D01*
X67538095Y-39790476D01*
X67680952Y-39838095D01*
X68252380Y-40409523D01*
X68252380Y-39790476D01*
X61238095Y-72752380D02*
X61238095Y-73561904D01*
X61285714Y-73657142D01*
X61333333Y-73704761D01*
X61428571Y-73752380D01*
X61619047Y-73752380D01*
X61714285Y-73704761D01*
X61761904Y-73657142D01*
X61809523Y-73561904D01*
X61809523Y-72752380D01*
X62190476Y-72752380D02*
X62809523Y-72752380D01*
X62476190Y-73133333D01*
X62619047Y-73133333D01*
X62714285Y-73180952D01*
X62761904Y-73228571D01*
X62809523Y-73323809D01*
X62809523Y-73561904D01*
X62761904Y-73657142D01*
X62714285Y-73704761D01*
X62619047Y-73752380D01*
X62333333Y-73752380D01*
X62238095Y-73704761D01*
X62190476Y-73657142D01*
X46438095Y-49252380D02*
X46438095Y-50061904D01*
X46485714Y-50157142D01*
X46533333Y-50204761D01*
X46628571Y-50252380D01*
X46819047Y-50252380D01*
X46914285Y-50204761D01*
X46961904Y-50157142D01*
X47009523Y-50061904D01*
X47009523Y-49252380D01*
X47914285Y-49585714D02*
X47914285Y-50252380D01*
X47676190Y-49204761D02*
X47438095Y-49919047D01*
X48057142Y-49919047D01*
X72298809Y-60801190D02*
X72298809Y-61277380D01*
X71965476Y-60277380D02*
X72298809Y-60801190D01*
X72632142Y-60277380D01*
X73489285Y-61277380D02*
X72917857Y-61277380D01*
X73203571Y-61277380D02*
X73203571Y-60277380D01*
X73108333Y-60420238D01*
X73013095Y-60515476D01*
X72917857Y-60563095D01*
X66123809Y-80176190D02*
X66123809Y-80652380D01*
X65790476Y-79652380D02*
X66123809Y-80176190D01*
X66457142Y-79652380D01*
X66742857Y-79747619D02*
X66790476Y-79700000D01*
X66885714Y-79652380D01*
X67123809Y-79652380D01*
X67219047Y-79700000D01*
X67266666Y-79747619D01*
X67314285Y-79842857D01*
X67314285Y-79938095D01*
X67266666Y-80080952D01*
X66695238Y-80652380D01*
X67314285Y-80652380D01*
X58872380Y-47982095D02*
X57872380Y-47982095D01*
X57872380Y-47744000D01*
X57920000Y-47601142D01*
X58015238Y-47505904D01*
X58110476Y-47458285D01*
X58300952Y-47410666D01*
X58443809Y-47410666D01*
X58634285Y-47458285D01*
X58729523Y-47505904D01*
X58824761Y-47601142D01*
X58872380Y-47744000D01*
X58872380Y-47982095D01*
X57872380Y-47077333D02*
X57872380Y-46458285D01*
X58253333Y-46791619D01*
X58253333Y-46648761D01*
X58300952Y-46553523D01*
X58348571Y-46505904D01*
X58443809Y-46458285D01*
X58681904Y-46458285D01*
X58777142Y-46505904D01*
X58824761Y-46553523D01*
X58872380Y-46648761D01*
X58872380Y-46934476D01*
X58824761Y-47029714D01*
X58777142Y-47077333D01*
X58652380Y-71042857D02*
X58176190Y-71376190D01*
X58652380Y-71614285D02*
X57652380Y-71614285D01*
X57652380Y-71233333D01*
X57700000Y-71138095D01*
X57747619Y-71090476D01*
X57842857Y-71042857D01*
X57985714Y-71042857D01*
X58080952Y-71090476D01*
X58128571Y-71138095D01*
X58176190Y-71233333D01*
X58176190Y-71614285D01*
X57652380Y-70709523D02*
X57652380Y-70090476D01*
X58033333Y-70423809D01*
X58033333Y-70280952D01*
X58080952Y-70185714D01*
X58128571Y-70138095D01*
X58223809Y-70090476D01*
X58461904Y-70090476D01*
X58557142Y-70138095D01*
X58604761Y-70185714D01*
X58652380Y-70280952D01*
X58652380Y-70566666D01*
X58604761Y-70661904D01*
X58557142Y-70709523D01*
X57747619Y-69709523D02*
X57700000Y-69661904D01*
X57652380Y-69566666D01*
X57652380Y-69328571D01*
X57700000Y-69233333D01*
X57747619Y-69185714D01*
X57842857Y-69138095D01*
X57938095Y-69138095D01*
X58080952Y-69185714D01*
X58652380Y-69757142D01*
X58652380Y-69138095D01*
X57252380Y-71042857D02*
X56776190Y-71376190D01*
X57252380Y-71614285D02*
X56252380Y-71614285D01*
X56252380Y-71233333D01*
X56300000Y-71138095D01*
X56347619Y-71090476D01*
X56442857Y-71042857D01*
X56585714Y-71042857D01*
X56680952Y-71090476D01*
X56728571Y-71138095D01*
X56776190Y-71233333D01*
X56776190Y-71614285D01*
X56252380Y-70709523D02*
X56252380Y-70090476D01*
X56633333Y-70423809D01*
X56633333Y-70280952D01*
X56680952Y-70185714D01*
X56728571Y-70138095D01*
X56823809Y-70090476D01*
X57061904Y-70090476D01*
X57157142Y-70138095D01*
X57204761Y-70185714D01*
X57252380Y-70280952D01*
X57252380Y-70566666D01*
X57204761Y-70661904D01*
X57157142Y-70709523D01*
X56252380Y-69757142D02*
X56252380Y-69138095D01*
X56633333Y-69471428D01*
X56633333Y-69328571D01*
X56680952Y-69233333D01*
X56728571Y-69185714D01*
X56823809Y-69138095D01*
X57061904Y-69138095D01*
X57157142Y-69185714D01*
X57204761Y-69233333D01*
X57252380Y-69328571D01*
X57252380Y-69614285D01*
X57204761Y-69709523D01*
X57157142Y-69757142D01*
M02*
