M48
; DRILL file {KiCad (5.1.4)-1} date 2019/12/28 21:27:57
; FORMAT={-:-/ absolute / metric / decimal}
; #@! TF.CreationDate,2019-12-28T21:27:57+08:00
; #@! TF.GenerationSoftware,Kicad,Pcbnew,(5.1.4)-1
; #@! TF.FileFunction,Plated,1,2,PTH
FMAT,2
METRIC
T1C0.400
T2C0.500
T3C0.550
T4C0.850
T5C0.900
T6C1.000
T7C1.300
T8C2.000
T9C3.200
%
G90
G05
T1
X41.99Y-48.68
X42.27Y-86.45
X43.275Y-72.45
X43.54Y-61.51
X44.32Y-68.27
X44.36Y-45.08
X44.485Y-69.863
X44.5Y-63.48
X45.03Y-70.73
X45.045Y-71.79
X45.98Y-68.94
X48.92Y-51.0
X50.03Y-75.01
X50.71Y-73.14
X50.75Y-47.49
X50.856Y-63.385
X50.91Y-59.785
X52.708Y-70.768
X52.71Y-72.42
X52.8Y-86.41
X53.413Y-70.063
X53.42Y-51.92
X54.096Y-69.381
X54.19Y-82.87
X55.12Y-72.03
X55.25Y-76.61
X55.88Y-59.69
X55.98Y-64.67
X56.41Y-46.8
X56.41Y-48.37
X56.68Y-75.0
X57.15Y-59.69
X57.25Y-64.67
X58.42Y-59.69
X58.52Y-64.67
X58.56Y-49.88
X58.63Y-69.42
X58.825Y-71.13
X58.85Y-81.41
X59.3Y-55.3
X59.69Y-59.69
X59.79Y-64.67
X60.31Y-55.11
X60.42Y-49.78
X60.881Y-69.167
X61.1Y-86.44
X61.427Y-70.925
X61.95Y-48.99
X62.71Y-53.37
X62.78Y-35.77
X62.92Y-68.55
X63.47Y-49.77
X64.96Y-85.21
X65.54Y-86.44
X65.61Y-49.89
X66.08Y-32.045
X66.08Y-33.535
X66.085Y-48.99
X66.357Y-55.887
X67.31Y-64.77
X67.31Y-81.915
X67.31Y-83.185
X67.31Y-84.455
X67.31Y-85.725
X67.31Y-86.995
X67.31Y-88.265
X67.6Y-73.63
X67.61Y-37.09
X67.645Y-54.17
X68.39Y-41.0
X68.58Y-81.915
X68.58Y-83.185
X68.58Y-84.455
X68.58Y-85.725
X68.58Y-86.995
X68.58Y-88.265
X68.78Y-37.09
X69.01Y-68.09
X69.649Y-54.179
X69.67Y-40.99
X69.85Y-85.725
X69.85Y-86.995
X69.85Y-88.265
X69.999Y-70.59
X70.3Y-57.95
X70.537Y-61.5
X70.93Y-51.18
X70.99Y-37.08
X71.12Y-85.725
X71.12Y-86.995
X71.12Y-88.265
X72.07Y-32.33
X72.39Y-84.455
X72.39Y-85.725
X72.39Y-86.995
X72.39Y-88.265
X72.845Y-55.89
X73.16Y-37.08
X73.66Y-84.455
X73.66Y-85.725
X73.66Y-86.995
X73.66Y-88.265
X73.8Y-73.29
X73.808Y-76.078
X73.814Y-75.148
X73.815Y-72.36
X73.848Y-74.219
X73.98Y-55.11
X74.31Y-37.06
X74.72Y-80.3
X74.93Y-88.265
X75.23Y-79.47
X75.4Y-37.07
X75.65Y-81.92
X75.81Y-63.77
X75.969Y-51.467
X76.31Y-78.72
X78.4Y-68.14
X78.73Y-60.955
X78.87Y-82.89
X79.96Y-78.73
X80.06Y-71.555
X80.13Y-90.76
X80.99Y-81.35
X81.13Y-79.66
X81.788Y-74.72
X81.79Y-75.65
X81.8Y-73.79
X81.801Y-76.58
X83.02Y-73.11
X83.83Y-45.18
X83.83Y-47.32
T2
X81.56Y-25.4
X82.263Y-23.703
X82.263Y-27.097
X83.96Y-23.0
X83.96Y-27.8
X85.657Y-23.703
X85.657Y-27.097
X86.36Y-25.4
X43.32Y-25.4
X44.023Y-23.703
X44.023Y-27.097
X45.72Y-23.0
X45.72Y-27.8
X47.417Y-23.703
X47.417Y-27.097
X48.12Y-25.4
T5
X55.15Y-31.8
X55.15Y-33.8
X55.15Y-35.8
X55.15Y-37.8
T6
X84.65Y-68.37
X84.65Y-70.91
X84.65Y-73.45
X84.65Y-75.99
X84.65Y-78.53
X84.65Y-81.07
X84.65Y-83.61
X84.65Y-86.15
X43.5Y-40.31
X43.5Y-42.81
X45.72Y-93.98
X45.72Y-96.52
X48.26Y-93.98
X48.26Y-96.52
X50.8Y-93.98
X50.8Y-96.52
X53.34Y-93.98
X53.34Y-96.52
X55.88Y-93.98
X55.88Y-96.52
X58.42Y-93.98
X58.42Y-96.52
X60.96Y-93.98
X60.96Y-96.52
X63.5Y-93.98
X63.5Y-96.52
X66.04Y-93.98
X66.04Y-96.52
X68.58Y-93.98
X68.58Y-96.52
X71.12Y-93.98
X71.12Y-96.52
X73.66Y-93.98
X73.66Y-96.52
X76.2Y-93.98
X76.2Y-96.52
X78.74Y-93.98
X78.74Y-96.52
X81.28Y-93.98
X81.28Y-96.52
X83.82Y-93.98
X83.82Y-96.52
X85.8Y-60.3
X85.8Y-62.8
X43.5Y-31.83
X43.5Y-34.33
X84.35Y-50.0
X84.35Y-52.54
X84.35Y-55.08
T8
X58.02Y-62.18
X70.3Y-46.16
T9
X83.96Y-25.4
X45.72Y-25.4
T3
G00X68.505Y-23.535
M15
G01X68.505Y-22.885
M16
G05
G00X76.255Y-23.535
M15
G01X76.255Y-22.885
M16
G05
T4
G00X68.655Y-27.285
M15
G01X68.655Y-26.735
M16
G05
G00X76.105Y-27.285
M15
G01X76.105Y-26.735
M16
G05
T7
G00X52.4Y-31.55
M15
G01X52.4Y-31.05
M16
G05
G00X52.4Y-38.55
M15
G01X52.4Y-38.05
M16
G05
G00X57.9Y-31.55
M15
G01X57.9Y-31.05
M16
G05
G00X57.9Y-38.55
M15
G01X57.9Y-38.05
M16
G05
T0
M30
