G04 #@! TF.GenerationSoftware,KiCad,Pcbnew,(5.1.4)-1*
G04 #@! TF.CreationDate,2020-02-10T17:26:07+08:00*
G04 #@! TF.ProjectId,F1C100s-i80,46314331-3030-4732-9d69-38302e6b6963,rev?*
G04 #@! TF.SameCoordinates,Original*
G04 #@! TF.FileFunction,Legend,Top*
G04 #@! TF.FilePolarity,Positive*
%FSLAX46Y46*%
G04 Gerber Fmt 4.6, Leading zero omitted, Abs format (unit mm)*
G04 Created by KiCad (PCBNEW (5.1.4)-1) date 2020-02-10 17:26:07*
%MOMM*%
%LPD*%
G04 APERTURE LIST*
%ADD10C,0.375000*%
%ADD11C,0.400000*%
%ADD12C,0.150000*%
%ADD13C,0.120000*%
%ADD14C,0.300000*%
%ADD15C,0.200000*%
G04 APERTURE END LIST*
D10*
X78442857Y-51540290D02*
X78300000Y-51451004D01*
X78157142Y-51290290D01*
X78157142Y-50933147D01*
X78300000Y-50808147D01*
X78442857Y-50754575D01*
X78728571Y-50718861D01*
X79014285Y-50754575D01*
X79442857Y-50879575D01*
X81157142Y-51951004D01*
X81157142Y-51022433D01*
X78157142Y-49718861D02*
X78157142Y-49576004D01*
X78300000Y-49451004D01*
X78442857Y-49397433D01*
X78728571Y-49361718D01*
X79300000Y-49361718D01*
X80014285Y-49451004D01*
X80585714Y-49593861D01*
X80871428Y-49701004D01*
X81014285Y-49790290D01*
X81157142Y-49951004D01*
X81157142Y-50093861D01*
X81014285Y-50218861D01*
X80871428Y-50272433D01*
X80585714Y-50308147D01*
X80014285Y-50308147D01*
X79300000Y-50218861D01*
X78728571Y-50076004D01*
X78442857Y-49968861D01*
X78300000Y-49879575D01*
X78157142Y-49718861D01*
X81157142Y-48165290D02*
X81157142Y-49022433D01*
X81157142Y-48593861D02*
X78157142Y-48218861D01*
X78585714Y-48415290D01*
X78871428Y-48593861D01*
X79014285Y-48754575D01*
X81157142Y-47451004D02*
X81157142Y-47165290D01*
X81014285Y-47004575D01*
X80871428Y-46915290D01*
X80442857Y-46718861D01*
X79871428Y-46576004D01*
X78728571Y-46433147D01*
X78442857Y-46468861D01*
X78300000Y-46522433D01*
X78157142Y-46647433D01*
X78157142Y-46933147D01*
X78300000Y-47093861D01*
X78442857Y-47183147D01*
X78728571Y-47290290D01*
X79442857Y-47379575D01*
X79728571Y-47343861D01*
X79871428Y-47290290D01*
X80014285Y-47165290D01*
X80014285Y-46879575D01*
X79871428Y-46718861D01*
X79728571Y-46629575D01*
X79442857Y-46522433D01*
X80014285Y-45951004D02*
X80014285Y-44808147D01*
X81157142Y-43451004D02*
X81157142Y-44308147D01*
X81157142Y-43879575D02*
X78157142Y-43504575D01*
X78585714Y-43701004D01*
X78871428Y-43879575D01*
X79014285Y-44040290D01*
X78442857Y-42540290D02*
X78300000Y-42451004D01*
X78157142Y-42290290D01*
X78157142Y-41933147D01*
X78300000Y-41808147D01*
X78442857Y-41754575D01*
X78728571Y-41718861D01*
X79014285Y-41754575D01*
X79442857Y-41879575D01*
X81157142Y-42951004D01*
X81157142Y-42022433D01*
X80014285Y-41236718D02*
X80014285Y-40093861D01*
X78442857Y-39254575D02*
X78300000Y-39165290D01*
X78157142Y-39004575D01*
X78157142Y-38647433D01*
X78300000Y-38522433D01*
X78442857Y-38468861D01*
X78728571Y-38433147D01*
X79014285Y-38468861D01*
X79442857Y-38593861D01*
X81157142Y-39665290D01*
X81157142Y-38736718D01*
X79442857Y-37665290D02*
X79300000Y-37790290D01*
X79157142Y-37843861D01*
X78871428Y-37879575D01*
X78728571Y-37861718D01*
X78442857Y-37754575D01*
X78300000Y-37665290D01*
X78157142Y-37504575D01*
X78157142Y-37218861D01*
X78300000Y-37093861D01*
X78442857Y-37040290D01*
X78728571Y-37004575D01*
X78871428Y-37022433D01*
X79157142Y-37129575D01*
X79300000Y-37218861D01*
X79442857Y-37379575D01*
X79442857Y-37665290D01*
X79585714Y-37826004D01*
X79728571Y-37915290D01*
X80014285Y-38022433D01*
X80585714Y-38093861D01*
X80871428Y-38058147D01*
X81014285Y-38004575D01*
X81157142Y-37879575D01*
X81157142Y-37593861D01*
X81014285Y-37433147D01*
X80871428Y-37343861D01*
X80585714Y-37236718D01*
X80014285Y-37165290D01*
X79728571Y-37201004D01*
X79585714Y-37254575D01*
X79442857Y-37379575D01*
D11*
X45671428Y-85645892D02*
X45814285Y-85568511D01*
X45957142Y-85681607D01*
X45814285Y-85758988D01*
X45671428Y-85645892D01*
X45957142Y-85681607D01*
X42957142Y-84639940D02*
X42957142Y-83497083D01*
X45957142Y-84443511D02*
X42957142Y-84068511D01*
X45671428Y-83169702D02*
X45814285Y-83092321D01*
X45957142Y-83205416D01*
X45814285Y-83282797D01*
X45671428Y-83169702D01*
X45957142Y-83205416D01*
X45957142Y-81110178D02*
X44528571Y-81598273D01*
X45957142Y-82253035D02*
X42957142Y-81878035D01*
X42957142Y-81116130D01*
X43100000Y-80943511D01*
X43242857Y-80866130D01*
X43528571Y-80806607D01*
X43957142Y-80860178D01*
X44242857Y-80991130D01*
X44385714Y-81104226D01*
X44528571Y-81312559D01*
X44528571Y-82074464D01*
X45671428Y-80217321D02*
X45814285Y-80139940D01*
X45957142Y-80253035D01*
X45814285Y-80330416D01*
X45671428Y-80217321D01*
X45957142Y-80253035D01*
X44385714Y-79104226D02*
X44385714Y-78437559D01*
X45957142Y-78348273D02*
X45957142Y-79300654D01*
X42957142Y-78925654D01*
X42957142Y-77973273D01*
X45671428Y-77455416D02*
X45814285Y-77378035D01*
X45957142Y-77491130D01*
X45814285Y-77568511D01*
X45671428Y-77455416D01*
X45957142Y-77491130D01*
X45814285Y-76616130D02*
X45957142Y-76348273D01*
X45957142Y-75872083D01*
X45814285Y-75663750D01*
X45671428Y-75550654D01*
X45385714Y-75419702D01*
X45100000Y-75383988D01*
X44814285Y-75443511D01*
X44671428Y-75520892D01*
X44528571Y-75693511D01*
X44385714Y-76056607D01*
X44242857Y-76229226D01*
X44100000Y-76306607D01*
X43814285Y-76366130D01*
X43528571Y-76330416D01*
X43242857Y-76199464D01*
X43100000Y-76086369D01*
X42957142Y-75878035D01*
X42957142Y-75401845D01*
X43100000Y-75133988D01*
X45671428Y-74598273D02*
X45814285Y-74520892D01*
X45957142Y-74633988D01*
X45814285Y-74711369D01*
X45671428Y-74598273D01*
X45957142Y-74633988D01*
X45814285Y-73758988D02*
X45957142Y-73491130D01*
X45957142Y-73014940D01*
X45814285Y-72806607D01*
X45671428Y-72693511D01*
X45385714Y-72562559D01*
X45100000Y-72526845D01*
X44814285Y-72586369D01*
X44671428Y-72663750D01*
X44528571Y-72836369D01*
X44385714Y-73199464D01*
X44242857Y-73372083D01*
X44100000Y-73449464D01*
X43814285Y-73508988D01*
X43528571Y-73473273D01*
X43242857Y-73342321D01*
X43100000Y-73229226D01*
X42957142Y-73020892D01*
X42957142Y-72544702D01*
X43100000Y-72276845D01*
X45671428Y-71741130D02*
X45814285Y-71663750D01*
X45957142Y-71776845D01*
X45814285Y-71854226D01*
X45671428Y-71741130D01*
X45957142Y-71776845D01*
X45100000Y-70812559D02*
X45100000Y-69860178D01*
X45957142Y-71110178D02*
X42957142Y-70068511D01*
X45957142Y-69776845D01*
X45671428Y-69074464D02*
X45814285Y-68997083D01*
X45957142Y-69110178D01*
X45814285Y-69187559D01*
X45671428Y-69074464D01*
X45957142Y-69110178D01*
D12*
X79357157Y-62300000D02*
X79267872Y-62252380D01*
X79125014Y-62252380D01*
X78976205Y-62300000D01*
X78869062Y-62395238D01*
X78809538Y-62490476D01*
X78738110Y-62680952D01*
X78720252Y-62823809D01*
X78744062Y-63014285D01*
X78779776Y-63109523D01*
X78863110Y-63204761D01*
X79000014Y-63252380D01*
X79095252Y-63252380D01*
X79244062Y-63204761D01*
X79297633Y-63157142D01*
X79339300Y-62823809D01*
X79148824Y-62823809D01*
X79714300Y-63252380D02*
X79839300Y-62252380D01*
X80285729Y-63252380D01*
X80410729Y-62252380D01*
X80761919Y-63252380D02*
X80886919Y-62252380D01*
X81125014Y-62252380D01*
X81261919Y-62300000D01*
X81345252Y-62395238D01*
X81380967Y-62490476D01*
X81404776Y-62680952D01*
X81386919Y-62823809D01*
X81315491Y-63014285D01*
X81255967Y-63109523D01*
X81148824Y-63204761D01*
X81000014Y-63252380D01*
X80761919Y-63252380D01*
X78661919Y-60371428D02*
X79423824Y-60371428D01*
X78995252Y-60752380D02*
X79090491Y-59990476D01*
X80453586Y-59752380D02*
X79977395Y-59752380D01*
X79870252Y-60228571D01*
X79923824Y-60180952D01*
X80025014Y-60133333D01*
X80263110Y-60133333D01*
X80352395Y-60180952D01*
X80394062Y-60228571D01*
X80429776Y-60323809D01*
X80400014Y-60561904D01*
X80340491Y-60657142D01*
X80286919Y-60704761D01*
X80185729Y-60752380D01*
X79947633Y-60752380D01*
X79858348Y-60704761D01*
X79816681Y-60657142D01*
X80786919Y-59752380D02*
X80995252Y-60752380D01*
X81453586Y-59752380D01*
X47601205Y-43104761D02*
X47738110Y-43152380D01*
X47976205Y-43152380D01*
X48077395Y-43104761D01*
X48130967Y-43057142D01*
X48190491Y-42961904D01*
X48202395Y-42866666D01*
X48166681Y-42771428D01*
X48125014Y-42723809D01*
X48035729Y-42676190D01*
X47851205Y-42628571D01*
X47761919Y-42580952D01*
X47720252Y-42533333D01*
X47684538Y-42438095D01*
X47696443Y-42342857D01*
X47755967Y-42247619D01*
X47809538Y-42200000D01*
X47910729Y-42152380D01*
X48148824Y-42152380D01*
X48285729Y-42200000D01*
X48595252Y-43152380D02*
X48720252Y-42152380D01*
X49101205Y-42152380D01*
X49190491Y-42200000D01*
X49232157Y-42247619D01*
X49267872Y-42342857D01*
X49250014Y-42485714D01*
X49190491Y-42580952D01*
X49136919Y-42628571D01*
X49035729Y-42676190D01*
X48654776Y-42676190D01*
X49595252Y-43152380D02*
X49720252Y-42152380D01*
X50166681Y-43152380D02*
X49809538Y-42580952D01*
X50291681Y-42152380D02*
X49648824Y-42723809D01*
X50642872Y-42771428D02*
X51404776Y-42771428D01*
X47601205Y-40704761D02*
X47738110Y-40752380D01*
X47976205Y-40752380D01*
X48077395Y-40704761D01*
X48130967Y-40657142D01*
X48190491Y-40561904D01*
X48202395Y-40466666D01*
X48166681Y-40371428D01*
X48125014Y-40323809D01*
X48035729Y-40276190D01*
X47851205Y-40228571D01*
X47761919Y-40180952D01*
X47720252Y-40133333D01*
X47684538Y-40038095D01*
X47696443Y-39942857D01*
X47755967Y-39847619D01*
X47809538Y-39800000D01*
X47910729Y-39752380D01*
X48148824Y-39752380D01*
X48285729Y-39800000D01*
X48595252Y-40752380D02*
X48720252Y-39752380D01*
X49101205Y-39752380D01*
X49190491Y-39800000D01*
X49232157Y-39847619D01*
X49267872Y-39942857D01*
X49250014Y-40085714D01*
X49190491Y-40180952D01*
X49136919Y-40228571D01*
X49035729Y-40276190D01*
X48654776Y-40276190D01*
X49595252Y-40752380D02*
X49720252Y-39752380D01*
X50166681Y-40752380D02*
X49809538Y-40180952D01*
X50291681Y-39752380D02*
X49648824Y-40323809D01*
X50642872Y-40371428D02*
X51404776Y-40371428D01*
X50976205Y-40752380D02*
X51071443Y-39990476D01*
X48157157Y-31758000D02*
X48067872Y-31710380D01*
X47925014Y-31710380D01*
X47776205Y-31758000D01*
X47669062Y-31853238D01*
X47609538Y-31948476D01*
X47538110Y-32138952D01*
X47520252Y-32281809D01*
X47544062Y-32472285D01*
X47579776Y-32567523D01*
X47663110Y-32662761D01*
X47800014Y-32710380D01*
X47895252Y-32710380D01*
X48044062Y-32662761D01*
X48097633Y-32615142D01*
X48139300Y-32281809D01*
X47948824Y-32281809D01*
X48514300Y-32710380D02*
X48639300Y-31710380D01*
X49085729Y-32710380D01*
X49210729Y-31710380D01*
X49561919Y-32710380D02*
X49686919Y-31710380D01*
X49925014Y-31710380D01*
X50061919Y-31758000D01*
X50145252Y-31853238D01*
X50180967Y-31948476D01*
X50204776Y-32138952D01*
X50186919Y-32281809D01*
X50115491Y-32472285D01*
X50055967Y-32567523D01*
X49948824Y-32662761D01*
X49800014Y-32710380D01*
X49561919Y-32710380D01*
X48064967Y-35758380D02*
X47588776Y-35758380D01*
X47713776Y-34758380D01*
X48969729Y-35758380D02*
X48695919Y-35282190D01*
X48398300Y-35758380D02*
X48523300Y-34758380D01*
X48904252Y-34758380D01*
X48993538Y-34806000D01*
X49035205Y-34853619D01*
X49070919Y-34948857D01*
X49053062Y-35091714D01*
X48993538Y-35186952D01*
X48939967Y-35234571D01*
X48838776Y-35282190D01*
X48457824Y-35282190D01*
X49386395Y-35472666D02*
X49862586Y-35472666D01*
X49255443Y-35758380D02*
X49713776Y-34758380D01*
X49922110Y-35758380D01*
X50255443Y-35758380D02*
X50380443Y-34758380D01*
X50618538Y-34758380D01*
X50755443Y-34806000D01*
X50838776Y-34901238D01*
X50874491Y-34996476D01*
X50898300Y-35186952D01*
X50880443Y-35329809D01*
X50809014Y-35520285D01*
X50749491Y-35615523D01*
X50642348Y-35710761D01*
X50493538Y-35758380D01*
X50255443Y-35758380D01*
X51838776Y-35663142D02*
X51785205Y-35710761D01*
X51636395Y-35758380D01*
X51541157Y-35758380D01*
X51404252Y-35710761D01*
X51320919Y-35615523D01*
X51285205Y-35520285D01*
X51261395Y-35329809D01*
X51279252Y-35186952D01*
X51350681Y-34996476D01*
X51410205Y-34901238D01*
X51517348Y-34806000D01*
X51666157Y-34758380D01*
X51761395Y-34758380D01*
X51898300Y-34806000D01*
X51939967Y-34853619D01*
D13*
X71953733Y-81890000D02*
X72296267Y-81890000D01*
X71953733Y-82910000D02*
X72296267Y-82910000D01*
D14*
X61250000Y-22720000D02*
X63600000Y-22720000D01*
X61050000Y-25220000D02*
X63780000Y-25220000D01*
D13*
X61250000Y-21220000D02*
X63600000Y-21220000D01*
X64100000Y-28220000D02*
X63600000Y-21220000D01*
X60750000Y-28220000D02*
X61250000Y-21220000D01*
X64600000Y-28220000D02*
X64100000Y-28220000D01*
X60250000Y-28220000D02*
X60750000Y-28220000D01*
X64100000Y-20720000D02*
X64600000Y-28220000D01*
X60750000Y-20720000D02*
X64100000Y-20720000D01*
X60250000Y-28220000D02*
X60750000Y-20720000D01*
D14*
X52700000Y-25220000D02*
X55430000Y-25220000D01*
X52900000Y-22720000D02*
X55250000Y-22720000D01*
D13*
X52900000Y-21220000D02*
X55250000Y-21220000D01*
X55750000Y-28220000D02*
X55250000Y-21220000D01*
X52400000Y-28220000D02*
X52900000Y-21220000D01*
X56250000Y-28220000D02*
X55750000Y-28220000D01*
X51900000Y-28220000D02*
X52400000Y-28220000D01*
X55750000Y-20720000D02*
X56250000Y-28220000D01*
X52400000Y-20720000D02*
X55750000Y-20720000D01*
X51900000Y-28220000D02*
X52400000Y-20720000D01*
X58250000Y-22720000D02*
X58250000Y-19920000D01*
X57250000Y-22720000D02*
X58250000Y-22720000D01*
X57250000Y-25220000D02*
X57250000Y-22720000D01*
X58250000Y-25220000D02*
X57250000Y-25220000D01*
X58250000Y-27720000D02*
X58250000Y-25220000D01*
X56750000Y-27720000D02*
X59750000Y-27720000D01*
X59750000Y-28720000D02*
X59750000Y-27720000D01*
X56750000Y-28720000D02*
X56750000Y-27720000D01*
X59750000Y-28720000D02*
X65250000Y-28720000D01*
X51250000Y-28720000D02*
X56750000Y-28720000D01*
X64810000Y-20320000D02*
X64650000Y-19920000D01*
X64810000Y-20320000D02*
X65250000Y-20320000D01*
X51690000Y-20320000D02*
X51850000Y-19920000D01*
X51250000Y-20320000D02*
X51690000Y-20320000D01*
X51850000Y-19920000D02*
X64650000Y-19920000D01*
X65250000Y-20320000D02*
X65450000Y-19920000D01*
X65250000Y-29170000D02*
X65250000Y-20320000D01*
X65250000Y-34120000D02*
X65250000Y-31320000D01*
X51250000Y-29170000D02*
X51250000Y-20320000D01*
X51250000Y-34120000D02*
X51250000Y-31320000D01*
X51250000Y-34120000D02*
X65250000Y-34120000D01*
X51250000Y-20320000D02*
X51050000Y-19920000D01*
X76542429Y-81942500D02*
G75*
G03X76542429Y-81942500I-174929J0D01*
G01*
X80072500Y-82097500D02*
X79347500Y-82097500D01*
X80072500Y-81372500D02*
X80072500Y-82097500D01*
X80072500Y-78247500D02*
X79347500Y-78247500D01*
X80072500Y-78972500D02*
X80072500Y-78247500D01*
X76222500Y-78247500D02*
X76947500Y-78247500D01*
X76222500Y-78972500D02*
X76222500Y-78247500D01*
X83380000Y-67100000D02*
X84650000Y-67100000D01*
X83380000Y-68370000D02*
X83380000Y-67100000D01*
X85692929Y-86530000D02*
X86090000Y-86530000D01*
X85692929Y-85770000D02*
X86090000Y-85770000D01*
X94750000Y-86530000D02*
X88750000Y-86530000D01*
X94750000Y-85770000D02*
X94750000Y-86530000D01*
X88750000Y-85770000D02*
X94750000Y-85770000D01*
X86090000Y-84880000D02*
X88750000Y-84880000D01*
X85692929Y-83990000D02*
X86090000Y-83990000D01*
X85692929Y-83230000D02*
X86090000Y-83230000D01*
X94750000Y-83990000D02*
X88750000Y-83990000D01*
X94750000Y-83230000D02*
X94750000Y-83990000D01*
X88750000Y-83230000D02*
X94750000Y-83230000D01*
X86090000Y-82340000D02*
X88750000Y-82340000D01*
X85692929Y-81450000D02*
X86090000Y-81450000D01*
X85692929Y-80690000D02*
X86090000Y-80690000D01*
X94750000Y-81450000D02*
X88750000Y-81450000D01*
X94750000Y-80690000D02*
X94750000Y-81450000D01*
X88750000Y-80690000D02*
X94750000Y-80690000D01*
X86090000Y-79800000D02*
X88750000Y-79800000D01*
X85692929Y-78910000D02*
X86090000Y-78910000D01*
X85692929Y-78150000D02*
X86090000Y-78150000D01*
X94750000Y-78910000D02*
X88750000Y-78910000D01*
X94750000Y-78150000D02*
X94750000Y-78910000D01*
X88750000Y-78150000D02*
X94750000Y-78150000D01*
X86090000Y-77260000D02*
X88750000Y-77260000D01*
X85692929Y-76370000D02*
X86090000Y-76370000D01*
X85692929Y-75610000D02*
X86090000Y-75610000D01*
X94750000Y-76370000D02*
X88750000Y-76370000D01*
X94750000Y-75610000D02*
X94750000Y-76370000D01*
X88750000Y-75610000D02*
X94750000Y-75610000D01*
X86090000Y-74720000D02*
X88750000Y-74720000D01*
X85692929Y-73830000D02*
X86090000Y-73830000D01*
X85692929Y-73070000D02*
X86090000Y-73070000D01*
X94750000Y-73830000D02*
X88750000Y-73830000D01*
X94750000Y-73070000D02*
X94750000Y-73830000D01*
X88750000Y-73070000D02*
X94750000Y-73070000D01*
X86090000Y-72180000D02*
X88750000Y-72180000D01*
X85692929Y-71290000D02*
X86090000Y-71290000D01*
X85692929Y-70530000D02*
X86090000Y-70530000D01*
X94750000Y-71290000D02*
X88750000Y-71290000D01*
X94750000Y-70530000D02*
X94750000Y-71290000D01*
X88750000Y-70530000D02*
X94750000Y-70530000D01*
X86090000Y-69640000D02*
X88750000Y-69640000D01*
X85760000Y-68750000D02*
X86090000Y-68750000D01*
X85760000Y-67990000D02*
X86090000Y-67990000D01*
X88750000Y-68650000D02*
X94750000Y-68650000D01*
X88750000Y-68530000D02*
X94750000Y-68530000D01*
X88750000Y-68410000D02*
X94750000Y-68410000D01*
X88750000Y-68290000D02*
X94750000Y-68290000D01*
X88750000Y-68170000D02*
X94750000Y-68170000D01*
X88750000Y-68050000D02*
X94750000Y-68050000D01*
X94750000Y-68750000D02*
X88750000Y-68750000D01*
X94750000Y-67990000D02*
X94750000Y-68750000D01*
X88750000Y-67990000D02*
X94750000Y-67990000D01*
X88750000Y-67040000D02*
X86090000Y-67040000D01*
X88750000Y-87480000D02*
X88750000Y-67040000D01*
X86090000Y-87480000D02*
X88750000Y-87480000D01*
X86090000Y-67040000D02*
X86090000Y-87480000D01*
X61430000Y-51688733D02*
X61430000Y-52031267D01*
X62450000Y-51688733D02*
X62450000Y-52031267D01*
X63980000Y-52031267D02*
X63980000Y-51688733D01*
X62960000Y-52031267D02*
X62960000Y-51688733D01*
X69611267Y-58740000D02*
X69268733Y-58740000D01*
X69611267Y-59760000D02*
X69268733Y-59760000D01*
X69243733Y-67360000D02*
X69586267Y-67360000D01*
X69243733Y-66340000D02*
X69586267Y-66340000D01*
X48913733Y-54815000D02*
X49256267Y-54815000D01*
X48913733Y-55835000D02*
X49256267Y-55835000D01*
X48913733Y-57410000D02*
X49256267Y-57410000D01*
X48913733Y-56390000D02*
X49256267Y-56390000D01*
X65460000Y-82928733D02*
X65460000Y-83271267D01*
X64440000Y-82928733D02*
X64440000Y-83271267D01*
X61930000Y-82918733D02*
X61930000Y-83261267D01*
X62950000Y-82918733D02*
X62950000Y-83261267D01*
X43595000Y-49746267D02*
X43595000Y-49403733D01*
X42575000Y-49746267D02*
X42575000Y-49403733D01*
X57221267Y-77130000D02*
X56878733Y-77130000D01*
X57221267Y-76110000D02*
X56878733Y-76110000D01*
X52385000Y-49878733D02*
X52385000Y-50221267D01*
X51365000Y-49878733D02*
X51365000Y-50221267D01*
X52915000Y-49878733D02*
X52915000Y-50221267D01*
X53935000Y-49878733D02*
X53935000Y-50221267D01*
X45881267Y-52710000D02*
X45538733Y-52710000D01*
X45881267Y-51690000D02*
X45538733Y-51690000D01*
X56060000Y-50231267D02*
X56060000Y-49888733D01*
X57080000Y-50231267D02*
X57080000Y-49888733D01*
X54440000Y-50221267D02*
X54440000Y-49878733D01*
X55460000Y-50221267D02*
X55460000Y-49878733D01*
X45886267Y-60510000D02*
X45543733Y-60510000D01*
X45886267Y-59490000D02*
X45543733Y-59490000D01*
X55630000Y-73273733D02*
X55630000Y-73616267D01*
X54610000Y-73273733D02*
X54610000Y-73616267D01*
X76484267Y-68959000D02*
X76141733Y-68959000D01*
X76484267Y-69979000D02*
X76141733Y-69979000D01*
X77046267Y-89540000D02*
X76703733Y-89540000D01*
X77046267Y-90560000D02*
X76703733Y-90560000D01*
X69960000Y-83153733D02*
X69960000Y-83496267D01*
X68940000Y-83153733D02*
X68940000Y-83496267D01*
X55236267Y-81090000D02*
X54893733Y-81090000D01*
X55236267Y-82110000D02*
X54893733Y-82110000D01*
X53650000Y-78958733D02*
X53650000Y-79301267D01*
X54670000Y-78958733D02*
X54670000Y-79301267D01*
X75915733Y-74293000D02*
X76258267Y-74293000D01*
X75915733Y-75313000D02*
X76258267Y-75313000D01*
X77290000Y-87496267D02*
X77290000Y-87153733D01*
X78310000Y-87496267D02*
X78310000Y-87153733D01*
X56780000Y-78953733D02*
X56780000Y-79296267D01*
X57800000Y-78953733D02*
X57800000Y-79296267D01*
X58340000Y-79296267D02*
X58340000Y-78953733D01*
X59360000Y-79296267D02*
X59360000Y-78953733D01*
X59910000Y-52031267D02*
X59910000Y-51688733D01*
X60930000Y-52031267D02*
X60930000Y-51688733D01*
X66150000Y-52051267D02*
X66150000Y-51708733D01*
X65130000Y-52051267D02*
X65130000Y-51708733D01*
X61340000Y-82520000D02*
X59340000Y-82520000D01*
X59340000Y-82520000D02*
X59340000Y-86420000D01*
X61340000Y-82520000D02*
X61340000Y-86420000D01*
X58950000Y-82510000D02*
X58950000Y-86410000D01*
X56950000Y-82510000D02*
X56950000Y-86410000D01*
X58950000Y-82510000D02*
X56950000Y-82510000D01*
X44390000Y-97850000D02*
X44390000Y-95250000D01*
X44390000Y-97850000D02*
X85150000Y-97850000D01*
X85150000Y-97850000D02*
X85150000Y-92650000D01*
X46990000Y-92650000D02*
X85150000Y-92650000D01*
X46990000Y-95250000D02*
X46990000Y-92650000D01*
X44390000Y-95250000D02*
X46990000Y-95250000D01*
X44390000Y-92650000D02*
X45720000Y-92650000D01*
X44390000Y-93980000D02*
X44390000Y-92650000D01*
X41040000Y-45370000D02*
X47010000Y-45370000D01*
X47010000Y-45370000D02*
X47010000Y-37750000D01*
X47010000Y-37750000D02*
X41040000Y-37750000D01*
X41040000Y-37750000D02*
X41040000Y-45370000D01*
X41050000Y-42060000D02*
X41800000Y-42060000D01*
X41800000Y-42060000D02*
X41800000Y-41060000D01*
X41800000Y-41060000D02*
X41050000Y-41060000D01*
X41050000Y-41060000D02*
X41050000Y-42060000D01*
X41050000Y-45360000D02*
X41800000Y-45360000D01*
X41800000Y-45360000D02*
X41800000Y-43560000D01*
X41800000Y-43560000D02*
X41050000Y-43560000D01*
X41050000Y-43560000D02*
X41050000Y-45360000D01*
X41050000Y-39560000D02*
X41800000Y-39560000D01*
X41800000Y-39560000D02*
X41800000Y-37760000D01*
X41800000Y-37760000D02*
X41050000Y-37760000D01*
X41050000Y-37760000D02*
X41050000Y-39560000D01*
X43300000Y-45360000D02*
X43300000Y-44610000D01*
X43300000Y-44610000D02*
X46250000Y-44610000D01*
X46250000Y-44610000D02*
X46250000Y-41560000D01*
X43300000Y-37760000D02*
X43300000Y-38510000D01*
X43300000Y-38510000D02*
X46250000Y-38510000D01*
X46250000Y-38510000D02*
X46250000Y-41560000D01*
X40750000Y-44410000D02*
X40750000Y-45660000D01*
X40750000Y-45660000D02*
X42000000Y-45660000D01*
X41040000Y-36890000D02*
X47010000Y-36890000D01*
X47010000Y-36890000D02*
X47010000Y-29270000D01*
X47010000Y-29270000D02*
X41040000Y-29270000D01*
X41040000Y-29270000D02*
X41040000Y-36890000D01*
X41050000Y-33580000D02*
X41800000Y-33580000D01*
X41800000Y-33580000D02*
X41800000Y-32580000D01*
X41800000Y-32580000D02*
X41050000Y-32580000D01*
X41050000Y-32580000D02*
X41050000Y-33580000D01*
X41050000Y-36880000D02*
X41800000Y-36880000D01*
X41800000Y-36880000D02*
X41800000Y-35080000D01*
X41800000Y-35080000D02*
X41050000Y-35080000D01*
X41050000Y-35080000D02*
X41050000Y-36880000D01*
X41050000Y-31080000D02*
X41800000Y-31080000D01*
X41800000Y-31080000D02*
X41800000Y-29280000D01*
X41800000Y-29280000D02*
X41050000Y-29280000D01*
X41050000Y-29280000D02*
X41050000Y-31080000D01*
X43300000Y-36880000D02*
X43300000Y-36130000D01*
X43300000Y-36130000D02*
X46250000Y-36130000D01*
X46250000Y-36130000D02*
X46250000Y-33080000D01*
X43300000Y-29280000D02*
X43300000Y-30030000D01*
X43300000Y-30030000D02*
X46250000Y-30030000D01*
X46250000Y-30030000D02*
X46250000Y-33080000D01*
X40750000Y-35930000D02*
X40750000Y-37180000D01*
X40750000Y-37180000D02*
X42000000Y-37180000D01*
X85790000Y-48670000D02*
X85790000Y-56410000D01*
X85790000Y-56410000D02*
X88450000Y-56410000D01*
X88450000Y-56410000D02*
X88450000Y-48670000D01*
X88450000Y-48670000D02*
X85790000Y-48670000D01*
X88450000Y-49620000D02*
X94450000Y-49620000D01*
X94450000Y-49620000D02*
X94450000Y-50380000D01*
X94450000Y-50380000D02*
X88450000Y-50380000D01*
X88450000Y-49680000D02*
X94450000Y-49680000D01*
X88450000Y-49800000D02*
X94450000Y-49800000D01*
X88450000Y-49920000D02*
X94450000Y-49920000D01*
X88450000Y-50040000D02*
X94450000Y-50040000D01*
X88450000Y-50160000D02*
X94450000Y-50160000D01*
X88450000Y-50280000D02*
X94450000Y-50280000D01*
X85460000Y-49620000D02*
X85790000Y-49620000D01*
X85460000Y-50380000D02*
X85790000Y-50380000D01*
X85790000Y-51270000D02*
X88450000Y-51270000D01*
X88450000Y-52160000D02*
X94450000Y-52160000D01*
X94450000Y-52160000D02*
X94450000Y-52920000D01*
X94450000Y-52920000D02*
X88450000Y-52920000D01*
X85392929Y-52160000D02*
X85790000Y-52160000D01*
X85392929Y-52920000D02*
X85790000Y-52920000D01*
X85790000Y-53810000D02*
X88450000Y-53810000D01*
X88450000Y-54700000D02*
X94450000Y-54700000D01*
X94450000Y-54700000D02*
X94450000Y-55460000D01*
X94450000Y-55460000D02*
X88450000Y-55460000D01*
X85392929Y-54700000D02*
X85790000Y-54700000D01*
X85392929Y-55460000D02*
X85790000Y-55460000D01*
X83080000Y-50000000D02*
X83080000Y-48730000D01*
X83080000Y-48730000D02*
X84350000Y-48730000D01*
X88550000Y-57450000D02*
X87300000Y-57450000D01*
X88550000Y-58700000D02*
X88550000Y-57450000D01*
X83050000Y-64600000D02*
X83050000Y-61550000D01*
X86000000Y-64600000D02*
X83050000Y-64600000D01*
X86000000Y-65350000D02*
X86000000Y-64600000D01*
X83050000Y-58500000D02*
X83050000Y-61550000D01*
X86000000Y-58500000D02*
X83050000Y-58500000D01*
X86000000Y-57750000D02*
X86000000Y-58500000D01*
X88250000Y-65350000D02*
X88250000Y-63550000D01*
X87500000Y-65350000D02*
X88250000Y-65350000D01*
X87500000Y-63550000D02*
X87500000Y-65350000D01*
X88250000Y-63550000D02*
X87500000Y-63550000D01*
X88250000Y-59550000D02*
X88250000Y-57750000D01*
X87500000Y-59550000D02*
X88250000Y-59550000D01*
X87500000Y-57750000D02*
X87500000Y-59550000D01*
X88250000Y-57750000D02*
X87500000Y-57750000D01*
X88250000Y-62050000D02*
X88250000Y-61050000D01*
X87500000Y-62050000D02*
X88250000Y-62050000D01*
X87500000Y-61050000D02*
X87500000Y-62050000D01*
X88250000Y-61050000D02*
X87500000Y-61050000D01*
X88260000Y-65360000D02*
X88260000Y-57740000D01*
X82290000Y-65360000D02*
X88260000Y-65360000D01*
X82290000Y-57740000D02*
X82290000Y-65360000D01*
X88260000Y-57740000D02*
X82290000Y-57740000D01*
D12*
X70580000Y-27101500D02*
X69580000Y-27101500D01*
X74180000Y-27101500D02*
X75180000Y-27101500D01*
X74180000Y-27526500D02*
X74180000Y-27101500D01*
X73455000Y-27526500D02*
X74180000Y-27526500D01*
X68230000Y-23951500D02*
X68230000Y-25351500D01*
X68230000Y-21401500D02*
X68230000Y-21551500D01*
X68530000Y-21401500D02*
X68230000Y-21401500D01*
X68530000Y-20951500D02*
X68530000Y-21401500D01*
X76230000Y-21401500D02*
X76230000Y-20951500D01*
X76530000Y-21401500D02*
X76230000Y-21401500D01*
X76530000Y-21551500D02*
X76530000Y-21401500D01*
X76530000Y-25351500D02*
X76530000Y-23951500D01*
D13*
X52420000Y-46428733D02*
X52420000Y-46771267D01*
X51400000Y-46428733D02*
X51400000Y-46771267D01*
X78078500Y-72038936D02*
X78078500Y-73243064D01*
X80798500Y-72038936D02*
X80798500Y-73243064D01*
X79240000Y-88852064D02*
X79240000Y-87647936D01*
X81960000Y-88852064D02*
X81960000Y-87647936D01*
X70947936Y-78040000D02*
X72152064Y-78040000D01*
X70947936Y-80760000D02*
X72152064Y-80760000D01*
X45881267Y-55835000D02*
X45538733Y-55835000D01*
X45881267Y-54815000D02*
X45538733Y-54815000D01*
X45881267Y-56390000D02*
X45538733Y-56390000D01*
X45881267Y-57410000D02*
X45538733Y-57410000D01*
X45681267Y-46590000D02*
X45338733Y-46590000D01*
X45681267Y-47610000D02*
X45338733Y-47610000D01*
X45538733Y-53265000D02*
X45881267Y-53265000D01*
X45538733Y-54285000D02*
X45881267Y-54285000D01*
X64871267Y-72060000D02*
X64528733Y-72060000D01*
X64871267Y-71040000D02*
X64528733Y-71040000D01*
X54550000Y-46756267D02*
X54550000Y-46413733D01*
X55570000Y-46756267D02*
X55570000Y-46413733D01*
X53950000Y-46766267D02*
X53950000Y-46423733D01*
X52930000Y-46766267D02*
X52930000Y-46423733D01*
X45548733Y-58980000D02*
X45891267Y-58980000D01*
X45548733Y-57960000D02*
X45891267Y-57960000D01*
X45533733Y-60970000D02*
X45876267Y-60970000D01*
X45533733Y-61990000D02*
X45876267Y-61990000D01*
X74730000Y-32068733D02*
X74730000Y-32411267D01*
X75750000Y-32068733D02*
X75750000Y-32411267D01*
X75884500Y-72194267D02*
X75884500Y-71851733D01*
X74864500Y-72194267D02*
X74864500Y-71851733D01*
X75210000Y-87153733D02*
X75210000Y-87496267D01*
X74190000Y-87153733D02*
X74190000Y-87496267D01*
X72296267Y-85040000D02*
X71953733Y-85040000D01*
X72296267Y-86060000D02*
X71953733Y-86060000D01*
X77472000Y-71851733D02*
X77472000Y-72194267D01*
X76452000Y-71851733D02*
X76452000Y-72194267D01*
X76760000Y-87521267D02*
X76760000Y-87178733D01*
X75740000Y-87521267D02*
X75740000Y-87178733D01*
X71953733Y-83440000D02*
X72296267Y-83440000D01*
X71953733Y-84460000D02*
X72296267Y-84460000D01*
X56250000Y-78958733D02*
X56250000Y-79301267D01*
X55230000Y-78958733D02*
X55230000Y-79301267D01*
X59880000Y-79286267D02*
X59880000Y-78943733D01*
X60900000Y-79286267D02*
X60900000Y-78943733D01*
X60250000Y-41803733D02*
X60250000Y-42146267D01*
X59230000Y-41803733D02*
X59230000Y-42146267D01*
X62290000Y-41803733D02*
X62290000Y-42146267D01*
X63310000Y-41803733D02*
X63310000Y-42146267D01*
X60770000Y-41808733D02*
X60770000Y-42151267D01*
X61790000Y-41808733D02*
X61790000Y-42151267D01*
X64910000Y-41803733D02*
X64910000Y-42146267D01*
X63890000Y-41803733D02*
X63890000Y-42146267D01*
X65515000Y-41803733D02*
X65515000Y-42146267D01*
X66535000Y-41803733D02*
X66535000Y-42146267D01*
X81410000Y-81198733D02*
X81410000Y-81541267D01*
X82430000Y-81198733D02*
X82430000Y-81541267D01*
X79820000Y-31140000D02*
X79820000Y-33340000D01*
X76420000Y-31140000D02*
X76420000Y-33340000D01*
X89412132Y-41775000D02*
G75*
G03X89412132Y-41775000I-212132J0D01*
G01*
D15*
X89450000Y-45175000D02*
X88800000Y-45175000D01*
X89450000Y-45025000D02*
X89450000Y-45175000D01*
X89450000Y-43725000D02*
X89450000Y-45025000D01*
X88800000Y-43725000D02*
X89450000Y-43725000D01*
X88750000Y-42075000D02*
X88750000Y-46875000D01*
X84750000Y-42075000D02*
X84750000Y-46875000D01*
D13*
X78484500Y-68515000D02*
X79884500Y-68515000D01*
X79884500Y-68515000D02*
X79884500Y-69915000D01*
X79884500Y-69915000D02*
X78484500Y-69915000D01*
X78484500Y-69915000D02*
X78484500Y-68515000D01*
X82650000Y-88850000D02*
X84050000Y-88850000D01*
X84050000Y-88850000D02*
X84050000Y-90250000D01*
X84050000Y-90250000D02*
X82650000Y-90250000D01*
X82650000Y-90250000D02*
X82650000Y-88850000D01*
X67300000Y-78150000D02*
X68700000Y-78150000D01*
X68700000Y-78150000D02*
X68700000Y-79550000D01*
X68700000Y-79550000D02*
X67300000Y-79550000D01*
X67300000Y-79550000D02*
X67300000Y-78150000D01*
X52870000Y-67330000D02*
X52870000Y-66780000D01*
X53420000Y-67330000D02*
X52870000Y-67330000D01*
X63170000Y-67330000D02*
X63170000Y-66780000D01*
X62620000Y-67330000D02*
X63170000Y-67330000D01*
X63170000Y-57030000D02*
X63170000Y-57580000D01*
X62620000Y-57030000D02*
X63170000Y-57030000D01*
X52990001Y-56860000D02*
G75*
G03X52990001Y-56860000I-258070J0D01*
G01*
X68050000Y-42110000D02*
X67250000Y-42110000D01*
X68050000Y-50210000D02*
X67250000Y-50210000D01*
X67250000Y-50210000D02*
X67250000Y-42110000D01*
X72550000Y-50210000D02*
X73350000Y-50210000D01*
X73350000Y-42110000D02*
X73350000Y-50210000D01*
X72550000Y-42110000D02*
X73350000Y-42110000D01*
X73861803Y-41760000D02*
G75*
G03X73861803Y-41760000I-111803J0D01*
G01*
X65005000Y-76380000D02*
X64205000Y-77180000D01*
X64205000Y-77180000D02*
X60855000Y-77180000D01*
X60855000Y-77180000D02*
X60855000Y-72280000D01*
X60855000Y-72280000D02*
X65005000Y-72280000D01*
X65005000Y-72280000D02*
X65005000Y-76380000D01*
X66233848Y-77530000D02*
G75*
G03X66233848Y-77530000I-183848J0D01*
G01*
X45810000Y-49160000D02*
X46610000Y-48360000D01*
X46610000Y-48360000D02*
X48860000Y-48360000D01*
X48860000Y-48360000D02*
X48860000Y-51290000D01*
X48860000Y-51290000D02*
X45810000Y-51290000D01*
X45810000Y-51290000D02*
X45810000Y-49160000D01*
X46076421Y-48125000D02*
G75*
G03X46076421Y-48125000I-141421J0D01*
G01*
X67300000Y-65650000D02*
X71600000Y-65650000D01*
X71600000Y-65650000D02*
X71600000Y-60250000D01*
X63005000Y-80935000D02*
X64355000Y-80935000D01*
X63005000Y-79185000D02*
X64355000Y-79185000D01*
X57490000Y-53010000D02*
X59490000Y-53010000D01*
X59490000Y-53010000D02*
X59490000Y-49110000D01*
X57490000Y-53010000D02*
X57490000Y-49110000D01*
X58710000Y-73686267D02*
X58710000Y-73343733D01*
X57690000Y-73686267D02*
X57690000Y-73343733D01*
X56160000Y-73686267D02*
X56160000Y-73343733D01*
X57180000Y-73686267D02*
X57180000Y-73343733D01*
D12*
X66603642Y-82399142D02*
X66556023Y-82446761D01*
X66413166Y-82494380D01*
X66317928Y-82494380D01*
X66175071Y-82446761D01*
X66079833Y-82351523D01*
X66032214Y-82256285D01*
X65984595Y-82065809D01*
X65984595Y-81922952D01*
X66032214Y-81732476D01*
X66079833Y-81637238D01*
X66175071Y-81542000D01*
X66317928Y-81494380D01*
X66413166Y-81494380D01*
X66556023Y-81542000D01*
X66603642Y-81589619D01*
X66984595Y-81589619D02*
X67032214Y-81542000D01*
X67127452Y-81494380D01*
X67365547Y-81494380D01*
X67460785Y-81542000D01*
X67508404Y-81589619D01*
X67556023Y-81684857D01*
X67556023Y-81780095D01*
X67508404Y-81922952D01*
X66936976Y-82494380D01*
X67556023Y-82494380D01*
X68127452Y-81922952D02*
X68032214Y-81875333D01*
X67984595Y-81827714D01*
X67936976Y-81732476D01*
X67936976Y-81684857D01*
X67984595Y-81589619D01*
X68032214Y-81542000D01*
X68127452Y-81494380D01*
X68317928Y-81494380D01*
X68413166Y-81542000D01*
X68460785Y-81589619D01*
X68508404Y-81684857D01*
X68508404Y-81732476D01*
X68460785Y-81827714D01*
X68413166Y-81875333D01*
X68317928Y-81922952D01*
X68127452Y-81922952D01*
X68032214Y-81970571D01*
X67984595Y-82018190D01*
X67936976Y-82113428D01*
X67936976Y-82303904D01*
X67984595Y-82399142D01*
X68032214Y-82446761D01*
X68127452Y-82494380D01*
X68317928Y-82494380D01*
X68413166Y-82446761D01*
X68460785Y-82399142D01*
X68508404Y-82303904D01*
X68508404Y-82113428D01*
X68460785Y-82018190D01*
X68413166Y-81970571D01*
X68317928Y-81922952D01*
X56816666Y-21296380D02*
X56816666Y-22010666D01*
X56769047Y-22153523D01*
X56673809Y-22248761D01*
X56530952Y-22296380D01*
X56435714Y-22296380D01*
X57340476Y-22296380D02*
X57530952Y-22296380D01*
X57626190Y-22248761D01*
X57673809Y-22201142D01*
X57769047Y-22058285D01*
X57816666Y-21867809D01*
X57816666Y-21486857D01*
X57769047Y-21391619D01*
X57721428Y-21344000D01*
X57626190Y-21296380D01*
X57435714Y-21296380D01*
X57340476Y-21344000D01*
X57292857Y-21391619D01*
X57245238Y-21486857D01*
X57245238Y-21724952D01*
X57292857Y-21820190D01*
X57340476Y-21867809D01*
X57435714Y-21915428D01*
X57626190Y-21915428D01*
X57721428Y-21867809D01*
X57769047Y-21820190D01*
X57816666Y-21724952D01*
X74238095Y-76652380D02*
X74238095Y-77461904D01*
X74285714Y-77557142D01*
X74333333Y-77604761D01*
X74428571Y-77652380D01*
X74619047Y-77652380D01*
X74714285Y-77604761D01*
X74761904Y-77557142D01*
X74809523Y-77461904D01*
X74809523Y-76652380D01*
X75761904Y-76652380D02*
X75285714Y-76652380D01*
X75238095Y-77128571D01*
X75285714Y-77080952D01*
X75380952Y-77033333D01*
X75619047Y-77033333D01*
X75714285Y-77080952D01*
X75761904Y-77128571D01*
X75809523Y-77223809D01*
X75809523Y-77461904D01*
X75761904Y-77557142D01*
X75714285Y-77604761D01*
X75619047Y-77652380D01*
X75380952Y-77652380D01*
X75285714Y-77604761D01*
X75238095Y-77557142D01*
X88701666Y-65552380D02*
X88701666Y-66266666D01*
X88654047Y-66409523D01*
X88558809Y-66504761D01*
X88415952Y-66552380D01*
X88320714Y-66552380D01*
X89130238Y-65647619D02*
X89177857Y-65600000D01*
X89273095Y-65552380D01*
X89511190Y-65552380D01*
X89606428Y-65600000D01*
X89654047Y-65647619D01*
X89701666Y-65742857D01*
X89701666Y-65838095D01*
X89654047Y-65980952D01*
X89082619Y-66552380D01*
X89701666Y-66552380D01*
X62428380Y-49188666D02*
X61952190Y-49522000D01*
X62428380Y-49760095D02*
X61428380Y-49760095D01*
X61428380Y-49379142D01*
X61476000Y-49283904D01*
X61523619Y-49236285D01*
X61618857Y-49188666D01*
X61761714Y-49188666D01*
X61856952Y-49236285D01*
X61904571Y-49283904D01*
X61952190Y-49379142D01*
X61952190Y-49760095D01*
X61523619Y-48807714D02*
X61476000Y-48760095D01*
X61428380Y-48664857D01*
X61428380Y-48426761D01*
X61476000Y-48331523D01*
X61523619Y-48283904D01*
X61618857Y-48236285D01*
X61714095Y-48236285D01*
X61856952Y-48283904D01*
X62428380Y-48855333D01*
X62428380Y-48236285D01*
X63857142Y-49188666D02*
X63904761Y-49236285D01*
X63952380Y-49379142D01*
X63952380Y-49474380D01*
X63904761Y-49617238D01*
X63809523Y-49712476D01*
X63714285Y-49760095D01*
X63523809Y-49807714D01*
X63380952Y-49807714D01*
X63190476Y-49760095D01*
X63095238Y-49712476D01*
X63000000Y-49617238D01*
X62952380Y-49474380D01*
X62952380Y-49379142D01*
X63000000Y-49236285D01*
X63047619Y-49188666D01*
X63952380Y-48236285D02*
X63952380Y-48807714D01*
X63952380Y-48522000D02*
X62952380Y-48522000D01*
X63095238Y-48617238D01*
X63190476Y-48712476D01*
X63238095Y-48807714D01*
X66127333Y-59666142D02*
X66079714Y-59713761D01*
X65936857Y-59761380D01*
X65841619Y-59761380D01*
X65698761Y-59713761D01*
X65603523Y-59618523D01*
X65555904Y-59523285D01*
X65508285Y-59332809D01*
X65508285Y-59189952D01*
X65555904Y-58999476D01*
X65603523Y-58904238D01*
X65698761Y-58809000D01*
X65841619Y-58761380D01*
X65936857Y-58761380D01*
X66079714Y-58809000D01*
X66127333Y-58856619D01*
X66508285Y-58856619D02*
X66555904Y-58809000D01*
X66651142Y-58761380D01*
X66889238Y-58761380D01*
X66984476Y-58809000D01*
X67032095Y-58856619D01*
X67079714Y-58951857D01*
X67079714Y-59047095D01*
X67032095Y-59189952D01*
X66460666Y-59761380D01*
X67079714Y-59761380D01*
X66254333Y-67286142D02*
X66206714Y-67333761D01*
X66063857Y-67381380D01*
X65968619Y-67381380D01*
X65825761Y-67333761D01*
X65730523Y-67238523D01*
X65682904Y-67143285D01*
X65635285Y-66952809D01*
X65635285Y-66809952D01*
X65682904Y-66619476D01*
X65730523Y-66524238D01*
X65825761Y-66429000D01*
X65968619Y-66381380D01*
X66063857Y-66381380D01*
X66206714Y-66429000D01*
X66254333Y-66476619D01*
X66587666Y-66381380D02*
X67206714Y-66381380D01*
X66873380Y-66762333D01*
X67016238Y-66762333D01*
X67111476Y-66809952D01*
X67159095Y-66857571D01*
X67206714Y-66952809D01*
X67206714Y-67190904D01*
X67159095Y-67286142D01*
X67111476Y-67333761D01*
X67016238Y-67381380D01*
X66730523Y-67381380D01*
X66635285Y-67333761D01*
X66587666Y-67286142D01*
X51433333Y-53357142D02*
X51385714Y-53404761D01*
X51242857Y-53452380D01*
X51147619Y-53452380D01*
X51004761Y-53404761D01*
X50909523Y-53309523D01*
X50861904Y-53214285D01*
X50814285Y-53023809D01*
X50814285Y-52880952D01*
X50861904Y-52690476D01*
X50909523Y-52595238D01*
X51004761Y-52500000D01*
X51147619Y-52452380D01*
X51242857Y-52452380D01*
X51385714Y-52500000D01*
X51433333Y-52547619D01*
X52290476Y-52785714D02*
X52290476Y-53452380D01*
X52052380Y-52404761D02*
X51814285Y-53119047D01*
X52433333Y-53119047D01*
X51433333Y-54557142D02*
X51385714Y-54604761D01*
X51242857Y-54652380D01*
X51147619Y-54652380D01*
X51004761Y-54604761D01*
X50909523Y-54509523D01*
X50861904Y-54414285D01*
X50814285Y-54223809D01*
X50814285Y-54080952D01*
X50861904Y-53890476D01*
X50909523Y-53795238D01*
X51004761Y-53700000D01*
X51147619Y-53652380D01*
X51242857Y-53652380D01*
X51385714Y-53700000D01*
X51433333Y-53747619D01*
X52338095Y-53652380D02*
X51861904Y-53652380D01*
X51814285Y-54128571D01*
X51861904Y-54080952D01*
X51957142Y-54033333D01*
X52195238Y-54033333D01*
X52290476Y-54080952D01*
X52338095Y-54128571D01*
X52385714Y-54223809D01*
X52385714Y-54461904D01*
X52338095Y-54557142D01*
X52290476Y-54604761D01*
X52195238Y-54652380D01*
X51957142Y-54652380D01*
X51861904Y-54604761D01*
X51814285Y-54557142D01*
X64833333Y-86157142D02*
X64785714Y-86204761D01*
X64642857Y-86252380D01*
X64547619Y-86252380D01*
X64404761Y-86204761D01*
X64309523Y-86109523D01*
X64261904Y-86014285D01*
X64214285Y-85823809D01*
X64214285Y-85680952D01*
X64261904Y-85490476D01*
X64309523Y-85395238D01*
X64404761Y-85300000D01*
X64547619Y-85252380D01*
X64642857Y-85252380D01*
X64785714Y-85300000D01*
X64833333Y-85347619D01*
X65690476Y-85252380D02*
X65500000Y-85252380D01*
X65404761Y-85300000D01*
X65357142Y-85347619D01*
X65261904Y-85490476D01*
X65214285Y-85680952D01*
X65214285Y-86061904D01*
X65261904Y-86157142D01*
X65309523Y-86204761D01*
X65404761Y-86252380D01*
X65595238Y-86252380D01*
X65690476Y-86204761D01*
X65738095Y-86157142D01*
X65785714Y-86061904D01*
X65785714Y-85823809D01*
X65738095Y-85728571D01*
X65690476Y-85680952D01*
X65595238Y-85633333D01*
X65404761Y-85633333D01*
X65309523Y-85680952D01*
X65261904Y-85728571D01*
X65214285Y-85823809D01*
X62233333Y-86157142D02*
X62185714Y-86204761D01*
X62042857Y-86252380D01*
X61947619Y-86252380D01*
X61804761Y-86204761D01*
X61709523Y-86109523D01*
X61661904Y-86014285D01*
X61614285Y-85823809D01*
X61614285Y-85680952D01*
X61661904Y-85490476D01*
X61709523Y-85395238D01*
X61804761Y-85300000D01*
X61947619Y-85252380D01*
X62042857Y-85252380D01*
X62185714Y-85300000D01*
X62233333Y-85347619D01*
X62566666Y-85252380D02*
X63233333Y-85252380D01*
X62804761Y-86252380D01*
X43357142Y-47166666D02*
X43404761Y-47214285D01*
X43452380Y-47357142D01*
X43452380Y-47452380D01*
X43404761Y-47595238D01*
X43309523Y-47690476D01*
X43214285Y-47738095D01*
X43023809Y-47785714D01*
X42880952Y-47785714D01*
X42690476Y-47738095D01*
X42595238Y-47690476D01*
X42500000Y-47595238D01*
X42452380Y-47452380D01*
X42452380Y-47357142D01*
X42500000Y-47214285D01*
X42547619Y-47166666D01*
X42880952Y-46595238D02*
X42833333Y-46690476D01*
X42785714Y-46738095D01*
X42690476Y-46785714D01*
X42642857Y-46785714D01*
X42547619Y-46738095D01*
X42500000Y-46690476D01*
X42452380Y-46595238D01*
X42452380Y-46404761D01*
X42500000Y-46309523D01*
X42547619Y-46261904D01*
X42642857Y-46214285D01*
X42690476Y-46214285D01*
X42785714Y-46261904D01*
X42833333Y-46309523D01*
X42880952Y-46404761D01*
X42880952Y-46595238D01*
X42928571Y-46690476D01*
X42976190Y-46738095D01*
X43071428Y-46785714D01*
X43261904Y-46785714D01*
X43357142Y-46738095D01*
X43404761Y-46690476D01*
X43452380Y-46595238D01*
X43452380Y-46404761D01*
X43404761Y-46309523D01*
X43357142Y-46261904D01*
X43261904Y-46214285D01*
X43071428Y-46214285D01*
X42976190Y-46261904D01*
X42928571Y-46309523D01*
X42880952Y-46404761D01*
X54033333Y-76957142D02*
X53985714Y-77004761D01*
X53842857Y-77052380D01*
X53747619Y-77052380D01*
X53604761Y-77004761D01*
X53509523Y-76909523D01*
X53461904Y-76814285D01*
X53414285Y-76623809D01*
X53414285Y-76480952D01*
X53461904Y-76290476D01*
X53509523Y-76195238D01*
X53604761Y-76100000D01*
X53747619Y-76052380D01*
X53842857Y-76052380D01*
X53985714Y-76100000D01*
X54033333Y-76147619D01*
X54509523Y-77052380D02*
X54700000Y-77052380D01*
X54795238Y-77004761D01*
X54842857Y-76957142D01*
X54938095Y-76814285D01*
X54985714Y-76623809D01*
X54985714Y-76242857D01*
X54938095Y-76147619D01*
X54890476Y-76100000D01*
X54795238Y-76052380D01*
X54604761Y-76052380D01*
X54509523Y-76100000D01*
X54461904Y-76147619D01*
X54414285Y-76242857D01*
X54414285Y-76480952D01*
X54461904Y-76576190D01*
X54509523Y-76623809D01*
X54604761Y-76671428D01*
X54795238Y-76671428D01*
X54890476Y-76623809D01*
X54938095Y-76576190D01*
X54985714Y-76480952D01*
X52427142Y-43822857D02*
X52474761Y-43870476D01*
X52522380Y-44013333D01*
X52522380Y-44108571D01*
X52474761Y-44251428D01*
X52379523Y-44346666D01*
X52284285Y-44394285D01*
X52093809Y-44441904D01*
X51950952Y-44441904D01*
X51760476Y-44394285D01*
X51665238Y-44346666D01*
X51570000Y-44251428D01*
X51522380Y-44108571D01*
X51522380Y-44013333D01*
X51570000Y-43870476D01*
X51617619Y-43822857D01*
X52522380Y-42870476D02*
X52522380Y-43441904D01*
X52522380Y-43156190D02*
X51522380Y-43156190D01*
X51665238Y-43251428D01*
X51760476Y-43346666D01*
X51808095Y-43441904D01*
X51522380Y-42251428D02*
X51522380Y-42156190D01*
X51570000Y-42060952D01*
X51617619Y-42013333D01*
X51712857Y-41965714D01*
X51903333Y-41918095D01*
X52141428Y-41918095D01*
X52331904Y-41965714D01*
X52427142Y-42013333D01*
X52474761Y-42060952D01*
X52522380Y-42156190D01*
X52522380Y-42251428D01*
X52474761Y-42346666D01*
X52427142Y-42394285D01*
X52331904Y-42441904D01*
X52141428Y-42489523D01*
X51903333Y-42489523D01*
X51712857Y-42441904D01*
X51617619Y-42394285D01*
X51570000Y-42346666D01*
X51522380Y-42251428D01*
X53697142Y-43822857D02*
X53744761Y-43870476D01*
X53792380Y-44013333D01*
X53792380Y-44108571D01*
X53744761Y-44251428D01*
X53649523Y-44346666D01*
X53554285Y-44394285D01*
X53363809Y-44441904D01*
X53220952Y-44441904D01*
X53030476Y-44394285D01*
X52935238Y-44346666D01*
X52840000Y-44251428D01*
X52792380Y-44108571D01*
X52792380Y-44013333D01*
X52840000Y-43870476D01*
X52887619Y-43822857D01*
X53792380Y-42870476D02*
X53792380Y-43441904D01*
X53792380Y-43156190D02*
X52792380Y-43156190D01*
X52935238Y-43251428D01*
X53030476Y-43346666D01*
X53078095Y-43441904D01*
X53792380Y-41918095D02*
X53792380Y-42489523D01*
X53792380Y-42203809D02*
X52792380Y-42203809D01*
X52935238Y-42299047D01*
X53030476Y-42394285D01*
X53078095Y-42489523D01*
X41957142Y-52557142D02*
X41909523Y-52604761D01*
X41766666Y-52652380D01*
X41671428Y-52652380D01*
X41528571Y-52604761D01*
X41433333Y-52509523D01*
X41385714Y-52414285D01*
X41338095Y-52223809D01*
X41338095Y-52080952D01*
X41385714Y-51890476D01*
X41433333Y-51795238D01*
X41528571Y-51700000D01*
X41671428Y-51652380D01*
X41766666Y-51652380D01*
X41909523Y-51700000D01*
X41957142Y-51747619D01*
X42909523Y-52652380D02*
X42338095Y-52652380D01*
X42623809Y-52652380D02*
X42623809Y-51652380D01*
X42528571Y-51795238D01*
X42433333Y-51890476D01*
X42338095Y-51938095D01*
X43290476Y-51747619D02*
X43338095Y-51700000D01*
X43433333Y-51652380D01*
X43671428Y-51652380D01*
X43766666Y-51700000D01*
X43814285Y-51747619D01*
X43861904Y-51842857D01*
X43861904Y-51938095D01*
X43814285Y-52080952D01*
X43242857Y-52652380D01*
X43861904Y-52652380D01*
X56999142Y-47378857D02*
X57046761Y-47426476D01*
X57094380Y-47569333D01*
X57094380Y-47664571D01*
X57046761Y-47807428D01*
X56951523Y-47902666D01*
X56856285Y-47950285D01*
X56665809Y-47997904D01*
X56522952Y-47997904D01*
X56332476Y-47950285D01*
X56237238Y-47902666D01*
X56142000Y-47807428D01*
X56094380Y-47664571D01*
X56094380Y-47569333D01*
X56142000Y-47426476D01*
X56189619Y-47378857D01*
X57094380Y-46426476D02*
X57094380Y-46997904D01*
X57094380Y-46712190D02*
X56094380Y-46712190D01*
X56237238Y-46807428D01*
X56332476Y-46902666D01*
X56380095Y-46997904D01*
X56094380Y-46093142D02*
X56094380Y-45474095D01*
X56475333Y-45807428D01*
X56475333Y-45664571D01*
X56522952Y-45569333D01*
X56570571Y-45521714D01*
X56665809Y-45474095D01*
X56903904Y-45474095D01*
X56999142Y-45521714D01*
X57046761Y-45569333D01*
X57094380Y-45664571D01*
X57094380Y-45950285D01*
X57046761Y-46045523D01*
X56999142Y-46093142D01*
X55221142Y-43822857D02*
X55268761Y-43870476D01*
X55316380Y-44013333D01*
X55316380Y-44108571D01*
X55268761Y-44251428D01*
X55173523Y-44346666D01*
X55078285Y-44394285D01*
X54887809Y-44441904D01*
X54744952Y-44441904D01*
X54554476Y-44394285D01*
X54459238Y-44346666D01*
X54364000Y-44251428D01*
X54316380Y-44108571D01*
X54316380Y-44013333D01*
X54364000Y-43870476D01*
X54411619Y-43822857D01*
X55316380Y-42870476D02*
X55316380Y-43441904D01*
X55316380Y-43156190D02*
X54316380Y-43156190D01*
X54459238Y-43251428D01*
X54554476Y-43346666D01*
X54602095Y-43441904D01*
X54649714Y-42013333D02*
X55316380Y-42013333D01*
X54268761Y-42251428D02*
X54983047Y-42489523D01*
X54983047Y-41870476D01*
X45072142Y-61787142D02*
X45024523Y-61834761D01*
X44881666Y-61882380D01*
X44786428Y-61882380D01*
X44643571Y-61834761D01*
X44548333Y-61739523D01*
X44500714Y-61644285D01*
X44453095Y-61453809D01*
X44453095Y-61310952D01*
X44500714Y-61120476D01*
X44548333Y-61025238D01*
X44643571Y-60930000D01*
X44786428Y-60882380D01*
X44881666Y-60882380D01*
X45024523Y-60930000D01*
X45072142Y-60977619D01*
X46024523Y-61882380D02*
X45453095Y-61882380D01*
X45738809Y-61882380D02*
X45738809Y-60882380D01*
X45643571Y-61025238D01*
X45548333Y-61120476D01*
X45453095Y-61168095D01*
X46357857Y-60882380D02*
X47024523Y-60882380D01*
X46595952Y-61882380D01*
X55557142Y-71042857D02*
X55604761Y-71090476D01*
X55652380Y-71233333D01*
X55652380Y-71328571D01*
X55604761Y-71471428D01*
X55509523Y-71566666D01*
X55414285Y-71614285D01*
X55223809Y-71661904D01*
X55080952Y-71661904D01*
X54890476Y-71614285D01*
X54795238Y-71566666D01*
X54700000Y-71471428D01*
X54652380Y-71328571D01*
X54652380Y-71233333D01*
X54700000Y-71090476D01*
X54747619Y-71042857D01*
X54747619Y-70661904D02*
X54700000Y-70614285D01*
X54652380Y-70519047D01*
X54652380Y-70280952D01*
X54700000Y-70185714D01*
X54747619Y-70138095D01*
X54842857Y-70090476D01*
X54938095Y-70090476D01*
X55080952Y-70138095D01*
X55652380Y-70709523D01*
X55652380Y-70090476D01*
X54652380Y-69471428D02*
X54652380Y-69376190D01*
X54700000Y-69280952D01*
X54747619Y-69233333D01*
X54842857Y-69185714D01*
X55033333Y-69138095D01*
X55271428Y-69138095D01*
X55461904Y-69185714D01*
X55557142Y-69233333D01*
X55604761Y-69280952D01*
X55652380Y-69376190D01*
X55652380Y-69471428D01*
X55604761Y-69566666D01*
X55557142Y-69614285D01*
X55461904Y-69661904D01*
X55271428Y-69709523D01*
X55033333Y-69709523D01*
X54842857Y-69661904D01*
X54747619Y-69614285D01*
X54700000Y-69566666D01*
X54652380Y-69471428D01*
X73128142Y-69476857D02*
X73175761Y-69524476D01*
X73223380Y-69667333D01*
X73223380Y-69762571D01*
X73175761Y-69905428D01*
X73080523Y-70000666D01*
X72985285Y-70048285D01*
X72794809Y-70095904D01*
X72651952Y-70095904D01*
X72461476Y-70048285D01*
X72366238Y-70000666D01*
X72271000Y-69905428D01*
X72223380Y-69762571D01*
X72223380Y-69667333D01*
X72271000Y-69524476D01*
X72318619Y-69476857D01*
X72318619Y-69095904D02*
X72271000Y-69048285D01*
X72223380Y-68953047D01*
X72223380Y-68714952D01*
X72271000Y-68619714D01*
X72318619Y-68572095D01*
X72413857Y-68524476D01*
X72509095Y-68524476D01*
X72651952Y-68572095D01*
X73223380Y-69143523D01*
X73223380Y-68524476D01*
X73223380Y-67572095D02*
X73223380Y-68143523D01*
X73223380Y-67857809D02*
X72223380Y-67857809D01*
X72366238Y-67953047D01*
X72461476Y-68048285D01*
X72509095Y-68143523D01*
X75912742Y-91949542D02*
X75865123Y-91997161D01*
X75722266Y-92044780D01*
X75627028Y-92044780D01*
X75484171Y-91997161D01*
X75388933Y-91901923D01*
X75341314Y-91806685D01*
X75293695Y-91616209D01*
X75293695Y-91473352D01*
X75341314Y-91282876D01*
X75388933Y-91187638D01*
X75484171Y-91092400D01*
X75627028Y-91044780D01*
X75722266Y-91044780D01*
X75865123Y-91092400D01*
X75912742Y-91140019D01*
X76293695Y-91140019D02*
X76341314Y-91092400D01*
X76436552Y-91044780D01*
X76674647Y-91044780D01*
X76769885Y-91092400D01*
X76817504Y-91140019D01*
X76865123Y-91235257D01*
X76865123Y-91330495D01*
X76817504Y-91473352D01*
X76246076Y-92044780D01*
X76865123Y-92044780D01*
X77246076Y-91140019D02*
X77293695Y-91092400D01*
X77388933Y-91044780D01*
X77627028Y-91044780D01*
X77722266Y-91092400D01*
X77769885Y-91140019D01*
X77817504Y-91235257D01*
X77817504Y-91330495D01*
X77769885Y-91473352D01*
X77198457Y-92044780D01*
X77817504Y-92044780D01*
X66667142Y-84939142D02*
X66619523Y-84986761D01*
X66476666Y-85034380D01*
X66381428Y-85034380D01*
X66238571Y-84986761D01*
X66143333Y-84891523D01*
X66095714Y-84796285D01*
X66048095Y-84605809D01*
X66048095Y-84462952D01*
X66095714Y-84272476D01*
X66143333Y-84177238D01*
X66238571Y-84082000D01*
X66381428Y-84034380D01*
X66476666Y-84034380D01*
X66619523Y-84082000D01*
X66667142Y-84129619D01*
X67048095Y-84129619D02*
X67095714Y-84082000D01*
X67190952Y-84034380D01*
X67429047Y-84034380D01*
X67524285Y-84082000D01*
X67571904Y-84129619D01*
X67619523Y-84224857D01*
X67619523Y-84320095D01*
X67571904Y-84462952D01*
X67000476Y-85034380D01*
X67619523Y-85034380D01*
X67952857Y-84034380D02*
X68571904Y-84034380D01*
X68238571Y-84415333D01*
X68381428Y-84415333D01*
X68476666Y-84462952D01*
X68524285Y-84510571D01*
X68571904Y-84605809D01*
X68571904Y-84843904D01*
X68524285Y-84939142D01*
X68476666Y-84986761D01*
X68381428Y-85034380D01*
X68095714Y-85034380D01*
X68000476Y-84986761D01*
X67952857Y-84939142D01*
X51357142Y-81957142D02*
X51309523Y-82004761D01*
X51166666Y-82052380D01*
X51071428Y-82052380D01*
X50928571Y-82004761D01*
X50833333Y-81909523D01*
X50785714Y-81814285D01*
X50738095Y-81623809D01*
X50738095Y-81480952D01*
X50785714Y-81290476D01*
X50833333Y-81195238D01*
X50928571Y-81100000D01*
X51071428Y-81052380D01*
X51166666Y-81052380D01*
X51309523Y-81100000D01*
X51357142Y-81147619D01*
X51738095Y-81147619D02*
X51785714Y-81100000D01*
X51880952Y-81052380D01*
X52119047Y-81052380D01*
X52214285Y-81100000D01*
X52261904Y-81147619D01*
X52309523Y-81242857D01*
X52309523Y-81338095D01*
X52261904Y-81480952D01*
X51690476Y-82052380D01*
X52309523Y-82052380D01*
X53166666Y-81385714D02*
X53166666Y-82052380D01*
X52928571Y-81004761D02*
X52690476Y-81719047D01*
X53309523Y-81719047D01*
X48157142Y-79842857D02*
X48204761Y-79890476D01*
X48252380Y-80033333D01*
X48252380Y-80128571D01*
X48204761Y-80271428D01*
X48109523Y-80366666D01*
X48014285Y-80414285D01*
X47823809Y-80461904D01*
X47680952Y-80461904D01*
X47490476Y-80414285D01*
X47395238Y-80366666D01*
X47300000Y-80271428D01*
X47252380Y-80128571D01*
X47252380Y-80033333D01*
X47300000Y-79890476D01*
X47347619Y-79842857D01*
X47347619Y-79461904D02*
X47300000Y-79414285D01*
X47252380Y-79319047D01*
X47252380Y-79080952D01*
X47300000Y-78985714D01*
X47347619Y-78938095D01*
X47442857Y-78890476D01*
X47538095Y-78890476D01*
X47680952Y-78938095D01*
X48252380Y-79509523D01*
X48252380Y-78890476D01*
X47252380Y-77985714D02*
X47252380Y-78461904D01*
X47728571Y-78509523D01*
X47680952Y-78461904D01*
X47633333Y-78366666D01*
X47633333Y-78128571D01*
X47680952Y-78033333D01*
X47728571Y-77985714D01*
X47823809Y-77938095D01*
X48061904Y-77938095D01*
X48157142Y-77985714D01*
X48204761Y-78033333D01*
X48252380Y-78128571D01*
X48252380Y-78366666D01*
X48204761Y-78461904D01*
X48157142Y-78509523D01*
X73255142Y-75445857D02*
X73302761Y-75493476D01*
X73350380Y-75636333D01*
X73350380Y-75731571D01*
X73302761Y-75874428D01*
X73207523Y-75969666D01*
X73112285Y-76017285D01*
X72921809Y-76064904D01*
X72778952Y-76064904D01*
X72588476Y-76017285D01*
X72493238Y-75969666D01*
X72398000Y-75874428D01*
X72350380Y-75731571D01*
X72350380Y-75636333D01*
X72398000Y-75493476D01*
X72445619Y-75445857D01*
X72445619Y-75064904D02*
X72398000Y-75017285D01*
X72350380Y-74922047D01*
X72350380Y-74683952D01*
X72398000Y-74588714D01*
X72445619Y-74541095D01*
X72540857Y-74493476D01*
X72636095Y-74493476D01*
X72778952Y-74541095D01*
X73350380Y-75112523D01*
X73350380Y-74493476D01*
X72350380Y-73636333D02*
X72350380Y-73826809D01*
X72398000Y-73922047D01*
X72445619Y-73969666D01*
X72588476Y-74064904D01*
X72778952Y-74112523D01*
X73159904Y-74112523D01*
X73255142Y-74064904D01*
X73302761Y-74017285D01*
X73350380Y-73922047D01*
X73350380Y-73731571D01*
X73302761Y-73636333D01*
X73255142Y-73588714D01*
X73159904Y-73541095D01*
X72921809Y-73541095D01*
X72826571Y-73588714D01*
X72778952Y-73636333D01*
X72731333Y-73731571D01*
X72731333Y-73922047D01*
X72778952Y-74017285D01*
X72826571Y-74064904D01*
X72921809Y-74112523D01*
X73661542Y-91066857D02*
X73709161Y-91114476D01*
X73756780Y-91257333D01*
X73756780Y-91352571D01*
X73709161Y-91495428D01*
X73613923Y-91590666D01*
X73518685Y-91638285D01*
X73328209Y-91685904D01*
X73185352Y-91685904D01*
X72994876Y-91638285D01*
X72899638Y-91590666D01*
X72804400Y-91495428D01*
X72756780Y-91352571D01*
X72756780Y-91257333D01*
X72804400Y-91114476D01*
X72852019Y-91066857D01*
X72852019Y-90685904D02*
X72804400Y-90638285D01*
X72756780Y-90543047D01*
X72756780Y-90304952D01*
X72804400Y-90209714D01*
X72852019Y-90162095D01*
X72947257Y-90114476D01*
X73042495Y-90114476D01*
X73185352Y-90162095D01*
X73756780Y-90733523D01*
X73756780Y-90114476D01*
X72756780Y-89781142D02*
X72756780Y-89114476D01*
X73756780Y-89543047D01*
X50557142Y-79842857D02*
X50604761Y-79890476D01*
X50652380Y-80033333D01*
X50652380Y-80128571D01*
X50604761Y-80271428D01*
X50509523Y-80366666D01*
X50414285Y-80414285D01*
X50223809Y-80461904D01*
X50080952Y-80461904D01*
X49890476Y-80414285D01*
X49795238Y-80366666D01*
X49700000Y-80271428D01*
X49652380Y-80128571D01*
X49652380Y-80033333D01*
X49700000Y-79890476D01*
X49747619Y-79842857D01*
X49747619Y-79461904D02*
X49700000Y-79414285D01*
X49652380Y-79319047D01*
X49652380Y-79080952D01*
X49700000Y-78985714D01*
X49747619Y-78938095D01*
X49842857Y-78890476D01*
X49938095Y-78890476D01*
X50080952Y-78938095D01*
X50652380Y-79509523D01*
X50652380Y-78890476D01*
X50652380Y-78414285D02*
X50652380Y-78223809D01*
X50604761Y-78128571D01*
X50557142Y-78080952D01*
X50414285Y-77985714D01*
X50223809Y-77938095D01*
X49842857Y-77938095D01*
X49747619Y-77985714D01*
X49700000Y-78033333D01*
X49652380Y-78128571D01*
X49652380Y-78319047D01*
X49700000Y-78414285D01*
X49747619Y-78461904D01*
X49842857Y-78509523D01*
X50080952Y-78509523D01*
X50176190Y-78461904D01*
X50223809Y-78414285D01*
X50271428Y-78319047D01*
X50271428Y-78128571D01*
X50223809Y-78033333D01*
X50176190Y-77985714D01*
X50080952Y-77938095D01*
X51757142Y-79842857D02*
X51804761Y-79890476D01*
X51852380Y-80033333D01*
X51852380Y-80128571D01*
X51804761Y-80271428D01*
X51709523Y-80366666D01*
X51614285Y-80414285D01*
X51423809Y-80461904D01*
X51280952Y-80461904D01*
X51090476Y-80414285D01*
X50995238Y-80366666D01*
X50900000Y-80271428D01*
X50852380Y-80128571D01*
X50852380Y-80033333D01*
X50900000Y-79890476D01*
X50947619Y-79842857D01*
X50852380Y-79509523D02*
X50852380Y-78890476D01*
X51233333Y-79223809D01*
X51233333Y-79080952D01*
X51280952Y-78985714D01*
X51328571Y-78938095D01*
X51423809Y-78890476D01*
X51661904Y-78890476D01*
X51757142Y-78938095D01*
X51804761Y-78985714D01*
X51852380Y-79080952D01*
X51852380Y-79366666D01*
X51804761Y-79461904D01*
X51757142Y-79509523D01*
X50852380Y-78271428D02*
X50852380Y-78176190D01*
X50900000Y-78080952D01*
X50947619Y-78033333D01*
X51042857Y-77985714D01*
X51233333Y-77938095D01*
X51471428Y-77938095D01*
X51661904Y-77985714D01*
X51757142Y-78033333D01*
X51804761Y-78080952D01*
X51852380Y-78176190D01*
X51852380Y-78271428D01*
X51804761Y-78366666D01*
X51757142Y-78414285D01*
X51661904Y-78461904D01*
X51471428Y-78509523D01*
X51233333Y-78509523D01*
X51042857Y-78461904D01*
X50947619Y-78414285D01*
X50900000Y-78366666D01*
X50852380Y-78271428D01*
X60809142Y-49156857D02*
X60856761Y-49204476D01*
X60904380Y-49347333D01*
X60904380Y-49442571D01*
X60856761Y-49585428D01*
X60761523Y-49680666D01*
X60666285Y-49728285D01*
X60475809Y-49775904D01*
X60332952Y-49775904D01*
X60142476Y-49728285D01*
X60047238Y-49680666D01*
X59952000Y-49585428D01*
X59904380Y-49442571D01*
X59904380Y-49347333D01*
X59952000Y-49204476D01*
X59999619Y-49156857D01*
X59904380Y-48823523D02*
X59904380Y-48204476D01*
X60285333Y-48537809D01*
X60285333Y-48394952D01*
X60332952Y-48299714D01*
X60380571Y-48252095D01*
X60475809Y-48204476D01*
X60713904Y-48204476D01*
X60809142Y-48252095D01*
X60856761Y-48299714D01*
X60904380Y-48394952D01*
X60904380Y-48680666D01*
X60856761Y-48775904D01*
X60809142Y-48823523D01*
X60904380Y-47252095D02*
X60904380Y-47823523D01*
X60904380Y-47537809D02*
X59904380Y-47537809D01*
X60047238Y-47633047D01*
X60142476Y-47728285D01*
X60190095Y-47823523D01*
X65889142Y-49156857D02*
X65936761Y-49204476D01*
X65984380Y-49347333D01*
X65984380Y-49442571D01*
X65936761Y-49585428D01*
X65841523Y-49680666D01*
X65746285Y-49728285D01*
X65555809Y-49775904D01*
X65412952Y-49775904D01*
X65222476Y-49728285D01*
X65127238Y-49680666D01*
X65032000Y-49585428D01*
X64984380Y-49442571D01*
X64984380Y-49347333D01*
X65032000Y-49204476D01*
X65079619Y-49156857D01*
X64984380Y-48823523D02*
X64984380Y-48204476D01*
X65365333Y-48537809D01*
X65365333Y-48394952D01*
X65412952Y-48299714D01*
X65460571Y-48252095D01*
X65555809Y-48204476D01*
X65793904Y-48204476D01*
X65889142Y-48252095D01*
X65936761Y-48299714D01*
X65984380Y-48394952D01*
X65984380Y-48680666D01*
X65936761Y-48775904D01*
X65889142Y-48823523D01*
X65079619Y-47823523D02*
X65032000Y-47775904D01*
X64984380Y-47680666D01*
X64984380Y-47442571D01*
X65032000Y-47347333D01*
X65079619Y-47299714D01*
X65174857Y-47252095D01*
X65270095Y-47252095D01*
X65412952Y-47299714D01*
X65984380Y-47871142D01*
X65984380Y-47252095D01*
X59661904Y-88452380D02*
X59661904Y-87452380D01*
X59900000Y-87452380D01*
X60042857Y-87500000D01*
X60138095Y-87595238D01*
X60185714Y-87690476D01*
X60233333Y-87880952D01*
X60233333Y-88023809D01*
X60185714Y-88214285D01*
X60138095Y-88309523D01*
X60042857Y-88404761D01*
X59900000Y-88452380D01*
X59661904Y-88452380D01*
X61185714Y-88452380D02*
X60614285Y-88452380D01*
X60900000Y-88452380D02*
X60900000Y-87452380D01*
X60804761Y-87595238D01*
X60709523Y-87690476D01*
X60614285Y-87738095D01*
X57261904Y-88452380D02*
X57261904Y-87452380D01*
X57500000Y-87452380D01*
X57642857Y-87500000D01*
X57738095Y-87595238D01*
X57785714Y-87690476D01*
X57833333Y-87880952D01*
X57833333Y-88023809D01*
X57785714Y-88214285D01*
X57738095Y-88309523D01*
X57642857Y-88404761D01*
X57500000Y-88452380D01*
X57261904Y-88452380D01*
X58214285Y-87547619D02*
X58261904Y-87500000D01*
X58357142Y-87452380D01*
X58595238Y-87452380D01*
X58690476Y-87500000D01*
X58738095Y-87547619D01*
X58785714Y-87642857D01*
X58785714Y-87738095D01*
X58738095Y-87880952D01*
X58166666Y-88452380D01*
X58785714Y-88452380D01*
X42616666Y-92452380D02*
X42616666Y-93166666D01*
X42569047Y-93309523D01*
X42473809Y-93404761D01*
X42330952Y-93452380D01*
X42235714Y-93452380D01*
X43616666Y-93452380D02*
X43045238Y-93452380D01*
X43330952Y-93452380D02*
X43330952Y-92452380D01*
X43235714Y-92595238D01*
X43140476Y-92690476D01*
X43045238Y-92738095D01*
X47866666Y-37652380D02*
X47866666Y-38366666D01*
X47819047Y-38509523D01*
X47723809Y-38604761D01*
X47580952Y-38652380D01*
X47485714Y-38652380D01*
X48247619Y-37652380D02*
X48866666Y-37652380D01*
X48533333Y-38033333D01*
X48676190Y-38033333D01*
X48771428Y-38080952D01*
X48819047Y-38128571D01*
X48866666Y-38223809D01*
X48866666Y-38461904D01*
X48819047Y-38557142D01*
X48771428Y-38604761D01*
X48676190Y-38652380D01*
X48390476Y-38652380D01*
X48295238Y-38604761D01*
X48247619Y-38557142D01*
X47866666Y-29052380D02*
X47866666Y-29766666D01*
X47819047Y-29909523D01*
X47723809Y-30004761D01*
X47580952Y-30052380D01*
X47485714Y-30052380D01*
X48771428Y-29385714D02*
X48771428Y-30052380D01*
X48533333Y-29004761D02*
X48295238Y-29719047D01*
X48914285Y-29719047D01*
X86666666Y-49452380D02*
X86666666Y-50166666D01*
X86619047Y-50309523D01*
X86523809Y-50404761D01*
X86380952Y-50452380D01*
X86285714Y-50452380D01*
X87619047Y-49452380D02*
X87142857Y-49452380D01*
X87095238Y-49928571D01*
X87142857Y-49880952D01*
X87238095Y-49833333D01*
X87476190Y-49833333D01*
X87571428Y-49880952D01*
X87619047Y-49928571D01*
X87666666Y-50023809D01*
X87666666Y-50261904D01*
X87619047Y-50357142D01*
X87571428Y-50404761D01*
X87476190Y-50452380D01*
X87238095Y-50452380D01*
X87142857Y-50404761D01*
X87095238Y-50357142D01*
X80866666Y-57452380D02*
X80866666Y-58166666D01*
X80819047Y-58309523D01*
X80723809Y-58404761D01*
X80580952Y-58452380D01*
X80485714Y-58452380D01*
X81247619Y-57452380D02*
X81914285Y-57452380D01*
X81485714Y-58452380D01*
X71590476Y-22993880D02*
X71590476Y-23708166D01*
X71542857Y-23851023D01*
X71447619Y-23946261D01*
X71304761Y-23993880D01*
X71209523Y-23993880D01*
X72590476Y-23993880D02*
X72019047Y-23993880D01*
X72304761Y-23993880D02*
X72304761Y-22993880D01*
X72209523Y-23136738D01*
X72114285Y-23231976D01*
X72019047Y-23279595D01*
X73209523Y-22993880D02*
X73304761Y-22993880D01*
X73400000Y-23041500D01*
X73447619Y-23089119D01*
X73495238Y-23184357D01*
X73542857Y-23374833D01*
X73542857Y-23612928D01*
X73495238Y-23803404D01*
X73447619Y-23898642D01*
X73400000Y-23946261D01*
X73304761Y-23993880D01*
X73209523Y-23993880D01*
X73114285Y-23946261D01*
X73066666Y-23898642D01*
X73019047Y-23803404D01*
X72971428Y-23612928D01*
X72971428Y-23374833D01*
X73019047Y-23184357D01*
X73066666Y-23089119D01*
X73114285Y-23041500D01*
X73209523Y-22993880D01*
X52522380Y-40552666D02*
X52522380Y-41028857D01*
X51522380Y-41028857D01*
X52522380Y-39695523D02*
X52522380Y-40266952D01*
X52522380Y-39981238D02*
X51522380Y-39981238D01*
X51665238Y-40076476D01*
X51760476Y-40171714D01*
X51808095Y-40266952D01*
X79208333Y-73159880D02*
X78732142Y-73159880D01*
X78732142Y-72159880D01*
X79494047Y-72255119D02*
X79541666Y-72207500D01*
X79636904Y-72159880D01*
X79875000Y-72159880D01*
X79970238Y-72207500D01*
X80017857Y-72255119D01*
X80065476Y-72350357D01*
X80065476Y-72445595D01*
X80017857Y-72588452D01*
X79446428Y-73159880D01*
X80065476Y-73159880D01*
X80483333Y-88742780D02*
X80007142Y-88742780D01*
X80007142Y-87742780D01*
X80721428Y-87742780D02*
X81340476Y-87742780D01*
X81007142Y-88123733D01*
X81150000Y-88123733D01*
X81245238Y-88171352D01*
X81292857Y-88218971D01*
X81340476Y-88314209D01*
X81340476Y-88552304D01*
X81292857Y-88647542D01*
X81245238Y-88695161D01*
X81150000Y-88742780D01*
X80864285Y-88742780D01*
X80769047Y-88695161D01*
X80721428Y-88647542D01*
X71097619Y-79233333D02*
X71097619Y-78757142D01*
X72097619Y-78757142D01*
X71764285Y-79995238D02*
X71097619Y-79995238D01*
X72145238Y-79757142D02*
X71430952Y-79519047D01*
X71430952Y-80138095D01*
X66233333Y-62252380D02*
X65900000Y-61776190D01*
X65661904Y-62252380D02*
X65661904Y-61252380D01*
X66042857Y-61252380D01*
X66138095Y-61300000D01*
X66185714Y-61347619D01*
X66233333Y-61442857D01*
X66233333Y-61585714D01*
X66185714Y-61680952D01*
X66138095Y-61728571D01*
X66042857Y-61776190D01*
X65661904Y-61776190D01*
X67185714Y-62252380D02*
X66614285Y-62252380D01*
X66900000Y-62252380D02*
X66900000Y-61252380D01*
X66804761Y-61395238D01*
X66709523Y-61490476D01*
X66614285Y-61538095D01*
X65492333Y-78811380D02*
X65159000Y-78335190D01*
X64920904Y-78811380D02*
X64920904Y-77811380D01*
X65301857Y-77811380D01*
X65397095Y-77859000D01*
X65444714Y-77906619D01*
X65492333Y-78001857D01*
X65492333Y-78144714D01*
X65444714Y-78239952D01*
X65397095Y-78287571D01*
X65301857Y-78335190D01*
X64920904Y-78335190D01*
X65825666Y-77811380D02*
X66444714Y-77811380D01*
X66111380Y-78192333D01*
X66254238Y-78192333D01*
X66349476Y-78239952D01*
X66397095Y-78287571D01*
X66444714Y-78382809D01*
X66444714Y-78620904D01*
X66397095Y-78716142D01*
X66349476Y-78763761D01*
X66254238Y-78811380D01*
X65968523Y-78811380D01*
X65873285Y-78763761D01*
X65825666Y-78716142D01*
X42033333Y-55852380D02*
X41700000Y-55376190D01*
X41461904Y-55852380D02*
X41461904Y-54852380D01*
X41842857Y-54852380D01*
X41938095Y-54900000D01*
X41985714Y-54947619D01*
X42033333Y-55042857D01*
X42033333Y-55185714D01*
X41985714Y-55280952D01*
X41938095Y-55328571D01*
X41842857Y-55376190D01*
X41461904Y-55376190D01*
X42890476Y-55185714D02*
X42890476Y-55852380D01*
X42652380Y-54804761D02*
X42414285Y-55519047D01*
X43033333Y-55519047D01*
X42033333Y-57452380D02*
X41700000Y-56976190D01*
X41461904Y-57452380D02*
X41461904Y-56452380D01*
X41842857Y-56452380D01*
X41938095Y-56500000D01*
X41985714Y-56547619D01*
X42033333Y-56642857D01*
X42033333Y-56785714D01*
X41985714Y-56880952D01*
X41938095Y-56928571D01*
X41842857Y-56976190D01*
X41461904Y-56976190D01*
X42938095Y-56452380D02*
X42461904Y-56452380D01*
X42414285Y-56928571D01*
X42461904Y-56880952D01*
X42557142Y-56833333D01*
X42795238Y-56833333D01*
X42890476Y-56880952D01*
X42938095Y-56928571D01*
X42985714Y-57023809D01*
X42985714Y-57261904D01*
X42938095Y-57357142D01*
X42890476Y-57404761D01*
X42795238Y-57452380D01*
X42557142Y-57452380D01*
X42461904Y-57404761D01*
X42414285Y-57357142D01*
X48033333Y-47652380D02*
X47700000Y-47176190D01*
X47461904Y-47652380D02*
X47461904Y-46652380D01*
X47842857Y-46652380D01*
X47938095Y-46700000D01*
X47985714Y-46747619D01*
X48033333Y-46842857D01*
X48033333Y-46985714D01*
X47985714Y-47080952D01*
X47938095Y-47128571D01*
X47842857Y-47176190D01*
X47461904Y-47176190D01*
X48890476Y-46652380D02*
X48700000Y-46652380D01*
X48604761Y-46700000D01*
X48557142Y-46747619D01*
X48461904Y-46890476D01*
X48414285Y-47080952D01*
X48414285Y-47461904D01*
X48461904Y-47557142D01*
X48509523Y-47604761D01*
X48604761Y-47652380D01*
X48795238Y-47652380D01*
X48890476Y-47604761D01*
X48938095Y-47557142D01*
X48985714Y-47461904D01*
X48985714Y-47223809D01*
X48938095Y-47128571D01*
X48890476Y-47080952D01*
X48795238Y-47033333D01*
X48604761Y-47033333D01*
X48509523Y-47080952D01*
X48461904Y-47128571D01*
X48414285Y-47223809D01*
X42033333Y-54452380D02*
X41700000Y-53976190D01*
X41461904Y-54452380D02*
X41461904Y-53452380D01*
X41842857Y-53452380D01*
X41938095Y-53500000D01*
X41985714Y-53547619D01*
X42033333Y-53642857D01*
X42033333Y-53785714D01*
X41985714Y-53880952D01*
X41938095Y-53928571D01*
X41842857Y-53976190D01*
X41461904Y-53976190D01*
X42366666Y-53452380D02*
X43033333Y-53452380D01*
X42604761Y-54452380D01*
X67652380Y-71566666D02*
X67176190Y-71900000D01*
X67652380Y-72138095D02*
X66652380Y-72138095D01*
X66652380Y-71757142D01*
X66700000Y-71661904D01*
X66747619Y-71614285D01*
X66842857Y-71566666D01*
X66985714Y-71566666D01*
X67080952Y-71614285D01*
X67128571Y-71661904D01*
X67176190Y-71757142D01*
X67176190Y-72138095D01*
X67080952Y-70995238D02*
X67033333Y-71090476D01*
X66985714Y-71138095D01*
X66890476Y-71185714D01*
X66842857Y-71185714D01*
X66747619Y-71138095D01*
X66700000Y-71090476D01*
X66652380Y-70995238D01*
X66652380Y-70804761D01*
X66700000Y-70709523D01*
X66747619Y-70661904D01*
X66842857Y-70614285D01*
X66890476Y-70614285D01*
X66985714Y-70661904D01*
X67033333Y-70709523D01*
X67080952Y-70804761D01*
X67080952Y-70995238D01*
X67128571Y-71090476D01*
X67176190Y-71138095D01*
X67271428Y-71185714D01*
X67461904Y-71185714D01*
X67557142Y-71138095D01*
X67604761Y-71090476D01*
X67652380Y-70995238D01*
X67652380Y-70804761D01*
X67604761Y-70709523D01*
X67557142Y-70661904D01*
X67461904Y-70614285D01*
X67271428Y-70614285D01*
X67176190Y-70661904D01*
X67128571Y-70709523D01*
X67080952Y-70804761D01*
X55316380Y-40552666D02*
X54840190Y-40886000D01*
X55316380Y-41124095D02*
X54316380Y-41124095D01*
X54316380Y-40743142D01*
X54364000Y-40647904D01*
X54411619Y-40600285D01*
X54506857Y-40552666D01*
X54649714Y-40552666D01*
X54744952Y-40600285D01*
X54792571Y-40647904D01*
X54840190Y-40743142D01*
X54840190Y-41124095D01*
X55316380Y-40076476D02*
X55316380Y-39886000D01*
X55268761Y-39790761D01*
X55221142Y-39743142D01*
X55078285Y-39647904D01*
X54887809Y-39600285D01*
X54506857Y-39600285D01*
X54411619Y-39647904D01*
X54364000Y-39695523D01*
X54316380Y-39790761D01*
X54316380Y-39981238D01*
X54364000Y-40076476D01*
X54411619Y-40124095D01*
X54506857Y-40171714D01*
X54744952Y-40171714D01*
X54840190Y-40124095D01*
X54887809Y-40076476D01*
X54935428Y-39981238D01*
X54935428Y-39790761D01*
X54887809Y-39695523D01*
X54840190Y-39647904D01*
X54744952Y-39600285D01*
X53852380Y-40520857D02*
X53376190Y-40854190D01*
X53852380Y-41092285D02*
X52852380Y-41092285D01*
X52852380Y-40711333D01*
X52900000Y-40616095D01*
X52947619Y-40568476D01*
X53042857Y-40520857D01*
X53185714Y-40520857D01*
X53280952Y-40568476D01*
X53328571Y-40616095D01*
X53376190Y-40711333D01*
X53376190Y-41092285D01*
X53852380Y-39568476D02*
X53852380Y-40139904D01*
X53852380Y-39854190D02*
X52852380Y-39854190D01*
X52995238Y-39949428D01*
X53090476Y-40044666D01*
X53138095Y-40139904D01*
X52852380Y-38949428D02*
X52852380Y-38854190D01*
X52900000Y-38758952D01*
X52947619Y-38711333D01*
X53042857Y-38663714D01*
X53233333Y-38616095D01*
X53471428Y-38616095D01*
X53661904Y-38663714D01*
X53757142Y-38711333D01*
X53804761Y-38758952D01*
X53852380Y-38854190D01*
X53852380Y-38949428D01*
X53804761Y-39044666D01*
X53757142Y-39092285D01*
X53661904Y-39139904D01*
X53471428Y-39187523D01*
X53233333Y-39187523D01*
X53042857Y-39139904D01*
X52947619Y-39092285D01*
X52900000Y-39044666D01*
X52852380Y-38949428D01*
X41957142Y-59052380D02*
X41623809Y-58576190D01*
X41385714Y-59052380D02*
X41385714Y-58052380D01*
X41766666Y-58052380D01*
X41861904Y-58100000D01*
X41909523Y-58147619D01*
X41957142Y-58242857D01*
X41957142Y-58385714D01*
X41909523Y-58480952D01*
X41861904Y-58528571D01*
X41766666Y-58576190D01*
X41385714Y-58576190D01*
X42909523Y-59052380D02*
X42338095Y-59052380D01*
X42623809Y-59052380D02*
X42623809Y-58052380D01*
X42528571Y-58195238D01*
X42433333Y-58290476D01*
X42338095Y-58338095D01*
X43861904Y-59052380D02*
X43290476Y-59052380D01*
X43576190Y-59052380D02*
X43576190Y-58052380D01*
X43480952Y-58195238D01*
X43385714Y-58290476D01*
X43290476Y-58338095D01*
X45062142Y-60502380D02*
X44728809Y-60026190D01*
X44490714Y-60502380D02*
X44490714Y-59502380D01*
X44871666Y-59502380D01*
X44966904Y-59550000D01*
X45014523Y-59597619D01*
X45062142Y-59692857D01*
X45062142Y-59835714D01*
X45014523Y-59930952D01*
X44966904Y-59978571D01*
X44871666Y-60026190D01*
X44490714Y-60026190D01*
X46014523Y-60502380D02*
X45443095Y-60502380D01*
X45728809Y-60502380D02*
X45728809Y-59502380D01*
X45633571Y-59645238D01*
X45538333Y-59740476D01*
X45443095Y-59788095D01*
X46871666Y-59835714D02*
X46871666Y-60502380D01*
X46633571Y-59454761D02*
X46395476Y-60169047D01*
X47014523Y-60169047D01*
X77652380Y-36042857D02*
X77176190Y-36376190D01*
X77652380Y-36614285D02*
X76652380Y-36614285D01*
X76652380Y-36233333D01*
X76700000Y-36138095D01*
X76747619Y-36090476D01*
X76842857Y-36042857D01*
X76985714Y-36042857D01*
X77080952Y-36090476D01*
X77128571Y-36138095D01*
X77176190Y-36233333D01*
X77176190Y-36614285D01*
X77652380Y-35090476D02*
X77652380Y-35661904D01*
X77652380Y-35376190D02*
X76652380Y-35376190D01*
X76795238Y-35471428D01*
X76890476Y-35566666D01*
X76938095Y-35661904D01*
X76652380Y-34185714D02*
X76652380Y-34661904D01*
X77128571Y-34709523D01*
X77080952Y-34661904D01*
X77033333Y-34566666D01*
X77033333Y-34328571D01*
X77080952Y-34233333D01*
X77128571Y-34185714D01*
X77223809Y-34138095D01*
X77461904Y-34138095D01*
X77557142Y-34185714D01*
X77604761Y-34233333D01*
X77652380Y-34328571D01*
X77652380Y-34566666D01*
X77604761Y-34661904D01*
X77557142Y-34709523D01*
X72080380Y-72270857D02*
X71604190Y-72604190D01*
X72080380Y-72842285D02*
X71080380Y-72842285D01*
X71080380Y-72461333D01*
X71128000Y-72366095D01*
X71175619Y-72318476D01*
X71270857Y-72270857D01*
X71413714Y-72270857D01*
X71508952Y-72318476D01*
X71556571Y-72366095D01*
X71604190Y-72461333D01*
X71604190Y-72842285D01*
X72080380Y-71318476D02*
X72080380Y-71889904D01*
X72080380Y-71604190D02*
X71080380Y-71604190D01*
X71223238Y-71699428D01*
X71318476Y-71794666D01*
X71366095Y-71889904D01*
X71080380Y-70461333D02*
X71080380Y-70651809D01*
X71128000Y-70747047D01*
X71175619Y-70794666D01*
X71318476Y-70889904D01*
X71508952Y-70937523D01*
X71889904Y-70937523D01*
X71985142Y-70889904D01*
X72032761Y-70842285D01*
X72080380Y-70747047D01*
X72080380Y-70556571D01*
X72032761Y-70461333D01*
X71985142Y-70413714D01*
X71889904Y-70366095D01*
X71651809Y-70366095D01*
X71556571Y-70413714D01*
X71508952Y-70461333D01*
X71461333Y-70556571D01*
X71461333Y-70747047D01*
X71508952Y-70842285D01*
X71556571Y-70889904D01*
X71651809Y-70937523D01*
X70962780Y-91016057D02*
X70486590Y-91349390D01*
X70962780Y-91587485D02*
X69962780Y-91587485D01*
X69962780Y-91206533D01*
X70010400Y-91111295D01*
X70058019Y-91063676D01*
X70153257Y-91016057D01*
X70296114Y-91016057D01*
X70391352Y-91063676D01*
X70438971Y-91111295D01*
X70486590Y-91206533D01*
X70486590Y-91587485D01*
X70962780Y-90063676D02*
X70962780Y-90635104D01*
X70962780Y-90349390D02*
X69962780Y-90349390D01*
X70105638Y-90444628D01*
X70200876Y-90539866D01*
X70248495Y-90635104D01*
X69962780Y-89730342D02*
X69962780Y-89063676D01*
X70962780Y-89492247D01*
X66667142Y-86240880D02*
X66333809Y-85764690D01*
X66095714Y-86240880D02*
X66095714Y-85240880D01*
X66476666Y-85240880D01*
X66571904Y-85288500D01*
X66619523Y-85336119D01*
X66667142Y-85431357D01*
X66667142Y-85574214D01*
X66619523Y-85669452D01*
X66571904Y-85717071D01*
X66476666Y-85764690D01*
X66095714Y-85764690D01*
X67619523Y-86240880D02*
X67048095Y-86240880D01*
X67333809Y-86240880D02*
X67333809Y-85240880D01*
X67238571Y-85383738D01*
X67143333Y-85478976D01*
X67048095Y-85526595D01*
X68190952Y-85669452D02*
X68095714Y-85621833D01*
X68048095Y-85574214D01*
X68000476Y-85478976D01*
X68000476Y-85431357D01*
X68048095Y-85336119D01*
X68095714Y-85288500D01*
X68190952Y-85240880D01*
X68381428Y-85240880D01*
X68476666Y-85288500D01*
X68524285Y-85336119D01*
X68571904Y-85431357D01*
X68571904Y-85478976D01*
X68524285Y-85574214D01*
X68476666Y-85621833D01*
X68381428Y-85669452D01*
X68190952Y-85669452D01*
X68095714Y-85717071D01*
X68048095Y-85764690D01*
X68000476Y-85859928D01*
X68000476Y-86050404D01*
X68048095Y-86145642D01*
X68095714Y-86193261D01*
X68190952Y-86240880D01*
X68381428Y-86240880D01*
X68476666Y-86193261D01*
X68524285Y-86145642D01*
X68571904Y-86050404D01*
X68571904Y-85859928D01*
X68524285Y-85764690D01*
X68476666Y-85717071D01*
X68381428Y-85669452D01*
X73350380Y-72270857D02*
X72874190Y-72604190D01*
X73350380Y-72842285D02*
X72350380Y-72842285D01*
X72350380Y-72461333D01*
X72398000Y-72366095D01*
X72445619Y-72318476D01*
X72540857Y-72270857D01*
X72683714Y-72270857D01*
X72778952Y-72318476D01*
X72826571Y-72366095D01*
X72874190Y-72461333D01*
X72874190Y-72842285D01*
X73350380Y-71318476D02*
X73350380Y-71889904D01*
X73350380Y-71604190D02*
X72350380Y-71604190D01*
X72493238Y-71699428D01*
X72588476Y-71794666D01*
X72636095Y-71889904D01*
X73350380Y-70842285D02*
X73350380Y-70651809D01*
X73302761Y-70556571D01*
X73255142Y-70508952D01*
X73112285Y-70413714D01*
X72921809Y-70366095D01*
X72540857Y-70366095D01*
X72445619Y-70413714D01*
X72398000Y-70461333D01*
X72350380Y-70556571D01*
X72350380Y-70747047D01*
X72398000Y-70842285D01*
X72445619Y-70889904D01*
X72540857Y-70937523D01*
X72778952Y-70937523D01*
X72874190Y-70889904D01*
X72921809Y-70842285D01*
X72969428Y-70747047D01*
X72969428Y-70556571D01*
X72921809Y-70461333D01*
X72874190Y-70413714D01*
X72778952Y-70366095D01*
X72334380Y-91016057D02*
X71858190Y-91349390D01*
X72334380Y-91587485D02*
X71334380Y-91587485D01*
X71334380Y-91206533D01*
X71382000Y-91111295D01*
X71429619Y-91063676D01*
X71524857Y-91016057D01*
X71667714Y-91016057D01*
X71762952Y-91063676D01*
X71810571Y-91111295D01*
X71858190Y-91206533D01*
X71858190Y-91587485D01*
X71429619Y-90635104D02*
X71382000Y-90587485D01*
X71334380Y-90492247D01*
X71334380Y-90254152D01*
X71382000Y-90158914D01*
X71429619Y-90111295D01*
X71524857Y-90063676D01*
X71620095Y-90063676D01*
X71762952Y-90111295D01*
X72334380Y-90682723D01*
X72334380Y-90063676D01*
X71334380Y-89444628D02*
X71334380Y-89349390D01*
X71382000Y-89254152D01*
X71429619Y-89206533D01*
X71524857Y-89158914D01*
X71715333Y-89111295D01*
X71953428Y-89111295D01*
X72143904Y-89158914D01*
X72239142Y-89206533D01*
X72286761Y-89254152D01*
X72334380Y-89349390D01*
X72334380Y-89444628D01*
X72286761Y-89539866D01*
X72239142Y-89587485D01*
X72143904Y-89635104D01*
X71953428Y-89682723D01*
X71715333Y-89682723D01*
X71524857Y-89635104D01*
X71429619Y-89587485D01*
X71382000Y-89539866D01*
X71334380Y-89444628D01*
X66730642Y-83764380D02*
X66397309Y-83288190D01*
X66159214Y-83764380D02*
X66159214Y-82764380D01*
X66540166Y-82764380D01*
X66635404Y-82812000D01*
X66683023Y-82859619D01*
X66730642Y-82954857D01*
X66730642Y-83097714D01*
X66683023Y-83192952D01*
X66635404Y-83240571D01*
X66540166Y-83288190D01*
X66159214Y-83288190D01*
X67111595Y-82859619D02*
X67159214Y-82812000D01*
X67254452Y-82764380D01*
X67492547Y-82764380D01*
X67587785Y-82812000D01*
X67635404Y-82859619D01*
X67683023Y-82954857D01*
X67683023Y-83050095D01*
X67635404Y-83192952D01*
X67063976Y-83764380D01*
X67683023Y-83764380D01*
X68635404Y-83764380D02*
X68063976Y-83764380D01*
X68349690Y-83764380D02*
X68349690Y-82764380D01*
X68254452Y-82907238D01*
X68159214Y-83002476D01*
X68063976Y-83050095D01*
X49452380Y-79842857D02*
X48976190Y-80176190D01*
X49452380Y-80414285D02*
X48452380Y-80414285D01*
X48452380Y-80033333D01*
X48500000Y-79938095D01*
X48547619Y-79890476D01*
X48642857Y-79842857D01*
X48785714Y-79842857D01*
X48880952Y-79890476D01*
X48928571Y-79938095D01*
X48976190Y-80033333D01*
X48976190Y-80414285D01*
X48547619Y-79461904D02*
X48500000Y-79414285D01*
X48452380Y-79319047D01*
X48452380Y-79080952D01*
X48500000Y-78985714D01*
X48547619Y-78938095D01*
X48642857Y-78890476D01*
X48738095Y-78890476D01*
X48880952Y-78938095D01*
X49452380Y-79509523D01*
X49452380Y-78890476D01*
X48547619Y-78509523D02*
X48500000Y-78461904D01*
X48452380Y-78366666D01*
X48452380Y-78128571D01*
X48500000Y-78033333D01*
X48547619Y-77985714D01*
X48642857Y-77938095D01*
X48738095Y-77938095D01*
X48880952Y-77985714D01*
X49452380Y-78557142D01*
X49452380Y-77938095D01*
X53052380Y-79842857D02*
X52576190Y-80176190D01*
X53052380Y-80414285D02*
X52052380Y-80414285D01*
X52052380Y-80033333D01*
X52100000Y-79938095D01*
X52147619Y-79890476D01*
X52242857Y-79842857D01*
X52385714Y-79842857D01*
X52480952Y-79890476D01*
X52528571Y-79938095D01*
X52576190Y-80033333D01*
X52576190Y-80414285D01*
X52147619Y-79461904D02*
X52100000Y-79414285D01*
X52052380Y-79319047D01*
X52052380Y-79080952D01*
X52100000Y-78985714D01*
X52147619Y-78938095D01*
X52242857Y-78890476D01*
X52338095Y-78890476D01*
X52480952Y-78938095D01*
X53052380Y-79509523D01*
X53052380Y-78890476D01*
X52052380Y-78557142D02*
X52052380Y-77938095D01*
X52433333Y-78271428D01*
X52433333Y-78128571D01*
X52480952Y-78033333D01*
X52528571Y-77985714D01*
X52623809Y-77938095D01*
X52861904Y-77938095D01*
X52957142Y-77985714D01*
X53004761Y-78033333D01*
X53052380Y-78128571D01*
X53052380Y-78414285D01*
X53004761Y-78509523D01*
X52957142Y-78557142D01*
X60252380Y-39442857D02*
X59776190Y-39776190D01*
X60252380Y-40014285D02*
X59252380Y-40014285D01*
X59252380Y-39633333D01*
X59300000Y-39538095D01*
X59347619Y-39490476D01*
X59442857Y-39442857D01*
X59585714Y-39442857D01*
X59680952Y-39490476D01*
X59728571Y-39538095D01*
X59776190Y-39633333D01*
X59776190Y-40014285D01*
X59347619Y-39061904D02*
X59300000Y-39014285D01*
X59252380Y-38919047D01*
X59252380Y-38680952D01*
X59300000Y-38585714D01*
X59347619Y-38538095D01*
X59442857Y-38490476D01*
X59538095Y-38490476D01*
X59680952Y-38538095D01*
X60252380Y-39109523D01*
X60252380Y-38490476D01*
X59252380Y-37585714D02*
X59252380Y-38061904D01*
X59728571Y-38109523D01*
X59680952Y-38061904D01*
X59633333Y-37966666D01*
X59633333Y-37728571D01*
X59680952Y-37633333D01*
X59728571Y-37585714D01*
X59823809Y-37538095D01*
X60061904Y-37538095D01*
X60157142Y-37585714D01*
X60204761Y-37633333D01*
X60252380Y-37728571D01*
X60252380Y-37966666D01*
X60204761Y-38061904D01*
X60157142Y-38109523D01*
X63252380Y-39442857D02*
X62776190Y-39776190D01*
X63252380Y-40014285D02*
X62252380Y-40014285D01*
X62252380Y-39633333D01*
X62300000Y-39538095D01*
X62347619Y-39490476D01*
X62442857Y-39442857D01*
X62585714Y-39442857D01*
X62680952Y-39490476D01*
X62728571Y-39538095D01*
X62776190Y-39633333D01*
X62776190Y-40014285D01*
X62347619Y-39061904D02*
X62300000Y-39014285D01*
X62252380Y-38919047D01*
X62252380Y-38680952D01*
X62300000Y-38585714D01*
X62347619Y-38538095D01*
X62442857Y-38490476D01*
X62538095Y-38490476D01*
X62680952Y-38538095D01*
X63252380Y-39109523D01*
X63252380Y-38490476D01*
X62252380Y-37633333D02*
X62252380Y-37823809D01*
X62300000Y-37919047D01*
X62347619Y-37966666D01*
X62490476Y-38061904D01*
X62680952Y-38109523D01*
X63061904Y-38109523D01*
X63157142Y-38061904D01*
X63204761Y-38014285D01*
X63252380Y-37919047D01*
X63252380Y-37728571D01*
X63204761Y-37633333D01*
X63157142Y-37585714D01*
X63061904Y-37538095D01*
X62823809Y-37538095D01*
X62728571Y-37585714D01*
X62680952Y-37633333D01*
X62633333Y-37728571D01*
X62633333Y-37919047D01*
X62680952Y-38014285D01*
X62728571Y-38061904D01*
X62823809Y-38109523D01*
X61852380Y-39442857D02*
X61376190Y-39776190D01*
X61852380Y-40014285D02*
X60852380Y-40014285D01*
X60852380Y-39633333D01*
X60900000Y-39538095D01*
X60947619Y-39490476D01*
X61042857Y-39442857D01*
X61185714Y-39442857D01*
X61280952Y-39490476D01*
X61328571Y-39538095D01*
X61376190Y-39633333D01*
X61376190Y-40014285D01*
X60947619Y-39061904D02*
X60900000Y-39014285D01*
X60852380Y-38919047D01*
X60852380Y-38680952D01*
X60900000Y-38585714D01*
X60947619Y-38538095D01*
X61042857Y-38490476D01*
X61138095Y-38490476D01*
X61280952Y-38538095D01*
X61852380Y-39109523D01*
X61852380Y-38490476D01*
X61280952Y-37919047D02*
X61233333Y-38014285D01*
X61185714Y-38061904D01*
X61090476Y-38109523D01*
X61042857Y-38109523D01*
X60947619Y-38061904D01*
X60900000Y-38014285D01*
X60852380Y-37919047D01*
X60852380Y-37728571D01*
X60900000Y-37633333D01*
X60947619Y-37585714D01*
X61042857Y-37538095D01*
X61090476Y-37538095D01*
X61185714Y-37585714D01*
X61233333Y-37633333D01*
X61280952Y-37728571D01*
X61280952Y-37919047D01*
X61328571Y-38014285D01*
X61376190Y-38061904D01*
X61471428Y-38109523D01*
X61661904Y-38109523D01*
X61757142Y-38061904D01*
X61804761Y-38014285D01*
X61852380Y-37919047D01*
X61852380Y-37728571D01*
X61804761Y-37633333D01*
X61757142Y-37585714D01*
X61661904Y-37538095D01*
X61471428Y-37538095D01*
X61376190Y-37585714D01*
X61328571Y-37633333D01*
X61280952Y-37728571D01*
X64852380Y-39442857D02*
X64376190Y-39776190D01*
X64852380Y-40014285D02*
X63852380Y-40014285D01*
X63852380Y-39633333D01*
X63900000Y-39538095D01*
X63947619Y-39490476D01*
X64042857Y-39442857D01*
X64185714Y-39442857D01*
X64280952Y-39490476D01*
X64328571Y-39538095D01*
X64376190Y-39633333D01*
X64376190Y-40014285D01*
X63947619Y-39061904D02*
X63900000Y-39014285D01*
X63852380Y-38919047D01*
X63852380Y-38680952D01*
X63900000Y-38585714D01*
X63947619Y-38538095D01*
X64042857Y-38490476D01*
X64138095Y-38490476D01*
X64280952Y-38538095D01*
X64852380Y-39109523D01*
X64852380Y-38490476D01*
X64852380Y-38014285D02*
X64852380Y-37823809D01*
X64804761Y-37728571D01*
X64757142Y-37680952D01*
X64614285Y-37585714D01*
X64423809Y-37538095D01*
X64042857Y-37538095D01*
X63947619Y-37585714D01*
X63900000Y-37633333D01*
X63852380Y-37728571D01*
X63852380Y-37919047D01*
X63900000Y-38014285D01*
X63947619Y-38061904D01*
X64042857Y-38109523D01*
X64280952Y-38109523D01*
X64376190Y-38061904D01*
X64423809Y-38014285D01*
X64471428Y-37919047D01*
X64471428Y-37728571D01*
X64423809Y-37633333D01*
X64376190Y-37585714D01*
X64280952Y-37538095D01*
X66452380Y-39442857D02*
X65976190Y-39776190D01*
X66452380Y-40014285D02*
X65452380Y-40014285D01*
X65452380Y-39633333D01*
X65500000Y-39538095D01*
X65547619Y-39490476D01*
X65642857Y-39442857D01*
X65785714Y-39442857D01*
X65880952Y-39490476D01*
X65928571Y-39538095D01*
X65976190Y-39633333D01*
X65976190Y-40014285D01*
X65452380Y-39109523D02*
X65452380Y-38490476D01*
X65833333Y-38823809D01*
X65833333Y-38680952D01*
X65880952Y-38585714D01*
X65928571Y-38538095D01*
X66023809Y-38490476D01*
X66261904Y-38490476D01*
X66357142Y-38538095D01*
X66404761Y-38585714D01*
X66452380Y-38680952D01*
X66452380Y-38966666D01*
X66404761Y-39061904D01*
X66357142Y-39109523D01*
X65452380Y-37871428D02*
X65452380Y-37776190D01*
X65500000Y-37680952D01*
X65547619Y-37633333D01*
X65642857Y-37585714D01*
X65833333Y-37538095D01*
X66071428Y-37538095D01*
X66261904Y-37585714D01*
X66357142Y-37633333D01*
X66404761Y-37680952D01*
X66452380Y-37776190D01*
X66452380Y-37871428D01*
X66404761Y-37966666D01*
X66357142Y-38014285D01*
X66261904Y-38061904D01*
X66071428Y-38109523D01*
X65833333Y-38109523D01*
X65642857Y-38061904D01*
X65547619Y-38014285D01*
X65500000Y-37966666D01*
X65452380Y-37871428D01*
X82367380Y-78811357D02*
X81891190Y-79144690D01*
X82367380Y-79382785D02*
X81367380Y-79382785D01*
X81367380Y-79001833D01*
X81415000Y-78906595D01*
X81462619Y-78858976D01*
X81557857Y-78811357D01*
X81700714Y-78811357D01*
X81795952Y-78858976D01*
X81843571Y-78906595D01*
X81891190Y-79001833D01*
X81891190Y-79382785D01*
X81367380Y-78478023D02*
X81367380Y-77858976D01*
X81748333Y-78192309D01*
X81748333Y-78049452D01*
X81795952Y-77954214D01*
X81843571Y-77906595D01*
X81938809Y-77858976D01*
X82176904Y-77858976D01*
X82272142Y-77906595D01*
X82319761Y-77954214D01*
X82367380Y-78049452D01*
X82367380Y-78335166D01*
X82319761Y-78430404D01*
X82272142Y-78478023D01*
X82367380Y-76906595D02*
X82367380Y-77478023D01*
X82367380Y-77192309D02*
X81367380Y-77192309D01*
X81510238Y-77287547D01*
X81605476Y-77382785D01*
X81653095Y-77478023D01*
X75652380Y-36090476D02*
X75176190Y-36423809D01*
X75652380Y-36661904D02*
X74652380Y-36661904D01*
X74652380Y-36280952D01*
X74700000Y-36185714D01*
X74747619Y-36138095D01*
X74842857Y-36090476D01*
X74985714Y-36090476D01*
X75080952Y-36138095D01*
X75128571Y-36185714D01*
X75176190Y-36280952D01*
X75176190Y-36661904D01*
X75652380Y-35661904D02*
X74652380Y-35661904D01*
X75652380Y-35090476D01*
X74652380Y-35090476D01*
X75652380Y-34090476D02*
X75652380Y-34661904D01*
X75652380Y-34376190D02*
X74652380Y-34376190D01*
X74795238Y-34471428D01*
X74890476Y-34566666D01*
X74938095Y-34661904D01*
X84966666Y-40679761D02*
X85109523Y-40727380D01*
X85347619Y-40727380D01*
X85442857Y-40679761D01*
X85490476Y-40632142D01*
X85538095Y-40536904D01*
X85538095Y-40441666D01*
X85490476Y-40346428D01*
X85442857Y-40298809D01*
X85347619Y-40251190D01*
X85157142Y-40203571D01*
X85061904Y-40155952D01*
X85014285Y-40108333D01*
X84966666Y-40013095D01*
X84966666Y-39917857D01*
X85014285Y-39822619D01*
X85061904Y-39775000D01*
X85157142Y-39727380D01*
X85395238Y-39727380D01*
X85538095Y-39775000D01*
X85871428Y-39727380D02*
X86109523Y-40727380D01*
X86300000Y-40013095D01*
X86490476Y-40727380D01*
X86728571Y-39727380D01*
X87633333Y-40727380D02*
X87061904Y-40727380D01*
X87347619Y-40727380D02*
X87347619Y-39727380D01*
X87252380Y-39870238D01*
X87157142Y-39965476D01*
X87061904Y-40013095D01*
X77359095Y-67762428D02*
X78121000Y-67762428D01*
X77740047Y-68143380D02*
X77740047Y-67381476D01*
X79121000Y-68143380D02*
X78549571Y-68143380D01*
X78835285Y-68143380D02*
X78835285Y-67143380D01*
X78740047Y-67286238D01*
X78644809Y-67381476D01*
X78549571Y-67429095D01*
X79406714Y-67143380D02*
X79740047Y-68143380D01*
X80073380Y-67143380D01*
X80930523Y-68143380D02*
X80359095Y-68143380D01*
X80644809Y-68143380D02*
X80644809Y-67143380D01*
X80549571Y-67286238D01*
X80454333Y-67381476D01*
X80359095Y-67429095D01*
X84534595Y-89542928D02*
X85296500Y-89542928D01*
X84915547Y-89923880D02*
X84915547Y-89161976D01*
X85725071Y-89019119D02*
X85772690Y-88971500D01*
X85867928Y-88923880D01*
X86106023Y-88923880D01*
X86201261Y-88971500D01*
X86248880Y-89019119D01*
X86296500Y-89114357D01*
X86296500Y-89209595D01*
X86248880Y-89352452D01*
X85677452Y-89923880D01*
X86296500Y-89923880D01*
X86582214Y-88923880D02*
X86915547Y-89923880D01*
X87248880Y-88923880D01*
X88058404Y-88923880D02*
X87582214Y-88923880D01*
X87534595Y-89400071D01*
X87582214Y-89352452D01*
X87677452Y-89304833D01*
X87915547Y-89304833D01*
X88010785Y-89352452D01*
X88058404Y-89400071D01*
X88106023Y-89495309D01*
X88106023Y-89733404D01*
X88058404Y-89828642D01*
X88010785Y-89876261D01*
X87915547Y-89923880D01*
X87677452Y-89923880D01*
X87582214Y-89876261D01*
X87534595Y-89828642D01*
X66945095Y-77160428D02*
X67707000Y-77160428D01*
X67326047Y-77541380D02*
X67326047Y-76779476D01*
X68087952Y-76541380D02*
X68707000Y-76541380D01*
X68373666Y-76922333D01*
X68516523Y-76922333D01*
X68611761Y-76969952D01*
X68659380Y-77017571D01*
X68707000Y-77112809D01*
X68707000Y-77350904D01*
X68659380Y-77446142D01*
X68611761Y-77493761D01*
X68516523Y-77541380D01*
X68230809Y-77541380D01*
X68135571Y-77493761D01*
X68087952Y-77446142D01*
X68992714Y-76541380D02*
X69326047Y-77541380D01*
X69659380Y-76541380D01*
X69897476Y-76541380D02*
X70516523Y-76541380D01*
X70183190Y-76922333D01*
X70326047Y-76922333D01*
X70421285Y-76969952D01*
X70468904Y-77017571D01*
X70516523Y-77112809D01*
X70516523Y-77350904D01*
X70468904Y-77446142D01*
X70421285Y-77493761D01*
X70326047Y-77541380D01*
X70040333Y-77541380D01*
X69945095Y-77493761D01*
X69897476Y-77446142D01*
X51038095Y-55052380D02*
X51038095Y-55861904D01*
X51085714Y-55957142D01*
X51133333Y-56004761D01*
X51228571Y-56052380D01*
X51419047Y-56052380D01*
X51514285Y-56004761D01*
X51561904Y-55957142D01*
X51609523Y-55861904D01*
X51609523Y-55052380D01*
X52609523Y-56052380D02*
X52038095Y-56052380D01*
X52323809Y-56052380D02*
X52323809Y-55052380D01*
X52228571Y-55195238D01*
X52133333Y-55290476D01*
X52038095Y-55338095D01*
X67252380Y-41361904D02*
X68061904Y-41361904D01*
X68157142Y-41314285D01*
X68204761Y-41266666D01*
X68252380Y-41171428D01*
X68252380Y-40980952D01*
X68204761Y-40885714D01*
X68157142Y-40838095D01*
X68061904Y-40790476D01*
X67252380Y-40790476D01*
X67347619Y-40361904D02*
X67300000Y-40314285D01*
X67252380Y-40219047D01*
X67252380Y-39980952D01*
X67300000Y-39885714D01*
X67347619Y-39838095D01*
X67442857Y-39790476D01*
X67538095Y-39790476D01*
X67680952Y-39838095D01*
X68252380Y-40409523D01*
X68252380Y-39790476D01*
X61252380Y-74161904D02*
X62061904Y-74161904D01*
X62157142Y-74114285D01*
X62204761Y-74066666D01*
X62252380Y-73971428D01*
X62252380Y-73780952D01*
X62204761Y-73685714D01*
X62157142Y-73638095D01*
X62061904Y-73590476D01*
X61252380Y-73590476D01*
X61252380Y-73209523D02*
X61252380Y-72590476D01*
X61633333Y-72923809D01*
X61633333Y-72780952D01*
X61680952Y-72685714D01*
X61728571Y-72638095D01*
X61823809Y-72590476D01*
X62061904Y-72590476D01*
X62157142Y-72638095D01*
X62204761Y-72685714D01*
X62252380Y-72780952D01*
X62252380Y-73066666D01*
X62204761Y-73161904D01*
X62157142Y-73209523D01*
X46438095Y-49252380D02*
X46438095Y-50061904D01*
X46485714Y-50157142D01*
X46533333Y-50204761D01*
X46628571Y-50252380D01*
X46819047Y-50252380D01*
X46914285Y-50204761D01*
X46961904Y-50157142D01*
X47009523Y-50061904D01*
X47009523Y-49252380D01*
X47914285Y-49585714D02*
X47914285Y-50252380D01*
X47676190Y-49204761D02*
X47438095Y-49919047D01*
X48057142Y-49919047D01*
X65923809Y-60555190D02*
X65923809Y-61031380D01*
X65590476Y-60031380D02*
X65923809Y-60555190D01*
X66257142Y-60031380D01*
X67114285Y-61031380D02*
X66542857Y-61031380D01*
X66828571Y-61031380D02*
X66828571Y-60031380D01*
X66733333Y-60174238D01*
X66638095Y-60269476D01*
X66542857Y-60317095D01*
X66198809Y-80621190D02*
X66198809Y-81097380D01*
X65865476Y-80097380D02*
X66198809Y-80621190D01*
X66532142Y-80097380D01*
X66817857Y-80192619D02*
X66865476Y-80145000D01*
X66960714Y-80097380D01*
X67198809Y-80097380D01*
X67294047Y-80145000D01*
X67341666Y-80192619D01*
X67389285Y-80287857D01*
X67389285Y-80383095D01*
X67341666Y-80525952D01*
X66770238Y-81097380D01*
X67389285Y-81097380D01*
X58872380Y-47982095D02*
X57872380Y-47982095D01*
X57872380Y-47744000D01*
X57920000Y-47601142D01*
X58015238Y-47505904D01*
X58110476Y-47458285D01*
X58300952Y-47410666D01*
X58443809Y-47410666D01*
X58634285Y-47458285D01*
X58729523Y-47505904D01*
X58824761Y-47601142D01*
X58872380Y-47744000D01*
X58872380Y-47982095D01*
X57872380Y-47077333D02*
X57872380Y-46458285D01*
X58253333Y-46791619D01*
X58253333Y-46648761D01*
X58300952Y-46553523D01*
X58348571Y-46505904D01*
X58443809Y-46458285D01*
X58681904Y-46458285D01*
X58777142Y-46505904D01*
X58824761Y-46553523D01*
X58872380Y-46648761D01*
X58872380Y-46934476D01*
X58824761Y-47029714D01*
X58777142Y-47077333D01*
X58652380Y-71042857D02*
X58176190Y-71376190D01*
X58652380Y-71614285D02*
X57652380Y-71614285D01*
X57652380Y-71233333D01*
X57700000Y-71138095D01*
X57747619Y-71090476D01*
X57842857Y-71042857D01*
X57985714Y-71042857D01*
X58080952Y-71090476D01*
X58128571Y-71138095D01*
X58176190Y-71233333D01*
X58176190Y-71614285D01*
X57652380Y-70709523D02*
X57652380Y-70090476D01*
X58033333Y-70423809D01*
X58033333Y-70280952D01*
X58080952Y-70185714D01*
X58128571Y-70138095D01*
X58223809Y-70090476D01*
X58461904Y-70090476D01*
X58557142Y-70138095D01*
X58604761Y-70185714D01*
X58652380Y-70280952D01*
X58652380Y-70566666D01*
X58604761Y-70661904D01*
X58557142Y-70709523D01*
X57747619Y-69709523D02*
X57700000Y-69661904D01*
X57652380Y-69566666D01*
X57652380Y-69328571D01*
X57700000Y-69233333D01*
X57747619Y-69185714D01*
X57842857Y-69138095D01*
X57938095Y-69138095D01*
X58080952Y-69185714D01*
X58652380Y-69757142D01*
X58652380Y-69138095D01*
X57252380Y-71042857D02*
X56776190Y-71376190D01*
X57252380Y-71614285D02*
X56252380Y-71614285D01*
X56252380Y-71233333D01*
X56300000Y-71138095D01*
X56347619Y-71090476D01*
X56442857Y-71042857D01*
X56585714Y-71042857D01*
X56680952Y-71090476D01*
X56728571Y-71138095D01*
X56776190Y-71233333D01*
X56776190Y-71614285D01*
X56252380Y-70709523D02*
X56252380Y-70090476D01*
X56633333Y-70423809D01*
X56633333Y-70280952D01*
X56680952Y-70185714D01*
X56728571Y-70138095D01*
X56823809Y-70090476D01*
X57061904Y-70090476D01*
X57157142Y-70138095D01*
X57204761Y-70185714D01*
X57252380Y-70280952D01*
X57252380Y-70566666D01*
X57204761Y-70661904D01*
X57157142Y-70709523D01*
X56252380Y-69757142D02*
X56252380Y-69138095D01*
X56633333Y-69471428D01*
X56633333Y-69328571D01*
X56680952Y-69233333D01*
X56728571Y-69185714D01*
X56823809Y-69138095D01*
X57061904Y-69138095D01*
X57157142Y-69185714D01*
X57204761Y-69233333D01*
X57252380Y-69328571D01*
X57252380Y-69614285D01*
X57204761Y-69709523D01*
X57157142Y-69757142D01*
M02*
