M48
; DRILL file {KiCad (5.1.5)-3} date 2020/11/30 13:33:20
; FORMAT={-:-/ absolute / inch / decimal}
; #@! TF.CreationDate,2020-11-30T13:33:20+08:00
; #@! TF.GenerationSoftware,Kicad,Pcbnew,(5.1.5)-3
; #@! TF.FileFunction,Plated,1,2,PTH
FMAT,2
INCH
T1C0.0157
T2C0.0197
T3C0.0217
T4C0.0236
T5C0.0354
T6C0.0394
T7C0.0787
T8C0.1260
%
G90
G05
T1
X1.6531Y-1.9165
X1.6642Y-3.4035
X1.7037Y-2.8524
X1.7142Y-2.4217
X1.7449Y-2.6878
X1.7514Y-2.7505
X1.752Y-2.4992
X1.7728Y-2.7846
X1.7734Y-2.8264
X1.8102Y-2.7142
X1.963Y-2.0872
X1.9697Y-2.9531
X1.9965Y-2.8795
X1.998Y-1.8697
X2.0022Y-2.4955
X2.0043Y-2.3537
X2.0751Y-2.7862
X2.0752Y-2.8512
X2.0787Y-3.402
X2.1029Y-2.7584
X2.1031Y-2.0441
X2.1298Y-2.7315
X2.1335Y-3.2626
X2.1701Y-2.8358
X2.1752Y-3.0161
X2.2Y-2.35
X2.2039Y-2.5461
X2.2209Y-1.8425
X2.2209Y-1.9043
X2.2315Y-2.9528
X2.25Y-2.35
X2.2539Y-2.5461
X2.3Y-2.35
X2.3039Y-2.5461
X2.3055Y-1.9638
X2.3083Y-2.7331
X2.3159Y-2.8004
X2.3169Y-3.2051
X2.3346Y-2.1772
X2.35Y-2.35
X2.3539Y-2.5461
X2.3744Y-2.1697
X2.3787Y-1.9598
X2.3969Y-2.7231
X2.4055Y-3.4031
X2.4184Y-2.7923
X2.439Y-1.9287
X2.448Y-1.4575
X2.4689Y-2.1012
X2.4772Y-2.6988
X2.4988Y-1.9594
X2.5575Y-3.3547
X2.5803Y-3.4031
X2.5831Y-1.9642
X2.6016Y-1.2475
X2.6016Y-1.31
X2.6018Y-1.9287
X2.6125Y-2.2003
X2.65Y-2.55
X2.6614Y-2.8988
X2.6618Y-1.4602
X2.6632Y-2.1327
X2.6925Y-1.6142
X2.7079Y-1.4602
X2.7169Y-2.6807
X2.7421Y-2.133
X2.7429Y-1.6138
X2.748Y-3.1299
X2.748Y-3.4252
X2.7559Y-2.7791
X2.7677Y-2.2815
X2.7771Y-2.4213
X2.7925Y-2.015
X2.7949Y-1.4598
X2.8Y-3.425
X2.8374Y-1.2728
X2.85Y-3.425
X2.8679Y-2.2004
X2.874Y-2.806
X2.874Y-2.846
X2.874Y-2.885
X2.874Y-2.926
X2.874Y-2.9724
X2.8803Y-1.4598
X2.9126Y-2.1697
X2.9256Y-1.4591
X2.93Y-3.31
X2.93Y-3.35
X2.9315Y-3.2252
X2.9685Y-1.4594
X2.9783Y-3.2252
X2.98Y-3.31
X2.98Y-3.35
X2.9846Y-2.5106
X3.0006Y-3.04
X3.0261Y-1.9911
X3.0275Y-1.4375
X3.0275Y-1.4875
X3.0275Y-1.5375
X3.0275Y-1.5875
X3.0275Y-1.6375
X3.0275Y-1.6875
X3.0275Y-1.7375
X3.0275Y-1.7875
X3.0275Y-1.8375
X3.0275Y-1.8875
X3.0275Y-1.9375
X3.0472Y-2.374
X3.1063Y-3.2756
X3.22Y-2.9417
X3.2201Y-2.9783
X3.2205Y-2.9051
X3.2205Y-3.015
X3.2252Y-3.235
X3.2275Y-1.4375
X3.2275Y-1.4875
X3.2275Y-1.5375
X3.2275Y-1.5875
X3.2275Y-1.6375
X3.2275Y-1.6875
X3.2275Y-1.7375
X3.2275Y-1.7875
X3.2275Y-1.8375
X3.2275Y-1.8875
X3.2275Y-1.9375
X3.2402Y-2.7835
X3.2685Y-2.8783
X3.3004Y-1.7787
X3.3004Y-1.863
X3.3268Y-3.5315
X3.3268Y-3.5748
X3.3268Y-3.6181
X3.3701Y-3.5748
T2
X1.7055Y-1.0
X1.7332Y-0.9332
X1.7332Y-1.0668
X1.8Y-0.9055
X1.8Y-1.0945
X1.8668Y-0.9332
X1.8668Y-1.0668
X1.8945Y-1.0
X3.211Y-1.0
X3.2387Y-0.9332
X3.2387Y-1.0668
X3.3055Y-0.9055
X3.3055Y-1.0945
X3.3723Y-0.9332
X3.3723Y-1.0668
X3.4Y-1.0
T4
X2.7512Y-1.004
X2.948Y-1.004
T5
X2.1555Y-1.2882
X2.2539Y-1.2882
X2.3327Y-1.2882
X2.4311Y-1.2882
T6
X1.7126Y-1.2531
X1.7126Y-1.3516
X1.8Y-3.7
X1.8Y-3.8
X1.9Y-3.7
X1.9Y-3.8
X2.0Y-3.7
X2.0Y-3.8
X2.1Y-3.7
X2.1Y-3.8
X2.2Y-3.7
X2.2Y-3.8
X2.3Y-3.7
X2.3Y-3.8
X2.4Y-3.7
X2.4Y-3.8
X2.5Y-3.7
X2.5Y-3.8
X2.6Y-3.7
X2.6Y-3.8
X2.7Y-3.7
X2.7Y-3.8
X2.8Y-3.7
X2.8Y-3.8
X2.9Y-3.7
X2.9Y-3.8
X3.0Y-3.7
X3.0Y-3.8
X3.1Y-3.7
X3.1Y-3.8
X3.2Y-3.7
X3.2Y-3.8
X3.3Y-3.7
X3.3Y-3.8
X1.7126Y-1.587
X1.7126Y-1.6854
X3.3327Y-2.6917
X3.3327Y-2.7917
X3.3327Y-2.8917
X3.3327Y-2.9917
X3.3327Y-3.0917
X3.3327Y-3.1917
X3.3327Y-3.2917
X3.3327Y-3.3917
X3.378Y-2.374
X3.378Y-2.4724
X3.3209Y-1.9685
X3.3209Y-2.0685
X3.3209Y-2.1685
T7
X2.2843Y-2.448
X2.7677Y-1.8173
T8
X1.8Y-1.0
X3.3055Y-1.0
T3
G00X2.697Y-0.9085
M15
G01X2.697Y-0.8829
M16
G05
G00X3.0022Y-0.9085
M15
G01X3.0022Y-0.8829
M16
G05
T6
G00X2.0374Y-1.172
M15
G01X2.0374Y-1.2114
M16
G05
G00X2.5492Y-1.172
M15
G01X2.5492Y-1.2114
M16
G05
T0
M30
