G04 #@! TF.GenerationSoftware,KiCad,Pcbnew,(5.1.4)-1*
G04 #@! TF.CreationDate,2019-12-28T21:28:00+08:00*
G04 #@! TF.ProjectId,F1C100s-i80,46314331-3030-4732-9d69-38302e6b6963,rev?*
G04 #@! TF.SameCoordinates,Original*
G04 #@! TF.FileFunction,Legend,Bot*
G04 #@! TF.FilePolarity,Positive*
%FSLAX46Y46*%
G04 Gerber Fmt 4.6, Leading zero omitted, Abs format (unit mm)*
G04 Created by KiCad (PCBNEW (5.1.4)-1) date 2019-12-28 21:28:00*
%MOMM*%
%LPD*%
G04 APERTURE LIST*
%ADD10C,0.150000*%
%ADD11C,0.120000*%
G04 APERTURE END LIST*
D10*
X79533333Y-29352380D02*
X79533333Y-30066666D01*
X79580952Y-30209523D01*
X79676190Y-30304761D01*
X79819047Y-30352380D01*
X79914285Y-30352380D01*
X78580952Y-30352380D02*
X79057142Y-30352380D01*
X79057142Y-29352380D01*
X77676190Y-30257142D02*
X77723809Y-30304761D01*
X77866666Y-30352380D01*
X77961904Y-30352380D01*
X78104761Y-30304761D01*
X78200000Y-30209523D01*
X78247619Y-30114285D01*
X78295238Y-29923809D01*
X78295238Y-29780952D01*
X78247619Y-29590476D01*
X78200000Y-29495238D01*
X78104761Y-29400000D01*
X77961904Y-29352380D01*
X77866666Y-29352380D01*
X77723809Y-29400000D01*
X77676190Y-29447619D01*
X76961904Y-29352380D02*
X76961904Y-30066666D01*
X77009523Y-30209523D01*
X77104761Y-30304761D01*
X77247619Y-30352380D01*
X77342857Y-30352380D01*
X76009523Y-30352380D02*
X76485714Y-30352380D01*
X76485714Y-29352380D01*
X75104761Y-30257142D02*
X75152380Y-30304761D01*
X75295238Y-30352380D01*
X75390476Y-30352380D01*
X75533333Y-30304761D01*
X75628571Y-30209523D01*
X75676190Y-30114285D01*
X75723809Y-29923809D01*
X75723809Y-29780952D01*
X75676190Y-29590476D01*
X75628571Y-29495238D01*
X75533333Y-29400000D01*
X75390476Y-29352380D01*
X75295238Y-29352380D01*
X75152380Y-29400000D01*
X75104761Y-29447619D01*
X74390476Y-29352380D02*
X74390476Y-30066666D01*
X74438095Y-30209523D01*
X74533333Y-30304761D01*
X74676190Y-30352380D01*
X74771428Y-30352380D01*
X73438095Y-30352380D02*
X73914285Y-30352380D01*
X73914285Y-29352380D01*
X72533333Y-30257142D02*
X72580952Y-30304761D01*
X72723809Y-30352380D01*
X72819047Y-30352380D01*
X72961904Y-30304761D01*
X73057142Y-30209523D01*
X73104761Y-30114285D01*
X73152380Y-29923809D01*
X73152380Y-29780952D01*
X73104761Y-29590476D01*
X73057142Y-29495238D01*
X72961904Y-29400000D01*
X72819047Y-29352380D01*
X72723809Y-29352380D01*
X72580952Y-29400000D01*
X72533333Y-29447619D01*
X81542842Y-54580000D02*
X81632127Y-54532380D01*
X81774985Y-54532380D01*
X81923794Y-54580000D01*
X82030937Y-54675238D01*
X82090461Y-54770476D01*
X82161889Y-54960952D01*
X82179747Y-55103809D01*
X82155937Y-55294285D01*
X82120223Y-55389523D01*
X82036889Y-55484761D01*
X81899985Y-55532380D01*
X81804747Y-55532380D01*
X81655937Y-55484761D01*
X81602366Y-55437142D01*
X81560699Y-55103809D01*
X81751175Y-55103809D01*
X81185699Y-55532380D02*
X81060699Y-54532380D01*
X80614270Y-55532380D01*
X80489270Y-54532380D01*
X80138080Y-55532380D02*
X80013080Y-54532380D01*
X79774985Y-54532380D01*
X79638080Y-54580000D01*
X79554747Y-54675238D01*
X79519032Y-54770476D01*
X79495223Y-54960952D01*
X79513080Y-55103809D01*
X79584508Y-55294285D01*
X79644032Y-55389523D01*
X79751175Y-55484761D01*
X79899985Y-55532380D01*
X80138080Y-55532380D01*
X82136889Y-51992380D02*
X81565461Y-51992380D01*
X81976175Y-52992380D02*
X81851175Y-51992380D01*
X81327366Y-51992380D02*
X80785699Y-52992380D01*
X80660699Y-51992380D02*
X81452366Y-52992380D01*
X81666651Y-50452380D02*
X81940461Y-49976190D01*
X82238080Y-50452380D02*
X82113080Y-49452380D01*
X81732127Y-49452380D01*
X81642842Y-49500000D01*
X81601175Y-49547619D01*
X81565461Y-49642857D01*
X81583318Y-49785714D01*
X81642842Y-49880952D01*
X81696413Y-49928571D01*
X81797604Y-49976190D01*
X82178556Y-49976190D01*
X81208318Y-49452380D02*
X80666651Y-50452380D01*
X80541651Y-49452380D02*
X81333318Y-50452380D01*
X82519032Y-86592380D02*
X82394032Y-85592380D01*
X81947604Y-86592380D02*
X82304747Y-86020952D01*
X81822604Y-85592380D02*
X82465461Y-86163809D01*
X81453556Y-86068571D02*
X81120223Y-86068571D01*
X81042842Y-86592380D02*
X81519032Y-86592380D01*
X81394032Y-85592380D01*
X80917842Y-85592380D01*
X80364270Y-86116190D02*
X80423794Y-86592380D01*
X80632127Y-85592380D02*
X80364270Y-86116190D01*
X79965461Y-85592380D01*
X79203556Y-85592380D02*
X79394032Y-85592380D01*
X79495223Y-85640000D01*
X79548794Y-85687619D01*
X79661889Y-85830476D01*
X79733318Y-86020952D01*
X79780937Y-86401904D01*
X79745223Y-86497142D01*
X79703556Y-86544761D01*
X79614270Y-86592380D01*
X79423794Y-86592380D01*
X79322604Y-86544761D01*
X79269032Y-86497142D01*
X79209508Y-86401904D01*
X79179747Y-86163809D01*
X79215461Y-86068571D01*
X79257127Y-86020952D01*
X79346413Y-85973333D01*
X79536889Y-85973333D01*
X79638080Y-86020952D01*
X79691651Y-86068571D01*
X79751175Y-86163809D01*
X82519032Y-84052380D02*
X82394032Y-83052380D01*
X81947604Y-84052380D02*
X82304747Y-83480952D01*
X81822604Y-83052380D02*
X82465461Y-83623809D01*
X81453556Y-83528571D02*
X81120223Y-83528571D01*
X81042842Y-84052380D02*
X81519032Y-84052380D01*
X81394032Y-83052380D01*
X80917842Y-83052380D01*
X80364270Y-83576190D02*
X80423794Y-84052380D01*
X80632127Y-83052380D02*
X80364270Y-83576190D01*
X79965461Y-83052380D01*
X79155937Y-83052380D02*
X79632127Y-83052380D01*
X79739270Y-83528571D01*
X79685699Y-83480952D01*
X79584508Y-83433333D01*
X79346413Y-83433333D01*
X79257127Y-83480952D01*
X79215461Y-83528571D01*
X79179747Y-83623809D01*
X79209508Y-83861904D01*
X79269032Y-83957142D01*
X79322604Y-84004761D01*
X79423794Y-84052380D01*
X79661889Y-84052380D01*
X79751175Y-84004761D01*
X79792842Y-83957142D01*
X82519032Y-81512380D02*
X82394032Y-80512380D01*
X81947604Y-81512380D02*
X82304747Y-80940952D01*
X81822604Y-80512380D02*
X82465461Y-81083809D01*
X81453556Y-80988571D02*
X81120223Y-80988571D01*
X81042842Y-81512380D02*
X81519032Y-81512380D01*
X81394032Y-80512380D01*
X80917842Y-80512380D01*
X80364270Y-81036190D02*
X80423794Y-81512380D01*
X80632127Y-80512380D02*
X80364270Y-81036190D01*
X79965461Y-80512380D01*
X79245223Y-80845714D02*
X79328556Y-81512380D01*
X79435699Y-80464761D02*
X79763080Y-81179047D01*
X79144032Y-81179047D01*
X82519032Y-78972380D02*
X82394032Y-77972380D01*
X81947604Y-78972380D02*
X82304747Y-78400952D01*
X81822604Y-77972380D02*
X82465461Y-78543809D01*
X81453556Y-78448571D02*
X81120223Y-78448571D01*
X81042842Y-78972380D02*
X81519032Y-78972380D01*
X81394032Y-77972380D01*
X80917842Y-77972380D01*
X80364270Y-78496190D02*
X80423794Y-78972380D01*
X80632127Y-77972380D02*
X80364270Y-78496190D01*
X79965461Y-77972380D01*
X79727366Y-77972380D02*
X79108318Y-77972380D01*
X79489270Y-78353333D01*
X79346413Y-78353333D01*
X79257127Y-78400952D01*
X79215461Y-78448571D01*
X79179747Y-78543809D01*
X79209508Y-78781904D01*
X79269032Y-78877142D01*
X79322604Y-78924761D01*
X79423794Y-78972380D01*
X79709508Y-78972380D01*
X79798794Y-78924761D01*
X79840461Y-78877142D01*
X82519032Y-76432380D02*
X82394032Y-75432380D01*
X81947604Y-76432380D02*
X82304747Y-75860952D01*
X81822604Y-75432380D02*
X82465461Y-76003809D01*
X81453556Y-75908571D02*
X81120223Y-75908571D01*
X81042842Y-76432380D02*
X81519032Y-76432380D01*
X81394032Y-75432380D01*
X80917842Y-75432380D01*
X80364270Y-75956190D02*
X80423794Y-76432380D01*
X80632127Y-75432380D02*
X80364270Y-75956190D01*
X79965461Y-75432380D01*
X79691651Y-75527619D02*
X79638080Y-75480000D01*
X79536889Y-75432380D01*
X79298794Y-75432380D01*
X79209508Y-75480000D01*
X79167842Y-75527619D01*
X79132127Y-75622857D01*
X79144032Y-75718095D01*
X79209508Y-75860952D01*
X79852366Y-76432380D01*
X79233318Y-76432380D01*
X82519032Y-73892380D02*
X82394032Y-72892380D01*
X81947604Y-73892380D02*
X82304747Y-73320952D01*
X81822604Y-72892380D02*
X82465461Y-73463809D01*
X81453556Y-73368571D02*
X81120223Y-73368571D01*
X81042842Y-73892380D02*
X81519032Y-73892380D01*
X81394032Y-72892380D01*
X80917842Y-72892380D01*
X80364270Y-73416190D02*
X80423794Y-73892380D01*
X80632127Y-72892380D02*
X80364270Y-73416190D01*
X79965461Y-72892380D01*
X79233318Y-73892380D02*
X79804747Y-73892380D01*
X79519032Y-73892380D02*
X79394032Y-72892380D01*
X79507127Y-73035238D01*
X79614270Y-73130476D01*
X79715461Y-73178095D01*
X82519032Y-71352380D02*
X82394032Y-70352380D01*
X81947604Y-71352380D02*
X82304747Y-70780952D01*
X81822604Y-70352380D02*
X82465461Y-70923809D01*
X81453556Y-70828571D02*
X81120223Y-70828571D01*
X81042842Y-71352380D02*
X81519032Y-71352380D01*
X81394032Y-70352380D01*
X80917842Y-70352380D01*
X80364270Y-70876190D02*
X80423794Y-71352380D01*
X80632127Y-70352380D02*
X80364270Y-70876190D01*
X79965461Y-70352380D01*
X79441651Y-70352380D02*
X79346413Y-70352380D01*
X79257127Y-70400000D01*
X79215461Y-70447619D01*
X79179747Y-70542857D01*
X79155937Y-70733333D01*
X79185699Y-70971428D01*
X79257127Y-71161904D01*
X79316651Y-71257142D01*
X79370223Y-71304761D01*
X79471413Y-71352380D01*
X79566651Y-71352380D01*
X79655937Y-71304761D01*
X79697604Y-71257142D01*
X79733318Y-71161904D01*
X79757127Y-70971428D01*
X79727366Y-70733333D01*
X79655937Y-70542857D01*
X79596413Y-70447619D01*
X79542842Y-70400000D01*
X79441651Y-70352380D01*
X81842842Y-67900000D02*
X81932127Y-67852380D01*
X82074985Y-67852380D01*
X82223794Y-67900000D01*
X82330937Y-67995238D01*
X82390461Y-68090476D01*
X82461889Y-68280952D01*
X82479747Y-68423809D01*
X82455937Y-68614285D01*
X82420223Y-68709523D01*
X82336889Y-68804761D01*
X82199985Y-68852380D01*
X82104747Y-68852380D01*
X81955937Y-68804761D01*
X81902366Y-68757142D01*
X81860699Y-68423809D01*
X82051175Y-68423809D01*
X81485699Y-68852380D02*
X81360699Y-67852380D01*
X80914270Y-68852380D01*
X80789270Y-67852380D01*
X80438080Y-68852380D02*
X80313080Y-67852380D01*
X80074985Y-67852380D01*
X79938080Y-67900000D01*
X79854747Y-67995238D01*
X79819032Y-68090476D01*
X79795223Y-68280952D01*
X79813080Y-68423809D01*
X79884508Y-68614285D01*
X79944032Y-68709523D01*
X80051175Y-68804761D01*
X80199985Y-68852380D01*
X80438080Y-68852380D01*
D11*
X41455840Y-48433385D02*
G75*
G03X41840000Y-49348000I984160J-124615D01*
G01*
X41455840Y-59262615D02*
G75*
G02X41840000Y-58348000I984160J124615D01*
G01*
X41851329Y-49357339D02*
G75*
G02X41840000Y-58348000I-3711329J-4490661D01*
G01*
X42990000Y-47098000D02*
G75*
G03X41440000Y-48548000I-50000J-1500000D01*
G01*
X42990000Y-60598000D02*
G75*
G02X41440000Y-59148000I-50000J1500000D01*
G01*
X45040000Y-47098000D02*
X42940000Y-47098000D01*
X45040000Y-60598000D02*
X42940000Y-60598000D01*
X49040000Y-60598000D02*
X50490000Y-60598000D01*
X50490000Y-60598000D02*
X53090000Y-57998000D01*
X53090000Y-57998000D02*
X53890000Y-57998000D01*
X53890000Y-57998000D02*
X53890000Y-49698000D01*
X53890000Y-49698000D02*
X53090000Y-49698000D01*
X53090000Y-49698000D02*
X50490000Y-47098000D01*
X50490000Y-47098000D02*
X49040000Y-47098000D01*
X76625000Y-20925000D02*
X73875000Y-21625000D01*
X65725000Y-21625000D02*
X73875000Y-21625000D01*
X76625000Y-20925000D02*
X80425000Y-20925000D01*
X80425000Y-34425000D02*
X80425000Y-20925000D01*
X65725000Y-34925000D02*
X80265000Y-34925000D01*
X65725000Y-24925000D02*
X65725000Y-34925000D01*
X65725000Y-24925000D02*
X65725000Y-21625000D01*
D10*
X55111428Y-54633714D02*
X55063809Y-54490857D01*
X55016190Y-54443238D01*
X54920952Y-54395619D01*
X54778095Y-54395619D01*
X54682857Y-54443238D01*
X54635238Y-54490857D01*
X54587619Y-54586095D01*
X54587619Y-54967047D01*
X55587619Y-54967047D01*
X55587619Y-54633714D01*
X55540000Y-54538476D01*
X55492380Y-54490857D01*
X55397142Y-54443238D01*
X55301904Y-54443238D01*
X55206666Y-54490857D01*
X55159047Y-54538476D01*
X55111428Y-54633714D01*
X55111428Y-54967047D01*
X55587619Y-54109904D02*
X55587619Y-53538476D01*
X54587619Y-53824190D02*
X55587619Y-53824190D01*
X54587619Y-52681333D02*
X54587619Y-53252761D01*
X54587619Y-52967047D02*
X55587619Y-52967047D01*
X55444761Y-53062285D01*
X55349523Y-53157523D01*
X55301904Y-53252761D01*
X79733333Y-21352380D02*
X79733333Y-22066666D01*
X79780952Y-22209523D01*
X79876190Y-22304761D01*
X80019047Y-22352380D01*
X80114285Y-22352380D01*
X79114285Y-21780952D02*
X79209523Y-21733333D01*
X79257142Y-21685714D01*
X79304761Y-21590476D01*
X79304761Y-21542857D01*
X79257142Y-21447619D01*
X79209523Y-21400000D01*
X79114285Y-21352380D01*
X78923809Y-21352380D01*
X78828571Y-21400000D01*
X78780952Y-21447619D01*
X78733333Y-21542857D01*
X78733333Y-21590476D01*
X78780952Y-21685714D01*
X78828571Y-21733333D01*
X78923809Y-21780952D01*
X79114285Y-21780952D01*
X79209523Y-21828571D01*
X79257142Y-21876190D01*
X79304761Y-21971428D01*
X79304761Y-22161904D01*
X79257142Y-22257142D01*
X79209523Y-22304761D01*
X79114285Y-22352380D01*
X78923809Y-22352380D01*
X78828571Y-22304761D01*
X78780952Y-22257142D01*
X78733333Y-22161904D01*
X78733333Y-21971428D01*
X78780952Y-21876190D01*
X78828571Y-21828571D01*
X78923809Y-21780952D01*
M02*
