G04 #@! TF.GenerationSoftware,KiCad,Pcbnew,(5.1.5)-3*
G04 #@! TF.CreationDate,2020-11-30T13:33:30+08:00*
G04 #@! TF.ProjectId,F1C100s-i80,46314331-3030-4732-9d69-38302e6b6963,rev?*
G04 #@! TF.SameCoordinates,Original*
G04 #@! TF.FileFunction,Soldermask,Top*
G04 #@! TF.FilePolarity,Negative*
%FSLAX46Y46*%
G04 Gerber Fmt 4.6, Leading zero omitted, Abs format (unit mm)*
G04 Created by KiCad (PCBNEW (5.1.5)-3) date 2020-11-30 13:33:30*
%MOMM*%
%LPD*%
G04 APERTURE LIST*
%ADD10C,0.100000*%
G04 APERTURE END LIST*
D10*
G36*
X76313512Y-95623927D02*
G01*
X76462812Y-95653624D01*
X76626784Y-95721544D01*
X76774354Y-95820147D01*
X76899853Y-95945646D01*
X76998456Y-96093216D01*
X77066376Y-96257188D01*
X77101000Y-96431259D01*
X77101000Y-96608741D01*
X77066376Y-96782812D01*
X76998456Y-96946784D01*
X76899853Y-97094354D01*
X76774354Y-97219853D01*
X76626784Y-97318456D01*
X76462812Y-97386376D01*
X76313512Y-97416073D01*
X76288742Y-97421000D01*
X76111258Y-97421000D01*
X76086488Y-97416073D01*
X75937188Y-97386376D01*
X75773216Y-97318456D01*
X75625646Y-97219853D01*
X75500147Y-97094354D01*
X75401544Y-96946784D01*
X75333624Y-96782812D01*
X75299000Y-96608741D01*
X75299000Y-96431259D01*
X75333624Y-96257188D01*
X75401544Y-96093216D01*
X75500147Y-95945646D01*
X75625646Y-95820147D01*
X75773216Y-95721544D01*
X75937188Y-95653624D01*
X76086488Y-95623927D01*
X76111258Y-95619000D01*
X76288742Y-95619000D01*
X76313512Y-95623927D01*
G37*
G36*
X61073512Y-95623927D02*
G01*
X61222812Y-95653624D01*
X61386784Y-95721544D01*
X61534354Y-95820147D01*
X61659853Y-95945646D01*
X61758456Y-96093216D01*
X61826376Y-96257188D01*
X61861000Y-96431259D01*
X61861000Y-96608741D01*
X61826376Y-96782812D01*
X61758456Y-96946784D01*
X61659853Y-97094354D01*
X61534354Y-97219853D01*
X61386784Y-97318456D01*
X61222812Y-97386376D01*
X61073512Y-97416073D01*
X61048742Y-97421000D01*
X60871258Y-97421000D01*
X60846488Y-97416073D01*
X60697188Y-97386376D01*
X60533216Y-97318456D01*
X60385646Y-97219853D01*
X60260147Y-97094354D01*
X60161544Y-96946784D01*
X60093624Y-96782812D01*
X60059000Y-96608741D01*
X60059000Y-96431259D01*
X60093624Y-96257188D01*
X60161544Y-96093216D01*
X60260147Y-95945646D01*
X60385646Y-95820147D01*
X60533216Y-95721544D01*
X60697188Y-95653624D01*
X60846488Y-95623927D01*
X60871258Y-95619000D01*
X61048742Y-95619000D01*
X61073512Y-95623927D01*
G37*
G36*
X73773512Y-95623927D02*
G01*
X73922812Y-95653624D01*
X74086784Y-95721544D01*
X74234354Y-95820147D01*
X74359853Y-95945646D01*
X74458456Y-96093216D01*
X74526376Y-96257188D01*
X74561000Y-96431259D01*
X74561000Y-96608741D01*
X74526376Y-96782812D01*
X74458456Y-96946784D01*
X74359853Y-97094354D01*
X74234354Y-97219853D01*
X74086784Y-97318456D01*
X73922812Y-97386376D01*
X73773512Y-97416073D01*
X73748742Y-97421000D01*
X73571258Y-97421000D01*
X73546488Y-97416073D01*
X73397188Y-97386376D01*
X73233216Y-97318456D01*
X73085646Y-97219853D01*
X72960147Y-97094354D01*
X72861544Y-96946784D01*
X72793624Y-96782812D01*
X72759000Y-96608741D01*
X72759000Y-96431259D01*
X72793624Y-96257188D01*
X72861544Y-96093216D01*
X72960147Y-95945646D01*
X73085646Y-95820147D01*
X73233216Y-95721544D01*
X73397188Y-95653624D01*
X73546488Y-95623927D01*
X73571258Y-95619000D01*
X73748742Y-95619000D01*
X73773512Y-95623927D01*
G37*
G36*
X45833512Y-95623927D02*
G01*
X45982812Y-95653624D01*
X46146784Y-95721544D01*
X46294354Y-95820147D01*
X46419853Y-95945646D01*
X46518456Y-96093216D01*
X46586376Y-96257188D01*
X46621000Y-96431259D01*
X46621000Y-96608741D01*
X46586376Y-96782812D01*
X46518456Y-96946784D01*
X46419853Y-97094354D01*
X46294354Y-97219853D01*
X46146784Y-97318456D01*
X45982812Y-97386376D01*
X45833512Y-97416073D01*
X45808742Y-97421000D01*
X45631258Y-97421000D01*
X45606488Y-97416073D01*
X45457188Y-97386376D01*
X45293216Y-97318456D01*
X45145646Y-97219853D01*
X45020147Y-97094354D01*
X44921544Y-96946784D01*
X44853624Y-96782812D01*
X44819000Y-96608741D01*
X44819000Y-96431259D01*
X44853624Y-96257188D01*
X44921544Y-96093216D01*
X45020147Y-95945646D01*
X45145646Y-95820147D01*
X45293216Y-95721544D01*
X45457188Y-95653624D01*
X45606488Y-95623927D01*
X45631258Y-95619000D01*
X45808742Y-95619000D01*
X45833512Y-95623927D01*
G37*
G36*
X48373512Y-95623927D02*
G01*
X48522812Y-95653624D01*
X48686784Y-95721544D01*
X48834354Y-95820147D01*
X48959853Y-95945646D01*
X49058456Y-96093216D01*
X49126376Y-96257188D01*
X49161000Y-96431259D01*
X49161000Y-96608741D01*
X49126376Y-96782812D01*
X49058456Y-96946784D01*
X48959853Y-97094354D01*
X48834354Y-97219853D01*
X48686784Y-97318456D01*
X48522812Y-97386376D01*
X48373512Y-97416073D01*
X48348742Y-97421000D01*
X48171258Y-97421000D01*
X48146488Y-97416073D01*
X47997188Y-97386376D01*
X47833216Y-97318456D01*
X47685646Y-97219853D01*
X47560147Y-97094354D01*
X47461544Y-96946784D01*
X47393624Y-96782812D01*
X47359000Y-96608741D01*
X47359000Y-96431259D01*
X47393624Y-96257188D01*
X47461544Y-96093216D01*
X47560147Y-95945646D01*
X47685646Y-95820147D01*
X47833216Y-95721544D01*
X47997188Y-95653624D01*
X48146488Y-95623927D01*
X48171258Y-95619000D01*
X48348742Y-95619000D01*
X48373512Y-95623927D01*
G37*
G36*
X50913512Y-95623927D02*
G01*
X51062812Y-95653624D01*
X51226784Y-95721544D01*
X51374354Y-95820147D01*
X51499853Y-95945646D01*
X51598456Y-96093216D01*
X51666376Y-96257188D01*
X51701000Y-96431259D01*
X51701000Y-96608741D01*
X51666376Y-96782812D01*
X51598456Y-96946784D01*
X51499853Y-97094354D01*
X51374354Y-97219853D01*
X51226784Y-97318456D01*
X51062812Y-97386376D01*
X50913512Y-97416073D01*
X50888742Y-97421000D01*
X50711258Y-97421000D01*
X50686488Y-97416073D01*
X50537188Y-97386376D01*
X50373216Y-97318456D01*
X50225646Y-97219853D01*
X50100147Y-97094354D01*
X50001544Y-96946784D01*
X49933624Y-96782812D01*
X49899000Y-96608741D01*
X49899000Y-96431259D01*
X49933624Y-96257188D01*
X50001544Y-96093216D01*
X50100147Y-95945646D01*
X50225646Y-95820147D01*
X50373216Y-95721544D01*
X50537188Y-95653624D01*
X50686488Y-95623927D01*
X50711258Y-95619000D01*
X50888742Y-95619000D01*
X50913512Y-95623927D01*
G37*
G36*
X53453512Y-95623927D02*
G01*
X53602812Y-95653624D01*
X53766784Y-95721544D01*
X53914354Y-95820147D01*
X54039853Y-95945646D01*
X54138456Y-96093216D01*
X54206376Y-96257188D01*
X54241000Y-96431259D01*
X54241000Y-96608741D01*
X54206376Y-96782812D01*
X54138456Y-96946784D01*
X54039853Y-97094354D01*
X53914354Y-97219853D01*
X53766784Y-97318456D01*
X53602812Y-97386376D01*
X53453512Y-97416073D01*
X53428742Y-97421000D01*
X53251258Y-97421000D01*
X53226488Y-97416073D01*
X53077188Y-97386376D01*
X52913216Y-97318456D01*
X52765646Y-97219853D01*
X52640147Y-97094354D01*
X52541544Y-96946784D01*
X52473624Y-96782812D01*
X52439000Y-96608741D01*
X52439000Y-96431259D01*
X52473624Y-96257188D01*
X52541544Y-96093216D01*
X52640147Y-95945646D01*
X52765646Y-95820147D01*
X52913216Y-95721544D01*
X53077188Y-95653624D01*
X53226488Y-95623927D01*
X53251258Y-95619000D01*
X53428742Y-95619000D01*
X53453512Y-95623927D01*
G37*
G36*
X55993512Y-95623927D02*
G01*
X56142812Y-95653624D01*
X56306784Y-95721544D01*
X56454354Y-95820147D01*
X56579853Y-95945646D01*
X56678456Y-96093216D01*
X56746376Y-96257188D01*
X56781000Y-96431259D01*
X56781000Y-96608741D01*
X56746376Y-96782812D01*
X56678456Y-96946784D01*
X56579853Y-97094354D01*
X56454354Y-97219853D01*
X56306784Y-97318456D01*
X56142812Y-97386376D01*
X55993512Y-97416073D01*
X55968742Y-97421000D01*
X55791258Y-97421000D01*
X55766488Y-97416073D01*
X55617188Y-97386376D01*
X55453216Y-97318456D01*
X55305646Y-97219853D01*
X55180147Y-97094354D01*
X55081544Y-96946784D01*
X55013624Y-96782812D01*
X54979000Y-96608741D01*
X54979000Y-96431259D01*
X55013624Y-96257188D01*
X55081544Y-96093216D01*
X55180147Y-95945646D01*
X55305646Y-95820147D01*
X55453216Y-95721544D01*
X55617188Y-95653624D01*
X55766488Y-95623927D01*
X55791258Y-95619000D01*
X55968742Y-95619000D01*
X55993512Y-95623927D01*
G37*
G36*
X58533512Y-95623927D02*
G01*
X58682812Y-95653624D01*
X58846784Y-95721544D01*
X58994354Y-95820147D01*
X59119853Y-95945646D01*
X59218456Y-96093216D01*
X59286376Y-96257188D01*
X59321000Y-96431259D01*
X59321000Y-96608741D01*
X59286376Y-96782812D01*
X59218456Y-96946784D01*
X59119853Y-97094354D01*
X58994354Y-97219853D01*
X58846784Y-97318456D01*
X58682812Y-97386376D01*
X58533512Y-97416073D01*
X58508742Y-97421000D01*
X58331258Y-97421000D01*
X58306488Y-97416073D01*
X58157188Y-97386376D01*
X57993216Y-97318456D01*
X57845646Y-97219853D01*
X57720147Y-97094354D01*
X57621544Y-96946784D01*
X57553624Y-96782812D01*
X57519000Y-96608741D01*
X57519000Y-96431259D01*
X57553624Y-96257188D01*
X57621544Y-96093216D01*
X57720147Y-95945646D01*
X57845646Y-95820147D01*
X57993216Y-95721544D01*
X58157188Y-95653624D01*
X58306488Y-95623927D01*
X58331258Y-95619000D01*
X58508742Y-95619000D01*
X58533512Y-95623927D01*
G37*
G36*
X66153512Y-95623927D02*
G01*
X66302812Y-95653624D01*
X66466784Y-95721544D01*
X66614354Y-95820147D01*
X66739853Y-95945646D01*
X66838456Y-96093216D01*
X66906376Y-96257188D01*
X66941000Y-96431259D01*
X66941000Y-96608741D01*
X66906376Y-96782812D01*
X66838456Y-96946784D01*
X66739853Y-97094354D01*
X66614354Y-97219853D01*
X66466784Y-97318456D01*
X66302812Y-97386376D01*
X66153512Y-97416073D01*
X66128742Y-97421000D01*
X65951258Y-97421000D01*
X65926488Y-97416073D01*
X65777188Y-97386376D01*
X65613216Y-97318456D01*
X65465646Y-97219853D01*
X65340147Y-97094354D01*
X65241544Y-96946784D01*
X65173624Y-96782812D01*
X65139000Y-96608741D01*
X65139000Y-96431259D01*
X65173624Y-96257188D01*
X65241544Y-96093216D01*
X65340147Y-95945646D01*
X65465646Y-95820147D01*
X65613216Y-95721544D01*
X65777188Y-95653624D01*
X65926488Y-95623927D01*
X65951258Y-95619000D01*
X66128742Y-95619000D01*
X66153512Y-95623927D01*
G37*
G36*
X63613512Y-95623927D02*
G01*
X63762812Y-95653624D01*
X63926784Y-95721544D01*
X64074354Y-95820147D01*
X64199853Y-95945646D01*
X64298456Y-96093216D01*
X64366376Y-96257188D01*
X64401000Y-96431259D01*
X64401000Y-96608741D01*
X64366376Y-96782812D01*
X64298456Y-96946784D01*
X64199853Y-97094354D01*
X64074354Y-97219853D01*
X63926784Y-97318456D01*
X63762812Y-97386376D01*
X63613512Y-97416073D01*
X63588742Y-97421000D01*
X63411258Y-97421000D01*
X63386488Y-97416073D01*
X63237188Y-97386376D01*
X63073216Y-97318456D01*
X62925646Y-97219853D01*
X62800147Y-97094354D01*
X62701544Y-96946784D01*
X62633624Y-96782812D01*
X62599000Y-96608741D01*
X62599000Y-96431259D01*
X62633624Y-96257188D01*
X62701544Y-96093216D01*
X62800147Y-95945646D01*
X62925646Y-95820147D01*
X63073216Y-95721544D01*
X63237188Y-95653624D01*
X63386488Y-95623927D01*
X63411258Y-95619000D01*
X63588742Y-95619000D01*
X63613512Y-95623927D01*
G37*
G36*
X78853512Y-95623927D02*
G01*
X79002812Y-95653624D01*
X79166784Y-95721544D01*
X79314354Y-95820147D01*
X79439853Y-95945646D01*
X79538456Y-96093216D01*
X79606376Y-96257188D01*
X79641000Y-96431259D01*
X79641000Y-96608741D01*
X79606376Y-96782812D01*
X79538456Y-96946784D01*
X79439853Y-97094354D01*
X79314354Y-97219853D01*
X79166784Y-97318456D01*
X79002812Y-97386376D01*
X78853512Y-97416073D01*
X78828742Y-97421000D01*
X78651258Y-97421000D01*
X78626488Y-97416073D01*
X78477188Y-97386376D01*
X78313216Y-97318456D01*
X78165646Y-97219853D01*
X78040147Y-97094354D01*
X77941544Y-96946784D01*
X77873624Y-96782812D01*
X77839000Y-96608741D01*
X77839000Y-96431259D01*
X77873624Y-96257188D01*
X77941544Y-96093216D01*
X78040147Y-95945646D01*
X78165646Y-95820147D01*
X78313216Y-95721544D01*
X78477188Y-95653624D01*
X78626488Y-95623927D01*
X78651258Y-95619000D01*
X78828742Y-95619000D01*
X78853512Y-95623927D01*
G37*
G36*
X81393512Y-95623927D02*
G01*
X81542812Y-95653624D01*
X81706784Y-95721544D01*
X81854354Y-95820147D01*
X81979853Y-95945646D01*
X82078456Y-96093216D01*
X82146376Y-96257188D01*
X82181000Y-96431259D01*
X82181000Y-96608741D01*
X82146376Y-96782812D01*
X82078456Y-96946784D01*
X81979853Y-97094354D01*
X81854354Y-97219853D01*
X81706784Y-97318456D01*
X81542812Y-97386376D01*
X81393512Y-97416073D01*
X81368742Y-97421000D01*
X81191258Y-97421000D01*
X81166488Y-97416073D01*
X81017188Y-97386376D01*
X80853216Y-97318456D01*
X80705646Y-97219853D01*
X80580147Y-97094354D01*
X80481544Y-96946784D01*
X80413624Y-96782812D01*
X80379000Y-96608741D01*
X80379000Y-96431259D01*
X80413624Y-96257188D01*
X80481544Y-96093216D01*
X80580147Y-95945646D01*
X80705646Y-95820147D01*
X80853216Y-95721544D01*
X81017188Y-95653624D01*
X81166488Y-95623927D01*
X81191258Y-95619000D01*
X81368742Y-95619000D01*
X81393512Y-95623927D01*
G37*
G36*
X71233512Y-95623927D02*
G01*
X71382812Y-95653624D01*
X71546784Y-95721544D01*
X71694354Y-95820147D01*
X71819853Y-95945646D01*
X71918456Y-96093216D01*
X71986376Y-96257188D01*
X72021000Y-96431259D01*
X72021000Y-96608741D01*
X71986376Y-96782812D01*
X71918456Y-96946784D01*
X71819853Y-97094354D01*
X71694354Y-97219853D01*
X71546784Y-97318456D01*
X71382812Y-97386376D01*
X71233512Y-97416073D01*
X71208742Y-97421000D01*
X71031258Y-97421000D01*
X71006488Y-97416073D01*
X70857188Y-97386376D01*
X70693216Y-97318456D01*
X70545646Y-97219853D01*
X70420147Y-97094354D01*
X70321544Y-96946784D01*
X70253624Y-96782812D01*
X70219000Y-96608741D01*
X70219000Y-96431259D01*
X70253624Y-96257188D01*
X70321544Y-96093216D01*
X70420147Y-95945646D01*
X70545646Y-95820147D01*
X70693216Y-95721544D01*
X70857188Y-95653624D01*
X71006488Y-95623927D01*
X71031258Y-95619000D01*
X71208742Y-95619000D01*
X71233512Y-95623927D01*
G37*
G36*
X83933512Y-95623927D02*
G01*
X84082812Y-95653624D01*
X84246784Y-95721544D01*
X84394354Y-95820147D01*
X84519853Y-95945646D01*
X84618456Y-96093216D01*
X84686376Y-96257188D01*
X84721000Y-96431259D01*
X84721000Y-96608741D01*
X84686376Y-96782812D01*
X84618456Y-96946784D01*
X84519853Y-97094354D01*
X84394354Y-97219853D01*
X84246784Y-97318456D01*
X84082812Y-97386376D01*
X83933512Y-97416073D01*
X83908742Y-97421000D01*
X83731258Y-97421000D01*
X83706488Y-97416073D01*
X83557188Y-97386376D01*
X83393216Y-97318456D01*
X83245646Y-97219853D01*
X83120147Y-97094354D01*
X83021544Y-96946784D01*
X82953624Y-96782812D01*
X82919000Y-96608741D01*
X82919000Y-96431259D01*
X82953624Y-96257188D01*
X83021544Y-96093216D01*
X83120147Y-95945646D01*
X83245646Y-95820147D01*
X83393216Y-95721544D01*
X83557188Y-95653624D01*
X83706488Y-95623927D01*
X83731258Y-95619000D01*
X83908742Y-95619000D01*
X83933512Y-95623927D01*
G37*
G36*
X68693512Y-95623927D02*
G01*
X68842812Y-95653624D01*
X69006784Y-95721544D01*
X69154354Y-95820147D01*
X69279853Y-95945646D01*
X69378456Y-96093216D01*
X69446376Y-96257188D01*
X69481000Y-96431259D01*
X69481000Y-96608741D01*
X69446376Y-96782812D01*
X69378456Y-96946784D01*
X69279853Y-97094354D01*
X69154354Y-97219853D01*
X69006784Y-97318456D01*
X68842812Y-97386376D01*
X68693512Y-97416073D01*
X68668742Y-97421000D01*
X68491258Y-97421000D01*
X68466488Y-97416073D01*
X68317188Y-97386376D01*
X68153216Y-97318456D01*
X68005646Y-97219853D01*
X67880147Y-97094354D01*
X67781544Y-96946784D01*
X67713624Y-96782812D01*
X67679000Y-96608741D01*
X67679000Y-96431259D01*
X67713624Y-96257188D01*
X67781544Y-96093216D01*
X67880147Y-95945646D01*
X68005646Y-95820147D01*
X68153216Y-95721544D01*
X68317188Y-95653624D01*
X68466488Y-95623927D01*
X68491258Y-95619000D01*
X68668742Y-95619000D01*
X68693512Y-95623927D01*
G37*
G36*
X48373512Y-93083927D02*
G01*
X48522812Y-93113624D01*
X48686784Y-93181544D01*
X48834354Y-93280147D01*
X48959853Y-93405646D01*
X49058456Y-93553216D01*
X49126376Y-93717188D01*
X49161000Y-93891259D01*
X49161000Y-94068741D01*
X49126376Y-94242812D01*
X49058456Y-94406784D01*
X48959853Y-94554354D01*
X48834354Y-94679853D01*
X48686784Y-94778456D01*
X48522812Y-94846376D01*
X48373512Y-94876073D01*
X48348742Y-94881000D01*
X48171258Y-94881000D01*
X48146488Y-94876073D01*
X47997188Y-94846376D01*
X47833216Y-94778456D01*
X47685646Y-94679853D01*
X47560147Y-94554354D01*
X47461544Y-94406784D01*
X47393624Y-94242812D01*
X47359000Y-94068741D01*
X47359000Y-93891259D01*
X47393624Y-93717188D01*
X47461544Y-93553216D01*
X47560147Y-93405646D01*
X47685646Y-93280147D01*
X47833216Y-93181544D01*
X47997188Y-93113624D01*
X48146488Y-93083927D01*
X48171258Y-93079000D01*
X48348742Y-93079000D01*
X48373512Y-93083927D01*
G37*
G36*
X78853512Y-93083927D02*
G01*
X79002812Y-93113624D01*
X79166784Y-93181544D01*
X79314354Y-93280147D01*
X79439853Y-93405646D01*
X79538456Y-93553216D01*
X79606376Y-93717188D01*
X79641000Y-93891259D01*
X79641000Y-94068741D01*
X79606376Y-94242812D01*
X79538456Y-94406784D01*
X79439853Y-94554354D01*
X79314354Y-94679853D01*
X79166784Y-94778456D01*
X79002812Y-94846376D01*
X78853512Y-94876073D01*
X78828742Y-94881000D01*
X78651258Y-94881000D01*
X78626488Y-94876073D01*
X78477188Y-94846376D01*
X78313216Y-94778456D01*
X78165646Y-94679853D01*
X78040147Y-94554354D01*
X77941544Y-94406784D01*
X77873624Y-94242812D01*
X77839000Y-94068741D01*
X77839000Y-93891259D01*
X77873624Y-93717188D01*
X77941544Y-93553216D01*
X78040147Y-93405646D01*
X78165646Y-93280147D01*
X78313216Y-93181544D01*
X78477188Y-93113624D01*
X78626488Y-93083927D01*
X78651258Y-93079000D01*
X78828742Y-93079000D01*
X78853512Y-93083927D01*
G37*
G36*
X81393512Y-93083927D02*
G01*
X81542812Y-93113624D01*
X81706784Y-93181544D01*
X81854354Y-93280147D01*
X81979853Y-93405646D01*
X82078456Y-93553216D01*
X82146376Y-93717188D01*
X82181000Y-93891259D01*
X82181000Y-94068741D01*
X82146376Y-94242812D01*
X82078456Y-94406784D01*
X81979853Y-94554354D01*
X81854354Y-94679853D01*
X81706784Y-94778456D01*
X81542812Y-94846376D01*
X81393512Y-94876073D01*
X81368742Y-94881000D01*
X81191258Y-94881000D01*
X81166488Y-94876073D01*
X81017188Y-94846376D01*
X80853216Y-94778456D01*
X80705646Y-94679853D01*
X80580147Y-94554354D01*
X80481544Y-94406784D01*
X80413624Y-94242812D01*
X80379000Y-94068741D01*
X80379000Y-93891259D01*
X80413624Y-93717188D01*
X80481544Y-93553216D01*
X80580147Y-93405646D01*
X80705646Y-93280147D01*
X80853216Y-93181544D01*
X81017188Y-93113624D01*
X81166488Y-93083927D01*
X81191258Y-93079000D01*
X81368742Y-93079000D01*
X81393512Y-93083927D01*
G37*
G36*
X83933512Y-93083927D02*
G01*
X84082812Y-93113624D01*
X84246784Y-93181544D01*
X84394354Y-93280147D01*
X84519853Y-93405646D01*
X84618456Y-93553216D01*
X84686376Y-93717188D01*
X84721000Y-93891259D01*
X84721000Y-94068741D01*
X84686376Y-94242812D01*
X84618456Y-94406784D01*
X84519853Y-94554354D01*
X84394354Y-94679853D01*
X84246784Y-94778456D01*
X84082812Y-94846376D01*
X83933512Y-94876073D01*
X83908742Y-94881000D01*
X83731258Y-94881000D01*
X83706488Y-94876073D01*
X83557188Y-94846376D01*
X83393216Y-94778456D01*
X83245646Y-94679853D01*
X83120147Y-94554354D01*
X83021544Y-94406784D01*
X82953624Y-94242812D01*
X82919000Y-94068741D01*
X82919000Y-93891259D01*
X82953624Y-93717188D01*
X83021544Y-93553216D01*
X83120147Y-93405646D01*
X83245646Y-93280147D01*
X83393216Y-93181544D01*
X83557188Y-93113624D01*
X83706488Y-93083927D01*
X83731258Y-93079000D01*
X83908742Y-93079000D01*
X83933512Y-93083927D01*
G37*
G36*
X71233512Y-93083927D02*
G01*
X71382812Y-93113624D01*
X71546784Y-93181544D01*
X71694354Y-93280147D01*
X71819853Y-93405646D01*
X71918456Y-93553216D01*
X71986376Y-93717188D01*
X72021000Y-93891259D01*
X72021000Y-94068741D01*
X71986376Y-94242812D01*
X71918456Y-94406784D01*
X71819853Y-94554354D01*
X71694354Y-94679853D01*
X71546784Y-94778456D01*
X71382812Y-94846376D01*
X71233512Y-94876073D01*
X71208742Y-94881000D01*
X71031258Y-94881000D01*
X71006488Y-94876073D01*
X70857188Y-94846376D01*
X70693216Y-94778456D01*
X70545646Y-94679853D01*
X70420147Y-94554354D01*
X70321544Y-94406784D01*
X70253624Y-94242812D01*
X70219000Y-94068741D01*
X70219000Y-93891259D01*
X70253624Y-93717188D01*
X70321544Y-93553216D01*
X70420147Y-93405646D01*
X70545646Y-93280147D01*
X70693216Y-93181544D01*
X70857188Y-93113624D01*
X71006488Y-93083927D01*
X71031258Y-93079000D01*
X71208742Y-93079000D01*
X71233512Y-93083927D01*
G37*
G36*
X68693512Y-93083927D02*
G01*
X68842812Y-93113624D01*
X69006784Y-93181544D01*
X69154354Y-93280147D01*
X69279853Y-93405646D01*
X69378456Y-93553216D01*
X69446376Y-93717188D01*
X69481000Y-93891259D01*
X69481000Y-94068741D01*
X69446376Y-94242812D01*
X69378456Y-94406784D01*
X69279853Y-94554354D01*
X69154354Y-94679853D01*
X69006784Y-94778456D01*
X68842812Y-94846376D01*
X68693512Y-94876073D01*
X68668742Y-94881000D01*
X68491258Y-94881000D01*
X68466488Y-94876073D01*
X68317188Y-94846376D01*
X68153216Y-94778456D01*
X68005646Y-94679853D01*
X67880147Y-94554354D01*
X67781544Y-94406784D01*
X67713624Y-94242812D01*
X67679000Y-94068741D01*
X67679000Y-93891259D01*
X67713624Y-93717188D01*
X67781544Y-93553216D01*
X67880147Y-93405646D01*
X68005646Y-93280147D01*
X68153216Y-93181544D01*
X68317188Y-93113624D01*
X68466488Y-93083927D01*
X68491258Y-93079000D01*
X68668742Y-93079000D01*
X68693512Y-93083927D01*
G37*
G36*
X66153512Y-93083927D02*
G01*
X66302812Y-93113624D01*
X66466784Y-93181544D01*
X66614354Y-93280147D01*
X66739853Y-93405646D01*
X66838456Y-93553216D01*
X66906376Y-93717188D01*
X66941000Y-93891259D01*
X66941000Y-94068741D01*
X66906376Y-94242812D01*
X66838456Y-94406784D01*
X66739853Y-94554354D01*
X66614354Y-94679853D01*
X66466784Y-94778456D01*
X66302812Y-94846376D01*
X66153512Y-94876073D01*
X66128742Y-94881000D01*
X65951258Y-94881000D01*
X65926488Y-94876073D01*
X65777188Y-94846376D01*
X65613216Y-94778456D01*
X65465646Y-94679853D01*
X65340147Y-94554354D01*
X65241544Y-94406784D01*
X65173624Y-94242812D01*
X65139000Y-94068741D01*
X65139000Y-93891259D01*
X65173624Y-93717188D01*
X65241544Y-93553216D01*
X65340147Y-93405646D01*
X65465646Y-93280147D01*
X65613216Y-93181544D01*
X65777188Y-93113624D01*
X65926488Y-93083927D01*
X65951258Y-93079000D01*
X66128742Y-93079000D01*
X66153512Y-93083927D01*
G37*
G36*
X63613512Y-93083927D02*
G01*
X63762812Y-93113624D01*
X63926784Y-93181544D01*
X64074354Y-93280147D01*
X64199853Y-93405646D01*
X64298456Y-93553216D01*
X64366376Y-93717188D01*
X64401000Y-93891259D01*
X64401000Y-94068741D01*
X64366376Y-94242812D01*
X64298456Y-94406784D01*
X64199853Y-94554354D01*
X64074354Y-94679853D01*
X63926784Y-94778456D01*
X63762812Y-94846376D01*
X63613512Y-94876073D01*
X63588742Y-94881000D01*
X63411258Y-94881000D01*
X63386488Y-94876073D01*
X63237188Y-94846376D01*
X63073216Y-94778456D01*
X62925646Y-94679853D01*
X62800147Y-94554354D01*
X62701544Y-94406784D01*
X62633624Y-94242812D01*
X62599000Y-94068741D01*
X62599000Y-93891259D01*
X62633624Y-93717188D01*
X62701544Y-93553216D01*
X62800147Y-93405646D01*
X62925646Y-93280147D01*
X63073216Y-93181544D01*
X63237188Y-93113624D01*
X63386488Y-93083927D01*
X63411258Y-93079000D01*
X63588742Y-93079000D01*
X63613512Y-93083927D01*
G37*
G36*
X61073512Y-93083927D02*
G01*
X61222812Y-93113624D01*
X61386784Y-93181544D01*
X61534354Y-93280147D01*
X61659853Y-93405646D01*
X61758456Y-93553216D01*
X61826376Y-93717188D01*
X61861000Y-93891259D01*
X61861000Y-94068741D01*
X61826376Y-94242812D01*
X61758456Y-94406784D01*
X61659853Y-94554354D01*
X61534354Y-94679853D01*
X61386784Y-94778456D01*
X61222812Y-94846376D01*
X61073512Y-94876073D01*
X61048742Y-94881000D01*
X60871258Y-94881000D01*
X60846488Y-94876073D01*
X60697188Y-94846376D01*
X60533216Y-94778456D01*
X60385646Y-94679853D01*
X60260147Y-94554354D01*
X60161544Y-94406784D01*
X60093624Y-94242812D01*
X60059000Y-94068741D01*
X60059000Y-93891259D01*
X60093624Y-93717188D01*
X60161544Y-93553216D01*
X60260147Y-93405646D01*
X60385646Y-93280147D01*
X60533216Y-93181544D01*
X60697188Y-93113624D01*
X60846488Y-93083927D01*
X60871258Y-93079000D01*
X61048742Y-93079000D01*
X61073512Y-93083927D01*
G37*
G36*
X58533512Y-93083927D02*
G01*
X58682812Y-93113624D01*
X58846784Y-93181544D01*
X58994354Y-93280147D01*
X59119853Y-93405646D01*
X59218456Y-93553216D01*
X59286376Y-93717188D01*
X59321000Y-93891259D01*
X59321000Y-94068741D01*
X59286376Y-94242812D01*
X59218456Y-94406784D01*
X59119853Y-94554354D01*
X58994354Y-94679853D01*
X58846784Y-94778456D01*
X58682812Y-94846376D01*
X58533512Y-94876073D01*
X58508742Y-94881000D01*
X58331258Y-94881000D01*
X58306488Y-94876073D01*
X58157188Y-94846376D01*
X57993216Y-94778456D01*
X57845646Y-94679853D01*
X57720147Y-94554354D01*
X57621544Y-94406784D01*
X57553624Y-94242812D01*
X57519000Y-94068741D01*
X57519000Y-93891259D01*
X57553624Y-93717188D01*
X57621544Y-93553216D01*
X57720147Y-93405646D01*
X57845646Y-93280147D01*
X57993216Y-93181544D01*
X58157188Y-93113624D01*
X58306488Y-93083927D01*
X58331258Y-93079000D01*
X58508742Y-93079000D01*
X58533512Y-93083927D01*
G37*
G36*
X55993512Y-93083927D02*
G01*
X56142812Y-93113624D01*
X56306784Y-93181544D01*
X56454354Y-93280147D01*
X56579853Y-93405646D01*
X56678456Y-93553216D01*
X56746376Y-93717188D01*
X56781000Y-93891259D01*
X56781000Y-94068741D01*
X56746376Y-94242812D01*
X56678456Y-94406784D01*
X56579853Y-94554354D01*
X56454354Y-94679853D01*
X56306784Y-94778456D01*
X56142812Y-94846376D01*
X55993512Y-94876073D01*
X55968742Y-94881000D01*
X55791258Y-94881000D01*
X55766488Y-94876073D01*
X55617188Y-94846376D01*
X55453216Y-94778456D01*
X55305646Y-94679853D01*
X55180147Y-94554354D01*
X55081544Y-94406784D01*
X55013624Y-94242812D01*
X54979000Y-94068741D01*
X54979000Y-93891259D01*
X55013624Y-93717188D01*
X55081544Y-93553216D01*
X55180147Y-93405646D01*
X55305646Y-93280147D01*
X55453216Y-93181544D01*
X55617188Y-93113624D01*
X55766488Y-93083927D01*
X55791258Y-93079000D01*
X55968742Y-93079000D01*
X55993512Y-93083927D01*
G37*
G36*
X76313512Y-93083927D02*
G01*
X76462812Y-93113624D01*
X76626784Y-93181544D01*
X76774354Y-93280147D01*
X76899853Y-93405646D01*
X76998456Y-93553216D01*
X77066376Y-93717188D01*
X77101000Y-93891259D01*
X77101000Y-94068741D01*
X77066376Y-94242812D01*
X76998456Y-94406784D01*
X76899853Y-94554354D01*
X76774354Y-94679853D01*
X76626784Y-94778456D01*
X76462812Y-94846376D01*
X76313512Y-94876073D01*
X76288742Y-94881000D01*
X76111258Y-94881000D01*
X76086488Y-94876073D01*
X75937188Y-94846376D01*
X75773216Y-94778456D01*
X75625646Y-94679853D01*
X75500147Y-94554354D01*
X75401544Y-94406784D01*
X75333624Y-94242812D01*
X75299000Y-94068741D01*
X75299000Y-93891259D01*
X75333624Y-93717188D01*
X75401544Y-93553216D01*
X75500147Y-93405646D01*
X75625646Y-93280147D01*
X75773216Y-93181544D01*
X75937188Y-93113624D01*
X76086488Y-93083927D01*
X76111258Y-93079000D01*
X76288742Y-93079000D01*
X76313512Y-93083927D01*
G37*
G36*
X53453512Y-93083927D02*
G01*
X53602812Y-93113624D01*
X53766784Y-93181544D01*
X53914354Y-93280147D01*
X54039853Y-93405646D01*
X54138456Y-93553216D01*
X54206376Y-93717188D01*
X54241000Y-93891259D01*
X54241000Y-94068741D01*
X54206376Y-94242812D01*
X54138456Y-94406784D01*
X54039853Y-94554354D01*
X53914354Y-94679853D01*
X53766784Y-94778456D01*
X53602812Y-94846376D01*
X53453512Y-94876073D01*
X53428742Y-94881000D01*
X53251258Y-94881000D01*
X53226488Y-94876073D01*
X53077188Y-94846376D01*
X52913216Y-94778456D01*
X52765646Y-94679853D01*
X52640147Y-94554354D01*
X52541544Y-94406784D01*
X52473624Y-94242812D01*
X52439000Y-94068741D01*
X52439000Y-93891259D01*
X52473624Y-93717188D01*
X52541544Y-93553216D01*
X52640147Y-93405646D01*
X52765646Y-93280147D01*
X52913216Y-93181544D01*
X53077188Y-93113624D01*
X53226488Y-93083927D01*
X53251258Y-93079000D01*
X53428742Y-93079000D01*
X53453512Y-93083927D01*
G37*
G36*
X73773512Y-93083927D02*
G01*
X73922812Y-93113624D01*
X74086784Y-93181544D01*
X74234354Y-93280147D01*
X74359853Y-93405646D01*
X74458456Y-93553216D01*
X74526376Y-93717188D01*
X74561000Y-93891259D01*
X74561000Y-94068741D01*
X74526376Y-94242812D01*
X74458456Y-94406784D01*
X74359853Y-94554354D01*
X74234354Y-94679853D01*
X74086784Y-94778456D01*
X73922812Y-94846376D01*
X73773512Y-94876073D01*
X73748742Y-94881000D01*
X73571258Y-94881000D01*
X73546488Y-94876073D01*
X73397188Y-94846376D01*
X73233216Y-94778456D01*
X73085646Y-94679853D01*
X72960147Y-94554354D01*
X72861544Y-94406784D01*
X72793624Y-94242812D01*
X72759000Y-94068741D01*
X72759000Y-93891259D01*
X72793624Y-93717188D01*
X72861544Y-93553216D01*
X72960147Y-93405646D01*
X73085646Y-93280147D01*
X73233216Y-93181544D01*
X73397188Y-93113624D01*
X73546488Y-93083927D01*
X73571258Y-93079000D01*
X73748742Y-93079000D01*
X73773512Y-93083927D01*
G37*
G36*
X50913512Y-93083927D02*
G01*
X51062812Y-93113624D01*
X51226784Y-93181544D01*
X51374354Y-93280147D01*
X51499853Y-93405646D01*
X51598456Y-93553216D01*
X51666376Y-93717188D01*
X51701000Y-93891259D01*
X51701000Y-94068741D01*
X51666376Y-94242812D01*
X51598456Y-94406784D01*
X51499853Y-94554354D01*
X51374354Y-94679853D01*
X51226784Y-94778456D01*
X51062812Y-94846376D01*
X50913512Y-94876073D01*
X50888742Y-94881000D01*
X50711258Y-94881000D01*
X50686488Y-94876073D01*
X50537188Y-94846376D01*
X50373216Y-94778456D01*
X50225646Y-94679853D01*
X50100147Y-94554354D01*
X50001544Y-94406784D01*
X49933624Y-94242812D01*
X49899000Y-94068741D01*
X49899000Y-93891259D01*
X49933624Y-93717188D01*
X50001544Y-93553216D01*
X50100147Y-93405646D01*
X50225646Y-93280147D01*
X50373216Y-93181544D01*
X50537188Y-93113624D01*
X50686488Y-93083927D01*
X50711258Y-93079000D01*
X50888742Y-93079000D01*
X50913512Y-93083927D01*
G37*
G36*
X46621000Y-94881000D02*
G01*
X44819000Y-94881000D01*
X44819000Y-93079000D01*
X46621000Y-93079000D01*
X46621000Y-94881000D01*
G37*
G36*
X80013062Y-88578181D02*
G01*
X80047981Y-88588774D01*
X80080163Y-88605976D01*
X80108373Y-88629127D01*
X80131524Y-88657337D01*
X80148726Y-88689519D01*
X80159319Y-88724438D01*
X80163500Y-88766895D01*
X80163500Y-90233105D01*
X80159319Y-90275562D01*
X80148726Y-90310481D01*
X80131524Y-90342663D01*
X80108373Y-90370873D01*
X80080163Y-90394024D01*
X80047981Y-90411226D01*
X80013062Y-90421819D01*
X79970605Y-90426000D01*
X78829395Y-90426000D01*
X78786938Y-90421819D01*
X78752019Y-90411226D01*
X78719837Y-90394024D01*
X78691627Y-90370873D01*
X78668476Y-90342663D01*
X78651274Y-90310481D01*
X78640681Y-90275562D01*
X78636500Y-90233105D01*
X78636500Y-88766895D01*
X78640681Y-88724438D01*
X78651274Y-88689519D01*
X78668476Y-88657337D01*
X78691627Y-88629127D01*
X78719837Y-88605976D01*
X78752019Y-88588774D01*
X78786938Y-88578181D01*
X78829395Y-88574000D01*
X79970605Y-88574000D01*
X80013062Y-88578181D01*
G37*
G36*
X82988062Y-88578181D02*
G01*
X83022981Y-88588774D01*
X83055163Y-88605976D01*
X83083373Y-88629127D01*
X83106524Y-88657337D01*
X83123726Y-88689519D01*
X83134319Y-88724438D01*
X83138500Y-88766895D01*
X83138500Y-90233105D01*
X83134319Y-90275562D01*
X83123726Y-90310481D01*
X83106524Y-90342663D01*
X83083373Y-90370873D01*
X83055163Y-90394024D01*
X83022981Y-90411226D01*
X82988062Y-90421819D01*
X82945605Y-90426000D01*
X81804395Y-90426000D01*
X81761938Y-90421819D01*
X81727019Y-90411226D01*
X81694837Y-90394024D01*
X81666627Y-90370873D01*
X81643476Y-90342663D01*
X81626274Y-90310481D01*
X81615681Y-90275562D01*
X81611500Y-90233105D01*
X81611500Y-88766895D01*
X81615681Y-88724438D01*
X81626274Y-88689519D01*
X81643476Y-88657337D01*
X81666627Y-88629127D01*
X81694837Y-88605976D01*
X81727019Y-88588774D01*
X81761938Y-88578181D01*
X81804395Y-88574000D01*
X82945605Y-88574000D01*
X82988062Y-88578181D01*
G37*
G36*
X76564499Y-89178445D02*
G01*
X76601995Y-89189820D01*
X76636554Y-89208292D01*
X76666847Y-89233153D01*
X76691708Y-89263446D01*
X76710180Y-89298005D01*
X76721555Y-89335501D01*
X76726000Y-89380638D01*
X76726000Y-90019362D01*
X76721555Y-90064499D01*
X76710180Y-90101995D01*
X76691708Y-90136554D01*
X76666847Y-90166847D01*
X76636554Y-90191708D01*
X76601995Y-90210180D01*
X76564499Y-90221555D01*
X76519362Y-90226000D01*
X75780638Y-90226000D01*
X75735501Y-90221555D01*
X75698005Y-90210180D01*
X75663446Y-90191708D01*
X75633153Y-90166847D01*
X75608292Y-90136554D01*
X75589820Y-90101995D01*
X75578445Y-90064499D01*
X75574000Y-90019362D01*
X75574000Y-89380638D01*
X75578445Y-89335501D01*
X75589820Y-89298005D01*
X75608292Y-89263446D01*
X75633153Y-89233153D01*
X75663446Y-89208292D01*
X75698005Y-89189820D01*
X75735501Y-89178445D01*
X75780638Y-89174000D01*
X76519362Y-89174000D01*
X76564499Y-89178445D01*
G37*
G36*
X74814499Y-89178445D02*
G01*
X74851995Y-89189820D01*
X74886554Y-89208292D01*
X74916847Y-89233153D01*
X74941708Y-89263446D01*
X74960180Y-89298005D01*
X74971555Y-89335501D01*
X74976000Y-89380638D01*
X74976000Y-90019362D01*
X74971555Y-90064499D01*
X74960180Y-90101995D01*
X74941708Y-90136554D01*
X74916847Y-90166847D01*
X74886554Y-90191708D01*
X74851995Y-90210180D01*
X74814499Y-90221555D01*
X74769362Y-90226000D01*
X74030638Y-90226000D01*
X73985501Y-90221555D01*
X73948005Y-90210180D01*
X73913446Y-90191708D01*
X73883153Y-90166847D01*
X73858292Y-90136554D01*
X73839820Y-90101995D01*
X73828445Y-90064499D01*
X73824000Y-90019362D01*
X73824000Y-89380638D01*
X73828445Y-89335501D01*
X73839820Y-89298005D01*
X73858292Y-89263446D01*
X73883153Y-89233153D01*
X73913446Y-89208292D01*
X73948005Y-89189820D01*
X73985501Y-89178445D01*
X74030638Y-89174000D01*
X74769362Y-89174000D01*
X74814499Y-89178445D01*
G37*
G36*
X66151000Y-89251000D02*
G01*
X65049000Y-89251000D01*
X65049000Y-88149000D01*
X66151000Y-88149000D01*
X66151000Y-89251000D01*
G37*
G36*
X74814499Y-87578445D02*
G01*
X74851995Y-87589820D01*
X74886554Y-87608292D01*
X74916847Y-87633153D01*
X74941708Y-87663446D01*
X74960180Y-87698005D01*
X74971555Y-87735501D01*
X74976000Y-87780638D01*
X74976000Y-88419362D01*
X74971555Y-88464499D01*
X74960180Y-88501995D01*
X74941708Y-88536554D01*
X74916847Y-88566847D01*
X74886554Y-88591708D01*
X74851995Y-88610180D01*
X74814499Y-88621555D01*
X74769362Y-88626000D01*
X74030638Y-88626000D01*
X73985501Y-88621555D01*
X73948005Y-88610180D01*
X73913446Y-88591708D01*
X73883153Y-88566847D01*
X73858292Y-88536554D01*
X73839820Y-88501995D01*
X73828445Y-88464499D01*
X73824000Y-88419362D01*
X73824000Y-87780638D01*
X73828445Y-87735501D01*
X73839820Y-87698005D01*
X73858292Y-87663446D01*
X73883153Y-87633153D01*
X73913446Y-87608292D01*
X73948005Y-87589820D01*
X73985501Y-87578445D01*
X74030638Y-87574000D01*
X74769362Y-87574000D01*
X74814499Y-87578445D01*
G37*
G36*
X76564499Y-87578445D02*
G01*
X76601995Y-87589820D01*
X76636554Y-87608292D01*
X76666847Y-87633153D01*
X76691708Y-87663446D01*
X76710180Y-87698005D01*
X76721555Y-87735501D01*
X76726000Y-87780638D01*
X76726000Y-88419362D01*
X76721555Y-88464499D01*
X76710180Y-88501995D01*
X76691708Y-88536554D01*
X76666847Y-88566847D01*
X76636554Y-88591708D01*
X76601995Y-88610180D01*
X76564499Y-88621555D01*
X76519362Y-88626000D01*
X75780638Y-88626000D01*
X75735501Y-88621555D01*
X75698005Y-88610180D01*
X75663446Y-88591708D01*
X75633153Y-88566847D01*
X75608292Y-88536554D01*
X75589820Y-88501995D01*
X75578445Y-88464499D01*
X75574000Y-88419362D01*
X75574000Y-87780638D01*
X75578445Y-87735501D01*
X75589820Y-87698005D01*
X75608292Y-87663446D01*
X75633153Y-87633153D01*
X75663446Y-87608292D01*
X75698005Y-87589820D01*
X75735501Y-87578445D01*
X75780638Y-87574000D01*
X76519362Y-87574000D01*
X76564499Y-87578445D01*
G37*
G36*
X81218604Y-86628347D02*
G01*
X81255144Y-86639432D01*
X81288821Y-86657433D01*
X81318341Y-86681659D01*
X81342567Y-86711179D01*
X81360568Y-86744856D01*
X81371653Y-86781396D01*
X81376000Y-86825538D01*
X81376000Y-87774462D01*
X81371653Y-87818604D01*
X81360568Y-87855144D01*
X81342567Y-87888821D01*
X81318341Y-87918341D01*
X81288821Y-87942567D01*
X81255144Y-87960568D01*
X81218604Y-87971653D01*
X81174462Y-87976000D01*
X78825538Y-87976000D01*
X78781396Y-87971653D01*
X78744856Y-87960568D01*
X78711179Y-87942567D01*
X78681659Y-87918341D01*
X78657433Y-87888821D01*
X78639432Y-87855144D01*
X78628347Y-87818604D01*
X78624000Y-87774462D01*
X78624000Y-86825538D01*
X78628347Y-86781396D01*
X78639432Y-86744856D01*
X78657433Y-86711179D01*
X78681659Y-86681659D01*
X78711179Y-86657433D01*
X78744856Y-86639432D01*
X78781396Y-86628347D01*
X78825538Y-86624000D01*
X81174462Y-86624000D01*
X81218604Y-86628347D01*
G37*
G36*
X84763512Y-85253927D02*
G01*
X84912812Y-85283624D01*
X85076784Y-85351544D01*
X85224354Y-85450147D01*
X85349853Y-85575646D01*
X85448456Y-85723216D01*
X85516376Y-85887188D01*
X85551000Y-86061259D01*
X85551000Y-86238741D01*
X85516376Y-86412812D01*
X85448456Y-86576784D01*
X85349853Y-86724354D01*
X85224354Y-86849853D01*
X85076784Y-86948456D01*
X84912812Y-87016376D01*
X84763512Y-87046073D01*
X84738742Y-87051000D01*
X84561258Y-87051000D01*
X84536488Y-87046073D01*
X84387188Y-87016376D01*
X84223216Y-86948456D01*
X84075646Y-86849853D01*
X83950147Y-86724354D01*
X83851544Y-86576784D01*
X83783624Y-86412812D01*
X83749000Y-86238741D01*
X83749000Y-86061259D01*
X83783624Y-85887188D01*
X83851544Y-85723216D01*
X83950147Y-85575646D01*
X84075646Y-85450147D01*
X84223216Y-85351544D01*
X84387188Y-85283624D01*
X84536488Y-85253927D01*
X84561258Y-85249000D01*
X84738742Y-85249000D01*
X84763512Y-85253927D01*
G37*
G36*
X76564499Y-85978445D02*
G01*
X76601995Y-85989820D01*
X76636554Y-86008292D01*
X76666847Y-86033153D01*
X76691708Y-86063446D01*
X76710180Y-86098005D01*
X76721555Y-86135501D01*
X76726000Y-86180638D01*
X76726000Y-86819362D01*
X76721555Y-86864499D01*
X76710180Y-86901995D01*
X76691708Y-86936554D01*
X76666847Y-86966847D01*
X76636554Y-86991708D01*
X76601995Y-87010180D01*
X76564499Y-87021555D01*
X76519362Y-87026000D01*
X75780638Y-87026000D01*
X75735501Y-87021555D01*
X75698005Y-87010180D01*
X75663446Y-86991708D01*
X75633153Y-86966847D01*
X75608292Y-86936554D01*
X75589820Y-86901995D01*
X75578445Y-86864499D01*
X75574000Y-86819362D01*
X75574000Y-86180638D01*
X75578445Y-86135501D01*
X75589820Y-86098005D01*
X75608292Y-86063446D01*
X75633153Y-86033153D01*
X75663446Y-86008292D01*
X75698005Y-85989820D01*
X75735501Y-85978445D01*
X75780638Y-85974000D01*
X76519362Y-85974000D01*
X76564499Y-85978445D01*
G37*
G36*
X74814499Y-85978445D02*
G01*
X74851995Y-85989820D01*
X74886554Y-86008292D01*
X74916847Y-86033153D01*
X74941708Y-86063446D01*
X74960180Y-86098005D01*
X74971555Y-86135501D01*
X74976000Y-86180638D01*
X74976000Y-86819362D01*
X74971555Y-86864499D01*
X74960180Y-86901995D01*
X74941708Y-86936554D01*
X74916847Y-86966847D01*
X74886554Y-86991708D01*
X74851995Y-87010180D01*
X74814499Y-87021555D01*
X74769362Y-87026000D01*
X74030638Y-87026000D01*
X73985501Y-87021555D01*
X73948005Y-87010180D01*
X73913446Y-86991708D01*
X73883153Y-86966847D01*
X73858292Y-86936554D01*
X73839820Y-86901995D01*
X73828445Y-86864499D01*
X73824000Y-86819362D01*
X73824000Y-86180638D01*
X73828445Y-86135501D01*
X73839820Y-86098005D01*
X73858292Y-86063446D01*
X73883153Y-86033153D01*
X73913446Y-86008292D01*
X73948005Y-85989820D01*
X73985501Y-85978445D01*
X74030638Y-85974000D01*
X74769362Y-85974000D01*
X74814499Y-85978445D01*
G37*
G36*
X60991000Y-86921000D02*
G01*
X59689000Y-86921000D01*
X59689000Y-85919000D01*
X60991000Y-85919000D01*
X60991000Y-86921000D01*
G37*
G36*
X58601000Y-86911000D02*
G01*
X57299000Y-86911000D01*
X57299000Y-85909000D01*
X58601000Y-85909000D01*
X58601000Y-86911000D01*
G37*
G36*
X81218604Y-83828347D02*
G01*
X81255144Y-83839432D01*
X81288821Y-83857433D01*
X81318341Y-83881659D01*
X81342567Y-83911179D01*
X81360568Y-83944856D01*
X81371653Y-83981396D01*
X81376000Y-84025538D01*
X81376000Y-84974462D01*
X81371653Y-85018604D01*
X81360568Y-85055144D01*
X81342567Y-85088821D01*
X81318341Y-85118341D01*
X81288821Y-85142567D01*
X81255144Y-85160568D01*
X81218604Y-85171653D01*
X81174462Y-85176000D01*
X78825538Y-85176000D01*
X78781396Y-85171653D01*
X78744856Y-85160568D01*
X78711179Y-85142567D01*
X78681659Y-85118341D01*
X78657433Y-85088821D01*
X78639432Y-85055144D01*
X78628347Y-85018604D01*
X78624000Y-84974462D01*
X78624000Y-84025538D01*
X78628347Y-83981396D01*
X78639432Y-83944856D01*
X78657433Y-83911179D01*
X78681659Y-83881659D01*
X78711179Y-83857433D01*
X78744856Y-83839432D01*
X78781396Y-83828347D01*
X78825538Y-83824000D01*
X81174462Y-83824000D01*
X81218604Y-83828347D01*
G37*
G36*
X65314499Y-83403445D02*
G01*
X65351995Y-83414820D01*
X65386554Y-83433292D01*
X65416847Y-83458153D01*
X65441708Y-83488446D01*
X65460180Y-83523005D01*
X65471555Y-83560501D01*
X65476000Y-83605638D01*
X65476000Y-84344362D01*
X65471555Y-84389499D01*
X65460180Y-84426995D01*
X65441708Y-84461554D01*
X65416847Y-84491847D01*
X65386554Y-84516708D01*
X65351995Y-84535180D01*
X65314499Y-84546555D01*
X65269362Y-84551000D01*
X64630638Y-84551000D01*
X64585501Y-84546555D01*
X64548005Y-84535180D01*
X64513446Y-84516708D01*
X64483153Y-84491847D01*
X64458292Y-84461554D01*
X64439820Y-84426995D01*
X64428445Y-84389499D01*
X64424000Y-84344362D01*
X64424000Y-83605638D01*
X64428445Y-83560501D01*
X64439820Y-83523005D01*
X64458292Y-83488446D01*
X64483153Y-83458153D01*
X64513446Y-83433292D01*
X64548005Y-83414820D01*
X64585501Y-83403445D01*
X64630638Y-83399000D01*
X65269362Y-83399000D01*
X65314499Y-83403445D01*
G37*
G36*
X62804499Y-83393445D02*
G01*
X62841995Y-83404820D01*
X62876554Y-83423292D01*
X62906847Y-83448153D01*
X62931708Y-83478446D01*
X62950180Y-83513005D01*
X62961555Y-83550501D01*
X62966000Y-83595638D01*
X62966000Y-84334362D01*
X62961555Y-84379499D01*
X62950180Y-84416995D01*
X62931708Y-84451554D01*
X62906847Y-84481847D01*
X62876554Y-84506708D01*
X62841995Y-84525180D01*
X62804499Y-84536555D01*
X62759362Y-84541000D01*
X62120638Y-84541000D01*
X62075501Y-84536555D01*
X62038005Y-84525180D01*
X62003446Y-84506708D01*
X61973153Y-84481847D01*
X61948292Y-84451554D01*
X61929820Y-84416995D01*
X61918445Y-84379499D01*
X61914000Y-84334362D01*
X61914000Y-83595638D01*
X61918445Y-83550501D01*
X61929820Y-83513005D01*
X61948292Y-83478446D01*
X61973153Y-83448153D01*
X62003446Y-83423292D01*
X62038005Y-83404820D01*
X62075501Y-83393445D01*
X62120638Y-83389000D01*
X62759362Y-83389000D01*
X62804499Y-83393445D01*
G37*
G36*
X72514499Y-83478445D02*
G01*
X72551995Y-83489820D01*
X72586554Y-83508292D01*
X72616847Y-83533153D01*
X72641708Y-83563446D01*
X72660180Y-83598005D01*
X72671555Y-83635501D01*
X72676000Y-83680638D01*
X72676000Y-84319362D01*
X72671555Y-84364499D01*
X72660180Y-84401995D01*
X72641708Y-84436554D01*
X72616847Y-84466847D01*
X72586554Y-84491708D01*
X72551995Y-84510180D01*
X72514499Y-84521555D01*
X72469362Y-84526000D01*
X71730638Y-84526000D01*
X71685501Y-84521555D01*
X71648005Y-84510180D01*
X71613446Y-84491708D01*
X71583153Y-84466847D01*
X71558292Y-84436554D01*
X71539820Y-84401995D01*
X71528445Y-84364499D01*
X71524000Y-84319362D01*
X71524000Y-83680638D01*
X71528445Y-83635501D01*
X71539820Y-83598005D01*
X71558292Y-83563446D01*
X71583153Y-83533153D01*
X71613446Y-83508292D01*
X71648005Y-83489820D01*
X71685501Y-83478445D01*
X71730638Y-83474000D01*
X72469362Y-83474000D01*
X72514499Y-83478445D01*
G37*
G36*
X74264499Y-83478445D02*
G01*
X74301995Y-83489820D01*
X74336554Y-83508292D01*
X74366847Y-83533153D01*
X74391708Y-83563446D01*
X74410180Y-83598005D01*
X74421555Y-83635501D01*
X74426000Y-83680638D01*
X74426000Y-84319362D01*
X74421555Y-84364499D01*
X74410180Y-84401995D01*
X74391708Y-84436554D01*
X74366847Y-84466847D01*
X74336554Y-84491708D01*
X74301995Y-84510180D01*
X74264499Y-84521555D01*
X74219362Y-84526000D01*
X73480638Y-84526000D01*
X73435501Y-84521555D01*
X73398005Y-84510180D01*
X73363446Y-84491708D01*
X73333153Y-84466847D01*
X73308292Y-84436554D01*
X73289820Y-84401995D01*
X73278445Y-84364499D01*
X73274000Y-84319362D01*
X73274000Y-83680638D01*
X73278445Y-83635501D01*
X73289820Y-83598005D01*
X73308292Y-83563446D01*
X73333153Y-83533153D01*
X73363446Y-83508292D01*
X73398005Y-83489820D01*
X73435501Y-83478445D01*
X73480638Y-83474000D01*
X74219362Y-83474000D01*
X74264499Y-83478445D01*
G37*
G36*
X84763512Y-82713927D02*
G01*
X84912812Y-82743624D01*
X85076784Y-82811544D01*
X85224354Y-82910147D01*
X85349853Y-83035646D01*
X85448456Y-83183216D01*
X85516376Y-83347188D01*
X85551000Y-83521259D01*
X85551000Y-83698741D01*
X85516376Y-83872812D01*
X85448456Y-84036784D01*
X85349853Y-84184354D01*
X85224354Y-84309853D01*
X85076784Y-84408456D01*
X84912812Y-84476376D01*
X84763979Y-84505980D01*
X84738742Y-84511000D01*
X84561258Y-84511000D01*
X84536021Y-84505980D01*
X84387188Y-84476376D01*
X84223216Y-84408456D01*
X84075646Y-84309853D01*
X83950147Y-84184354D01*
X83851544Y-84036784D01*
X83783624Y-83872812D01*
X83749000Y-83698741D01*
X83749000Y-83521259D01*
X83783624Y-83347188D01*
X83851544Y-83183216D01*
X83950147Y-83035646D01*
X84075646Y-82910147D01*
X84223216Y-82811544D01*
X84387188Y-82743624D01*
X84536488Y-82713927D01*
X84561258Y-82709000D01*
X84738742Y-82709000D01*
X84763512Y-82713927D01*
G37*
G36*
X70714499Y-83428445D02*
G01*
X70751995Y-83439820D01*
X70786554Y-83458292D01*
X70816847Y-83483153D01*
X70841708Y-83513446D01*
X70860180Y-83548005D01*
X70871555Y-83585501D01*
X70876000Y-83630638D01*
X70876000Y-84269362D01*
X70871555Y-84314499D01*
X70860180Y-84351995D01*
X70841708Y-84386554D01*
X70816847Y-84416847D01*
X70786554Y-84441708D01*
X70751995Y-84460180D01*
X70714499Y-84471555D01*
X70669362Y-84476000D01*
X69930638Y-84476000D01*
X69885501Y-84471555D01*
X69848005Y-84460180D01*
X69813446Y-84441708D01*
X69783153Y-84416847D01*
X69758292Y-84386554D01*
X69739820Y-84351995D01*
X69728445Y-84314499D01*
X69724000Y-84269362D01*
X69724000Y-83630638D01*
X69728445Y-83585501D01*
X69739820Y-83548005D01*
X69758292Y-83513446D01*
X69783153Y-83483153D01*
X69813446Y-83458292D01*
X69848005Y-83439820D01*
X69885501Y-83428445D01*
X69930638Y-83424000D01*
X70669362Y-83424000D01*
X70714499Y-83428445D01*
G37*
G36*
X68964499Y-83428445D02*
G01*
X69001995Y-83439820D01*
X69036554Y-83458292D01*
X69066847Y-83483153D01*
X69091708Y-83513446D01*
X69110180Y-83548005D01*
X69121555Y-83585501D01*
X69126000Y-83630638D01*
X69126000Y-84269362D01*
X69121555Y-84314499D01*
X69110180Y-84351995D01*
X69091708Y-84386554D01*
X69066847Y-84416847D01*
X69036554Y-84441708D01*
X69001995Y-84460180D01*
X68964499Y-84471555D01*
X68919362Y-84476000D01*
X68180638Y-84476000D01*
X68135501Y-84471555D01*
X68098005Y-84460180D01*
X68063446Y-84441708D01*
X68033153Y-84416847D01*
X68008292Y-84386554D01*
X67989820Y-84351995D01*
X67978445Y-84314499D01*
X67974000Y-84269362D01*
X67974000Y-83630638D01*
X67978445Y-83585501D01*
X67989820Y-83548005D01*
X68008292Y-83513446D01*
X68033153Y-83483153D01*
X68063446Y-83458292D01*
X68098005Y-83439820D01*
X68135501Y-83428445D01*
X68180638Y-83424000D01*
X68919362Y-83424000D01*
X68964499Y-83428445D01*
G37*
G36*
X60991000Y-83621000D02*
G01*
X59689000Y-83621000D01*
X59689000Y-82619000D01*
X60991000Y-82619000D01*
X60991000Y-83621000D01*
G37*
G36*
X58601000Y-83611000D02*
G01*
X57299000Y-83611000D01*
X57299000Y-82609000D01*
X58601000Y-82609000D01*
X58601000Y-83611000D01*
G37*
G36*
X70764499Y-81878445D02*
G01*
X70801995Y-81889820D01*
X70836554Y-81908292D01*
X70866847Y-81933153D01*
X70891708Y-81963446D01*
X70910180Y-81998005D01*
X70921555Y-82035501D01*
X70926000Y-82080638D01*
X70926000Y-82719362D01*
X70921555Y-82764499D01*
X70910180Y-82801995D01*
X70891708Y-82836554D01*
X70866847Y-82866847D01*
X70836554Y-82891708D01*
X70801995Y-82910180D01*
X70764499Y-82921555D01*
X70719362Y-82926000D01*
X69980638Y-82926000D01*
X69935501Y-82921555D01*
X69898005Y-82910180D01*
X69863446Y-82891708D01*
X69833153Y-82866847D01*
X69808292Y-82836554D01*
X69789820Y-82801995D01*
X69778445Y-82764499D01*
X69774000Y-82719362D01*
X69774000Y-82080638D01*
X69778445Y-82035501D01*
X69789820Y-81998005D01*
X69808292Y-81963446D01*
X69833153Y-81933153D01*
X69863446Y-81908292D01*
X69898005Y-81889820D01*
X69935501Y-81878445D01*
X69980638Y-81874000D01*
X70719362Y-81874000D01*
X70764499Y-81878445D01*
G37*
G36*
X69014499Y-81878445D02*
G01*
X69051995Y-81889820D01*
X69086554Y-81908292D01*
X69116847Y-81933153D01*
X69141708Y-81963446D01*
X69160180Y-81998005D01*
X69171555Y-82035501D01*
X69176000Y-82080638D01*
X69176000Y-82719362D01*
X69171555Y-82764499D01*
X69160180Y-82801995D01*
X69141708Y-82836554D01*
X69116847Y-82866847D01*
X69086554Y-82891708D01*
X69051995Y-82910180D01*
X69014499Y-82921555D01*
X68969362Y-82926000D01*
X68230638Y-82926000D01*
X68185501Y-82921555D01*
X68148005Y-82910180D01*
X68113446Y-82891708D01*
X68083153Y-82866847D01*
X68058292Y-82836554D01*
X68039820Y-82801995D01*
X68028445Y-82764499D01*
X68024000Y-82719362D01*
X68024000Y-82080638D01*
X68028445Y-82035501D01*
X68039820Y-81998005D01*
X68058292Y-81963446D01*
X68083153Y-81933153D01*
X68113446Y-81908292D01*
X68148005Y-81889820D01*
X68185501Y-81878445D01*
X68230638Y-81874000D01*
X68969362Y-81874000D01*
X69014499Y-81878445D01*
G37*
G36*
X65314499Y-81653445D02*
G01*
X65351995Y-81664820D01*
X65386554Y-81683292D01*
X65416847Y-81708153D01*
X65441708Y-81738446D01*
X65460180Y-81773005D01*
X65471555Y-81810501D01*
X65476000Y-81855638D01*
X65476000Y-82594362D01*
X65471555Y-82639499D01*
X65460180Y-82676995D01*
X65441708Y-82711554D01*
X65416847Y-82741847D01*
X65386554Y-82766708D01*
X65351995Y-82785180D01*
X65314499Y-82796555D01*
X65269362Y-82801000D01*
X64630638Y-82801000D01*
X64585501Y-82796555D01*
X64548005Y-82785180D01*
X64513446Y-82766708D01*
X64483153Y-82741847D01*
X64458292Y-82711554D01*
X64439820Y-82676995D01*
X64428445Y-82639499D01*
X64424000Y-82594362D01*
X64424000Y-81855638D01*
X64428445Y-81810501D01*
X64439820Y-81773005D01*
X64458292Y-81738446D01*
X64483153Y-81708153D01*
X64513446Y-81683292D01*
X64548005Y-81664820D01*
X64585501Y-81653445D01*
X64630638Y-81649000D01*
X65269362Y-81649000D01*
X65314499Y-81653445D01*
G37*
G36*
X62804499Y-81643445D02*
G01*
X62841995Y-81654820D01*
X62876554Y-81673292D01*
X62906847Y-81698153D01*
X62931708Y-81728446D01*
X62950180Y-81763005D01*
X62961555Y-81800501D01*
X62966000Y-81845638D01*
X62966000Y-82584362D01*
X62961555Y-82629499D01*
X62950180Y-82666995D01*
X62931708Y-82701554D01*
X62906847Y-82731847D01*
X62876554Y-82756708D01*
X62841995Y-82775180D01*
X62804499Y-82786555D01*
X62759362Y-82791000D01*
X62120638Y-82791000D01*
X62075501Y-82786555D01*
X62038005Y-82775180D01*
X62003446Y-82756708D01*
X61973153Y-82731847D01*
X61948292Y-82701554D01*
X61929820Y-82666995D01*
X61918445Y-82629499D01*
X61914000Y-82584362D01*
X61914000Y-81845638D01*
X61918445Y-81800501D01*
X61929820Y-81763005D01*
X61948292Y-81728446D01*
X61973153Y-81698153D01*
X62003446Y-81673292D01*
X62038005Y-81654820D01*
X62075501Y-81643445D01*
X62120638Y-81639000D01*
X62759362Y-81639000D01*
X62804499Y-81643445D01*
G37*
G36*
X79073500Y-82448500D02*
G01*
X77221500Y-82448500D01*
X77221500Y-81246500D01*
X79073500Y-81246500D01*
X79073500Y-82448500D01*
G37*
G36*
X56354499Y-81078445D02*
G01*
X56391995Y-81089820D01*
X56426554Y-81108292D01*
X56456847Y-81133153D01*
X56481708Y-81163446D01*
X56500180Y-81198005D01*
X56511555Y-81235501D01*
X56516000Y-81280638D01*
X56516000Y-81919362D01*
X56511555Y-81964499D01*
X56500180Y-82001995D01*
X56481708Y-82036554D01*
X56456847Y-82066847D01*
X56426554Y-82091708D01*
X56391995Y-82110180D01*
X56354499Y-82121555D01*
X56309362Y-82126000D01*
X55570638Y-82126000D01*
X55525501Y-82121555D01*
X55488005Y-82110180D01*
X55453446Y-82091708D01*
X55423153Y-82066847D01*
X55398292Y-82036554D01*
X55379820Y-82001995D01*
X55368445Y-81964499D01*
X55364000Y-81919362D01*
X55364000Y-81280638D01*
X55368445Y-81235501D01*
X55379820Y-81198005D01*
X55398292Y-81163446D01*
X55423153Y-81133153D01*
X55453446Y-81108292D01*
X55488005Y-81089820D01*
X55525501Y-81078445D01*
X55570638Y-81074000D01*
X56309362Y-81074000D01*
X56354499Y-81078445D01*
G37*
G36*
X54604499Y-81078445D02*
G01*
X54641995Y-81089820D01*
X54676554Y-81108292D01*
X54706847Y-81133153D01*
X54731708Y-81163446D01*
X54750180Y-81198005D01*
X54761555Y-81235501D01*
X54766000Y-81280638D01*
X54766000Y-81919362D01*
X54761555Y-81964499D01*
X54750180Y-82001995D01*
X54731708Y-82036554D01*
X54706847Y-82066847D01*
X54676554Y-82091708D01*
X54641995Y-82110180D01*
X54604499Y-82121555D01*
X54559362Y-82126000D01*
X53820638Y-82126000D01*
X53775501Y-82121555D01*
X53738005Y-82110180D01*
X53703446Y-82091708D01*
X53673153Y-82066847D01*
X53648292Y-82036554D01*
X53629820Y-82001995D01*
X53618445Y-81964499D01*
X53614000Y-81919362D01*
X53614000Y-81280638D01*
X53618445Y-81235501D01*
X53629820Y-81198005D01*
X53648292Y-81163446D01*
X53673153Y-81133153D01*
X53703446Y-81108292D01*
X53738005Y-81089820D01*
X53775501Y-81078445D01*
X53820638Y-81074000D01*
X54559362Y-81074000D01*
X54604499Y-81078445D01*
G37*
G36*
X84763512Y-80173927D02*
G01*
X84912812Y-80203624D01*
X85076784Y-80271544D01*
X85224354Y-80370147D01*
X85349853Y-80495646D01*
X85448456Y-80643216D01*
X85516376Y-80807188D01*
X85551000Y-80981259D01*
X85551000Y-81158741D01*
X85516376Y-81332812D01*
X85448456Y-81496784D01*
X85349853Y-81644354D01*
X85224354Y-81769853D01*
X85076784Y-81868456D01*
X84912812Y-81936376D01*
X84763512Y-81966073D01*
X84738742Y-81971000D01*
X84561258Y-81971000D01*
X84536488Y-81966073D01*
X84387188Y-81936376D01*
X84223216Y-81868456D01*
X84075646Y-81769853D01*
X83950147Y-81644354D01*
X83851544Y-81496784D01*
X83783624Y-81332812D01*
X83749000Y-81158741D01*
X83749000Y-80981259D01*
X83783624Y-80807188D01*
X83851544Y-80643216D01*
X83950147Y-80495646D01*
X84075646Y-80370147D01*
X84223216Y-80271544D01*
X84387188Y-80203624D01*
X84536488Y-80173927D01*
X84561258Y-80169000D01*
X84738742Y-80169000D01*
X84763512Y-80173927D01*
G37*
G36*
X74118604Y-79928347D02*
G01*
X74155144Y-79939432D01*
X74188821Y-79957433D01*
X74218341Y-79981659D01*
X74242567Y-80011179D01*
X74260568Y-80044856D01*
X74271653Y-80081396D01*
X74276000Y-80125538D01*
X74276000Y-81074462D01*
X74271653Y-81118604D01*
X74260568Y-81155144D01*
X74242567Y-81188821D01*
X74218341Y-81218341D01*
X74188821Y-81242567D01*
X74155144Y-81260568D01*
X74118604Y-81271653D01*
X74074462Y-81276000D01*
X71725538Y-81276000D01*
X71681396Y-81271653D01*
X71644856Y-81260568D01*
X71611179Y-81242567D01*
X71581659Y-81218341D01*
X71557433Y-81188821D01*
X71539432Y-81155144D01*
X71528347Y-81118604D01*
X71524000Y-81074462D01*
X71524000Y-80125538D01*
X71528347Y-80081396D01*
X71539432Y-80044856D01*
X71557433Y-80011179D01*
X71581659Y-79981659D01*
X71611179Y-79957433D01*
X71644856Y-79939432D01*
X71681396Y-79928347D01*
X71725538Y-79924000D01*
X74074462Y-79924000D01*
X74118604Y-79928347D01*
G37*
G36*
X80423500Y-81098500D02*
G01*
X79221500Y-81098500D01*
X79221500Y-79246500D01*
X80423500Y-79246500D01*
X80423500Y-81098500D01*
G37*
G36*
X77073500Y-81098500D02*
G01*
X75871500Y-81098500D01*
X75871500Y-79246500D01*
X77073500Y-79246500D01*
X77073500Y-81098500D01*
G37*
G36*
X70575562Y-79515681D02*
G01*
X70610481Y-79526274D01*
X70642663Y-79543476D01*
X70670873Y-79566627D01*
X70694024Y-79594837D01*
X70711226Y-79627019D01*
X70721819Y-79661938D01*
X70726000Y-79704395D01*
X70726000Y-80845605D01*
X70721819Y-80888062D01*
X70711226Y-80922981D01*
X70694024Y-80955163D01*
X70670873Y-80983373D01*
X70642663Y-81006524D01*
X70610481Y-81023726D01*
X70575562Y-81034319D01*
X70533105Y-81038500D01*
X69066895Y-81038500D01*
X69024438Y-81034319D01*
X68989519Y-81023726D01*
X68957337Y-81006524D01*
X68929127Y-80983373D01*
X68905976Y-80955163D01*
X68888774Y-80922981D01*
X68878181Y-80888062D01*
X68874000Y-80845605D01*
X68874000Y-79704395D01*
X68878181Y-79661938D01*
X68888774Y-79627019D01*
X68905976Y-79594837D01*
X68929127Y-79566627D01*
X68957337Y-79543476D01*
X68989519Y-79526274D01*
X69024438Y-79515681D01*
X69066895Y-79511500D01*
X70533105Y-79511500D01*
X70575562Y-79515681D01*
G37*
G36*
X65481000Y-81011000D02*
G01*
X64379000Y-81011000D01*
X64379000Y-79109000D01*
X65481000Y-79109000D01*
X65481000Y-81011000D01*
G37*
G36*
X62981000Y-81011000D02*
G01*
X61879000Y-81011000D01*
X61879000Y-79109000D01*
X62981000Y-79109000D01*
X62981000Y-81011000D01*
G37*
G36*
X78830500Y-80855500D02*
G01*
X77464500Y-80855500D01*
X77464500Y-79489500D01*
X78830500Y-79489500D01*
X78830500Y-80855500D01*
G37*
G36*
X54524499Y-79433445D02*
G01*
X54561995Y-79444820D01*
X54596554Y-79463292D01*
X54626847Y-79488153D01*
X54651708Y-79518446D01*
X54670180Y-79553005D01*
X54681555Y-79590501D01*
X54686000Y-79635638D01*
X54686000Y-80374362D01*
X54681555Y-80419499D01*
X54670180Y-80456995D01*
X54651708Y-80491554D01*
X54626847Y-80521847D01*
X54596554Y-80546708D01*
X54561995Y-80565180D01*
X54524499Y-80576555D01*
X54479362Y-80581000D01*
X53840638Y-80581000D01*
X53795501Y-80576555D01*
X53758005Y-80565180D01*
X53723446Y-80546708D01*
X53693153Y-80521847D01*
X53668292Y-80491554D01*
X53649820Y-80456995D01*
X53638445Y-80419499D01*
X53634000Y-80374362D01*
X53634000Y-79635638D01*
X53638445Y-79590501D01*
X53649820Y-79553005D01*
X53668292Y-79518446D01*
X53693153Y-79488153D01*
X53723446Y-79463292D01*
X53758005Y-79444820D01*
X53795501Y-79433445D01*
X53840638Y-79429000D01*
X54479362Y-79429000D01*
X54524499Y-79433445D01*
G37*
G36*
X56104499Y-79433445D02*
G01*
X56141995Y-79444820D01*
X56176554Y-79463292D01*
X56206847Y-79488153D01*
X56231708Y-79518446D01*
X56250180Y-79553005D01*
X56261555Y-79590501D01*
X56266000Y-79635638D01*
X56266000Y-80374362D01*
X56261555Y-80419499D01*
X56250180Y-80456995D01*
X56231708Y-80491554D01*
X56206847Y-80521847D01*
X56176554Y-80546708D01*
X56141995Y-80565180D01*
X56104499Y-80576555D01*
X56059362Y-80581000D01*
X55420638Y-80581000D01*
X55375501Y-80576555D01*
X55338005Y-80565180D01*
X55303446Y-80546708D01*
X55273153Y-80521847D01*
X55248292Y-80491554D01*
X55229820Y-80456995D01*
X55218445Y-80419499D01*
X55214000Y-80374362D01*
X55214000Y-79635638D01*
X55218445Y-79590501D01*
X55229820Y-79553005D01*
X55248292Y-79518446D01*
X55273153Y-79488153D01*
X55303446Y-79463292D01*
X55338005Y-79444820D01*
X55375501Y-79433445D01*
X55420638Y-79429000D01*
X56059362Y-79429000D01*
X56104499Y-79433445D01*
G37*
G36*
X59214499Y-79428445D02*
G01*
X59251995Y-79439820D01*
X59286554Y-79458292D01*
X59316847Y-79483153D01*
X59341708Y-79513446D01*
X59360180Y-79548005D01*
X59371555Y-79585501D01*
X59376000Y-79630638D01*
X59376000Y-80369362D01*
X59371555Y-80414499D01*
X59360180Y-80451995D01*
X59341708Y-80486554D01*
X59316847Y-80516847D01*
X59286554Y-80541708D01*
X59251995Y-80560180D01*
X59214499Y-80571555D01*
X59169362Y-80576000D01*
X58530638Y-80576000D01*
X58485501Y-80571555D01*
X58448005Y-80560180D01*
X58413446Y-80541708D01*
X58383153Y-80516847D01*
X58358292Y-80486554D01*
X58339820Y-80451995D01*
X58328445Y-80414499D01*
X58324000Y-80369362D01*
X58324000Y-79630638D01*
X58328445Y-79585501D01*
X58339820Y-79548005D01*
X58358292Y-79513446D01*
X58383153Y-79483153D01*
X58413446Y-79458292D01*
X58448005Y-79439820D01*
X58485501Y-79428445D01*
X58530638Y-79424000D01*
X59169362Y-79424000D01*
X59214499Y-79428445D01*
G37*
G36*
X57654499Y-79428445D02*
G01*
X57691995Y-79439820D01*
X57726554Y-79458292D01*
X57756847Y-79483153D01*
X57781708Y-79513446D01*
X57800180Y-79548005D01*
X57811555Y-79585501D01*
X57816000Y-79630638D01*
X57816000Y-80369362D01*
X57811555Y-80414499D01*
X57800180Y-80451995D01*
X57781708Y-80486554D01*
X57756847Y-80516847D01*
X57726554Y-80541708D01*
X57691995Y-80560180D01*
X57654499Y-80571555D01*
X57609362Y-80576000D01*
X56970638Y-80576000D01*
X56925501Y-80571555D01*
X56888005Y-80560180D01*
X56853446Y-80541708D01*
X56823153Y-80516847D01*
X56798292Y-80486554D01*
X56779820Y-80451995D01*
X56768445Y-80414499D01*
X56764000Y-80369362D01*
X56764000Y-79630638D01*
X56768445Y-79585501D01*
X56779820Y-79548005D01*
X56798292Y-79513446D01*
X56823153Y-79483153D01*
X56853446Y-79458292D01*
X56888005Y-79439820D01*
X56925501Y-79428445D01*
X56970638Y-79424000D01*
X57609362Y-79424000D01*
X57654499Y-79428445D01*
G37*
G36*
X60754499Y-79418445D02*
G01*
X60791995Y-79429820D01*
X60826554Y-79448292D01*
X60856847Y-79473153D01*
X60881708Y-79503446D01*
X60900180Y-79538005D01*
X60911555Y-79575501D01*
X60916000Y-79620638D01*
X60916000Y-80359362D01*
X60911555Y-80404499D01*
X60900180Y-80441995D01*
X60881708Y-80476554D01*
X60856847Y-80506847D01*
X60826554Y-80531708D01*
X60791995Y-80550180D01*
X60754499Y-80561555D01*
X60709362Y-80566000D01*
X60070638Y-80566000D01*
X60025501Y-80561555D01*
X59988005Y-80550180D01*
X59953446Y-80531708D01*
X59923153Y-80506847D01*
X59898292Y-80476554D01*
X59879820Y-80441995D01*
X59868445Y-80404499D01*
X59864000Y-80359362D01*
X59864000Y-79620638D01*
X59868445Y-79575501D01*
X59879820Y-79538005D01*
X59898292Y-79503446D01*
X59923153Y-79473153D01*
X59953446Y-79448292D01*
X59988005Y-79429820D01*
X60025501Y-79418445D01*
X60070638Y-79414000D01*
X60709362Y-79414000D01*
X60754499Y-79418445D01*
G37*
G36*
X84763512Y-77633927D02*
G01*
X84912812Y-77663624D01*
X85076784Y-77731544D01*
X85224354Y-77830147D01*
X85349853Y-77955646D01*
X85448456Y-78103216D01*
X85516376Y-78267188D01*
X85541152Y-78391751D01*
X85551000Y-78441258D01*
X85551000Y-78618742D01*
X85549882Y-78624362D01*
X85516376Y-78792812D01*
X85448456Y-78956784D01*
X85349853Y-79104354D01*
X85224354Y-79229853D01*
X85076784Y-79328456D01*
X84912812Y-79396376D01*
X84773933Y-79424000D01*
X84738742Y-79431000D01*
X84561258Y-79431000D01*
X84526067Y-79424000D01*
X84387188Y-79396376D01*
X84223216Y-79328456D01*
X84075646Y-79229853D01*
X83950147Y-79104354D01*
X83851544Y-78956784D01*
X83783624Y-78792812D01*
X83750118Y-78624362D01*
X83749000Y-78618742D01*
X83749000Y-78441258D01*
X83758848Y-78391751D01*
X83783624Y-78267188D01*
X83851544Y-78103216D01*
X83950147Y-77955646D01*
X84075646Y-77830147D01*
X84223216Y-77731544D01*
X84387188Y-77663624D01*
X84536488Y-77633927D01*
X84561258Y-77629000D01*
X84738742Y-77629000D01*
X84763512Y-77633927D01*
G37*
G36*
X79073500Y-79098500D02*
G01*
X77221500Y-79098500D01*
X77221500Y-77896500D01*
X79073500Y-77896500D01*
X79073500Y-79098500D01*
G37*
G36*
X56104499Y-77683445D02*
G01*
X56141995Y-77694820D01*
X56176554Y-77713292D01*
X56206847Y-77738153D01*
X56231708Y-77768446D01*
X56250180Y-77803005D01*
X56261555Y-77840501D01*
X56266000Y-77885638D01*
X56266000Y-78624362D01*
X56261555Y-78669499D01*
X56250180Y-78706995D01*
X56231708Y-78741554D01*
X56206847Y-78771847D01*
X56176554Y-78796708D01*
X56141995Y-78815180D01*
X56104499Y-78826555D01*
X56059362Y-78831000D01*
X55420638Y-78831000D01*
X55375501Y-78826555D01*
X55338005Y-78815180D01*
X55303446Y-78796708D01*
X55273153Y-78771847D01*
X55248292Y-78741554D01*
X55229820Y-78706995D01*
X55218445Y-78669499D01*
X55214000Y-78624362D01*
X55214000Y-77885638D01*
X55218445Y-77840501D01*
X55229820Y-77803005D01*
X55248292Y-77768446D01*
X55273153Y-77738153D01*
X55303446Y-77713292D01*
X55338005Y-77694820D01*
X55375501Y-77683445D01*
X55420638Y-77679000D01*
X56059362Y-77679000D01*
X56104499Y-77683445D01*
G37*
G36*
X54524499Y-77683445D02*
G01*
X54561995Y-77694820D01*
X54596554Y-77713292D01*
X54626847Y-77738153D01*
X54651708Y-77768446D01*
X54670180Y-77803005D01*
X54681555Y-77840501D01*
X54686000Y-77885638D01*
X54686000Y-78624362D01*
X54681555Y-78669499D01*
X54670180Y-78706995D01*
X54651708Y-78741554D01*
X54626847Y-78771847D01*
X54596554Y-78796708D01*
X54561995Y-78815180D01*
X54524499Y-78826555D01*
X54479362Y-78831000D01*
X53840638Y-78831000D01*
X53795501Y-78826555D01*
X53758005Y-78815180D01*
X53723446Y-78796708D01*
X53693153Y-78771847D01*
X53668292Y-78741554D01*
X53649820Y-78706995D01*
X53638445Y-78669499D01*
X53634000Y-78624362D01*
X53634000Y-77885638D01*
X53638445Y-77840501D01*
X53649820Y-77803005D01*
X53668292Y-77768446D01*
X53693153Y-77738153D01*
X53723446Y-77713292D01*
X53758005Y-77694820D01*
X53795501Y-77683445D01*
X53840638Y-77679000D01*
X54479362Y-77679000D01*
X54524499Y-77683445D01*
G37*
G36*
X59214499Y-77678445D02*
G01*
X59251995Y-77689820D01*
X59286554Y-77708292D01*
X59316847Y-77733153D01*
X59341708Y-77763446D01*
X59360180Y-77798005D01*
X59371555Y-77835501D01*
X59376000Y-77880638D01*
X59376000Y-78619362D01*
X59371555Y-78664499D01*
X59360180Y-78701995D01*
X59341708Y-78736554D01*
X59316847Y-78766847D01*
X59286554Y-78791708D01*
X59251995Y-78810180D01*
X59214499Y-78821555D01*
X59169362Y-78826000D01*
X58530638Y-78826000D01*
X58485501Y-78821555D01*
X58448005Y-78810180D01*
X58413446Y-78791708D01*
X58383153Y-78766847D01*
X58358292Y-78736554D01*
X58339820Y-78701995D01*
X58328445Y-78664499D01*
X58324000Y-78619362D01*
X58324000Y-77880638D01*
X58328445Y-77835501D01*
X58339820Y-77798005D01*
X58358292Y-77763446D01*
X58383153Y-77733153D01*
X58413446Y-77708292D01*
X58448005Y-77689820D01*
X58485501Y-77678445D01*
X58530638Y-77674000D01*
X59169362Y-77674000D01*
X59214499Y-77678445D01*
G37*
G36*
X57654499Y-77678445D02*
G01*
X57691995Y-77689820D01*
X57726554Y-77708292D01*
X57756847Y-77733153D01*
X57781708Y-77763446D01*
X57800180Y-77798005D01*
X57811555Y-77835501D01*
X57816000Y-77880638D01*
X57816000Y-78619362D01*
X57811555Y-78664499D01*
X57800180Y-78701995D01*
X57781708Y-78736554D01*
X57756847Y-78766847D01*
X57726554Y-78791708D01*
X57691995Y-78810180D01*
X57654499Y-78821555D01*
X57609362Y-78826000D01*
X56970638Y-78826000D01*
X56925501Y-78821555D01*
X56888005Y-78810180D01*
X56853446Y-78791708D01*
X56823153Y-78766847D01*
X56798292Y-78736554D01*
X56779820Y-78701995D01*
X56768445Y-78664499D01*
X56764000Y-78619362D01*
X56764000Y-77880638D01*
X56768445Y-77835501D01*
X56779820Y-77798005D01*
X56798292Y-77763446D01*
X56823153Y-77733153D01*
X56853446Y-77708292D01*
X56888005Y-77689820D01*
X56925501Y-77678445D01*
X56970638Y-77674000D01*
X57609362Y-77674000D01*
X57654499Y-77678445D01*
G37*
G36*
X60754499Y-77668445D02*
G01*
X60791995Y-77679820D01*
X60826554Y-77698292D01*
X60856847Y-77723153D01*
X60881708Y-77753446D01*
X60900180Y-77788005D01*
X60911555Y-77825501D01*
X60916000Y-77870638D01*
X60916000Y-78609362D01*
X60911555Y-78654499D01*
X60900180Y-78691995D01*
X60881708Y-78726554D01*
X60856847Y-78756847D01*
X60826554Y-78781708D01*
X60791995Y-78800180D01*
X60754499Y-78811555D01*
X60709362Y-78816000D01*
X60070638Y-78816000D01*
X60025501Y-78811555D01*
X59988005Y-78800180D01*
X59953446Y-78781708D01*
X59923153Y-78756847D01*
X59898292Y-78726554D01*
X59879820Y-78691995D01*
X59868445Y-78654499D01*
X59864000Y-78609362D01*
X59864000Y-77870638D01*
X59868445Y-77825501D01*
X59879820Y-77788005D01*
X59898292Y-77753446D01*
X59923153Y-77723153D01*
X59953446Y-77698292D01*
X59988005Y-77679820D01*
X60025501Y-77668445D01*
X60070638Y-77664000D01*
X60709362Y-77664000D01*
X60754499Y-77668445D01*
G37*
G36*
X64396938Y-77791716D02*
G01*
X64417557Y-77797971D01*
X64436553Y-77808124D01*
X64453208Y-77821792D01*
X64466876Y-77838447D01*
X64477029Y-77857443D01*
X64483284Y-77878062D01*
X64486000Y-77905640D01*
X64486000Y-78414360D01*
X64483284Y-78441938D01*
X64477029Y-78462557D01*
X64466876Y-78481553D01*
X64453208Y-78498208D01*
X64436553Y-78511876D01*
X64417557Y-78522029D01*
X64396938Y-78528284D01*
X64369360Y-78531000D01*
X63910640Y-78531000D01*
X63883062Y-78528284D01*
X63862443Y-78522029D01*
X63843447Y-78511876D01*
X63826792Y-78498208D01*
X63813124Y-78481553D01*
X63802971Y-78462557D01*
X63796716Y-78441938D01*
X63794000Y-78414360D01*
X63794000Y-77905640D01*
X63796716Y-77878062D01*
X63802971Y-77857443D01*
X63813124Y-77838447D01*
X63826792Y-77821792D01*
X63843447Y-77808124D01*
X63862443Y-77797971D01*
X63883062Y-77791716D01*
X63910640Y-77789000D01*
X64369360Y-77789000D01*
X64396938Y-77791716D01*
G37*
G36*
X63426938Y-77791716D02*
G01*
X63447557Y-77797971D01*
X63466553Y-77808124D01*
X63483208Y-77821792D01*
X63496876Y-77838447D01*
X63507029Y-77857443D01*
X63513284Y-77878062D01*
X63516000Y-77905640D01*
X63516000Y-78414360D01*
X63513284Y-78441938D01*
X63507029Y-78462557D01*
X63496876Y-78481553D01*
X63483208Y-78498208D01*
X63466553Y-78511876D01*
X63447557Y-78522029D01*
X63426938Y-78528284D01*
X63399360Y-78531000D01*
X62940640Y-78531000D01*
X62913062Y-78528284D01*
X62892443Y-78522029D01*
X62873447Y-78511876D01*
X62856792Y-78498208D01*
X62843124Y-78481553D01*
X62832971Y-78462557D01*
X62826716Y-78441938D01*
X62824000Y-78414360D01*
X62824000Y-77905640D01*
X62826716Y-77878062D01*
X62832971Y-77857443D01*
X62843124Y-77838447D01*
X62856792Y-77821792D01*
X62873447Y-77808124D01*
X62892443Y-77797971D01*
X62913062Y-77791716D01*
X62940640Y-77789000D01*
X63399360Y-77789000D01*
X63426938Y-77791716D01*
G37*
G36*
X74118604Y-77128347D02*
G01*
X74155144Y-77139432D01*
X74188821Y-77157433D01*
X74218341Y-77181659D01*
X74242567Y-77211179D01*
X74260568Y-77244856D01*
X74271653Y-77281396D01*
X74276000Y-77325538D01*
X74276000Y-78274462D01*
X74271653Y-78318604D01*
X74260568Y-78355144D01*
X74242567Y-78388821D01*
X74218341Y-78418341D01*
X74188821Y-78442567D01*
X74155144Y-78460568D01*
X74118604Y-78471653D01*
X74074462Y-78476000D01*
X71725538Y-78476000D01*
X71681396Y-78471653D01*
X71644856Y-78460568D01*
X71611179Y-78442567D01*
X71581659Y-78418341D01*
X71557433Y-78388821D01*
X71539432Y-78355144D01*
X71528347Y-78318604D01*
X71524000Y-78274462D01*
X71524000Y-77325538D01*
X71528347Y-77281396D01*
X71539432Y-77244856D01*
X71557433Y-77211179D01*
X71581659Y-77181659D01*
X71611179Y-77157433D01*
X71644856Y-77139432D01*
X71681396Y-77128347D01*
X71725538Y-77124000D01*
X74074462Y-77124000D01*
X74118604Y-77128347D01*
G37*
G36*
X70575562Y-76540681D02*
G01*
X70610481Y-76551274D01*
X70642663Y-76568476D01*
X70670873Y-76591627D01*
X70694024Y-76619837D01*
X70711226Y-76652019D01*
X70721819Y-76686938D01*
X70726000Y-76729395D01*
X70726000Y-77870605D01*
X70721819Y-77913062D01*
X70711226Y-77947981D01*
X70694024Y-77980163D01*
X70670873Y-78008373D01*
X70642663Y-78031524D01*
X70610481Y-78048726D01*
X70575562Y-78059319D01*
X70533105Y-78063500D01*
X69066895Y-78063500D01*
X69024438Y-78059319D01*
X68989519Y-78048726D01*
X68957337Y-78031524D01*
X68929127Y-78008373D01*
X68905976Y-77980163D01*
X68888774Y-77947981D01*
X68878181Y-77913062D01*
X68874000Y-77870605D01*
X68874000Y-76729395D01*
X68878181Y-76686938D01*
X68888774Y-76652019D01*
X68905976Y-76619837D01*
X68929127Y-76591627D01*
X68957337Y-76568476D01*
X68989519Y-76551274D01*
X69024438Y-76540681D01*
X69066895Y-76536500D01*
X70533105Y-76536500D01*
X70575562Y-76540681D01*
G37*
G36*
X58339499Y-76098445D02*
G01*
X58376995Y-76109820D01*
X58411554Y-76128292D01*
X58441847Y-76153153D01*
X58466708Y-76183446D01*
X58485180Y-76218005D01*
X58496555Y-76255501D01*
X58501000Y-76300638D01*
X58501000Y-76939362D01*
X58496555Y-76984499D01*
X58485180Y-77021995D01*
X58466708Y-77056554D01*
X58441847Y-77086847D01*
X58411554Y-77111708D01*
X58376995Y-77130180D01*
X58339499Y-77141555D01*
X58294362Y-77146000D01*
X57555638Y-77146000D01*
X57510501Y-77141555D01*
X57473005Y-77130180D01*
X57438446Y-77111708D01*
X57408153Y-77086847D01*
X57383292Y-77056554D01*
X57364820Y-77021995D01*
X57353445Y-76984499D01*
X57349000Y-76939362D01*
X57349000Y-76300638D01*
X57353445Y-76255501D01*
X57364820Y-76218005D01*
X57383292Y-76183446D01*
X57408153Y-76153153D01*
X57438446Y-76128292D01*
X57473005Y-76109820D01*
X57510501Y-76098445D01*
X57555638Y-76094000D01*
X58294362Y-76094000D01*
X58339499Y-76098445D01*
G37*
G36*
X56589499Y-76098445D02*
G01*
X56626995Y-76109820D01*
X56661554Y-76128292D01*
X56691847Y-76153153D01*
X56716708Y-76183446D01*
X56735180Y-76218005D01*
X56746555Y-76255501D01*
X56751000Y-76300638D01*
X56751000Y-76939362D01*
X56746555Y-76984499D01*
X56735180Y-77021995D01*
X56716708Y-77056554D01*
X56691847Y-77086847D01*
X56661554Y-77111708D01*
X56626995Y-77130180D01*
X56589499Y-77141555D01*
X56544362Y-77146000D01*
X55805638Y-77146000D01*
X55760501Y-77141555D01*
X55723005Y-77130180D01*
X55688446Y-77111708D01*
X55658153Y-77086847D01*
X55633292Y-77056554D01*
X55614820Y-77021995D01*
X55603445Y-76984499D01*
X55599000Y-76939362D01*
X55599000Y-76300638D01*
X55603445Y-76255501D01*
X55614820Y-76218005D01*
X55633292Y-76183446D01*
X55658153Y-76153153D01*
X55688446Y-76128292D01*
X55723005Y-76109820D01*
X55760501Y-76098445D01*
X55805638Y-76094000D01*
X56544362Y-76094000D01*
X56589499Y-76098445D01*
G37*
G36*
X66606000Y-76931000D02*
G01*
X65454000Y-76931000D01*
X65454000Y-76339000D01*
X66606000Y-76339000D01*
X66606000Y-76931000D01*
G37*
G36*
X60406000Y-76931000D02*
G01*
X59254000Y-76931000D01*
X59254000Y-76339000D01*
X60406000Y-76339000D01*
X60406000Y-76931000D01*
G37*
G36*
X84763512Y-75093927D02*
G01*
X84912812Y-75123624D01*
X85076784Y-75191544D01*
X85224354Y-75290147D01*
X85349853Y-75415646D01*
X85448456Y-75563216D01*
X85516376Y-75727188D01*
X85551000Y-75901259D01*
X85551000Y-76078741D01*
X85516376Y-76252812D01*
X85448456Y-76416784D01*
X85349853Y-76564354D01*
X85224354Y-76689853D01*
X85076784Y-76788456D01*
X84912812Y-76856376D01*
X84763512Y-76886073D01*
X84738742Y-76891000D01*
X84561258Y-76891000D01*
X84536488Y-76886073D01*
X84387188Y-76856376D01*
X84223216Y-76788456D01*
X84075646Y-76689853D01*
X83950147Y-76564354D01*
X83851544Y-76416784D01*
X83783624Y-76252812D01*
X83749000Y-76078741D01*
X83749000Y-75901259D01*
X83783624Y-75727188D01*
X83851544Y-75563216D01*
X83950147Y-75415646D01*
X84075646Y-75290147D01*
X84223216Y-75191544D01*
X84387188Y-75123624D01*
X84536488Y-75093927D01*
X84561258Y-75089000D01*
X84738742Y-75089000D01*
X84763512Y-75093927D01*
G37*
G36*
X74614499Y-75428445D02*
G01*
X74651995Y-75439820D01*
X74686554Y-75458292D01*
X74716847Y-75483153D01*
X74741708Y-75513446D01*
X74760180Y-75548005D01*
X74771555Y-75585501D01*
X74776000Y-75630638D01*
X74776000Y-76369362D01*
X74771555Y-76414499D01*
X74760180Y-76451995D01*
X74741708Y-76486554D01*
X74716847Y-76516847D01*
X74686554Y-76541708D01*
X74651995Y-76560180D01*
X74614499Y-76571555D01*
X74569362Y-76576000D01*
X73930638Y-76576000D01*
X73885501Y-76571555D01*
X73848005Y-76560180D01*
X73813446Y-76541708D01*
X73783153Y-76516847D01*
X73758292Y-76486554D01*
X73739820Y-76451995D01*
X73728445Y-76414499D01*
X73724000Y-76369362D01*
X73724000Y-75630638D01*
X73728445Y-75585501D01*
X73739820Y-75548005D01*
X73758292Y-75513446D01*
X73783153Y-75483153D01*
X73813446Y-75458292D01*
X73848005Y-75439820D01*
X73885501Y-75428445D01*
X73930638Y-75424000D01*
X74569362Y-75424000D01*
X74614499Y-75428445D01*
G37*
G36*
X78163899Y-75500645D02*
G01*
X78201395Y-75512020D01*
X78235954Y-75530492D01*
X78266247Y-75555353D01*
X78291108Y-75585646D01*
X78309580Y-75620205D01*
X78320955Y-75657701D01*
X78325400Y-75702838D01*
X78325400Y-76341562D01*
X78320955Y-76386699D01*
X78309580Y-76424195D01*
X78291108Y-76458754D01*
X78266247Y-76489047D01*
X78235954Y-76513908D01*
X78201395Y-76532380D01*
X78163899Y-76543755D01*
X78118762Y-76548200D01*
X77380038Y-76548200D01*
X77334901Y-76543755D01*
X77297405Y-76532380D01*
X77262846Y-76513908D01*
X77232553Y-76489047D01*
X77207692Y-76458754D01*
X77189220Y-76424195D01*
X77177845Y-76386699D01*
X77173400Y-76341562D01*
X77173400Y-75702838D01*
X77177845Y-75657701D01*
X77189220Y-75620205D01*
X77207692Y-75585646D01*
X77232553Y-75555353D01*
X77262846Y-75530492D01*
X77297405Y-75512020D01*
X77334901Y-75500645D01*
X77380038Y-75496200D01*
X78118762Y-75496200D01*
X78163899Y-75500645D01*
G37*
G36*
X76413899Y-75500645D02*
G01*
X76451395Y-75512020D01*
X76485954Y-75530492D01*
X76516247Y-75555353D01*
X76541108Y-75585646D01*
X76559580Y-75620205D01*
X76570955Y-75657701D01*
X76575400Y-75702838D01*
X76575400Y-76341562D01*
X76570955Y-76386699D01*
X76559580Y-76424195D01*
X76541108Y-76458754D01*
X76516247Y-76489047D01*
X76485954Y-76513908D01*
X76451395Y-76532380D01*
X76413899Y-76543755D01*
X76368762Y-76548200D01*
X75630038Y-76548200D01*
X75584901Y-76543755D01*
X75547405Y-76532380D01*
X75512846Y-76513908D01*
X75482553Y-76489047D01*
X75457692Y-76458754D01*
X75439220Y-76424195D01*
X75427845Y-76386699D01*
X75423400Y-76341562D01*
X75423400Y-75702838D01*
X75427845Y-75657701D01*
X75439220Y-75620205D01*
X75457692Y-75585646D01*
X75482553Y-75555353D01*
X75512846Y-75530492D01*
X75547405Y-75512020D01*
X75584901Y-75500645D01*
X75630038Y-75496200D01*
X76368762Y-75496200D01*
X76413899Y-75500645D01*
G37*
G36*
X60406000Y-75661000D02*
G01*
X59254000Y-75661000D01*
X59254000Y-75069000D01*
X60406000Y-75069000D01*
X60406000Y-75661000D01*
G37*
G36*
X66606000Y-75661000D02*
G01*
X65454000Y-75661000D01*
X65454000Y-75069000D01*
X66606000Y-75069000D01*
X66606000Y-75661000D01*
G37*
G36*
X69451000Y-75451000D02*
G01*
X68349000Y-75451000D01*
X68349000Y-74349000D01*
X69451000Y-74349000D01*
X69451000Y-75451000D01*
G37*
G36*
X58564499Y-73818445D02*
G01*
X58601995Y-73829820D01*
X58636554Y-73848292D01*
X58666847Y-73873153D01*
X58691708Y-73903446D01*
X58710180Y-73938005D01*
X58721555Y-73975501D01*
X58726000Y-74020638D01*
X58726000Y-74759362D01*
X58721555Y-74804499D01*
X58710180Y-74841995D01*
X58691708Y-74876554D01*
X58666847Y-74906847D01*
X58636554Y-74931708D01*
X58601995Y-74950180D01*
X58564499Y-74961555D01*
X58519362Y-74966000D01*
X57880638Y-74966000D01*
X57835501Y-74961555D01*
X57798005Y-74950180D01*
X57763446Y-74931708D01*
X57733153Y-74906847D01*
X57708292Y-74876554D01*
X57689820Y-74841995D01*
X57678445Y-74804499D01*
X57674000Y-74759362D01*
X57674000Y-74020638D01*
X57678445Y-73975501D01*
X57689820Y-73938005D01*
X57708292Y-73903446D01*
X57733153Y-73873153D01*
X57763446Y-73848292D01*
X57798005Y-73829820D01*
X57835501Y-73818445D01*
X57880638Y-73814000D01*
X58519362Y-73814000D01*
X58564499Y-73818445D01*
G37*
G36*
X57034499Y-73818445D02*
G01*
X57071995Y-73829820D01*
X57106554Y-73848292D01*
X57136847Y-73873153D01*
X57161708Y-73903446D01*
X57180180Y-73938005D01*
X57191555Y-73975501D01*
X57196000Y-74020638D01*
X57196000Y-74759362D01*
X57191555Y-74804499D01*
X57180180Y-74841995D01*
X57161708Y-74876554D01*
X57136847Y-74906847D01*
X57106554Y-74931708D01*
X57071995Y-74950180D01*
X57034499Y-74961555D01*
X56989362Y-74966000D01*
X56350638Y-74966000D01*
X56305501Y-74961555D01*
X56268005Y-74950180D01*
X56233446Y-74931708D01*
X56203153Y-74906847D01*
X56178292Y-74876554D01*
X56159820Y-74841995D01*
X56148445Y-74804499D01*
X56144000Y-74759362D01*
X56144000Y-74020638D01*
X56148445Y-73975501D01*
X56159820Y-73938005D01*
X56178292Y-73903446D01*
X56203153Y-73873153D01*
X56233446Y-73848292D01*
X56268005Y-73829820D01*
X56305501Y-73818445D01*
X56350638Y-73814000D01*
X56989362Y-73814000D01*
X57034499Y-73818445D01*
G37*
G36*
X78163899Y-73900445D02*
G01*
X78201395Y-73911820D01*
X78235954Y-73930292D01*
X78266247Y-73955153D01*
X78291108Y-73985446D01*
X78309580Y-74020005D01*
X78320955Y-74057501D01*
X78325400Y-74102638D01*
X78325400Y-74741362D01*
X78320955Y-74786499D01*
X78309580Y-74823995D01*
X78291108Y-74858554D01*
X78266247Y-74888847D01*
X78235954Y-74913708D01*
X78201395Y-74932180D01*
X78163899Y-74943555D01*
X78118762Y-74948000D01*
X77380038Y-74948000D01*
X77334901Y-74943555D01*
X77297405Y-74932180D01*
X77262846Y-74913708D01*
X77232553Y-74888847D01*
X77207692Y-74858554D01*
X77189220Y-74823995D01*
X77177845Y-74786499D01*
X77173400Y-74741362D01*
X77173400Y-74102638D01*
X77177845Y-74057501D01*
X77189220Y-74020005D01*
X77207692Y-73985446D01*
X77232553Y-73955153D01*
X77262846Y-73930292D01*
X77297405Y-73911820D01*
X77334901Y-73900445D01*
X77380038Y-73896000D01*
X78118762Y-73896000D01*
X78163899Y-73900445D01*
G37*
G36*
X76413899Y-73900445D02*
G01*
X76451395Y-73911820D01*
X76485954Y-73930292D01*
X76516247Y-73955153D01*
X76541108Y-73985446D01*
X76559580Y-74020005D01*
X76570955Y-74057501D01*
X76575400Y-74102638D01*
X76575400Y-74741362D01*
X76570955Y-74786499D01*
X76559580Y-74823995D01*
X76541108Y-74858554D01*
X76516247Y-74888847D01*
X76485954Y-74913708D01*
X76451395Y-74932180D01*
X76413899Y-74943555D01*
X76368762Y-74948000D01*
X75630038Y-74948000D01*
X75584901Y-74943555D01*
X75547405Y-74932180D01*
X75512846Y-74913708D01*
X75482553Y-74888847D01*
X75457692Y-74858554D01*
X75439220Y-74823995D01*
X75427845Y-74786499D01*
X75423400Y-74741362D01*
X75423400Y-74102638D01*
X75427845Y-74057501D01*
X75439220Y-74020005D01*
X75457692Y-73985446D01*
X75482553Y-73955153D01*
X75512846Y-73930292D01*
X75547405Y-73911820D01*
X75584901Y-73900445D01*
X75630038Y-73896000D01*
X76368762Y-73896000D01*
X76413899Y-73900445D01*
G37*
G36*
X55484499Y-73748445D02*
G01*
X55521995Y-73759820D01*
X55556554Y-73778292D01*
X55586847Y-73803153D01*
X55611708Y-73833446D01*
X55630180Y-73868005D01*
X55641555Y-73905501D01*
X55646000Y-73950638D01*
X55646000Y-74689362D01*
X55641555Y-74734499D01*
X55630180Y-74771995D01*
X55611708Y-74806554D01*
X55586847Y-74836847D01*
X55556554Y-74861708D01*
X55521995Y-74880180D01*
X55484499Y-74891555D01*
X55439362Y-74896000D01*
X54800638Y-74896000D01*
X54755501Y-74891555D01*
X54718005Y-74880180D01*
X54683446Y-74861708D01*
X54653153Y-74836847D01*
X54628292Y-74806554D01*
X54609820Y-74771995D01*
X54598445Y-74734499D01*
X54594000Y-74689362D01*
X54594000Y-73950638D01*
X54598445Y-73905501D01*
X54609820Y-73868005D01*
X54628292Y-73833446D01*
X54653153Y-73803153D01*
X54683446Y-73778292D01*
X54718005Y-73759820D01*
X54755501Y-73748445D01*
X54800638Y-73744000D01*
X55439362Y-73744000D01*
X55484499Y-73748445D01*
G37*
G36*
X74614499Y-73678445D02*
G01*
X74651995Y-73689820D01*
X74686554Y-73708292D01*
X74716847Y-73733153D01*
X74741708Y-73763446D01*
X74760180Y-73798005D01*
X74771555Y-73835501D01*
X74776000Y-73880638D01*
X74776000Y-74619362D01*
X74771555Y-74664499D01*
X74760180Y-74701995D01*
X74741708Y-74736554D01*
X74716847Y-74766847D01*
X74686554Y-74791708D01*
X74651995Y-74810180D01*
X74614499Y-74821555D01*
X74569362Y-74826000D01*
X73930638Y-74826000D01*
X73885501Y-74821555D01*
X73848005Y-74810180D01*
X73813446Y-74791708D01*
X73783153Y-74766847D01*
X73758292Y-74736554D01*
X73739820Y-74701995D01*
X73728445Y-74664499D01*
X73724000Y-74619362D01*
X73724000Y-73880638D01*
X73728445Y-73835501D01*
X73739820Y-73798005D01*
X73758292Y-73763446D01*
X73783153Y-73733153D01*
X73813446Y-73708292D01*
X73848005Y-73689820D01*
X73885501Y-73678445D01*
X73930638Y-73674000D01*
X74569362Y-73674000D01*
X74614499Y-73678445D01*
G37*
G36*
X60406000Y-74391000D02*
G01*
X59254000Y-74391000D01*
X59254000Y-73799000D01*
X60406000Y-73799000D01*
X60406000Y-74391000D01*
G37*
G36*
X66606000Y-74391000D02*
G01*
X65454000Y-74391000D01*
X65454000Y-73799000D01*
X66606000Y-73799000D01*
X66606000Y-74391000D01*
G37*
G36*
X84763512Y-72553927D02*
G01*
X84912812Y-72583624D01*
X85076784Y-72651544D01*
X85224354Y-72750147D01*
X85349853Y-72875646D01*
X85448456Y-73023216D01*
X85516376Y-73187188D01*
X85551000Y-73361259D01*
X85551000Y-73538741D01*
X85516376Y-73712812D01*
X85448456Y-73876784D01*
X85349853Y-74024354D01*
X85224354Y-74149853D01*
X85076784Y-74248456D01*
X84912812Y-74316376D01*
X84763512Y-74346073D01*
X84738742Y-74351000D01*
X84561258Y-74351000D01*
X84536488Y-74346073D01*
X84387188Y-74316376D01*
X84223216Y-74248456D01*
X84075646Y-74149853D01*
X83950147Y-74024354D01*
X83851544Y-73876784D01*
X83783624Y-73712812D01*
X83749000Y-73538741D01*
X83749000Y-73361259D01*
X83783624Y-73187188D01*
X83851544Y-73023216D01*
X83950147Y-72875646D01*
X84075646Y-72750147D01*
X84223216Y-72651544D01*
X84387188Y-72583624D01*
X84536488Y-72553927D01*
X84561258Y-72549000D01*
X84738742Y-72549000D01*
X84763512Y-72553927D01*
G37*
G36*
X81014162Y-71913281D02*
G01*
X81049081Y-71923874D01*
X81081263Y-71941076D01*
X81109473Y-71964227D01*
X81132624Y-71992437D01*
X81149826Y-72024619D01*
X81160419Y-72059538D01*
X81164600Y-72101995D01*
X81164600Y-73243205D01*
X81160419Y-73285662D01*
X81149826Y-73320581D01*
X81132624Y-73352763D01*
X81109473Y-73380973D01*
X81081263Y-73404124D01*
X81049081Y-73421326D01*
X81014162Y-73431919D01*
X80971705Y-73436100D01*
X79505495Y-73436100D01*
X79463038Y-73431919D01*
X79428119Y-73421326D01*
X79395937Y-73404124D01*
X79367727Y-73380973D01*
X79344576Y-73352763D01*
X79327374Y-73320581D01*
X79316781Y-73285662D01*
X79312600Y-73243205D01*
X79312600Y-72101995D01*
X79316781Y-72059538D01*
X79327374Y-72024619D01*
X79344576Y-71992437D01*
X79367727Y-71964227D01*
X79395937Y-71941076D01*
X79428119Y-71923874D01*
X79463038Y-71913281D01*
X79505495Y-71909100D01*
X80971705Y-71909100D01*
X81014162Y-71913281D01*
G37*
G36*
X57034499Y-72068445D02*
G01*
X57071995Y-72079820D01*
X57106554Y-72098292D01*
X57136847Y-72123153D01*
X57161708Y-72153446D01*
X57180180Y-72188005D01*
X57191555Y-72225501D01*
X57196000Y-72270638D01*
X57196000Y-73009362D01*
X57191555Y-73054499D01*
X57180180Y-73091995D01*
X57161708Y-73126554D01*
X57136847Y-73156847D01*
X57106554Y-73181708D01*
X57071995Y-73200180D01*
X57034499Y-73211555D01*
X56989362Y-73216000D01*
X56350638Y-73216000D01*
X56305501Y-73211555D01*
X56268005Y-73200180D01*
X56233446Y-73181708D01*
X56203153Y-73156847D01*
X56178292Y-73126554D01*
X56159820Y-73091995D01*
X56148445Y-73054499D01*
X56144000Y-73009362D01*
X56144000Y-72270638D01*
X56148445Y-72225501D01*
X56159820Y-72188005D01*
X56178292Y-72153446D01*
X56203153Y-72123153D01*
X56233446Y-72098292D01*
X56268005Y-72079820D01*
X56305501Y-72068445D01*
X56350638Y-72064000D01*
X56989362Y-72064000D01*
X57034499Y-72068445D01*
G37*
G36*
X58564499Y-72068445D02*
G01*
X58601995Y-72079820D01*
X58636554Y-72098292D01*
X58666847Y-72123153D01*
X58691708Y-72153446D01*
X58710180Y-72188005D01*
X58721555Y-72225501D01*
X58726000Y-72270638D01*
X58726000Y-73009362D01*
X58721555Y-73054499D01*
X58710180Y-73091995D01*
X58691708Y-73126554D01*
X58666847Y-73156847D01*
X58636554Y-73181708D01*
X58601995Y-73200180D01*
X58564499Y-73211555D01*
X58519362Y-73216000D01*
X57880638Y-73216000D01*
X57835501Y-73211555D01*
X57798005Y-73200180D01*
X57763446Y-73181708D01*
X57733153Y-73156847D01*
X57708292Y-73126554D01*
X57689820Y-73091995D01*
X57678445Y-73054499D01*
X57674000Y-73009362D01*
X57674000Y-72270638D01*
X57678445Y-72225501D01*
X57689820Y-72188005D01*
X57708292Y-72153446D01*
X57733153Y-72123153D01*
X57763446Y-72098292D01*
X57798005Y-72079820D01*
X57835501Y-72068445D01*
X57880638Y-72064000D01*
X58519362Y-72064000D01*
X58564499Y-72068445D01*
G37*
G36*
X55484499Y-71998445D02*
G01*
X55521995Y-72009820D01*
X55556554Y-72028292D01*
X55586847Y-72053153D01*
X55611708Y-72083446D01*
X55630180Y-72118005D01*
X55641555Y-72155501D01*
X55646000Y-72200638D01*
X55646000Y-72939362D01*
X55641555Y-72984499D01*
X55630180Y-73021995D01*
X55611708Y-73056554D01*
X55586847Y-73086847D01*
X55556554Y-73111708D01*
X55521995Y-73130180D01*
X55484499Y-73141555D01*
X55439362Y-73146000D01*
X54800638Y-73146000D01*
X54755501Y-73141555D01*
X54718005Y-73130180D01*
X54683446Y-73111708D01*
X54653153Y-73086847D01*
X54628292Y-73056554D01*
X54609820Y-73021995D01*
X54598445Y-72984499D01*
X54594000Y-72939362D01*
X54594000Y-72200638D01*
X54598445Y-72155501D01*
X54609820Y-72118005D01*
X54628292Y-72083446D01*
X54653153Y-72053153D01*
X54683446Y-72028292D01*
X54718005Y-72009820D01*
X54755501Y-71998445D01*
X54800638Y-71994000D01*
X55439362Y-71994000D01*
X55484499Y-71998445D01*
G37*
G36*
X66606000Y-73121000D02*
G01*
X65454000Y-73121000D01*
X65454000Y-72529000D01*
X66606000Y-72529000D01*
X66606000Y-73121000D01*
G37*
G36*
X60406000Y-73121000D02*
G01*
X59254000Y-73121000D01*
X59254000Y-72529000D01*
X60406000Y-72529000D01*
X60406000Y-73121000D01*
G37*
G36*
X78587004Y-71749747D02*
G01*
X78623544Y-71760832D01*
X78657221Y-71778833D01*
X78686741Y-71803059D01*
X78710967Y-71832579D01*
X78728968Y-71866256D01*
X78740053Y-71902796D01*
X78744400Y-71946938D01*
X78744400Y-72895862D01*
X78740053Y-72940004D01*
X78728968Y-72976544D01*
X78710967Y-73010221D01*
X78686741Y-73039741D01*
X78657221Y-73063967D01*
X78623544Y-73081968D01*
X78587004Y-73093053D01*
X78542862Y-73097400D01*
X76193938Y-73097400D01*
X76149796Y-73093053D01*
X76113256Y-73081968D01*
X76079579Y-73063967D01*
X76050059Y-73039741D01*
X76025833Y-73010221D01*
X76007832Y-72976544D01*
X75996747Y-72940004D01*
X75992400Y-72895862D01*
X75992400Y-71946938D01*
X75996747Y-71902796D01*
X76007832Y-71866256D01*
X76025833Y-71832579D01*
X76050059Y-71803059D01*
X76079579Y-71778833D01*
X76113256Y-71760832D01*
X76149796Y-71749747D01*
X76193938Y-71745400D01*
X78542862Y-71745400D01*
X78587004Y-71749747D01*
G37*
G36*
X65989499Y-71028445D02*
G01*
X66026995Y-71039820D01*
X66061554Y-71058292D01*
X66091847Y-71083153D01*
X66116708Y-71113446D01*
X66135180Y-71148005D01*
X66146555Y-71185501D01*
X66151000Y-71230638D01*
X66151000Y-71869362D01*
X66146555Y-71914499D01*
X66135180Y-71951995D01*
X66116708Y-71986554D01*
X66091847Y-72016847D01*
X66061554Y-72041708D01*
X66026995Y-72060180D01*
X65989499Y-72071555D01*
X65944362Y-72076000D01*
X65205638Y-72076000D01*
X65160501Y-72071555D01*
X65123005Y-72060180D01*
X65088446Y-72041708D01*
X65058153Y-72016847D01*
X65033292Y-71986554D01*
X65014820Y-71951995D01*
X65003445Y-71914499D01*
X64999000Y-71869362D01*
X64999000Y-71230638D01*
X65003445Y-71185501D01*
X65014820Y-71148005D01*
X65033292Y-71113446D01*
X65058153Y-71083153D01*
X65088446Y-71058292D01*
X65123005Y-71039820D01*
X65160501Y-71028445D01*
X65205638Y-71024000D01*
X65944362Y-71024000D01*
X65989499Y-71028445D01*
G37*
G36*
X64239499Y-71028445D02*
G01*
X64276995Y-71039820D01*
X64311554Y-71058292D01*
X64341847Y-71083153D01*
X64366708Y-71113446D01*
X64385180Y-71148005D01*
X64396555Y-71185501D01*
X64401000Y-71230638D01*
X64401000Y-71869362D01*
X64396555Y-71914499D01*
X64385180Y-71951995D01*
X64366708Y-71986554D01*
X64341847Y-72016847D01*
X64311554Y-72041708D01*
X64276995Y-72060180D01*
X64239499Y-72071555D01*
X64194362Y-72076000D01*
X63455638Y-72076000D01*
X63410501Y-72071555D01*
X63373005Y-72060180D01*
X63338446Y-72041708D01*
X63308153Y-72016847D01*
X63283292Y-71986554D01*
X63264820Y-71951995D01*
X63253445Y-71914499D01*
X63249000Y-71869362D01*
X63249000Y-71230638D01*
X63253445Y-71185501D01*
X63264820Y-71148005D01*
X63283292Y-71113446D01*
X63308153Y-71083153D01*
X63338446Y-71058292D01*
X63373005Y-71039820D01*
X63410501Y-71028445D01*
X63455638Y-71024000D01*
X64194362Y-71024000D01*
X64239499Y-71028445D01*
G37*
G36*
X84763512Y-70013927D02*
G01*
X84912812Y-70043624D01*
X85076784Y-70111544D01*
X85224354Y-70210147D01*
X85349853Y-70335646D01*
X85448456Y-70483216D01*
X85516376Y-70647188D01*
X85551000Y-70821259D01*
X85551000Y-70998741D01*
X85516376Y-71172812D01*
X85448456Y-71336784D01*
X85349853Y-71484354D01*
X85224354Y-71609853D01*
X85076784Y-71708456D01*
X84912812Y-71776376D01*
X84763512Y-71806073D01*
X84738742Y-71811000D01*
X84561258Y-71811000D01*
X84536488Y-71806073D01*
X84387188Y-71776376D01*
X84223216Y-71708456D01*
X84075646Y-71609853D01*
X83950147Y-71484354D01*
X83851544Y-71336784D01*
X83783624Y-71172812D01*
X83749000Y-70998741D01*
X83749000Y-70821259D01*
X83783624Y-70647188D01*
X83851544Y-70483216D01*
X83950147Y-70335646D01*
X84075646Y-70210147D01*
X84223216Y-70111544D01*
X84387188Y-70043624D01*
X84536488Y-70013927D01*
X84561258Y-70009000D01*
X84738742Y-70009000D01*
X84763512Y-70013927D01*
G37*
G36*
X81014162Y-68938281D02*
G01*
X81049081Y-68948874D01*
X81081263Y-68966076D01*
X81109473Y-68989227D01*
X81132624Y-69017437D01*
X81149826Y-69049619D01*
X81160419Y-69084538D01*
X81164600Y-69126995D01*
X81164600Y-70268205D01*
X81160419Y-70310662D01*
X81149826Y-70345581D01*
X81132624Y-70377763D01*
X81109473Y-70405973D01*
X81081263Y-70429124D01*
X81049081Y-70446326D01*
X81014162Y-70456919D01*
X80971705Y-70461100D01*
X79505495Y-70461100D01*
X79463038Y-70456919D01*
X79428119Y-70446326D01*
X79395937Y-70429124D01*
X79367727Y-70405973D01*
X79344576Y-70377763D01*
X79327374Y-70345581D01*
X79316781Y-70310662D01*
X79312600Y-70268205D01*
X79312600Y-69126995D01*
X79316781Y-69084538D01*
X79327374Y-69049619D01*
X79344576Y-69017437D01*
X79367727Y-68989227D01*
X79395937Y-68966076D01*
X79428119Y-68948874D01*
X79463038Y-68938281D01*
X79505495Y-68934100D01*
X80971705Y-68934100D01*
X81014162Y-68938281D01*
G37*
G36*
X78587004Y-68949747D02*
G01*
X78623544Y-68960832D01*
X78657221Y-68978833D01*
X78686741Y-69003059D01*
X78710967Y-69032579D01*
X78728968Y-69066256D01*
X78740053Y-69102796D01*
X78744400Y-69146938D01*
X78744400Y-70095862D01*
X78740053Y-70140004D01*
X78728968Y-70176544D01*
X78710967Y-70210221D01*
X78686741Y-70239741D01*
X78657221Y-70263967D01*
X78623544Y-70281968D01*
X78587004Y-70293053D01*
X78542862Y-70297400D01*
X76193938Y-70297400D01*
X76149796Y-70293053D01*
X76113256Y-70281968D01*
X76079579Y-70263967D01*
X76050059Y-70239741D01*
X76025833Y-70210221D01*
X76007832Y-70176544D01*
X75996747Y-70140004D01*
X75992400Y-70095862D01*
X75992400Y-69146938D01*
X75996747Y-69102796D01*
X76007832Y-69066256D01*
X76025833Y-69032579D01*
X76050059Y-69003059D01*
X76079579Y-68978833D01*
X76113256Y-68960832D01*
X76149796Y-68949747D01*
X76193938Y-68945400D01*
X78542862Y-68945400D01*
X78587004Y-68949747D01*
G37*
G36*
X85551000Y-69271000D02*
G01*
X83749000Y-69271000D01*
X83749000Y-67469000D01*
X85551000Y-67469000D01*
X85551000Y-69271000D01*
G37*
G36*
X62371000Y-68231000D02*
G01*
X53669000Y-68231000D01*
X53669000Y-66729000D01*
X62371000Y-66729000D01*
X62371000Y-68231000D01*
G37*
G36*
X68954499Y-66328445D02*
G01*
X68991995Y-66339820D01*
X69026554Y-66358292D01*
X69056847Y-66383153D01*
X69081708Y-66413446D01*
X69100180Y-66448005D01*
X69111555Y-66485501D01*
X69116000Y-66530638D01*
X69116000Y-67169362D01*
X69111555Y-67214499D01*
X69100180Y-67251995D01*
X69081708Y-67286554D01*
X69056847Y-67316847D01*
X69026554Y-67341708D01*
X68991995Y-67360180D01*
X68954499Y-67371555D01*
X68909362Y-67376000D01*
X68170638Y-67376000D01*
X68125501Y-67371555D01*
X68088005Y-67360180D01*
X68053446Y-67341708D01*
X68023153Y-67316847D01*
X67998292Y-67286554D01*
X67979820Y-67251995D01*
X67968445Y-67214499D01*
X67964000Y-67169362D01*
X67964000Y-66530638D01*
X67968445Y-66485501D01*
X67979820Y-66448005D01*
X67998292Y-66413446D01*
X68023153Y-66383153D01*
X68053446Y-66358292D01*
X68088005Y-66339820D01*
X68125501Y-66328445D01*
X68170638Y-66324000D01*
X68909362Y-66324000D01*
X68954499Y-66328445D01*
G37*
G36*
X70704499Y-66328445D02*
G01*
X70741995Y-66339820D01*
X70776554Y-66358292D01*
X70806847Y-66383153D01*
X70831708Y-66413446D01*
X70850180Y-66448005D01*
X70861555Y-66485501D01*
X70866000Y-66530638D01*
X70866000Y-67169362D01*
X70861555Y-67214499D01*
X70850180Y-67251995D01*
X70831708Y-67286554D01*
X70806847Y-67316847D01*
X70776554Y-67341708D01*
X70741995Y-67360180D01*
X70704499Y-67371555D01*
X70659362Y-67376000D01*
X69920638Y-67376000D01*
X69875501Y-67371555D01*
X69838005Y-67360180D01*
X69803446Y-67341708D01*
X69773153Y-67316847D01*
X69748292Y-67286554D01*
X69729820Y-67251995D01*
X69718445Y-67214499D01*
X69714000Y-67169362D01*
X69714000Y-66530638D01*
X69718445Y-66485501D01*
X69729820Y-66448005D01*
X69748292Y-66413446D01*
X69773153Y-66383153D01*
X69803446Y-66358292D01*
X69838005Y-66339820D01*
X69875501Y-66328445D01*
X69920638Y-66324000D01*
X70659362Y-66324000D01*
X70704499Y-66328445D01*
G37*
G36*
X53471000Y-66531000D02*
G01*
X51969000Y-66531000D01*
X51969000Y-57829000D01*
X53471000Y-57829000D01*
X53471000Y-66531000D01*
G37*
G36*
X64071000Y-66531000D02*
G01*
X62569000Y-66531000D01*
X62569000Y-57829000D01*
X64071000Y-57829000D01*
X64071000Y-66531000D01*
G37*
G36*
X75551000Y-66451000D02*
G01*
X74449000Y-66451000D01*
X74449000Y-65349000D01*
X75551000Y-65349000D01*
X75551000Y-66451000D01*
G37*
G36*
X56356400Y-58808398D02*
G01*
X56368651Y-58809000D01*
X61391000Y-58809000D01*
X61391000Y-65551000D01*
X54649000Y-65551000D01*
X54649000Y-60528651D01*
X54648398Y-60516400D01*
X54648148Y-60513862D01*
X54648148Y-59496140D01*
X54649737Y-59480001D01*
X54652652Y-59470392D01*
X54657043Y-59462177D01*
X54657045Y-59462175D01*
X54657390Y-59461529D01*
X54664615Y-59452930D01*
X54665620Y-59451971D01*
X54669166Y-59447751D01*
X55319759Y-58826730D01*
X55332527Y-58816739D01*
X55341493Y-58812212D01*
X55341495Y-58812211D01*
X55351173Y-58809519D01*
X55351174Y-58809519D01*
X55351882Y-58809322D01*
X55365412Y-58808148D01*
X56353862Y-58808148D01*
X56356400Y-58808398D01*
G37*
G36*
X71451000Y-65501000D02*
G01*
X69624000Y-65501000D01*
X69624000Y-63299000D01*
X71451000Y-63299000D01*
X71451000Y-65501000D01*
G37*
G36*
X69276000Y-65501000D02*
G01*
X67449000Y-65501000D01*
X67449000Y-63299000D01*
X69276000Y-63299000D01*
X69276000Y-65501000D01*
G37*
G36*
X66921938Y-63591716D02*
G01*
X66942557Y-63597971D01*
X66961553Y-63608124D01*
X66978208Y-63621792D01*
X66991876Y-63638447D01*
X67002029Y-63657443D01*
X67008284Y-63678062D01*
X67011000Y-63705640D01*
X67011000Y-64164360D01*
X67008284Y-64191938D01*
X67002029Y-64212557D01*
X66991876Y-64231553D01*
X66978208Y-64248208D01*
X66961553Y-64261876D01*
X66942557Y-64272029D01*
X66921938Y-64278284D01*
X66894360Y-64281000D01*
X66385640Y-64281000D01*
X66358062Y-64278284D01*
X66337443Y-64272029D01*
X66318447Y-64261876D01*
X66301792Y-64248208D01*
X66288124Y-64231553D01*
X66277971Y-64212557D01*
X66271716Y-64191938D01*
X66269000Y-64164360D01*
X66269000Y-63705640D01*
X66271716Y-63678062D01*
X66277971Y-63657443D01*
X66288124Y-63638447D01*
X66301792Y-63621792D01*
X66318447Y-63608124D01*
X66337443Y-63597971D01*
X66358062Y-63591716D01*
X66385640Y-63589000D01*
X66894360Y-63589000D01*
X66921938Y-63591716D01*
G37*
G36*
X86060442Y-61905518D02*
G01*
X86126627Y-61912037D01*
X86296466Y-61963557D01*
X86452991Y-62047222D01*
X86488588Y-62076436D01*
X86590186Y-62159814D01*
X86673448Y-62261271D01*
X86702778Y-62297009D01*
X86786443Y-62453534D01*
X86837963Y-62623373D01*
X86855359Y-62800000D01*
X86837963Y-62976627D01*
X86786443Y-63146466D01*
X86702778Y-63302991D01*
X86698933Y-63307676D01*
X86590186Y-63440186D01*
X86488729Y-63523448D01*
X86452991Y-63552778D01*
X86452989Y-63552779D01*
X86368442Y-63597971D01*
X86296466Y-63636443D01*
X86126627Y-63687963D01*
X86060442Y-63694482D01*
X85994260Y-63701000D01*
X85605740Y-63701000D01*
X85539558Y-63694482D01*
X85473373Y-63687963D01*
X85303534Y-63636443D01*
X85231559Y-63597971D01*
X85147011Y-63552779D01*
X85147009Y-63552778D01*
X85111271Y-63523448D01*
X85009814Y-63440186D01*
X84901067Y-63307676D01*
X84897222Y-63302991D01*
X84813557Y-63146466D01*
X84762037Y-62976627D01*
X84744641Y-62800000D01*
X84762037Y-62623373D01*
X84813557Y-62453534D01*
X84897222Y-62297009D01*
X84926552Y-62261271D01*
X85009814Y-62159814D01*
X85111412Y-62076436D01*
X85147009Y-62047222D01*
X85303534Y-61963557D01*
X85473373Y-61912037D01*
X85539558Y-61905518D01*
X85605740Y-61899000D01*
X85994260Y-61899000D01*
X86060442Y-61905518D01*
G37*
G36*
X66921938Y-62621716D02*
G01*
X66942557Y-62627971D01*
X66961553Y-62638124D01*
X66978208Y-62651792D01*
X66991876Y-62668447D01*
X67002029Y-62687443D01*
X67008284Y-62708062D01*
X67011000Y-62735640D01*
X67011000Y-63194360D01*
X67008284Y-63221938D01*
X67002029Y-63242557D01*
X66991876Y-63261553D01*
X66978208Y-63278208D01*
X66961553Y-63291876D01*
X66942557Y-63302029D01*
X66921938Y-63308284D01*
X66894360Y-63311000D01*
X66385640Y-63311000D01*
X66358062Y-63308284D01*
X66337443Y-63302029D01*
X66318447Y-63291876D01*
X66301792Y-63278208D01*
X66288124Y-63261553D01*
X66277971Y-63242557D01*
X66271716Y-63221938D01*
X66269000Y-63194360D01*
X66269000Y-62735640D01*
X66271716Y-62708062D01*
X66277971Y-62687443D01*
X66288124Y-62668447D01*
X66301792Y-62651792D01*
X66318447Y-62638124D01*
X66337443Y-62627971D01*
X66358062Y-62621716D01*
X66385640Y-62619000D01*
X66894360Y-62619000D01*
X66921938Y-62621716D01*
G37*
G36*
X71451000Y-62601000D02*
G01*
X69624000Y-62601000D01*
X69624000Y-60399000D01*
X71451000Y-60399000D01*
X71451000Y-62601000D01*
G37*
G36*
X69276000Y-62601000D02*
G01*
X67449000Y-62601000D01*
X67449000Y-60399000D01*
X69276000Y-60399000D01*
X69276000Y-62601000D01*
G37*
G36*
X46994499Y-60958445D02*
G01*
X47031995Y-60969820D01*
X47066554Y-60988292D01*
X47096847Y-61013153D01*
X47121708Y-61043446D01*
X47140180Y-61078005D01*
X47151555Y-61115501D01*
X47156000Y-61160638D01*
X47156000Y-61799362D01*
X47151555Y-61844499D01*
X47140180Y-61881995D01*
X47121708Y-61916554D01*
X47096847Y-61946847D01*
X47066554Y-61971708D01*
X47031995Y-61990180D01*
X46994499Y-62001555D01*
X46949362Y-62006000D01*
X46210638Y-62006000D01*
X46165501Y-62001555D01*
X46128005Y-61990180D01*
X46093446Y-61971708D01*
X46063153Y-61946847D01*
X46038292Y-61916554D01*
X46019820Y-61881995D01*
X46008445Y-61844499D01*
X46004000Y-61799362D01*
X46004000Y-61160638D01*
X46008445Y-61115501D01*
X46019820Y-61078005D01*
X46038292Y-61043446D01*
X46063153Y-61013153D01*
X46093446Y-60988292D01*
X46128005Y-60969820D01*
X46165501Y-60958445D01*
X46210638Y-60954000D01*
X46949362Y-60954000D01*
X46994499Y-60958445D01*
G37*
G36*
X45244499Y-60958445D02*
G01*
X45281995Y-60969820D01*
X45316554Y-60988292D01*
X45346847Y-61013153D01*
X45371708Y-61043446D01*
X45390180Y-61078005D01*
X45401555Y-61115501D01*
X45406000Y-61160638D01*
X45406000Y-61799362D01*
X45401555Y-61844499D01*
X45390180Y-61881995D01*
X45371708Y-61916554D01*
X45346847Y-61946847D01*
X45316554Y-61971708D01*
X45281995Y-61990180D01*
X45244499Y-62001555D01*
X45199362Y-62006000D01*
X44460638Y-62006000D01*
X44415501Y-62001555D01*
X44378005Y-61990180D01*
X44343446Y-61971708D01*
X44313153Y-61946847D01*
X44288292Y-61916554D01*
X44269820Y-61881995D01*
X44258445Y-61844499D01*
X44254000Y-61799362D01*
X44254000Y-61160638D01*
X44258445Y-61115501D01*
X44269820Y-61078005D01*
X44288292Y-61043446D01*
X44313153Y-61013153D01*
X44343446Y-60988292D01*
X44378005Y-60969820D01*
X44415501Y-60958445D01*
X44460638Y-60954000D01*
X45199362Y-60954000D01*
X45244499Y-60958445D01*
G37*
G36*
X86708600Y-59402989D02*
G01*
X86741652Y-59413015D01*
X86772103Y-59429292D01*
X86798799Y-59451201D01*
X86820708Y-59477897D01*
X86836985Y-59508348D01*
X86847011Y-59541400D01*
X86851000Y-59581903D01*
X86851000Y-61018097D01*
X86847011Y-61058600D01*
X86836985Y-61091652D01*
X86820708Y-61122103D01*
X86798799Y-61148799D01*
X86772103Y-61170708D01*
X86741652Y-61186985D01*
X86708600Y-61197011D01*
X86668097Y-61201000D01*
X84931903Y-61201000D01*
X84891400Y-61197011D01*
X84858348Y-61186985D01*
X84827897Y-61170708D01*
X84801201Y-61148799D01*
X84779292Y-61122103D01*
X84763015Y-61091652D01*
X84752989Y-61058600D01*
X84749000Y-61018097D01*
X84749000Y-59581903D01*
X84752989Y-59541400D01*
X84763015Y-59508348D01*
X84779292Y-59477897D01*
X84801201Y-59451201D01*
X84827897Y-59429292D01*
X84858348Y-59413015D01*
X84891400Y-59402989D01*
X84931903Y-59399000D01*
X86668097Y-59399000D01*
X86708600Y-59402989D01*
G37*
G36*
X47004499Y-59478445D02*
G01*
X47041995Y-59489820D01*
X47076554Y-59508292D01*
X47106847Y-59533153D01*
X47131708Y-59563446D01*
X47150180Y-59598005D01*
X47161555Y-59635501D01*
X47166000Y-59680638D01*
X47166000Y-60319362D01*
X47161555Y-60364499D01*
X47150180Y-60401995D01*
X47131708Y-60436554D01*
X47106847Y-60466847D01*
X47076554Y-60491708D01*
X47041995Y-60510180D01*
X47004499Y-60521555D01*
X46959362Y-60526000D01*
X46220638Y-60526000D01*
X46175501Y-60521555D01*
X46138005Y-60510180D01*
X46103446Y-60491708D01*
X46073153Y-60466847D01*
X46048292Y-60436554D01*
X46029820Y-60401995D01*
X46018445Y-60364499D01*
X46014000Y-60319362D01*
X46014000Y-59680638D01*
X46018445Y-59635501D01*
X46029820Y-59598005D01*
X46048292Y-59563446D01*
X46073153Y-59533153D01*
X46103446Y-59508292D01*
X46138005Y-59489820D01*
X46175501Y-59478445D01*
X46220638Y-59474000D01*
X46959362Y-59474000D01*
X47004499Y-59478445D01*
G37*
G36*
X45254499Y-59478445D02*
G01*
X45291995Y-59489820D01*
X45326554Y-59508292D01*
X45356847Y-59533153D01*
X45381708Y-59563446D01*
X45400180Y-59598005D01*
X45411555Y-59635501D01*
X45416000Y-59680638D01*
X45416000Y-60319362D01*
X45411555Y-60364499D01*
X45400180Y-60401995D01*
X45381708Y-60436554D01*
X45356847Y-60466847D01*
X45326554Y-60491708D01*
X45291995Y-60510180D01*
X45254499Y-60521555D01*
X45209362Y-60526000D01*
X44470638Y-60526000D01*
X44425501Y-60521555D01*
X44388005Y-60510180D01*
X44353446Y-60491708D01*
X44323153Y-60466847D01*
X44298292Y-60436554D01*
X44279820Y-60401995D01*
X44268445Y-60364499D01*
X44264000Y-60319362D01*
X44264000Y-59680638D01*
X44268445Y-59635501D01*
X44279820Y-59598005D01*
X44298292Y-59563446D01*
X44323153Y-59533153D01*
X44353446Y-59508292D01*
X44388005Y-59489820D01*
X44425501Y-59478445D01*
X44470638Y-59474000D01*
X45209362Y-59474000D01*
X45254499Y-59478445D01*
G37*
G36*
X48449890Y-59154017D02*
G01*
X48568364Y-59203091D01*
X48674988Y-59274335D01*
X48765665Y-59365012D01*
X48836078Y-59470392D01*
X48836910Y-59471638D01*
X48885983Y-59590110D01*
X48905167Y-59686554D01*
X48911000Y-59715882D01*
X48911000Y-59844118D01*
X48885983Y-59969890D01*
X48836909Y-60088364D01*
X48765665Y-60194988D01*
X48674988Y-60285665D01*
X48568364Y-60356909D01*
X48568363Y-60356910D01*
X48568362Y-60356910D01*
X48449890Y-60405983D01*
X48324119Y-60431000D01*
X48195881Y-60431000D01*
X48070110Y-60405983D01*
X47951638Y-60356910D01*
X47951637Y-60356910D01*
X47951636Y-60356909D01*
X47845012Y-60285665D01*
X47754335Y-60194988D01*
X47683091Y-60088364D01*
X47634017Y-59969890D01*
X47609000Y-59844118D01*
X47609000Y-59715882D01*
X47614834Y-59686554D01*
X47634017Y-59590110D01*
X47683090Y-59471638D01*
X47683923Y-59470392D01*
X47754335Y-59365012D01*
X47845012Y-59274335D01*
X47951636Y-59203091D01*
X48070110Y-59154017D01*
X48195881Y-59129000D01*
X48324119Y-59129000D01*
X48449890Y-59154017D01*
G37*
G36*
X68979499Y-58728445D02*
G01*
X69016995Y-58739820D01*
X69051554Y-58758292D01*
X69081847Y-58783153D01*
X69106708Y-58813446D01*
X69125180Y-58848005D01*
X69136555Y-58885501D01*
X69141000Y-58930638D01*
X69141000Y-59569362D01*
X69136555Y-59614499D01*
X69125180Y-59651995D01*
X69106708Y-59686554D01*
X69081847Y-59716847D01*
X69051554Y-59741708D01*
X69016995Y-59760180D01*
X68979499Y-59771555D01*
X68934362Y-59776000D01*
X68195638Y-59776000D01*
X68150501Y-59771555D01*
X68113005Y-59760180D01*
X68078446Y-59741708D01*
X68048153Y-59716847D01*
X68023292Y-59686554D01*
X68004820Y-59651995D01*
X67993445Y-59614499D01*
X67989000Y-59569362D01*
X67989000Y-58930638D01*
X67993445Y-58885501D01*
X68004820Y-58848005D01*
X68023292Y-58813446D01*
X68048153Y-58783153D01*
X68078446Y-58758292D01*
X68113005Y-58739820D01*
X68150501Y-58728445D01*
X68195638Y-58724000D01*
X68934362Y-58724000D01*
X68979499Y-58728445D01*
G37*
G36*
X70729499Y-58728445D02*
G01*
X70766995Y-58739820D01*
X70801554Y-58758292D01*
X70831847Y-58783153D01*
X70856708Y-58813446D01*
X70875180Y-58848005D01*
X70886555Y-58885501D01*
X70891000Y-58930638D01*
X70891000Y-59569362D01*
X70886555Y-59614499D01*
X70875180Y-59651995D01*
X70856708Y-59686554D01*
X70831847Y-59716847D01*
X70801554Y-59741708D01*
X70766995Y-59760180D01*
X70729499Y-59771555D01*
X70684362Y-59776000D01*
X69945638Y-59776000D01*
X69900501Y-59771555D01*
X69863005Y-59760180D01*
X69828446Y-59741708D01*
X69798153Y-59716847D01*
X69773292Y-59686554D01*
X69754820Y-59651995D01*
X69743445Y-59614499D01*
X69739000Y-59569362D01*
X69739000Y-58930638D01*
X69743445Y-58885501D01*
X69754820Y-58848005D01*
X69773292Y-58813446D01*
X69798153Y-58783153D01*
X69828446Y-58758292D01*
X69863005Y-58739820D01*
X69900501Y-58728445D01*
X69945638Y-58724000D01*
X70684362Y-58724000D01*
X70729499Y-58728445D01*
G37*
G36*
X47009499Y-57948445D02*
G01*
X47046995Y-57959820D01*
X47081554Y-57978292D01*
X47111847Y-58003153D01*
X47136708Y-58033446D01*
X47155180Y-58068005D01*
X47166555Y-58105501D01*
X47171000Y-58150638D01*
X47171000Y-58789362D01*
X47166555Y-58834499D01*
X47155180Y-58871995D01*
X47136708Y-58906554D01*
X47111847Y-58936847D01*
X47081554Y-58961708D01*
X47046995Y-58980180D01*
X47009499Y-58991555D01*
X46964362Y-58996000D01*
X46225638Y-58996000D01*
X46180501Y-58991555D01*
X46143005Y-58980180D01*
X46108446Y-58961708D01*
X46078153Y-58936847D01*
X46053292Y-58906554D01*
X46034820Y-58871995D01*
X46023445Y-58834499D01*
X46019000Y-58789362D01*
X46019000Y-58150638D01*
X46023445Y-58105501D01*
X46034820Y-58068005D01*
X46053292Y-58033446D01*
X46078153Y-58003153D01*
X46108446Y-57978292D01*
X46143005Y-57959820D01*
X46180501Y-57948445D01*
X46225638Y-57944000D01*
X46964362Y-57944000D01*
X47009499Y-57948445D01*
G37*
G36*
X45259499Y-57948445D02*
G01*
X45296995Y-57959820D01*
X45331554Y-57978292D01*
X45361847Y-58003153D01*
X45386708Y-58033446D01*
X45405180Y-58068005D01*
X45416555Y-58105501D01*
X45421000Y-58150638D01*
X45421000Y-58789362D01*
X45416555Y-58834499D01*
X45405180Y-58871995D01*
X45386708Y-58906554D01*
X45361847Y-58936847D01*
X45331554Y-58961708D01*
X45296995Y-58980180D01*
X45259499Y-58991555D01*
X45214362Y-58996000D01*
X44475638Y-58996000D01*
X44430501Y-58991555D01*
X44393005Y-58980180D01*
X44358446Y-58961708D01*
X44328153Y-58936847D01*
X44303292Y-58906554D01*
X44284820Y-58871995D01*
X44273445Y-58834499D01*
X44269000Y-58789362D01*
X44269000Y-58150638D01*
X44273445Y-58105501D01*
X44284820Y-58068005D01*
X44303292Y-58033446D01*
X44328153Y-58003153D01*
X44358446Y-57978292D01*
X44393005Y-57959820D01*
X44430501Y-57948445D01*
X44475638Y-57944000D01*
X45214362Y-57944000D01*
X45259499Y-57948445D01*
G37*
G36*
X62371000Y-57631000D02*
G01*
X53669000Y-57631000D01*
X53669000Y-56129000D01*
X62371000Y-56129000D01*
X62371000Y-57631000D01*
G37*
G36*
X46999499Y-56378445D02*
G01*
X47036995Y-56389820D01*
X47071554Y-56408292D01*
X47101847Y-56433153D01*
X47126708Y-56463446D01*
X47145180Y-56498005D01*
X47156555Y-56535501D01*
X47161000Y-56580638D01*
X47161000Y-57219362D01*
X47156555Y-57264499D01*
X47145180Y-57301995D01*
X47126708Y-57336554D01*
X47101847Y-57366847D01*
X47071554Y-57391708D01*
X47036995Y-57410180D01*
X46999499Y-57421555D01*
X46954362Y-57426000D01*
X46215638Y-57426000D01*
X46170501Y-57421555D01*
X46133005Y-57410180D01*
X46098446Y-57391708D01*
X46068153Y-57366847D01*
X46043292Y-57336554D01*
X46024820Y-57301995D01*
X46013445Y-57264499D01*
X46009000Y-57219362D01*
X46009000Y-56580638D01*
X46013445Y-56535501D01*
X46024820Y-56498005D01*
X46043292Y-56463446D01*
X46068153Y-56433153D01*
X46098446Y-56408292D01*
X46133005Y-56389820D01*
X46170501Y-56378445D01*
X46215638Y-56374000D01*
X46954362Y-56374000D01*
X46999499Y-56378445D01*
G37*
G36*
X45249499Y-56378445D02*
G01*
X45286995Y-56389820D01*
X45321554Y-56408292D01*
X45351847Y-56433153D01*
X45376708Y-56463446D01*
X45395180Y-56498005D01*
X45406555Y-56535501D01*
X45411000Y-56580638D01*
X45411000Y-57219362D01*
X45406555Y-57264499D01*
X45395180Y-57301995D01*
X45376708Y-57336554D01*
X45351847Y-57366847D01*
X45321554Y-57391708D01*
X45286995Y-57410180D01*
X45249499Y-57421555D01*
X45204362Y-57426000D01*
X44465638Y-57426000D01*
X44420501Y-57421555D01*
X44383005Y-57410180D01*
X44348446Y-57391708D01*
X44318153Y-57366847D01*
X44293292Y-57336554D01*
X44274820Y-57301995D01*
X44263445Y-57264499D01*
X44259000Y-57219362D01*
X44259000Y-56580638D01*
X44263445Y-56535501D01*
X44274820Y-56498005D01*
X44293292Y-56463446D01*
X44318153Y-56433153D01*
X44348446Y-56408292D01*
X44383005Y-56389820D01*
X44420501Y-56378445D01*
X44465638Y-56374000D01*
X45204362Y-56374000D01*
X45249499Y-56378445D01*
G37*
G36*
X50374499Y-56378445D02*
G01*
X50411995Y-56389820D01*
X50446554Y-56408292D01*
X50476847Y-56433153D01*
X50501708Y-56463446D01*
X50520180Y-56498005D01*
X50531555Y-56535501D01*
X50536000Y-56580638D01*
X50536000Y-57219362D01*
X50531555Y-57264499D01*
X50520180Y-57301995D01*
X50501708Y-57336554D01*
X50476847Y-57366847D01*
X50446554Y-57391708D01*
X50411995Y-57410180D01*
X50374499Y-57421555D01*
X50329362Y-57426000D01*
X49590638Y-57426000D01*
X49545501Y-57421555D01*
X49508005Y-57410180D01*
X49473446Y-57391708D01*
X49443153Y-57366847D01*
X49418292Y-57336554D01*
X49399820Y-57301995D01*
X49388445Y-57264499D01*
X49384000Y-57219362D01*
X49384000Y-56580638D01*
X49388445Y-56535501D01*
X49399820Y-56498005D01*
X49418292Y-56463446D01*
X49443153Y-56433153D01*
X49473446Y-56408292D01*
X49508005Y-56389820D01*
X49545501Y-56378445D01*
X49590638Y-56374000D01*
X50329362Y-56374000D01*
X50374499Y-56378445D01*
G37*
G36*
X48624499Y-56378445D02*
G01*
X48661995Y-56389820D01*
X48696554Y-56408292D01*
X48726847Y-56433153D01*
X48751708Y-56463446D01*
X48770180Y-56498005D01*
X48781555Y-56535501D01*
X48786000Y-56580638D01*
X48786000Y-57219362D01*
X48781555Y-57264499D01*
X48770180Y-57301995D01*
X48751708Y-57336554D01*
X48726847Y-57366847D01*
X48696554Y-57391708D01*
X48661995Y-57410180D01*
X48624499Y-57421555D01*
X48579362Y-57426000D01*
X47840638Y-57426000D01*
X47795501Y-57421555D01*
X47758005Y-57410180D01*
X47723446Y-57391708D01*
X47693153Y-57366847D01*
X47668292Y-57336554D01*
X47649820Y-57301995D01*
X47638445Y-57264499D01*
X47634000Y-57219362D01*
X47634000Y-56580638D01*
X47638445Y-56535501D01*
X47649820Y-56498005D01*
X47668292Y-56463446D01*
X47693153Y-56433153D01*
X47723446Y-56408292D01*
X47758005Y-56389820D01*
X47795501Y-56378445D01*
X47840638Y-56374000D01*
X48579362Y-56374000D01*
X48624499Y-56378445D01*
G37*
G36*
X84463512Y-54183927D02*
G01*
X84612812Y-54213624D01*
X84776784Y-54281544D01*
X84924354Y-54380147D01*
X85049853Y-54505646D01*
X85148456Y-54653216D01*
X85216376Y-54817188D01*
X85251000Y-54991259D01*
X85251000Y-55168741D01*
X85216376Y-55342812D01*
X85148456Y-55506784D01*
X85049853Y-55654354D01*
X84924354Y-55779853D01*
X84776784Y-55878456D01*
X84612812Y-55946376D01*
X84463512Y-55976073D01*
X84438742Y-55981000D01*
X84261258Y-55981000D01*
X84236488Y-55976073D01*
X84087188Y-55946376D01*
X83923216Y-55878456D01*
X83775646Y-55779853D01*
X83650147Y-55654354D01*
X83551544Y-55506784D01*
X83483624Y-55342812D01*
X83449000Y-55168741D01*
X83449000Y-54991259D01*
X83483624Y-54817188D01*
X83551544Y-54653216D01*
X83650147Y-54505646D01*
X83775646Y-54380147D01*
X83923216Y-54281544D01*
X84087188Y-54213624D01*
X84236488Y-54183927D01*
X84261258Y-54179000D01*
X84438742Y-54179000D01*
X84463512Y-54183927D01*
G37*
G36*
X50374499Y-54803445D02*
G01*
X50411995Y-54814820D01*
X50446554Y-54833292D01*
X50476847Y-54858153D01*
X50501708Y-54888446D01*
X50520180Y-54923005D01*
X50531555Y-54960501D01*
X50536000Y-55005638D01*
X50536000Y-55644362D01*
X50531555Y-55689499D01*
X50520180Y-55726995D01*
X50501708Y-55761554D01*
X50476847Y-55791847D01*
X50446554Y-55816708D01*
X50411995Y-55835180D01*
X50374499Y-55846555D01*
X50329362Y-55851000D01*
X49590638Y-55851000D01*
X49545501Y-55846555D01*
X49508005Y-55835180D01*
X49473446Y-55816708D01*
X49443153Y-55791847D01*
X49418292Y-55761554D01*
X49399820Y-55726995D01*
X49388445Y-55689499D01*
X49384000Y-55644362D01*
X49384000Y-55005638D01*
X49388445Y-54960501D01*
X49399820Y-54923005D01*
X49418292Y-54888446D01*
X49443153Y-54858153D01*
X49473446Y-54833292D01*
X49508005Y-54814820D01*
X49545501Y-54803445D01*
X49590638Y-54799000D01*
X50329362Y-54799000D01*
X50374499Y-54803445D01*
G37*
G36*
X48624499Y-54803445D02*
G01*
X48661995Y-54814820D01*
X48696554Y-54833292D01*
X48726847Y-54858153D01*
X48751708Y-54888446D01*
X48770180Y-54923005D01*
X48781555Y-54960501D01*
X48786000Y-55005638D01*
X48786000Y-55644362D01*
X48781555Y-55689499D01*
X48770180Y-55726995D01*
X48751708Y-55761554D01*
X48726847Y-55791847D01*
X48696554Y-55816708D01*
X48661995Y-55835180D01*
X48624499Y-55846555D01*
X48579362Y-55851000D01*
X47840638Y-55851000D01*
X47795501Y-55846555D01*
X47758005Y-55835180D01*
X47723446Y-55816708D01*
X47693153Y-55791847D01*
X47668292Y-55761554D01*
X47649820Y-55726995D01*
X47638445Y-55689499D01*
X47634000Y-55644362D01*
X47634000Y-55005638D01*
X47638445Y-54960501D01*
X47649820Y-54923005D01*
X47668292Y-54888446D01*
X47693153Y-54858153D01*
X47723446Y-54833292D01*
X47758005Y-54814820D01*
X47795501Y-54803445D01*
X47840638Y-54799000D01*
X48579362Y-54799000D01*
X48624499Y-54803445D01*
G37*
G36*
X45249499Y-54803445D02*
G01*
X45286995Y-54814820D01*
X45321554Y-54833292D01*
X45351847Y-54858153D01*
X45376708Y-54888446D01*
X45395180Y-54923005D01*
X45406555Y-54960501D01*
X45411000Y-55005638D01*
X45411000Y-55644362D01*
X45406555Y-55689499D01*
X45395180Y-55726995D01*
X45376708Y-55761554D01*
X45351847Y-55791847D01*
X45321554Y-55816708D01*
X45286995Y-55835180D01*
X45249499Y-55846555D01*
X45204362Y-55851000D01*
X44465638Y-55851000D01*
X44420501Y-55846555D01*
X44383005Y-55835180D01*
X44348446Y-55816708D01*
X44318153Y-55791847D01*
X44293292Y-55761554D01*
X44274820Y-55726995D01*
X44263445Y-55689499D01*
X44259000Y-55644362D01*
X44259000Y-55005638D01*
X44263445Y-54960501D01*
X44274820Y-54923005D01*
X44293292Y-54888446D01*
X44318153Y-54858153D01*
X44348446Y-54833292D01*
X44383005Y-54814820D01*
X44420501Y-54803445D01*
X44465638Y-54799000D01*
X45204362Y-54799000D01*
X45249499Y-54803445D01*
G37*
G36*
X46999499Y-54803445D02*
G01*
X47036995Y-54814820D01*
X47071554Y-54833292D01*
X47101847Y-54858153D01*
X47126708Y-54888446D01*
X47145180Y-54923005D01*
X47156555Y-54960501D01*
X47161000Y-55005638D01*
X47161000Y-55644362D01*
X47156555Y-55689499D01*
X47145180Y-55726995D01*
X47126708Y-55761554D01*
X47101847Y-55791847D01*
X47071554Y-55816708D01*
X47036995Y-55835180D01*
X46999499Y-55846555D01*
X46954362Y-55851000D01*
X46215638Y-55851000D01*
X46170501Y-55846555D01*
X46133005Y-55835180D01*
X46098446Y-55816708D01*
X46068153Y-55791847D01*
X46043292Y-55761554D01*
X46024820Y-55726995D01*
X46013445Y-55689499D01*
X46009000Y-55644362D01*
X46009000Y-55005638D01*
X46013445Y-54960501D01*
X46024820Y-54923005D01*
X46043292Y-54888446D01*
X46068153Y-54858153D01*
X46098446Y-54833292D01*
X46133005Y-54814820D01*
X46170501Y-54803445D01*
X46215638Y-54799000D01*
X46954362Y-54799000D01*
X46999499Y-54803445D01*
G37*
G36*
X46999499Y-53253445D02*
G01*
X47036995Y-53264820D01*
X47071554Y-53283292D01*
X47101847Y-53308153D01*
X47126708Y-53338446D01*
X47145180Y-53373005D01*
X47156555Y-53410501D01*
X47161000Y-53455638D01*
X47161000Y-54094362D01*
X47156555Y-54139499D01*
X47145180Y-54176995D01*
X47126708Y-54211554D01*
X47101847Y-54241847D01*
X47071554Y-54266708D01*
X47036995Y-54285180D01*
X46999499Y-54296555D01*
X46954362Y-54301000D01*
X46215638Y-54301000D01*
X46170501Y-54296555D01*
X46133005Y-54285180D01*
X46098446Y-54266708D01*
X46068153Y-54241847D01*
X46043292Y-54211554D01*
X46024820Y-54176995D01*
X46013445Y-54139499D01*
X46009000Y-54094362D01*
X46009000Y-53455638D01*
X46013445Y-53410501D01*
X46024820Y-53373005D01*
X46043292Y-53338446D01*
X46068153Y-53308153D01*
X46098446Y-53283292D01*
X46133005Y-53264820D01*
X46170501Y-53253445D01*
X46215638Y-53249000D01*
X46954362Y-53249000D01*
X46999499Y-53253445D01*
G37*
G36*
X45249499Y-53253445D02*
G01*
X45286995Y-53264820D01*
X45321554Y-53283292D01*
X45351847Y-53308153D01*
X45376708Y-53338446D01*
X45395180Y-53373005D01*
X45406555Y-53410501D01*
X45411000Y-53455638D01*
X45411000Y-54094362D01*
X45406555Y-54139499D01*
X45395180Y-54176995D01*
X45376708Y-54211554D01*
X45351847Y-54241847D01*
X45321554Y-54266708D01*
X45286995Y-54285180D01*
X45249499Y-54296555D01*
X45204362Y-54301000D01*
X44465638Y-54301000D01*
X44420501Y-54296555D01*
X44383005Y-54285180D01*
X44348446Y-54266708D01*
X44318153Y-54241847D01*
X44293292Y-54211554D01*
X44274820Y-54176995D01*
X44263445Y-54139499D01*
X44259000Y-54094362D01*
X44259000Y-53455638D01*
X44263445Y-53410501D01*
X44274820Y-53373005D01*
X44293292Y-53338446D01*
X44318153Y-53308153D01*
X44348446Y-53283292D01*
X44383005Y-53264820D01*
X44420501Y-53253445D01*
X44465638Y-53249000D01*
X45204362Y-53249000D01*
X45249499Y-53253445D01*
G37*
G36*
X84463512Y-51643927D02*
G01*
X84612812Y-51673624D01*
X84776784Y-51741544D01*
X84924354Y-51840147D01*
X85049853Y-51965646D01*
X85148456Y-52113216D01*
X85216376Y-52277188D01*
X85251000Y-52451259D01*
X85251000Y-52628741D01*
X85216376Y-52802812D01*
X85148456Y-52966784D01*
X85049853Y-53114354D01*
X84924354Y-53239853D01*
X84776784Y-53338456D01*
X84612812Y-53406376D01*
X84463512Y-53436073D01*
X84438742Y-53441000D01*
X84261258Y-53441000D01*
X84236488Y-53436073D01*
X84087188Y-53406376D01*
X83923216Y-53338456D01*
X83775646Y-53239853D01*
X83650147Y-53114354D01*
X83551544Y-52966784D01*
X83483624Y-52802812D01*
X83449000Y-52628741D01*
X83449000Y-52451259D01*
X83483624Y-52277188D01*
X83551544Y-52113216D01*
X83650147Y-51965646D01*
X83775646Y-51840147D01*
X83923216Y-51741544D01*
X84087188Y-51673624D01*
X84236488Y-51643927D01*
X84261258Y-51639000D01*
X84438742Y-51639000D01*
X84463512Y-51643927D01*
G37*
G36*
X66004499Y-52183445D02*
G01*
X66041995Y-52194820D01*
X66076554Y-52213292D01*
X66106847Y-52238153D01*
X66131708Y-52268446D01*
X66150180Y-52303005D01*
X66161555Y-52340501D01*
X66166000Y-52385638D01*
X66166000Y-53124362D01*
X66161555Y-53169499D01*
X66150180Y-53206995D01*
X66131708Y-53241554D01*
X66106847Y-53271847D01*
X66076554Y-53296708D01*
X66041995Y-53315180D01*
X66004499Y-53326555D01*
X65959362Y-53331000D01*
X65320638Y-53331000D01*
X65275501Y-53326555D01*
X65238005Y-53315180D01*
X65203446Y-53296708D01*
X65173153Y-53271847D01*
X65148292Y-53241554D01*
X65129820Y-53206995D01*
X65118445Y-53169499D01*
X65114000Y-53124362D01*
X65114000Y-52385638D01*
X65118445Y-52340501D01*
X65129820Y-52303005D01*
X65148292Y-52268446D01*
X65173153Y-52238153D01*
X65203446Y-52213292D01*
X65238005Y-52194820D01*
X65275501Y-52183445D01*
X65320638Y-52179000D01*
X65959362Y-52179000D01*
X66004499Y-52183445D01*
G37*
G36*
X62304499Y-52163445D02*
G01*
X62341995Y-52174820D01*
X62376554Y-52193292D01*
X62406847Y-52218153D01*
X62431708Y-52248446D01*
X62450180Y-52283005D01*
X62461555Y-52320501D01*
X62466000Y-52365638D01*
X62466000Y-53104362D01*
X62461555Y-53149499D01*
X62450180Y-53186995D01*
X62431708Y-53221554D01*
X62406847Y-53251847D01*
X62376554Y-53276708D01*
X62341995Y-53295180D01*
X62304499Y-53306555D01*
X62259362Y-53311000D01*
X61620638Y-53311000D01*
X61575501Y-53306555D01*
X61538005Y-53295180D01*
X61503446Y-53276708D01*
X61473153Y-53251847D01*
X61448292Y-53221554D01*
X61429820Y-53186995D01*
X61418445Y-53149499D01*
X61414000Y-53104362D01*
X61414000Y-52365638D01*
X61418445Y-52320501D01*
X61429820Y-52283005D01*
X61448292Y-52248446D01*
X61473153Y-52218153D01*
X61503446Y-52193292D01*
X61538005Y-52174820D01*
X61575501Y-52163445D01*
X61620638Y-52159000D01*
X62259362Y-52159000D01*
X62304499Y-52163445D01*
G37*
G36*
X60784499Y-52163445D02*
G01*
X60821995Y-52174820D01*
X60856554Y-52193292D01*
X60886847Y-52218153D01*
X60911708Y-52248446D01*
X60930180Y-52283005D01*
X60941555Y-52320501D01*
X60946000Y-52365638D01*
X60946000Y-53104362D01*
X60941555Y-53149499D01*
X60930180Y-53186995D01*
X60911708Y-53221554D01*
X60886847Y-53251847D01*
X60856554Y-53276708D01*
X60821995Y-53295180D01*
X60784499Y-53306555D01*
X60739362Y-53311000D01*
X60100638Y-53311000D01*
X60055501Y-53306555D01*
X60018005Y-53295180D01*
X59983446Y-53276708D01*
X59953153Y-53251847D01*
X59928292Y-53221554D01*
X59909820Y-53186995D01*
X59898445Y-53149499D01*
X59894000Y-53104362D01*
X59894000Y-52365638D01*
X59898445Y-52320501D01*
X59909820Y-52283005D01*
X59928292Y-52248446D01*
X59953153Y-52218153D01*
X59983446Y-52193292D01*
X60018005Y-52174820D01*
X60055501Y-52163445D01*
X60100638Y-52159000D01*
X60739362Y-52159000D01*
X60784499Y-52163445D01*
G37*
G36*
X63834499Y-52163445D02*
G01*
X63871995Y-52174820D01*
X63906554Y-52193292D01*
X63936847Y-52218153D01*
X63961708Y-52248446D01*
X63980180Y-52283005D01*
X63991555Y-52320501D01*
X63996000Y-52365638D01*
X63996000Y-53104362D01*
X63991555Y-53149499D01*
X63980180Y-53186995D01*
X63961708Y-53221554D01*
X63936847Y-53251847D01*
X63906554Y-53276708D01*
X63871995Y-53295180D01*
X63834499Y-53306555D01*
X63789362Y-53311000D01*
X63150638Y-53311000D01*
X63105501Y-53306555D01*
X63068005Y-53295180D01*
X63033446Y-53276708D01*
X63003153Y-53251847D01*
X62978292Y-53221554D01*
X62959820Y-53186995D01*
X62948445Y-53149499D01*
X62944000Y-53104362D01*
X62944000Y-52365638D01*
X62948445Y-52320501D01*
X62959820Y-52283005D01*
X62978292Y-52248446D01*
X63003153Y-52218153D01*
X63033446Y-52193292D01*
X63068005Y-52174820D01*
X63105501Y-52163445D01*
X63150638Y-52159000D01*
X63789362Y-52159000D01*
X63834499Y-52163445D01*
G37*
G36*
X48449890Y-51654017D02*
G01*
X48536326Y-51689820D01*
X48568364Y-51703091D01*
X48674988Y-51774335D01*
X48765665Y-51865012D01*
X48832907Y-51965646D01*
X48836910Y-51971638D01*
X48885983Y-52090110D01*
X48911000Y-52215881D01*
X48911000Y-52344119D01*
X48902741Y-52385638D01*
X48885983Y-52469890D01*
X48836909Y-52588364D01*
X48765665Y-52694988D01*
X48674988Y-52785665D01*
X48568364Y-52856909D01*
X48568363Y-52856910D01*
X48568362Y-52856910D01*
X48449890Y-52905983D01*
X48324119Y-52931000D01*
X48195881Y-52931000D01*
X48070110Y-52905983D01*
X47951638Y-52856910D01*
X47951637Y-52856910D01*
X47951636Y-52856909D01*
X47845012Y-52785665D01*
X47754335Y-52694988D01*
X47683091Y-52588364D01*
X47634017Y-52469890D01*
X47617259Y-52385638D01*
X47609000Y-52344119D01*
X47609000Y-52215881D01*
X47634017Y-52090110D01*
X47683090Y-51971638D01*
X47687094Y-51965646D01*
X47754335Y-51865012D01*
X47845012Y-51774335D01*
X47951636Y-51703091D01*
X47983675Y-51689820D01*
X48070110Y-51654017D01*
X48195881Y-51629000D01*
X48324119Y-51629000D01*
X48449890Y-51654017D01*
G37*
G36*
X59141000Y-52911000D02*
G01*
X57839000Y-52911000D01*
X57839000Y-51909000D01*
X59141000Y-51909000D01*
X59141000Y-52911000D01*
G37*
G36*
X45249499Y-51678445D02*
G01*
X45286995Y-51689820D01*
X45321554Y-51708292D01*
X45351847Y-51733153D01*
X45376708Y-51763446D01*
X45395180Y-51798005D01*
X45406555Y-51835501D01*
X45411000Y-51880638D01*
X45411000Y-52519362D01*
X45406555Y-52564499D01*
X45395180Y-52601995D01*
X45376708Y-52636554D01*
X45351847Y-52666847D01*
X45321554Y-52691708D01*
X45286995Y-52710180D01*
X45249499Y-52721555D01*
X45204362Y-52726000D01*
X44465638Y-52726000D01*
X44420501Y-52721555D01*
X44383005Y-52710180D01*
X44348446Y-52691708D01*
X44318153Y-52666847D01*
X44293292Y-52636554D01*
X44274820Y-52601995D01*
X44263445Y-52564499D01*
X44259000Y-52519362D01*
X44259000Y-51880638D01*
X44263445Y-51835501D01*
X44274820Y-51798005D01*
X44293292Y-51763446D01*
X44318153Y-51733153D01*
X44348446Y-51708292D01*
X44383005Y-51689820D01*
X44420501Y-51678445D01*
X44465638Y-51674000D01*
X45204362Y-51674000D01*
X45249499Y-51678445D01*
G37*
G36*
X46999499Y-51678445D02*
G01*
X47036995Y-51689820D01*
X47071554Y-51708292D01*
X47101847Y-51733153D01*
X47126708Y-51763446D01*
X47145180Y-51798005D01*
X47156555Y-51835501D01*
X47161000Y-51880638D01*
X47161000Y-52519362D01*
X47156555Y-52564499D01*
X47145180Y-52601995D01*
X47126708Y-52636554D01*
X47101847Y-52666847D01*
X47071554Y-52691708D01*
X47036995Y-52710180D01*
X46999499Y-52721555D01*
X46954362Y-52726000D01*
X46215638Y-52726000D01*
X46170501Y-52721555D01*
X46133005Y-52710180D01*
X46098446Y-52691708D01*
X46068153Y-52666847D01*
X46043292Y-52636554D01*
X46024820Y-52601995D01*
X46013445Y-52564499D01*
X46009000Y-52519362D01*
X46009000Y-51880638D01*
X46013445Y-51835501D01*
X46024820Y-51798005D01*
X46043292Y-51763446D01*
X46068153Y-51733153D01*
X46098446Y-51708292D01*
X46133005Y-51689820D01*
X46170501Y-51678445D01*
X46215638Y-51674000D01*
X46954362Y-51674000D01*
X46999499Y-51678445D01*
G37*
G36*
X66004499Y-50433445D02*
G01*
X66041995Y-50444820D01*
X66076554Y-50463292D01*
X66106847Y-50488153D01*
X66131708Y-50518446D01*
X66150180Y-50553005D01*
X66161555Y-50590501D01*
X66166000Y-50635638D01*
X66166000Y-51374362D01*
X66161555Y-51419499D01*
X66150180Y-51456995D01*
X66131708Y-51491554D01*
X66106847Y-51521847D01*
X66076554Y-51546708D01*
X66041995Y-51565180D01*
X66004499Y-51576555D01*
X65959362Y-51581000D01*
X65320638Y-51581000D01*
X65275501Y-51576555D01*
X65238005Y-51565180D01*
X65203446Y-51546708D01*
X65173153Y-51521847D01*
X65148292Y-51491554D01*
X65129820Y-51456995D01*
X65118445Y-51419499D01*
X65114000Y-51374362D01*
X65114000Y-50635638D01*
X65118445Y-50590501D01*
X65129820Y-50553005D01*
X65148292Y-50518446D01*
X65173153Y-50488153D01*
X65203446Y-50463292D01*
X65238005Y-50444820D01*
X65275501Y-50433445D01*
X65320638Y-50429000D01*
X65959362Y-50429000D01*
X66004499Y-50433445D01*
G37*
G36*
X63834499Y-50413445D02*
G01*
X63871995Y-50424820D01*
X63906554Y-50443292D01*
X63936847Y-50468153D01*
X63961708Y-50498446D01*
X63980180Y-50533005D01*
X63991555Y-50570501D01*
X63996000Y-50615638D01*
X63996000Y-51354362D01*
X63991555Y-51399499D01*
X63980180Y-51436995D01*
X63961708Y-51471554D01*
X63936847Y-51501847D01*
X63906554Y-51526708D01*
X63871995Y-51545180D01*
X63834499Y-51556555D01*
X63789362Y-51561000D01*
X63150638Y-51561000D01*
X63105501Y-51556555D01*
X63068005Y-51545180D01*
X63033446Y-51526708D01*
X63003153Y-51501847D01*
X62978292Y-51471554D01*
X62959820Y-51436995D01*
X62948445Y-51399499D01*
X62944000Y-51354362D01*
X62944000Y-50615638D01*
X62948445Y-50570501D01*
X62959820Y-50533005D01*
X62978292Y-50498446D01*
X63003153Y-50468153D01*
X63033446Y-50443292D01*
X63068005Y-50424820D01*
X63105501Y-50413445D01*
X63150638Y-50409000D01*
X63789362Y-50409000D01*
X63834499Y-50413445D01*
G37*
G36*
X62304499Y-50413445D02*
G01*
X62341995Y-50424820D01*
X62376554Y-50443292D01*
X62406847Y-50468153D01*
X62431708Y-50498446D01*
X62450180Y-50533005D01*
X62461555Y-50570501D01*
X62466000Y-50615638D01*
X62466000Y-51354362D01*
X62461555Y-51399499D01*
X62450180Y-51436995D01*
X62431708Y-51471554D01*
X62406847Y-51501847D01*
X62376554Y-51526708D01*
X62341995Y-51545180D01*
X62304499Y-51556555D01*
X62259362Y-51561000D01*
X61620638Y-51561000D01*
X61575501Y-51556555D01*
X61538005Y-51545180D01*
X61503446Y-51526708D01*
X61473153Y-51501847D01*
X61448292Y-51471554D01*
X61429820Y-51436995D01*
X61418445Y-51399499D01*
X61414000Y-51354362D01*
X61414000Y-50615638D01*
X61418445Y-50570501D01*
X61429820Y-50533005D01*
X61448292Y-50498446D01*
X61473153Y-50468153D01*
X61503446Y-50443292D01*
X61538005Y-50424820D01*
X61575501Y-50413445D01*
X61620638Y-50409000D01*
X62259362Y-50409000D01*
X62304499Y-50413445D01*
G37*
G36*
X60784499Y-50413445D02*
G01*
X60821995Y-50424820D01*
X60856554Y-50443292D01*
X60886847Y-50468153D01*
X60911708Y-50498446D01*
X60930180Y-50533005D01*
X60941555Y-50570501D01*
X60946000Y-50615638D01*
X60946000Y-51354362D01*
X60941555Y-51399499D01*
X60930180Y-51436995D01*
X60911708Y-51471554D01*
X60886847Y-51501847D01*
X60856554Y-51526708D01*
X60821995Y-51545180D01*
X60784499Y-51556555D01*
X60739362Y-51561000D01*
X60100638Y-51561000D01*
X60055501Y-51556555D01*
X60018005Y-51545180D01*
X59983446Y-51526708D01*
X59953153Y-51501847D01*
X59928292Y-51471554D01*
X59909820Y-51436995D01*
X59898445Y-51399499D01*
X59894000Y-51354362D01*
X59894000Y-50615638D01*
X59898445Y-50570501D01*
X59909820Y-50533005D01*
X59928292Y-50498446D01*
X59953153Y-50468153D01*
X59983446Y-50443292D01*
X60018005Y-50424820D01*
X60055501Y-50413445D01*
X60100638Y-50409000D01*
X60739362Y-50409000D01*
X60784499Y-50413445D01*
G37*
G36*
X56934499Y-50363445D02*
G01*
X56971995Y-50374820D01*
X57006554Y-50393292D01*
X57036847Y-50418153D01*
X57061708Y-50448446D01*
X57080180Y-50483005D01*
X57091555Y-50520501D01*
X57096000Y-50565638D01*
X57096000Y-51304362D01*
X57091555Y-51349499D01*
X57080180Y-51386995D01*
X57061708Y-51421554D01*
X57036847Y-51451847D01*
X57006554Y-51476708D01*
X56971995Y-51495180D01*
X56934499Y-51506555D01*
X56889362Y-51511000D01*
X56250638Y-51511000D01*
X56205501Y-51506555D01*
X56168005Y-51495180D01*
X56133446Y-51476708D01*
X56103153Y-51451847D01*
X56078292Y-51421554D01*
X56059820Y-51386995D01*
X56048445Y-51349499D01*
X56044000Y-51304362D01*
X56044000Y-50565638D01*
X56048445Y-50520501D01*
X56059820Y-50483005D01*
X56078292Y-50448446D01*
X56103153Y-50418153D01*
X56133446Y-50393292D01*
X56168005Y-50374820D01*
X56205501Y-50363445D01*
X56250638Y-50359000D01*
X56889362Y-50359000D01*
X56934499Y-50363445D01*
G37*
G36*
X53789499Y-50353445D02*
G01*
X53826995Y-50364820D01*
X53861554Y-50383292D01*
X53891847Y-50408153D01*
X53916708Y-50438446D01*
X53935180Y-50473005D01*
X53946555Y-50510501D01*
X53951000Y-50555638D01*
X53951000Y-51294362D01*
X53946555Y-51339499D01*
X53935180Y-51376995D01*
X53916708Y-51411554D01*
X53891847Y-51441847D01*
X53861554Y-51466708D01*
X53826995Y-51485180D01*
X53789499Y-51496555D01*
X53744362Y-51501000D01*
X53105638Y-51501000D01*
X53060501Y-51496555D01*
X53023005Y-51485180D01*
X52988446Y-51466708D01*
X52958153Y-51441847D01*
X52933292Y-51411554D01*
X52914820Y-51376995D01*
X52903445Y-51339499D01*
X52899000Y-51294362D01*
X52899000Y-50555638D01*
X52903445Y-50510501D01*
X52914820Y-50473005D01*
X52933292Y-50438446D01*
X52958153Y-50408153D01*
X52988446Y-50383292D01*
X53023005Y-50364820D01*
X53060501Y-50353445D01*
X53105638Y-50349000D01*
X53744362Y-50349000D01*
X53789499Y-50353445D01*
G37*
G36*
X52239499Y-50353445D02*
G01*
X52276995Y-50364820D01*
X52311554Y-50383292D01*
X52341847Y-50408153D01*
X52366708Y-50438446D01*
X52385180Y-50473005D01*
X52396555Y-50510501D01*
X52401000Y-50555638D01*
X52401000Y-51294362D01*
X52396555Y-51339499D01*
X52385180Y-51376995D01*
X52366708Y-51411554D01*
X52341847Y-51441847D01*
X52311554Y-51466708D01*
X52276995Y-51485180D01*
X52239499Y-51496555D01*
X52194362Y-51501000D01*
X51555638Y-51501000D01*
X51510501Y-51496555D01*
X51473005Y-51485180D01*
X51438446Y-51466708D01*
X51408153Y-51441847D01*
X51383292Y-51411554D01*
X51364820Y-51376995D01*
X51353445Y-51339499D01*
X51349000Y-51294362D01*
X51349000Y-50555638D01*
X51353445Y-50510501D01*
X51364820Y-50473005D01*
X51383292Y-50438446D01*
X51408153Y-50408153D01*
X51438446Y-50383292D01*
X51473005Y-50364820D01*
X51510501Y-50353445D01*
X51555638Y-50349000D01*
X52194362Y-50349000D01*
X52239499Y-50353445D01*
G37*
G36*
X55314499Y-50353445D02*
G01*
X55351995Y-50364820D01*
X55386554Y-50383292D01*
X55416847Y-50408153D01*
X55441708Y-50438446D01*
X55460180Y-50473005D01*
X55471555Y-50510501D01*
X55476000Y-50555638D01*
X55476000Y-51294362D01*
X55471555Y-51339499D01*
X55460180Y-51376995D01*
X55441708Y-51411554D01*
X55416847Y-51441847D01*
X55386554Y-51466708D01*
X55351995Y-51485180D01*
X55314499Y-51496555D01*
X55269362Y-51501000D01*
X54630638Y-51501000D01*
X54585501Y-51496555D01*
X54548005Y-51485180D01*
X54513446Y-51466708D01*
X54483153Y-51441847D01*
X54458292Y-51411554D01*
X54439820Y-51376995D01*
X54428445Y-51339499D01*
X54424000Y-51294362D01*
X54424000Y-50555638D01*
X54428445Y-50510501D01*
X54439820Y-50473005D01*
X54458292Y-50438446D01*
X54483153Y-50408153D01*
X54513446Y-50383292D01*
X54548005Y-50364820D01*
X54585501Y-50353445D01*
X54630638Y-50349000D01*
X55269362Y-50349000D01*
X55314499Y-50353445D01*
G37*
G36*
X45361000Y-51041000D02*
G01*
X44259000Y-51041000D01*
X44259000Y-48609000D01*
X45361000Y-48609000D01*
X45361000Y-51041000D01*
G37*
G36*
X50411000Y-51041000D02*
G01*
X49309000Y-51041000D01*
X49309000Y-48609000D01*
X50411000Y-48609000D01*
X50411000Y-51041000D01*
G37*
G36*
X43449499Y-49878445D02*
G01*
X43486995Y-49889820D01*
X43521554Y-49908292D01*
X43551847Y-49933153D01*
X43576708Y-49963446D01*
X43595180Y-49998005D01*
X43606555Y-50035501D01*
X43611000Y-50080638D01*
X43611000Y-50819362D01*
X43606555Y-50864499D01*
X43595180Y-50901995D01*
X43576708Y-50936554D01*
X43551847Y-50966847D01*
X43521554Y-50991708D01*
X43486995Y-51010180D01*
X43449499Y-51021555D01*
X43404362Y-51026000D01*
X42765638Y-51026000D01*
X42720501Y-51021555D01*
X42683005Y-51010180D01*
X42648446Y-50991708D01*
X42618153Y-50966847D01*
X42593292Y-50936554D01*
X42574820Y-50901995D01*
X42563445Y-50864499D01*
X42559000Y-50819362D01*
X42559000Y-50080638D01*
X42563445Y-50035501D01*
X42574820Y-49998005D01*
X42593292Y-49963446D01*
X42618153Y-49933153D01*
X42648446Y-49908292D01*
X42683005Y-49889820D01*
X42720501Y-49878445D01*
X42765638Y-49874000D01*
X43404362Y-49874000D01*
X43449499Y-49878445D01*
G37*
G36*
X85251000Y-50901000D02*
G01*
X83449000Y-50901000D01*
X83449000Y-49099000D01*
X85251000Y-49099000D01*
X85251000Y-50901000D01*
G37*
G36*
X69991000Y-50711000D02*
G01*
X69339000Y-50711000D01*
X69339000Y-49609000D01*
X69991000Y-49609000D01*
X69991000Y-50711000D01*
G37*
G36*
X71261000Y-50711000D02*
G01*
X70609000Y-50711000D01*
X70609000Y-49609000D01*
X71261000Y-49609000D01*
X71261000Y-50711000D01*
G37*
G36*
X72531000Y-50711000D02*
G01*
X71879000Y-50711000D01*
X71879000Y-49609000D01*
X72531000Y-49609000D01*
X72531000Y-50711000D01*
G37*
G36*
X68721000Y-50711000D02*
G01*
X68069000Y-50711000D01*
X68069000Y-49609000D01*
X68721000Y-49609000D01*
X68721000Y-50711000D01*
G37*
G36*
X56934499Y-48613445D02*
G01*
X56971995Y-48624820D01*
X57006554Y-48643292D01*
X57036847Y-48668153D01*
X57061708Y-48698446D01*
X57080180Y-48733005D01*
X57091555Y-48770501D01*
X57096000Y-48815638D01*
X57096000Y-49554362D01*
X57091555Y-49599499D01*
X57080180Y-49636995D01*
X57061708Y-49671554D01*
X57036847Y-49701847D01*
X57006554Y-49726708D01*
X56971995Y-49745180D01*
X56934499Y-49756555D01*
X56889362Y-49761000D01*
X56250638Y-49761000D01*
X56205501Y-49756555D01*
X56168005Y-49745180D01*
X56133446Y-49726708D01*
X56103153Y-49701847D01*
X56078292Y-49671554D01*
X56059820Y-49636995D01*
X56048445Y-49599499D01*
X56044000Y-49554362D01*
X56044000Y-48815638D01*
X56048445Y-48770501D01*
X56059820Y-48733005D01*
X56078292Y-48698446D01*
X56103153Y-48668153D01*
X56133446Y-48643292D01*
X56168005Y-48624820D01*
X56205501Y-48613445D01*
X56250638Y-48609000D01*
X56889362Y-48609000D01*
X56934499Y-48613445D01*
G37*
G36*
X53789499Y-48603445D02*
G01*
X53826995Y-48614820D01*
X53861554Y-48633292D01*
X53891847Y-48658153D01*
X53916708Y-48688446D01*
X53935180Y-48723005D01*
X53946555Y-48760501D01*
X53951000Y-48805638D01*
X53951000Y-49544362D01*
X53946555Y-49589499D01*
X53935180Y-49626995D01*
X53916708Y-49661554D01*
X53891847Y-49691847D01*
X53861554Y-49716708D01*
X53826995Y-49735180D01*
X53789499Y-49746555D01*
X53744362Y-49751000D01*
X53105638Y-49751000D01*
X53060501Y-49746555D01*
X53023005Y-49735180D01*
X52988446Y-49716708D01*
X52958153Y-49691847D01*
X52933292Y-49661554D01*
X52914820Y-49626995D01*
X52903445Y-49589499D01*
X52899000Y-49544362D01*
X52899000Y-48805638D01*
X52903445Y-48760501D01*
X52914820Y-48723005D01*
X52933292Y-48688446D01*
X52958153Y-48658153D01*
X52988446Y-48633292D01*
X53023005Y-48614820D01*
X53060501Y-48603445D01*
X53105638Y-48599000D01*
X53744362Y-48599000D01*
X53789499Y-48603445D01*
G37*
G36*
X55314499Y-48603445D02*
G01*
X55351995Y-48614820D01*
X55386554Y-48633292D01*
X55416847Y-48658153D01*
X55441708Y-48688446D01*
X55460180Y-48723005D01*
X55471555Y-48760501D01*
X55476000Y-48805638D01*
X55476000Y-49544362D01*
X55471555Y-49589499D01*
X55460180Y-49626995D01*
X55441708Y-49661554D01*
X55416847Y-49691847D01*
X55386554Y-49716708D01*
X55351995Y-49735180D01*
X55314499Y-49746555D01*
X55269362Y-49751000D01*
X54630638Y-49751000D01*
X54585501Y-49746555D01*
X54548005Y-49735180D01*
X54513446Y-49716708D01*
X54483153Y-49691847D01*
X54458292Y-49661554D01*
X54439820Y-49626995D01*
X54428445Y-49589499D01*
X54424000Y-49544362D01*
X54424000Y-48805638D01*
X54428445Y-48760501D01*
X54439820Y-48723005D01*
X54458292Y-48688446D01*
X54483153Y-48658153D01*
X54513446Y-48633292D01*
X54548005Y-48614820D01*
X54585501Y-48603445D01*
X54630638Y-48599000D01*
X55269362Y-48599000D01*
X55314499Y-48603445D01*
G37*
G36*
X52239499Y-48603445D02*
G01*
X52276995Y-48614820D01*
X52311554Y-48633292D01*
X52341847Y-48658153D01*
X52366708Y-48688446D01*
X52385180Y-48723005D01*
X52396555Y-48760501D01*
X52401000Y-48805638D01*
X52401000Y-49544362D01*
X52396555Y-49589499D01*
X52385180Y-49626995D01*
X52366708Y-49661554D01*
X52341847Y-49691847D01*
X52311554Y-49716708D01*
X52276995Y-49735180D01*
X52239499Y-49746555D01*
X52194362Y-49751000D01*
X51555638Y-49751000D01*
X51510501Y-49746555D01*
X51473005Y-49735180D01*
X51438446Y-49716708D01*
X51408153Y-49691847D01*
X51383292Y-49661554D01*
X51364820Y-49626995D01*
X51353445Y-49589499D01*
X51349000Y-49544362D01*
X51349000Y-48805638D01*
X51353445Y-48760501D01*
X51364820Y-48723005D01*
X51383292Y-48688446D01*
X51408153Y-48658153D01*
X51438446Y-48633292D01*
X51473005Y-48614820D01*
X51510501Y-48603445D01*
X51555638Y-48599000D01*
X52194362Y-48599000D01*
X52239499Y-48603445D01*
G37*
G36*
X59141000Y-49611000D02*
G01*
X57839000Y-49611000D01*
X57839000Y-48609000D01*
X59141000Y-48609000D01*
X59141000Y-49611000D01*
G37*
G36*
X43449499Y-48128445D02*
G01*
X43486995Y-48139820D01*
X43521554Y-48158292D01*
X43551847Y-48183153D01*
X43576708Y-48213446D01*
X43595180Y-48248005D01*
X43606555Y-48285501D01*
X43611000Y-48330638D01*
X43611000Y-49069362D01*
X43606555Y-49114499D01*
X43595180Y-49151995D01*
X43576708Y-49186554D01*
X43551847Y-49216847D01*
X43521554Y-49241708D01*
X43486995Y-49260180D01*
X43449499Y-49271555D01*
X43404362Y-49276000D01*
X42765638Y-49276000D01*
X42720501Y-49271555D01*
X42683005Y-49260180D01*
X42648446Y-49241708D01*
X42618153Y-49216847D01*
X42593292Y-49186554D01*
X42574820Y-49151995D01*
X42563445Y-49114499D01*
X42559000Y-49069362D01*
X42559000Y-48330638D01*
X42563445Y-48285501D01*
X42574820Y-48248005D01*
X42593292Y-48213446D01*
X42618153Y-48183153D01*
X42648446Y-48158292D01*
X42683005Y-48139820D01*
X42720501Y-48128445D01*
X42765638Y-48124000D01*
X43404362Y-48124000D01*
X43449499Y-48128445D01*
G37*
G36*
X52274499Y-46903445D02*
G01*
X52311995Y-46914820D01*
X52346554Y-46933292D01*
X52376847Y-46958153D01*
X52401708Y-46988446D01*
X52420180Y-47023005D01*
X52431555Y-47060501D01*
X52436000Y-47105638D01*
X52436000Y-47844362D01*
X52431555Y-47889499D01*
X52420180Y-47926995D01*
X52401708Y-47961554D01*
X52376847Y-47991847D01*
X52346554Y-48016708D01*
X52311995Y-48035180D01*
X52274499Y-48046555D01*
X52229362Y-48051000D01*
X51590638Y-48051000D01*
X51545501Y-48046555D01*
X51508005Y-48035180D01*
X51473446Y-48016708D01*
X51443153Y-47991847D01*
X51418292Y-47961554D01*
X51399820Y-47926995D01*
X51388445Y-47889499D01*
X51384000Y-47844362D01*
X51384000Y-47105638D01*
X51388445Y-47060501D01*
X51399820Y-47023005D01*
X51418292Y-46988446D01*
X51443153Y-46958153D01*
X51473446Y-46933292D01*
X51508005Y-46914820D01*
X51545501Y-46903445D01*
X51590638Y-46899000D01*
X52229362Y-46899000D01*
X52274499Y-46903445D01*
G37*
G36*
X53804499Y-46898445D02*
G01*
X53841995Y-46909820D01*
X53876554Y-46928292D01*
X53906847Y-46953153D01*
X53931708Y-46983446D01*
X53950180Y-47018005D01*
X53961555Y-47055501D01*
X53966000Y-47100638D01*
X53966000Y-47839362D01*
X53961555Y-47884499D01*
X53950180Y-47921995D01*
X53931708Y-47956554D01*
X53906847Y-47986847D01*
X53876554Y-48011708D01*
X53841995Y-48030180D01*
X53804499Y-48041555D01*
X53759362Y-48046000D01*
X53120638Y-48046000D01*
X53075501Y-48041555D01*
X53038005Y-48030180D01*
X53003446Y-48011708D01*
X52973153Y-47986847D01*
X52948292Y-47956554D01*
X52929820Y-47921995D01*
X52918445Y-47884499D01*
X52914000Y-47839362D01*
X52914000Y-47100638D01*
X52918445Y-47055501D01*
X52929820Y-47018005D01*
X52948292Y-46983446D01*
X52973153Y-46953153D01*
X53003446Y-46928292D01*
X53038005Y-46909820D01*
X53075501Y-46898445D01*
X53120638Y-46894000D01*
X53759362Y-46894000D01*
X53804499Y-46898445D01*
G37*
G36*
X55424499Y-46888445D02*
G01*
X55461995Y-46899820D01*
X55496554Y-46918292D01*
X55526847Y-46943153D01*
X55551708Y-46973446D01*
X55570180Y-47008005D01*
X55581555Y-47045501D01*
X55586000Y-47090638D01*
X55586000Y-47829362D01*
X55581555Y-47874499D01*
X55570180Y-47911995D01*
X55551708Y-47946554D01*
X55526847Y-47976847D01*
X55496554Y-48001708D01*
X55461995Y-48020180D01*
X55424499Y-48031555D01*
X55379362Y-48036000D01*
X54740638Y-48036000D01*
X54695501Y-48031555D01*
X54658005Y-48020180D01*
X54623446Y-48001708D01*
X54593153Y-47976847D01*
X54568292Y-47946554D01*
X54549820Y-47911995D01*
X54538445Y-47874499D01*
X54534000Y-47829362D01*
X54534000Y-47090638D01*
X54538445Y-47045501D01*
X54549820Y-47008005D01*
X54568292Y-46973446D01*
X54593153Y-46943153D01*
X54623446Y-46918292D01*
X54658005Y-46899820D01*
X54695501Y-46888445D01*
X54740638Y-46884000D01*
X55379362Y-46884000D01*
X55424499Y-46888445D01*
G37*
G36*
X72501000Y-47911000D02*
G01*
X68099000Y-47911000D01*
X68099000Y-44409000D01*
X72501000Y-44409000D01*
X72501000Y-47911000D01*
G37*
G36*
X45049499Y-46578445D02*
G01*
X45086995Y-46589820D01*
X45121554Y-46608292D01*
X45151847Y-46633153D01*
X45176708Y-46663446D01*
X45195180Y-46698005D01*
X45206555Y-46735501D01*
X45211000Y-46780638D01*
X45211000Y-47419362D01*
X45206555Y-47464499D01*
X45195180Y-47501995D01*
X45176708Y-47536554D01*
X45151847Y-47566847D01*
X45121554Y-47591708D01*
X45086995Y-47610180D01*
X45049499Y-47621555D01*
X45004362Y-47626000D01*
X44265638Y-47626000D01*
X44220501Y-47621555D01*
X44183005Y-47610180D01*
X44148446Y-47591708D01*
X44118153Y-47566847D01*
X44093292Y-47536554D01*
X44074820Y-47501995D01*
X44063445Y-47464499D01*
X44059000Y-47419362D01*
X44059000Y-46780638D01*
X44063445Y-46735501D01*
X44074820Y-46698005D01*
X44093292Y-46663446D01*
X44118153Y-46633153D01*
X44148446Y-46608292D01*
X44183005Y-46589820D01*
X44220501Y-46578445D01*
X44265638Y-46574000D01*
X45004362Y-46574000D01*
X45049499Y-46578445D01*
G37*
G36*
X46799499Y-46578445D02*
G01*
X46836995Y-46589820D01*
X46871554Y-46608292D01*
X46901847Y-46633153D01*
X46926708Y-46663446D01*
X46945180Y-46698005D01*
X46956555Y-46735501D01*
X46961000Y-46780638D01*
X46961000Y-47419362D01*
X46956555Y-47464499D01*
X46945180Y-47501995D01*
X46926708Y-47536554D01*
X46901847Y-47566847D01*
X46871554Y-47591708D01*
X46836995Y-47610180D01*
X46799499Y-47621555D01*
X46754362Y-47626000D01*
X46015638Y-47626000D01*
X45970501Y-47621555D01*
X45933005Y-47610180D01*
X45898446Y-47591708D01*
X45868153Y-47566847D01*
X45843292Y-47536554D01*
X45824820Y-47501995D01*
X45813445Y-47464499D01*
X45809000Y-47419362D01*
X45809000Y-46780638D01*
X45813445Y-46735501D01*
X45824820Y-46698005D01*
X45843292Y-46663446D01*
X45868153Y-46633153D01*
X45898446Y-46608292D01*
X45933005Y-46589820D01*
X45970501Y-46578445D01*
X46015638Y-46574000D01*
X46754362Y-46574000D01*
X46799499Y-46578445D01*
G37*
G36*
X88451000Y-47526000D02*
G01*
X86849000Y-47526000D01*
X86849000Y-46224000D01*
X88451000Y-46224000D01*
X88451000Y-47526000D01*
G37*
G36*
X86551000Y-46756000D02*
G01*
X84949000Y-46756000D01*
X84949000Y-45554000D01*
X86551000Y-45554000D01*
X86551000Y-46756000D01*
G37*
G36*
X52274499Y-45153445D02*
G01*
X52311995Y-45164820D01*
X52346554Y-45183292D01*
X52376847Y-45208153D01*
X52401708Y-45238446D01*
X52420180Y-45273005D01*
X52431555Y-45310501D01*
X52436000Y-45355638D01*
X52436000Y-46094362D01*
X52431555Y-46139499D01*
X52420180Y-46176995D01*
X52401708Y-46211554D01*
X52376847Y-46241847D01*
X52346554Y-46266708D01*
X52311995Y-46285180D01*
X52274499Y-46296555D01*
X52229362Y-46301000D01*
X51590638Y-46301000D01*
X51545501Y-46296555D01*
X51508005Y-46285180D01*
X51473446Y-46266708D01*
X51443153Y-46241847D01*
X51418292Y-46211554D01*
X51399820Y-46176995D01*
X51388445Y-46139499D01*
X51384000Y-46094362D01*
X51384000Y-45355638D01*
X51388445Y-45310501D01*
X51399820Y-45273005D01*
X51418292Y-45238446D01*
X51443153Y-45208153D01*
X51473446Y-45183292D01*
X51508005Y-45164820D01*
X51545501Y-45153445D01*
X51590638Y-45149000D01*
X52229362Y-45149000D01*
X52274499Y-45153445D01*
G37*
G36*
X53804499Y-45148445D02*
G01*
X53841995Y-45159820D01*
X53876554Y-45178292D01*
X53906847Y-45203153D01*
X53931708Y-45233446D01*
X53950180Y-45268005D01*
X53961555Y-45305501D01*
X53966000Y-45350638D01*
X53966000Y-46089362D01*
X53961555Y-46134499D01*
X53950180Y-46171995D01*
X53931708Y-46206554D01*
X53906847Y-46236847D01*
X53876554Y-46261708D01*
X53841995Y-46280180D01*
X53804499Y-46291555D01*
X53759362Y-46296000D01*
X53120638Y-46296000D01*
X53075501Y-46291555D01*
X53038005Y-46280180D01*
X53003446Y-46261708D01*
X52973153Y-46236847D01*
X52948292Y-46206554D01*
X52929820Y-46171995D01*
X52918445Y-46134499D01*
X52914000Y-46089362D01*
X52914000Y-45350638D01*
X52918445Y-45305501D01*
X52929820Y-45268005D01*
X52948292Y-45233446D01*
X52973153Y-45203153D01*
X53003446Y-45178292D01*
X53038005Y-45159820D01*
X53075501Y-45148445D01*
X53120638Y-45144000D01*
X53759362Y-45144000D01*
X53804499Y-45148445D01*
G37*
G36*
X55424499Y-45138445D02*
G01*
X55461995Y-45149820D01*
X55496554Y-45168292D01*
X55526847Y-45193153D01*
X55551708Y-45223446D01*
X55570180Y-45258005D01*
X55581555Y-45295501D01*
X55586000Y-45340638D01*
X55586000Y-46079362D01*
X55581555Y-46124499D01*
X55570180Y-46161995D01*
X55551708Y-46196554D01*
X55526847Y-46226847D01*
X55496554Y-46251708D01*
X55461995Y-46270180D01*
X55424499Y-46281555D01*
X55379362Y-46286000D01*
X54740638Y-46286000D01*
X54695501Y-46281555D01*
X54658005Y-46270180D01*
X54623446Y-46251708D01*
X54593153Y-46226847D01*
X54568292Y-46196554D01*
X54549820Y-46161995D01*
X54538445Y-46124499D01*
X54534000Y-46079362D01*
X54534000Y-45340638D01*
X54538445Y-45295501D01*
X54549820Y-45258005D01*
X54568292Y-45223446D01*
X54593153Y-45193153D01*
X54623446Y-45168292D01*
X54658005Y-45149820D01*
X54695501Y-45138445D01*
X54740638Y-45134000D01*
X55379362Y-45134000D01*
X55424499Y-45138445D01*
G37*
G36*
X87352383Y-44987489D02*
G01*
X87352386Y-44987490D01*
X87352385Y-44987490D01*
X87416258Y-45013946D01*
X87473748Y-45052360D01*
X87522640Y-45101252D01*
X87561054Y-45158742D01*
X87573306Y-45188323D01*
X87587511Y-45222617D01*
X87601000Y-45290430D01*
X87601000Y-45359570D01*
X87587511Y-45427383D01*
X87587510Y-45427385D01*
X87561054Y-45491258D01*
X87522640Y-45548748D01*
X87473748Y-45597640D01*
X87416258Y-45636054D01*
X87364182Y-45657624D01*
X87352383Y-45662511D01*
X87284570Y-45676000D01*
X87215430Y-45676000D01*
X87147617Y-45662511D01*
X87135818Y-45657624D01*
X87083742Y-45636054D01*
X87026252Y-45597640D01*
X86977360Y-45548748D01*
X86938946Y-45491258D01*
X86912490Y-45427385D01*
X86912489Y-45427383D01*
X86899000Y-45359570D01*
X86899000Y-45290430D01*
X86912489Y-45222617D01*
X86926694Y-45188323D01*
X86938946Y-45158742D01*
X86977360Y-45101252D01*
X87026252Y-45052360D01*
X87083742Y-45013946D01*
X87147615Y-44987490D01*
X87147614Y-44987490D01*
X87147617Y-44987489D01*
X87215430Y-44974000D01*
X87284570Y-44974000D01*
X87352383Y-44987489D01*
G37*
G36*
X87352383Y-43287489D02*
G01*
X87352386Y-43287490D01*
X87352385Y-43287490D01*
X87416258Y-43313946D01*
X87473748Y-43352360D01*
X87522640Y-43401252D01*
X87561054Y-43458742D01*
X87577190Y-43497699D01*
X87587511Y-43522617D01*
X87601000Y-43590430D01*
X87601000Y-43659570D01*
X87587511Y-43727383D01*
X87587510Y-43727385D01*
X87561054Y-43791258D01*
X87522640Y-43848748D01*
X87473748Y-43897640D01*
X87416258Y-43936054D01*
X87364182Y-43957624D01*
X87352383Y-43962511D01*
X87284570Y-43976000D01*
X87215430Y-43976000D01*
X87147617Y-43962511D01*
X87135818Y-43957624D01*
X87083742Y-43936054D01*
X87026252Y-43897640D01*
X86977360Y-43848748D01*
X86938946Y-43791258D01*
X86912490Y-43727385D01*
X86912489Y-43727383D01*
X86899000Y-43659570D01*
X86899000Y-43590430D01*
X86912489Y-43522617D01*
X86922810Y-43497699D01*
X86938946Y-43458742D01*
X86977360Y-43401252D01*
X87026252Y-43352360D01*
X87083742Y-43313946D01*
X87147615Y-43287490D01*
X87147614Y-43287490D01*
X87147617Y-43287489D01*
X87215430Y-43274000D01*
X87284570Y-43274000D01*
X87352383Y-43287489D01*
G37*
G36*
X44408600Y-41912989D02*
G01*
X44441652Y-41923015D01*
X44472103Y-41939292D01*
X44498799Y-41961201D01*
X44520708Y-41987897D01*
X44536985Y-42018348D01*
X44547011Y-42051400D01*
X44551000Y-42091903D01*
X44551000Y-43528097D01*
X44547011Y-43568600D01*
X44536985Y-43601652D01*
X44520708Y-43632103D01*
X44498799Y-43658799D01*
X44472103Y-43680708D01*
X44441652Y-43696985D01*
X44408600Y-43707011D01*
X44368097Y-43711000D01*
X42631903Y-43711000D01*
X42591400Y-43707011D01*
X42558348Y-43696985D01*
X42527897Y-43680708D01*
X42501201Y-43658799D01*
X42479292Y-43632103D01*
X42463015Y-43601652D01*
X42452989Y-43568600D01*
X42449000Y-43528097D01*
X42449000Y-42091903D01*
X42452989Y-42051400D01*
X42463015Y-42018348D01*
X42479292Y-41987897D01*
X42501201Y-41961201D01*
X42527897Y-41939292D01*
X42558348Y-41923015D01*
X42591400Y-41912989D01*
X42631903Y-41909000D01*
X44368097Y-41909000D01*
X44408600Y-41912989D01*
G37*
G36*
X61644499Y-42283445D02*
G01*
X61681995Y-42294820D01*
X61716554Y-42313292D01*
X61746847Y-42338153D01*
X61771708Y-42368446D01*
X61790180Y-42403005D01*
X61801555Y-42440501D01*
X61806000Y-42485638D01*
X61806000Y-43224362D01*
X61801555Y-43269499D01*
X61790180Y-43306995D01*
X61771708Y-43341554D01*
X61746847Y-43371847D01*
X61716554Y-43396708D01*
X61681995Y-43415180D01*
X61644499Y-43426555D01*
X61599362Y-43431000D01*
X60960638Y-43431000D01*
X60915501Y-43426555D01*
X60878005Y-43415180D01*
X60843446Y-43396708D01*
X60813153Y-43371847D01*
X60788292Y-43341554D01*
X60769820Y-43306995D01*
X60758445Y-43269499D01*
X60754000Y-43224362D01*
X60754000Y-42485638D01*
X60758445Y-42440501D01*
X60769820Y-42403005D01*
X60788292Y-42368446D01*
X60813153Y-42338153D01*
X60843446Y-42313292D01*
X60878005Y-42294820D01*
X60915501Y-42283445D01*
X60960638Y-42279000D01*
X61599362Y-42279000D01*
X61644499Y-42283445D01*
G37*
G36*
X64764499Y-42278445D02*
G01*
X64801995Y-42289820D01*
X64836554Y-42308292D01*
X64866847Y-42333153D01*
X64891708Y-42363446D01*
X64910180Y-42398005D01*
X64921555Y-42435501D01*
X64926000Y-42480638D01*
X64926000Y-43219362D01*
X64921555Y-43264499D01*
X64910180Y-43301995D01*
X64891708Y-43336554D01*
X64866847Y-43366847D01*
X64836554Y-43391708D01*
X64801995Y-43410180D01*
X64764499Y-43421555D01*
X64719362Y-43426000D01*
X64080638Y-43426000D01*
X64035501Y-43421555D01*
X63998005Y-43410180D01*
X63963446Y-43391708D01*
X63933153Y-43366847D01*
X63908292Y-43336554D01*
X63889820Y-43301995D01*
X63878445Y-43264499D01*
X63874000Y-43219362D01*
X63874000Y-42480638D01*
X63878445Y-42435501D01*
X63889820Y-42398005D01*
X63908292Y-42363446D01*
X63933153Y-42333153D01*
X63963446Y-42308292D01*
X63998005Y-42289820D01*
X64035501Y-42278445D01*
X64080638Y-42274000D01*
X64719362Y-42274000D01*
X64764499Y-42278445D01*
G37*
G36*
X60104499Y-42278445D02*
G01*
X60141995Y-42289820D01*
X60176554Y-42308292D01*
X60206847Y-42333153D01*
X60231708Y-42363446D01*
X60250180Y-42398005D01*
X60261555Y-42435501D01*
X60266000Y-42480638D01*
X60266000Y-43219362D01*
X60261555Y-43264499D01*
X60250180Y-43301995D01*
X60231708Y-43336554D01*
X60206847Y-43366847D01*
X60176554Y-43391708D01*
X60141995Y-43410180D01*
X60104499Y-43421555D01*
X60059362Y-43426000D01*
X59420638Y-43426000D01*
X59375501Y-43421555D01*
X59338005Y-43410180D01*
X59303446Y-43391708D01*
X59273153Y-43366847D01*
X59248292Y-43336554D01*
X59229820Y-43301995D01*
X59218445Y-43264499D01*
X59214000Y-43219362D01*
X59214000Y-42480638D01*
X59218445Y-42435501D01*
X59229820Y-42398005D01*
X59248292Y-42363446D01*
X59273153Y-42333153D01*
X59303446Y-42308292D01*
X59338005Y-42289820D01*
X59375501Y-42278445D01*
X59420638Y-42274000D01*
X60059362Y-42274000D01*
X60104499Y-42278445D01*
G37*
G36*
X63164499Y-42278445D02*
G01*
X63201995Y-42289820D01*
X63236554Y-42308292D01*
X63266847Y-42333153D01*
X63291708Y-42363446D01*
X63310180Y-42398005D01*
X63321555Y-42435501D01*
X63326000Y-42480638D01*
X63326000Y-43219362D01*
X63321555Y-43264499D01*
X63310180Y-43301995D01*
X63291708Y-43336554D01*
X63266847Y-43366847D01*
X63236554Y-43391708D01*
X63201995Y-43410180D01*
X63164499Y-43421555D01*
X63119362Y-43426000D01*
X62480638Y-43426000D01*
X62435501Y-43421555D01*
X62398005Y-43410180D01*
X62363446Y-43391708D01*
X62333153Y-43366847D01*
X62308292Y-43336554D01*
X62289820Y-43301995D01*
X62278445Y-43264499D01*
X62274000Y-43219362D01*
X62274000Y-42480638D01*
X62278445Y-42435501D01*
X62289820Y-42398005D01*
X62308292Y-42363446D01*
X62333153Y-42333153D01*
X62363446Y-42308292D01*
X62398005Y-42289820D01*
X62435501Y-42278445D01*
X62480638Y-42274000D01*
X63119362Y-42274000D01*
X63164499Y-42278445D01*
G37*
G36*
X66389499Y-42278445D02*
G01*
X66426995Y-42289820D01*
X66461554Y-42308292D01*
X66491847Y-42333153D01*
X66516708Y-42363446D01*
X66535180Y-42398005D01*
X66546555Y-42435501D01*
X66551000Y-42480638D01*
X66551000Y-43219362D01*
X66546555Y-43264499D01*
X66535180Y-43301995D01*
X66516708Y-43336554D01*
X66491847Y-43366847D01*
X66461554Y-43391708D01*
X66426995Y-43410180D01*
X66389499Y-43421555D01*
X66344362Y-43426000D01*
X65705638Y-43426000D01*
X65660501Y-43421555D01*
X65623005Y-43410180D01*
X65588446Y-43391708D01*
X65558153Y-43366847D01*
X65533292Y-43336554D01*
X65514820Y-43301995D01*
X65503445Y-43264499D01*
X65499000Y-43219362D01*
X65499000Y-42480638D01*
X65503445Y-42435501D01*
X65514820Y-42398005D01*
X65533292Y-42363446D01*
X65558153Y-42333153D01*
X65588446Y-42308292D01*
X65623005Y-42289820D01*
X65660501Y-42278445D01*
X65705638Y-42274000D01*
X66344362Y-42274000D01*
X66389499Y-42278445D01*
G37*
G36*
X86551000Y-43396000D02*
G01*
X84949000Y-43396000D01*
X84949000Y-42194000D01*
X86551000Y-42194000D01*
X86551000Y-43396000D01*
G37*
G36*
X88451000Y-42726000D02*
G01*
X86849000Y-42726000D01*
X86849000Y-41424000D01*
X88451000Y-41424000D01*
X88451000Y-42726000D01*
G37*
G36*
X72268907Y-41613717D02*
G01*
X72330358Y-41632358D01*
X72386993Y-41662630D01*
X72436632Y-41703368D01*
X72477370Y-41753007D01*
X72507642Y-41809642D01*
X72526283Y-41871093D01*
X72531000Y-41918987D01*
X72531000Y-42401013D01*
X72526283Y-42448907D01*
X72507642Y-42510358D01*
X72477370Y-42566993D01*
X72436633Y-42616631D01*
X72386992Y-42657370D01*
X72330357Y-42687642D01*
X72268906Y-42706283D01*
X72205000Y-42712577D01*
X72204999Y-42712577D01*
X72141093Y-42706283D01*
X72079642Y-42687642D01*
X72023007Y-42657370D01*
X71973369Y-42616633D01*
X71932630Y-42566992D01*
X71902358Y-42510357D01*
X71883717Y-42448906D01*
X71879000Y-42401012D01*
X71879000Y-41918989D01*
X71883718Y-41871093D01*
X71902359Y-41809642D01*
X71932631Y-41753007D01*
X71973369Y-41703368D01*
X72023008Y-41662630D01*
X72079643Y-41632358D01*
X72141094Y-41613717D01*
X72205000Y-41607423D01*
X72205001Y-41607423D01*
X72268907Y-41613717D01*
G37*
G36*
X71261000Y-42711000D02*
G01*
X70609000Y-42711000D01*
X70609000Y-41609000D01*
X71261000Y-41609000D01*
X71261000Y-42711000D01*
G37*
G36*
X68721000Y-42711000D02*
G01*
X68069000Y-42711000D01*
X68069000Y-41609000D01*
X68721000Y-41609000D01*
X68721000Y-42711000D01*
G37*
G36*
X69991000Y-42711000D02*
G01*
X69339000Y-42711000D01*
X69339000Y-41609000D01*
X69991000Y-41609000D01*
X69991000Y-42711000D01*
G37*
G36*
X61644499Y-40533445D02*
G01*
X61681995Y-40544820D01*
X61716554Y-40563292D01*
X61746847Y-40588153D01*
X61771708Y-40618446D01*
X61790180Y-40653005D01*
X61801555Y-40690501D01*
X61806000Y-40735638D01*
X61806000Y-41474362D01*
X61801555Y-41519499D01*
X61790180Y-41556995D01*
X61771708Y-41591554D01*
X61746847Y-41621847D01*
X61716554Y-41646708D01*
X61681995Y-41665180D01*
X61644499Y-41676555D01*
X61599362Y-41681000D01*
X60960638Y-41681000D01*
X60915501Y-41676555D01*
X60878005Y-41665180D01*
X60843446Y-41646708D01*
X60813153Y-41621847D01*
X60788292Y-41591554D01*
X60769820Y-41556995D01*
X60758445Y-41519499D01*
X60754000Y-41474362D01*
X60754000Y-40735638D01*
X60758445Y-40690501D01*
X60769820Y-40653005D01*
X60788292Y-40618446D01*
X60813153Y-40588153D01*
X60843446Y-40563292D01*
X60878005Y-40544820D01*
X60915501Y-40533445D01*
X60960638Y-40529000D01*
X61599362Y-40529000D01*
X61644499Y-40533445D01*
G37*
G36*
X66389499Y-40528445D02*
G01*
X66426995Y-40539820D01*
X66461554Y-40558292D01*
X66491847Y-40583153D01*
X66516708Y-40613446D01*
X66535180Y-40648005D01*
X66546555Y-40685501D01*
X66551000Y-40730638D01*
X66551000Y-41469362D01*
X66546555Y-41514499D01*
X66535180Y-41551995D01*
X66516708Y-41586554D01*
X66491847Y-41616847D01*
X66461554Y-41641708D01*
X66426995Y-41660180D01*
X66389499Y-41671555D01*
X66344362Y-41676000D01*
X65705638Y-41676000D01*
X65660501Y-41671555D01*
X65623005Y-41660180D01*
X65588446Y-41641708D01*
X65558153Y-41616847D01*
X65533292Y-41586554D01*
X65514820Y-41551995D01*
X65503445Y-41514499D01*
X65499000Y-41469362D01*
X65499000Y-40730638D01*
X65503445Y-40685501D01*
X65514820Y-40648005D01*
X65533292Y-40613446D01*
X65558153Y-40583153D01*
X65588446Y-40558292D01*
X65623005Y-40539820D01*
X65660501Y-40528445D01*
X65705638Y-40524000D01*
X66344362Y-40524000D01*
X66389499Y-40528445D01*
G37*
G36*
X64764499Y-40528445D02*
G01*
X64801995Y-40539820D01*
X64836554Y-40558292D01*
X64866847Y-40583153D01*
X64891708Y-40613446D01*
X64910180Y-40648005D01*
X64921555Y-40685501D01*
X64926000Y-40730638D01*
X64926000Y-41469362D01*
X64921555Y-41514499D01*
X64910180Y-41551995D01*
X64891708Y-41586554D01*
X64866847Y-41616847D01*
X64836554Y-41641708D01*
X64801995Y-41660180D01*
X64764499Y-41671555D01*
X64719362Y-41676000D01*
X64080638Y-41676000D01*
X64035501Y-41671555D01*
X63998005Y-41660180D01*
X63963446Y-41641708D01*
X63933153Y-41616847D01*
X63908292Y-41586554D01*
X63889820Y-41551995D01*
X63878445Y-41514499D01*
X63874000Y-41469362D01*
X63874000Y-40730638D01*
X63878445Y-40685501D01*
X63889820Y-40648005D01*
X63908292Y-40613446D01*
X63933153Y-40583153D01*
X63963446Y-40558292D01*
X63998005Y-40539820D01*
X64035501Y-40528445D01*
X64080638Y-40524000D01*
X64719362Y-40524000D01*
X64764499Y-40528445D01*
G37*
G36*
X60104499Y-40528445D02*
G01*
X60141995Y-40539820D01*
X60176554Y-40558292D01*
X60206847Y-40583153D01*
X60231708Y-40613446D01*
X60250180Y-40648005D01*
X60261555Y-40685501D01*
X60266000Y-40730638D01*
X60266000Y-41469362D01*
X60261555Y-41514499D01*
X60250180Y-41551995D01*
X60231708Y-41586554D01*
X60206847Y-41616847D01*
X60176554Y-41641708D01*
X60141995Y-41660180D01*
X60104499Y-41671555D01*
X60059362Y-41676000D01*
X59420638Y-41676000D01*
X59375501Y-41671555D01*
X59338005Y-41660180D01*
X59303446Y-41641708D01*
X59273153Y-41616847D01*
X59248292Y-41586554D01*
X59229820Y-41551995D01*
X59218445Y-41514499D01*
X59214000Y-41469362D01*
X59214000Y-40730638D01*
X59218445Y-40685501D01*
X59229820Y-40648005D01*
X59248292Y-40613446D01*
X59273153Y-40583153D01*
X59303446Y-40558292D01*
X59338005Y-40539820D01*
X59375501Y-40528445D01*
X59420638Y-40524000D01*
X60059362Y-40524000D01*
X60104499Y-40528445D01*
G37*
G36*
X63164499Y-40528445D02*
G01*
X63201995Y-40539820D01*
X63236554Y-40558292D01*
X63266847Y-40583153D01*
X63291708Y-40613446D01*
X63310180Y-40648005D01*
X63321555Y-40685501D01*
X63326000Y-40730638D01*
X63326000Y-41469362D01*
X63321555Y-41514499D01*
X63310180Y-41551995D01*
X63291708Y-41586554D01*
X63266847Y-41616847D01*
X63236554Y-41641708D01*
X63201995Y-41660180D01*
X63164499Y-41671555D01*
X63119362Y-41676000D01*
X62480638Y-41676000D01*
X62435501Y-41671555D01*
X62398005Y-41660180D01*
X62363446Y-41641708D01*
X62333153Y-41616847D01*
X62308292Y-41586554D01*
X62289820Y-41551995D01*
X62278445Y-41514499D01*
X62274000Y-41469362D01*
X62274000Y-40730638D01*
X62278445Y-40685501D01*
X62289820Y-40648005D01*
X62308292Y-40613446D01*
X62333153Y-40583153D01*
X62363446Y-40558292D01*
X62398005Y-40539820D01*
X62435501Y-40528445D01*
X62480638Y-40524000D01*
X63119362Y-40524000D01*
X63164499Y-40528445D01*
G37*
G36*
X43760443Y-39415519D02*
G01*
X43826627Y-39422037D01*
X43996466Y-39473557D01*
X44152991Y-39557222D01*
X44188729Y-39586552D01*
X44290186Y-39669814D01*
X44373448Y-39771271D01*
X44402778Y-39807009D01*
X44486443Y-39963534D01*
X44537963Y-40133373D01*
X44555359Y-40310000D01*
X44537963Y-40486627D01*
X44486443Y-40656466D01*
X44402778Y-40812991D01*
X44373448Y-40848729D01*
X44290186Y-40950186D01*
X44188729Y-41033448D01*
X44152991Y-41062778D01*
X43996466Y-41146443D01*
X43826627Y-41197963D01*
X43760442Y-41204482D01*
X43694260Y-41211000D01*
X43305740Y-41211000D01*
X43239558Y-41204482D01*
X43173373Y-41197963D01*
X43003534Y-41146443D01*
X42847009Y-41062778D01*
X42811271Y-41033448D01*
X42709814Y-40950186D01*
X42626552Y-40848729D01*
X42597222Y-40812991D01*
X42513557Y-40656466D01*
X42462037Y-40486627D01*
X42444641Y-40310000D01*
X42462037Y-40133373D01*
X42513557Y-39963534D01*
X42597222Y-39807009D01*
X42626552Y-39771271D01*
X42709814Y-39669814D01*
X42811271Y-39586552D01*
X42847009Y-39557222D01*
X43003534Y-39473557D01*
X43173373Y-39422037D01*
X43239557Y-39415519D01*
X43305740Y-39409000D01*
X43694260Y-39409000D01*
X43760443Y-39415519D01*
G37*
G36*
X44408600Y-33432989D02*
G01*
X44441652Y-33443015D01*
X44472103Y-33459292D01*
X44498799Y-33481201D01*
X44520708Y-33507897D01*
X44536985Y-33538348D01*
X44547011Y-33571400D01*
X44551000Y-33611903D01*
X44551000Y-35048097D01*
X44547011Y-35088600D01*
X44536985Y-35121652D01*
X44520708Y-35152103D01*
X44498799Y-35178799D01*
X44472103Y-35200708D01*
X44441652Y-35216985D01*
X44408600Y-35227011D01*
X44368097Y-35231000D01*
X42631903Y-35231000D01*
X42591400Y-35227011D01*
X42558348Y-35216985D01*
X42527897Y-35200708D01*
X42501201Y-35178799D01*
X42479292Y-35152103D01*
X42463015Y-35121652D01*
X42452989Y-35088600D01*
X42449000Y-35048097D01*
X42449000Y-33611903D01*
X42452989Y-33571400D01*
X42463015Y-33538348D01*
X42479292Y-33507897D01*
X42501201Y-33481201D01*
X42527897Y-33459292D01*
X42558348Y-33443015D01*
X42591400Y-33432989D01*
X42631903Y-33429000D01*
X44368097Y-33429000D01*
X44408600Y-33432989D01*
G37*
G36*
X75604499Y-32543445D02*
G01*
X75641995Y-32554820D01*
X75676554Y-32573292D01*
X75706847Y-32598153D01*
X75731708Y-32628446D01*
X75750180Y-32663005D01*
X75761555Y-32700501D01*
X75766000Y-32745638D01*
X75766000Y-33484362D01*
X75761555Y-33529499D01*
X75750180Y-33566995D01*
X75731708Y-33601554D01*
X75706847Y-33631847D01*
X75676554Y-33656708D01*
X75641995Y-33675180D01*
X75604499Y-33686555D01*
X75559362Y-33691000D01*
X74920638Y-33691000D01*
X74875501Y-33686555D01*
X74838005Y-33675180D01*
X74803446Y-33656708D01*
X74773153Y-33631847D01*
X74748292Y-33601554D01*
X74729820Y-33566995D01*
X74718445Y-33529499D01*
X74714000Y-33484362D01*
X74714000Y-32745638D01*
X74718445Y-32700501D01*
X74729820Y-32663005D01*
X74748292Y-32628446D01*
X74773153Y-32598153D01*
X74803446Y-32573292D01*
X74838005Y-32554820D01*
X74875501Y-32543445D01*
X74920638Y-32539000D01*
X75559362Y-32539000D01*
X75604499Y-32543445D01*
G37*
G36*
X61877617Y-31778420D02*
G01*
X61968403Y-31805960D01*
X62000335Y-31815646D01*
X62113424Y-31876094D01*
X62212554Y-31957447D01*
X62293906Y-32056575D01*
X62354354Y-32169664D01*
X62356417Y-32176466D01*
X62391580Y-32292382D01*
X62401000Y-32388027D01*
X62401000Y-33051973D01*
X62391580Y-33147618D01*
X62364040Y-33238404D01*
X62354354Y-33270336D01*
X62293906Y-33383425D01*
X62212554Y-33482554D01*
X62113425Y-33563906D01*
X62000336Y-33624354D01*
X61975634Y-33631847D01*
X61877618Y-33661580D01*
X61750000Y-33674149D01*
X61622383Y-33661580D01*
X61524367Y-33631847D01*
X61499665Y-33624354D01*
X61386576Y-33563906D01*
X61287447Y-33482554D01*
X61206096Y-33383427D01*
X61145645Y-33270333D01*
X61133237Y-33229427D01*
X61108420Y-33147618D01*
X61099000Y-33051973D01*
X61099000Y-32388028D01*
X61108420Y-32292383D01*
X61135960Y-32201597D01*
X61145646Y-32169665D01*
X61206094Y-32056576D01*
X61287447Y-31957446D01*
X61386575Y-31876094D01*
X61499664Y-31815646D01*
X61531596Y-31805960D01*
X61622382Y-31778420D01*
X61750000Y-31765851D01*
X61877617Y-31778420D01*
G37*
G36*
X59377617Y-31778420D02*
G01*
X59468403Y-31805960D01*
X59500335Y-31815646D01*
X59613424Y-31876094D01*
X59712554Y-31957447D01*
X59793906Y-32056575D01*
X59854354Y-32169664D01*
X59856417Y-32176466D01*
X59891580Y-32292382D01*
X59901000Y-32388027D01*
X59901000Y-33051973D01*
X59891580Y-33147618D01*
X59864040Y-33238404D01*
X59854354Y-33270336D01*
X59793906Y-33383425D01*
X59712554Y-33482554D01*
X59613425Y-33563906D01*
X59500336Y-33624354D01*
X59475634Y-33631847D01*
X59377618Y-33661580D01*
X59250000Y-33674149D01*
X59122383Y-33661580D01*
X59024367Y-33631847D01*
X58999665Y-33624354D01*
X58886576Y-33563906D01*
X58787447Y-33482554D01*
X58706096Y-33383427D01*
X58645645Y-33270333D01*
X58633237Y-33229427D01*
X58608420Y-33147618D01*
X58599000Y-33051973D01*
X58599000Y-32388028D01*
X58608420Y-32292383D01*
X58635960Y-32201597D01*
X58645646Y-32169665D01*
X58706094Y-32056576D01*
X58787447Y-31957446D01*
X58886575Y-31876094D01*
X58999664Y-31815646D01*
X59031596Y-31805960D01*
X59122382Y-31778420D01*
X59250000Y-31765851D01*
X59377617Y-31778420D01*
G37*
G36*
X57377617Y-31778420D02*
G01*
X57468403Y-31805960D01*
X57500335Y-31815646D01*
X57613424Y-31876094D01*
X57712554Y-31957447D01*
X57793906Y-32056575D01*
X57854354Y-32169664D01*
X57856417Y-32176466D01*
X57891580Y-32292382D01*
X57901000Y-32388027D01*
X57901000Y-33051973D01*
X57891580Y-33147618D01*
X57864040Y-33238404D01*
X57854354Y-33270336D01*
X57793906Y-33383425D01*
X57712554Y-33482554D01*
X57613425Y-33563906D01*
X57500336Y-33624354D01*
X57475634Y-33631847D01*
X57377618Y-33661580D01*
X57250000Y-33674149D01*
X57122383Y-33661580D01*
X57024367Y-33631847D01*
X56999665Y-33624354D01*
X56886576Y-33563906D01*
X56787447Y-33482554D01*
X56706096Y-33383427D01*
X56645645Y-33270333D01*
X56633237Y-33229427D01*
X56608420Y-33147618D01*
X56599000Y-33051973D01*
X56599000Y-32388028D01*
X56608420Y-32292383D01*
X56635960Y-32201597D01*
X56645646Y-32169665D01*
X56706094Y-32056576D01*
X56787447Y-31957446D01*
X56886575Y-31876094D01*
X56999664Y-31815646D01*
X57031596Y-31805960D01*
X57122382Y-31778420D01*
X57250000Y-31765851D01*
X57377617Y-31778420D01*
G37*
G36*
X54877617Y-31778420D02*
G01*
X54968403Y-31805960D01*
X55000335Y-31815646D01*
X55113424Y-31876094D01*
X55212554Y-31957447D01*
X55293906Y-32056575D01*
X55354354Y-32169664D01*
X55356417Y-32176466D01*
X55391580Y-32292382D01*
X55401000Y-32388027D01*
X55401000Y-33051973D01*
X55391580Y-33147618D01*
X55364040Y-33238404D01*
X55354354Y-33270336D01*
X55293906Y-33383425D01*
X55212554Y-33482554D01*
X55113425Y-33563906D01*
X55000336Y-33624354D01*
X54975634Y-33631847D01*
X54877618Y-33661580D01*
X54750000Y-33674149D01*
X54622383Y-33661580D01*
X54524367Y-33631847D01*
X54499665Y-33624354D01*
X54386576Y-33563906D01*
X54287447Y-33482554D01*
X54206096Y-33383427D01*
X54145645Y-33270333D01*
X54133237Y-33229427D01*
X54108420Y-33147618D01*
X54099000Y-33051973D01*
X54099000Y-32388028D01*
X54108420Y-32292383D01*
X54135960Y-32201597D01*
X54145646Y-32169665D01*
X54206094Y-32056576D01*
X54287447Y-31957446D01*
X54386575Y-31876094D01*
X54499664Y-31815646D01*
X54531596Y-31805960D01*
X54622382Y-31778420D01*
X54750000Y-31765851D01*
X54877617Y-31778420D01*
G37*
G36*
X79621000Y-33591000D02*
G01*
X78269000Y-33591000D01*
X78269000Y-32689000D01*
X79621000Y-32689000D01*
X79621000Y-33591000D01*
G37*
G36*
X77971000Y-33591000D02*
G01*
X76619000Y-33591000D01*
X76619000Y-32689000D01*
X77971000Y-32689000D01*
X77971000Y-33591000D01*
G37*
G36*
X43760442Y-30935518D02*
G01*
X43826627Y-30942037D01*
X43996466Y-30993557D01*
X44152991Y-31077222D01*
X44188729Y-31106552D01*
X44290186Y-31189814D01*
X44371694Y-31289133D01*
X44402778Y-31327009D01*
X44486443Y-31483534D01*
X44537963Y-31653373D01*
X44555359Y-31830000D01*
X44537963Y-32006627D01*
X44486443Y-32176466D01*
X44402778Y-32332991D01*
X44373448Y-32368729D01*
X44290186Y-32470186D01*
X44200918Y-32543445D01*
X44152991Y-32582778D01*
X44152989Y-32582779D01*
X44016219Y-32655885D01*
X43996466Y-32666443D01*
X43826627Y-32717963D01*
X43760442Y-32724482D01*
X43694260Y-32731000D01*
X43305740Y-32731000D01*
X43239558Y-32724482D01*
X43173373Y-32717963D01*
X43003534Y-32666443D01*
X42983782Y-32655885D01*
X42847011Y-32582779D01*
X42847009Y-32582778D01*
X42799082Y-32543445D01*
X42709814Y-32470186D01*
X42626552Y-32368729D01*
X42597222Y-32332991D01*
X42513557Y-32176466D01*
X42462037Y-32006627D01*
X42444641Y-31830000D01*
X42462037Y-31653373D01*
X42513557Y-31483534D01*
X42597222Y-31327009D01*
X42628306Y-31289133D01*
X42709814Y-31189814D01*
X42811271Y-31106552D01*
X42847009Y-31077222D01*
X43003534Y-30993557D01*
X43173373Y-30942037D01*
X43239558Y-30935518D01*
X43305740Y-30929000D01*
X43694260Y-30929000D01*
X43760442Y-30935518D01*
G37*
G36*
X75604499Y-30793445D02*
G01*
X75641995Y-30804820D01*
X75676554Y-30823292D01*
X75706847Y-30848153D01*
X75731708Y-30878446D01*
X75750180Y-30913005D01*
X75761555Y-30950501D01*
X75766000Y-30995638D01*
X75766000Y-31734362D01*
X75761555Y-31779499D01*
X75750180Y-31816995D01*
X75731708Y-31851554D01*
X75706847Y-31881847D01*
X75676554Y-31906708D01*
X75641995Y-31925180D01*
X75604499Y-31936555D01*
X75559362Y-31941000D01*
X74920638Y-31941000D01*
X74875501Y-31936555D01*
X74838005Y-31925180D01*
X74803446Y-31906708D01*
X74773153Y-31881847D01*
X74748292Y-31851554D01*
X74729820Y-31816995D01*
X74718445Y-31779499D01*
X74714000Y-31734362D01*
X74714000Y-30995638D01*
X74718445Y-30950501D01*
X74729820Y-30913005D01*
X74748292Y-30878446D01*
X74773153Y-30848153D01*
X74803446Y-30823292D01*
X74838005Y-30804820D01*
X74875501Y-30793445D01*
X74920638Y-30789000D01*
X75559362Y-30789000D01*
X75604499Y-30793445D01*
G37*
G36*
X79621000Y-31791000D02*
G01*
X78269000Y-31791000D01*
X78269000Y-30889000D01*
X79621000Y-30889000D01*
X79621000Y-31791000D01*
G37*
G36*
X77971000Y-31791000D02*
G01*
X76619000Y-31791000D01*
X76619000Y-30889000D01*
X77971000Y-30889000D01*
X77971000Y-31791000D01*
G37*
G36*
X51907022Y-29030590D02*
G01*
X52007681Y-29061125D01*
X52058012Y-29076392D01*
X52197164Y-29150771D01*
X52319133Y-29250867D01*
X52419229Y-29372835D01*
X52493608Y-29511987D01*
X52508875Y-29562318D01*
X52539410Y-29662977D01*
X52551000Y-29780655D01*
X52551000Y-30759345D01*
X52539410Y-30877023D01*
X52528495Y-30913005D01*
X52493608Y-31028013D01*
X52419229Y-31167165D01*
X52319133Y-31289133D01*
X52197165Y-31389229D01*
X52058013Y-31463608D01*
X52007682Y-31478875D01*
X51907023Y-31509410D01*
X51750000Y-31524875D01*
X51592978Y-31509410D01*
X51492319Y-31478875D01*
X51441988Y-31463608D01*
X51302836Y-31389229D01*
X51180868Y-31289133D01*
X51080772Y-31167165D01*
X51006393Y-31028013D01*
X50971506Y-30913005D01*
X50960591Y-30877023D01*
X50949000Y-30759345D01*
X50949000Y-29780656D01*
X50960590Y-29662978D01*
X51006392Y-29511989D01*
X51006392Y-29511988D01*
X51080771Y-29372836D01*
X51080772Y-29372835D01*
X51180867Y-29250867D01*
X51302835Y-29150771D01*
X51441987Y-29076392D01*
X51492318Y-29061125D01*
X51592977Y-29030590D01*
X51750000Y-29015125D01*
X51907022Y-29030590D01*
G37*
G36*
X64907022Y-29030590D02*
G01*
X65007681Y-29061125D01*
X65058012Y-29076392D01*
X65197164Y-29150771D01*
X65319133Y-29250867D01*
X65419229Y-29372835D01*
X65493608Y-29511987D01*
X65508875Y-29562318D01*
X65539410Y-29662977D01*
X65551000Y-29780655D01*
X65551000Y-30759345D01*
X65539410Y-30877023D01*
X65528495Y-30913005D01*
X65493608Y-31028013D01*
X65419229Y-31167165D01*
X65319133Y-31289133D01*
X65197165Y-31389229D01*
X65058013Y-31463608D01*
X65007682Y-31478875D01*
X64907023Y-31509410D01*
X64750000Y-31524875D01*
X64592978Y-31509410D01*
X64492319Y-31478875D01*
X64441988Y-31463608D01*
X64302836Y-31389229D01*
X64180868Y-31289133D01*
X64080772Y-31167165D01*
X64006393Y-31028013D01*
X63971506Y-30913005D01*
X63960591Y-30877023D01*
X63949000Y-30759345D01*
X63949000Y-29780656D01*
X63960590Y-29662978D01*
X64006392Y-29511989D01*
X64006392Y-29511988D01*
X64080771Y-29372836D01*
X64080772Y-29372835D01*
X64180867Y-29250867D01*
X64302835Y-29150771D01*
X64441987Y-29076392D01*
X64492318Y-29061125D01*
X64592977Y-29030590D01*
X64750000Y-29015125D01*
X64907022Y-29030590D01*
G37*
G36*
X46225092Y-22185778D02*
G01*
X46668282Y-22273934D01*
X47259926Y-22519001D01*
X47792392Y-22874784D01*
X48245216Y-23327608D01*
X48600999Y-23860074D01*
X48829834Y-24412531D01*
X48846066Y-24451719D01*
X48971000Y-25079803D01*
X48971000Y-25720197D01*
X48944820Y-25851814D01*
X48846066Y-26348282D01*
X48600999Y-26939926D01*
X48245216Y-27472392D01*
X47792392Y-27925216D01*
X47259926Y-28280999D01*
X46668282Y-28526066D01*
X46354239Y-28588533D01*
X46040197Y-28651000D01*
X45399803Y-28651000D01*
X45085761Y-28588533D01*
X44771718Y-28526066D01*
X44180074Y-28280999D01*
X43647608Y-27925216D01*
X43194784Y-27472392D01*
X42839001Y-26939926D01*
X42593934Y-26348282D01*
X42495180Y-25851814D01*
X42469000Y-25720197D01*
X42469000Y-25079803D01*
X42593934Y-24451719D01*
X42610166Y-24412531D01*
X42839001Y-23860074D01*
X43194784Y-23327608D01*
X43647608Y-22874784D01*
X44180074Y-22519001D01*
X44771718Y-22273934D01*
X45214908Y-22185778D01*
X45399803Y-22149000D01*
X46040197Y-22149000D01*
X46225092Y-22185778D01*
G37*
G36*
X84465092Y-22185778D02*
G01*
X84908282Y-22273934D01*
X85499926Y-22519001D01*
X86032392Y-22874784D01*
X86485216Y-23327608D01*
X86840999Y-23860074D01*
X87069834Y-24412531D01*
X87086066Y-24451719D01*
X87211000Y-25079803D01*
X87211000Y-25720197D01*
X87184820Y-25851814D01*
X87086066Y-26348282D01*
X86840999Y-26939926D01*
X86485216Y-27472392D01*
X86032392Y-27925216D01*
X85499926Y-28280999D01*
X84908282Y-28526066D01*
X84594239Y-28588533D01*
X84280197Y-28651000D01*
X83639803Y-28651000D01*
X83325761Y-28588533D01*
X83011718Y-28526066D01*
X82420074Y-28280999D01*
X81887608Y-27925216D01*
X81434784Y-27472392D01*
X81079001Y-26939926D01*
X80833934Y-26348282D01*
X80735180Y-25851814D01*
X80709000Y-25720197D01*
X80709000Y-25079803D01*
X80833934Y-24451719D01*
X80850166Y-24412531D01*
X81079001Y-23860074D01*
X81434784Y-23327608D01*
X81887608Y-22874784D01*
X82420074Y-22519001D01*
X83011718Y-22273934D01*
X83454908Y-22185778D01*
X83639803Y-22149000D01*
X84280197Y-22149000D01*
X84465092Y-22185778D01*
G37*
G36*
X73956000Y-27302500D02*
G01*
X70804000Y-27302500D01*
X70804000Y-25100500D01*
X73956000Y-25100500D01*
X73956000Y-27302500D01*
G37*
G36*
X75011552Y-25067831D02*
G01*
X75093627Y-25101828D01*
X75093629Y-25101829D01*
X75109605Y-25112504D01*
X75167495Y-25151185D01*
X75230315Y-25214005D01*
X75279672Y-25287873D01*
X75313669Y-25369948D01*
X75331000Y-25457079D01*
X75331000Y-25545921D01*
X75313669Y-25633052D01*
X75291117Y-25687496D01*
X75279671Y-25715129D01*
X75230314Y-25788996D01*
X75167496Y-25851814D01*
X75093629Y-25901171D01*
X75093628Y-25901172D01*
X75093627Y-25901172D01*
X75011552Y-25935169D01*
X74924421Y-25952500D01*
X74835579Y-25952500D01*
X74748448Y-25935169D01*
X74666373Y-25901172D01*
X74666372Y-25901172D01*
X74666371Y-25901171D01*
X74592504Y-25851814D01*
X74529686Y-25788996D01*
X74480329Y-25715129D01*
X74468883Y-25687496D01*
X74446331Y-25633052D01*
X74429000Y-25545921D01*
X74429000Y-25457079D01*
X74446331Y-25369948D01*
X74480328Y-25287873D01*
X74529685Y-25214005D01*
X74592505Y-25151185D01*
X74650395Y-25112504D01*
X74666371Y-25101829D01*
X74666373Y-25101828D01*
X74748448Y-25067831D01*
X74835579Y-25050500D01*
X74924421Y-25050500D01*
X75011552Y-25067831D01*
G37*
G36*
X70011552Y-25067831D02*
G01*
X70093627Y-25101828D01*
X70093629Y-25101829D01*
X70109605Y-25112504D01*
X70167495Y-25151185D01*
X70230315Y-25214005D01*
X70279672Y-25287873D01*
X70313669Y-25369948D01*
X70331000Y-25457079D01*
X70331000Y-25545921D01*
X70313669Y-25633052D01*
X70291117Y-25687496D01*
X70279671Y-25715129D01*
X70230314Y-25788996D01*
X70167496Y-25851814D01*
X70093629Y-25901171D01*
X70093628Y-25901172D01*
X70093627Y-25901172D01*
X70011552Y-25935169D01*
X69924421Y-25952500D01*
X69835579Y-25952500D01*
X69748448Y-25935169D01*
X69666373Y-25901172D01*
X69666372Y-25901172D01*
X69666371Y-25901171D01*
X69592504Y-25851814D01*
X69529686Y-25788996D01*
X69480329Y-25715129D01*
X69468883Y-25687496D01*
X69446331Y-25633052D01*
X69429000Y-25545921D01*
X69429000Y-25457079D01*
X69446331Y-25369948D01*
X69480328Y-25287873D01*
X69529685Y-25214005D01*
X69592505Y-25151185D01*
X69650395Y-25112504D01*
X69666371Y-25101829D01*
X69666373Y-25101828D01*
X69748448Y-25067831D01*
X69835579Y-25050500D01*
X69924421Y-25050500D01*
X70011552Y-25067831D01*
G37*
G36*
X76263843Y-24180292D02*
G01*
X76314588Y-24201311D01*
X76350470Y-24216174D01*
X76428432Y-24268267D01*
X76494733Y-24334568D01*
X76546826Y-24412530D01*
X76546826Y-24412531D01*
X76582708Y-24499157D01*
X76601000Y-24591117D01*
X76601000Y-24684883D01*
X76582708Y-24776843D01*
X76561689Y-24827588D01*
X76546826Y-24863470D01*
X76494733Y-24941432D01*
X76428432Y-25007733D01*
X76350470Y-25059826D01*
X76331141Y-25067832D01*
X76263843Y-25095708D01*
X76171883Y-25114000D01*
X76078117Y-25114000D01*
X75986157Y-25095708D01*
X75918859Y-25067832D01*
X75899530Y-25059826D01*
X75821568Y-25007733D01*
X75755267Y-24941432D01*
X75703174Y-24863470D01*
X75688311Y-24827588D01*
X75667292Y-24776843D01*
X75649000Y-24684883D01*
X75649000Y-24591117D01*
X75667292Y-24499157D01*
X75703174Y-24412531D01*
X75703174Y-24412530D01*
X75755267Y-24334568D01*
X75821568Y-24268267D01*
X75899530Y-24216174D01*
X75935412Y-24201311D01*
X75986157Y-24180292D01*
X76078117Y-24162000D01*
X76171883Y-24162000D01*
X76263843Y-24180292D01*
G37*
G36*
X68263843Y-24180292D02*
G01*
X68314588Y-24201311D01*
X68350470Y-24216174D01*
X68428432Y-24268267D01*
X68494733Y-24334568D01*
X68546826Y-24412530D01*
X68546826Y-24412531D01*
X68582708Y-24499157D01*
X68601000Y-24591117D01*
X68601000Y-24684883D01*
X68582708Y-24776843D01*
X68561689Y-24827588D01*
X68546826Y-24863470D01*
X68494733Y-24941432D01*
X68428432Y-25007733D01*
X68350470Y-25059826D01*
X68331141Y-25067832D01*
X68263843Y-25095708D01*
X68171883Y-25114000D01*
X68078117Y-25114000D01*
X67986157Y-25095708D01*
X67918859Y-25067832D01*
X67899530Y-25059826D01*
X67821568Y-25007733D01*
X67755267Y-24941432D01*
X67703174Y-24863470D01*
X67688311Y-24827588D01*
X67667292Y-24776843D01*
X67649000Y-24684883D01*
X67649000Y-24591117D01*
X67667292Y-24499157D01*
X67703174Y-24412531D01*
X67703174Y-24412530D01*
X67755267Y-24334568D01*
X67821568Y-24268267D01*
X67899530Y-24216174D01*
X67935412Y-24201311D01*
X67986157Y-24180292D01*
X68078117Y-24162000D01*
X68171883Y-24162000D01*
X68263843Y-24180292D01*
G37*
G36*
X68627715Y-21809558D02*
G01*
X68745722Y-21845355D01*
X68854468Y-21903481D01*
X68949790Y-21981710D01*
X69028019Y-22077032D01*
X69086145Y-22185778D01*
X69121942Y-22303785D01*
X69131000Y-22395754D01*
X69131000Y-23107246D01*
X69121942Y-23199215D01*
X69086145Y-23317222D01*
X69028019Y-23425968D01*
X68949790Y-23521290D01*
X68854468Y-23599519D01*
X68745721Y-23657645D01*
X68745718Y-23657646D01*
X68723752Y-23664309D01*
X68627714Y-23693442D01*
X68505000Y-23705528D01*
X68382285Y-23693442D01*
X68286247Y-23664309D01*
X68264281Y-23657646D01*
X68264278Y-23657645D01*
X68155532Y-23599519D01*
X68060210Y-23521290D01*
X67981981Y-23425968D01*
X67923855Y-23317221D01*
X67888058Y-23199214D01*
X67879000Y-23107245D01*
X67879000Y-22395754D01*
X67888058Y-22303785D01*
X67923855Y-22185779D01*
X67981982Y-22077032D01*
X68060211Y-21981710D01*
X68155533Y-21903481D01*
X68264279Y-21845355D01*
X68382286Y-21809558D01*
X68505000Y-21797472D01*
X68627715Y-21809558D01*
G37*
G36*
X76377715Y-21809558D02*
G01*
X76495722Y-21845355D01*
X76604468Y-21903481D01*
X76699790Y-21981710D01*
X76778019Y-22077032D01*
X76836145Y-22185778D01*
X76871942Y-22303785D01*
X76881000Y-22395754D01*
X76881000Y-23107246D01*
X76871942Y-23199215D01*
X76836145Y-23317222D01*
X76778019Y-23425968D01*
X76699790Y-23521290D01*
X76604468Y-23599519D01*
X76495721Y-23657645D01*
X76495718Y-23657646D01*
X76473752Y-23664309D01*
X76377714Y-23693442D01*
X76255000Y-23705528D01*
X76132285Y-23693442D01*
X76036247Y-23664309D01*
X76014281Y-23657646D01*
X76014278Y-23657645D01*
X75905532Y-23599519D01*
X75810210Y-23521290D01*
X75731981Y-23425968D01*
X75673855Y-23317221D01*
X75638058Y-23199214D01*
X75629000Y-23107245D01*
X75629000Y-22395754D01*
X75638058Y-22303785D01*
X75673855Y-22185779D01*
X75731982Y-22077032D01*
X75810211Y-21981710D01*
X75905533Y-21903481D01*
X76014279Y-21845355D01*
X76132286Y-21809558D01*
X76255000Y-21797472D01*
X76377715Y-21809558D01*
G37*
M02*
