G04 #@! TF.GenerationSoftware,KiCad,Pcbnew,(5.1.4)-1*
G04 #@! TF.CreationDate,2019-12-28T21:28:00+08:00*
G04 #@! TF.ProjectId,F1C100s-i80,46314331-3030-4732-9d69-38302e6b6963,rev?*
G04 #@! TF.SameCoordinates,Original*
G04 #@! TF.FileFunction,Copper,L2,Bot*
G04 #@! TF.FilePolarity,Positive*
%FSLAX46Y46*%
G04 Gerber Fmt 4.6, Leading zero omitted, Abs format (unit mm)*
G04 Created by KiCad (PCBNEW (5.1.4)-1) date 2019-12-28 21:28:00*
%MOMM*%
%LPD*%
G04 APERTURE LIST*
%ADD10O,1.700000X1.700000*%
%ADD11R,1.700000X1.700000*%
%ADD12O,1.600000X2.100000*%
%ADD13O,1.800000X1.200000*%
%ADD14R,3.300000X3.500000*%
%ADD15R,4.000000X4.000000*%
%ADD16C,0.800000*%
%ADD17C,6.400000*%
%ADD18C,0.100000*%
%ADD19C,1.700000*%
%ADD20O,2.000000X1.700000*%
%ADD21C,0.850000*%
%ADD22R,1.200000X2.200000*%
%ADD23R,1.600000X1.400000*%
%ADD24R,0.750000X2.000000*%
%ADD25O,1.150000X1.800000*%
%ADD26O,1.450000X2.000000*%
%ADD27C,2.001000*%
%ADD28C,2.200000*%
%ADD29C,0.150000*%
%ADD30C,0.130000*%
%ADD31C,0.190000*%
%ADD32C,0.250000*%
%ADD33C,0.170000*%
%ADD34C,0.254000*%
G04 APERTURE END LIST*
D10*
X84650000Y-86150000D03*
X84650000Y-83610000D03*
X84650000Y-81070000D03*
X84650000Y-78530000D03*
X84650000Y-75990000D03*
X84650000Y-73450000D03*
X84650000Y-70910000D03*
D11*
X84650000Y-68370000D03*
D12*
X52400000Y-31300000D03*
X52400000Y-38300000D03*
X57900000Y-31300000D03*
X57900000Y-38300000D03*
D13*
X55150000Y-31800000D03*
X55150000Y-33800000D03*
X55150000Y-35800000D03*
X55150000Y-37800000D03*
D14*
X47040000Y-61748000D03*
X47040000Y-45948000D03*
D15*
X47040000Y-53848000D03*
D16*
X85657056Y-23702944D03*
X83960000Y-23000000D03*
X82262944Y-23702944D03*
X81560000Y-25400000D03*
X82262944Y-27097056D03*
X83960000Y-27800000D03*
X85657056Y-27097056D03*
X86360000Y-25400000D03*
D17*
X83960000Y-25400000D03*
D11*
X45720000Y-93980000D03*
D10*
X45720000Y-96520000D03*
X48260000Y-93980000D03*
X48260000Y-96520000D03*
X50800000Y-93980000D03*
X50800000Y-96520000D03*
X53340000Y-93980000D03*
X53340000Y-96520000D03*
X55880000Y-93980000D03*
X55880000Y-96520000D03*
X58420000Y-93980000D03*
X58420000Y-96520000D03*
X60960000Y-93980000D03*
X60960000Y-96520000D03*
X63500000Y-93980000D03*
X63500000Y-96520000D03*
X66040000Y-93980000D03*
X66040000Y-96520000D03*
X68580000Y-93980000D03*
X68580000Y-96520000D03*
X71120000Y-93980000D03*
X71120000Y-96520000D03*
X73660000Y-93980000D03*
X73660000Y-96520000D03*
X76200000Y-93980000D03*
X76200000Y-96520000D03*
X78740000Y-93980000D03*
X78740000Y-96520000D03*
X81280000Y-93980000D03*
X81280000Y-96520000D03*
X83820000Y-93980000D03*
X83820000Y-96520000D03*
D18*
G36*
X44274504Y-41961204D02*
G01*
X44298773Y-41964804D01*
X44322571Y-41970765D01*
X44345671Y-41979030D01*
X44367849Y-41989520D01*
X44388893Y-42002133D01*
X44408598Y-42016747D01*
X44426777Y-42033223D01*
X44443253Y-42051402D01*
X44457867Y-42071107D01*
X44470480Y-42092151D01*
X44480970Y-42114329D01*
X44489235Y-42137429D01*
X44495196Y-42161227D01*
X44498796Y-42185496D01*
X44500000Y-42210000D01*
X44500000Y-43410000D01*
X44498796Y-43434504D01*
X44495196Y-43458773D01*
X44489235Y-43482571D01*
X44480970Y-43505671D01*
X44470480Y-43527849D01*
X44457867Y-43548893D01*
X44443253Y-43568598D01*
X44426777Y-43586777D01*
X44408598Y-43603253D01*
X44388893Y-43617867D01*
X44367849Y-43630480D01*
X44345671Y-43640970D01*
X44322571Y-43649235D01*
X44298773Y-43655196D01*
X44274504Y-43658796D01*
X44250000Y-43660000D01*
X42750000Y-43660000D01*
X42725496Y-43658796D01*
X42701227Y-43655196D01*
X42677429Y-43649235D01*
X42654329Y-43640970D01*
X42632151Y-43630480D01*
X42611107Y-43617867D01*
X42591402Y-43603253D01*
X42573223Y-43586777D01*
X42556747Y-43568598D01*
X42542133Y-43548893D01*
X42529520Y-43527849D01*
X42519030Y-43505671D01*
X42510765Y-43482571D01*
X42504804Y-43458773D01*
X42501204Y-43434504D01*
X42500000Y-43410000D01*
X42500000Y-42210000D01*
X42501204Y-42185496D01*
X42504804Y-42161227D01*
X42510765Y-42137429D01*
X42519030Y-42114329D01*
X42529520Y-42092151D01*
X42542133Y-42071107D01*
X42556747Y-42051402D01*
X42573223Y-42033223D01*
X42591402Y-42016747D01*
X42611107Y-42002133D01*
X42632151Y-41989520D01*
X42654329Y-41979030D01*
X42677429Y-41970765D01*
X42701227Y-41964804D01*
X42725496Y-41961204D01*
X42750000Y-41960000D01*
X44250000Y-41960000D01*
X44274504Y-41961204D01*
X44274504Y-41961204D01*
G37*
D19*
X43500000Y-42810000D03*
D20*
X43500000Y-40310000D03*
D18*
G36*
X44274504Y-33481204D02*
G01*
X44298773Y-33484804D01*
X44322571Y-33490765D01*
X44345671Y-33499030D01*
X44367849Y-33509520D01*
X44388893Y-33522133D01*
X44408598Y-33536747D01*
X44426777Y-33553223D01*
X44443253Y-33571402D01*
X44457867Y-33591107D01*
X44470480Y-33612151D01*
X44480970Y-33634329D01*
X44489235Y-33657429D01*
X44495196Y-33681227D01*
X44498796Y-33705496D01*
X44500000Y-33730000D01*
X44500000Y-34930000D01*
X44498796Y-34954504D01*
X44495196Y-34978773D01*
X44489235Y-35002571D01*
X44480970Y-35025671D01*
X44470480Y-35047849D01*
X44457867Y-35068893D01*
X44443253Y-35088598D01*
X44426777Y-35106777D01*
X44408598Y-35123253D01*
X44388893Y-35137867D01*
X44367849Y-35150480D01*
X44345671Y-35160970D01*
X44322571Y-35169235D01*
X44298773Y-35175196D01*
X44274504Y-35178796D01*
X44250000Y-35180000D01*
X42750000Y-35180000D01*
X42725496Y-35178796D01*
X42701227Y-35175196D01*
X42677429Y-35169235D01*
X42654329Y-35160970D01*
X42632151Y-35150480D01*
X42611107Y-35137867D01*
X42591402Y-35123253D01*
X42573223Y-35106777D01*
X42556747Y-35088598D01*
X42542133Y-35068893D01*
X42529520Y-35047849D01*
X42519030Y-35025671D01*
X42510765Y-35002571D01*
X42504804Y-34978773D01*
X42501204Y-34954504D01*
X42500000Y-34930000D01*
X42500000Y-33730000D01*
X42501204Y-33705496D01*
X42504804Y-33681227D01*
X42510765Y-33657429D01*
X42519030Y-33634329D01*
X42529520Y-33612151D01*
X42542133Y-33591107D01*
X42556747Y-33571402D01*
X42573223Y-33553223D01*
X42591402Y-33536747D01*
X42611107Y-33522133D01*
X42632151Y-33509520D01*
X42654329Y-33499030D01*
X42677429Y-33490765D01*
X42701227Y-33484804D01*
X42725496Y-33481204D01*
X42750000Y-33480000D01*
X44250000Y-33480000D01*
X44274504Y-33481204D01*
X44274504Y-33481204D01*
G37*
D19*
X43500000Y-34330000D03*
D20*
X43500000Y-31830000D03*
D11*
X84350000Y-50000000D03*
D10*
X84350000Y-52540000D03*
X84350000Y-55080000D03*
D20*
X85800000Y-62800000D03*
D18*
G36*
X86574504Y-59451204D02*
G01*
X86598773Y-59454804D01*
X86622571Y-59460765D01*
X86645671Y-59469030D01*
X86667849Y-59479520D01*
X86688893Y-59492133D01*
X86708598Y-59506747D01*
X86726777Y-59523223D01*
X86743253Y-59541402D01*
X86757867Y-59561107D01*
X86770480Y-59582151D01*
X86780970Y-59604329D01*
X86789235Y-59627429D01*
X86795196Y-59651227D01*
X86798796Y-59675496D01*
X86800000Y-59700000D01*
X86800000Y-60900000D01*
X86798796Y-60924504D01*
X86795196Y-60948773D01*
X86789235Y-60972571D01*
X86780970Y-60995671D01*
X86770480Y-61017849D01*
X86757867Y-61038893D01*
X86743253Y-61058598D01*
X86726777Y-61076777D01*
X86708598Y-61093253D01*
X86688893Y-61107867D01*
X86667849Y-61120480D01*
X86645671Y-61130970D01*
X86622571Y-61139235D01*
X86598773Y-61145196D01*
X86574504Y-61148796D01*
X86550000Y-61150000D01*
X85050000Y-61150000D01*
X85025496Y-61148796D01*
X85001227Y-61145196D01*
X84977429Y-61139235D01*
X84954329Y-61130970D01*
X84932151Y-61120480D01*
X84911107Y-61107867D01*
X84891402Y-61093253D01*
X84873223Y-61076777D01*
X84856747Y-61058598D01*
X84842133Y-61038893D01*
X84829520Y-61017849D01*
X84819030Y-60995671D01*
X84810765Y-60972571D01*
X84804804Y-60948773D01*
X84801204Y-60924504D01*
X84800000Y-60900000D01*
X84800000Y-59700000D01*
X84801204Y-59675496D01*
X84804804Y-59651227D01*
X84810765Y-59627429D01*
X84819030Y-59604329D01*
X84829520Y-59582151D01*
X84842133Y-59561107D01*
X84856747Y-59541402D01*
X84873223Y-59523223D01*
X84891402Y-59506747D01*
X84911107Y-59492133D01*
X84932151Y-59479520D01*
X84954329Y-59469030D01*
X84977429Y-59460765D01*
X85001227Y-59454804D01*
X85025496Y-59451204D01*
X85050000Y-59450000D01*
X86550000Y-59450000D01*
X86574504Y-59451204D01*
X86574504Y-59451204D01*
G37*
D19*
X85800000Y-60300000D03*
D21*
X76125000Y-24925000D03*
X68125000Y-24925000D03*
D22*
X65325000Y-25325000D03*
X80825000Y-25325000D03*
D23*
X65125000Y-34925000D03*
X79925000Y-34925000D03*
D24*
X66525000Y-35425000D03*
X67625000Y-35425000D03*
X68725000Y-35425000D03*
X69825000Y-35425000D03*
X70925000Y-35425000D03*
X72025000Y-35425000D03*
X73125000Y-35425000D03*
X74225000Y-35425000D03*
X75325000Y-35425000D03*
D25*
X68505000Y-23210000D03*
X76255000Y-23210000D03*
D26*
X68655000Y-27010000D03*
X76105000Y-27010000D03*
D17*
X45720000Y-25400000D03*
D16*
X48120000Y-25400000D03*
X47417056Y-27097056D03*
X45720000Y-27800000D03*
X44022944Y-27097056D03*
X43320000Y-25400000D03*
X44022944Y-23702944D03*
X45720000Y-23000000D03*
X47417056Y-23702944D03*
D27*
X58020000Y-62180000D03*
D28*
X70300000Y-46160000D03*
D16*
X42270001Y-86450000D03*
X44500000Y-63480000D03*
X44360000Y-45080000D03*
X52800000Y-86410000D03*
X78870000Y-82890000D03*
X75650000Y-81920000D03*
X55250000Y-76610000D03*
X54190000Y-82870000D03*
X58850000Y-81410000D03*
X64960000Y-85210000D03*
X80130000Y-90760000D03*
X80060000Y-71555000D03*
X78400000Y-68140000D03*
X43540000Y-61510000D03*
X41990000Y-48680000D03*
X50750000Y-47490000D03*
X68390000Y-41000000D03*
X59300000Y-55300000D03*
X70537500Y-61500000D03*
X70300000Y-57950000D03*
X67600000Y-73630000D03*
X69010000Y-68090000D03*
X60420000Y-49780000D03*
X63470000Y-49770000D03*
X65610000Y-49890000D03*
X67310000Y-81915000D03*
X68580000Y-81915000D03*
X67310000Y-83185000D03*
X68580000Y-83185000D03*
X67310000Y-84455000D03*
X68580000Y-84455000D03*
X67310000Y-85725000D03*
X68580000Y-85725000D03*
X67310000Y-86995000D03*
X68580000Y-86995000D03*
X67310000Y-88265000D03*
X68580000Y-88265000D03*
X69850000Y-88265000D03*
X71120000Y-88265000D03*
X72390000Y-88265000D03*
X73660000Y-88265000D03*
X74930000Y-88265000D03*
X73660000Y-86995000D03*
X72390000Y-86995000D03*
X71120000Y-86995000D03*
X69850000Y-86995000D03*
X69850000Y-85725000D03*
X71120000Y-85725000D03*
X72390000Y-85725000D03*
X73660000Y-85725000D03*
X73660000Y-84455000D03*
X72390000Y-84455000D03*
X55880000Y-59690000D03*
X57150000Y-59690000D03*
X58420000Y-59690000D03*
X59690000Y-59690000D03*
X55980000Y-64670000D03*
X57250000Y-64670000D03*
X58520000Y-64670000D03*
X59790000Y-64670000D03*
X67310000Y-64770000D03*
X62710000Y-53370000D03*
X75968576Y-51466755D03*
X58825000Y-71130000D03*
X61426942Y-70925000D03*
X50030111Y-75010000D03*
X56680000Y-75000000D03*
X61100000Y-86440000D03*
X65540000Y-86440000D03*
X66084990Y-48990000D03*
X70930000Y-51180000D03*
X53420000Y-51920000D03*
X58560000Y-49880000D03*
X61950000Y-48990000D03*
X69670000Y-40990000D03*
X72070000Y-32330000D03*
X48920000Y-51000000D03*
X56410000Y-48370000D03*
X56410000Y-46800000D03*
X50710000Y-73140000D03*
X55120000Y-72030000D03*
X58630000Y-69420000D03*
X69998922Y-70589943D03*
X73980000Y-55110000D03*
X60310000Y-55110000D03*
X76310000Y-78720000D03*
X79960000Y-78730000D03*
X74720000Y-80300000D03*
X80990000Y-81350000D03*
X83830000Y-47320000D03*
X83830000Y-45180000D03*
X62920000Y-68550000D03*
X44320000Y-68270000D03*
X43275000Y-72450000D03*
X52710000Y-72420000D03*
X53413437Y-70063437D03*
X45030000Y-70730000D03*
X54095825Y-69381049D03*
X44485000Y-69862800D03*
X52708437Y-70768437D03*
X45045020Y-71790000D03*
X60880777Y-69167223D03*
X45980000Y-68940000D03*
X50910000Y-59785000D03*
X78730000Y-60955000D03*
X50855966Y-63385000D03*
X75810000Y-63770000D03*
X73800000Y-73290000D03*
X81800000Y-73790000D03*
X73848039Y-74218760D03*
X81788078Y-74719925D03*
X73814251Y-75148148D03*
X81790180Y-75649924D03*
X73808278Y-76078131D03*
X81800556Y-76579868D03*
X75400000Y-37070000D03*
X74310000Y-37060000D03*
X73160000Y-37080000D03*
X70990000Y-37080000D03*
X68780000Y-37090000D03*
X67610000Y-37090000D03*
X62780000Y-35770000D03*
X66080000Y-33535010D03*
X66080000Y-32045000D03*
X66357330Y-55887330D03*
X72844980Y-55890000D03*
X81130000Y-79660000D03*
X75230000Y-79470000D03*
X69649315Y-54179314D03*
X67645454Y-54170171D03*
X73814529Y-72360112D03*
X83020000Y-73110000D03*
D29*
X52280000Y-86410000D02*
X42310001Y-86410000D01*
X42310001Y-86410000D02*
X42270001Y-86450000D01*
X46232000Y-61748000D02*
X47040000Y-61748000D01*
X44500000Y-63480000D02*
X46232000Y-61748000D01*
X44372000Y-45080000D02*
X44360000Y-45080000D01*
X47040000Y-45948000D02*
X45240000Y-45948000D01*
X45240000Y-45948000D02*
X44372000Y-45080000D01*
D30*
X52280000Y-86410000D02*
X52800000Y-86410000D01*
D29*
X62710000Y-53370000D02*
X62710000Y-52804315D01*
X62710000Y-52804315D02*
X63164315Y-52350000D01*
X63164315Y-52350000D02*
X75085331Y-52350000D01*
X75085331Y-52350000D02*
X75968576Y-51466755D01*
X58825000Y-71130000D02*
X61221942Y-71130000D01*
X61221942Y-71130000D02*
X61426942Y-70925000D01*
D30*
X50030111Y-75010000D02*
X50595796Y-75010000D01*
X50595796Y-75010000D02*
X56670000Y-75010000D01*
X56670000Y-75010000D02*
X56680000Y-75000000D01*
X61100000Y-86440000D02*
X65540000Y-86440000D01*
D31*
X66084990Y-48990000D02*
X70380000Y-48990000D01*
X70380000Y-48990000D02*
X70930000Y-49540000D01*
X70930000Y-49540000D02*
X70930000Y-51180000D01*
X53420000Y-51920000D02*
X53985685Y-51920000D01*
X53985685Y-51920000D02*
X57580000Y-51920000D01*
X57580000Y-51920000D02*
X58560000Y-50940000D01*
X58560000Y-50940000D02*
X58560000Y-49880000D01*
X58560000Y-49880000D02*
X59450000Y-48990000D01*
X59450000Y-48990000D02*
X61950000Y-48990000D01*
X61950000Y-48990000D02*
X66084990Y-48990000D01*
D32*
X72025000Y-35425000D02*
X72025000Y-38635000D01*
X72025000Y-38635000D02*
X69670000Y-40990000D01*
X72025000Y-34175000D02*
X72030000Y-34170000D01*
X72025000Y-35425000D02*
X72025000Y-34175000D01*
X72030000Y-34170000D02*
X72030000Y-32370000D01*
X72030000Y-32370000D02*
X72070000Y-32330000D01*
D31*
X48920000Y-51000000D02*
X49150000Y-50770000D01*
X49150000Y-44252998D02*
X49150000Y-44390000D01*
X47707002Y-42810000D02*
X49150000Y-44252998D01*
X43480000Y-42810000D02*
X47707002Y-42810000D01*
X49150000Y-50770000D02*
X49150000Y-44390000D01*
X56410000Y-48370000D02*
X56410000Y-46800000D01*
D30*
X50710000Y-73140000D02*
X53910000Y-73140000D01*
X55020000Y-72030000D02*
X55120000Y-72030000D01*
X53910000Y-73140000D02*
X55020000Y-72030000D01*
D29*
X69728978Y-70319999D02*
X69998922Y-70589943D01*
X58630000Y-69420000D02*
X59529999Y-70319999D01*
X59529999Y-70319999D02*
X69728978Y-70319999D01*
D31*
X73980000Y-55110000D02*
X60310000Y-55110000D01*
D33*
X76310000Y-78720000D02*
X79950000Y-78720000D01*
X79950000Y-78720000D02*
X79960000Y-78730000D01*
X79940000Y-80300000D02*
X80990000Y-81350000D01*
X74720000Y-80300000D02*
X79940000Y-80300000D01*
D32*
X83830000Y-47320000D02*
X83830000Y-45180000D01*
D33*
X62920000Y-68550000D02*
X62630000Y-68260000D01*
X62610009Y-68279991D02*
X60417822Y-68279990D01*
X62630000Y-68260000D02*
X62610009Y-68279991D01*
D29*
X45179990Y-68279990D02*
X45170000Y-68270000D01*
D33*
X47209990Y-68279990D02*
X47090000Y-68279990D01*
X60417822Y-68279990D02*
X47209990Y-68279990D01*
D29*
X45400020Y-68270000D02*
X44320000Y-68270000D01*
X45410010Y-68279990D02*
X45400020Y-68270000D01*
X45410010Y-68279990D02*
X45179990Y-68279990D01*
X47209990Y-68279990D02*
X45410010Y-68279990D01*
X51210000Y-72450000D02*
X43275000Y-72450000D01*
X51285150Y-72450000D02*
X51210000Y-72450000D01*
D30*
X52680000Y-72450000D02*
X52710000Y-72420000D01*
X51210000Y-72450000D02*
X52680000Y-72450000D01*
X53413437Y-70063437D02*
X47153437Y-70063437D01*
D29*
X47153437Y-70063437D02*
X45696563Y-70063437D01*
X45696563Y-70063437D02*
X45030000Y-70730000D01*
X44485000Y-69862800D02*
X44527200Y-69862800D01*
X44527200Y-69862800D02*
X44770000Y-69620000D01*
X52520000Y-69620000D02*
X52758951Y-69381049D01*
X44770000Y-69620000D02*
X52520000Y-69620000D01*
D30*
X54095825Y-69381049D02*
X52758951Y-69381049D01*
X52708437Y-70768437D02*
X47198437Y-70768437D01*
D29*
X47198437Y-70768437D02*
X45931563Y-70768437D01*
X45931563Y-70768437D02*
X45045020Y-71654980D01*
X45045020Y-71654980D02*
X45045020Y-71790000D01*
D33*
X60880777Y-69167223D02*
X60293554Y-68580000D01*
D29*
X46990000Y-68580000D02*
X46390000Y-68580000D01*
X46390000Y-68580000D02*
X46020000Y-68950000D01*
X47200000Y-68580000D02*
X46390000Y-68580000D01*
D33*
X47200000Y-68580000D02*
X46990000Y-68580000D01*
X60293554Y-68580000D02*
X47200000Y-68580000D01*
D29*
X46340000Y-68580000D02*
X45980000Y-68940000D01*
X46390000Y-68580000D02*
X46340000Y-68580000D01*
X50910000Y-59785000D02*
X51725000Y-60600000D01*
X51725000Y-60600000D02*
X78375000Y-60600000D01*
X78375000Y-60600000D02*
X78730000Y-60955000D01*
X75795001Y-63784999D02*
X75810000Y-63770000D01*
X50855966Y-63385000D02*
X51255965Y-63784999D01*
X51255965Y-63784999D02*
X75795001Y-63784999D01*
X73800000Y-73290000D02*
X81300000Y-73290000D01*
X81300000Y-73290000D02*
X81800000Y-73790000D01*
X73848039Y-74218760D02*
X75078760Y-74218760D01*
X81288153Y-74220000D02*
X81788078Y-74719925D01*
X75090000Y-74220000D02*
X81288153Y-74220000D01*
X73814251Y-75148148D02*
X81121852Y-75148148D01*
X81121852Y-75148148D02*
X81623628Y-75649924D01*
X81623628Y-75649924D02*
X81790180Y-75649924D01*
X73808278Y-76078131D02*
X81298819Y-76078131D01*
X81298819Y-76078131D02*
X81800556Y-76579868D01*
X75400000Y-35500000D02*
X75325000Y-35425000D01*
X75400000Y-37070000D02*
X75400000Y-35500000D01*
X74310000Y-35510000D02*
X74225000Y-35425000D01*
X74310000Y-37060000D02*
X74310000Y-35510000D01*
D31*
X73160000Y-35460000D02*
X73125000Y-35425000D01*
X73160000Y-37080000D02*
X73160000Y-35460000D01*
X70990000Y-35490000D02*
X70925000Y-35425000D01*
X70990000Y-37080000D02*
X70990000Y-35490000D01*
X68780000Y-35480000D02*
X68725000Y-35425000D01*
X68780000Y-37090000D02*
X68780000Y-35480000D01*
D29*
X67625000Y-36469315D02*
X67625000Y-35425000D01*
D31*
X67610000Y-35440000D02*
X67625000Y-35425000D01*
X67610000Y-37090000D02*
X67610000Y-35440000D01*
D32*
X56300000Y-33800000D02*
X55150000Y-33800000D01*
X61375685Y-33800000D02*
X56300000Y-33800000D01*
X62780000Y-35204315D02*
X61375685Y-33800000D01*
X62780000Y-35770000D02*
X62780000Y-35204315D01*
D29*
X66080000Y-33535010D02*
X66080000Y-32045000D01*
X66923015Y-55887330D02*
X66925685Y-55890000D01*
X66357330Y-55887330D02*
X66923015Y-55887330D01*
X66360000Y-55890000D02*
X66357330Y-55887330D01*
X72844980Y-55890000D02*
X66360000Y-55890000D01*
X80940000Y-79470000D02*
X81130000Y-79660000D01*
X75230000Y-79470000D02*
X80940000Y-79470000D01*
X69649315Y-54179314D02*
X67654597Y-54179314D01*
X67654597Y-54179314D02*
X67645454Y-54170171D01*
X73814529Y-72360112D02*
X82270112Y-72360112D01*
X82270112Y-72360112D02*
X83020000Y-73110000D01*
D34*
G36*
X85701222Y-21043096D02*
G01*
X86289164Y-21220606D01*
X86831436Y-21508937D01*
X87307364Y-21897094D01*
X87698845Y-22370314D01*
X87990951Y-22910552D01*
X88172563Y-23497244D01*
X88240001Y-24138888D01*
X88240000Y-95217721D01*
X88176904Y-95861221D01*
X87999394Y-96449164D01*
X87711063Y-96991436D01*
X87322906Y-97467364D01*
X86849686Y-97858845D01*
X86309449Y-98150950D01*
X85722756Y-98332563D01*
X85081130Y-98400000D01*
X44482279Y-98400000D01*
X43838779Y-98336904D01*
X43250836Y-98159394D01*
X42708564Y-97871063D01*
X42232636Y-97482906D01*
X41841155Y-97009686D01*
X41576383Y-96520000D01*
X44227815Y-96520000D01*
X44256487Y-96811111D01*
X44341401Y-97091034D01*
X44479294Y-97349014D01*
X44664866Y-97575134D01*
X44890986Y-97760706D01*
X45148966Y-97898599D01*
X45428889Y-97983513D01*
X45647050Y-98005000D01*
X45792950Y-98005000D01*
X46011111Y-97983513D01*
X46291034Y-97898599D01*
X46549014Y-97760706D01*
X46775134Y-97575134D01*
X46960706Y-97349014D01*
X46990000Y-97294209D01*
X47019294Y-97349014D01*
X47204866Y-97575134D01*
X47430986Y-97760706D01*
X47688966Y-97898599D01*
X47968889Y-97983513D01*
X48187050Y-98005000D01*
X48332950Y-98005000D01*
X48551111Y-97983513D01*
X48831034Y-97898599D01*
X49089014Y-97760706D01*
X49315134Y-97575134D01*
X49500706Y-97349014D01*
X49530000Y-97294209D01*
X49559294Y-97349014D01*
X49744866Y-97575134D01*
X49970986Y-97760706D01*
X50228966Y-97898599D01*
X50508889Y-97983513D01*
X50727050Y-98005000D01*
X50872950Y-98005000D01*
X51091111Y-97983513D01*
X51371034Y-97898599D01*
X51629014Y-97760706D01*
X51855134Y-97575134D01*
X52040706Y-97349014D01*
X52070000Y-97294209D01*
X52099294Y-97349014D01*
X52284866Y-97575134D01*
X52510986Y-97760706D01*
X52768966Y-97898599D01*
X53048889Y-97983513D01*
X53267050Y-98005000D01*
X53412950Y-98005000D01*
X53631111Y-97983513D01*
X53911034Y-97898599D01*
X54169014Y-97760706D01*
X54395134Y-97575134D01*
X54580706Y-97349014D01*
X54610000Y-97294209D01*
X54639294Y-97349014D01*
X54824866Y-97575134D01*
X55050986Y-97760706D01*
X55308966Y-97898599D01*
X55588889Y-97983513D01*
X55807050Y-98005000D01*
X55952950Y-98005000D01*
X56171111Y-97983513D01*
X56451034Y-97898599D01*
X56709014Y-97760706D01*
X56935134Y-97575134D01*
X57120706Y-97349014D01*
X57150000Y-97294209D01*
X57179294Y-97349014D01*
X57364866Y-97575134D01*
X57590986Y-97760706D01*
X57848966Y-97898599D01*
X58128889Y-97983513D01*
X58347050Y-98005000D01*
X58492950Y-98005000D01*
X58711111Y-97983513D01*
X58991034Y-97898599D01*
X59249014Y-97760706D01*
X59475134Y-97575134D01*
X59660706Y-97349014D01*
X59690000Y-97294209D01*
X59719294Y-97349014D01*
X59904866Y-97575134D01*
X60130986Y-97760706D01*
X60388966Y-97898599D01*
X60668889Y-97983513D01*
X60887050Y-98005000D01*
X61032950Y-98005000D01*
X61251111Y-97983513D01*
X61531034Y-97898599D01*
X61789014Y-97760706D01*
X62015134Y-97575134D01*
X62200706Y-97349014D01*
X62230000Y-97294209D01*
X62259294Y-97349014D01*
X62444866Y-97575134D01*
X62670986Y-97760706D01*
X62928966Y-97898599D01*
X63208889Y-97983513D01*
X63427050Y-98005000D01*
X63572950Y-98005000D01*
X63791111Y-97983513D01*
X64071034Y-97898599D01*
X64329014Y-97760706D01*
X64555134Y-97575134D01*
X64740706Y-97349014D01*
X64770000Y-97294209D01*
X64799294Y-97349014D01*
X64984866Y-97575134D01*
X65210986Y-97760706D01*
X65468966Y-97898599D01*
X65748889Y-97983513D01*
X65967050Y-98005000D01*
X66112950Y-98005000D01*
X66331111Y-97983513D01*
X66611034Y-97898599D01*
X66869014Y-97760706D01*
X67095134Y-97575134D01*
X67280706Y-97349014D01*
X67310000Y-97294209D01*
X67339294Y-97349014D01*
X67524866Y-97575134D01*
X67750986Y-97760706D01*
X68008966Y-97898599D01*
X68288889Y-97983513D01*
X68507050Y-98005000D01*
X68652950Y-98005000D01*
X68871111Y-97983513D01*
X69151034Y-97898599D01*
X69409014Y-97760706D01*
X69635134Y-97575134D01*
X69820706Y-97349014D01*
X69850000Y-97294209D01*
X69879294Y-97349014D01*
X70064866Y-97575134D01*
X70290986Y-97760706D01*
X70548966Y-97898599D01*
X70828889Y-97983513D01*
X71047050Y-98005000D01*
X71192950Y-98005000D01*
X71411111Y-97983513D01*
X71691034Y-97898599D01*
X71949014Y-97760706D01*
X72175134Y-97575134D01*
X72360706Y-97349014D01*
X72390000Y-97294209D01*
X72419294Y-97349014D01*
X72604866Y-97575134D01*
X72830986Y-97760706D01*
X73088966Y-97898599D01*
X73368889Y-97983513D01*
X73587050Y-98005000D01*
X73732950Y-98005000D01*
X73951111Y-97983513D01*
X74231034Y-97898599D01*
X74489014Y-97760706D01*
X74715134Y-97575134D01*
X74900706Y-97349014D01*
X74930000Y-97294209D01*
X74959294Y-97349014D01*
X75144866Y-97575134D01*
X75370986Y-97760706D01*
X75628966Y-97898599D01*
X75908889Y-97983513D01*
X76127050Y-98005000D01*
X76272950Y-98005000D01*
X76491111Y-97983513D01*
X76771034Y-97898599D01*
X77029014Y-97760706D01*
X77255134Y-97575134D01*
X77440706Y-97349014D01*
X77470000Y-97294209D01*
X77499294Y-97349014D01*
X77684866Y-97575134D01*
X77910986Y-97760706D01*
X78168966Y-97898599D01*
X78448889Y-97983513D01*
X78667050Y-98005000D01*
X78812950Y-98005000D01*
X79031111Y-97983513D01*
X79311034Y-97898599D01*
X79569014Y-97760706D01*
X79795134Y-97575134D01*
X79980706Y-97349014D01*
X80010000Y-97294209D01*
X80039294Y-97349014D01*
X80224866Y-97575134D01*
X80450986Y-97760706D01*
X80708966Y-97898599D01*
X80988889Y-97983513D01*
X81207050Y-98005000D01*
X81352950Y-98005000D01*
X81571111Y-97983513D01*
X81851034Y-97898599D01*
X82109014Y-97760706D01*
X82335134Y-97575134D01*
X82520706Y-97349014D01*
X82550000Y-97294209D01*
X82579294Y-97349014D01*
X82764866Y-97575134D01*
X82990986Y-97760706D01*
X83248966Y-97898599D01*
X83528889Y-97983513D01*
X83747050Y-98005000D01*
X83892950Y-98005000D01*
X84111111Y-97983513D01*
X84391034Y-97898599D01*
X84649014Y-97760706D01*
X84875134Y-97575134D01*
X85060706Y-97349014D01*
X85198599Y-97091034D01*
X85283513Y-96811111D01*
X85312185Y-96520000D01*
X85283513Y-96228889D01*
X85198599Y-95948966D01*
X85060706Y-95690986D01*
X84875134Y-95464866D01*
X84649014Y-95279294D01*
X84594209Y-95250000D01*
X84649014Y-95220706D01*
X84875134Y-95035134D01*
X85060706Y-94809014D01*
X85198599Y-94551034D01*
X85283513Y-94271111D01*
X85312185Y-93980000D01*
X85283513Y-93688889D01*
X85198599Y-93408966D01*
X85060706Y-93150986D01*
X84875134Y-92924866D01*
X84649014Y-92739294D01*
X84391034Y-92601401D01*
X84111111Y-92516487D01*
X83892950Y-92495000D01*
X83747050Y-92495000D01*
X83528889Y-92516487D01*
X83248966Y-92601401D01*
X82990986Y-92739294D01*
X82764866Y-92924866D01*
X82579294Y-93150986D01*
X82550000Y-93205791D01*
X82520706Y-93150986D01*
X82335134Y-92924866D01*
X82109014Y-92739294D01*
X81851034Y-92601401D01*
X81571111Y-92516487D01*
X81352950Y-92495000D01*
X81207050Y-92495000D01*
X80988889Y-92516487D01*
X80708966Y-92601401D01*
X80450986Y-92739294D01*
X80224866Y-92924866D01*
X80039294Y-93150986D01*
X80010000Y-93205791D01*
X79980706Y-93150986D01*
X79795134Y-92924866D01*
X79569014Y-92739294D01*
X79311034Y-92601401D01*
X79031111Y-92516487D01*
X78812950Y-92495000D01*
X78667050Y-92495000D01*
X78448889Y-92516487D01*
X78168966Y-92601401D01*
X77910986Y-92739294D01*
X77684866Y-92924866D01*
X77499294Y-93150986D01*
X77470000Y-93205791D01*
X77440706Y-93150986D01*
X77255134Y-92924866D01*
X77029014Y-92739294D01*
X76771034Y-92601401D01*
X76491111Y-92516487D01*
X76272950Y-92495000D01*
X76127050Y-92495000D01*
X75908889Y-92516487D01*
X75628966Y-92601401D01*
X75370986Y-92739294D01*
X75144866Y-92924866D01*
X74959294Y-93150986D01*
X74930000Y-93205791D01*
X74900706Y-93150986D01*
X74715134Y-92924866D01*
X74489014Y-92739294D01*
X74231034Y-92601401D01*
X73951111Y-92516487D01*
X73732950Y-92495000D01*
X73587050Y-92495000D01*
X73368889Y-92516487D01*
X73088966Y-92601401D01*
X72830986Y-92739294D01*
X72604866Y-92924866D01*
X72419294Y-93150986D01*
X72390000Y-93205791D01*
X72360706Y-93150986D01*
X72175134Y-92924866D01*
X71949014Y-92739294D01*
X71691034Y-92601401D01*
X71411111Y-92516487D01*
X71192950Y-92495000D01*
X71047050Y-92495000D01*
X70828889Y-92516487D01*
X70548966Y-92601401D01*
X70290986Y-92739294D01*
X70064866Y-92924866D01*
X69879294Y-93150986D01*
X69850000Y-93205791D01*
X69820706Y-93150986D01*
X69635134Y-92924866D01*
X69409014Y-92739294D01*
X69151034Y-92601401D01*
X68871111Y-92516487D01*
X68652950Y-92495000D01*
X68507050Y-92495000D01*
X68288889Y-92516487D01*
X68008966Y-92601401D01*
X67750986Y-92739294D01*
X67524866Y-92924866D01*
X67339294Y-93150986D01*
X67310000Y-93205791D01*
X67280706Y-93150986D01*
X67095134Y-92924866D01*
X66869014Y-92739294D01*
X66611034Y-92601401D01*
X66331111Y-92516487D01*
X66112950Y-92495000D01*
X65967050Y-92495000D01*
X65748889Y-92516487D01*
X65468966Y-92601401D01*
X65210986Y-92739294D01*
X64984866Y-92924866D01*
X64799294Y-93150986D01*
X64770000Y-93205791D01*
X64740706Y-93150986D01*
X64555134Y-92924866D01*
X64329014Y-92739294D01*
X64071034Y-92601401D01*
X63791111Y-92516487D01*
X63572950Y-92495000D01*
X63427050Y-92495000D01*
X63208889Y-92516487D01*
X62928966Y-92601401D01*
X62670986Y-92739294D01*
X62444866Y-92924866D01*
X62259294Y-93150986D01*
X62230000Y-93205791D01*
X62200706Y-93150986D01*
X62015134Y-92924866D01*
X61789014Y-92739294D01*
X61531034Y-92601401D01*
X61251111Y-92516487D01*
X61032950Y-92495000D01*
X60887050Y-92495000D01*
X60668889Y-92516487D01*
X60388966Y-92601401D01*
X60130986Y-92739294D01*
X59904866Y-92924866D01*
X59719294Y-93150986D01*
X59690000Y-93205791D01*
X59660706Y-93150986D01*
X59475134Y-92924866D01*
X59249014Y-92739294D01*
X58991034Y-92601401D01*
X58711111Y-92516487D01*
X58492950Y-92495000D01*
X58347050Y-92495000D01*
X58128889Y-92516487D01*
X57848966Y-92601401D01*
X57590986Y-92739294D01*
X57364866Y-92924866D01*
X57179294Y-93150986D01*
X57150000Y-93205791D01*
X57120706Y-93150986D01*
X56935134Y-92924866D01*
X56709014Y-92739294D01*
X56451034Y-92601401D01*
X56171111Y-92516487D01*
X55952950Y-92495000D01*
X55807050Y-92495000D01*
X55588889Y-92516487D01*
X55308966Y-92601401D01*
X55050986Y-92739294D01*
X54824866Y-92924866D01*
X54639294Y-93150986D01*
X54610000Y-93205791D01*
X54580706Y-93150986D01*
X54395134Y-92924866D01*
X54169014Y-92739294D01*
X53911034Y-92601401D01*
X53631111Y-92516487D01*
X53412950Y-92495000D01*
X53267050Y-92495000D01*
X53048889Y-92516487D01*
X52768966Y-92601401D01*
X52510986Y-92739294D01*
X52284866Y-92924866D01*
X52099294Y-93150986D01*
X52070000Y-93205791D01*
X52040706Y-93150986D01*
X51855134Y-92924866D01*
X51629014Y-92739294D01*
X51371034Y-92601401D01*
X51091111Y-92516487D01*
X50872950Y-92495000D01*
X50727050Y-92495000D01*
X50508889Y-92516487D01*
X50228966Y-92601401D01*
X49970986Y-92739294D01*
X49744866Y-92924866D01*
X49559294Y-93150986D01*
X49530000Y-93205791D01*
X49500706Y-93150986D01*
X49315134Y-92924866D01*
X49089014Y-92739294D01*
X48831034Y-92601401D01*
X48551111Y-92516487D01*
X48332950Y-92495000D01*
X48187050Y-92495000D01*
X47968889Y-92516487D01*
X47688966Y-92601401D01*
X47430986Y-92739294D01*
X47204866Y-92924866D01*
X47180393Y-92954687D01*
X47159502Y-92885820D01*
X47100537Y-92775506D01*
X47021185Y-92678815D01*
X46924494Y-92599463D01*
X46814180Y-92540498D01*
X46694482Y-92504188D01*
X46570000Y-92491928D01*
X46005750Y-92495000D01*
X45847000Y-92653750D01*
X45847000Y-93853000D01*
X45867000Y-93853000D01*
X45867000Y-94107000D01*
X45847000Y-94107000D01*
X45847000Y-94127000D01*
X45593000Y-94127000D01*
X45593000Y-94107000D01*
X44393750Y-94107000D01*
X44235000Y-94265750D01*
X44231928Y-94830000D01*
X44244188Y-94954482D01*
X44280498Y-95074180D01*
X44339463Y-95184494D01*
X44418815Y-95281185D01*
X44515506Y-95360537D01*
X44625820Y-95419502D01*
X44694687Y-95440393D01*
X44664866Y-95464866D01*
X44479294Y-95690986D01*
X44341401Y-95948966D01*
X44256487Y-96228889D01*
X44227815Y-96520000D01*
X41576383Y-96520000D01*
X41549050Y-96469449D01*
X41367437Y-95882756D01*
X41300000Y-95241130D01*
X41300000Y-93130000D01*
X44231928Y-93130000D01*
X44235000Y-93694250D01*
X44393750Y-93853000D01*
X45593000Y-93853000D01*
X45593000Y-92653750D01*
X45434250Y-92495000D01*
X44870000Y-92491928D01*
X44745518Y-92504188D01*
X44625820Y-92540498D01*
X44515506Y-92599463D01*
X44418815Y-92678815D01*
X44339463Y-92775506D01*
X44280498Y-92885820D01*
X44244188Y-93005518D01*
X44231928Y-93130000D01*
X41300000Y-93130000D01*
X41300000Y-86812796D01*
X41352796Y-86940256D01*
X41466064Y-87109774D01*
X41610227Y-87253937D01*
X41779745Y-87367205D01*
X41968103Y-87445226D01*
X42168062Y-87485000D01*
X42371940Y-87485000D01*
X42571899Y-87445226D01*
X42760257Y-87367205D01*
X42929775Y-87253937D01*
X43063712Y-87120000D01*
X52046289Y-87120000D01*
X52140226Y-87213937D01*
X52309744Y-87327205D01*
X52498102Y-87405226D01*
X52698061Y-87445000D01*
X52901939Y-87445000D01*
X53101898Y-87405226D01*
X53290256Y-87327205D01*
X53459774Y-87213937D01*
X53603937Y-87069774D01*
X53717205Y-86900256D01*
X53795226Y-86711898D01*
X53835000Y-86511939D01*
X53835000Y-86338061D01*
X60065000Y-86338061D01*
X60065000Y-86541939D01*
X60104774Y-86741898D01*
X60182795Y-86930256D01*
X60296063Y-87099774D01*
X60440226Y-87243937D01*
X60609744Y-87357205D01*
X60798102Y-87435226D01*
X60998061Y-87475000D01*
X61201939Y-87475000D01*
X61401898Y-87435226D01*
X61590256Y-87357205D01*
X61759774Y-87243937D01*
X61863711Y-87140000D01*
X64776289Y-87140000D01*
X64880226Y-87243937D01*
X65049744Y-87357205D01*
X65238102Y-87435226D01*
X65438061Y-87475000D01*
X65641939Y-87475000D01*
X65841898Y-87435226D01*
X66030256Y-87357205D01*
X66199774Y-87243937D01*
X66343937Y-87099774D01*
X66457205Y-86930256D01*
X66535226Y-86741898D01*
X66575000Y-86541939D01*
X66575000Y-86338061D01*
X66535226Y-86138102D01*
X66457205Y-85949744D01*
X66343937Y-85780226D01*
X66199774Y-85636063D01*
X66030256Y-85522795D01*
X65841898Y-85444774D01*
X65641939Y-85405000D01*
X65438061Y-85405000D01*
X65238102Y-85444774D01*
X65049744Y-85522795D01*
X64880226Y-85636063D01*
X64776289Y-85740000D01*
X61863711Y-85740000D01*
X61759774Y-85636063D01*
X61590256Y-85522795D01*
X61401898Y-85444774D01*
X61201939Y-85405000D01*
X60998061Y-85405000D01*
X60798102Y-85444774D01*
X60609744Y-85522795D01*
X60440226Y-85636063D01*
X60296063Y-85780226D01*
X60182795Y-85949744D01*
X60104774Y-86138102D01*
X60065000Y-86338061D01*
X53835000Y-86338061D01*
X53835000Y-86308061D01*
X53795226Y-86108102D01*
X53717205Y-85919744D01*
X53603937Y-85750226D01*
X53459774Y-85606063D01*
X53290256Y-85492795D01*
X53101898Y-85414774D01*
X52901939Y-85375000D01*
X52698061Y-85375000D01*
X52498102Y-85414774D01*
X52309744Y-85492795D01*
X52140226Y-85606063D01*
X52046289Y-85700000D01*
X42983712Y-85700000D01*
X42929775Y-85646063D01*
X42760257Y-85532795D01*
X42571899Y-85454774D01*
X42371940Y-85415000D01*
X42168062Y-85415000D01*
X41968103Y-85454774D01*
X41779745Y-85532795D01*
X41610227Y-85646063D01*
X41466064Y-85790226D01*
X41352796Y-85959744D01*
X41300000Y-86087204D01*
X41300000Y-80198061D01*
X73685000Y-80198061D01*
X73685000Y-80401939D01*
X73724774Y-80601898D01*
X73802795Y-80790256D01*
X73916063Y-80959774D01*
X74060226Y-81103937D01*
X74229744Y-81217205D01*
X74418102Y-81295226D01*
X74618061Y-81335000D01*
X74821939Y-81335000D01*
X75021898Y-81295226D01*
X75210256Y-81217205D01*
X75379774Y-81103937D01*
X75463711Y-81020000D01*
X79641767Y-81020000D01*
X79955000Y-81333233D01*
X79955000Y-81451939D01*
X79994774Y-81651898D01*
X80072795Y-81840256D01*
X80186063Y-82009774D01*
X80330226Y-82153937D01*
X80499744Y-82267205D01*
X80688102Y-82345226D01*
X80888061Y-82385000D01*
X81091939Y-82385000D01*
X81291898Y-82345226D01*
X81480256Y-82267205D01*
X81649774Y-82153937D01*
X81793937Y-82009774D01*
X81907205Y-81840256D01*
X81985226Y-81651898D01*
X82025000Y-81451939D01*
X82025000Y-81248061D01*
X81985226Y-81048102D01*
X81907205Y-80859744D01*
X81793937Y-80690226D01*
X81656619Y-80552908D01*
X81789774Y-80463937D01*
X81933937Y-80319774D01*
X82047205Y-80150256D01*
X82125226Y-79961898D01*
X82165000Y-79761939D01*
X82165000Y-79558061D01*
X82125226Y-79358102D01*
X82047205Y-79169744D01*
X81933937Y-79000226D01*
X81789774Y-78856063D01*
X81620256Y-78742795D01*
X81431898Y-78664774D01*
X81231939Y-78625000D01*
X81028061Y-78625000D01*
X80995000Y-78631576D01*
X80995000Y-78628061D01*
X80955226Y-78428102D01*
X80877205Y-78239744D01*
X80763937Y-78070226D01*
X80619774Y-77926063D01*
X80450256Y-77812795D01*
X80261898Y-77734774D01*
X80061939Y-77695000D01*
X79858061Y-77695000D01*
X79658102Y-77734774D01*
X79469744Y-77812795D01*
X79300226Y-77926063D01*
X79226289Y-78000000D01*
X77053711Y-78000000D01*
X76969774Y-77916063D01*
X76800256Y-77802795D01*
X76611898Y-77724774D01*
X76411939Y-77685000D01*
X76208061Y-77685000D01*
X76008102Y-77724774D01*
X75819744Y-77802795D01*
X75650226Y-77916063D01*
X75506063Y-78060226D01*
X75392795Y-78229744D01*
X75314774Y-78418102D01*
X75311413Y-78435000D01*
X75128061Y-78435000D01*
X74928102Y-78474774D01*
X74739744Y-78552795D01*
X74570226Y-78666063D01*
X74426063Y-78810226D01*
X74312795Y-78979744D01*
X74234774Y-79168102D01*
X74195000Y-79368061D01*
X74195000Y-79406010D01*
X74060226Y-79496063D01*
X73916063Y-79640226D01*
X73802795Y-79809744D01*
X73724774Y-79998102D01*
X73685000Y-80198061D01*
X41300000Y-80198061D01*
X41300000Y-72348061D01*
X42240000Y-72348061D01*
X42240000Y-72551939D01*
X42279774Y-72751898D01*
X42357795Y-72940256D01*
X42471063Y-73109774D01*
X42615226Y-73253937D01*
X42784744Y-73367205D01*
X42973102Y-73445226D01*
X43173061Y-73485000D01*
X43376939Y-73485000D01*
X43576898Y-73445226D01*
X43765256Y-73367205D01*
X43934774Y-73253937D01*
X44028711Y-73160000D01*
X49675000Y-73160000D01*
X49675000Y-73241939D01*
X49714774Y-73441898D01*
X49792795Y-73630256D01*
X49906063Y-73799774D01*
X50050226Y-73943937D01*
X50096715Y-73975000D01*
X49928172Y-73975000D01*
X49728213Y-74014774D01*
X49539855Y-74092795D01*
X49370337Y-74206063D01*
X49226174Y-74350226D01*
X49112906Y-74519744D01*
X49034885Y-74708102D01*
X48995111Y-74908061D01*
X48995111Y-75111939D01*
X49034885Y-75311898D01*
X49112906Y-75500256D01*
X49226174Y-75669774D01*
X49370337Y-75813937D01*
X49539855Y-75927205D01*
X49728213Y-76005226D01*
X49928172Y-76045000D01*
X50132050Y-76045000D01*
X50332009Y-76005226D01*
X50520367Y-75927205D01*
X50689885Y-75813937D01*
X50793822Y-75710000D01*
X55926289Y-75710000D01*
X56020226Y-75803937D01*
X56189744Y-75917205D01*
X56378102Y-75995226D01*
X56578061Y-76035000D01*
X56781939Y-76035000D01*
X56981898Y-75995226D01*
X57170256Y-75917205D01*
X57339774Y-75803937D01*
X57483937Y-75659774D01*
X57597205Y-75490256D01*
X57675226Y-75301898D01*
X57715000Y-75101939D01*
X57715000Y-74898061D01*
X57675226Y-74698102D01*
X57597205Y-74509744D01*
X57483937Y-74340226D01*
X57339774Y-74196063D01*
X57170256Y-74082795D01*
X56981898Y-74004774D01*
X56781939Y-73965000D01*
X56578061Y-73965000D01*
X56378102Y-74004774D01*
X56189744Y-74082795D01*
X56020226Y-74196063D01*
X55906289Y-74310000D01*
X50793822Y-74310000D01*
X50689885Y-74206063D01*
X50643396Y-74175000D01*
X50811939Y-74175000D01*
X51011898Y-74135226D01*
X51200256Y-74057205D01*
X51369774Y-73943937D01*
X51473711Y-73840000D01*
X53875613Y-73840000D01*
X53910000Y-73843387D01*
X53944387Y-73840000D01*
X53944390Y-73840000D01*
X54047224Y-73829872D01*
X54179175Y-73789845D01*
X54300781Y-73724845D01*
X54407370Y-73637370D01*
X54429296Y-73610653D01*
X54851888Y-73188061D01*
X72765000Y-73188061D01*
X72765000Y-73391939D01*
X72804774Y-73591898D01*
X72882795Y-73780256D01*
X72899217Y-73804833D01*
X72852813Y-73916862D01*
X72813039Y-74116821D01*
X72813039Y-74320699D01*
X72852813Y-74520658D01*
X72904831Y-74646240D01*
X72897046Y-74657892D01*
X72819025Y-74846250D01*
X72779251Y-75046209D01*
X72779251Y-75250087D01*
X72819025Y-75450046D01*
X72883595Y-75605930D01*
X72813052Y-75776233D01*
X72773278Y-75976192D01*
X72773278Y-76180070D01*
X72813052Y-76380029D01*
X72891073Y-76568387D01*
X73004341Y-76737905D01*
X73148504Y-76882068D01*
X73318022Y-76995336D01*
X73506380Y-77073357D01*
X73706339Y-77113131D01*
X73910217Y-77113131D01*
X74110176Y-77073357D01*
X74298534Y-76995336D01*
X74468052Y-76882068D01*
X74561989Y-76788131D01*
X80786705Y-76788131D01*
X80805330Y-76881766D01*
X80883351Y-77070124D01*
X80996619Y-77239642D01*
X81140782Y-77383805D01*
X81310300Y-77497073D01*
X81498658Y-77575094D01*
X81698617Y-77614868D01*
X81902495Y-77614868D01*
X82102454Y-77575094D01*
X82290812Y-77497073D01*
X82460330Y-77383805D01*
X82604493Y-77239642D01*
X82717761Y-77070124D01*
X82795782Y-76881766D01*
X82835556Y-76681807D01*
X82835556Y-76477929D01*
X82795782Y-76277970D01*
X82723046Y-76102371D01*
X82785406Y-75951822D01*
X82825180Y-75751863D01*
X82825180Y-75547985D01*
X82785406Y-75348026D01*
X82716796Y-75182387D01*
X82783304Y-75021823D01*
X82823078Y-74821864D01*
X82823078Y-74617986D01*
X82783304Y-74418027D01*
X82721721Y-74269354D01*
X82784255Y-74118385D01*
X82918061Y-74145000D01*
X83121939Y-74145000D01*
X83316931Y-74106214D01*
X83409294Y-74279014D01*
X83594866Y-74505134D01*
X83820986Y-74690706D01*
X83875791Y-74720000D01*
X83820986Y-74749294D01*
X83594866Y-74934866D01*
X83409294Y-75160986D01*
X83271401Y-75418966D01*
X83186487Y-75698889D01*
X83157815Y-75990000D01*
X83186487Y-76281111D01*
X83271401Y-76561034D01*
X83409294Y-76819014D01*
X83594866Y-77045134D01*
X83820986Y-77230706D01*
X83875791Y-77260000D01*
X83820986Y-77289294D01*
X83594866Y-77474866D01*
X83409294Y-77700986D01*
X83271401Y-77958966D01*
X83186487Y-78238889D01*
X83157815Y-78530000D01*
X83186487Y-78821111D01*
X83271401Y-79101034D01*
X83409294Y-79359014D01*
X83594866Y-79585134D01*
X83820986Y-79770706D01*
X83875791Y-79800000D01*
X83820986Y-79829294D01*
X83594866Y-80014866D01*
X83409294Y-80240986D01*
X83271401Y-80498966D01*
X83186487Y-80778889D01*
X83157815Y-81070000D01*
X83186487Y-81361111D01*
X83271401Y-81641034D01*
X83409294Y-81899014D01*
X83594866Y-82125134D01*
X83820986Y-82310706D01*
X83875791Y-82340000D01*
X83820986Y-82369294D01*
X83594866Y-82554866D01*
X83409294Y-82780986D01*
X83271401Y-83038966D01*
X83186487Y-83318889D01*
X83157815Y-83610000D01*
X83186487Y-83901111D01*
X83271401Y-84181034D01*
X83409294Y-84439014D01*
X83594866Y-84665134D01*
X83820986Y-84850706D01*
X83875791Y-84880000D01*
X83820986Y-84909294D01*
X83594866Y-85094866D01*
X83409294Y-85320986D01*
X83271401Y-85578966D01*
X83186487Y-85858889D01*
X83157815Y-86150000D01*
X83186487Y-86441111D01*
X83271401Y-86721034D01*
X83409294Y-86979014D01*
X83594866Y-87205134D01*
X83820986Y-87390706D01*
X84078966Y-87528599D01*
X84358889Y-87613513D01*
X84577050Y-87635000D01*
X84722950Y-87635000D01*
X84941111Y-87613513D01*
X85221034Y-87528599D01*
X85479014Y-87390706D01*
X85705134Y-87205134D01*
X85890706Y-86979014D01*
X86028599Y-86721034D01*
X86113513Y-86441111D01*
X86142185Y-86150000D01*
X86113513Y-85858889D01*
X86028599Y-85578966D01*
X85890706Y-85320986D01*
X85705134Y-85094866D01*
X85479014Y-84909294D01*
X85424209Y-84880000D01*
X85479014Y-84850706D01*
X85705134Y-84665134D01*
X85890706Y-84439014D01*
X86028599Y-84181034D01*
X86113513Y-83901111D01*
X86142185Y-83610000D01*
X86113513Y-83318889D01*
X86028599Y-83038966D01*
X85890706Y-82780986D01*
X85705134Y-82554866D01*
X85479014Y-82369294D01*
X85424209Y-82340000D01*
X85479014Y-82310706D01*
X85705134Y-82125134D01*
X85890706Y-81899014D01*
X86028599Y-81641034D01*
X86113513Y-81361111D01*
X86142185Y-81070000D01*
X86113513Y-80778889D01*
X86028599Y-80498966D01*
X85890706Y-80240986D01*
X85705134Y-80014866D01*
X85479014Y-79829294D01*
X85424209Y-79800000D01*
X85479014Y-79770706D01*
X85705134Y-79585134D01*
X85890706Y-79359014D01*
X86028599Y-79101034D01*
X86113513Y-78821111D01*
X86142185Y-78530000D01*
X86113513Y-78238889D01*
X86028599Y-77958966D01*
X85890706Y-77700986D01*
X85705134Y-77474866D01*
X85479014Y-77289294D01*
X85424209Y-77260000D01*
X85479014Y-77230706D01*
X85705134Y-77045134D01*
X85890706Y-76819014D01*
X86028599Y-76561034D01*
X86113513Y-76281111D01*
X86142185Y-75990000D01*
X86113513Y-75698889D01*
X86028599Y-75418966D01*
X85890706Y-75160986D01*
X85705134Y-74934866D01*
X85479014Y-74749294D01*
X85424209Y-74720000D01*
X85479014Y-74690706D01*
X85705134Y-74505134D01*
X85890706Y-74279014D01*
X86028599Y-74021034D01*
X86113513Y-73741111D01*
X86142185Y-73450000D01*
X86113513Y-73158889D01*
X86028599Y-72878966D01*
X85890706Y-72620986D01*
X85705134Y-72394866D01*
X85479014Y-72209294D01*
X85424209Y-72180000D01*
X85479014Y-72150706D01*
X85705134Y-71965134D01*
X85890706Y-71739014D01*
X86028599Y-71481034D01*
X86113513Y-71201111D01*
X86142185Y-70910000D01*
X86113513Y-70618889D01*
X86028599Y-70338966D01*
X85890706Y-70080986D01*
X85705134Y-69854866D01*
X85675313Y-69830393D01*
X85744180Y-69809502D01*
X85854494Y-69750537D01*
X85951185Y-69671185D01*
X86030537Y-69574494D01*
X86089502Y-69464180D01*
X86125812Y-69344482D01*
X86138072Y-69220000D01*
X86135000Y-68655750D01*
X85976250Y-68497000D01*
X84777000Y-68497000D01*
X84777000Y-68517000D01*
X84523000Y-68517000D01*
X84523000Y-68497000D01*
X83323750Y-68497000D01*
X83165000Y-68655750D01*
X83161928Y-69220000D01*
X83174188Y-69344482D01*
X83210498Y-69464180D01*
X83269463Y-69574494D01*
X83348815Y-69671185D01*
X83445506Y-69750537D01*
X83555820Y-69809502D01*
X83624687Y-69830393D01*
X83594866Y-69854866D01*
X83409294Y-70080986D01*
X83271401Y-70338966D01*
X83186487Y-70618889D01*
X83157815Y-70910000D01*
X83186487Y-71201111D01*
X83271401Y-71481034D01*
X83409294Y-71739014D01*
X83594866Y-71965134D01*
X83820986Y-72150706D01*
X83875791Y-72180000D01*
X83820986Y-72209294D01*
X83690276Y-72316565D01*
X83679774Y-72306063D01*
X83510256Y-72192795D01*
X83321898Y-72114774D01*
X83121939Y-72075000D01*
X82989091Y-72075000D01*
X82796824Y-71882733D01*
X82774587Y-71855637D01*
X82666475Y-71766912D01*
X82543132Y-71700984D01*
X82409296Y-71660385D01*
X82304989Y-71650112D01*
X82304987Y-71650112D01*
X82270112Y-71646677D01*
X82235237Y-71650112D01*
X74568240Y-71650112D01*
X74474303Y-71556175D01*
X74304785Y-71442907D01*
X74116427Y-71364886D01*
X73916468Y-71325112D01*
X73712590Y-71325112D01*
X73512631Y-71364886D01*
X73324273Y-71442907D01*
X73154755Y-71556175D01*
X73010592Y-71700338D01*
X72897324Y-71869856D01*
X72819303Y-72058214D01*
X72779529Y-72258173D01*
X72779529Y-72462051D01*
X72819303Y-72662010D01*
X72879575Y-72807518D01*
X72804774Y-72988102D01*
X72765000Y-73188061D01*
X54851888Y-73188061D01*
X54982102Y-73057847D01*
X55018061Y-73065000D01*
X55221939Y-73065000D01*
X55421898Y-73025226D01*
X55610256Y-72947205D01*
X55779774Y-72833937D01*
X55923937Y-72689774D01*
X56037205Y-72520256D01*
X56115226Y-72331898D01*
X56155000Y-72131939D01*
X56155000Y-71928061D01*
X56115226Y-71728102D01*
X56037205Y-71539744D01*
X55923937Y-71370226D01*
X55779774Y-71226063D01*
X55610256Y-71112795D01*
X55421898Y-71034774D01*
X55221939Y-70995000D01*
X55018061Y-70995000D01*
X54818102Y-71034774D01*
X54629744Y-71112795D01*
X54460226Y-71226063D01*
X54316063Y-71370226D01*
X54202795Y-71539744D01*
X54124774Y-71728102D01*
X54085000Y-71928061D01*
X54085000Y-71975050D01*
X53744501Y-72315550D01*
X53705226Y-72118102D01*
X53627205Y-71929744D01*
X53513937Y-71760226D01*
X53369774Y-71616063D01*
X53336300Y-71593696D01*
X53368211Y-71572374D01*
X53512374Y-71428211D01*
X53625642Y-71258693D01*
X53703663Y-71070335D01*
X53705599Y-71060599D01*
X53715335Y-71058663D01*
X53903693Y-70980642D01*
X54073211Y-70867374D01*
X54217374Y-70723211D01*
X54330642Y-70553693D01*
X54405459Y-70373071D01*
X54586081Y-70298254D01*
X54755599Y-70184986D01*
X54899762Y-70040823D01*
X55013030Y-69871305D01*
X55091051Y-69682947D01*
X55130825Y-69482988D01*
X55130825Y-69300000D01*
X57598593Y-69300000D01*
X57595000Y-69318061D01*
X57595000Y-69521939D01*
X57634774Y-69721898D01*
X57712795Y-69910256D01*
X57826063Y-70079774D01*
X57970226Y-70223937D01*
X58139744Y-70337205D01*
X58149884Y-70341405D01*
X58021063Y-70470226D01*
X57907795Y-70639744D01*
X57829774Y-70828102D01*
X57790000Y-71028061D01*
X57790000Y-71231939D01*
X57829774Y-71431898D01*
X57907795Y-71620256D01*
X58021063Y-71789774D01*
X58165226Y-71933937D01*
X58334744Y-72047205D01*
X58523102Y-72125226D01*
X58723061Y-72165000D01*
X58926939Y-72165000D01*
X59126898Y-72125226D01*
X59315256Y-72047205D01*
X59484774Y-71933937D01*
X59578711Y-71840000D01*
X60933386Y-71840000D01*
X60936686Y-71842205D01*
X61125044Y-71920226D01*
X61325003Y-71960000D01*
X61528881Y-71960000D01*
X61728840Y-71920226D01*
X61917198Y-71842205D01*
X62086716Y-71728937D01*
X62230879Y-71584774D01*
X62344147Y-71415256D01*
X62422168Y-71226898D01*
X62461333Y-71029999D01*
X69060923Y-71029999D01*
X69081717Y-71080199D01*
X69194985Y-71249717D01*
X69339148Y-71393880D01*
X69508666Y-71507148D01*
X69697024Y-71585169D01*
X69896983Y-71624943D01*
X70100861Y-71624943D01*
X70300820Y-71585169D01*
X70489178Y-71507148D01*
X70658696Y-71393880D01*
X70802859Y-71249717D01*
X70916127Y-71080199D01*
X70994148Y-70891841D01*
X71033922Y-70691882D01*
X71033922Y-70488004D01*
X70994148Y-70288045D01*
X70916127Y-70099687D01*
X70802859Y-69930169D01*
X70658696Y-69786006D01*
X70489178Y-69672738D01*
X70300820Y-69594717D01*
X70100861Y-69554943D01*
X69896983Y-69554943D01*
X69697024Y-69594717D01*
X69660130Y-69609999D01*
X61817649Y-69609999D01*
X61876003Y-69469121D01*
X61915777Y-69269162D01*
X61915777Y-69065284D01*
X61902789Y-68999990D01*
X61986116Y-68999990D01*
X62002795Y-69040256D01*
X62116063Y-69209774D01*
X62260226Y-69353937D01*
X62429744Y-69467205D01*
X62618102Y-69545226D01*
X62818061Y-69585000D01*
X63021939Y-69585000D01*
X63221898Y-69545226D01*
X63410256Y-69467205D01*
X63579774Y-69353937D01*
X63723937Y-69209774D01*
X63837205Y-69040256D01*
X63915226Y-68851898D01*
X63955000Y-68651939D01*
X63955000Y-68448061D01*
X63915226Y-68248102D01*
X63837205Y-68059744D01*
X63723937Y-67890226D01*
X63579774Y-67746063D01*
X63410256Y-67632795D01*
X63221898Y-67554774D01*
X63047076Y-67520000D01*
X83161928Y-67520000D01*
X83165000Y-68084250D01*
X83323750Y-68243000D01*
X84523000Y-68243000D01*
X84523000Y-67043750D01*
X84777000Y-67043750D01*
X84777000Y-68243000D01*
X85976250Y-68243000D01*
X86135000Y-68084250D01*
X86138072Y-67520000D01*
X86125812Y-67395518D01*
X86089502Y-67275820D01*
X86030537Y-67165506D01*
X85951185Y-67068815D01*
X85854494Y-66989463D01*
X85744180Y-66930498D01*
X85624482Y-66894188D01*
X85500000Y-66881928D01*
X84935750Y-66885000D01*
X84777000Y-67043750D01*
X84523000Y-67043750D01*
X84364250Y-66885000D01*
X83800000Y-66881928D01*
X83675518Y-66894188D01*
X83555820Y-66930498D01*
X83445506Y-66989463D01*
X83348815Y-67068815D01*
X83269463Y-67165506D01*
X83210498Y-67275820D01*
X83174188Y-67395518D01*
X83161928Y-67520000D01*
X63047076Y-67520000D01*
X63021939Y-67515000D01*
X62818061Y-67515000D01*
X62683430Y-67541780D01*
X62630000Y-67536517D01*
X62488856Y-67550419D01*
X62457298Y-67559992D01*
X60453185Y-67559990D01*
X47054638Y-67559990D01*
X46953109Y-67569990D01*
X45536331Y-67569990D01*
X45434897Y-67560000D01*
X45434895Y-67560000D01*
X45400020Y-67556565D01*
X45365145Y-67560000D01*
X45204875Y-67560000D01*
X45170000Y-67556565D01*
X45135125Y-67560000D01*
X45073711Y-67560000D01*
X44979774Y-67466063D01*
X44810256Y-67352795D01*
X44621898Y-67274774D01*
X44421939Y-67235000D01*
X44218061Y-67235000D01*
X44018102Y-67274774D01*
X43829744Y-67352795D01*
X43660226Y-67466063D01*
X43516063Y-67610226D01*
X43402795Y-67779744D01*
X43324774Y-67968102D01*
X43285000Y-68168061D01*
X43285000Y-68371939D01*
X43324774Y-68571898D01*
X43402795Y-68760256D01*
X43516063Y-68929774D01*
X43660226Y-69073937D01*
X43750100Y-69133989D01*
X43681063Y-69203026D01*
X43567795Y-69372544D01*
X43489774Y-69560902D01*
X43450000Y-69760861D01*
X43450000Y-69964739D01*
X43489774Y-70164698D01*
X43567795Y-70353056D01*
X43681063Y-70522574D01*
X43825226Y-70666737D01*
X43994744Y-70780005D01*
X43995000Y-70780111D01*
X43995000Y-70831939D01*
X44034774Y-71031898D01*
X44112795Y-71220256D01*
X44146861Y-71271240D01*
X44127815Y-71299744D01*
X44049794Y-71488102D01*
X44010020Y-71688061D01*
X44010020Y-71721309D01*
X43934774Y-71646063D01*
X43765256Y-71532795D01*
X43576898Y-71454774D01*
X43376939Y-71415000D01*
X43173061Y-71415000D01*
X42973102Y-71454774D01*
X42784744Y-71532795D01*
X42615226Y-71646063D01*
X42471063Y-71790226D01*
X42357795Y-71959744D01*
X42279774Y-72148102D01*
X42240000Y-72348061D01*
X41300000Y-72348061D01*
X41300000Y-63378061D01*
X43465000Y-63378061D01*
X43465000Y-63581939D01*
X43504774Y-63781898D01*
X43582795Y-63970256D01*
X43696063Y-64139774D01*
X43840226Y-64283937D01*
X44009744Y-64397205D01*
X44198102Y-64475226D01*
X44398061Y-64515000D01*
X44601939Y-64515000D01*
X44801898Y-64475226D01*
X44990256Y-64397205D01*
X45159774Y-64283937D01*
X45303937Y-64139774D01*
X45311572Y-64128348D01*
X45390000Y-64136072D01*
X48690000Y-64136072D01*
X48814482Y-64123812D01*
X48934180Y-64087502D01*
X49044494Y-64028537D01*
X49141185Y-63949185D01*
X49220537Y-63852494D01*
X49279502Y-63742180D01*
X49315812Y-63622482D01*
X49328072Y-63498000D01*
X49328072Y-63283061D01*
X49820966Y-63283061D01*
X49820966Y-63486939D01*
X49860740Y-63686898D01*
X49938761Y-63875256D01*
X50052029Y-64044774D01*
X50196192Y-64188937D01*
X50365710Y-64302205D01*
X50554068Y-64380226D01*
X50754027Y-64420000D01*
X50937806Y-64420000D01*
X50982945Y-64444127D01*
X51116781Y-64484726D01*
X51221088Y-64494999D01*
X51221089Y-64494999D01*
X51255964Y-64498434D01*
X51290839Y-64494999D01*
X75071288Y-64494999D01*
X75150226Y-64573937D01*
X75319744Y-64687205D01*
X75508102Y-64765226D01*
X75708061Y-64805000D01*
X75911939Y-64805000D01*
X76111898Y-64765226D01*
X76300256Y-64687205D01*
X76469774Y-64573937D01*
X76613937Y-64429774D01*
X76727205Y-64260256D01*
X76805226Y-64071898D01*
X76845000Y-63871939D01*
X76845000Y-63668061D01*
X76805226Y-63468102D01*
X76727205Y-63279744D01*
X76645117Y-63156890D01*
X84208524Y-63156890D01*
X84210446Y-63169261D01*
X84310146Y-63443009D01*
X84461336Y-63692046D01*
X84658205Y-63906802D01*
X84893188Y-64079025D01*
X85157255Y-64202096D01*
X85440258Y-64271285D01*
X85673000Y-64127232D01*
X85673000Y-62927000D01*
X85927000Y-62927000D01*
X85927000Y-64127232D01*
X86159742Y-64271285D01*
X86442745Y-64202096D01*
X86706812Y-64079025D01*
X86941795Y-63906802D01*
X87138664Y-63692046D01*
X87289854Y-63443009D01*
X87389554Y-63169261D01*
X87391476Y-63156890D01*
X87270155Y-62927000D01*
X85927000Y-62927000D01*
X85673000Y-62927000D01*
X84329845Y-62927000D01*
X84208524Y-63156890D01*
X76645117Y-63156890D01*
X76613937Y-63110226D01*
X76469774Y-62966063D01*
X76300256Y-62852795D01*
X76111898Y-62774774D01*
X75911939Y-62735000D01*
X75708061Y-62735000D01*
X75508102Y-62774774D01*
X75319744Y-62852795D01*
X75150226Y-62966063D01*
X75041290Y-63074999D01*
X59324572Y-63074999D01*
X59420221Y-63040340D01*
X59561160Y-62750639D01*
X59642874Y-62439009D01*
X59662220Y-62117425D01*
X59618458Y-61798246D01*
X59513267Y-61493738D01*
X59420221Y-61319660D01*
X59393562Y-61310000D01*
X77756770Y-61310000D01*
X77812795Y-61445256D01*
X77926063Y-61614774D01*
X78070226Y-61758937D01*
X78239744Y-61872205D01*
X78428102Y-61950226D01*
X78628061Y-61990000D01*
X78831939Y-61990000D01*
X79031898Y-61950226D01*
X79220256Y-61872205D01*
X79389774Y-61758937D01*
X79533937Y-61614774D01*
X79647205Y-61445256D01*
X79725226Y-61256898D01*
X79765000Y-61056939D01*
X79765000Y-60853061D01*
X79725226Y-60653102D01*
X79647205Y-60464744D01*
X79533937Y-60295226D01*
X79389774Y-60151063D01*
X79220256Y-60037795D01*
X79031898Y-59959774D01*
X78831939Y-59920000D01*
X78628061Y-59920000D01*
X78598559Y-59925868D01*
X78514184Y-59900273D01*
X78409877Y-59890000D01*
X78409875Y-59890000D01*
X78375000Y-59886565D01*
X78340125Y-59890000D01*
X52019092Y-59890000D01*
X51945000Y-59815908D01*
X51945000Y-59700000D01*
X84161928Y-59700000D01*
X84161928Y-60900000D01*
X84178992Y-61073254D01*
X84229528Y-61239850D01*
X84311595Y-61393386D01*
X84422038Y-61527962D01*
X84556614Y-61638405D01*
X84658593Y-61692914D01*
X84658205Y-61693198D01*
X84461336Y-61907954D01*
X84310146Y-62156991D01*
X84210446Y-62430739D01*
X84208524Y-62443110D01*
X84329845Y-62673000D01*
X85673000Y-62673000D01*
X85673000Y-62653000D01*
X85927000Y-62653000D01*
X85927000Y-62673000D01*
X87270155Y-62673000D01*
X87391476Y-62443110D01*
X87389554Y-62430739D01*
X87289854Y-62156991D01*
X87138664Y-61907954D01*
X86941795Y-61693198D01*
X86941407Y-61692914D01*
X87043386Y-61638405D01*
X87177962Y-61527962D01*
X87288405Y-61393386D01*
X87370472Y-61239850D01*
X87421008Y-61073254D01*
X87438072Y-60900000D01*
X87438072Y-59700000D01*
X87421008Y-59526746D01*
X87370472Y-59360150D01*
X87288405Y-59206614D01*
X87177962Y-59072038D01*
X87043386Y-58961595D01*
X86889850Y-58879528D01*
X86723254Y-58828992D01*
X86550000Y-58811928D01*
X85050000Y-58811928D01*
X84876746Y-58828992D01*
X84710150Y-58879528D01*
X84556614Y-58961595D01*
X84422038Y-59072038D01*
X84311595Y-59206614D01*
X84229528Y-59360150D01*
X84178992Y-59526746D01*
X84161928Y-59700000D01*
X51945000Y-59700000D01*
X51945000Y-59683061D01*
X51905226Y-59483102D01*
X51827205Y-59294744D01*
X51713937Y-59125226D01*
X51569774Y-58981063D01*
X51400256Y-58867795D01*
X51211898Y-58789774D01*
X51011939Y-58750000D01*
X50808061Y-58750000D01*
X50608102Y-58789774D01*
X50419744Y-58867795D01*
X50250226Y-58981063D01*
X50106063Y-59125226D01*
X49992795Y-59294744D01*
X49914774Y-59483102D01*
X49875000Y-59683061D01*
X49875000Y-59886939D01*
X49914774Y-60086898D01*
X49992795Y-60275256D01*
X50106063Y-60444774D01*
X50250226Y-60588937D01*
X50419744Y-60702205D01*
X50608102Y-60780226D01*
X50808061Y-60820000D01*
X50940908Y-60820000D01*
X51198292Y-61077384D01*
X51220525Y-61104475D01*
X51328637Y-61193200D01*
X51451980Y-61259128D01*
X51585816Y-61299727D01*
X51690123Y-61310000D01*
X51690124Y-61310000D01*
X51724999Y-61313435D01*
X51759874Y-61310000D01*
X56646438Y-61310000D01*
X56619779Y-61319660D01*
X56478840Y-61609361D01*
X56397126Y-61920991D01*
X56377780Y-62242575D01*
X56421542Y-62561754D01*
X56526733Y-62866262D01*
X56619779Y-63040340D01*
X56715428Y-63074999D01*
X51847836Y-63074999D01*
X51773171Y-62894744D01*
X51659903Y-62725226D01*
X51515740Y-62581063D01*
X51346222Y-62467795D01*
X51157864Y-62389774D01*
X50957905Y-62350000D01*
X50754027Y-62350000D01*
X50554068Y-62389774D01*
X50365710Y-62467795D01*
X50196192Y-62581063D01*
X50052029Y-62725226D01*
X49938761Y-62894744D01*
X49860740Y-63083102D01*
X49820966Y-63283061D01*
X49328072Y-63283061D01*
X49328072Y-59998000D01*
X49315812Y-59873518D01*
X49279502Y-59753820D01*
X49220537Y-59643506D01*
X49141185Y-59546815D01*
X49044494Y-59467463D01*
X48934180Y-59408498D01*
X48814482Y-59372188D01*
X48690000Y-59359928D01*
X45390000Y-59359928D01*
X45265518Y-59372188D01*
X45145820Y-59408498D01*
X45035506Y-59467463D01*
X44938815Y-59546815D01*
X44859463Y-59643506D01*
X44800498Y-59753820D01*
X44764188Y-59873518D01*
X44751928Y-59998000D01*
X44751928Y-62223981D01*
X44530909Y-62445000D01*
X44398061Y-62445000D01*
X44198102Y-62484774D01*
X44009744Y-62562795D01*
X43840226Y-62676063D01*
X43696063Y-62820226D01*
X43582795Y-62989744D01*
X43504774Y-63178102D01*
X43465000Y-63378061D01*
X41300000Y-63378061D01*
X41300000Y-55848000D01*
X44401928Y-55848000D01*
X44414188Y-55972482D01*
X44450498Y-56092180D01*
X44509463Y-56202494D01*
X44588815Y-56299185D01*
X44685506Y-56378537D01*
X44795820Y-56437502D01*
X44915518Y-56473812D01*
X45040000Y-56486072D01*
X46754250Y-56483000D01*
X46913000Y-56324250D01*
X46913000Y-53975000D01*
X47167000Y-53975000D01*
X47167000Y-56324250D01*
X47325750Y-56483000D01*
X49040000Y-56486072D01*
X49164482Y-56473812D01*
X49284180Y-56437502D01*
X49394494Y-56378537D01*
X49491185Y-56299185D01*
X49570537Y-56202494D01*
X49629502Y-56092180D01*
X49665812Y-55972482D01*
X49678072Y-55848000D01*
X49675000Y-54133750D01*
X49516250Y-53975000D01*
X47167000Y-53975000D01*
X46913000Y-53975000D01*
X44563750Y-53975000D01*
X44405000Y-54133750D01*
X44401928Y-55848000D01*
X41300000Y-55848000D01*
X41300000Y-51848000D01*
X44401928Y-51848000D01*
X44405000Y-53562250D01*
X44563750Y-53721000D01*
X46913000Y-53721000D01*
X46913000Y-51371750D01*
X46754250Y-51213000D01*
X45040000Y-51209928D01*
X44915518Y-51222188D01*
X44795820Y-51258498D01*
X44685506Y-51317463D01*
X44588815Y-51396815D01*
X44509463Y-51493506D01*
X44450498Y-51603820D01*
X44414188Y-51723518D01*
X44401928Y-51848000D01*
X41300000Y-51848000D01*
X41300000Y-40310000D01*
X41857815Y-40310000D01*
X41886487Y-40601111D01*
X41971401Y-40881034D01*
X42109294Y-41139014D01*
X42294866Y-41365134D01*
X42358337Y-41417223D01*
X42256614Y-41471595D01*
X42122038Y-41582038D01*
X42011595Y-41716614D01*
X41929528Y-41870150D01*
X41878992Y-42036746D01*
X41861928Y-42210000D01*
X41861928Y-43410000D01*
X41878992Y-43583254D01*
X41929528Y-43749850D01*
X42011595Y-43903386D01*
X42122038Y-44037962D01*
X42256614Y-44148405D01*
X42410150Y-44230472D01*
X42576746Y-44281008D01*
X42750000Y-44298072D01*
X43678217Y-44298072D01*
X43556063Y-44420226D01*
X43442795Y-44589744D01*
X43364774Y-44778102D01*
X43325000Y-44978061D01*
X43325000Y-45181939D01*
X43364774Y-45381898D01*
X43442795Y-45570256D01*
X43556063Y-45739774D01*
X43700226Y-45883937D01*
X43869744Y-45997205D01*
X44058102Y-46075226D01*
X44258061Y-46115000D01*
X44402908Y-46115000D01*
X44713292Y-46425384D01*
X44735525Y-46452475D01*
X44751928Y-46465937D01*
X44751928Y-47698000D01*
X44764188Y-47822482D01*
X44800498Y-47942180D01*
X44859463Y-48052494D01*
X44938815Y-48149185D01*
X45035506Y-48228537D01*
X45145820Y-48287502D01*
X45265518Y-48323812D01*
X45390000Y-48336072D01*
X48420000Y-48336072D01*
X48420000Y-50089306D01*
X48260226Y-50196063D01*
X48116063Y-50340226D01*
X48002795Y-50509744D01*
X47924774Y-50698102D01*
X47885000Y-50898061D01*
X47885000Y-51101939D01*
X47906884Y-51211959D01*
X47325750Y-51213000D01*
X47167000Y-51371750D01*
X47167000Y-53721000D01*
X49516250Y-53721000D01*
X49675000Y-53562250D01*
X49678072Y-51848000D01*
X49675124Y-51818061D01*
X52385000Y-51818061D01*
X52385000Y-52021939D01*
X52424774Y-52221898D01*
X52502795Y-52410256D01*
X52616063Y-52579774D01*
X52760226Y-52723937D01*
X52929744Y-52837205D01*
X53118102Y-52915226D01*
X53318061Y-52955000D01*
X53521939Y-52955000D01*
X53721898Y-52915226D01*
X53910256Y-52837205D01*
X54079774Y-52723937D01*
X54153711Y-52650000D01*
X57544145Y-52650000D01*
X57580000Y-52653531D01*
X57615855Y-52650000D01*
X57615860Y-52650000D01*
X57655205Y-52646125D01*
X57723104Y-52639438D01*
X57818968Y-52610358D01*
X57860711Y-52597695D01*
X57987529Y-52529910D01*
X58098685Y-52438685D01*
X58121547Y-52410828D01*
X59050838Y-51481538D01*
X59078684Y-51458685D01*
X59101539Y-51430837D01*
X59101544Y-51430832D01*
X59143335Y-51379910D01*
X59169910Y-51347529D01*
X59237695Y-51220711D01*
X59261237Y-51143104D01*
X59279437Y-51083106D01*
X59282205Y-51055000D01*
X59290000Y-50975860D01*
X59290000Y-50975853D01*
X59293531Y-50940001D01*
X59290000Y-50904149D01*
X59290000Y-50613711D01*
X59363937Y-50539774D01*
X59477205Y-50370256D01*
X59555226Y-50181898D01*
X59595000Y-49981939D01*
X59595000Y-49877376D01*
X59752376Y-49720000D01*
X61216289Y-49720000D01*
X61290226Y-49793937D01*
X61459744Y-49907205D01*
X61648102Y-49985226D01*
X61848061Y-50025000D01*
X62051939Y-50025000D01*
X62251898Y-49985226D01*
X62440256Y-49907205D01*
X62609774Y-49793937D01*
X62683711Y-49720000D01*
X65351279Y-49720000D01*
X65425216Y-49793937D01*
X65594734Y-49907205D01*
X65783092Y-49985226D01*
X65983051Y-50025000D01*
X66186929Y-50025000D01*
X66386888Y-49985226D01*
X66575246Y-49907205D01*
X66744764Y-49793937D01*
X66818701Y-49720000D01*
X70077625Y-49720000D01*
X70200000Y-49842376D01*
X70200001Y-50446288D01*
X70126063Y-50520226D01*
X70012795Y-50689744D01*
X69934774Y-50878102D01*
X69895000Y-51078061D01*
X69895000Y-51281939D01*
X69934774Y-51481898D01*
X70000262Y-51640000D01*
X63199189Y-51640000D01*
X63164314Y-51636565D01*
X63129439Y-51640000D01*
X63129438Y-51640000D01*
X63025131Y-51650273D01*
X62891295Y-51690872D01*
X62799804Y-51739775D01*
X62767950Y-51756801D01*
X62753509Y-51768653D01*
X62659840Y-51845525D01*
X62637603Y-51872621D01*
X62232617Y-52277607D01*
X62205526Y-52299840D01*
X62116801Y-52407952D01*
X62050872Y-52531295D01*
X62036014Y-52580275D01*
X61906063Y-52710226D01*
X61792795Y-52879744D01*
X61714774Y-53068102D01*
X61675000Y-53268061D01*
X61675000Y-53471939D01*
X61714774Y-53671898D01*
X61792795Y-53860256D01*
X61906063Y-54029774D01*
X62050226Y-54173937D01*
X62219744Y-54287205D01*
X62408102Y-54365226D01*
X62482377Y-54380000D01*
X61043711Y-54380000D01*
X60969774Y-54306063D01*
X60800256Y-54192795D01*
X60611898Y-54114774D01*
X60411939Y-54075000D01*
X60208061Y-54075000D01*
X60008102Y-54114774D01*
X59819744Y-54192795D01*
X59650226Y-54306063D01*
X59506063Y-54450226D01*
X59392795Y-54619744D01*
X59314774Y-54808102D01*
X59275000Y-55008061D01*
X59275000Y-55211939D01*
X59314774Y-55411898D01*
X59392795Y-55600256D01*
X59506063Y-55769774D01*
X59650226Y-55913937D01*
X59819744Y-56027205D01*
X60008102Y-56105226D01*
X60208061Y-56145000D01*
X60411939Y-56145000D01*
X60611898Y-56105226D01*
X60800256Y-56027205D01*
X60969774Y-55913937D01*
X61043711Y-55840000D01*
X65322330Y-55840000D01*
X65322330Y-55989269D01*
X65362104Y-56189228D01*
X65440125Y-56377586D01*
X65553393Y-56547104D01*
X65697556Y-56691267D01*
X65867074Y-56804535D01*
X66055432Y-56882556D01*
X66255391Y-56922330D01*
X66459269Y-56922330D01*
X66659228Y-56882556D01*
X66847586Y-56804535D01*
X67017104Y-56691267D01*
X67108371Y-56600000D01*
X72091269Y-56600000D01*
X72185206Y-56693937D01*
X72354724Y-56807205D01*
X72543082Y-56885226D01*
X72743041Y-56925000D01*
X72946919Y-56925000D01*
X73146878Y-56885226D01*
X73335236Y-56807205D01*
X73504754Y-56693937D01*
X73648917Y-56549774D01*
X73762185Y-56380256D01*
X73840206Y-56191898D01*
X73850620Y-56139542D01*
X73878061Y-56145000D01*
X74081939Y-56145000D01*
X74281898Y-56105226D01*
X74470256Y-56027205D01*
X74639774Y-55913937D01*
X74783937Y-55769774D01*
X74897205Y-55600256D01*
X74964873Y-55436890D01*
X82908524Y-55436890D01*
X82953175Y-55584099D01*
X83078359Y-55846920D01*
X83252412Y-56080269D01*
X83468645Y-56275178D01*
X83718748Y-56424157D01*
X83993109Y-56521481D01*
X84223000Y-56400814D01*
X84223000Y-55207000D01*
X84477000Y-55207000D01*
X84477000Y-56400814D01*
X84706891Y-56521481D01*
X84981252Y-56424157D01*
X85231355Y-56275178D01*
X85447588Y-56080269D01*
X85621641Y-55846920D01*
X85746825Y-55584099D01*
X85791476Y-55436890D01*
X85670155Y-55207000D01*
X84477000Y-55207000D01*
X84223000Y-55207000D01*
X83029845Y-55207000D01*
X82908524Y-55436890D01*
X74964873Y-55436890D01*
X74975226Y-55411898D01*
X75015000Y-55211939D01*
X75015000Y-55008061D01*
X74975226Y-54808102D01*
X74897205Y-54619744D01*
X74783937Y-54450226D01*
X74639774Y-54306063D01*
X74470256Y-54192795D01*
X74281898Y-54114774D01*
X74081939Y-54075000D01*
X73878061Y-54075000D01*
X73678102Y-54114774D01*
X73489744Y-54192795D01*
X73320226Y-54306063D01*
X73246289Y-54380000D01*
X70664673Y-54380000D01*
X70684315Y-54281253D01*
X70684315Y-54077375D01*
X70644541Y-53877416D01*
X70566520Y-53689058D01*
X70453252Y-53519540D01*
X70309089Y-53375377D01*
X70139571Y-53262109D01*
X69951213Y-53184088D01*
X69751254Y-53144314D01*
X69547376Y-53144314D01*
X69347417Y-53184088D01*
X69159059Y-53262109D01*
X68989541Y-53375377D01*
X68895604Y-53469314D01*
X68408308Y-53469314D01*
X68305228Y-53366234D01*
X68135710Y-53252966D01*
X67947352Y-53174945D01*
X67747393Y-53135171D01*
X67543515Y-53135171D01*
X67343556Y-53174945D01*
X67155198Y-53252966D01*
X66985680Y-53366234D01*
X66841517Y-53510397D01*
X66728249Y-53679915D01*
X66650228Y-53868273D01*
X66610454Y-54068232D01*
X66610454Y-54272110D01*
X66631914Y-54380000D01*
X62937623Y-54380000D01*
X63011898Y-54365226D01*
X63200256Y-54287205D01*
X63369774Y-54173937D01*
X63513937Y-54029774D01*
X63627205Y-53860256D01*
X63705226Y-53671898D01*
X63745000Y-53471939D01*
X63745000Y-53268061D01*
X63705226Y-53068102D01*
X63701870Y-53060000D01*
X75050456Y-53060000D01*
X75085331Y-53063435D01*
X75120206Y-53060000D01*
X75120208Y-53060000D01*
X75224515Y-53049727D01*
X75358351Y-53009128D01*
X75481694Y-52943200D01*
X75589806Y-52854475D01*
X75612043Y-52827379D01*
X75899422Y-52540000D01*
X82857815Y-52540000D01*
X82886487Y-52831111D01*
X82971401Y-53111034D01*
X83109294Y-53369014D01*
X83294866Y-53595134D01*
X83520986Y-53780706D01*
X83585523Y-53815201D01*
X83468645Y-53884822D01*
X83252412Y-54079731D01*
X83078359Y-54313080D01*
X82953175Y-54575901D01*
X82908524Y-54723110D01*
X83029845Y-54953000D01*
X84223000Y-54953000D01*
X84223000Y-54933000D01*
X84477000Y-54933000D01*
X84477000Y-54953000D01*
X85670155Y-54953000D01*
X85791476Y-54723110D01*
X85746825Y-54575901D01*
X85621641Y-54313080D01*
X85447588Y-54079731D01*
X85231355Y-53884822D01*
X85114477Y-53815201D01*
X85179014Y-53780706D01*
X85405134Y-53595134D01*
X85590706Y-53369014D01*
X85728599Y-53111034D01*
X85813513Y-52831111D01*
X85842185Y-52540000D01*
X85813513Y-52248889D01*
X85728599Y-51968966D01*
X85590706Y-51710986D01*
X85405134Y-51484866D01*
X85375313Y-51460393D01*
X85444180Y-51439502D01*
X85554494Y-51380537D01*
X85651185Y-51301185D01*
X85730537Y-51204494D01*
X85789502Y-51094180D01*
X85825812Y-50974482D01*
X85838072Y-50850000D01*
X85838072Y-49150000D01*
X85825812Y-49025518D01*
X85789502Y-48905820D01*
X85730537Y-48795506D01*
X85651185Y-48698815D01*
X85554494Y-48619463D01*
X85444180Y-48560498D01*
X85324482Y-48524188D01*
X85200000Y-48511928D01*
X83500000Y-48511928D01*
X83375518Y-48524188D01*
X83255820Y-48560498D01*
X83145506Y-48619463D01*
X83048815Y-48698815D01*
X82969463Y-48795506D01*
X82910498Y-48905820D01*
X82874188Y-49025518D01*
X82861928Y-49150000D01*
X82861928Y-50850000D01*
X82874188Y-50974482D01*
X82910498Y-51094180D01*
X82969463Y-51204494D01*
X83048815Y-51301185D01*
X83145506Y-51380537D01*
X83255820Y-51439502D01*
X83324687Y-51460393D01*
X83294866Y-51484866D01*
X83109294Y-51710986D01*
X82971401Y-51968966D01*
X82886487Y-52248889D01*
X82857815Y-52540000D01*
X75899422Y-52540000D01*
X75937667Y-52501755D01*
X76070515Y-52501755D01*
X76270474Y-52461981D01*
X76458832Y-52383960D01*
X76628350Y-52270692D01*
X76772513Y-52126529D01*
X76885781Y-51957011D01*
X76963802Y-51768653D01*
X77003576Y-51568694D01*
X77003576Y-51364816D01*
X76963802Y-51164857D01*
X76885781Y-50976499D01*
X76772513Y-50806981D01*
X76628350Y-50662818D01*
X76458832Y-50549550D01*
X76270474Y-50471529D01*
X76070515Y-50431755D01*
X75866637Y-50431755D01*
X75666678Y-50471529D01*
X75478320Y-50549550D01*
X75308802Y-50662818D01*
X75164639Y-50806981D01*
X75051371Y-50976499D01*
X74973350Y-51164857D01*
X74933576Y-51364816D01*
X74933576Y-51497664D01*
X74791240Y-51640000D01*
X71859738Y-51640000D01*
X71925226Y-51481898D01*
X71965000Y-51281939D01*
X71965000Y-51078061D01*
X71925226Y-50878102D01*
X71847205Y-50689744D01*
X71733937Y-50520226D01*
X71660000Y-50446289D01*
X71660000Y-49575851D01*
X71663531Y-49539999D01*
X71660000Y-49504147D01*
X71660000Y-49504140D01*
X71650235Y-49405000D01*
X71649437Y-49396894D01*
X71607695Y-49259289D01*
X71539910Y-49132471D01*
X71493616Y-49076063D01*
X71471544Y-49049168D01*
X71471539Y-49049163D01*
X71448684Y-49021315D01*
X71420837Y-48998461D01*
X70921547Y-48499172D01*
X70898685Y-48471315D01*
X70787529Y-48380090D01*
X70660711Y-48312305D01*
X70618968Y-48299642D01*
X70523104Y-48270562D01*
X70455205Y-48263875D01*
X70415860Y-48260000D01*
X70415855Y-48260000D01*
X70380000Y-48256469D01*
X70344145Y-48260000D01*
X66818701Y-48260000D01*
X66744764Y-48186063D01*
X66575246Y-48072795D01*
X66386888Y-47994774D01*
X66186929Y-47955000D01*
X65983051Y-47955000D01*
X65783092Y-47994774D01*
X65594734Y-48072795D01*
X65425216Y-48186063D01*
X65351279Y-48260000D01*
X62683711Y-48260000D01*
X62609774Y-48186063D01*
X62440256Y-48072795D01*
X62251898Y-47994774D01*
X62051939Y-47955000D01*
X61848061Y-47955000D01*
X61648102Y-47994774D01*
X61459744Y-48072795D01*
X61290226Y-48186063D01*
X61216289Y-48260000D01*
X59485851Y-48260000D01*
X59449999Y-48256469D01*
X59414147Y-48260000D01*
X59414140Y-48260000D01*
X59332298Y-48268061D01*
X59306894Y-48270563D01*
X59251054Y-48287502D01*
X59169289Y-48312305D01*
X59042471Y-48380090D01*
X58931315Y-48471315D01*
X58908457Y-48499167D01*
X58562624Y-48845000D01*
X58458061Y-48845000D01*
X58258102Y-48884774D01*
X58069744Y-48962795D01*
X57900226Y-49076063D01*
X57756063Y-49220226D01*
X57642795Y-49389744D01*
X57564774Y-49578102D01*
X57525000Y-49778061D01*
X57525000Y-49981939D01*
X57564774Y-50181898D01*
X57642795Y-50370256D01*
X57756063Y-50539774D01*
X57830000Y-50613711D01*
X57830000Y-50637624D01*
X57277625Y-51190000D01*
X54153711Y-51190000D01*
X54079774Y-51116063D01*
X53910256Y-51002795D01*
X53721898Y-50924774D01*
X53521939Y-50885000D01*
X53318061Y-50885000D01*
X53118102Y-50924774D01*
X52929744Y-51002795D01*
X52760226Y-51116063D01*
X52616063Y-51260226D01*
X52502795Y-51429744D01*
X52424774Y-51618102D01*
X52385000Y-51818061D01*
X49675124Y-51818061D01*
X49665812Y-51723518D01*
X49664504Y-51719207D01*
X49723937Y-51659774D01*
X49837205Y-51490256D01*
X49915226Y-51301898D01*
X49955000Y-51101939D01*
X49955000Y-50898061D01*
X49915226Y-50698102D01*
X49880000Y-50613060D01*
X49880000Y-46698061D01*
X55375000Y-46698061D01*
X55375000Y-46901939D01*
X55414774Y-47101898D01*
X55492795Y-47290256D01*
X55606063Y-47459774D01*
X55680001Y-47533712D01*
X55680000Y-47636289D01*
X55606063Y-47710226D01*
X55492795Y-47879744D01*
X55414774Y-48068102D01*
X55375000Y-48268061D01*
X55375000Y-48471939D01*
X55414774Y-48671898D01*
X55492795Y-48860256D01*
X55606063Y-49029774D01*
X55750226Y-49173937D01*
X55919744Y-49287205D01*
X56108102Y-49365226D01*
X56308061Y-49405000D01*
X56511939Y-49405000D01*
X56711898Y-49365226D01*
X56900256Y-49287205D01*
X57069774Y-49173937D01*
X57213937Y-49029774D01*
X57327205Y-48860256D01*
X57405226Y-48671898D01*
X57445000Y-48471939D01*
X57445000Y-48268061D01*
X57405226Y-48068102D01*
X57327205Y-47879744D01*
X57213937Y-47710226D01*
X57140000Y-47636289D01*
X57140000Y-47533711D01*
X57213937Y-47459774D01*
X57276118Y-47366712D01*
X69272893Y-47366712D01*
X69380726Y-47641338D01*
X69687384Y-47792216D01*
X70017585Y-47880369D01*
X70358639Y-47902409D01*
X70697439Y-47857489D01*
X71020966Y-47747336D01*
X71219274Y-47641338D01*
X71327107Y-47366712D01*
X70300000Y-46339605D01*
X69272893Y-47366712D01*
X57276118Y-47366712D01*
X57327205Y-47290256D01*
X57405226Y-47101898D01*
X57445000Y-46901939D01*
X57445000Y-46698061D01*
X57405226Y-46498102D01*
X57327205Y-46309744D01*
X57266331Y-46218639D01*
X68557591Y-46218639D01*
X68602511Y-46557439D01*
X68712664Y-46880966D01*
X68818662Y-47079274D01*
X69093288Y-47187107D01*
X70120395Y-46160000D01*
X70479605Y-46160000D01*
X71506712Y-47187107D01*
X71781338Y-47079274D01*
X71932216Y-46772616D01*
X72020369Y-46442415D01*
X72042409Y-46101361D01*
X71997489Y-45762561D01*
X71887336Y-45439034D01*
X71781338Y-45240726D01*
X71506712Y-45132893D01*
X70479605Y-46160000D01*
X70120395Y-46160000D01*
X69093288Y-45132893D01*
X68818662Y-45240726D01*
X68667784Y-45547384D01*
X68579631Y-45877585D01*
X68557591Y-46218639D01*
X57266331Y-46218639D01*
X57213937Y-46140226D01*
X57069774Y-45996063D01*
X56900256Y-45882795D01*
X56711898Y-45804774D01*
X56511939Y-45765000D01*
X56308061Y-45765000D01*
X56108102Y-45804774D01*
X55919744Y-45882795D01*
X55750226Y-45996063D01*
X55606063Y-46140226D01*
X55492795Y-46309744D01*
X55414774Y-46498102D01*
X55375000Y-46698061D01*
X49880000Y-46698061D01*
X49880000Y-44953288D01*
X69272893Y-44953288D01*
X70300000Y-45980395D01*
X71202334Y-45078061D01*
X82795000Y-45078061D01*
X82795000Y-45281939D01*
X82834774Y-45481898D01*
X82912795Y-45670256D01*
X83026063Y-45839774D01*
X83070001Y-45883712D01*
X83070000Y-46616289D01*
X83026063Y-46660226D01*
X82912795Y-46829744D01*
X82834774Y-47018102D01*
X82795000Y-47218061D01*
X82795000Y-47421939D01*
X82834774Y-47621898D01*
X82912795Y-47810256D01*
X83026063Y-47979774D01*
X83170226Y-48123937D01*
X83339744Y-48237205D01*
X83528102Y-48315226D01*
X83728061Y-48355000D01*
X83931939Y-48355000D01*
X84131898Y-48315226D01*
X84320256Y-48237205D01*
X84489774Y-48123937D01*
X84633937Y-47979774D01*
X84747205Y-47810256D01*
X84825226Y-47621898D01*
X84865000Y-47421939D01*
X84865000Y-47218061D01*
X84825226Y-47018102D01*
X84747205Y-46829744D01*
X84633937Y-46660226D01*
X84590000Y-46616289D01*
X84590000Y-45883711D01*
X84633937Y-45839774D01*
X84747205Y-45670256D01*
X84825226Y-45481898D01*
X84865000Y-45281939D01*
X84865000Y-45078061D01*
X84825226Y-44878102D01*
X84747205Y-44689744D01*
X84633937Y-44520226D01*
X84489774Y-44376063D01*
X84320256Y-44262795D01*
X84131898Y-44184774D01*
X83931939Y-44145000D01*
X83728061Y-44145000D01*
X83528102Y-44184774D01*
X83339744Y-44262795D01*
X83170226Y-44376063D01*
X83026063Y-44520226D01*
X82912795Y-44689744D01*
X82834774Y-44878102D01*
X82795000Y-45078061D01*
X71202334Y-45078061D01*
X71327107Y-44953288D01*
X71219274Y-44678662D01*
X70912616Y-44527784D01*
X70582415Y-44439631D01*
X70241361Y-44417591D01*
X69902561Y-44462511D01*
X69579034Y-44572664D01*
X69380726Y-44678662D01*
X69272893Y-44953288D01*
X49880000Y-44953288D01*
X49880000Y-44288849D01*
X49883531Y-44252997D01*
X49880000Y-44217145D01*
X49880000Y-44217138D01*
X49869437Y-44109893D01*
X49861818Y-44084774D01*
X49827695Y-43972287D01*
X49817824Y-43953820D01*
X49759910Y-43845469D01*
X49725295Y-43803291D01*
X49691544Y-43762166D01*
X49691539Y-43762161D01*
X49668684Y-43734313D01*
X49640838Y-43711460D01*
X49462289Y-43532911D01*
X86315000Y-43532911D01*
X86315000Y-43717089D01*
X86350932Y-43897729D01*
X86421414Y-44067889D01*
X86523738Y-44221028D01*
X86653972Y-44351262D01*
X86807111Y-44453586D01*
X86858809Y-44475000D01*
X86807111Y-44496414D01*
X86653972Y-44598738D01*
X86523738Y-44728972D01*
X86421414Y-44882111D01*
X86350932Y-45052271D01*
X86315000Y-45232911D01*
X86315000Y-45417089D01*
X86350932Y-45597729D01*
X86421414Y-45767889D01*
X86523738Y-45921028D01*
X86653972Y-46051262D01*
X86807111Y-46153586D01*
X86977271Y-46224068D01*
X87157911Y-46260000D01*
X87342089Y-46260000D01*
X87522729Y-46224068D01*
X87692889Y-46153586D01*
X87846028Y-46051262D01*
X87976262Y-45921028D01*
X88078586Y-45767889D01*
X88149068Y-45597729D01*
X88185000Y-45417089D01*
X88185000Y-45232911D01*
X88149068Y-45052271D01*
X88078586Y-44882111D01*
X87976262Y-44728972D01*
X87846028Y-44598738D01*
X87692889Y-44496414D01*
X87641191Y-44475000D01*
X87692889Y-44453586D01*
X87846028Y-44351262D01*
X87976262Y-44221028D01*
X88078586Y-44067889D01*
X88149068Y-43897729D01*
X88185000Y-43717089D01*
X88185000Y-43532911D01*
X88149068Y-43352271D01*
X88078586Y-43182111D01*
X87976262Y-43028972D01*
X87846028Y-42898738D01*
X87692889Y-42796414D01*
X87522729Y-42725932D01*
X87342089Y-42690000D01*
X87157911Y-42690000D01*
X86977271Y-42725932D01*
X86807111Y-42796414D01*
X86653972Y-42898738D01*
X86523738Y-43028972D01*
X86421414Y-43182111D01*
X86350932Y-43352271D01*
X86315000Y-43532911D01*
X49462289Y-43532911D01*
X48248549Y-42319172D01*
X48225687Y-42291315D01*
X48114531Y-42200090D01*
X47987713Y-42132305D01*
X47945970Y-42119642D01*
X47850106Y-42090562D01*
X47782207Y-42083875D01*
X47742862Y-42080000D01*
X47742857Y-42080000D01*
X47707002Y-42076469D01*
X47671147Y-42080000D01*
X45125268Y-42080000D01*
X45121008Y-42036746D01*
X45070472Y-41870150D01*
X44988405Y-41716614D01*
X44877962Y-41582038D01*
X44743386Y-41471595D01*
X44641663Y-41417223D01*
X44705134Y-41365134D01*
X44890706Y-41139014D01*
X45024842Y-40888061D01*
X68635000Y-40888061D01*
X68635000Y-41091939D01*
X68674774Y-41291898D01*
X68752795Y-41480256D01*
X68866063Y-41649774D01*
X69010226Y-41793937D01*
X69179744Y-41907205D01*
X69368102Y-41985226D01*
X69568061Y-42025000D01*
X69771939Y-42025000D01*
X69971898Y-41985226D01*
X70160256Y-41907205D01*
X70329774Y-41793937D01*
X70473937Y-41649774D01*
X70587205Y-41480256D01*
X70665226Y-41291898D01*
X70705000Y-41091939D01*
X70705000Y-41029801D01*
X72536003Y-39198799D01*
X72565001Y-39175001D01*
X72591332Y-39142917D01*
X72659974Y-39059277D01*
X72730546Y-38927247D01*
X72774003Y-38783986D01*
X72785000Y-38672333D01*
X72785000Y-38672323D01*
X72788676Y-38635000D01*
X72785000Y-38597677D01*
X72785000Y-38044946D01*
X72858102Y-38075226D01*
X73058061Y-38115000D01*
X73261939Y-38115000D01*
X73461898Y-38075226D01*
X73650256Y-37997205D01*
X73749966Y-37930581D01*
X73819744Y-37977205D01*
X74008102Y-38055226D01*
X74208061Y-38095000D01*
X74411939Y-38095000D01*
X74611898Y-38055226D01*
X74800256Y-37977205D01*
X74847517Y-37945626D01*
X74909744Y-37987205D01*
X75098102Y-38065226D01*
X75298061Y-38105000D01*
X75501939Y-38105000D01*
X75701898Y-38065226D01*
X75890256Y-37987205D01*
X76059774Y-37873937D01*
X76203937Y-37729774D01*
X76317205Y-37560256D01*
X76395226Y-37371898D01*
X76435000Y-37171939D01*
X76435000Y-36968061D01*
X76395226Y-36768102D01*
X76317205Y-36579744D01*
X76316811Y-36579154D01*
X76325812Y-36549482D01*
X76338072Y-36425000D01*
X76338072Y-34425000D01*
X76325812Y-34300518D01*
X76302904Y-34225000D01*
X78486928Y-34225000D01*
X78486928Y-35625000D01*
X78499188Y-35749482D01*
X78535498Y-35869180D01*
X78594463Y-35979494D01*
X78673815Y-36076185D01*
X78770506Y-36155537D01*
X78880820Y-36214502D01*
X79000518Y-36250812D01*
X79125000Y-36263072D01*
X80725000Y-36263072D01*
X80849482Y-36250812D01*
X80969180Y-36214502D01*
X81079494Y-36155537D01*
X81176185Y-36076185D01*
X81255537Y-35979494D01*
X81314502Y-35869180D01*
X81350812Y-35749482D01*
X81363072Y-35625000D01*
X81363072Y-34225000D01*
X81350812Y-34100518D01*
X81314502Y-33980820D01*
X81255537Y-33870506D01*
X81176185Y-33773815D01*
X81079494Y-33694463D01*
X80969180Y-33635498D01*
X80849482Y-33599188D01*
X80725000Y-33586928D01*
X79125000Y-33586928D01*
X79000518Y-33599188D01*
X78880820Y-33635498D01*
X78770506Y-33694463D01*
X78673815Y-33773815D01*
X78594463Y-33870506D01*
X78535498Y-33980820D01*
X78499188Y-34100518D01*
X78486928Y-34225000D01*
X76302904Y-34225000D01*
X76289502Y-34180820D01*
X76230537Y-34070506D01*
X76151185Y-33973815D01*
X76054494Y-33894463D01*
X75944180Y-33835498D01*
X75824482Y-33799188D01*
X75700000Y-33786928D01*
X74950000Y-33786928D01*
X74825518Y-33799188D01*
X74775000Y-33814512D01*
X74724482Y-33799188D01*
X74600000Y-33786928D01*
X73850000Y-33786928D01*
X73725518Y-33799188D01*
X73675000Y-33814512D01*
X73624482Y-33799188D01*
X73500000Y-33786928D01*
X72790000Y-33786928D01*
X72790000Y-33073711D01*
X72873937Y-32989774D01*
X72987205Y-32820256D01*
X73065226Y-32631898D01*
X73105000Y-32431939D01*
X73105000Y-32228061D01*
X73065226Y-32028102D01*
X72987205Y-31839744D01*
X72873937Y-31670226D01*
X72729774Y-31526063D01*
X72560256Y-31412795D01*
X72371898Y-31334774D01*
X72171939Y-31295000D01*
X71968061Y-31295000D01*
X71768102Y-31334774D01*
X71579744Y-31412795D01*
X71410226Y-31526063D01*
X71266063Y-31670226D01*
X71152795Y-31839744D01*
X71074774Y-32028102D01*
X71035000Y-32228061D01*
X71035000Y-32431939D01*
X71074774Y-32631898D01*
X71152795Y-32820256D01*
X71266063Y-32989774D01*
X71270001Y-32993712D01*
X71270000Y-33786928D01*
X70550000Y-33786928D01*
X70425518Y-33799188D01*
X70375000Y-33814512D01*
X70324482Y-33799188D01*
X70200000Y-33786928D01*
X70110750Y-33790000D01*
X69952000Y-33948750D01*
X69952000Y-34208834D01*
X69924188Y-34300518D01*
X69911928Y-34425000D01*
X69911928Y-36425000D01*
X69924188Y-36549482D01*
X69952000Y-36641166D01*
X69952000Y-36901250D01*
X69967246Y-36916496D01*
X69955000Y-36978061D01*
X69955000Y-37181939D01*
X69994774Y-37381898D01*
X70072795Y-37570256D01*
X70186063Y-37739774D01*
X70330226Y-37883937D01*
X70499744Y-37997205D01*
X70688102Y-38075226D01*
X70888061Y-38115000D01*
X71091939Y-38115000D01*
X71265001Y-38080576D01*
X71265001Y-38320197D01*
X69630199Y-39955000D01*
X69568061Y-39955000D01*
X69368102Y-39994774D01*
X69179744Y-40072795D01*
X69010226Y-40186063D01*
X68866063Y-40330226D01*
X68752795Y-40499744D01*
X68674774Y-40688102D01*
X68635000Y-40888061D01*
X45024842Y-40888061D01*
X45028599Y-40881034D01*
X45113513Y-40601111D01*
X45142185Y-40310000D01*
X45113513Y-40018889D01*
X45028599Y-39738966D01*
X44890706Y-39480986D01*
X44705134Y-39254866D01*
X44479014Y-39069294D01*
X44221034Y-38931401D01*
X43941111Y-38846487D01*
X43722950Y-38825000D01*
X43277050Y-38825000D01*
X43058889Y-38846487D01*
X42778966Y-38931401D01*
X42520986Y-39069294D01*
X42294866Y-39254866D01*
X42109294Y-39480986D01*
X41971401Y-39738966D01*
X41886487Y-40018889D01*
X41857815Y-40310000D01*
X41300000Y-40310000D01*
X41300000Y-38653847D01*
X50958065Y-38653847D01*
X51006031Y-38933159D01*
X51107566Y-39197747D01*
X51258769Y-39437442D01*
X51453829Y-39643033D01*
X51685250Y-39806619D01*
X51944138Y-39921914D01*
X52050961Y-39941904D01*
X52273000Y-39819915D01*
X52273000Y-38427000D01*
X51118322Y-38427000D01*
X50958065Y-38653847D01*
X41300000Y-38653847D01*
X41300000Y-37946153D01*
X50958065Y-37946153D01*
X51118322Y-38173000D01*
X52273000Y-38173000D01*
X52273000Y-36780085D01*
X52050961Y-36658096D01*
X51944138Y-36678086D01*
X51685250Y-36793381D01*
X51453829Y-36956967D01*
X51258769Y-37162558D01*
X51107566Y-37402253D01*
X51006031Y-37666841D01*
X50958065Y-37946153D01*
X41300000Y-37946153D01*
X41300000Y-33730000D01*
X41861928Y-33730000D01*
X41861928Y-34930000D01*
X41878992Y-35103254D01*
X41929528Y-35269850D01*
X42011595Y-35423386D01*
X42122038Y-35557962D01*
X42256614Y-35668405D01*
X42410150Y-35750472D01*
X42576746Y-35801008D01*
X42750000Y-35818072D01*
X44250000Y-35818072D01*
X44423254Y-35801008D01*
X44589850Y-35750472D01*
X44743386Y-35668405D01*
X44877962Y-35557962D01*
X44988405Y-35423386D01*
X45070472Y-35269850D01*
X45121008Y-35103254D01*
X45138072Y-34930000D01*
X45138072Y-33730000D01*
X45121008Y-33556746D01*
X45070472Y-33390150D01*
X44988405Y-33236614D01*
X44877962Y-33102038D01*
X44743386Y-32991595D01*
X44641407Y-32937086D01*
X44641795Y-32936802D01*
X44838664Y-32722046D01*
X44989854Y-32473009D01*
X45089554Y-32199261D01*
X45091476Y-32186890D01*
X44970155Y-31957000D01*
X43627000Y-31957000D01*
X43627000Y-31977000D01*
X43373000Y-31977000D01*
X43373000Y-31957000D01*
X42029845Y-31957000D01*
X41908524Y-32186890D01*
X41910446Y-32199261D01*
X42010146Y-32473009D01*
X42161336Y-32722046D01*
X42358205Y-32936802D01*
X42358593Y-32937086D01*
X42256614Y-32991595D01*
X42122038Y-33102038D01*
X42011595Y-33236614D01*
X41929528Y-33390150D01*
X41878992Y-33556746D01*
X41861928Y-33730000D01*
X41300000Y-33730000D01*
X41300000Y-31473110D01*
X41908524Y-31473110D01*
X42029845Y-31703000D01*
X43373000Y-31703000D01*
X43373000Y-30502768D01*
X43627000Y-30502768D01*
X43627000Y-31703000D01*
X44970155Y-31703000D01*
X44996094Y-31653847D01*
X50958065Y-31653847D01*
X51006031Y-31933159D01*
X51107566Y-32197747D01*
X51258769Y-32437442D01*
X51453829Y-32643033D01*
X51685250Y-32806619D01*
X51944138Y-32921914D01*
X52050961Y-32941904D01*
X52273000Y-32819915D01*
X52273000Y-31427000D01*
X51118322Y-31427000D01*
X50958065Y-31653847D01*
X44996094Y-31653847D01*
X45091476Y-31473110D01*
X45089554Y-31460739D01*
X44989854Y-31186991D01*
X44843642Y-30946153D01*
X50958065Y-30946153D01*
X51118322Y-31173000D01*
X52273000Y-31173000D01*
X52273000Y-29780085D01*
X52527000Y-29780085D01*
X52527000Y-31173000D01*
X52547000Y-31173000D01*
X52547000Y-31427000D01*
X52527000Y-31427000D01*
X52527000Y-32819915D01*
X52749039Y-32941904D01*
X52855862Y-32921914D01*
X53114750Y-32806619D01*
X53346171Y-32643033D01*
X53541231Y-32437442D01*
X53684095Y-32210967D01*
X53703489Y-32274901D01*
X53818167Y-32489449D01*
X53972498Y-32677502D01*
X54121762Y-32800000D01*
X53972498Y-32922498D01*
X53818167Y-33110551D01*
X53703489Y-33325099D01*
X53632870Y-33557898D01*
X53609025Y-33800000D01*
X53632870Y-34042102D01*
X53703489Y-34274901D01*
X53818167Y-34489449D01*
X53972498Y-34677502D01*
X54121762Y-34800000D01*
X53972498Y-34922498D01*
X53818167Y-35110551D01*
X53703489Y-35325099D01*
X53632870Y-35557898D01*
X53609025Y-35800000D01*
X53632870Y-36042102D01*
X53703489Y-36274901D01*
X53818167Y-36489449D01*
X53972498Y-36677502D01*
X54122348Y-36800481D01*
X54058275Y-36843693D01*
X53886922Y-37016526D01*
X53752579Y-37219467D01*
X53683549Y-37388168D01*
X53541231Y-37162558D01*
X53346171Y-36956967D01*
X53114750Y-36793381D01*
X52855862Y-36678086D01*
X52749039Y-36658096D01*
X52527000Y-36780085D01*
X52527000Y-38173000D01*
X52547000Y-38173000D01*
X52547000Y-38427000D01*
X52527000Y-38427000D01*
X52527000Y-39819915D01*
X52749039Y-39941904D01*
X52855862Y-39921914D01*
X53114750Y-39806619D01*
X53346171Y-39643033D01*
X53541231Y-39437442D01*
X53692434Y-39197747D01*
X53793969Y-38933159D01*
X53841935Y-38653847D01*
X53681679Y-38427002D01*
X53783341Y-38427002D01*
X53886922Y-38583474D01*
X54058275Y-38756307D01*
X54260054Y-38892390D01*
X54484504Y-38986493D01*
X54723000Y-39035000D01*
X55023000Y-39035000D01*
X55023000Y-37927000D01*
X55003000Y-37927000D01*
X55003000Y-37673000D01*
X55023000Y-37673000D01*
X55023000Y-37653000D01*
X55277000Y-37653000D01*
X55277000Y-37673000D01*
X55297000Y-37673000D01*
X55297000Y-37927000D01*
X55277000Y-37927000D01*
X55277000Y-39035000D01*
X55577000Y-39035000D01*
X55815496Y-38986493D01*
X56039946Y-38892390D01*
X56241725Y-38756307D01*
X56413078Y-38583474D01*
X56516659Y-38427002D01*
X56618321Y-38427002D01*
X56458065Y-38653847D01*
X56506031Y-38933159D01*
X56607566Y-39197747D01*
X56758769Y-39437442D01*
X56953829Y-39643033D01*
X57185250Y-39806619D01*
X57444138Y-39921914D01*
X57550961Y-39941904D01*
X57773000Y-39819915D01*
X57773000Y-38427000D01*
X58027000Y-38427000D01*
X58027000Y-39819915D01*
X58249039Y-39941904D01*
X58355862Y-39921914D01*
X58614750Y-39806619D01*
X58846171Y-39643033D01*
X59041231Y-39437442D01*
X59192434Y-39197747D01*
X59293969Y-38933159D01*
X59341935Y-38653847D01*
X59181678Y-38427000D01*
X58027000Y-38427000D01*
X57773000Y-38427000D01*
X57753000Y-38427000D01*
X57753000Y-38173000D01*
X57773000Y-38173000D01*
X57773000Y-36780085D01*
X58027000Y-36780085D01*
X58027000Y-38173000D01*
X59181678Y-38173000D01*
X59341935Y-37946153D01*
X59293969Y-37666841D01*
X59192434Y-37402253D01*
X59041231Y-37162558D01*
X58846171Y-36956967D01*
X58614750Y-36793381D01*
X58355862Y-36678086D01*
X58249039Y-36658096D01*
X58027000Y-36780085D01*
X57773000Y-36780085D01*
X57550961Y-36658096D01*
X57444138Y-36678086D01*
X57185250Y-36793381D01*
X56953829Y-36956967D01*
X56758769Y-37162558D01*
X56616451Y-37388168D01*
X56547421Y-37219467D01*
X56413078Y-37016526D01*
X56241725Y-36843693D01*
X56177652Y-36800481D01*
X56327502Y-36677502D01*
X56481833Y-36489449D01*
X56596511Y-36274901D01*
X56667130Y-36042102D01*
X56690975Y-35800000D01*
X56667130Y-35557898D01*
X56596511Y-35325099D01*
X56481833Y-35110551D01*
X56327502Y-34922498D01*
X56178238Y-34800000D01*
X56327502Y-34677502D01*
X56423933Y-34560000D01*
X61060884Y-34560000D01*
X61838729Y-35337845D01*
X61784774Y-35468102D01*
X61745000Y-35668061D01*
X61745000Y-35871939D01*
X61784774Y-36071898D01*
X61862795Y-36260256D01*
X61976063Y-36429774D01*
X62120226Y-36573937D01*
X62289744Y-36687205D01*
X62478102Y-36765226D01*
X62678061Y-36805000D01*
X62881939Y-36805000D01*
X63081898Y-36765226D01*
X63270256Y-36687205D01*
X63439774Y-36573937D01*
X63583937Y-36429774D01*
X63697205Y-36260256D01*
X63775226Y-36071898D01*
X63793839Y-35978326D01*
X63794463Y-35979494D01*
X63873815Y-36076185D01*
X63970506Y-36155537D01*
X64080820Y-36214502D01*
X64200518Y-36250812D01*
X64325000Y-36263072D01*
X65512624Y-36263072D01*
X65511928Y-36425000D01*
X65524188Y-36549482D01*
X65560498Y-36669180D01*
X65619463Y-36779494D01*
X65698815Y-36876185D01*
X65795506Y-36955537D01*
X65905820Y-37014502D01*
X66025518Y-37050812D01*
X66150000Y-37063072D01*
X66239250Y-37060000D01*
X66398000Y-36901250D01*
X66398000Y-36049603D01*
X66455537Y-35979494D01*
X66514502Y-35869180D01*
X66550812Y-35749482D01*
X66563072Y-35625000D01*
X66563072Y-35278000D01*
X66611928Y-35278000D01*
X66611928Y-36425000D01*
X66624188Y-36549482D01*
X66652000Y-36641166D01*
X66652000Y-36698231D01*
X66614774Y-36788102D01*
X66575000Y-36988061D01*
X66575000Y-37191939D01*
X66614774Y-37391898D01*
X66692795Y-37580256D01*
X66806063Y-37749774D01*
X66950226Y-37893937D01*
X67119744Y-38007205D01*
X67308102Y-38085226D01*
X67508061Y-38125000D01*
X67711939Y-38125000D01*
X67911898Y-38085226D01*
X68100256Y-38007205D01*
X68195000Y-37943899D01*
X68289744Y-38007205D01*
X68478102Y-38085226D01*
X68678061Y-38125000D01*
X68881939Y-38125000D01*
X69081898Y-38085226D01*
X69270256Y-38007205D01*
X69439774Y-37893937D01*
X69583937Y-37749774D01*
X69697205Y-37580256D01*
X69775226Y-37391898D01*
X69815000Y-37191939D01*
X69815000Y-36988061D01*
X69775226Y-36788102D01*
X69704917Y-36618363D01*
X69725812Y-36549482D01*
X69738072Y-36425000D01*
X69738072Y-34425000D01*
X69725812Y-34300518D01*
X69698000Y-34208834D01*
X69698000Y-33948750D01*
X69539250Y-33790000D01*
X69450000Y-33786928D01*
X69325518Y-33799188D01*
X69275000Y-33814512D01*
X69224482Y-33799188D01*
X69100000Y-33786928D01*
X68350000Y-33786928D01*
X68225518Y-33799188D01*
X68175000Y-33814512D01*
X68124482Y-33799188D01*
X68000000Y-33786928D01*
X67250000Y-33786928D01*
X67125518Y-33799188D01*
X67079981Y-33813001D01*
X67115000Y-33636949D01*
X67115000Y-33433071D01*
X67075226Y-33233112D01*
X66997205Y-33044754D01*
X66883937Y-32875236D01*
X66798706Y-32790005D01*
X66883937Y-32704774D01*
X66997205Y-32535256D01*
X67075226Y-32346898D01*
X67115000Y-32146939D01*
X67115000Y-31943061D01*
X67075226Y-31743102D01*
X66997205Y-31554744D01*
X66883937Y-31385226D01*
X66739774Y-31241063D01*
X66570256Y-31127795D01*
X66381898Y-31049774D01*
X66181939Y-31010000D01*
X65978061Y-31010000D01*
X65778102Y-31049774D01*
X65589744Y-31127795D01*
X65420226Y-31241063D01*
X65276063Y-31385226D01*
X65162795Y-31554744D01*
X65084774Y-31743102D01*
X65045000Y-31943061D01*
X65045000Y-32146939D01*
X65084774Y-32346898D01*
X65162795Y-32535256D01*
X65276063Y-32704774D01*
X65361294Y-32790005D01*
X65276063Y-32875236D01*
X65162795Y-33044754D01*
X65084774Y-33233112D01*
X65045000Y-33433071D01*
X65045000Y-33586928D01*
X64325000Y-33586928D01*
X64200518Y-33599188D01*
X64080820Y-33635498D01*
X63970506Y-33694463D01*
X63873815Y-33773815D01*
X63794463Y-33870506D01*
X63735498Y-33980820D01*
X63699188Y-34100518D01*
X63686928Y-34225000D01*
X63686928Y-35264363D01*
X63583937Y-35110226D01*
X63528987Y-35055276D01*
X63485546Y-34912068D01*
X63414974Y-34780039D01*
X63320001Y-34664314D01*
X63291003Y-34640516D01*
X61939489Y-33289003D01*
X61915686Y-33259999D01*
X61799961Y-33165026D01*
X61667932Y-33094454D01*
X61524671Y-33050997D01*
X61413018Y-33040000D01*
X61413007Y-33040000D01*
X61375685Y-33036324D01*
X61338363Y-33040000D01*
X56423933Y-33040000D01*
X56327502Y-32922498D01*
X56178238Y-32800000D01*
X56327502Y-32677502D01*
X56481833Y-32489449D01*
X56596511Y-32274901D01*
X56615905Y-32210967D01*
X56758769Y-32437442D01*
X56953829Y-32643033D01*
X57185250Y-32806619D01*
X57444138Y-32921914D01*
X57550961Y-32941904D01*
X57773000Y-32819915D01*
X57773000Y-31427000D01*
X58027000Y-31427000D01*
X58027000Y-32819915D01*
X58249039Y-32941904D01*
X58355862Y-32921914D01*
X58614750Y-32806619D01*
X58846171Y-32643033D01*
X59041231Y-32437442D01*
X59192434Y-32197747D01*
X59293969Y-31933159D01*
X59341935Y-31653847D01*
X59181678Y-31427000D01*
X58027000Y-31427000D01*
X57773000Y-31427000D01*
X57753000Y-31427000D01*
X57753000Y-31173000D01*
X57773000Y-31173000D01*
X57773000Y-29780085D01*
X58027000Y-29780085D01*
X58027000Y-31173000D01*
X59181678Y-31173000D01*
X59341935Y-30946153D01*
X59293969Y-30666841D01*
X59192434Y-30402253D01*
X59041231Y-30162558D01*
X58846171Y-29956967D01*
X58614750Y-29793381D01*
X58355862Y-29678086D01*
X58249039Y-29658096D01*
X58027000Y-29780085D01*
X57773000Y-29780085D01*
X57550961Y-29658096D01*
X57444138Y-29678086D01*
X57185250Y-29793381D01*
X56953829Y-29956967D01*
X56758769Y-30162558D01*
X56607566Y-30402253D01*
X56506031Y-30666841D01*
X56458065Y-30946153D01*
X56618321Y-31172998D01*
X56515212Y-31172998D01*
X56481833Y-31110551D01*
X56327502Y-30922498D01*
X56139449Y-30768167D01*
X55924901Y-30653489D01*
X55692102Y-30582870D01*
X55510665Y-30565000D01*
X54789335Y-30565000D01*
X54607898Y-30582870D01*
X54375099Y-30653489D01*
X54160551Y-30768167D01*
X53972498Y-30922498D01*
X53818167Y-31110551D01*
X53784788Y-31172998D01*
X53681679Y-31172998D01*
X53841935Y-30946153D01*
X53793969Y-30666841D01*
X53692434Y-30402253D01*
X53541231Y-30162558D01*
X53346171Y-29956967D01*
X53114750Y-29793381D01*
X52855862Y-29678086D01*
X52749039Y-29658096D01*
X52527000Y-29780085D01*
X52273000Y-29780085D01*
X52050961Y-29658096D01*
X51944138Y-29678086D01*
X51685250Y-29793381D01*
X51453829Y-29956967D01*
X51258769Y-30162558D01*
X51107566Y-30402253D01*
X51006031Y-30666841D01*
X50958065Y-30946153D01*
X44843642Y-30946153D01*
X44838664Y-30937954D01*
X44641795Y-30723198D01*
X44406812Y-30550975D01*
X44142745Y-30427904D01*
X43859742Y-30358715D01*
X43627000Y-30502768D01*
X43373000Y-30502768D01*
X43140258Y-30358715D01*
X42857255Y-30427904D01*
X42593188Y-30550975D01*
X42358205Y-30723198D01*
X42161336Y-30937954D01*
X42010146Y-31186991D01*
X41910446Y-31460739D01*
X41908524Y-31473110D01*
X41300000Y-31473110D01*
X41300000Y-28100881D01*
X43198724Y-28100881D01*
X43558912Y-28590548D01*
X44222882Y-28950849D01*
X44944385Y-29174694D01*
X45695695Y-29253480D01*
X46447938Y-29184178D01*
X47172208Y-28969452D01*
X47840670Y-28617555D01*
X47881088Y-28590548D01*
X48241276Y-28100881D01*
X45720000Y-25579605D01*
X43198724Y-28100881D01*
X41300000Y-28100881D01*
X41300000Y-25375695D01*
X41866520Y-25375695D01*
X41935822Y-26127938D01*
X42150548Y-26852208D01*
X42502445Y-27520670D01*
X42529452Y-27561088D01*
X43019119Y-27921276D01*
X45540395Y-25400000D01*
X45899605Y-25400000D01*
X48420881Y-27921276D01*
X48910548Y-27561088D01*
X49140677Y-27137000D01*
X67295000Y-27137000D01*
X67295000Y-27412000D01*
X67345908Y-27674883D01*
X67447124Y-27922783D01*
X67594758Y-28146173D01*
X67783137Y-28336469D01*
X68005021Y-28486357D01*
X68251883Y-28590078D01*
X68317742Y-28602519D01*
X68528000Y-28479518D01*
X68528000Y-27137000D01*
X68782000Y-27137000D01*
X68782000Y-28479518D01*
X68992258Y-28602519D01*
X69058117Y-28590078D01*
X69304979Y-28486357D01*
X69526863Y-28336469D01*
X69715242Y-28146173D01*
X69862876Y-27922783D01*
X69964092Y-27674883D01*
X70015000Y-27412000D01*
X70015000Y-27137000D01*
X74745000Y-27137000D01*
X74745000Y-27412000D01*
X74795908Y-27674883D01*
X74897124Y-27922783D01*
X75044758Y-28146173D01*
X75233137Y-28336469D01*
X75455021Y-28486357D01*
X75701883Y-28590078D01*
X75767742Y-28602519D01*
X75978000Y-28479518D01*
X75978000Y-27137000D01*
X76232000Y-27137000D01*
X76232000Y-28479518D01*
X76442258Y-28602519D01*
X76508117Y-28590078D01*
X76754979Y-28486357D01*
X76976863Y-28336469D01*
X77165242Y-28146173D01*
X77195174Y-28100881D01*
X81438724Y-28100881D01*
X81798912Y-28590548D01*
X82462882Y-28950849D01*
X83184385Y-29174694D01*
X83935695Y-29253480D01*
X84687938Y-29184178D01*
X85412208Y-28969452D01*
X86080670Y-28617555D01*
X86121088Y-28590548D01*
X86481276Y-28100881D01*
X83960000Y-25579605D01*
X81438724Y-28100881D01*
X77195174Y-28100881D01*
X77312876Y-27922783D01*
X77414092Y-27674883D01*
X77465000Y-27412000D01*
X77465000Y-27137000D01*
X76232000Y-27137000D01*
X75978000Y-27137000D01*
X74745000Y-27137000D01*
X70015000Y-27137000D01*
X68782000Y-27137000D01*
X68528000Y-27137000D01*
X67295000Y-27137000D01*
X49140677Y-27137000D01*
X49270849Y-26897118D01*
X49494694Y-26175615D01*
X49573480Y-25424305D01*
X49504178Y-24672062D01*
X49371637Y-24225000D01*
X64086928Y-24225000D01*
X64086928Y-26425000D01*
X64099188Y-26549482D01*
X64135498Y-26669180D01*
X64194463Y-26779494D01*
X64273815Y-26876185D01*
X64370506Y-26955537D01*
X64480820Y-27014502D01*
X64600518Y-27050812D01*
X64725000Y-27063072D01*
X65925000Y-27063072D01*
X66049482Y-27050812D01*
X66169180Y-27014502D01*
X66279494Y-26955537D01*
X66376185Y-26876185D01*
X66455537Y-26779494D01*
X66514502Y-26669180D01*
X66550812Y-26549482D01*
X66563072Y-26425000D01*
X66563072Y-24820599D01*
X67065000Y-24820599D01*
X67065000Y-25029401D01*
X67105735Y-25234191D01*
X67185640Y-25427098D01*
X67301644Y-25600711D01*
X67449289Y-25748356D01*
X67611603Y-25856810D01*
X67594758Y-25873827D01*
X67447124Y-26097217D01*
X67345908Y-26345117D01*
X67295000Y-26608000D01*
X67295000Y-26883000D01*
X68528000Y-26883000D01*
X68528000Y-26863000D01*
X68782000Y-26863000D01*
X68782000Y-26883000D01*
X69411211Y-26883000D01*
X69482007Y-26920841D01*
X69677105Y-26980024D01*
X69829162Y-26995000D01*
X69930838Y-26995000D01*
X70082895Y-26980024D01*
X70277993Y-26920841D01*
X70457797Y-26824734D01*
X70615396Y-26695396D01*
X70744734Y-26537797D01*
X70840841Y-26357993D01*
X70900024Y-26162895D01*
X70920007Y-25960000D01*
X73839993Y-25960000D01*
X73859976Y-26162895D01*
X73919159Y-26357993D01*
X74015266Y-26537797D01*
X74144604Y-26695396D01*
X74302203Y-26824734D01*
X74482007Y-26920841D01*
X74677105Y-26980024D01*
X74829162Y-26995000D01*
X74930838Y-26995000D01*
X75082895Y-26980024D01*
X75277993Y-26920841D01*
X75348789Y-26883000D01*
X75978000Y-26883000D01*
X75978000Y-26863000D01*
X76232000Y-26863000D01*
X76232000Y-26883000D01*
X77465000Y-26883000D01*
X77465000Y-26608000D01*
X77414092Y-26345117D01*
X77312876Y-26097217D01*
X77165242Y-25873827D01*
X76976863Y-25683531D01*
X76910420Y-25638647D01*
X76948356Y-25600711D01*
X77064360Y-25427098D01*
X77144265Y-25234191D01*
X77185000Y-25029401D01*
X77185000Y-24820599D01*
X77144265Y-24615809D01*
X77068620Y-24433187D01*
X77190521Y-24312837D01*
X77250028Y-24225000D01*
X79586928Y-24225000D01*
X79586928Y-26425000D01*
X79599188Y-26549482D01*
X79635498Y-26669180D01*
X79694463Y-26779494D01*
X79773815Y-26876185D01*
X79870506Y-26955537D01*
X79980820Y-27014502D01*
X80100518Y-27050812D01*
X80225000Y-27063072D01*
X80501553Y-27063072D01*
X80742445Y-27520670D01*
X80769452Y-27561088D01*
X81259119Y-27921276D01*
X83780395Y-25400000D01*
X84139605Y-25400000D01*
X86660881Y-27921276D01*
X87150548Y-27561088D01*
X87510849Y-26897118D01*
X87734694Y-26175615D01*
X87813480Y-25424305D01*
X87744178Y-24672062D01*
X87529452Y-23947792D01*
X87177555Y-23279330D01*
X87150548Y-23238912D01*
X86660881Y-22878724D01*
X84139605Y-25400000D01*
X83780395Y-25400000D01*
X81259119Y-22878724D01*
X80769452Y-23238912D01*
X80580602Y-23586928D01*
X80225000Y-23586928D01*
X80100518Y-23599188D01*
X79980820Y-23635498D01*
X79870506Y-23694463D01*
X79773815Y-23773815D01*
X79694463Y-23870506D01*
X79635498Y-23980820D01*
X79599188Y-24100518D01*
X79586928Y-24225000D01*
X77250028Y-24225000D01*
X77324294Y-24115380D01*
X77416974Y-23895619D01*
X77465000Y-23662000D01*
X77465000Y-23337000D01*
X76382000Y-23337000D01*
X76382000Y-23357000D01*
X76128000Y-23357000D01*
X76128000Y-23337000D01*
X75045000Y-23337000D01*
X75045000Y-23662000D01*
X75093026Y-23895619D01*
X75185706Y-24115380D01*
X75289122Y-24268029D01*
X75185640Y-24422902D01*
X75105735Y-24615809D01*
X75065000Y-24820599D01*
X75065000Y-24938214D01*
X74930838Y-24925000D01*
X74829162Y-24925000D01*
X74677105Y-24939976D01*
X74482007Y-24999159D01*
X74302203Y-25095266D01*
X74144604Y-25224604D01*
X74015266Y-25382203D01*
X73919159Y-25562007D01*
X73859976Y-25757105D01*
X73839993Y-25960000D01*
X70920007Y-25960000D01*
X70900024Y-25757105D01*
X70840841Y-25562007D01*
X70744734Y-25382203D01*
X70615396Y-25224604D01*
X70457797Y-25095266D01*
X70277993Y-24999159D01*
X70082895Y-24939976D01*
X69930838Y-24925000D01*
X69829162Y-24925000D01*
X69677105Y-24939976D01*
X69482007Y-24999159D01*
X69302203Y-25095266D01*
X69146478Y-25223066D01*
X69185000Y-25029401D01*
X69185000Y-24820599D01*
X69144265Y-24615809D01*
X69127335Y-24574938D01*
X69270797Y-24480402D01*
X69440521Y-24312837D01*
X69574294Y-24115380D01*
X69666974Y-23895619D01*
X69715000Y-23662000D01*
X69715000Y-23337000D01*
X68632000Y-23337000D01*
X68632000Y-23357000D01*
X68378000Y-23357000D01*
X68378000Y-23337000D01*
X67295000Y-23337000D01*
X67295000Y-23662000D01*
X67343026Y-23895619D01*
X67435661Y-24115272D01*
X67301644Y-24249289D01*
X67185640Y-24422902D01*
X67105735Y-24615809D01*
X67065000Y-24820599D01*
X66563072Y-24820599D01*
X66563072Y-24225000D01*
X66550812Y-24100518D01*
X66514502Y-23980820D01*
X66455537Y-23870506D01*
X66376185Y-23773815D01*
X66279494Y-23694463D01*
X66169180Y-23635498D01*
X66049482Y-23599188D01*
X65925000Y-23586928D01*
X64725000Y-23586928D01*
X64600518Y-23599188D01*
X64480820Y-23635498D01*
X64370506Y-23694463D01*
X64273815Y-23773815D01*
X64194463Y-23870506D01*
X64135498Y-23980820D01*
X64099188Y-24100518D01*
X64086928Y-24225000D01*
X49371637Y-24225000D01*
X49289452Y-23947792D01*
X48937555Y-23279330D01*
X48910548Y-23238912D01*
X48420881Y-22878724D01*
X45899605Y-25400000D01*
X45540395Y-25400000D01*
X43019119Y-22878724D01*
X42529452Y-23238912D01*
X42169151Y-23902882D01*
X41945306Y-24624385D01*
X41866520Y-25375695D01*
X41300000Y-25375695D01*
X41300000Y-24162279D01*
X41363096Y-23518778D01*
X41540606Y-22930836D01*
X41663812Y-22699119D01*
X43198724Y-22699119D01*
X45720000Y-25220395D01*
X48182395Y-22758000D01*
X67295000Y-22758000D01*
X67295000Y-23083000D01*
X68378000Y-23083000D01*
X68378000Y-21841450D01*
X68632000Y-21841450D01*
X68632000Y-23083000D01*
X69715000Y-23083000D01*
X69715000Y-22758000D01*
X75045000Y-22758000D01*
X75045000Y-23083000D01*
X76128000Y-23083000D01*
X76128000Y-21841450D01*
X76382000Y-21841450D01*
X76382000Y-23083000D01*
X77465000Y-23083000D01*
X77465000Y-22758000D01*
X77452896Y-22699119D01*
X81438724Y-22699119D01*
X83960000Y-25220395D01*
X86481276Y-22699119D01*
X86121088Y-22209452D01*
X85457118Y-21849151D01*
X84735615Y-21625306D01*
X83984305Y-21546520D01*
X83232062Y-21615822D01*
X82507792Y-21830548D01*
X81839330Y-22182445D01*
X81798912Y-22209452D01*
X81438724Y-22699119D01*
X77452896Y-22699119D01*
X77416974Y-22524381D01*
X77324294Y-22304620D01*
X77190521Y-22107163D01*
X77020797Y-21939598D01*
X76821644Y-21808364D01*
X76600715Y-21718504D01*
X76568677Y-21716365D01*
X76382000Y-21841450D01*
X76128000Y-21841450D01*
X75941323Y-21716365D01*
X75909285Y-21718504D01*
X75688356Y-21808364D01*
X75489203Y-21939598D01*
X75319479Y-22107163D01*
X75185706Y-22304620D01*
X75093026Y-22524381D01*
X75045000Y-22758000D01*
X69715000Y-22758000D01*
X69666974Y-22524381D01*
X69574294Y-22304620D01*
X69440521Y-22107163D01*
X69270797Y-21939598D01*
X69071644Y-21808364D01*
X68850715Y-21718504D01*
X68818677Y-21716365D01*
X68632000Y-21841450D01*
X68378000Y-21841450D01*
X68191323Y-21716365D01*
X68159285Y-21718504D01*
X67938356Y-21808364D01*
X67739203Y-21939598D01*
X67569479Y-22107163D01*
X67435706Y-22304620D01*
X67343026Y-22524381D01*
X67295000Y-22758000D01*
X48182395Y-22758000D01*
X48241276Y-22699119D01*
X47881088Y-22209452D01*
X47217118Y-21849151D01*
X46495615Y-21625306D01*
X45744305Y-21546520D01*
X44992062Y-21615822D01*
X44267792Y-21830548D01*
X43599330Y-22182445D01*
X43558912Y-22209452D01*
X43198724Y-22699119D01*
X41663812Y-22699119D01*
X41828937Y-22388564D01*
X42217094Y-21912636D01*
X42690314Y-21521155D01*
X43230552Y-21229049D01*
X43817244Y-21047437D01*
X44458879Y-20980000D01*
X85057721Y-20980000D01*
X85701222Y-21043096D01*
X85701222Y-21043096D01*
G37*
X85701222Y-21043096D02*
X86289164Y-21220606D01*
X86831436Y-21508937D01*
X87307364Y-21897094D01*
X87698845Y-22370314D01*
X87990951Y-22910552D01*
X88172563Y-23497244D01*
X88240001Y-24138888D01*
X88240000Y-95217721D01*
X88176904Y-95861221D01*
X87999394Y-96449164D01*
X87711063Y-96991436D01*
X87322906Y-97467364D01*
X86849686Y-97858845D01*
X86309449Y-98150950D01*
X85722756Y-98332563D01*
X85081130Y-98400000D01*
X44482279Y-98400000D01*
X43838779Y-98336904D01*
X43250836Y-98159394D01*
X42708564Y-97871063D01*
X42232636Y-97482906D01*
X41841155Y-97009686D01*
X41576383Y-96520000D01*
X44227815Y-96520000D01*
X44256487Y-96811111D01*
X44341401Y-97091034D01*
X44479294Y-97349014D01*
X44664866Y-97575134D01*
X44890986Y-97760706D01*
X45148966Y-97898599D01*
X45428889Y-97983513D01*
X45647050Y-98005000D01*
X45792950Y-98005000D01*
X46011111Y-97983513D01*
X46291034Y-97898599D01*
X46549014Y-97760706D01*
X46775134Y-97575134D01*
X46960706Y-97349014D01*
X46990000Y-97294209D01*
X47019294Y-97349014D01*
X47204866Y-97575134D01*
X47430986Y-97760706D01*
X47688966Y-97898599D01*
X47968889Y-97983513D01*
X48187050Y-98005000D01*
X48332950Y-98005000D01*
X48551111Y-97983513D01*
X48831034Y-97898599D01*
X49089014Y-97760706D01*
X49315134Y-97575134D01*
X49500706Y-97349014D01*
X49530000Y-97294209D01*
X49559294Y-97349014D01*
X49744866Y-97575134D01*
X49970986Y-97760706D01*
X50228966Y-97898599D01*
X50508889Y-97983513D01*
X50727050Y-98005000D01*
X50872950Y-98005000D01*
X51091111Y-97983513D01*
X51371034Y-97898599D01*
X51629014Y-97760706D01*
X51855134Y-97575134D01*
X52040706Y-97349014D01*
X52070000Y-97294209D01*
X52099294Y-97349014D01*
X52284866Y-97575134D01*
X52510986Y-97760706D01*
X52768966Y-97898599D01*
X53048889Y-97983513D01*
X53267050Y-98005000D01*
X53412950Y-98005000D01*
X53631111Y-97983513D01*
X53911034Y-97898599D01*
X54169014Y-97760706D01*
X54395134Y-97575134D01*
X54580706Y-97349014D01*
X54610000Y-97294209D01*
X54639294Y-97349014D01*
X54824866Y-97575134D01*
X55050986Y-97760706D01*
X55308966Y-97898599D01*
X55588889Y-97983513D01*
X55807050Y-98005000D01*
X55952950Y-98005000D01*
X56171111Y-97983513D01*
X56451034Y-97898599D01*
X56709014Y-97760706D01*
X56935134Y-97575134D01*
X57120706Y-97349014D01*
X57150000Y-97294209D01*
X57179294Y-97349014D01*
X57364866Y-97575134D01*
X57590986Y-97760706D01*
X57848966Y-97898599D01*
X58128889Y-97983513D01*
X58347050Y-98005000D01*
X58492950Y-98005000D01*
X58711111Y-97983513D01*
X58991034Y-97898599D01*
X59249014Y-97760706D01*
X59475134Y-97575134D01*
X59660706Y-97349014D01*
X59690000Y-97294209D01*
X59719294Y-97349014D01*
X59904866Y-97575134D01*
X60130986Y-97760706D01*
X60388966Y-97898599D01*
X60668889Y-97983513D01*
X60887050Y-98005000D01*
X61032950Y-98005000D01*
X61251111Y-97983513D01*
X61531034Y-97898599D01*
X61789014Y-97760706D01*
X62015134Y-97575134D01*
X62200706Y-97349014D01*
X62230000Y-97294209D01*
X62259294Y-97349014D01*
X62444866Y-97575134D01*
X62670986Y-97760706D01*
X62928966Y-97898599D01*
X63208889Y-97983513D01*
X63427050Y-98005000D01*
X63572950Y-98005000D01*
X63791111Y-97983513D01*
X64071034Y-97898599D01*
X64329014Y-97760706D01*
X64555134Y-97575134D01*
X64740706Y-97349014D01*
X64770000Y-97294209D01*
X64799294Y-97349014D01*
X64984866Y-97575134D01*
X65210986Y-97760706D01*
X65468966Y-97898599D01*
X65748889Y-97983513D01*
X65967050Y-98005000D01*
X66112950Y-98005000D01*
X66331111Y-97983513D01*
X66611034Y-97898599D01*
X66869014Y-97760706D01*
X67095134Y-97575134D01*
X67280706Y-97349014D01*
X67310000Y-97294209D01*
X67339294Y-97349014D01*
X67524866Y-97575134D01*
X67750986Y-97760706D01*
X68008966Y-97898599D01*
X68288889Y-97983513D01*
X68507050Y-98005000D01*
X68652950Y-98005000D01*
X68871111Y-97983513D01*
X69151034Y-97898599D01*
X69409014Y-97760706D01*
X69635134Y-97575134D01*
X69820706Y-97349014D01*
X69850000Y-97294209D01*
X69879294Y-97349014D01*
X70064866Y-97575134D01*
X70290986Y-97760706D01*
X70548966Y-97898599D01*
X70828889Y-97983513D01*
X71047050Y-98005000D01*
X71192950Y-98005000D01*
X71411111Y-97983513D01*
X71691034Y-97898599D01*
X71949014Y-97760706D01*
X72175134Y-97575134D01*
X72360706Y-97349014D01*
X72390000Y-97294209D01*
X72419294Y-97349014D01*
X72604866Y-97575134D01*
X72830986Y-97760706D01*
X73088966Y-97898599D01*
X73368889Y-97983513D01*
X73587050Y-98005000D01*
X73732950Y-98005000D01*
X73951111Y-97983513D01*
X74231034Y-97898599D01*
X74489014Y-97760706D01*
X74715134Y-97575134D01*
X74900706Y-97349014D01*
X74930000Y-97294209D01*
X74959294Y-97349014D01*
X75144866Y-97575134D01*
X75370986Y-97760706D01*
X75628966Y-97898599D01*
X75908889Y-97983513D01*
X76127050Y-98005000D01*
X76272950Y-98005000D01*
X76491111Y-97983513D01*
X76771034Y-97898599D01*
X77029014Y-97760706D01*
X77255134Y-97575134D01*
X77440706Y-97349014D01*
X77470000Y-97294209D01*
X77499294Y-97349014D01*
X77684866Y-97575134D01*
X77910986Y-97760706D01*
X78168966Y-97898599D01*
X78448889Y-97983513D01*
X78667050Y-98005000D01*
X78812950Y-98005000D01*
X79031111Y-97983513D01*
X79311034Y-97898599D01*
X79569014Y-97760706D01*
X79795134Y-97575134D01*
X79980706Y-97349014D01*
X80010000Y-97294209D01*
X80039294Y-97349014D01*
X80224866Y-97575134D01*
X80450986Y-97760706D01*
X80708966Y-97898599D01*
X80988889Y-97983513D01*
X81207050Y-98005000D01*
X81352950Y-98005000D01*
X81571111Y-97983513D01*
X81851034Y-97898599D01*
X82109014Y-97760706D01*
X82335134Y-97575134D01*
X82520706Y-97349014D01*
X82550000Y-97294209D01*
X82579294Y-97349014D01*
X82764866Y-97575134D01*
X82990986Y-97760706D01*
X83248966Y-97898599D01*
X83528889Y-97983513D01*
X83747050Y-98005000D01*
X83892950Y-98005000D01*
X84111111Y-97983513D01*
X84391034Y-97898599D01*
X84649014Y-97760706D01*
X84875134Y-97575134D01*
X85060706Y-97349014D01*
X85198599Y-97091034D01*
X85283513Y-96811111D01*
X85312185Y-96520000D01*
X85283513Y-96228889D01*
X85198599Y-95948966D01*
X85060706Y-95690986D01*
X84875134Y-95464866D01*
X84649014Y-95279294D01*
X84594209Y-95250000D01*
X84649014Y-95220706D01*
X84875134Y-95035134D01*
X85060706Y-94809014D01*
X85198599Y-94551034D01*
X85283513Y-94271111D01*
X85312185Y-93980000D01*
X85283513Y-93688889D01*
X85198599Y-93408966D01*
X85060706Y-93150986D01*
X84875134Y-92924866D01*
X84649014Y-92739294D01*
X84391034Y-92601401D01*
X84111111Y-92516487D01*
X83892950Y-92495000D01*
X83747050Y-92495000D01*
X83528889Y-92516487D01*
X83248966Y-92601401D01*
X82990986Y-92739294D01*
X82764866Y-92924866D01*
X82579294Y-93150986D01*
X82550000Y-93205791D01*
X82520706Y-93150986D01*
X82335134Y-92924866D01*
X82109014Y-92739294D01*
X81851034Y-92601401D01*
X81571111Y-92516487D01*
X81352950Y-92495000D01*
X81207050Y-92495000D01*
X80988889Y-92516487D01*
X80708966Y-92601401D01*
X80450986Y-92739294D01*
X80224866Y-92924866D01*
X80039294Y-93150986D01*
X80010000Y-93205791D01*
X79980706Y-93150986D01*
X79795134Y-92924866D01*
X79569014Y-92739294D01*
X79311034Y-92601401D01*
X79031111Y-92516487D01*
X78812950Y-92495000D01*
X78667050Y-92495000D01*
X78448889Y-92516487D01*
X78168966Y-92601401D01*
X77910986Y-92739294D01*
X77684866Y-92924866D01*
X77499294Y-93150986D01*
X77470000Y-93205791D01*
X77440706Y-93150986D01*
X77255134Y-92924866D01*
X77029014Y-92739294D01*
X76771034Y-92601401D01*
X76491111Y-92516487D01*
X76272950Y-92495000D01*
X76127050Y-92495000D01*
X75908889Y-92516487D01*
X75628966Y-92601401D01*
X75370986Y-92739294D01*
X75144866Y-92924866D01*
X74959294Y-93150986D01*
X74930000Y-93205791D01*
X74900706Y-93150986D01*
X74715134Y-92924866D01*
X74489014Y-92739294D01*
X74231034Y-92601401D01*
X73951111Y-92516487D01*
X73732950Y-92495000D01*
X73587050Y-92495000D01*
X73368889Y-92516487D01*
X73088966Y-92601401D01*
X72830986Y-92739294D01*
X72604866Y-92924866D01*
X72419294Y-93150986D01*
X72390000Y-93205791D01*
X72360706Y-93150986D01*
X72175134Y-92924866D01*
X71949014Y-92739294D01*
X71691034Y-92601401D01*
X71411111Y-92516487D01*
X71192950Y-92495000D01*
X71047050Y-92495000D01*
X70828889Y-92516487D01*
X70548966Y-92601401D01*
X70290986Y-92739294D01*
X70064866Y-92924866D01*
X69879294Y-93150986D01*
X69850000Y-93205791D01*
X69820706Y-93150986D01*
X69635134Y-92924866D01*
X69409014Y-92739294D01*
X69151034Y-92601401D01*
X68871111Y-92516487D01*
X68652950Y-92495000D01*
X68507050Y-92495000D01*
X68288889Y-92516487D01*
X68008966Y-92601401D01*
X67750986Y-92739294D01*
X67524866Y-92924866D01*
X67339294Y-93150986D01*
X67310000Y-93205791D01*
X67280706Y-93150986D01*
X67095134Y-92924866D01*
X66869014Y-92739294D01*
X66611034Y-92601401D01*
X66331111Y-92516487D01*
X66112950Y-92495000D01*
X65967050Y-92495000D01*
X65748889Y-92516487D01*
X65468966Y-92601401D01*
X65210986Y-92739294D01*
X64984866Y-92924866D01*
X64799294Y-93150986D01*
X64770000Y-93205791D01*
X64740706Y-93150986D01*
X64555134Y-92924866D01*
X64329014Y-92739294D01*
X64071034Y-92601401D01*
X63791111Y-92516487D01*
X63572950Y-92495000D01*
X63427050Y-92495000D01*
X63208889Y-92516487D01*
X62928966Y-92601401D01*
X62670986Y-92739294D01*
X62444866Y-92924866D01*
X62259294Y-93150986D01*
X62230000Y-93205791D01*
X62200706Y-93150986D01*
X62015134Y-92924866D01*
X61789014Y-92739294D01*
X61531034Y-92601401D01*
X61251111Y-92516487D01*
X61032950Y-92495000D01*
X60887050Y-92495000D01*
X60668889Y-92516487D01*
X60388966Y-92601401D01*
X60130986Y-92739294D01*
X59904866Y-92924866D01*
X59719294Y-93150986D01*
X59690000Y-93205791D01*
X59660706Y-93150986D01*
X59475134Y-92924866D01*
X59249014Y-92739294D01*
X58991034Y-92601401D01*
X58711111Y-92516487D01*
X58492950Y-92495000D01*
X58347050Y-92495000D01*
X58128889Y-92516487D01*
X57848966Y-92601401D01*
X57590986Y-92739294D01*
X57364866Y-92924866D01*
X57179294Y-93150986D01*
X57150000Y-93205791D01*
X57120706Y-93150986D01*
X56935134Y-92924866D01*
X56709014Y-92739294D01*
X56451034Y-92601401D01*
X56171111Y-92516487D01*
X55952950Y-92495000D01*
X55807050Y-92495000D01*
X55588889Y-92516487D01*
X55308966Y-92601401D01*
X55050986Y-92739294D01*
X54824866Y-92924866D01*
X54639294Y-93150986D01*
X54610000Y-93205791D01*
X54580706Y-93150986D01*
X54395134Y-92924866D01*
X54169014Y-92739294D01*
X53911034Y-92601401D01*
X53631111Y-92516487D01*
X53412950Y-92495000D01*
X53267050Y-92495000D01*
X53048889Y-92516487D01*
X52768966Y-92601401D01*
X52510986Y-92739294D01*
X52284866Y-92924866D01*
X52099294Y-93150986D01*
X52070000Y-93205791D01*
X52040706Y-93150986D01*
X51855134Y-92924866D01*
X51629014Y-92739294D01*
X51371034Y-92601401D01*
X51091111Y-92516487D01*
X50872950Y-92495000D01*
X50727050Y-92495000D01*
X50508889Y-92516487D01*
X50228966Y-92601401D01*
X49970986Y-92739294D01*
X49744866Y-92924866D01*
X49559294Y-93150986D01*
X49530000Y-93205791D01*
X49500706Y-93150986D01*
X49315134Y-92924866D01*
X49089014Y-92739294D01*
X48831034Y-92601401D01*
X48551111Y-92516487D01*
X48332950Y-92495000D01*
X48187050Y-92495000D01*
X47968889Y-92516487D01*
X47688966Y-92601401D01*
X47430986Y-92739294D01*
X47204866Y-92924866D01*
X47180393Y-92954687D01*
X47159502Y-92885820D01*
X47100537Y-92775506D01*
X47021185Y-92678815D01*
X46924494Y-92599463D01*
X46814180Y-92540498D01*
X46694482Y-92504188D01*
X46570000Y-92491928D01*
X46005750Y-92495000D01*
X45847000Y-92653750D01*
X45847000Y-93853000D01*
X45867000Y-93853000D01*
X45867000Y-94107000D01*
X45847000Y-94107000D01*
X45847000Y-94127000D01*
X45593000Y-94127000D01*
X45593000Y-94107000D01*
X44393750Y-94107000D01*
X44235000Y-94265750D01*
X44231928Y-94830000D01*
X44244188Y-94954482D01*
X44280498Y-95074180D01*
X44339463Y-95184494D01*
X44418815Y-95281185D01*
X44515506Y-95360537D01*
X44625820Y-95419502D01*
X44694687Y-95440393D01*
X44664866Y-95464866D01*
X44479294Y-95690986D01*
X44341401Y-95948966D01*
X44256487Y-96228889D01*
X44227815Y-96520000D01*
X41576383Y-96520000D01*
X41549050Y-96469449D01*
X41367437Y-95882756D01*
X41300000Y-95241130D01*
X41300000Y-93130000D01*
X44231928Y-93130000D01*
X44235000Y-93694250D01*
X44393750Y-93853000D01*
X45593000Y-93853000D01*
X45593000Y-92653750D01*
X45434250Y-92495000D01*
X44870000Y-92491928D01*
X44745518Y-92504188D01*
X44625820Y-92540498D01*
X44515506Y-92599463D01*
X44418815Y-92678815D01*
X44339463Y-92775506D01*
X44280498Y-92885820D01*
X44244188Y-93005518D01*
X44231928Y-93130000D01*
X41300000Y-93130000D01*
X41300000Y-86812796D01*
X41352796Y-86940256D01*
X41466064Y-87109774D01*
X41610227Y-87253937D01*
X41779745Y-87367205D01*
X41968103Y-87445226D01*
X42168062Y-87485000D01*
X42371940Y-87485000D01*
X42571899Y-87445226D01*
X42760257Y-87367205D01*
X42929775Y-87253937D01*
X43063712Y-87120000D01*
X52046289Y-87120000D01*
X52140226Y-87213937D01*
X52309744Y-87327205D01*
X52498102Y-87405226D01*
X52698061Y-87445000D01*
X52901939Y-87445000D01*
X53101898Y-87405226D01*
X53290256Y-87327205D01*
X53459774Y-87213937D01*
X53603937Y-87069774D01*
X53717205Y-86900256D01*
X53795226Y-86711898D01*
X53835000Y-86511939D01*
X53835000Y-86338061D01*
X60065000Y-86338061D01*
X60065000Y-86541939D01*
X60104774Y-86741898D01*
X60182795Y-86930256D01*
X60296063Y-87099774D01*
X60440226Y-87243937D01*
X60609744Y-87357205D01*
X60798102Y-87435226D01*
X60998061Y-87475000D01*
X61201939Y-87475000D01*
X61401898Y-87435226D01*
X61590256Y-87357205D01*
X61759774Y-87243937D01*
X61863711Y-87140000D01*
X64776289Y-87140000D01*
X64880226Y-87243937D01*
X65049744Y-87357205D01*
X65238102Y-87435226D01*
X65438061Y-87475000D01*
X65641939Y-87475000D01*
X65841898Y-87435226D01*
X66030256Y-87357205D01*
X66199774Y-87243937D01*
X66343937Y-87099774D01*
X66457205Y-86930256D01*
X66535226Y-86741898D01*
X66575000Y-86541939D01*
X66575000Y-86338061D01*
X66535226Y-86138102D01*
X66457205Y-85949744D01*
X66343937Y-85780226D01*
X66199774Y-85636063D01*
X66030256Y-85522795D01*
X65841898Y-85444774D01*
X65641939Y-85405000D01*
X65438061Y-85405000D01*
X65238102Y-85444774D01*
X65049744Y-85522795D01*
X64880226Y-85636063D01*
X64776289Y-85740000D01*
X61863711Y-85740000D01*
X61759774Y-85636063D01*
X61590256Y-85522795D01*
X61401898Y-85444774D01*
X61201939Y-85405000D01*
X60998061Y-85405000D01*
X60798102Y-85444774D01*
X60609744Y-85522795D01*
X60440226Y-85636063D01*
X60296063Y-85780226D01*
X60182795Y-85949744D01*
X60104774Y-86138102D01*
X60065000Y-86338061D01*
X53835000Y-86338061D01*
X53835000Y-86308061D01*
X53795226Y-86108102D01*
X53717205Y-85919744D01*
X53603937Y-85750226D01*
X53459774Y-85606063D01*
X53290256Y-85492795D01*
X53101898Y-85414774D01*
X52901939Y-85375000D01*
X52698061Y-85375000D01*
X52498102Y-85414774D01*
X52309744Y-85492795D01*
X52140226Y-85606063D01*
X52046289Y-85700000D01*
X42983712Y-85700000D01*
X42929775Y-85646063D01*
X42760257Y-85532795D01*
X42571899Y-85454774D01*
X42371940Y-85415000D01*
X42168062Y-85415000D01*
X41968103Y-85454774D01*
X41779745Y-85532795D01*
X41610227Y-85646063D01*
X41466064Y-85790226D01*
X41352796Y-85959744D01*
X41300000Y-86087204D01*
X41300000Y-80198061D01*
X73685000Y-80198061D01*
X73685000Y-80401939D01*
X73724774Y-80601898D01*
X73802795Y-80790256D01*
X73916063Y-80959774D01*
X74060226Y-81103937D01*
X74229744Y-81217205D01*
X74418102Y-81295226D01*
X74618061Y-81335000D01*
X74821939Y-81335000D01*
X75021898Y-81295226D01*
X75210256Y-81217205D01*
X75379774Y-81103937D01*
X75463711Y-81020000D01*
X79641767Y-81020000D01*
X79955000Y-81333233D01*
X79955000Y-81451939D01*
X79994774Y-81651898D01*
X80072795Y-81840256D01*
X80186063Y-82009774D01*
X80330226Y-82153937D01*
X80499744Y-82267205D01*
X80688102Y-82345226D01*
X80888061Y-82385000D01*
X81091939Y-82385000D01*
X81291898Y-82345226D01*
X81480256Y-82267205D01*
X81649774Y-82153937D01*
X81793937Y-82009774D01*
X81907205Y-81840256D01*
X81985226Y-81651898D01*
X82025000Y-81451939D01*
X82025000Y-81248061D01*
X81985226Y-81048102D01*
X81907205Y-80859744D01*
X81793937Y-80690226D01*
X81656619Y-80552908D01*
X81789774Y-80463937D01*
X81933937Y-80319774D01*
X82047205Y-80150256D01*
X82125226Y-79961898D01*
X82165000Y-79761939D01*
X82165000Y-79558061D01*
X82125226Y-79358102D01*
X82047205Y-79169744D01*
X81933937Y-79000226D01*
X81789774Y-78856063D01*
X81620256Y-78742795D01*
X81431898Y-78664774D01*
X81231939Y-78625000D01*
X81028061Y-78625000D01*
X80995000Y-78631576D01*
X80995000Y-78628061D01*
X80955226Y-78428102D01*
X80877205Y-78239744D01*
X80763937Y-78070226D01*
X80619774Y-77926063D01*
X80450256Y-77812795D01*
X80261898Y-77734774D01*
X80061939Y-77695000D01*
X79858061Y-77695000D01*
X79658102Y-77734774D01*
X79469744Y-77812795D01*
X79300226Y-77926063D01*
X79226289Y-78000000D01*
X77053711Y-78000000D01*
X76969774Y-77916063D01*
X76800256Y-77802795D01*
X76611898Y-77724774D01*
X76411939Y-77685000D01*
X76208061Y-77685000D01*
X76008102Y-77724774D01*
X75819744Y-77802795D01*
X75650226Y-77916063D01*
X75506063Y-78060226D01*
X75392795Y-78229744D01*
X75314774Y-78418102D01*
X75311413Y-78435000D01*
X75128061Y-78435000D01*
X74928102Y-78474774D01*
X74739744Y-78552795D01*
X74570226Y-78666063D01*
X74426063Y-78810226D01*
X74312795Y-78979744D01*
X74234774Y-79168102D01*
X74195000Y-79368061D01*
X74195000Y-79406010D01*
X74060226Y-79496063D01*
X73916063Y-79640226D01*
X73802795Y-79809744D01*
X73724774Y-79998102D01*
X73685000Y-80198061D01*
X41300000Y-80198061D01*
X41300000Y-72348061D01*
X42240000Y-72348061D01*
X42240000Y-72551939D01*
X42279774Y-72751898D01*
X42357795Y-72940256D01*
X42471063Y-73109774D01*
X42615226Y-73253937D01*
X42784744Y-73367205D01*
X42973102Y-73445226D01*
X43173061Y-73485000D01*
X43376939Y-73485000D01*
X43576898Y-73445226D01*
X43765256Y-73367205D01*
X43934774Y-73253937D01*
X44028711Y-73160000D01*
X49675000Y-73160000D01*
X49675000Y-73241939D01*
X49714774Y-73441898D01*
X49792795Y-73630256D01*
X49906063Y-73799774D01*
X50050226Y-73943937D01*
X50096715Y-73975000D01*
X49928172Y-73975000D01*
X49728213Y-74014774D01*
X49539855Y-74092795D01*
X49370337Y-74206063D01*
X49226174Y-74350226D01*
X49112906Y-74519744D01*
X49034885Y-74708102D01*
X48995111Y-74908061D01*
X48995111Y-75111939D01*
X49034885Y-75311898D01*
X49112906Y-75500256D01*
X49226174Y-75669774D01*
X49370337Y-75813937D01*
X49539855Y-75927205D01*
X49728213Y-76005226D01*
X49928172Y-76045000D01*
X50132050Y-76045000D01*
X50332009Y-76005226D01*
X50520367Y-75927205D01*
X50689885Y-75813937D01*
X50793822Y-75710000D01*
X55926289Y-75710000D01*
X56020226Y-75803937D01*
X56189744Y-75917205D01*
X56378102Y-75995226D01*
X56578061Y-76035000D01*
X56781939Y-76035000D01*
X56981898Y-75995226D01*
X57170256Y-75917205D01*
X57339774Y-75803937D01*
X57483937Y-75659774D01*
X57597205Y-75490256D01*
X57675226Y-75301898D01*
X57715000Y-75101939D01*
X57715000Y-74898061D01*
X57675226Y-74698102D01*
X57597205Y-74509744D01*
X57483937Y-74340226D01*
X57339774Y-74196063D01*
X57170256Y-74082795D01*
X56981898Y-74004774D01*
X56781939Y-73965000D01*
X56578061Y-73965000D01*
X56378102Y-74004774D01*
X56189744Y-74082795D01*
X56020226Y-74196063D01*
X55906289Y-74310000D01*
X50793822Y-74310000D01*
X50689885Y-74206063D01*
X50643396Y-74175000D01*
X50811939Y-74175000D01*
X51011898Y-74135226D01*
X51200256Y-74057205D01*
X51369774Y-73943937D01*
X51473711Y-73840000D01*
X53875613Y-73840000D01*
X53910000Y-73843387D01*
X53944387Y-73840000D01*
X53944390Y-73840000D01*
X54047224Y-73829872D01*
X54179175Y-73789845D01*
X54300781Y-73724845D01*
X54407370Y-73637370D01*
X54429296Y-73610653D01*
X54851888Y-73188061D01*
X72765000Y-73188061D01*
X72765000Y-73391939D01*
X72804774Y-73591898D01*
X72882795Y-73780256D01*
X72899217Y-73804833D01*
X72852813Y-73916862D01*
X72813039Y-74116821D01*
X72813039Y-74320699D01*
X72852813Y-74520658D01*
X72904831Y-74646240D01*
X72897046Y-74657892D01*
X72819025Y-74846250D01*
X72779251Y-75046209D01*
X72779251Y-75250087D01*
X72819025Y-75450046D01*
X72883595Y-75605930D01*
X72813052Y-75776233D01*
X72773278Y-75976192D01*
X72773278Y-76180070D01*
X72813052Y-76380029D01*
X72891073Y-76568387D01*
X73004341Y-76737905D01*
X73148504Y-76882068D01*
X73318022Y-76995336D01*
X73506380Y-77073357D01*
X73706339Y-77113131D01*
X73910217Y-77113131D01*
X74110176Y-77073357D01*
X74298534Y-76995336D01*
X74468052Y-76882068D01*
X74561989Y-76788131D01*
X80786705Y-76788131D01*
X80805330Y-76881766D01*
X80883351Y-77070124D01*
X80996619Y-77239642D01*
X81140782Y-77383805D01*
X81310300Y-77497073D01*
X81498658Y-77575094D01*
X81698617Y-77614868D01*
X81902495Y-77614868D01*
X82102454Y-77575094D01*
X82290812Y-77497073D01*
X82460330Y-77383805D01*
X82604493Y-77239642D01*
X82717761Y-77070124D01*
X82795782Y-76881766D01*
X82835556Y-76681807D01*
X82835556Y-76477929D01*
X82795782Y-76277970D01*
X82723046Y-76102371D01*
X82785406Y-75951822D01*
X82825180Y-75751863D01*
X82825180Y-75547985D01*
X82785406Y-75348026D01*
X82716796Y-75182387D01*
X82783304Y-75021823D01*
X82823078Y-74821864D01*
X82823078Y-74617986D01*
X82783304Y-74418027D01*
X82721721Y-74269354D01*
X82784255Y-74118385D01*
X82918061Y-74145000D01*
X83121939Y-74145000D01*
X83316931Y-74106214D01*
X83409294Y-74279014D01*
X83594866Y-74505134D01*
X83820986Y-74690706D01*
X83875791Y-74720000D01*
X83820986Y-74749294D01*
X83594866Y-74934866D01*
X83409294Y-75160986D01*
X83271401Y-75418966D01*
X83186487Y-75698889D01*
X83157815Y-75990000D01*
X83186487Y-76281111D01*
X83271401Y-76561034D01*
X83409294Y-76819014D01*
X83594866Y-77045134D01*
X83820986Y-77230706D01*
X83875791Y-77260000D01*
X83820986Y-77289294D01*
X83594866Y-77474866D01*
X83409294Y-77700986D01*
X83271401Y-77958966D01*
X83186487Y-78238889D01*
X83157815Y-78530000D01*
X83186487Y-78821111D01*
X83271401Y-79101034D01*
X83409294Y-79359014D01*
X83594866Y-79585134D01*
X83820986Y-79770706D01*
X83875791Y-79800000D01*
X83820986Y-79829294D01*
X83594866Y-80014866D01*
X83409294Y-80240986D01*
X83271401Y-80498966D01*
X83186487Y-80778889D01*
X83157815Y-81070000D01*
X83186487Y-81361111D01*
X83271401Y-81641034D01*
X83409294Y-81899014D01*
X83594866Y-82125134D01*
X83820986Y-82310706D01*
X83875791Y-82340000D01*
X83820986Y-82369294D01*
X83594866Y-82554866D01*
X83409294Y-82780986D01*
X83271401Y-83038966D01*
X83186487Y-83318889D01*
X83157815Y-83610000D01*
X83186487Y-83901111D01*
X83271401Y-84181034D01*
X83409294Y-84439014D01*
X83594866Y-84665134D01*
X83820986Y-84850706D01*
X83875791Y-84880000D01*
X83820986Y-84909294D01*
X83594866Y-85094866D01*
X83409294Y-85320986D01*
X83271401Y-85578966D01*
X83186487Y-85858889D01*
X83157815Y-86150000D01*
X83186487Y-86441111D01*
X83271401Y-86721034D01*
X83409294Y-86979014D01*
X83594866Y-87205134D01*
X83820986Y-87390706D01*
X84078966Y-87528599D01*
X84358889Y-87613513D01*
X84577050Y-87635000D01*
X84722950Y-87635000D01*
X84941111Y-87613513D01*
X85221034Y-87528599D01*
X85479014Y-87390706D01*
X85705134Y-87205134D01*
X85890706Y-86979014D01*
X86028599Y-86721034D01*
X86113513Y-86441111D01*
X86142185Y-86150000D01*
X86113513Y-85858889D01*
X86028599Y-85578966D01*
X85890706Y-85320986D01*
X85705134Y-85094866D01*
X85479014Y-84909294D01*
X85424209Y-84880000D01*
X85479014Y-84850706D01*
X85705134Y-84665134D01*
X85890706Y-84439014D01*
X86028599Y-84181034D01*
X86113513Y-83901111D01*
X86142185Y-83610000D01*
X86113513Y-83318889D01*
X86028599Y-83038966D01*
X85890706Y-82780986D01*
X85705134Y-82554866D01*
X85479014Y-82369294D01*
X85424209Y-82340000D01*
X85479014Y-82310706D01*
X85705134Y-82125134D01*
X85890706Y-81899014D01*
X86028599Y-81641034D01*
X86113513Y-81361111D01*
X86142185Y-81070000D01*
X86113513Y-80778889D01*
X86028599Y-80498966D01*
X85890706Y-80240986D01*
X85705134Y-80014866D01*
X85479014Y-79829294D01*
X85424209Y-79800000D01*
X85479014Y-79770706D01*
X85705134Y-79585134D01*
X85890706Y-79359014D01*
X86028599Y-79101034D01*
X86113513Y-78821111D01*
X86142185Y-78530000D01*
X86113513Y-78238889D01*
X86028599Y-77958966D01*
X85890706Y-77700986D01*
X85705134Y-77474866D01*
X85479014Y-77289294D01*
X85424209Y-77260000D01*
X85479014Y-77230706D01*
X85705134Y-77045134D01*
X85890706Y-76819014D01*
X86028599Y-76561034D01*
X86113513Y-76281111D01*
X86142185Y-75990000D01*
X86113513Y-75698889D01*
X86028599Y-75418966D01*
X85890706Y-75160986D01*
X85705134Y-74934866D01*
X85479014Y-74749294D01*
X85424209Y-74720000D01*
X85479014Y-74690706D01*
X85705134Y-74505134D01*
X85890706Y-74279014D01*
X86028599Y-74021034D01*
X86113513Y-73741111D01*
X86142185Y-73450000D01*
X86113513Y-73158889D01*
X86028599Y-72878966D01*
X85890706Y-72620986D01*
X85705134Y-72394866D01*
X85479014Y-72209294D01*
X85424209Y-72180000D01*
X85479014Y-72150706D01*
X85705134Y-71965134D01*
X85890706Y-71739014D01*
X86028599Y-71481034D01*
X86113513Y-71201111D01*
X86142185Y-70910000D01*
X86113513Y-70618889D01*
X86028599Y-70338966D01*
X85890706Y-70080986D01*
X85705134Y-69854866D01*
X85675313Y-69830393D01*
X85744180Y-69809502D01*
X85854494Y-69750537D01*
X85951185Y-69671185D01*
X86030537Y-69574494D01*
X86089502Y-69464180D01*
X86125812Y-69344482D01*
X86138072Y-69220000D01*
X86135000Y-68655750D01*
X85976250Y-68497000D01*
X84777000Y-68497000D01*
X84777000Y-68517000D01*
X84523000Y-68517000D01*
X84523000Y-68497000D01*
X83323750Y-68497000D01*
X83165000Y-68655750D01*
X83161928Y-69220000D01*
X83174188Y-69344482D01*
X83210498Y-69464180D01*
X83269463Y-69574494D01*
X83348815Y-69671185D01*
X83445506Y-69750537D01*
X83555820Y-69809502D01*
X83624687Y-69830393D01*
X83594866Y-69854866D01*
X83409294Y-70080986D01*
X83271401Y-70338966D01*
X83186487Y-70618889D01*
X83157815Y-70910000D01*
X83186487Y-71201111D01*
X83271401Y-71481034D01*
X83409294Y-71739014D01*
X83594866Y-71965134D01*
X83820986Y-72150706D01*
X83875791Y-72180000D01*
X83820986Y-72209294D01*
X83690276Y-72316565D01*
X83679774Y-72306063D01*
X83510256Y-72192795D01*
X83321898Y-72114774D01*
X83121939Y-72075000D01*
X82989091Y-72075000D01*
X82796824Y-71882733D01*
X82774587Y-71855637D01*
X82666475Y-71766912D01*
X82543132Y-71700984D01*
X82409296Y-71660385D01*
X82304989Y-71650112D01*
X82304987Y-71650112D01*
X82270112Y-71646677D01*
X82235237Y-71650112D01*
X74568240Y-71650112D01*
X74474303Y-71556175D01*
X74304785Y-71442907D01*
X74116427Y-71364886D01*
X73916468Y-71325112D01*
X73712590Y-71325112D01*
X73512631Y-71364886D01*
X73324273Y-71442907D01*
X73154755Y-71556175D01*
X73010592Y-71700338D01*
X72897324Y-71869856D01*
X72819303Y-72058214D01*
X72779529Y-72258173D01*
X72779529Y-72462051D01*
X72819303Y-72662010D01*
X72879575Y-72807518D01*
X72804774Y-72988102D01*
X72765000Y-73188061D01*
X54851888Y-73188061D01*
X54982102Y-73057847D01*
X55018061Y-73065000D01*
X55221939Y-73065000D01*
X55421898Y-73025226D01*
X55610256Y-72947205D01*
X55779774Y-72833937D01*
X55923937Y-72689774D01*
X56037205Y-72520256D01*
X56115226Y-72331898D01*
X56155000Y-72131939D01*
X56155000Y-71928061D01*
X56115226Y-71728102D01*
X56037205Y-71539744D01*
X55923937Y-71370226D01*
X55779774Y-71226063D01*
X55610256Y-71112795D01*
X55421898Y-71034774D01*
X55221939Y-70995000D01*
X55018061Y-70995000D01*
X54818102Y-71034774D01*
X54629744Y-71112795D01*
X54460226Y-71226063D01*
X54316063Y-71370226D01*
X54202795Y-71539744D01*
X54124774Y-71728102D01*
X54085000Y-71928061D01*
X54085000Y-71975050D01*
X53744501Y-72315550D01*
X53705226Y-72118102D01*
X53627205Y-71929744D01*
X53513937Y-71760226D01*
X53369774Y-71616063D01*
X53336300Y-71593696D01*
X53368211Y-71572374D01*
X53512374Y-71428211D01*
X53625642Y-71258693D01*
X53703663Y-71070335D01*
X53705599Y-71060599D01*
X53715335Y-71058663D01*
X53903693Y-70980642D01*
X54073211Y-70867374D01*
X54217374Y-70723211D01*
X54330642Y-70553693D01*
X54405459Y-70373071D01*
X54586081Y-70298254D01*
X54755599Y-70184986D01*
X54899762Y-70040823D01*
X55013030Y-69871305D01*
X55091051Y-69682947D01*
X55130825Y-69482988D01*
X55130825Y-69300000D01*
X57598593Y-69300000D01*
X57595000Y-69318061D01*
X57595000Y-69521939D01*
X57634774Y-69721898D01*
X57712795Y-69910256D01*
X57826063Y-70079774D01*
X57970226Y-70223937D01*
X58139744Y-70337205D01*
X58149884Y-70341405D01*
X58021063Y-70470226D01*
X57907795Y-70639744D01*
X57829774Y-70828102D01*
X57790000Y-71028061D01*
X57790000Y-71231939D01*
X57829774Y-71431898D01*
X57907795Y-71620256D01*
X58021063Y-71789774D01*
X58165226Y-71933937D01*
X58334744Y-72047205D01*
X58523102Y-72125226D01*
X58723061Y-72165000D01*
X58926939Y-72165000D01*
X59126898Y-72125226D01*
X59315256Y-72047205D01*
X59484774Y-71933937D01*
X59578711Y-71840000D01*
X60933386Y-71840000D01*
X60936686Y-71842205D01*
X61125044Y-71920226D01*
X61325003Y-71960000D01*
X61528881Y-71960000D01*
X61728840Y-71920226D01*
X61917198Y-71842205D01*
X62086716Y-71728937D01*
X62230879Y-71584774D01*
X62344147Y-71415256D01*
X62422168Y-71226898D01*
X62461333Y-71029999D01*
X69060923Y-71029999D01*
X69081717Y-71080199D01*
X69194985Y-71249717D01*
X69339148Y-71393880D01*
X69508666Y-71507148D01*
X69697024Y-71585169D01*
X69896983Y-71624943D01*
X70100861Y-71624943D01*
X70300820Y-71585169D01*
X70489178Y-71507148D01*
X70658696Y-71393880D01*
X70802859Y-71249717D01*
X70916127Y-71080199D01*
X70994148Y-70891841D01*
X71033922Y-70691882D01*
X71033922Y-70488004D01*
X70994148Y-70288045D01*
X70916127Y-70099687D01*
X70802859Y-69930169D01*
X70658696Y-69786006D01*
X70489178Y-69672738D01*
X70300820Y-69594717D01*
X70100861Y-69554943D01*
X69896983Y-69554943D01*
X69697024Y-69594717D01*
X69660130Y-69609999D01*
X61817649Y-69609999D01*
X61876003Y-69469121D01*
X61915777Y-69269162D01*
X61915777Y-69065284D01*
X61902789Y-68999990D01*
X61986116Y-68999990D01*
X62002795Y-69040256D01*
X62116063Y-69209774D01*
X62260226Y-69353937D01*
X62429744Y-69467205D01*
X62618102Y-69545226D01*
X62818061Y-69585000D01*
X63021939Y-69585000D01*
X63221898Y-69545226D01*
X63410256Y-69467205D01*
X63579774Y-69353937D01*
X63723937Y-69209774D01*
X63837205Y-69040256D01*
X63915226Y-68851898D01*
X63955000Y-68651939D01*
X63955000Y-68448061D01*
X63915226Y-68248102D01*
X63837205Y-68059744D01*
X63723937Y-67890226D01*
X63579774Y-67746063D01*
X63410256Y-67632795D01*
X63221898Y-67554774D01*
X63047076Y-67520000D01*
X83161928Y-67520000D01*
X83165000Y-68084250D01*
X83323750Y-68243000D01*
X84523000Y-68243000D01*
X84523000Y-67043750D01*
X84777000Y-67043750D01*
X84777000Y-68243000D01*
X85976250Y-68243000D01*
X86135000Y-68084250D01*
X86138072Y-67520000D01*
X86125812Y-67395518D01*
X86089502Y-67275820D01*
X86030537Y-67165506D01*
X85951185Y-67068815D01*
X85854494Y-66989463D01*
X85744180Y-66930498D01*
X85624482Y-66894188D01*
X85500000Y-66881928D01*
X84935750Y-66885000D01*
X84777000Y-67043750D01*
X84523000Y-67043750D01*
X84364250Y-66885000D01*
X83800000Y-66881928D01*
X83675518Y-66894188D01*
X83555820Y-66930498D01*
X83445506Y-66989463D01*
X83348815Y-67068815D01*
X83269463Y-67165506D01*
X83210498Y-67275820D01*
X83174188Y-67395518D01*
X83161928Y-67520000D01*
X63047076Y-67520000D01*
X63021939Y-67515000D01*
X62818061Y-67515000D01*
X62683430Y-67541780D01*
X62630000Y-67536517D01*
X62488856Y-67550419D01*
X62457298Y-67559992D01*
X60453185Y-67559990D01*
X47054638Y-67559990D01*
X46953109Y-67569990D01*
X45536331Y-67569990D01*
X45434897Y-67560000D01*
X45434895Y-67560000D01*
X45400020Y-67556565D01*
X45365145Y-67560000D01*
X45204875Y-67560000D01*
X45170000Y-67556565D01*
X45135125Y-67560000D01*
X45073711Y-67560000D01*
X44979774Y-67466063D01*
X44810256Y-67352795D01*
X44621898Y-67274774D01*
X44421939Y-67235000D01*
X44218061Y-67235000D01*
X44018102Y-67274774D01*
X43829744Y-67352795D01*
X43660226Y-67466063D01*
X43516063Y-67610226D01*
X43402795Y-67779744D01*
X43324774Y-67968102D01*
X43285000Y-68168061D01*
X43285000Y-68371939D01*
X43324774Y-68571898D01*
X43402795Y-68760256D01*
X43516063Y-68929774D01*
X43660226Y-69073937D01*
X43750100Y-69133989D01*
X43681063Y-69203026D01*
X43567795Y-69372544D01*
X43489774Y-69560902D01*
X43450000Y-69760861D01*
X43450000Y-69964739D01*
X43489774Y-70164698D01*
X43567795Y-70353056D01*
X43681063Y-70522574D01*
X43825226Y-70666737D01*
X43994744Y-70780005D01*
X43995000Y-70780111D01*
X43995000Y-70831939D01*
X44034774Y-71031898D01*
X44112795Y-71220256D01*
X44146861Y-71271240D01*
X44127815Y-71299744D01*
X44049794Y-71488102D01*
X44010020Y-71688061D01*
X44010020Y-71721309D01*
X43934774Y-71646063D01*
X43765256Y-71532795D01*
X43576898Y-71454774D01*
X43376939Y-71415000D01*
X43173061Y-71415000D01*
X42973102Y-71454774D01*
X42784744Y-71532795D01*
X42615226Y-71646063D01*
X42471063Y-71790226D01*
X42357795Y-71959744D01*
X42279774Y-72148102D01*
X42240000Y-72348061D01*
X41300000Y-72348061D01*
X41300000Y-63378061D01*
X43465000Y-63378061D01*
X43465000Y-63581939D01*
X43504774Y-63781898D01*
X43582795Y-63970256D01*
X43696063Y-64139774D01*
X43840226Y-64283937D01*
X44009744Y-64397205D01*
X44198102Y-64475226D01*
X44398061Y-64515000D01*
X44601939Y-64515000D01*
X44801898Y-64475226D01*
X44990256Y-64397205D01*
X45159774Y-64283937D01*
X45303937Y-64139774D01*
X45311572Y-64128348D01*
X45390000Y-64136072D01*
X48690000Y-64136072D01*
X48814482Y-64123812D01*
X48934180Y-64087502D01*
X49044494Y-64028537D01*
X49141185Y-63949185D01*
X49220537Y-63852494D01*
X49279502Y-63742180D01*
X49315812Y-63622482D01*
X49328072Y-63498000D01*
X49328072Y-63283061D01*
X49820966Y-63283061D01*
X49820966Y-63486939D01*
X49860740Y-63686898D01*
X49938761Y-63875256D01*
X50052029Y-64044774D01*
X50196192Y-64188937D01*
X50365710Y-64302205D01*
X50554068Y-64380226D01*
X50754027Y-64420000D01*
X50937806Y-64420000D01*
X50982945Y-64444127D01*
X51116781Y-64484726D01*
X51221088Y-64494999D01*
X51221089Y-64494999D01*
X51255964Y-64498434D01*
X51290839Y-64494999D01*
X75071288Y-64494999D01*
X75150226Y-64573937D01*
X75319744Y-64687205D01*
X75508102Y-64765226D01*
X75708061Y-64805000D01*
X75911939Y-64805000D01*
X76111898Y-64765226D01*
X76300256Y-64687205D01*
X76469774Y-64573937D01*
X76613937Y-64429774D01*
X76727205Y-64260256D01*
X76805226Y-64071898D01*
X76845000Y-63871939D01*
X76845000Y-63668061D01*
X76805226Y-63468102D01*
X76727205Y-63279744D01*
X76645117Y-63156890D01*
X84208524Y-63156890D01*
X84210446Y-63169261D01*
X84310146Y-63443009D01*
X84461336Y-63692046D01*
X84658205Y-63906802D01*
X84893188Y-64079025D01*
X85157255Y-64202096D01*
X85440258Y-64271285D01*
X85673000Y-64127232D01*
X85673000Y-62927000D01*
X85927000Y-62927000D01*
X85927000Y-64127232D01*
X86159742Y-64271285D01*
X86442745Y-64202096D01*
X86706812Y-64079025D01*
X86941795Y-63906802D01*
X87138664Y-63692046D01*
X87289854Y-63443009D01*
X87389554Y-63169261D01*
X87391476Y-63156890D01*
X87270155Y-62927000D01*
X85927000Y-62927000D01*
X85673000Y-62927000D01*
X84329845Y-62927000D01*
X84208524Y-63156890D01*
X76645117Y-63156890D01*
X76613937Y-63110226D01*
X76469774Y-62966063D01*
X76300256Y-62852795D01*
X76111898Y-62774774D01*
X75911939Y-62735000D01*
X75708061Y-62735000D01*
X75508102Y-62774774D01*
X75319744Y-62852795D01*
X75150226Y-62966063D01*
X75041290Y-63074999D01*
X59324572Y-63074999D01*
X59420221Y-63040340D01*
X59561160Y-62750639D01*
X59642874Y-62439009D01*
X59662220Y-62117425D01*
X59618458Y-61798246D01*
X59513267Y-61493738D01*
X59420221Y-61319660D01*
X59393562Y-61310000D01*
X77756770Y-61310000D01*
X77812795Y-61445256D01*
X77926063Y-61614774D01*
X78070226Y-61758937D01*
X78239744Y-61872205D01*
X78428102Y-61950226D01*
X78628061Y-61990000D01*
X78831939Y-61990000D01*
X79031898Y-61950226D01*
X79220256Y-61872205D01*
X79389774Y-61758937D01*
X79533937Y-61614774D01*
X79647205Y-61445256D01*
X79725226Y-61256898D01*
X79765000Y-61056939D01*
X79765000Y-60853061D01*
X79725226Y-60653102D01*
X79647205Y-60464744D01*
X79533937Y-60295226D01*
X79389774Y-60151063D01*
X79220256Y-60037795D01*
X79031898Y-59959774D01*
X78831939Y-59920000D01*
X78628061Y-59920000D01*
X78598559Y-59925868D01*
X78514184Y-59900273D01*
X78409877Y-59890000D01*
X78409875Y-59890000D01*
X78375000Y-59886565D01*
X78340125Y-59890000D01*
X52019092Y-59890000D01*
X51945000Y-59815908D01*
X51945000Y-59700000D01*
X84161928Y-59700000D01*
X84161928Y-60900000D01*
X84178992Y-61073254D01*
X84229528Y-61239850D01*
X84311595Y-61393386D01*
X84422038Y-61527962D01*
X84556614Y-61638405D01*
X84658593Y-61692914D01*
X84658205Y-61693198D01*
X84461336Y-61907954D01*
X84310146Y-62156991D01*
X84210446Y-62430739D01*
X84208524Y-62443110D01*
X84329845Y-62673000D01*
X85673000Y-62673000D01*
X85673000Y-62653000D01*
X85927000Y-62653000D01*
X85927000Y-62673000D01*
X87270155Y-62673000D01*
X87391476Y-62443110D01*
X87389554Y-62430739D01*
X87289854Y-62156991D01*
X87138664Y-61907954D01*
X86941795Y-61693198D01*
X86941407Y-61692914D01*
X87043386Y-61638405D01*
X87177962Y-61527962D01*
X87288405Y-61393386D01*
X87370472Y-61239850D01*
X87421008Y-61073254D01*
X87438072Y-60900000D01*
X87438072Y-59700000D01*
X87421008Y-59526746D01*
X87370472Y-59360150D01*
X87288405Y-59206614D01*
X87177962Y-59072038D01*
X87043386Y-58961595D01*
X86889850Y-58879528D01*
X86723254Y-58828992D01*
X86550000Y-58811928D01*
X85050000Y-58811928D01*
X84876746Y-58828992D01*
X84710150Y-58879528D01*
X84556614Y-58961595D01*
X84422038Y-59072038D01*
X84311595Y-59206614D01*
X84229528Y-59360150D01*
X84178992Y-59526746D01*
X84161928Y-59700000D01*
X51945000Y-59700000D01*
X51945000Y-59683061D01*
X51905226Y-59483102D01*
X51827205Y-59294744D01*
X51713937Y-59125226D01*
X51569774Y-58981063D01*
X51400256Y-58867795D01*
X51211898Y-58789774D01*
X51011939Y-58750000D01*
X50808061Y-58750000D01*
X50608102Y-58789774D01*
X50419744Y-58867795D01*
X50250226Y-58981063D01*
X50106063Y-59125226D01*
X49992795Y-59294744D01*
X49914774Y-59483102D01*
X49875000Y-59683061D01*
X49875000Y-59886939D01*
X49914774Y-60086898D01*
X49992795Y-60275256D01*
X50106063Y-60444774D01*
X50250226Y-60588937D01*
X50419744Y-60702205D01*
X50608102Y-60780226D01*
X50808061Y-60820000D01*
X50940908Y-60820000D01*
X51198292Y-61077384D01*
X51220525Y-61104475D01*
X51328637Y-61193200D01*
X51451980Y-61259128D01*
X51585816Y-61299727D01*
X51690123Y-61310000D01*
X51690124Y-61310000D01*
X51724999Y-61313435D01*
X51759874Y-61310000D01*
X56646438Y-61310000D01*
X56619779Y-61319660D01*
X56478840Y-61609361D01*
X56397126Y-61920991D01*
X56377780Y-62242575D01*
X56421542Y-62561754D01*
X56526733Y-62866262D01*
X56619779Y-63040340D01*
X56715428Y-63074999D01*
X51847836Y-63074999D01*
X51773171Y-62894744D01*
X51659903Y-62725226D01*
X51515740Y-62581063D01*
X51346222Y-62467795D01*
X51157864Y-62389774D01*
X50957905Y-62350000D01*
X50754027Y-62350000D01*
X50554068Y-62389774D01*
X50365710Y-62467795D01*
X50196192Y-62581063D01*
X50052029Y-62725226D01*
X49938761Y-62894744D01*
X49860740Y-63083102D01*
X49820966Y-63283061D01*
X49328072Y-63283061D01*
X49328072Y-59998000D01*
X49315812Y-59873518D01*
X49279502Y-59753820D01*
X49220537Y-59643506D01*
X49141185Y-59546815D01*
X49044494Y-59467463D01*
X48934180Y-59408498D01*
X48814482Y-59372188D01*
X48690000Y-59359928D01*
X45390000Y-59359928D01*
X45265518Y-59372188D01*
X45145820Y-59408498D01*
X45035506Y-59467463D01*
X44938815Y-59546815D01*
X44859463Y-59643506D01*
X44800498Y-59753820D01*
X44764188Y-59873518D01*
X44751928Y-59998000D01*
X44751928Y-62223981D01*
X44530909Y-62445000D01*
X44398061Y-62445000D01*
X44198102Y-62484774D01*
X44009744Y-62562795D01*
X43840226Y-62676063D01*
X43696063Y-62820226D01*
X43582795Y-62989744D01*
X43504774Y-63178102D01*
X43465000Y-63378061D01*
X41300000Y-63378061D01*
X41300000Y-55848000D01*
X44401928Y-55848000D01*
X44414188Y-55972482D01*
X44450498Y-56092180D01*
X44509463Y-56202494D01*
X44588815Y-56299185D01*
X44685506Y-56378537D01*
X44795820Y-56437502D01*
X44915518Y-56473812D01*
X45040000Y-56486072D01*
X46754250Y-56483000D01*
X46913000Y-56324250D01*
X46913000Y-53975000D01*
X47167000Y-53975000D01*
X47167000Y-56324250D01*
X47325750Y-56483000D01*
X49040000Y-56486072D01*
X49164482Y-56473812D01*
X49284180Y-56437502D01*
X49394494Y-56378537D01*
X49491185Y-56299185D01*
X49570537Y-56202494D01*
X49629502Y-56092180D01*
X49665812Y-55972482D01*
X49678072Y-55848000D01*
X49675000Y-54133750D01*
X49516250Y-53975000D01*
X47167000Y-53975000D01*
X46913000Y-53975000D01*
X44563750Y-53975000D01*
X44405000Y-54133750D01*
X44401928Y-55848000D01*
X41300000Y-55848000D01*
X41300000Y-51848000D01*
X44401928Y-51848000D01*
X44405000Y-53562250D01*
X44563750Y-53721000D01*
X46913000Y-53721000D01*
X46913000Y-51371750D01*
X46754250Y-51213000D01*
X45040000Y-51209928D01*
X44915518Y-51222188D01*
X44795820Y-51258498D01*
X44685506Y-51317463D01*
X44588815Y-51396815D01*
X44509463Y-51493506D01*
X44450498Y-51603820D01*
X44414188Y-51723518D01*
X44401928Y-51848000D01*
X41300000Y-51848000D01*
X41300000Y-40310000D01*
X41857815Y-40310000D01*
X41886487Y-40601111D01*
X41971401Y-40881034D01*
X42109294Y-41139014D01*
X42294866Y-41365134D01*
X42358337Y-41417223D01*
X42256614Y-41471595D01*
X42122038Y-41582038D01*
X42011595Y-41716614D01*
X41929528Y-41870150D01*
X41878992Y-42036746D01*
X41861928Y-42210000D01*
X41861928Y-43410000D01*
X41878992Y-43583254D01*
X41929528Y-43749850D01*
X42011595Y-43903386D01*
X42122038Y-44037962D01*
X42256614Y-44148405D01*
X42410150Y-44230472D01*
X42576746Y-44281008D01*
X42750000Y-44298072D01*
X43678217Y-44298072D01*
X43556063Y-44420226D01*
X43442795Y-44589744D01*
X43364774Y-44778102D01*
X43325000Y-44978061D01*
X43325000Y-45181939D01*
X43364774Y-45381898D01*
X43442795Y-45570256D01*
X43556063Y-45739774D01*
X43700226Y-45883937D01*
X43869744Y-45997205D01*
X44058102Y-46075226D01*
X44258061Y-46115000D01*
X44402908Y-46115000D01*
X44713292Y-46425384D01*
X44735525Y-46452475D01*
X44751928Y-46465937D01*
X44751928Y-47698000D01*
X44764188Y-47822482D01*
X44800498Y-47942180D01*
X44859463Y-48052494D01*
X44938815Y-48149185D01*
X45035506Y-48228537D01*
X45145820Y-48287502D01*
X45265518Y-48323812D01*
X45390000Y-48336072D01*
X48420000Y-48336072D01*
X48420000Y-50089306D01*
X48260226Y-50196063D01*
X48116063Y-50340226D01*
X48002795Y-50509744D01*
X47924774Y-50698102D01*
X47885000Y-50898061D01*
X47885000Y-51101939D01*
X47906884Y-51211959D01*
X47325750Y-51213000D01*
X47167000Y-51371750D01*
X47167000Y-53721000D01*
X49516250Y-53721000D01*
X49675000Y-53562250D01*
X49678072Y-51848000D01*
X49675124Y-51818061D01*
X52385000Y-51818061D01*
X52385000Y-52021939D01*
X52424774Y-52221898D01*
X52502795Y-52410256D01*
X52616063Y-52579774D01*
X52760226Y-52723937D01*
X52929744Y-52837205D01*
X53118102Y-52915226D01*
X53318061Y-52955000D01*
X53521939Y-52955000D01*
X53721898Y-52915226D01*
X53910256Y-52837205D01*
X54079774Y-52723937D01*
X54153711Y-52650000D01*
X57544145Y-52650000D01*
X57580000Y-52653531D01*
X57615855Y-52650000D01*
X57615860Y-52650000D01*
X57655205Y-52646125D01*
X57723104Y-52639438D01*
X57818968Y-52610358D01*
X57860711Y-52597695D01*
X57987529Y-52529910D01*
X58098685Y-52438685D01*
X58121547Y-52410828D01*
X59050838Y-51481538D01*
X59078684Y-51458685D01*
X59101539Y-51430837D01*
X59101544Y-51430832D01*
X59143335Y-51379910D01*
X59169910Y-51347529D01*
X59237695Y-51220711D01*
X59261237Y-51143104D01*
X59279437Y-51083106D01*
X59282205Y-51055000D01*
X59290000Y-50975860D01*
X59290000Y-50975853D01*
X59293531Y-50940001D01*
X59290000Y-50904149D01*
X59290000Y-50613711D01*
X59363937Y-50539774D01*
X59477205Y-50370256D01*
X59555226Y-50181898D01*
X59595000Y-49981939D01*
X59595000Y-49877376D01*
X59752376Y-49720000D01*
X61216289Y-49720000D01*
X61290226Y-49793937D01*
X61459744Y-49907205D01*
X61648102Y-49985226D01*
X61848061Y-50025000D01*
X62051939Y-50025000D01*
X62251898Y-49985226D01*
X62440256Y-49907205D01*
X62609774Y-49793937D01*
X62683711Y-49720000D01*
X65351279Y-49720000D01*
X65425216Y-49793937D01*
X65594734Y-49907205D01*
X65783092Y-49985226D01*
X65983051Y-50025000D01*
X66186929Y-50025000D01*
X66386888Y-49985226D01*
X66575246Y-49907205D01*
X66744764Y-49793937D01*
X66818701Y-49720000D01*
X70077625Y-49720000D01*
X70200000Y-49842376D01*
X70200001Y-50446288D01*
X70126063Y-50520226D01*
X70012795Y-50689744D01*
X69934774Y-50878102D01*
X69895000Y-51078061D01*
X69895000Y-51281939D01*
X69934774Y-51481898D01*
X70000262Y-51640000D01*
X63199189Y-51640000D01*
X63164314Y-51636565D01*
X63129439Y-51640000D01*
X63129438Y-51640000D01*
X63025131Y-51650273D01*
X62891295Y-51690872D01*
X62799804Y-51739775D01*
X62767950Y-51756801D01*
X62753509Y-51768653D01*
X62659840Y-51845525D01*
X62637603Y-51872621D01*
X62232617Y-52277607D01*
X62205526Y-52299840D01*
X62116801Y-52407952D01*
X62050872Y-52531295D01*
X62036014Y-52580275D01*
X61906063Y-52710226D01*
X61792795Y-52879744D01*
X61714774Y-53068102D01*
X61675000Y-53268061D01*
X61675000Y-53471939D01*
X61714774Y-53671898D01*
X61792795Y-53860256D01*
X61906063Y-54029774D01*
X62050226Y-54173937D01*
X62219744Y-54287205D01*
X62408102Y-54365226D01*
X62482377Y-54380000D01*
X61043711Y-54380000D01*
X60969774Y-54306063D01*
X60800256Y-54192795D01*
X60611898Y-54114774D01*
X60411939Y-54075000D01*
X60208061Y-54075000D01*
X60008102Y-54114774D01*
X59819744Y-54192795D01*
X59650226Y-54306063D01*
X59506063Y-54450226D01*
X59392795Y-54619744D01*
X59314774Y-54808102D01*
X59275000Y-55008061D01*
X59275000Y-55211939D01*
X59314774Y-55411898D01*
X59392795Y-55600256D01*
X59506063Y-55769774D01*
X59650226Y-55913937D01*
X59819744Y-56027205D01*
X60008102Y-56105226D01*
X60208061Y-56145000D01*
X60411939Y-56145000D01*
X60611898Y-56105226D01*
X60800256Y-56027205D01*
X60969774Y-55913937D01*
X61043711Y-55840000D01*
X65322330Y-55840000D01*
X65322330Y-55989269D01*
X65362104Y-56189228D01*
X65440125Y-56377586D01*
X65553393Y-56547104D01*
X65697556Y-56691267D01*
X65867074Y-56804535D01*
X66055432Y-56882556D01*
X66255391Y-56922330D01*
X66459269Y-56922330D01*
X66659228Y-56882556D01*
X66847586Y-56804535D01*
X67017104Y-56691267D01*
X67108371Y-56600000D01*
X72091269Y-56600000D01*
X72185206Y-56693937D01*
X72354724Y-56807205D01*
X72543082Y-56885226D01*
X72743041Y-56925000D01*
X72946919Y-56925000D01*
X73146878Y-56885226D01*
X73335236Y-56807205D01*
X73504754Y-56693937D01*
X73648917Y-56549774D01*
X73762185Y-56380256D01*
X73840206Y-56191898D01*
X73850620Y-56139542D01*
X73878061Y-56145000D01*
X74081939Y-56145000D01*
X74281898Y-56105226D01*
X74470256Y-56027205D01*
X74639774Y-55913937D01*
X74783937Y-55769774D01*
X74897205Y-55600256D01*
X74964873Y-55436890D01*
X82908524Y-55436890D01*
X82953175Y-55584099D01*
X83078359Y-55846920D01*
X83252412Y-56080269D01*
X83468645Y-56275178D01*
X83718748Y-56424157D01*
X83993109Y-56521481D01*
X84223000Y-56400814D01*
X84223000Y-55207000D01*
X84477000Y-55207000D01*
X84477000Y-56400814D01*
X84706891Y-56521481D01*
X84981252Y-56424157D01*
X85231355Y-56275178D01*
X85447588Y-56080269D01*
X85621641Y-55846920D01*
X85746825Y-55584099D01*
X85791476Y-55436890D01*
X85670155Y-55207000D01*
X84477000Y-55207000D01*
X84223000Y-55207000D01*
X83029845Y-55207000D01*
X82908524Y-55436890D01*
X74964873Y-55436890D01*
X74975226Y-55411898D01*
X75015000Y-55211939D01*
X75015000Y-55008061D01*
X74975226Y-54808102D01*
X74897205Y-54619744D01*
X74783937Y-54450226D01*
X74639774Y-54306063D01*
X74470256Y-54192795D01*
X74281898Y-54114774D01*
X74081939Y-54075000D01*
X73878061Y-54075000D01*
X73678102Y-54114774D01*
X73489744Y-54192795D01*
X73320226Y-54306063D01*
X73246289Y-54380000D01*
X70664673Y-54380000D01*
X70684315Y-54281253D01*
X70684315Y-54077375D01*
X70644541Y-53877416D01*
X70566520Y-53689058D01*
X70453252Y-53519540D01*
X70309089Y-53375377D01*
X70139571Y-53262109D01*
X69951213Y-53184088D01*
X69751254Y-53144314D01*
X69547376Y-53144314D01*
X69347417Y-53184088D01*
X69159059Y-53262109D01*
X68989541Y-53375377D01*
X68895604Y-53469314D01*
X68408308Y-53469314D01*
X68305228Y-53366234D01*
X68135710Y-53252966D01*
X67947352Y-53174945D01*
X67747393Y-53135171D01*
X67543515Y-53135171D01*
X67343556Y-53174945D01*
X67155198Y-53252966D01*
X66985680Y-53366234D01*
X66841517Y-53510397D01*
X66728249Y-53679915D01*
X66650228Y-53868273D01*
X66610454Y-54068232D01*
X66610454Y-54272110D01*
X66631914Y-54380000D01*
X62937623Y-54380000D01*
X63011898Y-54365226D01*
X63200256Y-54287205D01*
X63369774Y-54173937D01*
X63513937Y-54029774D01*
X63627205Y-53860256D01*
X63705226Y-53671898D01*
X63745000Y-53471939D01*
X63745000Y-53268061D01*
X63705226Y-53068102D01*
X63701870Y-53060000D01*
X75050456Y-53060000D01*
X75085331Y-53063435D01*
X75120206Y-53060000D01*
X75120208Y-53060000D01*
X75224515Y-53049727D01*
X75358351Y-53009128D01*
X75481694Y-52943200D01*
X75589806Y-52854475D01*
X75612043Y-52827379D01*
X75899422Y-52540000D01*
X82857815Y-52540000D01*
X82886487Y-52831111D01*
X82971401Y-53111034D01*
X83109294Y-53369014D01*
X83294866Y-53595134D01*
X83520986Y-53780706D01*
X83585523Y-53815201D01*
X83468645Y-53884822D01*
X83252412Y-54079731D01*
X83078359Y-54313080D01*
X82953175Y-54575901D01*
X82908524Y-54723110D01*
X83029845Y-54953000D01*
X84223000Y-54953000D01*
X84223000Y-54933000D01*
X84477000Y-54933000D01*
X84477000Y-54953000D01*
X85670155Y-54953000D01*
X85791476Y-54723110D01*
X85746825Y-54575901D01*
X85621641Y-54313080D01*
X85447588Y-54079731D01*
X85231355Y-53884822D01*
X85114477Y-53815201D01*
X85179014Y-53780706D01*
X85405134Y-53595134D01*
X85590706Y-53369014D01*
X85728599Y-53111034D01*
X85813513Y-52831111D01*
X85842185Y-52540000D01*
X85813513Y-52248889D01*
X85728599Y-51968966D01*
X85590706Y-51710986D01*
X85405134Y-51484866D01*
X85375313Y-51460393D01*
X85444180Y-51439502D01*
X85554494Y-51380537D01*
X85651185Y-51301185D01*
X85730537Y-51204494D01*
X85789502Y-51094180D01*
X85825812Y-50974482D01*
X85838072Y-50850000D01*
X85838072Y-49150000D01*
X85825812Y-49025518D01*
X85789502Y-48905820D01*
X85730537Y-48795506D01*
X85651185Y-48698815D01*
X85554494Y-48619463D01*
X85444180Y-48560498D01*
X85324482Y-48524188D01*
X85200000Y-48511928D01*
X83500000Y-48511928D01*
X83375518Y-48524188D01*
X83255820Y-48560498D01*
X83145506Y-48619463D01*
X83048815Y-48698815D01*
X82969463Y-48795506D01*
X82910498Y-48905820D01*
X82874188Y-49025518D01*
X82861928Y-49150000D01*
X82861928Y-50850000D01*
X82874188Y-50974482D01*
X82910498Y-51094180D01*
X82969463Y-51204494D01*
X83048815Y-51301185D01*
X83145506Y-51380537D01*
X83255820Y-51439502D01*
X83324687Y-51460393D01*
X83294866Y-51484866D01*
X83109294Y-51710986D01*
X82971401Y-51968966D01*
X82886487Y-52248889D01*
X82857815Y-52540000D01*
X75899422Y-52540000D01*
X75937667Y-52501755D01*
X76070515Y-52501755D01*
X76270474Y-52461981D01*
X76458832Y-52383960D01*
X76628350Y-52270692D01*
X76772513Y-52126529D01*
X76885781Y-51957011D01*
X76963802Y-51768653D01*
X77003576Y-51568694D01*
X77003576Y-51364816D01*
X76963802Y-51164857D01*
X76885781Y-50976499D01*
X76772513Y-50806981D01*
X76628350Y-50662818D01*
X76458832Y-50549550D01*
X76270474Y-50471529D01*
X76070515Y-50431755D01*
X75866637Y-50431755D01*
X75666678Y-50471529D01*
X75478320Y-50549550D01*
X75308802Y-50662818D01*
X75164639Y-50806981D01*
X75051371Y-50976499D01*
X74973350Y-51164857D01*
X74933576Y-51364816D01*
X74933576Y-51497664D01*
X74791240Y-51640000D01*
X71859738Y-51640000D01*
X71925226Y-51481898D01*
X71965000Y-51281939D01*
X71965000Y-51078061D01*
X71925226Y-50878102D01*
X71847205Y-50689744D01*
X71733937Y-50520226D01*
X71660000Y-50446289D01*
X71660000Y-49575851D01*
X71663531Y-49539999D01*
X71660000Y-49504147D01*
X71660000Y-49504140D01*
X71650235Y-49405000D01*
X71649437Y-49396894D01*
X71607695Y-49259289D01*
X71539910Y-49132471D01*
X71493616Y-49076063D01*
X71471544Y-49049168D01*
X71471539Y-49049163D01*
X71448684Y-49021315D01*
X71420837Y-48998461D01*
X70921547Y-48499172D01*
X70898685Y-48471315D01*
X70787529Y-48380090D01*
X70660711Y-48312305D01*
X70618968Y-48299642D01*
X70523104Y-48270562D01*
X70455205Y-48263875D01*
X70415860Y-48260000D01*
X70415855Y-48260000D01*
X70380000Y-48256469D01*
X70344145Y-48260000D01*
X66818701Y-48260000D01*
X66744764Y-48186063D01*
X66575246Y-48072795D01*
X66386888Y-47994774D01*
X66186929Y-47955000D01*
X65983051Y-47955000D01*
X65783092Y-47994774D01*
X65594734Y-48072795D01*
X65425216Y-48186063D01*
X65351279Y-48260000D01*
X62683711Y-48260000D01*
X62609774Y-48186063D01*
X62440256Y-48072795D01*
X62251898Y-47994774D01*
X62051939Y-47955000D01*
X61848061Y-47955000D01*
X61648102Y-47994774D01*
X61459744Y-48072795D01*
X61290226Y-48186063D01*
X61216289Y-48260000D01*
X59485851Y-48260000D01*
X59449999Y-48256469D01*
X59414147Y-48260000D01*
X59414140Y-48260000D01*
X59332298Y-48268061D01*
X59306894Y-48270563D01*
X59251054Y-48287502D01*
X59169289Y-48312305D01*
X59042471Y-48380090D01*
X58931315Y-48471315D01*
X58908457Y-48499167D01*
X58562624Y-48845000D01*
X58458061Y-48845000D01*
X58258102Y-48884774D01*
X58069744Y-48962795D01*
X57900226Y-49076063D01*
X57756063Y-49220226D01*
X57642795Y-49389744D01*
X57564774Y-49578102D01*
X57525000Y-49778061D01*
X57525000Y-49981939D01*
X57564774Y-50181898D01*
X57642795Y-50370256D01*
X57756063Y-50539774D01*
X57830000Y-50613711D01*
X57830000Y-50637624D01*
X57277625Y-51190000D01*
X54153711Y-51190000D01*
X54079774Y-51116063D01*
X53910256Y-51002795D01*
X53721898Y-50924774D01*
X53521939Y-50885000D01*
X53318061Y-50885000D01*
X53118102Y-50924774D01*
X52929744Y-51002795D01*
X52760226Y-51116063D01*
X52616063Y-51260226D01*
X52502795Y-51429744D01*
X52424774Y-51618102D01*
X52385000Y-51818061D01*
X49675124Y-51818061D01*
X49665812Y-51723518D01*
X49664504Y-51719207D01*
X49723937Y-51659774D01*
X49837205Y-51490256D01*
X49915226Y-51301898D01*
X49955000Y-51101939D01*
X49955000Y-50898061D01*
X49915226Y-50698102D01*
X49880000Y-50613060D01*
X49880000Y-46698061D01*
X55375000Y-46698061D01*
X55375000Y-46901939D01*
X55414774Y-47101898D01*
X55492795Y-47290256D01*
X55606063Y-47459774D01*
X55680001Y-47533712D01*
X55680000Y-47636289D01*
X55606063Y-47710226D01*
X55492795Y-47879744D01*
X55414774Y-48068102D01*
X55375000Y-48268061D01*
X55375000Y-48471939D01*
X55414774Y-48671898D01*
X55492795Y-48860256D01*
X55606063Y-49029774D01*
X55750226Y-49173937D01*
X55919744Y-49287205D01*
X56108102Y-49365226D01*
X56308061Y-49405000D01*
X56511939Y-49405000D01*
X56711898Y-49365226D01*
X56900256Y-49287205D01*
X57069774Y-49173937D01*
X57213937Y-49029774D01*
X57327205Y-48860256D01*
X57405226Y-48671898D01*
X57445000Y-48471939D01*
X57445000Y-48268061D01*
X57405226Y-48068102D01*
X57327205Y-47879744D01*
X57213937Y-47710226D01*
X57140000Y-47636289D01*
X57140000Y-47533711D01*
X57213937Y-47459774D01*
X57276118Y-47366712D01*
X69272893Y-47366712D01*
X69380726Y-47641338D01*
X69687384Y-47792216D01*
X70017585Y-47880369D01*
X70358639Y-47902409D01*
X70697439Y-47857489D01*
X71020966Y-47747336D01*
X71219274Y-47641338D01*
X71327107Y-47366712D01*
X70300000Y-46339605D01*
X69272893Y-47366712D01*
X57276118Y-47366712D01*
X57327205Y-47290256D01*
X57405226Y-47101898D01*
X57445000Y-46901939D01*
X57445000Y-46698061D01*
X57405226Y-46498102D01*
X57327205Y-46309744D01*
X57266331Y-46218639D01*
X68557591Y-46218639D01*
X68602511Y-46557439D01*
X68712664Y-46880966D01*
X68818662Y-47079274D01*
X69093288Y-47187107D01*
X70120395Y-46160000D01*
X70479605Y-46160000D01*
X71506712Y-47187107D01*
X71781338Y-47079274D01*
X71932216Y-46772616D01*
X72020369Y-46442415D01*
X72042409Y-46101361D01*
X71997489Y-45762561D01*
X71887336Y-45439034D01*
X71781338Y-45240726D01*
X71506712Y-45132893D01*
X70479605Y-46160000D01*
X70120395Y-46160000D01*
X69093288Y-45132893D01*
X68818662Y-45240726D01*
X68667784Y-45547384D01*
X68579631Y-45877585D01*
X68557591Y-46218639D01*
X57266331Y-46218639D01*
X57213937Y-46140226D01*
X57069774Y-45996063D01*
X56900256Y-45882795D01*
X56711898Y-45804774D01*
X56511939Y-45765000D01*
X56308061Y-45765000D01*
X56108102Y-45804774D01*
X55919744Y-45882795D01*
X55750226Y-45996063D01*
X55606063Y-46140226D01*
X55492795Y-46309744D01*
X55414774Y-46498102D01*
X55375000Y-46698061D01*
X49880000Y-46698061D01*
X49880000Y-44953288D01*
X69272893Y-44953288D01*
X70300000Y-45980395D01*
X71202334Y-45078061D01*
X82795000Y-45078061D01*
X82795000Y-45281939D01*
X82834774Y-45481898D01*
X82912795Y-45670256D01*
X83026063Y-45839774D01*
X83070001Y-45883712D01*
X83070000Y-46616289D01*
X83026063Y-46660226D01*
X82912795Y-46829744D01*
X82834774Y-47018102D01*
X82795000Y-47218061D01*
X82795000Y-47421939D01*
X82834774Y-47621898D01*
X82912795Y-47810256D01*
X83026063Y-47979774D01*
X83170226Y-48123937D01*
X83339744Y-48237205D01*
X83528102Y-48315226D01*
X83728061Y-48355000D01*
X83931939Y-48355000D01*
X84131898Y-48315226D01*
X84320256Y-48237205D01*
X84489774Y-48123937D01*
X84633937Y-47979774D01*
X84747205Y-47810256D01*
X84825226Y-47621898D01*
X84865000Y-47421939D01*
X84865000Y-47218061D01*
X84825226Y-47018102D01*
X84747205Y-46829744D01*
X84633937Y-46660226D01*
X84590000Y-46616289D01*
X84590000Y-45883711D01*
X84633937Y-45839774D01*
X84747205Y-45670256D01*
X84825226Y-45481898D01*
X84865000Y-45281939D01*
X84865000Y-45078061D01*
X84825226Y-44878102D01*
X84747205Y-44689744D01*
X84633937Y-44520226D01*
X84489774Y-44376063D01*
X84320256Y-44262795D01*
X84131898Y-44184774D01*
X83931939Y-44145000D01*
X83728061Y-44145000D01*
X83528102Y-44184774D01*
X83339744Y-44262795D01*
X83170226Y-44376063D01*
X83026063Y-44520226D01*
X82912795Y-44689744D01*
X82834774Y-44878102D01*
X82795000Y-45078061D01*
X71202334Y-45078061D01*
X71327107Y-44953288D01*
X71219274Y-44678662D01*
X70912616Y-44527784D01*
X70582415Y-44439631D01*
X70241361Y-44417591D01*
X69902561Y-44462511D01*
X69579034Y-44572664D01*
X69380726Y-44678662D01*
X69272893Y-44953288D01*
X49880000Y-44953288D01*
X49880000Y-44288849D01*
X49883531Y-44252997D01*
X49880000Y-44217145D01*
X49880000Y-44217138D01*
X49869437Y-44109893D01*
X49861818Y-44084774D01*
X49827695Y-43972287D01*
X49817824Y-43953820D01*
X49759910Y-43845469D01*
X49725295Y-43803291D01*
X49691544Y-43762166D01*
X49691539Y-43762161D01*
X49668684Y-43734313D01*
X49640838Y-43711460D01*
X49462289Y-43532911D01*
X86315000Y-43532911D01*
X86315000Y-43717089D01*
X86350932Y-43897729D01*
X86421414Y-44067889D01*
X86523738Y-44221028D01*
X86653972Y-44351262D01*
X86807111Y-44453586D01*
X86858809Y-44475000D01*
X86807111Y-44496414D01*
X86653972Y-44598738D01*
X86523738Y-44728972D01*
X86421414Y-44882111D01*
X86350932Y-45052271D01*
X86315000Y-45232911D01*
X86315000Y-45417089D01*
X86350932Y-45597729D01*
X86421414Y-45767889D01*
X86523738Y-45921028D01*
X86653972Y-46051262D01*
X86807111Y-46153586D01*
X86977271Y-46224068D01*
X87157911Y-46260000D01*
X87342089Y-46260000D01*
X87522729Y-46224068D01*
X87692889Y-46153586D01*
X87846028Y-46051262D01*
X87976262Y-45921028D01*
X88078586Y-45767889D01*
X88149068Y-45597729D01*
X88185000Y-45417089D01*
X88185000Y-45232911D01*
X88149068Y-45052271D01*
X88078586Y-44882111D01*
X87976262Y-44728972D01*
X87846028Y-44598738D01*
X87692889Y-44496414D01*
X87641191Y-44475000D01*
X87692889Y-44453586D01*
X87846028Y-44351262D01*
X87976262Y-44221028D01*
X88078586Y-44067889D01*
X88149068Y-43897729D01*
X88185000Y-43717089D01*
X88185000Y-43532911D01*
X88149068Y-43352271D01*
X88078586Y-43182111D01*
X87976262Y-43028972D01*
X87846028Y-42898738D01*
X87692889Y-42796414D01*
X87522729Y-42725932D01*
X87342089Y-42690000D01*
X87157911Y-42690000D01*
X86977271Y-42725932D01*
X86807111Y-42796414D01*
X86653972Y-42898738D01*
X86523738Y-43028972D01*
X86421414Y-43182111D01*
X86350932Y-43352271D01*
X86315000Y-43532911D01*
X49462289Y-43532911D01*
X48248549Y-42319172D01*
X48225687Y-42291315D01*
X48114531Y-42200090D01*
X47987713Y-42132305D01*
X47945970Y-42119642D01*
X47850106Y-42090562D01*
X47782207Y-42083875D01*
X47742862Y-42080000D01*
X47742857Y-42080000D01*
X47707002Y-42076469D01*
X47671147Y-42080000D01*
X45125268Y-42080000D01*
X45121008Y-42036746D01*
X45070472Y-41870150D01*
X44988405Y-41716614D01*
X44877962Y-41582038D01*
X44743386Y-41471595D01*
X44641663Y-41417223D01*
X44705134Y-41365134D01*
X44890706Y-41139014D01*
X45024842Y-40888061D01*
X68635000Y-40888061D01*
X68635000Y-41091939D01*
X68674774Y-41291898D01*
X68752795Y-41480256D01*
X68866063Y-41649774D01*
X69010226Y-41793937D01*
X69179744Y-41907205D01*
X69368102Y-41985226D01*
X69568061Y-42025000D01*
X69771939Y-42025000D01*
X69971898Y-41985226D01*
X70160256Y-41907205D01*
X70329774Y-41793937D01*
X70473937Y-41649774D01*
X70587205Y-41480256D01*
X70665226Y-41291898D01*
X70705000Y-41091939D01*
X70705000Y-41029801D01*
X72536003Y-39198799D01*
X72565001Y-39175001D01*
X72591332Y-39142917D01*
X72659974Y-39059277D01*
X72730546Y-38927247D01*
X72774003Y-38783986D01*
X72785000Y-38672333D01*
X72785000Y-38672323D01*
X72788676Y-38635000D01*
X72785000Y-38597677D01*
X72785000Y-38044946D01*
X72858102Y-38075226D01*
X73058061Y-38115000D01*
X73261939Y-38115000D01*
X73461898Y-38075226D01*
X73650256Y-37997205D01*
X73749966Y-37930581D01*
X73819744Y-37977205D01*
X74008102Y-38055226D01*
X74208061Y-38095000D01*
X74411939Y-38095000D01*
X74611898Y-38055226D01*
X74800256Y-37977205D01*
X74847517Y-37945626D01*
X74909744Y-37987205D01*
X75098102Y-38065226D01*
X75298061Y-38105000D01*
X75501939Y-38105000D01*
X75701898Y-38065226D01*
X75890256Y-37987205D01*
X76059774Y-37873937D01*
X76203937Y-37729774D01*
X76317205Y-37560256D01*
X76395226Y-37371898D01*
X76435000Y-37171939D01*
X76435000Y-36968061D01*
X76395226Y-36768102D01*
X76317205Y-36579744D01*
X76316811Y-36579154D01*
X76325812Y-36549482D01*
X76338072Y-36425000D01*
X76338072Y-34425000D01*
X76325812Y-34300518D01*
X76302904Y-34225000D01*
X78486928Y-34225000D01*
X78486928Y-35625000D01*
X78499188Y-35749482D01*
X78535498Y-35869180D01*
X78594463Y-35979494D01*
X78673815Y-36076185D01*
X78770506Y-36155537D01*
X78880820Y-36214502D01*
X79000518Y-36250812D01*
X79125000Y-36263072D01*
X80725000Y-36263072D01*
X80849482Y-36250812D01*
X80969180Y-36214502D01*
X81079494Y-36155537D01*
X81176185Y-36076185D01*
X81255537Y-35979494D01*
X81314502Y-35869180D01*
X81350812Y-35749482D01*
X81363072Y-35625000D01*
X81363072Y-34225000D01*
X81350812Y-34100518D01*
X81314502Y-33980820D01*
X81255537Y-33870506D01*
X81176185Y-33773815D01*
X81079494Y-33694463D01*
X80969180Y-33635498D01*
X80849482Y-33599188D01*
X80725000Y-33586928D01*
X79125000Y-33586928D01*
X79000518Y-33599188D01*
X78880820Y-33635498D01*
X78770506Y-33694463D01*
X78673815Y-33773815D01*
X78594463Y-33870506D01*
X78535498Y-33980820D01*
X78499188Y-34100518D01*
X78486928Y-34225000D01*
X76302904Y-34225000D01*
X76289502Y-34180820D01*
X76230537Y-34070506D01*
X76151185Y-33973815D01*
X76054494Y-33894463D01*
X75944180Y-33835498D01*
X75824482Y-33799188D01*
X75700000Y-33786928D01*
X74950000Y-33786928D01*
X74825518Y-33799188D01*
X74775000Y-33814512D01*
X74724482Y-33799188D01*
X74600000Y-33786928D01*
X73850000Y-33786928D01*
X73725518Y-33799188D01*
X73675000Y-33814512D01*
X73624482Y-33799188D01*
X73500000Y-33786928D01*
X72790000Y-33786928D01*
X72790000Y-33073711D01*
X72873937Y-32989774D01*
X72987205Y-32820256D01*
X73065226Y-32631898D01*
X73105000Y-32431939D01*
X73105000Y-32228061D01*
X73065226Y-32028102D01*
X72987205Y-31839744D01*
X72873937Y-31670226D01*
X72729774Y-31526063D01*
X72560256Y-31412795D01*
X72371898Y-31334774D01*
X72171939Y-31295000D01*
X71968061Y-31295000D01*
X71768102Y-31334774D01*
X71579744Y-31412795D01*
X71410226Y-31526063D01*
X71266063Y-31670226D01*
X71152795Y-31839744D01*
X71074774Y-32028102D01*
X71035000Y-32228061D01*
X71035000Y-32431939D01*
X71074774Y-32631898D01*
X71152795Y-32820256D01*
X71266063Y-32989774D01*
X71270001Y-32993712D01*
X71270000Y-33786928D01*
X70550000Y-33786928D01*
X70425518Y-33799188D01*
X70375000Y-33814512D01*
X70324482Y-33799188D01*
X70200000Y-33786928D01*
X70110750Y-33790000D01*
X69952000Y-33948750D01*
X69952000Y-34208834D01*
X69924188Y-34300518D01*
X69911928Y-34425000D01*
X69911928Y-36425000D01*
X69924188Y-36549482D01*
X69952000Y-36641166D01*
X69952000Y-36901250D01*
X69967246Y-36916496D01*
X69955000Y-36978061D01*
X69955000Y-37181939D01*
X69994774Y-37381898D01*
X70072795Y-37570256D01*
X70186063Y-37739774D01*
X70330226Y-37883937D01*
X70499744Y-37997205D01*
X70688102Y-38075226D01*
X70888061Y-38115000D01*
X71091939Y-38115000D01*
X71265001Y-38080576D01*
X71265001Y-38320197D01*
X69630199Y-39955000D01*
X69568061Y-39955000D01*
X69368102Y-39994774D01*
X69179744Y-40072795D01*
X69010226Y-40186063D01*
X68866063Y-40330226D01*
X68752795Y-40499744D01*
X68674774Y-40688102D01*
X68635000Y-40888061D01*
X45024842Y-40888061D01*
X45028599Y-40881034D01*
X45113513Y-40601111D01*
X45142185Y-40310000D01*
X45113513Y-40018889D01*
X45028599Y-39738966D01*
X44890706Y-39480986D01*
X44705134Y-39254866D01*
X44479014Y-39069294D01*
X44221034Y-38931401D01*
X43941111Y-38846487D01*
X43722950Y-38825000D01*
X43277050Y-38825000D01*
X43058889Y-38846487D01*
X42778966Y-38931401D01*
X42520986Y-39069294D01*
X42294866Y-39254866D01*
X42109294Y-39480986D01*
X41971401Y-39738966D01*
X41886487Y-40018889D01*
X41857815Y-40310000D01*
X41300000Y-40310000D01*
X41300000Y-38653847D01*
X50958065Y-38653847D01*
X51006031Y-38933159D01*
X51107566Y-39197747D01*
X51258769Y-39437442D01*
X51453829Y-39643033D01*
X51685250Y-39806619D01*
X51944138Y-39921914D01*
X52050961Y-39941904D01*
X52273000Y-39819915D01*
X52273000Y-38427000D01*
X51118322Y-38427000D01*
X50958065Y-38653847D01*
X41300000Y-38653847D01*
X41300000Y-37946153D01*
X50958065Y-37946153D01*
X51118322Y-38173000D01*
X52273000Y-38173000D01*
X52273000Y-36780085D01*
X52050961Y-36658096D01*
X51944138Y-36678086D01*
X51685250Y-36793381D01*
X51453829Y-36956967D01*
X51258769Y-37162558D01*
X51107566Y-37402253D01*
X51006031Y-37666841D01*
X50958065Y-37946153D01*
X41300000Y-37946153D01*
X41300000Y-33730000D01*
X41861928Y-33730000D01*
X41861928Y-34930000D01*
X41878992Y-35103254D01*
X41929528Y-35269850D01*
X42011595Y-35423386D01*
X42122038Y-35557962D01*
X42256614Y-35668405D01*
X42410150Y-35750472D01*
X42576746Y-35801008D01*
X42750000Y-35818072D01*
X44250000Y-35818072D01*
X44423254Y-35801008D01*
X44589850Y-35750472D01*
X44743386Y-35668405D01*
X44877962Y-35557962D01*
X44988405Y-35423386D01*
X45070472Y-35269850D01*
X45121008Y-35103254D01*
X45138072Y-34930000D01*
X45138072Y-33730000D01*
X45121008Y-33556746D01*
X45070472Y-33390150D01*
X44988405Y-33236614D01*
X44877962Y-33102038D01*
X44743386Y-32991595D01*
X44641407Y-32937086D01*
X44641795Y-32936802D01*
X44838664Y-32722046D01*
X44989854Y-32473009D01*
X45089554Y-32199261D01*
X45091476Y-32186890D01*
X44970155Y-31957000D01*
X43627000Y-31957000D01*
X43627000Y-31977000D01*
X43373000Y-31977000D01*
X43373000Y-31957000D01*
X42029845Y-31957000D01*
X41908524Y-32186890D01*
X41910446Y-32199261D01*
X42010146Y-32473009D01*
X42161336Y-32722046D01*
X42358205Y-32936802D01*
X42358593Y-32937086D01*
X42256614Y-32991595D01*
X42122038Y-33102038D01*
X42011595Y-33236614D01*
X41929528Y-33390150D01*
X41878992Y-33556746D01*
X41861928Y-33730000D01*
X41300000Y-33730000D01*
X41300000Y-31473110D01*
X41908524Y-31473110D01*
X42029845Y-31703000D01*
X43373000Y-31703000D01*
X43373000Y-30502768D01*
X43627000Y-30502768D01*
X43627000Y-31703000D01*
X44970155Y-31703000D01*
X44996094Y-31653847D01*
X50958065Y-31653847D01*
X51006031Y-31933159D01*
X51107566Y-32197747D01*
X51258769Y-32437442D01*
X51453829Y-32643033D01*
X51685250Y-32806619D01*
X51944138Y-32921914D01*
X52050961Y-32941904D01*
X52273000Y-32819915D01*
X52273000Y-31427000D01*
X51118322Y-31427000D01*
X50958065Y-31653847D01*
X44996094Y-31653847D01*
X45091476Y-31473110D01*
X45089554Y-31460739D01*
X44989854Y-31186991D01*
X44843642Y-30946153D01*
X50958065Y-30946153D01*
X51118322Y-31173000D01*
X52273000Y-31173000D01*
X52273000Y-29780085D01*
X52527000Y-29780085D01*
X52527000Y-31173000D01*
X52547000Y-31173000D01*
X52547000Y-31427000D01*
X52527000Y-31427000D01*
X52527000Y-32819915D01*
X52749039Y-32941904D01*
X52855862Y-32921914D01*
X53114750Y-32806619D01*
X53346171Y-32643033D01*
X53541231Y-32437442D01*
X53684095Y-32210967D01*
X53703489Y-32274901D01*
X53818167Y-32489449D01*
X53972498Y-32677502D01*
X54121762Y-32800000D01*
X53972498Y-32922498D01*
X53818167Y-33110551D01*
X53703489Y-33325099D01*
X53632870Y-33557898D01*
X53609025Y-33800000D01*
X53632870Y-34042102D01*
X53703489Y-34274901D01*
X53818167Y-34489449D01*
X53972498Y-34677502D01*
X54121762Y-34800000D01*
X53972498Y-34922498D01*
X53818167Y-35110551D01*
X53703489Y-35325099D01*
X53632870Y-35557898D01*
X53609025Y-35800000D01*
X53632870Y-36042102D01*
X53703489Y-36274901D01*
X53818167Y-36489449D01*
X53972498Y-36677502D01*
X54122348Y-36800481D01*
X54058275Y-36843693D01*
X53886922Y-37016526D01*
X53752579Y-37219467D01*
X53683549Y-37388168D01*
X53541231Y-37162558D01*
X53346171Y-36956967D01*
X53114750Y-36793381D01*
X52855862Y-36678086D01*
X52749039Y-36658096D01*
X52527000Y-36780085D01*
X52527000Y-38173000D01*
X52547000Y-38173000D01*
X52547000Y-38427000D01*
X52527000Y-38427000D01*
X52527000Y-39819915D01*
X52749039Y-39941904D01*
X52855862Y-39921914D01*
X53114750Y-39806619D01*
X53346171Y-39643033D01*
X53541231Y-39437442D01*
X53692434Y-39197747D01*
X53793969Y-38933159D01*
X53841935Y-38653847D01*
X53681679Y-38427002D01*
X53783341Y-38427002D01*
X53886922Y-38583474D01*
X54058275Y-38756307D01*
X54260054Y-38892390D01*
X54484504Y-38986493D01*
X54723000Y-39035000D01*
X55023000Y-39035000D01*
X55023000Y-37927000D01*
X55003000Y-37927000D01*
X55003000Y-37673000D01*
X55023000Y-37673000D01*
X55023000Y-37653000D01*
X55277000Y-37653000D01*
X55277000Y-37673000D01*
X55297000Y-37673000D01*
X55297000Y-37927000D01*
X55277000Y-37927000D01*
X55277000Y-39035000D01*
X55577000Y-39035000D01*
X55815496Y-38986493D01*
X56039946Y-38892390D01*
X56241725Y-38756307D01*
X56413078Y-38583474D01*
X56516659Y-38427002D01*
X56618321Y-38427002D01*
X56458065Y-38653847D01*
X56506031Y-38933159D01*
X56607566Y-39197747D01*
X56758769Y-39437442D01*
X56953829Y-39643033D01*
X57185250Y-39806619D01*
X57444138Y-39921914D01*
X57550961Y-39941904D01*
X57773000Y-39819915D01*
X57773000Y-38427000D01*
X58027000Y-38427000D01*
X58027000Y-39819915D01*
X58249039Y-39941904D01*
X58355862Y-39921914D01*
X58614750Y-39806619D01*
X58846171Y-39643033D01*
X59041231Y-39437442D01*
X59192434Y-39197747D01*
X59293969Y-38933159D01*
X59341935Y-38653847D01*
X59181678Y-38427000D01*
X58027000Y-38427000D01*
X57773000Y-38427000D01*
X57753000Y-38427000D01*
X57753000Y-38173000D01*
X57773000Y-38173000D01*
X57773000Y-36780085D01*
X58027000Y-36780085D01*
X58027000Y-38173000D01*
X59181678Y-38173000D01*
X59341935Y-37946153D01*
X59293969Y-37666841D01*
X59192434Y-37402253D01*
X59041231Y-37162558D01*
X58846171Y-36956967D01*
X58614750Y-36793381D01*
X58355862Y-36678086D01*
X58249039Y-36658096D01*
X58027000Y-36780085D01*
X57773000Y-36780085D01*
X57550961Y-36658096D01*
X57444138Y-36678086D01*
X57185250Y-36793381D01*
X56953829Y-36956967D01*
X56758769Y-37162558D01*
X56616451Y-37388168D01*
X56547421Y-37219467D01*
X56413078Y-37016526D01*
X56241725Y-36843693D01*
X56177652Y-36800481D01*
X56327502Y-36677502D01*
X56481833Y-36489449D01*
X56596511Y-36274901D01*
X56667130Y-36042102D01*
X56690975Y-35800000D01*
X56667130Y-35557898D01*
X56596511Y-35325099D01*
X56481833Y-35110551D01*
X56327502Y-34922498D01*
X56178238Y-34800000D01*
X56327502Y-34677502D01*
X56423933Y-34560000D01*
X61060884Y-34560000D01*
X61838729Y-35337845D01*
X61784774Y-35468102D01*
X61745000Y-35668061D01*
X61745000Y-35871939D01*
X61784774Y-36071898D01*
X61862795Y-36260256D01*
X61976063Y-36429774D01*
X62120226Y-36573937D01*
X62289744Y-36687205D01*
X62478102Y-36765226D01*
X62678061Y-36805000D01*
X62881939Y-36805000D01*
X63081898Y-36765226D01*
X63270256Y-36687205D01*
X63439774Y-36573937D01*
X63583937Y-36429774D01*
X63697205Y-36260256D01*
X63775226Y-36071898D01*
X63793839Y-35978326D01*
X63794463Y-35979494D01*
X63873815Y-36076185D01*
X63970506Y-36155537D01*
X64080820Y-36214502D01*
X64200518Y-36250812D01*
X64325000Y-36263072D01*
X65512624Y-36263072D01*
X65511928Y-36425000D01*
X65524188Y-36549482D01*
X65560498Y-36669180D01*
X65619463Y-36779494D01*
X65698815Y-36876185D01*
X65795506Y-36955537D01*
X65905820Y-37014502D01*
X66025518Y-37050812D01*
X66150000Y-37063072D01*
X66239250Y-37060000D01*
X66398000Y-36901250D01*
X66398000Y-36049603D01*
X66455537Y-35979494D01*
X66514502Y-35869180D01*
X66550812Y-35749482D01*
X66563072Y-35625000D01*
X66563072Y-35278000D01*
X66611928Y-35278000D01*
X66611928Y-36425000D01*
X66624188Y-36549482D01*
X66652000Y-36641166D01*
X66652000Y-36698231D01*
X66614774Y-36788102D01*
X66575000Y-36988061D01*
X66575000Y-37191939D01*
X66614774Y-37391898D01*
X66692795Y-37580256D01*
X66806063Y-37749774D01*
X66950226Y-37893937D01*
X67119744Y-38007205D01*
X67308102Y-38085226D01*
X67508061Y-38125000D01*
X67711939Y-38125000D01*
X67911898Y-38085226D01*
X68100256Y-38007205D01*
X68195000Y-37943899D01*
X68289744Y-38007205D01*
X68478102Y-38085226D01*
X68678061Y-38125000D01*
X68881939Y-38125000D01*
X69081898Y-38085226D01*
X69270256Y-38007205D01*
X69439774Y-37893937D01*
X69583937Y-37749774D01*
X69697205Y-37580256D01*
X69775226Y-37391898D01*
X69815000Y-37191939D01*
X69815000Y-36988061D01*
X69775226Y-36788102D01*
X69704917Y-36618363D01*
X69725812Y-36549482D01*
X69738072Y-36425000D01*
X69738072Y-34425000D01*
X69725812Y-34300518D01*
X69698000Y-34208834D01*
X69698000Y-33948750D01*
X69539250Y-33790000D01*
X69450000Y-33786928D01*
X69325518Y-33799188D01*
X69275000Y-33814512D01*
X69224482Y-33799188D01*
X69100000Y-33786928D01*
X68350000Y-33786928D01*
X68225518Y-33799188D01*
X68175000Y-33814512D01*
X68124482Y-33799188D01*
X68000000Y-33786928D01*
X67250000Y-33786928D01*
X67125518Y-33799188D01*
X67079981Y-33813001D01*
X67115000Y-33636949D01*
X67115000Y-33433071D01*
X67075226Y-33233112D01*
X66997205Y-33044754D01*
X66883937Y-32875236D01*
X66798706Y-32790005D01*
X66883937Y-32704774D01*
X66997205Y-32535256D01*
X67075226Y-32346898D01*
X67115000Y-32146939D01*
X67115000Y-31943061D01*
X67075226Y-31743102D01*
X66997205Y-31554744D01*
X66883937Y-31385226D01*
X66739774Y-31241063D01*
X66570256Y-31127795D01*
X66381898Y-31049774D01*
X66181939Y-31010000D01*
X65978061Y-31010000D01*
X65778102Y-31049774D01*
X65589744Y-31127795D01*
X65420226Y-31241063D01*
X65276063Y-31385226D01*
X65162795Y-31554744D01*
X65084774Y-31743102D01*
X65045000Y-31943061D01*
X65045000Y-32146939D01*
X65084774Y-32346898D01*
X65162795Y-32535256D01*
X65276063Y-32704774D01*
X65361294Y-32790005D01*
X65276063Y-32875236D01*
X65162795Y-33044754D01*
X65084774Y-33233112D01*
X65045000Y-33433071D01*
X65045000Y-33586928D01*
X64325000Y-33586928D01*
X64200518Y-33599188D01*
X64080820Y-33635498D01*
X63970506Y-33694463D01*
X63873815Y-33773815D01*
X63794463Y-33870506D01*
X63735498Y-33980820D01*
X63699188Y-34100518D01*
X63686928Y-34225000D01*
X63686928Y-35264363D01*
X63583937Y-35110226D01*
X63528987Y-35055276D01*
X63485546Y-34912068D01*
X63414974Y-34780039D01*
X63320001Y-34664314D01*
X63291003Y-34640516D01*
X61939489Y-33289003D01*
X61915686Y-33259999D01*
X61799961Y-33165026D01*
X61667932Y-33094454D01*
X61524671Y-33050997D01*
X61413018Y-33040000D01*
X61413007Y-33040000D01*
X61375685Y-33036324D01*
X61338363Y-33040000D01*
X56423933Y-33040000D01*
X56327502Y-32922498D01*
X56178238Y-32800000D01*
X56327502Y-32677502D01*
X56481833Y-32489449D01*
X56596511Y-32274901D01*
X56615905Y-32210967D01*
X56758769Y-32437442D01*
X56953829Y-32643033D01*
X57185250Y-32806619D01*
X57444138Y-32921914D01*
X57550961Y-32941904D01*
X57773000Y-32819915D01*
X57773000Y-31427000D01*
X58027000Y-31427000D01*
X58027000Y-32819915D01*
X58249039Y-32941904D01*
X58355862Y-32921914D01*
X58614750Y-32806619D01*
X58846171Y-32643033D01*
X59041231Y-32437442D01*
X59192434Y-32197747D01*
X59293969Y-31933159D01*
X59341935Y-31653847D01*
X59181678Y-31427000D01*
X58027000Y-31427000D01*
X57773000Y-31427000D01*
X57753000Y-31427000D01*
X57753000Y-31173000D01*
X57773000Y-31173000D01*
X57773000Y-29780085D01*
X58027000Y-29780085D01*
X58027000Y-31173000D01*
X59181678Y-31173000D01*
X59341935Y-30946153D01*
X59293969Y-30666841D01*
X59192434Y-30402253D01*
X59041231Y-30162558D01*
X58846171Y-29956967D01*
X58614750Y-29793381D01*
X58355862Y-29678086D01*
X58249039Y-29658096D01*
X58027000Y-29780085D01*
X57773000Y-29780085D01*
X57550961Y-29658096D01*
X57444138Y-29678086D01*
X57185250Y-29793381D01*
X56953829Y-29956967D01*
X56758769Y-30162558D01*
X56607566Y-30402253D01*
X56506031Y-30666841D01*
X56458065Y-30946153D01*
X56618321Y-31172998D01*
X56515212Y-31172998D01*
X56481833Y-31110551D01*
X56327502Y-30922498D01*
X56139449Y-30768167D01*
X55924901Y-30653489D01*
X55692102Y-30582870D01*
X55510665Y-30565000D01*
X54789335Y-30565000D01*
X54607898Y-30582870D01*
X54375099Y-30653489D01*
X54160551Y-30768167D01*
X53972498Y-30922498D01*
X53818167Y-31110551D01*
X53784788Y-31172998D01*
X53681679Y-31172998D01*
X53841935Y-30946153D01*
X53793969Y-30666841D01*
X53692434Y-30402253D01*
X53541231Y-30162558D01*
X53346171Y-29956967D01*
X53114750Y-29793381D01*
X52855862Y-29678086D01*
X52749039Y-29658096D01*
X52527000Y-29780085D01*
X52273000Y-29780085D01*
X52050961Y-29658096D01*
X51944138Y-29678086D01*
X51685250Y-29793381D01*
X51453829Y-29956967D01*
X51258769Y-30162558D01*
X51107566Y-30402253D01*
X51006031Y-30666841D01*
X50958065Y-30946153D01*
X44843642Y-30946153D01*
X44838664Y-30937954D01*
X44641795Y-30723198D01*
X44406812Y-30550975D01*
X44142745Y-30427904D01*
X43859742Y-30358715D01*
X43627000Y-30502768D01*
X43373000Y-30502768D01*
X43140258Y-30358715D01*
X42857255Y-30427904D01*
X42593188Y-30550975D01*
X42358205Y-30723198D01*
X42161336Y-30937954D01*
X42010146Y-31186991D01*
X41910446Y-31460739D01*
X41908524Y-31473110D01*
X41300000Y-31473110D01*
X41300000Y-28100881D01*
X43198724Y-28100881D01*
X43558912Y-28590548D01*
X44222882Y-28950849D01*
X44944385Y-29174694D01*
X45695695Y-29253480D01*
X46447938Y-29184178D01*
X47172208Y-28969452D01*
X47840670Y-28617555D01*
X47881088Y-28590548D01*
X48241276Y-28100881D01*
X45720000Y-25579605D01*
X43198724Y-28100881D01*
X41300000Y-28100881D01*
X41300000Y-25375695D01*
X41866520Y-25375695D01*
X41935822Y-26127938D01*
X42150548Y-26852208D01*
X42502445Y-27520670D01*
X42529452Y-27561088D01*
X43019119Y-27921276D01*
X45540395Y-25400000D01*
X45899605Y-25400000D01*
X48420881Y-27921276D01*
X48910548Y-27561088D01*
X49140677Y-27137000D01*
X67295000Y-27137000D01*
X67295000Y-27412000D01*
X67345908Y-27674883D01*
X67447124Y-27922783D01*
X67594758Y-28146173D01*
X67783137Y-28336469D01*
X68005021Y-28486357D01*
X68251883Y-28590078D01*
X68317742Y-28602519D01*
X68528000Y-28479518D01*
X68528000Y-27137000D01*
X68782000Y-27137000D01*
X68782000Y-28479518D01*
X68992258Y-28602519D01*
X69058117Y-28590078D01*
X69304979Y-28486357D01*
X69526863Y-28336469D01*
X69715242Y-28146173D01*
X69862876Y-27922783D01*
X69964092Y-27674883D01*
X70015000Y-27412000D01*
X70015000Y-27137000D01*
X74745000Y-27137000D01*
X74745000Y-27412000D01*
X74795908Y-27674883D01*
X74897124Y-27922783D01*
X75044758Y-28146173D01*
X75233137Y-28336469D01*
X75455021Y-28486357D01*
X75701883Y-28590078D01*
X75767742Y-28602519D01*
X75978000Y-28479518D01*
X75978000Y-27137000D01*
X76232000Y-27137000D01*
X76232000Y-28479518D01*
X76442258Y-28602519D01*
X76508117Y-28590078D01*
X76754979Y-28486357D01*
X76976863Y-28336469D01*
X77165242Y-28146173D01*
X77195174Y-28100881D01*
X81438724Y-28100881D01*
X81798912Y-28590548D01*
X82462882Y-28950849D01*
X83184385Y-29174694D01*
X83935695Y-29253480D01*
X84687938Y-29184178D01*
X85412208Y-28969452D01*
X86080670Y-28617555D01*
X86121088Y-28590548D01*
X86481276Y-28100881D01*
X83960000Y-25579605D01*
X81438724Y-28100881D01*
X77195174Y-28100881D01*
X77312876Y-27922783D01*
X77414092Y-27674883D01*
X77465000Y-27412000D01*
X77465000Y-27137000D01*
X76232000Y-27137000D01*
X75978000Y-27137000D01*
X74745000Y-27137000D01*
X70015000Y-27137000D01*
X68782000Y-27137000D01*
X68528000Y-27137000D01*
X67295000Y-27137000D01*
X49140677Y-27137000D01*
X49270849Y-26897118D01*
X49494694Y-26175615D01*
X49573480Y-25424305D01*
X49504178Y-24672062D01*
X49371637Y-24225000D01*
X64086928Y-24225000D01*
X64086928Y-26425000D01*
X64099188Y-26549482D01*
X64135498Y-26669180D01*
X64194463Y-26779494D01*
X64273815Y-26876185D01*
X64370506Y-26955537D01*
X64480820Y-27014502D01*
X64600518Y-27050812D01*
X64725000Y-27063072D01*
X65925000Y-27063072D01*
X66049482Y-27050812D01*
X66169180Y-27014502D01*
X66279494Y-26955537D01*
X66376185Y-26876185D01*
X66455537Y-26779494D01*
X66514502Y-26669180D01*
X66550812Y-26549482D01*
X66563072Y-26425000D01*
X66563072Y-24820599D01*
X67065000Y-24820599D01*
X67065000Y-25029401D01*
X67105735Y-25234191D01*
X67185640Y-25427098D01*
X67301644Y-25600711D01*
X67449289Y-25748356D01*
X67611603Y-25856810D01*
X67594758Y-25873827D01*
X67447124Y-26097217D01*
X67345908Y-26345117D01*
X67295000Y-26608000D01*
X67295000Y-26883000D01*
X68528000Y-26883000D01*
X68528000Y-26863000D01*
X68782000Y-26863000D01*
X68782000Y-26883000D01*
X69411211Y-26883000D01*
X69482007Y-26920841D01*
X69677105Y-26980024D01*
X69829162Y-26995000D01*
X69930838Y-26995000D01*
X70082895Y-26980024D01*
X70277993Y-26920841D01*
X70457797Y-26824734D01*
X70615396Y-26695396D01*
X70744734Y-26537797D01*
X70840841Y-26357993D01*
X70900024Y-26162895D01*
X70920007Y-25960000D01*
X73839993Y-25960000D01*
X73859976Y-26162895D01*
X73919159Y-26357993D01*
X74015266Y-26537797D01*
X74144604Y-26695396D01*
X74302203Y-26824734D01*
X74482007Y-26920841D01*
X74677105Y-26980024D01*
X74829162Y-26995000D01*
X74930838Y-26995000D01*
X75082895Y-26980024D01*
X75277993Y-26920841D01*
X75348789Y-26883000D01*
X75978000Y-26883000D01*
X75978000Y-26863000D01*
X76232000Y-26863000D01*
X76232000Y-26883000D01*
X77465000Y-26883000D01*
X77465000Y-26608000D01*
X77414092Y-26345117D01*
X77312876Y-26097217D01*
X77165242Y-25873827D01*
X76976863Y-25683531D01*
X76910420Y-25638647D01*
X76948356Y-25600711D01*
X77064360Y-25427098D01*
X77144265Y-25234191D01*
X77185000Y-25029401D01*
X77185000Y-24820599D01*
X77144265Y-24615809D01*
X77068620Y-24433187D01*
X77190521Y-24312837D01*
X77250028Y-24225000D01*
X79586928Y-24225000D01*
X79586928Y-26425000D01*
X79599188Y-26549482D01*
X79635498Y-26669180D01*
X79694463Y-26779494D01*
X79773815Y-26876185D01*
X79870506Y-26955537D01*
X79980820Y-27014502D01*
X80100518Y-27050812D01*
X80225000Y-27063072D01*
X80501553Y-27063072D01*
X80742445Y-27520670D01*
X80769452Y-27561088D01*
X81259119Y-27921276D01*
X83780395Y-25400000D01*
X84139605Y-25400000D01*
X86660881Y-27921276D01*
X87150548Y-27561088D01*
X87510849Y-26897118D01*
X87734694Y-26175615D01*
X87813480Y-25424305D01*
X87744178Y-24672062D01*
X87529452Y-23947792D01*
X87177555Y-23279330D01*
X87150548Y-23238912D01*
X86660881Y-22878724D01*
X84139605Y-25400000D01*
X83780395Y-25400000D01*
X81259119Y-22878724D01*
X80769452Y-23238912D01*
X80580602Y-23586928D01*
X80225000Y-23586928D01*
X80100518Y-23599188D01*
X79980820Y-23635498D01*
X79870506Y-23694463D01*
X79773815Y-23773815D01*
X79694463Y-23870506D01*
X79635498Y-23980820D01*
X79599188Y-24100518D01*
X79586928Y-24225000D01*
X77250028Y-24225000D01*
X77324294Y-24115380D01*
X77416974Y-23895619D01*
X77465000Y-23662000D01*
X77465000Y-23337000D01*
X76382000Y-23337000D01*
X76382000Y-23357000D01*
X76128000Y-23357000D01*
X76128000Y-23337000D01*
X75045000Y-23337000D01*
X75045000Y-23662000D01*
X75093026Y-23895619D01*
X75185706Y-24115380D01*
X75289122Y-24268029D01*
X75185640Y-24422902D01*
X75105735Y-24615809D01*
X75065000Y-24820599D01*
X75065000Y-24938214D01*
X74930838Y-24925000D01*
X74829162Y-24925000D01*
X74677105Y-24939976D01*
X74482007Y-24999159D01*
X74302203Y-25095266D01*
X74144604Y-25224604D01*
X74015266Y-25382203D01*
X73919159Y-25562007D01*
X73859976Y-25757105D01*
X73839993Y-25960000D01*
X70920007Y-25960000D01*
X70900024Y-25757105D01*
X70840841Y-25562007D01*
X70744734Y-25382203D01*
X70615396Y-25224604D01*
X70457797Y-25095266D01*
X70277993Y-24999159D01*
X70082895Y-24939976D01*
X69930838Y-24925000D01*
X69829162Y-24925000D01*
X69677105Y-24939976D01*
X69482007Y-24999159D01*
X69302203Y-25095266D01*
X69146478Y-25223066D01*
X69185000Y-25029401D01*
X69185000Y-24820599D01*
X69144265Y-24615809D01*
X69127335Y-24574938D01*
X69270797Y-24480402D01*
X69440521Y-24312837D01*
X69574294Y-24115380D01*
X69666974Y-23895619D01*
X69715000Y-23662000D01*
X69715000Y-23337000D01*
X68632000Y-23337000D01*
X68632000Y-23357000D01*
X68378000Y-23357000D01*
X68378000Y-23337000D01*
X67295000Y-23337000D01*
X67295000Y-23662000D01*
X67343026Y-23895619D01*
X67435661Y-24115272D01*
X67301644Y-24249289D01*
X67185640Y-24422902D01*
X67105735Y-24615809D01*
X67065000Y-24820599D01*
X66563072Y-24820599D01*
X66563072Y-24225000D01*
X66550812Y-24100518D01*
X66514502Y-23980820D01*
X66455537Y-23870506D01*
X66376185Y-23773815D01*
X66279494Y-23694463D01*
X66169180Y-23635498D01*
X66049482Y-23599188D01*
X65925000Y-23586928D01*
X64725000Y-23586928D01*
X64600518Y-23599188D01*
X64480820Y-23635498D01*
X64370506Y-23694463D01*
X64273815Y-23773815D01*
X64194463Y-23870506D01*
X64135498Y-23980820D01*
X64099188Y-24100518D01*
X64086928Y-24225000D01*
X49371637Y-24225000D01*
X49289452Y-23947792D01*
X48937555Y-23279330D01*
X48910548Y-23238912D01*
X48420881Y-22878724D01*
X45899605Y-25400000D01*
X45540395Y-25400000D01*
X43019119Y-22878724D01*
X42529452Y-23238912D01*
X42169151Y-23902882D01*
X41945306Y-24624385D01*
X41866520Y-25375695D01*
X41300000Y-25375695D01*
X41300000Y-24162279D01*
X41363096Y-23518778D01*
X41540606Y-22930836D01*
X41663812Y-22699119D01*
X43198724Y-22699119D01*
X45720000Y-25220395D01*
X48182395Y-22758000D01*
X67295000Y-22758000D01*
X67295000Y-23083000D01*
X68378000Y-23083000D01*
X68378000Y-21841450D01*
X68632000Y-21841450D01*
X68632000Y-23083000D01*
X69715000Y-23083000D01*
X69715000Y-22758000D01*
X75045000Y-22758000D01*
X75045000Y-23083000D01*
X76128000Y-23083000D01*
X76128000Y-21841450D01*
X76382000Y-21841450D01*
X76382000Y-23083000D01*
X77465000Y-23083000D01*
X77465000Y-22758000D01*
X77452896Y-22699119D01*
X81438724Y-22699119D01*
X83960000Y-25220395D01*
X86481276Y-22699119D01*
X86121088Y-22209452D01*
X85457118Y-21849151D01*
X84735615Y-21625306D01*
X83984305Y-21546520D01*
X83232062Y-21615822D01*
X82507792Y-21830548D01*
X81839330Y-22182445D01*
X81798912Y-22209452D01*
X81438724Y-22699119D01*
X77452896Y-22699119D01*
X77416974Y-22524381D01*
X77324294Y-22304620D01*
X77190521Y-22107163D01*
X77020797Y-21939598D01*
X76821644Y-21808364D01*
X76600715Y-21718504D01*
X76568677Y-21716365D01*
X76382000Y-21841450D01*
X76128000Y-21841450D01*
X75941323Y-21716365D01*
X75909285Y-21718504D01*
X75688356Y-21808364D01*
X75489203Y-21939598D01*
X75319479Y-22107163D01*
X75185706Y-22304620D01*
X75093026Y-22524381D01*
X75045000Y-22758000D01*
X69715000Y-22758000D01*
X69666974Y-22524381D01*
X69574294Y-22304620D01*
X69440521Y-22107163D01*
X69270797Y-21939598D01*
X69071644Y-21808364D01*
X68850715Y-21718504D01*
X68818677Y-21716365D01*
X68632000Y-21841450D01*
X68378000Y-21841450D01*
X68191323Y-21716365D01*
X68159285Y-21718504D01*
X67938356Y-21808364D01*
X67739203Y-21939598D01*
X67569479Y-22107163D01*
X67435706Y-22304620D01*
X67343026Y-22524381D01*
X67295000Y-22758000D01*
X48182395Y-22758000D01*
X48241276Y-22699119D01*
X47881088Y-22209452D01*
X47217118Y-21849151D01*
X46495615Y-21625306D01*
X45744305Y-21546520D01*
X44992062Y-21615822D01*
X44267792Y-21830548D01*
X43599330Y-22182445D01*
X43558912Y-22209452D01*
X43198724Y-22699119D01*
X41663812Y-22699119D01*
X41828937Y-22388564D01*
X42217094Y-21912636D01*
X42690314Y-21521155D01*
X43230552Y-21229049D01*
X43817244Y-21047437D01*
X44458879Y-20980000D01*
X85057721Y-20980000D01*
X85701222Y-21043096D01*
G36*
X58213748Y-62165858D02*
G01*
X58199605Y-62180000D01*
X58213748Y-62194143D01*
X58034143Y-62373748D01*
X58020000Y-62359605D01*
X58005858Y-62373748D01*
X57826253Y-62194143D01*
X57840395Y-62180000D01*
X57826253Y-62165858D01*
X58005858Y-61986253D01*
X58020000Y-62000395D01*
X58034143Y-61986253D01*
X58213748Y-62165858D01*
X58213748Y-62165858D01*
G37*
X58213748Y-62165858D02*
X58199605Y-62180000D01*
X58213748Y-62194143D01*
X58034143Y-62373748D01*
X58020000Y-62359605D01*
X58005858Y-62373748D01*
X57826253Y-62194143D01*
X57840395Y-62180000D01*
X57826253Y-62165858D01*
X58005858Y-61986253D01*
X58020000Y-62000395D01*
X58034143Y-61986253D01*
X58213748Y-62165858D01*
M02*
