G04 #@! TF.GenerationSoftware,KiCad,Pcbnew,(5.1.5)-3*
G04 #@! TF.CreationDate,2020-11-30T13:33:30+08:00*
G04 #@! TF.ProjectId,F1C100s-i80,46314331-3030-4732-9d69-38302e6b6963,rev?*
G04 #@! TF.SameCoordinates,Original*
G04 #@! TF.FileFunction,Soldermask,Bot*
G04 #@! TF.FilePolarity,Negative*
%FSLAX46Y46*%
G04 Gerber Fmt 4.6, Leading zero omitted, Abs format (unit mm)*
G04 Created by KiCad (PCBNEW (5.1.5)-3) date 2020-11-30 13:33:30*
%MOMM*%
%LPD*%
G04 APERTURE LIST*
%ADD10C,0.100000*%
G04 APERTURE END LIST*
D10*
G36*
X83933512Y-95623927D02*
G01*
X84082812Y-95653624D01*
X84246784Y-95721544D01*
X84394354Y-95820147D01*
X84519853Y-95945646D01*
X84618456Y-96093216D01*
X84686376Y-96257188D01*
X84721000Y-96431259D01*
X84721000Y-96608741D01*
X84686376Y-96782812D01*
X84618456Y-96946784D01*
X84519853Y-97094354D01*
X84394354Y-97219853D01*
X84246784Y-97318456D01*
X84082812Y-97386376D01*
X83933512Y-97416073D01*
X83908742Y-97421000D01*
X83731258Y-97421000D01*
X83706488Y-97416073D01*
X83557188Y-97386376D01*
X83393216Y-97318456D01*
X83245646Y-97219853D01*
X83120147Y-97094354D01*
X83021544Y-96946784D01*
X82953624Y-96782812D01*
X82919000Y-96608741D01*
X82919000Y-96431259D01*
X82953624Y-96257188D01*
X83021544Y-96093216D01*
X83120147Y-95945646D01*
X83245646Y-95820147D01*
X83393216Y-95721544D01*
X83557188Y-95653624D01*
X83706488Y-95623927D01*
X83731258Y-95619000D01*
X83908742Y-95619000D01*
X83933512Y-95623927D01*
G37*
G36*
X66153512Y-95623927D02*
G01*
X66302812Y-95653624D01*
X66466784Y-95721544D01*
X66614354Y-95820147D01*
X66739853Y-95945646D01*
X66838456Y-96093216D01*
X66906376Y-96257188D01*
X66941000Y-96431259D01*
X66941000Y-96608741D01*
X66906376Y-96782812D01*
X66838456Y-96946784D01*
X66739853Y-97094354D01*
X66614354Y-97219853D01*
X66466784Y-97318456D01*
X66302812Y-97386376D01*
X66153512Y-97416073D01*
X66128742Y-97421000D01*
X65951258Y-97421000D01*
X65926488Y-97416073D01*
X65777188Y-97386376D01*
X65613216Y-97318456D01*
X65465646Y-97219853D01*
X65340147Y-97094354D01*
X65241544Y-96946784D01*
X65173624Y-96782812D01*
X65139000Y-96608741D01*
X65139000Y-96431259D01*
X65173624Y-96257188D01*
X65241544Y-96093216D01*
X65340147Y-95945646D01*
X65465646Y-95820147D01*
X65613216Y-95721544D01*
X65777188Y-95653624D01*
X65926488Y-95623927D01*
X65951258Y-95619000D01*
X66128742Y-95619000D01*
X66153512Y-95623927D01*
G37*
G36*
X45833512Y-95623927D02*
G01*
X45982812Y-95653624D01*
X46146784Y-95721544D01*
X46294354Y-95820147D01*
X46419853Y-95945646D01*
X46518456Y-96093216D01*
X46586376Y-96257188D01*
X46621000Y-96431259D01*
X46621000Y-96608741D01*
X46586376Y-96782812D01*
X46518456Y-96946784D01*
X46419853Y-97094354D01*
X46294354Y-97219853D01*
X46146784Y-97318456D01*
X45982812Y-97386376D01*
X45833512Y-97416073D01*
X45808742Y-97421000D01*
X45631258Y-97421000D01*
X45606488Y-97416073D01*
X45457188Y-97386376D01*
X45293216Y-97318456D01*
X45145646Y-97219853D01*
X45020147Y-97094354D01*
X44921544Y-96946784D01*
X44853624Y-96782812D01*
X44819000Y-96608741D01*
X44819000Y-96431259D01*
X44853624Y-96257188D01*
X44921544Y-96093216D01*
X45020147Y-95945646D01*
X45145646Y-95820147D01*
X45293216Y-95721544D01*
X45457188Y-95653624D01*
X45606488Y-95623927D01*
X45631258Y-95619000D01*
X45808742Y-95619000D01*
X45833512Y-95623927D01*
G37*
G36*
X48373512Y-95623927D02*
G01*
X48522812Y-95653624D01*
X48686784Y-95721544D01*
X48834354Y-95820147D01*
X48959853Y-95945646D01*
X49058456Y-96093216D01*
X49126376Y-96257188D01*
X49161000Y-96431259D01*
X49161000Y-96608741D01*
X49126376Y-96782812D01*
X49058456Y-96946784D01*
X48959853Y-97094354D01*
X48834354Y-97219853D01*
X48686784Y-97318456D01*
X48522812Y-97386376D01*
X48373512Y-97416073D01*
X48348742Y-97421000D01*
X48171258Y-97421000D01*
X48146488Y-97416073D01*
X47997188Y-97386376D01*
X47833216Y-97318456D01*
X47685646Y-97219853D01*
X47560147Y-97094354D01*
X47461544Y-96946784D01*
X47393624Y-96782812D01*
X47359000Y-96608741D01*
X47359000Y-96431259D01*
X47393624Y-96257188D01*
X47461544Y-96093216D01*
X47560147Y-95945646D01*
X47685646Y-95820147D01*
X47833216Y-95721544D01*
X47997188Y-95653624D01*
X48146488Y-95623927D01*
X48171258Y-95619000D01*
X48348742Y-95619000D01*
X48373512Y-95623927D01*
G37*
G36*
X50913512Y-95623927D02*
G01*
X51062812Y-95653624D01*
X51226784Y-95721544D01*
X51374354Y-95820147D01*
X51499853Y-95945646D01*
X51598456Y-96093216D01*
X51666376Y-96257188D01*
X51701000Y-96431259D01*
X51701000Y-96608741D01*
X51666376Y-96782812D01*
X51598456Y-96946784D01*
X51499853Y-97094354D01*
X51374354Y-97219853D01*
X51226784Y-97318456D01*
X51062812Y-97386376D01*
X50913512Y-97416073D01*
X50888742Y-97421000D01*
X50711258Y-97421000D01*
X50686488Y-97416073D01*
X50537188Y-97386376D01*
X50373216Y-97318456D01*
X50225646Y-97219853D01*
X50100147Y-97094354D01*
X50001544Y-96946784D01*
X49933624Y-96782812D01*
X49899000Y-96608741D01*
X49899000Y-96431259D01*
X49933624Y-96257188D01*
X50001544Y-96093216D01*
X50100147Y-95945646D01*
X50225646Y-95820147D01*
X50373216Y-95721544D01*
X50537188Y-95653624D01*
X50686488Y-95623927D01*
X50711258Y-95619000D01*
X50888742Y-95619000D01*
X50913512Y-95623927D01*
G37*
G36*
X53453512Y-95623927D02*
G01*
X53602812Y-95653624D01*
X53766784Y-95721544D01*
X53914354Y-95820147D01*
X54039853Y-95945646D01*
X54138456Y-96093216D01*
X54206376Y-96257188D01*
X54241000Y-96431259D01*
X54241000Y-96608741D01*
X54206376Y-96782812D01*
X54138456Y-96946784D01*
X54039853Y-97094354D01*
X53914354Y-97219853D01*
X53766784Y-97318456D01*
X53602812Y-97386376D01*
X53453512Y-97416073D01*
X53428742Y-97421000D01*
X53251258Y-97421000D01*
X53226488Y-97416073D01*
X53077188Y-97386376D01*
X52913216Y-97318456D01*
X52765646Y-97219853D01*
X52640147Y-97094354D01*
X52541544Y-96946784D01*
X52473624Y-96782812D01*
X52439000Y-96608741D01*
X52439000Y-96431259D01*
X52473624Y-96257188D01*
X52541544Y-96093216D01*
X52640147Y-95945646D01*
X52765646Y-95820147D01*
X52913216Y-95721544D01*
X53077188Y-95653624D01*
X53226488Y-95623927D01*
X53251258Y-95619000D01*
X53428742Y-95619000D01*
X53453512Y-95623927D01*
G37*
G36*
X55993512Y-95623927D02*
G01*
X56142812Y-95653624D01*
X56306784Y-95721544D01*
X56454354Y-95820147D01*
X56579853Y-95945646D01*
X56678456Y-96093216D01*
X56746376Y-96257188D01*
X56781000Y-96431259D01*
X56781000Y-96608741D01*
X56746376Y-96782812D01*
X56678456Y-96946784D01*
X56579853Y-97094354D01*
X56454354Y-97219853D01*
X56306784Y-97318456D01*
X56142812Y-97386376D01*
X55993512Y-97416073D01*
X55968742Y-97421000D01*
X55791258Y-97421000D01*
X55766488Y-97416073D01*
X55617188Y-97386376D01*
X55453216Y-97318456D01*
X55305646Y-97219853D01*
X55180147Y-97094354D01*
X55081544Y-96946784D01*
X55013624Y-96782812D01*
X54979000Y-96608741D01*
X54979000Y-96431259D01*
X55013624Y-96257188D01*
X55081544Y-96093216D01*
X55180147Y-95945646D01*
X55305646Y-95820147D01*
X55453216Y-95721544D01*
X55617188Y-95653624D01*
X55766488Y-95623927D01*
X55791258Y-95619000D01*
X55968742Y-95619000D01*
X55993512Y-95623927D01*
G37*
G36*
X58533512Y-95623927D02*
G01*
X58682812Y-95653624D01*
X58846784Y-95721544D01*
X58994354Y-95820147D01*
X59119853Y-95945646D01*
X59218456Y-96093216D01*
X59286376Y-96257188D01*
X59321000Y-96431259D01*
X59321000Y-96608741D01*
X59286376Y-96782812D01*
X59218456Y-96946784D01*
X59119853Y-97094354D01*
X58994354Y-97219853D01*
X58846784Y-97318456D01*
X58682812Y-97386376D01*
X58533512Y-97416073D01*
X58508742Y-97421000D01*
X58331258Y-97421000D01*
X58306488Y-97416073D01*
X58157188Y-97386376D01*
X57993216Y-97318456D01*
X57845646Y-97219853D01*
X57720147Y-97094354D01*
X57621544Y-96946784D01*
X57553624Y-96782812D01*
X57519000Y-96608741D01*
X57519000Y-96431259D01*
X57553624Y-96257188D01*
X57621544Y-96093216D01*
X57720147Y-95945646D01*
X57845646Y-95820147D01*
X57993216Y-95721544D01*
X58157188Y-95653624D01*
X58306488Y-95623927D01*
X58331258Y-95619000D01*
X58508742Y-95619000D01*
X58533512Y-95623927D01*
G37*
G36*
X61073512Y-95623927D02*
G01*
X61222812Y-95653624D01*
X61386784Y-95721544D01*
X61534354Y-95820147D01*
X61659853Y-95945646D01*
X61758456Y-96093216D01*
X61826376Y-96257188D01*
X61861000Y-96431259D01*
X61861000Y-96608741D01*
X61826376Y-96782812D01*
X61758456Y-96946784D01*
X61659853Y-97094354D01*
X61534354Y-97219853D01*
X61386784Y-97318456D01*
X61222812Y-97386376D01*
X61073512Y-97416073D01*
X61048742Y-97421000D01*
X60871258Y-97421000D01*
X60846488Y-97416073D01*
X60697188Y-97386376D01*
X60533216Y-97318456D01*
X60385646Y-97219853D01*
X60260147Y-97094354D01*
X60161544Y-96946784D01*
X60093624Y-96782812D01*
X60059000Y-96608741D01*
X60059000Y-96431259D01*
X60093624Y-96257188D01*
X60161544Y-96093216D01*
X60260147Y-95945646D01*
X60385646Y-95820147D01*
X60533216Y-95721544D01*
X60697188Y-95653624D01*
X60846488Y-95623927D01*
X60871258Y-95619000D01*
X61048742Y-95619000D01*
X61073512Y-95623927D01*
G37*
G36*
X68693512Y-95623927D02*
G01*
X68842812Y-95653624D01*
X69006784Y-95721544D01*
X69154354Y-95820147D01*
X69279853Y-95945646D01*
X69378456Y-96093216D01*
X69446376Y-96257188D01*
X69481000Y-96431259D01*
X69481000Y-96608741D01*
X69446376Y-96782812D01*
X69378456Y-96946784D01*
X69279853Y-97094354D01*
X69154354Y-97219853D01*
X69006784Y-97318456D01*
X68842812Y-97386376D01*
X68693512Y-97416073D01*
X68668742Y-97421000D01*
X68491258Y-97421000D01*
X68466488Y-97416073D01*
X68317188Y-97386376D01*
X68153216Y-97318456D01*
X68005646Y-97219853D01*
X67880147Y-97094354D01*
X67781544Y-96946784D01*
X67713624Y-96782812D01*
X67679000Y-96608741D01*
X67679000Y-96431259D01*
X67713624Y-96257188D01*
X67781544Y-96093216D01*
X67880147Y-95945646D01*
X68005646Y-95820147D01*
X68153216Y-95721544D01*
X68317188Y-95653624D01*
X68466488Y-95623927D01*
X68491258Y-95619000D01*
X68668742Y-95619000D01*
X68693512Y-95623927D01*
G37*
G36*
X71233512Y-95623927D02*
G01*
X71382812Y-95653624D01*
X71546784Y-95721544D01*
X71694354Y-95820147D01*
X71819853Y-95945646D01*
X71918456Y-96093216D01*
X71986376Y-96257188D01*
X72021000Y-96431259D01*
X72021000Y-96608741D01*
X71986376Y-96782812D01*
X71918456Y-96946784D01*
X71819853Y-97094354D01*
X71694354Y-97219853D01*
X71546784Y-97318456D01*
X71382812Y-97386376D01*
X71233512Y-97416073D01*
X71208742Y-97421000D01*
X71031258Y-97421000D01*
X71006488Y-97416073D01*
X70857188Y-97386376D01*
X70693216Y-97318456D01*
X70545646Y-97219853D01*
X70420147Y-97094354D01*
X70321544Y-96946784D01*
X70253624Y-96782812D01*
X70219000Y-96608741D01*
X70219000Y-96431259D01*
X70253624Y-96257188D01*
X70321544Y-96093216D01*
X70420147Y-95945646D01*
X70545646Y-95820147D01*
X70693216Y-95721544D01*
X70857188Y-95653624D01*
X71006488Y-95623927D01*
X71031258Y-95619000D01*
X71208742Y-95619000D01*
X71233512Y-95623927D01*
G37*
G36*
X73773512Y-95623927D02*
G01*
X73922812Y-95653624D01*
X74086784Y-95721544D01*
X74234354Y-95820147D01*
X74359853Y-95945646D01*
X74458456Y-96093216D01*
X74526376Y-96257188D01*
X74561000Y-96431259D01*
X74561000Y-96608741D01*
X74526376Y-96782812D01*
X74458456Y-96946784D01*
X74359853Y-97094354D01*
X74234354Y-97219853D01*
X74086784Y-97318456D01*
X73922812Y-97386376D01*
X73773512Y-97416073D01*
X73748742Y-97421000D01*
X73571258Y-97421000D01*
X73546488Y-97416073D01*
X73397188Y-97386376D01*
X73233216Y-97318456D01*
X73085646Y-97219853D01*
X72960147Y-97094354D01*
X72861544Y-96946784D01*
X72793624Y-96782812D01*
X72759000Y-96608741D01*
X72759000Y-96431259D01*
X72793624Y-96257188D01*
X72861544Y-96093216D01*
X72960147Y-95945646D01*
X73085646Y-95820147D01*
X73233216Y-95721544D01*
X73397188Y-95653624D01*
X73546488Y-95623927D01*
X73571258Y-95619000D01*
X73748742Y-95619000D01*
X73773512Y-95623927D01*
G37*
G36*
X76313512Y-95623927D02*
G01*
X76462812Y-95653624D01*
X76626784Y-95721544D01*
X76774354Y-95820147D01*
X76899853Y-95945646D01*
X76998456Y-96093216D01*
X77066376Y-96257188D01*
X77101000Y-96431259D01*
X77101000Y-96608741D01*
X77066376Y-96782812D01*
X76998456Y-96946784D01*
X76899853Y-97094354D01*
X76774354Y-97219853D01*
X76626784Y-97318456D01*
X76462812Y-97386376D01*
X76313512Y-97416073D01*
X76288742Y-97421000D01*
X76111258Y-97421000D01*
X76086488Y-97416073D01*
X75937188Y-97386376D01*
X75773216Y-97318456D01*
X75625646Y-97219853D01*
X75500147Y-97094354D01*
X75401544Y-96946784D01*
X75333624Y-96782812D01*
X75299000Y-96608741D01*
X75299000Y-96431259D01*
X75333624Y-96257188D01*
X75401544Y-96093216D01*
X75500147Y-95945646D01*
X75625646Y-95820147D01*
X75773216Y-95721544D01*
X75937188Y-95653624D01*
X76086488Y-95623927D01*
X76111258Y-95619000D01*
X76288742Y-95619000D01*
X76313512Y-95623927D01*
G37*
G36*
X78853512Y-95623927D02*
G01*
X79002812Y-95653624D01*
X79166784Y-95721544D01*
X79314354Y-95820147D01*
X79439853Y-95945646D01*
X79538456Y-96093216D01*
X79606376Y-96257188D01*
X79641000Y-96431259D01*
X79641000Y-96608741D01*
X79606376Y-96782812D01*
X79538456Y-96946784D01*
X79439853Y-97094354D01*
X79314354Y-97219853D01*
X79166784Y-97318456D01*
X79002812Y-97386376D01*
X78853512Y-97416073D01*
X78828742Y-97421000D01*
X78651258Y-97421000D01*
X78626488Y-97416073D01*
X78477188Y-97386376D01*
X78313216Y-97318456D01*
X78165646Y-97219853D01*
X78040147Y-97094354D01*
X77941544Y-96946784D01*
X77873624Y-96782812D01*
X77839000Y-96608741D01*
X77839000Y-96431259D01*
X77873624Y-96257188D01*
X77941544Y-96093216D01*
X78040147Y-95945646D01*
X78165646Y-95820147D01*
X78313216Y-95721544D01*
X78477188Y-95653624D01*
X78626488Y-95623927D01*
X78651258Y-95619000D01*
X78828742Y-95619000D01*
X78853512Y-95623927D01*
G37*
G36*
X81393512Y-95623927D02*
G01*
X81542812Y-95653624D01*
X81706784Y-95721544D01*
X81854354Y-95820147D01*
X81979853Y-95945646D01*
X82078456Y-96093216D01*
X82146376Y-96257188D01*
X82181000Y-96431259D01*
X82181000Y-96608741D01*
X82146376Y-96782812D01*
X82078456Y-96946784D01*
X81979853Y-97094354D01*
X81854354Y-97219853D01*
X81706784Y-97318456D01*
X81542812Y-97386376D01*
X81393512Y-97416073D01*
X81368742Y-97421000D01*
X81191258Y-97421000D01*
X81166488Y-97416073D01*
X81017188Y-97386376D01*
X80853216Y-97318456D01*
X80705646Y-97219853D01*
X80580147Y-97094354D01*
X80481544Y-96946784D01*
X80413624Y-96782812D01*
X80379000Y-96608741D01*
X80379000Y-96431259D01*
X80413624Y-96257188D01*
X80481544Y-96093216D01*
X80580147Y-95945646D01*
X80705646Y-95820147D01*
X80853216Y-95721544D01*
X81017188Y-95653624D01*
X81166488Y-95623927D01*
X81191258Y-95619000D01*
X81368742Y-95619000D01*
X81393512Y-95623927D01*
G37*
G36*
X63613512Y-95623927D02*
G01*
X63762812Y-95653624D01*
X63926784Y-95721544D01*
X64074354Y-95820147D01*
X64199853Y-95945646D01*
X64298456Y-96093216D01*
X64366376Y-96257188D01*
X64401000Y-96431259D01*
X64401000Y-96608741D01*
X64366376Y-96782812D01*
X64298456Y-96946784D01*
X64199853Y-97094354D01*
X64074354Y-97219853D01*
X63926784Y-97318456D01*
X63762812Y-97386376D01*
X63613512Y-97416073D01*
X63588742Y-97421000D01*
X63411258Y-97421000D01*
X63386488Y-97416073D01*
X63237188Y-97386376D01*
X63073216Y-97318456D01*
X62925646Y-97219853D01*
X62800147Y-97094354D01*
X62701544Y-96946784D01*
X62633624Y-96782812D01*
X62599000Y-96608741D01*
X62599000Y-96431259D01*
X62633624Y-96257188D01*
X62701544Y-96093216D01*
X62800147Y-95945646D01*
X62925646Y-95820147D01*
X63073216Y-95721544D01*
X63237188Y-95653624D01*
X63386488Y-95623927D01*
X63411258Y-95619000D01*
X63588742Y-95619000D01*
X63613512Y-95623927D01*
G37*
G36*
X68693512Y-93083927D02*
G01*
X68842812Y-93113624D01*
X69006784Y-93181544D01*
X69154354Y-93280147D01*
X69279853Y-93405646D01*
X69378456Y-93553216D01*
X69446376Y-93717188D01*
X69481000Y-93891259D01*
X69481000Y-94068741D01*
X69446376Y-94242812D01*
X69378456Y-94406784D01*
X69279853Y-94554354D01*
X69154354Y-94679853D01*
X69006784Y-94778456D01*
X68842812Y-94846376D01*
X68693512Y-94876073D01*
X68668742Y-94881000D01*
X68491258Y-94881000D01*
X68466488Y-94876073D01*
X68317188Y-94846376D01*
X68153216Y-94778456D01*
X68005646Y-94679853D01*
X67880147Y-94554354D01*
X67781544Y-94406784D01*
X67713624Y-94242812D01*
X67679000Y-94068741D01*
X67679000Y-93891259D01*
X67713624Y-93717188D01*
X67781544Y-93553216D01*
X67880147Y-93405646D01*
X68005646Y-93280147D01*
X68153216Y-93181544D01*
X68317188Y-93113624D01*
X68466488Y-93083927D01*
X68491258Y-93079000D01*
X68668742Y-93079000D01*
X68693512Y-93083927D01*
G37*
G36*
X46621000Y-94881000D02*
G01*
X44819000Y-94881000D01*
X44819000Y-93079000D01*
X46621000Y-93079000D01*
X46621000Y-94881000D01*
G37*
G36*
X48373512Y-93083927D02*
G01*
X48522812Y-93113624D01*
X48686784Y-93181544D01*
X48834354Y-93280147D01*
X48959853Y-93405646D01*
X49058456Y-93553216D01*
X49126376Y-93717188D01*
X49161000Y-93891259D01*
X49161000Y-94068741D01*
X49126376Y-94242812D01*
X49058456Y-94406784D01*
X48959853Y-94554354D01*
X48834354Y-94679853D01*
X48686784Y-94778456D01*
X48522812Y-94846376D01*
X48373512Y-94876073D01*
X48348742Y-94881000D01*
X48171258Y-94881000D01*
X48146488Y-94876073D01*
X47997188Y-94846376D01*
X47833216Y-94778456D01*
X47685646Y-94679853D01*
X47560147Y-94554354D01*
X47461544Y-94406784D01*
X47393624Y-94242812D01*
X47359000Y-94068741D01*
X47359000Y-93891259D01*
X47393624Y-93717188D01*
X47461544Y-93553216D01*
X47560147Y-93405646D01*
X47685646Y-93280147D01*
X47833216Y-93181544D01*
X47997188Y-93113624D01*
X48146488Y-93083927D01*
X48171258Y-93079000D01*
X48348742Y-93079000D01*
X48373512Y-93083927D01*
G37*
G36*
X50913512Y-93083927D02*
G01*
X51062812Y-93113624D01*
X51226784Y-93181544D01*
X51374354Y-93280147D01*
X51499853Y-93405646D01*
X51598456Y-93553216D01*
X51666376Y-93717188D01*
X51701000Y-93891259D01*
X51701000Y-94068741D01*
X51666376Y-94242812D01*
X51598456Y-94406784D01*
X51499853Y-94554354D01*
X51374354Y-94679853D01*
X51226784Y-94778456D01*
X51062812Y-94846376D01*
X50913512Y-94876073D01*
X50888742Y-94881000D01*
X50711258Y-94881000D01*
X50686488Y-94876073D01*
X50537188Y-94846376D01*
X50373216Y-94778456D01*
X50225646Y-94679853D01*
X50100147Y-94554354D01*
X50001544Y-94406784D01*
X49933624Y-94242812D01*
X49899000Y-94068741D01*
X49899000Y-93891259D01*
X49933624Y-93717188D01*
X50001544Y-93553216D01*
X50100147Y-93405646D01*
X50225646Y-93280147D01*
X50373216Y-93181544D01*
X50537188Y-93113624D01*
X50686488Y-93083927D01*
X50711258Y-93079000D01*
X50888742Y-93079000D01*
X50913512Y-93083927D01*
G37*
G36*
X53453512Y-93083927D02*
G01*
X53602812Y-93113624D01*
X53766784Y-93181544D01*
X53914354Y-93280147D01*
X54039853Y-93405646D01*
X54138456Y-93553216D01*
X54206376Y-93717188D01*
X54241000Y-93891259D01*
X54241000Y-94068741D01*
X54206376Y-94242812D01*
X54138456Y-94406784D01*
X54039853Y-94554354D01*
X53914354Y-94679853D01*
X53766784Y-94778456D01*
X53602812Y-94846376D01*
X53453512Y-94876073D01*
X53428742Y-94881000D01*
X53251258Y-94881000D01*
X53226488Y-94876073D01*
X53077188Y-94846376D01*
X52913216Y-94778456D01*
X52765646Y-94679853D01*
X52640147Y-94554354D01*
X52541544Y-94406784D01*
X52473624Y-94242812D01*
X52439000Y-94068741D01*
X52439000Y-93891259D01*
X52473624Y-93717188D01*
X52541544Y-93553216D01*
X52640147Y-93405646D01*
X52765646Y-93280147D01*
X52913216Y-93181544D01*
X53077188Y-93113624D01*
X53226488Y-93083927D01*
X53251258Y-93079000D01*
X53428742Y-93079000D01*
X53453512Y-93083927D01*
G37*
G36*
X55993512Y-93083927D02*
G01*
X56142812Y-93113624D01*
X56306784Y-93181544D01*
X56454354Y-93280147D01*
X56579853Y-93405646D01*
X56678456Y-93553216D01*
X56746376Y-93717188D01*
X56781000Y-93891259D01*
X56781000Y-94068741D01*
X56746376Y-94242812D01*
X56678456Y-94406784D01*
X56579853Y-94554354D01*
X56454354Y-94679853D01*
X56306784Y-94778456D01*
X56142812Y-94846376D01*
X55993512Y-94876073D01*
X55968742Y-94881000D01*
X55791258Y-94881000D01*
X55766488Y-94876073D01*
X55617188Y-94846376D01*
X55453216Y-94778456D01*
X55305646Y-94679853D01*
X55180147Y-94554354D01*
X55081544Y-94406784D01*
X55013624Y-94242812D01*
X54979000Y-94068741D01*
X54979000Y-93891259D01*
X55013624Y-93717188D01*
X55081544Y-93553216D01*
X55180147Y-93405646D01*
X55305646Y-93280147D01*
X55453216Y-93181544D01*
X55617188Y-93113624D01*
X55766488Y-93083927D01*
X55791258Y-93079000D01*
X55968742Y-93079000D01*
X55993512Y-93083927D01*
G37*
G36*
X58533512Y-93083927D02*
G01*
X58682812Y-93113624D01*
X58846784Y-93181544D01*
X58994354Y-93280147D01*
X59119853Y-93405646D01*
X59218456Y-93553216D01*
X59286376Y-93717188D01*
X59321000Y-93891259D01*
X59321000Y-94068741D01*
X59286376Y-94242812D01*
X59218456Y-94406784D01*
X59119853Y-94554354D01*
X58994354Y-94679853D01*
X58846784Y-94778456D01*
X58682812Y-94846376D01*
X58533512Y-94876073D01*
X58508742Y-94881000D01*
X58331258Y-94881000D01*
X58306488Y-94876073D01*
X58157188Y-94846376D01*
X57993216Y-94778456D01*
X57845646Y-94679853D01*
X57720147Y-94554354D01*
X57621544Y-94406784D01*
X57553624Y-94242812D01*
X57519000Y-94068741D01*
X57519000Y-93891259D01*
X57553624Y-93717188D01*
X57621544Y-93553216D01*
X57720147Y-93405646D01*
X57845646Y-93280147D01*
X57993216Y-93181544D01*
X58157188Y-93113624D01*
X58306488Y-93083927D01*
X58331258Y-93079000D01*
X58508742Y-93079000D01*
X58533512Y-93083927D01*
G37*
G36*
X61073512Y-93083927D02*
G01*
X61222812Y-93113624D01*
X61386784Y-93181544D01*
X61534354Y-93280147D01*
X61659853Y-93405646D01*
X61758456Y-93553216D01*
X61826376Y-93717188D01*
X61861000Y-93891259D01*
X61861000Y-94068741D01*
X61826376Y-94242812D01*
X61758456Y-94406784D01*
X61659853Y-94554354D01*
X61534354Y-94679853D01*
X61386784Y-94778456D01*
X61222812Y-94846376D01*
X61073512Y-94876073D01*
X61048742Y-94881000D01*
X60871258Y-94881000D01*
X60846488Y-94876073D01*
X60697188Y-94846376D01*
X60533216Y-94778456D01*
X60385646Y-94679853D01*
X60260147Y-94554354D01*
X60161544Y-94406784D01*
X60093624Y-94242812D01*
X60059000Y-94068741D01*
X60059000Y-93891259D01*
X60093624Y-93717188D01*
X60161544Y-93553216D01*
X60260147Y-93405646D01*
X60385646Y-93280147D01*
X60533216Y-93181544D01*
X60697188Y-93113624D01*
X60846488Y-93083927D01*
X60871258Y-93079000D01*
X61048742Y-93079000D01*
X61073512Y-93083927D01*
G37*
G36*
X63613512Y-93083927D02*
G01*
X63762812Y-93113624D01*
X63926784Y-93181544D01*
X64074354Y-93280147D01*
X64199853Y-93405646D01*
X64298456Y-93553216D01*
X64366376Y-93717188D01*
X64401000Y-93891259D01*
X64401000Y-94068741D01*
X64366376Y-94242812D01*
X64298456Y-94406784D01*
X64199853Y-94554354D01*
X64074354Y-94679853D01*
X63926784Y-94778456D01*
X63762812Y-94846376D01*
X63613512Y-94876073D01*
X63588742Y-94881000D01*
X63411258Y-94881000D01*
X63386488Y-94876073D01*
X63237188Y-94846376D01*
X63073216Y-94778456D01*
X62925646Y-94679853D01*
X62800147Y-94554354D01*
X62701544Y-94406784D01*
X62633624Y-94242812D01*
X62599000Y-94068741D01*
X62599000Y-93891259D01*
X62633624Y-93717188D01*
X62701544Y-93553216D01*
X62800147Y-93405646D01*
X62925646Y-93280147D01*
X63073216Y-93181544D01*
X63237188Y-93113624D01*
X63386488Y-93083927D01*
X63411258Y-93079000D01*
X63588742Y-93079000D01*
X63613512Y-93083927D01*
G37*
G36*
X71233512Y-93083927D02*
G01*
X71382812Y-93113624D01*
X71546784Y-93181544D01*
X71694354Y-93280147D01*
X71819853Y-93405646D01*
X71918456Y-93553216D01*
X71986376Y-93717188D01*
X72021000Y-93891259D01*
X72021000Y-94068741D01*
X71986376Y-94242812D01*
X71918456Y-94406784D01*
X71819853Y-94554354D01*
X71694354Y-94679853D01*
X71546784Y-94778456D01*
X71382812Y-94846376D01*
X71233512Y-94876073D01*
X71208742Y-94881000D01*
X71031258Y-94881000D01*
X71006488Y-94876073D01*
X70857188Y-94846376D01*
X70693216Y-94778456D01*
X70545646Y-94679853D01*
X70420147Y-94554354D01*
X70321544Y-94406784D01*
X70253624Y-94242812D01*
X70219000Y-94068741D01*
X70219000Y-93891259D01*
X70253624Y-93717188D01*
X70321544Y-93553216D01*
X70420147Y-93405646D01*
X70545646Y-93280147D01*
X70693216Y-93181544D01*
X70857188Y-93113624D01*
X71006488Y-93083927D01*
X71031258Y-93079000D01*
X71208742Y-93079000D01*
X71233512Y-93083927D01*
G37*
G36*
X83933512Y-93083927D02*
G01*
X84082812Y-93113624D01*
X84246784Y-93181544D01*
X84394354Y-93280147D01*
X84519853Y-93405646D01*
X84618456Y-93553216D01*
X84686376Y-93717188D01*
X84721000Y-93891259D01*
X84721000Y-94068741D01*
X84686376Y-94242812D01*
X84618456Y-94406784D01*
X84519853Y-94554354D01*
X84394354Y-94679853D01*
X84246784Y-94778456D01*
X84082812Y-94846376D01*
X83933512Y-94876073D01*
X83908742Y-94881000D01*
X83731258Y-94881000D01*
X83706488Y-94876073D01*
X83557188Y-94846376D01*
X83393216Y-94778456D01*
X83245646Y-94679853D01*
X83120147Y-94554354D01*
X83021544Y-94406784D01*
X82953624Y-94242812D01*
X82919000Y-94068741D01*
X82919000Y-93891259D01*
X82953624Y-93717188D01*
X83021544Y-93553216D01*
X83120147Y-93405646D01*
X83245646Y-93280147D01*
X83393216Y-93181544D01*
X83557188Y-93113624D01*
X83706488Y-93083927D01*
X83731258Y-93079000D01*
X83908742Y-93079000D01*
X83933512Y-93083927D01*
G37*
G36*
X81393512Y-93083927D02*
G01*
X81542812Y-93113624D01*
X81706784Y-93181544D01*
X81854354Y-93280147D01*
X81979853Y-93405646D01*
X82078456Y-93553216D01*
X82146376Y-93717188D01*
X82181000Y-93891259D01*
X82181000Y-94068741D01*
X82146376Y-94242812D01*
X82078456Y-94406784D01*
X81979853Y-94554354D01*
X81854354Y-94679853D01*
X81706784Y-94778456D01*
X81542812Y-94846376D01*
X81393512Y-94876073D01*
X81368742Y-94881000D01*
X81191258Y-94881000D01*
X81166488Y-94876073D01*
X81017188Y-94846376D01*
X80853216Y-94778456D01*
X80705646Y-94679853D01*
X80580147Y-94554354D01*
X80481544Y-94406784D01*
X80413624Y-94242812D01*
X80379000Y-94068741D01*
X80379000Y-93891259D01*
X80413624Y-93717188D01*
X80481544Y-93553216D01*
X80580147Y-93405646D01*
X80705646Y-93280147D01*
X80853216Y-93181544D01*
X81017188Y-93113624D01*
X81166488Y-93083927D01*
X81191258Y-93079000D01*
X81368742Y-93079000D01*
X81393512Y-93083927D01*
G37*
G36*
X66153512Y-93083927D02*
G01*
X66302812Y-93113624D01*
X66466784Y-93181544D01*
X66614354Y-93280147D01*
X66739853Y-93405646D01*
X66838456Y-93553216D01*
X66906376Y-93717188D01*
X66941000Y-93891259D01*
X66941000Y-94068741D01*
X66906376Y-94242812D01*
X66838456Y-94406784D01*
X66739853Y-94554354D01*
X66614354Y-94679853D01*
X66466784Y-94778456D01*
X66302812Y-94846376D01*
X66153512Y-94876073D01*
X66128742Y-94881000D01*
X65951258Y-94881000D01*
X65926488Y-94876073D01*
X65777188Y-94846376D01*
X65613216Y-94778456D01*
X65465646Y-94679853D01*
X65340147Y-94554354D01*
X65241544Y-94406784D01*
X65173624Y-94242812D01*
X65139000Y-94068741D01*
X65139000Y-93891259D01*
X65173624Y-93717188D01*
X65241544Y-93553216D01*
X65340147Y-93405646D01*
X65465646Y-93280147D01*
X65613216Y-93181544D01*
X65777188Y-93113624D01*
X65926488Y-93083927D01*
X65951258Y-93079000D01*
X66128742Y-93079000D01*
X66153512Y-93083927D01*
G37*
G36*
X76313512Y-93083927D02*
G01*
X76462812Y-93113624D01*
X76626784Y-93181544D01*
X76774354Y-93280147D01*
X76899853Y-93405646D01*
X76998456Y-93553216D01*
X77066376Y-93717188D01*
X77101000Y-93891259D01*
X77101000Y-94068741D01*
X77066376Y-94242812D01*
X76998456Y-94406784D01*
X76899853Y-94554354D01*
X76774354Y-94679853D01*
X76626784Y-94778456D01*
X76462812Y-94846376D01*
X76313512Y-94876073D01*
X76288742Y-94881000D01*
X76111258Y-94881000D01*
X76086488Y-94876073D01*
X75937188Y-94846376D01*
X75773216Y-94778456D01*
X75625646Y-94679853D01*
X75500147Y-94554354D01*
X75401544Y-94406784D01*
X75333624Y-94242812D01*
X75299000Y-94068741D01*
X75299000Y-93891259D01*
X75333624Y-93717188D01*
X75401544Y-93553216D01*
X75500147Y-93405646D01*
X75625646Y-93280147D01*
X75773216Y-93181544D01*
X75937188Y-93113624D01*
X76086488Y-93083927D01*
X76111258Y-93079000D01*
X76288742Y-93079000D01*
X76313512Y-93083927D01*
G37*
G36*
X73773512Y-93083927D02*
G01*
X73922812Y-93113624D01*
X74086784Y-93181544D01*
X74234354Y-93280147D01*
X74359853Y-93405646D01*
X74458456Y-93553216D01*
X74526376Y-93717188D01*
X74561000Y-93891259D01*
X74561000Y-94068741D01*
X74526376Y-94242812D01*
X74458456Y-94406784D01*
X74359853Y-94554354D01*
X74234354Y-94679853D01*
X74086784Y-94778456D01*
X73922812Y-94846376D01*
X73773512Y-94876073D01*
X73748742Y-94881000D01*
X73571258Y-94881000D01*
X73546488Y-94876073D01*
X73397188Y-94846376D01*
X73233216Y-94778456D01*
X73085646Y-94679853D01*
X72960147Y-94554354D01*
X72861544Y-94406784D01*
X72793624Y-94242812D01*
X72759000Y-94068741D01*
X72759000Y-93891259D01*
X72793624Y-93717188D01*
X72861544Y-93553216D01*
X72960147Y-93405646D01*
X73085646Y-93280147D01*
X73233216Y-93181544D01*
X73397188Y-93113624D01*
X73546488Y-93083927D01*
X73571258Y-93079000D01*
X73748742Y-93079000D01*
X73773512Y-93083927D01*
G37*
G36*
X78853512Y-93083927D02*
G01*
X79002812Y-93113624D01*
X79166784Y-93181544D01*
X79314354Y-93280147D01*
X79439853Y-93405646D01*
X79538456Y-93553216D01*
X79606376Y-93717188D01*
X79641000Y-93891259D01*
X79641000Y-94068741D01*
X79606376Y-94242812D01*
X79538456Y-94406784D01*
X79439853Y-94554354D01*
X79314354Y-94679853D01*
X79166784Y-94778456D01*
X79002812Y-94846376D01*
X78853512Y-94876073D01*
X78828742Y-94881000D01*
X78651258Y-94881000D01*
X78626488Y-94876073D01*
X78477188Y-94846376D01*
X78313216Y-94778456D01*
X78165646Y-94679853D01*
X78040147Y-94554354D01*
X77941544Y-94406784D01*
X77873624Y-94242812D01*
X77839000Y-94068741D01*
X77839000Y-93891259D01*
X77873624Y-93717188D01*
X77941544Y-93553216D01*
X78040147Y-93405646D01*
X78165646Y-93280147D01*
X78313216Y-93181544D01*
X78477188Y-93113624D01*
X78626488Y-93083927D01*
X78651258Y-93079000D01*
X78828742Y-93079000D01*
X78853512Y-93083927D01*
G37*
G36*
X84763512Y-85253927D02*
G01*
X84912812Y-85283624D01*
X85076784Y-85351544D01*
X85224354Y-85450147D01*
X85349853Y-85575646D01*
X85448456Y-85723216D01*
X85516376Y-85887188D01*
X85551000Y-86061259D01*
X85551000Y-86238741D01*
X85516376Y-86412812D01*
X85448456Y-86576784D01*
X85349853Y-86724354D01*
X85224354Y-86849853D01*
X85076784Y-86948456D01*
X84912812Y-87016376D01*
X84763512Y-87046073D01*
X84738742Y-87051000D01*
X84561258Y-87051000D01*
X84536488Y-87046073D01*
X84387188Y-87016376D01*
X84223216Y-86948456D01*
X84075646Y-86849853D01*
X83950147Y-86724354D01*
X83851544Y-86576784D01*
X83783624Y-86412812D01*
X83749000Y-86238741D01*
X83749000Y-86061259D01*
X83783624Y-85887188D01*
X83851544Y-85723216D01*
X83950147Y-85575646D01*
X84075646Y-85450147D01*
X84223216Y-85351544D01*
X84387188Y-85283624D01*
X84536488Y-85253927D01*
X84561258Y-85249000D01*
X84738742Y-85249000D01*
X84763512Y-85253927D01*
G37*
G36*
X84763512Y-82713927D02*
G01*
X84912812Y-82743624D01*
X85076784Y-82811544D01*
X85224354Y-82910147D01*
X85349853Y-83035646D01*
X85448456Y-83183216D01*
X85516376Y-83347188D01*
X85551000Y-83521259D01*
X85551000Y-83698741D01*
X85516376Y-83872812D01*
X85448456Y-84036784D01*
X85349853Y-84184354D01*
X85224354Y-84309853D01*
X85076784Y-84408456D01*
X84912812Y-84476376D01*
X84763512Y-84506073D01*
X84738742Y-84511000D01*
X84561258Y-84511000D01*
X84536488Y-84506073D01*
X84387188Y-84476376D01*
X84223216Y-84408456D01*
X84075646Y-84309853D01*
X83950147Y-84184354D01*
X83851544Y-84036784D01*
X83783624Y-83872812D01*
X83749000Y-83698741D01*
X83749000Y-83521259D01*
X83783624Y-83347188D01*
X83851544Y-83183216D01*
X83950147Y-83035646D01*
X84075646Y-82910147D01*
X84223216Y-82811544D01*
X84387188Y-82743624D01*
X84536488Y-82713927D01*
X84561258Y-82709000D01*
X84738742Y-82709000D01*
X84763512Y-82713927D01*
G37*
G36*
X84763512Y-80173927D02*
G01*
X84912812Y-80203624D01*
X85076784Y-80271544D01*
X85224354Y-80370147D01*
X85349853Y-80495646D01*
X85448456Y-80643216D01*
X85516376Y-80807188D01*
X85551000Y-80981259D01*
X85551000Y-81158741D01*
X85516376Y-81332812D01*
X85448456Y-81496784D01*
X85349853Y-81644354D01*
X85224354Y-81769853D01*
X85076784Y-81868456D01*
X84912812Y-81936376D01*
X84763512Y-81966073D01*
X84738742Y-81971000D01*
X84561258Y-81971000D01*
X84536488Y-81966073D01*
X84387188Y-81936376D01*
X84223216Y-81868456D01*
X84075646Y-81769853D01*
X83950147Y-81644354D01*
X83851544Y-81496784D01*
X83783624Y-81332812D01*
X83749000Y-81158741D01*
X83749000Y-80981259D01*
X83783624Y-80807188D01*
X83851544Y-80643216D01*
X83950147Y-80495646D01*
X84075646Y-80370147D01*
X84223216Y-80271544D01*
X84387188Y-80203624D01*
X84536488Y-80173927D01*
X84561258Y-80169000D01*
X84738742Y-80169000D01*
X84763512Y-80173927D01*
G37*
G36*
X84763512Y-77633927D02*
G01*
X84912812Y-77663624D01*
X85076784Y-77731544D01*
X85224354Y-77830147D01*
X85349853Y-77955646D01*
X85448456Y-78103216D01*
X85516376Y-78267188D01*
X85551000Y-78441259D01*
X85551000Y-78618741D01*
X85516376Y-78792812D01*
X85448456Y-78956784D01*
X85349853Y-79104354D01*
X85224354Y-79229853D01*
X85076784Y-79328456D01*
X84912812Y-79396376D01*
X84763512Y-79426073D01*
X84738742Y-79431000D01*
X84561258Y-79431000D01*
X84536488Y-79426073D01*
X84387188Y-79396376D01*
X84223216Y-79328456D01*
X84075646Y-79229853D01*
X83950147Y-79104354D01*
X83851544Y-78956784D01*
X83783624Y-78792812D01*
X83749000Y-78618741D01*
X83749000Y-78441259D01*
X83783624Y-78267188D01*
X83851544Y-78103216D01*
X83950147Y-77955646D01*
X84075646Y-77830147D01*
X84223216Y-77731544D01*
X84387188Y-77663624D01*
X84536488Y-77633927D01*
X84561258Y-77629000D01*
X84738742Y-77629000D01*
X84763512Y-77633927D01*
G37*
G36*
X84763512Y-75093927D02*
G01*
X84912812Y-75123624D01*
X85076784Y-75191544D01*
X85224354Y-75290147D01*
X85349853Y-75415646D01*
X85448456Y-75563216D01*
X85516376Y-75727188D01*
X85551000Y-75901259D01*
X85551000Y-76078741D01*
X85516376Y-76252812D01*
X85448456Y-76416784D01*
X85349853Y-76564354D01*
X85224354Y-76689853D01*
X85076784Y-76788456D01*
X84912812Y-76856376D01*
X84763512Y-76886073D01*
X84738742Y-76891000D01*
X84561258Y-76891000D01*
X84536488Y-76886073D01*
X84387188Y-76856376D01*
X84223216Y-76788456D01*
X84075646Y-76689853D01*
X83950147Y-76564354D01*
X83851544Y-76416784D01*
X83783624Y-76252812D01*
X83749000Y-76078741D01*
X83749000Y-75901259D01*
X83783624Y-75727188D01*
X83851544Y-75563216D01*
X83950147Y-75415646D01*
X84075646Y-75290147D01*
X84223216Y-75191544D01*
X84387188Y-75123624D01*
X84536488Y-75093927D01*
X84561258Y-75089000D01*
X84738742Y-75089000D01*
X84763512Y-75093927D01*
G37*
G36*
X84763512Y-72553927D02*
G01*
X84912812Y-72583624D01*
X85076784Y-72651544D01*
X85224354Y-72750147D01*
X85349853Y-72875646D01*
X85448456Y-73023216D01*
X85516376Y-73187188D01*
X85551000Y-73361259D01*
X85551000Y-73538741D01*
X85516376Y-73712812D01*
X85448456Y-73876784D01*
X85349853Y-74024354D01*
X85224354Y-74149853D01*
X85076784Y-74248456D01*
X84912812Y-74316376D01*
X84763512Y-74346073D01*
X84738742Y-74351000D01*
X84561258Y-74351000D01*
X84536488Y-74346073D01*
X84387188Y-74316376D01*
X84223216Y-74248456D01*
X84075646Y-74149853D01*
X83950147Y-74024354D01*
X83851544Y-73876784D01*
X83783624Y-73712812D01*
X83749000Y-73538741D01*
X83749000Y-73361259D01*
X83783624Y-73187188D01*
X83851544Y-73023216D01*
X83950147Y-72875646D01*
X84075646Y-72750147D01*
X84223216Y-72651544D01*
X84387188Y-72583624D01*
X84536488Y-72553927D01*
X84561258Y-72549000D01*
X84738742Y-72549000D01*
X84763512Y-72553927D01*
G37*
G36*
X84763512Y-70013927D02*
G01*
X84912812Y-70043624D01*
X85076784Y-70111544D01*
X85224354Y-70210147D01*
X85349853Y-70335646D01*
X85448456Y-70483216D01*
X85516376Y-70647188D01*
X85551000Y-70821259D01*
X85551000Y-70998741D01*
X85516376Y-71172812D01*
X85448456Y-71336784D01*
X85349853Y-71484354D01*
X85224354Y-71609853D01*
X85076784Y-71708456D01*
X84912812Y-71776376D01*
X84763512Y-71806073D01*
X84738742Y-71811000D01*
X84561258Y-71811000D01*
X84536488Y-71806073D01*
X84387188Y-71776376D01*
X84223216Y-71708456D01*
X84075646Y-71609853D01*
X83950147Y-71484354D01*
X83851544Y-71336784D01*
X83783624Y-71172812D01*
X83749000Y-70998741D01*
X83749000Y-70821259D01*
X83783624Y-70647188D01*
X83851544Y-70483216D01*
X83950147Y-70335646D01*
X84075646Y-70210147D01*
X84223216Y-70111544D01*
X84387188Y-70043624D01*
X84536488Y-70013927D01*
X84561258Y-70009000D01*
X84738742Y-70009000D01*
X84763512Y-70013927D01*
G37*
G36*
X85551000Y-69271000D02*
G01*
X83749000Y-69271000D01*
X83749000Y-67469000D01*
X85551000Y-67469000D01*
X85551000Y-69271000D01*
G37*
G36*
X49811000Y-66131000D02*
G01*
X46709000Y-66131000D01*
X46709000Y-61629000D01*
X49811000Y-61629000D01*
X49811000Y-66131000D01*
G37*
G36*
X86060442Y-61905518D02*
G01*
X86126627Y-61912037D01*
X86296466Y-61963557D01*
X86452991Y-62047222D01*
X86488587Y-62076435D01*
X86590186Y-62159814D01*
X86673448Y-62261271D01*
X86702778Y-62297009D01*
X86786443Y-62453534D01*
X86837963Y-62623373D01*
X86855359Y-62800000D01*
X86837963Y-62976627D01*
X86786443Y-63146466D01*
X86702778Y-63302991D01*
X86673448Y-63338729D01*
X86590186Y-63440186D01*
X86488729Y-63523448D01*
X86452991Y-63552778D01*
X86296466Y-63636443D01*
X86126627Y-63687963D01*
X86060442Y-63694482D01*
X85994260Y-63701000D01*
X85605740Y-63701000D01*
X85539558Y-63694482D01*
X85473373Y-63687963D01*
X85303534Y-63636443D01*
X85147009Y-63552778D01*
X85111271Y-63523448D01*
X85009814Y-63440186D01*
X84926552Y-63338729D01*
X84897222Y-63302991D01*
X84813557Y-63146466D01*
X84762037Y-62976627D01*
X84744641Y-62800000D01*
X84762037Y-62623373D01*
X84813557Y-62453534D01*
X84897222Y-62297009D01*
X84926552Y-62261271D01*
X85009814Y-62159814D01*
X85111413Y-62076435D01*
X85147009Y-62047222D01*
X85303534Y-61963557D01*
X85473373Y-61912037D01*
X85539558Y-61905518D01*
X85605740Y-61899000D01*
X85994260Y-61899000D01*
X86060442Y-61905518D01*
G37*
G36*
X58326711Y-61168908D02*
G01*
X58370352Y-61186985D01*
X58518073Y-61248173D01*
X58690290Y-61363244D01*
X58836756Y-61509710D01*
X58951827Y-61681927D01*
X59031092Y-61873290D01*
X59071500Y-62076435D01*
X59071500Y-62283565D01*
X59031092Y-62486710D01*
X58951827Y-62678073D01*
X58836756Y-62850290D01*
X58690290Y-62996756D01*
X58518073Y-63111827D01*
X58434447Y-63146466D01*
X58326711Y-63191092D01*
X58123565Y-63231500D01*
X57916435Y-63231500D01*
X57713289Y-63191092D01*
X57605553Y-63146466D01*
X57521927Y-63111827D01*
X57349710Y-62996756D01*
X57203244Y-62850290D01*
X57088173Y-62678073D01*
X57008908Y-62486710D01*
X56968500Y-62283565D01*
X56968500Y-62076435D01*
X57008908Y-61873290D01*
X57088173Y-61681927D01*
X57203244Y-61509710D01*
X57349710Y-61363244D01*
X57521927Y-61248173D01*
X57669648Y-61186985D01*
X57713289Y-61168908D01*
X57916435Y-61128500D01*
X58123565Y-61128500D01*
X58326711Y-61168908D01*
G37*
G36*
X86708600Y-59402989D02*
G01*
X86741652Y-59413015D01*
X86772103Y-59429292D01*
X86798799Y-59451201D01*
X86820708Y-59477897D01*
X86836985Y-59508348D01*
X86847011Y-59541400D01*
X86851000Y-59581903D01*
X86851000Y-61018097D01*
X86847011Y-61058600D01*
X86836985Y-61091652D01*
X86820708Y-61122103D01*
X86798799Y-61148799D01*
X86772103Y-61170708D01*
X86741652Y-61186985D01*
X86708600Y-61197011D01*
X86668097Y-61201000D01*
X84931903Y-61201000D01*
X84891400Y-61197011D01*
X84858348Y-61186985D01*
X84827897Y-61170708D01*
X84801201Y-61148799D01*
X84779292Y-61122103D01*
X84763015Y-61091652D01*
X84752989Y-61058600D01*
X84749000Y-61018097D01*
X84749000Y-59581903D01*
X84752989Y-59541400D01*
X84763015Y-59508348D01*
X84779292Y-59477897D01*
X84801201Y-59451201D01*
X84827897Y-59429292D01*
X84858348Y-59413015D01*
X84891400Y-59402989D01*
X84931903Y-59399000D01*
X86668097Y-59399000D01*
X86708600Y-59402989D01*
G37*
G36*
X48449890Y-59154017D02*
G01*
X48568364Y-59203091D01*
X48674988Y-59274335D01*
X48765665Y-59365012D01*
X48823255Y-59451201D01*
X48836910Y-59471638D01*
X48874583Y-59562589D01*
X48885983Y-59590110D01*
X48911000Y-59715882D01*
X48911000Y-59844118D01*
X48885983Y-59969890D01*
X48836909Y-60088364D01*
X48765665Y-60194988D01*
X48674988Y-60285665D01*
X48568364Y-60356909D01*
X48568363Y-60356910D01*
X48568362Y-60356910D01*
X48449890Y-60405983D01*
X48324119Y-60431000D01*
X48195881Y-60431000D01*
X48070110Y-60405983D01*
X47951638Y-60356910D01*
X47951637Y-60356910D01*
X47951636Y-60356909D01*
X47845012Y-60285665D01*
X47754335Y-60194988D01*
X47683091Y-60088364D01*
X47634017Y-59969890D01*
X47609000Y-59844118D01*
X47609000Y-59715882D01*
X47634017Y-59590110D01*
X47645417Y-59562589D01*
X47683090Y-59471638D01*
X47696746Y-59451201D01*
X47754335Y-59365012D01*
X47845012Y-59274335D01*
X47951636Y-59203091D01*
X48070110Y-59154017D01*
X48195881Y-59129000D01*
X48324119Y-59129000D01*
X48449890Y-59154017D01*
G37*
G36*
X84463512Y-54183927D02*
G01*
X84612812Y-54213624D01*
X84776784Y-54281544D01*
X84924354Y-54380147D01*
X85049853Y-54505646D01*
X85148456Y-54653216D01*
X85216376Y-54817188D01*
X85251000Y-54991259D01*
X85251000Y-55168741D01*
X85216376Y-55342812D01*
X85148456Y-55506784D01*
X85049853Y-55654354D01*
X84924354Y-55779853D01*
X84776784Y-55878456D01*
X84612812Y-55946376D01*
X84463512Y-55976073D01*
X84438742Y-55981000D01*
X84261258Y-55981000D01*
X84236488Y-55976073D01*
X84087188Y-55946376D01*
X83923216Y-55878456D01*
X83775646Y-55779853D01*
X83650147Y-55654354D01*
X83551544Y-55506784D01*
X83483624Y-55342812D01*
X83449000Y-55168741D01*
X83449000Y-54991259D01*
X83483624Y-54817188D01*
X83551544Y-54653216D01*
X83650147Y-54505646D01*
X83775646Y-54380147D01*
X83923216Y-54281544D01*
X84087188Y-54213624D01*
X84236488Y-54183927D01*
X84261258Y-54179000D01*
X84438742Y-54179000D01*
X84463512Y-54183927D01*
G37*
G36*
X84463512Y-51643927D02*
G01*
X84612812Y-51673624D01*
X84776784Y-51741544D01*
X84924354Y-51840147D01*
X85049853Y-51965646D01*
X85148456Y-52113216D01*
X85216376Y-52277188D01*
X85251000Y-52451259D01*
X85251000Y-52628741D01*
X85216376Y-52802812D01*
X85148456Y-52966784D01*
X85049853Y-53114354D01*
X84924354Y-53239853D01*
X84776784Y-53338456D01*
X84612812Y-53406376D01*
X84463512Y-53436073D01*
X84438742Y-53441000D01*
X84261258Y-53441000D01*
X84236488Y-53436073D01*
X84087188Y-53406376D01*
X83923216Y-53338456D01*
X83775646Y-53239853D01*
X83650147Y-53114354D01*
X83551544Y-52966784D01*
X83483624Y-52802812D01*
X83449000Y-52628741D01*
X83449000Y-52451259D01*
X83483624Y-52277188D01*
X83551544Y-52113216D01*
X83650147Y-51965646D01*
X83775646Y-51840147D01*
X83923216Y-51741544D01*
X84087188Y-51673624D01*
X84236488Y-51643927D01*
X84261258Y-51639000D01*
X84438742Y-51639000D01*
X84463512Y-51643927D01*
G37*
G36*
X48449890Y-51654017D02*
G01*
X48497228Y-51673625D01*
X48568364Y-51703091D01*
X48674988Y-51774335D01*
X48765665Y-51865012D01*
X48836909Y-51971636D01*
X48885983Y-52090110D01*
X48911000Y-52215882D01*
X48911000Y-52344118D01*
X48885983Y-52469890D01*
X48836909Y-52588364D01*
X48765665Y-52694988D01*
X48674988Y-52785665D01*
X48568364Y-52856909D01*
X48568363Y-52856910D01*
X48568362Y-52856910D01*
X48449890Y-52905983D01*
X48324119Y-52931000D01*
X48195881Y-52931000D01*
X48070110Y-52905983D01*
X47951638Y-52856910D01*
X47951637Y-52856910D01*
X47951636Y-52856909D01*
X47845012Y-52785665D01*
X47754335Y-52694988D01*
X47683091Y-52588364D01*
X47634017Y-52469890D01*
X47609000Y-52344118D01*
X47609000Y-52215882D01*
X47634017Y-52090110D01*
X47683091Y-51971636D01*
X47754335Y-51865012D01*
X47845012Y-51774335D01*
X47951636Y-51703091D01*
X48022773Y-51673625D01*
X48070110Y-51654017D01*
X48195881Y-51629000D01*
X48324119Y-51629000D01*
X48449890Y-51654017D01*
G37*
G36*
X85251000Y-50901000D02*
G01*
X83449000Y-50901000D01*
X83449000Y-49099000D01*
X85251000Y-49099000D01*
X85251000Y-50901000D01*
G37*
G36*
X49811000Y-49931000D02*
G01*
X46709000Y-49931000D01*
X46709000Y-45829000D01*
X49811000Y-45829000D01*
X49811000Y-49931000D01*
G37*
G36*
X70524549Y-45031116D02*
G01*
X70635734Y-45053232D01*
X70845203Y-45139997D01*
X71033720Y-45265960D01*
X71194040Y-45426280D01*
X71320003Y-45614797D01*
X71406768Y-45824266D01*
X71451000Y-46046636D01*
X71451000Y-46273364D01*
X71406768Y-46495734D01*
X71320003Y-46705203D01*
X71194040Y-46893720D01*
X71033720Y-47054040D01*
X70845203Y-47180003D01*
X70635734Y-47266768D01*
X70524549Y-47288884D01*
X70413365Y-47311000D01*
X70186635Y-47311000D01*
X70075451Y-47288884D01*
X69964266Y-47266768D01*
X69754797Y-47180003D01*
X69566280Y-47054040D01*
X69405960Y-46893720D01*
X69279997Y-46705203D01*
X69193232Y-46495734D01*
X69149000Y-46273364D01*
X69149000Y-46046636D01*
X69193232Y-45824266D01*
X69279997Y-45614797D01*
X69405960Y-45426280D01*
X69566280Y-45265960D01*
X69754797Y-45139997D01*
X69964266Y-45053232D01*
X70075451Y-45031116D01*
X70186635Y-45009000D01*
X70413365Y-45009000D01*
X70524549Y-45031116D01*
G37*
G36*
X87352383Y-44987489D02*
G01*
X87352386Y-44987490D01*
X87352385Y-44987490D01*
X87416258Y-45013946D01*
X87473748Y-45052360D01*
X87522640Y-45101252D01*
X87561054Y-45158742D01*
X87582624Y-45210818D01*
X87587511Y-45222617D01*
X87601000Y-45290430D01*
X87601000Y-45359570D01*
X87587511Y-45427383D01*
X87587510Y-45427385D01*
X87561054Y-45491258D01*
X87522640Y-45548748D01*
X87473748Y-45597640D01*
X87416258Y-45636054D01*
X87364182Y-45657624D01*
X87352383Y-45662511D01*
X87284570Y-45676000D01*
X87215430Y-45676000D01*
X87147617Y-45662511D01*
X87135818Y-45657624D01*
X87083742Y-45636054D01*
X87026252Y-45597640D01*
X86977360Y-45548748D01*
X86938946Y-45491258D01*
X86912490Y-45427385D01*
X86912489Y-45427383D01*
X86899000Y-45359570D01*
X86899000Y-45290430D01*
X86912489Y-45222617D01*
X86917376Y-45210818D01*
X86938946Y-45158742D01*
X86977360Y-45101252D01*
X87026252Y-45052360D01*
X87083742Y-45013946D01*
X87147615Y-44987490D01*
X87147614Y-44987490D01*
X87147617Y-44987489D01*
X87215430Y-44974000D01*
X87284570Y-44974000D01*
X87352383Y-44987489D01*
G37*
G36*
X87352383Y-43287489D02*
G01*
X87352386Y-43287490D01*
X87352385Y-43287490D01*
X87416258Y-43313946D01*
X87473748Y-43352360D01*
X87522640Y-43401252D01*
X87561054Y-43458742D01*
X87577190Y-43497699D01*
X87587511Y-43522617D01*
X87601000Y-43590430D01*
X87601000Y-43659570D01*
X87587511Y-43727383D01*
X87587510Y-43727385D01*
X87561054Y-43791258D01*
X87522640Y-43848748D01*
X87473748Y-43897640D01*
X87416258Y-43936054D01*
X87364182Y-43957624D01*
X87352383Y-43962511D01*
X87284570Y-43976000D01*
X87215430Y-43976000D01*
X87147617Y-43962511D01*
X87135818Y-43957624D01*
X87083742Y-43936054D01*
X87026252Y-43897640D01*
X86977360Y-43848748D01*
X86938946Y-43791258D01*
X86912490Y-43727385D01*
X86912489Y-43727383D01*
X86899000Y-43659570D01*
X86899000Y-43590430D01*
X86912489Y-43522617D01*
X86922810Y-43497699D01*
X86938946Y-43458742D01*
X86977360Y-43401252D01*
X87026252Y-43352360D01*
X87083742Y-43313946D01*
X87147615Y-43287490D01*
X87147614Y-43287490D01*
X87147617Y-43287489D01*
X87215430Y-43274000D01*
X87284570Y-43274000D01*
X87352383Y-43287489D01*
G37*
G36*
X44408600Y-41912989D02*
G01*
X44441652Y-41923015D01*
X44472103Y-41939292D01*
X44498799Y-41961201D01*
X44520708Y-41987897D01*
X44536985Y-42018348D01*
X44547011Y-42051400D01*
X44551000Y-42091903D01*
X44551000Y-43528097D01*
X44547011Y-43568600D01*
X44536985Y-43601652D01*
X44520708Y-43632103D01*
X44498799Y-43658799D01*
X44472103Y-43680708D01*
X44441652Y-43696985D01*
X44408600Y-43707011D01*
X44368097Y-43711000D01*
X42631903Y-43711000D01*
X42591400Y-43707011D01*
X42558348Y-43696985D01*
X42527897Y-43680708D01*
X42501201Y-43658799D01*
X42479292Y-43632103D01*
X42463015Y-43601652D01*
X42452989Y-43568600D01*
X42449000Y-43528097D01*
X42449000Y-42091903D01*
X42452989Y-42051400D01*
X42463015Y-42018348D01*
X42479292Y-41987897D01*
X42501201Y-41961201D01*
X42527897Y-41939292D01*
X42558348Y-41923015D01*
X42591400Y-41912989D01*
X42631903Y-41909000D01*
X44368097Y-41909000D01*
X44408600Y-41912989D01*
G37*
G36*
X43760443Y-39415519D02*
G01*
X43826627Y-39422037D01*
X43996466Y-39473557D01*
X44152991Y-39557222D01*
X44188729Y-39586552D01*
X44290186Y-39669814D01*
X44373448Y-39771271D01*
X44402778Y-39807009D01*
X44486443Y-39963534D01*
X44537963Y-40133373D01*
X44555359Y-40310000D01*
X44537963Y-40486627D01*
X44486443Y-40656466D01*
X44402778Y-40812991D01*
X44373448Y-40848729D01*
X44290186Y-40950186D01*
X44188729Y-41033448D01*
X44152991Y-41062778D01*
X43996466Y-41146443D01*
X43826627Y-41197963D01*
X43760442Y-41204482D01*
X43694260Y-41211000D01*
X43305740Y-41211000D01*
X43239558Y-41204482D01*
X43173373Y-41197963D01*
X43003534Y-41146443D01*
X42847009Y-41062778D01*
X42811271Y-41033448D01*
X42709814Y-40950186D01*
X42626552Y-40848729D01*
X42597222Y-40812991D01*
X42513557Y-40656466D01*
X42462037Y-40486627D01*
X42444641Y-40310000D01*
X42462037Y-40133373D01*
X42513557Y-39963534D01*
X42597222Y-39807009D01*
X42626552Y-39771271D01*
X42709814Y-39669814D01*
X42811271Y-39586552D01*
X42847009Y-39557222D01*
X43003534Y-39473557D01*
X43173373Y-39422037D01*
X43239557Y-39415519D01*
X43305740Y-39409000D01*
X43694260Y-39409000D01*
X43760443Y-39415519D01*
G37*
G36*
X65976000Y-33962001D02*
G01*
X65978402Y-33986387D01*
X65985515Y-34009836D01*
X65997066Y-34031447D01*
X66012611Y-34050389D01*
X66031553Y-34065934D01*
X66053164Y-34077485D01*
X66076613Y-34084598D01*
X66100999Y-34087000D01*
X75751000Y-34087000D01*
X75751000Y-36189000D01*
X66099000Y-36189000D01*
X66099000Y-35513999D01*
X66096598Y-35489613D01*
X66089485Y-35466164D01*
X66077934Y-35444553D01*
X66062389Y-35425611D01*
X66043447Y-35410066D01*
X66021836Y-35398515D01*
X65998387Y-35391402D01*
X65974001Y-35389000D01*
X64274000Y-35389000D01*
X64274000Y-33887000D01*
X65976000Y-33887000D01*
X65976000Y-33962001D01*
G37*
G36*
X80776000Y-35389000D02*
G01*
X79074000Y-35389000D01*
X79074000Y-33887000D01*
X80776000Y-33887000D01*
X80776000Y-35389000D01*
G37*
G36*
X44408600Y-33432989D02*
G01*
X44441652Y-33443015D01*
X44472103Y-33459292D01*
X44498799Y-33481201D01*
X44520708Y-33507897D01*
X44536985Y-33538348D01*
X44547011Y-33571400D01*
X44551000Y-33611903D01*
X44551000Y-35048097D01*
X44547011Y-35088600D01*
X44536985Y-35121652D01*
X44520708Y-35152103D01*
X44498799Y-35178799D01*
X44472103Y-35200708D01*
X44441652Y-35216985D01*
X44408600Y-35227011D01*
X44368097Y-35231000D01*
X42631903Y-35231000D01*
X42591400Y-35227011D01*
X42558348Y-35216985D01*
X42527897Y-35200708D01*
X42501201Y-35178799D01*
X42479292Y-35152103D01*
X42463015Y-35121652D01*
X42452989Y-35088600D01*
X42449000Y-35048097D01*
X42449000Y-33611903D01*
X42452989Y-33571400D01*
X42463015Y-33538348D01*
X42479292Y-33507897D01*
X42501201Y-33481201D01*
X42527897Y-33459292D01*
X42558348Y-33443015D01*
X42591400Y-33432989D01*
X42631903Y-33429000D01*
X44368097Y-33429000D01*
X44408600Y-33432989D01*
G37*
G36*
X54877617Y-31778420D02*
G01*
X54968403Y-31805960D01*
X55000335Y-31815646D01*
X55113424Y-31876094D01*
X55212554Y-31957447D01*
X55293906Y-32056575D01*
X55354354Y-32169664D01*
X55356417Y-32176466D01*
X55391580Y-32292382D01*
X55401000Y-32388027D01*
X55401000Y-33051973D01*
X55391580Y-33147618D01*
X55364040Y-33238404D01*
X55354354Y-33270336D01*
X55293906Y-33383425D01*
X55212554Y-33482554D01*
X55113425Y-33563906D01*
X55000336Y-33624354D01*
X54968404Y-33634040D01*
X54877618Y-33661580D01*
X54750000Y-33674149D01*
X54622383Y-33661580D01*
X54531597Y-33634040D01*
X54499665Y-33624354D01*
X54386576Y-33563906D01*
X54287447Y-33482554D01*
X54206096Y-33383427D01*
X54145645Y-33270333D01*
X54133237Y-33229427D01*
X54108420Y-33147618D01*
X54099000Y-33051973D01*
X54099000Y-32388028D01*
X54108420Y-32292383D01*
X54135960Y-32201597D01*
X54145646Y-32169665D01*
X54206094Y-32056576D01*
X54287447Y-31957446D01*
X54386575Y-31876094D01*
X54499664Y-31815646D01*
X54531596Y-31805960D01*
X54622382Y-31778420D01*
X54750000Y-31765851D01*
X54877617Y-31778420D01*
G37*
G36*
X57377617Y-31778420D02*
G01*
X57468403Y-31805960D01*
X57500335Y-31815646D01*
X57613424Y-31876094D01*
X57712554Y-31957447D01*
X57793906Y-32056575D01*
X57854354Y-32169664D01*
X57856417Y-32176466D01*
X57891580Y-32292382D01*
X57901000Y-32388027D01*
X57901000Y-33051973D01*
X57891580Y-33147618D01*
X57864040Y-33238404D01*
X57854354Y-33270336D01*
X57793906Y-33383425D01*
X57712554Y-33482554D01*
X57613425Y-33563906D01*
X57500336Y-33624354D01*
X57468404Y-33634040D01*
X57377618Y-33661580D01*
X57250000Y-33674149D01*
X57122383Y-33661580D01*
X57031597Y-33634040D01*
X56999665Y-33624354D01*
X56886576Y-33563906D01*
X56787447Y-33482554D01*
X56706096Y-33383427D01*
X56645645Y-33270333D01*
X56633237Y-33229427D01*
X56608420Y-33147618D01*
X56599000Y-33051973D01*
X56599000Y-32388028D01*
X56608420Y-32292383D01*
X56635960Y-32201597D01*
X56645646Y-32169665D01*
X56706094Y-32056576D01*
X56787447Y-31957446D01*
X56886575Y-31876094D01*
X56999664Y-31815646D01*
X57031596Y-31805960D01*
X57122382Y-31778420D01*
X57250000Y-31765851D01*
X57377617Y-31778420D01*
G37*
G36*
X59377617Y-31778420D02*
G01*
X59468403Y-31805960D01*
X59500335Y-31815646D01*
X59613424Y-31876094D01*
X59712554Y-31957447D01*
X59793906Y-32056575D01*
X59854354Y-32169664D01*
X59856417Y-32176466D01*
X59891580Y-32292382D01*
X59901000Y-32388027D01*
X59901000Y-33051973D01*
X59891580Y-33147618D01*
X59864040Y-33238404D01*
X59854354Y-33270336D01*
X59793906Y-33383425D01*
X59712554Y-33482554D01*
X59613425Y-33563906D01*
X59500336Y-33624354D01*
X59468404Y-33634040D01*
X59377618Y-33661580D01*
X59250000Y-33674149D01*
X59122383Y-33661580D01*
X59031597Y-33634040D01*
X58999665Y-33624354D01*
X58886576Y-33563906D01*
X58787447Y-33482554D01*
X58706096Y-33383427D01*
X58645645Y-33270333D01*
X58633237Y-33229427D01*
X58608420Y-33147618D01*
X58599000Y-33051973D01*
X58599000Y-32388028D01*
X58608420Y-32292383D01*
X58635960Y-32201597D01*
X58645646Y-32169665D01*
X58706094Y-32056576D01*
X58787447Y-31957446D01*
X58886575Y-31876094D01*
X58999664Y-31815646D01*
X59031596Y-31805960D01*
X59122382Y-31778420D01*
X59250000Y-31765851D01*
X59377617Y-31778420D01*
G37*
G36*
X61877617Y-31778420D02*
G01*
X61968403Y-31805960D01*
X62000335Y-31815646D01*
X62113424Y-31876094D01*
X62212554Y-31957447D01*
X62293906Y-32056575D01*
X62354354Y-32169664D01*
X62356417Y-32176466D01*
X62391580Y-32292382D01*
X62401000Y-32388027D01*
X62401000Y-33051973D01*
X62391580Y-33147618D01*
X62364040Y-33238404D01*
X62354354Y-33270336D01*
X62293906Y-33383425D01*
X62212554Y-33482554D01*
X62113425Y-33563906D01*
X62000336Y-33624354D01*
X61968404Y-33634040D01*
X61877618Y-33661580D01*
X61750000Y-33674149D01*
X61622383Y-33661580D01*
X61531597Y-33634040D01*
X61499665Y-33624354D01*
X61386576Y-33563906D01*
X61287447Y-33482554D01*
X61206096Y-33383427D01*
X61145645Y-33270333D01*
X61133237Y-33229427D01*
X61108420Y-33147618D01*
X61099000Y-33051973D01*
X61099000Y-32388028D01*
X61108420Y-32292383D01*
X61135960Y-32201597D01*
X61145646Y-32169665D01*
X61206094Y-32056576D01*
X61287447Y-31957446D01*
X61386575Y-31876094D01*
X61499664Y-31815646D01*
X61531596Y-31805960D01*
X61622382Y-31778420D01*
X61750000Y-31765851D01*
X61877617Y-31778420D01*
G37*
G36*
X43760442Y-30935518D02*
G01*
X43826627Y-30942037D01*
X43996466Y-30993557D01*
X44152991Y-31077222D01*
X44188729Y-31106552D01*
X44290186Y-31189814D01*
X44371694Y-31289133D01*
X44402778Y-31327009D01*
X44486443Y-31483534D01*
X44537963Y-31653373D01*
X44555359Y-31830000D01*
X44537963Y-32006627D01*
X44486443Y-32176466D01*
X44402778Y-32332991D01*
X44373448Y-32368729D01*
X44290186Y-32470186D01*
X44188729Y-32553448D01*
X44152991Y-32582778D01*
X43996466Y-32666443D01*
X43826627Y-32717963D01*
X43760442Y-32724482D01*
X43694260Y-32731000D01*
X43305740Y-32731000D01*
X43239558Y-32724482D01*
X43173373Y-32717963D01*
X43003534Y-32666443D01*
X42847009Y-32582778D01*
X42811271Y-32553448D01*
X42709814Y-32470186D01*
X42626552Y-32368729D01*
X42597222Y-32332991D01*
X42513557Y-32176466D01*
X42462037Y-32006627D01*
X42444641Y-31830000D01*
X42462037Y-31653373D01*
X42513557Y-31483534D01*
X42597222Y-31327009D01*
X42628306Y-31289133D01*
X42709814Y-31189814D01*
X42811271Y-31106552D01*
X42847009Y-31077222D01*
X43003534Y-30993557D01*
X43173373Y-30942037D01*
X43239558Y-30935518D01*
X43305740Y-30929000D01*
X43694260Y-30929000D01*
X43760442Y-30935518D01*
G37*
G36*
X64907022Y-29030590D02*
G01*
X65007681Y-29061125D01*
X65058012Y-29076392D01*
X65197164Y-29150771D01*
X65319133Y-29250867D01*
X65419229Y-29372835D01*
X65493608Y-29511987D01*
X65508875Y-29562318D01*
X65539410Y-29662977D01*
X65551000Y-29780655D01*
X65551000Y-30759345D01*
X65539410Y-30877023D01*
X65523643Y-30929000D01*
X65493608Y-31028013D01*
X65419229Y-31167165D01*
X65319133Y-31289133D01*
X65197165Y-31389229D01*
X65058013Y-31463608D01*
X65007682Y-31478875D01*
X64907023Y-31509410D01*
X64750000Y-31524875D01*
X64592978Y-31509410D01*
X64492319Y-31478875D01*
X64441988Y-31463608D01*
X64302836Y-31389229D01*
X64180868Y-31289133D01*
X64080772Y-31167165D01*
X64006393Y-31028013D01*
X63976358Y-30929000D01*
X63960591Y-30877023D01*
X63949000Y-30759345D01*
X63949000Y-29780656D01*
X63960590Y-29662978D01*
X64006392Y-29511989D01*
X64006392Y-29511988D01*
X64080771Y-29372836D01*
X64080772Y-29372835D01*
X64180867Y-29250867D01*
X64302835Y-29150771D01*
X64441987Y-29076392D01*
X64492318Y-29061125D01*
X64592977Y-29030590D01*
X64750000Y-29015125D01*
X64907022Y-29030590D01*
G37*
G36*
X51907022Y-29030590D02*
G01*
X52007681Y-29061125D01*
X52058012Y-29076392D01*
X52197164Y-29150771D01*
X52319133Y-29250867D01*
X52419229Y-29372835D01*
X52493608Y-29511987D01*
X52508875Y-29562318D01*
X52539410Y-29662977D01*
X52551000Y-29780655D01*
X52551000Y-30759345D01*
X52539410Y-30877023D01*
X52523643Y-30929000D01*
X52493608Y-31028013D01*
X52419229Y-31167165D01*
X52319133Y-31289133D01*
X52197165Y-31389229D01*
X52058013Y-31463608D01*
X52007682Y-31478875D01*
X51907023Y-31509410D01*
X51750000Y-31524875D01*
X51592978Y-31509410D01*
X51492319Y-31478875D01*
X51441988Y-31463608D01*
X51302836Y-31389229D01*
X51180868Y-31289133D01*
X51080772Y-31167165D01*
X51006393Y-31028013D01*
X50976358Y-30929000D01*
X50960591Y-30877023D01*
X50949000Y-30759345D01*
X50949000Y-29780656D01*
X50960590Y-29662978D01*
X51006392Y-29511989D01*
X51006392Y-29511988D01*
X51080771Y-29372836D01*
X51080772Y-29372835D01*
X51180867Y-29250867D01*
X51302835Y-29150771D01*
X51441987Y-29076392D01*
X51492318Y-29061125D01*
X51592977Y-29030590D01*
X51750000Y-29015125D01*
X51907022Y-29030590D01*
G37*
G36*
X46225092Y-22185778D02*
G01*
X46668282Y-22273934D01*
X47259926Y-22519001D01*
X47792392Y-22874784D01*
X48245216Y-23327608D01*
X48600999Y-23860074D01*
X48829834Y-24412531D01*
X48846066Y-24451719D01*
X48971000Y-25079803D01*
X48971000Y-25720197D01*
X48944820Y-25851814D01*
X48846066Y-26348282D01*
X48600999Y-26939926D01*
X48245216Y-27472392D01*
X47792392Y-27925216D01*
X47259926Y-28280999D01*
X46668282Y-28526066D01*
X46354239Y-28588533D01*
X46040197Y-28651000D01*
X45399803Y-28651000D01*
X45085761Y-28588533D01*
X44771718Y-28526066D01*
X44180074Y-28280999D01*
X43647608Y-27925216D01*
X43194784Y-27472392D01*
X42839001Y-26939926D01*
X42593934Y-26348282D01*
X42495180Y-25851814D01*
X42469000Y-25720197D01*
X42469000Y-25079803D01*
X42593934Y-24451719D01*
X42610166Y-24412531D01*
X42839001Y-23860074D01*
X43194784Y-23327608D01*
X43647608Y-22874784D01*
X44180074Y-22519001D01*
X44771718Y-22273934D01*
X45214908Y-22185778D01*
X45399803Y-22149000D01*
X46040197Y-22149000D01*
X46225092Y-22185778D01*
G37*
G36*
X84465092Y-22185778D02*
G01*
X84908282Y-22273934D01*
X85499926Y-22519001D01*
X86032392Y-22874784D01*
X86485216Y-23327608D01*
X86840999Y-23860074D01*
X87069834Y-24412531D01*
X87086066Y-24451719D01*
X87211000Y-25079803D01*
X87211000Y-25720197D01*
X87184820Y-25851814D01*
X87086066Y-26348282D01*
X86840999Y-26939926D01*
X86485216Y-27472392D01*
X86032392Y-27925216D01*
X85499926Y-28280999D01*
X84908282Y-28526066D01*
X84594239Y-28588533D01*
X84280197Y-28651000D01*
X83639803Y-28651000D01*
X83325761Y-28588533D01*
X83011718Y-28526066D01*
X82420074Y-28280999D01*
X81887608Y-27925216D01*
X81434784Y-27472392D01*
X81079001Y-26939926D01*
X80833934Y-26348282D01*
X80822264Y-26289613D01*
X80815151Y-26266164D01*
X80803600Y-26244553D01*
X80788054Y-26225611D01*
X80769113Y-26210066D01*
X80747502Y-26198515D01*
X80724053Y-26191402D01*
X80699667Y-26189000D01*
X80174000Y-26189000D01*
X80174000Y-23887000D01*
X80994197Y-23887000D01*
X81018583Y-23884598D01*
X81042032Y-23877485D01*
X81063643Y-23865934D01*
X81082585Y-23850389D01*
X81098125Y-23831454D01*
X81434784Y-23327608D01*
X81887608Y-22874784D01*
X82420074Y-22519001D01*
X83011718Y-22273934D01*
X83454908Y-22185778D01*
X83639803Y-22149000D01*
X84280197Y-22149000D01*
X84465092Y-22185778D01*
G37*
G36*
X65976000Y-26189000D02*
G01*
X64674000Y-26189000D01*
X64674000Y-23887000D01*
X65976000Y-23887000D01*
X65976000Y-26189000D01*
G37*
G36*
X70011552Y-25067831D02*
G01*
X70093627Y-25101828D01*
X70093629Y-25101829D01*
X70109605Y-25112504D01*
X70167495Y-25151185D01*
X70230315Y-25214005D01*
X70279672Y-25287873D01*
X70313669Y-25369948D01*
X70331000Y-25457079D01*
X70331000Y-25545921D01*
X70313669Y-25633052D01*
X70291117Y-25687496D01*
X70279671Y-25715129D01*
X70230314Y-25788996D01*
X70167496Y-25851814D01*
X70093629Y-25901171D01*
X70093628Y-25901172D01*
X70093627Y-25901172D01*
X70011552Y-25935169D01*
X69924421Y-25952500D01*
X69835579Y-25952500D01*
X69748448Y-25935169D01*
X69666373Y-25901172D01*
X69666372Y-25901172D01*
X69666371Y-25901171D01*
X69592504Y-25851814D01*
X69529686Y-25788996D01*
X69480329Y-25715129D01*
X69468883Y-25687496D01*
X69446331Y-25633052D01*
X69429000Y-25545921D01*
X69429000Y-25457079D01*
X69446331Y-25369948D01*
X69480328Y-25287873D01*
X69529685Y-25214005D01*
X69592505Y-25151185D01*
X69650395Y-25112504D01*
X69666371Y-25101829D01*
X69666373Y-25101828D01*
X69748448Y-25067831D01*
X69835579Y-25050500D01*
X69924421Y-25050500D01*
X70011552Y-25067831D01*
G37*
G36*
X75011552Y-25067831D02*
G01*
X75093627Y-25101828D01*
X75093629Y-25101829D01*
X75109605Y-25112504D01*
X75167495Y-25151185D01*
X75230315Y-25214005D01*
X75279672Y-25287873D01*
X75313669Y-25369948D01*
X75331000Y-25457079D01*
X75331000Y-25545921D01*
X75313669Y-25633052D01*
X75291117Y-25687496D01*
X75279671Y-25715129D01*
X75230314Y-25788996D01*
X75167496Y-25851814D01*
X75093629Y-25901171D01*
X75093628Y-25901172D01*
X75093627Y-25901172D01*
X75011552Y-25935169D01*
X74924421Y-25952500D01*
X74835579Y-25952500D01*
X74748448Y-25935169D01*
X74666373Y-25901172D01*
X74666372Y-25901172D01*
X74666371Y-25901171D01*
X74592504Y-25851814D01*
X74529686Y-25788996D01*
X74480329Y-25715129D01*
X74468883Y-25687496D01*
X74446331Y-25633052D01*
X74429000Y-25545921D01*
X74429000Y-25457079D01*
X74446331Y-25369948D01*
X74480328Y-25287873D01*
X74529685Y-25214005D01*
X74592505Y-25151185D01*
X74650395Y-25112504D01*
X74666371Y-25101829D01*
X74666373Y-25101828D01*
X74748448Y-25067831D01*
X74835579Y-25050500D01*
X74924421Y-25050500D01*
X75011552Y-25067831D01*
G37*
G36*
X68263843Y-24180292D02*
G01*
X68314588Y-24201311D01*
X68350470Y-24216174D01*
X68428432Y-24268267D01*
X68494733Y-24334568D01*
X68546826Y-24412530D01*
X68546826Y-24412531D01*
X68582708Y-24499157D01*
X68601000Y-24591117D01*
X68601000Y-24684883D01*
X68582708Y-24776843D01*
X68561689Y-24827588D01*
X68546826Y-24863470D01*
X68494733Y-24941432D01*
X68428432Y-25007733D01*
X68350470Y-25059826D01*
X68331141Y-25067832D01*
X68263843Y-25095708D01*
X68171883Y-25114000D01*
X68078117Y-25114000D01*
X67986157Y-25095708D01*
X67918859Y-25067832D01*
X67899530Y-25059826D01*
X67821568Y-25007733D01*
X67755267Y-24941432D01*
X67703174Y-24863470D01*
X67688311Y-24827588D01*
X67667292Y-24776843D01*
X67649000Y-24684883D01*
X67649000Y-24591117D01*
X67667292Y-24499157D01*
X67703174Y-24412531D01*
X67703174Y-24412530D01*
X67755267Y-24334568D01*
X67821568Y-24268267D01*
X67899530Y-24216174D01*
X67935412Y-24201311D01*
X67986157Y-24180292D01*
X68078117Y-24162000D01*
X68171883Y-24162000D01*
X68263843Y-24180292D01*
G37*
G36*
X76263843Y-24180292D02*
G01*
X76314588Y-24201311D01*
X76350470Y-24216174D01*
X76428432Y-24268267D01*
X76494733Y-24334568D01*
X76546826Y-24412530D01*
X76546826Y-24412531D01*
X76582708Y-24499157D01*
X76601000Y-24591117D01*
X76601000Y-24684883D01*
X76582708Y-24776843D01*
X76561689Y-24827588D01*
X76546826Y-24863470D01*
X76494733Y-24941432D01*
X76428432Y-25007733D01*
X76350470Y-25059826D01*
X76331141Y-25067832D01*
X76263843Y-25095708D01*
X76171883Y-25114000D01*
X76078117Y-25114000D01*
X75986157Y-25095708D01*
X75918859Y-25067832D01*
X75899530Y-25059826D01*
X75821568Y-25007733D01*
X75755267Y-24941432D01*
X75703174Y-24863470D01*
X75688311Y-24827588D01*
X75667292Y-24776843D01*
X75649000Y-24684883D01*
X75649000Y-24591117D01*
X75667292Y-24499157D01*
X75703174Y-24412531D01*
X75703174Y-24412530D01*
X75755267Y-24334568D01*
X75821568Y-24268267D01*
X75899530Y-24216174D01*
X75935412Y-24201311D01*
X75986157Y-24180292D01*
X76078117Y-24162000D01*
X76171883Y-24162000D01*
X76263843Y-24180292D01*
G37*
G36*
X68627715Y-21809558D02*
G01*
X68745722Y-21845355D01*
X68854468Y-21903481D01*
X68949790Y-21981710D01*
X69028019Y-22077032D01*
X69086145Y-22185778D01*
X69121942Y-22303785D01*
X69131000Y-22395754D01*
X69131000Y-23107246D01*
X69121942Y-23199215D01*
X69086145Y-23317222D01*
X69028019Y-23425968D01*
X68949790Y-23521290D01*
X68854468Y-23599519D01*
X68745721Y-23657645D01*
X68745718Y-23657646D01*
X68723752Y-23664309D01*
X68627714Y-23693442D01*
X68505000Y-23705528D01*
X68382285Y-23693442D01*
X68286247Y-23664309D01*
X68264281Y-23657646D01*
X68264278Y-23657645D01*
X68155532Y-23599519D01*
X68060210Y-23521290D01*
X67981981Y-23425968D01*
X67923855Y-23317221D01*
X67888058Y-23199214D01*
X67879000Y-23107245D01*
X67879000Y-22395754D01*
X67888058Y-22303785D01*
X67923855Y-22185779D01*
X67981982Y-22077032D01*
X68060211Y-21981710D01*
X68155533Y-21903481D01*
X68264279Y-21845355D01*
X68382286Y-21809558D01*
X68505000Y-21797472D01*
X68627715Y-21809558D01*
G37*
G36*
X76377715Y-21809558D02*
G01*
X76495722Y-21845355D01*
X76604468Y-21903481D01*
X76699790Y-21981710D01*
X76778019Y-22077032D01*
X76836145Y-22185778D01*
X76871942Y-22303785D01*
X76881000Y-22395754D01*
X76881000Y-23107246D01*
X76871942Y-23199215D01*
X76836145Y-23317222D01*
X76778019Y-23425968D01*
X76699790Y-23521290D01*
X76604468Y-23599519D01*
X76495721Y-23657645D01*
X76495718Y-23657646D01*
X76473752Y-23664309D01*
X76377714Y-23693442D01*
X76255000Y-23705528D01*
X76132285Y-23693442D01*
X76036247Y-23664309D01*
X76014281Y-23657646D01*
X76014278Y-23657645D01*
X75905532Y-23599519D01*
X75810210Y-23521290D01*
X75731981Y-23425968D01*
X75673855Y-23317221D01*
X75638058Y-23199214D01*
X75629000Y-23107245D01*
X75629000Y-22395754D01*
X75638058Y-22303785D01*
X75673855Y-22185779D01*
X75731982Y-22077032D01*
X75810211Y-21981710D01*
X75905533Y-21903481D01*
X76014279Y-21845355D01*
X76132286Y-21809558D01*
X76255000Y-21797472D01*
X76377715Y-21809558D01*
G37*
M02*
